<?xml version="1.0" encoding="UTF-8"?>
<svg version="1.1" viewBox="0 0 2744 1144" xmlns="http://www.w3.org/2000/svg">
<path transform="translate(1495,92)" d="m0 0c1.977 1.906 1.977 1.906 3.625 4.5 0.588 0.913 1.176 1.825 1.781 2.766 2.037 3.494 3.786 7.117 5.594 10.734 0.825 0.949 1.65 1.898 2.5 2.875 2.749 3.436 3.955 6.544 5.48 10.621 1.553 3.812 3.753 7.077 6.02 10.504 3.958 6.032 7.606 12.02 10.75 18.516 2.651 5.269 5.548 10.482 9.375 14.984 2.935 3.914 5.875 9.504 5.875 14.5 0.99 0.33 1.98 0.66 3 1 1.465 2.293 1.465 2.293 2.938 5.188 1.645 3.156 3.259 6.104 5.25 9.062 1.812 2.75 1.812 2.75 3.312 6.312 1.5 3.438 1.5 3.438 3.375 5.75 2.543 3.216 4.127 6.594 5.902 10.274 1.223 2.414 1.223 2.414 3.285 5.476 1.68 2.546 2.817 4.838 4 7.626 1.938 4.312 1.938 4.312 4.938 7.312 0.865 1.576 1.675 3.184 2.438 4.812 1.435 2.975 2.849 5.618 4.687 8.376 1.875 2.812 1.875 2.812 3.375 6.374 1.485 3.403 3.19 5.568 5.5 8.438 1.351 2.658 2.683 5.325 4 8 0.412 0.65 0.412 0.65 2.5 3.938 1.833 2.978 3.222 5.574 4.562 8.75 1.73 3.848 3.35 6.083 5.938 9.312 1.374 2.246 2.705 4.519 4 6.812 0.696 1.233 1.392 2.465 2.109 3.735 1.451 2.649 2.833 5.295 4.141 8.015 1.75 3.438 1.75 3.438 3.688 5.813 2.409 3.066 3.941 6.233 5.64 9.73 1.605 3.268 3.28 6.491 4.984 9.707 0.28 0.53 0.28 0.53 1.692 3.208 1.703 2.907 3.637 5.36 5.746 7.98 0.843 1.514 1.636 3.057 2.375 4.625 6.949 14.305 6.949 14.305 10.75 19 2.181 2.763 3.385 5.702 4.754 8.926 2.9 6.335 6.904 12.115 10.683 17.949 2.708 4.222 5.005 8.506 7.188 13.016 2.651 5.269 5.548 10.482 9.375 14.984 2.935 3.914 5.875 9.504 5.875 14.5 0.99 0.33 1.98 0.66 3 1 1.465 2.293 1.465 2.293 2.938 5.188 1.645 3.156 3.259 6.104 5.25 9.062 1.812 2.75 1.812 2.75 3.187 6 2.11 4.869 4.843 9.243 7.625 13.75 0.517 0.869 1.034 1.738 1.566 2.633 1.059 1.747 2.195 3.447 3.372 5.117 1.689 2.662 2.902 5.059 4.124 7.938 1.938 4.312 1.938 4.312 4.938 7.312 0.865 1.576 1.675 3.184 2.438 4.812 1.435 2.975 2.849 5.618 4.687 8.376 1.875 2.812 1.875 2.812 3.375 6.374 1.485 3.403 3.19 5.568 5.5 8.438 1.351 2.658 2.683 5.325 4 8 0.412 0.65 0.412 0.65 2.5 3.938 1.833 2.978 3.222 5.574 4.562 8.75 1.723 3.834 3.342 6.107 5.938 9.312 3.452 5.42 6.65 10.939 9.125 16.875 1.868 4.11 4 6.689 6.875 10.125 1.299 2.341 2.454 4.728 3.613 7.141 1.582 3.262 3.25 6.469 4.949 9.671 0.559 1.059 1.117 2.117 1.692 3.208 1.703 2.907 3.637 5.36 5.746 7.98 0.843 1.514 1.636 3.057 2.375 4.625 6.949 14.305 6.949 14.305 10.75 19 2.181 2.763 3.385 5.702 4.754 8.926 2.918 6.375 6.954 12.195 10.746 18.074 2.779 4.367 5.364 8.599 7.375 13.375l-1 4c-3.585 1.793-7.854 1.148-11.805 1.147-0.515 2e-3 -0.515 2e-3 -3.123 0.011-3.476 0.011-6.952 0.015-10.428 0.019-2.484 6e-3 -4.967 0.013-7.45 0.02-6.762 0.017-13.525 0.028-20.287 0.036-4.222 5e-3 -8.444 0.011-12.665 0.018-13.199 0.019-26.398 0.033-39.597 0.041-15.254 0.01-30.507 0.036-45.761 0.077-11.779 0.03-23.557 0.045-35.335 0.048-7.041 2e-3 -14.081 0.011-21.121 0.036-6.622 0.024-13.244 0.028-19.866 0.018-2.433-1e-3 -4.865 6e-3 -7.298 0.019-3.317 0.018-6.634 0.011-9.951-2e-3 -0.966 0.011-1.931 0.022-2.926 0.033-5.668-0.055-9.056-0.807-13.387-4.521-3.356-4.146-5.053-8.56-6.934-13.48-1.6-3.782-3.819-7.093-6.066-10.52-0.701-1.237-1.402-2.475-2.125-3.75-1.875-3.25-1.875-3.25-4.875-7.25-1.192-2.351-2.381-4.704-3.543-7.07-1.628-3.273-3.309-6.512-5.019-9.742-0.559-1.059-1.117-2.117-1.692-3.208-1.704-2.908-3.638-5.359-5.746-7.98-0.885-1.576-1.72-3.182-2.5-4.812-0.422-0.869-0.843-1.738-1.277-2.633-0.202-0.422-0.202-0.422-1.223-2.555-4.615-9.37-9.866-18.184-15.562-26.938-1.778-2.962-3.169-5.607-4.5-8.75-1.719-3.825-3.359-6.107-5.938-9.312-1.323-2.501-2.549-5.039-3.773-7.59-1.227-2.41-1.227-2.41-3.352-5.41-1.798-2.877-2.554-5.074-3.437-8.312-0.475-1.547-0.949-3.094-1.438-4.688-0.99-0.33-1.98-0.66-3-1-1.465-2.293-1.465-2.293-2.938-5.188-1.64-3.15-3.237-6.066-5.25-9-1.812-2.812-1.812-2.812-3.187-6.562-2.577-6.741-6.22-12.473-10.687-18.125-3.162-4.067-4.848-8.462-6.719-13.23-1.673-3.973-3.842-7.299-6.219-10.895-0.701-1.238-1.402-2.475-2.125-3.75-1.875-3.25-1.875-3.25-4.875-7.25-1.192-2.351-2.381-4.704-3.543-7.07-1.628-3.273-3.309-6.512-5.019-9.742-0.559-1.059-1.117-2.117-1.692-3.208-1.704-2.908-3.638-5.359-5.746-7.98-0.885-1.576-1.72-3.182-2.5-4.812-0.422-0.869-0.843-1.738-1.277-2.633-0.404-0.843-0.807-1.686-1.223-2.555-4.615-9.37-9.866-18.184-15.562-26.938-1.778-2.962-3.169-5.607-4.5-8.75-1.719-3.825-3.359-6.107-5.938-9.312-1.323-2.501-2.549-5.039-3.773-7.59-1.227-2.41-1.227-2.41-3.352-5.41-1.798-2.877-2.554-5.074-3.437-8.312-0.475-1.547-0.949-3.094-1.438-4.688-0.99-0.33-1.98-0.66-3-1-1.465-2.293-1.465-2.293-2.938-5.188-1.64-3.15-3.237-6.066-5.25-9-1.812-2.812-1.812-2.812-3.187-6.562-2.577-6.741-6.22-12.473-10.687-18.125-3.162-4.067-4.848-8.462-6.719-13.23-1.673-3.973-3.842-7.299-6.219-10.895-0.701-1.238-1.402-2.475-2.125-3.75-1.875-3.25-1.875-3.25-4.875-7.25-1.192-2.351-2.381-4.704-3.543-7.07-1.628-3.273-3.309-6.512-5.019-9.742-0.559-1.059-1.117-2.117-1.692-3.208-1.704-2.908-3.638-5.359-5.746-7.98-0.885-1.576-1.72-3.182-2.5-4.812-0.422-0.869-0.843-1.738-1.277-2.633-0.404-0.843-0.807-1.686-1.223-2.555-4.272-8.673-8.877-17.163-14.465-25.074-2.193-3.19-3.524-5.317-3.597-9.238 1.555-3.935 4.311-5.321 8-7.126 3.062-1.562 3.062-1.562 5.312-3.437 3.263-2.521 6.688-4.113 10.391-5.898 2.756-1.434 4.977-3.242 7.359-5.227 1.011-0.495 2.021-0.99 3.062-1.5 2.938-1.5 2.938-1.5 4.75-3.438 3.234-3.048 7.142-4.288 11.188-6.062 1.683-1.313 3.35-2.646 5-4 2.667-1.333 5.333-2.667 8-4 0.402-0.33 0.402-0.33 2.438-2 2.911-2.272 5.975-3.508 9.363-4.93 3.143-1.53 5.542-3.818 8.199-6.07 2.325-1.02 4.658-2.021 7-3 1.671-1.328 3.337-2.662 5-4 2.667-1.333 5.333-2.667 8-4 0.784-0.639 1.568-1.279 2.375-1.938 3.204-2.517 6.608-4.071 10.266-5.835 2.756-1.434 4.977-3.242 7.359-5.227l6-3c1.114-0.804 2.227-1.609 3.375-2.438 3.74-2.643 7.521-4.542 11.625-6.562 4.198-2.492 8.082-5.064 11.938-8.062 4.044-3.105 8.393-4.891 13.062-6.938 4.159-2.497 8.052-5.162 11.688-8.375 3.033-2.132 4.663-2.078 8.312-1.625z"/>
<path transform="translate(1268,304)" d="m0 0c1.879 1.977 1.879 1.977 3.562 4.625 0.595 0.917 1.189 1.833 1.801 2.777 0.54 0.858 1.081 1.715 1.637 2.598 0.371 0.526 0.371 0.526 2.25 3.188 1.75 2.812 1.75 2.812 3.125 6.062 2.11 4.869 4.843 9.243 7.625 13.75 0.517 0.869 1.034 1.738 1.566 2.633 1.059 1.747 2.195 3.447 3.372 5.117 2.062 3.25 2.062 3.25 4.062 7.812 1.741 3.862 3.366 6.228 6 9.438 1.35 2.658 2.683 5.325 4 8l2 3c2 3 2 3 4 7.062 2 3.938 2 3.938 3.938 6.313 1.867 2.376 3.013 4.423 4.312 7.125 1.963 4.065 4.16 7.866 6.562 11.688 3.729 5.954 7.034 12.07 10.305 18.285 6.024 11.286 6.024 11.286 10.008 16.089 2.679 3.483 4.095 7.434 5.875 11.438 1.328 1.671 2.662 3.337 4 5 1.321 2.498 2.546 5.033 3.773 7.578 1.227 2.422 1.227 2.422 3.352 5.61 1.875 2.812 1.875 2.812 3.313 6.312 1.562 3.5 1.562 3.5 3.937 6.312 2.732 3.318 4.39 6.481 6.238 10.329 1.582 3.262 3.25 6.469 4.949 9.671 0.28 0.53 0.28 0.53 1.692 3.208 1.703 2.907 3.639 5.359 5.746 7.98 0.842 1.536 1.635 3.1 2.375 4.688 3.027 6.241 6.24 12.507 10.75 17.812 2.935 3.914 5.875 9.504 5.875 14.5 0.99 0.33 1.98 0.66 3 1 1.465 2.293 1.465 2.293 2.938 5.188 1.645 3.156 3.259 6.104 5.25 9.062 1.812 2.75 1.812 2.75 3.312 6.312 1.485 3.403 3.19 5.568 5.5 8.438 1.351 2.658 2.683 5.325 4 8 0.412 0.66 0.412 0.66 2.5 4 2.5 4 2.5 4 4.562 8.188 1.938 3.812 1.938 3.812 3.876 6.187 2.437 3.102 3.989 6.33 5.71 9.867 5.93 12.099 5.93 12.099 9.977 16.82 2.695 3.334 3.863 6.445 5.352 10.422 2.188 5.381 5.54 9.896 9.085 14.454 2.149 2.789 3.65 5.436 5 8.687 1.938 4.375 1.938 4.375 4.626 7.5 2.734 3.399 3.312 5.539 3.312 9.875-4.137 2.758-7.979 2.299-12.791 2.301-1.017 8e-3 -2.034 0.016-3.082 0.024-3.425 0.025-6.849 0.035-10.274 0.045-2.449 0.014-4.898 0.029-7.347 0.045-8.056 0.047-16.113 0.073-24.17 0.097-2.772 9e-3 -5.544 0.019-8.316 0.028-11.529 0.039-23.058 0.072-34.588 0.091-16.531 0.026-33.062 0.084-49.593 0.185-11.618 0.069-23.237 0.104-34.856 0.112-6.942 6e-3 -13.883 0.027-20.824 0.085-6.532 0.053-13.063 0.064-19.596 0.042-2.395-1e-3 -4.791 0.013-7.187 0.045-20.37 0.251-20.37 0.251-26.25-5.475-1.808-2.396-1.808-2.396-3.126-4.625-0.642-1.005-1.284-2.011-1.945-3.047-0.39-0.892-0.779-1.784-1.18-2.703-0.464-1.007-0.928-2.014-1.406-3.051-0.243-0.528-0.243-0.528-1.469-3.199-1.189-2.323-2.397-4.635-3.625-6.938-0.549-1.04-1.098-2.08-1.664-3.152-1.692-2.877-3.624-5.313-5.711-7.91-0.821-1.494-1.593-3.017-2.312-4.562-2.906-6.008-6.287-11.701-9.688-17.438-2.105-3.609-4.092-7.188-5.938-10.938-2.595-5.112-5.625-9.865-8.761-14.66-3.361-5.184-6.36-10.358-9.051-15.918-2.635-5.236-5.515-10.409-9.281-14.914-2.089-2.726-3.193-5.18-4.407-8.382-2.708-6.747-6.155-12.378-10.624-18.126-2.57-3.354-4.251-6.776-5.872-10.695-1.957-4.346-4.556-8.324-7.066-12.367-0.516-0.866-1.031-1.732-1.562-2.625-1.06-1.75-2.197-3.453-3.376-5.125-1.689-2.662-2.902-5.059-4.124-7.938-1.938-4.312-1.938-4.312-4.938-7.312-0.865-1.576-1.675-3.184-2.438-4.812-1.435-2.975-2.849-5.618-4.687-8.376-1.875-2.812-1.875-2.812-3.375-6.374-1.485-3.403-3.19-5.568-5.5-8.438-1.351-2.658-2.683-5.325-4-8-0.825-1.299-1.65-2.599-2.5-3.938-1.833-2.978-3.222-5.574-4.562-8.75-1.938-4.312-1.938-4.312-3.797-6.636-2.483-3.104-4.372-6.343-6.329-9.801-0.694-1.219-1.389-2.439-2.105-3.695-2.48-4.619-3.249-7.942-2.707-13.18 3.322-4.429 6.978-5.937 12-8 1.671-1.328 3.337-2.662 5-4 2.667-1.333 5.333-2.667 8-4 0.402-0.33 0.402-0.33 2.438-2 2.911-2.272 5.975-3.508 9.363-4.93 3.143-1.53 5.542-3.818 8.199-6.07 2.325-1.02 4.658-2.021 7-3 1.671-1.328 3.337-2.662 5-4 2.667-1.333 5.333-2.667 8-4 0.804-0.66 1.609-1.32 2.438-2 2.911-2.272 5.975-3.508 9.363-4.93 3.143-1.53 5.542-3.818 8.199-6.07 2.325-1.02 4.658-2.021 7-3 1.671-1.328 3.337-2.662 5-4 2.667-1.333 5.333-2.667 8-4 0.804-0.66 1.609-1.32 2.438-2 2.911-2.272 5.975-3.508 9.363-4.93 3.143-1.53 5.542-3.818 8.199-6.07 2.325-1.02 4.658-2.021 7-3 1.671-1.328 3.337-2.662 5-4 2.667-1.333 5.333-2.667 8-4 0.804-0.66 1.609-1.32 2.438-2 2.911-2.272 5.975-3.508 9.363-4.93 3.143-1.53 5.542-3.818 8.199-6.07 2.32-1.031 4.654-2.029 7-3 2.675-1.652 5.343-3.317 8-5 3-1 3-1 8-1z"/>
<path transform="translate(1512.6 725.38)" d="m0 0c1.947-0.02 3.895-0.01 5.842 0.021h3.12c2.178 6e-3 4.356 0.023 6.534 0.052 3.334 0.042 6.666 0.041 10 0.034 2.116 0.011 4.231 0.024 6.346 0.039 0.998 1e-3 1.996 1e-3 3.024 1e-3 5.225 0.089 7.236 0.239 11.542 3.468 0.996 2.986 1.127 4.941 1.129 8.058 3e-3 1.052 7e-3 2.103 0.01 3.187-1e-3 0.58-1e-3 0.58-5e-3 3.514 2e-3 1.229 5e-3 2.457 7e-3 3.723 6e-3 4.141 6e-3 8.282 5e-3 12.423 3e-3 2.959 6e-3 5.919 0.01 8.878 8e-3 7.22 0.011 14.44 0.012 21.66 0 5.871 2e-3 11.741 5e-3 17.611 9e-3 16.644 0.014 33.288 0.013 49.931v2.721 2.723c-1e-3 14.556 9e-3 29.112 0.023 43.667 0.014 14.946 0.021 29.892 0.02 44.837 0 8.391 3e-3 16.782 0.013 25.172 0.01 7.896 0.01 15.791 3e-3 23.686-1e-3 2.897 1e-3 5.793 7e-3 8.69 8e-3 3.957 3e-3 7.915-4e-3 11.872 5e-3 1.144 0.01 2.288 0.015 3.466-0.028 6.661-0.584 12.719-2.263 19.181-3.779 1.89-8.451 1.164-12.625 1.168-1.057 4e-3 -2.115 7e-3 -3.205 0.01-2.24 5e-3 -4.479 8e-3 -6.718 8e-3 -3.437 2e-3 -6.874 0.02-10.311 0.039-2.172 3e-3 -4.344 5e-3 -6.516 6e-3 -1.033 7e-3 -2.066 0.014-3.131 0.021-7.265-0.023-7.265-0.023-9.494-2.252-0.697-2.993-1.364-5.993-2-9-1-1-1-1-4.25-1.375-3.75 0.375-3.75 0.375-5.875 2.688-3.867 3.615-7.432 3.927-12.535 4.937-3.036 0.682-5.621 1.575-8.465 2.813-15.209 6.345-33.189 5.185-49.375 4.687-1.061-0.026-2.122-0.052-3.215-0.079-10.783-0.427-19.675-2.787-29.285-7.671-1.485-0.289-2.97-0.577-4.5-0.875-5.565-1.391-8.02-3.585-12.5-7.125-2.324-1.019-4.657-2.02-7-3-2.347-1.647-4.681-3.313-7-5-0.515-0.237-0.515-0.237-3.125-1.437-3.585-1.949-5.376-4.36-7.875-7.563-0.783-0.763-1.567-1.526-2.375-2.312-13.302-13.62-22.675-31.657-28.187-49.75-2.377-7.767-2.377-7.767-3.527-10.996-6.019-19.451-3.661-44.47 3.363-63.262 1.726-4.68 1.726-4.68 2.777-9.512 0.845-3.709 1.547-5.743 3.762-8.73 0.535-0.745 1.07-1.49 1.621-2.258 0.258-0.36 0.258-0.36 1.566-2.18 0.784-1.299 1.568-2.599 2.375-3.937 7.848-12.145 17.727-23.824 29.625-32.063 0.846-0.866 1.692-1.732 2.563-2.625 2.663-2.594 5.1-3.773 8.437-5.375 1.094-0.825 2.187-1.65 3.313-2.5 4.106-2.784 7.986-3.977 12.687-5.5 0.864-0.647 1.728-1.294 2.618-1.961 4.519-2.724 8.781-3.31 13.945-4.101 1.987-0.327 3.974-0.656 5.961-0.989 0.951-0.158 1.902-0.316 2.882-0.479 3.146-0.57 6.2-1.372 9.282-2.22 11.847-2.86 24.756-2.255 36.215 1.77 3.325 1.052 6.644 1.643 10.078 2.223 10.187 1.755 20.444 4.182 28.019 11.757 2.658 0.403 5.326 0.741 8 1 6e-3 -1.116 0.012-2.233 0.018-3.383 0.058-10.52 0.13-21.041 0.218-31.561 0.045-5.409 0.084-10.818 0.111-16.226 0.026-5.22 0.066-10.439 0.117-15.659 0.016-1.991 0.028-3.983 0.034-5.974 0.01-2.79 0.038-5.578 0.07-8.367 6e-3 -0.794 6e-3 -0.794 0.034-4.812 0.638-6.433 1.385-8.748 7.99-9.633zm-118.83 143.98c-1.766 1.636-1.766 1.636-4.828 3.886-3.553 3.327-5.762 6.957-8.227 11.129-1.711 2.621-1.711 2.621-3.793 4.629-2.246 2.334-2.979 4.24-3.98 7.305-1.096 3.25-2.214 6.302-3.625 9.437-6.647 16.461-2.418 38.078 4.062 53.75 2.249 5.216 4.434 8.673 8.625 12.5 1.667 2 3.334 4 5 6 4.782 5.141 9.752 7.937 16 11 1.094 0.66 2.187 1.32 3.313 2 5.562 2.83 11.759 3.422 17.859 4.387 3.828 0.613 3.828 0.613 7.828 1.613 8.749 0.893 16.976-0.334 25.5-2.187 0.472-0.098 0.472-0.098 2.859-0.595 5.772-1.342 9.26-3.042 13.641-7.218 1.197-0.66 2.393-1.32 3.625-2 3.46-2.05 5.031-3.796 7.375-7 0.784-0.763 1.568-1.526 2.375-2.312 5.886-6.026 9.486-12.097 12.938-19.75 0.35-0.768 0.699-1.536 1.06-2.327 4.058-9.3 3.839-18.385 3.877-28.361 0.021-1.307 0.042-2.614 0.063-3.961 0.039-9.861-1.055-18.734-5.75-27.539-0.217-0.409-0.217-0.409-1.316-2.48-0.412-0.749-0.823-1.498-1.247-2.27-0.618-1.175-1.237-2.351-1.875-3.562-6.378-10.318-14.19-19.179-25.625-23.875-3.5-1.563-3.5-1.563-6.125-3.688-6.488-5.123-17.335-3.1-25.125-3.125-1.619-0.02-3.238-0.041-4.906-0.062-15.709-0.052-27.939 3.77-39.578 14.676z"/>
<path transform="translate(1155.3 726.47)" d="m0 0c1.006-4e-3 2.012-8e-3 3.048-0.012 2.125-2e-3 4.25 5e-3 6.375 0.022 3.253 0.021 6.504 0 9.757-0.026 2.065 3e-3 4.13 8e-3 6.195 0.016 0.973-8e-3 1.946-0.016 2.948-0.025 6.752 0.094 6.752 0.094 9.621 2.259 2.104 2.772 2.247 4.123 2.257 7.573 0.013 1.075 0.025 2.15 0.038 3.257-6e-3 1.18-0.012 2.36-0.019 3.576 9e-3 1.255 0.018 2.509 0.027 3.801 0.025 4.221 0.021 8.441 0.018 12.663 0.012 3.018 0.026 6.037 0.041 9.056 0.033 7.358 0.047 14.717 0.053 22.076 7e-3 8.566 0.035 17.132 0.064 25.698 0.051 15.281 0.082 30.562 0.103 45.844 0.021 14.836 0.055 29.671 0.105 44.507 3e-3 0.913 6e-3 1.827 9e-3 2.768 3e-3 0.913 6e-3 1.825 9e-3 2.764 0.057 16.879 0.1 33.758 0.137 50.637 0.014 5.974 0.031 11.948 0.05 17.921 0.025 8.038 0.038 16.075 0.044 24.112 4e-3 2.956 0.012 5.911 0.022 8.867 0.015 4.023 0.016 8.045 0.015 12.068 7e-3 1.18 0.014 2.361 0.021 3.576-3e-3 1.075-6e-3 2.15-9e-3 3.258 1e-3 0.464 1e-3 0.464 5e-3 2.815-0.246 2.46-0.246 2.46-2.246 6.46-11.988 7.193-30.492 4.865-43.563 2-4.724-2.748-6.761-6.35-9.437-11-1-1-1-1-5.626-1.312-6.935 0.059-10.947 3.242-16.374 7.312-3 1-6 2-9 3-2.348 1.309-4.684 2.638-7 4-14.656 3.664-30.95 2.235-45.938 1.625-0.432-0.015-0.432-0.015-2.618-0.093-8.055-0.374-15.405-1.916-22.882-4.907-1.112-0.443-2.225-0.887-3.371-1.344-1.053-0.422-2.106-0.845-3.191-1.281-0.858-0.319-1.715-0.639-2.598-0.969-9.11-3.436-17.889-7.801-25.402-14.031-1.155-0.804-2.31-1.608-3.5-2.437-11.86-8.861-20.832-20.052-28.5-32.563-0.681-0.887-1.362-1.774-2.063-2.687-2.464-4.214-3.623-8.501-4.91-13.192-1.027-3.121-1.027-3.121-2.505-5.428-12.16-21.509-8.15-58.618-2.522-81.693 1.404-3.715 2.935-6.889 4.937-10.312 1.606-2.872 2.747-5.387 3.875-8.438 4.235-10.912 11.611-20.369 20.188-28.25 0.99-0.33 1.98-0.66 3-1 0.659-1.32 1.32-2.64 2-4 5.363-3.855 10.972-7.21 16.664-10.554 2.336-1.446 2.336-1.446 5.836-4.133 3.659-2.418 6.645-3.398 10.874-4.344 2.626-0.969 2.626-0.969 5.641-3.422 5.407-3.456 10.451-3.987 16.735-4.797 2.245-0.316 4.489-0.633 6.734-0.953 0.987-0.13 1.974-0.261 2.991-0.395 2.525-0.402 2.525-0.402 5.525-1.402 14.581-2.903 26.753-1.072 41.07 2.344 3.823 0.857 7.671 1.487 11.542 2.083 3.986 0.957 7.028 3.297 10.388 5.573 6.112 3.413 11.075 4.649 18 4 1.612-3.224 1.133-6.479 1.141-10.058 4e-3 -0.833 7e-3 -1.665 0.011-2.523 7e-3 -1.812 0.013-3.623 0.016-5.435 7e-3 -2.866 0.023-5.732 0.042-8.598 0.052-8.15 0.1-16.3 0.115-24.451 0.01-4.982 0.04-9.964 0.082-14.945 0.012-1.901 0.017-3.801 0.015-5.701-2e-3 -2.658 0.02-5.314 0.047-7.972 6e-3 -1.513 0.012-3.026 0.018-4.584 0.513-3.733 0.513-3.733 2.257-6.22 3.818-2.561 8.127-2.081 12.568-2.044zm-116.31 135.53c-1.032 0.475-2.063 0.949-3.126 1.438-3.358 1.825-5.997 4.052-8.874 6.562-0.867 0.66-1.733 1.32-2.626 2-2.523 2.126-4.357 4.397-6.374 7-0.619 0.598-1.238 1.196-1.876 1.813-8.248 8.49-10.283 16.793-13.124 28.187-0.6 2.002-1.203 4.002-1.813 6-3.058 11.398-0.784 22.953 3.824 33.61 0.989 2.39 0.989 2.39 2.239 6.765 5.475 14.472 16.869 26.895 30.75 33.625 0.439 0.328 0.439 0.328 2.664 1.985 4.118 2.488 8.168 3.403 12.836 4.265 0.882 0.169 1.764 0.337 2.672 0.511 10.32 1.851 19.674 2.095 29.828-0.761 2.352-0.307 4.706-0.597 7.062-0.875 5.552-0.773 9.303-1.827 13.938-5.125 0.742-0.472 1.485-0.943 2.25-1.429 10.133-6.619 18.443-14.142 22.75-25.571 0.845-1.217 1.691-2.434 2.562-3.687 5.984-10.588 8.798-28.715 5.562-40.5-0.371-1.258-0.742-2.517-1.124-3.813-0.261-2.269-0.51-4.54-0.75-6.812-0.797-5.965-2.371-9.923-5.735-14.864-1.55-2.376-2.587-4.695-3.641-7.324-1.874-4-1.874-4-5.874-6-0.676-1.663-1.342-3.33-2-5-6.209-6.909-13.479-12.313-22-16-1.234-0.54-2.468-1.08-3.739-1.636-7.352-2.376-15.188-1.796-22.824-1.739-1.562-0.011-3.123-0.023-4.732-0.035-1.513 4e-3 -3.026 8e-3 -4.584 0.012-1.368 3e-3 -2.735 7e-3 -4.143 0.01-7.341 0.716-13.499 4.044-19.978 7.388z"/>
<path transform="translate(828.62 807.07)" d="m0 0c2.606 1.017 4.991 1.418 7.758 1.805 5.535 0.868 9.851 3.055 14.769 5.664 6.021 3.08 12.118 4.744 18.856 5.461-0.041-1.238-0.083-2.475-0.125-3.75 0.125-4.25 0.125-4.25 2.125-8.25 6.278-1.94 11.933-2.219 18.523-2.082 0.434 9e-3 0.434 9e-3 2.631 0.054 1.816 0.041 3.633 0.087 5.45 0.139 2.784 0.077 5.568 0.125 8.353 0.172 1.772 0.043 3.544 0.088 5.316 0.135 0.802 0.019 0.802 0.019 4.857 0.118 3.87 0.464 3.87 0.464 6.87 3.464 1.691 3.381 1.13 7.003 1.134 10.742 2e-3 0.916 4e-3 1.832 6e-3 2.776 7e-3 3.089 6e-3 6.179 5e-3 9.268 3e-3 2.207 6e-3 4.414 0.01 6.622 9e-3 6.01 0.011 12.02 0.012 18.031 1e-3 5.012 5e-3 10.025 8e-3 15.037 8e-3 11.825 0.011 23.65 0.01 35.475 0 12.207 0.01 24.414 0.026 36.621 0.013 10.471 0.018 20.942 0.018 31.412-1e-3 6.258 2e-3 12.516 0.013 18.773 0.01 5.887 0.01 11.774 2e-3 17.66-1e-3 2.162 2e-3 4.323 8e-3 6.485 7e-3 2.949 3e-3 5.898-5e-3 8.848 5e-3 0.856 0.01 1.713 0.016 2.596-0.027 4.581-0.35 8.458-2.263 12.654-4.82 2.581-10.068 2.291-15.414 2.265-0.446 1e-3 -0.446 1e-3 -2.703 6e-3 -1.878 1e-3 -3.756-2e-3 -5.633-0.011-2.873-0.01-5.745 0-8.617 0.013-1.829-1e-3 -3.657-4e-3 -5.485-8e-3 -0.857 4e-3 -1.714 8e-3 -2.598 0.013-4.293-0.034-6.63-0.318-10.55-2.278-1.25-4.625-1.25-4.625-2-9-7.882-0.556-13.568-0.338-20.465 3.632-3.737 2.016-7.671 3.179-11.707 4.458-2.43 0.781-4.822 1.679-7.203 2.597-14.467 5.238-32.759 3.524-47.938 3.063-1.101-0.027-2.202-0.053-3.336-0.08-10.546-0.405-18.984-2.836-28.351-7.67-0.774-0.248-0.774-0.248-4.688-1.5-4.137-1.44-5.987-2.824-9.312-5.5-1.506-0.516-3.011-1.032-4.563-1.563-6.054-2.265-10.021-6.321-14.609-10.762-2.327-2.201-4.581-4.046-7.203-5.863-3.332-2.585-5.577-5.092-7.985-8.531-2.669-3.712-5.654-7.165-8.589-10.668-3.741-4.767-5.903-9.571-7.989-15.211-1.062-2.402-1.062-2.402-4.062-6.402-1.279-3.326-2.454-6.62-3.563-10-0.303-0.883-0.607-1.766-0.92-2.676-6.593-19.852-7.111-42.459-0.517-62.324 0.424-1.443 0.848-2.885 1.285-4.371 4.512-14.693 11.048-27.831 20.582-39.907 2.091-2.669 3.991-5.41 5.883-8.222 2.427-3.506 4.747-6.012 8.25-8.5 0.804-0.825 1.609-1.65 2.437-2.5 2.696-2.631 5.384-4.483 8.563-6.5 4.361-2.846 8.611-5.69 12.687-8.938 9.594-7.153 19.53-10.785 31.208-12.733 5.345-0.893 10.068-2.354 15.105-4.329 14.818-2.47 31.792-2.181 45.617 4.07zm-59.617 53.93c-1.3 0.453-2.599 0.907-3.938 1.375-4.669 1.868-7.386 4.211-11.062 7.625-0.661 0.537-1.323 1.075-2.004 1.629-4.423 3.617-7.584 7.288-10.574 12.16-1.422 2.211-1.422 2.211-3.364 4.332-2.942 4.115-4.226 8.524-5.746 13.316-0.307 0.929-0.615 1.858-0.931 2.815-4.759 14.629-4.337 27.819-0.319 42.623 0.275 1.045 0.549 2.09 0.832 3.167 2.142 7.393 5.405 12.907 10.106 18.958 0.252 0.352 0.252 0.352 1.527 2.137 6.083 8.471 12.383 13.974 21.473 18.863 0.874 0.506 1.748 1.013 2.648 1.535 15.477 6.764 33.565 6.716 49.727 3.277 0.47-0.098 0.47-0.098 2.849-0.593 5.944-1.384 9.919-3.371 14.776-7.219 1.32-0.64 2.64-1.279 4-1.938 10.718-5.527 16.888-14.473 22-25.062l3-3c3.506-9.436 3.285-19.706 3.312-29.625 6e-3 -1.214 0.011-2.429 0.017-3.68-0.088-11.313-0.361-21.751-6.814-31.336-1.535-2.391-2.584-4.727-3.64-7.359-1.875-4-1.875-4-5.875-6-0.289-0.763-0.578-1.527-0.875-2.313-1.556-3.717-3.954-5.248-7.125-7.687-0.892-0.789-1.784-1.578-2.703-2.391-3.6-2.849-7.187-4.82-11.297-6.859-0.681-0.343-0.681-0.343-4.125-2.078-8.418-3.632-17.296-2.856-26.313-2.86-1.488-0.012-2.976-0.024-4.509-0.037-0.72-1e-3 -0.72-1e-3 -4.362-6e-3 -1.307-4e-3 -2.615-8e-3 -3.962-0.012-6.817 0.444-11.158 2.491-16.729 6.243z"/>
<path transform="translate(1735.3 807.37)" d="m0 0c3.764 0.872 7.56 1.49 11.377 2.085 2.324 0.541 2.324 0.541 5.324 2.541v2c0.736 0.17 1.472 0.34 2.23 0.516 5.681 1.41 9.193 2.798 13.77 6.484 3.437 1 3.437 1 7 0 1.712-2.948 2.965-5.887 4.152-9.082 2.628-4.151 5.179-4.537 9.848-5.918 3.355-0.223 6.487-0.311 9.828-0.215 0.911 0.017 1.823 0.034 2.762 0.052 1.913 0.04 3.825 0.088 5.738 0.144 2.927 0.082 5.853 0.125 8.781 0.165 1.865 0.044 3.729 0.091 5.594 0.139 0.436 5e-3 0.436 5e-3 2.645 0.032 3.394 0.123 6.003 0.256 8.882 2.151 2.59 3.706 2.316 7.282 2.264 11.642 5e-3 0.931 0.01 1.863 0.015 2.823 0.011 3.129-6e-3 6.258-0.023 9.387 2e-3 2.241 6e-3 4.481 0.011 6.721 0.01 6.091-6e-3 12.182-0.026 18.273-0.017 6.367-0.014 12.734-0.013 19.101-2e-3 10.693-0.019 21.386-0.047 32.079-0.031 12.372-0.042 24.744-0.04 37.116 1e-3 11.889-9e-3 23.779-0.026 35.669-7e-3 5.065-0.011 10.13-0.012 15.196-2e-3 5.962-0.014 11.924-0.034 17.886-6e-3 2.192-8e-3 4.383-7e-3 6.574 1e-3 2.985-0.01 5.97-0.025 8.955 3e-3 0.873 6e-3 1.746 9e-3 2.645-0.034 4.27-0.324 6.561-2.276 10.465-6.322 3.773-14.937 2.333-22.083 2.316-2.776-4e-3 -5.551 0.02-8.327 0.045-1.778 3e-3 -3.555 3e-3 -5.333 2e-3 -1.607 3e-3 -3.214 6e-3 -4.87 9e-3 -4.467-0.379-7.462-1.245-11.387-3.372-1.461-2.48-1.461-2.48-2.375-5.188-1.192-2.667-1.192-2.667-2.625-4.812-4.313-1-4.313-1-9 0-2.011 1.436-4.021 2.883-5.903 4.484-3 2.168-6.093 2.821-9.64 3.731-2.586 0.826-4.511 1.917-6.77 3.41-15.756 10.148-51.987 6.053-69.687 2.375-5.104-1.784-10.034-3.871-15-6-1.341-0.454-2.682-0.908-4.063-1.375-4.12-1.7-6.571-3.75-9.937-6.625-2.659-1.35-5.325-2.684-8-4-1.679-1.319-3.346-2.651-5-4-0.99-0.454-1.98-0.908-3-1.375-3.66-1.982-5.453-4.359-8-7.625-0.784-0.763-1.568-1.526-2.375-2.313-3.557-3.641-6.558-7.631-9.625-11.687-0.553-0.721-1.106-1.441-1.676-2.184-4.551-5.974-7.67-11.405-10.262-18.414-1.062-2.402-1.062-2.402-4.062-6.402-0.732-2.728-1.368-5.483-1.938-8.25-1.381-6.251-3.014-11.18-6.062-16.75-1.682-7.654-1.306-15.579-1.375-23.375-0.038-1.556-0.075-3.112-0.114-4.715-0.081-10.894 1.782-19.709 5.489-29.91 0.214-0.76 0.214-0.76 1.3-4.605 2.595-9.188 6.329-16.534 11.7-24.395 0.563-0.868 1.126-1.735 1.707-2.629 2.566-3.944 5.134-7.874 8.293-11.371h2l2-4c3.332-3.561 6.939-6.802 10.562-10.063 2.592-2.332 5.15-4.638 7.567-7.152 2.606-2.486 5.559-3.415 8.871-4.785 0.928-0.639 1.856-1.279 2.812-1.938 3.436-2.223 6.789-3.56 10.625-4.937 2.563-1.125 2.563-1.125 5.106-3.086 4.993-2.945 10.108-3.657 15.769-4.664 2.184-0.408 4.368-0.817 6.551-1.227 1.048-0.191 2.095-0.383 3.175-0.58 2.614-0.501 5.212-1.089 7.805-1.689 13.645-2.886 26.247 0.156 39.456 3.495zm-72.299 63.626c-1.238 0.928-2.475 1.856-3.75 2.812-3.113 3.054-3.776 4.014-4.938 7.938-0.216 0.701-0.216 0.701-1.312 4.25l-4 2c-1.497 2.993-2.766 5.901-4 9-0.219 0.503-0.219 0.503-1.328 3.051-6.06 13.982-6.759 30.155-2.672 44.949 1.267 2.699 2.599 5.368 4 8 0.487 1.679 0.944 3.368 1.375 5.062 1.424 5.083 3.994 8.086 7.625 11.938 0.557 0.949 1.113 1.897 1.687 2.875 3.675 4.966 8.423 8.404 13.313 12.125 0.377 0.323 0.377 0.323 2.285 1.957 11.86 9.088 33.181 11.862 47.715 10.043 2.887-0.601 5.658-1.326 8.468-2.219 2.532-0.781 2.532-0.781 7.344-1.656 4.659-1.252 6.633-2.949 10.188-6.125 0.67-0.33 0.67-0.33 4.062-2 5.718-2.904 9.075-7.001 12.938-12 0.268-0.313 0.268-0.313 1.629-1.895 4.918-5.896 7.701-11.945 10.371-19.105 0.354-0.799 0.709-1.598 1.074-2.422 2.61-7.269 2.176-15.202 2.238-22.828 0.029-1.164 0.058-2.328 0.088-3.527 0.058-7.943-1.314-13.949-4.4-21.223-0.421-1.284-0.841-2.568-1.274-3.891-2.318-7.071-4.53-11.802-9.726-17.109-0.614-0.936-1.228-1.872-1.86-2.836-5.77-8.529-12.564-14.536-22.14-18.164-1.671-1.329-3.338-2.661-5-4-7.255-2.038-15.291-1.226-22.75-1.25-1.619-0.021-3.238-0.041-4.907-0.063-16.707-0.054-29.955 4.668-42.343 16.313z"/>
<path transform="translate(1033,509)" d="m0 0c2.402 0.141 2.402 0.141 5 1 1.441 2.109 1.441 2.109 2.562 4.75 1.33 2.932 2.419 5.226 4.438 7.75 2.445 3.057 3.941 6.294 5.645 9.805 2.695 5.36 5.644 10.631 9.48 15.257 2.147 2.791 3.375 5.737 4.738 8.965 2.01 4.371 4.603 8.392 7.137 12.473 0.258 0.433 0.258 0.433 1.562 2.625 1.06 1.75 2.197 3.453 3.376 5.125 2.062 3.25 2.062 3.25 4.062 7.812 2 4.438 2 4.438 3.84 6.715 2.677 3.375 4.643 6.952 6.722 10.723 2.42 4.374 4.838 8.73 7.438 13 2.106 3.601 4.095 7.194 5.938 10.938 2.909 5.729 6.178 10.926 10.124 16 2.16 2.805 3.686 5.489 5.063 8.75 1.875 4.312 1.875 4.312 3.875 6.812 2.288 2.86 3.521 5.875 4.922 9.238 1.078 2.262 1.078 2.262 3.766 5.824 2.68 3.986 3.312 6.659 3.312 11.438-4.147 2.765-8.002 2.286-12.825 2.274-1.02 5e-3 -2.041 0.011-3.093 0.016-3.436 0.015-6.872 0.016-10.308 0.016-2.457 8e-3 -4.914 0.016-7.371 0.026-6.686 0.022-13.372 0.03-20.058 0.035-4.173 4e-3 -8.346 0.01-12.519 0.017-14.548 0.025-29.096 0.038-43.644 0.042-13.579 3e-3 -27.158 0.033-40.737 0.075-11.644 0.035-23.288 0.05-34.932 0.051-6.961 1e-3 -13.922 9e-3 -20.883 0.038-6.544 0.026-13.088 0.028-19.632 0.012-2.406-2e-3 -4.812 5e-3 -7.218 0.021-3.276 0.02-6.552 0.01-9.828-8e-3 -0.959 0.013-1.918 0.026-2.906 0.04-6.465-0.083-6.465-0.083-9.512-3.084-0.506-0.848-1.012-1.697-1.534-2.571-0.825-0.577-1.65-1.155-2.5-1.75-3.635-3.271-4.744-6.698-6.5-11.25v-2c-0.99-0.33-1.98-0.66-3-1-1.465-2.293-1.465-2.293-2.938-5.188-1.64-3.15-3.237-6.066-5.25-9-2.21-3.43-3.381-6.997-4.812-10.812-0.66-0.969-1.32-1.939-2-2.938-3.207-4.91-4.801-9.79-5.312-15.624 2.349-6.155 7.966-9.752 13.73-12.657 2.191-0.935 4.386-1.858 6.582-2.781 2.347-1.647 4.681-3.313 7-5 2.658-1.35 5.325-2.684 8-4l3-2c3-2 3-2 7.188-4.062 3.812-1.938 3.812-1.938 6.812-4.938 2.261-1.001 4.524-2 6.801-2.965 2.758-1.298 4.848-3.106 7.199-5.035 2.667-1.333 5.333-2.667 8-4 0.804-0.66 1.609-1.32 2.438-2 2.562-2 2.562-2 7.124-4 4.438-2 4.438-2 6.376-4 2.837-2.752 6.012-3.632 9.679-5 2.909-1.221 4.952-3.005 7.383-5 2.195-0.968 4.391-1.935 6.602-2.867 3.335-1.576 6.263-3.608 9.293-5.699 2.935-1.999 6.006-3.701 9.105-5.434 2.045-1.16 4.087-2.328 6.125-3.5 0.993-0.567 1.985-1.134 3.008-1.719 2.867-1.781 2.867-1.781 5.484-3.906 3.171-2.495 6.619-3.464 10.383-4.875 1.687-1.307 3.354-2.642 5-4 2.667-1.333 5.333-2.667 8-4 0.784-0.66 1.567-1.32 2.375-2 3.281-2.5 6.669-3.74 10.516-5.168 2.109-0.832 2.109-0.832 3.109-1.832z"/>
<path transform="translate(1984.5 805.86)" d="m0 0c4.104 1.041 8.174 1.847 12.338 2.595 7.9 1.433 14.389 3.04 21.142 7.542 0.64 0.288 0.64 0.288 3.875 1.75 5.649 3.081 10.263 7.065 15.125 11.25 0.834 0.687 1.669 1.374 2.528 2.082 4.946 4.172 8.293 8.194 11.472 13.918 0.64 1.064 1.279 2.129 1.938 3.226 2.158 3.948 3.72 7.859 5.25 12.086 2.762 7.586 2.762 7.586 3.812 9.688 0.188 3.5 0.188 3.5 0 7-3.373 3.373-8.226 2.348-12.773 2.371-0.538 4e-3 -0.538 4e-3 -3.258 0.027-2.279 0.015-4.557 0.024-6.835 0.027-3.488 0.012-6.974 0.061-10.462 0.112-2.211 9e-3 -4.422 0.017-6.632 0.021-1.045 0.02-2.09 0.039-3.167 0.06-7.239-0.046-7.239-0.046-10.441-2.94-0.473-0.884-0.945-1.768-1.432-2.678-0.639-1.128-1.278-2.256-1.937-3.418-0.681-1.244-1.361-2.488-2.063-3.77-5.358-8.992-11.538-15.867-21.562-19.437-8.079-0.925-16.32-0.558-24.438-0.375-1.196-0.017-2.392-0.034-3.625-0.051-9.129 0.145-16.07 3.679-23.375 9.051-4.405 4.988-6.579 8.431-6.449 15.297 0.961 5.779 4.719 9.82 8.574 14.015 3.711 2.178 7.529 3.345 11.645 4.563 3.23 1.125 3.23 1.125 6.848 3.121 5.519 2.524 10.717 3.268 16.695 4.066 6.16 0.855 12.183 1.706 18.164 3.442 7.182 2.072 14.535 2.875 21.939 3.781 6.524 0.901 11.619 2.379 17.393 5.551 2.859 1.518 5.755 2.348 8.879 3.164 5.295 1.533 8.936 3.586 13.312 7 1.135 0.392 2.269 0.783 3.438 1.187 9.928 5.051 14.84 16.852 18.562 26.813 4.259 15.255 4.335 36.664-3 50.875-0.66 1.031-1.32 2.062-2 3.125-0.453 1.278-0.907 2.557-1.375 3.875-2.767 7.025-6.884 13.16-12.625 18.125-0.99 0.33-1.98 0.66-3 1l-2 4c-2.168 1.281-4.345 2.552-6.582 3.711-2.418 1.289-2.418 1.289-6.23 3.851-4.388 2.555-8.539 4.032-13.363 5.528-2.825 0.91-2.825 0.91-6.575 2.597-22.903 9.25-66.523 5.553-89.25-1.687-1.597-0.486-3.195-0.972-4.792-1.457-12.99-4.072-12.99-4.072-17.208-8.543-2.621-1.055-2.621-1.055-5.437-1.875-5.112-1.731-7.436-3.619-10.563-8.125-0.783-0.784-1.567-1.568-2.375-2.375-5.146-5.147-9.577-9.95-12.625-16.625-0.641-0.869-1.283-1.738-1.945-2.633-2.439-3.997-3.273-7.546-4.242-12.117-1.754-8.132-1.754-8.132-2.813-10.25-0.375-2.938-0.375-2.938 0-6 4.603-4.24 10.494-3.397 16.356-3.328 0.549 1e-3 0.549 1e-3 3.327 5e-3 2.316 7e-3 4.632 0.021 6.947 0.041 3.555 0.032 7.11 0.041 10.665 0.047 2.25 0.01 4.499 0.02 6.748 0.032 1.068 4e-3 2.136 8e-3 3.236 0.012 7.487 0.074 7.487 0.074 9.721 1.191 0.351 1.608 0.702 3.217 1.063 4.875 2.048 8.055 7.255 14.231 13.727 19.316 0.729 0.597 1.459 1.194 2.21 1.809v2c1.3 0.392 2.599 0.783 3.938 1.187 3.513 1.155 6.563 2.568 9.75 4.438 6.55 3.607 12.206 3.533 19.625 3.562 1.605 0.014 3.21 0.029 4.863 0.043 7.482-0.357 13.688-1.69 20.137-5.543 0.986-0.573 1.972-1.147 2.988-1.738 2.839-2.05 4.618-4.154 6.699-6.949 0.887-0.867 1.774-1.733 2.688-2.625 3.755-3.857 3.448-7.133 3.437-12.313 3e-3 -1.226 6e-3 -2.452 8e-3 -3.715-0.133-3.347-0.133-3.347-1.133-7.347-1.649-0.707-3.32-1.366-5-2-0.883-0.793-1.766-1.586-2.675-2.403-3.738-2.92-6.775-3.956-11.325-5.222-7.594-2.143-7.594-2.143-10.726-3.934-5.037-2.218-10.206-2.384-15.649-2.879-10.229-1.045-19.726-2.739-29.625-5.562-4.083-0.993-8.052-1.897-12.23-2.352-7.618-0.847-13.362-2.495-20.078-6.207-2.692-1.441-2.692-1.441-7.129-2.941-4.257-1.793-5.841-3.822-8.563-7.5-0.804-0.805-1.608-1.609-2.437-2.438-5.964-5.964-9.282-10.65-11.688-18.699-0.875-2.863-0.875-2.863-2.562-6.676-5.342-12.973-2.552-28.358 1.687-41.187 0.351-1.124 0.702-2.248 1.063-3.407 4.331-12.632 12.576-22.461 22.937-30.718 0.825-0.663 1.65-1.325 2.5-2.008 3.707-2.768 7.081-4.714 11.438-6.305 4.062-1.562 4.062-1.562 6.453-3.461 5.464-3.181 11.265-4.061 17.422-5.289 1.233-0.26 2.466-0.519 3.736-0.787 16.704-3.451 32.352-4.56 48.971-0.162z"/>
<path transform="translate(1246.5 805.8)" d="m0 0c0.938-6e-3 1.877-0.011 2.843-0.017 1.986-0.01 3.971-0.016 5.957-0.02 3.033-0.01 6.065-0.041 9.098-0.072 1.93-7e-3 3.86-0.012 5.79-0.016 0.905-0.012 1.81-0.025 2.743-0.037 4.836 0.017 8.238 0.234 12.046 3.365 1.681 3.362 1.144 7.165 1.14 10.863 3e-3 0.929 6e-3 1.858 9e-3 2.816 9e-3 3.133 0.01 6.266 0.012 9.399 4e-3 2.238 9e-3 4.476 0.015 6.715 0.013 6.095 0.019 12.19 0.024 18.285 3e-3 3.805 7e-3 7.61 0.011 11.415 0.014 11.895 0.024 23.791 0.027 35.686 5e-3 13.749 0.022 27.497 0.051 41.245 0.022 10.616 0.032 21.232 0.033 31.848 2e-3 6.345 7e-3 12.69 0.025 19.036 0.017 5.968 0.019 11.936 0.01 17.904-1e-3 2.192 4e-3 4.385 0.014 6.577 0.012 2.99 7e-3 5.978-4e-3 8.968 8e-3 0.871 0.016 1.742 0.024 2.64-0.038 4.695-0.397 7.894-3.391 11.603-3.611 1.805-7.918 1.186-11.899 1.203-0.986 6e-3 -1.973 0.012-2.989 0.018-2.09 9e-3 -4.18 0.016-6.27 0.019-3.198 0.01-6.395 0.041-9.592 0.073-2.029 6e-3 -4.058 0.011-6.086 0.015-0.958 0.013-1.915 0.025-2.902 0.038-5.172-0.018-6.986-0.159-11.262-3.366-0.41-3.105-0.56-5.86-0.54-8.969-9e-3 -0.929-0.019-1.858-0.029-2.814-0.027-3.126-0.026-6.251-0.025-9.376-0.014-2.235-0.029-4.471-0.046-6.706-0.041-6.083-0.056-12.165-0.067-18.248-0.014-6.361-0.048-12.721-0.08-19.081-0.05-10.687-0.083-21.373-0.107-32.06-0.028-12.355-0.081-24.71-0.147-37.066-0.063-11.878-0.11-23.757-0.148-35.635-0.016-5.057-0.039-10.115-0.066-15.172-0.031-5.959-0.047-11.917-0.052-17.876-4e-3 -2.187-0.013-4.374-0.028-6.561-0.019-2.986-0.019-5.972-0.015-8.959-0.01-0.864-0.02-1.729-0.03-2.62 0.032-5.269 0.792-9.242 3.38-13.857 4.141-1.38 8.201-1.183 12.523-1.203z"/>
<path transform="translate(1246.5 725.8)" d="m0 0c0.938-6e-3 1.877-0.011 2.843-0.017 1.986-0.01 3.971-0.016 5.957-0.02 3.033-0.01 6.065-0.041 9.098-0.072 1.93-7e-3 3.86-0.012 5.79-0.016 0.905-0.012 1.81-0.025 2.743-0.037 4.836 0.017 8.238 0.234 12.046 3.365 1.775 3.551 1.185 7.732 1.203 11.645 5e-3 0.962 0.011 1.924 0.017 2.915 9e-3 2.038 0.016 4.077 0.02 6.115 9e-3 3.115 0.041 6.228 0.072 9.343 7e-3 1.98 0.012 3.959 0.016 5.939 0.012 0.931 0.024 1.861 0.037 2.819-0.017 4.887-0.18 8.382-3.365 12.224-3.611 1.805-7.918 1.186-11.899 1.203-0.986 6e-3 -1.973 0.012-2.989 0.018-2.09 9e-3 -4.18 0.016-6.27 0.019-3.198 0.01-6.395 0.041-9.592 0.073-2.029 6e-3 -4.058 0.011-6.086 0.015-0.958 0.013-1.915 0.025-2.902 0.038-5.172-0.018-6.986-0.159-11.262-3.366-0.463-3.327-0.677-6.335-0.715-9.672-0.024-0.956-0.048-1.911-0.072-2.896-0.045-2.024-0.081-4.048-0.107-6.073-0.044-3.084-0.124-6.166-0.21-9.25-0.039-1.968-0.076-3.937-0.111-5.906-0.025-0.917-0.05-1.834-0.075-2.778-0.047-5.494 0.543-9.627 3.29-14.425 4.141-1.38 8.201-1.183 12.523-1.203z"/>
</svg>
