<?xml version="1.0" encoding="UTF-8"?>
<svg version="1.1" viewBox="0 0 2448 1112" xmlns="http://www.w3.org/2000/svg">
<path transform="translate(2438,790)" d="m0 0c3 2 3 2 4 5 0.146 2.122 0.221 4.249 0.25 6.375 0.013 0.561 0.013 0.561 0.078 3.398-0.459 4.517-2.164 7.063-5.328 10.227-1.88 0.519-3.78 0.968-5.688 1.375-3.71 0.873-6.31 1.624-9.624 3.563-4.817 2.694-9.71 3.709-15.067 4.937-3.621 1.125-3.621 1.125-6.621 3.125-3.456 2.304-6.402 3.075-10.438 4-4.145 1.029-7.344 1.875-11.062 4-3.656 2.089-6.738 2.926-10.812 3.938-5.574 1.389-10.144 3.163-15.153 5.906-3.961 1.806-8.092 2.514-12.359 3.285-3.176 0.871-3.176 0.871-6.578 2.836-3.852 2.179-7.163 3.094-11.473 4.035-4.459 1.04-8.589 2.009-12.687 4.062-4.107 1.793-7.437 2.593-11.813 3.376-4.759 0.864-8.747 1.882-13.063 4.062-5.683 2.838-11.365 3.657-17.593 4.688-3.725 0.762-6.855 1.832-10.344 3.312-6.608 2.751-13.175 3.648-20.227 4.688-4.027 0.744-7.42 1.799-11.21 3.312-6.471 2.501-12.855 3.428-19.689 4.268-7.024 0.909-13.766 2.416-20.624 4.17-10.125 2.574-20.219 4.338-30.579 5.681-4.984 0.662-9.732 1.429-14.554 2.873-8.623 2.492-17.625 2.976-26.523 3.881-7.535 0.816-14.825 1.914-22.219 3.596-11.732 2.577-23.549 3.552-35.5 4.593-4.386 0.39-8.772 0.786-13.156 1.192-1.059 0.098-2.118 0.195-3.209 0.296-8.076 0.776-16.016 1.975-24.02 3.304-10.769 1.69-21.653 1.844-32.529 2.242-15.781 0.585-31.412 1.365-47.086 3.404-25.594 3.297-51.26 4.031-77.031 4.508-2.214 0.042-4.428 0.084-6.642 0.126-5.57 0.106-11.14 0.208-16.71 0.309-2.895 0.053-5.79 0.108-8.685 0.163-12.477 0.239-24.954 0.432-37.432 0.582-0.989 0.012-1.979 0.024-2.998 0.036-47.153 0.559-94.296 0.01-141.45-0.564-2.86-0.035-5.72-0.069-8.579-0.104-11.884-0.143-23.768-0.294-35.652-0.452-2.511-0.033-5.022-0.065-7.534-0.098-16.471-0.214-32.936-0.492-49.401-0.999-1.293-0.04-2.586-0.079-3.918-0.12-10.329-0.34-20.609-0.977-30.91-1.825-1.705-0.134-3.411-0.267-5.117-0.399-7.212-0.564-14.421-1.158-21.629-1.768-17.922-1.513-35.806-2.24-53.789-2.606-17.083-0.349-34.151-0.712-51.215-1.664-1.234-0.066-2.468-0.133-3.739-0.201-6.587-0.396-13.14-0.919-19.703-1.595-15.478-1.581-30.911-2.709-46.452-3.356-0.92-0.039-1.839-0.077-2.787-0.117-7.595-0.315-15.191-0.612-22.787-0.902-24.565-0.937-48.96-2.394-73.427-4.806-11.182-1.102-22.315-1.905-33.542-2.336-1.732-0.074-3.464-0.15-5.196-0.226-10.827-0.465-21.658-0.79-32.491-1.086-18.508-0.506-36.924-1.663-55.339-3.589-16.108-1.668-32.18-2.612-48.357-3.248-27.911-1.105-55.73-2.547-83.492-5.725-19.446-2.128-39.098-2.731-58.645-3.333-27.658-0.869-55.103-2.595-82.658-5.166-21.382-1.985-42.709-2.635-64.168-3.141-22.243-0.528-44.465-1.148-66.685-2.318-42.859-2.234-85.595-3.37-128.52-3.356-3.889 1e-3 -7.778-1e-3 -11.667-4e-3 -29.783-7e-3 -59.431 0.495-89.158 2.38l-8.64 0.534c-2.495 0.155-4.99 0.31-7.485 0.466-10.406 0.649-20.807 1.131-31.227 1.5-1.181 0.042-2.363 0.084-3.58 0.127-5.887 0.207-11.774 0.404-17.662 0.588-18.228 0.595-36.263 1.785-54.281 4.723-13.498 2.076-27.034 3.084-40.654 3.935-13.897 0.913-27.383 2.866-41.033 5.627-6.995 1.358-13.984 2.134-21.063 2.875-9.225 0.983-18.083 2.5-27.087 4.714-8.174 1.982-16.403 3.3-24.728 4.479-6.154 0.906-11.645 2.447-17.56 4.432-3.772 0.776-7.569 1.354-11.375 1.938-6.945 1.126-13.261 2.39-19.766 5.132-4.038 1.313-8.167 1.796-12.359 2.368-6.509 0.895-11.809 2.327-17.633 5.374-3.737 1.548-7.374 2.07-11.367 2.688-6.239 0.967-10.971 2.444-16.539 5.305-5.17 2.087-10.644 2.653-16.141 3.422-3.678 0.744-5.726 1.764-8.82 3.773-3.938 0.625-3.938 0.625-8 0-3.908-3.41-5.69-5.868-7.062-10.875 0.115-7.624 1.924-12.325 7.062-17.813 4.83-4.515 10.116-7.393 16-10.312 1.176-0.701 2.351-1.403 3.562-2.125 3.587-1.956 7.185-3.425 11.008-4.848 2.43-1.027 2.43-1.027 4.848-2.562 2.941-1.669 5.453-2.218 8.77-2.84 4.249-0.906 7.725-1.92 11.5-4.063 5.985-3.271 12.429-4.24 19.058-5.593 3.383-0.771 6.184-1.613 9.316-3.031 5.633-2.497 11.543-3.122 17.59-4.09 4.08-0.796 7.705-1.916 11.598-3.348 6.964-2.489 13.706-3.445 21-4.336 5.302-0.69 9.972-1.753 15-3.664 7.617-2.8 15.127-3.512 23.143-4.336 6.916-0.745 13.502-1.917 20.232-3.664 8.117-2.096 16.118-3.364 24.44-4.336 7.37-0.888 14.598-2.194 21.873-3.664 9.361-1.887 18.678-3.367 28.181-4.336 6.034-0.657 11.855-1.781 17.783-3.094 10.337-2.268 20.711-3.498 31.223-4.632 3.566-0.391 7.131-0.788 10.695-1.192 0.435-0.049 0.435-0.049 2.634-0.298 5.42-0.636 10.764-1.479 16.128-2.479 10.896-2.012 21.894-2.87 32.92-3.842 9.141-0.84 18.116-2.023 27.154-3.635 11.606-2.044 23.163-2.984 34.915-3.717 15.855-0.999 31.572-2.122 47.241-4.837 14.47-2.498 28.885-3.376 43.524-4.172 13.453-0.735 26.743-1.697 40.065-3.821 23.725-3.69 48.032-4.034 71.983-5.047 14.75-0.63 29.349-1.579 44.01-3.327 9.656-1.134 19.276-1.738 28.989-2.097 2.631-0.097 5.262-0.208 7.892-0.322 33.32-1.381 66.658-1.814 100-1.819 2.866-1e-3 5.731-3e-3 8.597-6e-3 10.145-9e-3 20.29-0.013 30.435-0.012 8.2 0 16.401-7e-3 24.601-0.021 40.505-0.067 80.993-0.057 121.48 1.093 1.402 0.039 2.805 0.078 4.25 0.118 23.33 0.669 46.724 1.57 69.941 4.057 9.661 1.031 19.298 1.48 29.003 1.829 3.147 0.113 6.294 0.235 9.441 0.359 9.866 0.387 19.733 0.745 29.601 1.074 21.757 0.728 43.369 1.765 65.032 3.944 12.96 1.3 25.887 2.274 38.899 2.857 0.853 0.038 1.705 0.077 2.583 0.116 9.328 0.413 18.658 0.756 27.99 1.074 5.289 0.18 10.577 0.368 15.865 0.56 1.055 0.038 2.111 0.076 3.198 0.116 14.474 0.54 28.833 1.517 43.24 3.009 21.162 2.179 42.309 3.204 63.562 4 2.991 0.113 5.983 0.226 8.974 0.339 1.609 0.061 3.218 0.122 4.876 0.185 3.381 0.128 6.762 0.257 10.143 0.386 1.72 0.066 3.44 0.131 5.16 0.197 0.857 0.033 1.715 0.066 2.598 0.1 4.253 0.162 8.507 0.321 12.761 0.475 19.873 0.718 39.669 1.705 59.488 3.318 22.501 1.816 45.007 2.73 67.562 3.5 19.955 0.685 39.901 1.397 59.836 2.531 0.715 0.041 0.715 0.041 4.331 0.246 7.135 0.423 14.226 0.97 21.333 1.723 9.756 0.99 19.519 1.501 29.313 1.961 0.902 0.043 1.804 0.085 2.734 0.129 24.599 1.153 49.211 1.882 73.829 2.535 1.222 0.033 2.445 0.065 3.704 0.099 75.994 2.009 151.92 1.6 227.93 0.463 4.122-0.061 8.244-0.121 12.366-0.18 67.502-0.992 67.502-0.992 98.062-5.007 3.936-0.495 7.873-0.971 11.812-1.438 0.541-0.064 0.541-0.064 3.277-0.388 9.641-1.105 19.299-1.863 28.973-2.612 11.047-0.864 21.864-2.044 32.764-4.009 12.725-2.173 25.623-3.045 38.483-4.07 10.405-0.852 20.485-2.226 30.691-4.483 9.761-1.757 19.436-3.084 29.312-3.875 8.254-0.676 16.006-2.245 24.033-4.238 7.37-1.759 14.681-2.662 22.217-3.387 9.133-0.883 17.752-2.325 26.62-4.655 8.867-2.264 17.834-3.262 26.916-4.267 13.916-1.641 13.916-1.641 14.902-1.578z" fill="#009696"/>
<path transform="translate(437.86 210.47)" d="m0 0c0.553-4e-3 0.553-4e-3 3.352-0.026 3.66-0.023 7.32-0.016 10.98-7e-3 2.541-5e-3 5.081-0.011 7.622-0.019 5.326-0.01 10.652-6e-3 15.979 9e-3 6.833 0.017 13.666-6e-3 20.499-0.041 5.247-0.022 10.493-0.021 15.74-0.013 2.52 1e-3 5.04-6e-3 7.56-0.02 3.519-0.018 7.037-3e-3 10.557 0.019 1.045-0.011 2.091-0.023 3.168-0.035 7.07 0.093 7.07 0.093 10.28 3.074 0.464 0.855 0.929 1.711 1.408 2.592 0.455 0.698 0.91 1.395 1.378 2.114 3.481 6.466 4.621 12.734 5.813 19.941 0.949 4.632 2.602 8.53 4.551 12.813 2.001 4.984 3.065 10.172 4.293 15.39 0.796 3.087 1.704 5.829 2.965 8.742 2.397 5.544 3.6 11.329 5 17.188 0.814 3.105 1.731 5.878 3 8.812 2.395 5.54 3.599 11.321 4.996 17.176 1.045 3.983 2.45 7.583 4.074 11.352 1.081 2.874 1.724 5.72 2.367 8.722 1.005 4.676 2.316 9.024 4 13.5 1.978 5.302 3.398 10.539 4.625 16.063 1.168 5.227 2.473 9.748 4.871 14.562 1.905 4.689 2.973 9.647 4.209 14.546 1.341 5.266 2.936 10.284 4.893 15.345 1.628 4.614 2.741 9.367 3.961 14.102 0.877 3.173 1.889 6.186 3.066 9.257 1.526 3.983 2.551 7.891 3.438 12.063 0.828 3.828 1.622 6.549 3.437 10.062 2.65 5.461 3.686 10.951 4.988 16.86 1.281 5.234 3.088 10.145 4.989 15.18 1.02 3.017 1.619 5.817 2.086 8.96 0.584 3.828 1.561 6.616 3.437 10 2.906 5.329 3.705 10.659 4.75 16.59 0.961 4.33 2.648 7.833 4.621 11.774 1.89 4.579 2.561 9.334 3.32 14.211 0.872 3.675 0.872 3.675 2.84 7.582 2.157 4.346 3.069 8.151 3.969 12.906 1.082 5.219 2.13 9.878 4.563 14.625 2.848 5.627 3.866 11.528 5.053 17.662 0.996 5.05 2.287 9.51 4.38 14.19 2.087 5.304 3.361 10.885 4.844 16.382 1.213 4.294 2.666 8.397 4.258 12.559 1.613 4.631 2.738 9.391 3.961 14.137 0.877 3.173 1.889 6.186 3.066 9.257 1.515 3.963 2.549 7.852 3.438 12 0.998 4.608 2.392 8.479 4.464 12.735 1.97 5.024 2.866 10.376 4.032 15.633 0.795 3.173 1.618 5.736 3.066 8.632 2.725 6.153 4.503 12.64 4.938 19.375-1.1 2.684-1.1 2.684-3 5-2.734 0.584-2.734 0.584-6.18 0.524-1.352-0.011-2.704-0.021-4.096-0.032-1.518-0.039-3.036-0.077-4.599-0.117-2.483-0.036-4.966-0.073-7.449-0.109-1.884-0.029-3.768-0.063-5.652-0.1-7.694-0.149-15.386-0.197-23.081-0.217-6.277-0.02-12.554-0.062-18.831-0.107-3.161-0.019-6.322-0.031-9.484-0.035-4.494-0.01-8.986-0.051-13.48-0.1-0.684 2e-3 -0.684 2e-3 -4.146 0.012-0.63-0.01-0.63-0.01-3.817-0.059-1.103-7e-3 -2.205-0.013-3.341-0.02-3.823-0.859-4.769-2.388-6.844-5.64-4.172-8.71-6.411-16.773-8.024-26.246-0.976-3.754-0.976-3.754-2.953-7.168-2.352-4.168-3.131-7.832-4.023-12.523-1.217-6.382-3.085-11.283-6-17.063-0.75-2.812-1.418-5.648-2-8.5-1.012-4.584-1.897-8.293-4-12.5-2.716-5.431-3.688-11.02-4.993-16.929-1.176-4.75-2.91-8.666-5.007-13.071-0.7-2.658-1.371-5.324-2-8-19.732-0.07-39.464-0.123-59.196-0.155-9.162-0.015-18.324-0.037-27.486-0.071-7.985-0.03-15.97-0.049-23.955-0.056-4.228-4e-3 -8.457-0.013-12.685-0.035-4.719-0.021-9.438-0.025-14.158-0.023-1.403-0.011-2.806-0.022-4.252-0.033-0.643 2e-3 -0.643 2e-3 -3.897 0.013-1.116-3e-3 -2.232-6e-3 -3.382-9e-3 -3.419 0.422-5.269 1.278-7.989 3.369-2.92 6.288-4.539 13.138-6.375 19.813-0.306 1.099-0.611 2.197-0.926 3.329-2.272 8.214-4.439 16.453-6.578 24.702-0.991 3.674-2.082 7.285-3.246 10.906-1.451 4.554-2.454 9.049-3.313 13.75-1.146 6.113-3.017 11.463-5.379 17.196-1.272 3.551-1.969 6.966-2.621 10.679-1.454 8.03-3.622 18.685-9.562 24.625-4.721 1.446-9.647 1.107-14.532 1.054-0.477-3e-3 -0.477-3e-3 -2.889-0.019-3.145-0.023-6.29-0.054-9.435-0.085-2.185-0.02-4.37-0.039-6.556-0.058-4.575-0.04-9.151-0.086-13.726-0.133-5.875-0.061-11.749-0.108-17.624-0.151-4.51-0.036-9.02-0.08-13.53-0.127-2.167-0.021-4.334-0.039-6.501-0.053-3.021-0.022-6.042-0.056-9.064-0.093-0.45-2e-3 -0.45-2e-3 -2.731-0.011-6.184-0.095-6.184-0.095-8.412-2.324 0-5 0-5 1.812-7.937 2.082-3.866 2.816-6.559 3.625-10.813 1.1-5.693 2.826-10.301 5.375-15.476 1.735-4.053 2.481-8.217 3.375-12.52 1.075-4.303 2.829-8.162 4.621-12.207 1.671-4.272 2.509-8.63 3.449-13.109 0.743-2.938 0.743-2.938 2.68-6.688 2.092-4.31 3.033-8.083 4.063-12.75 1.35-6.115 3.164-10.917 6-16.5 0.708-2.655 1.371-5.324 2-8 1.386-5.89 3.294-10.589 6-16 0.708-2.655 1.37-5.324 2-8 1.386-5.89 3.294-10.589 6-16 1.088-4.044 2.04-8.111 3-12.187 1-3.813 1-3.813 3-8.25 1.901-4.337 2.915-8.205 3.937-12.813 1.437-6.438 3.289-12.339 5.773-18.437 1.972-5.066 3.509-10.253 5.098-15.449 1.058-3.431 2.168-6.837 3.317-10.239 1.196-3.545 2.326-7.095 3.375-10.687 1.004-3.408 2.134-6.733 3.375-10.063 2.217-5.98 4.088-12.054 5.964-18.148 0.886-2.845 1.808-5.663 2.786-8.477 1.088-3.365 1.951-6.625 2.75-10.062 1.024-4.261 2.358-8.115 4.125-12.125 2.323-5.293 3.572-10.48 4.757-16.121 0.743-2.942 0.743-2.942 2.68-6.754 2.032-4.126 3.014-7.726 4.063-12.188 1.03-4.382 1.955-7.913 4-11.937 2.681-5.447 3.672-11.011 4.875-16.941 1.125-4.122 1.125-4.122 3.125-7.586 2.353-4.161 3.113-7.849 4-12.536 1.175-6.214 2.85-10.559 6-16 0.871-3.613 0.871-3.613 1.437-7.312 0.834-4.635 1.689-8.456 4-12.563 3.208-5.724 4.213-11.855 5.598-18.218 1.081-4.379 2.901-7.908 4.965-11.907 1.084-3.783 2.038-7.59 3-11.406 1-3.594 1-3.594 3-8.031 2.416-5.512 3.664-11.029 4.972-16.891 1.028-3.672 1.028-3.672 2.496-6.011 2.748-4.774 3.426-10.386 4.549-15.737 2.986-13.479 6.359-20.547 20.838-20.457zm36.145 128.53c-2.077 5.539-3.383 10.851-4.375 16.688-1.172 6.623-3.045 12.545-5.438 18.812-1.247 3.676-1.999 7.245-2.687 11.063-0.893 4.917-2.086 9.261-4 13.875-2.525 6.112-3.664 12.114-4.629 18.641-0.852 3.832-2.247 7.023-3.906 10.565-1.633 3.987-2.262 8.123-2.965 12.356-1.153 6.939-3.104 12.529-6 19-0.751 3.148-1.418 6.317-2 9.5-0.923 5.04-1.902 9.28-4 13.965-2.497 5.661-3.425 11.099-4.422 17.162-1.028 5.744-2.913 10.217-5.578 15.373-0.438 4.813-0.438 4.813 0 9 3.923 3.924 6.943 3.455 12.181 3.465 0.94 0.013 1.88 0.026 2.849 0.04 3.113 0.041 6.227 0.06 9.341 0.077 2.161 0.022 4.321 0.045 6.482 0.069 4.532 0.047 9.064 0.084 13.596 0.113 5.812 0.038 11.624 0.098 17.436 0.165 4.463 0.05 8.927 0.089 13.39 0.126 2.143 0.018 4.286 0.039 6.429 0.063 2.995 0.032 5.99 0.051 8.985 0.065 0.888 0.012 1.776 0.024 2.69 0.036 4.334 7e-3 6.662-0.239 10.621-2.219 3.808-7.617 0.414-19.35-2-27-0.49-0.893-0.98-1.786-1.485-2.707-2.479-5.386-3.004-11.146-3.889-16.974-1.043-6.342-2.999-11.415-5.626-17.319-0.88-3.615-1.449-7.259-2-10.937-1-6.641-2.418-12.393-5.055-18.573-1.592-4.193-2.231-8.515-2.945-12.927-1.141-6.51-2.485-12.432-5-18.563-1.706-5.117-2.515-10.449-3.498-15.744-0.829-4.324-1.713-8.318-3.565-12.318-2.786-6.083-3.266-12.782-4.129-19.352-1.099-6.233-2.281-11.058-6.808-15.586-4.188-0.187-4.188-0.187-8 0z" fill="#004BAE"/>
<path transform="translate(1012,352)" d="m0 0c0.963 0.468 1.926 0.936 2.918 1.418 10.701 5.493 18.084 16.147 25.082 25.582 0.695 0.901 1.39 1.802 2.105 2.73 3.707 4.971 6.096 9.714 7.973 15.629 0.922 2.641 0.922 2.641 2.461 5.418 1.838 4.055 2.178 7.606 2.586 12.035 0.147 1.513 0.294 3.025 0.445 4.583 0.149 1.868 0.292 3.736 0.43 5.605 0.083 1.071 0.167 2.142 0.252 3.246 0.977 14.251 0.939 28.498 0.985 42.776 0.013 2.911 0.026 5.822 0.04 8.732 0.035 7.859 0.065 15.717 0.092 23.576 0.018 4.911 0.037 9.823 0.056 14.734 0.064 16.254 0.124 32.508 0.179 48.763 3e-3 0.873 6e-3 1.746 9e-3 2.646 2e-3 0.874 5e-3 1.748 8e-3 2.649 0.049 14.209 0.107 28.418 0.169 42.627 0.064 14.613 0.121 29.225 0.17 43.838 0.027 8.195 0.058 16.391 0.097 24.586 0.036 7.693 0.062 15.385 0.081 23.078 9e-3 2.826 0.021 5.652 0.036 8.479 0.021 3.848 0.03 7.697 0.035 11.546 5e-3 0.563 5e-3 0.563 0.028 3.411-1e-3 1.03-3e-3 2.061-4e-3 3.123 4e-3 0.888 7e-3 1.776 0.01 2.691-0.281 2.891-0.843 4.948-2.243 7.499-6.048 1.931-11.813 2.259-18.128 2.291-0.863 6e-3 -1.726 0.013-2.615 0.02-2.822 0.019-5.643 0.023-8.464 0.025-1.973 6e-3 -3.946 0.013-5.919 0.02-4.119 0.012-8.239 0.016-12.358 0.015-5.281-1e-3 -10.561 0.027-15.841 0.061-4.067 0.022-8.135 0.026-12.202 0.025-1.947 3e-3 -3.895 0.012-5.843 0.027-2.716 0.02-5.432 0.014-8.149 2e-3 -1.545 3e-3 -3.09 6e-3 -4.682 8e-3 -3.799-0.494-3.799-0.494-6.299-2.148-1.911-2.989-1.995-4.82-1.986-8.361-3e-3 -0.619-3e-3 -0.619-0.018-3.752 0.014-1.362 0.028-2.724 0.043-4.128 0-0.722 0-0.722 1e-3 -4.38 6e-3 -4.004 0.031-8.007 0.065-12.011 0.027-3.389 0.039-6.779 0.051-10.168 0.193-49.084 1.441-98.168 2.762-147.23 0.783-29.104 0.783-29.104 0.832-41.375 0.021-1.389 0.041-2.778 0.062-4.209 0.029-7.605-0.653-14.346-2.572-21.703-0.924-3.779-1.355-7.52-1.764-11.383-1.397-13.119-4.663-24.648-14.976-33.643-2.927-1.924-5.852-3.426-9-5-0.771-0.516-1.542-1.031-2.336-1.562-8.612-4.648-21.086-3.924-30.664-3.438-1.109 0.034-2.217 0.067-3.359 0.102-11.851 0.938-21.713 6.498-29.7 15.25-5.273 7.068-8.977 14.374-11.941 22.648-0.577 1.361-1.155 2.722-1.75 4.125-2.569 7.964-2.398 16.401-2.395 24.7-3e-3 1.044-7e-3 2.087-0.01 3.163-0.011 3.472-0.015 6.944-0.019 10.416-6e-3 2.499-0.013 4.998-0.02 7.497-0.014 5.368-0.026 10.736-0.036 16.104-0.015 8.483-0.039 16.966-0.065 25.448-0.071 24.117-0.131 48.233-0.182 72.349-0.028 13.33-0.063 26.659-0.106 39.988-0.027 8.439-0.045 16.878-0.056 25.317-0.01 5.237-0.027 10.474-0.047 15.711-7e-3 2.435-0.011 4.87-0.012 7.306-1e-3 3.313-0.014 6.626-0.03 9.94 1e-3 0.486 1e-3 0.486 8e-3 2.947-0.052 6.647-0.052 6.647-2.28 9.989-4.585 1.523-9.533 1.148-14.317 1.145-0.465 2e-3 -0.465 2e-3 -2.82 0.01-3.07 0.01-6.14 0.012-9.211 0.013-2.135 3e-3 -4.271 7e-3 -6.407 0.01-4.472 6e-3 -8.945 8e-3 -13.418 7e-3 -5.736 0-11.471 0.014-17.207 0.031-4.409 0.011-8.817 0.013-13.226 0.013-2.115 1e-3 -4.23 5e-3 -6.345 0.013-2.954 0.01-5.908 7e-3 -8.862 1e-3 -0.875 6e-3 -1.751 0.011-2.653 0.017-4.295-0.022-6.609-0.297-10.534-2.26-1.37-2.741-1.127-4.915-1.129-7.985-3e-3 -1.284-6e-3 -2.568-9e-3 -3.891 1e-3 -1.424 3e-3 -2.848 4e-3 -4.315-2e-3 -1.502-4e-3 -3.005-7e-3 -4.553-5e-3 -4.185-6e-3 -8.37-4e-3 -12.556 0-4.508-6e-3 -9.016-0.01-13.524-9e-3 -8.837-0.011-17.674-0.012-26.512-1e-3 -7.18-3e-3 -14.36-6e-3 -21.54-9e-3 -20.337-0.013-40.674-0.012-61.012v-3.325-3.329c0-17.813-9e-3 -35.626-0.023-53.439-0.015-18.271-0.022-36.543-0.021-54.814 0-10.266-2e-3 -20.531-0.013-30.797-9e-3 -8.739-0.011-17.478-5e-3 -26.217 4e-3 -4.462 4e-3 -8.924-5e-3 -13.386-9e-3 -4.829-3e-3 -9.658 5e-3 -14.487-5e-3 -1.422-0.011-2.844-0.016-4.308 5e-3 -1.287 9e-3 -2.574 0.014-3.899 0-1.116 0-2.232-1e-3 -3.381 0.25-2.73 0.25-2.73 2.25-5.73 3.379-1.027 3.379-1.027 7.562-1.938 5.33-1.239 9.917-2.631 14.836-5.062 5.254-2.019 10.891-2.851 16.387-4 4.215-1 4.215-1 8.653-3 5.359-2.349 10.69-3.326 16.393-4.421 5.956-1.193 11.185-2.957 16.626-5.626 3.055-1.145 5.307-1.332 8.543-0.953 2.213 3.319 2.382 5.032 2.812 8.938 0.825 5.937 2.558 10.751 5.016 16.187 1.718 4.214 2.394 8.402 3.172 12.875 1 1 1 1 4.188 1.562 3.812-0.562 3.812-0.562 5.539-2.347 1.463-2.044 2.871-4.128 4.273-6.215h2l2-4c5.914-5.818 12.849-9.761 20.215-13.457 2.785-1.543 2.785-1.543 5.785-4.543 2.575-0.921 5.185-1.743 7.812-2.5 7.713-2.234 7.713-2.234 10.911-4.023 5.092-2.295 10.401-2.821 15.902-3.602 1.112-0.169 2.225-0.338 3.371-0.512 25.736-3.805 68.188-8.253 90.004 8.637z" fill="#004BAE"/>
<path transform="translate(1680.4 343.88)" d="m0 0c1.07 0.066 2.139 0.132 3.241 0.2 10.911 0.8 21.112 3.358 31.415 6.964 2.825 0.934 5.639 1.645 8.532 2.336 5.803 1.526 10.394 4.361 15.374 7.625 0.873 0.521 1.746 1.042 2.645 1.578 14.724 8.888 26.561 22.91 35.355 37.422 0.485 0.784 0.97 1.567 1.469 2.375 6.412 10.469 11.431 21.288 15.469 32.879 1.062 2.746 1.062 2.746 2.602 5.629 1.645 3.512 2.233 6.602 2.836 10.43 0.959 5.625 2.252 10.895 4.023 16.316 2.867 9.574 4.261 19.153 5.487 29.056 0.365 2.945 0.75 5.888 1.138 8.831 2.167 16.673 3.163 33.152 3.162 49.968 2e-3 2.804 0.02 5.607 0.039 8.411 3e-3 1.79 5e-3 3.58 6e-3 5.371 4e-3 1.606 8e-3 3.213 0.012 4.868-0.243 3.866-0.243 3.866-2.243 6.866-3.717 0.374-3.717 0.374-8.679 0.372-0.91 4e-3 -1.819 7e-3 -2.756 0.011-3.067 0.01-6.132-2e-3 -9.199-0.014-2.191 2e-3 -4.381 6e-3 -6.572 0.011-4.727 9e-3 -9.454 8e-3 -14.181 0-7.47-0.011-14.94 1e-3 -22.41 0.017-18.557 0.036-37.113 0.042-55.67 0.04-14.414-2e-3 -28.829 5e-3 -43.243 0.04-7.43 0.016-14.86 0.015-22.291-1e-3 -4.618-6e-3 -9.237 5e-3 -13.855 0.02-2.146 4e-3 -4.293 1e-3 -6.439-0.01-2.924-0.013-5.847-2e-3 -8.771 0.015h-4.964c-3.97 0.499-3.97 0.499-6.501 2.263-2.373 3.614-1.926 7.444-1.781 11.611 0.01 0.449 0.01 0.449 0.06 2.722 0.046 1.807 0.101 3.614 0.167 5.421 0.072 2.092 0.098 4.185 0.113 6.279 0.294 10.038 3.507 18.876 6.972 28.203 0.52 1.444 1.039 2.888 1.575 4.375 1.413 3.593 2.917 5.736 5.425 8.625 0.32 0.495 0.32 0.495 1.938 3 3.798 5.524 8.305 9.008 13.875 12.59 1.744 1.124 3.444 2.319 5.125 3.535 3.369 2.062 6.704 3.482 10.395 4.867 1.704 0.644 3.392 1.333 5.054 2.078 15.84 6.714 34.941 5.482 51.739 4.117 0.459-0.034 0.459-0.034 2.784-0.211 9.813-0.884 18.106-3.926 27.09-7.976 1.568-0.495 3.135-0.99 4.75-1.5 4.083-1.441 5.959-2.85 9.25-5.5 1.651-0.706 3.32-1.369 5-2 3.994-1.508 6.722-3.239 10-6 1.32-0.639 2.64-1.279 4-1.937 4-2.063 4-2.063 6.563-4.813 2.437-2.25 2.437-2.25 5.875-3 5.044 1.062 6.529 3.706 9.562 7.75 0.702 0.701 1.403 1.402 2.126 2.125 2.154 2.155 3.972 4.497 5.874 6.875 0.31 0.299 0.31 0.299 1.876 1.813 2.416 2.487 4.436 5.195 6.492 7.984 2.229 3.008 4.535 5.955 6.84 8.906 1.209 1.549 2.415 3.102 3.617 4.656 0.594 0.769 1.188 1.537 1.801 2.328 0.571 0.743 1.142 1.486 1.73 2.25 1.448 1.817 3.008 3.542 4.582 5.25 2.062 2.813 2.062 2.813 2.625 5.938-1.432 7.317-11.898 12.806-17.75 16.812-8.578 5.614-17.588 10.6-26.813 15.063-0.864 0.472-1.729 0.944-2.621 1.43-6.73 3.593-13.204 5.809-20.64 7.515-3.739 1.055-3.739 1.055-7.91 3.043-5.604 2.578-11.319 3.273-17.391 4.075-2.315 0.328-4.631 0.659-6.945 0.992-1.114 0.158-2.228 0.316-3.376 0.479-5.187 0.776-10.32 1.797-15.456 2.853-24.417 4.091-49.982 1.941-74.085-2.927-5.227-1.052-10.394-1.832-15.7-2.397-5.718-0.697-10.082-2.234-15.188-4.84-2.937-1.336-5.727-2.034-8.875-2.723-5.395-1.23-9.196-3.397-13.813-6.5-1.549-0.717-3.112-1.404-4.687-2.063-3.825-1.718-6.202-3.225-9.313-5.937-1.237-0.928-2.474-1.856-3.75-2.813-1.416-1.062-2.833-2.124-4.25-3.187-0.391-0.291-0.391-0.291-2.374-1.766-4.133-3.126-7.531-6.034-10.626-10.234-0.742-0.701-1.484-1.402-2.25-2.125-6.237-6.521-10.837-13.771-14.75-21.875-0.329-0.402-0.329-0.402-2-2.437-2.753-3.529-4.187-7.484-6-11.563-0.68-0.784-1.361-1.567-2.062-2.375-2.521-3.416-3.098-6.737-4.094-10.824-0.844-2.801-0.844-2.801-3.281-6.864-3.253-5.457-4.175-11.381-5.375-17.558-0.933-4.612-2.271-9.061-3.609-13.57-2.997-10.65-4.449-21.351-5.829-32.309-0.256-1.953-0.514-3.906-0.773-5.859-5.465-41.614-5.497-85.105 9.941-124.8 1.036-2.714 1.829-5.407 2.582-8.211 1.571-4.844 3.733-8.373 6.5-12.625 0.951-2.186 1.901-4.373 2.836-6.566 3.202-6.693 7.539-12.669 12.164-18.434 0.887-1.361 1.774-2.722 2.688-4.125 3.703-5.625 7.985-10.725 12.312-15.875 1.011-1.238 2.022-2.475 3.063-3.75 3.407-3.769 7.029-7.015 10.937-10.25 0.798-0.663 1.596-1.325 2.418-2.008 4.716-3.846 9.516-7.385 14.629-10.683 1.953-1.309 1.953-1.309 4.516-3.496 3.219-2.394 6.694-3.409 10.437-4.813 0.757-0.65 1.514-1.299 2.293-1.969 3.282-2.462 6.034-3.119 10.02-4.031 4.235-0.975 7.627-1.968 11.477-4.02 5.123-2.409 9.692-3.063 15.273-3.667 1.026-0.12 2.052-0.24 3.109-0.363 2.941-0.334 5.884-0.645 8.828-0.95 1.272-0.146 2.543-0.291 3.852-0.441 17.698-1.638 35.898 0.128 53.586 1.316zm-80.688 99.438c-0.907 1.216-1.815 2.433-2.75 3.687-0.524 0.645-1.049 1.289-1.589 1.953-9.272 12.242-9.353 31.268-8.411 46.047 1.097 5.428 1.417 6.562 6 10 3.925 0.432 3.925 0.432 8.817 0.512 0.9 0.018 1.801 0.036 2.728 0.055 3.006 0.055 6.012 0.089 9.018 0.12 2.108 0.032 4.217 0.065 6.325 0.097 7.037 0.101 14.075 0.161 21.112 0.216 0.651 5e-3 0.651 5e-3 3.944 0.033 8.111 0.067 16.222 0.115 24.334 0.141 2.647 9e-3 5.294 0.021 7.94 0.035 3.725 0.018 7.449 0.022 11.173 0.021 0.559 4e-3 0.559 4e-3 3.387 0.022 1.028-3e-3 2.055-6e-3 3.114-9e-3 0.895 1e-3 1.789 3e-3 2.711 4e-3 2.397-0.247 2.397-0.247 6.397-2.247 2.403-4.804 1.186-11.729 1.188-17 0.012-1.386 0.024-2.771 0.037-4.199 0.021-14.923-2.413-28.658-12.471-40.43-2.161-1.974-4.358-3.691-6.754-5.371-1.196-0.928-2.392-1.856-3.624-2.813-6.229-3.114-12.537-4.104-19.376-5.187-0.649-0.113-0.649-0.113-3.937-0.687-20.415-1.571-44.103-0.502-59.313 15z" fill="#004BAE"/>
<path transform="translate(1349.9 350)" d="m0 0c5.272 1.351 10.519 2.476 15.875 3.438 5.686 1.091 10.403 2.797 15.566 5.374 2.748 1.246 5.38 1.981 8.309 2.688 5.128 1.28 8.862 3.629 13.312 6.5 1.588 0.587 3.194 1.13 4.813 1.625 4.187 1.375 4.187 1.375 7.187 4.375 0.871 4.834-0.051 7.467-2.75 11.375-0.549 0.755-1.098 1.511-1.664 2.289-1.566 2.307-2.643 4.516-3.71 7.086-1.876 4.25-1.876 4.25-3.876 6.688-1.981 2.539-2.828 4.507-3.937 7.5-1.689 4.484-3.905 7.431-7.063 11.062-1.366 2.65-2.7 5.317-4 8-1.333 2-2.666 4-4 6-0.618 1.341-1.237 2.681-1.874 4.062-2.273 4.212-4.066 6.421-8.126 8.938-4.177 0.186-6.18-1.112-9.75-3.312-5.899-3.492-12.384-4.373-19.031-5.719-4.219-0.969-4.219-0.969-8.719-3.031-5.92-2.549-11.787-3.2-18.136-4.153-3.638-0.654-6.651-1.466-10.051-2.847-10.935-4.279-22.598-4.141-34.187-4.25-1.154-0.018-2.307-0.036-3.495-0.054-11.668 0.01-21.203 3.331-30.631 10.366-6.984 7.761-8.241 14.452-8.437 24.75-0.023 0.482-0.023 0.482-0.139 2.922-0.116 7.431 1.458 10.907 6.576 16.328 4.313 2.188 4.313 2.188 6.68 3.074 2.32 0.926 2.32 0.926 6.258 3.426 5.729 3.28 12.039 4.166 18.445 5.465 4.197 0.941 8.076 2.142 12.117 3.597 7.049 2.484 14.045 3.585 21.418 4.692 4.215 0.77 7.604 2.011 11.465 3.781 3.484 1.284 6.957 1.799 10.617 2.403 5.901 1.01 10.393 2.446 15.571 5.374 2.816 1.377 5.496 2.017 8.555 2.688 5.43 1.219 9.183 3.473 13.874 6.5 1.693 0.55 3.404 1.049 5.126 1.5 4.662 1.254 7.189 3.352 10.874 6.5 1.626 0.695 3.275 1.337 4.938 1.938 4.973 1.864 8.143 4.418 12.062 8.062 1.807 1.466 3.62 2.924 5.438 4.375 14.271 11.694 26.288 26.305 28.938 45.187 0.234 2.477 0.444 4.957 0.624 7.438 0.109 1.048 0.217 2.096 0.329 3.176 2.258 24.342 2.387 50.154-7.329 72.824-0.226 0.732-0.226 0.732-1.374 4.438-1.685 4.73-3.894 8.365-6.626 12.562-0.68 1.382-1.361 2.764-2.062 4.188-1.731 3.405-3.496 5.912-5.938 8.812-0.599 0.914-1.198 1.828-1.816 2.77-2.211 3.271-4.587 6.266-7.121 9.292-0.834 1.002-1.668 2.004-2.527 3.036-8.042 9.206-17.212 16.499-27.907 22.394-2.629 1.508-2.629 1.508-6.629 4.508-2.694 0.843-5.394 1.442-8.148 2.059-2.852 0.941-2.852 0.941-5.539 2.882-4.457 2.771-8.833 3.549-13.937 4.559-5.852 1.187-11.416 2.47-17.012 4.574-7.715 2.644-15.454 2.897-23.551 3.238-0.819 0.039-0.819 0.039-4.964 0.234-12.539 0.534-25.054 0.501-37.599 0.204-0.837-0.019-1.675-0.037-2.537-0.056-14.908-0.359-29.959-0.741-44.154-5.624-5.376-1.617-10.874-2.563-16.406-3.499-5.657-1.028-10.078-2.928-15.153-5.571-3.522-1.091-7.056-1.983-10.632-2.875-3.642-1.217-6.224-2.947-9.368-5.125-1.664-0.721-3.352-1.393-5.062-2-3.957-1.515-6.719-3.205-9.938-6-2.649-1.694-5.317-3.359-8-5-5.369-3.291-10.599-6.71-15.718-10.375-1.791-1.276-3.623-2.493-5.469-3.687-1.813-1.938-1.813-1.938-1.813-4.938 1-3 1-3 4-7 0.688-1.895 1.309-3.815 1.876-5.75 1.69-5.351 4.133-9.494 7.124-14.25 0.55-1.651 1.048-3.32 1.5-5 1.34-4.963 3.722-8.663 6.5-13 1.084-2.538 2.055-5.104 3.032-7.684 1.276-3.05 3.097-5.599 4.968-8.316 0.475-1.258 0.949-2.516 1.438-3.812 1.562-3.188 1.562-3.188 3.875-4.376 3.771 0.264 5.617 2.003 8.687 4.188 1.55 0.717 3.113 1.404 4.688 2.062 4.312 1.938 4.312 1.938 7.312 4.938 2.454 0.992 2.454 0.992 5.25 1.875 3.719 1.272 6.067 2.353 9.313 4.687 3.69 2.617 6.662 3.56 11.008 4.567 2.429 0.871 2.429 0.871 4.847 2.84 2.912 2.291 5.206 3.026 8.77 3.969 4.215 1.2 7.916 2.505 11.75 4.624 4.985 2.642 9.93 3.649 15.449 4.68 3.522 0.739 6.772 1.79 10.176 2.946 15.421 4.542 32.673 2.491 47.437-3.188 1.957-0.427 3.915-0.843 5.876-1.25 8.701-2.09 15.126-7.252 21.124-13.75 1.073-1.031 2.145-2.062 3.25-3.125 4.689-4.901 4.066-10.104 4.188-16.563 0.046-0.968 0.092-1.937 0.139-2.935 0.116-7.49-1.592-10.807-6.577-16.377-0.618-0.846-1.237-1.691-1.874-2.562-10.885-12.486-23.991-16.933-39.891-19.665-6.399-1.109-12.29-2.725-18.418-4.87-5.376-1.724-10.943-2.253-16.52-2.997-4.636-0.978-8.096-2.75-12.297-4.906-2.626-0.722-5.273-1.369-7.937-1.938-6.575-1.546-11.31-3.611-17.063-7.062-1.569-0.56-3.154-1.082-4.75-1.562-4.114-1.392-5.979-2.74-9.25-5.438-2.204-0.973-4.409-1.943-6.624-2.891-12.876-6.014-25.607-16.93-35.376-27.109v-2c-1.319-0.66-2.64-1.32-4-2-6.448-6.345-10.798-12.519-13.199-21.246-0.801-2.754-0.801-2.754-2.988-7.066-4.048-8.237-2.999-17.759-2.998-26.737-2e-3 -2.548-0.02-5.095-0.039-7.642-0.015-12.448 0.566-23.858 5.162-35.5 1.152-3.046 2.044-6.115 2.938-9.247 1.993-6.601 4.841-12.514 8.124-18.562 0.64-1.196 1.279-2.392 1.938-3.625 9.552-15.631 22.451-30.533 38.062-40.375 0.949-0.66 1.898-1.32 2.876-2 3.582-2.293 7.322-4.099 11.124-6 1.32-0.99 2.641-1.98 4-3 2.185-0.723 4.398-1.362 6.626-1.938 4.169-1.082 8.049-2.331 11.988-4.05 37.299-15.154 98.429-7.887 136.32 1.988z" fill="#004BAF"/>
<path transform="translate(2187,184)" d="m0 0c2.438 3.657 2.24 5.352 2.217 9.71-3e-3 1.412-6e-3 2.824-9e-3 4.278-0.015 1.557-0.029 3.114-0.044 4.718-4e-3 0.821-4e-3 0.821-0.024 4.978-0.03 5.439-0.083 10.877-0.14 16.316-9e-3 0.908-0.019 1.817-0.028 2.753-0.144 13.886-0.34 27.771-0.545 41.656-0.083 5.681-0.163 11.363-0.243 17.045-0.187 13.244-0.378 26.487-0.569 39.73-2.785 192.85-2.785 192.85-2.91 269.35-9e-3 5.047-0.031 10.095-0.062 15.142-0.038 6.367-0.057 12.735-0.061 19.103-5e-3 2.353-0.017 4.706-0.035 7.059-0.025 3.209-0.024 6.416-0.017 9.625-0.013 0.926-0.026 1.852-0.039 2.806 0.054 6.738 1.734 11.588 4.509 17.73 0.397 0.986 0.794 1.972 1.203 2.988 2.762 6.133 5.527 9.062 11.797 12.012 7.431 2.477 14.617 2.093 22.402 1.875 3.598 0.125 3.598 0.125 5.598 2.125 0.336 2.787 0.55 5.588 0.711 8.391 0.109 1.75 0.219 3.5 0.329 5.25 0.027 0.458 0.027 0.458 0.165 2.779 0.862 14.327 1.964 28.357 4.928 42.428 0.853 4.084 1.643 7.983 1.867 12.152-3 3-3 3-7.809 3.328-2.209-9e-3 -4.419-0.037-6.629-0.078-1.225-0.015-2.45-0.029-3.713-0.044-2.885-0.038-5.77-0.082-8.654-0.132-4.915-0.079-9.829-0.099-14.744-0.117-4.616-0.021-9.232-0.065-13.847-0.114-2.3-0.02-4.599-0.033-6.899-0.037-11.815-0.034-22.512-0.092-33.636-4.6-3.292-1.294-6.471-1.997-9.944-2.644-6.101-1.317-10.223-3.805-15.125-7.562-0.969-0.598-1.939-1.196-2.938-1.812-6.445-4.604-12.253-9.888-17.062-16.188-0.588-0.767-1.176-1.534-1.781-2.324-3.542-4.87-6.229-9.458-8.199-15.156-1.02-2.52-1.02-2.52-2.976-5.703-7.303-13.637-5.472-32.084-5.455-47.11 5e-3 -4.499-8e-3 -8.999-0.025-13.498-0.023-6.709-0.038-13.417-0.046-20.125-0.025-17.867-0.105-35.733-0.187-53.599-0.015-3.135-0.029-6.27-0.042-9.404-0.179-39.936-0.57-79.87-1.012-119.8-0.016-1.522-0.033-3.045-0.051-4.613-0.256-23.117-0.521-46.234-0.788-69.352-0.018-1.522-0.036-3.044-0.054-4.612-0.071-6.109-0.141-12.218-0.212-18.327-0.136-11.75-0.272-23.501-0.406-35.252-0.079-6.857-0.159-13.714-0.241-20.572-0.031-2.607-0.062-5.215-0.093-7.822-0.015-1.258-0.03-2.517-0.046-3.813-0.109-9.296-0.204-18.592-0.291-27.889-0.054-5.679-0.129-11.357-0.231-17.035-0.065-3.759-0.107-7.519-0.153-11.278-0.031-1.277-0.062-2.554-0.094-3.87-0.01-1.136-0.02-2.271-0.029-3.442-0.017-0.959-0.034-1.918-0.052-2.907 0.616-3.311 1.822-4.461 4.464-6.493 3.098-0.653 5.993-1.105 9.125-1.438 6.768-0.85 13.079-2.057 19.625-4.062 8.123-2.413 16.036-3.434 24.423-4.334 7.579-0.867 14.465-2.687 21.733-5.025 10.514-2.93 22.2-3.898 33.094-3.141z" fill="#004BAF"/>
<path transform="translate(1981,184)" d="m0 0c2 2 2 2 2.246 5.221-1e-3 0.704-1e-3 0.704-5e-3 4.266 1e-3 0.81 1e-3 0.81 8e-3 4.907-7e-3 1.817-0.015 3.634-0.022 5.45-1e-3 1.915 0 3.829 1e-3 5.744 1e-3 5.284-0.011 10.567-0.025 15.851-0.013 5.69-0.014 11.38-0.017 17.07-5e-3 9.869-0.018 19.738-0.036 29.606-0.025 14.283-0.037 28.566-0.046 42.849-0.014 23.19-0.035 46.38-0.063 69.569-2e-3 1.39-3e-3 2.779-5e-3 4.21-0.013 11.265-0.027 22.531-0.041 33.796l-0.036 29.493c-2e-3 1.385-3e-3 2.769-5e-3 4.195-0.027 23.087-0.047 46.174-0.061 69.262-9e-3 14.243-0.025 28.486-0.05 42.729-0.017 9.767-0.027 19.534-0.031 29.301-3e-3 5.634-9e-3 11.267-0.023 16.901-0.014 5.163-0.018 10.326-0.015 15.488-1e-3 1.863-5e-3 3.726-0.012 5.589-0.109 27.447-0.109 27.447 5.55 35.565 0.287 0.429 0.287 0.429 1.739 2.598 5.034 6.043 10.35 8.101 17.949 9.34 3.663 0.113 7.273 0.07 10.934-0.09 3.066 0.09 3.066 0.09 7.066 2.09 2.286 4.572 2.827 8.752 3.438 13.75 0.062 0.492 0.062 0.492 0.38 2.984 1.288 10.453 2.218 20.942 3.092 31.437 0.113 1.305 0.227 2.61 0.344 3.954 0.096 1.158 0.192 2.315 0.291 3.508 0.485 3.593 1.45 6.889 2.455 10.367-0.306 3.445-0.538 4.538-3 7-3.228 0.267-3.228 0.267-7.456 0.291-0.79 6e-3 -0.79 6e-3 -4.787 0.038-1.738 3e-3 -3.476 5e-3 -5.214 7e-3 -1.782 6e-3 -3.564 0.013-5.346 0.02-3.747 0.012-7.494 0.016-11.241 0.015-4.77-1e-3 -9.539 0.027-14.309 0.061-3.688 0.023-7.376 0.026-11.065 0.025-1.756 3e-3 -3.512 0.011-5.268 0.027-10.572 0.085-19.398-0.805-29.314-4.484-2.579-0.642-5.162-1.271-7.75-1.875-6.55-1.707-10.85-4.096-16.25-8.125-0.959-0.461-1.918-0.923-2.906-1.398-13.115-6.789-20.533-19.995-27.094-32.602-0.722-1.299-1.444-2.599-2.188-3.938-1.934-4.336-3.06-8.513-4.101-13.132-0.711-2.93-0.711-2.93-1.736-5.629-1.128-3.818-1.251-7.071-1.285-11.052-0.018-1.568-0.036-3.137-0.055-4.753-0.01-1.73-0.02-3.46-0.029-5.19l-0.054-5.481c-0.049-4.974-0.085-9.949-0.119-14.923-0.031-4.224-0.068-8.448-0.106-12.672-0.118-13.324-0.215-26.648-0.305-39.972-0.021-3.167-0.044-6.333-0.066-9.5-0.209-29.588-0.369-59.176-0.504-88.764-0.015-3.279-0.03-6.559-0.045-9.838-0.152-32.923-0.282-65.847-0.395-98.77-0.012-3.38-0.024-6.76-0.036-10.139-0.089-25.724-0.164-51.447-0.199-77.171-3e-3 -1.998-5e-3 -3.996-8e-3 -5.994-1e-3 -0.981-3e-3 -1.962-4e-3 -2.972-0.01-6.879-0.028-13.758-0.049-20.636-0.025-8.294-0.039-16.587-0.04-24.88 0-4.204-7e-3 -8.408-0.024-12.612-0.016-4.529-0.015-9.058-8e-3 -13.586-0.01-1.329-0.019-2.658-0.028-4.028 5e-3 -1.202 0.011-2.404 0.017-3.643-2e-3 -1.041-3e-3 -2.082-5e-3 -3.154 0.372-2.571 0.372-2.571 3.372-5.571 2.645-0.625 2.645-0.625 5.812-1 4.858-0.655 9.639-1.432 14.438-2.438 1.078-0.225 2.155-0.451 3.266-0.683 3.484-0.879 3.484-0.879 7.683-2.391 5.37-1.833 10.741-2.313 16.363-2.863 7.106-0.78 13.657-1.748 20.438-4.125 6.859-2.388 13.572-3.484 20.75-4.375 1.049-0.132 2.099-0.264 3.18-0.4 4.5-0.514 7.616-0.838 12.07 0.275z" fill="#004BAE"/>
</svg>
