<?xml version="1.0" encoding="UTF-8"?>
<svg version="1.1" viewBox="0 0 2744 1144" xmlns="http://www.w3.org/2000/svg">
<path transform="translate(1170,465)" d="m0 0c3.875-0.399 7.467-0.539 11.345-0.508 1.185-6e-3 2.369-0.012 3.589-0.019 3.991-0.016 7.982-3e-3 11.973 9e-3 2.853-5e-3 5.706-0.012 8.559-0.021 7.769-0.018 15.538-0.011 23.308 2e-3 8.128 0.01 16.257 0 24.386-6e-3 14.543-8e-3 29.085 5e-3 43.627 0.025 13.164 0.018 26.327 0.015 39.49-3e-3 15.292-0.022 30.584-0.03 45.876-0.018 8.092 6e-3 16.184 7e-3 24.276-6e-3 7.62-0.012 15.24-4e-3 22.86 0.019 2.79 6e-3 5.58 4e-3 8.37-5e-3 16.788-0.048 30.737 0.837 46.341 7.531 1.845 0.496 3.699 0.957 5.562 1.375 4.894 1.277 7.738 3.097 11.438 6.625 1.993 1.344 3.994 2.675 6 4 1.884 1.3 3.758 2.614 5.625 3.938 0.92 0.648 1.841 1.296 2.789 1.964 2.65 2.15 4.529 4.389 6.586 7.098 0.846 0.825 1.691 1.65 2.562 2.5 5.438 5.577 5.438 5.577 5.438 9.5h2c1.223 2.039 2.354 4.134 3.438 6.25 2.009 3.907 3.913 7.218 6.562 10.75 0.875 2.739 0.875 2.739 1.57 5.883 0.129 0.579 0.129 0.579 0.778 3.51 4.133 19.861 6.083 34.879-0.348 54.607-0.513 2.039-1.015 4.08-1.5 6.125-1.328 4.9-3.595 8.694-6.5 12.875-0.701 1.134-1.402 2.269-2.125 3.438-1.875 2.562-1.875 2.562-4.875 3.562l-2 4c-3.998 4.35-8.484 8.199-13 12-0.641 0.541-1.281 1.083-1.941 1.641-4.345 3.475-8.513 5.459-13.653 7.355-4.051 1.69-8.394 3.981-10.406 8.004-0.696 4.973-0.193 6.717 2.688 10.938 0.556 0.674 1.113 1.348 1.687 2.042 1.625 2.02 1.625 2.02 3.813 5.77 3.025 5.012 7.137 9.034 11.191 13.223 6.621 7.647 6.621 7.647 6.621 12.027 0.99 0.33 1.98 0.66 3 1 2.425 2.619 4.724 5.256 7 8 0.753 0.901 1.506 1.802 2.281 2.73 3.289 3.974 6.483 7.937 9.469 12.145 2.25 3.125 2.25 3.125 4.625 5.5 5.59 5.59 9.729 11.773 13.625 18.625 0.743 0.701 1.485 1.402 2.25 2.125 1.75 1.875 1.75 1.875 1.75 6.875-2 2-2 2-5.4 2.247-0.738 0-0.738 0-4.471-4e-3 -0.407 1e-3 -0.407 1e-3 -2.465 6e-3 -2.7 3e-3 -5.401-7e-3 -8.102-0.019-1.878-1e-3 -3.757-1e-3 -5.636-1e-3 -3.948-1e-3 -7.896-0.01-11.843-0.023-5.039-0.017-10.078-0.021-15.117-0.02-3.887-1e-3 -7.773-6e-3 -11.66-0.013-1.856-3e-3 -3.712-5e-3 -5.568-6e-3 -25.019-0.021-25.019-0.021-28.988-2.667-2.09-2.985-4.118-6.004-6.105-9.059-2.677-3.973-5.655-7.701-8.645-11.441-0.639-0.802-1.279-1.604-1.938-2.43-4.724-5.887-9.459-11.77-14.437-17.445-5.625-6.696-5.625-6.696-5.625-10.125h-2c-4.073-4.387-7.638-9.228-10.688-14.375-2.222-3.484-4.097-5.152-7.312-7.625-1.344-1.993-2.675-3.994-4-6-1.284-1.606-2.599-3.189-3.938-4.75-0.648-0.758-1.296-1.516-1.964-2.297-3.725-3.468-7.438-4.202-12.425-4.214-1.054-7e-3 -2.108-0.014-3.194-0.021-1.147 2e-3 -2.293 5e-3 -3.474 7e-3 -1.215-5e-3 -2.43-0.01-3.682-0.015-4.016-0.014-8.033-0.013-12.05-0.011-2.788-4e-3 -5.576-8e-3 -8.364-0.013-5.843-7e-3 -11.685-7e-3 -17.527-2e-3 -7.5 6e-3 -15-0.011-22.501-0.034-5.756-0.015-11.512-0.016-17.268-0.013-2.767 0-5.533-5e-3 -8.299-0.015-3.86-0.013-7.719-6e-3 -11.578 6e-3 -1.15-8e-3 -2.301-0.016-3.486-0.023-0.524 3e-3 -0.524 3e-3 -3.177 0.021-0.913 0-1.825-1e-3 -2.766-1e-3 -2.307 0.375-2.307 0.375-5.307 3.375-1.593 3.185-1.142 6.352-1.158 9.89-5e-3 0.815-0.01 1.63-0.015 2.469-0.011 1.773-0.019 3.545-0.026 5.317-0.012 2.803-0.031 5.606-0.053 8.409-0.062 7.97-0.116 15.94-0.149 23.91-0.021 4.872-0.057 9.743-0.101 14.615-0.014 1.859-0.023 3.718-0.026 5.577-5e-3 2.598-0.028 5.195-0.055 7.793-9e-3 1.48-0.017 2.959-0.025 4.484-0.392 3.536-0.392 3.536-3.392 6.536-3.364 0.394-3.364 0.394-7.605 0.42-1.585 0.016-3.171 0.032-4.804 0.048-1.736 1e-3 -3.472 2e-3 -5.208 1e-3 -1.778 7e-3 -3.555 0.015-5.332 0.023-3.728 0.013-7.455 0.015-11.182 9e-3 -4.775-6e-3 -9.548 0.025-14.322 0.065-3.671 0.026-7.343 0.029-11.015 0.025-1.76 2e-3 -3.52 0.012-5.279 0.029-2.463 0.023-4.926 0.01-7.389-5e-3 -0.701 1e-3 -0.701 1e-3 -4.246 6e-3 -4.668-0.801-5.822-1.804-8.618-5.621-0.487-3.859-0.667-7.27-0.621-11.128-7e-3 -1.137-0.013-2.274-0.02-3.445-0.015-3.817 5e-3 -7.633 0.026-11.451-4e-3 -2.733-9e-3 -5.466-0.017-8.199-0.014-7.43 3e-3 -14.859 0.026-22.289 0.02-7.765 0.014-15.531 0.012-23.296 0-13.042 0.02-26.083 0.052-39.124 0.033-13.422 0.047-26.844 0.041-40.266-7e-3 -16.171 0-32.341 0.022-48.511 8e-3 -6.179 0.011-12.357 9e-3 -18.536-1e-3 -7.272 0.013-14.543 0.039-21.814 7e-3 -2.674 9e-3 -5.348 6e-3 -8.021-4e-3 -3.64 0.011-7.279 0.031-10.919-6e-3 -1.066-0.011-2.133-0.017-3.232 0.05-5.307 0.131-7.396 3.411-11.769zm86 70c-3.063 6.126-1.316 16.821-1.35 23.666-0.017 2.426-0.044 4.851-0.082 7.277-0.055 3.495-0.077 6.988-0.091 10.483-0.023 1.083-0.046 2.167-0.069 3.283 3e-3 1.014 6e-3 2.029 9e-3 3.073-9e-3 0.889-0.017 1.778-0.025 2.694 0.895 3.714 2.673 5.131 5.608 7.524 3.391 0.626 3.391 0.626 7.35 0.628 0.751 7e-3 0.751 7e-3 4.554 0.039 0.822-6e-3 0.822-6e-3 4.984-0.036 1.753 5e-3 3.506 0.013 5.259 0.022 4.758 0.018 9.516 5e-3 14.275-0.014 4.981-0.017 9.963-8e-3 14.944-3e-3 8.368 5e-3 16.736-0.011 25.104-0.039 9.668-0.032 19.337-0.032 29.005-0.015 9.305 0.016 18.61 9e-3 27.915-8e-3 3.958-7e-3 7.915-6e-3 11.873 2e-3 4.664 7e-3 9.327-5e-3 13.991-0.032 2.524-0.01 5.047-1e-3 7.571 9e-3 1.509-0.013 3.017-0.025 4.571-0.038 1.307-3e-3 2.614-6e-3 3.961-9e-3 8.826-1.226 15.229-7.858 20.643-14.506 4.258-7.138 6.638-14.716 5-23-2.456-6.62-5.505-12.443-11-17-1.155-1.052-2.31-2.104-3.5-3.188-5.361-4.308-8.992-5.062-15.832-5.079-1.499-9e-3 -2.998-0.017-4.542-0.026-1.64 1e-3 -3.28 2e-3 -4.97 2e-3 -1.748-6e-3 -3.496-0.012-5.244-0.02-4.743-0.018-9.487-0.022-14.231-0.024-3.959-1e-3 -7.918-9e-3 -11.877-0.016-9.337-0.016-18.674-0.021-28.011-0.02-9.638 2e-3 -19.276-0.02-28.914-0.051-8.273-0.026-16.545-0.037-24.818-0.036-4.942 1e-3 -9.884-5e-3 -14.826-0.026-4.645-0.019-9.29-0.02-13.935-5e-3 -2.52 3e-3 -5.041-0.014-7.562-0.031-1.496 8e-3 -2.992 0.017-4.533 0.026-1.303-2e-3 -2.605-3e-3 -3.947-4e-3 -3.805 0.582-4.944 1.493-7.258 4.498z"/>
<path transform="translate(835.4 464.58)" d="m0 0c0.439 2e-3 0.439 2e-3 2.659 0.014 0.464-4e-3 0.464-4e-3 2.809-0.021 3.072-0.018 6.143-0.015 9.215-9e-3 2.134-4e-3 4.268-0.01 6.401-0.016 4.477-9e-3 8.953-6e-3 13.429 4e-3 5.734 0.011 11.467-9e-3 17.2-0.038 4.409-0.019 8.817-0.018 13.226-0.013 2.114 1e-3 4.227-6e-3 6.341-0.018 2.958-0.015 5.916-4e-3 8.875 0.013 0.871-0.01 1.743-0.019 2.641-0.029 5.447 0.066 8.631 1.009 12.805 4.531 1.539 2.332 1.539 2.332 2.625 4.812 0.402 0.875 0.804 1.751 1.219 2.653 0.381 0.836 0.763 1.673 1.156 2.535 2.161 3.941 4.298 7.397 7 11 1.333 2.666 2.667 5.333 4 8 0.681 1.01 1.361 2.021 2.063 3.062 1.937 2.938 1.937 2.938 3.375 6.438 1.562 3.5 1.562 3.5 3.937 6.312 3.356 4.075 5.385 8.436 7.625 13.188 4.615 9.37 9.866 18.184 15.563 26.937 1.773 2.956 3.129 5.551 4.437 8.688 1.935 4.231 4.044 6.841 7 10.375 1.299 2.34 2.455 4.728 3.613 7.14 1.583 3.263 3.25 6.469 4.95 9.672 0.279 0.529 0.279 0.529 1.691 3.207 1.703 2.908 3.636 5.362 5.746 7.981 0.822 1.472 1.594 2.974 2.313 4.5 2.013 4.144 4.092 8.241 6.25 12.312 0.279 0.529 0.279 0.529 1.691 3.207 1.703 2.908 3.636 5.362 5.746 7.981 0.822 1.472 1.594 2.974 2.313 4.5 2.013 4.144 4.092 8.241 6.25 12.312 0.279 0.529 0.279 0.529 1.691 3.207 1.704 2.908 3.637 5.361 5.746 7.981 0.843 1.514 1.636 3.057 2.375 4.625 6.95 14.305 6.95 14.305 10.75 19 2.178 2.758 3.381 5.689 4.742 8.91 1.627 3.538 3.642 6.794 5.684 10.105 1.259 2.05 2.454 4.14 3.637 6.235 1.812 3.125 1.812 3.125 4.812 7.125 0.806 1.502 1.576 3.025 2.313 4.562 3.599 7.329 7.267 14.519 12 21.188 2.542 3.7 3.592 6.671 3.687 11.25-1.885 1.885-5.145 1.184-7.656 1.221-1.429 0.023-2.858 0.046-4.331 0.07-1.56 0.02-3.12 0.04-4.728 0.06-1.595 0.023-3.19 0.047-4.834 0.07-3.388 0.049-6.777 0.094-10.166 0.136-4.321 0.055-8.641 0.119-12.961 0.185-4.138 0.063-8.276 0.117-12.414 0.172-0.771 0.012-0.771 0.012-4.673 0.072-20.506 0.238-20.506 0.238-24.612-2.666-4.606-6.577-8.995-13.228-11.875-20.758-1.75-4.562-1.75-4.562-3.75-7.562s-2-3-3.687-7.688c-2.576-6.473-5.879-11.864-11.313-16.312-8.469-3.533-16.926-4.378-26-4-0.608-0.08-0.608-0.08-3.683-0.48-4.67-0.563-9.187-0.65-13.891-0.653-0.887-1e-3 -1.774-2e-3 -2.688-3e-3 -1.861-1e-3 -3.722 1e-3 -5.584 5e-3 -2.844 6e-3 -5.687 0-8.531-6e-3 -1.816 1e-3 -3.631 2e-3 -5.447 4e-3 -1.641 1e-3 -3.281 2e-3 -4.972 3e-3 -3.316 0.102-6.002 0.442-9.204 1.13-6.303 0.477-12.622 0.717-18.937 1-0.955 0.045-1.909 0.09-2.892 0.137-13.27 0.622-26.52 0.933-39.804 1.003-0.702 5e-3 -0.702 5e-3 -4.254 0.032-6.999 0.051-13.995 0.073-20.994 0.046-2.582 0.015-5.165 0.03-7.748 0.047-1.193-0.015-2.385-0.031-3.614-0.046-3.038 0.036-5.793 0.112-8.757 0.781-2.613 2.889-2.613 2.889-4 6-0.846 0.825-1.691 1.65-2.562 2.5-2.641 2.708-3.834 5.091-5.438 8.5-1.64 2.688-3.302 5.349-5 8-1.167 1.833-2.333 3.666-3.5 5.5-0.597 0.937-1.194 1.874-1.808 2.84-3.919 6.162-7.736 12.373-11.458 18.656-1.234 2.004-1.234 2.004-2.234 3.004-2.748 0.135-5.5 0.199-8.252 0.237-0.865 0.013-1.73 0.026-2.621 0.039-2.874 0.042-5.749 0.077-8.623 0.11-1.989 0.026-3.978 0.052-5.968 0.078-4.175 0.053-8.351 0.102-12.526 0.148-5.362 0.061-10.723 0.135-16.085 0.213-4.11 0.057-8.22 0.105-12.33 0.151-1.977 0.024-3.954 0.05-5.932 0.081-2.76 0.041-5.521 0.069-8.282 0.094-1.573 0.019-3.147 0.038-4.768 0.058-3.613-0.209-3.613-0.209-5.613-2.209 0.063-2.375 0.063-2.375 1-5 0.763-0.598 1.526-1.197 2.313-1.813 3.572-2.907 4.727-6.029 6.687-10.187 2.436-4.247 5.023-8.403 7.578-12.578 2.361-3.887 4.557-7.701 6.547-11.797 1.741-3.367 3.259-5.009 5.875-7.625 1.37-2.648 2.698-5.318 4-8 2.441-4.244 5.023-8.403 7.578-12.578 2.361-3.887 4.557-7.701 6.547-11.797 1.741-3.367 3.259-5.009 5.875-7.625 1.37-2.648 2.698-5.318 4-8 2.449-4.258 5.033-8.434 7.613-12.614 2.262-3.698 4.301-7.177 5.95-11.199 1.623-3.6 3.662-5.412 6.437-8.187 1.387-2.64 2.714-5.311 4-8 2.57-4.619 5.095-8.987 8.625-12.938 2.321-2.993 3.195-5.085 4.375-8.625 1.57-4.696 3.338-7.05 7-10.437 1.387-2.64 2.714-5.311 4-8 2.57-4.619 5.095-8.987 8.625-12.938 2.321-2.993 3.195-5.085 4.375-8.625 1.57-4.696 3.338-7.05 7-10.437 1.387-2.64 2.714-5.311 4-8 2.57-4.619 5.095-8.987 8.625-12.938 2.321-2.993 3.195-5.085 4.375-8.625 1.57-4.696 3.338-7.05 7-10.437 1.387-2.64 2.714-5.311 4-8 2.593-4.66 5.163-9.046 8.688-13.063 2.919-3.708 3.888-7.47 5.312-11.937 3.43-3.43 4.738-3.361 9.399-3.418zm26.601 90.418c-1.083 1.391-2.184 2.769-3.312 4.125-2.826 4.074-4.208 7.749-5.762 12.406-1.142 3.046-2.769 5.05-4.926 7.469-1.705 2.642-3.37 5.31-5 8-0.701 1.155-1.402 2.31-2.125 3.5-1.875 3.5-1.875 3.5-3.375 7.562-1.459 3.831-3.206 6.565-5.5 9.938-3.271 5.617-5.977 10.3-5 17 3.056 3.056 5.841 2.303 10.102 2.366 0.419 8e-3 0.419 8e-3 2.539 0.045 2.78 0.047 5.559 0.078 8.34 0.108 1.931 0.027 3.861 0.053 5.792 0.08 4.055 0.055 8.109 0.102 12.164 0.144 5.187 0.054 10.374 0.132 15.562 0.216 3.991 0.061 7.983 0.108 11.975 0.151 1.912 0.023 3.823 0.05 5.735 0.083 2.681 0.044 5.361 0.068 8.042 0.087 0.762 9e-3 0.762 9e-3 4.618 0.056 4.379-0.357 7.328-1.143 11.131-3.336 1.635-8.047-1.849-13.293-6-20-0.263-0.453-0.263-0.453-1.594-2.746-1.987-3.413-3.895-6.643-6.433-9.68-2.091-2.729-3.196-5.181-4.41-8.387-2.709-6.747-6.155-12.378-10.625-18.125-2.556-3.334-4.176-6.736-5.829-10.609-2.204-4.875-4.494-9.467-8.109-13.453-10.165-3.485-13.398 5.481-18 13z"/>
<path transform="translate(2083.8 464.55)" d="m0 0c2.975-0.104 5.95-0.206 8.926-0.305 1.39-0.088 2.78-0.177 4.213-0.268 9.564-0.219 9.564-0.219 13.972 3.333 4.288 5.088 7.069 10.226 9.241 16.486 1.313 3.257 3.618 5.544 5.886 8.199 1.359 2.504 2.587 5.051 3.813 7.621 1.187 2.379 1.187 2.379 3.25 5.442 1.937 2.937 1.937 2.937 3.937 7.5 2 4.437 2 4.437 3.782 6.621 3.624 4.601 6.287 9.77 9.152 14.867 2.436 4.286 4.947 8.118 8.066 11.949 1.334 3 2.667 6 4 9 1.328 1.671 2.662 3.338 4 5 1.321 2.498 2.546 5.033 3.774 7.578 1.226 2.422 1.226 2.422 3.351 5.61 1.875 2.812 1.875 2.812 3.313 6.312 1.562 3.5 1.562 3.5 3.937 6.313 2.773 3.366 4.432 6.621 6.305 10.527 2.66 5.359 5.621 10.611 9.445 15.223 2.679 3.483 4.096 7.433 5.875 11.437 1.328 1.671 2.662 3.338 4 5 1.322 2.501 2.549 5.039 3.778 7.586 1.222 2.414 1.222 2.414 3.285 5.477 1.937 2.937 1.937 2.937 3.937 7.5 2 4.437 2 4.437 3.782 6.621 3.624 4.601 6.287 9.77 9.152 14.867 2.436 4.286 4.947 8.118 8.066 11.949 1.334 3 2.667 6 4 9 1.328 1.671 2.662 3.338 4 5 1.321 2.498 2.546 5.033 3.774 7.578 1.226 2.422 1.226 2.422 3.351 5.61 1.875 2.812 1.875 2.812 3.313 6.312 1.562 3.5 1.562 3.5 3.937 6.313 2.242 2.722 3.517 4.809 5 7.937 2.244 4.717 4.987 8.82 8.075 13.024 1.55 2.226 1.55 2.226 3.55 6.226-3.8 3.801-5.125 3.383-10.389 3.404-1.539 0.013-3.078 0.026-4.663 0.039-1.686-2e-3 -3.372-5e-3 -5.057-9e-3 -1.728 4e-3 -3.456 0.01-5.183 0.016-3.625 9e-3 -7.25 6e-3 -10.875-4e-3 -4.635-0.011-9.269 9e-3 -13.903 0.038-3.571 0.019-7.142 0.018-10.712 0.013-1.708-1e-3 -3.416 6e-3 -5.124 0.018-2.395 0.015-4.791 2e-3 -7.186-0.013h-4.125c-5.473-0.726-9.392-2.738-12.822-7.088-0.523-0.92-1.046-1.84-1.586-2.789-1.9-3.209-3.648-5.948-6.062-8.812-2.76-3.357-4.398-6.922-6.313-10.813l-2-2.5c-2.589-3.236-4.15-6.799-6-10.5-1.318-1.678-2.651-3.346-4-5-0.495-1.031-0.99-2.062-1.5-3.125-2.013-3.859-4.399-5.508-8.5-6.875-1.878-0.093-3.76-0.126-5.641-0.127-1.176-2e-3 -2.352-5e-3 -3.564-8e-3 -0.647 1e-3 -0.647 1e-3 -3.919 6e-3 -1.362-2e-3 -2.723-4e-3 -4.126-5e-3 -4.537-5e-3 -9.073-2e-3 -13.609 1e-3 -3.176 0-6.351-1e-3 -9.527-2e-3 -6.692-2e-3 -13.384 0-20.076 5e-3 -6.794 5e-3 -13.588 5e-3 -20.382 0-64.426-0.045-64.426-0.045-89.109 0.513-1.538 0.03-3.076 0.061-4.661 0.092-0.678 0.019-0.678 0.019-4.109 0.116-1.134 0.03-2.268 0.061-3.437 0.092-2.84 0.317-2.84 0.317-6.84 2.317-4.636 6.323-8.381 13.104-12.168 19.961-1.832 3.039-1.832 3.039-4.832 6.039-0.992 2.305-0.992 2.305-1.875 4.875-1.687 4.456-3.654 6.828-7.125 10.125-0.33 0.671-0.33 0.671-2 4.063-2.489 4.9-4.803 7.205-10 8.937-2.499 0.062-5 0.058-7.5 0.022-1.562-0.02-3.123-0.04-4.732-0.061-1.708-0.027-3.415-0.054-5.123-0.082-1.745-0.024-3.489-0.048-5.234-0.071-4.591-0.063-9.183-0.132-13.775-0.203-4.685-0.07-9.37-0.135-14.056-0.2-9.193-0.129-18.386-0.265-27.58-0.405-1.247-4.991-0.272-6.05 2.188-10.437 0.612-1.113 1.224-2.225 1.855-3.371 1.957-3.192 1.957-3.192 4.071-5.825 2.737-3.434 4.129-7.357 5.886-11.367 1.315-2.012 2.648-4.013 4-6 0.66-1.34 1.32-2.681 2-4.062 1.761-3.466 3.597-5.934 6-8.938 1.352-2.657 2.682-5.325 4-8 2.853-5.024 5.896-9.878 9.188-14.625 1.942-2.86 3.074-5.072 4.312-8.375 1.84-4.906 4.496-8.741 7.5-13 3.784-5.427 6.98-10.827 9.848-16.793 1.152-2.207 1.152-2.207 3.215-4.769 2.756-3.468 4.164-7.393 5.937-11.438 1.315-2.012 2.648-4.013 4-6 0.66-1.34 1.32-2.681 2-4.062 1.761-3.466 3.597-5.934 6-8.938 1.352-2.657 2.682-5.325 4-8 2.853-5.024 5.896-9.878 9.188-14.625 1.942-2.86 3.074-5.072 4.312-8.375 1.84-4.906 4.496-8.741 7.5-13 3.784-5.427 6.98-10.827 9.848-16.793 1.152-2.207 1.152-2.207 3.215-4.769 2.238-2.816 3.474-5.802 4.867-9.098 1.677-3.665 3.877-6.966 6.07-10.34 0.516-0.866 1.032-1.732 1.563-2.625 1.068-1.765 2.204-3.488 3.375-5.187 2.062-3.188 2.062-3.188 3.937-6.938 3.053-6.104 6.186-12.08 10.75-17.187 2.387-3.077 2.974-4.896 4-8.563 2.021-5.828 4.679-7.56 10.053-10.273 6.12-2.26 12.292-2.346 18.76-2.539 1.452-0.064 2.904-0.129 4.4-0.195 2.973-0.128 5.946-0.243 8.92-0.346 3.823-0.132 7.643-0.298 11.465-0.479 5.678-0.259 11.355-0.421 17.038-0.553 4.171-0.128 8.333-0.347 12.501-0.56zm-31.949 80.32c-2.747 4.935-5.287 9.967-7.731 15.059-1.082 2.066-1.082 2.066-3.144 4.629-1.871 2.353-2.836 4.316-4 7.062-1.938 4.375-1.938 4.375-4.938 7.375-1.002 2.264-2.002 4.529-2.968 6.809-1.297 2.754-3.126 4.823-5.032 7.191-1.272 2.314-2.423 4.669-3.562 7.051-1.057 2.167-2.169 4.307-3.313 6.43-6.379 11.999-6.379 11.999-5.125 18.519 5.283 3.522 10.262 3.111 16.507 3.054 0.844-7e-3 1.689-0.013 2.559-0.02 2.783-0.022 5.565-0.053 8.348-0.084 1.937-0.02 3.873-0.039 5.809-0.058 4.053-0.041 8.107-0.086 12.16-0.134 5.2-0.06 10.4-0.107 15.6-0.15 3.996-0.036 7.992-0.08 11.988-0.127 1.917-0.021 3.835-0.039 5.753-0.053 2.676-0.022 5.352-0.056 8.029-0.093 1.524-0.016 3.047-0.033 4.617-0.049 3.63-0.286 3.63-0.286 6.63-2.286 0.489-4.256 0.757-6.919-1.75-10.5-0.742-0.825-1.485-1.65-2.25-2.5-1.333-2.666-2.666-5.333-4-8-0.639-0.783-1.278-1.567-1.937-2.375-2.423-3.084-3.939-6.284-5.641-9.804-2.56-5.079-5.522-9.93-8.422-14.821-2.105-3.609-4.092-7.187-5.937-10.937-2.631-5.182-5.729-9.986-8.867-14.871-0.622-0.971-1.243-1.942-1.883-2.942-0.582-0.902-1.163-1.804-1.762-2.734-1.551-2.516-1.551-2.516-3.551-6.516-6.725-1.971-8.804 0.424-12.187 5.875z"/>
<path transform="translate(417,376)" d="m0 0c3.47 2.899 4.92 5.679 6.5 9.875 1.328 3.376 2.472 6.085 4.562 9.063 2.562 4.049 3.584 8.234 4.813 12.843 1.125 3.219 1.125 3.219 3.09 6.16 2.277 3.422 3.382 6.578 4.597 10.497 1.168 3.73 2.312 7.289 3.956 10.838 1.526 3.835 2.065 6.966 2.439 11.064 0.07 0.693 0.07 0.693 0.423 4.2 0.143 1.451 0.286 2.902 0.432 4.398 3.337 30.296 3.337 30.296 14.188 40.062 2.623 1.744 5.31 3.359 8 5l1 3 4 2c1.691 1.642 3.351 3.316 5 5 1.634 1.533 3.281 3.053 4.938 4.562 0.813 0.744 1.626 1.488 2.464 2.254 2.598 2.184 2.598 2.184 5.446 4.039 3.874 2.636 7.243 5.7 10.652 8.895 0.638 0.583 1.276 1.165 1.934 1.766 5.404 5.04 9.66 10.481 13.628 16.734 1.938 2.75 1.938 2.75 4.438 4.75 2.921 2.337 4.461 4.878 6.5 8 0.928 0.804 1.856 1.609 2.812 2.438 2.188 2.562 2.188 2.562 2.688 6-2.049 4.866-4.917 6.135-9.445 8.593-3.865 1.226-6.152 1.041-10.055-0.031-2.59-2.039-2.59-2.039-4.938-4.625-0.857-0.91-1.714-1.82-2.597-2.758-0.814-0.863-1.627-1.727-2.465-2.617-5.48-5.126-11.369-9.813-17.168-14.57-2.832-2.43-2.832-2.43-5.477-5.082-2.355-2.348-2.355-2.348-5.855-4.786-3.505-2.566-5.784-5.202-8.5-8.562-0.928-0.743-1.856-1.485-2.812-2.25-0.722-0.577-1.444-1.155-2.188-1.75v-2c-4.502-1.126-8.373-1.198-13-1-2.768 2.768-2.476 4.892-2.875 8.75-0.729 5.516-1.492 8.911-5.125 13.25-0.989 1.515-1.967 3.036-2.938 4.562-2.375 3.572-4.94 6.48-8.062 9.438l-2 2.5c-2.168 2.71-4.545 5.045-7 7.5-7.978 8.457-13.67 16.028-17.066 27.23-0.934 2.77-0.934 2.77-2.996 6.208-1.887 3.468-2.433 5.795-3.126 9.624-2.289 10.906-9.386 19.866-16.812 27.938-1.232 1.414-2.461 2.831-3.688 4.25-2.042 2.348-4.106 4.544-6.312 6.75h-2c0.062 3.789 0.062 3.789 1 8 3.063 2.023 3.063 2.023 7 3.375 1.372 0.477 2.743 0.954 4.156 1.445 5.386 1.653 10.556 2.919 16.16 3.559 6.742 0.78 12.871 1.871 19.309 4.059 7.267 2.446 14.327 3.59 21.93 4.31 6.538 0.731 10.918 2.635 16.445 6.252 3 4 3 4 3 7.25-1.271 4.765-3.447 9.197-7 12.75-9.539-0.161-19.037-1.275-28.492-2.477-3.223-0.374-6.409-0.683-9.641-0.921-8.374-0.643-15.601-1.352-23.125-5.383-3.422-1.521-6.673-2.052-10.367-2.657-5.928-0.98-11.246-2.46-16.875-4.562-7.043-2.623-13.897-4.242-21.305-5.457-3.195-0.543-3.195-0.543-6.195-1.543-6.546-0.606-11.748 0.965-17.879 2.992-3.121 1.008-3.121 1.008-7.559 2.008-3.562 1-3.562 1-6.253 2.934-3.913 2.443-7.301 3.205-11.809 4.128-7.946 1.642-7.946 1.642-11.355 3.465-4.531 2.122-9.017 2.446-13.957 2.973-1.044 0.121-2.087 0.242-3.161 0.367-3.341 0.387-6.684 0.76-10.027 1.133-3.377 0.388-6.752 0.781-10.128 1.18-2.106 0.248-4.213 0.492-6.32 0.73-4.759 0.555-9.416 1.23-14.103 2.231-4.449 0.859-4.449 0.859-7.261 0.047-4.29-4.29-6.953-8.63-7.512-14.719 1.324-3.469 1.324-3.469 3.407-4.73 2.96-1.169 5.923-2.103 8.979-2.989 1.092-0.34 2.184-0.68 3.309-1.031 7.282-2.208 14.546-3.813 22.063-5.016 3.628-0.715 6.81-1.803 10.254-3.141 5.964-2.294 11.794-3.486 18.062-4.562 14.465-2.588 14.465-2.588 20.25-7 1-4.562 1-4.562 0-9-2.563-1.938-2.563-1.938-6-4-1.885-2.359-3.527-4.822-5.199-7.336-2.246-3.323-4.713-6.433-7.223-9.559-6.857-9.148-10.098-20.523-12.578-31.543-2.181-9.229-6.098-15.024-13-21.562-0.619-0.804-1.238-1.609-1.875-2.438-2.125-2.562-2.125-2.562-5.437-5.374-6.885-5.951-10.931-10.817-13.727-19.54-0.961-2.648-0.961-2.648-3.461-6.523-2.836-4.679-4.128-9.106-5.508-14.367-0.992-2.758-0.992-2.758-3.992-4.758-4.437-0.438-4.437-0.438-9 0-2 2.188-2 2.188-4 5-2.131 1.18-4.265 2.356-6.426 3.48-4.955 2.925-9.195 6.811-13.574 10.52-0.851 0.669-1.702 1.338-2.578 2.027-4.092 3.333-7.375 7.051-10.672 11.161-2.835 3.502-5.713 6.921-8.75 10.25-4.039 4.459-7.528 9.261-11.02 14.156-1.98 2.406-1.98 2.406-4.98 3.406-2.05-1.605-4.046-3.28-6-5-0.928-0.557-1.856-1.114-2.812-1.688-2.188-1.312-2.188-1.312-3.188-3.312 0.618-10.194 3.138-16.502 10-24 1.164-1.496 2.327-2.994 3.488-4.492 6.881-8.439 14.705-15.999 22.414-23.671 2.665-2.654 5.318-5.318 7.971-7.983 1.71-1.709 3.42-3.417 5.131-5.124 0.783-0.787 1.567-1.575 2.374-2.386 5.728-5.68 11.705-10.351 18.372-14.906 3.056-2.292 4.99-4.399 7.25-7.438 0.338-0.284 0.338-0.284 2.047-1.723 2.601-3.032 2.652-5.2 3.015-9.152 1.056-9.586 3.056-18.805 5.5-28.125 1.13-4.35 1.793-8.599 2.313-13.062 0.744-5.707 2.326-9.994 4.906-15.094 1.399-3.263 2.019-6.355 2.657-9.844 1.134-5.927 3.076-10.391 6.16-15.547 1.402-2.453 1.402-2.453 2.84-6.578 2.066-5.126 4.017-9.539 8.562-12.875 5.842-1.156 11.44-1.192 16.895 1.348 2.105 1.652 2.105 1.652 2.667 4.84-0.55 3.728-1.682 6.007-3.492 9.253-1.911 4.57-2.372 9.484-3.066 14.364-0.857 3.58-1.759 5.821-3.469 8.988-2.853 5.422-3.814 10.62-4.66 16.645-1.025 6.871-2.269 13.473-4.248 20.141-1.283 4.953-1.018 9.051 0.373 13.921 2 2.5 2 2.5 5.812 3.062 4.141-0.556 6.581-1.558 10.188-3.562 6.769-1.849 14.055-1.186 21.008-1.185 2.588-2e-3 5.174-0.021 7.762-0.04 21.577-0.075 21.577-0.075 28.605 4.35 5.465 2.827 10.593 2.751 16.625 1.875 3.315-1.361 5.957-3.051 9-5 6.696-1.956 14.105-1.186 21.008-1.185 2.588-2e-3 5.174-0.021 7.762-0.04 22.158-0.079 22.158-0.079 29.23 5.225 4.125 0.375 4.125 0.375 8 0 5.662-8.493 1.456-24.51 0-34-0.992-4.192-2.406-7.911-4.477-11.707-2.38-5.145-3.221-10.572-4.363-16.102-1.181-4.266-2.893-7.415-5.16-11.191-1.488-5.358-2.654-10.44-2-16 2.12-3.137 3.838-3.937 7.375-5.312 3.746-0.711 5.997-0.817 9.625 0.312zm-161.91 130.02c-3.294 4.692-3.824 8.308-3.09 13.977 1.9 6.073 3.904 11.931 9 16 6.367 1.224 6.367 1.224 10 0 2.756-3.295 4.236-7.111 6-11 1.172-1.98 2.38-3.94 3.625-5.875 0.549-0.864 1.098-1.727 1.664-2.617 1.711-2.508 1.711-2.508 3.899-5.102 2.461-3.267 2.256-5.412 1.812-9.406l-2-3c-9.449-1.815-24.168 0.019-30.91 7.023zm128.91-5.023c-0.325 3.616-0.562 6.474 0 10 2.125 1.938 2.125 1.938 5 4 2.868 4.506 5.222 9.324 7.469 14.164 1.361 2.802 2.647 5.355 4.531 7.836 3.688 0.938 3.688 0.938 7 0 3.071-4.094 4.472-7.455 6.188-12.25 0.529-1.449 1.059-2.898 1.605-4.391 1.533-5.538 2.393-9.917-0.18-15.214-3.753-3.081-7.762-3.676-12.425-4.457-0.439-0.085-0.439-0.085-2.659-0.51-13.274-2.433-13.274-2.433-16.529 0.822zm-69 25c-0.361 0.402-0.361 0.402-2.188 2.438-1.812 2.562-1.812 2.562-2.874 5.812-0.31 0.908-0.619 1.815-0.938 2.75-0.99 0.33-1.98 0.66-3 1-1.105 2.625-2.088 5.302-3 8-2.601 7.465-2.601 7.465-5.188 10.938-2.52 4.258-2.353 7.193-1.812 12.062 2.272 4.462 3.466 5.733 8 8 13.591 2.966 26.18 3.119 40 2 2.896-0.148 5.792-0.294 8.688-0.438 5.658-0.377 10.903-0.82 16.312-2.562 3.659-4.878 3.559-6.011 3-12-1.82-9.317-4.311-16.414-10-24-0.598-1.114-1.196-2.227-1.812-3.375-6.143-10.179-12.636-16.349-23.188-21.625-9.552-1.295-15.89 4.192-22 11zm-5 91c-0.438 3.312-0.438 3.312 0 7 1.601 1.73 3.283 3.386 5 5 2.093 2.241 4.176 4.492 6.25 6.75 6.659 7.244 6.659 7.244 11.438 7.562 4.91-0.056 7.548-0.996 11.312-4.312 1.358-1.646 2.693-3.313 4-5 0.908-0.722 1.815-1.444 2.75-2.188 0.743-0.598 1.485-1.196 2.25-1.812v-2c1.654-0.697 3.323-1.361 5-2 2-2 2-2 2.188-6.062-0.188-3.938-0.188-3.938-1.188-4.938-3.443-0.114-6.865-0.164-10.309-0.168-1.037-3e-3 -2.074-7e-3 -3.142-0.01-2.199-5e-3 -4.397-7e-3 -6.595-7e-3 -3.374-2e-3 -6.747-0.021-10.12-0.04-2.131-3e-3 -4.262-5e-3 -6.393-5e-3 -1.014-8e-3 -2.029-0.015-3.074-0.022-7.138 0.023-7.138 0.023-9.367 2.252z"/>
<path transform="translate(2281.2 464.62)" d="m0 0c1.314-8e-3 2.628-0.016 3.981-0.024 1.453 7e-3 2.905 0.014 4.401 0.021 1.536-5e-3 3.072-0.01 4.654-0.015 4.275-0.01 8.549-6e-3 12.823 3e-3 4.606 7e-3 9.211-3e-3 13.817-0.012 9.026-0.013 18.052-0.01 27.079-1e-3 7.333 6e-3 14.667 7e-3 22 4e-3 0.521 0 0.521 0 3.159-1e-3 2.117-1e-3 4.234-2e-3 6.351-3e-3 19.869-9e-3 39.739 1e-3 59.608 0.017 17.063 0.014 34.125 0.011 51.188-3e-3 19.797-0.016 39.593-0.022 59.389-0.013 2.11 1e-3 4.219 2e-3 6.329 3e-3 0.519 0 0.519 0 3.145 1e-3 7.328 3e-3 14.656-1e-3 21.984-8e-3 8.926-9e-3 17.851-7e-3 26.777 9e-3 4.557 8e-3 9.114 0.011 13.672 2e-3 4.932-0.011 9.863 2e-3 14.795 0.017 0.726-4e-3 0.726-4e-3 4.401-0.021 1.314 8e-3 2.628 0.016 3.981 0.024 1.14 0 2.279 1e-3 3.453 1e-3 2.78 0.377 2.78 0.377 5.78 3.377 1.92 3.839 1.164 8.644 1.168 12.886 3e-3 1.091 7e-3 2.181 0.01 3.304 5e-3 2.313 8e-3 4.626 7e-3 6.938 3e-3 3.527 0.021 7.054 0.04 10.581 3e-3 2.246 5e-3 4.493 6e-3 6.74 7e-3 1.051 0.014 2.102 0.021 3.185-0.016 5.422-0.134 10.281-2.252 15.366-4.571 3.428-6.837 4.124-12.338 4.131-1.108 4e-3 -2.215 8e-3 -3.357 0.012-0.607 0-0.607 0-3.683-2e-3 -0.64 2e-3 -0.64 2e-3 -3.879 0.011-2.784 7e-3 -5.569 0.013-8.353 0.016-4.404 7e-3 -8.808 0.023-13.212 0.042-12.523 0.052-25.046 0.1-37.569 0.115-7.655 0.011-15.309 0.04-22.963 0.082-2.921 0.012-5.842 0.017-8.763 0.015-4.082-2e-3 -8.164 0.02-12.246 0.047-0.605-3e-3 -0.605-3e-3 -3.671-0.02-8.191 0.092-8.191 0.092-12.193 2.459-3.392 4.002-2.892 6.998-2.88 12.202 1e-3 0.848 1e-3 1.696 2e-3 2.57 3e-3 2.859 0.013 5.718 0.023 8.577 4e-3 2.043 7e-3 4.086 0.01 6.129 6e-3 4.408 0.016 8.816 0.028 13.223 0.018 6.966 0.027 13.932 0.035 20.898 0.025 19.811 0.06 39.622 0.105 59.433 0.025 10.936 0.042 21.871 0.052 32.806 6e-3 6.928 0.022 13.856 0.044 20.785 0.012 4.307 0.015 8.614 0.016 12.921 2e-3 2.001 8e-3 4.002 0.017 6.004 0.012 2.726 0.012 5.453 9e-3 8.179 3e-3 1.528 6e-3 3.056 9e-3 4.63-0.243 3.735-0.243 3.735-2.243 7.735-4.572 2.136-8.783 2.257-13.778 2.274-1.548 0.01-3.096 0.019-4.691 0.029-1.68 0-3.359-1e-3 -5.039-3e-3 -1.73 4e-3 -3.461 9e-3 -5.192 0.013-3.619 8e-3 -7.238 7e-3 -10.858 2e-3 -4.638-6e-3 -9.276 0.011-13.914 0.035-3.571 0.014-7.141 0.015-10.712 0.012-1.71 1e-3 -3.421 6e-3 -5.131 0.016-2.389 0.012-4.777 3e-3 -7.166-6e-3 -1.359 0-2.717 1e-3 -4.117 2e-3 -3.402-0.374-3.402-0.374-7.402-3.374-0.499-3.685-0.499-3.685-0.499-8.421-2e-3 -0.434-2e-3 -0.434-0.016-2.635-0.013-2.925 2e-3 -5.849 0.017-8.774-4e-3 -2.093-0.01-4.185-0.017-6.278-0.012-4.511-0.011-9.023-1e-3 -13.534 0.015-7.13 2e-3 -14.26-0.016-21.389-0.031-13.848-0.033-27.695-0.031-41.543 2e-3 -17.622-9e-3 -35.245-0.048-52.868-0.015-7.092-0.015-14.183-3e-3 -21.274 5e-3 -4.408-3e-3 -8.816-0.013-13.223-3e-3 -2.048 0-4.096 8e-3 -6.144 0.011-2.79 3e-3 -5.58-9e-3 -8.37 1e-3 -1.563 1e-3 -3.127 2e-3 -4.737-0.374-3.81-0.374-3.81-3.374-7.81-2.463-0.5-2.463-0.5-5.452-0.499-1.133-0.01-2.266-0.019-3.433-0.029-0.622 5e-3 -0.622 5e-3 -3.769 0.029-1.309-5e-3 -2.618-0.011-3.967-0.016-2.848-0.01-5.696-0.01-8.545-2e-3 -4.505 0.013-9.009 1e-3 -13.514-0.016-7.938-0.027-15.877-0.032-23.815-0.031-12.701 2e-3 -25.402-0.012-38.103-0.055-4.443-0.01-8.886-2e-3 -13.329 8e-3 -2.72-6e-3 -5.44-0.013-8.16-0.021-1.24 8e-3 -2.48 0.016-3.757 0.024-1.138-7e-3 -2.277-0.014-3.45-0.021-0.987 1e-3 -1.974 2e-3 -2.991 2e-3 -3.267-0.449-5.097-1.381-7.715-3.373-1.96-3.92-2.255-5.352-2.275-9.548-9e-3 -1.111-0.019-2.222-0.028-3.367 0-1.195 1e-3 -2.39 2e-3 -3.621-4e-3 -1.23-8e-3 -2.46-0.013-3.728-5e-3 -2.599-6e-3 -5.199-2e-3 -7.799 4e-3 -3.988-0.02-7.975-0.045-11.963-2e-3 -2.524-3e-3 -5.048-2e-3 -7.572-9e-3 -1.197-0.019-2.394-0.028-3.627 6e-3 -1.108 0.012-2.216 0.019-3.358-1e-3 -0.976-1e-3 -1.952-2e-3 -2.958 0.878-5.769 4.714-5.835 9.607-5.837z"/>
<path transform="translate(370 323.88)" d="m0 0c1.247 0.171 2.493 0.343 3.777 0.52 3.119 0.447 6.236 0.903 9.352 1.367 15.686 2.319 15.686 2.319 23.183 2.738 18.935 1.132 18.935 1.132 25.09 5.016 3.739 2.136 7.343 2.327 11.598 2.859 7.064 0.972 13.209 2.633 19.758 5.441 3.749 1.369 7.365 1.992 11.304 2.621 6.433 1.083 11.31 2.945 16.989 6.083 3.219 1.616 6.363 2.616 9.824 3.605 4.745 1.357 8.051 3.068 12.125 5.875 2.46 0.809 4.921 1.481 7.438 2.094 2.562 0.906 2.562 0.906 5.429 2.875 4.378 2.839 8.863 3.695 13.891 4.906 3.502 1.215 4.711 2.523 7.242 5.125 2.875 1.125 2.875 1.125 6 2 4.59 1.285 6.695 2.643 10 6 2.621 1.09 2.621 1.09 5.438 1.937 4.714 1.589 7.206 3.324 10.562 7.063 1.982 1.034 3.984 2.032 6 3 2.333 1.667 4.667 3.333 7 5 0.984 0.348 1.967 0.696 2.98 1.055 4.412 2.842 5.328 6.782 6.832 11.57 0.299 0.865 0.597 1.73 0.905 2.621 4.656 14.021 3.526 28.814 2.908 43.379-0.035 0.821-0.035 0.821-0.211 4.977-0.369 3.917-1.121 6.733-2.414 10.398-0.581 3.128-1.105 6.23-1.562 9.375-0.133 0.884-0.265 1.768-0.401 2.679-0.768 5.363-1.246 10.654-1.475 16.071-0.534 10.783-3.152 21.17-6.187 31.5-1.254 4.346-1.747 8.562-2.187 13.062-0.825 7.435-3.004 13.651-5.809 20.551-1.275 3.478-1.964 6.541-2.441 10.199-0.644 4.884-2.127 8.006-4.715 12.141-1.508 2.987-2.074 5.831-2.723 9.109-1.211 5.974-1.211 5.974-4 9.25-3.451 4.228-3.792 8.409-4.629 13.723-0.972 3.727-2.407 5.436-4.871 8.34-0.859 1.887-1.65 3.807-2.375 5.75-2.261 5.65-5.079 10.331-8.625 15.25-3.297 4.615-6.091 8.906-8.062 14.25-1.604 4.306-3.541 6.602-6.938 9.75-1.725 2.629-3.395 5.296-5 8-0.536 0.866-1.072 1.733-1.625 2.625-1.375 2.375-1.375 2.375-2.75 5.438-1.812 3.276-3.7 4.654-6.625 6.937-1.366 1.978-2.693 3.983-4 6-3.954 5.218-8.127 10.186-12.562 15-3.701 4.045-6.81 8.281-9.883 12.813-1.928 2.712-4.111 4.936-6.555 7.187-2.69 2.623-5.178 5.217-7.562 8.125-2.438 2.875-2.438 2.875-6.438 5.875h-2l-2 4c-4.854 4.962-10.254 9.273-15.871 13.336-2.686 2.099-5.136 4.402-7.629 6.727-4.287 3.965-8.502 6.956-13.5 9.937-1.353 1.313-2.689 2.645-4 4-1.987 1.353-3.987 2.686-6 4-0.825 0.681-1.65 1.361-2.5 2.063-2.697 2.089-5.454 3.414-8.5 4.937-1.675 1.323-3.341 2.657-5 4-2.667 1.667-5.333 3.333-8 5-0.866 0.701-1.733 1.402-2.625 2.125-2.64 2.085-5.372 3.373-8.375 4.875-0.743 0.639-1.485 1.279-2.25 1.937-3.27 2.453-6.537 3.629-10.34 5.063-2.41 1-2.41 1-5.41 3-2.675 1.783-4.898 2.811-7.875 3.937-3.449 1.31-6.009 2.62-9.187 4.626-4.311 2.668-8.118 3.954-12.938 5.437l-1 1c-5.578 0.446-8.96-0.732-14-3-2.806-0.742-5.617-1.422-8.449-2.059-2.551-0.941-2.551-0.941-4.508-2.914-2.534-2.514-4.628-3.071-8.043-4.027-4.59-1.285-6.695-2.643-10-6-2.621-1.09-2.621-1.09-5.438-1.937-4.742-1.6-7.139-3.363-10.562-7.063-2.639-1.387-5.31-2.714-8-4-6.381-3.561-12.206-7.558-18-12-2.846-1.96-5.722-3.831-8.676-5.625-0.973-0.598-1.946-1.196-2.949-1.812-0.92-0.556-1.841-1.112-2.789-1.684-2.586-1.879-2.586-1.879-4.547-4.414-2.414-2.918-4.664-3.79-8.039-5.465-2.35-2.017-4.638-4.108-6.875-6.25-1.244-1.179-2.489-2.358-3.734-3.535-1.119-1.061-2.238-2.122-3.391-3.215-5.559-5.051-11.362-9.807-17.168-14.57-2.754-2.363-5.295-4.838-7.832-7.43-1.134-1.093-2.269-2.186-3.438-3.313-2.905-2.899-5.297-5.993-7.703-9.324-2.435-3.095-5.105-5.925-7.797-8.8-4.037-4.322-7.862-8.661-11.417-13.383-1.853-2.456-3.775-4.848-5.707-7.243-7.67-9.575-14.467-19.52-20.938-29.937-0.57-0.879-1.14-1.758-1.727-2.664-3.445-5.322-6.473-10.639-9.273-16.336-0.34-0.505-0.34-0.505-2.062-3.063-1.938-2.937-1.938-2.937-3.438-6.5-1.5-3.437-1.5-3.437-3.438-5.75-2.485-3.238-3.635-6.485-5.058-10.285-1.004-2.402-1.004-2.402-3.066-5.277-1.971-3.178-2.578-5.446-3.376-9.062-0.914-4.078-1.551-6.047-4.062-9.5-3.083-4.394-3.651-8.256-4.691-13.454-0.894-3.436-2.515-5.766-4.555-8.64-2.502-4.927-3.133-10.554-4.215-15.934-0.918-4.008-2.078-7.506-3.664-11.285-2.249-5.466-3.101-10.503-3.777-16.352-0.974-6.352-2.762-12.461-4.477-18.648-1.652-6.263-2.347-12.334-2.84-18.789-0.127-1.632-0.255-3.264-0.386-4.945-0.199-2.579-0.396-5.157-0.593-7.736-0.191-2.502-0.387-5.004-0.583-7.507-0.114-1.491-0.228-2.981-0.346-4.518-0.373-3.755-0.373-3.755-1.373-7.755-2.11-15.814-2.39-30.898 0.549-46.583 0.432-2.317 0.81-4.644 1.185-6.972 1.888-10.927 1.888-10.927 6.266-14.445 2.658-1.35 5.325-2.683 8-4 0.402-0.33 0.402-0.33 2.438-2 2.893-2.258 5.927-3.515 9.296-4.926 2.266-1.074 2.266-1.074 5.891-3.699 3.375-2.375 3.375-2.375 6.75-3.312 3.426-1.005 5.259-2.047 8.125-4.063 3.763-2.647 7.056-3.765 11.5-5 1.072-0.804 2.145-1.609 3.25-2.437 3.449-2.358 5.321-3.124 9.25-4.063 5.12-1.23 8.211-3.415 12.5-6.5 2.93-1.12 5.889-2.043 8.887-2.965 3.026-1.006 5.802-2.22 8.675-3.598 4.497-2.128 8.884-3.487 13.735-4.566 2.703-0.871 2.703-0.871 5.992-2.84 4.144-2.268 7.704-3.088 12.336-3.968 5.653-1.164 10.858-2.474 16.187-4.688 5.271-2.171 10.107-3.086 15.743-3.785 3.789-0.649 7.182-1.789 10.82-3.027 9.753-3.034 19.612-3.767 29.761-4.574 6.537-0.525 12.501-1.372 18.864-2.989 5.028-0.691 10.071-1.167 15.125-1.625 1.446-0.131 2.892-0.262 4.382-0.397 21.08-1.767 42.499-2.036 63.493 0.897zm-107.63 24.125c-5.489 1.257-10.962 1.837-16.555 2.437-7.817 0.859-14.448 2.133-21.675 5.376-3.885 1.47-7.66 2.054-11.762 2.687-6.228 0.98-11.123 2.472-16.711 5.316-2.994 1.331-5.83 1.974-9.039 2.621-6.006 1.247-11.057 3.457-16.547 6.149-2.83 1.3-5.518 2.222-8.516 3.039-4.562 1.375-4.562 1.375-7.562 3.375-2.836 1.891-4.706 2.577-7.938 3.437-4.831 1.325-8.007 3.595-12.062 6.563-2.523 1.106-5.078 2.068-7.656 3.035-3.07 1.264-5.605 3.1-8.344 4.965-2.217 0.964-4.434 1.927-6.652 2.887-9.91 4.699-19.755 12.397-26.348 21.113-0.887 1.134-1.774 2.269-2.688 3.437-3.907 6.021-3.476 12.184-3.437 19.188 5e-3 0.922 0.01 1.844 0.015 2.795 0.024 2.86 0.064 5.72 0.11 8.58 0.013 0.861 0.025 1.722 0.038 2.609 0.247 12.947 2.155 24.788 4.962 37.391 1.712 7.707 2.571 15.276 3.123 23.145 0.52 6.321 1.888 11.826 3.877 17.855 2.034 6.186 3.367 12.058 4.375 18.5 1.012 6.078 2.387 10.662 5.434 15.965 1.999 4.254 2.57 8.821 3.445 13.414 0.884 3.7 2.555 6.04 4.746 9.121 0.527 1.799 1.001 3.614 1.438 5.437 0.949 3.859 1.66 5.697 4.062 9 2.456 3.5 3.07 5.368 3.938 9.438 1.152 5.267 2.98 8.841 6.148 13.164 1.803 2.5 3.038 5.209 4.414 7.961 0.32 0.382 0.32 0.382 1.938 2.313 2.225 2.899 3.514 5.882 4.941 9.23 3.261 7.147 7.696 13.331 12.594 19.43 1.892 2.511 3.149 5.208 4.527 8.027 1.621 2.037 3.296 4.031 5 6 1.972 2.438 3.925 4.891 5.879 7.344 1.418 1.776 2.843 3.547 4.273 5.312 0.693 0.856 1.385 1.712 2.098 2.594 0.624 0.768 1.248 1.537 1.891 2.328 1.859 2.422 1.859 2.422 3.722 5.348 2.387 3.434 5.059 6.117 8.075 9.011 4.212 4.126 7.717 8.197 11.062 13.063 1.626 1.382 3.293 2.719 5 4 2.643 2.511 5.002 5.002 7.25 7.875 2.859 3.249 5.841 5.555 9.289 8.133 2.722 2.203 5.094 4.597 7.523 7.117 3.997 4.089 7.989 6.968 12.938 9.875 4.134 2.985 8.059 6.037 11.625 9.687 2.847 2.773 5.907 4.393 9.375 6.313 0.825 0.701 1.65 1.402 2.5 2.125 2.5 1.875 2.5 1.875 6.188 2.875 1.093 0.33 2.186 0.66 3.312 1l2 4c2.312 1.563 2.312 1.563 5 3 2.67 1.575 5.259 3.178 7.812 4.937 3.188 2.063 3.188 2.063 7.376 4.126 3.812 1.937 3.812 1.937 6.812 4.937 1.567 0.433 3.135 0.866 4.75 1.313 5.268 1.461 8.189 3.989 12.25 7.687 2.612 1.684 5.268 3.251 7.961 4.801 2.039 1.199 2.039 1.199 3.039 2.199 7.174 0.797 10.703-0.604 16.656-4.555 2.344-1.445 2.344-1.445 5.969-2.445 3.826-1.134 6.316-3.096 9.414-5.559 2.767-2.033 5.795-3.131 8.961-4.441 3.385-1.916 6.69-3.957 10-6 0.875-0.516 1.751-1.031 2.652-1.563 2.348-1.437 2.348-1.437 4.786-3.437 2.562-2 2.562-2 5.624-3.5 2.938-1.5 2.938-1.5 4.813-3.437 2.958-2.872 6.449-4.225 10.125-6.063 2.029-1.631 4.033-3.295 6-5 0.846-0.495 1.691-0.99 2.562-1.5 2.438-1.5 2.438-1.5 4.876-3.937 2.686-2.687 5.4-4.455 8.562-6.563 6.742-5.243 13.131-10.844 19.406-16.633 2.386-2.177 4.819-4.278 7.282-6.367 1.093-0.99 2.186-1.98 3.312-3v-2l4-2c2.25-2 2.25-2 4-4v-2c0.759-0.29 1.519-0.58 2.301-0.879 3.082-1.28 3.991-2.364 5.887-5.058 2.758-3.739 5.669-7.202 8.812-10.626 0.851-0.928 1.702-1.856 2.578-2.812 1.465-1.587 2.932-3.172 4.406-4.75 3.827-4.199 6.666-8.524 9.493-13.445 1.47-2.345 3.031-4.269 4.898-6.305 4.519-4.938 7.998-10.518 11.625-16.125 1.08-1.627 2.164-3.252 3.25-4.875 0.908-1.361 1.815-2.723 2.75-4.125 0.361-0.536 0.361-0.536 2.188-3.25 2.527-3.835 4.744-7.61 6.75-11.75 1.792-3.476 3.645-5.979 6.062-9 1.367-2.649 2.699-5.317 4-8 0.681-1.114 1.361-2.227 2.062-3.375 1.633-3.054 2.538-5.461 3.438-8.75 0.867-3.147 1.367-4.717 3.5-7.25 2.253-2.957 2.655-4.959 3.438-8.562 0.89-4.022 1.279-5.745 4.062-8.876 3.447-4.395 3.749-8.686 4.531-14.14 0.835-3.487 1.726-5.655 3.399-8.738 3.041-5.79 4.107-11.593 5.195-17.996 2.02-11.526 2.02-11.526 3.926-15.75 2.221-5.461 2.478-11.038 3.011-16.876 0.25-2.51 0.5-5.02 0.75-7.531 0.23-2.385 0.459-4.771 0.688-7.156 0.342-3.439 0.698-6.876 1.062-10.313 0.136-1.336 0.271-2.673 0.411-4.05 0.534-3.686 1.504-7.061 2.527-10.637 1.405-10.498 1.155-21.303 1.25-31.875 0.011-0.665 0.011-0.665 0.065-4.033 0.043-12.686-2.602-22.747-10.503-32.905-3.292-2.561-6.476-3.782-10.41-5.097-2.402-1.09-2.402-1.09-4.336-3.086-2.551-2.474-4.664-3.052-8.066-4.004-4.583-1.283-6.702-2.642-10-6-2.437-0.897-4.836-1.429-7.367-1.996-2.633-1.004-2.633-1.004-5.457-3.441-3.648-2.944-6.613-3.894-11.114-5.126-5.593-1.543-10.077-3.479-15.062-6.437-1.423-0.474-2.846-0.949-4.312-1.437-3.464-1.155-6.105-2.244-9.25-3.938-5.675-2.948-11.63-4.674-17.743-6.496-3.695-1.129-3.695-1.129-7.945-2.816-3.203-1.122-5.8-1.663-9.125-2.126-5.322-0.779-10.015-2.337-15.063-4.187-7.756-2.705-14.858-3.748-23.022-4.313-5.129-0.378-9.71-1.112-14.602-2.687-19.392-6.086-40.938-4.313-61.046-4.261-4.435 0.012-8.87 5e-3 -13.305-7e-3 -44.923-0.099-44.923-0.099-64.22 5.268z"/>
<path transform="translate(1678.9 464.61)" d="m0 0c1.628-9e-3 3.257-0.019 4.935-0.029 1.778 6e-3 3.556 0.012 5.335 0.019 1.823-2e-3 3.646-5e-3 5.469-9e-3 3.82-4e-3 7.639 2e-3 11.459 0.016 4.896 0.017 9.792 7e-3 14.688-0.011 3.765-0.01 7.529-7e-3 11.293 1e-3 1.806 2e-3 3.611-1e-3 5.416-8e-3 2.523-7e-3 5.046 6e-3 7.569 0.021 0.718 1e-3 0.718 1e-3 4.351 7e-3 3.567 0.381 3.567 0.381 7.567 3.381 0.397 3.754 0.535 7.214 0.501 10.971 3e-3 0.572 3e-3 0.572 0.017 3.466 0.014 3.853-1e-3 7.706-0.016 11.559 4e-3 2.754 9e-3 5.509 0.016 8.263 0.014 7.495 3e-3 14.991-0.014 22.487-0.013 7.83-7e-3 15.66-3e-3 23.49 2e-3 13.152-0.011 26.303-0.034 39.455-0.024 13.539-0.031 27.079-0.021 40.619 0.013 16.304 0.01 32.608-6e-3 48.911-5e-3 6.233-5e-3 12.466-1e-3 18.699 5e-3 7.334-5e-3 14.669-0.026 22.003-6e-3 2.698-6e-3 5.397-2e-3 8.095 6e-3 3.671-6e-3 7.341-0.023 11.012 6e-3 1.078 0.012 2.157 0.018 3.268-0.063 7.36-0.063 7.36-3.406 10.702-8.484 1.783-17.752 1.147-26.383 1.133-0.668 0-0.668 0-4.047 3e-3 -2.805 1e-3 -5.61-1e-3 -8.415-5e-3 -4.274-6e-3 -8.549 0-12.823 6e-3 -2.738-1e-3 -5.477-2e-3 -8.215-4e-3 -0.633 1e-3 -0.633 1e-3 -3.839 6e-3 -19.189-0.05-19.189-0.05-23.278-4.139-0.298-3.712-0.408-7.256-0.388-10.97-2e-3 -0.572-2e-3 -0.572-0.016-3.466-0.014-3.854-7e-3 -7.707 0-11.56-6e-3 -2.754-0.013-5.508-0.021-8.262-0.018-7.496-0.017-14.992-0.011-22.487 3e-3 -6.248-3e-3 -12.496-9e-3 -18.744-0.015-15.577-0.011-31.154 1e-3 -46.731 0.01-13.539-3e-3 -27.078-0.027-40.616-0.024-13.892-0.034-27.783-0.027-41.674 3e-3 -7.803 1e-3 -15.606-0.017-23.409-0.015-7.335-0.011-14.669 8e-3 -22.004 3e-3 -2.698 0-5.396-0.01-8.094-0.013-3.671-2e-3 -7.341 0.016-11.012-0.01-1.079-0.019-2.158-0.029-3.269 0.029-2.968 0.029-2.968 0.53-7.702 4.676-3.507 6.211-3.379 11.918-3.388z"/>
</svg>
