<?xml version="1.0" encoding="UTF-8"?>
<svg version="1.1" viewBox="0 0 2904 1352" xmlns="http://www.w3.org/2000/svg">
<path transform="translate(161.24 768.87)" d="m0 0c0.759-1e-3 0.759-1e-3 4.599-8e-3 1.696 2e-3 3.392 4e-3 5.088 6e-3 1.802-1e-3 3.605-2e-3 5.407-5e-3 4.995-4e-3 9.989-2e-3 14.984 1e-3 5.438 1e-3 10.876-2e-3 16.315-6e-3 9.581-4e-3 19.163-5e-3 28.745-4e-3 14.344 2e-3 28.688-1e-3 43.033-6e-3 24.442-8e-3 48.884-0.011 73.326-0.011 24.783-1e-3 49.567-4e-3 74.35-9e-3 1.563 0 3.126-1e-3 4.736-1e-3 6.366-1e-3 12.731-3e-3 19.096-4e-3 70.05-0.015 140.1-0.022 210.15-0.026 0.443 0 0.443 0 2.685-1e-3h13.448c37.542-3e-3 75.084-7e-3 112.62-0.01l53.919-6e-3h2.709c43.02-5e-3 86.04-9e-3 129.06-0.012h2.781c58.491-5e-3 116.98-8e-3 175.47-9e-3 4.796-1e-3 9.592-1e-3 14.388-1e-3h23.068c0.477 0 0.477 0 2.888-1e-3h5.777c13.509 0 27.018 0 40.527-1e-3h14.501c91.311-3e-3 182.62-8e-3 273.93-0.024 0.961 0 1.923-1e-3 2.913-1e-3 30.042-5e-3 60.083-0.011 90.124-0.016 30.824-6e-3 61.648-0.012 92.471-0.017 0.475 0 0.475 0 2.876-1e-3 59.418-0.01 118.84-0.017 178.25-0.02h2.78c40.287-2e-3 80.574-3e-3 120.86-4e-3h48.62c2.687 0 5.374-1e-3 8.061-1e-3 41.125 0 82.25-3e-3 123.38-0.013 0.443 0 0.443 0 2.689-1e-3 14.278-3e-3 28.556-7e-3 42.834-0.01 58.459-0.015 116.92-0.021 175.38-0.013 7.944 2e-3 15.888 3e-3 23.833 3e-3 1.557 1e-3 3.114 1e-3 4.719 1e-3 24.723 3e-3 49.447-5e-3 74.17-0.016 24.273-0.011 48.546-0.012 72.819-1e-3 14.255 6e-3 28.51 4e-3 42.765-0.01 9.445-9e-3 18.89-6e-3 28.335 5e-3 5.368 6e-3 10.736 7e-3 16.105-5e-3 4.861-0.011 9.723-8e-3 14.584 6e-3 1.753 3e-3 3.505 1e-3 5.257-7e-3 2.364-0.011 4.728-1e-3 7.093 0.011 1.311 0 2.623-1e-3 3.975-1e-3 3.264 0.375 3.264 0.375 7.264 3.375 0.498 2.569 0.498 2.569 0.496 5.719 9e-3 1.2 0.017 2.399 0.027 3.635-0.011 1.324-0.022 2.648-0.033 4.013 2e-3 0.7 2e-3 0.7 0.013 4.247 9e-3 4.726-0.01 9.452-0.03 14.178-2e-3 3.376 3e-3 6.753 6e-3 10.13 6e-3 8.238-0.011 16.476-0.036 24.714-0.021 6.696-0.034 13.392-0.043 20.088-0.029 21.047-0.081 42.094-0.152 63.142-0.054 16.607-0.072 33.213-0.073 49.82-2e-3 17.046-0.03 34.091-0.085 51.136-0.03 9.572-0.05 19.144-0.043 28.717 7e-3 8.151-0.011 16.302-0.061 24.454-0.024 4.159-0.034 8.317-0.021 12.477 0.013 4.51-0.017 9.018-0.059 13.529 7e-3 0.656 7e-3 0.656 0.042 3.979-0.099 6.064-0.323 10.073-4.38 14.772-1.177 1.073-2.355 2.145-3.568 3.25l-2 2c-3.013 0.25-3.013 0.25-6.986 0.25-1.512 5e-3 -3.024 0.01-4.581 0.015-1.7-4e-3 -3.4-9e-3 -5.101-0.014-1.798 2e-3 -3.597 5e-3 -5.396 8e-3 -4.993 8e-3 -9.987 3e-3 -14.98-4e-3 -5.434-5e-3 -10.867 1e-3 -16.301 6e-3 -9.577 6e-3 -19.153 6e-3 -28.73 0-14.337-8e-3 -28.673-5e-3 -43.01 1e-3 -24.428 9e-3 -48.857 9e-3 -73.285 3e-3 -24.771-5e-3 -49.543-6e-3 -74.314-2e-3 -0.781 0-0.781 0-4.733 1e-3 -6.361 1e-3 -12.722 2e-3 -19.083 3e-3 -59.312 0.011-118.62 0.011-177.94 6e-3 -1.777 0-3.554-1e-3 -5.331-1e-3h-2.669c-11.614-1e-3 -23.227-2e-3 -34.841-3e-3h-2.689c-41.1-4e-3 -82.199-3e-3 -123.3-1e-3h-13.443c-13.505 1e-3 -27.011 1e-3 -40.516 2e-3 -41.186 2e-3 -82.373 3e-3 -123.56 4e-3h-2.779c-59.412 1e-3 -118.82-2e-3 -178.24-6e-3h-2.875c-31.78-3e-3 -63.561-5e-3 -95.342-8e-3 -96.112-7e-3 -192.22-0.011-363.87 1e-3 -31.773 2e-3 -63.545 5e-3 -95.318 7e-3h-2.874c-59.381 5e-3 -118.76 7e-3 -178.14 6e-3h-2.778c-41.163-1e-3 -82.326-2e-3 -123.49-4e-3 -13.5-1e-3 -27-1e-3 -40.499-2e-3 -4.478 0-8.957 0-13.435-1e-3 -41.101-1e-3 -82.203-2e-3 -123.3 2e-3h-2.688l-34.821 3e-3h-2.667c-1.775 1e-3 -3.551 1e-3 -5.326 1e-3 -60.023 6e-3 -120.04 4e-3 -180.07-7e-3 -6.341-1e-3 -12.682-2e-3 -19.024-3e-3 -1.556 0-3.112-1e-3 -4.716-1e-3 -24.712-4e-3 -49.424-1e-3 -74.136 4e-3 -24.258 6e-3 -48.517 4e-3 -72.775-6e-3 -14.249-5e-3 -28.498-5e-3 -42.746 3e-3 -9.438 5e-3 -18.877 3e-3 -28.315-5e-3 -5.366-5e-3 -10.732-6e-3 -16.098 1e-3 -4.858 7e-3 -9.715 5e-3 -14.572-5e-3 -1.753-2e-3 -3.506-1e-3 -5.259 4e-3 -2.36 7e-3 -4.72 0-7.081-8e-3h-3.973c-3.012-0.25-3.012-0.25-5.012-2.25-0.251-2.503-0.251-2.503-0.252-5.738-5e-3 -1.229-0.01-2.458-0.016-3.724 5e-3 -1.362 9e-3 -2.725 0.014-4.128-3e-3 -1.438-6e-3 -2.876-0.01-4.357-6e-3 -4.005-4e-3 -8.01 2e-3 -12.015 5e-3 -4.313-2e-3 -8.627-8e-3 -12.941-9e-3 -8.456-7e-3 -16.912-1e-3 -25.368 5e-3 -6.869 5e-3 -13.739 3e-3 -20.609 0-0.976 0-1.952-1e-3 -2.958 0-1.982-1e-3 -3.965-2e-3 -5.947-5e-3 -18.611 1e-3 -37.221 0.012-55.832 9e-3 -15.983 7e-3 -31.967-2e-3 -47.951-0.011-18.542-0.015-37.084-9e-3 -55.625 1e-3 -1.976 2e-3 -3.951 2e-3 -5.927 0-0.972 1e-3 -1.944 1e-3 -2.946 2e-3 -6.865-1e-3 -13.73-6e-3 -20.595-5e-3 -8.361-4e-3 -16.722 7e-3 -25.083 5e-3 -4.269 7e-3 -8.539 0-12.808-5e-3 -4.619 2e-3 -9.238 0.012-13.858-5e-3 -1.362-9e-3 -2.724-0.014-4.128 5e-3 -1.229 0.011-2.458 0.016-3.724 0-1.068 1e-3 -2.135 1e-3 -3.235 0.251-2.503 0.251-2.503 2.251-4.503 3.986-0.997 7.142-1.125 11.239-1.126zm453.76 32.126c-3.809 7.618-0.414 19.351 2 27 0.499 0.936 0.998 1.872 1.511 2.836 1.859 3.951 2.37 7.597 2.989 11.914 1.283 8.266 2.735 15.721 6.5 23.25 0.537 2.865 1.008 5.742 1.437 8.625 1.32 8.294 2.785 15.819 6.563 23.375 0.515 2.803 0.965 5.618 1.375 8.438 1.057 6.69 2.522 12.868 4.652 19.281 1.508 5.087 2.335 10.277 3.262 15.496 1.137 6.053 2.765 11.901 4.683 17.75 2.022 6.219 3.48 12.26 4.528 18.723 0.769 4.699 1.526 8.912 3.5 13.25 1.99 4.429 2.667 8.7 3.375 13.5 1.143 7.596 3.061 14.485 5.501 21.727 1.918 5.818 2.875 11.367 3.569 17.429 0.844 5.181 2.574 9.979 4.328 14.914 1.062 3.022 1.955 6.027 2.789 9.117 1.601 4.872 3.186 8.121 7.758 10.668 8.921 2.845 17.83 3.486 27.126 4.024 6.196 0.364 12.135 1.02 18.216 2.289 3.374 0.569 6.058 0.331 9.338-0.606 2.869-2.265 3.839-3.517 5-7 1.238-19.693 0.051-39.721-5.254-58.769-1.028-4.452-1.587-8.956-2.184-13.481-1.023-7.719-2.568-15.063-4.597-22.59-1.134-4.886-1.778-9.751-2.403-14.722-0.791-6.232-1.84-11.835-4.062-17.75-2.427-6.559-3.271-12.844-4-19.75-0.856-8.078-2.24-14.984-5.317-22.551-1.387-3.969-2.005-7.791-2.621-11.949-1.163-7.82-3.087-15.118-5.366-22.662-1.681-5.664-2.894-11.241-3.821-17.088-0.955-5.987-2.55-10.303-5.375-15.688-0.408-2.182-0.779-4.37-1.125-6.562-2.159-11.067-8.902-20.714-17.875-27.438-2.064-1.315-4.17-2.567-6.313-3.75-1.048-0.593-2.096-1.186-3.176-1.797-8.965-3.71-19.52-2.671-29.096-2.693-2.607-0.01-5.213-0.041-7.82-0.072-1.671-7e-3 -3.342-0.012-5.013-0.016-1.503-9e-3 -3.007-0.019-4.556-0.028-4.119 0.364-6.557 1.153-10.026 3.356zm175 2c-7.434 7.889-13.23 17.536-17.5 27.5-1.5 3.5-1.5 3.5-4 7.813-2.253 3.955-3.499 7.781-4.688 12.156-0.859 2.678-1.993 4.987-3.312 7.469-2.268 4.313-3.57 8.479-4.629 13.226-0.871 2.836-0.871 2.836-2.836 6.508-2.354 5.007-3.207 9.528-4.035 14.953-1.269 7.648-2.819 14.998-5.168 22.402-8.704 31.096-4.419 74.867 4.496 105.48 0.646 2.4 1.07 4.857 1.484 7.309 1.576 8.237 4.395 17.092 11.188 22.187 2.656 0.363 2.656 0.363 5.5 0.313 0.938-4e-3 1.877-8e-3 2.844-0.012 2.656-0.301 2.656-0.301 6.656-2.301 1.308-2.066 1.308-2.066 2.437-4.562 1.595-3.421 3.261-6.693 5.188-9.938 2.19-3.861 3.453-7.642 4.504-11.945 0.871-2.555 0.871-2.555 2.871-5.817 2.276-4.254 2.835-7.654 3.437-12.425 0.817-5.511 1.698-10.266 4.063-15.313 2.301-4.93 3.17-9.49 3.937-14.875 1.079-7.372 3.062-13.365 6.223-20.082 1.34-3.043 1.34-3.043 2.34-7.793 1.073-4.563 2.71-7.516 5.219-11.414 2.852-4.541 5.318-9.302 7.851-14.027 1.93-2.809 1.93-2.809 5.93-3.809 0.182 0.941 0.363 1.882 0.551 2.852 0.251 1.245 0.502 2.49 0.761 3.773 0.244 1.23 0.488 2.46 0.739 3.727 0.949 3.648 0.949 3.648 2.433 6.554 2.558 5.222 3.246 10.911 4.356 16.586 1.186 4.608 3.019 8.278 5.16 12.508 0.836 3.5 0.836 3.5 1.375 7 1.29 7.124 3.557 13.485 6.211 20.203 1.614 4.335 2.68 8.655 3.703 13.156 0.86 3.197 2.315 6.009 3.75 8.981 1.294 3.583 1.764 7.146 2.336 10.91 1.1 6.936 3.054 12.233 6.222 18.445 1.594 3.756 2.218 7.215 2.84 11.243 1.553 9.554 4.622 19.107 12.563 25.062 12.174 3.527 24.987 3.708 37.562 4.188 1.892 0.081 3.783 0.164 5.674 0.248 22.673 0.976 22.673 0.976 27.764-3.436 2.869-3.898 4.034-5.942 3.875-10.812-0.875-3.188-0.875-3.188-2.875-5.188-0.706-2.043-1.342-4.11-1.938-6.187-1.02-3.55-2.09-6.876-3.574-10.262-1.553-3.706-2.476-7.26-3.363-11.176-1.528-6.358-3.519-12.243-5.973-18.293-1.134-3.032-1.928-5.992-2.652-9.144-1.221-5.278-3.14-9.975-5.309-14.926-1.578-3.99-2.487-8.037-3.445-12.211-0.746-2.801-0.746-2.801-2.746-7.301-1.621-3.646-2.573-6.602-3.438-10.437-0.943-4.089-2.14-7.492-4.125-11.188-2.116-3.952-2.993-7.469-3.715-11.918-1.342-5.493-3.841-10.585-6.054-15.773-1.763-4.422-2.9-8.72-3.926-13.352-1.093-4.17-2.825-8.004-4.551-11.945-1.119-2.713-1.971-5.374-2.754-8.199-1.437-4.688-1.437-4.688-3.406-7.993-2.134-3.881-3.049-7.19-3.969-11.507-1.366-5.866-3.075-10.709-5.976-15.957-1.086-2.231-1.086-2.231-2.086-6.856-1-4.375-1-4.375-3.438-8.187-2.289-3.742-2.996-5.574-3.812-9.688-2.057-8.922-5.936-19.339-13.832-24.523-3.168-1.289-3.168-1.289-6.121-2.153-2.975-0.876-5.161-2.217-7.797-3.824-4.315-1.079-7.94-1.129-12.387-1.133-0.816-1e-3 -1.633-2e-3 -2.474-3e-3 -1.727 0-3.455 2e-3 -5.182 6e-3 -2.618 5e-3 -5.236 0-7.854-7e-3 -1.684 1e-3 -3.368 2e-3 -5.052 4e-3 -1.52 1e-3 -3.039 3e-3 -4.605 4e-3 -13.849 0.403-13.849 0.403-19.446 5.129zm169 9c-5.196 7.145-8.961 14.199-11.254 22.684-0.746 2.316-0.746 2.316-2.746 5.504-2.57 4.898-3.187 9.655-4.153 15.07-0.767 3.39-1.722 5.831-3.347 8.867-3.679 7.468-4.097 15.727-5.097 23.882-0.565 4.195-1.305 8.354-2.036 12.523-3.513 20.392-1.789 37.939 2.026 58.172 0.509 2.766 0.974 5.529 1.396 8.31 1.622 10.445 4.663 20.046 8.211 29.988 0.475 1.436 0.951 2.872 1.441 4.352 8.62 25.694 8.62 25.694 16.559 31.648 4.736 0.474 7.951 0.475 12.312-1.5 4.543-4.225 6.254-9.2 8.188-15 1.5-4.5 1.5-4.5 3.5-8.312 2.108-4.415 3.133-8.529 4.222-13.27 0.871-3.268 2.279-6.136 3.743-9.176 2.005-5.313 2.873-10.968 4.031-16.515 0.782-3.294 1.554-5.873 3.066-8.852 1.857-4.192 2.612-7.572 3.375-12.062 0.915-5.371 2.115-10.226 4.063-15.313 2.336-6.15 3.525-12.129 4.621-18.601 1.009-5.05 2.404-9.907 3.879-14.836 2.337-7.817 4.032-15.509 5.164-23.606 0.691-3.27 1.52-5.721 2.828-8.746 2.264-5.412 2.936-10.594 3.508-16.398 0.923-8.157 2.279-15.865 4.633-23.754 1.49-5.258 2.022-10.227 2.054-15.684 0.014-1.106 0.029-2.212 0.043-3.351-0.23-3.024-0.23-3.024-2.23-7.024-10.037-5.018-24.393-3.147-35.438-3.25-0.645-0.011-0.645-0.011-3.913-0.065-14.03-0.049-23.118 3.725-32.649 14.315zm321.56-10.062c-4.506 5.947-2.827 14.896-2.857 22.049-0.018 2.805-0.061 5.609-0.106 8.413-0.01 1.79-0.018 3.58-0.025 5.37-0.015 1.625-0.029 3.25-0.044 4.925 0.509 4.668 1.475 6.751 4.47 10.305 4.332 3.227 8.361 4.371 13.562 5.438 5.473 1.149 8.341 2.656 12.438 6.562 1.258 0.619 2.516 1.238 3.812 1.875 7.431 3.771 13.054 8.565 18.188 15.125 2.558 2.689 4.997 4.998 8 7.188 3.437 3.222 4.94 6.247 6.824 10.507 1.176 2.305 1.176 2.305 4.176 5.305 0.808 2.27 0.808 2.27 1.437 4.813 0.903 3.311 1.535 5.15 3.625 7.937 5.433 9.113 4.225 22.143 4.125 32.438 0 0.637 0 0.637-2e-3 3.865-0.086 18.587-3.306 32.63-16.185 46.947-0.784 0.887-1.568 1.774-2.375 2.688-5.002 4.406-10.607 7.801-16.438 11-4.187 2.312-4.187 2.312-8.187 5.312-3.129 0.812-3.129 0.812-6.778 1.43-1.318 0.238-2.636 0.477-3.994 0.722-2.772 0.481-5.545 0.955-8.32 1.422-0.66 0.121-0.66 0.121-3.998 0.731-1.205 0.206-2.41 0.412-3.652 0.624-3.9 1.282-5.647 2.946-8.258 6.071-3.025 6.639-2.215 13.649-2.062 20.794 0.046 2.391 0.079 4.783 0.104 7.174 0.049 4.428 0.126 8.855 0.208 13.282 0.014 1.452 0.028 2.904 0.042 4.4 0.032 1.379 0.065 2.758 0.098 4.178 0.011 0.618 0.011 0.618 0.064 3.747 0.645 4.049 1.995 6.249 4.546 9.425 8.822 4.852 21.232 1.674 30.5-0.375 2.093-0.447 4.187-0.893 6.281-1.336 1.025-0.22 2.05-0.44 3.106-0.666 3.142-0.629 6.285-1.127 9.453-1.607 4.587-0.744 8.491-1.906 12.722-3.891 4.274-1.945 8.495-3.731 12.938-5.25 4.148-1.459 7.369-3.374 11-5.875 1.299-0.454 2.599-0.907 3.937-1.375 4.621-1.848 7.395-4.297 11.063-7.625 2-1.333 4-2.667 6-4 3.349-2.761 6.555-5.556 9.625-8.625 2.375-2.375 2.375-2.375 4.812-4.187 2.765-2.361 4.722-4.989 6.832-7.934 1.908-2.484 4.002-4.68 6.168-6.941 5.066-5.526 8.211-11.661 11.563-18.313 0.742-1.217 1.485-2.434 2.25-3.687 1.889-3.577 2.842-6.986 3.902-10.868 0.848-2.445 0.848-2.445 3.348-6.007 4.2-6.238 4.388-14.178 5.5-21.438 0.524-2.795 1.064-5.587 1.625-8.375 0.24-1.204 0.479-2.408 0.726-3.648 0.649-2.977 0.649-2.977 1.649-5.977 0.896-16.119-0.528-30.825-4.389-46.475-0.795-3.282-1.441-6.591-2.111-9.9-1.353-5.719-3.69-10.496-6.5-15.625-0.986-1.976-1.965-3.955-2.938-5.937-8.306-16.55-8.306-16.55-14.062-23.063-0.619-0.949-1.238-1.897-1.875-2.875-4.23-6.22-8.799-11.139-14.973-15.5-2.471-1.866-4.654-3.933-6.902-6.062-4.473-4.107-9.158-7.075-14.489-9.957-2.761-1.606-2.761-1.606-5.128-3.649-3.331-2.476-6.459-3.334-10.446-4.457-4.292-1.216-8.069-2.439-12.039-4.492-4.839-2.342-9.483-3.499-14.711-4.633-1.814-0.407-3.628-0.816-5.441-1.226-0.429-0.096-0.429-0.096-2.598-0.582-2.099-0.496-4.177-1.079-6.25-1.676-11.296-3.196-32.971-5.596-42.586 2.047zm359.44 1.062c-2.386 6.072-2.307 11.987-2.301 18.41-4e-3 1.086-9e-3 2.172-0.013 3.29-6e-3 2.287-6e-3 4.574-2e-3 6.861 3e-3 3.494-0.02 6.986-0.046 10.48-2e-3 2.227-3e-3 4.455-2e-3 6.682-9e-3 1.041-0.018 2.081-0.027 3.154 0.034 5.423 0.187 9.519 3.391 14.123 5.975 4.481 10.659 4.153 17.875 4.125 0.994 4e-3 1.988 8e-3 3.011 0.012 0.482-1e-3 0.482-1e-3 2.918-4e-3 0.877-1e-3 1.753-2e-3 2.656-4e-3 2.609-0.132 4.983-0.606 7.54-1.129 23.701-2.454 54.063-5.097 76 6 2.832 2.606 2.832 2.606 5 5l1 1c0.681 7.708 0.694 13.577-4 20-1.003 1.54-2.003 3.081-3 4.625-5.996 8.873-5.996 8.873-9 10.375-2.288 0.116-4.58 0.167-6.871 0.19-0.726 8e-3 -0.726 8e-3 -4.405 0.05-0.793 7e-3 -0.793 7e-3 -4.806 0.041-2.499 0.028-4.998 0.057-7.497 0.085-4.411 0.049-8.822 0.091-13.234 0.134-58.343 0.578-58.343 0.578-64.187 3.5-2.342 4.684-2.306 8.451-2.301 13.551-4e-3 0.932-9e-3 1.864-0.013 2.825-6e-3 1.971-6e-3 3.942-2e-3 5.913 3e-3 3.002-0.02 6.004-0.046 9.006-2e-3 1.919-3e-3 3.837-2e-3 5.756-9e-3 0.892-0.018 1.784-0.027 2.703 0.039 5.421 0.753 9.488 3.391 14.246 3.901 2.601 6.379 2.213 11 2l4-1c6.346-0.255 12.046 0.358 18.25 1.688 1.531 0.313 3.063 0.626 4.64 0.949 4.439 1.472 6.109 2.871 9.11 6.363 1.533 1.363 3.075 2.718 4.625 4.063 8.088 7.278 15.864 14.579 20.34 24.636 1.985 4.412 4.722 8.407 7.472 12.375 4.833 7.01 8.442 14.474 12.098 22.149 2.699 5.571 5.399 10.07 9.465 14.777 0.557 1.238 1.114 2.475 1.687 3.75 5.118 9.406 12.149 15.224 22.313 18.25 0.933 0.369 1.866 0.737 2.828 1.117 19.598 7 44.846 3.294 65.086 0.305 3.086-0.422 3.086-0.422 7.273-0.234 3.813-0.188 3.813-0.188 6.313-1.813 2.071-3.28 2.297-4.533 1.5-8.375-1.578-2.336-3.315-4.465-5.121-6.629-2.814-3.551-4.761-7.369-6.879-11.371-2.266-3.84-4.605-7.637-6.938-11.437-0.669-1.092-1.338-2.184-2.027-3.309-2.852-4.559-5.808-8.951-9.035-13.254-0.95-2.193-1.899-4.387-2.844-6.582-1.545-3.231-3.477-6.081-5.508-9.023-4.311-6.262-8.249-12.597-11.648-19.395-1.323-1.675-2.657-3.341-4-5-0.846-1.361-1.691-2.722-2.563-4.125-2.437-3.875-2.437-3.875-5.437-6.875-0.813-4-0.813-4-1-8 2.778-4.168 5.409-4.198 10.187-5.562 14.812-4.605 29.676-14.041 37.715-27.661 1.007-2.026 1.973-4.074 2.879-6.148 1.219-2.629 1.219-2.629 4.219-6.629 4.452-14.863 4.63-30.718 3-46-0.087-0.919-0.174-1.838-0.263-2.785-1.84-18.885-1.84-18.885-7.237-26.18-1.5-2.035-1.5-2.035-2.883-4.941-1.787-3.419-3.86-5.844-6.492-8.656-0.843-0.909-1.686-1.818-2.555-2.754-9.298-9.708-19.467-17.16-32.383-21.309-4.187-1.375-4.187-1.375-6.457-2.867-3.502-1.934-6.656-2.39-10.605-3.008-5.729-0.938-11.433-1.918-17.125-3.062-1.23-0.247-2.46-0.493-3.727-0.747-2.564-0.541-5.11-1.163-7.648-1.816-12.814-2.424-26.192-2.033-39.192-2.043-1.599-3e-3 -3.199-7e-3 -4.847-0.01-3.348-5e-3 -6.697-8e-3 -10.045-7e-3 -4.274 0-8.547-0.014-12.82-0.031-4.117-0.014-8.233-0.013-12.35-0.014-1.524-8e-3 -3.048-0.015-4.618-0.022-17.539 0.038-17.539 0.038-22.753 5.252zm319 2c-1.32 0.536-2.64 1.073-4 1.625-5.319 3.158-6.937 6.646-9 12.375-0.642 3.674-0.674 7.234-0.628 10.957-8e-3 1.058-0.015 2.116-0.022 3.206-0.017 3.52 1e-3 7.04 0.019 10.561-5e-3 2.533-0.013 5.067-0.022 7.6-0.019 6.864-6e-3 13.727 0.014 20.59 0.016 7.186 8e-3 14.371 3e-3 21.556-5e-3 12.062 0.011 24.123 0.039 36.184 0.032 13.948 0.032 27.896 0.015 41.843-0.016 13.42-0.01 26.84 8e-3 40.26 6e-3 5.711 5e-3 11.423-2e-3 17.134-8e-3 6.721 4e-3 13.441 0.032 20.162 7e-3 2.468 7e-3 4.936 0 7.404-9e-3 3.365 7e-3 6.729 0.029 10.094-8e-3 0.98-0.016 1.959-0.025 2.969 0.07 5.692 0.806 9.126 4.54 13.48 3.95 3.167 7.109 3.386 12.097 3.42 1.425 0.016 2.85 0.032 4.319 0.048 0.766 0 0.766 0 4.646 1e-3 0.79 4e-3 0.79 4e-3 4.786 0.023 3.339 0.011 6.677 0.015 10.016 9e-3 4.274-6e-3 8.547 0.025 12.821 0.065 4.084 0.032 8.168 0.028 12.252 0.028 0.767 8e-3 0.767 8e-3 4.647 0.05 1.425-0.01 2.85-0.019 4.318-0.029 0.627 1e-3 0.627 1e-3 3.797 7e-3 4.274-0.805 5.672-2.203 8.301-5.622 2.358-5.334 2.283-10.583 2.26-16.31 4e-3 -1.037 8e-3 -2.074 0.012-3.142 0.01-3.473 6e-3 -6.946 2e-3 -10.419 5e-3 -2.49 0.01-4.98 0.016-7.471 0.013-6.764 0.014-13.528 0.011-20.293-1e-3 -5.646 4e-3 -11.292 9e-3 -16.938 0.011-13.321 0.011-26.641 5e-3 -39.961-6e-3 -13.743 7e-3 -27.486 0.028-41.229 0.018-11.798 0.024-23.596 0.02-35.394-1e-3 -7.047 1e-3 -14.094 0.015-21.141 0.013-6.627 0.011-13.254-2e-3 -19.881-3e-3 -2.431 0-4.863 8e-3 -7.295 0.011-3.32 3e-3 -6.641-0.01-9.961 4e-3 -0.481 4e-3 -0.481 0.022-2.912-0.055-6.937-1.431-12.403-5.021-18.34-2.798-2.724-5.685-4.322-9.133-6.114-2.242-1.199-2.242-1.199-5.492-3.449-7.039-4.479-16.478-2.973-24.5-3-0.762-0.01-0.762-0.01-4.617-0.062-10.568-0.037-18.336 0.292-26.633 7.312zm200.75-2.562c-0.828 0.444-1.655 0.889-2.508 1.347-0.74 0.401-1.48 0.802-2.242 1.215-0.516 0.227-0.516 0.227-3.125 1.375-3.335 1.885-5.909 4.169-8.739 6.734-2.146 1.9-4.359 3.651-6.636 5.391-3.681 2.826-7.189 5.793-10.656 8.875-1.647 1.452-3.337 2.854-5.032 4.25-3.593 3.034-6.861 6.107-9.687 9.875-2.666 3.137-5.762 5.14-9.125 7.5-2.874 2.664-5.299 5.374-7.75 8.438-2.619 2.87-4.27 4.353-7.438 6.312-9.133 5.787-16.083 14.323-22.765 22.699-1.797 2.24-3.641 4.405-5.547 6.551-0.549 0.629-1.099 1.258-1.664 1.906-1.399 1.595-2.813 3.176-4.235 4.75-0.817 0.939-1.634 1.877-2.476 2.844-0.761 0.856-1.521 1.712-2.305 2.594-4.083 6.518-3.003 15.232-3.008 22.719-0.012 1.016-0.024 2.032-0.037 3.08-0.02 10.778 0.981 19.24 7.037 28.42 0.426 0.658 0.426 0.658 2.582 3.988 2.39 3.393 4.904 6.552 7.606 9.699 0.66 0.846 1.32 1.691 2 2.563 2.844 3.465 6.014 6.531 9.312 9.562 2.392 2.559 4.302 5.082 6.313 7.938 7.34 10.238 16.31 19.033 25.336 27.774 3.255 3.192 5.796 6.207 8.039 10.163 2.297 2.042 4.632 4.041 7 6 2.5 2.384 4.769 4.7 6.875 7.438 2.718 3.278 5.87 5.822 9.125 8.562 2.479 2.364 4.735 4.652 6.812 7.375 2.377 2.853 5.025 5.199 7.856 7.594 1.691 1.473 3.334 3.002 4.945 4.562 5.864 5.64 10.66 9.071 18.387 11.469 0.985 0.338 1.971 0.675 2.987 1.023 9.338 2.995 17.817 3.494 27.575 3.29 1.421-0.01 2.843-0.02 4.307-0.03 5.525-0.06 10.721-0.141 16.131-1.283 2.096-0.208 4.196-0.384 6.297-0.535 1.206-0.087 2.413-0.174 3.656-0.264 1.253-0.087 2.506-0.174 3.797-0.263 1.237-0.091 2.475-0.182 3.75-0.276 5.248-0.371 10.437-0.714 15.699-0.599 3.801-0.063 3.801-0.063 6.863-2 2.696-4.262 2.481-7.103 1.938-12.063-1.856-4.379-4.15-7.589-7.375-11.062-0.799-0.863-1.599-1.725-2.422-2.614-3.444-3.633-6.865-7.04-10.703-10.261-3.242-2.837-5.8-5.723-8.5-9.063-2.556-2.687-5.12-5.097-8-7.437-3.079-2.63-5.451-5.425-8-8.563-2.556-2.687-5.12-5.097-8-7.437-3.079-2.63-5.451-5.425-8-8.563-2.714-2.857-5.506-5.433-8.5-8-3.778-3.238-7.223-6.686-10.688-10.25-5.171-5.056-10.56-9.88-16.125-14.5-3.543-2.966-6.742-6.021-9.562-9.687-2.125-2.563-2.125-2.563-5.438-5.313-3.586-3.161-6.21-6.34-9.054-10.141-2.008-2.593-4.285-4.825-6.633-7.109-4.358-5.81-5.757-9.647-5-17 5.315-11.628 14.189-20.573 23.5-29.125 0.918-0.848 1.835-1.696 2.781-2.57 2.479-2.102 4.917-3.681 7.719-5.305 2.863-2.713 5.54-5.571 8.25-8.437 3.176-3.184 6.566-5.547 10.347-7.957 4.357-2.912 8.35-6.291 12.403-9.606 2.49-2.001 4.988-3.991 7.5-5.965 7.003-5.526 7.003-5.526 10-8.597 2.294-2.238 4.466-3.8 7.125-5.563 10.134-6.967 19.824-16.773 25.375-27.875 0.58-9.059 0.58-9.059-1.403-12.273-3.935-2.616-7.892-2.412-12.472-2.477-0.523-0.014-0.523-0.014-3.166-0.083-3.987-0.087-7.972-0.129-11.959-0.167-0.88-0.01-1.76-0.02-2.667-0.03-6.055-0.068-12.109-0.116-18.164-0.143-2.059-0.01-4.119-0.022-6.178-0.036-2.944-0.018-5.887-0.022-8.831-0.021-0.875-8e-3 -1.751-0.015-2.653-0.022-7.876 0.028-15.746 0.862-22.757 4.69zm-951.04 0.562c-3.399 1.256-6.765 1.817-10.332 2.438-4.518 0.835-8.18 1.693-12.125 4.062-3.642 2.142-5.836 3.018-9.813 3.938-5.702 1.397-8.878 3.9-13.437 7.562-2.659 1.349-5.325 2.684-8 4-1.683 1.313-3.35 2.646-5 4-1.155 0.639-2.31 1.279-3.5 1.938-4.814 2.836-7.863 6.303-11.438 10.562-3.062 3.5-3.062 3.5-5.941 5.766-3.469 3.039-5.633 6.109-8.121 9.984-0.429 0.665-0.429 0.665-2.602 4.027-0.791 1.229-1.583 2.457-2.398 3.723-1.122 1.606-2.246 3.211-3.375 4.813-2.457 3.918-4.096 7.547-5.692 11.851-0.933 2.336-0.933 2.336-2.996 5.836-2.019 3.648-3.062 7-4.152 10.996-0.785 2.504-0.785 2.504-2.848 6.442-6.658 14.795-4.248 34.962-3.986 50.81 0.039 2.579 0.042 5.158 0.033 7.736 0.234 10.519 3.707 20.116 7.136 29.962 0.865 2.512 1.676 5.039 2.485 7.57 1.395 3.984 1.395 3.984 3.332 6.359 2.144 2.729 2.91 4.797 4 8.063 1.627 4.759 3.606 7.846 7.063 11.562 1.333 2 2.666 4 4 6 1.658 2.007 3.325 4.007 5 6 0.454 0.629 0.454 0.629 2.75 3.813 5.719 7.655 12.1 13.297 20.25 18.187 1.686 1.647 3.355 3.312 5 5 1.975 1.37 3.974 2.707 6 4l4 3c2.435 0.796 4.874 1.375 7.367 1.961 2.633 1.039 2.633 1.039 5.449 3.477 3.677 2.959 6.716 3.934 11.246 5.187 7.539 2.109 7.539 2.109 10.227 3.899 4.38 2.385 9.13 2.753 14.023 3.476 2.178 0.337 4.355 0.675 6.532 1.016 1.058 0.164 2.116 0.328 3.207 0.498 3.781 0.623 7.515 1.429 11.261 2.236 8.684 1.639 17.914 2.526 26.688 1.25 6.942-5.598 8.521-12.049 9.64-20.578 1.221-11.622 0.461-23.249-6.574-33.141-7.532-8.315-15.407-12.777-26.066-16.281-2.683-1.301-5.351-2.633-8-4-1.196-0.495-2.393-0.99-3.625-1.5-3.431-1.525-6.258-3.421-9.375-5.5-1.176-0.474-2.351-0.949-3.563-1.437-8.834-4.016-15.012-13.776-18.437-22.563-0.968-1.79-1.939-3.579-2.91-5.367-3.348-6.665-4.797-13.118-5.965-20.445-0.206-1.235-0.411-2.47-0.623-3.742-3.1-19.531-2.648-41.462 8.498-58.446 0.576-1.257 1.152-2.514 1.746-3.809 9.647-17.94 30.207-29.712 48.703-36.226 2.551-0.965 2.551-0.965 6.551-2.965 3.06-0.785 6.135-1.453 9.222-2.121 2.778-0.879 2.778-0.879 5.778-3.879 1.881-3.763 1.163-8.4 1.168-12.555 3e-3 -1.053 6e-3 -2.106 0.01-3.191 5e-3 -2.231 7e-3 -4.462 7e-3 -6.693 2e-3 -3.415 0.02-6.83 0.039-10.245 3e-3 -2.165 5e-3 -4.33 6e-3 -6.496 4e-3 -0.511 4e-3 -0.511 0.022-3.1-0.015-4.637-0.146-7.508-2.252-11.72-4.568-2.825-9.868-2.302-15.063-2.25-0.967 7e-3 -1.934 0.014-2.931 0.021-25.939 0.363-25.939 0.363-37.299 5.229zm334.78-2.195c-3.322 4.899-2.636 10.193-2.635 15.88-4e-3 1.113-8e-3 2.226-0.012 3.373-0.011 3.749-0.014 7.499-0.018 11.248-6e-3 2.68-0.013 5.361-0.02 8.041-0.018 7.295-0.028 14.591-0.036 21.886-5e-3 4.555-0.012 9.109-0.018 13.664-0.019 14.24-0.033 28.48-0.041 42.72-0.01 16.457-0.037 32.913-0.077 49.37-0.03 12.708-0.045 25.416-0.048 38.125-3e-3 7.595-0.012 15.191-0.037 22.787-0.023 7.143-0.027 14.286-0.017 21.43 1e-3 2.624-6e-3 5.248-0.02 7.873-0.017 3.578-0.01 7.155 3e-3 10.733-0.011 1.042-0.022 2.085-0.033 3.159 0.052 5.795 0.515 9.371 4.521 13.906 2.844 1.422 5.264 1.13 8.441 1.133 0.653 1e-3 0.653 1e-3 3.959 4e-3 1.374-4e-3 2.747-8e-3 4.162-0.012 1.347 4e-3 2.693 8e-3 4.08 0.012 6.879-7e-3 13.521-0.322 20.358-1.137 2.813 5e-3 5.626 0.046 8.437 0.125 8.985 0.047 16.806-0.562 23.563-7.125 0.433-0.402 0.433-0.402 2.625-2.437 3.949-4.262 5.751-7.368 5.742-13.231 6e-3 -1.134 0.011-2.268 0.017-3.436-4e-3 -0.62-4e-3 -0.62-0.028-3.754 2e-3 -1.316 4e-3 -2.632 6e-3 -3.989 3e-3 -4.397-0.015-8.794-0.034-13.192-3e-3 -3.111-4e-3 -6.223-4e-3 -9.334-4e-3 -7.493-0.023-14.986-0.049-22.48-0.02-6.031-0.036-12.061-0.047-18.092-0.036-18.893-0.093-37.786-0.171-56.679-0.043-10.364-0.077-20.729-0.104-31.093-0.032-11.804-0.087-23.607-0.165-35.41-0.027-4.191-0.046-8.382-0.058-12.573-0.015-4.842-0.049-9.683-0.098-14.525-0.022-2.543-0.025-5.087-0.027-7.631-0.183-13.926-0.183-13.926-4.605-20.144-5.604-3.73-10.101-4.476-16.75-4.562-11.728-0.328-23.283-1.813-34.723-4.481-4.809-1.016-9.436-1.513-14.34-1.832-0.818-0.06-0.818-0.06-4.957-0.367-4.23 0.242-4.23 0.242-6.742 2.047z" fill="#FA9619"/>
<path transform="translate(820.02 277.75)" d="m0 0c1.216-5e-3 2.432-0.01 3.685-0.016 0.666 2e-3 0.666 2e-3 4.038 0.014 1.419-3e-3 2.837-7e-3 4.298-0.01 4.77-8e-3 9.541-1e-3 14.311 5e-3 3.413-2e-3 6.826-6e-3 10.239-0.011 8.32-9e-3 16.64-7e-3 24.96-1e-3 6.764 5e-3 13.527 5e-3 20.291 3e-3 0.962 0 1.925-1e-3 2.916-1e-3 1.955-1e-3 3.91-1e-3 5.865-2e-3 18.34-6e-3 36.681 1e-3 55.022 0.012 15.73 9e-3 31.461 7e-3 47.191-2e-3 18.267-0.011 36.534-0.015 54.801-9e-3 1.949 1e-3 3.898 1e-3 5.847 2e-3 0.959 0 1.918 1e-3 2.907 1e-3 6.751 2e-3 13.503-1e-3 20.254-6e-3 8.234-6e-3 16.468-4e-3 24.702 7e-3 4.2 5e-3 8.4 6e-3 12.599 0 4.558-5e-3 9.114 2e-3 13.672 0.012 1.321-5e-3 2.643-9e-3 4.004-0.014 7.096 0.03 13.466 0.647 20.376 2.268 2.165 0.285 4.331 0.558 6.5 0.812 5.26 0.784 9.085 2.259 13.695 4.828 4.775 2.315 9.879 3.607 14.973 5.051 3.967 1.355 7.236 3.173 10.832 5.309 1.361 0.495 2.722 0.99 4.125 1.5 3.875 1.5 3.875 1.5 6.312 3.5 2.563 2 2.563 2 6.875 3.375 5.357 1.857 8.26 4.14 12.688 7.625 1.052 0.495 2.104 0.99 3.187 1.5 3.569 1.903 5.338 4.326 7.813 7.5 2.379 2.498 4.669 4.753 7.437 6.812 3.508 2.995 5.841 6.46 8.563 10.188l3 3c1.002 2.264 2.002 4.529 2.961 6.812 1.039 2.188 1.039 2.188 3.101 4.563 2.529 3.426 3.094 6.775 4.086 10.875 0.852 2.75 0.852 2.75 3.414 6.562 3.413 5.863 3.8 11.519 4.438 18.188 0.176 1.521 0.353 3.042 0.535 4.609 1.869 18.908 4.149 47.269-6.145 64.008-1.656 2.838-2.084 5.277-2.64 8.508-1.558 7.125-4.575 11.985-8.75 17.875-1.692 2.538-3.38 5.08-5.063 7.625-0.425 0.634-0.425 0.634-2.578 3.843-1.399 2.095-2.789 4.197-4.156 6.313-2.735 4.23-5.554 7.757-9.203 11.219-0.846 1.031-1.691 2.062-2.563 3.125-2.437 2.875-2.437 2.875-6.437 5.875h-2l-2 4c-2.32 1.746-2.32 1.746-5.125 3.437-0.493 0.302-0.493 0.302-2.985 1.832-1.738 1.041-3.477 2.08-5.218 3.117-7.871 4.762-7.871 4.762-10.672 8.614-0.875 4.187-0.875 4.187 0 9 2.016 2.778 4.197 5.135 6.64 7.543 2.36 2.457 2.36 2.457 4.29 5.363 2.347 3.507 5.024 6.363 7.945 9.406 4.029 4.297 7.478 8.448 10.566 13.442 2.684 3.868 6.019 7.163 9.227 10.597 2.944 3.344 5.054 6.83 7.332 10.649 1.321 1.345 2.655 2.678 4 4 1.378 1.626 2.731 3.273 4.062 4.937 0.672 0.834 1.344 1.668 2.036 2.528 4.902 6.533 4.902 6.533 4.902 9.535h2c1.367 2.011 1.367 2.011 2.875 4.687 1.64 2.839 3.184 5.385 5.25 7.938 2.525 3.198 4.078 6.725 5.875 10.375 0.66 0.907 1.32 1.815 2 2.75 3.871 6.29 7 14.819 7 22.25-1.325 2.15-1.325 2.15-4 4-3.699 0.418-7.105 0.594-10.808 0.593-1.101 0.015-2.203 0.031-3.337 0.046-3.646 0.045-7.291 0.061-10.937 0.076-2.534 0.022-5.067 0.046-7.6 0.071-5.314 0.049-10.628 0.083-15.941 0.107-6.807 0.033-13.612 0.096-20.418 0.169-5.234 0.054-10.468 0.092-15.702 0.126-2.509 0.018-5.018 0.04-7.527 0.066-3.511 0.034-7.022 0.049-10.534 0.058-1.035 0.014-2.069 0.028-3.135 0.042-5.715-9e-3 -9.932-0.526-15.061-3.354-3.701-3.81-6.225-8.491-9-13-0.681-0.97-1.361-1.939-2.063-2.938-1.937-3.062-1.937-3.062-3.937-7.625-1.762-3.908-3.357-6.178-6-9.437-1.386-2.126-2.739-4.273-4.063-6.438-0.671-1.092-1.343-2.183-2.035-3.308-1.247-2.133-2.427-4.306-3.531-6.516-1.481-2.958-3.292-5.17-5.371-7.738-1.686-2.655-3.352-5.322-5-8-0.722-1.011-1.444-2.022-2.188-3.063-1.812-2.937-1.812-2.937-2.812-6.687-0.33-1.073-0.66-2.145-1-3.25l-4-2c-1.563-1.989-1.563-1.989-3-4.313-1.647-2.597-3.242-4.985-5.188-7.375-1.812-2.312-1.812-2.312-3.187-5.125-3.215-6.306-7.6-11.287-12.625-16.187-0.928-1.135-1.856-2.269-2.813-3.438-5.539-6.191-10.334-9.795-18.41-11.847-2.777-0.715-2.777-0.715-5.648-1.711-25.704-8.589-55.731-5.301-82.379-4.067-0.947 0.044-1.895 0.087-2.87 0.132-2.716 0.126-5.431 0.26-8.146 0.396-1.586 0.078-3.172 0.157-4.805 0.238-3.929 0.297-3.929 0.297-7.929 1.297-2.227 0.174-4.457 0.317-6.688 0.437-4.056 0.263-7.653 0.642-11.625 1.563-5.932 1.265-11.745 1.439-17.797 1.656-3.635 0.321-7.194 0.648-9.89 3.344-0.147 1.965-0.228 3.936-0.281 5.906-0.019 0.61-0.019 0.61-0.114 3.695-0.034 1.287-0.069 2.573-0.105 3.899-0.219 7.895-0.581 15.649-1.5 23.5-0.218 4.89-0.376 9.778-0.524 14.672-0.295 5.431-1.123 10.755-1.953 16.125-1.848 12.176-2.252 24.313-2.607 36.607-0.086 2.814-0.188 5.627-0.291 8.439-0.025 0.821-0.025 0.821-0.149 4.975-0.458 4.025-0.982 6.052-3.476 9.182-3.495 1.747-7.571 1.147-11.419 1.145-0.489 2e-3 -0.489 2e-3 -2.962 0.01-3.244 0.01-6.488 0.012-9.732 0.013-2.25 3e-3 -4.5 6e-3 -6.749 0.01-4.722 6e-3 -9.444 8e-3 -14.166 7e-3 -6.053 0-12.106 0.014-18.159 0.031-4.649 0.011-9.297 0.013-13.946 0.012-2.232 2e-3 -4.463 6e-3 -6.695 0.014-3.122 9e-3 -6.243 7e-3 -9.365 1e-3 -0.461 2e-3 -0.461 2e-3 -2.798 0.017-8.462-0.042-8.462-0.042-12.009-2.26-2.935-3.953-3.376-6.82-3.378-11.692-7e-3 -1.366-0.015-2.731-0.023-4.138 6e-3 -1.499 0.013-2.999 0.02-4.544-2e-3 -0.797-2e-3 -0.797-0.014-4.828-0.013-4.426-7e-3 -8.851 3e-3 -13.277 6e-3 -4.772-4e-3 -9.544-0.012-14.315-0.014-9.349-0.011-18.698-2e-3 -28.047 7e-3 -7.597 8e-3 -15.193 4e-3 -22.79 0-1.08-1e-3 -2.161-1e-3 -3.274-1e-3 -2.194-2e-3 -4.388-3e-3 -6.583-8e-3 -20.587 1e-3 -41.175 0.017-61.763 0.014-17.673 0.012-35.347-2e-3 -53.021-0.016-20.513-0.023-41.026-0.013-61.538 1e-3 -2.187 1e-3 -4.373 2e-3 -6.56 1e-3 -1.075 1e-3 -2.151 2e-3 -3.26 2e-3 -7.589-2e-3 -15.179-9e-3 -22.768-8e-3 -9.246-6e-3 -18.492 0.01-27.739 8e-3 -4.719 0.011-9.439 1e-3 -14.158-0.011-5.111 2e-3 -10.221 0.017-15.332-7e-3 -1.499-0.013-2.999-0.02-4.544 7e-3 -1.365 0.015-2.73 0.023-4.137 1e-3 -1.18 1e-3 -2.361 2e-3 -3.576 0.426-3.533 1.139-5.357 3.376-8.116 3.666-2.057 6.867-2.251 11.022-2.252zm241.98 92.252c-2.227 0.174-4.457 0.317-6.688 0.437-4.039 0.261-7.612 0.633-11.562 1.563-12.999 2.736-26.934 2.219-40.188 2.562-0.823 0.022-0.823 0.022-4.993 0.135-11.064 0.272-22.119 0.316-33.186 0.26-1.338-6e-3 -2.676-0.012-4.055-0.017-6.704-0.031-13.409-0.079-20.113-0.153-2.474-0.016-4.948-0.031-7.422-0.045-0.574-9e-3 -0.574-9e-3 -3.48-0.057-1.053-3e-3 -2.106-7e-3 -3.191-0.01-0.921-0.01-1.842-0.019-2.791-0.029-2.331 0.354-2.331 0.354-5.331 3.354-0.381 3.219-0.381 3.219-0.388 7.253-0.01 1.509-0.019 3.017-0.029 4.571 6e-3 1.635 0.012 3.269 0.018 4.953-2e-3 1.69-5e-3 3.38-8e-3 5.07-5e-3 3.544 2e-3 7.087 0.016 10.63 0.017 4.541 7e-3 9.081-0.011 13.622-0.011 3.491-7e-3 6.981 0 10.472 3e-3 2.488-6e-3 4.977-0.015 7.465 9e-3 1.512 0.019 3.023 0.029 4.581 2e-3 1.332 4e-3 2.664 7e-3 4.037 0.381 3.346 0.381 3.346 3.381 7.346 3.204 0.397 6.066 0.535 9.273 0.501 0.961 5e-3 1.923 0.011 2.913 0.017 3.236 0.013 6.471-2e-3 9.707-0.017 2.315 4e-3 4.629 0.01 6.943 0.017 6.298 0.014 12.595 3e-3 18.893-0.014 6.584-0.014 13.169-7e-3 19.753-4e-3 11.063 3e-3 22.126-0.011 33.19-0.034 12.791-0.026 25.583-0.028 38.374-0.016 12.297 0.01 24.594 4e-3 36.892-0.01 5.235-6e-3 10.471-6e-3 15.707-1e-3 6.169 5e-3 12.338-5e-3 18.507-0.027 2.265-5e-3 4.529-6e-3 6.793-1e-3 3.092 6e-3 6.182-6e-3 9.274-0.024 0.896 6e-3 1.791 0.012 2.714 0.019 6.911-0.07 11.755-1.422 17.016-5.938 6.069-6.58 9.6-11.921 12.051-20.468 0.184-0.407 0.184-0.407 1.113-2.465 4.642-10.353 4.654-23.902 0.887-34.535-4.555-9.35-10.049-17.352-20-21-2.964-0.75-5.945-1.435-8.938-2.063-8.864-1.878-8.864-1.878-12.574-2.983-5.661-1.204-11.004-1.222-16.773-1.185-1.174 1e-3 -2.348 1e-3 -3.558 2e-3 -2.478 3e-3 -4.957 0.01-7.435 0.023-3.748 0.018-7.496 0.02-11.244 0.02-30.916 0.045-30.916 0.045-39.478 2.186z"/>
<path transform="translate(466.39 279.07)" d="m0 0c3.498 0.897 6.836 1.355 10.422 1.738 8.903 1.258 16.484 6.497 22.633 12.969 2.756 3.934 4.385 8.351 6.097 12.816 1.487 3.471 3.317 6.303 5.457 9.403 0.681 1.382 1.362 2.764 2.063 4.187 1.937 3.813 1.937 3.813 4.937 6.813 0.982 2.192 1.959 4.386 2.895 6.597 1.69 3.674 3.955 6.984 6.105 10.403 0.475 1.114 0.949 2.227 1.438 3.375 2.08 4.826 4.806 9.16 7.562 13.625 0.517 0.87 1.034 1.74 1.567 2.636 1.433 2.364 1.433 2.364 3.371 5.051 1.733 2.784 2.848 5.155 4 8.188 1.84 4.786 4.225 8.835 7.062 13.125 3.944 6.011 7.612 11.984 10.754 18.453 5.806 11.867 5.806 11.867 9.871 16.609 2.695 3.333 3.864 6.438 5.344 10.418 1.556 3.801 3.785 7.094 6.031 10.52 0.702 1.237 1.403 2.475 2.125 3.75 1.875 3.25 1.875 3.25 4.875 7.25 1.193 2.351 2.381 4.704 3.543 7.07 1.628 3.273 3.309 6.512 5.02 9.742 0.279 0.529 0.279 0.529 1.691 3.207 1.704 2.908 3.638 5.36 5.746 7.981 0.885 1.576 1.721 3.181 2.5 4.812 0.422 0.869 0.843 1.738 1.278 2.633 0.403 0.843 0.807 1.686 1.222 2.555 4.077 8.276 8.614 16.181 13.5 24 0.413 0.66 0.413 0.66 2.5 4 0.537 0.825 1.073 1.65 1.625 2.5 1.375 2.5 1.375 2.5 2.688 6.187 2.024 5.174 4.748 9.621 7.687 14.313 3.182 5.268 6.28 10.537 9 16.062 2 3.938 2 3.938 4 6.813 2.218 3.464 3.54 6.918 5 10.746 1.292 3.073 3.128 5.628 5 8.379 0.712 1.552 1.398 3.115 2.063 4.687 1.937 4.313 1.937 4.313 4.937 7.313 0.879 1.908 1.685 3.851 2.438 5.812 1.797 4.494 3.857 8.173 6.562 12.188 1.061 2.52 2.026 5.068 2.996 7.625 1.004 2.375 1.004 2.375 3.067 5.375 1.807 2.799 2.52 4.715 3.375 7.875 1.13 4.107 2.762 7.107 5.164 10.652 3.262 5.767 5.164 12.255 7.398 18.473 0.191 0.461 0.191 0.461 1.157 2.793 1.109 2.901 1.178 5.129 0.843 8.207l-3 3c-2.134-0.152-4.271-0.329-6.388-0.641-4.783-0.658-9.602-0.706-14.424-0.859-0.609-0.021-0.609-0.021-3.689-0.125-9.879-0.305-19.757-0.46-29.639-0.59-0.671-9e-3 -0.671-9e-3 -4.064-0.056-6.846-0.095-13.692-0.18-20.539-0.249-2.566-0.033-5.132-0.067-7.698-0.101-1.192-9e-3 -2.383-0.017-3.611-0.026-1.105-0.016-2.21-0.033-3.348-0.05-0.965-0.011-1.929-0.021-2.922-0.031-2.913-0.296-5.06-0.973-7.678-2.272-1.999-2.692-3.128-5.321-4.375-8.438-1.625-3.562-1.625-3.562-4-6.375-2.741-3.329-4.339-6.497-6.183-10.359-1.613-3.164-3.431-6.132-5.317-9.141-2.771-4.425-5.362-8.888-7.812-13.5-9.538-17.929-9.538-17.929-16.313-20.187-1.82-0.145-3.645-0.237-5.47-0.299-1.127-0.039-2.254-0.079-3.416-0.119-1.23-0.038-2.46-0.075-3.727-0.113-1.287-0.042-2.574-0.084-3.899-0.126-16.637-0.509-33.279-0.691-49.921-0.895-23.209-0.292-46.37-0.913-69.543-2.265-2.743-0.125-5.489-0.171-8.235-0.148-3.789-0.035-3.789-0.035-6.2-0.52-2.638-0.525-5.106-0.704-7.792-0.796-0.981-0.038-1.962-0.075-2.972-0.114-0.508-0.017-0.508-0.017-3.075-0.105-6.971-0.243-13.814-0.707-20.75-1.5-6.689-0.439-13.375-0.683-20.076-0.874-2.837-0.091-5.672-0.204-8.507-0.33-4.951-0.213-9.9-0.353-14.854-0.484-1.594-0.08-3.189-0.16-4.831-0.242-11.096-0.197-11.096-0.197-15.764 3.02-5.208 5.566-7.055 10.641-8.968 17.91-1.662 2.003-3.329 4.003-5 6-0.722 1.812-1.384 3.649-2 5.5-1.588 4.752-3.608 7.76-7 11.5-1.034 1.982-2.032 3.984-3 6-0.412 0.639-0.412 0.639-2.5 3.875-2.413 3.981-3.887 7.777-5.5 12.125-1.295 2.024-2.627 4.027-4 6-1.015 1.992-2.018 3.991-3 6-4.004 4.004-19.757 2.057-25.463 2.063-4.509-0.017-9.017-0.062-13.525-0.114-1.961-0.019-3.923-0.038-5.884-0.057-4.072-0.041-8.144-0.086-12.215-0.134-5.218-0.061-10.435-0.108-15.652-0.151-4.033-0.035-8.066-0.08-12.099-0.126-1.925-0.021-3.851-0.039-5.776-0.054-2.677-0.022-5.354-0.055-8.031-0.093-1.521-0.016-3.042-0.032-4.609-0.049-3.746-0.285-3.746-0.285-7.746-2.285-1-3-1-3 1.168-7.422 0.997-1.782 2.004-3.558 3.02-5.328 0.496-0.882 0.991-1.764 1.502-2.672 1.426-2.532 2.866-5.056 4.31-7.578 0.748-1.316 1.496-2.632 2.266-3.988 1.059-1.84 2.151-3.662 3.297-5.45 1.437-2.562 1.437-2.562 2.812-6.375 1.738-4.479 4.084-8.121 6.625-12.187 0.516-1.382 1.032-2.764 1.563-4.188 1.422-3.77 2.937-5.724 5.437-8.812 1.324-2.499 2.548-5.036 3.778-7.582 1.506-2.978 3.359-5.653 5.222-8.418 1.351-2.658 2.684-5.325 4-8 0.681-1.155 1.362-2.31 2.063-3.5 1.937-3.5 1.937-3.5 3.375-7.438 1.707-4.437 4.018-8.055 6.562-12.062 0.268-0.629 0.268-0.629 1.625-3.813 1.375-3.187 1.375-3.187 4.375-6.187 1.034-1.909 2.008-3.851 2.938-5.813 1.616-3.332 3.179-6.36 5.25-9.437 1.812-2.75 1.812-2.75 3.25-6.625 1.694-4.474 4.032-8.076 6.562-12.125 0.475-1.279 0.949-2.558 1.438-3.875 2.711-7.158 7.056-13.34 11.187-19.75 2.776-4.332 5.135-8.739 7.375-13.375 0.681-1.155 1.362-2.31 2.063-3.5 1.937-3.5 1.937-3.5 3.375-7.438 1.707-4.437 4.018-8.055 6.562-12.062l1.5-3.5c1.771-4.133 4.113-7.692 6.5-11.5 1.307-2.549 2.562-5.116 3.789-7.703 1.211-2.297 1.211-2.297 4.211-6.297 0.998-2.252 1.993-4.505 2.961-6.77 1.039-2.23 1.039-2.23 3.102-5.293 1.937-2.937 1.937-2.937 3.437-7 1.5-3.937 1.5-3.937 3.438-6.25 2.115-2.756 2.908-4.857 4-8.125 1.621-4.761 3.659-7.81 7.062-11.562 1.035-1.983 2.033-3.984 3-6 0.825-1.279 1.65-2.558 2.5-3.875 2.5-4.125 2.5-4.125 4-8.125 1.661-4.43 3.997-7.996 6.5-12 0.475-1.3 0.949-2.599 1.438-3.938 1.503-3.908 3.432-6.951 5.816-10.371 2.924-4.506 5.333-9.284 7.817-14.043 2.354-4.45 4.774-8.846 7.492-13.086 1.437-2.562 1.437-2.562 2.875-6.562 1.562-4 1.562-4 3.5-6.313 2.141-2.79 2.912-4.934 4-8.25 1.561-4.567 2.871-6.818 7.062-9.437 0.557-0.701 1.114-1.403 1.688-2.125 3.567-2.892 7.897-3.064 12.312-3.875 0.791-0.165 0.791-0.165 4.789-1 28.894-5.975 58.857-7.992 87.602 0.074zm-42.016 107.49c-0.783 1.135-1.567 2.269-2.375 3.438-1.031 1.093-2.062 2.186-3.125 3.312-2.516 3.227-3.4 4.77-4.5 8.5-0.453 1.382-0.907 2.764-1.375 4.188l-4 2c-1.492 2.25-1.492 2.25-2.875 5-1.949 3.756-3.933 7.442-6.125 11.062-0.492 0.815-0.984 1.63-1.492 2.469-1.02 1.67-2.046 3.337-3.078 5-2.489 4.053-4.753 8.025-6.617 12.406-1.813 4.063-1.813 4.063-4.813 7.063-0.773 2.269-0.773 2.269-1.375 4.812-1.314 4.794-3.438 7.363-6.625 11.188-0.812 2.375-0.812 2.375-1.5 5-1.248 4.745-3.34 7.224-6.5 11-1.215 2.866-2.229 5.75-3.203 8.707-0.797 2.293-0.797 2.293-1.797 3.293-0.041 2.999-0.042 6 0 9 4.632 1.544 9.378 1.147 14.217 1.145 1.156 3e-3 2.313 7e-3 3.504 0.01 3.833 0.01 7.665 0.012 11.498 0.013 2.657 3e-3 5.313 6e-3 7.97 0.01 5.572 6e-3 11.143 8e-3 16.715 7e-3 7.153 0 14.306 0.014 21.458 0.031 5.487 0.011 10.974 0.013 16.461 0.012 2.638 2e-3 5.276 6e-3 7.914 0.014 3.682 0.01 7.364 7e-3 11.047 1e-3 1.097 5e-3 2.194 0.011 3.325 0.017 7.549-0.032 7.549-0.032 10.891-2.26 0.905-7.334-0.013-10.876-4.41-16.699-2.172-3.144-3.368-6.453-4.633-10.039-0.957-2.262-0.957-2.262-3.957-6.262-0.773-2.332-0.773-2.332-1.375-4.813-1.008-3.646-1.804-5.43-4.125-8.562-2.439-3.538-3.105-5.53-4-9.625-1.181-5.381-3.147-8.584-6.5-13-1.086-2.48-2.021-4.995-2.968-7.531-1.032-2.469-1.032-2.469-3.532-6.407-2.515-4.087-3.992-7.892-5.531-12.402-0.969-2.66-0.969-2.66-3.031-6.723-1.578-3.206-2.528-5.846-3.438-9.25-1.5-4.687-1.5-4.687-5.5-7.687-4.883-0.698-7.017-0.96-10.625 2.562z"/>
<path transform="translate(1966,274)" d="m0 0c1.245 0.017 2.49 0.034 3.773 0.051 8.692 0.375 17.062 2.234 25.528 4.133 4.711 1.048 9.251 1.92 14.07 2.261 4.588 0.55 6.742 1.301 10.441 3.93 0.873 0.606 1.746 1.212 2.645 1.836 0.839 0.59 1.678 1.181 2.543 1.789 0.424 0.233 0.424 0.233 2.57 1.41 6.927 4.533 10.855 12.81 13.571 20.387 1.185 3.038 3.028 5.514 4.859 8.203 0.66 1.506 1.32 3.011 2 4.562 1.752 3.888 3.383 6.186 6 9.438 1.323 2.502 2.55 5.04 3.777 7.59 1.223 2.41 1.223 2.41 3.285 5.41 2.203 3.41 3.496 6.842 4.938 10.621 1.292 3.073 3.127 5.629 5 8.379 0.711 1.552 1.398 3.115 2.062 4.688 1.938 4.312 1.938 4.312 4.938 7.312 0.865 1.576 1.675 3.184 2.438 4.812 1.431 2.97 2.826 5.577 4.687 8.313 2.253 3.454 3.43 7.02 4.875 10.875 1.323 2.007 2.657 4.006 4 6 0.66 1.506 1.32 3.011 2 4.562 1.752 3.888 3.383 6.186 6 9.438 1.323 2.502 2.55 5.04 3.777 7.59 1.223 2.41 1.223 2.41 3.285 5.41 2.203 3.41 3.496 6.842 4.938 10.621 1.292 3.073 3.127 5.629 5 8.379 0.711 1.552 1.398 3.115 2.062 4.688 1.938 4.312 1.938 4.312 4.938 7.312 0.865 1.576 1.675 3.184 2.438 4.812 1.431 2.97 2.826 5.577 4.687 8.313 2.253 3.454 3.43 7.02 4.875 10.875 1.323 2.007 2.657 4.006 4 6 0.66 1.506 1.32 3.011 2 4.562 1.752 3.888 3.383 6.186 6 9.438 1.323 2.502 2.55 5.04 3.777 7.59 1.223 2.41 1.223 2.41 3.285 5.41 2.204 3.412 3.499 6.842 4.934 10.625 1.004 2.375 1.004 2.375 3.066 5.375 1.869 2.893 2.609 5.029 3.5 8.312 0.475 1.547 0.949 3.094 1.438 4.688 0.99 0.33 1.98 0.66 3 1 1.465 2.512 1.465 2.512 2.938 5.688 2.091 4.373 4.352 8.291 7.062 12.312 2.533 4.715 4.792 9.507 6.875 14.438 2.02 4.658 4.746 8.753 7.527 12.988 1.598 2.574 1.598 2.574 3.223 6.386 1.375 3.188 1.375 3.188 3.813 6 2.81 3.497 4.056 6.652 5.597 10.813 0.965 2.375 0.965 2.375 2.965 5.375 1.783 2.675 2.811 4.898 3.938 7.875 1.825 4.776 4.253 8.841 7.062 13.125 0.701 1.237 1.403 2.475 2.125 3.75 1.875 3.25 1.875 3.25 4.875 7.25 1.31 2.491 2.51 5.021 3.719 7.562 1.281 2.438 1.281 2.438 4.281 6.438 0.938 3.5 0.938 3.5 1 7-1.685 2.207-1.685 2.207-4 4-3.906 0.145-7.51 0.052-11.391-0.227-2.456-0.134-4.912-0.263-7.369-0.387-0.663-0.035-0.663-0.035-4.021-0.208-7.524-0.317-15.049-0.341-22.578-0.389-3.207-0.028-6.414-0.057-9.621-0.086-4.929-0.041-9.857-0.08-14.786-0.104-4.844-0.028-9.687-0.074-14.531-0.122-1.476-4e-3 -2.952-7e-3 -4.472-0.01-1.374-0.017-2.748-0.033-4.164-0.05-0.6-5e-3 -0.6-5e-3 -3.636-0.025-3.998-0.457-6.895-1.477-10.431-3.392l-2-4-4-2c-4.469-5.822-7.81-12.415-11-19-1-1.729-2-3.459-3-5.188-2.241-4.04-3.708-7.862-4.938-12.312-1.927-6.714-4.972-11.88-9.062-17.5-0.465-0.731-0.931-1.462-1.41-2.215-5.953-8.271-17.067-11.404-26.59-13.785-13.234-1.476-26.624-1.146-39.918-1.133-2.426 0-4.852-1e-3 -7.277-3e-3 -5.08-1e-3 -10.159 1e-3 -15.238 6e-3 -6.397 5e-3 -12.794 2e-3 -19.191-4e-3 -23.41-0.018-46.794 0.013-70.193 0.796-9.689 0.312-19.357 0.377-29.05 0.295-1.336-0.01-2.673-0.02-4.049-0.031-5.374-0.045-10.747-0.096-16.12-0.173-4.027-0.054-8.054-0.083-12.081-0.108-1.212-0.024-2.425-0.048-3.674-0.073-6.223-0.019-10.391 8e-3 -15.209 4.428-1.758 2.184-1.758 2.184-3.125 4.438-1.576 2.532-3.005 4.707-5 6.937-1.941 2.718-2.758 4.973-3.813 8.125-1.602 4.707-3.387 7.101-7.062 10.5-0.924 1.816-1.842 3.636-2.699 5.484-2.388 4.619-5.337 8.899-8.18 13.246-2.658 4.097-4.904 7.638-6.496 12.27-1.691 4.162-3.334 6.038-6.625 9-0.99 1.32-1.98 2.64-3 4-2.785 0.551-2.785 0.551-6.215 0.62-1.289 0.034-2.578 0.068-3.907 0.103-0.703 8e-3 -0.703 8e-3 -4.261 0.047-1.465 0.029-2.931 0.058-4.441 0.088-15.469 0.261-30.939 0.143-46.408-0.1-4.744-0.072-9.488-0.125-14.233-0.178-3.03-0.042-6.06-0.086-9.09-0.131-1.412-0.014-2.824-0.029-4.279-0.044-0.647-0.012-0.647-0.012-3.923-0.07-1.138-0.017-2.275-0.033-3.447-0.05-2.796-0.285-2.796-0.285-5.796-2.285v-5c0.763-0.743 1.526-1.485 2.312-2.25 3.488-3.569 4.176-7.026 5.688-11.75 1.648-2.678 3.314-5.345 5-8 0.516-1.382 1.031-2.764 1.562-4.188 1.422-3.77 2.938-5.723 5.438-8.812 1.323-2.499 2.548-5.036 3.777-7.582 1.506-2.978 3.359-5.653 5.223-8.418 1.35-2.658 2.683-5.325 4-8 0.681-1.155 1.361-2.31 2.062-3.5 1.938-3.5 1.938-3.5 3.376-7.438 1.706-4.437 4.018-8.055 6.562-12.062 0.268-0.629 0.268-0.629 1.625-3.812 1.375-3.188 1.375-3.188 4.375-6.188 1.033-1.909 2.007-3.851 2.938-5.812 1.616-3.333 3.178-6.361 5.25-9.438 1.812-2.75 1.812-2.75 3.25-6.625 1.694-4.474 4.031-8.076 6.562-12.125 0.474-1.279 0.949-2.558 1.438-3.875 2.711-7.158 7.056-13.34 11.187-19.75 2.776-4.332 5.134-8.739 7.375-13.375 0.681-1.155 1.361-2.31 2.062-3.5 1.938-3.5 1.938-3.5 3.376-7.438 1.706-4.437 4.018-8.055 6.562-12.062l1.5-3.5c1.771-4.132 4.113-7.692 6.5-11.5 1.307-2.549 2.561-5.115 3.789-7.703 1.211-2.297 1.211-2.297 4.211-6.297 0.997-2.252 1.993-4.505 2.961-6.77 1.039-2.23 1.039-2.23 3.101-5.292 1.938-2.938 1.938-2.938 3.438-7 1.5-3.938 1.5-3.938 3.438-6.25 2.115-2.757 2.907-4.858 4-8.126 1.621-4.761 3.659-7.81 7.062-11.562 1.034-1.982 2.032-3.984 3-6 0.825-1.279 1.65-2.558 2.5-3.875 2.5-4.125 2.5-4.125 4-8.125 1.661-4.429 3.997-7.995 6.5-12 0.474-1.299 0.949-2.599 1.438-3.938 1.503-3.908 3.431-6.951 5.816-10.371 2.923-4.506 5.332-9.284 7.816-14.043 2.354-4.45 4.775-8.846 7.492-13.086 1.438-2.562 1.438-2.562 2.813-6.374 1.738-4.479 4.083-8.121 6.625-12.188 0.516-1.382 1.031-2.764 1.562-4.188 1.422-3.77 2.938-5.723 5.438-8.812 0.843-1.589 1.652-3.195 2.438-4.812 4.324-8.872 9.453-18.634 18.562-23.188 2.884-0.545 5.783-1.014 8.688-1.438 1.707-0.255 3.414-0.511 5.121-0.769 0.863-0.13 1.727-0.259 2.616-0.393 5.297-0.823 10.567-1.797 15.841-2.752 1.232-0.214 2.464-0.428 3.734-0.648 1.087-0.191 2.173-0.382 3.293-0.578 8.835-1.006 17.828-0.558 26.707-0.422zm-6.742 117.36c-1.038 1.949-2.018 3.929-2.934 5.938-1.324 2.699-1.324 2.699-4.324 5.699-0.865 2.812-1.451 5.627-2.059 8.504-0.941 2.496-0.941 2.496-4.941 4.496-1.274 2.19-2.541 4.386-3.711 6.633-1.289 2.367-1.289 2.367-3.851 5.929-2.438 3.438-2.438 3.438-4.25 7.188-1.803 3.501-3.579 6.209-5.938 9.312-4.147 5.532-7.278 11.394-10.391 17.555-1.716 3.122-3.625 5.628-5.859 8.383-0.913 2.151-1.825 4.303-2.73 6.457-2.459 4.924-5.931 9.19-9.27 13.543-3.471 4.628-3.453 6.387-3 12 2.944 2.944 5.787 2.249 9.756 2.271 1.1-4e-3 2.199-8e-3 3.331-0.012 1.155 3e-3 2.309 7e-3 3.499 0.01 3.833 9e-3 7.667 3e-3 11.5-3e-3 2.656 1e-3 5.311 3e-3 7.967 5e-3 5.573 3e-3 11.147-1e-3 16.72-0.01 7.152-0.012 14.303-5e-3 21.455 7e-3 5.487 7e-3 10.974 5e-3 16.461 0 2.637-2e-3 5.274 0 7.911 5e-3 3.685 5e-3 7.369-3e-3 11.054-0.014 1.095 4e-3 2.19 8e-3 3.319 0.012 4.722-0.026 7.741-0.128 12.027-2.271 0.683-5.268 0.279-6.628-3-11-0.474-1.444-0.949-2.887-1.438-4.375-1.562-4.625-1.562-4.625-3.562-7.437-2.02-3.221-2.631-5.455-3.438-9.126-1.219-5.386-3.202-8.637-6.562-13.062-1.086-2.48-2.022-4.995-2.969-7.531-1.031-2.469-1.031-2.469-3.531-6.407-2.516-4.087-3.993-7.896-5.535-12.406-0.965-2.656-0.965-2.656-2.965-6.656-1.614-3.227-2.83-6.233-4-9.625-1.511-4.302-3.429-7.599-6-11.375-0.672-1.677-1.316-3.366-1.938-5.062-1.678-4.297-3.141-7.264-7.062-9.938-4.458-1.132-6.865-1.539-9.742 2.363z"/>
<path transform="translate(2252.6 277.87)" d="m0 0c1.636-4e-3 3.271-9e-3 4.956-0.014 1.836 1e-3 3.671 1e-3 5.506 1e-3 1.934-3e-3 3.868-7e-3 5.802-0.011 5.337-0.01 10.673-0.014 16.01-0.016 5.748-4e-3 11.495-0.014 17.242-0.023 13.892-0.019 27.784-0.03 41.676-0.038 6.537-5e-3 13.074-0.01 19.612-0.015 21.724-0.017 43.449-0.032 65.174-0.039l16.923-6e-3c1.402 0 2.804-1e-3 4.249-1e-3 22.717-9e-3 45.434-0.034 68.151-0.067 23.309-0.033 46.618-0.051 69.927-0.054 13.093-2e-3 26.186-0.011 39.278-0.036 11.15-0.022 22.3-0.03 33.45-0.02 5.69 4e-3 11.38 2e-3 17.071-0.017 5.209-0.018 10.418-0.017 15.627-1e-3 1.885 2e-3 3.769-2e-3 5.654-0.014 17.814-0.105 17.814-0.105 25.131 4.505 9.899 12.913 9.208 27.565 9.24 43.074 0.01 2.853 0.041 5.705 0.072 8.557 7e-3 1.841 0.012 3.681 0.016 5.522 9e-3 1.649 0.019 3.299 0.028 4.999-0.742 10.093-4.129 20.787-11.544 27.911-4.26 2.935-6.388 3.068-11.576 3.089-0.724 4e-3 -0.724 4e-3 -4.389 0.025-1.6 4e-3 -3.199 8e-3 -4.847 0.013-1.694 8e-3 -3.387 0.016-5.08 0.025-3.652 0.018-7.303 0.033-10.955 0.046-5.768 0.02-11.535 0.047-17.303 0.076-13.284 0.066-26.568 0.121-39.852 0.176-12.175 0.051-24.349 0.104-36.524 0.165-5.74 0.028-11.48 0.052-17.22 0.072-3.563 0.013-7.126 0.03-10.689 0.049-2.453 0.012-4.906 0.018-7.36 0.024-0.722 5e-3 -0.722 5e-3 -4.381 0.026-0.632 2e-3 -0.632 2e-3 -3.832 0.015-2.804 0.136-2.804 0.136-3.804 1.136-0.1 3.718-0.133 7.417-0.125 11.134-1e-3 1.186-3e-3 2.372-4e-3 3.593-4e-3 4.007 0 8.014 3e-3 12.02-1e-3 2.859-3e-3 5.718-6e-3 8.577-4e-3 6.174-6e-3 12.348-6e-3 18.521-1e-3 9.755-0.014 19.511-0.03 29.266l-0.012 7.488c-2e-3 1.681-5e-3 3.362-7e-3 5.043-0.015 9.496-0.029 18.992-0.041 28.488-1e-3 0.868-2e-3 1.736-4e-3 2.631-0.017 14.071-0.02 28.142-0.018 42.213 1e-3 14.436-0.017 28.872-0.051 43.308-0.019 8.109-0.028 16.219-0.016 24.328 0.012 7.627 0 15.253-0.029 22.88-7e-3 2.804-5e-3 5.608 6e-3 8.411 0.014 3.82-3e-3 7.638-0.028 11.457 0.012 1.117 0.023 2.234 0.035 3.385-0.094 7.502-0.094 7.502-2.968 11.29-0.891 0.649-1.782 1.298-2.699 1.967-0.629 0.516-0.629 0.516-3.813 3.125-5.454 3.59-11.35 4.344-17.711 5.332-3.476 0.543-3.476 0.543-6.476 1.543-2.101 0.202-4.206 0.364-6.313 0.5-3.348 0.218-6.556 0.476-9.855 1.094-2.832 0.406-2.832 0.406-6.832-0.594-2.164-0.197-4.332-0.361-6.5-0.5-3.711-0.238-6.876-0.594-10.5-1.5-2.864-0.183-5.73-0.32-8.598-0.429-1.705-0.074-3.41-0.148-5.115-0.223-2.682-0.114-5.363-0.223-8.045-0.322-2.593-0.097-5.185-0.212-7.777-0.33-0.776-0.031-0.776-0.031-4.7-0.187-3.765-0.509-3.765-0.509-6.765-3.509-0.379-2.296-0.379-2.296-0.385-5.054-9e-3 -1.051-0.019-2.102-0.029-3.185 5e-3 -1.159 0.01-2.317 0.015-3.511-6e-3 -1.227-0.013-2.455-0.02-3.72-0.019-4.136-0.016-8.273-0.013-12.409-0.01-2.956-0.02-5.913-0.031-8.869-0.025-7.208-0.036-14.417-0.041-21.625-7e-3 -8.387-0.03-16.773-0.055-25.159-0.043-14.956-0.073-29.912-0.095-44.868-0.021-14.53-0.048-29.06-0.084-43.591-2e-3 -0.895-4e-3 -1.79-6e-3 -2.713-0.011-4.491-0.023-8.983-0.034-13.474-0.093-37.274-0.164-74.548-0.222-111.82-3.996-0.999-7.181-1.13-11.288-1.138-0.757-3e-3 -0.757-3e-3 -4.588-0.016-1.68-1e-3 -3.359-3e-3 -5.038-3e-3 -1.768-5e-3 -3.535-0.01-5.303-0.016-3.806-0.011-7.613-0.02-11.419-0.026-6.017-0.011-12.033-0.031-18.05-0.053-17.109-0.062-34.219-0.116-51.328-0.149-9.449-0.018-18.898-0.047-28.347-0.088-5.001-0.021-10.002-0.037-15.003-0.039-4.702-2e-3 -9.403-0.018-14.105-0.044-1.727-8e-3 -3.454-0.01-5.181-6e-3 -2.354 4e-3 -4.708-0.013-7.063-0.03-1.318-3e-3 -2.637-6e-3 -3.995-0.01-3.292-0.382-3.292-0.382-7.292-3.382-0.501-3.668-0.501-3.668-0.502-8.339-5e-3 -0.851-0.011-1.702-0.016-2.578-0.013-2.817 4e-3 -5.633 0.022-8.45 0-1.957-2e-3 -3.913-5e-3 -5.87-1e-3 -4.104 0.012-8.208 0.034-12.312 0.029-5.258 0.026-10.516 0.013-15.774-7e-3 -4.043 1e-3 -8.085 0.013-12.127 5e-3 -1.939 5e-3 -3.877 1e-3 -5.816-2e-3 -2.712 0.014-5.423 0.036-8.136 3e-3 -0.771 3e-3 -0.771 0.016-4.676 0.388-3.925 0.969-5.859 3.388-8.922 3.112-1.556 6.097-1.13 9.561-1.134z"/>
<path transform="translate(1458,279)" d="m0 0c3.833-0.455 6.769-0.418 10.562-0.062 2.34 0.156 4.68 0.311 7.02 0.464 1.316 0.098 2.631 0.196 3.987 0.297 5 0.34 9.999 0.583 15.005 0.805 0.919 0.041 1.838 0.082 2.785 0.124 1.869 0.083 3.738 0.166 5.608 0.248 34.307 1.528 34.307 1.528 47.095 3.499 1.58 0.235 3.159 0.469 4.786 0.711 3.77 0.83 6.149 1.538 9.152 3.914 4.252 12.757 2.225 29.042 2.316 42.387 0.022 2.632 0.043 5.265 0.064 7.897 0.07 8.801 0.127 17.602 0.182 26.404 0.01 1.516 0.02 3.032 0.03 4.594 0.129 20.727 0.234 41.453 0.325 62.18 9e-3 1.992 0.018 3.984 0.026 5.975 5e-3 1.008 9e-3 2.015 0.014 3.053 0.034 7.752 0.072 15.504 0.111 23.256 0.136 27.305 0.248 54.609 0.31 81.914 0.029 12.491 0.068 24.982 0.132 37.472 0.055 10.762 0.089 21.523 0.096 32.284 4e-3 5.567 0.019 11.134 0.059 16.702 0.036 5.146 0.045 10.291 0.032 15.437 0 1.873 0.01 3.745 0.032 5.618 0.027 2.549 0.014 5.098-1e-3 7.647 4e-3 1.42 9e-3 2.84 0.013 4.303-0.97 5.075-3.051 7.336-6.741 10.877-4.438 1.812-4.438 1.812-9 3-1.155 0.371-2.31 0.743-3.5 1.125-9.037 2.259-18.241 2.067-27.5 2.063-0.707-1e-3 -0.707-1e-3 -4.282-1e-3 -10.699-0.057-21.249-0.678-31.894-1.695-3.982-0.371-7.931-0.583-11.929-0.672-0.973-0.024-1.945-0.049-2.947-0.074-1.83-0.038-3.661-0.057-5.492-0.052-2.448-0.057-2.448-0.057-6.456-0.694-3.084-3.792-3.376-6.878-3.378-11.671-7e-3 -1.361-0.015-2.721-0.023-4.123 6e-3 -1.494 0.013-2.989 0.02-4.528-5e-3 -1.588-9e-3 -3.176-0.014-4.812-0.013-4.41-6e-3 -8.82 3e-3 -13.231 7e-3 -4.755-4e-3 -9.511-0.012-14.266-0.013-9.318-0.011-18.635-2e-3 -27.953 7e-3 -7.572 8e-3 -15.144 5e-3 -22.717-1e-3 -1.077-1e-3 -2.153-2e-3 -3.263-1e-3 -2.188-2e-3 -4.375-3e-3 -6.563-8e-3 -20.525 2e-3 -41.05 0.018-61.576 0.013-17.615 0.011-35.23-3e-3 -52.845-0.016-20.448-0.022-40.895-0.013-61.343 1e-3 -2.18 2e-3 -4.36 3e-3 -6.541 0-1.073 0-2.145 1e-3 -3.251 3e-3 -7.563-2e-3 -15.126-9e-3 -22.689-8e-3 -9.217-6e-3 -18.434 0.01-27.651 8e-3 -4.704 0.011-9.407 1e-3 -14.111-0.011-5.097 2e-3 -10.193 0.017-15.29-7e-3 -1.49-0.013-2.979-0.02-4.514 8e-3 -1.366 0.015-2.732 0.023-4.139 1e-3 -1.177 1e-3 -2.353 2e-3 -3.565 0.446-3.985 1.398-6.869 3.376-10.358z"/>
</svg>
