<?xml version="1.0" encoding="UTF-8"?>
<svg version="1.1" viewBox="0 0 2904 1352" xmlns="http://www.w3.org/2000/svg">
<path transform="translate(83.629 985.5)" d="m0 0c0.802-5e-3 0.802-5e-3 4.863-0.03 1.794 0.01 3.589 0.019 5.384 0.029 1.906-4e-3 3.812-0.01 5.718-0.017 5.284-0.015 10.567-5e-3 15.85 9e-3 5.752 0.011 11.505-2e-3 17.257-0.011 10.135-0.014 20.27-0.013 30.406-2e-3 15.173 0.017 30.346 0.01 45.519-1e-3 25.854-0.019 51.708-0.018 77.562-7e-3 26.215 0.011 52.431 0.013 78.646 5e-3 0.826 0 1.652-1e-3 2.503-1e-3 7.569-2e-3 15.137-5e-3 22.706-7e-3 18.982-7e-3 37.963-0.012 56.945-0.016h2.636c42.915-9e-3 85.829-3e-3 128.74 4e-3 1.881 1e-3 3.761 1e-3 5.642 1e-3 0.932 1e-3 1.864 1e-3 2.824 1e-3 12.291 2e-3 24.581 4e-3 36.871 6e-3 0.47 0 0.47 0 2.847 1e-3 43.499 7e-3 86.997 5e-3 130.5 2e-3 4.743-1e-3 9.486-1e-3 14.229-2e-3l42.885-3e-3c43.594-4e-3 87.188-6e-3 130.78-8e-3h2.941c62.883-1e-3 125.77 3e-3 188.65 0.012h3.043c33.636 5e-3 67.272 0.01 100.91 0.015 101.72 0.015 203.44 0.024 385.1 0 33.627-6e-3 67.254-0.01 100.88-0.015 0.502 0 0.502 0 3.042-1e-3 62.849-8e-3 125.7-0.012 188.55-0.011h2.941c43.569 2e-3 87.139 4e-3 130.71 8e-3 14.289 1e-3 28.578 2e-3 42.867 4e-3 4.74 0 9.48 0 14.22 1e-3 43.501 3e-3 87.002 5e-3 130.5-3e-3h2.845c12.283-2e-3 24.566-4e-3 36.85-7e-3h2.822c1.879 0 3.758-1e-3 5.637-1e-3 42.854-8e-3 85.708-0.013 128.56-4e-3 0.434 0 0.434 0 2.633 1e-3 18.95 4e-3 37.9 9e-3 56.85 0.016 7.557 2e-3 15.114 5e-3 22.671 7e-3 1.647 0 3.294 1e-3 4.992 2e-3 26.152 7e-3 52.304 2e-3 78.456-9e-3 25.675-0.011 51.35-7e-3 77.025 0.012 15.079 0.011 30.158 0.01 45.236-6e-3 9.991-0.01 19.981-5e-3 29.971 0.011 5.679 0.01 11.357 0.012 17.036-3e-3 5.142-0.013 10.284-8e-3 15.426 0.011 1.854 4e-3 3.708 1e-3 5.562-9e-3 2.5-0.013 5.001 1e-3 7.501 0.016h4.205c3.423 0.501 3.423 0.501 5.869 2.328 2.249 3.143 2.049 5.518 2.04 9.356 6e-3 1.468 0.013 2.937 0.019 4.45-0.014 1.585-0.029 3.171-0.044 4.804 0 0.814 0 0.814-2e-3 4.931-4e-3 3.444-0.02 6.887-0.047 10.33-0.034 4.412-0.042 8.823-0.04 13.235-1e-3 4.21-0.018 8.419-0.036 12.629-2e-3 1.586-4e-3 3.171-6e-3 4.805-0.013 1.468-0.026 2.936-0.039 4.449-4e-3 0.647-4e-3 0.647-0.023 3.92-0.268 3.264-0.268 3.264-2.268 7.264-3.069 1.534-5.956 1.125-9.376 1.125-1.6 3e-3 -3.199 5e-3 -4.847 8e-3 -1.799-2e-3 -3.598-5e-3 -5.397-7e-3 -1.903 1e-3 -3.806 3e-3 -5.709 5e-3 -5.283 4e-3 -10.567 2e-3 -15.85-1e-3 -5.749-3e-3 -11.498 1e-3 -17.247 4e-3 -10.133 4e-3 -20.265 4e-3 -30.398 2e-3 -15.169-3e-3 -30.338-1e-3 -45.508 3e-3 -25.846 6e-3 -51.693 8e-3 -77.54 7e-3 -26.209-1e-3 -52.419 0-78.629 3e-3 -1.669 1e-3 -3.338 1e-3 -5.007 1e-3 -6.731 1e-3 -13.461 2e-3 -20.191 3e-3 -18.975 3e-3 -37.949 5e-3 -56.923 7e-3h-2.635c-49.498 6e-3 -98.995 6e-3 -148.49 7e-3h-22.705-5.691c-42.54 0-85.08 2e-3 -127.62 5e-3 -9.489 1e-3 -18.979 1e-3 -28.468 2e-3h-2.854c-5.718 0-11.436 1e-3 -17.153 1e-3h-8.593c-44.535 3e-3 -89.07 5e-3 -133.6 7e-3h-2.941c-61.852 3e-3 -123.7 4e-3 -185.56 3e-3h-9.126-64.12-18.385-15.336c-96.562-1e-3 -193.12 1e-3 -289.68 0.01h-3.081c-31.768 4e-3 -63.535 7e-3 -95.302 0.01-32.594 4e-3 -65.189 7e-3 -97.783 0.011h-3.041c-62.831 6e-3 -125.66 0.01-188.49 0.012h-2.939c-42.601 0-85.202 1e-3 -127.8 0h-51.412-8.525c-43.489 0-86.977 1e-3 -130.47 7e-3 -0.939 0-1.877 1e-3 -2.844 1e-3 -15.099 2e-3 -30.198 4e-3 -45.297 6e-3 -42.843 6e-3 -85.686 0.011-128.53 9e-3h-2.632c-18.946-1e-3 -37.891-3e-3 -56.837-5e-3 -7.555 0-15.11-1e-3 -22.665-2e-3h-4.99c-26.146-3e-3 -52.292 2e-3 -78.437 9e-3 -25.669 7e-3 -51.338 6e-3 -77.007-1e-3 -15.075-5e-3 -30.15-4e-3 -45.225 5e-3 -9.988 6e-3 -19.976 4e-3 -29.964-3e-3 -5.677-4e-3 -11.354-5e-3 -17.032 2e-3 -5.141 7e-3 -10.281 5e-3 -15.422-4e-3 -1.854-2e-3 -3.707 0-5.56 5e-3 -2.5 7e-3 -5 0-7.5-8e-3h-4.203c-3.424-0.249-3.424-0.249-7.424-2.249-1.493-2.987-1.152-5.717-1.177-9.049-0.012-1.488-0.025-2.977-0.038-4.51-8e-3 -1.618-0.015-3.236-0.023-4.902-4e-3 -0.821-8e-3 -1.642-0.012-2.487-0.021-4.342-0.035-8.685-0.045-13.027-0.011-4.488-0.045-8.976-0.085-13.464-0.026-3.449-0.034-6.897-0.038-10.346-7e-3 -2.46-0.034-4.919-0.06-7.379 3e-3 -1.494 5e-3 -2.989 8e-3 -4.529-5e-3 -1.318-0.011-2.635-0.017-3.993 1.07-7.275 5.481-7.814 12.116-7.815z" fill="#E1AF00"/>
<path transform="translate(963.42 312.85)" d="m0 0c0.563-4e-3 0.563-4e-3 3.412-0.022 1.236-2e-3 2.471-5e-3 3.745-8e-3 0.65-3e-3 0.65-3e-3 3.942-0.02 4.315-0.019 8.63-0.031 12.945-0.041 1.47-4e-3 2.941-8e-3 4.456-0.012 7.779-0.021 15.558-0.036 23.337-0.045 8.051-0.011 16.103-0.046 24.155-0.085 6.177-0.026 12.354-0.035 18.532-0.038 2.969-5e-3 5.938-0.017 8.908-0.035 4.146-0.025 8.293-0.024 12.44-0.017 1.234-0.013 2.468-0.025 3.739-0.039 1.128 7e-3 2.257 0.014 3.42 0.021 0.981-2e-3 1.961-4e-3 2.971-7e-3 3.365 0.647 4.493 1.816 6.577 4.495 1.037 2.987 2.038 5.988 3 9 0.99 1.32 1.98 2.64 3 4 0.773 2.735 0.773 2.735 1.375 5.75 0.946 4.113 1.771 6.482 4.062 10.125 2.985 4.804 4.154 9.298 5.473 14.758 1.183 3.655 2.961 6.191 5.09 9.367 0.871 2.93 0.871 2.93 1.437 5.875 0.923 4.091 1.718 6.372 4 10 2.985 4.804 4.154 9.298 5.473 14.758 1.183 3.655 2.961 6.191 5.09 9.367 0.871 2.93 0.871 2.93 1.437 5.875 0.923 4.091 1.718 6.372 4 10 2.985 4.804 4.154 9.298 5.473 14.758 1.183 3.655 2.961 6.191 5.09 9.367 0.871 2.93 0.871 2.93 1.437 5.875 0.923 4.091 1.718 6.372 4 10 2.985 4.804 4.154 9.298 5.473 14.758 1.183 3.655 2.961 6.191 5.09 9.367 0.871 2.93 0.871 2.93 1.437 5.875 0.923 4.091 1.718 6.372 4 10 2.985 4.804 4.154 9.298 5.473 14.758 1.183 3.655 2.961 6.191 5.09 9.367 0.871 2.93 0.871 2.93 1.437 5.875 0.923 4.091 1.718 6.372 4 10 2.995 4.82 4.098 9.348 5.524 14.797 1.329 4.257 3.662 7.576 6.039 11.328 0.621 2.492 0.621 2.492 1.062 5.125 0.944 4.905 2.184 6.869 4.938 10.875 1.182 3.302 2.084 6.61 3 10h8c0.242-0.762 0.485-1.524 0.734-2.308 1.583-4.875 3.166-9.666 5.328-14.317 1.431-3.229 2.492-6.078 3.438-9.437 0.913-3.223 1.876-5.666 3.437-8.688 1.835-3.781 2.92-7.09 4-11.125 1.442-5.328 3.296-9.848 5.907-14.687 1.669-3.519 2.48-7.163 3.414-10.93 0.742-2.508 0.742-2.508 2.679-5.82 2.581-4.613 3.695-9.257 5.063-14.34 1.21-4.052 3.111-7.569 5-11.348 0.679-2.282 1.322-4.575 1.937-6.875 1.442-5.328 3.296-9.848 5.907-14.687 1.669-3.519 2.48-7.163 3.414-10.93 0.742-2.508 0.742-2.508 2.679-5.82 2.581-4.613 3.695-9.257 5.063-14.34 1.21-4.052 3.111-7.569 5-11.348 0.679-2.282 1.322-4.575 1.937-6.875 1.442-5.328 3.296-9.848 5.907-14.687 1.669-3.519 2.48-7.163 3.414-10.93 0.742-2.508 0.742-2.508 2.679-5.82 2.581-4.613 3.695-9.257 5.063-14.34 1.21-4.052 3.111-7.569 5-11.348 1.043-3.527 1.985-7.064 2.875-10.633 1.125-3.367 1.125-3.367 3.16-6.402 2.123-3.203 2.738-5.522 3.402-9.277 0.88-4.237 1.846-7.656 4.063-11.375 2.037-3.513 3.091-5.941 4.125-9.75 1.375-4.563 1.375-4.563 4.375-6.563 2.466-0.254 2.466-0.254 5.459-0.261 1.134-7e-3 2.268-0.014 3.437-0.021 0.623 1e-3 0.623 1e-3 3.774 8e-3 1.31-6e-3 2.621-0.011 3.972-0.016 4.347-0.014 8.694-0.013 13.042-0.011 3.012-3e-3 6.025-8e-3 9.038-0.013 6.321-7e-3 12.642-7e-3 18.963-2e-3 8.112 6e-3 16.224-0.011 24.336-0.034 6.224-0.015 12.448-0.015 18.672-0.012 2.991-1e-3 5.983-6e-3 8.974-0.016 4.178-0.012 8.356-6e-3 12.534 6e-3 0.622-4e-3 0.622-4e-3 3.767-0.023 0.569 3e-3 0.569 3e-3 3.446 0.021 0.988 0 1.976 0 2.994-1e-3 2.592 0.375 2.592 0.375 6.592 3.375 0.501 3.396 0.501 3.396 0.503 7.732 0.011 1.649 0.021 3.297 0.032 4.995-9e-3 1.844-0.018 3.689-0.027 5.533 5e-3 1.947 0.011 3.894 0.019 5.842 0.017 5.369 8e-3 10.738-4e-3 16.107-9e-3 5.783 5e-3 11.566 0.016 17.35 0.018 11.336 0.014 22.673 2e-3 34.009-9e-3 9.21-0.01 18.42-6e-3 27.63 1e-3 1.309 1e-3 2.617 2e-3 3.966 1e-3 2.658 3e-3 5.316 4e-3 7.974 0.011 24.952-2e-3 49.903-0.023 74.854-0.018 21.429-0.015 42.858 3e-3 64.286 0.022 24.86 0.03 49.719 0.018 74.578-1e-3 2.649-3e-3 5.298-4e-3 7.946 0 0.652 0 0.652-2e-3 3.95-3e-3 9.203 3e-3 18.407 0.012 27.61 0.011 11.21 8e-3 22.419-0.013 33.628-0.01 5.724-0.015 11.448-1e-3 17.172 0.012 5.233 5e-3 10.466-0.016 15.699-5e-3 1.9-2e-3 3.799 7e-3 5.699 0.012 2.569-2e-3 5.139-0.019 7.708 0 1.431-1e-3 2.862-2e-3 4.337-0.501 3.395-0.501 3.395-4.501 6.395-3.902 0.374-3.902 0.374-8.728 0.372-0.88 4e-3 -1.761 8e-3 -2.667 0.012-2.909 8e-3 -5.817-6e-3 -8.726-0.021-2.023 0-4.045 0-6.068 2e-3 -4.239 0-8.478-0.011-12.717-0.029-5.432-0.022-10.864-0.023-16.296-0.016-4.177 3e-3 -8.354-3e-3 -12.531-0.013-2.002-4e-3 -4.005-5e-3 -6.008-4e-3 -2.8 1e-3 -5.601-0.012-8.401-0.028-1.594-5e-3 -3.187-9e-3 -4.829-0.014-3.742-0.242-7.258-0.49-10.029-3.261-0.098-3.413-0.13-6.805-0.12-10.218-1e-3 -0.544-1e-3 -0.544-3e-3 -3.295-2e-3 -3.673 4e-3 -7.345 9e-3 -11.018 1e-3 -2.621 1e-3 -5.242 0-7.863 0-7.14 6e-3 -14.28 0.013-21.42 6e-3 -7.453 6e-3 -14.905 8e-3 -22.358 3e-3 -14.124 0.011-28.248 0.021-42.372 0.011-16.074 0.017-32.149 0.022-48.224 0.01-33.077 0.028-66.154 0.05-99.232-4.383 0.781-4.383 0.781-9 2-1.875 3.5-1.875 3.5-3 8-0.49 1.711-0.99 3.42-1.5 5.125-0.248 0.851-0.495 1.702-0.75 2.578-0.75 2.297-0.75 2.297-2.25 5.172-1.461 3.044-2.139 5.657-2.875 8.938-1.122 4.793-2.795 8.419-5.371 12.648-2.168 4.391-3.052 9.155-4.219 13.891-1.168 4.118-2.84 7.571-4.879 11.312-1.602 3.237-2.459 6.579-3.414 10.051-0.742 2.285-0.742 2.285-2.68 5.535-2.553 4.644-3.69 9.304-5.062 14.403-1.21 4.051-3.111 7.569-5 11.347-1.043 3.527-1.985 7.065-2.875 10.633-1.125 3.367-1.125 3.367-3.164 6.414-2.098 3.159-2.695 5.373-3.336 9.078-1.223 5.896-3.318 10.55-6.145 15.832-2.043 4.201-3.261 8.527-4.543 13.008-0.844 2.734-1.841 5.204-3.062 7.785-1.875 4.25-1.875 4.25-2.813 8.938-1.062 4.312-1.062 4.312-3.5 7-3.389 4.382-3.759 8.431-4.757 13.804-0.929 4.049-2.491 7.134-4.481 10.743-2.304 4.812-3.609 9.96-5.133 15.062-1.335 4.15-3.191 7.837-5.191 11.703-0.529 1.7-1.028 3.409-1.5 5.125-0.898 3.227-1.626 5.059-3.563 7.875-1.952 3.023-2.404 4.774-3 8.25-0.309 1.568-0.618 3.135-0.937 4.75-3.89 2.593-6.025 2.209-10.695 2.141-0.819-9e-3 -1.637-0.018-2.481-0.027-1.877-0.021-3.754-0.045-5.63-0.073-3.494-0.045-6.988-0.063-10.482-0.078-6.787-0.031-13.573-0.094-20.36-0.17-2.843-0.029-5.686-0.05-8.529-0.064-4.147-0.021-8.293-0.068-12.44-0.119-1.271-2e-3 -2.542-3e-3 -3.851-4e-3 -1.18-0.02-2.359-0.04-3.574-0.06-0.517-4e-3 -0.517-4e-3 -3.131-0.027-3.558-0.653-5.233-2.046-7.827-4.519-3.709-6.054-5.553-12.757-7.254-19.59-0.746-2.41-0.746-2.41-2.746-5.285-2.137-3.339-2.661-5.705-3.438-9.562-1.172-5.679-3.143-8.861-6.562-13.563-0.841-2.779-1.433-5.577-2.055-8.414-1.561-5.922-3.94-11.52-6.226-17.191-1.202-3.072-2.266-6.06-3.25-9.196-1.469-4.199-1.469-4.199-4.469-8.199-0.882-2.35-1.687-4.729-2.438-7.125-1.696-5.283-3.534-10.415-5.664-15.535-0.96-2.5-1.685-5.009-2.398-7.59-1.5-4.75-1.5-4.75-3.5-7.562-2.113-3.368-2.658-5.76-3.438-9.625-1.172-5.679-3.143-8.861-6.562-13.563-0.841-2.779-1.433-5.577-2.055-8.414-1.561-5.922-3.94-11.52-6.226-17.191-1.202-3.072-2.266-6.06-3.25-9.196-1.469-4.199-1.469-4.199-4.469-8.199-0.882-2.35-1.687-4.729-2.438-7.125-1.696-5.283-3.534-10.415-5.664-15.535-0.96-2.5-1.685-5.009-2.398-7.59-1.5-4.75-1.5-4.75-3.5-7.625-2.034-3.177-2.632-5.358-3.438-9-0.935-4.19-1.721-6.37-4.125-10.062-3.292-5.487-3.795-10.774-4.437-17.063h-8c-1.214 13.322-1.083 26.596-0.99 39.956 0.013 2.498 0.026 4.996 0.039 7.494 0.027 5.352 0.058 10.703 0.092 16.054 0.052 8.458 0.095 16.916 0.136 25.374 0.12 24.041 0.252 48.083 0.392 72.124 0.077 13.299 0.147 26.598 0.209 39.898 0.04 8.412 0.089 16.825 0.145 25.238 0.033 5.219 0.057 10.439 0.079 15.658 0.011 2.425 0.027 4.851 0.046 7.276 0.025 3.302 0.038 6.603 0.048 9.905 0.01 0.967 0.021 1.933 0.031 2.929 1e-3 4.468-0.192 7.024-2.227 11.094-3.35 1.675-7.125 1.138-10.808 1.13-0.457 0-0.457 0-2.765 5e-3 -3.026 4e-3 -6.053 1e-3 -9.079-2e-3 -2.098 1e-3 -4.195 2e-3 -6.293 3e-3 -4.401 1e-3 -8.801-1e-3 -13.202-5e-3 -5.647-6e-3 -11.295-3e-3 -16.942 3e-3 -4.333 4e-3 -8.666 3e-3 -12.999 0-2.083-1e-3 -4.165 0-6.248 2e-3 -2.908 3e-3 -5.817-1e-3 -8.726-6e-3 -0.865 2e-3 -1.73 4e-3 -2.622 6e-3 -3.356-0.012-6.11-0.067-9.316-1.136-1.562-3.124-1.125-6.135-1.126-9.612-2e-3 -1.647-5e-3 -3.294-8e-3 -4.99 2e-3 -1.848 5e-3 -3.696 7e-3 -5.544-1e-3 -1.947-3e-3 -3.894-5e-3 -5.841-4e-3 -5.374-2e-3 -10.747 1e-3 -16.12 3e-3 -5.786-1e-3 -11.572-4e-3 -17.358-4e-3 -11.344-3e-3 -22.687 0-34.031 2e-3 -9.215 2e-3 -18.43 1e-3 -27.646v-3.967c-1e-3 -2.659-1e-3 -5.318-1e-3 -7.977-3e-3 -24.962 0-49.925 6e-3 -74.887 4e-3 -21.442 3e-3 -42.884-1e-3 -64.326-6e-3 -24.87-8e-3 -49.74-5e-3 -74.61 1e-3 -2.65 1e-3 -5.3 1e-3 -7.949 0-1.304 0-2.608 1e-3 -3.951 1e-3 -9.209-1e-3 -18.419-3e-3 -27.628-3e-3 -11.216-2e-3 -22.431 3e-3 -33.647 3e-3 -5.728 4e-3 -11.455 0-17.183-3e-3 -5.236-1e-3 -10.471 4e-3 -15.707 1e-3 -1.901 1e-3 -3.803-2e-3 -5.705-3e-3 -2.569 1e-3 -5.139 5e-3 -7.709 0-1.432 0-2.864 1e-3 -4.339 0.125-3.273 0.125-3.273 1.125-5.273 3.078-1.026 5.196-1.133 8.421-1.147z"/>
<path transform="translate(551.5 312.63)" d="m0 0c1.476 0 2.951 0 4.472 1e-3 0.821-4e-3 1.643-8e-3 2.489-0.013 2.763-9e-3 5.526 3e-3 8.29 0.014 1.977-2e-3 3.955-6e-3 5.933-0.011 5.385-9e-3 10.771 0 16.156 0.014 5.647 0.011 11.293 7e-3 16.94 5e-3 9.502-1e-3 19.005 0.01 28.507 0.029 10.943 0.021 21.885 0.024 32.828 0.018 10.554-6e-3 21.107 0 31.66 0.011 4.474 5e-3 8.949 6e-3 13.423 4e-3 5.297-2e-3 10.593 6e-3 15.89 0.022 1.928 4e-3 3.856 5e-3 5.784 2e-3 33.039-0.041 33.039-0.041 46.73 5.275 5.693 1.682 11.589 2.196 17.484 2.789 6.089 0.685 10.481 2.198 15.915 5.215 3.04 1.264 6.098 2.465 9.168 3.656 2.832 1.344 2.832 1.344 5.07 3.25 2.762 2.094 2.762 2.094 7.402 3.715 6.759 2.574 11.15 7.327 16.11 12.441 0.906 0.892 1.812 1.783 2.746 2.701 5.854 5.927 9.818 11.807 13.504 19.237 0.999 1.667 1.999 3.334 3 5 0.691 1.711 1.337 3.442 1.937 5.187 1.233 3.549 2.575 6.955 4.125 10.375 2.441 6.013 3.187 12.271 4.149 18.656 0.769 4.665 1.798 9.189 2.914 13.782 2.027 9.046 2.732 17.753 2.875 27 0.026 1.266 0.051 2.533 0.078 3.838 0.802 43.845 0.802 43.845-6.078 62.162-0.522 2.947-0.979 5.907-1.375 8.875-0.987 6.355-2.225 11.292-5.442 16.828-1.354 2.628-1.964 5.107-2.621 7.984-1.322 5.34-3.771 8.289-7.562 12.313-1.359 2.318-2.695 4.651-4 7-0.681 0.845-1.361 1.691-2.063 2.562-1.937 2.438-1.937 2.438-3.312 5.438-1.982 3.659-4.359 5.452-7.625 8-0.382 0.402-0.382 0.402-2.313 2.437-4.119 3.928-8.881 7.248-14.047 9.668-2.203 1.082-2.203 1.082-5.64 3.895-1.601 5.733-0.452 10.674 2.312 15.812 0.46 0.811 0.921 1.622 1.395 2.457 1.524 3.219 2.139 6.233 2.793 9.731 0.843 4.444 1.812 8.041 4 12 2.776 5.024 3.625 10.024 4.687 15.625 0.765 3.176 1.742 5.533 3.313 8.375 2.776 5.024 3.625 10.024 4.687 15.625 0.765 3.176 1.742 5.533 3.313 8.375 2.776 5.024 3.625 10.024 4.687 15.625 0.765 3.176 1.742 5.533 3.313 8.375 2.776 5.024 3.625 10.024 4.687 15.625 0.765 3.176 1.742 5.533 3.313 8.375 2.775 5.022 3.625 10.018 4.683 15.617 0.981 4.065 2.678 7.246 4.696 10.875 1.312 2.936 1.71 5.573 2.121 8.758 0.688 5.317 2.325 7.777 6 11.75l-1 4c-4.729 2.364-7.579 2.253-12.852 2.259-0.893 3e-3 -1.786 7e-3 -2.706 0.01-2.951 9e-3 -5.902 3e-3 -8.852-4e-3l-6.15 6e-3c-4.294 3e-3 -8.589-1e-3 -12.884-0.011-5.51-0.011-11.021-4e-3 -16.531 8e-3 -4.232 7e-3 -8.464 5e-3 -12.696-1e-3 -2.032-1e-3 -4.064 1e-3 -6.096 5e-3 -2.837 5e-3 -5.674-2e-3 -8.511-0.013-1.615-2e-3 -3.231-4e-3 -4.896-5e-3 -3.826-0.254-3.826-0.254-6.826-2.254-1.063-2.461-1.063-2.461-2-5.375-1.308-4.045-2.359-6.103-5-9.625-0.774-2.989-0.774-2.989-1.375-6.313-1.207-5.718-3.181-8.951-6.625-13.687-0.872-3.009-1.521-6.034-2.188-9.094-0.812-2.906-0.812-2.906-3.312-6.844-2.389-3.881-3.124-6.252-4-10.625-1.138-5.639-3.106-8.771-6.5-13.437-0.876-2.985-1.524-5.985-2.188-9.024-0.785-2.875-1.767-4.947-3.312-7.476-2.103-3.455-3.123-6.551-4-10.5-1.091-4.898-2.754-8.55-5.321-12.824-1.569-2.895-2.371-5.942-3.234-9.106-1.741-5.653-4.039-11.113-6.226-16.605-1.156-3.001-2.23-6.033-3.227-9.09-1.363-3.996-2.906-7.581-4.867-11.313-0.565-1.102-1.129-2.204-1.711-3.34-2.227-3.167-3.275-3.619-6.914-4.722-3.031-0.241-3.031-0.241-6.443-0.227h-3.882c-0.687 5e-3 -0.687 5e-3 -4.164 0.031-0.706 2e-3 -0.706 2e-3 -4.283 9e-3 -4.513 0.011-9.027 0.036-13.541 0.062-3.06 0.01-6.121 0.019-9.181 0.027-7.502 0.022-15.004 0.056-22.506 0.098-0.955 3.819-1.13 6.773-1.138 10.687-6e-3 1.381-0.011 2.762-0.017 4.185-1e-3 1.514-2e-3 3.029-3e-3 4.589-8e-3 2.449-0.016 4.898-0.023 7.346-8e-3 2.632-0.014 5.264-0.018 7.896-0.011 5.483-0.031 10.966-0.054 16.449-0.061 15.591-0.116 31.182-0.149 46.773-0.018 8.611-0.047 17.222-0.088 25.834-0.021 4.558-0.036 9.116-0.038 13.674-3e-3 5.078-0.028 10.156-0.056 15.235 2e-3 0.758 2e-3 0.758 9e-3 4.595-5e-3 0.689-5e-3 0.689-0.033 4.177-4e-3 1.201-7e-3 2.403-0.01 3.641-0.382 2.919-0.382 2.919-3.382 5.919-3.102 0.296-6.003 0.409-9.106 0.388-0.466 3e-3 -0.466 3e-3 -2.824 0.016-3.086 0.013-6.172 4e-3 -9.258-6e-3 -2.141 2e-3 -4.281 5e-3 -6.422 9e-3 -4.489 4e-3 -8.978-2e-3 -13.467-0.016-5.761-0.017-11.521-7e-3 -17.282 0.011-4.421 0.01-8.842 7e-3 -13.264-1e-3 -2.124-2e-3 -4.249 1e-3 -6.373 8e-3 -2.966 7e-3 -5.932-4e-3 -8.899-0.021-0.441 3e-3 -0.441 3e-3 -2.673 0.018-6.089-0.063-6.089-0.063-9.432-3.406-0.376-3.396-0.376-3.396-0.378-7.732-4e-3 -0.825-4e-3 -0.825-0.023-4.995 6e-3 -1.844 0.013-3.689 0.02-5.533-4e-3 -1.947-8e-3 -3.895-0.014-5.842-0.013-5.369-7e-3 -10.738 3e-3 -16.107 6e-3 -5.783-4e-3 -11.566-0.012-17.35-0.014-11.336-0.011-22.673-2e-3 -34.009 7e-3 -9.21 8e-3 -18.42 4e-3 -27.63 0-1.309-1e-3 -2.617-1e-3 -3.966l-3e-3 -7.974c-9e-3 -24.952 1e-3 -49.903 0.017-74.854 0.014-21.429 0.011-42.858-2e-3 -64.287-0.016-24.859-0.023-49.718-0.013-74.577 0-2.649 1e-3 -5.298 2e-3 -7.947 1e-3 -1.303 1e-3 -2.606 2e-3 -3.949 2e-3 -9.204-2e-3 -18.407-9e-3 -27.61-9e-3 -11.21-6e-3 -22.419 0.01-33.628 8e-3 -5.724 0.011-11.448 1e-3 -17.172-9e-3 -5.233-4e-3 -10.466 0.012-15.699 3e-3 -1.9 1e-3 -3.799-6e-3 -5.699-9e-3 -2.569 2e-3 -5.139 0.014-7.708 1e-3 -1.431 1e-3 -2.862 2e-3 -4.337 0.539-4.87 2.023-6.25 6.875-6.77zm95.501 104.38c-0.297 3.221-0.41 6.249-0.388 9.472-6e-3 0.971-0.011 1.942-0.016 2.943-0.014 3.216-5e-3 6.431 5e-3 9.647-2e-3 2.231-5e-3 4.461-8e-3 6.692-5e-3 4.677 2e-3 9.354 0.016 14.032 0.017 6.003 7e-3 12.005-0.011 18.008-0.011 4.606-7e-3 9.213 0 13.82 2e-3 2.213 0 4.427-7e-3 6.641-8e-3 3.091 4e-3 6.181 0.021 9.272-6e-3 0.92-0.013 1.839-0.019 2.787 0.064 6.343 0.064 6.343 3.407 9.686 3.752 1.876 8.375 1.16 12.517 1.164 0.547 3e-3 0.547 3e-3 3.317 0.015 10.117 0.036 20.234 0.015 30.351-0.022 6.797-0.025 13.592-0.032 20.389 4e-3 6.571 0.034 13.14 0.024 19.711-0.016 2.5-8e-3 5.001-1e-3 7.501 0.022 22.027 0.184 22.027 0.184 29.183-5.535 3.129-3.248 5.799-6.704 8.031-10.632 0.682-0.755 1.364-1.51 2.066-2.288 2.317-3.249 2.435-4.909 2.435-8.86 0.01-1.219 0.019-2.437 0.029-3.692-0.011-1.308-0.023-2.617-0.034-3.965 1e-3 -1.352 3e-3 -2.705 4e-3 -4.098-1e-3 -2.86-0.013-5.72-0.034-8.579-0.029-4.37-0.02-8.738-7e-3 -13.108-6e-3 -2.78-0.015-5.56-0.026-8.34 3e-3 -1.304 6e-3 -2.609 9e-3 -3.953-0.101-9.808-1.948-16.494-8.442-24.117-2.911-1.897-5.902-3.407-9-5l-3-3c-5.812-2.252-11.513-2.29-17.661-2.275-1.05-5e-3 -2.1-0.01-3.181-0.015-3.454-0.014-6.907-0.013-10.361-0.011-2.405-4e-3 -4.809-8e-3 -7.213-0.013-5.03-7e-3 -10.06-7e-3 -15.09-2e-3 -6.456 6e-3 -12.911-0.011-19.366-0.034-4.96-0.015-9.92-0.016-14.881-0.013-2.381 0-4.762-6e-3 -7.143-0.016-3.32-0.012-6.64-5e-3 -9.961 6e-3 -0.988-7e-3 -1.976-0.015-2.994-0.023-6.807 0.053-6.807 0.053-10.149 3.396z"/>
<path transform="translate(1992.8 312.87)" d="m0 0c1.636-4e-3 3.271-9e-3 4.956-0.013 1.816 0 3.633 1e-3 5.449 1e-3 1.91-3e-3 3.821-6e-3 5.731-0.01 5.198-9e-3 10.395-0.011 15.592-0.012 3.253 0 6.506-2e-3 9.759-5e-3 11.369-9e-3 22.738-0.013 34.106-0.013 10.562 1e-3 21.124-9e-3 31.686-0.025 9.088-0.013 18.176-0.019 27.264-0.018 5.419 0 10.837-3e-3 16.255-0.013 5.111-0.01 10.222-0.01 15.333-3e-3 1.861 1e-3 3.722-1e-3 5.583-7e-3 16.215-0.05 31.923 0.657 47.559 5.248 4.532 1.168 9.082 1.852 13.707 2.504 5.987 0.893 11.297 1.871 16.793 4.402 2.969 1.361 6.012 2.426 9.082 3.535 5.06 1.932 8.994 4.26 13.313 7.563 1.196 0.515 2.392 1.031 3.625 1.562 6.832 3.277 12.052 9.18 17.375 14.438 0.843 0.83 1.686 1.66 2.555 2.515 8.174 8.542 13.956 18.74 17.558 29.985 0.887 2.5 0.887 2.5 2.367 5.168 2.012 4.411 2.737 8.898 3.52 13.644 0.167 0.968 0.335 1.935 0.507 2.932 0.341 1.972 0.678 3.945 1.011 5.919 0.443 2.607 0.901 5.211 1.369 7.813 4.307 23.997 4.364 47.885 4.675 72.211 0.011 0.784 0.011 0.784 0.064 4.749 0.556 42.438 0.724 84.877-1e-3 127.31-0.015 1.021-0.031 2.043-0.046 3.095-0.267 16.949-1.336 33.777-3.966 50.541-0.519 3.48-0.962 6.954-1.383 10.446-1.671 13.251-3.734 23.895-10.23 35.668-0.557 1.526-1.114 3.052-1.688 4.625-1.357 3.49-2.938 5.512-5.312 8.375-0.355 0.681-0.355 0.681-2.148 4.129-2.844 5.185-6.482 9.168-10.602 13.371-0.713 0.739-1.426 1.478-2.161 2.239-1.401 1.45-2.807 2.896-4.217 4.337-1.542 1.585-3.058 3.194-4.567 4.81-4.284 4.522-8.545 7.778-14.043 10.727-2.262 1.387-2.262 1.387-4.09 3.426-2.972 2.683-5.731 3.135-9.61 4.023-7.119 1.647-7.119 1.647-9.847 3.434-7.096 3.93-16.064 3.798-24.002 3.758-0.973 3e-3 -1.947 6e-3 -2.95 9e-3 -3.23 8e-3 -6.459 2e-3 -9.688-4e-3 -2.329 2e-3 -4.657 6e-3 -6.986 0.01-6.299 9e-3 -12.598 6e-3 -18.897-1e-3 -6.597-5e-3 -13.195 0-19.792 3e-3 -11.071 4e-3 -22.142-1e-3 -33.213-0.011-12.803-0.01-25.606-7e-3 -38.409 4e-3 -10.998 9e-3 -21.996 0.01-32.994 5e-3 -6.567-3e-3 -13.134-3e-3 -19.7 3e-3 -6.168 6e-3 -12.335 2e-3 -18.503-9e-3 -2.265-3e-3 -4.53-2e-3 -6.795 2e-3 -3.087 5e-3 -6.174-1e-3 -9.261-0.011-0.9 4e-3 -1.801 9e-3 -2.728 0.013-9.59-0.06-9.59-0.06-12.797-3.267-0.1-2.495-0.127-4.992-0.129-7.489-3e-3 -1.645-6e-3 -3.29-9e-3 -4.985 1e-3 -1.851 3e-3 -3.701 4e-3 -5.552-2e-3 -1.946-4e-3 -3.893-7e-3 -5.839-6e-3 -5.375-6e-3 -10.751-4e-3 -16.126 0-5.787-6e-3 -11.574-0.01-17.36-9e-3 -11.348-0.012-22.695-0.012-34.042-1e-3 -9.218-3e-3 -18.436-6e-3 -27.654-9e-3 -26.103-0.013-52.207-0.012-78.31v-4.269-4.274c0-22.871-9e-3 -45.742-0.023-68.612-0.015-23.453-0.022-46.905-0.021-70.357 0-13.179-2e-3 -26.359-0.013-39.538-9e-3 -11.219-0.011-22.439-5e-3 -33.658 4e-3 -5.73 4e-3 -11.459-5e-3 -17.189-8e-3 -5.238-6e-3 -10.475 2e-3 -15.712 2e-3 -1.903 0-3.805-5e-3 -5.708-7e-3 -2.57-1e-3 -5.141 6e-3 -7.712 0-1.432 0-2.865-1e-3 -4.341 0.25-3.273 0.25-3.273 2.25-5.273 4.157-1.04 7.551-1.129 11.832-1.134zm86.913 102.5c-2.74 4.135-2.295 8.466-2.253 13.262-6e-3 1.095-0.012 2.19-0.019 3.318-0.016 3.682-3e-3 7.364 9e-3 11.046-5e-3 2.634-0.012 5.269-0.021 7.903-0.018 7.165-0.011 14.33 2e-3 21.496 0.01 7.488 0 14.976-6e-3 22.464-7e-3 12.576 2e-3 25.152 0.021 37.729 0.022 14.553 0.015 29.106-7e-3 43.659-0.018 12.481-0.021 24.961-0.01 37.442 6e-3 7.461 7e-3 14.921-6e-3 22.382-0.012 7.012-4e-3 14.025 0.019 21.038 6e-3 2.578 4e-3 5.157-5e-3 7.735-0.011 3.511 3e-3 7.021 0.023 10.531-9e-3 1.029-0.018 2.057-0.027 3.117 0.076 6.811 0.076 6.811 2.262 10.144 4.075 2.451 8.753 1.92 13.372 1.885 1.132 7e-3 2.264 0.014 3.431 0.022 3.748 0.017 7.495 5e-3 11.243-8e-3 2.603 3e-3 5.207 7e-3 7.81 0.012 5.459 5e-3 10.918-3e-3 16.377-0.022 6.997-0.023 13.993-9e-3 20.99 0.014 5.377 0.015 10.754 0.01 16.131 0 2.58-3e-3 5.159 1e-3 7.739 0.01 3.608 0.01 7.214-5e-3 10.822-0.028 1.066 8e-3 2.132 0.016 3.231 0.025 7.271-0.083 11.07-1.55 16.357-6.726 0.646-0.744 1.292-1.487 1.957-2.254 0.654-0.741 1.308-1.482 1.981-2.246 4.211-5.324 5.884-9.857 6.144-16.644 0.041-1.063 0.083-2.126 0.125-3.221 0.039-1.148 0.078-2.296 0.118-3.479 0.021-0.6 0.021-0.6 0.127-3.64 0.42-12.965 0.47-25.924 0.443-38.895-1e-3 -1.254-2e-3 -2.509-3e-3 -3.801-0.014-17.545-0.25-35.072-0.694-52.611-0.381-15.455-0.468-30.903-0.459-46.361 0-0.494 0-0.494 1e-3 -2.993 7e-3 -10.041 0.025-20.083 0.058-30.124 0.012-3.792 0.02-7.584 0.027-11.377 7e-3 -2.632 0.02-5.265 0.033-7.897 0.047-23.367 0.047-23.367-9.401-33.836-9.3-8.435-14.526-10.58-27.197-10.614-0.529-4e-3 -0.529-4e-3 -3.204-0.02-3.493-0.02-6.985-0.032-10.477-0.042-1.193-4e-3 -2.386-8e-3 -3.616-0.012-6.306-0.021-12.613-0.035-18.92-0.044-6.523-0.012-13.045-0.046-19.568-0.086-5.011-0.026-10.022-0.034-15.032-0.038-2.406-5e-3 -4.811-0.016-7.217-0.035-3.358-0.024-6.716-0.023-10.075-0.016-0.499-7e-3 -0.499-7e-3 -3.022-0.039-6.602 0.05-6.602 0.05-9.614 1.875z"/>
<path transform="translate(86.405 847.75)" d="m0 0c0.485-1e-3 0.485-1e-3 2.939-9e-3 3.282-7e-3 6.563 0 9.845 6e-3 2.374-2e-3 4.748-5e-3 7.122-9e-3 6.573-9e-3 13.146-5e-3 19.719 1e-3 7.132 4e-3 14.264-4e-3 21.396-9e-3 12.516-9e-3 25.033-0.011 37.549-7e-3 13.434 4e-3 26.868 3e-3 40.302-2e-3 0.848-1e-3 1.695-1e-3 2.569-1e-3 3.451-2e-3 6.903-3e-3 10.355-5e-3 35.069-0.016 70.139-0.018 105.21-0.016 4.849 1e-3 9.698 1e-3 14.546 1e-3h2.919c21.323 2e-3 42.646-1e-3 63.97-4e-3 4.866-1e-3 9.732-2e-3 14.598-3e-3h5.858c0.968-1e-3 1.936-1e-3 2.934-1e-3 1.958 0 3.916 0 5.874-1e-3 55.571-8e-3 111.14-0.013 166.71-9e-3h3.119c11.481 1e-3 22.961 2e-3 34.442 3e-3h3.141c8.614 1e-3 8.614 1e-3 12.575 1e-3 66.316 6e-3 132.63-2e-3 198.95-0.02 16.711-5e-3 33.422-0.01 50.132-0.014 1.029 0 2.058-1e-3 3.118-1e-3 31.695-8e-3 63.391-0.013 95.086-0.014h3.014c21.832 0 43.665 0 65.497 1e-3 7.811 1e-3 15.622 1e-3 23.433 1e-3h5.83c31.003 2e-3 62.005-5e-3 93.007-0.017 32.079-0.011 64.158-0.012 96.237 0 3.441 2e-3 6.882 3e-3 10.323 4e-3 0.844 0 1.689 1e-3 2.559 1e-3 14.217 4e-3 28.434-3e-3 42.651-0.013 12.344-8e-3 24.688-6e-3 37.032 6e-3 7.047 6e-3 14.094 7e-3 21.141-4e-3 6.399-0.011 12.798-7e-3 19.197 7e-3 2.312 3e-3 4.624 0 6.935-8e-3 3.12-9e-3 6.238-1e-3 9.357 0.012 0.906-7e-3 1.812-0.015 2.745-0.022 4.984 0.044 6.512 0.286 10.66 3.397 0.737 5.731-0.826 10.96-2.375 16.437-0.446 1.624-0.891 3.248-1.336 4.871-0.425 1.549-0.851 3.097-1.289 4.692-1.546 5.641-2.377 10.986-2.875 16.812-0.658 6.337-1.664 11.722-4.117 17.582-1.527 3.949-2.333 8.036-3.199 12.172-0.809 2.434-0.809 2.434-3.809 4.434-3.096 0.194-6.102 0.268-9.198 0.252-0.96 3e-3 -1.92 6e-3 -2.909 9e-3 -3.253 7e-3 -6.506 0-9.759-7e-3 -2.351 3e-3 -4.702 6e-3 -7.053 0.01-6.513 9e-3 -13.027 5e-3 -19.54-1e-3 -7.066-4e-3 -14.133 3e-3 -21.199 9e-3 -12.401 9e-3 -24.803 0.01-37.205 7e-3 -13.312-4e-3 -26.624-4e-3 -39.936 2e-3 -0.84 0-1.679 1e-3 -2.545 1e-3 -3.419 2e-3 -6.839 3e-3 -10.259 5e-3 -34.748 0.015-69.496 0.018-104.24 0.015-4.804 0-9.609 0-14.414-1e-3h-2.891c-21.128-1e-3 -42.256 2e-3 -63.383 5e-3 -4.821 1e-3 -9.642 1e-3 -14.463 2e-3 -1.935 1e-3 -3.87 1e-3 -5.805 1e-3 -0.959 0-1.918 0-2.906 1e-3h-5.819c-55.059 9e-3 -110.12 0.014-165.18 0.01-1.02-1e-3 -2.04-1e-3 -3.091-1e-3 -11.376-1e-3 -22.751-1e-3 -34.126-2e-3 -1.027-1e-3 -2.054-1e-3 -3.112-1e-3 -8.535 0-8.535 0-12.461-1e-3 -65.708-5e-3 -131.42 2e-3 -197.12 0.021-16.557 5e-3 -33.115 9e-3 -49.672 0.014-1.02 0-2.039 0-3.09 1e-3 -31.403 8e-3 -62.807 0.013-94.211 0.014h-2.986c-21.63 0-43.26 0-64.89-1e-3 -7.74-1e-3 -15.479-1e-3 -23.218-2e-3h-5.776c-30.718-1e-3 -61.437 6e-3 -92.155 0.017-31.785 0.012-63.57 0.012-95.355 0-3.409-1e-3 -6.818-2e-3 -10.227-3e-3 -0.836-1e-3 -1.673-1e-3 -2.535-1e-3 -14.088-5e-3 -28.177 3e-3 -42.265 0.013-12.23 8e-3 -24.461 6e-3 -36.691-6e-3 -6.983-6e-3 -13.966-8e-3 -20.949 4e-3 -6.339 0.01-12.679 7e-3 -19.018-7e-3 -2.292-3e-3 -4.583-1e-3 -6.875 7e-3 -3.089 0.01-6.178 2e-3 -9.267-0.011-0.9 7e-3 -1.8 0.014-2.727 0.022-6.129-0.055-6.129-0.055-9.472-3.397-1.025-4.195-1.131-8.28-1.145-12.585-7e-3 -1.288-0.013-2.576-0.02-3.903-1e-3 -1.378-2e-3 -2.756-3e-3 -4.176-3e-3 -1.425-7e-3 -2.85-0.01-4.318-5e-3 -3.007-7e-3 -6.015-7e-3 -9.022-2e-3 -4.611-0.021-9.221-0.04-13.832-2e-3 -2.922-4e-3 -5.844-5e-3 -8.766-8e-3 -1.382-0.015-2.764-0.022-4.189 1e-3 -0.64 1e-3 -0.64 9e-3 -3.883-1e-3 -1.128-3e-3 -2.256-4e-3 -3.418 0.247-2.908 0.247-2.908 2.247-6.908 4.663-2.332 8.332-2.278 13.405-2.252z" fill="#E1AF00"/>
<path transform="translate(220.95 312.86)" d="m0 0c1.244-6e-3 2.487-0.011 3.769-0.017 0.683-1e-3 0.683-1e-3 4.142-4e-3 0.718-2e-3 0.718-2e-3 4.356-0.015 4.769-0.014 9.538-0.021 14.308-0.027 3.304-5e-3 6.608-0.011 9.913-0.017 6.046-0.01 12.092-0.015 18.138-0.018 8.904-5e-3 17.807-0.022 26.711-0.051 7.708-0.025 15.416-0.032 23.125-0.034 3.282-3e-3 6.563-0.011 9.845-0.024 4.583-0.017 9.165-0.016 13.748-9e-3 1.365-9e-3 2.73-0.018 4.136-0.028 0.623 3e-3 0.623 3e-3 3.777 0.017 1.084-2e-3 2.168-3e-3 3.284-4e-3 2.796 0.371 2.796 0.371 6.796 3.371 0.617 2.715 0.617 2.715 0.875 5.938 0.607 4.955 1.633 8.518 4.062 12.875 3.245 5.941 4.218 11.593 5.285 18.23 0.967 4.921 2.683 9.267 4.59 13.887 1.51 3.905 2.432 7.842 3.375 11.914 0.923 3.586 2.098 7.034 3.313 10.531 1.716 4.997 3.047 9.878 4.062 15.063 0.794 4.023 1.537 6.755 3.438 10.437 1.989 4.104 2.642 7.219 3.375 11.688 1.199 7.112 3.381 13.159 6.21 19.766 1.838 4.771 2.754 9.545 3.707 14.554 0.774 3.409 2.125 6.317 3.672 9.442 2.019 5.217 2.854 10.795 3.911 16.273 1.167 4.567 3.02 8.202 5.125 12.402 0.835 3.754 0.835 3.754 1.375 7.563 1.2 7.15 3.431 13.2 6.281 19.836 1.69 4.53 2.222 8.872 2.793 13.648 0.558 2.992 1.412 4.901 2.926 7.516 2.71 4.85 3.65 9.838 4.625 15.25 1.284 7.131 3.023 13.527 5.843 20.234 1.561 3.986 2.452 8.044 3.41 12.207 0.879 3.234 2.333 6.078 3.786 9.086 1.294 3.583 1.764 7.147 2.336 10.91 1.1 6.934 3.057 12.228 6.214 18.442 2.122 4.978 2.772 10.07 3.633 15.387 0.972 4.903 2.689 9.245 4.59 13.851 1.51 3.905 2.432 7.842 3.375 11.914 0.923 3.586 2.098 7.034 3.313 10.531 1.716 4.997 3.047 9.878 4.062 15.063 0.794 4.023 1.537 6.755 3.438 10.437 1.989 4.104 2.642 7.219 3.375 11.688 1.199 7.112 3.381 13.159 6.21 19.766 1.836 4.765 2.751 9.532 3.704 14.535 0.979 4.319 2.894 8.107 4.711 12.136 1.825 6.569 3.212 13.225 4 20-4.546 2.273-8.547 2.266-13.583 2.291-0.852 7e-3 -1.705 0.013-2.583 0.02-2.811 0.019-5.621 0.023-8.432 0.025-1.956 7e-3 -3.913 0.014-5.869 0.021-4.096 0.012-8.192 0.015-12.289 0.014-5.251 0-10.502 0.027-15.754 0.062-4.038 0.022-8.076 0.026-12.114 0.025-1.936 2e-3 -3.873 0.011-5.809 0.026-2.705 0.02-5.409 0.014-8.115 2e-3 -1.539 3e-3 -3.078 6e-3 -4.664 9e-3 -3.788-0.495-3.788-0.495-6.26-2.324-2.054-2.917-2.451-5.476-3.028-8.983-0.683-4.116-1.375-6.969-3.469-10.606-2.956-5.211-3.733-10.598-4.906-16.425-1.125-4.157-1.125-4.157-3.125-7.657-2.954-5.169-3.709-10.554-4.875-16.343-1.125-4.157-1.125-4.157-3.137-7.66-2.273-3.996-2.973-7.427-3.801-11.934-1.636-7.533-3.506-11.417-9.187-16.563l-1-1c-3.434-0.101-6.848-0.139-10.282-0.132-1.042-1e-3 -2.085-2e-3 -3.159-3e-3 -2.216-1e-3 -4.432 1e-3 -6.648 5e-3 -3.369 5e-3 -6.738 0-10.107-6e-3 -2.153 0-4.307 2e-3 -6.461 4e-3 -1-2e-3 -2-4e-3 -3.031-7e-3 -0.957 4e-3 -1.914 7e-3 -2.9 0.01-0.415 0-0.415 0-2.515 2e-3 -2.347 0.103-4.689 0.344-7.022 0.627-5.462 0.561-10.813 0.645-16.299 0.642-1.106 4e-3 -2.213 7e-3 -3.354 0.011-2.388 7e-3 -4.776 0.012-7.164 0.016-3.778 7e-3 -7.556 0.023-11.335 0.041-10.736 0.053-21.473 0.101-32.21 0.116-6.579 0.01-13.157 0.04-19.736 0.082-2.506 0.012-5.011 0.017-7.517 0.015-3.495-2e-3 -6.989 0.02-10.484 0.047-1.038-6e-3 -2.075-0.013-3.144-0.02-6.996 0.092-6.996 0.092-10.233 2.424-1.597 2.427-2.56 4.677-3.462 7.439-1.034 3.109-2.111 6.081-3.437 9.082-1.514 3.638-2.504 7.157-3.438 10.98-1.514 5.883-3.594 11.071-6.062 16.625-0.7 2.492-1.364 4.993-2 7.5-1.486 5.848-3.549 10.983-6 16.5-0.676 2.472-1.32 4.952-1.938 7.438-3.959 15.494-3.959 15.494-10.062 19.562-2.816 0.198-5.641 0.267-8.463 0.275-0.864 5e-3 -1.728 0.01-2.618 0.016-2.858 0.014-5.717 0.013-8.576 0.01-1.984 4e-3 -3.968 8e-3 -5.952 0.013-4.159 8e-3 -8.318 7e-3 -12.478 2e-3 -5.337-6e-3 -10.673 0.011-16.01 0.034-4.097 0.015-8.194 0.016-12.291 0.013-1.969 0-3.937 6e-3 -5.905 0.016-2.748 0.012-5.496 5e-3 -8.245-6e-3 -1.565 0-3.13 1e-3 -4.743 2e-3 -3.719-0.375-3.719-0.375-6.719-3.375 0.257-4.475 1.767-8.309 3.437-12.437 2.449-6.228 4.34-12.136 5.375-18.75 0.703-4.098 1.821-7.481 3.563-11.25 2.804-6.275 3.998-12.613 5.104-19.357 0.994-5.707 2.898-10.079 5.521-15.206 0.75-2.791 1.417-5.606 2-8.437 1.992-9.048 1.992-9.048 4.062-13.125 1.856-4.251 2.612-7.705 3.375-12.25 1.057-6.193 2.71-11.298 5.305-16.984 2.07-5.273 3.077-10.784 4.289-16.305 0.777-3.127 1.592-5.616 3.031-8.461 1.856-4.251 2.612-7.705 3.375-12.25 0.854-5.014 1.855-9.328 4-13.938 2.822-6.151 3.954-12.407 5.043-19.045 0.993-5.707 2.898-10.078 5.52-15.205 0.75-2.791 1.417-5.606 2-8.437 2.004-9.087 2.004-9.087 4.062-13.25 1.708-3.801 2.53-6.77 3.313-10.813 1.385-7.064 3.73-13.566 6.21-20.312 1.686-4.993 2.709-9.971 3.704-15.137 0.794-3.407 2.192-6.321 3.746-9.445 1.346-3.635 1.813-7.279 2.402-11.106 1.422-8.956 1.422-8.956 4.063-12.937 3.595-5.489 3.769-11.845 4.691-18.211 0.873-4.699 2.38-8.177 4.551-12.375 2.269-5.369 3.12-11.126 4.289-16.816 0.764-3.283 1.539-5.87 3.031-8.848 1.826-4.065 2.598-7.333 3.375-11.688 0.855-4.693 1.83-8.628 4-12.875 2.869-5.72 3.92-11.689 5.111-17.916 0.799-4.068 1.609-7.765 3.514-11.459 1.967-4.442 2.637-8.093 3.375-12.875 1.421-8.974 1.421-8.974 4.125-13.187 2.889-5.111 3.356-9.3 3.883-15.078 0.59-3.443 1.444-5.468 3.555-8.235 3.226-1.075 5.558-1.131 8.952-1.14zm63.798 114.02c-3.989 5.983-5.283 11.689-6.625 18.688-1.069 4.215-2.684 7.101-4.903 10.789-2.063 4.47-2.568 9.263-3.41 14.086-0.917 4.023-2.442 6.694-4.625 10.125-1.579 3.242-2.068 6.39-2.687 9.937-0.974 5.578-2.31 9.344-5.313 14.063-1.579 3.242-2.068 6.39-2.687 9.937-0.974 5.578-2.31 9.344-5.313 14.063-1.579 3.242-2.068 6.39-2.687 9.937-0.973 5.572-2.303 9.34-5.309 14.051-2.122 4.362-2.603 9.136-3.32 13.899-0.959 3.906-2.624 6.256-4.871 9.55-0.438 4.75-0.438 4.75 0 9 4.132 2.755 7.998 2.34 12.808 2.383 0.503 8e-3 0.503 8e-3 3.05 0.05 3.336 0.051 6.672 0.087 10.009 0.122 2.315 0.029 4.631 0.058 6.946 0.088 4.857 0.059 9.714 0.109 14.572 0.155 6.227 0.061 12.453 0.148 18.68 0.243 4.783 0.069 9.566 0.119 14.35 0.165 2.296 0.024 4.592 0.055 6.887 0.093 3.21 0.051 6.42 0.077 9.631 0.095 0.949 0.021 1.899 0.042 2.878 0.063 4.024 0 6.753-0.207 10.279-2.227 1.91-2.23 1.91-2.23 2.535-6.292-0.641-5.059-1.964-8.172-4.2-12.656-1.736-3.995-2.813-8.009-3.925-12.219-1.69-6.379-3.713-12.253-6.383-18.273-1.539-3.843-2.382-7.763-3.305-11.79-0.855-3.155-2.003-6.006-3.312-9-2.162-4.941-3.486-9.755-4.688-15-0.855-3.155-2.003-6.006-3.312-9-2.162-4.941-3.486-9.755-4.688-15-1.134-4.185-2.885-8.023-4.621-11.988-1.58-3.994-2.49-8.044-3.445-12.222-0.876-3.272-2.3-6.175-3.766-9.219-1.771-4.644-2.493-9.533-3.367-14.41-0.613-3.161-0.613-3.161-1.613-5.161-4.905-0.865-6.475-0.465-10.25 2.875z"/>
<path transform="translate(2617.5 312.85)" d="m0 0c4.071-0.068 8.143-0.11 12.214-0.155 1.423-0.03 2.846-0.061 4.312-0.092 1.279-9e-3 2.558-0.017 3.875-0.026 1.093-0.016 2.185-0.032 3.311-0.048 3.521 0.59 4.659 1.645 6.787 4.467 0.498 2.123 0.983 4.25 1.375 6.395 0.71 2.958 1.818 5.518 3.063 8.293 2.447 5.609 3.66 11.1 4.82 17.09 0.794 3.445 2.141 6.385 3.707 9.546 2.019 5.218 2.853 10.795 3.91 16.274 1.167 4.567 3.006 8.209 5.125 12.402 0.836 3.5 0.836 3.5 1.375 7 1.291 7.161 3.611 13.529 6.282 20.278 1.468 4.068 2.17 7.909 2.789 12.168 0.622 2.864 1.679 5.124 2.992 7.742 2.228 4.54 3.197 8.696 4 13.687 0.889 5.395 2.099 9.746 4.562 14.625 3.069 6.092 4.139 11.881 5.223 18.578 0.97 4.897 2.68 9.232 4.586 13.828 1.556 4.041 2.476 8.136 3.445 12.348 0.879 3.234 2.333 6.077 3.785 9.086 1.295 3.583 1.765 7.146 2.336 10.91 1.1 6.934 3.058 12.228 6.215 18.442 2.122 4.977 2.772 10.07 3.633 15.386 0.97 4.897 2.68 9.232 4.586 13.828 1.555 4.039 2.475 8.134 3.445 12.344 0.881 3.248 2.323 6.122 3.781 9.145 1.282 3.46 1.8 6.905 2.403 10.543 0.813 4.774 1.604 8.722 4 12.937 3.324 5.852 4.24 12.204 5.472 18.758 1.14 4.566 2.988 8.175 5.09 12.367 0.836 3.754 0.836 3.754 1.375 7.563 1.2 7.111 3.382 13.159 6.211 19.765 1.838 4.772 2.753 9.546 3.707 14.555 0.773 3.409 2.125 6.317 3.672 9.441 2.019 5.218 2.853 10.795 3.91 16.274 1.167 4.567 3.006 8.209 5.125 12.402 0.836 3.5 0.836 3.5 1.375 7 1.282 7.093 3.564 13.387 6.215 20.071 1.747 4.867 2.664 9.723 3.617 14.792 0.797 3.153 1.886 5.48 3.543 8.262 2.25 3.875 2.25 3.875 1.25 7.875-3.097 3.097-6.009 2.255-10.317 2.259-0.43 2e-3 -0.43 2e-3 -2.607 0.011-2.855 8e-3 -5.709 3e-3 -8.564-4e-3 -1.981 1e-3 -3.961 3e-3 -5.942 6e-3 -4.157 3e-3 -8.314-2e-3 -12.471-0.011-5.326-0.011-10.653-5e-3 -15.979 7e-3 -4.093 7e-3 -8.186 5e-3 -12.279 0-1.964-2e-3 -3.927 0-5.891 5e-3 -2.748 5e-3 -5.496-3e-3 -8.244-0.014-1.564-2e-3 -3.128-3e-3 -4.739-5e-3 -5.644-0.361-7.972-1.259-11.967-5.254-1.165-4.339-2.112-8.669-3.017-13.066-1.244-5.693-3.016-9.867-5.983-14.934-0.761-2.788-1.425-5.604-2-8.437-0.935-4.605-1.89-8.345-4.004-12.555-2.127-4.271-3.038-8.021-3.933-12.695-1.425-6.826-3.235-13.095-5.91-19.528-1.011-2.442-1.847-4.955-2.653-7.472-1.5-3.313-1.5-3.313-3.495-4.505-4.19-1.126-8.278-1.073-12.583-1.038-0.463 0-0.463 0-2.806 1e-3 -1.957 3e-3 -3.913 0.011-5.87 0.023-2.971 0.019-5.942 0.021-8.914 0.021-1.907 5e-3 -3.815 0.01-5.722 0.017-0.879 1e-3 -1.757 2e-3 -2.662 4e-3 -3.896 0.029-7.681 0.193-11.55 0.669-5.421 0.548-10.708 0.606-16.15 0.561-1.089-5e-3 -2.178-9e-3 -3.3-0.014-2.35-0.011-4.701-0.023-7.051-0.038-3.725-0.022-7.45-0.036-11.175-0.047-10.586-0.034-21.172-0.076-31.758-0.138-6.488-0.038-12.976-0.061-19.464-0.074-2.465-9e-3 -4.931-0.022-7.396-0.041-3.451-0.027-6.901-0.035-10.352-0.039-0.505-6e-3 -0.505-6e-3 -3.061-0.037-6.344 0.018-11.326 0.869-17.191 3.362-2.175 3.262-2.558 5.301-3.25 9.125-1.147 5.676-2.75 10.941-4.75 16.375-2.371 6.449-3.991 12.711-5.289 19.446-0.797 3.427-2.193 6.379-3.746 9.527-1.294 3.389-1.803 6.764-2.402 10.34-1.08 6.341-2.77 11.719-5.434 17.554-1.129 2.633-1.129 2.633-2.254 7.258-0.875 3.375-0.875 3.375-3.875 5.375-2.897 0.198-5.803 0.267-8.706 0.275-0.445 2e-3 -0.445 2e-3 -2.696 0.015-2.947 0.014-5.893 0.013-8.84 0.011-2.046 4e-3 -4.093 8e-3 -6.139 0.013-4.292 7e-3 -8.585 7e-3 -12.877 2e-3 -5.5-6e-3 -11 0.011-16.501 0.034-4.227 0.015-8.455 0.016-12.682 0.013-2.028 0-4.056 5e-3 -6.084 0.016-2.836 0.012-5.673 5e-3 -8.509-6e-3 -1.615 0-3.229 1e-3 -4.892 1e-3 -3.995-0.367-5.925-0.977-9.074-3.374 0.552-4.081 0.914-4.913 4-8 0.964-4.318 1.692-8.611 2.373-12.978 1.021-6.014 2.797-10.56 5.627-16.022 0.751-2.791 1.418-5.606 2-8.437 1.993-9.048 1.993-9.048 4.063-13.125 1.864-4.27 2.613-7.746 3.375-12.313 0.836-4.906 1.752-9.058 4-13.5 3.075-6.103 4.157-12.462 5.523-19.121 1.221-5.292 3.021-10.193 4.953-15.258 1.077-3.216 1.638-6.202 2.086-9.558 0.664-4.81 2.208-7.95 4.782-12.11 2.127-4.499 2.542-9.382 3.343-14.261 1.206-5.948 3.279-11.445 5.391-17.121 1.853-5.237 3.225-10.531 4.527-15.926 0.957-3.27 0.957-3.27 2.485-6.176 1.807-3.796 2.269-7.248 2.847-11.406 1.488-9.176 1.488-9.176 4.125-13.25 3.234-4.999 3.673-10.327 4.625-16.121 1.206-5.948 3.279-11.445 5.391-17.121 1.853-5.237 3.225-10.531 4.527-15.926 0.957-3.27 0.957-3.27 2.485-6.176 1.807-3.796 2.269-7.248 2.847-11.406 1.481-9.151 1.481-9.151 4.125-13.125 3.593-5.486 3.769-11.836 4.688-18.2 0.886-4.758 2.43-8.338 4.625-12.597 1.936-4.51 2.519-9.259 3.375-14.07 0.998-4.538 2.722-8.45 4.625-12.668 1.304-3.325 2.012-6.523 2.687-10.028 0.876-4.544 1.994-8.429 3.938-12.625 2.791-6.199 3.948-12.499 5.043-19.17 0.993-5.707 2.897-10.078 5.519-15.205 0.751-2.791 1.418-5.606 2-8.437 1.999-9.067 1.999-9.067 4.063-13.188 1.792-4.047 2.482-7.117 3.187-11.437 1.806-9.865 5.544-20.783 13.75-26.938 3.299-0.334 6.418-0.496 9.721-0.524 0.988-0.02 1.976-0.04 2.994-0.06 3.284-0.063 6.568-0.105 9.852-0.146 2.309-0.04 4.619-0.08 6.928-0.122 6.113-0.107 12.227-0.195 18.341-0.281 6.083-0.089 12.166-0.197 18.248-0.302 10.469-0.179 20.938-0.327 31.408-0.449 6.003-0.07 12.006-0.155 18.009-0.262zm-50.501 112.15c-0.81 3.684-1.407 7.385-2.023 11.106-0.977 3.894-0.977 3.894-2.953 7.351-2.294 4.016-3.113 7.521-4.024 12.043-1.208 5.998-2.983 10.22-6 15.5-0.76 2.81-1.425 5.647-2 8.5-1.208 5.998-2.983 10.22-6 15.5-0.76 2.81-1.425 5.647-2 8.5-1.208 5.998-2.983 10.22-6 15.5-0.76 2.81-1.425 5.647-2 8.5-1.208 5.997-2.98 10.222-6 15.5-0.761 2.789-1.425 5.605-2 8.438-1.36 6.196-2.941 11.057-6 16.562-2.161 5.835-2.328 10.845-2 17 3.557 3.557 7.739 3.121 12.513 3.147 0.872-1e-3 1.744-1e-3 2.643-2e-3 0.926 4e-3 1.851 7e-3 2.805 0.011 3.061 9e-3 6.123 0.011 9.184 0.012 2.13 3e-3 4.26 7e-3 6.389 0.01 4.467 6e-3 8.933 8e-3 13.399 7e-3 5.717 0 11.433 0.014 17.149 0.031 4.4 0.011 8.8 0.013 13.2 0.013 2.108 1e-3 4.215 5e-3 6.322 0.013 2.951 0.01 5.902 7e-3 8.853 1e-3 0.866 6e-3 1.732 0.011 2.625 0.017 11.719-0.06 11.719-0.06 14.918-3.26 0.226-5.192 0.351-8.298-2-13-0.319-1.888-0.586-3.786-0.812-5.687-0.764-5.034-2.245-8.416-4.965-12.77-1.582-3.29-2.097-6.451-2.723-10.043-0.792-4.535-1.523-8.108-4-12-3.156-4.96-3.689-10.221-4.687-15.937-0.741-3.246-1.55-5.293-3.313-8.063-3.156-4.96-3.689-10.221-4.687-15.937-0.741-3.246-1.55-5.293-3.313-8.063-2.476-3.891-3.208-7.465-4-12-0.97-5.532-2.266-9.306-5.242-13.992-2.319-4.624-3.13-9.746-4.289-14.762-1.11-4.291-2.826-7.876-4.969-11.746-0.433-1.485-0.866-2.97-1.312-4.5-0.557-1.155-1.114-2.31-1.688-3.5-4.066-0.713-6.008-0.992-9 2z"/>
<path transform="translate(1759 312.91)" d="m0 0c5.016-0.074 10.031-0.12 15.047-0.159 0.726-0.01 0.726-0.01 4.399-0.064 1.324-5e-3 2.648-9e-3 4.012-0.014 1.126-9e-3 2.253-0.019 3.414-0.028 4.505 0.516 7.933 1.951 10.871 5.45 1.716 4.016 2.39 8.128 3.117 12.406 1.325 7.224 3.112 13.754 5.969 20.547 1.56 3.986 2.452 8.044 3.41 12.207 0.877 3.229 2.326 6.068 3.781 9.071 1.321 3.664 1.809 7.328 2.402 11.175 1.431 8.975 1.431 8.975 4 12.875 3.73 5.673 4.326 12.536 5.473 19.102 1.091 4.528 2.771 7.531 5.09 11.523 0.836 3.657 0.836 3.657 1.375 7.5 1.196 7.14 3.371 13.198 6.211 19.828 1.837 4.772 2.753 9.546 3.707 14.555 0.773 3.409 2.124 6.317 3.672 9.442 2.018 5.217 2.853 10.795 3.91 16.273 1.167 4.567 3.021 8.202 5.125 12.402 0.836 3.754 0.836 3.754 1.375 7.563 1.207 7.178 3.426 13.304 6.281 19.972 1.537 3.964 2.187 7.691 2.789 11.875 0.618 2.885 1.67 5.145 2.992 7.778 2.243 4.571 3.233 8.791 4.063 13.812 0.81 4.877 1.705 8.964 3.937 13.375 3.088 6.121 4.153 12.511 5.528 19.188 1.178 5.051 2.903 9.632 4.879 14.414 1.535 4.015 2.447 8.095 3.41 12.277 0.878 3.234 2.332 6.077 3.785 9.086 1.294 3.583 1.764 7.146 2.336 10.91 1.1 6.934 3.058 12.228 6.215 18.442 2.121 4.977 2.772 10.07 3.633 15.386 0.97 4.897 2.68 9.232 4.585 13.829 1.556 4.039 2.475 8.133 3.446 12.343 0.881 3.248 2.322 6.122 3.781 9.145 1.281 3.46 1.8 6.905 2.402 10.543 0.81 4.763 1.588 8.683 4 12.875 3.468 6.083 4.277 12.89 5.473 19.699 1.092 4.497 2.733 7.548 5.09 11.488 0.793 2.879 0.793 2.879 1.187 5.563 0.456 3.076 0.943 5.924 1.75 8.937 0.011 0.413 0.011 0.413 0.063 2.5-4.254 3.541-8.204 3.385-13.582 3.404-0.427 4e-3 -0.427 4e-3 -2.584 0.021-2.811 0.018-5.621 0.015-8.432 9e-3 -1.956 4e-3 -3.912 0.01-5.869 0.016-4.096 9e-3 -8.192 6e-3 -12.288-4e-3 -5.252-0.011-10.503 9e-3 -15.754 0.038-4.038 0.019-8.076 0.018-12.114 0.013-1.937-1e-3 -3.873 6e-3 -5.81 0.018-2.705 0.015-5.409 4e-3 -8.114-0.013h-4.665c-3.788-0.502-3.788-0.502-6.254-2.271-2.358-3.428-2.693-7.185-3.534-11.231-0.64-1.32-1.279-2.64-1.938-4-2.092-4.377-2.759-8.656-3.5-13.437-0.796-5.01-1.53-9.156-4.062-13.563-2.471-4.318-3.189-8.276-3.938-13.187-1.131-7.368-3.264-13.553-6.222-20.367-1.257-3.231-1.888-6.025-2.34-9.446-0.786-5.379-3.007-8.247-7-12-4.017-2.008-5.571-2.247-9.902-2.23-1.138 2e-3 -2.276 4e-3 -3.448 6e-3 -1.184 0.012-2.368 0.024-3.588 0.037-0.59 0-0.59 0-3.576 2e-3 -8.816 0.045-8.816 0.045-11.867 0.685-4.399 0.84-8.861 0.671-13.325 0.69-1.079 8e-3 -2.158 0.016-3.269 0.025-2.34 0.017-4.68 0.032-7.021 0.046-3.708 0.021-7.415 0.048-11.123 0.076-7.877 0.06-15.754 0.112-23.631 0.163-9.116 0.06-18.231 0.122-27.347 0.192-3.645 0.027-7.29 0.048-10.936 0.068l-6.744 0.051c-1.007 4e-3 -2.014 8e-3 -3.051 0.013-5.792 0.051-11.414 0.484-17.172 1.176-4.407 0.027-8.801-0.062-13.207-0.16-3.793 0.16-3.793 0.16-7.793 2.16-5.325 9.81-7.918 20.186-10.102 31.047-0.731 3.217-1.517 5.773-2.961 8.703-2.203 4.834-3.073 9.406-4.093 14.594-0.833 3.606-1.959 6.891-3.282 10.344-2.763 7.289-4.127 14.605-5.472 22.258-1.093 4.064-1.706 5.658-5.09 8.054-4.368 1.092-8.056 1.135-12.561 1.146-0.862 3e-3 -1.724 6e-3 -2.612 0.01-2.849 9e-3 -5.697 0.011-8.546 0.012-1.98 3e-3 -3.96 7e-3 -5.94 0.01-4.149 6e-3 -8.299 8e-3 -12.448 8e-3 -5.32 0-10.64 0.013-15.959 0.03-4.089 0.011-8.178 0.014-12.266 0.013-1.962 1e-3 -3.923 6e-3 -5.885 0.013-2.741 0.01-5.482 7e-3 -8.223 1e-3 -1.56 2e-3 -3.12 3e-3 -4.727 5e-3 -3.833-0.248-3.833-0.248-7.833-2.248-1.219-7.01 1.748-15.503 5.555-21.414 1.825-3.266 2.207-6.139 2.757-9.836 1.306-7.553 3.536-14.384 6.203-21.554 1.853-5.236 3.225-10.531 4.528-15.926 0.957-3.27 0.957-3.27 2.484-6.176 1.807-3.796 2.269-7.248 2.848-11.406 1.481-9.151 1.481-9.151 4.125-13.125 3.593-5.486 3.769-11.836 4.687-18.199 0.886-4.759 2.431-8.339 4.625-12.598 1.937-4.51 2.52-9.259 3.375-14.07 0.998-4.538 2.723-8.45 4.625-12.668 1.305-3.325 2.012-6.523 2.688-10.028 0.876-4.544 1.993-8.429 3.937-12.625 2.791-6.199 3.948-12.499 5.043-19.17 0.993-5.707 2.898-10.078 5.52-15.205 0.75-2.791 1.418-5.606 2-8.437 1.998-9.067 1.998-9.067 4.062-13.188 1.81-4.085 2.595-7.385 3.375-11.75 0.853-4.682 1.818-8.587 4-12.812 2.961-5.887 3.99-12.112 5.043-18.558 0.991-5.729 2.886-10.11 5.52-15.255 0.75-2.791 1.418-5.606 2-8.437 1.998-9.067 1.998-9.067 4.062-13.188 1.81-4.085 2.595-7.385 3.375-11.75 0.855-4.693 1.831-8.628 4-12.875 2.813-5.634 3.861-11.393 5.039-17.549 1.243-6.323 3.139-12.126 5.438-18.13 0.984-2.782 1.604-5.355 2.086-8.258 0.828-3.984 1.669-6.405 3.437-9.938 2.166-4.482 3.188-8.59 4-13.5 1.238-7.435 3.455-14.128 6.078-21.179 1.853-5.236 3.225-10.531 4.528-15.926 0.957-3.27 0.957-3.27 2.508-6.317 1.943-3.96 2.288-7.713 2.824-12.05 0.725-3.368 1.405-5.248 3.625-7.903 5.964-2.745 10.791-3.348 17.32-3.258 0.862 7e-3 1.725 0.014 2.613 0.021 2.731 0.023 5.461 0.066 8.192 0.112 2.738 0.036 5.475 0.066 8.213 0.092 2.479 0.024 4.957 0.061 7.436 0.099 4.226-0.066 4.226-0.066 7.082-0.545 4.814-0.797 9.624-0.76 14.495-0.837 0.558-0.011 0.558-0.011 3.382-0.064 3.631-0.066 7.261-0.125 10.892-0.182 0.615-0.01 0.615-0.01 3.731-0.061 7.414-0.121 14.828-0.23 22.242-0.33 3.139-0.043 6.278-0.09 9.417-0.138zm-45.015 114.09c-3.143 5.778-3.995 11.771-5.059 18.184-1.071 4.344-2.931 7.826-4.941 11.816-0.903 2.959-1.736 5.94-2.5 8.938-2.573 9.661-2.573 9.661-4.563 13.75-2.308 5.139-3.553 10.301-4.937 15.75-1.236 4.404-3.144 8.385-5 12.562-0.699 2.491-1.363 4.993-2 7.5-1.485 5.848-3.548 10.983-6 16.5-1.066 3.796-2.028 7.612-2.996 11.434-0.824 2.926-1.734 5.417-3.067 8.129-1.755 4.019-2.612 7.353-3.437 11.625-1.018 5.249-2.458 8.407-5.5 12.812-0.632 7.053-0.632 7.053 2 11 4.204 1.402 8.344 1.165 12.732 1.177 0.999 7e-3 1.997 0.013 3.026 0.02 3.309 0.02 6.617 0.032 9.925 0.042 1.129 4e-3 2.258 8e-3 3.42 0.012 5.97 0.021 11.94 0.035 17.91 0.044 6.175 0.012 12.35 0.046 18.525 0.086 4.742 0.026 9.483 0.034 14.224 0.038 2.277 5e-3 4.554 0.016 6.831 0.035 3.182 0.024 6.363 0.023 9.545 0.016 0.944 0.013 1.888 0.026 2.861 0.039 3.785-0.03 6.391-0.099 9.582-2.241 2.422-3.872 2.197-7.923 1.419-12.268-1.169-1.851-2.349-3.698-3.637-5.468-2.56-4.754-3.241-10.153-4.273-15.411-1.09-4.121-1.09-4.121-3.086-7.613-2.97-5.198-3.716-10.626-4.879-16.449-1.142-4.119-2.753-6.56-5.125-10.059-0.871-3.332-0.871-3.332-1.438-6.812-1.036-5.415-2.48-9.221-5.375-13.848-1.47-2.897-2.04-5.66-2.687-8.84-1.018-4.987-2.557-8.57-5.246-12.937-2.247-4.591-3.078-9.608-4.219-14.567-1.197-4.621-2.937-8.766-4.879-13.113-1.227-3.06-1.992-6.045-2.719-9.258-1.145-4.992-2.737-8.925-6.437-12.625-3.875-0.5-3.875-0.5-8 0z"/>
<path transform="translate(2407.7 839.66)" d="m0 0c0.716 0.066 0.716 0.066 4.34 0.402 1.435 0.115 2.869 0.23 4.348 0.348 3.589 0.59 3.589 0.59 5.589 2.59 1.722 11.52 1.092 23.44 1 35.062-0.026 3.45-0.046 6.899-0.062 10.348-0.012 1.507-0.023 3.014-0.035 4.567 0.084 3.468 0.414 6.63 1.097 10.023 3.188 0.25 3.188 0.25 7-1 1.665-2.857 2.758-5.71 3.86-8.824 1.14-3.176 1.14-3.176 2.66-6.016 2.473-5.279 3.207-10.959 4.32-16.652 1.187-4.611 3.013-8.278 5.16-12.508 0.977-3.738 0.977-3.738 1.625-7.313 1.174-6.385 1.174-6.385 3.375-9.687 7.617-1.676 16.244-1.705 24-1 4 3 4 3 4.73 6.268 0.105 1.336 0.209 2.672 0.317 4.048 0.123 1.48 0.246 2.959 0.372 4.483 0.055 0.786 0.055 0.786 0.331 4.763 0.123 1.584 0.246 3.168 0.373 4.8 0.778 10.562 1.29 21.047 0.877 31.638 8.625-1.5 8.625-1.5 12-6 0.712-2.876 1.326-5.777 1.875-8.688 2.07-9.933 2.07-9.933 4.688-14.187 2.199-3.721 3.032-6.071 3.937-10.188 1.265-5.596 3.026-9.361 6.5-13.937 4.723-2.362 7.78-2.298 13-2l2 2c-0.318 5.784-1.777 10.668-3.812 16.062-2.061 5.628-3.854 11.188-5.313 17-1.042 4.128-2.059 7.301-4 11.125-1.736 3.53-2.286 5.748-2.812 9.563-0.619 4.416-1.663 8-3.5 12.062-2.613 5.799-3.727 11.475-4.692 17.743-1.217 4.813-3.09 8.164-7.158 11.089-4.734 2.366-9.639 1.827-14.838 1.793-1.097 0.02-2.194 0.04-3.324 0.061-1.05-1e-3 -2.101-1e-3 -3.183-2e-3 -0.958 2e-3 -1.916 4e-3 -2.903 6e-3 -2.465-0.502-2.465-0.502-5.465-4.502-1.33-5.229-1.217-10.624-1.316-15.992-0.021-0.946-0.042-1.892-0.063-2.867-0.065-3.005-0.124-6.011-0.183-9.016-0.043-2.044-0.087-4.089-0.131-6.133-0.107-4.997-0.208-9.995-0.307-14.992h-8c-0.227 1.258-0.453 2.516-0.687 3.812-0.817 3.724-2.019 6.889-3.688 10.313-2.086 4.354-3.409 8.562-4.562 13.25-1.918 7.648-4.341 16.904-10.063 22.625-5.308 0.664-10.656 0.792-16 1-1.121 0.054-2.243 0.108-3.398 0.164-2.533 0.075-5.071-0.029-7.602-0.164-5.961-5.961-5.525-14.272-6.07-22.274-0.086-1.196-0.172-2.392-0.26-3.624-0.181-2.536-0.357-5.073-0.53-7.61-0.26-3.793-0.537-7.584-0.815-11.375-0.859-12.047-1.516-24.078-1.629-36.156-0.018-1.036-0.036-2.072-0.055-3.14 2e-3 -12.515 2e-3 -12.515 7.082-13.161z"/>
<path transform="translate(2740.3 839.67)" d="m0 0c1.596 5e-3 3.192 0.01 4.836 0.016 0.828 0.01 1.655 0.02 2.508 0.031 2.494 0.031 4.989 0.039 7.484 0.047 26.343 0.169 26.343 0.169 32.914 5.234 6.519 8.406 5.657 17.522 4.621 27.738-0.713 4.959-1.362 8.744-3.621 13.262-0.742 0.536-1.485 1.073-2.25 1.625-4.632 4.001-7.818 9.58-9.75 15.375-0.35 5.909 0.521 10.322 2.5 15.875 2.109 6.43 3.304 11.394 2.5 18.125-3 3-3 3-6.25 3.18-1.237-0.101-2.475-0.201-3.75-0.305-1.237-0.085-2.475-0.17-3.75-0.258-3.25-0.617-3.25-0.617-6.25-3.617-0.625-2.68-0.625-2.68-1-5.875-0.648-4.749-1.381-9.435-2.375-14.125-0.214-1.031-0.428-2.062-0.648-3.125-1.129-3.322-2.563-5.344-4.977-7.875-5.313-1.771-10.624-1.344-16 0-0.727 3.745-1.217 7.279-1.562 11.063-1.328 13.632-1.328 13.632-4.438 19.937-3.449 2.797-7.469 4.033-11.937 3.938-2.063-0.938-2.063-0.938-4.063-3.938-0.301-2.496-0.301-2.496-0.312-5.437-0.017-0.948-0.034-1.895-0.051-2.871 0.319-3.248 0.937-5.924 1.806-9.049 1.739-6.849 2.352-13.588 2.838-20.623 0.1-1.294 0.2-2.587 0.302-3.92 0.422-5.481 0.821-10.963 1.219-16.445 0.297-4.025 0.606-8.049 0.917-12.073 0.042-0.614 0.042-0.614 0.256-3.722 0.522-6.722 1.151-12.713 4.025-18.86 4.496-3.437 8.726-3.364 14.258-3.328zm3.742 22.328c-2.706 5.814-3.669 10.597-3 17 4.825 3.618 8.184 3.449 13.938 3.375 0.894 0.012 1.788 0.023 2.709 0.035 4.921-0.022 8.523-0.166 12.353-3.41 3.389-5.403 4.957-9.619 4-16-2.208-2.649-3.988-3.848-7.424-4.364-2.911-0.139-5.787-0.132-8.701-0.073-1.001-7e-3 -2.003-0.015-3.035-0.022-7.446 0.065-7.446 0.065-10.84 3.459z"/>
<path transform="translate(2174.3 839.75)" d="m0 0c1.099 7e-3 2.198 0.015 3.331 0.023 19.68 0.26 19.68 0.26 25.419 4.477 0.639 0.908 1.279 1.815 1.938 2.75 0.742 0.928 1.485 1.856 2.25 2.812 3.774 6.876 2.571 13.079 1.281 20.458-0.586 4.113-0.76 8.141-0.907 12.292-0.667 13.823-2.223 34.352-11 45.438-0.866 0.66-1.732 1.32-2.624 2-0.805 0.846-1.609 1.691-2.438 2.562-10.546 7.216-26.084 8.713-38.562 7.438-9.338-2.281-17.785-4.524-23-13-4.264-8.527-0.811-24.412 0.312-33.625 0.118-0.994 0.235-1.988 0.356-3.012 0.804-6.104 2.343-11.517 4.332-17.363 0.359-2.512 0.655-5.034 0.874-7.562 1.274-10.126 5.531-15.357 13.137-21.774 7.714-4.295 16.707-3.991 25.301-3.914zm-18.312 23.25c-3.464 4.617-3.722 7.966-4.126 13.5-0.075 0.945-0.151 1.891-0.229 2.865-0.241 3.21-0.449 6.421-0.645 9.635-0.076 1.229-0.151 2.458-0.229 3.724-0.219 3.82-0.408 7.641-0.584 11.464-0.065 1.223-0.131 2.446-0.198 3.707-0.044 1.142-0.088 2.284-0.134 3.46-0.045 1.018-0.09 2.035-0.136 3.083 0.281 2.562 0.281 2.562 3.281 5.562 3.848 1.283 7.192 1.17 11.25 1.188 1.469 0.014 2.939 0.028 4.453 0.042 6.062-0.325 9.947-0.88 14.297-5.23 1.629-4.65 2.354-9.105 2.781-14 0.12-1.299 0.24-2.599 0.363-3.938 0.117-1.34 0.235-2.681 0.356-4.062 0.233-2.667 0.472-5.334 0.718-8 0.103-1.176 0.205-2.351 0.311-3.562 0.496-3.622 1.429-6.939 2.471-10.438 0.437-3.625 0.437-3.625 0-7-2.173-2.63-3.947-4.473-7-6-3.43-0.178-6.82-0.278-10.25-0.312-0.472-0.015-0.472-0.015-2.856-0.088-5.823-0.053-9.355 0.375-13.894 4.4z"/>
<path transform="translate(2263.1 839.88)" d="m0 0c0.908 4e-3 1.816 8e-3 2.752 0.012 24.707 0.202 24.707 0.202 29.186 4.113 4.202 7.179 4.562 13.241 4.374 21.437-1e-3 1.068-2e-3 2.136-3e-3 3.237-0.064 5.805-0.609 11.155-1.877 16.814-1.108 5.63-1.301 11.406-1.705 17.121-0.964 12.455-4.118 20.21-12.789 29.391-5.945 4.091-11.922 5.419-18.876 6.813-1.037 0.228-2.075 0.457-3.144 0.693-11.644 2.401-22.221 0.548-32.98-4.506-4.308-3.599-8.68-7.878-9.274-13.668-0.267-9.268 1.22-17.47 3.354-26.414 1.556-6.694 2.438-13.193 2.92-20.043 0.974-12.447 3.541-21.504 12.816-30.168 7.271-5.684 16.435-4.881 25.246-4.832zm-15.766 22.227c-2.803 3.538-3.334 6.152-4.046 10.585-1.212 7.237-1.212 7.237-2.25 9.313-4.739 29.364-4.739 29.364-0.258 36.949 5.076 3.196 9.949 2.737 15.82 2.614 1.136 0.01 2.273 0.021 3.443 0.033 8.314-0.074 8.314-0.074 11.261-2.335 2.834-3.697 3.423-8.103 4.358-12.574 0.408-1.85 0.817-3.7 1.227-5.55 0.192-0.887 0.385-1.773 0.583-2.686 0.475-2.059 1.052-4.093 1.651-6.119 1.802-6.569 2.132-13.234 2.289-20.019 0.049-1.448 0.098-2.896 0.149-4.387-0.626-4.697-1.858-6.047-5.523-8.926-7.229-3.614-22.38-1.814-28.704 3.102z"/>
<path transform="translate(2665.4 840.81)" d="m0 0c1.145-0.012 2.291-0.024 3.471-0.037 0.55-1e-3 0.55-1e-3 3.338-6e-3 0.503-2e-3 0.503-2e-3 3.052-0.012 2.701 0.243 2.701 0.243 6.701 2.243 3.951 9.572 4.996 19.58 5.938 29.812 0.867 9.34 2.574 18.247 4.852 27.336 2.788 11.409 5.429 24.077 4.21 35.852-4.427 3.32-6.547 3.914-12 4-3.87-2.547-4.846-5.632-6-10-0.134-0.774-0.134-0.774-0.812-4.688-1.188-4.312-1.188-4.312-3.562-6.312-6.15-2.343-11.837-2.184-18.313-2.188-1.051-0.012-2.102-0.024-3.186-0.037-6.355-0.012-12.021 0.392-18.127 2.225-3 3-3 3-4.687 7.25-2.251 5.229-5.354 8.886-10.313 11.75-4.374 0.562-4.374 0.562-8 0-2-2-2-2-2.5-5.376 0.58-5.356 2.324-8.765 4.844-13.46 2.135-4.08 3.834-8.286 5.567-12.547 1.227-2.947 2.662-5.763 4.089-8.617 0.475-1.341 0.949-2.682 1.438-4.063 1.562-3.937 1.562-3.937 3.504-6.191 2.552-3.405 3.415-6.533 4.558-10.622 1.572-5.597 3.52-10.137 6.5-15.124 0.434-1.217 0.867-2.434 1.313-3.688 2.259-5.774 5.113-11.235 8.687-16.312 5-1.667 10.204-1.185 15.438-1.188zm-9.438 24.188c-0.23 1.001-0.461 2.003-0.699 3.035-1.842 7.505-3.699 12.701-8.301 18.965-0.437 4.312-0.437 4.312 0 8 3.091 3.09 6.039 2.301 10.313 2.312 0.751 8e-3 0.751 8e-3 4.551 0.051 4.07-0.358 5.982-0.856 9.136-3.363 1.836-3.671 1.431-7.44 0.356-11.335-0.875-2.539-1.816-5.04-2.793-7.541-0.325-0.866-0.651-1.732-0.986-2.624-2.406-6.33-2.406-6.33-3.577-7.5-2.666-0.042-5.333-0.043-8 0z"/>
<path transform="translate(1639.9 839.81)" d="m0 0c0.551-6e-3 0.551-6e-3 3.34-0.037 0.53-1e-3 0.53-1e-3 3.215-6e-3 0.486-2e-3 0.486-2e-3 2.945-0.012 2.625 0.243 2.625 0.243 6.625 2.243 5.564 12.018 6.696 25.022 7.729 38.046 0.685 7.605 2.124 14.484 4.355 21.784 2.899 10.032 4.759 23.77 2.916 34.17-1.773 2.347-1.773 2.347-4 4-4.277 0.066-6.903-0.14-10.313-2.813-1.68-3.174-2.351-5.763-3.124-9.25-1.263-5.615-1.263-5.615-4.063-8.625-6.288-3.301-12.869-2.536-19.813-2.562-1.319-0.021-2.638-0.042-3.998-0.063-0.637-3e-3 -0.637-3e-3 -3.865-0.016-1.164-9e-3 -2.329-0.018-3.528-0.028-3.728 0.403-6.123 1.383-9.296 3.357-1.18 2.671-1.18 2.671-1.875 5.75-1.901 6.645-4.58 9.225-10.125 13.25-2.799 1.399-4.905 1.252-8 1-3-3-3-3-3.5-5.688 0.567-3.755 2.104-5.957 4.211-9.059 1.425-2.492 2.061-4.716 2.726-7.503 1.308-5.38 3.514-9.875 6.083-14.758 1.441-2.914 2.552-5.794 3.605-8.868 1.075-3.125 1.969-5.26 3.875-8 2.618-4.09 3.652-8.299 4.996-12.941 1.252-3.971 3.07-7.503 5.004-11.183 0.433-1.217 0.866-2.434 1.313-3.688 5.472-13.985 7.758-18.491 22.562-18.5zm-8.625 26.125c-1.004 2.459-1.869 4.974-2.687 7.5-1.563 4.563-1.563 4.563-3.75 7.437-2.59 4.465-2.731 9.062-1.813 14.126 3.644 2.429 5.539 2.298 9.875 2.312 0.607 8e-3 0.607 8e-3 3.68 0.051 3.948-0.417 6.618-1.536 9.445-4.363 0.933-9.796-2.01-18.757-5-28-1-1-1-1-4.375-1.376-3.625 0.376-3.625 0.376-5.375 2.313z"/>
<path transform="translate(2553.5 839.48)" d="m0 0c1.111-0.013 2.222-0.025 3.367-0.038 1.195 8e-3 2.39 0.016 3.621 0.024 1.23-3e-3 2.46-7e-3 3.728-0.011 2.6-3e-3 5.2 4e-3 7.8 0.021 3.988 0.022 7.974 0 11.962-0.025 2.524 2e-3 5.048 7e-3 7.573 0.015 1.196-8e-3 2.393-0.016 3.627-0.024 0.554 6e-3 0.554 6e-3 3.357 0.038 0.976 3e-3 1.952 6e-3 2.958 0.01 2.46 0.508 2.46 0.508 5.46 4.508-0.109 7.831-0.109 7.831-2.713 11.245-2.807 2.153-4.314 2.276-7.822 2.329-0.528 0.014-0.528 0.014-3.201 0.084-1.098 9e-3 -2.196 0.019-3.327 0.029-2.178 0.042-4.356 0.088-6.535 0.137-0.964 0.011-1.928 0.022-2.922 0.034-2.48 0.142-2.48 0.142-5.48 1.142-2.802 0.189-5.601 0.316-8.406 0.425-2.594 0.575-2.594 0.575-5.594 4.575-0.969 2.905-1.196 4.966-1.25 8-0.026 0.866-0.052 1.732-0.078 2.625 0.328 2.375 0.328 2.375 3.328 5.375 3.214 0.308 3.214 0.308 7.152 0.222 1.416-0.018 2.832-0.037 4.291-0.056 1.483-0.035 2.966-0.069 4.494-0.104 2.926-0.06 5.852-0.111 8.778-0.152 1.3-0.03 2.601-0.059 3.941-0.09 3.344 0.18 3.344 0.18 7.344 2.18 1.536 3.072 1.226 5.602 1 9-2.226 5.225-2.226 5.225-4 7-2.875 0.021-5.751-0.01-8.625-0.063-23.357-0.185-23.357-0.185-31.375 6.063-2.965 4.447-2.269 7.692-2 13 4.171 4.171 12.306 2.887 18 3 2.109-7e-3 4.219-0.023 6.328-0.047 1.082-0.011 2.164-0.023 3.279-0.034 2.164-0.029 4.329-0.073 6.493-0.132 2.634-0.039 5.269 0.074 7.9 0.213 2.859 4.289 1.874 7.026 1 12-1.369 3.216-2.119 4.565-5.255 6.111-2.964 0.959-5.311 1.149-8.422 1.163-1.114 0.01-2.228 0.019-3.376 0.029-0.597 0-0.597 0-3.615-3e-3 -0.616 3e-3 -0.616 3e-3 -3.731 0.013-2.598 6e-3 -5.196 7e-3 -7.794 2e-3 -3.99-3e-3 -7.979 0.021-11.969 0.046-2.523 2e-3 -5.046 3e-3 -7.569 2e-3 -1.199 9e-3 -2.397 0.018-3.633 0.028-0.552-3e-3 -0.552-3e-3 -3.348-0.019-0.975 1e-3 -1.95 1e-3 -2.955 2e-3 -0.77-0.124-1.54-0.247-2.333-0.374-3.367-5.051-2.314-10.38-1.195-16.157 0.176-0.716 0.176-0.716 1.07-4.343 1.766-7.652 2.654-15.17 3.187-23 0.82-12.02 2.034-23.921 4.977-35.637 1.084-4.36 1.661-8.676 2.203-13.129 1.549-5.591 4.742-7.234 10.305-7.252z"/>
<path transform="translate(1582,841)" d="m0 0c2.847 4.271 1.805 7.037 1 12-1.014 3.178-1.646 4.646-4 7-3.738 0.012-3.738 0.012-8.312-0.312-1.502-0.1-3.004-0.199-4.551-0.301-3.152-0.295-6.052-0.759-9.137-1.387-7.157-0.513-13.577-0.544-20 3-3.324 3.039-5.707 5.988-6.367 10.523-8e-3 2.477-8e-3 2.477 0.367 6.477 6.155 1.539 11.645 2.096 18 2 14.826-0.154 14.826-0.154 21.5 4.375 6.951 7.298 5.643 18.264 5.43 27.762-0.956 8.201-5.24 15.999-10.93 21.863-9.567 6.628-21.266 5.765-32.394 5.652-3.193-0.027-6.383 0-9.577 0.032-2.032-4e-3 -4.064-0.01-6.095-0.02-0.953 0.01-1.907 0.02-2.888 0.031-2.673-0.048-2.673-0.048-7.046-0.695-3.056-3.281-3-5-3.312-9.562 0.312-4.438 0.312-4.438 2.312-8.438 3.341-1.67 6.859-1.049 10.551-0.992l5.244 0.051c2.758 0.031 5.517 0.066 8.275 0.112 2.66 0.043 5.32 0.066 7.981 0.087 1.595 0.022 3.19 0.044 4.833 0.067 4.133-0.326 5.948-0.744 9.116-3.325 3.982-5.309 3.583-7.502 3-14-4.507-2.253-6.491-2.068-11.438-1.812-10.635 0.115-20.212-2.6-27.972-10.18-4.462-5.635-6.32-12.109-5.969-19.301 1.149-8.211 3.213-15.955 9.37-21.791 1.862-1.776 3.604-3.675 5.333-5.58 7.73-5.944 19.005-4.367 28.301-4.336 2.068-0.022 4.135-0.046 6.203-0.074 17.693-0.173 17.693-0.173 23.172 1.074z"/>
<path transform="translate(1798 840.02)" d="m0 0c1.14 0.016 2.279 0.033 3.453 0.05 2.398 0.037 4.796 0.078 7.194 0.121 3.682 0.063 7.364 0.105 11.046 0.145 2.332 0.039 4.663 0.08 6.995 0.122 0.552 4e-3 0.552 4e-3 3.348 0.028 2.664 0.061 5.323 0.275 7.976 0.518 2.854 4.282 1.963 8.17 1 13-1.179 2.407-2.129 4.129-4 6-2.84 0.076-5.683 0.083-8.524 0.063-0.857-4e-3 -1.714-8e-3 -2.597-0.012-3.682-0.016-7.364-0.044-11.045-0.071-2.682-0.018-5.364-0.03-8.045-0.042-1.612-0.012-3.224-0.023-4.884-0.035-3.905 0.097-3.905 0.097-6.905 1.097-0.081 2.625-0.139 5.25-0.188 7.875-0.035 1.462-0.069 2.924-0.105 4.43 0.096 1.22 0.193 2.439 0.293 3.695 3.705 2.471 5.693 2.28 10.117 2.344 1.411 0.03 2.823 0.059 4.277 0.09 1.479 0.022 2.957 0.044 4.481 0.066 2.914 0.044 5.828 0.096 8.742 0.157 1.295 0.018 2.591 0.037 3.925 0.056 3.483 0.289 6.884 0.714 9.458 3.287 0.615 6.035-0.729 9.921-4 15-4.468 2.028-8.332 2.207-13.192 2.09-1.356-0.02-2.713-0.04-4.111-0.06-2.844-0.062-5.688-0.127-8.531-0.196-1.356-0.018-2.711-0.037-4.108-0.056-0.617-0.015-0.617-0.015-3.74-0.086-3.665 0.341-5.452 1.03-8.318 3.308-2.157 4.313-2.581 6.273-2 11 2.188 2.876 3.718 4.64 7.241 5.631 3.271 0.438 6.404 0.446 9.704 0.397 1.324-0.013 2.648-0.025 4.012-0.037 2.786-0.036 5.573-0.075 8.359-0.118 1.321-0.011 2.643-0.021 4.004-0.033 0.605-8e-3 0.605-8e-3 3.665-0.051 3.015 0.211 3.015 0.211 6.015 2.211 0.972 7.051-0.955 10.511-5 16-3.965 1.983-9.043 1.187-13.43 1.204-1.142 5e-3 -2.284 0.011-3.46 0.017-2.42 9e-3 -4.839 0.016-7.258 0.02-3.705 9e-3 -7.409 0.04-11.114 0.072-2.348 6e-3 -4.695 0.012-7.043 0.015-1.11 0.013-2.221 0.025-3.365 0.038-1.034-3e-3 -2.069-6e-3 -3.134-9e-3 -0.455 2e-3 -0.455 2e-3 -2.755 0.011-2.441-0.368-2.441-0.368-6.441-3.368-0.521-5.644 0.282-10.542 1.5-16.039 0.611-3.618 0.772-7.17 0.937-10.836 0.59-11.681 1.867-23.61 5.125-34.875 1.997-7.186 2.24-14.65 2.704-22.063 0.034-0.506 0.034-0.506 0.206-3.066 0.055-0.913 0.109-1.826 0.165-2.767 0.363-2.354 0.363-2.354 2.363-5.354 6.203-1.485 12.65-1.086 18.988-0.984z"/>
<path transform="translate(2079.7 839.92)" d="m0 0c1.115 0.018 2.23 0.036 3.379 0.054 2.346 0.041 4.693 0.088 7.039 0.14 3.599 0.076 7.198 0.124 10.797 0.171 2.282 0.044 4.565 0.088 6.847 0.135 1.079 0.013 2.157 0.025 3.268 0.038 7.592 0.2 7.592 0.2 10.936 3.544-0.089 6.103-0.863 10.403-5 15-4.022 1.202-7.923 1.074-12.094 0.992-0.68-8e-3 -0.68-8e-3 -4.121-0.051-2.857-0.044-5.714-0.096-8.571-0.156-0.68-7e-3 -0.68-7e-3 -4.121-0.043-1.24-0.022-2.481-0.044-3.759-0.067-3.665 0.357-5.467 1.046-8.334 3.325-2.157 4.313-2.581 6.272-2 11 2.188 2.876 3.719 4.638 7.241 5.633 3.275 0.436 6.401 0.426 9.704 0.359 1.324-0.017 2.648-0.033 4.012-0.051 2.786-0.044 5.573-0.096 8.359-0.156 1.321-0.014 2.643-0.028 4.004-0.043 1.209-0.022 2.419-0.044 3.664-0.067 3.016 0.325 3.016 0.325 6.016 3.325 0.589 5.209-0.193 8.588-3 13-4.712 3.534-6.366 3.368-12.125 3.371-1.594 0.018-3.187 0.035-4.829 0.053-2.528 0.01-5.055 0.014-7.583 0.012-2.447 3e-3 -4.892 0.031-7.338 0.06-0.731 1e-3 -0.731 1e-3 -4.43 6e-3 -3.695 0.498-3.695 0.498-6.158 2.333-2.111 2.972-2.265 5.362-2.6 8.978-0.613 5.478-1.317 10.888-2.312 16.312-0.214 1.199-0.428 2.398-0.649 3.633-1.082 3.592-2.34 5.591-4.976 8.242-4.862 1.302-6.416 1.292-11-1-5.302-10.604-0.202-30.991 2-42 0.33-0.935 0.661-1.869 1.002-2.832 1.078-3.422 1.488-6.543 1.814-10.113 0.124-1.325 0.249-2.651 0.377-4.016 0.122-1.374 0.244-2.748 0.369-4.164 0.126-1.351 0.251-2.702 0.381-4.094 1.001-10.833 1.001-10.833 1.263-15.272 0.065-1.052 0.129-2.105 0.196-3.189 0.022-0.456 0.022-0.456 0.136-2.765 0.583-3.226 1.36-5.019 3.462-7.555 6.015-2.662 12.287-2.219 18.734-2.082z"/>
<path transform="translate(1702.4 839.63)" d="m0 0c0.469 0 0.469 0 2.841 2e-3 1.065-6e-3 2.13-0.013 3.227-0.019 1.15 9e-3 2.3 0.018 3.485 0.028 1.182-1e-3 2.364-1e-3 3.583-2e-3 2.503 3e-3 5.006 0.013 7.51 0.029 3.83 0.024 7.659 0.021 11.489 0.014 2.431 6e-3 4.862 0.013 7.293 0.021 0.573 0 0.573 0 3.472-2e-3 1.071 9e-3 2.142 0.019 3.246 0.029 0.939 4e-3 1.878 9e-3 2.846 0.014 2.916 0.288 5.04 0.89 7.631 2.26 1.936 5.93 0.271 10.365-2 16-2 2-2 2-5.76 2.196-1.604-0.024-3.208-0.047-4.861-0.071-0.856-7e-3 -1.712-0.015-2.593-0.023-3.669-0.033-7.338-0.089-11.007-0.143-2.675-0.036-5.35-0.06-8.025-0.084-1.606-0.023-3.211-0.046-4.865-0.07-3.889 0.195-3.889 0.195-6.889 2.195-1.022 3.067-1.166 5.287-1.188 8.5-7e-3 0.48-7e-3 0.48-0.043 2.906 0.231 2.594 0.231 2.594 2.231 5.594 3.506 1.169 6.201 1.081 9.898 1.028 1.367-0.013 2.733-0.025 4.141-0.038 2.883-0.035 5.766-0.074 8.648-0.117 1.369-0.011 2.738-0.022 4.149-0.033 1.253-0.017 2.507-0.034 3.798-0.051 3.292 0.207 5.476 0.648 8.366 2.211 2.105 4.953 0.241 9.05-1.504 13.828-2.099 3.048-3.939 3.258-7.496 4.172-3.631 0.18-3.631 0.18-7.629 0.09-1.447-0.02-2.894-0.04-4.385-0.06-3.036-0.062-6.073-0.127-9.109-0.196-1.446-0.018-2.892-0.037-4.381-0.056-1.318-0.029-2.636-0.057-3.994-0.087-3.736 0.33-5.564 1.028-8.502 3.309-3.235 6.194-2.39 13.943-2.479 20.766-0.026 0.998-0.053 1.995-0.08 3.023-0.013 0.905-0.027 1.809-0.041 2.741-0.4 2.47-0.4 2.47-3.4 6.47-5.374 1.091-10.111 1.811-15-1-1.063-2.687-1.063-2.687-1-6 0.479-1.057 0.958-2.114 1.451-3.203 1.685-4.132 2.101-7.421 2.393-11.863 0.112-1.539 0.224-3.077 0.339-4.662 0.053-0.798 0.053-0.798 0.317-4.834 0.839-12.597 2.35-24.441 5.629-36.637 1.321-5.763 1.61-11.574 1.994-17.463 0.781-9.85 0.781-9.85 6.254-10.712z"/>
<path transform="translate(1867 839.85)" d="m0 0c0.616-3e-3 0.616-3e-3 3.731-0.019 0.666-1e-3 0.666-1e-3 4.035-4e-3 1.364-3e-3 2.729-6e-3 4.135-0.01 2.889-5e-3 5.777-7e-3 8.665-7e-3 4.431-2e-3 8.862-0.02 13.293-0.039 2.802-3e-3 5.605-5e-3 8.407-6e-3 1.331-7e-3 2.662-0.015 4.034-0.022 1.231 3e-3 2.463 6e-3 3.731 9e-3 0.543 0 0.543 0 3.29-4e-3 2.695 0.247 2.695 0.247 5.695 2.247 1.328 5.211 1.01 9.022-1 14-5.235 3.927-8.902 3.401-15.274 3.496-4.235 0.573-6.336 1.989-9.726 4.504h-2c-1.045 7.242-2.023 14.442-2.438 21.75-0.614 9.608-1.512 20.116-4.574 29.278-1.719 5.169-2.227 10.599-3.012 15.976-1.002 4.1-1.886 6.154-4.976 8.996-4.912 0-9.386-0.498-13-4-0.826-6.134 0.561-12.372 1.433-18.465 0.672-5.378 1.086-10.757 1.504-16.16 1.546-19.341 1.546-19.341 5.063-26.375 0.147-1.808 0.221-3.623 0.25-5.437 0.025-0.968 0.051-1.936 0.078-2.934-0.328-2.629-0.328-2.629-3.328-5.629-3.817-1.908-8.507-1.416-12.715-1.621-3.285-0.379-3.285-0.379-6.285-2.379-1.607-4.82-1.533-8.631 0.312-13.375 2.748-4.275 5.948-3.753 10.672-3.77z"/>
<path transform="translate(1940,839)" d="m0 0c6.152-0.469 12.791 0.732 18 4 2.292 2.843 4.158 5.852 6 9l2 3c0.428 2.509 0.773 5.033 1.062 7.562 0.843 7.248 0.843 7.248 1.938 9.438 4.329 0.505 6.972 0.71 10.625-1.812 2.659-3.569 4.638-7.266 6.703-11.2 4.105-7.336 8.933-15.119 16.672-18.988 9.286-0.357 9.286-0.357 14 2-0.481 8.011-4.595 11.595-10 17-0.701 0.908-1.402 1.815-2.125 2.75-0.619 0.742-1.237 1.485-1.875 2.25h-2c-0.674 1.664-1.339 3.331-2 5-1.173 1.605-2.408 3.166-3.688 4.688-0.355 0.438-0.355 0.438-2.156 2.656-1.353 1.667-2.707 3.334-4.062 5-10.768 14.168-13.25 33.595-13.59 50.957-0.677 3.626-1.752 5.246-4.504 7.699-3.383 0.41-3.383 0.41-7.125 0.062-0.62-0.045-0.62-0.045-3.758-0.277-1.028-0.259-2.057-0.518-3.117-0.785-2.58-5.16-1.433-8.677 0-14 0.647-1.674 1.31-3.343 2-5 3.332-15.721 1.74-29.05-6-43-0.592-1.628-1.143-3.273-1.625-4.938-1.537-4.539-3.812-8.026-6.375-12.062-1.004-2.665-2.005-5.331-3-8l-3-3c-0.812-3.5-0.812-3.5-1-7l2-3z"/>
<path transform="translate(2365.7 839.83)" d="m0 0c1.715-9e-3 3.43-0.02 5.145-0.035 2.431-0.017 4.863-0.02 7.294-0.021 0.706-2e-3 0.706-2e-3 4.279-0.013 3.546 0.243 3.546 0.243 7.546 2.243 1.187 4.116 1.273 6.309-0.313 10.313-1.687 2.687-1.687 2.687-3.687 4.687-2.534 0.339-5.078 0.598-7.625 0.813-6.877 0.788-11.117 1.665-16.375 6.187-2.389 4.369-2.3 8.593-2.438 13.5-0.286 7.27-0.927 14.42-1.937 21.625-0.114 0.852-0.228 1.703-0.346 2.58-0.614 4.187-1.508 7.978-2.85 11.998-1.295 3.893-1.809 6.863-1.929 10.922-0.295 5.041-0.927 8.922-3.5 13.375-3.492 2.328-4.893 2.503-9 2-2.303-1.867-3.679-3.356-5-6 0.055-9.791 1.288-19.645 2.312-29.375 0.105-1.092 0.211-2.185 0.319-3.31 0.788-7.098 2.503-12.776 5.369-19.315 1.376-6.424 1.684-13.33 0.476-19.804-0.244-0.363-0.244-0.363-1.476-2.196-4.103-0.364-7.979 0.012-12.082 0.313-3.918-0.313-3.918-0.313-6.903-2.461-2.259-3.196-2.618-4.621-2.453-8.477 0.022-0.941 0.044-1.882 0.066-2.851 0.372-2.524 0.372-2.524 2.372-5.524 3.471-0.41 6.764-0.612 10.25-0.687 1.07-0.032 2.14-0.064 3.242-0.097 9.746-0.252 19.496-0.342 29.244-0.39z"/>
</svg>
