<?xml version="1.0" encoding="UTF-8"?>
<svg version="1.1" viewBox="0 0 2448 1112" xmlns="http://www.w3.org/2000/svg">
<path transform="translate(1890,286)" d="m0 0c6.24 1.841 12.166 4.273 18.152 6.809 3.58 1.497 7.21 2.841 10.848 4.191 6.188 2.368 12.07 5.035 18 8 3.308 1.398 6.652 2.701 10 4 2.548 0.988 5.089 1.985 7.617 3.023 2.198 0.901 4.415 1.754 6.633 2.602 5.099 3.229 7.066 7.088 9.75 12.375 0.361 0.66 0.361 0.66 2.188 4 1.378 3.043 2.358 5.697 3.25 8.875 1.269 4.518 3.136 8.41 5.304 12.559 1.724 3.517 2.997 7.142 4.289 10.836 1.245 3.509 2.638 6.949 4.039 10.398 0.835 2.093 1.605 4.211 2.368 6.332 1.571 4.023 3.408 7.785 5.374 11.625 0.972 1.943 1.845 3.935 2.688 5.937 0.495 1.135 0.99 2.269 1.5 3.438 0.334 0.802 0.668 1.604 1.012 2.43 1.176 2.508 1.176 2.508 3.988 6.57 4.125 1.062 4.125 1.062 8 0 1.625-3.188 1.625-3.188 2.23-5.402 0.929-3.133 2.282-5.909 3.708-8.848 2.041-4.339 3.749-8.613 5.187-13.188 1.414-4.462 3.215-7.693 5.875-11.562 0.838-2.01 1.648-4.032 2.438-6.062 3.323-8.146 3.323-8.146 7.562-10.938 3.674-0.077 5.39 0.509 8.25 2.812 2.631 2.093 4.52 2.972 7.625 4.126 3.434 1.286 5.601 2.41 8.625 4.624 3.739 2.604 6.752 3.472 11.082 4.626 3.644 1.224 6.371 3.512 9.418 5.812 1.258 0.474 2.516 0.949 3.812 1.438 3.188 1.562 3.188 1.562 4.813 4.124 1.076 9.864-5.486 19.843-9.625 28.438-3.36 7.143-6.576 14.313-9.578 21.613-3.477 8.282-6.992 16.63-11.078 24.629-1.593 3.269-2.47 6.639-3.469 10.125-0.883 2.657-1.97 5.02-3.25 7.508-9.793 19.051-9.793 19.051-7.625 29.125 2.939 6.846 6.534 13.045 11 19 0.809 2.402 0.809 2.402 1.438 4.938 1.196 4.264 2.724 6.639 5.562 10.062 0.767 1.565 1.49 3.152 2.188 4.75 5.188 11.826 11.643 23.049 18.093 34.223 2.624 4.62 4.92 9.363 7.219 14.152 1.5 2.875 1.5 2.875 3.438 5.625 2.073 3.267 3.356 6.531 4.73 10.133 3.491 8.169 7.948 16.038 12.426 23.699 1.896 3.4 3.376 6.842 4.906 10.418 1.259 2.289 2.552 4.56 3.875 6.812 3.871 6.685 7.343 13.481 10.687 20.438 1.438 2.75 1.438 2.75 3.376 5.562 2.006 3.101 3.476 6.228 4.917 9.622 1.777 3.982 3.838 7.817 5.875 11.671 1.817 4.142 2.923 7.17 1.278 11.516-2.663 3.155-5.459 4.575-9.133 6.441-0.67 0.343-0.67 0.343-4.063 2.079-4.231 2.063-8.497 3.98-12.812 5.859-1.671 0.993-3.337 1.994-5 3-2.181 1.178-4.37 2.344-6.562 3.5-7.229 3.835-14.402 7.764-21.559 11.73-3.389 1.874-6.771 3.716-10.238 5.442-2.641 1.328-2.641 1.328-6.329 3.766-4.015 2.571-8.158 3.998-12.652 5.531-3.87 1.5-7.164 3.811-10.66 6.031-2.272 0.889-4.545 1.775-6.828 2.637-5.204 2.237-10.151 4.967-15.132 7.659-3.901 2.097-7.798 4.083-11.856 5.86-3.018 1.33-5.754 2.65-8.559 4.344-4.219 2.416-8.546 3.956-13.133 5.531-2.492 0.969-2.492 0.969-5.554 3.031-2.777 1.832-4.657 2.523-7.813 3.376-5.011 1.377-8.712 3.796-13.125 6.562-3.243 1.366-6.519 2.592-9.82 3.809-2.719 1.018-5.352 2.114-7.992 3.316-2.67 1.195-5.378 2.309-8.126 3.313-3.17 1.219-6.05 2.522-9.062 4.062-4.24 2.169-8.529 3.849-13 5.5-1.796 0.824-3.588 1.658-5.375 2.5-3.506 1.623-6.905 2.961-10.625 4-5.619 1.576-10.737 4.008-16 6.5-8.658 3.954-17.252 7.704-26.48 10.094-2.52 0.906-2.52 0.906-5.84 2.879-3.838 2.114-7.099 3.043-11.368 3.965-6.106 1.435-11.62 3.256-17.347 5.785-4.284 1.845-8.671 3.352-13.07 4.894-3.627 1.288-7.233 2.624-10.837 3.974-8.011 2.994-16.047 5.684-24.238 8.159-3.832 1.254-7.484 2.737-11.195 4.312-6.984 2.888-13.957 4.428-21.344 5.942-4.92 1.145-9.361 2.86-14.019 4.777-4.956 1.852-10.052 2.975-15.192 4.199-3.894 0.976-7.685 2.108-11.508 3.332-14.466 4.618-29.108 8.815-43.957 12.012-2.576 0.668-4.81 1.579-7.23 2.676-4.779 2.069-9.629 2.737-14.75 3.438-5.413 0.743-10.304 1.571-15.25 4-6.966 3.282-14.34 3.955-21.888 5.04-7.731 1.145-14.931 2.992-22.385 5.366-6.064 1.709-12.202 2.518-18.43 3.41-4.394 0.702-8.612 1.652-12.922 2.746-7.716 1.914-15.397 2.979-23.294 3.785-5.123 0.574-9.729 1.548-14.624 3.188-7.69 2.49-15.378 3.195-23.394 3.965-9.296 0.976-18.215 1.979-27.188 4.624-10.939 3.053-21.993 3.514-33.289 4.272-10.973 0.755-21.778 2.029-32.649 3.728-12.746 1.956-25.333 3.094-38.21 3.698-13.332 0.637-26.615 1.683-39.914 2.802-1.064 0.089-2.128 0.177-3.223 0.268-3.037 0.253-6.073 0.509-9.11 0.768-0.453 0.038-0.453 0.038-2.751 0.23-4.411 0.383-8.744 0.904-13.104 1.672-50.698 3.814-102.23 2.694-153 1-1.072-0.032-2.144-0.064-3.248-0.097-11.839-0.362-23.545-1.438-35.32-2.672-11.027-1.137-22.066-2.031-33.12-2.856-0.815-0.061-0.815-0.061-4.942-0.373-8.018-0.589-16.026-1.085-24.058-1.44-8.657-0.438-17.073-1.565-25.624-2.937-12.896-1.979-25.685-3.254-38.688-4.125-11.213-0.77-21.268-1.892-32-5.246-6.942-1.96-14.164-2.472-21.312-3.254-10.451-1.151-20.559-2.602-30.761-5.14-7.994-1.969-16.047-3.255-24.193-4.428-5.855-0.868-11.408-2.116-17.097-3.745-4.062-1.058-8.165-1.541-12.325-2.062-6.335-0.856-12.173-2.054-18.25-4.125-6.279-2.138-12.263-3.205-18.812-4-6.901-0.847-12.626-2.219-18.891-5.242-5.592-2.094-11.465-2.862-17.357-3.738-6.241-0.982-11.203-2.915-17.002-5.52-3.736-1.019-7.512-1.761-11.312-2.5-7.129-1.464-14.003-3.043-20.856-5.531-4.684-1.602-9.489-2.743-14.289-3.942-3.543-1.027-3.543-1.027-6.973-2.527-3.93-1.651-7.716-2.548-11.882-3.438-4.739-1.069-9.237-2.108-13.688-4.062-4.341-1.9-8.688-2.912-13.312-3.938-6.425-1.444-12.346-3.289-18.434-5.773-3.608-1.429-7.253-2.648-10.942-3.851-5.069-1.664-10.026-3.46-14.96-5.485-5.969-2.419-12.063-4.508-18.145-6.621-1.757-0.611-3.513-1.221-5.269-1.832-0.44-0.153-0.44-0.153-2.666-0.926-4.278-1.495-8.523-3.025-12.71-4.762-4.798-1.906-9.619-3.376-14.582-4.785-2.98-1.027-2.98-1.027-5.457-2.535-2.975-1.759-5.735-2.47-9.085-3.304-5.971-1.627-11.102-3.852-16.555-6.739-3.711-1.865-7.515-3.227-11.434-4.586-3.217-1.134-6.314-2.519-9.449-3.863-1.831-0.651-3.665-1.297-5.5-1.938-4.493-1.605-8.355-3.693-12.5-6.062-2.681-1.041-5.387-1.985-8.102-2.934-4.756-1.75-9.309-3.923-13.898-6.066-6.729-3.068-13.54-5.797-20.449-8.438-3.551-1.562-3.551-1.562-6.641-3.628-2.944-1.956-5.406-2.899-8.785-3.872-5.31-1.667-9.435-4.036-14.125-7.062-2.544-1.085-5.117-2.059-7.703-3.039-2.297-0.961-2.297-0.961-5.172-2.899-2.809-1.853-5.205-2.962-8.313-4.187-5.594-2.252-10.872-4.917-16.187-7.75-0.815-0.434-1.629-0.868-2.469-1.315-1.619-0.863-3.238-1.727-4.857-2.591-7.952-4.216-15.83-8.152-24.299-11.219-3.808-1.788-7.386-3.586-10.875-5.938-3.177-2.096-6.462-3.71-9.879-5.374-5.204-2.706-10.241-5.7-15.294-8.678-4.896-2.873-9.844-5.521-14.952-8.01-2.667-1.333-5.333-2.667-8-4-1.32-0.639-2.64-1.279-4-1.938-4.163-2.146-8.065-4.523-12-7.062-1.114-0.701-2.227-1.402-3.375-2.125-2.625-1.875-2.625-1.875-4.625-4.875 0.638-8.922 3.934-18.057 8.062-25.938 1.913-4.009 2.864-7.562 3.876-11.874 1.399-5.934 3.174-11.104 5.847-16.563 1.273-2.751 2.228-5.49 3.153-8.375 1.89-5.893 4.161-11.587 6.488-17.32 2.132-5.322 4.128-10.691 6.129-16.063 1.357-3.631 2.738-7.251 4.133-10.867 0.403-1.051 0.806-2.101 1.222-3.184 0.89-2.299 1.799-4.59 2.715-6.878 1.15-3.292 1.975-6.425 2.75-9.813 1.188-4.97 2.968-9.021 5.371-13.504 1.897-3.966 2.998-8.116 4.223-12.328 1.326-4.234 3.049-8.238 4.804-12.309 1.66-4.039 2.986-8.162 4.325-12.316 0.902-2.668 0.902-2.668 2.464-6.168 1.303-3.17 2.062-6.045 2.813-9.375 1.147-4.846 2.808-8.49 5.367-12.719 2.028-3.879 3.082-8.018 4.293-12.211 1.107-3.664 2.5-7.136 3.965-10.668 1.505-3.804 2.728-7.694 3.996-11.582 0.933-2.737 1.965-5.397 3.066-8.07 1.359-3.298 2.47-6.567 3.438-10 0.912-3.189 1.87-5.579 3.438-8.563 2.45-5.124 3.662-10.206 4.937-15.726 1.125-3.586 1.125-3.586 3.129-6.59 2.283-3.427 3.031-6.305 3.934-10.308 1.104-4.456 2.132-8.286 4.562-12.188 3.072-4.96 4.143-10.307 5.535-15.926 0.795-2.945 1.678-5.512 2.965-8.262 1.625-3.503 2.767-6.703 3.875-10.374 2.807-8.432 5.996-13.128 14-17.25 4.632-2.123 9.349-3.916 14.125-5.688 1.675-0.816 3.341-1.651 5-2.5 2.956-1.514 5.748-2.777 8.875-3.938 3.541-1.341 6.759-2.845 10.125-4.562 4.584-2.335 9.156-4.253 14-6 3.007-1.318 6.007-2.651 9-4 1.134-0.474 2.269-0.949 3.438-1.438 3.562-1.562 3.562-1.562 6.042-2.929 0.873-0.477 1.746-0.954 2.645-1.445 0.403-0.231 0.403-0.231 2.445-1.395 2.43-0.793 2.43-0.793 5.11-0.18 2.32 1.387 2.32 1.387 4.32 5.387 0.379 2.693 0.379 2.693 0.562 5.844 0.074 1.204 0.147 2.408 0.223 3.648 0.035 0.662 0.035 0.662 0.215 4.008 0.041 0.697 0.041 0.697 0.248 4.224 0.476 8.362 0.868 16.725 1.217 25.092 0.157 3.749 0.314 7.498 0.473 11.246 0.039 0.947 0.079 1.893 0.121 2.868 0.549 12.773 1.42 25.444 2.765 38.161 1.153 11.079 1.949 22.171 2.676 33.284 0.031 0.469 0.031 0.469 0.187 2.844 0.667 10.173 1.295 20.349 1.875 30.528 0.249 4.362 0.503 8.723 0.757 13.085 0.175 3.061 0.339 6.123 0.503 9.185 0.499 8.866 1.192 17.531 2.639 26.303 2.669 16.72 2.813 33.829 3.541 50.723 0.245 5.651 0.504 11.301 0.762 16.951 0.2 4.396 0.399 8.793 0.59 13.191 1.139 25.795 1.139 25.795 2.607 36.811 1.184 9.67 1.848 19.354 2.472 29.073 0.194 3.021 0.396 6.041 0.598 9.062 0.128 1.947 0.256 3.894 0.383 5.842 0.059 0.889 0.119 1.779 0.18 2.696 0.688 10.851 0.688 10.851 0.406 15.331l-3 3c-4.932-0.19-8.811-2.159-13.188-4.312-5.419-2.607-10.791-4.832-16.468-6.793-3.321-1.268-6.261-3.133-9.344-4.895-2.764-1.061-5.544-2.035-8.352-2.973-2.648-1.027-2.648-1.027-5.195-2.566-2.453-1.461-2.453-1.461-7.078-2.773-4.375-1.688-4.375-1.688-6.107-4.138-1.667-4.669-1.817-9.137-1.928-14.038-0.018-0.509-0.018-0.509-0.107-3.081-0.112-3.247-0.205-6.495-0.295-9.743-1.206-40.147-1.206-40.147-5.938-46.688-6.869-5.964-14.697-9.458-23.188-12.5-3.73-1.468-6.502-3.271-9.812-5.5-6.081-3.173-11.049-5.612-18-4-5.755 6.629-7.341 16.331-9.177 24.704-0.935 4.191-2.056 8.054-3.846 11.944-1.798 3.957-2.962 7.58-3.977 11.79-1.112 4.381-2.28 8.533-4.062 12.687-2.084 4.866-3.117 9.815-4.211 14.98-0.727 2.895-0.727 2.895-2.415 5.957-2.159 4.833-2.216 9.753-1.312 14.938 2.5 2.5 2.5 2.5 6 4 4.332 2.166 8.114 4.085 12 7 1.73 0.934 3.483 1.826 5.25 2.688 3.521 1.726 7.036 3.457 10.531 5.234 8.153 4.14 16.372 7.972 24.793 11.535 3.426 1.543 3.426 1.543 6.114 3.156 2.312 1.387 2.312 1.387 6.624 2.762 4.688 1.625 4.688 1.625 8.563 4.063 4.06 2.522 7.742 3.94 12.223 5.476 4.038 1.511 7.783 3.484 11.613 5.453 4.981 2.473 10.09 4.634 15.195 6.836 4.006 1.758 7.956 3.606 11.906 5.485 5.223 2.467 10.427 4.602 15.918 6.39 2.27 0.922 2.27 0.922 6.27 3.922 2.312 0.681 4.65 1.276 7 1.812 6.246 1.574 11.508 3.726 17.172 6.747 3.59 1.829 7.265 3.135 11.066 4.453 2.865 1.025 5.65 2.173 8.45 3.363 10.634 4.477 21.383 8.41 32.441 11.699 3.238 1.044 6.279 2.408 9.355 3.856 4.512 1.919 9.201 3.332 13.868 4.824 3.648 1.246 3.648 1.246 7.253 2.812 3.063 1.294 5.845 2.114 9.083 2.809 5.356 1.271 10.142 3.169 15.175 5.367 4.492 1.802 9.1 3.022 13.766 4.289 3.036 0.873 5.928 1.89 8.871 3.031 5.244 1.991 10.527 3.056 16.043 4.032 3.457 0.906 3.457 0.906 7.238 2.844 4.806 2.349 9.332 3.457 14.531 4.562 6.458 1.45 12.596 3.036 18.762 5.465 7.134 2.524 14.594 4.183 21.926 6.035 1.145 0.29 2.289 0.58 3.469 0.879 3.83 0.962 7.662 1.914 11.504 2.828 4.964 1.198 9.735 2.523 14.527 4.293 5.377 1.87 10.753 2.698 16.375 3.438 5.877 0.775 11.291 1.766 16.813 4 7.438 2.947 15.018 3.977 22.905 5.042 6.803 0.955 13.154 2.544 19.734 4.506 6.453 1.782 13.025 2.902 19.611 4.076 2.696 0.49 5.393 0.981 8.089 1.473 1.318 0.239 2.636 0.479 3.994 0.725 3.99 0.742 7.967 1.53 11.944 2.334 5.207 1.052 10.413 2.01 15.66 2.844 5.625 0.911 11.213 1.917 16.799 3.045 9.958 1.999 19.878 3.302 29.977 4.37 6.771 0.743 13.378 1.778 20.037 3.209 11.676 2.457 23.311 3.656 35.207 4.325 14.143 0.799 28.156 1.973 42.206 3.774 31.627 4.052 63.122 5.235 94.976 6.142 0.666 0.02 0.666 0.02 4.037 0.119 2.523 0.074 5.046 0.144 7.568 0.211 0.571 0.017 0.571 0.017 3.46 0.102 0.495 0.013 0.495 0.013 3.001 0.082 3.107 0.183 3.107 0.183 6.907 0.691 4.539 0.532 8.933 0.619 13.502 0.621 0.894 2e-3 1.788 4e-3 2.709 6e-3 2.933 4e-3 5.865 1e-3 8.798-2e-3 2.052 0 4.104 1e-3 6.156 3e-3 4.293 1e-3 8.585-1e-3 12.878-6e-3 5.485-5e-3 10.97-2e-3 16.455 4e-3 4.236 4e-3 8.471 2e-3 12.707 0 2.021-1e-3 4.043 0 6.065 2e-3 2.833 3e-3 5.665-1e-3 8.498-7e-3 1.608 0 3.216-1e-3 4.873-2e-3 4.573-0.127 9.018-0.59 13.559-1.127 2.067-0.117 4.136-0.208 6.205-0.265 1.139-0.034 2.277-0.068 3.45-0.102 1.208-0.032 2.417-0.065 3.661-0.098 2.632-0.077 5.264-0.154 7.895-0.232 1.365-0.039 2.73-0.078 4.136-0.118 30.569-0.889 60.733-1.863 91.027-6.3 12.304-1.739 24.541-2.619 36.938-3.323 15.823-0.906 30.962-2.932 46.504-6.156 6.725-1.379 13.42-2.227 20.246-2.906 13.715-1.389 27.12-4.082 40.618-6.831 4.12-0.83 8.248-1.6 12.382-2.357 5.707-1.06 11.374-2.255 17.043-3.5 2.979-0.621 5.954-1.201 8.946-1.75 15.808-2.897 15.808-2.897 22.949-5.124 5.823-1.791 11.54-2.624 17.562-3.376 7.27-0.914 13.338-2.442 20.09-5.378 4.153-1.469 8.174-2.023 12.536-2.622 8.299-1.158 15.713-3.351 23.593-6.148 4.931-1.653 9.839-2.707 14.934-3.707 4.385-0.944 8.592-2.302 12.859-3.672 3.842-1.161 7.71-2.102 11.614-3.035 5.363-1.305 10.274-2.883 15.328-5.07 2.937-1.1 5.852-1.726 8.922-2.368 4.26-0.911 7.861-2.043 11.75-4 6.256-3.063 12.792-4.194 19.578-5.597 4.199-0.957 7.887-2.231 11.808-3.965 2.964-1.222 5.974-2.1 9.051-3 3.775-1.123 6.903-2.268 10.437-4.062 3.401-1.674 6.046-2.537 9.688-3.376 5.375-1.242 10.188-3.098 15.234-5.304 3.053-1.273 6.116-2.315 9.266-3.32 3.463-1.114 6.37-2.258 9.625-3.938 3.707-1.797 6.983-2.868 10.937-3.938 5.51-1.499 10.491-3.392 15.633-5.851 3.15-1.493 6.376-2.769 9.617-4.047 3.864-1.531 7.715-3.094 11.563-4.664 0.697-0.284 0.697-0.284 4.227-1.719 2.798-1.201 5.558-2.498 8.273-3.879 3.437-1.687 6.572-2.834 10.25-3.84 5.093-1.499 9.615-3.368 14.301-5.843 3.687-1.934 7.512-3.548 11.324-5.219 7.924-3.545 15.778-7.237 23.629-10.941 5.359-2.524 10.729-5.022 16.101-7.516 4.643-2.191 9.139-4.467 13.582-7.043 4.388-2.475 8.911-3.908 13.688-5.5 2.02-1.302 4.018-2.64 6-4 3.96-2.081 7.98-4.037 12-6 0.969-0.494 1.939-0.987 2.938-1.496 2.129-1.046 4.293-2.022 6.48-2.942 3.778-1.648 7.31-3.529 10.894-5.562 1.214-0.681 2.427-1.361 3.676-2.062 3.012-1.938 3.012-1.938 5.012-4.938 0.73-7.409-0.574-12.256-3.637-18.984-1.296-2.868-2.385-5.735-3.425-8.704-1.744-4.886-3.805-9.58-5.938-14.312-1.898-4.496-3.714-8.894-4.938-13.625-1.062-3.375-1.062-3.375-3.437-6.937-3.051-4.612-4.183-9.513-5.582-14.817-1.316-4.569-3.09-8.844-4.992-13.195-1.051-2.426-1.051-2.426-2.051-5.426-3.562-0.875-3.562-0.875-8 0-5.532 7.486-8.113 16.885-10.883 25.664-1.338 3.996-3.185 7.596-5.117 11.336-0.607 1.574-1.188 3.159-1.75 4.75-1.977 5.594-4.125 11.111-6.312 16.625-0.341 0.869-0.682 1.737-1.033 2.632-1.346 3.379-2.679 6.62-4.569 9.735-1.572 2.657-2.061 4.986-2.648 8.008-2.017 8.538-6.249 15.386-13.688 20.25-2.454 0.847-4.919 1.528-7.43 2.188-2.615 0.826-4.664 1.901-7.008 3.312-4.143 2.451-8.149 3.546-12.8 4.688-3.715 1.092-6.94 2.808-10.348 4.621-2.362 1.165-4.649 1.984-7.164 2.753-4.25 1.438-4.25 1.438-7.062 3.376-5.777 3.737-12.553 5.403-19.188 7.062-1-1-1-1-1.25-4.188 0.271-4.138 1.204-6.25 3.25-9.812 1.967-3.607 3.312-6.989 4.375-10.938 1.36-4.803 3.72-7.995 6.625-12.062 0.858-2.467 1.52-4.951 2.195-7.473 1.048-3.289 2.755-6.116 4.496-9.082 2.016-3.766 3.384-7.744 4.871-11.742 3.17-8.166 6.909-16.107 10.516-24.088 3.598-7.97 7.178-15.903 10.063-24.166 2.484-7.081 5.504-13.738 8.859-20.449 0.66-1.619 1.305-3.245 1.938-4.875 1.308-3.348 2.733-6.553 4.374-9.75 2.866-5.609 5.356-11.365 7.856-17.145 1.219-2.815 2.451-5.625 3.695-8.429 2.992-6.746 5.84-13.458 8.227-20.442 0.91-2.359 0.91-2.359 3.16-6.109 2.974-7.223 3.318-15.086 0.539-22.465-1.029-1.987-2.1-3.952-3.211-5.894-1.589-2.912-2.601-5.664-3.578-8.829-2.093-6.642-4.997-12.789-8-19.062-3.217-6.849-6.323-13.688-9.07-20.738-0.876-2.132-1.899-4.201-2.93-6.262-1.901-3.802-3.461-7.61-4.996-11.566-1.004-2.434-1.004-2.434-3.066-6.372-1.584-3.319-2.47-5.922-3.313-9.437-1.263-5.019-3.367-8.704-6.148-13.027-2.111-3.713-3.23-7.6-4.489-11.664-1.224-3.634-2.863-6.91-4.629-10.305-3.523-6.813-6.934-13.656-8.984-21.067-1.375-4.562-1.375-4.562-3.313-7.437-2.025-3.069-2.919-5.514-4-9-1.206-3.851-2.296-6.491-4.5-9.937-3.08-5.035-4.639-10.075-6.351-15.7-1.211-3.488-1.211-3.488-2.813-6.148-2.155-3.607-2.155-7.212-2.398-11.34l1-1zm-1467 154c-6.671 9.382-8.353 21.532-10.773 32.543-1.269 5.736-2.768 11.395-4.325 17.059-0.91 3.429-1.699 6.87-2.464 10.336-0.813 3.66-1.714 6.747-3.126 10.25-1.759 5.11-1.943 8.411-1.312 13.812 3.715 4.497 8.353 6.075 13.688 8.02 2.312 0.98 2.312 0.98 4.874 3.23 3.771 2.707 6.945 2.199 11.438 1.75 3-3 3-3 3.308-5.704-0.031-1.061-0.061-2.121-0.093-3.214-0.027-1.168-0.055-2.337-0.083-3.54-0.043-1.169-0.087-2.338-0.132-3.542-0.015-0.496-0.015-0.496-0.089-3.006-0.101-3.103-0.223-6.205-0.349-9.306-0.376-9.703-0.624-19.402-0.781-29.11-0.018-1.08-0.036-2.16-0.055-3.273-0.15-8.811-0.15-8.811-0.205-13.143-0.039-3.097-0.089-6.194-0.142-9.291-8e-3 -0.937-0.017-1.875-0.025-2.84-0.085-4.412-0.346-7.016-2.354-11.031-3.438-0.562-3.438-0.562-7 0z" fill="#E10000"/>
<path transform="translate(1493,172)" d="m0 0c0.9 0.309 1.8 0.618 2.728 0.936 8.395 2.818 16.405 3.949 25.21 4.626 2.53 0.199 5.06 0.408 7.589 0.629 1.101 0.085 2.202 0.169 3.336 0.257 3.564 0.627 6.076 1.623 9.137 3.552 2.621 6.03 3.611 11.915 4.5 18.438 0.217 1.566 0.433 3.132 0.656 4.746 0.122 0.883 0.244 1.767 0.369 2.677 0.36 2.38 0.763 4.753 1.186 7.121 1.846 10.365 2.926 20.597 3.569 31.102 0.928 14.952 2.386 29.641 5.231 44.364 1.651 8.617 2.746 17.045 3.239 25.802 0.827 12.523 2.658 24.841 4.595 37.228 1.875 12.008 3.525 23.998 4.629 36.105 0.555 5.868 1.386 11.604 2.456 17.401 1.636 8.988 2.708 18.004 3.705 27.079 0.519 4.718 1.058 9.433 1.599 14.148 0.107 0.929 0.214 1.858 0.324 2.815 1.862 16.057 4.236 32.038 6.942 47.974h7c1.262-5.771 2.182-11.437 2.812-17.312 0.878-7.411 2.489-14.464 4.298-21.686 1.843-7.474 3.029-14.922 4.144-22.541 0.694-4.149 1.638-8.093 2.746-12.149 1.791-6.729 2.68-13.347 3.438-20.25 0.78-7.038 1.788-13.55 4-20.312 2.837-8.699 3.967-17.461 5.042-26.517 0.875-6.995 2.384-13.331 4.572-20.027 1.548-5.237 2.229-10.553 2.948-15.956 1.264-8.856 2.885-17.447 5.07-26.129 1.042-4.617 1.729-9.248 2.368-13.933 0.929-6.8 2.27-13.316 4.062-19.938 2.016-7.47 3.169-14.811 4-22.5 2.494-22.599 2.494-22.599 8.387-30.176 2.113-1.574 2.113-1.574 6.488-1.512 1.881 0.277 3.756 0.594 5.625 0.938 1.115 0.201 2.23 0.402 3.379 0.609 6.482 1.281 12.542 2.949 18.687 5.36 4.744 1.667 9.649 2.708 14.551 3.808 4.402 1.591 7.273 4.003 9.383 8.223 0.102 2.922 0.141 5.821 0.137 8.744 1e-3 0.46 1e-3 0.46 8e-3 2.79 8e-3 3.121 8e-3 6.242 9e-3 9.363 4e-3 2.246 8e-3 4.493 0.013 6.739 0.012 6.199 0.018 12.399 0.022 18.599 6e-3 6.675 0.018 13.351 0.029 20.027 0.024 16.134 0.039 32.268 0.052 48.403 3e-3 4.553 7e-3 9.107 0.011 13.661 0.026 28.252 0.048 56.504 0.06 84.757 3e-3 6.547 6e-3 13.095 9e-3 19.642 1e-3 1.628 2e-3 3.255 2e-3 4.932 0.013 26.383 0.046 52.766 0.088 79.149 0.042 27.061 0.066 54.121 0.071 81.182 4e-3 15.204 0.015 30.408 0.048 45.613 0.028 12.944 0.039 25.889 0.028 38.833-5e-3 6.609-2e-3 13.218 0.022 19.827 0.023 6.045 0.022 12.089 3e-3 18.133-3e-3 2.193 3e-3 4.385 0.018 6.578 0.019 2.969 8e-3 5.937-0.012 8.907 0.013 0.861 0.026 1.721 0.039 2.608-0.06 4.106-0.393 6.178-2.964 9.446-6.296 4.832-12.666 6.733-20.381 8.005-8.214 1.485-15.629 3.745-23.312 7.062-3.58 1.193-6.243 1.335-10 1-3.61-4.814-3.371-6.612-3.361-12.529-2e-3 -0.869-5e-3 -1.739-8e-3 -2.634-4e-3 -2.918 0.012-5.835 0.028-8.752 1e-3 -2.089 1e-3 -4.179-1e-3 -6.268-1e-3 -5.677 0.017-11.354 0.038-17.032 0.019-5.931 0.02-11.862 0.024-17.793 9e-3 -11.234 0.034-22.467 0.064-33.701 0.033-12.788 0.05-25.577 0.065-38.365 0.031-26.309 0.084-52.617 0.151-78.926-2.31 0.33-4.62 0.66-7 1-0.231 1.344-0.461 2.689-0.699 4.074-1.67 9.54-3.485 18.973-5.863 28.364-2.123 8.437-3.438 16.836-4.362 25.486-0.631 5.653-1.784 10.871-3.358 16.335-1.169 4.465-1.721 8.979-2.28 13.553-0.126 0.958-0.251 1.915-0.38 2.901-0.538 4.119-1.052 8.241-1.55 12.365-0.705 5.519-1.64 10.591-3.449 15.86-2.338 7.42-3.237 14.785-4.059 22.5-0.969 9.063-2.405 17.45-5.063 26.174-1.508 5.454-2.136 10.969-2.812 16.576-1.331 10.027-2.991 19.922-5.125 29.812-0.119 0.572-0.119 0.572-0.718 3.469-0.238 1.062-0.475 2.124-0.72 3.219-0.102 0.465-0.102 0.465-0.621 2.824-1.129 2.984-2.496 4.464-4.941 6.488-2.84 0.863-2.84 0.863-5.938 1.312-1.019 0.162-2.039 0.323-3.089 0.489-3.002 0.201-5.129 0.176-7.973-0.801-3.274-4.365-4.269-8.121-5.438-13.312-0.213-0.92-0.427-1.839-0.648-2.786-1.788-7.884-3.152-15.822-4.462-23.797-1.07-6.359-2.612-12.381-4.522-18.543-1.361-5.213-1.999-10.509-2.715-15.839-0.819-5.795-2.098-11.273-3.715-16.911-2.064-7.384-3.164-14.503-3.938-22.124-0.947-9.261-2.74-17.817-5.368-26.737-2.184-7.527-3.373-14.893-4.413-22.67-0.998-7.175-2.542-14.243-4.018-21.333-1.167-5.688-2.107-11.29-2.701-17.073-0.932-7.563-2.758-15.502-7.062-21.875-3.62-0.678-3.62-0.678-7-1 0.029 0.846 0.058 1.692 0.087 2.564 0.886 26.699 1.124 53.377 1.186 80.088 3e-3 1.067 6e-3 2.133 8e-3 3.232 0.025 10.087 0.047 20.174 0.06 30.262 0.017 12.789 0.05 25.578 0.107 38.367 0.038 9.071 0.058 18.141 0.063 27.212 4e-3 5.393 0.016 10.785 0.048 16.178 0.03 5.041 0.037 10.081 0.025 15.123 0 1.847 8e-3 3.695 0.025 5.542 0.023 2.519 0.012 5.037-1e-3 7.556 3e-3 1.409 7e-3 2.818 0.01 4.269-0.761 4.443-2.073 5.903-5.618 8.607-3.793 0.82-3.793 0.82-8.188 1.125-12.925 1.117-25.601 3.036-38.113 6.52-3.272 0.43-4.859 0.012-7.699-1.645-6.26-12.521-4.274-30.427-4.206-44.19 3e-3 -2.167 4e-3 -4.334 6e-3 -6.501 4e-3 -4.82 0.015-9.64 0.031-14.46 0.027-8.203 0.04-16.405 0.051-24.608 0.014-9.615 0.03-19.231 0.051-28.847 0.064-29.397 0.093-58.795 0.117-88.192 0.04-49.591 0.101-99.182 0.179-148.77l0.033-21.549c3e-3 -1.427 5e-3 -2.854 7e-3 -4.325 0.036-23.476 0.061-46.952 0.081-70.427 0.022-24.36 0.055-48.719 0.099-73.078 0.026-14.912 0.044-29.824 0.05-44.736 6e-3 -10.123 0.022-20.245 0.047-30.367 0.014-5.832 0.023-11.664 0.019-17.496-3e-3 -5.327 7e-3 -10.653 0.028-15.979 6e-3 -1.931 6e-3 -3.863 0-5.794-6e-3 -2.611 6e-3 -5.221 0.022-7.832 2e-3 -1.453 4e-3 -2.907 6e-3 -4.404 0.379-3.442 0.379-3.442 3.379-6.442 7.261-3.63 21.481-0.132 29 2z" fill="#E10000"/>
<path transform="translate(1173.8 151.93)" d="m0 0c18.586-0.308 31.752-0.359 47.196 11.071 0.773 0.523 1.547 1.047 2.344 1.586 11.275 8.456 15.136 21.475 17.032 34.741 1.309 10.63 1.04 21.363 1.012 32.054 4e-3 2.604 9e-3 5.208 0.016 7.812 0.013 7.019 8e-3 14.037-1e-3 21.056-8e-3 7.376-1e-3 14.752 4e-3 22.127 5e-3 12.381-2e-3 24.762-0.016 37.143-0.016 14.277-0.011 28.553 5e-3 42.83 0.014 12.299 0.016 24.599 8e-3 36.898-5e-3 7.328-5e-3 14.655 5e-3 21.983 8e-3 6.891 2e-3 13.781-0.015 20.672-4e-3 2.516-3e-3 5.032 4e-3 7.549 0.088 36.521 0.088 36.521-7.398 46.549-0.614 0.918-1.227 1.835-1.86 2.781-3.185 4.581-5.919 8.351-10.64 11.406-3.5 2.813-3.5 2.813-4.438 6.75 1.464 6.344 5.696 9.342 10.625 13.125 2.796 2.343 4.394 4.844 6.313 7.938 0.664 0.928 1.329 1.855 2.013 2.811 7.911 12.698 5.45 31.526 5.467 45.914 0.014 2.796 0.029 5.591 0.045 8.386 0.041 7.553 0.062 15.106 0.08 22.659 0.02 7.91 0.055 15.82 0.088 23.73 0.056 14.117 0.096 28.233 0.131 42.35 0.033 12.803 0.08 25.606 0.14 38.41 0.068 14.887 0.127 29.775 0.171 44.662 0.023 7.875 0.051 15.749 0.088 23.623 0.035 7.391 0.056 14.781 0.065 22.172 5e-3 2.717 0.016 5.435 0.032 8.152 0.022 3.697 0.025 7.393 0.023 11.089 0.01 1.086 0.021 2.172 0.032 3.291-0.033 7.408-0.033 7.408-3.375 10.751-3.873 1.936-8.746 1.186-13.028 1.203-1.099 6e-3 -2.199 0.011-3.332 0.017-2.33 0.01-4.659 0.016-6.989 0.02-3.571 0.01-7.141 0.041-10.712 0.072-2.26 7e-3 -4.519 0.012-6.779 0.016-1.072 0.012-2.144 0.025-3.248 0.037-7.57-0.023-7.57-0.023-10.912-3.365-1.433-5.343-1.131-10.893-1.107-16.387 1e-3 -1.045 1e-3 -2.089 2e-3 -3.166 3e-3 -3.5 0.013-7.001 0.023-10.501 4e-3 -2.51 7e-3 -5.02 9e-3 -7.531 7e-3 -5.405 0.016-10.81 0.028-16.215 0.018-8.547 0.028-17.094 0.036-25.64 0.024-24.304 0.06-48.608 0.105-72.911 0.024-13.423 0.042-26.845 0.051-40.268 7e-3 -8.496 0.022-16.992 0.045-25.489 0.011-5.286 0.015-10.572 0.016-15.858 2e-3 -2.451 7e-3 -4.902 0.017-7.353 0.012-3.347 0.012-6.694 9e-3 -10.041 6e-3 -0.968 0.013-1.937 0.019-2.935-0.04-10.899-2.81-22.262-10.73-30.182-6.279-5.094-10.888-7.805-19.148-7.773-0.667-3e-3 -0.667-3e-3 -4.039-0.016-3.336 0.266-3.336 0.266-5.336 2.266-0.2 3.74-0.272 7.406-0.258 11.147-4e-3 1.175-8e-3 2.35-0.012 3.56-0.01 3.965-5e-3 7.929-1e-3 11.894-5e-3 2.831-0.01 5.662-0.016 8.493-0.012 6.111-0.017 12.221-0.018 18.331-2e-3 9.655-0.02 19.309-0.041 28.963-0.028 13.53-0.051 27.06-0.068 40.59-1e-3 0.859-2e-3 1.718-3e-3 2.603-0.012 9.585-0.022 19.17-0.03 28.755-3e-3 3.475-6e-3 6.95-9e-3 10.425-1e-3 0.857-2e-3 1.715-3e-3 2.598-0.013 14.288-0.038 28.576-0.071 42.864-0.022 9.605-0.03 19.209-0.028 28.814-2e-3 5.968-0.016 11.935-0.033 17.903-6e-3 2.775-6e-3 5.551-1e-3 8.326 6e-3 3.778-6e-3 7.555-0.023 11.333 6e-3 1.107 0.012 2.215 0.019 3.356-0.044 5.386-0.08 7.613-3.404 12.045-2.99 1.08-4.956 1.006-8.107 0.541-4.322-0.601-8.573-0.823-12.932-1.006-1.732-0.079-3.464-0.157-5.196-0.236-2.703-0.12-5.406-0.237-8.11-0.349-2.628-0.11-5.255-0.23-7.882-0.353-1.563-0.066-3.126-0.133-4.737-0.202-6.109-0.598-6.109-0.598-9.036-2.395-2.565-5.228-2.277-10.422-2.252-16.125-3e-3 -1.142-6e-3 -2.284-9e-3 -3.46-7e-3 -3.855 0-7.709 7e-3 -11.564-2e-3 -2.78-6e-3 -5.56-0.01-8.34-8e-3 -7.662-4e-3 -15.324 2e-3 -22.986 4e-3 -7.407-1e-3 -14.814-6e-3 -22.222-0.01-16.09-0.01-32.18-4e-3 -48.271 5e-3 -14.081 7e-3 -28.162 4e-3 -42.244v-2.827c-1e-3 -3.788-2e-3 -7.576-2e-3 -11.364-6e-3 -35.552-1e-3 -71.103 0.01-106.66 9e-3 -31.6 9e-3 -63.2-1e-3 -94.8-0.011-35.485-0.015-70.969-9e-3 -106.45 1e-3 -3.781 2e-3 -7.563 2e-3 -11.344 0-0.931 0-1.862 1e-3 -2.821 2e-3 -14.074-1e-3 -28.147-6e-3 -42.221-6e-3 -15.999-4e-3 -31.999 7e-3 -47.998 5e-3 -8.169 7e-3 -16.338 0-24.506-5e-3 -7.471-2e-3 -14.941 8e-3 -22.411 3e-3 -2.71 2e-3 -5.42-3e-3 -8.13-6e-3 -3.669 0-7.338 9e-3 -11.008-5e-3 -1.064-9e-3 -2.128-0.014-3.224 0.049-9.677 0.049-9.677 2.266-14.026 4.534-2.267 7.381-2.377 12.426-2.598 0.843-0.039 1.686-0.078 2.554-0.118 2.777-0.125 5.555-0.236 8.332-0.347 1.938-0.083 3.876-0.166 5.814-0.249 20.22-0.851 40.444-1.382 60.678-1.759zm-30.804 67.071c-0.3 3.483-0.413 6.788-0.395 10.273-6e-3 1.069-0.012 2.138-0.018 3.24-0.017 3.599-0.012 7.199-7e-3 10.799-7e-3 2.573-0.016 5.147-0.026 7.721-0.022 7.004-0.025 14.008-0.023 21.012 0 5.84-8e-3 11.68-0.017 17.52-0.019 13.775-0.022 27.55-0.015 41.325 6e-3 14.225-0.016 28.451-0.053 42.676-0.031 12.2-0.043 24.399-0.039 36.599 2e-3 7.292-3e-3 14.584-0.028 21.877-0.022 6.856-0.02 13.713 0 20.57 4e-3 2.52-1e-3 5.04-0.016 7.56-0.018 3.434-5e-3 6.866 0.015 10.3-0.012 1.003-0.025 2.006-0.038 3.039 0.057 4.417 0.302 6.998 2.937 10.616 4.6 3.164 8.891 2.375 14.211 1.431 7.758-1.918 13.97-5.595 18.336-12.402 4.447-8.528 6.425-16.374 6.43-26.03 1e-3 -0.429 1e-3 -0.429 9e-3 -2.6 8e-3 -2.856 2e-3 -5.713-4e-3 -8.569 2e-3 -2.055 6e-3 -4.111 0.01-6.166 9e-3 -5.571 6e-3 -11.141-1e-3 -16.711-5e-3 -5.836 0-11.672 3e-3 -17.508 4e-3 -9.801-1e-3 -19.602-0.01-29.403-0.011-11.321-8e-3 -22.642 3e-3 -33.963 9e-3 -9.729 0.011-19.459 5e-3 -29.188-3e-3 -5.807-3e-3 -11.613 3e-3 -17.42 6e-3 -5.461 2e-3 -10.921-9e-3 -16.382-3e-3 -2.001-2e-3 -4.002 2e-3 -6.002 6e-3 -2.738-1e-3 -5.476-0.011-8.213-1e-3 -1.53-2e-3 -3.06-3e-3 -4.636-0.662-11.494-3.844-20.604-12.376-28.365-5.908-5.028-8.957-6.294-16.875-6.313-0.805-8e-3 -0.805-8e-3 -4.875-0.05-4.125 0.363-4.125 0.363-7.125 3.363z" fill="#E10000"/>
<path transform="translate(1399,166)" d="m0 0c0.715 0.472 1.431 0.944 2.168 1.43 11.904 8.519 20.128 21.02 24.043 34.98 1.074 3.525 2.478 6.879 3.922 10.266 2.046 5.484 2.01 10.88 1.998 16.673 2e-3 0.95 5e-3 1.9 7e-3 2.878 5e-3 3.202 4e-3 6.403 2e-3 9.605l9e-3 6.933c9e-3 6.366 0.01 12.732 0.011 19.097 2e-3 6.86 9e-3 13.72 0.016 20.58 0.014 15.006 0.02 30.012 0.024 45.018 3e-3 9.366 7e-3 18.733 0.012 28.099 0.012 25.923 0.022 51.846 0.026 77.769v5.03c0 1.68 1e-3 3.361 1e-3 5.041 0 3.371 1e-3 6.743 1e-3 10.114 0 0.418 0 0.418 1e-3 2.533 3e-3 27.106 0.019 54.212 0.042 81.319 0.025 28.656 0.039 57.313 0.04 85.97 1e-3 15.622 7e-3 31.244 0.025 46.866 0.015 13.301 0.02 26.602 0.012 39.903-4e-3 6.788-3e-3 13.576 0.011 20.364 0.013 6.213 0.012 12.426-1e-3 18.64-1e-3 2.248 2e-3 4.497 0.01 6.745 0.011 3.057 4e-3 6.113-8e-3 9.169 8e-3 0.872 0.015 1.745 0.023 2.644-0.068 8.004-2.257 15.012-5.395 22.334-1.38 3.309-2.428 6.528-3.312 10-3.09 10.719-11.415 18.138-19.626 25.156-2.062 1.844-2.062 1.844-4.308 4.301-3.352 3.095-6.693 4.784-10.816 6.731-0.697 0.337-0.697 0.337-4.223 2.042-9.736 4.024-20.202 4.131-30.59 4.082-1.231-4e-3 -2.461-9e-3 -3.729-0.014-12.267-0.159-22.133-1.114-32.396-8.298-1.657-0.812-3.324-1.603-5-2.375-15.853-7.829-26.066-24.975-31.913-41.151-3.281-10.255-5.241-19.995-5.216-30.743-1e-3 -0.929-3e-3 -1.858-5e-3 -2.815-5e-3 -3.125-2e-3 -6.25 0-9.374-2e-3 -2.259-4e-3 -4.517-7e-3 -6.776-6e-3 -6.215-6e-3 -12.43-4e-3 -18.645 0-6.7-6e-3 -13.399-0.01-20.099-9e-3 -13.129-0.011-26.258-0.012-39.387-1e-3 -10.67-3e-3 -21.341-6e-3 -32.011-9e-3 -30.238-0.013-60.477-0.012-90.716v-4.942-4.948c0-26.467-9e-3 -52.934-0.023-79.401-0.015-27.163-0.022-54.327-0.021-81.49 0-15.255-2e-3 -30.511-0.013-45.766-9e-3 -12.988-0.011-25.976-5e-3 -38.964 4e-3 -6.628 4e-3 -13.256-5e-3 -19.884-8e-3 -6.067-6e-3 -12.134 2e-3 -18.202 2e-3 -2.195 0-4.39-5e-3 -6.585-8e-3 -2.985-2e-3 -5.969 6e-3 -8.954-5e-3 -0.851-0.01-1.702-0.015-2.579 0.035-6 0.964-11.366 2.264-17.193 0.237-1.185 0.474-2.369 0.719-3.59 1.795-7.692 4.513-14.444 8.156-21.41 0.411-0.789 0.821-1.578 1.244-2.39 2.786-5.127 5.976-9.278 9.881-13.61 0.722-0.99 1.444-1.98 2.188-3 4.061-4.332 8.695-7.038 13.812-10 0.661-0.392 0.661-0.392 4.004-2.375 26.184-14.813 57.628-11.393 81.996 5.375zm-59 57c-0.849 0.844-1.699 1.687-2.574 2.557-3.152 4.474-3.056 7.207-3.064 12.655-8e-3 0.923-0.016 1.846-0.024 2.797-0.022 3.104-7e-3 6.207 7e-3 9.311-8e-3 2.243-0.018 4.487-0.03 6.73-0.027 6.174-0.022 12.347-0.013 18.521 6e-3 6.654-0.018 13.309-0.038 19.963-0.034 13.04-0.04 26.08-0.036 39.121 3e-3 10.596-2e-3 21.193-0.014 31.79-3e-3 3.049-7e-3 6.099-0.01 9.148-1e-3 1.518-3e-3 3.035-5e-3 4.599-0.03 28.719-0.026 57.438-0.013 86.156 0.01 26.288-0.022 52.575-0.074 78.862-0.053 26.976-0.076 53.951-0.068 80.927 4e-3 15.152-4e-3 30.303-0.043 45.454-0.033 12.898-0.038 25.796-7e-3 38.694 0.016 6.584 0.018 13.167-0.015 19.75-0.029 6.024-0.022 12.047 0.015 18.072 7e-3 2.181 0 4.363-0.021 6.545-0.169 18.357-0.169 18.357 4.906 23.54 0.68 0.463 0.68 0.463 4.121 2.808 0.969 0.825 1.939 1.65 2.938 2.5 4.276 2.095 7.359 2.023 12.062 1.5 5.962-2.862 11.499-8.423 14.079-14.571 1.146-4.267 1.173-8.064 1.175-12.485 4e-3 -0.906 7e-3 -1.812 0.01-2.745 9e-3 -3.047 3e-3 -6.093-3e-3 -9.139 3e-3 -2.203 7e-3 -4.405 0.011-6.607 0.011-6.059 8e-3 -12.119 4e-3 -18.178-2e-3 -6.532 7e-3 -13.064 0.014-19.595 0.013-12.8 0.015-25.6 0.012-38.399-1e-3 -10.402 0-20.803 5e-3 -31.204 0-1.479 1e-3 -2.958 1e-3 -4.482 2e-3 -3.004 3e-3 -6.008 4e-3 -9.012 0.011-28.189 9e-3 -56.379 3e-3 -84.568-6e-3 -25.802 6e-3 -51.605 0.025-77.407 0.019-26.478 0.027-52.957 0.024-79.436-2e-3 -14.871 0-29.743 0.014-44.615 0.012-12.66 0.014-25.32 2e-3 -37.981-6e-3 -6.461-7e-3 -12.923 5e-3 -19.385 0.01-5.913 7e-3 -11.825-7e-3 -17.738-2e-3 -2.142 0-4.283 8e-3 -6.424 0.01-2.908 2e-3 -5.814-0.011-8.722v-4.896c-0.763-8.974-3.922-13.649-10.375-19.411-8.496-5.664-16.946-2.057-23 5z" fill="#E10000"/>
<path transform="translate(819.19 190.19)" d="m0 0c0.861 0.196 1.722 0.392 2.609 0.593 5.821 1.486 10.236 3.899 15.203 7.219 1.715 0.864 3.442 1.703 5.188 2.5 4.087 2.022 6.834 3.973 9.812 7.5 0.604 0.711 1.207 1.421 1.829 2.153 15.974 19.298 23.203 40.486 23.424 65.465 8e-3 0.629 8e-3 0.629 0.045 3.811 0.047 4.149 0.086 8.298 0.124 12.447 0.014 1.419 0.028 2.838 0.042 4.3 0.074 7.503 0.141 15.007 0.204 22.51 0.066 7.751 0.151 15.502 0.24 23.253 0.065 5.962 0.116 11.924 0.164 17.886 0.025 2.858 0.055 5.716 0.091 8.574 0.048 3.995 0.078 7.989 0.102 11.984 0.019 1.18 0.037 2.359 0.056 3.574 0.016 5.984-0.104 10.781-3.321 16.043-4.869 2.435-8.966 2.306-14.277 2.301-1.003 5e-3 -2.007 9e-3 -3.041 0.013-2.12 6e-3 -4.241 7e-3 -6.362 2e-3 -3.242-3e-3 -6.482 0.02-9.724 0.046-2.062 2e-3 -4.123 3e-3 -6.185 2e-3 -0.968 9e-3 -1.936 0.018-2.933 0.028-9.045-0.062-9.045-0.062-12.478-3.392-2.367-6.172-2.251-12.024-2.179-18.528 5e-3 -1.142 9e-3 -2.284 0.014-3.461 0.011-2.474 0.026-4.948 0.046-7.422 0.03-3.923 0.047-7.846 0.06-11.769 0.039-11.152 0.104-22.304 0.176-33.456 0.043-6.83 0.071-13.659 0.09-20.488 0.011-2.594 0.027-5.188 0.05-7.782 0.031-3.64 0.044-7.279 0.052-10.918 0.014-1.059 0.028-2.118 0.043-3.208-0.01-7.493-0.107-16.923-4.989-23.009-5.62-4.967-10.242-5.242-17.409-5.181-5.43 0.409-8.192 2.461-11.954 6.222-5.86 11.552-4.58 25.222-4.531 37.786-2e-3 2.425-6e-3 4.85-0.011 7.276-6e-3 5.078 2e-3 10.155 0.021 15.233 0.023 6.423 0.01 12.847-0.014 19.27-0.015 5.014-0.01 10.027 0 15.041 3e-3 2.363 0 4.726-0.01 7.089-0.04 12.909 0.55 25.55 2.266 38.354 0.147 1.148 0.293 2.297 0.444 3.48 1.082 7.298 3.144 13.096 6.835 19.471 0.502 0.929 1.003 1.857 1.52 2.813 3.655 6.184 7.899 11.665 12.48 17.187 4.715 5.77 9.207 11.585 13.36 17.774 1.706 2.316 3.589 4.216 5.64 6.226 4.103 5.197 7.685 10.584 11.204 16.188 3.314 5.188 6.732 10.363 10.703 15.074 2.69 3.519 4.789 7.299 6.906 11.176 0.436 0.791 0.872 1.582 1.321 2.397 3.81 6.964 7.384 14.034 10.866 21.165 1.631 3.27 3.277 6.509 5.024 9.719 2.251 4.877 3.462 9.557 4.602 14.781 0.408 1.803 0.817 3.605 1.226 5.407 0.174 0.787 0.347 1.574 0.526 2.385 0.622 2.708 0.622 2.708 1.643 6.005 1.305 6.265 1.274 12.285 1.27 18.668 7e-3 1.39 0.013 2.78 0.02 4.212 0.019 4.587 0.023 9.174 0.025 13.761 7e-3 3.201 0.014 6.402 0.021 9.604 0.012 6.711 0.015 13.422 0.014 20.134-1e-3 7.721 0.02 15.441 0.052 23.162 0.029 7.463 0.036 14.926 0.035 22.39 2e-3 3.157 0.011 6.315 0.027 9.472 0.019 4.434 0.013 8.867 1e-3 13.3 0.012 1.286 0.023 2.572 0.034 3.897-0.064 9.514-1.984 17.967-4.52 27.103-0.51 2.206-1.012 4.414-1.5 6.626-1.137 4.526-2.646 7.625-5.5 11.374-0.927 1.578-1.842 3.162-2.75 4.75-8.821 14.703-21.142 25.155-37.25 31.25-3.578 0.89-7.181 1.552-10.812 2.188-0.934 0.177-1.868 0.354-2.83 0.537-10.824 1.946-20.275 1.244-30.982-0.912-1.081-0.197-2.161-0.393-3.274-0.596-6.775-1.342-11.476-3.21-17.102-7.217-1.381-0.845-2.763-1.691-4.187-2.562-17.021-11.583-26.072-25.934-31.813-45.438-0.576-1.606-1.158-3.211-1.75-4.812-2.647-8.87-2.402-18.087-2.411-27.269-5e-3 -1.271-0.01-2.542-0.015-3.852-0.014-4.174-0.021-8.349-0.027-12.524-5e-3 -2.91-0.011-5.821-0.017-8.732-0.01-6.086-0.016-12.173-0.02-18.259-5e-3 -7.806-0.029-15.612-0.058-23.418-0.018-6.004-0.024-12.008-0.025-18.013-3e-3 -2.879-0.011-5.758-0.024-8.637-0.017-4.016-0.015-8.033-9e-3 -12.049-9e-3 -1.191-0.018-2.383-0.028-3.61 3e-3 -0.547 3e-3 -0.547 0.017-3.317-1e-3 -0.949-3e-3 -1.897-4e-3 -2.874 0.447-3.166 1.51-5.056 3.371-7.634 3.713-1.856 8.24-1.163 12.336-1.167 0.516-2e-3 0.516-2e-3 3.124-0.011 2.184-5e-3 4.368-7e-3 6.552-7e-3 3.343-2e-3 6.685-0.02 10.028-0.039 2.119-3e-3 4.239-5e-3 6.359-6e-3 1.001-7e-3 2.002-0.014 3.034-0.022 4.594 0.015 7.393 0.165 11.567 2.252 1.907 3.813 2.251 5.043 2.252 9.07 5e-3 1.023 0.011 2.047 0.016 3.101-2e-3 0.558-2e-3 0.558-0.012 3.384 3e-3 1.181 7e-3 2.362 0.011 3.579 7e-3 2.567 9e-3 5.134 8e-3 7.702-1e-3 4.07 0.012 8.139 0.029 12.209 0.046 11.573 0.071 23.146 0.077 34.719 5e-3 7.078 0.03 14.157 0.066 21.235 9e-3 2.692 0.012 5.384 7e-3 8.076-8e-3 3.779 0.01 7.557 0.032 11.336-8e-3 1.1-0.016 2.201-0.024 3.335 0.097 9.22 1.583 18.477 7.976 25.504 4.548 3.49 8.989 3.567 14.57 3.239 5.426-0.886 7.933-3.453 11.742-7.176 5.074-7.47 4.544-16.366 4.525-25.074 3e-3 -0.625 3e-3 -0.625 0.016-3.788 0.014-4.118 0.013-8.235 0.01-12.353 4e-3 -2.881 9e-3 -5.762 0.013-8.643 8e-3 -6.038 7e-3 -12.076 2e-3 -18.114-6e-3 -7.696 0.011-15.392 0.035-23.088 0.014-5.953 0.015-11.906 0.012-17.859 1e-3 -2.835 6e-3 -5.67 0.016-8.505 0.126-40.375 0.126-40.375-7.816-52.201-0.762-1.172-1.524-2.344-2.309-3.551-2.006-2.792-4.07-5.481-6.254-8.137-6.253-7.671-12.197-15.427-17.374-23.874-4.811-7.559-10.142-14.631-16.25-21.188-3.714-4.033-6.58-8.2-9.422-12.875-2.367-3.711-4.956-7.216-7.578-10.75-3.706-4.998-7.177-9.981-10.376-15.313-0.659-0.886-1.32-1.773-2-2.687-3.096-5.129-4.947-10.7-7-16.313-0.536-1.361-1.072-2.722-1.624-4.124-1.403-3.953-2.504-7.906-3.532-11.969-0.844-2.907-0.844-2.907-2.323-6.481-1.627-4.736-2.299-9.192-2.691-14.147-0.08-0.948-0.16-1.896-0.242-2.873-0.957-12.605-0.876-25.229-0.853-37.863-1e-3 -2.685-3e-3 -5.371-6e-3 -8.056-3e-3 -5.588 1e-3 -11.176 0.011-16.764 0.011-7.118 5e-3 -14.236-7e-3 -21.355-8e-3 -5.531-5e-3 -11.062 0-16.593 1e-3 -2.623 0-5.247-5e-3 -7.87-0.053-37.747-0.053-37.747 5.995-49.369 1.318-2.616 2.198-5.187 3.09-7.973 5.34-14.858 17.057-27.705 31.187-34.563 1.216-0.809 2.432-1.619 3.684-2.453 15.758-9.927 37.069-9.332 54.504-5.359z" fill="#E10000"/>
<path transform="translate(686,230)" d="m0 0c2.743 9.184 2.266 18.628 2.223 28.13-1e-3 1.848-2e-3 3.696-1e-3 5.544-1e-3 5.062-0.015 10.124-0.03 15.186-0.015 5.466-0.018 10.931-0.023 16.397-0.011 10.702-0.034 21.403-0.06 32.105-0.022 8.699-0.039 17.398-0.055 26.097-2e-3 1.239-4e-3 2.477-6e-3 3.753-5e-3 2.516-9e-3 5.033-0.013 7.549-0.042 23.591-0.098 47.182-0.157 70.774-0.053 21.576-0.091 43.153-0.12 64.729-0.031 22.163-0.072 44.325-0.125 66.487-0.03 12.439-0.056 24.879-0.069 37.318-0.012 10.59-0.035 21.179-0.071 31.768-0.018 5.401-0.031 10.802-0.031 16.203 0 4.948-0.015 9.896-0.04 14.845-6e-3 1.786-8e-3 3.572-4e-3 5.357 0.039 20.428-4.895 37.664-19.418 52.758-17.776 16.622-36.124 20.971-59.891 20.297-20.535-0.888-37.202-9.006-51.355-23.89-4.155-4.556-7.817-8.994-10.754-14.407-0.642-1.04-1.284-2.081-1.945-3.152-12.85-22.593-11.799-49.687-11.694-74.88 0.014-4.612-2e-3 -9.223-0.014-13.834-0.018-8.987-0.01-17.974 8e-3 -26.962 0.014-7.301 0.018-14.602 0.015-21.903-1e-3 -1.044-1e-3 -2.088-2e-3 -3.164l-3e-3 -6.366c-8e-3 -18.685 8e-3 -37.37 0.038-56.055 0.029-18.122 0.036-36.244 0.021-54.366-0.017-19.782-0.021-39.564-4e-3 -59.345 2e-3 -2.107 4e-3 -4.213 6e-3 -6.32 1e-3 -1.036 2e-3 -2.073 3e-3 -3.14 5e-3 -7.304 2e-3 -14.608-5e-3 -21.911-7e-3 -8.883-1e-3 -17.765 0.024-26.647 0.013-4.531 0.019-9.062 8e-3 -13.594-0.012-4.904 7e-3 -9.807 0.029-14.711-8e-3 -1.441-0.016-2.882-0.025-4.366 0.011-1.308 0.022-2.616 0.034-3.964 1e-3 -1.132 2e-3 -2.264 3e-3 -3.431 0.617-3.546 1.712-4.689 4.503-6.889 2.516-1.125 2.516-1.125 5.25-2 3.435-1.162 6.435-2.348 9.688-4 3.405-1.676 6.527-2.857 10.124-4 4.73-1.51 8.628-3.526 12.938-6 9.551-3.687 9.551-3.687 15-2 1.436 2.872 1.128 5.327 1.13 8.539 4e-3 1.407 8e-3 2.815 0.011 4.265-1e-3 1.562-2e-3 3.124-3e-3 4.734 3e-3 1.647 6e-3 3.294 9e-3 4.991 7e-3 4.59 9e-3 9.18 0.01 13.771 1e-3 4.943 9e-3 9.887 0.016 14.83 0.012 8.573 0.02 17.145 0.026 25.717 0.011 13.545 0.031 27.089 0.053 40.634 8e-3 4.631 0.015 9.261 0.023 13.892 1e-3 1.158 3e-3 2.315 5e-3 3.507 0.021 13.183 0.04 26.366 0.058 39.549 2e-3 1.205 3e-3 2.411 5e-3 3.653 0.026 19.537 0.045 39.075 0.061 58.613 0.018 20.044 0.047 40.088 0.085 60.132 0.024 12.372 0.038 24.743 0.04 37.115 2e-3 8.476 0.015 16.952 0.036 25.429 0.012 4.893 0.019 9.787 0.013 14.681-5e-3 4.478 4e-3 8.956 0.023 13.435 7e-3 2.391-1e-3 4.783-0.01 7.174 9e-3 1.418 0.018 2.836 0.027 4.297 1e-3 0.612 1e-3 0.612 4e-3 3.709 0.941 8.303 6.525 13.19 12.753 18.271 4.213 1.705 7.108 1.649 11.625 1.062 6.004-3.064 10.892-6.919 14-13 0.978-3.911 1.12-6.953 1.112-10.967-1e-3 -1.452-1e-3 -2.904-2e-3 -4.4-5e-3 -1.602-0.011-3.203-0.017-4.853-2e-3 -1.714-4e-3 -3.427-6e-3 -5.141-4e-3 -3.732-0.012-7.464-0.022-11.196-0.016-6.072-0.025-12.144-0.034-18.216-0.013-8.816-0.029-17.631-0.048-26.447-0.028-13.932-0.044-27.863-0.059-41.795l-0.015-14.295c-2e-3 -1.19-3e-3 -2.381-4e-3 -3.608-0.015-13.56-0.032-27.119-0.049-40.679-2e-3 -1.239-4e-3 -2.479-5e-3 -3.756-0.027-20.093-0.064-40.185-0.105-60.277-0.042-20.621-0.069-41.242-0.082-61.862-8e-3 -12.724-0.029-25.447-0.066-38.17-0.025-8.718-0.034-17.436-0.032-26.155 0-5.032-6e-3 -10.063-0.029-15.095-0.022-4.607-0.025-9.213-0.013-13.82 2e-3 -2.455-0.017-4.911-0.036-7.366 0.068-13.535 0.068-13.535 4.512-19.902 4.159-2.843 8.263-3.576 13.188-4.375 5.821-1.087 10.56-2.669 15.839-5.281 16.13-7.292 16.13-7.292 21.973-5.344z" fill="#E10000"/>
<path transform="translate(1060,159)" d="m0 0c5.804 5.804 4.174 15.589 4.203 23.418 6e-3 1.175 0.012 2.351 0.017 3.562 0.01 2.473 0.016 4.947 0.02 7.42 0.01 3.786 0.041 7.571 0.072 11.356 7e-3 2.408 0.012 4.816 0.016 7.224 0.012 1.131 0.025 2.261 0.038 3.426-3e-3 1.054-6e-3 2.109-0.01 3.196 2e-3 0.462 2e-3 0.462 0.011 2.801-0.445 3.146-1.52 5.033-3.367 7.597-3.37 1.685-7.041 1.376-10.77 1.578-1.793 0.11-3.587 0.22-5.38 0.332-2.831 0.173-5.661 0.34-8.493 0.486-2.731 0.144-5.46 0.317-8.189 0.495-1.637 0.093-3.274 0.186-4.96 0.282-4.781 0.94-6.374 1.919-9.208 5.827-1.443 4.811-1.131 9.826-1.109 14.8 0 0.999 1e-3 1.997 1e-3 3.026 2e-3 3.368 0.012 6.735 0.021 10.102 4e-3 2.431 6e-3 4.861 8e-3 7.291 6e-3 5.295 0.016 10.589 0.027 15.884 0.019 8.613 0.031 17.227 0.042 25.84 0.014 10.882 0.03 21.764 0.049 32.647 0.035 20.54 0.058 41.08 0.077 61.62 4e-3 4.198 8e-3 8.395 0.012 12.593 4e-3 5.096 9e-3 10.192 0.014 15.289 0.018 19.219 0.037 38.439 0.057 57.658 1e-3 0.44 1e-3 0.44 3e-3 2.662 0.031 28.5 0.075 56.999 0.125 85.498 0.053 30.121 0.087 60.242 0.103 90.362 0.01 18.047 0.035 36.092 0.08 54.138 0.03 12.358 0.041 24.716 0.038 37.074-1e-3 7.138 6e-3 14.275 0.035 21.413 0.026 6.527 0.029 13.054 0.014 19.582-2e-3 2.368 5e-3 4.736 0.022 7.104 0.021 3.206 0.011 6.411-7e-3 9.617 0.014 0.93 0.027 1.861 0.041 2.819-0.055 4.313-0.364 6.599-2.997 10.085-2.656 1.896-2.656 1.896-5.768 2.036-1.151-0.223-2.303-0.445-3.49-0.675-1.286-0.232-2.573-0.463-3.899-0.702-1.361-0.272-2.722-0.545-4.124-0.825-2.8-0.515-5.601-1.026-8.402-1.532-1.363-0.25-2.725-0.5-4.129-0.758-6.434-1.085-12.881-1.57-19.387-1.996-4.094-0.772-5.064-1.282-7.457-4.652-0.392-3.298-0.536-6.259-0.502-9.558-6e-3 -0.984-0.012-1.969-0.018-2.983-0.014-3.326 0-6.651 0.014-9.977-4e-3 -2.398-0.01-4.795-0.018-7.193-0.016-6.61-8e-3 -13.219 5e-3 -19.829 9e-3 -7.12-5e-3 -14.24-0.017-21.36-0.016-12.343-0.018-24.687-0.011-37.03 0.011-17.85-3e-3 -35.7-0.022-53.55-0.032-28.962-0.047-57.925-0.05-86.887 0-1.752-1e-3 -3.504-1e-3 -5.256v-2.631c-1e-3 -4.391-1e-3 -8.783-2e-3 -13.175v-2.639c-2e-3 -20.232-0.01-40.464-0.02-60.695 0-0.867 0-1.734-1e-3 -2.627-9e-3 -19.778-0.021-39.556-0.037-59.333-1e-3 -0.831-1e-3 -1.662-2e-3 -2.518-7e-3 -9.11-0.015-18.221-0.023-27.331-0.016-17.814-0.023-35.627-0.02-53.44 2e-3 -12.197-2e-3 -24.394-0.012-36.59-6e-3 -7.047-8e-3 -14.093-1e-3 -21.139 6e-3 -6.441 3e-3 -12.883-7e-3 -19.324-2e-3 -2.339-1e-3 -4.678 4e-3 -7.017 6e-3 -3.162 1e-3 -6.324-8e-3 -9.486 4e-3 -0.923 9e-3 -1.847 0.014-2.798-0.037-6.292-0.037-6.292-2.265-9.634-8.071-0.563-15.225 0.617-23.062 2.438-10.199 2.32-20.417 4.359-30.938 3.562-2.807-2.081-3.867-3.265-4.494-6.732 2e-3 -1.045 5e-3 -2.09 8e-3 -3.166-6e-3 -1.188-0.012-2.377-0.018-3.601 0.014-1.279 0.028-2.558 0.043-3.876 1e-3 -1.317 2e-3 -2.633 3e-3 -3.99 6e-3 -2.784 0.022-5.568 0.046-8.352 0.037-4.266 0.041-8.532 0.041-12.799 0.01-2.703 0.021-5.406 0.035-8.109 1e-3 -0.64 1e-3 -0.64 7e-3 -3.876 0.013-1.188 0.025-2.377 0.038-3.601 8e-3 -1.045 0.016-2.089 0.024-3.166 0.267-2.732 0.267-2.732 2.267-6.732 3.819-1.909 6.088-2.435 10.242-2.93 1.233-0.156 2.465-0.312 3.735-0.472 2.559-0.311 5.119-0.618 7.679-0.922 6.295-0.802 12.205-1.83 18.27-3.719 7.745-2.342 15.341-2.885 23.386-3.395 11.759-0.865 23.307-2.137 34.938-4.062 12.518-2.042 24.986-3.366 37.625-4.312 1.64-0.124 3.28-0.248 4.97-0.376 17.197-1.212 17.197-1.212 24.155-0.812z" fill="#E10000"/>
<path transform="translate(1745.4 232.44)" d="m0 0c4.01 0.986 7.74 2.386 11.562 3.938 5.296 2.138 10.471 3.47 16.063 4.624 6.469 1.347 12.141 3.122 18.141 5.848 2.952 1.217 5.808 1.953 8.922 2.652 4.896 1.125 8.837 2.879 13.246 5.243 4.012 1.919 8.21 3.053 12.472 4.293 2.803 0.856 5.454 1.837 8.156 2.964 3.8 1.582 7.617 2.83 11.563 4 5.402 1.617 10.324 3.634 15.437 6 1.444 0.496 2.888 0.991 4.376 1.5 3.624 1.5 3.624 1.5 6.624 5.5 0.505 2.789 0.505 2.789 0.675 5.958 0.065 1.155 0.129 2.311 0.195 3.502 0.199 5.411 0.312 10.814 0.334 16.228 5e-3 1.146 0.011 2.292 0.017 3.473 9e-3 2.397 0.016 4.793 0.02 7.19 0.01 3.668 0.041 7.336 0.072 11.005 7e-3 2.34 0.012 4.68 0.016 7.02 0.012 1.092 0.024 2.185 0.037 3.311-0.028 9.625-0.028 9.625-3.366 13.313-5.13 1.252-8.82-1.285-13.218-3.636-3.872-1.898-7.887-3.105-11.992-4.399-2.79-0.965-2.79-0.965-6.54-2.965-4.125-1.941-7.76-2.914-12.187-3.937-4.811-1.119-8.854-2.214-13.063-4.813-4.454-2.505-6.971-2.867-12-2.25-2.603 2.604-2.253 3.675-2.26 7.301-4e-3 0.562-4e-3 0.562-0.022 3.408 3e-3 1.239 5e-3 2.479 8e-3 3.756-5e-3 1.301-0.01 2.602-0.016 3.942-0.014 4.32-0.013 8.64-0.01 12.961-4e-3 2.992-8e-3 5.983-0.013 8.975-8e-3 6.28-7e-3 12.56-2e-3 18.84 6e-3 8.059-0.011 16.119-0.035 24.178-0.014 6.182-0.015 12.364-0.012 18.545-1e-3 2.972-6e-3 5.944-0.016 8.916-0.012 4.152-5e-3 8.304 6e-3 12.455-7e-3 1.236-0.015 2.471-0.023 3.744 4e-3 0.565 4e-3 0.565 0.021 3.425v2.975c0.374 2.579 0.374 2.579 3.374 6.579 3.861 0.401 7.446 0.557 11.309 0.54 1.118 0.011 2.237 0.023 3.389 0.035 3.58 0.036 7.16 0.045 10.74 0.051 3.577 0.016 7.153 0.038 10.73 0.071 2.226 0.02 4.453 0.029 6.681 0.027 1.011 7e-3 2.022 0.014 3.063 0.021 0.888 1e-3 1.777 3e-3 2.692 4e-3 2.396 0.251 2.396 0.251 6.396 2.251 1.903 3.805 2.252 5.052 2.259 9.073 7e-3 1.008 0.013 2.015 0.019 3.054-4e-3 1.082-8e-3 2.165-0.012 3.28 2e-3 1.117 4e-3 2.233 6e-3 3.384 1e-3 2.36-2e-3 4.721-0.011 7.081-0.01 3.615 0 7.229 0.013 10.843-1e-3 2.293-4e-3 4.586-8e-3 6.879 4e-3 1.083 8e-3 2.165 0.012 3.28-3e-3 0.504-3e-3 0.504-0.019 3.054-1e-3 0.885-3e-3 1.77-5e-3 2.682-0.254 2.39-0.254 2.39-2.254 6.39-3.402 1.82-6.287 2.253-10.109 2.272-0.991 0.01-1.982 0.02-3.003 0.031-0.53 1e-3 -0.53 1e-3 -3.208 6e-3 -2.249 0.025-4.497 0.051-6.746 0.076-3.54 0.029-7.08 0.053-10.62 0.072-3.42 0.021-6.839 0.061-10.259 0.102h-3.22c-7.495 0.102-7.495 0.102-10.835 3.441-0.374 2.516-0.374 2.516-0.374 5.58-7e-3 1.161-0.014 2.322-0.021 3.518 4e-3 0.638 4e-3 0.638 0.023 3.863-3e-3 1.342-7e-3 2.684-0.011 4.066-8e-3 4.45 6e-3 8.899 0.02 13.349 1e-3 3.082 0 6.165-1e-3 9.247 0 6.466 0.01 12.933 0.028 19.399 0.023 8.303 0.024 16.606 0.017 24.909-4e-3 6.367 3e-3 12.734 0.013 19.101 4e-3 3.062 5e-3 6.124 3e-3 9.186 0 4.274 0.013 8.548 0.029 12.822-3e-3 1.274-5e-3 2.549-8e-3 3.863 7e-3 1.161 0.015 2.322 0.022 3.518 2e-3 1.011 4e-3 2.022 6e-3 3.064 0.254 2.515 0.254 2.515 2.254 5.515 6.566 0.793 10.279-0.965 16-4 1.656-0.536 3.323-1.035 5-1.5 3.303-0.923 5.776-1.9 8.876-3.5 3.519-1.706 6.242-2.589 10-3.437 4.065-0.932 7.453-2.085 11.124-4.063 5.275-2.803 10.999-5.061 17-5.5 5.533 5.533 4.159 13.847 4.168 21.309 4e-3 0.966 7e-3 1.932 0.011 2.928 5e-3 2.033 7e-3 4.066 7e-3 6.099 2e-3 3.089 0.02 6.179 0.039 9.268 3e-3 1.985 5e-3 3.97 6e-3 5.955 7e-3 0.913 0.014 1.826 0.022 2.766-0.024 6.86-0.163 13.901-4.42 19.554-3.284 2.46-6.27 3.715-10.145 5.059-0.707 0.251-0.707 0.251-4.285 1.523-1.453 0.508-2.906 1.016-4.403 1.539-2.752 1.013-5.503 2.034-8.25 3.063-0.66 0.247-0.66 0.247-4.003 1.496-3.346 1.288-6.641 2.651-9.934 4.067-5.191 2.21-10.461 3.822-15.871 5.406-2.942 0.968-2.942 0.968-6.754 3.031-4.142 1.916-7.398 2.583-11.875 3.313-6.762 1.139-12.084 3.163-18.18 6.218-4.128 1.854-8.23 2.665-12.652 3.543-5.534 1.373-10.705 3.637-15.949 5.852-3.532 1.011-3.532 1.011-6.438 0.304-2.094-1.293-2.094-1.293-3.094-3.293-0.1-2.825-0.131-5.653-0.134-8.48-2e-3 -0.893-4e-3 -1.786-7e-3 -2.705-7e-3 -3.024-6e-3 -6.049-6e-3 -9.073-3e-3 -2.177-7e-3 -4.354-0.011-6.53-0.01-6.008-0.014-12.016-0.016-18.024-4e-3 -6.469-0.014-12.938-0.022-19.407-0.02-15.634-0.03-31.269-0.039-46.903-5e-3 -7.355-0.01-14.709-0.015-22.064-0.017-24.433-0.032-48.866-0.039-73.298-2e-3 -6.345-4e-3 -12.689-6e-3 -19.033 0-1.576-1e-3 -3.153-1e-3 -4.778-8e-3 -25.566-0.034-51.132-0.066-76.697-0.033-26.221-0.051-52.442-0.055-78.663-2e-3 -14.733-0.011-29.466-0.036-44.199-0.022-12.543-0.03-25.085-0.02-37.628 5e-3 -6.405 3e-3 -12.809-0.017-19.213-0.017-5.857-0.017-11.712-1e-3 -17.569 3e-3 -2.125-2e-3 -4.25-0.014-6.375-0.015-2.876-5e-3 -5.752 0.011-8.628-1e-3 -1.601-2e-3 -3.203-3e-3 -4.852 0.497-3.881 0.497-3.881 2.251-6.454 2.246-1.427 2.246-1.427 6.684-0.989z" fill="#E10000"/>
<path transform="translate(2105.1 821.69)" d="m0 0c0.926-0.029 1.851-0.058 2.805-0.088 6.329-0.058 10.589 0.915 16.07 4.4 3.338 4.451 3.477 5.663 3 11-0.66 1.321-1.32 2.64-2 4-0.504 7.858 0.596 14.44 2.637 22.032 0.12 0.979 0.239 1.959 0.363 2.968-3 3-3 3-5.598 3.079-0.792-0.356-1.585-0.712-2.402-1.079-0.934-2.765-0.934-2.765-1.437-6.25-0.871-4.331-1.363-6.484-4.063-10.062-4.891-2.358-9.169-2.706-14.5-1.688-2.765 2.359-2.927 4.169-3.238 7.711-0.131 1.952-0.218 3.908-0.258 5.864-0.166 0.8-0.333 1.601-0.504 2.425-1.32 0.66-2.64 1.321-4 2-3.736-3.736-2.3-10.002-2.322-15.035 1e-3 -0.428 1e-3 -0.428 6e-3 -2.594 3e-3 -2.597-0.02-5.192-0.045-7.788-1e-3 -1.641-2e-3 -3.282-2e-3 -4.973-2e-3 -0.753-2e-3 -0.753-9e-3 -4.564 0.379-4.121 1.168-6.573 3.372-10.046 3.687-1.843 8.064-1.271 12.125-1.312zm-6.188 7.375c-2.408 3.652-2.574 5.64-1.937 9.937 3 3 3 3 6.469 3.364 0.665-9e-3 0.665-9e-3 4.031-0.051 0.665-2e-3 0.665-2e-3 4.031-0.012 3.469-0.301 3.469-0.301 6.469-2.301 0.5-3.874 0.5-3.874 0-8-3.637-3.732-6.144-4.925-11.313-5.374-4.687 0.374-4.687 0.374-7.75 2.437z" fill="#E10000"/>
<path transform="translate(2155,835)" d="m0 0 2 1c1.121 3.362 1.133 5.963 1.125 9.5 3e-3 1.145 5e-3 2.289 8e-3 3.469-0.133 3.031-0.133 3.031-1.133 6.031-0.99-0.33-1.98-0.66-3-1-0.027-2.792-0.046-5.583-0.062-8.375-0.012-1.555-0.024-3.109-0.036-4.711 0.098-3.914 0.098-3.914 1.098-5.914z" fill="#E10000"/>
<path transform="translate(2148,869)" d="m0 0 2 1c-0.875 2.5-0.875 2.5-2 5h-2c0.875-4.875 0.875-4.875 2-6z" fill="#E10000"/>
<path transform="translate(2146,817)" d="m0 0c0.99 0.33 1.98 0.66 3 1l1 4h-3l-1-5z" fill="#E10000"/>
<path transform="translate(2138,882)" d="m0 0v3l-4 1v-3c2-1 2-1 4-1z" fill="#E10000"/>
<path transform="translate(2069,819)" d="m0 0c1 4 1 4 0 6h-2c0.875-4.875 0.875-4.875 2-6z" fill="#E10000"/>
<path transform="translate(2076,810)" d="m0 0h2l-1 4c-0.99 0.33-1.98 0.66-3 1 1-4 1-4 2-5z" fill="#E10000"/>
<path transform="translate(2068,866)" d="m0 0c2 2 2 2 2 5h-2l-1-4 1-1z" fill="#E10000"/>
<path transform="translate(2082,884)" d="m0 0h3l-1 2-2-2z" fill="#E10000"/>
<path transform="translate(2130,803)" d="m0 0c0.99 0.33 1.98 0.66 3 1h-3v-1z" fill="#E10000"/>
</svg>
