<?xml version="1.0" encoding="UTF-8"?>
<svg version="1.1" viewBox="0 0 2448 1112" xmlns="http://www.w3.org/2000/svg">
<path transform="translate(362.65 210.08)" d="m0 0c2.773 3.445 3.333 5.77 4.039 10.109 0.232 1.327 0.464 2.653 0.703 4.02 0.201 1.252 0.402 2.503 0.61 3.793 1.161 6.925 3.014 12.666 6 19 0.268 0.742 0.268 0.742 1.625 4.5 1.375 3.5 1.375 3.5 3.375 4.5 3.512 0.085 7.003 0.106 10.515 0.082 0.551-2e-3 0.551-2e-3 3.336-0.013 3.716-0.017 7.432-0.042 11.149-0.069 1.314-8e-3 2.629-0.016 3.984-0.024 8.466-0.053 16.932-0.134 25.398-0.239 2.947-0.033 5.895-0.061 8.843-0.084 4.316-0.033 8.631-0.085 12.946-0.141 1.318-7e-3 2.636-0.013 3.993-0.02 1.22-0.02 2.441-0.039 3.698-0.06 1.068-0.011 2.136-0.022 3.237-0.033 4.739-0.652 7.275-2.744 10.526-6.149 2.879-5.152 3.566-9.836 4.562-15.606 0.737-3.306 1.561-5.48 3.313-8.332 2.691-4.643 3.793-8.711 4.921-13.906 0.579-2.406 0.579-2.406 1.579-3.406 9.902 0.391 18.619 2.883 27.812 6.5 4.027 1.442 7.967 2.446 12.125 3.437 6.077 1.472 11.358 3.492 17.063 6.063 3.79 1.065 7.601 2.026 11.418 2.992 2.994 0.843 5.601 1.793 8.394 3.133 3.473 1.555 5.786 2.239 9.438 2.812 4.75 1.063 4.75 1.063 7.937 3.125 2.643 4.284 1.817 7.114 0.813 11.938-0.333 0.789-0.666 1.578-1.008 2.39-1.135 2.985-1.457 5.69-1.805 8.86-0.887 6.319-2.85 10.358-6.187 15.75-0.89 3.556-1.196 6.367-1.25 10-0.013 0.516-0.013 0.516-0.079 3.125 0.329 2.875 0.329 2.875 3.329 6.875 2.707 1.09 2.707 1.09 5.812 1.937 5.099 1.565 8.281 3.342 12.188 7.063 2.837 1.98 5.726 3.834 8.683 5.629 0.971 0.597 1.941 1.193 2.942 1.808 0.46 0.278 0.46 0.278 2.789 1.684 2.769 2.012 4.516 4.172 6.586 6.879 1.985 1.355 3.988 2.683 6 4 1.845 1.485 3.677 2.987 5.5 4.5 0.48 0.391 0.48 0.391 2.91 2.371 1.867 1.535 3.706 3.103 5.527 4.691 6.094 2.861 12.711 2.184 19 0.188 2.971-1.698 5.402-3.609 8.063-5.75 2.666-1.333 5.333-2.667 8-4 0.783-0.66 1.567-1.32 2.375-2 5.354-4.08 12.876-7.125 19.625-7 7.306 3.363 11.34 8.59 16 15 0.31 0.416 0.31 0.416 1.882 2.519 3.565 4.9 6.402 9.846 9.004 15.313 1.114 2.168 1.114 2.168 3.114 4.668 2.521 3.152 4.095 6.531 5.843 10.156 1.157 2.344 1.157 2.344 2.719 4.844 1.405 2.444 2.367 4.809 3.375 7.437 1.165 3.013 2.231 5.31 4.063 8 3.18 4.87 6.274 10.839 5.769 16.774-1.197 3.56-3.578 4.457-6.769 6.289-1.073 0.619-2.145 1.237-3.25 1.875-1.238 0.701-2.475 1.402-3.75 2.125-5.279 3.061-10.292 6.098-15 10-0.464 0.186-0.464 0.186-2.813 1.125-2.187 1.875-2.187 1.875-2.75 6.625-8e-3 4.991 2.121 7.982 4.563 12.25 1.077 3.145 2.078 6.249 3 9.437 1.376 4.737 2.801 9.182 5.093 13.579 2.16 4.514 2.789 8.342 3.407 13.296 0.871 6.393 2.123 12.148 4.593 18.118 1.393 3.95 1.837 7.989 2.317 12.136 0.59 2.434 0.59 2.434 3.59 4.434 2.552 0.471 2.552 0.471 5.593 0.781 0.557 0.06 0.557 0.06 3.375 0.363 1.166 0.118 2.331 0.235 3.532 0.356 7.455 0.771 14.793 1.673 22.155 3.089 3.605 0.632 7.186 0.703 10.837 0.774 3.68 0.934 5.126 2.722 7.508 5.637 0.57 3.31 0.57 3.31 0.491 7.122-0.017 1.433-0.034 2.866-0.052 4.342-0.022 0.773-0.022 0.773-0.135 4.684-0.027 1.6-0.054 3.2-0.081 4.848-0.073 4.26-0.176 8.518-0.285 12.776-0.084 3.437-0.146 6.873-0.206 10.31-0.176 9.975-0.39 19.947-0.732 29.918-0.013 0.7-0.013 0.7-0.079 4.246-0.046 1.331-0.092 2.662-0.14 4.034-0.03 1.176-0.06 2.353-0.092 3.565-0.89 4.074-2.471 5.575-5.689 8.155-3.914 1.293-3.914 1.293-8.625 2.187-0.85 0.163-1.699 0.327-2.574 0.495-8.91 1.58-17.918 2.103-26.95 2.459-1.108 0.057-2.215 0.113-3.355 0.171-0.988 0.038-1.977 0.075-2.995 0.114-2.501 0.574-2.501 0.574-5.501 4.574-4.124 8.644-6.576 17.132-8.227 26.531-0.728 3.264-1.701 5.755-3.211 8.719-3.214 6.399-4.229 13.213-5.473 20.199-1.117 4.667-2.853 8.326-5.089 12.551-1.348 5.391-1.653 10.473-1 16 3.208 4.712 8.185 7.053 13 10 2.003 1.471 4.006 2.942 5.976 4.457 1.394 1.063 2.807 2.101 4.234 3.117 3.709 2.657 5.712 4.272 7.79 8.426 0.817 7.009-1.144 10.259-5 16-1.023 2.658-2.024 5.325-3 8-2.121 4.089-4.551 7.783-7.25 11.5-3.905 5.461-6.914 11.302-9.954 17.277-1.796 3.223-1.796 3.223-4.796 6.223-0.97 2.263-1.939 4.526-2.899 6.793-1.503 3.011-3.646 4.936-6.101 7.207-0.66 1.011-1.32 2.021-2 3.062-2.105 3.091-3.823 4.971-7 6.938-3.063 0.5-3.063 0.5-6 0-0.304-0.315-0.304-0.315-1.84-1.91-2.491-2.41-4.365-3.045-7.66-4.028-4.717-1.588-6.558-3.004-9.5-7.062-2.642-1.382-5.309-2.718-8-4l-3-3c-4.422-1.106-8.318-1.242-12.875-1.313-0.783-0.018-0.783-0.018-4.743-0.113-4.792 0.466-6.695 1.439-10.382 4.426-0.785 0.588-1.571 1.175-2.379 1.781-0.721 0.567-1.442 1.134-2.184 1.719-0.723 0.567-1.446 1.134-2.191 1.719-15.469 12.267-15.469 12.267-22.559 18.593-3.129 2.705-6.247 4.92-9.687 7.188l-2 2c-2 2-2 2-4.875 3.875-3.696 2.513-6.395 4.549-9.125 8.125-0.712 3.737-0.399 7.234 0 11 0.108 1.065 0.216 2.129 0.328 3.226 1.285 10.358 3.368 20.864 6.672 30.774 0.25 3.5 0.25 3.5 0 7-3.709 3.709-7.061 4.376-12 6l-4 3c-2.309 0.86-4.647 1.644-7 2.375-4.922 1.577-9.693 3.263-14.438 5.312-3.359 1.45-6.294 2.493-9.875 3.375-3.687 0.938-3.687 0.938-6.75 2.938-9.633 4.893-25.141 6.022-35.648 3.297-4.453-2.523-5.854-7.464-7.524-12.086-0.41-1.107-0.82-2.215-1.242-3.356-0.84-2.294-1.673-4.591-2.5-6.89-3.398-9.13-7.071-18.001-15.023-23.965-4.272-1.026-8.417-1.131-12.797-1.145-1.335-7e-3 -2.67-0.013-4.046-0.02-1.431-1e-3 -2.862-2e-3 -4.337-3e-3 -0.741-2e-3 -0.741-2e-3 -4.491-0.01-3.132-5e-3 -6.263-8e-3 -9.395-7e-3 -4.784-3e-3 -9.568-0.021-14.352-0.04-3.046-3e-3 -6.092-5e-3 -9.137-6e-3 -1.427-7e-3 -2.855-0.014-4.325-0.021-15.861 0.036-15.861 0.036-21.476 3.853-5.377 5.939-7.43 11.919-9.555 19.586-0.894 3.128-1.89 5.886-3.277 8.813-1.812 4-1.812 4-2.875 8.375-0.937 3.625-0.937 3.625-3.937 6.625-3.244 0.275-6.262 0.377-9.5 0.312-0.904-0.011-1.809-0.022-2.74-0.034-9.054-0.185-16.657-1.157-24.917-5.212-4.01-1.503-8.149-2.208-12.343-3.004-7.098-1.362-12.344-3.31-18.5-7.062-1.799-0.531-3.613-1.007-5.438-1.438-6.804-1.677-13.592-4.607-17.562-10.562 0.485-9.541 1.926-20.163 5.687-28.938 2.417-7.479 3.304-16.724-0.047-24.023-3.266-4.351-7.029-7.17-11.64-10.039-0.619-0.805-1.238-1.609-1.875-2.438-2.263-2.728-4.623-4.196-7.653-5.98-3.144-2.012-6.032-4.282-8.972-6.582-4.7-3.667-9.412-6.911-14.5-10-0.867-0.701-1.733-1.403-2.625-2.125-2.375-1.875-2.375-1.875-5.313-3.313-3.062-1.562-3.062-1.562-6.062-4.125-5.342-4.34-10.204-5.046-17-4.437-6.007 2.191-10.172 4.907-15 9-2.325 1.02-4.658 2.02-7 3-0.764 0.66-1.527 1.32-2.313 2-4.698 3.496-10.155 5.095-16 4.875-5.952-1.938-8.813-5.033-12.687-9.875l-2.375-2.375c-9.625-9.625-9.625-9.625-12.625-15.625v-2h-2c-1.84-2.012-1.84-2.012-3.938-4.688-0.345-0.435-0.345-0.435-2.09-2.636-3.104-4.211-5.193-7.841-6.472-12.926-0.495-1.568-0.99-3.135-1.5-4.75-0.99-0.33-1.98-0.66-3-1-3.1-6.025-6.281-13.168-5-20 4.251-7.263 13.002-11.736 20-16 13.537-8.284 13.537-8.284 15-14 0.969-7.759-1.982-16.141-5.555-22.973-1.596-3.344-2.171-6.25-2.758-9.902-1.327-7.157-3.605-13.573-6.273-20.328-1.611-4.326-2.673-8.639-3.704-13.129-0.69-2.592-1.583-4.863-2.71-7.293-1.53-3.346-2.596-6.247-3.563-9.75-1.437-4.625-1.437-4.625-4.437-7.625-5.063-2.298-9.961-2.231-15.414-2.125-0.893 7e-3 -1.785 0.015-2.704 0.023-2.836 0.024-5.672 0.061-8.507 0.102-3.743 0.053-7.485 0.093-11.227 0.125-0.429 8e-3 -0.429 8e-3 -2.598 0.05-4.326 0.036-6.595-0.198-10.55-2.175-2.619-4.396-2.302-9.06-2.379-14.063-0.017-0.869-0.034-1.737-0.052-2.633-0.053-2.768-0.093-5.536-0.132-8.304-0.044-2.768-0.091-5.536-0.143-8.305-0.046-2.511-0.084-5.023-0.121-7.535-0.136-3.271-0.522-5.991-1.173-9.16-0.137-2.716-0.225-5.434-0.282-8.152-0.037-1.582-0.074-3.163-0.113-4.791-0.035-1.649-0.07-3.297-0.105-4.995-0.069-3.259-0.142-6.518-0.219-9.777-0.03-1.445-0.061-2.89-0.092-4.379-0.189-3.906-0.189-3.906-0.895-7.236-0.048-0.441-0.048-0.441-0.294-2.67 3.819-3.82 5.915-3.983 11.246-4.066 1.73 0.02 3.461 0.045 5.191 0.074 1.883 0.017 3.766 0.034 5.649 0.05 2.962 0.031 5.925 0.067 8.887 0.113 2.863 0.043 5.726 0.066 8.589 0.087 0.886 0.018 1.771 0.037 2.683 0.056 5.036 0.021 6.567-0.173 10.755-3.314 1.125-3.774 1.125-3.774 2-8.375 1.339-6.711 3.017-13.163 5.136-19.668 0.849-2.907 1.358-5.715 1.801-8.707 0.76-4.691 2.381-7.984 4.844-12.008 1.292-2.377 1.972-4.567 2.656-7.18 1.301-4.793 3.492-8.508 6.149-12.675 1.946-3.286 3.082-6.816 4.414-10.387 0.721-0.825 1.443-1.65 2.187-2.5 2.637-3.637 2.437-6.129 1.813-10.5-2.25-2.188-2.25-2.188-5-4-0.599-0.763-1.197-1.526-1.813-2.313-5.092-6.256-11.749-10.91-18.187-15.687-5.834-4.667-5.834-4.667-7-7-1.293-15.505 9.08-31.1 18-43 1.256-1.766 2.506-3.537 3.75-5.313 0.551-0.78 1.103-1.559 1.671-2.363 1.579-2.324 1.579-2.324 3.102-4.961 1.98-3.169 4.569-5.037 7.477-7.363 2.894-2.75 5.419-5.518 7.937-8.625 2.998-3.304 4.865-4.976 9.063-6.375 6.033-0.134 10.308 3.618 15 7 5.492 3.918 11.028 7.762 16.687 11.437 1.035 0.68 2.07 1.359 3.137 2.059 3.698 1.751 6.129 1.91 10.176 1.504 2.859-1.839 4.945-3.944 7.312-6.375 2.192-2.141 4.295-3.883 6.75-5.688 3.938-2.937 3.938-2.937 6.063-5.125 2.369-2.29 4.926-3.338 7.875-4.812 3.499-2.524 6.903-5.095 10.23-7.84 4.768-3.881 8.907-6.108 14.77-8.16 1.687-1.308 3.353-2.642 5-4 1.278-0.598 2.557-1.196 3.875-1.813 8.963-4.753 8.963-4.753 11.125-9.187 1.474-11.939 0.286-22.564-6-33-0.621-2.167-1.16-4.358-1.625-6.563-0.24-1.115-0.48-2.23-0.727-3.379-0.107-0.504-0.107-0.504-0.648-3.058l-1-4c6.908-10.18 17.426-11.814 28.793-14.754 4.207-1.246 4.207-1.246 7.289-2.813 3.477-1.708 6.593-2.219 10.418-2.808 5.508-0.954 10.523-2.207 15.75-4.188 8.163-3.083 22.885-8.254 30.398-2.359zm5.789 105.77c-3.964 1.333-7.653 1.758-11.812 2.156-6.477 0.646-9.42 2.048-14.625 6-2.316 0.577-4.653 1.069-7 1.5-5.911 1.102-9.21 2.794-14 6.5-1.855 0.74-3.733 1.424-5.625 2.062-4.237 1.434-6.941 3.046-10.375 5.938-2.264 0.988-4.528 1.975-6.805 2.933-3.147 1.529-5.541 3.808-8.195 6.067-2.667 1.333-5.334 2.667-8 4-2.046 1.61-4.044 3.283-6 5-1.514 1.196-3.036 2.383-4.563 3.562-0.77 0.597-1.539 1.194-2.332 1.809-1.618 1.252-3.237 2.503-4.855 3.754-2.25 1.875-2.25 1.875-4.555 4.191-2.613 2.602-5.312 5.05-8.07 7.496-5.467 4.944-10.239 10.099-14.75 15.938-1.875 2.25-1.875 2.25-4.231 4.078-2.682 2.202-4.688 4.451-6.832 7.172-0.337 0.423-0.337 0.423-2.043 2.562-1.769 2.438-1.769 2.438-3.769 6.438-0.392 0.361-0.392 0.361-2.375 2.187-2.625 2.813-2.625 2.813-4.625 7.313-1.947 4.379-3.655 6.24-7 9.5-1.035 2.318-2.036 4.652-3 7-0.66 0.763-1.32 1.526-2 2.312-2.018 2.712-2.589 4.413-3.438 7.625-0.97 3.606-1.567 5.068-4.062 8-3.022 3.701-3.61 6.78-4.688 11.356-0.812 2.707-0.812 2.707-3.312 6.394-3.131 5.4-3.693 10.348-4.68 16.453-1.08 5.082-3.09 8.477-5.82 12.86-1.065 3.93-1.192 7.819-1.375 11.875-0.4 6.478-1.438 12.558-2.793 18.894-1.012 5.141-1.793 10.293-2.52 15.481-0.131 0.898-0.263 1.797-0.398 2.723-1.346 9.868-1.067 19.511-0.102 29.402 0.088 0.922 0.177 1.844 0.268 2.794 0.601 5.828 1.643 11.32 3.142 16.987 1.357 6.71 1.872 13.563 2.424 20.382 0.636 6.581 1.989 11.382 5.19 17.159 1.738 3.441 2.276 6.89 2.851 10.678 0.964 6.186 1.751 10.063 6.313 14.625 0.738 2.82 0.738 2.82 1.312 6.125 1.174 5.592 2.891 9.335 6.277 13.887 1.411 1.988 1.411 1.988 2.973 5.675 1.438 3.313 1.438 3.313 3.875 6.188 2.234 2.724 3.35 4.641 4.688 7.812 1.875 4.313 1.875 4.313 4.875 7.313 0.433 0.907 0.866 1.815 1.312 2.75 2.053 3.954 4.781 6.878 7.688 10.25 0.783 1.279 1.567 2.557 2.375 3.875 4.255 6.688 9.297 12.337 15.625 17.125 1.666 1.667 3.333 3.333 5 5l3 2c0.412 0.866 0.825 1.732 1.25 2.625 0.577 0.784 1.155 1.567 1.75 2.375 3.687 0.312 3.687 0.312 7 0l1-4c4.187-1.022 8.357-1.466 12.632-1.996 4.874-1.12 7.348-3.118 11.368-6.004 4.279-0.998 8.485-1.498 12.843-2.031 4.731-1.103 7.325-3.053 11.157-5.969 2.66-0.969 2.66-0.969 5.062-1.5 4.691-1.251 7.259-3.291 10.938-6.5 3-1.333 6-2.667 9-4 2.029-1.631 4.032-3.295 6-5 0.933-0.445 1.866-0.89 2.828-1.348 3.457-1.801 5.893-3.868 8.734-6.527 0.909-0.843 1.818-1.686 2.754-2.555 6.014-5.76 10.588-11.275 14.684-18.57 0.556-0.908 1.113-1.815 1.687-2.75 3.556-6.095 2.537-13.156 2.563-20 0.02-1.359 0.041-2.717 0.062-4.117 5e-3 -1.318 0.01-2.635 0.016-3.993 4e-3 -0.6 4e-3 -0.6 0.028-3.639-0.9-8.835-6.498-16.245-11.919-23.001-3.124-3.918-5.256-7.982-7.437-12.5l-3-3c-1.28-3.117-2.454-6.199-3.563-9.375-0.605-1.696-1.21-3.391-1.816-5.086-0.535-1.498-1.07-2.996-1.621-4.539-0.385-0.839-0.769-1.678-1.164-2.543-1.273-3.741-1.361-7.462-1.649-11.395-0.816-9.693-2.767-18.929-5.066-28.367-1.484-6.214-2.242-11.753-2.184-18.148 8e-3 -1.425 0.016-2.849 0.023-4.317 0.026-2.971 0.052-5.942 0.079-8.914 0.112-20.815 0.112-20.815-3.102-25.004-0.969-0.763-1.939-1.526-2.937-2.312-0.592-0.588-1.184-1.176-1.793-1.781-4.852-4.726-8.51-6.277-15.207-7.219-0.313-2.875-0.313-2.875 0-6 6.107-3.772 14.201-3.163 21.136-3.205 0.503-5e-3 0.503-5e-3 3.047-0.03 3.311-0.032 6.622-0.057 9.934-0.082 2.3-0.02 4.601-0.041 6.902-0.063 6.046-0.055 12.093-0.104 18.139-0.152 6.174-0.051 12.348-0.106 18.521-0.161 12.107-0.108 24.214-0.209 36.321-0.307 1e-3 0.727 2e-3 1.453 3e-3 2.202 0.058 43.039 0.132 86.077 0.226 129.12 0.011 5.164 0.022 10.327 0.033 15.491 1e-3 0.514 1e-3 0.514 7e-3 3.115 0.035 16.662 0.06 33.324 0.081 49.986 0.022 17.087 0.055 34.174 0.098 51.261 0.027 10.551 0.044 21.101 0.051 31.651 5e-3 7.227 0.021 14.454 0.046 21.681 0.014 4.174 0.022 8.349 0.02 12.523-2e-3 4.518 0.014 9.036 0.036 13.555-5e-3 1.329-0.01 2.659-0.015 4.029 0.01 1.204 0.019 2.409 0.029 3.649 2e-3 1.044 4e-3 2.088 6e-3 3.164 0.379 2.578 0.379 2.578 3.379 5.578 9.477 4.739 26.204 0.328 36.433-1.211 7.065-1.05 14.163-1.605 21.281-2.164 4.271-0.623 7.415-1.768 11.286-3.625 4.88-1.794 9.497-3.124 14.625-3.875 5.223-0.861 8.093-2.99 12.375-6.125 1.835-0.564 3.693-1.06 5.562-1.5 4.997-1.195 7.511-3.159 11.438-6.5 2.371-0.813 2.371-0.813 5-1.5 4.736-1.248 7.258-3.304 11-6.5 1.645-0.717 3.315-1.381 5-2 4.462-1.657 7.452-3.775 11-7 0.886-0.578 1.773-1.155 2.687-1.75 3.022-2.053 5.756-4.229 8.563-6.563 4.367-3.623 8.839-6.933 13.558-10.082 2.192-1.605 2.192-1.605 4.274-3.734 1.918-1.871 1.918-1.871 5.168-2.996 0.907-0.619 1.815-1.238 2.75-1.875 0.552-3.475 0.276-6.452 0-10-4.059-1.353-7.599-0.939-11.875-0.813-9.907 0.148-17.811-1.845-26.813-5.812-2.935-1.219-5.153-1.714-8.25-2.188-3.82-0.681-6.109-1.686-9.125-4.125-4.254-3.308-7.853-4.415-12.937-6.062-2.361-1.628-4.696-3.293-7-5-1.155-0.475-2.31-0.949-3.5-1.438-4.252-1.898-7.064-4.433-10.5-7.562-6.51-5.724-6.51-5.724-9.465-7.387-7.429-4.727-15.436-16.213-17.535-24.613-0.257-4.955-0.232-9.914-0.25-14.875-0.011-0.681-0.011-0.681-0.063-4.129-5e-3 -1.316-0.01-2.632-0.016-3.988-9e-3 -1.2-0.018-2.4-0.028-3.637 0.632-5.979 3.627-9.851 7.357-14.371 1.342-1.994 2.676-3.994 4-6 0.495-0.66 0.495-0.66 3-4 0.773-2.367 0.773-2.367 1.375-4.875 0.996-3.605 1.631-5.133 4.125-8.063 2.943-3.605 3.618-6.495 4.531-10.988 0.969-3.074 0.969-3.074 3.465-7.238 2.973-5.181 3.541-10.021 4.066-15.899 0.739-6.845 1.632-13.35 3.5-20 1.597-5.991 2.553-11.896 3.125-18.062 0.085-0.899 0.169-1.799 0.257-2.725 0.462-5.681 0.564-11.283 0.474-16.982-3e-3 -0.671-3e-3 -0.671-0.015-4.068-0.019-2.646-0.087-5.292-0.211-7.935-0.013-3.735 0.101-6.625 1.308-10.165 3.617-3.31 7.493-5.151 12-7 0.906-0.416 1.812-0.831 2.746-1.259 2.07-0.946 4.16-1.849 6.254-2.741 1.718-1.719 1.413-3.838 1.562-6.188-0.075-4.811-0.26-5.492-3.75-9.187-2.274-1.36-2.274-1.36-4.812-2.625-0.408-0.219-0.408-0.219-2.468-1.328-11.145-5.107-22.601-4.365-34.595-4.309-2.324-8e-3 -4.647-0.018-6.971-0.031-6.08-0.029-12.161-0.029-18.242-0.022-9.759 7e-3 -19.518-0.024-29.277-0.063-3.402-9e-3 -6.804-3e-3 -10.205 4e-3 -2.081-4e-3 -4.162-7e-3 -6.242-0.012-0.944 6e-3 -1.887 0.012-2.859 0.018-4.599-0.021-7.935-0.525-12.141-2.257-2.984-0.194-5.976-0.274-8.966-0.287-0.893-7e-3 -1.786-0.014-2.707-0.021-1.934-0.014-3.868-0.023-5.802-0.028-3.06-8e-3 -6.119-0.028-9.178-0.052-7.595-0.057-15.19-0.092-22.785-0.128-6.424-0.031-12.848-0.07-19.272-0.12-3.017-0.02-6.034-0.028-9.052-0.036-1.844-0.013-3.688-0.027-5.532-0.041-1.613-7e-3 -3.225-0.015-4.887-0.022-3.819-0.265-3.819-0.265-6.819-2.265-0.297-3.326-0.297-3.326-0.18-7.613 0.041-1.56 0.082-3.119 0.125-4.725 0.03-0.821 0.03-0.821 0.18-4.975 0.036-1.599 0.072-3.198 0.109-4.845 0.768-24.664 0.768-24.664 9.766-33.842 0.825-1.382 1.65-2.764 2.5-4.188 2.641-4.028 4.438-5.36 8.5-7.812 1.724-1.312 3.431-2.648 5.125-4 0.413-0.33 0.413-0.33 2.507-2 2.368-2 2.368-2 4.422-4.156 2.853-2.704 6.296-3.475 9.946-4.844 2.312-2.125 2.312-2.125 4-4 4.029-1.343 6.767-1.577 11-1 2.812 3.687 2.812 3.687 5 8 1.886 3.264 3.289 5.29 6 8 0.268 0.526 0.268 0.526 1.625 3.187 2.375 2.813 2.375 2.813 7.062 3.313 1.423-0.165 2.846-0.33 4.313-0.5 1.735-3.471 1.097-7.494 1.062-11.313-4e-3 -0.924-8e-3 -1.849-0.011-2.802-0.013-2.962-0.031-5.923-0.051-8.885-0.027-3.896-0.047-7.792-0.063-11.688-4e-3 -0.451-4e-3 -0.451-0.025-2.733-0.025-6.354-0.025-6.354 1.088-8.579 1.905-0.342 3.826-0.599 5.75-0.813 3.915-0.613 5.987-1.01 9.312-3.25 4.831-7.324 5.234-13.475 4.652-22.019 0.286-2.918 0.286-2.918 1.899-5.227 2.917-2.067 5.105-2.481 8.637-2.941 1.077-0.15 2.155-0.299 3.265-0.453 0.82-0.098 1.64-0.196 2.485-0.297v-7c-10.533-3.292-21-3.186-31.925-3.185-2.672-3e-3 -5.344-0.021-8.017-0.04-13.7-0.046-25.9 0.706-38.621 6.069z"/>
<path transform="translate(2085.1 335.81)" d="m0 0c1.103-8e-3 2.206-0.016 3.343-0.025 3.639-0.025 7.279-0.041 10.919-0.056 1.244-5e-3 2.489-0.01 3.772-0.016 6.581-0.026 13.163-0.046 19.744-0.06 5.448-0.014 10.895-0.042 16.342-0.082 6.582-0.049 13.163-0.074 19.745-0.081 2.507-7e-3 5.014-0.022 7.521-0.046 3.504-0.032 7.008-0.032 10.512-0.025 1.035-0.016 2.07-0.032 3.137-0.049 4.918 0.042 7.293 0.225 11.504 2.99 6.396 7.015 7.678 16.514 8.824 25.619 0.584 3.013 1.435 4.951 2.961 7.586 3.143 5.624 3.98 11.656 5.103 17.912 1.137 6.127 2.927 11.539 5.358 17.288 1.847 5.138 2.633 10.425 3.488 15.804 0.676 3.434 0.676 3.434 2.676 7.434 2.957 1.478 5.743 1.06 9 1 2.028-5.346 3.224-10.187 3.875-15.875 0.736-5.783 2.295-10.053 4.903-15.215 1.446-3.444 2.073-6.734 2.722-10.41 0.829-4.663 1.784-8.534 3.938-12.75 2.44-4.882 3.542-9.8 4.562-15.125 3.937-20.328 3.937-20.328 11-25.625 2.358-0.38 2.358-0.38 5.017-0.388 1.011-0.01 2.021-0.02 3.063-0.03 1.103 5e-3 2.206 9e-3 3.342 0.014 1.167-7e-3 2.333-0.014 3.534-0.021 3.86-0.018 7.72-0.014 11.579-9e-3 2.678-4e-3 5.355-0.01 8.033-0.016 5.613-9e-3 11.226-6e-3 16.839 4e-3 7.205 0.011 14.41-9e-3 21.616-0.038 5.529-0.018 11.058-0.018 16.587-0.012 2.657 0 5.314-6e-3 7.972-0.019 3.709-0.015 7.417-4e-3 11.125 0.013 1.106-0.01 2.211-0.019 3.349-0.029 3.055 0.03 3.055 0.03 7.944 0.531 3.077 4.102 3.375 4.631 3.357 9.363 1e-3 0.536 1e-3 0.536 9e-3 3.246-6e-3 0.576-6e-3 0.576-0.038 3.489-2e-3 1.185-3e-3 2.371-5e-3 3.593-7e-3 2.506-0.021 5.011-0.042 7.517-0.031 3.843-0.041 7.685-0.046 11.528-0.01 2.433-0.02 4.866-0.032 7.299-4e-3 1.153-8e-3 2.306-0.013 3.494-4e-3 0.534-4e-3 0.534-0.029 3.237-3e-3 0.47-3e-3 0.47-0.02 2.85-0.141 2.384-0.141 2.384-1.141 5.384-3.248 1.624-6.876 1.178-10.469 1.23-0.835 0.254-1.67 0.508-2.531 0.77-2.019 4.56-2.264 8.657-2.303 13.602-0.016 1.521-0.033 3.041-0.05 4.608-9e-3 1.645-0.017 3.29-0.026 4.985-0.016 1.734-0.033 3.468-0.051 5.203-0.045 4.622-0.08 9.245-0.112 13.868-0.055 7.59-0.128 15.179-0.201 22.769-0.017 1.876-0.035 3.752-0.052 5.628-0.1 11.093-0.255 22.181-0.592 33.27-0.03 1.042-0.061 2.083-0.093 3.156-0.137 4.533-0.293 9.065-0.479 13.597-0.262 8.084-0.315 14.83 2.959 22.314 4 2 4 2 8.063 1.875 1.299 0.041 2.598 0.082 3.937 0.125 3.077 4.102 3.375 4.631 3.357 9.363 1e-3 0.536 1e-3 0.536 9e-3 3.246-6e-3 0.576-6e-3 0.576-0.038 3.489-2e-3 1.185-3e-3 2.371-5e-3 3.593-7e-3 2.506-0.021 5.011-0.042 7.517-0.031 3.843-0.041 7.685-0.046 11.528-0.01 2.433-0.02 4.866-0.032 7.299-4e-3 1.153-8e-3 2.306-0.013 3.494-4e-3 0.534-4e-3 0.534-0.029 3.237-3e-3 0.47-3e-3 0.47-0.02 2.85-0.141 2.384-0.141 2.384-1.141 5.384-4.971 2.358-9.934 2.257-15.322 2.183-0.46-3e-3 -0.46-3e-3 -2.786-0.014-3.028-0.019-6.056-0.052-9.083-0.087-2.11-0.019-4.219-0.037-6.328-0.054-4.416-0.04-8.832-0.087-13.247-0.14-5.658-0.066-11.316-0.11-16.975-0.147-4.353-0.032-8.707-0.077-13.061-0.126-2.086-0.022-4.172-0.039-6.259-0.052-2.916-0.019-5.83-0.056-8.746-0.099-0.43-1e-3 -0.43-1e-3 -2.609-5e-3 -4.675-0.091-7.885-0.49-11.584-3.459-1.253-2.507-1.14-4.239-1.161-7.045-0.01-1.051-0.019-2.102-0.029-3.185-2e-3 -0.57-2e-3 -0.57-0.013-3.454-6e-3 -1.166-0.011-2.333-0.017-3.534-0.01-2.471-0.016-4.942-0.02-7.412-0.01-3.788-0.041-7.576-0.072-11.364-7e-3 -2.397-0.012-4.793-0.016-7.19-0.012-1.137-0.025-2.275-0.037-3.447 3e-3 -1.054 6e-3 -2.109 9e-3 -3.195-2e-3 -0.464-2e-3 -0.464-0.011-2.815 0.367-2.359 0.367-2.359 3.367-5.359 3-0.667 6-1.333 9-2 3.802-3.802 3.39-5.143 3.433-10.413 9e-3 -0.778 9e-3 -0.778 0.06-4.711 6e-3 -1.715 0.013-3.43 0.019-5.146 0.017-1.778 0.035-3.556 0.054-5.334 0.049-4.756 0.078-9.511 0.104-14.266 0.029-4.881 0.075-9.761 0.119-14.641 0.227-26.495 0.358-52.993 0.211-79.489-3.312 0.25-3.312 0.25-7 1-3.379 4.506-4.02 8.241-4.937 13.625-2.01 10.945-2.01 10.945-4.125 15.812-1.579 3.717-2.494 6.729-3.313 10.625-1.138 5.316-2.752 10.273-4.625 15.375-2.364 6.47-3.989 12.76-5.289 19.512-0.794 3.407-2.193 6.321-3.746 9.445-1.346 3.635-1.813 7.279-2.402 11.106-0.953 5.995-2.126 10.067-5.379 15.098-2.165 4.393-2.52 9.284-3.305 14.082-1.216 5.978-3.339 11.497-5.465 17.203-1.704 4.963-2.71 9.915-3.703 15.058-0.711 3.059-0.711 3.059-2.711 7.496-1.843 4.206-2.613 7.517-3.375 12-1.24 6.775-3.27 12.176-7.625 17.563-4.56 3.04-9.073 2.329-14.437 2.312-1.05 0.016-2.1 0.033-3.182 0.049-1.011 1e-3 -2.022 1e-3 -3.064 2e-3 -0.924 3e-3 -1.847 6e-3 -2.799 9e-3 -2.518-0.372-2.518-0.372-6.518-3.372-1.09-3.59-1.09-3.59-1.937-7.938-1.151-5.4-2.395-10.289-4.688-15.312-1.887-4.176-2.813-7.827-3.375-12.375-0.527-4.227-1.24-7.258-3.375-10.938-2.71-4.85-3.65-9.838-4.625-15.25-1.284-7.131-3.023-13.526-5.844-20.234-1.56-3.985-2.451-8.044-3.41-12.207-0.876-3.227-2.326-6.065-3.777-9.066-1.332-3.686-1.852-7.376-2.469-11.243-1.015-6.329-2.236-10.963-5.5-16.437-2.014-4.357-2.897-8.813-3.875-13.5-1.438-6.66-3.153-13.084-5.269-19.555-0.829-2.853-1.279-5.567-1.668-8.508-0.906-5.765-3.596-10.05-6.727-14.906-1.461-2.531-1.461-2.531-1.461-5.531h-7c-0.028 1.75-0.047 3.5-0.062 5.25-0.012 0.974-0.023 1.949-0.035 2.953 0.097 3.797 0.097 3.797 0.602 8.577 0.766 9.059 0.589 18.143 0.54 27.226-0.018 3.358-0.028 6.717-0.036 10.076-0.024 9.54-0.06 19.08-0.105 28.621-0.026 5.856-0.044 11.711-0.055 17.567-6e-3 2.226-0.016 4.452-0.03 6.678-0.019 3.104-0.026 6.208-0.03 9.311-9e-3 0.917-0.017 1.834-0.027 2.779 0.013 8.141 0.013 8.141 2.238 11.962 3 2 3 2 7.563 3.5 4.437 1.5 4.437 1.5 6.437 3.5 0.274 2.219 0.274 2.219 0.307 5.013 0.016 1.045 0.032 2.089 0.048 3.166 5e-3 1.133 0.011 2.267 0.016 3.434 9e-3 1.162 0.018 2.324 0.028 3.52 0.014 2.463 0.023 4.925 0.027 7.387 0.012 3.767 0.061 7.532 0.111 11.298 0.01 2.39 0.017 4.78 0.022 7.17 0.019 1.127 0.039 2.255 0.059 3.416-6e-3 1.054-0.012 2.109-0.018 3.195 5e-3 0.924 0.01 1.849 0.015 2.801-0.898 3.797-2.536 5.263-5.615 7.6-3.27 0.628-3.27 0.628-7.022 0.631-1.408 0.013-2.816 0.025-4.267 0.038-0.757-7e-3 -0.757-7e-3 -4.59-0.04-1.559 2e-3 -3.118 5e-3 -4.725 7e-3 -3.297-1e-3 -6.591-0.012-9.888-0.039-4.222-0.034-8.444-0.028-12.667-0.01-4.031 0.014-8.063-5e-3 -12.095-0.021-1.516 5e-3 -3.033 0.01-4.596 0.015-1.405-0.016-2.81-0.031-4.257-0.048-1.238-6e-3 -2.475-0.012-3.75-0.018-3.143-0.515-3.143-0.515-5.543-2.219-1.927-2.766-2.096-4.218-2.086-7.568-6e-3 -1.051-0.012-2.102-0.018-3.185 0.014-1.129 0.028-2.259 0.043-3.422 1e-3 -1.164 2e-3 -2.327 3e-3 -3.526 6e-3 -2.459 0.022-4.918 0.047-7.376 0.036-3.771 0.041-7.54 0.04-11.311 0.01-2.387 0.022-4.775 0.035-7.162 3e-3 -1.131 5e-3 -2.263 7e-3 -3.428 0.013-1.048 0.026-2.096 0.039-3.176 7e-3 -0.923 0.015-1.845 0.023-2.796 0.267-2.346 0.267-2.346 2.267-5.346 2.207-0.774 2.207-0.774 4.813-1.375 5.714-1.581 8.428-4.083 11.792-8.944 1.567-3.012 1.772-4.825 1.776-8.198 9e-3 -1.096 0.017-2.192 0.026-3.322-6e-3 -1.193-0.012-2.386-0.019-3.615 6e-3 -1.264 0.011-2.527 0.016-3.83 0.014-4.179 5e-3 -8.357-5e-3 -12.536 2e-3 -2.901 5e-3 -5.801 8e-3 -8.701 5e-3 -6.078-2e-3 -12.156-0.016-18.234-0.017-7.802-7e-3 -15.605 0.011-23.408 0.011-5.988 7e-3 -11.976 0-17.964-2e-3 -2.877 0-5.755 7e-3 -8.633 8e-3 -4.015-4e-3 -8.03-0.021-12.045 6e-3 -1.197 0.013-2.394 0.019-3.627-9e-3 -1.091-0.017-2.182-0.026-3.306 0-0.474 0-0.474-3e-3 -2.877-0.378-2.385-0.378-2.385-3.378-5.385-3.209-1.605-6.724-1.287-10.273-1.426-3.464-0.729-4.521-1.839-6.727-4.574-0.494-2.556-0.494-2.556-0.486-5.471-6e-3 -1.095-0.012-2.189-0.018-3.317 0.014-1.176 0.028-2.352 0.043-3.564 1e-3 -1.21 2e-3 -2.42 3e-3 -3.668 6e-3 -2.557 0.022-5.114 0.047-7.671 0.036-3.926 0.041-7.851 0.04-11.778 0.01-2.482 0.022-4.963 0.035-7.445 3e-3 -1.18 5e-3 -2.361 7e-3 -3.577 6e-3 -0.544 6e-3 -0.544 0.039-3.297 7e-3 -0.96 0.015-1.921 0.023-2.911 0.267-2.301 0.267-2.301 2.267-4.301 5.576-1.404 11.338-1.169 17.051-1.193z"/>
<path transform="translate(418.62 314.88)" d="m0 0c3.375 0.125 3.375 0.125 5.375 1.125 0.075 2.345 0.075 2.345-0.172 5.426-0.088 1.106-0.175 2.213-0.265 3.353-0.052 0.583-0.052 0.583-0.313 3.534-0.088 1.154-0.175 2.308-0.266 3.498-0.724 8.669-0.724 8.669-2.984 13.189-3.125 1.5-3.125 1.5-7 3-7.72 3.58-7.72 3.58-10 7-0.236 2.423-0.356 4.859-0.414 7.293-0.019 0.717-0.019 0.717-0.117 4.346-0.031 1.501-0.062 3.002-0.094 4.548-0.019 0.757-0.019 0.757-0.117 4.584-0.095 3.743-0.18 7.486-0.258 11.229-5.646-1.829-7.015-4.948-10-10-2.668-3.072-4.253-4.126-8-6-9.066 0.363-16.295 4.17-23 10-1.361 0.66-2.722 1.32-4.125 2-3.934 2.03-5.287 3.549-7.875 7-1.979 1.364-3.982 2.694-6 4-5.081 3.942-7.941 7.392-11 13-0.775 0.756-1.55 1.512-2.349 2.291-8.553 8.741-11.337 18.635-11.327 30.482 0.053 4.205 0.198 8.401 0.363 12.602 0.098 3.224 0.184 6.448 0.254 9.673 0.046 1.991 0.11 3.981 0.194 5.97 0.068 2.327-0.019 4.657-0.135 6.982-2.961 1.974-4.524 2.452-7.937 3.063-3.067 0.559-6.033 1.179-9.063 1.937-1.279 5.114-1.56 9.095-0.063 14.187 2.429 3.312 4.819 4.214 8.579 5.688 6.062 2.745 11.712 6.999 14.484 13.125 0.459 3.86 0.441 7.706 0.441 11.59 7e-3 0.568 7e-3 0.568 0.04 3.443 0.041 3.635 0.063 7.269 0.082 10.904 0.233 35.182 0.233 35.182 4.874 49.438 1.791 5.741 3.105 11.314 4.063 17.25 1.05 6.047 2.508 9.604 6.5 14.375 4 7.716 4 7.716 4 11l4 2c1.263 2.179 2.525 4.363 3.656 6.613 1.344 2.387 1.344 2.387 3.332 4.746 2.343 3.075 3.443 5.929 4.699 9.578 0.417 1.185 0.833 2.37 1.262 3.59 3.075 10.163 4.08 21.415-0.762 31.098-1.027 1.812-2.088 3.605-3.187 5.375-0.461 0.821-0.923 1.642-1.398 2.488-1.893 2.968-4.053 5.466-6.415 8.075-0.831 0.929-1.662 1.858-2.519 2.816-2.724 2.676-5.429 4.612-8.668 6.621-0.892 0.562-1.784 1.124-2.703 1.703-0.841 0.511-1.681 1.021-2.547 1.547-0.851 0.521-1.702 1.042-2.578 1.578-2.172 1.172-2.172 1.172-4.172 1.172l-2 4c-2.207 1.125-2.207 1.125-4.813 2-3.067 1.117-5.047 1.882-7.562 4-3.532 2.691-7.227 3.621-11.441 4.926-3.061 1.033-5.848 2.281-8.747 3.699-4.544 2.149-8.669 3.045-13.613 3.785-4.234 0.885-8.01 2.617-11.961 4.344-11.494 5.002-11.494 5.002-16.863 3.246-2.211-1.785-2.211-1.785-4.375-4.063-0.78-0.817-1.56-1.634-2.363-2.476-5.313-5.781-10.346-11.716-15.207-17.883-1.386-1.739-2.799-3.458-4.235-5.156-4.197-5.012-6.608-9.208-8.82-15.422-1.626-1.707-3.291-3.377-5-5-1.033-1.983-2.034-3.983-3-6-0.33-0.382-0.33-0.382-2-2.313-2.682-3.603-3.603-7.436-5-11.687-0.651-0.937-1.302-1.874-1.973-2.84-2.217-3.457-3.046-6.297-3.964-10.285-1.199-4.848-2.551-9.272-4.626-13.812-2.54-5.752-3.572-11.413-4.468-17.618-0.848-3.888-1.992-7.013-3.481-10.675-3.388-9.237-3.509-18.498-3.801-28.207-0.071-1.785-0.145-3.57-0.22-5.354-1.204-29.838-1.787-59.988 7.753-88.557 1.079-3.669 1.678-7.368 2.228-11.148 0.806-3.657 2.545-6.629 4.329-9.891 1.37-2.928 2.042-5.706 2.723-8.863 1.158-5.173 3.005-7.731 6.5-11.75 0.813-2.367 0.813-2.367 1.5-5 1.24-4.729 3.32-7.264 6.5-11l1.5-4.5c1.548-4.645 3.246-6.928 6.5-10.5 1.343-1.994 2.677-3.993 4-6 0.681-0.825 1.361-1.65 2.063-2.5 1.937-2.5 1.937-2.5 3.16-5.219 2.198-4.058 4.961-6.951 8.152-10.281 3.165-3.318 6.293-6.601 9.227-10.125 4.139-4.962 8.854-9.297 13.585-13.688 1.046-0.975 2.091-1.951 3.168-2.957 2.645-2.23 2.645-2.23 4.645-2.23l2-4c3.424-3.043 7.195-5.463 11-8 2.782-2.02 5.552-4.055 8.316-6.098 2.501-1.772 5.04-3.354 7.684-4.902 3.401-2.177 6.133-4.133 9-7 2.45-0.86 4.907-1.445 7.43-2.059 2.57-0.941 2.57-0.941 4.984-2.878 2.924-2.333 5.57-3.381 9.086-4.626 3.198-1.139 6.092-2.185 8.984-3.968 3.018-1.762 5.887-2.532 9.266-3.406 4.133-1.071 7.688-2.27 11.563-4.102 4.915-2.248 9.598-2.859 14.937-3.398 7.787-0.91 15.277-2.258 22.875-4.188 8.946-2.255 17.31-3.252 26.5-3.5z" fill="#FAE100"/>
<path transform="translate(962.33 334.91)" d="m0 0c18.074-0.147 36.123-0.195 54.173 0.905 1.171 0.07 2.342 0.14 3.548 0.212 7.458 0.565 14.139 1.662 20.644 5.609 2.794 1.655 5.035 1.845 8.246 2.242 10.743 2.295 18.742 11.291 24.75 20.125 0.763 1.32 1.526 2.64 2.312 4 0.578 0.784 1.155 1.567 1.75 2.375 1.665 3.496 2.114 6.948 2.715 10.758 0.535 2.867 0.535 2.867 2.098 7.429 3.739 12.226 3.115 23.89-1.238 35.789-1.325 3.649-1.325 3.649-2.313 7.879-1.286 4.792-3.635 7.19-7.012 10.77-0.66 0.887-1.32 1.774-2 2.687-4.574 5.289-10.711 7.631-17 10.313l-2 1c-0.687 3.125-0.687 3.125 0 7 4.585 5.091 10.68 7.934 16.774 10.82 3.013 1.597 5.028 3.593 7.226 6.18 0.702 0.804 1.403 1.609 2.125 2.437 2.004 2.739 3.384 5.518 4.875 8.563 0.626 0.8 1.251 1.601 1.895 2.426 2.959 5.023 4.014 10.172 5.293 15.824 0.26 1.081 0.519 2.163 0.787 3.277 3.405 14.586 3.764 27.366-1.975 41.473-0.123 0.711-0.123 0.711-0.75 4.312-2.538 9.518-9.075 18.008-16.25 24.688h-2l-2 4c-2.39 1.562-2.39 1.562-5.25 3-3.043 1.547-5.8 3.036-8.558 5.058-3.947 2.401-7.479 3.118-12.004 4.004-9.984 2.057-9.984 2.057-14.438 3.625-5.486 1.92-10.537 2.438-16.329 2.484-1.306 0.013-2.613 0.026-3.959 0.039-0.711 4e-3 -0.711 4e-3 -4.308 0.027-1.506 0.013-3.012 0.026-4.564 0.04-4.122 0.034-8.244 0.064-12.365 0.092-2.576 0.017-5.151 0.036-7.726 0.056-8.985 0.067-17.97 0.13-26.955 0.187-8.376 0.054-16.752 0.119-25.129 0.19-7.194 0.059-14.388 0.112-21.582 0.158-4.296 0.027-8.592 0.058-12.888 0.097-4.786 0.042-9.571 0.069-14.357 0.094-1.426 0.015-2.851 0.03-4.32 0.045-1.301 4e-3 -2.602 9e-3 -3.943 0.013-1.131 8e-3 -2.263 0.016-3.429 0.024-2.896-0.233-2.896-0.233-6.896-2.233-1.004-3.014-1.144-5.082-1.177-8.234-6e-3 -0.534-6e-3 -0.534-0.039-3.237-7e-3 -1.153-0.014-2.306-0.022-3.494-8e-3 -1.185-0.016-2.37-0.024-3.591-0.014-2.507-0.025-5.015-0.033-7.522-0.017-3.841-0.061-7.681-0.105-11.522-0.01-2.434-0.019-4.868-0.025-7.303-0.018-1.151-0.035-2.302-0.053-3.488 2e-3 -1.071 5e-3 -2.142 8e-3 -3.246-5e-3 -0.941-0.011-1.882-0.017-2.852 0.64-3.298 1.847-4.493 4.487-6.511 3.563-0.188 3.563-0.188 7 0 0.99-0.33 1.98-0.66 3-1 1.322-2.644 1.126-4.619 1.127-7.58 3e-3 -1.186 6e-3 -2.373 9e-3 -3.595-2e-3 -1.308-4e-3 -2.616-6e-3 -3.964 2e-3 -1.372 3e-3 -2.745 5e-3 -4.158 4e-3 -4.558 2e-3 -9.115-2e-3 -13.672 1e-3 -3.154 2e-3 -6.307 3e-3 -9.461 2e-3 -6.618-1e-3 -13.235-5e-3 -19.853-6e-3 -7.658-4e-3 -15.317 2e-3 -22.975 5e-3 -7.357 4e-3 -14.715 1e-3 -22.073 0-3.135 0-6.271 3e-3 -9.406 2e-3 -4.375-2e-3 -8.75-7e-3 -13.125 1e-3 -0.654 1e-3 -0.654 6e-3 -3.964-3e-3 -1.186-6e-3 -2.372-9e-3 -3.594 0-1.036 0-2.071-1e-3 -3.138-0.126-2.442-0.126-2.442-1.126-4.442-2.433-0.344-2.433-0.344-5.437-0.5-5.341-0.279-5.341-0.279-7.563-2.5-0.833-3.333-1.135-5.706-1.161-9.073-9e-3 -1.007-0.019-2.015-0.029-3.054-4e-3 -1.082-8e-3 -2.164-0.013-3.279-5e-3 -1.117-0.011-2.234-0.017-3.385-9e-3 -2.36-0.016-4.721-0.02-7.081-0.01-3.614-0.041-7.229-0.072-10.843-7e-3 -2.293-0.012-4.586-0.016-6.879-0.012-1.082-0.024-2.165-0.037-3.28 3e-3 -1.008 6e-3 -2.016 9e-3 -3.054-2e-3 -0.443-2e-3 -0.443-0.011-2.682 0.367-2.39 0.367-2.39 3.367-6.39 3.448-0.519 3.448-0.519 7.825-0.546 0.823-0.01 0.823-0.01 4.985-0.06 1.816-2e-3 3.632-3e-3 5.448-4e-3 1.881-0.015 3.762-0.032 5.643-0.05 5.034-0.045 10.068-0.064 15.103-0.079 5.191-0.019 10.382-0.058 15.574-0.094 9.115-0.062 18.23-0.103 27.346-0.135 6.801-0.025 13.602-0.069 20.403-0.125zm-9.327 59.093c-1.356 4.068-1.182 8.026-1.203 12.269-5e-3 0.914-0.011 1.828-0.017 2.769-9e-3 1.934-0.016 3.869-0.02 5.803-0.01 2.95-0.041 5.899-0.072 8.848-7e-3 1.881-0.012 3.762-0.016 5.643-0.012 0.878-0.024 1.756-0.037 2.661 0.018 5.106 0.583 8.69 3.365 13.007 5.705 4.727 13.013 3.529 20 3 8.466-2.032 17.462-5.831 24-11.688 3.858-6.389 7.215-13.752 6-21.312-4.094-11.58-10.533-16.973-21-23-4.703-1.568-9.449-1.226-14.375-1.25-1.041-0.021-2.083-0.041-3.156-0.063-9.776-0.05-9.776-0.05-13.469 3.313zm1 100c-2.378 4.757-2.306 8.655-2.3 13.84-5e-3 0.959-9e-3 1.918-0.013 2.906-6e-3 2.027-7e-3 4.053-2e-3 6.08 3e-3 3.096-0.021 6.192-0.046 9.289-2e-3 1.971-3e-3 3.941-2e-3 5.912-9e-3 0.924-0.018 1.848-0.028 2.8 0.035 4.844 0.117 8.443 3.391 12.173 13.796 5.798 29.414 3.496 43-2 2.746-2.68 2.746-2.68 5-6 0.918-1.235 1.836-2.47 2.782-3.742 2.582-4.956 2.898-8.935 2.718-14.383 3e-3 -0.868 6e-3 -1.735 8e-3 -2.629-0.079-5.195-0.801-8.821-3.508-13.246-0.437-0.808-0.874-1.617-1.324-2.449-3.429-5.63-6.074-7.82-12.676-9.551-0.99-0.33-1.98-0.66-3-1-6.794-0.838-13.53-1.134-20.375-1.25-1.513-0.026-3.026-0.052-4.586-0.078-4.067 0.33-5.935 0.748-9.039 3.328z"/>
<path transform="translate(1448.6 334.99)" d="m0 0c66.37-0.263 66.37-0.263 89.38 9.011 0.709 0.173 0.709 0.173 4.297 1.051 4.807 1.232 7.995 3.803 11.703 6.949 0.683 0.562 1.366 1.124 2.07 1.703 11.757 9.924 17.759 20.321 21.754 35.051 1.176 4.246 1.176 4.246 2.801 8.601 1.579 5.335 1.793 9.877 1.687 15.395-0.011 0.966-0.022 1.933-0.034 2.928-0.194 10.164-1.074 19.552-5.224 28.927-1.054 2.395-1.054 2.395-1.921 4.883-3.546 10.086-10.255 17.144-18.348 23.918-2.489 2.222-2.75 3.307-3.16 6.656 0.412 4.327 1.912 6.877 4.148 10.543 1.312 2.562 1.788 4.686 2.227 7.52 1 4.875 1 4.875 3.375 8.187 3.135 4.405 4.2 8.529 5.66 13.684 1.122 3.494 2.876 6.002 4.965 9.004 1.01 2.817 1.924 5.643 2.777 8.511 1.57 3.196 3.015 4.009 6.223 5.489 2.841 0.813 5.685 1.437 8.574 2.058 2.426 0.942 2.426 0.942 4.426 4.942 0.236 2.473 0.236 2.473 0.214 5.271-2e-3 0.526-2e-3 0.526-0.012 3.186-8e-3 0.564-8e-3 0.564-0.05 3.422-0.013 1.163-0.026 2.327-0.04 3.526-0.032 2.458-0.07 4.917-0.114 7.376-0.061 3.77-0.084 7.54-0.106 11.311-0.036 2.387-0.074 4.774-0.115 7.162-2e-3 1.131-5e-3 2.262-7e-3 3.428-0.026 1.048-0.052 2.096-0.079 3.175-0.013 0.923-0.026 1.846-0.039 2.797-0.652 2.346-0.652 2.346-2.779 4.143-3.386 1.417-5.875 1.583-9.544 1.591-1.331 9e-3 -2.662 0.019-4.034 0.029-1.43-6e-3 -2.861-0.013-4.334-0.019-1.473 3e-3 -2.946 6e-3 -4.464 9e-3 -3.112 2e-3 -6.223-4e-3 -9.335-0.016-4.776-0.016-9.551 0-14.326 0.019-3.021-2e-3 -6.042-6e-3 -9.063-0.012-0.717 3e-3 -0.717 3e-3 -4.346 0.019-1.325-0.01-2.65-0.019-4.016-0.029-1.168-2e-3 -2.337-5e-3 -3.541-7e-3 -2.87-0.381-2.87-0.381-5.87-3.381-1.406-2.988-2.731-5.957-4-9-0.475-1.073-0.949-2.145-1.438-3.25-1.857-4.458-3.579-8.961-5.301-13.473-1.099-2.856-2.232-5.693-3.386-8.527-1.288-3.176-2.41-6.356-3.438-9.625-1.437-4.125-1.437-4.125-4.437-8.125-0.774-2.953-0.774-2.953-1.375-6.25-1.236-5.847-3.414-9.693-6.625-14.75-0.562-1.984-1.058-3.987-1.5-6-0.908-4.128-1.699-6.318-4-10-2.803-4.484-3.726-8.325-4.727-13.461-0.773-2.539-0.773-2.539-3.773-4.539-2.819-0.227-2.819-0.227-6.199-0.196-0.605 4e-3 -0.605 4e-3 -3.663 0.02-1.262 0.017-2.525 0.033-3.826 0.051-1.274 9e-3 -2.548 0.018-3.861 0.027-3.151 0.024-6.301 0.057-9.451 0.098-1.019 4.076-1.13 7.389-1.133 11.582-1e-3 1.489-3e-3 2.979-4e-3 4.513 4e-3 1.557 8e-3 3.114 0.012 4.717-4e-3 1.545-8e-3 3.09-0.012 4.682 1e-3 1.493 3e-3 2.987 4e-3 4.525 0 0.681 0 0.681 3e-3 4.128 0.338 10.061 0.338 10.061 3.13 12.853 1.464 0.144 2.928 0.288 4.437 0.437 4.563 0.563 4.563 0.563 7.563 3.563 1.105 6.574 1.173 13.151 1.203 19.801 6e-3 0.998 0.011 1.997 0.017 3.026 0.01 2.095 0.016 4.19 0.02 6.285 0.01 3.208 0.041 6.416 0.072 9.624 7e-3 2.042 0.012 4.085 0.016 6.127 0.012 0.957 0.025 1.915 0.037 2.901-0.017 5.164-0.162 6.965-3.365 11.236-3.453 0.39-6.586 0.525-10.04 0.486-1.031 3e-3 -2.062 7e-3 -3.124 0.011-3.416 8e-3 -6.831-0.014-10.246-0.036-2.368-3e-3 -4.735-4e-3 -7.103-3e-3 -4.964-3e-3 -9.928-0.02-14.892-0.047-6.375-0.034-12.749-0.041-19.124-0.04-4.889 0-9.778-0.011-14.667-0.026-2.351-6e-3 -4.703-0.01-7.054-0.012-3.28-4e-3 -6.56-0.021-9.84-0.043-0.49 1e-3 -0.49 1e-3 -2.968 3e-3 -6.713-0.064-6.713-0.064-8.942-2.293-0.261-2.385-0.261-2.385-0.275-5.412-9e-3 -1.131-0.019-2.263-0.029-3.428 1e-3 -1.228 2e-3 -2.455 3e-3 -3.719-4e-3 -1.255-9e-3 -2.51-0.013-3.804-6e-3 -2.659-6e-3 -5.317-2e-3 -7.976 3e-3 -4.078-0.02-8.156-0.046-12.234-2e-3 -2.578-3e-3 -5.157-2e-3 -7.736-9e-3 -1.225-0.018-2.45-0.027-3.712 6e-3 -1.135 0.012-2.269 0.018-3.438 0-1-1e-3 -2-1e-3 -3.03 0.374-2.511 0.374-2.511 3.374-5.511 2.99-0.41 5.992-0.746 9-1l2-1c0.88-3.522 1.127-6.082 1.133-9.662 5e-3 -1.154 9e-3 -2.308 0.013-3.497 0-1.262-1e-3 -2.524-1e-3 -3.824 3e-3 -1.332 7e-3 -2.664 0.01-4.036 0.01-4.412 0.012-8.824 0.013-13.235 3e-3 -3.059 6e-3 -6.118 0.01-9.176 6e-3 -6.413 8e-3 -12.827 7e-3 -19.24 0-8.234 0.014-16.469 0.031-24.703 0.011-6.317 0.013-12.633 0.012-18.949 2e-3 -3.037 6e-3 -6.074 0.014-9.111 9e-3 -4.238 7e-3 -8.476 1e-3 -12.714 2e-3 -0.632 2e-3 -0.632 0.017-3.83-5e-3 -1.151-9e-3 -2.302-0.013-3.488 0-0.502 0-0.502 2e-3 -3.038-0.249-2.497-0.249-2.497-2.249-5.497-2.526-0.224-5.055-0.44-7.59-0.496-2.41-0.504-2.41-0.504-5.41-4.504-0.381-2.511-0.381-2.511-0.388-5.364-0.01-1.071-0.019-2.142-0.029-3.246 6e-3 -1.151 0.012-2.302 0.018-3.488-3e-3 -1.186-5e-3 -2.372-8e-3 -3.593-2e-3 -2.506 3e-3 -5.012 0.016-7.518 0.016-3.843 0-7.685-0.019-11.528 2e-3 -2.433 5e-3 -4.865 0.011-7.298-6e-3 -1.154-0.012-2.307-0.018-3.495 9e-3 -1.068 0.019-2.136 0.029-3.236 2e-3 -0.941 4e-3 -1.881 7e-3 -2.85 0.381-2.384 0.381-2.384 3.381-5.384 3.542-0.399 3.542-0.399 8.047-0.433 0.822-0.01 1.644-0.02 2.491-0.031 2.737-0.03 5.474-0.039 8.212-0.048 1.929-0.017 3.859-0.035 5.789-0.054 5.116-0.048 10.231-0.078 15.347-0.104 5.064-0.029 10.128-0.076 15.192-0.121 12.514-0.107 25.028-0.169 37.542-0.22zm-0.62 59.011c-1.375 4.123-1.163 8.151-1.168 12.453-4e-3 0.933-7e-3 1.867-0.01 2.829-5e-3 1.977-8e-3 3.954-8e-3 5.931-2e-3 3.011-0.02 6.022-0.039 9.033-3e-3 1.923-5e-3 3.846-6e-3 5.769-7e-3 0.895-0.014 1.79-0.022 2.713 0.019 5.069 0.226 9.586 2.253 14.272 5.007 3.11 11.109 2.329 16.812 2.312 1.055 0.016 2.11 0.032 3.197 0.049 10.516 7e-3 18.463-2.91 25.991-10.361 5.244-9.506 5.26-21.449 3.504-31.973-1.419-4.801-3.338-7.349-7.504-10.027-0.722-0.702-1.444-1.403-2.188-2.125-7.16-4.774-16.873-4.213-25.187-4.188-1.066-0.016-2.132-0.032-3.231-0.049-0.512 0-0.512 0-3.105-2e-3 -0.921-3e-3 -1.842-6e-3 -2.791-9e-3 -2.498 0.373-2.498 0.373-6.498 3.373z"/>
<path transform="translate(1839.4 335.5)" d="m0 0c1.407-0 2.813-0 4.262-1e-3 0.807-5e-3 0.807-5e-3 4.887-0.029 1.794 9e-3 3.589 0.019 5.384 0.029 1.883-4e-3 3.767-9e-3 5.651-0.017 5.124-0.014 10.248-2e-3 15.372 0.014 5.358 0.014 10.715 8e-3 16.073 4e-3 9-3e-3 18 0.011 27 0.034 10.408 0.027 20.816 0.028 31.225 0.017 10.005-0.011 20.01-5e-3 30.016 9e-3 4.26 6e-3 8.521 6e-3 12.782 1e-3 5.018-5e-3 10.036 5e-3 15.055 0.027 1.842 6e-3 3.685 6e-3 5.528 1e-3 2.513-6e-3 5.027 9e-3 7.541 0.024 0.704 1e-3 0.704 1e-3 4.265 7e-3 4.048 0.427 6.71 1.486 9.605 4.381 0.11 2.181 0.149 4.367 0.161 6.551 0.01 1.406 0.02 2.811 0.03 4.259 2e-3 0.766 2e-3 0.766 0.012 4.643 6e-3 1.562 0.012 3.125 0.018 4.735 9e-3 3.316 0.016 6.631 0.02 9.947 5e-3 4.245 0.029 8.489 0.057 12.734 0.024 4.049 0.026 8.097 0.03 12.146 0.013 1.524 0.025 3.048 0.038 4.619-3e-3 1.418-6e-3 2.835-9e-3 4.296 2e-3 0.624 2e-3 0.624 0.011 3.78-0.399 3.571-1.218 5.44-3.368 8.29-4.193 2.497-8.398 2.258-13.187 2.265-0.793 1e-3 -0.793 1e-3 -4.805 8e-3 -0.822-4e-3 -1.644-8e-3 -2.491-0.013-2.508-0.01-5.016 0-7.525 0.013-1.585-3e-3 -3.171-5e-3 -4.804-8e-3 -1.45-2e-3 -2.901-4e-3 -4.395-7e-3 -4.627-0.315-7.498-0.964-10.793-4.258-0.173-1.766-0.267-3.54-0.312-5.313-0.303-4.048-0.498-5.424-2.938-8.812-6.675-4.552-15.749-3.098-23.5-3.125-1.428-0.021-2.856-0.042-4.328-0.063-7.594-0.028-13.974 0.094-20.922 3.313-2.548 3.822-2.258 6.016-2.265 10.589-3e-3 1.507-5e-3 3.013-8e-3 4.565 4e-3 0.789 4e-3 0.789 0.023 4.783-7e-3 1.575-0.015 3.149-0.023 4.772 1e-3 0.753 1e-3 0.753 8e-3 4.568 1e-3 0.692 1e-3 0.692 6e-3 4.195 0.259 3.528 0.259 3.528 2.259 7.528 2.961 1.48 5.683 1.185 8.985 1.246 1.41 0.033 2.82 0.065 4.273 0.099 2.979 0.061 5.958 0.118 8.938 0.172 1.415 0.034 2.83 0.068 4.289 0.104 0.648 0.012 0.648 0.012 3.928 0.076 3.64 0.307 6.326 0.643 9.587 2.303 2.595 4.836 2.291 10.118 2.266 15.484 2e-3 0.897 4e-3 1.794 6e-3 2.718 1e-3 1.886-3e-3 3.771-0.011 5.657-0.011 2.895 0 5.789 0.013 8.684-2e-3 1.834-4e-3 3.669-8e-3 5.503 4e-3 0.868 8e-3 1.736 0.012 2.63-0.048 6.094-0.048 6.094-2.278 8.324-4.066 1.016-7.503 1.189-11.687 1.281-1.503 0.037-3.006 0.075-4.555 0.113-3.172 0.07-6.344 0.141-9.516 0.211-1.503 0.037-3.006 0.075-4.554 0.113-1.378 0.031-2.756 0.061-4.176 0.092-3.512 0.19-3.512 0.19-7.512 1.19-0.049 5.765-0.085 11.531-0.11 17.297-0.01 1.961-0.023 3.922-0.041 5.884-0.024 2.82-0.035 5.639-0.044 8.459-0.01 0.876-0.021 1.753-0.031 2.655-1e-3 4.355 0.239 6.731 2.226 10.705 8.132 2.774 16.622 2.296 25.125 2.25 1.427 7e-3 2.854 0.015 4.325 0.023 1.38-3e-3 2.761-5e-3 4.183-8e-3 0.623-1e-3 0.623-1e-3 3.778-7e-3 4.757-0.343 9.129-0.798 12.589-4.258 0.272-4.096 0.316-8.174 0.364-12.278 0.636-3.722 0.636-3.722 2.582-5.43 4.171-1.765 8.102-1.722 12.554-1.691 0.457-1e-3 0.457-1e-3 2.768-9e-3 1.926-2e-3 3.853 4e-3 5.779 0.016 2.943 0.017 5.885 1e-3 8.828-0.019 1.875 2e-3 3.75 6e-3 5.625 0.012 0.877-6e-3 1.755-0.012 2.658-0.018 4.827 0.055 8.122 0.245 11.842 3.417 0.635 3.25 0.635 3.25 0.647 7.329 0.016 1.525 0.032 3.051 0.048 4.622-9e-3 1.67-0.019 3.34-0.031 5.01 4e-3 1.71 9e-3 3.42 0.015 5.13 7e-3 3.586-4e-3 7.172-0.027 10.758-0.028 4.593-0.012 9.184 0.018 13.777 0.018 3.533 0.012 7.065-1e-3 10.598-5e-3 2.515 0.011 5.031 0.026 7.546-8e-3 0.766-8e-3 0.766-0.048 4.641-4e-3 1.348-8e-3 2.696-0.012 4.084-0.81 4.473-2.089 5.711-5.635 8.505-3.568 0.636-3.568 0.636-7.78 0.652-1.599 0.018-3.197 0.037-4.844 0.055-1.768-5e-3 -3.537-0.01-5.305-0.016-1.865 0.011-3.729 0.025-5.594 0.041-5.062 0.037-10.123 0.043-15.186 0.042-5.296 5e-3 -10.592 0.036-15.888 0.063-8.894 0.042-17.788 0.066-26.682 0.077-10.284 0.013-20.569 0.05-30.853 0.101-10.946 0.054-21.892 0.093-32.839 0.126-3.155 0.011-6.31 0.024-9.466 0.038-4.957 0.02-9.915 0.03-14.872 0.032-1.82 2e-3 -3.641 8e-3 -5.461 0.017-2.483 0.012-4.966 0.01-7.449 8e-3 -1.39 2e-3 -2.78 5e-3 -4.212 8e-3 -3.364-0.23-5.611-0.663-8.569-2.244-1.262-2.526-1.14-4.294-1.161-7.121-9e-3 -1.068-0.019-2.136-0.029-3.237-4e-3 -1.158-8e-3 -2.316-0.013-3.51-6e-3 -1.186-0.011-2.372-0.017-3.594-0.01-2.514-0.016-5.027-0.02-7.541-0.01-3.85-0.041-7.699-0.072-11.548-7e-3 -2.439-0.012-4.878-0.016-7.317-0.012-1.154-0.025-2.308-0.037-3.497 3e-3 -1.075 6e-3 -2.149 9e-3 -3.256-4e-3 -0.944-7e-3 -1.889-0.011-2.862 0.367-2.517 0.367-2.517 3.367-6.517 2.518-0.961 5-1.5 7.625-2.094 2.375-0.906 2.375-0.906 5.375-4.906 1.724-5.17 1.202-10.46 0.501-15.811-0.485-4.056-0.63-7.947-0.634-12.029-1e-3 -1.477-2e-3 -2.954-3e-3 -4.475 3e-3 -1.525 7e-3 -3.051 0.011-4.623-4e-3 -1.491-7e-3 -2.982-0.011-4.518 0.01-12.21 0.086-24.484 2.136-36.544 0.043-2.688 0.041-5.376 0-8.063-0.068-4.529 0.092-8.52 1-12.937 1.422-30.548 1.422-30.548-5-40-2.375-0.735-2.375-0.735-5-0.75-4.752-0.085-4.752-0.085-8-2.25-0.84-3.36-1.135-5.766-1.161-9.164-5e-3 -0.514-5e-3 -0.514-0.029-3.115-4e-3 -1.104-8e-3 -2.209-0.013-3.346-6e-3 -1.139-0.011-2.279-0.017-3.452-0.01-2.407-0.016-4.815-0.02-7.222-0.01-3.687-0.041-7.374-0.072-11.061-7e-3 -2.338-0.012-4.677-0.016-7.015-0.012-1.105-0.025-2.209-0.037-3.347 3e-3 -1.027 6e-3 -2.055 9e-3 -3.114-4e-3 -0.903-7e-3 -1.806-0.011-2.736 0.673-4.45 2.356-6.277 6.721-6.929z"/>
<path transform="translate(1153.8 335.5)" d="m0 0c0.597-5e-3 0.597-5e-3 3.62-0.03 1.307 0.01 2.614 0.02 3.961 0.029 1.379-5e-3 2.758-0.01 4.179-0.016 4.569-0.012 9.138 4e-3 13.708 0.022 3.168 0 6.336-2e-3 9.505-4e-3 6.644-2e-3 13.289 0.01 19.933 0.034 7.682 0.026 15.364 0.028 23.046 0.016 7.39-0.011 14.78-4e-3 22.169 0.01 3.145 4e-3 6.291 5e-3 9.436 1e-3 4.391-3e-3 8.781 0.013 13.172 0.035 0.654-2e-3 0.654-2e-3 3.961-0.013 0.598 4e-3 0.598 4e-3 3.62 0.03 1.038 2e-3 2.077 4e-3 3.146 7e-3 2.699 0.38 2.699 0.38 6.699 3.38 0.508 2.422 0.508 2.422 0.518 5.326 0.012 1.088 0.025 2.176 0.038 3.297-8e-3 1.175-0.016 2.35-0.025 3.561 4e-3 1.207 8e-3 2.414 0.012 3.658 3e-3 2.554-5e-3 5.109-0.021 7.663-0.022 3.914-1e-3 7.826 0.025 11.739-3e-3 2.48-8e-3 4.96-0.016 7.44 8e-3 1.173 0.016 2.346 0.025 3.554-6e-3 0.546-6e-3 0.546-0.038 3.307-4e-3 0.959-7e-3 1.918-0.01 2.906-0.656 3.291-1.917 4.483-4.508 6.549-3.361 0.795-6.528 0.817-10 1-1.154 9.712 1.189 17.557 4.293 26.609 2.44 7.212 3.913 14.101 4.906 21.665 0.801 3.726 0.801 3.726 2.793 7.656 2.174 4.407 2.828 7.964 3.446 12.82 1.002 6.75 2.591 12.135 5.445 18.281 1.288 3.424 1.68 6.521 2.055 10.157 0.778 7.288 2.955 13.479 5.55 20.304 2.162 6.445 3.258 12.959 4.36 19.657 1.152 3.851 1.152 3.851 3.48 5.793 2.421 0.959 4.889 1.797 7.36 2.621 4.312 1.437 4.312 1.437 6.312 3.437 0.274 2.219 0.274 2.219 0.306 5.013 0.016 1.045 0.032 2.09 0.049 3.166 5e-3 1.134 0.011 2.267 0.016 3.434 9e-3 1.162 0.018 2.324 0.027 3.521 0.015 2.462 0.024 4.924 0.028 7.386 0.011 3.767 0.061 7.532 0.111 11.299 0.01 2.39 0.017 4.78 0.022 7.169 0.019 1.128 0.039 2.255 0.059 3.416-6e-3 1.055-0.012 2.109-0.019 3.195 5e-3 0.924 0.011 1.849 0.016 2.801-0.92 3.891-2.382 5.271-5.615 7.6-3.344 0.494-6.175 0.685-9.516 0.647-0.952 9e-3 -1.904 0.018-2.884 0.027-3.141 0.022-6.28 7e-3 -9.42-0.01-2.183 4e-3 -4.366 8e-3 -6.549 0.015-4.571 7e-3 -9.142-4e-3 -13.713-0.027-5.867-0.028-11.732-0.012-17.598 0.018-4.505 0.018-9.011 0.012-13.516-1e-3 -2.164-3e-3 -4.327 1e-3 -6.49 0.013-3.02 0.012-6.037-7e-3 -9.057-0.035-0.897 0.01-1.795 0.02-2.72 0.031-2.489-0.043-2.489-0.043-6.537-0.678-3.964-4.348-3.435-9.488-3.398-15.086-3e-3 -0.975-6e-3 -1.95-9e-3 -2.955-2e-3 -2.059 3e-3 -4.118 0.016-6.178 0.016-3.138 0-6.275-0.019-9.414 2e-3 -2.005 6e-3 -4.01 0.012-6.015-6e-3 -0.933-0.013-1.865-0.019-2.826 0.059-5.497 0.699-9.71 3.417-14.526 2.629-0.832 2.629-0.832 5.563-0.812 5.285-0.035 5.285-0.035 7.437-2.188 1.566-10.303-1.274-20.45-5-30-5-4.999-10.602-4.174-17.277-4.203-0.502-3e-3 -0.502-3e-3 -3.041-0.017-2.121-0.01-4.242-0.016-6.362-0.02-3.242-0.01-6.483-0.041-9.724-0.072-2.062-7e-3 -4.124-0.012-6.186-0.016-0.968-0.012-1.935-0.025-2.933-0.037-8.67 0.028-8.67 0.028-12.477 3.365-1.004 3.145-1.004 3.145-1.562 6.813-1.224 6.869-1.224 6.869-3.625 10.437-2.82 4.279-2.212 7.696-1.813 12.75 2.966 2.966 6.455 3.197 10.469 4.121 2.531 0.879 2.531 0.879 4.531 3.879 1.279 8.651 1.291 17.341 1.35 26.067 0.017 1.796 0.044 3.592 0.082 5.388 0.055 2.614 0.077 5.227 0.091 7.842 0.01 0.775 0.01 0.775 0.061 4.698-0.71 4.87-1.762 6.008-5.584 9.005-3.39 0.635-3.39 0.635-7.313 0.647-1.471 0.016-2.943 0.032-4.459 0.048-0.792-5e-3 -0.792-5e-3 -4.798-0.031-0.814 3e-3 -0.814 3e-3 -4.935 0.015-3.441 7e-3 -6.882-4e-3 -10.324-0.027-4.413-0.028-8.825-0.012-13.238 0.018-4.21 0.022-8.419 7e-3 -12.628-6e-3 -1.588 0.01-3.175 0.021-4.811 0.031-1.465-0.016-2.93-0.032-4.44-0.048-0.646-2e-3 -0.646-2e-3 -3.918-0.012-3.136-0.635-3.136-0.635-5.055-2.916-1.58-3.973-1.434-7.49-1.409-11.754 1e-3 -0.437 1e-3 -0.437 6e-3 -2.65 6e-3 -1.85 0.02-3.7 0.041-5.55 0.031-2.793 0.041-5.586 0.047-8.38 0.08-19.717 0.08-19.717 1.234-27.385 4-3 4-3 8.563-3.5 4.437-0.5 4.437-0.5 7.437-3.5 4.537-8.448 6.697-16.805 8.227-26.207 0.72-3.53 1.711-6.347 3.211-9.605 2.717-5.941 3.886-12.033 5.11-18.403 0.805-4.066 1.634-7.769 3.515-11.472 1.89-4.208 2.616-7.603 3.375-12.125 0.856-5.027 1.867-9.37 4-14 2.672-5.855 3.842-11.83 5.033-18.109 0.98-4.975 2.314-9.472 4.279-14.141 2.345-5.661 2.958-9.833 2.25-15.938-3.73-2.486-6.249-2.278-10.625-2.363-2.375-0.637-2.375-0.637-3.998-2.841-1.484-3.013-1.761-4.834-1.781-8.165-0.013-1.048-0.025-2.096-0.038-3.175 2e-3 -1.121 5e-3 -2.242 8e-3 -3.397-5e-3 -1.16-0.01-2.32-0.015-3.515-7e-3 -2.448-6e-3 -4.897 3e-3 -7.345 9e-3 -3.751-0.02-7.501-0.052-11.252-2e-3 -2.379-1e-3 -4.759 2e-3 -7.138-6e-3 -0.562-6e-3 -0.562-0.034-3.403 5e-3 -0.522 5e-3 -0.522 0.028-3.166 0-0.917 1e-3 -1.835 1e-3 -2.78 1.165-5.718 5.003-6.96 10.346-6.961zm48.155 75.501c-2.959 4.48-3.664 8.94-4.437 14.188-0.804 4.944-1.614 9.446-3.563 14.062-2.543 6.261-3.162 12.828-3.961 19.491-0.527 4.274-1.093 7.367-3.039 11.259-0.375 4.625-0.375 4.625 0 9 4.347 2.174 6.53 2.258 11.32 2.266 1.422 2e-3 2.844 5e-3 4.309 8e-3 0.742-4e-3 0.742-4e-3 4.496-0.024 0.746 4e-3 0.746 4e-3 4.52 0.024 1.419-3e-3 2.838-6e-3 4.3-8e-3 1.305-2e-3 2.61-5e-3 3.954-7e-3 3.101-0.259 3.101-0.259 5.101-2.259 1.539-10.183-1.033-22.081-5.047-31.441-1.404-3.77-1.779-7.579-2.328-11.559-2.99-20.365-2.99-20.365-7.625-25-3.937-0.5-3.937-0.5-8 0z"/>
<path transform="translate(1630 335.38)" d="m0 0c1.004-6e-3 2.008-0.011 3.042-0.017 3.316-0.012 6.631 0.013 9.947 0.038 2.308 2e-3 4.615 2e-3 6.923 0 4.837 2e-3 9.674 0.021 14.511 0.052 6.193 0.04 12.385 0.044 18.578 0.037 4.766-3e-3 9.533 9e-3 14.299 0.026 2.283 7e-3 4.566 0.01 6.849 9e-3 3.195 2e-3 6.39 0.023 9.585 0.05 0.94-3e-3 1.879-6e-3 2.847-9e-3 5.434 0.071 9.733 0.566 14.416 3.429 0.931 2.363 0.931 2.363 1 5 0.019 0.416 0.019 0.416 0.116 2.517-5e-3 0.886-0.01 1.772-0.015 2.685-4e-3 1.011-8e-3 2.022-0.012 3.064-0.048 4.579-0.098 9.157-0.167 13.736-0.032 2.419-0.053 4.838-0.063 7.257-0.015 3.49-0.063 6.978-0.117 10.468 1e-3 1.084 1e-3 2.169 2e-3 3.286-0.069 3.044-0.069 3.044-0.744 7.987-3.912 3.575-8.472 3.712-13.575 4.375-2.425 0.625-2.425 0.625-4.425 3.625-0.252 2.467-0.252 2.467-0.254 5.459-6e-3 1.134-0.012 2.269-0.017 3.437 4e-3 1.246 8e-3 2.491 0.012 3.774-4e-3 1.311-7e-3 2.621-0.011 3.972-9e-3 4.347-3e-3 8.694 4e-3 13.042-1e-3 3.013-3e-3 6.026-6e-3 9.038-3e-3 6.321 2e-3 12.642 0.011 18.963 0.011 8.112 5e-3 16.224-7e-3 24.337-8e-3 6.223-5e-3 12.447 0 18.671 1e-3 2.992 0 5.983-5e-3 8.975-5e-3 4.178 3e-3 8.355 0.014 12.533-4e-3 1.243-8e-3 2.487-0.012 3.768 5e-3 1.137 0.011 2.274 0.017 3.445 0 0.988 1e-3 1.976 2e-3 2.994 0.252 2.592 0.252 2.592 2.252 6.592 8.143 2.774 16.67 2.332 25.187 2.313 0.718 8e-3 0.718 8e-3 4.35 0.049 1.384 0 2.767 1e-3 4.193 2e-3 1.252 2e-3 2.504 5e-3 3.794 9e-3 4.697-0.504 8.103-1.908 11.351-5.373 2.033-5.422 1.587-11.285 0.625-16.937-0.821-5.028-1.153-9.998-0.5-15.063 2.215-2.973 3.739-4.369 7-6 5.102-0.213 10.205-0.186 15.312-0.185 2.546-2e-3 5.091-0.02 7.637-0.039 1.602-2e-3 3.204-4e-3 4.855-6e-3 1.475-4e-3 2.949-8e-3 4.469-0.013 3.727 0.243 3.727 0.243 7.727 2.243 2.647 4.4 2.295 9.261 2.29 14.241 7e-3 0.922 0.014 1.845 0.02 2.795 0.019 3.043 0.023 6.086 0.026 9.128 6e-3 2.116 0.013 4.231 0.02 6.347 0.012 4.43 0.015 8.86 0.014 13.29 0 5.684 0.027 11.368 0.062 17.053 0.022 4.366 0.026 8.732 0.025 13.099 2e-3 2.096 0.011 4.193 0.027 6.289 0.019 2.926 0.014 5.851 1e-3 8.776 0.012 0.87 0.023 1.74 0.034 2.636-0.025 2.413-0.025 2.413-0.519 6.346-4.631 3.473-6.041 3.377-11.674 3.381-1.6 9e-3 -3.2 0.017-4.848 0.026-1.776-6e-3 -3.551-0.012-5.326-0.019-1.868 4e-3 -3.736 0.01-5.603 0.016-5.074 0.014-10.148 9e-3 -15.223-1e-3 -5.305-7e-3 -10.61 0-15.915 4e-3 -8.908 6e-3 -17.817-1e-3 -26.725-0.016-10.308-0.016-20.615-0.011-30.923 6e-3 -8.843 0.013-17.685 0.015-26.528 8e-3 -5.284-5e-3 -10.569-6e-3 -15.853 4e-3 -4.967 9e-3 -9.933 3e-3 -14.9-0.015-1.826-4e-3 -3.652-2e-3 -5.477 4e-3 -2.486 8e-3 -4.972-4e-3 -7.458-0.017-1.394-1e-3 -2.787-2e-3 -4.222-3e-3 -3.325-0.378-3.325-0.378-6.325-3.378-1.458-5.439-1.179-11.13-1.204-16.726-5e-3 -1.026-0.011-2.051-0.017-3.107-9e-3 -2.16-0.016-4.32-0.02-6.48-9e-3 -3.307-0.04-6.614-0.072-9.921-6e-3 -2.102-0.012-4.203-0.016-6.305-0.012-0.988-0.024-1.977-0.037-2.996 0.017-5.23 0.127-7.147 3.366-11.465 3.101-0.976 3.101-0.976 6.625-1.625 2.136-0.401 4.266-0.846 6.375-1.375 1.328-2.657 1.122-4.655 1.12-7.631 1e-3 -1.198 3e-3 -2.395 4e-3 -3.629-4e-3 -1.321-7e-3 -2.641-0.011-4.002 0-0.693 0-0.693 1e-3 -4.198-1e-3 -4.599-9e-3 -9.198-0.017-13.798-2e-3 -3.18-3e-3 -6.361-4e-3 -9.542-3e-3 -7.529-0.011-15.059-0.021-22.588-0.012-8.571-0.017-17.141-0.022-25.712-0.011-17.633-0.028-35.267-0.05-52.9-0.904-0.037-1.808-0.075-2.739-0.113-1.179-0.066-2.359-0.132-3.574-0.199-0.586-0.029-0.586-0.029-3.551-0.176-3.136-0.512-3.136-0.512-6.136-3.512-0.433-2.377-0.433-2.377-0.512-5.218-0.036-1.065-0.072-2.13-0.109-3.227-0.022-1.15-0.044-2.3-0.067-3.484-0.03-1.183-0.06-2.365-0.09-3.584-0.058-2.503-0.108-5.006-0.151-7.51-0.071-3.831-0.185-7.659-0.302-11.488-0.051-2.431-0.099-4.862-0.144-7.293-0.039-1.146-0.077-2.292-0.116-3.473-0.011-1.071-0.022-2.142-0.033-3.246-0.02-0.939-0.039-1.878-0.06-2.846 1.825-8.229 8.42-8.347 15.587-8.246z"/>
<path transform="translate(439.51 481.73)" d="m0 0c0.915 4e-3 1.831 8e-3 2.774 0.012 0.962-3e-3 1.925-7e-3 2.917-0.01 3.198-9e-3 6.395-3e-3 9.592 3e-3 2.22-1e-3 4.44-3e-3 6.66-5e-3 4.662-3e-3 9.325 1e-3 13.987 0.01 5.965 0.012 11.93 5e-3 17.895-7e-3 4.59-7e-3 9.18-5e-3 13.77 0 2.198 2e-3 4.396 0 6.595-5e-3 3.082-5e-3 6.165 3e-3 9.248 0.014 0.903-4e-3 1.806-8e-3 2.737-0.012 6.364 0.042 12.615 0.292 17.881 4.146 0.475 0.701 0.949 1.403 1.438 2.125l-1 4c-2.203 0.789-4.412 1.568-6.652 2.246-5.712 1.834-8.444 4.476-11.161 9.692-2.404 5.034-3.243 9.773-3.652 15.308-0.039 0.502-0.039 0.502-0.236 3.041-0.155 2.065-0.309 4.13-0.461 6.195-0.43 5.503-1.02 10.925-1.858 16.381-0.9 6.047-1.297 12.018-1.562 18.122-0.53 11.877-1.631 22.095-5.973 33.222-1.404 3.684-2.255 7.18-3.008 11.043-1.096 5.195-2.887 7.756-6.437 11.75-0.895 2.532-1.568 5.082-2.258 7.676-0.978 3.062-2.584 4.97-4.742 7.324-1.364 1.98-2.694 3.982-4 6-0.804 1.134-1.609 2.269-2.438 3.438-6.259 10.205-8.975 21.689-7.562 33.562 1.375 4.313 1.375 4.313 3 8 0.093 0.681 0.093 0.681 0.562 4.125 2.231 11.036 12.562 20.964 21.125 27.688 2.676 2.105 5.343 4.212 7.973 6.375 4.309 3.536 8.267 6.445 13.34 8.812 1.093 0.825 2.186 1.65 3.312 2.5 3.688 2.5 3.688 2.5 8.188 4s4.5 1.5 7.75 3.938c4.425 3.024 8.571 4.154 13.691 5.589 3.059 0.973 3.059 0.973 6.496 3.098 8.647 4.551 19.937 4.205 29.563 4.875-1.097 4.389-1.486 4.751-4.938 7.25-0.81 0.602-1.621 1.204-2.457 1.824-0.859 0.636-1.719 1.271-2.605 1.926-1.715 1.346-3.424 2.7-5.125 4.063-0.835 0.666-1.671 1.332-2.531 2.019-2.037 1.667-4.01 3.411-5.969 5.168-3.596 2.93-7.227 4.71-11.375 6.75-0.639 0.66-1.279 1.32-1.938 2-3.147 3.052-7.075 4.252-11.062 6-0.784 0.66-1.568 1.32-2.375 2-3.409 2.597-6.95 3.663-11.004 4.973-2.621 1.027-2.621 1.027-6.621 4.027-2.594 0.738-2.594 0.738-5.5 1.313-4.518 1.028-8.095 2.414-12.125 4.687-6.452 3.456-12.87 4.292-20.078 5.164-4.665 0.908-8.108 2.637-12.297 4.836-10.911 3.067-23.661 2.113-34.938 2.188-1.06 0.013-2.121 0.025-3.214 0.039-2.617 3e-3 -5.234-0.103-7.848-0.227-2.638-2.638-2.251-3.806-2.252-7.488-5e-3 -1.173-0.01-2.346-0.016-3.555 5e-3 -1.3 9e-3 -2.6 0.014-3.94-3e-3 -1.372-6e-3 -2.745-0.01-4.159-8e-3 -4.632-1e-3 -9.264 5e-3 -13.897-3e-3 -3.307-6e-3 -6.615-0.011-9.922-8e-3 -8.071-6e-3 -16.142-1e-3 -24.213 5e-3 -6.557 5e-3 -13.114 3e-3 -19.671 0-0.932 0-1.863-1e-3 -2.823 0-1.893-1e-3 -3.785-2e-3 -5.677-5e-3 -17.764 1e-3 -35.527 0.012-53.291 9e-3 -15.256 7e-3 -30.512-2e-3 -45.768-0.011-17.698-0.015-35.396-9e-3 -53.094 1e-3 -1.886 2e-3 -3.771 2e-3 -5.657 1e-3 -0.928 1e-3 -1.856 1e-3 -2.812 2e-3 -6.552-1e-3 -13.104-6e-3 -19.657-5e-3 -7.98-4e-3 -15.961 7e-3 -23.941 5e-3 -4.075 6e-3 -8.15 1e-3 -12.225-6e-3 -4.409 1e-3 -8.818 0.011-13.227-5e-3 -1.3-9e-3 -2.6-0.014-3.94 6e-3 -1.173 0.011-2.346 0.016-3.555 1e-3 -1.019 1e-3 -2.038 1e-3 -3.087 0.561-5.367 4.238-4.641 8.757-4.672z" fill="#FAE100"/>
<path transform="translate(865.98 627.73)" d="m0 0c0.998 5e-3 1.996 9e-3 3.025 0.014 0.529-2e-3 0.529-2e-3 3.209-9e-3 3.599-8e-3 7.197-2e-3 10.796 5e-3 2.597-3e-3 5.194-7e-3 7.792-0.011 7.202-0.01 14.405-7e-3 21.607-2e-3 7.811 4e-3 15.622-5e-3 23.433-0.011 13.712-0.011 27.423-0.014 41.134-0.011 14.719 2e-3 29.437 0 44.156-8e-3 0.464 0 0.464 0 2.813-1e-3l11.34-6e-3c39.477-0.02 78.954-0.026 118.43-0.027 4.252 0 8.504-1e-3 12.756-1e-3h3.198c23.357-1e-3 46.714-5e-3 70.072-0.01 9.611-2e-3 19.222-4e-3 28.832-6e-3 1.062 0 2.124-1e-3 3.218-1e-3 60.867-0.012 121.73-0.021 182.6-0.02h6.836c10.29 1e-3 20.58 1e-3 30.869 1e-3h13.766 6.89c72.646 2e-3 145.29-0.013 217.94-0.041 18.305-7e-3 36.611-0.014 54.916-0.02 1.127-1e-3 2.254-1e-3 3.416-2e-3 34.716-0.012 69.433-0.02 104.15-0.022h3.301c23.912-2e-3 47.823-3e-3 71.734-2e-3h25.665 6.385c33.962 1e-3 67.924-0.011 101.89-0.028 34.19-0.017 68.38-0.022 102.57-8e-3 4.717 1e-3 9.435 3e-3 14.153 5e-3 0.462 0 0.462 0 2.802 1e-3 14.684 4e-3 29.367-4e-3 44.05-0.019 14.415-0.013 28.83-0.013 43.245 3e-3 7.72 8e-3 15.441 9e-3 23.162-7e-3 7.008-0.015 14.015-0.011 21.023 8e-3 2.535 3e-3 5.07 0 7.604-0.011 3.414-0.013 6.827-3e-3 10.241 0.015 0.998-0.01 1.996-0.02 3.025-0.03 2.728 0.029 2.728 0.029 6.98 0.529 2.487 4.972 2.077 7.616 1 13-4.869 2.435-8.911 2.276-14.22 2.25-1.058 3e-3 -2.116 6e-3 -3.207 9e-3 -3.582 7e-3 -7.165 0-10.748-8e-3 -2.591 3e-3 -5.182 6e-3 -7.773 9e-3 -7.175 8e-3 -14.35 3e-3 -21.525-3e-3 -7.785-5e-3 -15.57 1e-3 -23.354 6e-3 -13.663 7e-3 -27.325 7e-3 -40.988 2e-3 -14.664-5e-3 -29.329-7e-3 -43.993-2e-3h-2.803c-3.768 1e-3 -7.536 3e-3 -11.303 4e-3 -35.12 0.01-70.239 0.011-105.36 5e-3h-3.156c-1.043 0-2.086 0-3.161-1e-3 -31.744-5e-3 -63.488-6e-3 -95.232-4e-3 -2.124 1e-3 -4.248 1e-3 -6.371 1e-3 -8.534 0-17.067 1e-3 -25.6 2e-3 -23.856 2e-3 -47.712 3e-3 -71.568 3e-3h-3.292c-34.632 1e-3 -69.264-1e-3 -103.9-5e-3 -0.562 0-0.562 0-3.405-1e-3 -18.25-2e-3 -36.499-4e-3 -54.748-7e-3 -72.386-0.01-144.77-9e-3 -217.16 1e-3 -18.241 2e-3 -36.482 4e-3 -54.723 7e-3h-3.403c-34.596 4e-3 -69.192 6e-3 -103.79 5e-3h-3.29c-23.828 0-47.657-2e-3 -71.485-3e-3 -8.526-1e-3 -17.051-2e-3 -25.577-2e-3 -2.121-1e-3 -4.242-1e-3 -6.363-1e-3 -31.739-2e-3 -63.478 0-95.216 5e-3h-3.156c-1.04 1e-3 -2.08 1e-3 -3.151 1e-3 -35.014 5e-3 -70.029 3e-3 -105.04-7e-3 -3.755-1e-3 -7.51-2e-3 -11.265-3e-3 -0.922-1e-3 -1.844-1e-3 -2.793-1e-3 -14.63-4e-3 -29.259-1e-3 -43.888 4e-3 -14.364 5e-3 -28.728 3e-3 -43.092-6e-3 -7.692-5e-3 -15.385-6e-3 -23.077 1e-3 -6.984 6e-3 -13.967 4e-3 -20.951-6e-3 -2.524-2e-3 -5.049-1e-3 -7.574 4e-3 -3.402 6e-3 -6.805 1e-3 -10.208-9e-3 -0.496 3e-3 -0.496 3e-3 -3.006 0.015-6.746-0.037-6.746-0.037-10.089-2.265-0.978-3.912-1.222-6.993-1-11 2.798-2.798 5.191-2.245 8.981-2.267z" fill="#FAE100"/>
<path transform="translate(1486,683)" d="m0 0c1.38 1.628 2.72 3.292 4 5 0.887 0.66 1.774 1.32 2.688 2 2.847 2.463 2.847 3.322 3.312 7 0.199 5.266 0.186 10.531 0.185 15.801 2e-3 2.559 0.021 5.117 0.04 7.676 2e-3 1.624 3e-3 3.248 5e-3 4.921 5e-3 1.482 9e-3 2.964 0.013 4.49-0.338 5.722-0.788 9.754-5.055 13.737-1.052 0.784-2.104 1.567-3.188 2.375-1.687 1.646-3.355 3.312-5 5-0.763 0.557-1.526 1.114-2.312 1.688-3.492 4.784-1.793 11.437-1.126 17 1.32 6.128 4.216 11.598 6.977 17.187 1.461 3.125 1.461 3.125 1.461 5.125 1.665 0.671 3.332 1.337 5 2 1.794 1.274 3.544 2.611 5.25 4 0.871 0.701 1.743 1.403 2.641 2.125 2.879 2.56 3.067 3.41 3.421 7.313-0.103 1.175-0.206 2.351-0.312 3.562-5.487 4.115-9.646 3.479-16.312 3.438-1.116 0.019-2.232 0.039-3.381 0.06-6.49-4e-3 -10.969-0.395-16.307-4.498-2.305-3.974-3.061-7.34-3.875-11.875-0.826-4.596-2.504-7.875-4.902-11.84-1.299-2.426-2.014-4.693-2.723-7.347-1.343-4.922-3.664-8.684-6.5-12.938-0.495-1.114-0.99-2.227-1.5-3.375-1.5-2.625-1.5-2.625-3.75-3.937-3.234-0.809-6.441-1.299-9.75-1.688-1.167 6.316-1.259 12.467-1.312 18.875-0.03 1.146-0.059 2.292-0.088 3.473-0.053 6.97 0.648 11.564 4.4 17.652 4 7.444 4 7.444 4 13-2.755 3.115-4.48 3.925-8.609 4.518-1.367 4e-3 -2.733 9e-3 -4.141 0.013-1.495 5e-3 -2.991 0.011-4.531 0.016-1.557-0.016-3.115-0.031-4.719-0.047-0.779 8e-3 -0.779 8e-3 -4.719 0.047-1.495-5e-3 -2.99-0.01-4.531-0.016-0.683-2e-3 -0.683-2e-3 -4.141-0.013-4.1-0.588-5.804-1.506-8.609-4.518-0.414-5.69 1.609-9.078 4.52-13.723 4.387-8.057 4.484-15.25 4.418-24.277 0.013-1.615 0.026-3.231 0.04-4.895 0.027-3.495 0.033-6.989 0.023-10.484-9e-3 -4.921 0.04-9.84 0.104-14.761 0.052-4.098 0.088-8.196 0.12-12.294 0.017-1.992 0.037-3.983 0.06-5.974 0.03-2.8 0.039-5.6 0.043-8.401 9e-3 -1.606 0.019-3.213 0.028-4.868-0.527-6.394-2.244-10.102-6.544-14.823-2.812-3.5-2.812-3.5-3.374-7 0.628-3.913 1.735-6.987 3.562-10.5 3.781-1.89 8.443-1.308 12.625-1.438 6.9-0.246 13.66-0.621 20.5-1.624 18.225-2.493 35.968-2.196 51.875 8.062zm-50 16c-2.962 4.443-2.183 8.841-2 14 0.041 1.502 0.082 3.004 0.125 4.551 0.062 1.592 0.124 3.184 0.187 4.824 0.059 1.513 0.117 3.027 0.176 4.586 0.503 3.968 1.005 5.975 3.512 9.039 3.903 1.951 4.991 2.231 9.098 2.047 0.966-0.043 1.932-0.085 2.927-0.129 1.003-0.055 2.005-0.111 3.037-0.168 0.504-0.02 0.504-0.02 3.049-0.121 7.502-0.371 7.502-0.371 10.889-2.629 1.591-4.774 1.226-9.625 1.25-14.625 0.021-1.056 0.041-2.111 0.062-3.199 0.034-6.712-0.579-12.008-3.312-18.176-4.704-3.528-7.775-3.452-13.375-3.375-0.838-0.012-1.676-0.023-2.539-0.035-5.113 0.024-8.793 0.579-13.086 3.41z"/>
<path transform="translate(1569.2 674.19)" d="m0 0c0.927 0.03 1.854 0.059 2.809 0.09 6.129 0.315 11.195 1.608 17.003 3.722 3.873 0.99 7.754 1.924 11.645 2.84 4.959 1.715 6.612 4.091 9.559 8.328 2.163 4.615 2.402 8.056 2.546 13.145 0.029 0.891 0.057 1.783 0.086 2.701 0.083 2.996 0.128 5.99 0.164 8.986 0.016 1.134 0.031 2.268 0.046 3.436 0.04 3.521 0.065 7.043 0.08 10.564 2e-3 0.558 2e-3 0.558 0.014 3.381-2e-3 1.05-4e-3 2.1-7e-3 3.182-1e-3 0.929-2e-3 1.859-3e-3 2.816-0.13 2.621-0.13 2.621-0.62 5.045-0.614 3.103-0.708 6.071-0.791 9.233-0.037 1.269-0.075 2.539-0.113 3.847-0.035 1.319-0.07 2.638-0.106 3.996-0.069 2.615-0.141 5.23-0.218 7.844-0.031 1.157-0.061 2.314-0.092 3.506-0.17 2.829-0.63 5.382-1.19 8.15-0.086 1.853-0.131 3.708-0.14 5.563-0.01 0.522-0.01 0.522-0.059 3.164-0.034 2.182-0.052 4.365-0.054 6.547-0.187 7.934-0.187 7.934-2.946 11.84-2.783 1.874-5.173 3.058-8.363 4.074-3.371 1.099-6.238 2.213-9.438 3.812-2.437 0.244-4.887 0.379-7.335 0.45-1.458 0.043-2.916 0.086-4.418 0.131-1.525 0.035-3.05 0.07-4.621 0.107-0.744 0.024-0.744 0.024-4.504 0.143-25.916 0.692-25.916 0.692-34.122-4.831-2.573-0.921-5.151-1.782-7.765-2.582-3.362-2.133-3.914-4.718-5.235-8.418-0.367-3.569-0.367-3.569-0.356-7.402-3e-3 -1.448-6e-3 -2.895-9e-3 -4.387 0.012-1.557 0.025-3.114 0.037-4.718 2e-3 -1.631 4e-3 -3.261 6e-3 -4.941 5e-3 -3.462 0.019-6.923 0.041-10.385 0.028-4.344 0.039-8.688 0.044-13.032 0.011-9.166 0.088-18.329 0.201-27.494 0.035-4.406 5e-3 -8.808-0.04-13.214 8e-3 -2.577 0.018-5.154 0.03-7.731-0.029-1.138-0.058-2.275-0.088-3.447 0.112-7.976 2.565-12.136 7.837-18.062 4.949-4.71 10.865-6.316 17.297-8.187 0.944-0.275 1.888-0.551 2.86-0.835 6.726-1.497 13.484-1.218 20.328-0.977zm-19.477 23.148c-2.998 4.669-2.862 8.411-2.919 13.88-0.01 0.838-0.02 1.676-0.03 2.539-0.03 2.775-0.051 5.549-0.07 8.324-7e-3 0.948-0.013 1.896-0.02 2.873-0.033 5.02-0.057 10.041-0.077 15.061-0.017 4.151-0.052 8.302-0.102 12.454-0.06 5.015-0.091 10.03-0.101 15.046-8e-3 1.909-0.027 3.818-0.056 5.727-0.039 2.676-0.04 5.35-0.033 8.027-0.01 1.521-0.02 3.042-0.031 4.609 1.082 6.124 4.465 9.488 9.408 13.062 4.875 1.56 9.373 1.322 14.446 1.062 0.988-0.019 1.977-0.038 2.996-0.058 0.476-0.021 0.476-0.021 2.886-0.129 0.432-0.017 0.432-0.017 2.614-0.105 3.522-1.047 4.448-2.596 6.378-5.708 0.378-3.198 0.528-6.046 0.486-9.24 4e-3 -0.923 8e-3 -1.845 0.012-2.796 7e-3 -3.043-0.014-6.085-0.037-9.128-2e-3 -2.115-3e-3 -4.231-2e-3 -6.346-3e-3 -4.43-0.02-8.86-0.047-13.29-0.034-5.685-0.042-11.368-0.04-17.053-1e-3 -4.366-0.011-8.733-0.026-13.099-6e-3 -2.097-0.01-4.193-0.012-6.29-4e-3 -2.925-0.022-5.85-0.043-8.776 1e-3 -0.869 2e-3 -1.739 3e-3 -2.635-0.065-6.003-0.065-6.003-2.294-9.347-5.271-1.757-10.857-1.311-16.374-1.374-1.233-0.038-2.465-0.075-3.735-0.114-9.078-0.088-9.078-0.088-13.18 2.824z"/>
<path transform="translate(1332.2 674.75)" d="m0 0c0.734-0.01 0.734-0.01 4.447-0.062 8.148-0.03 14.711 0.53 22.365 3.312 1.203 0.293 2.406 0.585 3.645 0.887 5.619 1.42 8.614 2.202 12.355 6.801 0.661 1.423 1.32 2.846 2 4.312 0.911 1.546 1.827 3.087 2.75 4.625 5.999 11.664 3.183 27.032 2.563 39.75-0.053 1.517-0.107 3.034-0.162 4.598-0.074 1.46-0.148 2.921-0.225 4.425-0.029 0.659-0.029 0.659-0.174 3.99-0.925 4.444-2.563 6.432-5.752 9.612-2.647 1.696-5.314 3.364-8 5-0.718 0.861-1.436 1.723-2.177 2.61-3.984 3.373-6.824 3.032-11.99 3.062-0.876 0.013-1.753 0.025-2.655 0.039-2.789 0.036-5.576 0.039-8.365 0.039-2.799 0.022-5.598 0.05-8.397 0.082-2.532 0.026-5.064 0.035-7.596 0.042-3.82 0.126-3.82 0.126-5.82 1.126-1.415 4.246-1.224 8.445-1.25 12.875-0.02 0.898-0.041 1.797-0.062 2.723-0.029 4.97 0.064 8.511 3.312 12.402 0.516 0.382 0.516 0.382 3.126 2.312 2.874 2.688 2.874 2.688 4.062 6.75-0.188 3.938-0.188 3.938-2.144 6.153-4.124 2.418-7.157 2.287-11.922 2.281-0.849 2e-3 -1.699 3e-3 -2.573 5e-3 -1.79-2e-3 -3.579-0.014-5.369-0.034-2.737-0.029-5.472-0.021-8.209-8e-3 -1.741-6e-3 -3.483-0.015-5.224-0.025-1.582-0.01-3.163-0.02-4.792-0.03-3.955-0.404-3.955-0.404-7.955-3.404-0.46-4.083-0.45-6.956 1.188-10.75 2.022-2.51 4.296-4.25 6.812-6.25 2.33-4.659 2.254-7.373 2.259-12.561 4e-3 -0.862 7e-3 -1.724 0.011-2.612 9e-3 -2.849 3e-3 -5.697-4e-3 -8.546 1e-3 -1.98 3e-3 -3.96 6e-3 -5.94 3e-3 -4.149-1e-3 -8.299-0.011-12.448-0.011-5.32-5e-3 -10.639 7e-3 -15.959 8e-3 -4.089 5e-3 -8.177 0-12.266-1e-3 -1.962 0-3.923 5e-3 -5.885 5e-3 -2.741-3e-3 -5.482-0.014-8.222-1e-3 -1.561-3e-3 -3.121-5e-3 -4.728-0.254-3.833-0.254-3.833-2.254-7.833-2.308-1.377-4.64-2.713-7-4-1.673-3.348-1.274-6.326-1-10 2.125-3.443 3.149-4.716 7-6 3.628-0.207 7.245-0.374 10.876-0.5 1.976-0.069 3.953-0.142 5.929-0.219 0.877-0.03 1.753-0.06 2.656-0.092 2.539-0.189 2.539-0.189 4.904-0.694 6.151-1.156 12.586-0.723 18.823-0.745zm-12.188 24.25c-1.338 4.014-1.182 7.899-1.203 12.086-5e-3 0.894-0.011 1.788-0.017 2.709-9e-3 1.891-0.016 3.782-0.02 5.674-9e-3 2.888-0.04 5.776-0.072 8.664-7e-3 1.838-0.012 3.677-0.016 5.515-0.012 0.862-0.024 1.724-0.037 2.611 0.018 4.747 0.327 7.996 3.365 11.741 4.106 2.053 9.364 1.273 13.876 1.312 1.102 0.03 2.204 0.059 3.339 0.088 0.531 5e-3 0.531 5e-3 3.215 0.026 0.972 0.014 1.944 0.029 2.945 0.044 3.358-0.601 4.499-1.867 6.625-4.47 1.697-3.393 1.185-7.254 1.204-10.988 2e-3 -0.448 2e-3 -0.448 0.017-2.713 9e-3 -1.898 0.016-3.795 0.02-5.692 9e-3 -2.897 0.04-5.794 0.072-8.691 7e-3 -1.843 0.012-3.686 0.016-5.529 0.012-0.865 0.024-1.73 0.037-2.621-0.017-4.754-0.32-8.015-3.366-11.766-4.097-2.049-9.371-1.229-13.874-1.25-1.103-0.021-2.205-0.041-3.34-0.062-1.061-6e-3 -2.122-0.011-3.215-0.016-0.486-5e-3 -0.486-5e-3 -2.945-0.028-2.626 0.356-2.626 0.356-6.626 3.356z"/>
<path transform="translate(1853,680)" d="m0 0c2.695 4.042 2.33 7.684 2.312 12.375 0.017 0.851 0.033 1.702 0.049 2.578 4e-3 4.784-0.047 8.423-3.361 12.047-5.368 1.91-11.49 0.957-17 0-4.973-2.398-7.122-5.374-10-10-3.735-1.868-8.257-1.185-12.375-1.188-0.959-0.012-1.918-0.024-2.906-0.037-4.639-9e-3 -7.509 0.12-11.719 2.225-2.506 5.011-1.231 12.376-1.25 17.875-0.021 1.484-0.041 2.967-0.062 4.496-6e-3 1.422-0.011 2.844-0.016 4.309-9e-3 1.307-0.019 2.614-0.028 3.96 0.356 3.36 0.356 3.36 3.356 7.36 3.306 0.498 3.306 0.498 7.371 0.504 0.731 9e-3 0.731 9e-3 4.428 0.057 1.531 0 3.061 1e-3 4.639 1e-3 3.019 9e-3 6.039 0.031 9.058 0.067 1.343 1e-3 2.685 1e-3 4.068 2e-3 3.436 0.369 3.436 0.369 7.436 3.369 0.556 4.312 0.625 6.94-1.608 10.725-3.165 3.01-4.853 2.864-9.169 2.806-1.318 7e-3 -2.636 0.013-3.994 0.02-2.774-0.034-5.547-0.068-8.321-0.102-1.319 7e-3 -2.639 0.013-3.998 0.02-1.205-0.016-2.41-0.032-3.652-0.049-4.238 0.755-5.666 2.199-8.258 5.58-1.739 5.353-1.184 11.298-1.188 16.875-6e-3 0.532-6e-3 0.532-0.037 3.223-0.01 5.632 0.156 10.574 2.225 15.902 3.169 3.169 6.445 2.302 10.812 2.312 1.595 0.017 3.19 0.034 4.833 0.051 4.244-0.354 6.134-0.684 9.355-3.363 1.688-2.653 3.357-5.319 5-8 4.446-1.482 8.922-1.225 13.562-1.25 0.486-0.01 0.486-0.01 2.944-0.062 2.5-0.014 5 0.137 7.494 0.312 2.18 3.27 2.248 4.216 2.23 8-1e-3 0.969-3e-3 1.939-5e-3 2.938-0.013 1.01-0.025 2.021-0.037 3.062-1e-3 0.505-1e-3 0.505-2e-3 3.062-0.045 7.516-0.045 7.516-1.186 10.938-3.266 1.633-6.62 1.154-10.242 1.177-0.852 7e-3 -1.704 0.013-2.582 0.02-2.827 0.02-5.654 0.031-8.481 0.041-0.482 2e-3 -0.482 2e-3 -2.921 0.013-5.101 0.02-10.202 0.035-15.303 0.044-5.275 0.011-10.55 0.046-15.825 0.085-4.051 0.026-8.101 0.035-12.152 0.038-1.945 5e-3 -3.89 0.017-5.835 0.035-2.72 0.025-5.439 0.024-8.159 0.017-1.548 6e-3 -3.096 0.012-4.692 0.018-3.808-0.488-3.808-0.488-6.331-2.22-2.083-3.198-1.746-5.983-1.235-9.666 1.268-4.352 3.886-7.131 6.758-10.602 1.025-4.1 1.134-7.436 1.145-11.655 7e-3 -1.572 0.013-3.145 0.02-4.765l3e-3 -5.154c3e-3 -1.767 7e-3 -3.533 0.01-5.299 6e-3 -3.705 8e-3 -7.409 7e-3 -11.114 0-4.73 0.014-9.459 0.031-14.189 0.011-3.65 0.013-7.301 0.013-10.951 1e-3 -1.743 5e-3 -3.485 0.013-5.228 0.071-17.68 0.071-17.68-2.242-24.645-3.062-2.938-3.062-2.938-6-5-1.671-3.342-1.277-6.338-1-10 1.515-2.223 1.515-2.223 4-4 3.63-0.526 3.63-0.526 8.07-0.562 0.81-0.012 1.62-0.024 2.455-0.036 2.677-0.035 5.353-0.041 8.03-0.047 1.863-0.017 3.726-0.036 5.589-0.057 3.906-0.039 7.811-0.066 11.717-0.082 4.999-0.021 9.998-0.063 14.997-0.114 4.774-0.048 9.548-0.085 14.322-0.122 0.908-7e-3 1.816-0.015 2.751-0.023 2.58-0.02 5.16-0.032 7.74-0.042 1.467-8e-3 2.934-0.016 4.445-0.024 3.449 0.097 6.548 0.235 9.884 1.109z"/>
<path transform="translate(1642,676)" d="m0 0c3.04 0.1 6.082 0.146 9.123 0.158 0.898 5e-3 1.797 0.01 2.722 0.015 1.943 0.011 3.886 0.019 5.829 0.026 3.077 0.012 6.154 0.032 9.231 0.053 8.746 0.062 17.492 0.116 26.238 0.149 5.356 0.021 10.712 0.057 16.068 0.101 2.039 0.014 4.077 0.023 6.115 0.026 2.85 5e-3 5.7 0.028 8.551 0.055 0.81 5e-3 0.81 5e-3 4.911 0.025 4.2 0.391 6.686 1.13 10.212 3.392 1.712 3.423 0.931 7.053 0.75 10.812-0.067 1.595-0.134 3.19-0.203 4.833-0.518 4.127-0.925 6.198-3.547 9.355-5.624 2.812-10.805 2.779-17 2-3.125-2.25-3.125-2.25-5-5-3-4-3-4-5.375-4.566-0.866 1e-3 -1.733 2e-3 -2.625 4e-3 -0.866-0.022-1.733-0.044-2.625-0.067-2.375 0.629-2.375 0.629-3.995 2.643-1.82 3.938-1.79 7.06-1.832 11.397-0.011 0.835-0.023 1.67-0.035 2.53-0.034 2.754-0.044 5.508-0.052 8.262-0.012 1.922-0.025 3.844-0.038 5.766-0.022 4.028-0.032 8.056-0.034 12.084-5e-3 5.146-0.056 10.291-0.119 15.437-0.041 3.97-0.05 7.94-0.051 11.911-5e-3 1.896-0.022 3.792-0.051 5.688-0.231 16.669-0.231 16.669 4.256 22.332 0.62 0.599 1.239 1.198 1.877 1.816 2.043 2.12 2.833 3.964 3.699 6.763-0.275 4.581-0.656 5.656-4 9-6.12 2.04-12.97 1.528-19.375 1.75-1.519 0.068-3.037 0.137-4.602 0.207-1.459 0.05-2.918 0.101-4.421 0.152-1.338 0.052-2.675 0.103-4.053 0.156-3.792-0.283-5.614-0.885-8.549-3.265-1.801-5.74-0.61-9.693 2-15 2.625-2.375 2.625-2.375 5-4 1.654-3.308 1.145-6.761 1.161-10.425 5e-3 -0.872 0.01-1.744 0.015-2.642 0.015-2.892 0.022-5.783 0.027-8.675 6e-3 -2.006 0.012-4.011 0.017-6.016 0.011-4.209 0.017-8.417 0.02-12.625 6e-3 -5.396 0.03-10.792 0.058-16.188 0.019-4.144 0.024-8.287 0.026-12.431 3e-3 -1.99 0.011-3.979 0.024-5.969 0.017-2.782 0.015-5.563 8e-3 -8.345 4e-3 -1.584 8e-3 -3.168 0.011-4.8-0.367-3.884-0.367-3.884-3.367-7.884-2.375-0.531-2.375-0.531-5-0.5-0.433-5e-3 -0.433-5e-3 -2.625-0.031-2.375 0.531-2.375 0.531-5.375 4.531-1.024 2.323-2.027 4.655-3 7-2.037 2.037-6.147 1.221-8.812 1.25-1.43 0.026-2.86 0.052-4.333 0.078-3.855-0.328-3.855-0.328-7.855-3.328-0.518-2.756-0.518-2.756-0.531-6.059-5e-3 -1.19-0.011-2.38-0.016-3.607 0.016-1.245 0.031-2.489 0.047-3.772-0.015-1.24-0.031-2.481-0.047-3.759 5e-3 -1.192 0.01-2.384 0.016-3.612 4e-3 -1.091 9e-3 -2.182 0.013-3.306 0.518-2.885 0.518-2.885 2.176-5.334 3.206-2.123 4.583-1.217 8.342-0.551z"/>
<path transform="translate(1917.3 674.81)" d="m0 0c1.605-0.014 3.21-0.028 4.863-0.043 8.071 0.386 15.225 2.625 22.825 5.231 1.154 0.185 2.309 0.371 3.5 0.562 6.965 2.861 12.006 9.899 15.5 16.438 0.187 2.5 0.187 2.5-1 5-6.086 5.588-12.045 5.862-20.141 5.628-4.87-0.793-7.471-2.41-10.965-5.804-5.219-5.025-9.85-5.265-16.894-5.137-0.89-3e-3 -1.779-6e-3 -2.696-0.01-8.882 0.073-8.882 0.073-12.304 2.323-3.024 4.838-3.388 8.662-3.42 14.312-5e-3 0.406-5e-3 0.406-0.026 2.461-0.023 2.671-0.024 5.341-0.023 8.012-7e-3 1.862-0.015 3.725-0.023 5.588-0.014 3.898-0.015 7.795-9e-3 11.693 5e-3 4.993-0.025 9.985-0.066 14.977-0.025 3.844-0.028 7.688-0.025 11.532-1e-3 1.841-0.011 3.682-0.029 5.523-0.022 2.573-0.012 5.145 5e-3 7.718-2e-3 1.463-4e-3 2.926-6e-3 4.434 0.751 4.534 2.122 5.886 5.622 8.75 0.373 0.374 0.373 0.374 2.265 2.269 6.001 3.798 13.951 2.63 20.735 1.731 5.628-2.561 9.241-6.483 12-12 3.5-1.751 7.524-1.228 11.374-1.25 0.864-0.021 1.728-0.042 2.618-0.063 5.109-0.032 6.779 0.141 11.008 3.313 0 5.806-1.869 12.087-5 17-3.175 1.774-5.648 2.862-9 4-1.259 0.701-2.517 1.402-3.813 2.124-10.379 4.648-21.761 4.186-32.937 4.126-1.453 7e-3 -2.906 0.015-4.403 0.023-10.764-0.02-18.089-0.624-26.847-7.273l-3.376-1.688c-2.624-1.312-2.624-1.312-3.624-3.312-0.131-3.467-0.2-6.914-0.225-10.382-0.011-1.08-0.023-2.16-0.035-3.272-0.11-11.303-0.158-22.606-0.2-33.909-0.023-5.365-0.065-10.728-0.124-16.092-0.071-6.474-0.107-12.946-0.12-19.42-0.01-2.466-0.032-4.933-0.067-7.399-0.046-3.457-0.048-6.911-0.04-10.369-0.024-1.015-0.047-2.031-0.072-3.077 0.076-6.481 1.485-9.856 5.977-14.552 3.274-2.626 6.925-3.535 10.906-4.528 2.231-0.702 4.46-1.411 6.687-2.126 7.348-2.314 13.902-3.031 21.625-3.062z"/>
</svg>
