<?xml version="1.0" encoding="UTF-8"?>
<svg version="1.1" viewBox="0 0 2744 1144" xmlns="http://www.w3.org/2000/svg">
<path transform="translate(2253,526)" d="m0 0c4.292 6.494 3.42 14.225 3.388 21.71 5e-3 1.497 0.01 2.995 0.016 4.538 0.012 4.15 0.01 8.299 3e-3 12.449-5e-3 4.477 8e-3 8.955 0.018 13.433 0.017 8.768 0.018 17.536 0.013 26.305-4e-3 7.124-3e-3 14.248 2e-3 21.372 1e-3 1.014 2e-3 2.027 3e-3 3.072 1e-3 2.059 3e-3 4.118 4e-3 6.177 0.014 19.309 9e-3 38.617-3e-3 57.926-0.01 17.676 3e-3 35.353 0.027 53.029 0.024 18.144 0.034 36.288 0.027 54.431-3e-3 10.189-1e-3 20.378 0.017 30.567 0.014 8.671 0.015 17.341-2e-3 26.012-9e-3 4.426-0.011 8.851 4e-3 13.277 0.016 4.791 2e-3 9.582-0.016 14.373 0.01 1.408 0.019 2.816 0.029 4.266-0.01 1.279-0.019 2.557-0.029 3.874-1e-3 1.107-1e-3 2.213-1e-3 3.353-0.631 3.578-1.707 4.571-4.5 6.836-2.378 0.5-2.378 0.5-5.079 0.5-1.035 0.01-2.069 0.02-3.135 0.03-1.138-0.01-2.276-0.02-3.448-0.03-1.214 6e-3 -2.429 0.011-3.68 0.017-4.115 0.013-8.229-2e-3 -12.344-0.016-2.975 3e-3 -5.949 9e-3 -8.923 0.016-6.511 0.012-13.022 0.011-19.533 0-9.747-0.018-19.494-0.012-29.241-2e-3 -16.61 0.017-33.219 0.015-49.828 2e-3 -16.84-0.012-33.68-0.016-50.52-0.01-0.531 1e-3 -0.531 1e-3 -3.218 2e-3 -4.326 1e-3 -8.653 3e-3 -12.979 5e-3 -40.328 0.017-80.656 0.015-120.98 1e-3 -38.871-0.014-77.742-0.021-116.61-0.019-2.438 0-4.877 1e-3 -7.315 1e-3 -9.799 0-19.598 1e-3 -29.397 2e-3 -27.394 2e-3 -54.788 3e-3 -82.182 3e-3 -1.247 0-2.495-1e-3 -3.78-1e-3 -39.77 0-79.539-6e-3 -119.31-0.017-1.29 0-2.581-1e-3 -3.91-1e-3 -20.957-6e-3 -41.914-0.012-62.87-0.018-83.123-0.023-166.25-0.029-249.37-0.019-5.253 1e-3 -10.505 1e-3 -15.758 2e-3h-3.935c-14.382 2e-3 -28.763 4e-3 -43.145 6e-3h-3.908c-68.349 8e-3 -136.7 2e-3 -205.05-8e-3 -9.79-2e-3 -19.58-4e-3 -29.37-5e-3 -3.652-1e-3 -7.303-1e-3 -10.955-2e-3 -26.731-4e-3 -53.461-6e-3 -80.192-3e-3h-3.654c-6.071 1e-3 -12.143 2e-3 -18.214 3e-3 -43.833 5e-3 -87.665 1e-3 -131.5-0.02-4.312-3e-3 -8.625-5e-3 -12.937-7e-3 -1.059 0-2.117 0-3.208-1e-3 -16.799-8e-3 -33.597-5e-3 -50.396 2e-3 -16.495 6e-3 -32.99 2e-3 -49.485-0.014-9.685-9e-3 -19.371-0.01-29.057 1e-3 -7.167 8e-3 -14.335 0-21.503-0.015-2.898-3e-3 -5.797-1e-3 -8.696 6e-3 -3.908 9e-3 -7.816 0-11.724-0.014-1.138 7e-3 -2.276 0.014-3.448 0.022-1.035-8e-3 -2.069-0.015-3.135-0.023-0.891 0-1.782 0-2.701-1e-3 -2.378-0.375-2.378-0.375-6.378-3.375-0.499-2.733-0.499-2.733-0.498-6.118-4e-3 -0.644-4e-3 -0.644-0.028-3.904 0.011-1.423 0.021-2.847 0.032-4.314-5e-3 -1.506-0.01-3.012-0.015-4.563-9e-3 -4.191-1e-3 -8.381 0.015-12.572 0.014-4.516 4e-3 -9.031-3e-3 -13.547-0.01-8.85 1e-3 -17.701 0.019-26.551 0.021-10.301 0.021-20.602 0.02-30.903-1e-3 -18.378 0.017-36.756 0.046-55.133 0.029-17.843 0.043-35.686 0.041-53.529v-3.329-3.323c-1e-3 -20.296 0.01-40.592 0.028-60.887 6e-3 -7.184 8e-3 -14.369 9e-3 -21.553 2e-3 -8.754 0.011-17.508 0.029-26.262 9e-3 -4.468 0.015-8.936 0.013-13.405-3e-3 -4.839 0.01-9.678 0.025-14.517-4e-3 -1.419-7e-3 -2.839-0.01-4.301 7e-3 -1.293 0.013-2.587 0.02-3.919 1e-3 -1.118 3e-3 -2.235 4e-3 -3.386 0.26-3.07 0.852-5.249 2.253-7.984 3.947-1.974 9.021-1.139 13.387-1.133 1.209-2e-3 2.417-4e-3 3.663-7e-3 4.108-6e-3 8.217-5e-3 12.325-4e-3 2.965-3e-3 5.93-7e-3 8.895-0.011 6.496-7e-3 12.992-0.012 19.489-0.013 9.725-3e-3 19.451-0.011 29.176-0.02 16.572-0.016 33.143-0.027 49.715-0.035 16.803-9e-3 33.607-0.02 50.41-0.033 1.06-1e-3 2.12-2e-3 3.211-3e-3 4.316-3e-3 8.631-7e-3 12.947-0.01 45.069-0.036 90.139-0.065 135.21-0.092 4.855-2e-3 9.709-5e-3 14.564-8e-3 0.602-1e-3 0.602-1e-3 3.65-2e-3 26.668-0.016 53.336-0.034 80.004-0.051 10.973-8e-3 21.946-0.015 32.919-0.022 1.212-1e-3 2.425-2e-3 3.674-3e-3 69.496-0.046 138.99-0.09 208.49-0.13 2.602-1e-3 5.205-3e-3 7.807-4e-3 11.748-7e-3 23.497-0.014 35.246-0.02 5.239-3e-3 10.478-6e-3 15.718-9e-3 2.622-2e-3 5.245-3e-3 7.867-5e-3 82.938-0.047 165.88-0.102 248.82-0.164 20.898-0.015 41.795-0.031 62.693-0.046 1.286-1e-3 2.573-2e-3 3.899-3e-3 39.636-0.029 79.273-0.055 118.91-0.079 1.243-1e-3 2.487-2e-3 3.769-3e-3 27.302-0.016 54.605-0.032 81.907-0.048 9.769-5e-3 19.538-0.011 29.306-0.016 2.431-2e-3 4.861-3e-3 7.291-5e-3 38.773-0.022 77.545-0.05 116.32-0.081 39.037-0.031 78.074-0.056 117.11-0.071 5.388-3e-3 10.776-5e-3 16.163-7e-3 0.528 0 0.528 0 3.201-1e-3 16.761-8e-3 33.522-0.022 50.283-0.039 16.46-0.016 32.919-0.025 49.379-0.027 9.664-1e-3 19.328-8e-3 28.991-0.022 7.154-0.011 14.307-0.011 21.461-6e-3 2.891 0 5.783-4e-3 8.674-0.011 3.901-9e-3 7.802-6e-3 11.703 1e-3 0.567-3e-3 0.567-3e-3 3.434-0.017 1.034 4e-3 2.069 8e-3 3.134 0.013 0.89-1e-3 1.779-1e-3 2.696-2e-3 2.849 0.284 4.945 0.961 7.499 2.249zm-1095 66c-0.105 3.139-0.143 6.255-0.14 9.394-3e-3 0.999-6e-3 1.997-9e-3 3.026-9e-3 3.374-0.011 6.747-0.012 10.12-5e-3 2.408-0.01 4.815-0.015 7.223-0.013 6.559-0.02 13.119-0.024 19.679-3e-3 4.094-7e-3 8.188-0.012 12.282-0.013 12.795-0.023 25.59-0.027 38.385-4e-3 14.795-0.022 29.59-0.051 44.385-0.021 11.419-0.032 22.838-0.033 34.257-1e-3 6.828-7e-3 13.656-0.025 20.484-0.016 6.421-0.018 12.841-0.01 19.263 1e-3 2.36-3e-3 4.721-0.013 7.082-0.013 3.215-7e-3 6.429 4e-3 9.645-9e-3 0.941-0.017 1.881-0.025 2.851 0.039 5.066 0.239 6.721 3.392 10.924 3.218 1.073 5.568 1.14 8.953 1.161 0.612 5e-3 0.612 5e-3 3.712 0.029 1.325 4e-3 2.65 9e-3 4.015 0.013 0.68 3e-3 0.68 3e-3 4.121 0.017 2.88 0.01 5.76 0.016 8.64 0.02 4.409 0.01 8.818 0.041 13.227 0.072 2.796 7e-3 5.591 0.012 8.387 0.016 0.66 6e-3 0.66 6e-3 4.003 0.038 1.231-3e-3 2.462-6e-3 3.731-0.01 1.081 4e-3 2.162 8e-3 3.276 0.011 3.378-0.422 5.217-1.344 7.935-3.367 2.571-3.857 2.242-6.063 2.227-10.684v-4.853c-0.011-1.752-0.021-3.504-0.032-5.256-3e-3 -1.789-6e-3 -3.579-8e-3 -5.368-8e-3 -4.71-0.028-9.42-0.05-14.13-0.02-4.806-0.029-9.612-0.039-14.418-0.022-9.43-0.056-18.861-0.098-28.291 5.036-0.699 9.897-1.118 14.979-1.082 1.325 7e-3 2.65 0.013 4.014 0.02 1.409 0.011 2.817 0.023 4.269 0.035 3.004 0.012 6.009 0.025 9.013 0.037 4.721 0.025 9.441 0.053 14.162 0.086 4.566 0.03 9.133 0.048 13.7 0.064 1.414 0.014 2.829 0.027 4.287 0.041 1.315 3e-3 2.63 7e-3 3.985 0.01 0.577 4e-3 0.577 4e-3 3.5 0.023 3.35-0.254 6.625-0.768 9.091-3.234 0.109-1.702 0.149-3.409 0.161-5.115 0.01-1.091 0.019-2.183 0.029-3.307 4e-3 -1.188 9e-3 -2.377 0.013-3.601 6e-3 -1.213 0.012-2.425 0.017-3.674 0.01-2.571 0.016-5.141 0.02-7.712 0.01-3.942 0.041-7.884 0.072-11.825 7e-3 -2.493 0.012-4.985 0.016-7.477 6e-3 -0.592 6e-3 -0.592 0.038-3.589-2e-3 -0.549-2e-3 -0.549-0.01-3.326 4e-3 -0.968 8e-3 -1.935 0.011-2.932-0.367-2.442-0.367-2.442-3.367-5.442-3.838-0.959-6.777-1.115-10.709-1.098-1.365 4e-3 -2.73 7e-3 -4.136 0.01-0.737 5e-3 -0.737 5e-3 -4.464 0.026-0.757 1e-3 -0.757 1e-3 -4.587 0.011-6.489 0.016-12.978 0.044-19.467 0.072-4.732 0.018-9.464 0.03-14.196 0.041-1.471 9e-3 -2.941 0.017-4.457 0.026-1.368 3e-3 -2.736 6e-3 -4.146 0.01-0.601 2e-3 -0.601 2e-3 -3.644 0.016-2.863-0.102-5.414-0.452-8.194-1.114 0.138-5.438 0.287-10.875 0.438-16.312 0.039-1.549 0.078-3.098 0.119-4.694 0.042-1.479 0.083-2.958 0.127-4.482 0.036-1.367 0.073-2.734 0.111-4.142 0.205-3.37 0.205-3.37 1.205-6.37 3.411-1.706 7.314-1.144 11.068-1.142 0.94-3e-3 1.88-7e-3 2.848-0.01 2.046-8e-3 4.092-0.013 6.137-0.017 3.236-7e-3 6.472-0.022 9.707-0.041 9.202-0.053 18.403-0.1 27.605-0.116 5.624-0.01 11.248-0.039 16.872-0.081 2.146-0.013 4.291-0.018 6.437-0.015 3 2e-3 5.999-0.02 8.999-0.048 0.89 7e-3 1.779 0.013 2.696 0.02 3.633-0.055 6.109-0.206 9.183-2.231 1.789-2.865 1.949-4.588 1.95-7.958 9e-3 -1.131 0.018-2.262 0.028-3.428-0.011-1.217-0.022-2.433-0.034-3.687 2e-3 -1.252 3e-3 -2.505 5e-3 -3.795-2e-3 -2.647-0.014-5.294-0.034-7.941-0.029-4.06-0.021-8.119-8e-3 -12.18-6e-3 -2.57-0.015-5.139-0.025-7.709 3e-3 -1.219 5e-3 -2.437 8e-3 -3.693-6e-3 -0.564-6e-3 -0.564-0.038-3.418-3e-3 -0.497-3e-3 -0.497-0.016-3.012-0.388-2.498-0.388-2.498-3.388-5.498-3.85-0.963-6.84-1.128-10.787-1.134-1.404-4e-3 -2.807-8e-3 -4.253-0.013-1.54 1e-3 -3.079 1e-3 -4.665 2e-3 -1.621-4e-3 -3.243-7e-3 -4.913-0.01-4.448-9e-3 -8.897-0.012-13.345-0.012-3.713-1e-3 -7.426-5e-3 -11.139-8e-3 -8.758-9e-3 -17.517-0.011-26.275-0.01-9.038 0-18.075-0.01-27.113-0.026-7.758-0.013-15.516-0.018-23.274-0.018-4.634 0-9.268-2e-3 -13.902-0.013-5.167-0.011-10.333-7e-3 -15.5-1e-3 -1.537-6e-3 -3.074-0.011-4.658-0.017-1.407 4e-3 -2.813 8e-3 -4.262 0.013-1.221-1e-3 -2.443-1e-3 -3.702-2e-3 -3.396 0.263-6.708 0.745-9.212 3.249zm201 1c-0.203 3.172-0.278 6.258-0.267 9.432-5e-3 0.991-9e-3 1.981-0.014 3.002-0.013 3.34-0.011 6.68-0.01 10.02-6e-3 2.387-0.012 4.773-0.02 7.159-0.018 6.498-0.022 12.996-0.024 19.494-1e-3 5.418-9e-3 10.835-0.016 16.253-0.016 12.779-0.021 25.558-0.02 38.337 2e-3 13.197-0.02 26.393-0.051 39.59-0.026 11.316-0.037 22.632-0.036 33.949 1e-3 6.765-5e-3 13.529-0.026 20.294-0.019 6.362-0.02 12.724-5e-3 19.085 2e-3 2.338-3e-3 4.676-0.015 7.014-0.015 3.186-6e-3 6.372 0.01 9.558-0.011 0.93-0.021 1.859-0.032 2.817 0.043 3.99 0.285 6.597 2.369 10.047 3.447 3.115 6.368 3.08 10.834 3.11 1.165 0.01 2.33 0.019 3.53 0.029 0.63 2e-3 0.63 2e-3 3.816 0.013 1.294 6e-3 2.587 0.012 3.92 0.017 2.739 0.01 5.477 0.016 8.216 0.02 4.192 0.01 8.384 0.041 12.575 0.072 2.659 7e-3 5.318 0.012 7.977 0.016 0.628 6e-3 0.628 6e-3 3.804 0.038 0.586-2e-3 0.586-2e-3 3.549-0.01 1.028 4e-3 2.056 8e-3 3.115 0.011 3.308-0.43 5.15-1.394 7.821-3.367 2.462-3.693 2.267-5.569 2.303-9.978 0.017-1.449 0.033-2.897 0.05-4.389 9e-3 -1.569 0.017-3.138 0.026-4.754 0.026-2.454 0.052-4.909 0.078-7.363 0.035-3.443 0.06-6.886 0.086-10.329 0.045-6.021 0.101-12.041 0.162-18.062 0.032-3.206 0.059-6.412 0.081-9.619 0.013-1.451 0.027-2.903 0.04-4.398 5e-3 -0.64 5e-3 -0.64 0.029-3.876 0.145-3.232 0.145-3.232 1.145-7.232 5.94-0.33 11.88-0.66 18-1l2 7c0.804 0.928 1.609 1.856 2.438 2.812 2.464 3.066 3.103 4.523 4.062 8.188 0.946 3.61 1.529 5.035 4 8 2.913 3.496 3.556 6.304 4.688 10.625 0.812 2.375 0.812 2.375 3.312 5.375 2.913 3.496 3.556 6.304 4.688 10.625 0.812 2.375 0.812 2.375 3.312 5.375 2.475 2.97 3.019 4.325 3.938 7.938 1.377 5.189 3.818 8.168 7.562 12.062 0.746 1.042 1.492 2.085 2.26 3.159 2.74 2.841 2.74 2.841 5.985 3.576 0.613-4e-3 0.613-4e-3 3.717-0.022 1.394 6e-3 2.789 0.012 4.226 0.018 1.499-0.025 2.998-0.049 4.542-0.075 1.542-3e-3 3.084-7e-3 4.673-0.011 4.092-0.017 8.182-0.061 12.273-0.116 4.17-0.048 8.34-0.05 12.51-0.06 3.16-0.019 6.321-0.039 9.482-0.063 1.505-8e-3 3.01-0.017 4.561-0.026 0.693-9e-3 0.693-9e-3 4.198-0.058 1.224-0.013 2.448-0.027 3.709-0.041 2.864-0.281 2.864-0.281 4.864-2.281 1.252-8.621-2.167-14.017-7-21-0.454-0.516-0.454-0.516-2.75-3.125-2.667-3.408-3.353-6.369-4.441-10.496-1.17-3.442-3.438-5.661-5.809-8.379-1.333-3-2.667-6-4-9l-2.5-3c-3.087-3.704-4.599-7.585-6.5-12-1.324-2.006-2.657-4.007-4-6-0.474-1.155-0.949-2.31-1.438-3.5-1.562-3.5-1.562-3.5-4.124-6.375-3.092-3.963-3.802-7.175-4.438-12.125 2-4 2-4 4.562-5.625 10.766-7.438 18.901-19.686 24.438-31.375 0.99-1.32 1.98-2.64 3-4 2.596-13.41 2.45-27.4 2-41-0.025-0.911-0.05-1.823-0.076-2.762-0.58-16.58-4.883-30.197-16.924-42.238-2.779-2.779-5.287-5.374-7.688-8.5-3.508-3.707-6.44-5.352-11.042-7.359-2.27-1.141-2.27-1.141-5.27-4.141-2.348-0.773-2.348-0.773-5.062-1.375-4.009-0.989-7.281-2.226-10.876-4.25-8.617-4.552-19.248-3.525-28.778-3.52-1.102-4e-3 -2.205-7e-3 -3.341-0.01-3.602-0.01-7.204-0.012-10.806-0.013-2.522-3e-3 -5.044-7e-3 -7.566-0.01-5.266-6e-3 -10.532-8e-3 -15.798-7e-3 -6.743 0-13.486-0.014-20.229-0.031-5.199-0.011-10.399-0.013-15.598-0.013-2.487-1e-3 -4.974-5e-3 -7.46-0.013-3.473-0.01-6.945-7e-3 -10.417-1e-3 -1.022-6e-3 -2.044-0.011-3.097-0.017-12.768 0.056-12.768 0.056-16.972 4.26z" fill="#C83219"/>
<path transform="translate(512.43 88.499)" d="m0 0c0.761-5e-3 0.761-5e-3 4.612-0.03 1.684 0.01 3.367 0.019 5.05 0.029 1.777-3e-3 3.553-9e-3 5.329-0.016 4.825-0.014 9.65-3e-3 14.475 0.014 5.062 0.014 10.124 7e-3 15.187 4e-3 8.514-3e-3 17.028 0.01 25.542 0.034 9.807 0.026 19.614 0.028 29.421 0.016 9.461-0.011 18.921-4e-3 28.382 0.01 4.011 6e-3 8.022 6e-3 12.032 1e-3 4.745-5e-3 9.489 5e-3 14.233 0.027 2.543 8e-3 5.086 1e-3 7.63-5e-3 14.645 0.093 28.289 2.551 42.356 6.519 2.795 0.757 5.533 1.332 8.379 1.836 4.502 1.214 6.432 3.057 9.938 6.062 1.505 0.516 3.011 1.031 4.562 1.563 11.968 4.436 21.356 16.583 27.438 27.437 1.074 2.52 2.09 5.064 3.062 7.625 0.254 0.656 0.254 0.656 1.535 3.977 3.242 10.166 3.742 19.892 3.715 30.523 0.016 1.306 0.032 2.612 0.049 3.957 5e-3 9.669-1.176 16.622-6.361 24.918-0.641 1.821-1.245 3.655-1.813 5.5-1.773 5.049-3.724 7.403-8.187 10.5-2.545 2.423-4.768 4.66-6.75 7.563-2.398 2.598-3.759 3.122-7 4.312-4.25 2.125-4.25 2.125-5.375 5.438 1.688 5.535 5.321 7.718 10.125 10.687 1.402 0.681 2.805 1.361 4.25 2.063 4.124 2.13 5.991 4.259 8.75 7.937 0.618 0.619 1.237 1.238 1.875 1.875 0.701 0.701 1.402 1.403 2.125 2.125 1.134 1.073 2.268 2.145 3.437 3.25 4.355 4.942 5.718 10.692 7.422 16.946 1.141 3.804 1.141 3.804 2.719 6.859 3.605 7.468 2.605 16.528 2.609 24.633 0.012 1.298 0.025 2.597 0.037 3.935 0.016 10.609-0.458 20.339-5.228 29.967-1.211 2.929-1.763 5.802-2.371 8.91-1.152 5.376-2.839 9.088-6.114 13.473-1.511 2.027-1.511 2.027-3.574 5.777-7.244 11.713-19.262 21.338-31.64 27.074-2.297 1.176-2.297 1.176-6.297 4.176-2.62 0.894-5.271 1.696-7.938 2.438-1.391 0.39-2.782 0.781-4.215 1.183-0.767 0.211-1.535 0.421-2.326 0.638-1.769 0.52-3.522 1.094-5.26 1.708-8.911 3.061-17.34 3.875-26.716 4.262-0.783 0.038-0.783 0.038-4.746 0.228-17.502 0.773-35.002 0.871-52.518 0.879-1.711 3e-3 -3.422 6e-3 -5.134 0.01-8.907 0.018-17.814 0.026-26.721 0.025-8.265-1e-3 -16.529 0.02-24.793 0.051-7.161 0.026-14.322 0.037-21.483 0.036-4.251-1e-3 -8.501 5e-3 -12.752 0.026-4.701 0.02-9.402 0.014-14.103 2e-3 -1.397 0.011-2.795 0.023-4.234 0.034-1.275-8e-3 -2.549-0.017-3.862-0.025-1.107 1e-3 -2.215 2e-3 -3.356 3e-3 -3.594-0.629-4.58-1.678-6.843-4.498-0.509-2.544-0.509-2.544-0.522-5.478-7e-3 -0.56-7e-3 -0.56-0.044-3.395 4e-3 -1.231 9e-3 -2.461 0.013-3.729-5e-3 -0.654-5e-3 -0.654-0.033-3.962-0.032-4.401-0.036-8.801-0.04-13.201-0.016-3.147-0.035-6.294-0.055-9.441-0.044-7.671-0.07-15.343-0.086-23.015-0.013-6.234-0.034-12.467-0.06-18.701-3e-3 -0.886-7e-3 -1.773-0.011-2.686-7e-3 -1.801-0.015-3.601-0.022-5.402-0.07-16.893-0.114-33.787-0.15-50.681-0.034-15.465-0.097-30.929-0.174-46.394-0.08-15.87-0.14-31.74-0.18-47.611-5e-3 -1.794-0.01-3.588-0.014-5.382-3e-3 -0.883-5e-3 -1.765-7e-3 -2.675-0.017-6.228-0.047-12.456-0.081-18.683-0.046-8.379-0.065-16.757-0.067-25.136-4e-3 -3.082-0.017-6.163-0.04-9.245-0.029-4.194-0.027-8.386-0.017-12.58-0.016-1.231-0.032-2.462-0.048-3.73 0.065-8.11 0.065-8.11 2.71-11.629 3.651-1.551 6.389-1.744 10.362-1.745zm72.566 72.501c-1.745 3.49-1.207 7.546-1.239 11.391-8e-3 0.937-0.016 1.875-0.024 2.84-0.014 1.988-0.025 3.975-0.032 5.962-0.018 3.031-0.061 6.061-0.106 9.092-0.01 1.931-0.018 3.862-0.025 5.793-0.018 0.904-0.035 1.807-0.053 2.738 0.019 5.577 0.75 8.97 4.479 13.184 3.478 1.16 6.24 1.156 9.911 1.193 1.436 0.016 2.872 0.032 4.352 0.049 6.603 0.044 13.207 0.086 19.81 0.108 3.473 0.014 6.946 0.041 10.419 0.082 5.02 0.06 10.039 0.077 15.059 0.092 1.537 0.022 3.073 0.045 4.657 0.068 10.338-0.02 21.636-0.636 29.472-8.168 5.461-6.527 6.519-11.317 6.57-19.736 0.02-0.843 0.041-1.685 0.062-2.553 0.05-7.927-2.364-12.455-7.375-18.385-0.346-0.425-0.346-0.425-2.097-2.578-8.045-6.153-20.688-4.478-30.266-4.473-1.678-3e-3 -3.355-8e-3 -5.033-0.013-3.497-7e-3 -6.994-7e-3 -10.492-1e-3 -4.476 5e-3 -8.953-0.012-13.429-0.035-3.457-0.015-6.913-0.015-10.369-0.012-2.452-1e-3 -4.903-0.015-7.354-0.029-1.489 6e-3 -2.978 0.012-4.512 0.019-1.309-1e-3 -2.618-1e-3 -3.966-2e-3 -3.639 0.398-5.529 1.171-8.419 3.374zm1 123c-0.844 3.374-1.141 5.823-1.177 9.24-0.013 1.045-0.026 2.09-0.039 3.166-8e-3 1.123-0.015 2.246-0.023 3.403-8e-3 1.159-0.016 2.318-0.024 3.512-0.014 2.45-0.025 4.9-0.032 7.35-0.018 3.749-0.062 7.497-0.106 11.245-0.01 2.381-0.018 4.762-0.025 7.143-0.018 1.121-0.035 2.242-0.053 3.397 0.012 4.466 0.022 7.648 2.068 11.666 5.03 3.919 10.77 4.123 16.947 4.045 0.736-7e-3 0.736-7e-3 4.461-0.041 1.576-0.026 3.152-0.052 4.776-0.079 1.634-0.02 3.267-0.04 4.95-0.061 3.451-0.044 6.903-0.096 10.354-0.152 4.403-0.072 8.806-0.126 13.21-0.175 4.225-0.049 8.449-0.112 12.674-0.174 0.786-9e-3 0.786-9e-3 4.764-0.054 20.203-0.36 20.203-0.36 27.275-6.431 2.265-3.383 2.265-3.383 4.25-7.125 3.615-6.74 3.615-6.74 5.75-8.875 0.227-3.617 0.324-7.133 0.312-10.75 0.016-0.99 0.032-1.98 0.049-3 4e-3 -5.572-0.335-9.407-3.361-14.25-0.391-0.857-0.781-1.714-1.184-2.597-3.956-7.777-8.794-9.722-16.816-12.403-1.069-0.508-2.137-1.017-3.238-1.541-3.992-1.548-6.796-1.833-11.055-1.831-1.419-6e-3 -2.837-0.013-4.298-0.019-0.759 5e-3 -0.759 5e-3 -4.597 0.028-0.786 0-0.786 0-4.762-2e-3 -3.319 3e-3 -6.637 0.011-9.956 0.029-4.24 0.023-8.479 0.023-12.719 0.017-4.063-5e-3 -8.125 7e-3 -12.188 0.018-1.517 0-3.033-1e-3 -4.596-2e-3 -1.419 9e-3 -2.837 0.019-4.298 0.029-1.243 4e-3 -2.485 9e-3 -3.765 0.014-5.713 0.422-9.429 1.161-13.528 5.26z"/>
<path transform="translate(1360 169.41)" d="m0 0h3.844c2.679 5e-3 5.359 0.023 8.039 0.052 4.102 0.042 8.202 0.041 12.305 0.034 2.604 0.01 5.208 0.023 7.812 0.039 1.227 0 2.454 0 3.719 1e-3 0.572 8e-3 0.572 8e-3 3.469 0.048 1.004 8e-3 2.008 0.017 3.042 0.025 3.258 0.464 5.134 1.448 7.77 3.395 3.495 6.071 4.232 12.934 5.375 19.75 1.431 8.195 3.031 16.186 5.313 24.187 2.031 7.284 2.933 14.171 3.506 21.665 0.484 5.63 1.593 10.689 3.244 16.085 2.244 7.444 3.471 14.718 4.374 22.438 0.124 1.055 0.248 2.11 0.375 3.198 0.607 5.586 0.941 11.048 0.813 16.677h8c0.626-2.646 1.251-5.292 1.875-7.938 0.174-0.736 0.174-0.736 1.055-4.465 0.353-1.517 0.706-3.034 1.07-4.597 0.347-1.42 0.694-2.839 1.051-4.301 1.138-5.634 1.697-11.235 2.261-16.949 0.976-9.208 2.514-17.965 4.851-26.915 1.667-6.578 2.597-13.095 3.337-19.835 0.888-7.987 2.13-15.744 4-23.563 0.202-0.85 0.403-1.7 0.611-2.576 1.212-4.842 2.676-9.382 4.889-13.861 2.91-1.455 5.462-1.136 8.713-1.146 1.415-6e-3 2.83-0.012 4.287-0.019 1.537-1e-3 3.073-2e-3 4.656-3e-3 0.784-2e-3 0.784-2e-3 4.753-0.01 3.322-5e-3 6.644-8e-3 9.966-8e-3 4.265 1e-3 8.529-0.013 12.793-0.03 4.058-0.014 8.117-0.014 12.176-0.015 1.536-7e-3 3.073-0.014 4.656-0.021 0.707 1e-3 0.707 1e-3 4.287 9e-3 1.251-2e-3 2.502-3e-3 3.791-4e-3 2.922 0.247 2.922 0.247 4.922 2.247-0.226 3.84-0.893 6.761-2.469 10.277-1.552 3.774-2.234 7.074-2.843 11.098-1.315 7.539-3.608 14.351-6.274 21.508-1.706 4.967-2.713 9.922-3.703 15.07-0.792 3.393-2.204 6.274-3.746 9.387-1.363 3.756-1.819 7.523-2.403 11.472-1.001 6.674-2.545 12.053-5.374 18.133-1.422 3.656-2.045 7.187-2.688 11.055-0.831 4.973-1.831 9.233-3.938 13.812-2.717 5.941-3.886 12.033-5.11 18.403-0.805 4.066-1.634 7.769-3.514 11.472-1.874 4.171-2.615 7.52-3.376 12-0.905 5.305-2.071 10.103-4 15.125-2.707 7.07-4.118 14.226-5.472 21.645-1.09 4.543-1.09 4.543-3.09 8.988-2.489 5.669-3.394 11.103-4.334 17.182-1.1 6.283-2.983 10.295-6.666 15.373-2.65 1.325-4.688 1.156-7.656 1.193-1.184 0.016-2.369 0.032-3.59 0.048-5.422 0.045-10.843 0.086-16.265 0.109-2.862 0.016-5.725 0.044-8.587 0.082-4.12 0.055-8.239 0.077-12.359 0.091-1.28 0.023-2.561 0.046-3.88 0.069-8.829-0.021-8.829-0.021-12.904-2.81-1.695-2.682-2.717-4.744-3.45-7.817-0.23-0.962-0.46-1.924-0.696-2.915-1.242-6.18-2.125-12.403-2.986-18.646-0.797-5.378-1.844-10.336-3.666-15.467-2.053-5.823-2.829-11.375-3.399-17.5-0.8-7.416-1.908-14.375-4-21.562-2.783-9.667-3.968-19.394-5.042-29.384-0.834-7.207-1.829-13.178-5.52-19.491-4.25-1.063-4.25-1.063-8-1-1.417 6.615-2.156 12.923-2.438 19.687-0.469 9.831-1.343 19.841-5.07 29.031-1.87 5.367-2.423 10.525-2.992 16.157-0.904 8.873-2.521 16.716-5.598 25.125-1.281 4.261-1.775 8.6-2.34 13-0.865 6.292-1.74 12.573-2.937 18.812-0.193 1.017-0.387 2.034-0.586 3.082-2.694 8.052-2.694 8.052-6.039 11.106-4.461 1.212-8.838 1.073-13.438 0.992-1.312 3e-3 -2.625 6e-3 -3.978 9e-3 -2.774-4e-3 -5.548-0.027-8.321-0.068-4.248-0.058-8.491-0.041-12.74-0.015-2.695-0.013-5.39-0.03-8.085-0.051-1.271 6e-3 -2.542 0.012-3.852 0.018-8.798-0.189-8.798-0.189-12.847-3.77-4.446-7.965-6.225-16.68-7.833-25.596-0.931-3.616-2.385-6.768-3.948-10.147-1.578-3.905-2.207-7.99-2.896-12.122-1.293-7.114-3.087-13.479-5.906-20.164-1.661-4.433-2.478-8.947-3.285-13.602-0.903-3.612-2.351-6.741-3.91-10.11-1.581-3.905-2.21-7.991-2.899-12.124-1.282-7.072-3.09-13.322-5.906-19.957-1.864-5.31-2.531-10.787-3.285-16.348-0.871-3.945-0.871-3.945-2.871-7.441-2.283-3.999-2.826-7.146-3.438-11.692-0.838-5.327-1.794-9.918-4.062-14.812-2.23-4.825-3.186-9.31-4-14.563-0.971-6.225-2.462-10.992-5.309-16.558-2.007-4.852-2.584-9.975-3.433-15.133-0.664-3.282-1.486-5.823-2.946-8.809-1.875-4.074-2.353-6.516-1.812-10.937 2.829-2.83 4.7-2.273 8.665-2.307 0.703-8e-3 0.703-8e-3 4.258-0.048 1.527-5e-3 3.054-0.011 4.628-0.016 1.561-9e-3 3.122-0.018 4.731-0.028 3.31-0.014 6.619-0.024 9.929-0.027 4.237-5e-3 8.473-0.043 12.71-0.089 4.043-0.036 8.087-0.038 12.13-0.044 1.521-0.019 3.042-0.039 4.609-0.059 1.414 6e-3 2.829 0.012 4.287 0.018 0.622-2e-3 0.622-2e-3 3.77-0.015 4.19 0.785 5.629 2.353 8.283 5.615 5.563 11.051 6.239 24.098 7.481 36.2 0.696 6.475 1.6 12.534 3.511 18.768 2.361 7.715 3.239 15.402 4.07 23.407 1.552 14.472 3.386 28.752 7.938 42.625h8c0.026-1.273 0.052-2.545 0.078-3.856 0.432-14.897 2.173-29.401 6.547-43.707 1.977-6.609 2.181-13.527 2.652-20.375 0.389-3.71 1.269-6.803 2.629-10.273 2.583-6.641 3.582-13.396 4.656-20.414 3.074-19.802 3.074-19.802 7.229-26.083 5.07-3.622 10.132-2.967 16.209-2.886z"/>
<path transform="translate(2099.8 75.125)" d="m0 0c2.25 0.875 2.25 0.875 3.25 2.875 0.106 2.116 0.147 4.235 0.158 6.353 0.01 1.357 0.02 2.715 0.03 4.113 6e-3 1.498 0.011 2.997 0.017 4.54 0.01 1.571 0.02 3.142 0.03 4.76 0.027 4.316 0.048 8.631 0.068 12.947 0.022 4.507 0.05 9.014 0.076 13.521 0.05 8.539 0.095 17.078 0.138 25.617 0.05 9.719 0.105 19.438 0.16 29.158 0.114 19.997 0.221 39.994 0.323 59.991h8c0.33-1.238 0.66-2.475 1-3.75 2.906-8.746 8.55-15.832 15-22.25 1.364-2.315 2.698-4.649 4-7 1.313-1.683 2.646-3.35 4-5 0.557-0.866 1.114-1.733 1.688-2.625 3.445-5.028 7.179-9.891 11.312-14.375h2c0.289-0.722 0.577-1.444 0.875-2.187 1.835-4.588 3.849-7.153 8.272-9.439 4.208-1.5 7.364-1.742 11.82-1.73 1.565-3e-3 3.13-6e-3 4.743-0.01 1.693 0.012 3.386 0.025 5.079 0.038 1.749 3e-3 3.498 5e-3 5.248 6e-3 3.656 4e-3 7.312 0.019 10.969 0.041 4.682 0.028 9.363 0.039 14.045 0.043 3.608 5e-3 7.217 0.014 10.825 0.026 1.726 6e-3 3.452 0.011 5.179 0.015 2.412 6e-3 4.824 0.021 7.237 0.036 1.371 7e-3 2.742 0.014 4.155 0.021 2.995 0.118 5.649 0.435 8.553 1.14-0.24 4.085-0.449 6.37-3.188 9.5-0.928 0.825-1.856 1.65-2.812 2.5-0.99 1.155-1.98 2.31-3 3.5-3 3.5-3 3.5-5.402 5.84-2.688 2.753-4.888 5.62-7.16 8.723-4.487 5.928-9.427 11.049-14.747 16.226-3.342 3.367-5.958 6.834-8.691 10.711-1.199 1.591-2.408 3.174-3.625 4.75-0.549 0.717-1.098 1.433-1.664 2.172-1.711 2.078-1.711 2.078-3.891 4.047-2.607 2.909-2.364 5.676-2.215 9.449 0.61 3.988 2.45 7.081 4.395 10.582 0.736 2.145 1.47 4.291 2.156 6.453 2.334 7.044 5.179 13.924 7.969 20.797 1.288 3.176 2.41 6.356 3.437 9.625 1.438 4.125 1.438 4.125 4.438 8.125 0.543 2.252 0.994 4.527 1.375 6.813 1.169 5.976 2.991 9.281 6.625 14.187 0.878 2.99 1.526 5.995 2.191 9.039 0.954 3.492 2.669 6.269 4.551 9.34 2.25 4.688 3.106 9.785 4.168 14.851 1.142 3.95 2.782 6.403 5.09 9.77 0.912 2.409 1.743 4.85 2.5 7.313 1.357 4.265 2.708 8.391 4.625 12.437 1.516 3.436 2.483 6.393 3.375 10 1.098 4.36 2.623 6.778 5.5 10.25 0.375 3.187 0.375 3.187 0 6-2 2-2 2-5.32 2.236-1.437-7e-3 -2.874-0.014-4.355-0.021-1.625-4e-3 -3.251-8e-3 -4.926-0.013-1.785-0.015-3.571-0.032-5.356-0.05-1.824-0.013-3.647-0.026-5.471-0.04-3.828-0.03-7.655-0.069-11.482-0.114-4.903-0.055-9.806-0.078-14.709-0.093-3.768-0.016-7.537-0.055-11.306-0.101-1.807-0.018-3.614-0.027-5.421-0.029-2.531-5e-3 -5.061-0.043-7.591-0.084-0.72-6e-3 -0.72-6e-3 -4.362-0.038-6.088-1.074-8.127-4.888-11.701-9.653-0.773-2.953-0.773-2.953-1.375-6.25-0.913-4.317-1.648-6.786-4.063-10.563-3.204-5.235-4.168-10.275-5.527-16.218-1.16-4.447-2.852-8.272-4.879-12.375-1.586-3.559-2.452-7.191-3.285-10.989-0.871-2.605-0.871-2.605-2.832-5.425-2.385-3.719-3.166-6.937-4.101-11.243-2.241-10.24-2.241-10.24-5.938-13.937-4.25-0.563-4.25-0.563-9 0-2.562 3.375-2.562 3.375-3.68 5.555-1.569 2.906-3.453 5.361-5.508 7.945-0.674 0.856-1.348 1.712-2.042 2.594-0.584 0.629-1.168 1.258-1.77 1.906h-2c-1.711 4.468-2.258 8.193-2.287 12.968-7e-3 0.685-7e-3 0.685-0.041 4.155-5e-3 1.469-0.01 2.938-0.016 4.451-0.014 1.516-0.029 3.032-0.044 4.594-0.062 6.485-0.102 12.97-0.144 19.455-0.033 4.734-0.079 9.468-0.124 14.201-6e-3 1.475-0.011 2.95-0.016 4.47-0.014 1.362-0.027 2.724-0.041 4.127-7e-3 1.201-0.014 2.402-0.022 3.639-0.265 2.94-0.265 2.94-2.265 5.94-3.099 0.381-3.099 0.381-7.14 0.388-1.509 0.01-3.017 0.019-4.571 0.029-1.64-6e-3 -3.279-0.012-4.969-0.019-1.691 2e-3 -3.383 5e-3 -5.074 9e-3 -3.549 5e-3 -7.099-2e-3 -10.648-0.016-4.549-0.017-9.097-7e-3 -13.646 0.011-3.495 0.011-6.99 7e-3 -10.485-1e-3 -2.492-3e-3 -4.985 7e-3 -7.478 0.016-1.515-0.01-3.029-0.019-4.59-0.029-1.335-2e-3 -2.671-5e-3 -4.046-7e-3 -3.353-0.381-3.353-0.381-7.353-3.381-0.501-2.317-0.501-2.317-0.503-5.106-0.011-1.062-0.021-2.125-0.032-3.219 9e-3 -1.172 0.018-2.343 0.027-3.55-6e-3 -1.241-0.012-2.482-0.019-3.761-0.016-4.183-3e-3 -8.365 9e-3 -12.547-5e-3 -2.989-0.012-5.978-0.021-8.967-0.016-7.291-0.014-14.581-2e-3 -21.871 9e-3 -5.924 0.01-11.847 6e-3 -17.771-1e-3 -0.842-1e-3 -1.685-2e-3 -2.552-1e-3 -1.711-3e-3 -3.421-4e-3 -5.132-0.011-16.053 2e-3 -32.107 0.023-48.16 0.018-13.782 0.015-27.563-3e-3 -41.344-0.022-15.993-0.03-31.986-0.018-47.98 1e-3 -1.704 2e-3 -3.409 4e-3 -5.114 0-0.419 0-0.419 2e-3 -2.542 3e-3 -5.918-3e-3 -11.835-0.012-17.753-0.012-7.963-4e-3 -15.925 0.019-23.887 6e-3 -2.929 4e-3 -5.857-5e-3 -8.785-0.011-3.986 3e-3 -7.971 0.023-11.957-9e-3 -1.169-0.018-2.338-0.027-3.543 0.01-1.065 0.021-2.13 0.032-3.228 0-0.92 1e-3 -1.84 2e-3 -2.788 0.668-3.255 1.937-4.382 4.501-6.443 2.242-1.057 4.489-2.11 6.777-3.063 2.223-0.937 2.223-0.937 5.161-2.5 3.224-1.513 6.468-2.446 9.886-3.421 5.675-1.815 11.179-4.094 16.711-6.297 3.095-1.192 6.12-2.259 9.274-3.25 4.191-1.469 4.191-1.469 8.191-4.469 2.621-0.809 2.621-0.809 5.438-1.437 4.852-1.206 8.701-5.648 13.312-5.438z"/>
<path transform="translate(834.35 170.74)" d="m0 0c0.727-3e-3 0.727-3e-3 4.408-0.019 0.78 2e-3 0.78 2e-3 4.726 0.012 1.607-2e-3 3.214-4e-3 4.87-6e-3 3.392-3e-3 6.785 2e-3 10.177 0.011 4.354 0.011 8.707 5e-3 13.061-7e-3 4.151-9e-3 8.303-3e-3 12.454 2e-3 1.568-4e-3 3.136-8e-3 4.751-0.012 1.442 6e-3 2.884 0.013 4.369 0.019 1.275 2e-3 2.549 3e-3 3.862 5e-3 2.971 0.254 2.971 0.254 4.971 2.254 0.928 3.711 1.13 6.524 1.138 10.318 6e-3 1.3 0.011 2.599 0.017 3.938 1e-3 1.424 2e-3 2.848 3e-3 4.315 5e-3 1.501 0.01 3.003 0.016 4.549 0.01 3.265 0.019 6.529 0.026 9.794 0.01 5.165 0.031 10.33 0.053 15.495 0.062 14.686 0.116 29.373 0.149 44.059 0.018 8.112 0.047 16.224 0.088 24.336 0.021 4.291 0.036 8.582 0.039 12.873 2e-3 4.788 0.028 9.575 0.055 14.363-3e-3 1.418-6e-3 2.836-9e-3 4.297 0.076 9.022 1.136 15.253 6.925 22.413 0.588 0.737 1.176 1.474 1.782 2.234 4.101 4.81 4.101 4.81 7.718 6.016 4.121 0.26 8.247 0.231 12.375 0.25 1.137 0.02 2.274 0.041 3.446 0.062 1.098 5e-3 2.196 0.011 3.328 0.016 0.501 5e-3 0.501 5e-3 3.036 0.028 6.189-0.783 9.109-4.675 12.815-9.356l3-3c2.907-5.813 3.124-12.143 3.138-18.541 6e-3 -1.273 0.011-2.546 0.017-3.857 1e-3 -1.379 2e-3 -2.758 3e-3 -4.179 5e-3 -1.466 0.01-2.931 0.016-4.442 0.01-3.177 0.019-6.355 0.026-9.533 0.011-5.026 0.031-10.052 0.053-15.078 0.062-14.288 0.116-28.575 0.149-42.863 0.018-7.899 0.047-15.798 0.088-23.697 0.021-4.177 0.035-8.354 0.039-12.531 4e-3 -4.654 0.028-9.307 0.055-13.961-2e-3 -0.692-2e-3 -0.692-9e-3 -4.191 5e-3 -0.634 5e-3 -0.634 0.033-3.84 4e-3 -1.1 7e-3 -2.2 0.01-3.333 0.434-3.355 1.385-5.247 3.382-7.954 3.013-1.506 5.798-1.152 9.156-1.177 1.512-0.013 3.024-0.026 4.581-0.039 1.643-7e-3 3.286-0.015 4.978-0.022 0.833-5e-3 1.666-9e-3 2.524-0.013 4.406-0.021 8.812-0.035 13.218-0.044 4.558-0.011 9.115-0.046 13.673-0.086 3.499-0.026 6.998-0.034 10.498-0.038 2.499-7e-3 4.998-0.033 7.496-0.06 0.758 1e-3 0.758 1e-3 4.591 9e-3 1.337-6e-3 2.675-0.012 4.053-0.018 3.232 0.488 3.232 0.488 6.232 4.488 0.291 3.228 0.405 6.261 0.381 9.489 5e-3 0.973 0.01 1.945 0.015 2.947 0.012 3.268 2e-3 6.535-7e-3 9.802 4e-3 2.339 9e-3 4.678 0.016 7.017 0.013 6.359 8e-3 12.718-2e-3 19.078-7e-3 6.647 0 13.294 5e-3 19.941 5e-3 11.164-2e-3 22.328-0.016 33.492-0.017 12.918-0.012 25.835 5e-3 38.752 0.014 11.079 0.016 22.159 8e-3 33.238-5e-3 6.622-6e-3 13.244 4e-3 19.867 9e-3 6.224 3e-3 12.449-0.014 18.674-4e-3 2.288-3e-3 4.576 3e-3 6.864 9e-3 3.117-2e-3 6.233-0.017 9.349 7e-3 0.912 0.014 1.824 0.021 2.763-0.047 5.003-0.281 6.567-3.402 10.727-3.869 0.967-6.922 1.139-10.892 1.161-1.405 0.01-2.81 0.019-4.258 0.029-0.758 2e-3 -0.758 2e-3 -4.596 0.013-0.779 3e-3 -0.779 3e-3 -4.722 0.017-3.298 0.01-6.595 0.017-9.893 0.02-4.221 6e-3 -8.442 0.03-12.663 0.058-4.032 0.023-8.065 0.025-12.097 0.03-0.757 6e-3 -0.757 6e-3 -4.59 0.037-1.408-3e-3 -2.816-6e-3 -4.267-9e-3 -1.238 4e-3 -2.476 8e-3 -3.752 0.011-3.559-0.4-5.436-1.214-8.27-3.367-1.117-2.262-1.117-2.262-1.875-4.688-2.125-4.312-2.125-4.312-5.25-5.375-4.016 1.102-5.419 2.157-8.5 4.813-4.785 4.125-9.074 5.775-15.132 7.379-3.962 1.064-7.706 2.52-11.512 4.039-12.757 3.887-31.971 3.683-44.731-0.168-2.351-1.302-4.684-2.636-7-4-1.869-0.383-3.745-0.734-5.625-1.063-11.612-2.677-21.025-13.231-27.375-22.937-2.207-3.883-4.304-7.8-6.336-11.778-1.664-3.222-1.664-3.222-3.664-6.222-0.74-3.522-1.402-7.017-2-10.563-0.332-1.918-0.665-3.836-1-5.754-0.163-0.951-0.327-1.903-0.496-2.883-0.475-2.642-1.011-5.264-1.566-7.89-1.92-10.057-2.086-19.878-2.083-30.087-3e-3 -1.494-7e-3 -2.988-0.01-4.527-8e-3 -4.07-0.011-8.14-0.012-12.21-1e-3 -2.546-3e-3 -5.091-5e-3 -7.637-0.01-8.89-0.014-17.78-0.013-26.67 1e-3 -8.276-0.01-16.553-0.026-24.829-0.013-7.12-0.018-14.241-0.017-21.361 0-4.247-3e-3 -8.494-0.014-12.74-9e-3 -4.73-7e-3 -9.46-1e-3 -14.19-5e-3 -1.403-0.011-2.805-0.017-4.251 5e-3 -1.289 9e-3 -2.579 0.013-3.908 0-1.117-1e-3 -2.234-1e-3 -3.385 0.268-3.361 0.918-6.019 2.248-9.115 4.357-2.221 8.524-2.253 13.351-2.259z"/>
<path transform="translate(1724,176)" d="m0 0c0.639 0.289 0.639 0.289 3.875 1.75 15.747 8.589 27.726 20.815 33.836 37.77 1.289 3.48 1.289 3.48 2.891 6.617 2.471 5.06 2.533 9.762 2.576 15.347 0.015 1.532 0.029 3.065 0.043 4.644 0.011 1.694 0.021 3.389 0.032 5.083 0.014 1.788 0.029 3.575 0.045 5.362 0.039 4.851 0.073 9.702 0.104 14.553 0.02 3.03 0.041 6.06 0.062 9.09 0.066 9.477 0.128 18.954 0.184 28.432 0.065 10.945 0.143 21.891 0.233 32.836 0.068 8.46 0.125 16.919 0.173 25.379 0.029 5.054 0.063 10.108 0.109 15.161 0.042 4.75 0.071 9.5 0.088 14.25 9e-3 1.745 0.023 3.489 0.043 5.234 0.026 2.378 0.031 4.757 0.036 7.135 8e-3 1.332 0.017 2.664 0.026 4.036-0.356 3.321-0.356 3.321-3.356 7.321-2.991 0.508-2.991 0.508-6.703 0.518-1.388 0.012-2.777 0.025-4.207 0.038-1.503-8e-3 -3.006-0.016-4.555-0.025-1.54 4e-3 -3.08 8e-3 -4.666 0.012-4.098 3e-3 -8.194-0.013-12.291-0.035-2.512-8e-3 -5.022 0-7.534 0.013-4.816 0.025-9.631 0.022-14.446 0.01-1.501 8e-3 -3.003 0.016-4.549 0.025-0.696-7e-3 -0.696-7e-3 -4.217-0.038-0.613-2e-3 -0.613-2e-3 -3.714-0.01-3.724-0.607-4.858-1.543-7.118-4.508-0.433-1.072-0.866-2.145-1.312-3.25-0.557-0.908-1.114-1.815-1.688-2.75-4.256-0.803-6.349-0.365-10.125 1.75-1.746 1.367-3.46 2.779-5.105 4.266-3.285 2.353-6.031 3.073-9.958 3.984-4.602 1.134-8.949 2.331-13.312 4.188-7.541 3.037-14.86 2.994-22.875 3-0.99 0.012-1.98 0.024-3 0.037-8.401 0.016-15.895-1.216-23.625-4.663-3.597-1.569-7.112-2.953-10.875-4.062-4.408-1.603-6.722-3.315-10.125-6.5-1.258-1.031-2.516-2.062-3.812-3.125-8.63-7.64-14.557-16.378-19.188-26.875-0.516-1.03-1.031-2.06-1.562-3.121-1.918-5.175-2.468-10.227-3.063-15.691-0.121-1.03-0.242-2.059-0.367-3.12-0.238-2.047-0.468-4.096-0.688-6.146-0.203-1.853-0.425-3.704-0.672-5.551-0.771-6.151-0.382-11.562 0.602-17.621 0.142-0.912 0.284-1.823 0.43-2.763 0.425-2.665 0.87-5.326 1.32-7.987 0.218-1.372 0.436-2.743 0.66-4.156 1.377-7.587 3.49-12.871 8.34-18.844 0.719-0.929 1.439-1.859 2.18-2.816 3.926-4.965 7.776-9.313 12.82-13.184 0.619-0.701 1.237-1.403 1.875-2.125 2.996-2.644 6.399-3.499 10.125-4.875 0.382-0.323 0.382-0.323 2.316-1.96 5.217-3.966 11.967-4.79 18.246-6.29 1.487-0.356 2.974-0.713 4.506-1.08 11.307-2.573 21.379-3.756 32.932-2.67 1.347 0.111 2.694 0.222 4.082 0.336 8.338 0.895 15.985 3.02 23.918 5.664 3.55 0.887 6.142 1.105 9.75 1.062 0.985-9e-3 1.97-0.018 2.984-0.027 0.748-0.011 1.496-0.023 2.266-0.035 0.082-2.98 0.141-5.957 0.188-8.938 0.025-0.83 0.05-1.661 0.076-2.517 0.086-7.426-1.226-13.518-5.452-19.795-9.213-9.009-18.836-9.784-31.312-10-6.519 0.101-13.003 0.473-19.5 1-0.872 0.062-1.744 0.123-2.643 0.187-5.944 0.549-10.122 2.306-15.357 5.063-3.562 0.836-3.562 0.836-7 1.375-4.659 0.89-7.78 1.768-11.438 4.813-3.562 2.812-3.562 2.812-7.019 3.347-3.543-0.535-3.543-0.535-5.871-2.957-3.805-6.589-6.453-12.419-7.965-19.879-0.707-2.699-0.707-2.699-3.207-6.699-4.333-6.933-5.584-14.94-6.5-23 3.51-1.89 6.816-3.265 10.625-4.5 4.375-1.5 4.375-1.5 8.375-4.5 2.978-0.742 5.983-1.374 9-1.938 5.413-1.041 10.613-2.143 15.75-4.187 9.285-3.312 19.496-3.264 29.25-3.875 1.606-0.112 3.212-0.224 4.867-0.34 26.487-1.652 55.666-3.362 80.133 8.34zm-80.125 133.19c-1.364 0.22-2.728 0.44-4.133 0.667-7.134 2.182-10.791 8.298-14.347 14.543-2.848 7.356-3.148 16.517-0.012 23.825 0.533 0.916 1.067 1.833 1.617 2.777 0.402 0.785 0.804 1.57 1.219 2.379 3.948 6.728 8.563 9.049 15.781 11.621 1.072 0.433 2.145 0.866 3.25 1.312 7.4 1.851 14.144-0.161 21.312-2.062 1.016-0.253 2.031-0.505 3.077-0.766 6.769-1.768 11.989-3.504 16.488-9.157 2.199-3.906 2.376-6.281 2.369-10.737 0-0.701 0-0.701 2e-3 -4.248-0.02-1.454-0.04-2.907-0.06-4.404 7e-3 -1.458 0.014-2.915 0.021-4.417-0.072-11.955-0.072-11.955-3.459-16.521-4.594-3.968-10.573-4.019-16.375-4.688-1.016-0.129-2.032-0.259-3.078-0.392-8.158-1.001-15.528-1.131-23.672 0.268z"/>
<path transform="translate(1370,596)" d="m0 0c3.242-0.297 6.292-0.399 9.536-0.372 0.99-4e-3 1.981-8e-3 3.002-0.011 3.293-9e-3 6.586 5e-3 9.88 0.02 2.293 0 4.586 0 6.879-2e-3 4.821 0 9.642 0.011 14.463 0.029 6.144 0.022 12.288 0.023 18.432 0.016 4.745-3e-3 9.49 4e-3 14.236 0.013 2.262 4e-3 4.524 5e-3 6.787 4e-3 16.962-2e-3 32.588 0.782 48.785 6.303 0.434 0.13 0.434 0.13 2.633 0.785 4.662 1.408 7.614 3.212 11.367 6.215 1.506 0.474 3.011 0.949 4.562 1.438 4.699 1.654 5.771 2.561 8.438 6.562 0.392 0.382 0.392 0.382 2.375 2.312 6.111 6.257 9.068 11.35 11.625 19.688 1.251 2.868 2.569 5.695 3.914 8.52 3.315 7.571 2.311 16.07 2.336 24.168 0.01 0.811 0.01 0.811 0.062 4.919 0.027 8.151-0.059 14.886-3.312 22.393-0.411 1.17-0.822 2.341-1.246 3.547-0.393 1.057-0.786 2.114-1.192 3.203-0.39 1.067-0.781 2.135-1.183 3.234-1.441 3.151-3.149 5.381-5.379 8.016-0.997 1.488-1.977 2.988-2.938 4.5-4.439 6.726-9.83 11.884-17.062 15.5-2.254 3.256-3.781 5.995-4.625 9.875 0.957 4.787 3.834 8.233 6.625 12.125 3.986 5.98 7.614 11.982 10.75 18.449 5.76 11.754 5.76 11.754 9.375 16.113 2.406 3.128 3.491 6.423 4.879 10.094 1.229 2.892 3.001 4.926 4.996 7.344 1.315 2.52 2.536 5.076 3.762 7.641 1.238 2.359 1.238 2.359 3.55 5.109 2.175 2.899 2.09 4.711 1.688 8.25-1.679 1.679-3.776 1.202-6.083 1.269-1.085 0.033-2.17 0.066-3.288 0.099-1.182 0.03-2.364 0.059-3.582 0.089-1.208 0.03-2.415 0.061-3.659 0.092-2.563 0.061-5.125 0.118-7.687 0.173-3.921 0.09-7.84 0.206-11.76 0.323-2.485 0.056-4.971 0.11-7.457 0.162-0.587 0.02-0.587 0.02-3.558 0.119-8.152 0.127-8.152 0.127-12.077-2.171-4.505-5.251-7.12-10.816-9.849-17.155-1.788-3.791-3.457-6.61-6-10-0.702-1.791-1.346-3.607-1.938-5.438-1.116-3.222-1.92-5.385-4.062-8.062-2.675-3.344-3.63-6.913-5-10.938-1-2.562-1-2.562-3-5.062-2.13-2.663-2.863-4.724-3.938-7.938-1.613-4.745-3.625-7.854-7.062-11.562l-2-4c-3.96-1.98-8.959-1.185-13.312-1.188-1.047-0.012-2.093-0.024-3.17-0.037-0.507-1e-3 -0.507-1e-3 -3.069-5e-3 -0.924-5e-3 -1.849-9e-3 -2.802-0.013-3.126 0.287-4.971 0.549-7.647 2.243-4.232 7.406-3.441 15.713-3.441 24.023-0.014 1.538-0.027 3.076-0.04 4.66-0.041 4.897-0.063 9.795-0.081 14.692-0.023 4.919-0.052 9.838-0.092 14.756-0.025 3.058-0.04 6.117-0.044 9.175-0.01 1.375-0.02 2.751-0.031 4.168-4e-3 1.215-8e-3 2.43-0.013 3.682-0.258 2.844-0.258 2.844-2.258 4.844-3.64 0.201-7.203 0.28-10.844 0.266-1.08 2e-3 -2.16 3e-3 -3.273 5e-3 -2.286 2e-3 -4.573-2e-3 -6.859-0.01-3.51-0.011-7.018 0-10.528 0.012-2.217-1e-3 -4.435-3e-3 -6.652-7e-3 -1.055 4e-3 -2.111 8e-3 -3.198 0.012-7.416-0.048-7.416-0.048-9.646-2.278-0.21-3.038-0.294-5.987-0.292-9.028-7e-3 -0.947-0.014-1.894-0.022-2.87-0.022-3.193-0.029-6.385-0.037-9.578-0.012-2.281-0.026-4.563-0.04-6.844-0.036-6.21-0.059-12.421-0.08-18.632-0.023-6.487-0.055-12.975-0.086-19.462-0.051-10.898-0.093-21.795-0.131-32.693-0.044-12.613-0.102-25.226-0.167-37.838-0.056-10.813-0.104-21.626-0.145-32.438-0.025-6.465-0.053-12.93-0.087-19.395-0.032-6.078-0.055-12.156-0.069-18.234-7e-3 -2.236-0.018-4.471-0.032-6.706-0.019-3.043-0.025-6.085-0.028-9.127-8e-3 -0.893-0.017-1.785-0.025-2.705 0.013-6.108 0.013-6.108 2.241-9.45zm55 48c-3.538 5.909-3.438 11.55-3.398 18.227-3e-3 1.065-6e-3 2.131-9e-3 3.229-2e-3 2.244 3e-3 4.488 0.016 6.732 0.016 3.433 0 6.864-0.019 10.296 2e-3 2.185 6e-3 4.37 0.012 6.555-7e-3 1.024-0.013 2.048-0.019 3.103 0.093 9.372 0.093 9.372 3.417 12.858 6.811 3.326 14.835 2.334 22.249 2.316 2.611-3e-3 5.222 0.02 7.833 0.045 1.678 3e-3 3.357 3e-3 5.035 2e-3 0.756 2e-3 0.756 2e-3 4.582 9e-3 9.383-0.812 14.209-4.486 20.09-11.434 7.103-9.438 7.364-19.324 6.211-30.938-1.828-5.775-3.866-9.571-8-14-0.66-0.846-1.32-1.691-2-2.562-9.947-8.082-21.734-8.164-34-7.938-1.569-3e-3 -3.138-5e-3 -4.754-8e-3 -13.321 0.114-13.321 0.114-17.246 3.508z" fill="#FAFAFA"/>
<path transform="translate(1176,74)" d="m0 0h5c2.637 2.637 2.251 3.802 2.252 7.482 5e-3 1.172 0.01 2.344 0.015 3.552-4e-3 1.298-8e-3 2.597-0.013 3.935 3e-3 1.371 6e-3 2.742 9e-3 4.155 8e-3 4.628 2e-3 9.255-4e-3 13.883 2e-3 3.304 6e-3 6.609 0.01 9.913 9e-3 8.063 7e-3 16.127 2e-3 24.191-5e-3 6.552-6e-3 13.104-3e-3 19.656 0 0.931 0 1.862 1e-3 2.822 0 1.891 1e-3 3.782 2e-3 5.674 5e-3 17.753-1e-3 35.507-0.012 53.261-9e-3 15.243-7e-3 30.486 2e-3 45.729 0.01 17.686 0.015 35.371 9e-3 53.057-1e-3 1.885-2e-3 3.77-2e-3 5.655-1e-3 0.464-1e-3 0.464-1e-3 2.811-2e-3 6.546 1e-3 13.091 6e-3 19.636 5e-3 7.976 4e-3 15.951-7e-3 23.926-5e-3 4.071-6e-3 8.143-1e-3 12.214 6e-3 4.408-1e-3 8.816-0.011 13.225 4e-3 1.294 9e-3 2.588 0.013 3.922-2e-3 0.588-2e-3 0.588-0.015 3.567-1e-3 1.018-1e-3 2.036-1e-3 3.085-0.251 2.649-0.251 2.649-2.251 6.649-4.361 1.215-8.722 1.114-13.227 1.085-1.428-7e-3 -2.856-0.014-4.328-0.022-1.531-0.014-3.063-0.029-4.64-0.043-1.58-0.015-3.161-0.029-4.789-0.043-3.337-0.033-6.674-0.069-10.011-0.109-4.275-0.05-8.549-0.076-12.824-0.097-4.084-0.025-8.168-0.078-12.251-0.126-1.536-5e-3 -3.071-9e-3 -4.653-0.014-1.422-0.023-2.844-0.046-4.309-0.069-1.252-0.012-2.504-0.024-3.794-0.036-3.832-0.635-4.782-1.533-7.174-4.526-0.503-2.443-0.503-2.443-0.506-5.231-0.011-1.066-0.022-2.131-0.034-3.228 9e-3 -1.169 0.017-2.338 0.025-3.543-7e-3 -1.243-0.014-2.485-0.021-3.766-0.018-4.181-8e-3 -8.363 3e-3 -12.545-8e-3 -2.991-0.016-5.981-0.027-8.972-0.02-7.29-0.021-14.581-0.013-21.871 6e-3 -5.923 5e-3 -11.847-1e-3 -17.77-1e-3 -0.842-2e-3 -1.685-3e-3 -2.552l-6e-3 -5.133c-0.016-16.052-7e-3 -32.103 9e-3 -48.155 0.015-14.696 1e-3 -29.392-0.028-44.088-0.03-15.08-0.041-30.16-0.031-45.24 1e-3 -1.705 2e-3 -3.409 3e-3 -5.114 0-0.838 1e-3 -1.677 1e-3 -2.541 2e-3 -5.919-7e-3 -11.838-0.022-17.757-0.018-7.96-0.012-15.921 0.012-23.882 5e-3 -2.929 2e-3 -5.857-0.011-8.786-0.016-3.984-1e-3 -7.967 0.022-11.951-0.012-1.172-0.024-2.343-0.036-3.55 0.012-1.062 0.025-2.125 0.038-3.219v-2.789c0.626-2.317 0.626-2.317 2.919-4.046 2.707-1.271 2.707-1.271 6.645-2.709 4.062-1.562 4.062-1.562 6.75-3.562 3.42-2.065 5.867-2.653 9.75-3.438 4.289-0.884 6.437-1.473 10.062-4.062 4.365-3.118 8.244-3.649 13.438-4.688 3.062-0.812 3.062-0.812 6.562-3.312 3.657-2.612 5.792-3.147 10.125-4 5.37-1.063 7.739-2.296 11.375-6.5z"/>
<path transform="translate(1971.1 168.12)" d="m0 0c0.865 0.092 1.729 0.185 2.62 0.28 6.717 0.943 10.277 3.249 15.255 7.595 1.728 3.455 1.308 6.15 1 10-0.721 1.936-1.499 3.851-2.313 5.75-2.325 5.622-3.419 11.059-4.187 17.063-0.987 7.696-2.785 14.58-5.309 21.941-1.698 6.051-2.416 12.17-3.027 18.418-0.293 2.601-0.293 2.601-1.164 6.828l-4 2c-4.134-2.166-7.117-4.028-10.254-7.48-3.365-3.088-6.454-4.248-10.746-5.77-1.382-0.5-2.764-1-4.187-1.516-7.718-2.498-15.596-3.616-23.438-1.047-1.114 0.599-2.227 1.197-3.375 1.813-0.743 0.364-1.485 0.727-2.25 1.102-9.711 4.951-13.065 11.969-16.75 21.898-0.348 0.93-0.697 1.859-1.056 2.817-0.958 3.23-1.183 5.753-1.164 9.11 1e-3 1.162 3e-3 2.324 4e-3 3.522 0.012 1.261 0.024 2.522 0.037 3.821 2e-3 0.669 2e-3 0.669 0.013 4.057 0.011 2.904 0.027 5.808 0.046 8.712 0.03 4.593 0.047 9.186 0.06 13.779 0.04 13.058 0.105 26.116 0.176 39.174 0.043 7.989 0.071 15.977 0.091 23.966 0.01 3.047 0.027 6.093 0.049 9.14 0.031 4.254 0.044 8.507 0.053 12.762 0.014 1.263 0.028 2.526 0.042 3.827-1e-3 1.159-2e-3 2.319-4e-3 3.513 6e-3 1.005 0.011 2.011 0.017 3.046-0.432 3.273-1.354 5.149-3.364 7.754-3.226 0.635-3.226 0.635-7.27 0.647-1.511 0.016-3.023 0.031-4.58 0.048-1.638-0.01-3.275-0.021-4.963-0.031-1.692 3e-3 -3.384 8e-3 -5.077 0.015-3.548 7e-3 -7.095-4e-3 -10.642-0.027-4.551-0.029-9.099-0.012-13.65 0.018-3.495 0.018-6.989 0.012-10.484-1e-3 -2.495-5e-3 -4.989 0.01-7.484 0.026-1.511-0.016-3.023-0.032-4.58-0.048-1.335-4e-3 -2.669-8e-3 -4.044-0.012-3.226-0.635-3.226-0.635-4.906-2.579-1.809-4.188-1.719-8.109-1.67-12.59-1e-3 -0.965-2e-3 -1.93-4e-3 -2.925 0-3.236 0.021-6.473 0.042-9.709 4e-3 -2.32 7e-3 -4.639 9e-3 -6.958 8e-3 -6.302 0.036-12.603 0.069-18.905 0.026-5.256 0.042-10.512 0.058-15.769 0.039-12.396 0.093-24.792 0.157-37.188 0.066-12.8 0.107-25.601 0.134-38.402 0.025-10.982 0.065-21.963 0.118-32.945 0.031-6.563 0.056-13.126 0.067-19.689 0.011-6.168 0.041-12.336 0.086-18.504 0.014-2.267 0.02-4.535 0.019-6.802 1e-3 -3.088 0.025-6.175 0.056-9.263-6e-3 -0.903-0.012-1.807-0.017-2.737 0.06-3.744 0.174-6.138 2.39-9.227 3.113-2.074 5.461-1.937 9.182-1.929 0.716-3e-3 0.716-3e-3 4.338-0.018 0.772 7e-3 0.772 7e-3 4.681 0.043 1.585 1e-3 3.171 2e-3 4.804 3e-3 3.354 6e-3 6.706 0.02 10.06 0.046 4.3 0.034 8.599 0.042 12.899 0.04 4.1 1e-3 8.2 0.019 12.3 0.036 0.773 1e-3 0.773 1e-3 4.687 7e-3 1.429 0.013 2.857 0.025 4.329 0.038 1.26 8e-3 2.52 0.016 3.819 0.024 3.067 0.267 3.067 0.267 6.067 2.267 1.009 3.293 1.432 6.592 2 10 5.524 0.518 8.735 0.675 13.187-2.813 1.259-1.051 2.517-2.103 3.813-3.187 1.984-1.032 3.983-2.035 6-3 0.9-0.652 1.8-1.305 2.727-1.977 13.443-8.309 33.38-5.73 48.398-3.898z"/>
<path transform="translate(1172.3 595.86)" d="m0 0c0.68-3e-3 0.68-3e-3 4.122-0.017 1.506-1e-3 3.013-3e-3 4.565-4e-3 0.788-2e-3 0.788-2e-3 4.774-0.015 4.334-0.013 8.669-0.019 13.004-0.024 2.705-3e-3 5.411-7e-3 8.116-0.011 8.457-0.014 16.914-0.024 25.371-0.027 9.777-5e-3 19.554-0.022 29.331-0.051 7.547-0.022 15.094-0.032 22.642-0.033 4.512-2e-3 9.024-7e-3 13.536-0.025 5.031-0.02 10.062-0.016 15.093-9e-3 1.502-9e-3 3.005-0.018 4.553-0.028 1.366 6e-3 2.731 0.011 4.139 0.017 1.19-2e-3 2.381-3e-3 3.607-4e-3 2.897 0.371 2.897 0.371 5.897 3.371 0.299 3.418 0.42 6.649 0.398 10.067 2e-3 0.495 2e-3 0.495 9e-3 2.999 2e-3 2.093-4e-3 4.185-0.016 6.277-0.016 3.211 0 6.421 0.019 9.632-2e-3 2.031-6e-3 4.061-0.012 6.092 6e-3 0.964 0.012 1.929 0.019 2.923-0.025 2.341-0.207 4.679-0.417 7.01-3.979 2.653-7.439 2.285-12.058 2.272-0.464 2e-3 -0.464 2e-3 -2.81 0.016-2.015 0.01-4.03 0.016-6.045 0.017-3.19 4e-3 -6.38 0.021-9.57 0.041-9.071 0.056-18.143 0.086-27.214 0.111-5.547 0.016-11.094 0.046-16.641 0.085-2.114 0.011-4.227 0.017-6.341 0.017-2.958 0-5.917 0.019-8.875 0.041-0.872-5e-3 -1.743-9e-3 -2.641-0.014-5.014 0.06-8.567 0.679-12.805 3.414-2.625 4.174-2.259 8.624-2.266 13.442-2e-3 1.635-5e-3 3.27-8e-3 4.955 5e-3 0.848 9e-3 1.696 0.013 2.569 0.011 2.592 0 5.183-0.013 7.775 2e-3 0.817 2e-3 0.817 8e-3 4.951 2e-3 1.497 5e-3 2.995 7e-3 4.537 0.259 3.771 0.259 3.771 2.259 7.771 4.852 2.641 8.784 3.376 14.264 3.385 1.412 0.01 2.823 0.02 4.277 0.031 1.507-3e-3 3.015-6e-3 4.568-9e-3 1.559 0.011 3.118 0.021 4.724 0.033 5.819 0.04 11.637 0.054 17.456 0.066 5.711 0.013 11.422 0.048 17.133 0.088 1.515-3e-3 3.031-6e-3 4.592-9e-3 1.399 0.01 2.798 0.02 4.239 0.031 1.233 2e-3 2.467 4e-3 3.738 6e-3 3.009 0.378 3.009 0.378 6.009 3.378 0.274 3.358 0.372 6.527 0.328 9.883-2e-3 0.97-4e-3 1.94-6e-3 2.94-6e-3 2.049-0.02 4.098-0.041 6.148-0.031 3.149-0.041 6.298-0.047 9.447-9e-3 1.989-0.019 3.977-0.031 5.965-4e-3 0.948-9e-3 1.896-0.013 2.873-0.073 6.627-0.073 6.627-1.19 7.744-2.233 0.109-4.469 0.147-6.704 0.158-0.719 5e-3 -0.719 5e-3 -4.36 0.031-0.785 4e-3 -0.785 4e-3 -4.757 0.022-2.448 0.021-4.896 0.042-7.344 0.064-6.058 0.053-12.115 0.097-18.173 0.127-3.391 0.017-6.782 0.041-10.172 0.075-3.198 0.031-6.395 0.05-9.593 0.057-1.458 0.016-2.915 0.033-4.417 0.05-1.279 8e-3 -2.557 0.016-3.874 0.024-4.088 0.445-7 1.424-10.606 3.392-2.174 4.349-2.261 6.514-2.287 11.308-7e-3 0.747-7e-3 0.747-0.041 4.529-5e-3 1.614-0.011 3.227-0.016 4.89-0.014 1.671-0.028 3.342-0.044 5.013-0.057 6.196-0.092 12.393-0.128 18.589-0.031 5.241-0.07 10.483-0.12 15.724-0.02 2.463-0.028 4.926-0.036 7.389-7e-3 0.744-7e-3 0.744-0.041 4.51-7e-3 1.316-0.015 2.632-0.022 3.988-0.265 3.06-0.265 3.06-2.265 5.06-3.762 0.201-7.449 0.28-11.211 0.266-1.12 2e-3 -2.24 4e-3 -3.393 6e-3 -2.372 1e-3 -4.745-2e-3 -7.117-0.011-3.632-0.01-7.264 0-10.896 0.013-2.302-1e-3 -4.605-4e-3 -6.907-8e-3 -1.088 4e-3 -2.177 8e-3 -3.299 0.012-1.014-6e-3 -2.028-0.012-3.073-0.019-0.891-1e-3 -1.782-3e-3 -2.7-5e-3 -2.404-0.254-2.404-0.254-6.404-2.254-1.345-4.033-1.138-7.918-1.127-12.123-1e-3 -0.473-1e-3 -0.473-5e-3 -2.864-4e-3 -3.181-1e-3 -6.362 2e-3 -9.542-1e-3 -2.275-3e-3 -4.55-5e-3 -6.824-4e-3 -6.188-3e-3 -12.376 0-18.563 3e-3 -6.464 1e-3 -12.927-1e-3 -19.39-2e-3 -10.853 1e-3 -21.706 5e-3 -32.559 6e-3 -12.567 4e-3 -25.133-1e-3 -37.7-5e-3 -10.772-6e-3 -21.544-3e-3 -32.316 2e-3 -6.441 2e-3 -12.883-2e-3 -19.324-2e-3 -6.053 0-12.105 5e-3 -18.158 2e-3 -2.228 1e-3 -4.456-1e-3 -6.684-3e-3 -3.028 1e-3 -6.055 6e-3 -9.083-2e-3 -0.894-5e-3 -1.788-7e-3 -2.708 0.023-7.222 0.27-7.284 7.384-7.302z" fill="#FAFAFA"/>
<path transform="translate(1443.1 649.54)" d="m0 0c1.589 4e-3 3.178 8e-3 4.814 0.012 0.414 6e-3 0.414 6e-3 2.504 0.037 2.518 0.037 5.033 0.041 7.551 0.041 13.825 0.101 13.825 0.101 18.041 2.371 1.477 2.242 1.477 2.242 2.625 4.875 1.578 3.547 2.985 5.938 5.375 9.125 2.181 6.543 1.715 12.24-1.312 18.312-0.884 1.57-1.778 3.133-2.688 4.688-0.206 0.454-0.206 0.454-1.25 2.75-3.404 4.376-8.522 7.507-13.75 9.25-5.163 0.265-10.331 0.231-15.5 0.25-1.44 0.021-2.88 0.041-4.363 0.062-1.376 6e-3 -2.751 0.011-4.168 0.016-0.632 5e-3 -0.632 5e-3 -3.83 0.028-3.139-0.356-3.139-0.356-6.139-3.356-0.311-3.323-0.444-6.453-0.433-9.777-6e-3 -0.963-0.011-1.926-0.016-2.918-7e-3 -2.037-5e-3 -4.074 3e-3 -6.11 9e-3 -3.117-0.02-6.233-0.052-9.349-2e-3 -1.979-1e-3 -3.957 2e-3 -5.936-0.011-0.932-0.022-1.865-0.034-2.825 0.04-3.684 0.164-6.462 2.056-9.676 3.59-2.044 6.449-1.893 10.564-1.87z" fill="#C83219"/>
<path transform="translate(2229,98)" d="m0 0c3 4 3 4 3 6-4.053 0.982-7.839 1.082-12 1v7c1.444-0.021 2.887-0.041 4.375-0.062 4.625 0.062 4.625 0.062 6.625 1.062 1.317 3.879 2 6.884 2 11-7.625 0.125-7.625 0.125-11-1-3-0.04-6-0.043-9 0-1.007-4.03-0.807-5.145 0-9 0.132-3.63 0.068-6.704-0.75-10.25-0.082-0.907-0.165-1.815-0.25-2.75 5.658-4.243 10.13-4.685 17-3z"/>
<path transform="translate(2220.2 137.12)" d="m0 0c0.49 0.024 0.49 0.024 2.969 0.146 0.508 0.029 0.508 0.029 3.078 0.17 0.515 0.027 0.515 0.027 3.125 0.159 2.542 0.129 5.083 0.266 7.625 0.404l-1 4c-4.138 1.379-8.185 1.184-12.5 1.187-0.434 7e-3 -0.434 7e-3 -2.629 0.038-6.512 0.015-6.512 0.015-9.871-2.225v-3c3.518-0.88 5.672-1.064 9.203-0.879z"/>
<path transform="translate(2250,99)" d="m0 0 4 1c1.853 16.442 1.853 16.442 0 22l-4-1c-1.275-5.028-0.972-9.802-0.562-14.938 0.101-1.329 0.203-2.658 0.308-4.027 0.084-1.001 0.168-2.003 0.254-3.035z"/>
<path transform="translate(2195,102)" d="m0 0h2c1.447 4.34 1.103 8.662 1.062 13.188-4e-3 0.94-9e-3 1.88-0.013 2.849-0.012 2.321-0.03 4.642-0.049 6.963l-4-1c-1.379-4.59-0.969-9.077-0.625-13.812 0.09-1.327 0.18-2.653 0.273-4.02 0.352-3.168 0.352-3.168 1.352-4.168z"/>
<path transform="translate(2201,129)" d="m0 0c2.438 0.25 2.438 0.25 5 1l1 4h-5l-1-5z"/>
<path transform="translate(2242,130)" d="m0 0h4l-1 5h-4l1-5z"/>
<path transform="translate(2242,91)" d="m0 0 4 1-1 3-3-2v-2z"/>
<path transform="translate(2204,90)" d="m0 0 2 2-3 2c0-3 0-3 1-4z"/>
</svg>
