<?xml version="1.0" encoding="UTF-8"?>
<svg version="1.1" viewBox="0 0 2744 1112" xmlns="http://www.w3.org/2000/svg">
<path transform="translate(472.61 177.81)" d="m0 0c3.749-2e-3 7.498-0.02 11.247-0.039 34.627-0.085 34.627-0.085 51.141 5.224 4.669 0.758 9.364 1.27 14.062 1.813 10.091 1.268 19.013 3.037 28.481 6.812 3.125 1.243 6.132 2.144 9.394 2.938 4.635 1.181 8.575 3.074 12.785 5.316 2.278 1.121 2.278 1.121 5.965 2.121 3.313 1 3.313 1 6.688 3.438 3.625 2.562 3.625 2.562 8 4 5.289 1.787 9.13 4.34 13.625 7.562 0.948 0.619 1.897 1.238 2.875 1.875 0.515 0.351 0.515 0.351 3.125 2.125 0.354 0.224 0.354 0.224 2.144 1.356 6.94 4.658 12.769 10.265 18.668 16.144 0.813 0.807 1.625 1.614 2.462 2.446 7.024 7.107 12.436 14.562 17.726 23.054 0.667 0.742 1.335 1.483 2.023 2.246 2.493 3.474 3.105 6.452 3.977 10.629 1.245 5.745 2.593 11.405 4.187 17.063 5.872 21.782 2.95 46.831-8.179 66.601-3.8 5.366-8.28 9.915-13.008 14.461-0.578 0.846-1.155 1.692-1.75 2.563-3.053 3.307-6.608 4.982-10.594 7.008-2.656 1.429-2.656 1.429-6.656 4.429-13.694 3.783-35.398 4.677-49 0-3.188-2.437-3.188-2.437-6-5-1.506-0.474-3.012-0.948-4.563-1.437-5.003-1.762-6.396-3.339-9.437-7.563-2.718-2.86-5.279-5.199-8.5-7.5-4.869-4.869-6.428-10.031-8.5-16.5-0.383-1.162-0.766-2.325-1.16-3.523-6.591-20.645-5.874-43.284 3.937-62.746 2.849-4.782 6.055-8.124 10.223-11.731 0.804-1.01 1.608-2.021 2.437-3.062 5.778-6.624 12.43-10.725 20.563-13.938 1.411-0.593 2.823-1.186 4.277-1.797 12.402-5.203 12.402-5.203 14.723-5.203v-9c-4.927-1.272-9.892-1.198-14.946-1.238-0.965-8e-3 -1.931-0.016-2.926-0.024-2.042-0.014-4.085-0.025-6.127-0.033-2.074-0.011-4.147-0.032-6.22-0.061-21.099-0.301-21.099-0.301-30.781 4.356-4.184 1.648-7.877 2.979-12.313 3.75-8.341 2.225-14.797 7.033-20.687 13.25-1.176 0.825-2.352 1.65-3.563 2.5-3.203 2.33-5.089 4.369-7.437 7.5l-5 5c-4.282 4.728-7.708 9.542-11 15-0.681 0.97-1.362 1.939-2.063 2.938-14.419 22.791-20.845 52.738-15.937 79.062 1.16 4.461 2.452 8.848 3.843 13.242 0.918 2.984 1.617 5.819 2.157 8.883 1.171 4.539 3.232 7.119 6 10.875 0.247 0.753 0.247 0.753 1.5 4.563 2.176 5.9 6.341 9.91 10.651 14.316 3.119 3.202 5.779 6.263 8.036 10.121 3.134 4.457 5.863 6.129 10.555 8.664 2.809 1.662 4.336 3.728 6.258 6.336 1.961 1.39 3.961 2.726 6 4l4 3c2.04 0.694 4.107 1.314 6.187 1.875 4.242 1.224 7.139 2.328 10.938 4.688 6.978 4.208 15.93 4.454 23.875 5.437 0.954 0.133 1.908 0.266 2.89 0.403 11.743 1.457 23.127 0.999 34.641-1.625 3.097-0.694 6.14-1.162 9.281-1.59 5.019-0.878 8.561-2.976 12.785-5.746 2.403-1.442 2.403-1.442 6.965-2.942 5.199-1.757 9.015-4.331 13.438-7.5 1.072-0.701 2.145-1.402 3.25-2.125 2.75-1.875 2.75-1.875 5.25-3.875s2.5-2 5.187-3.625c9.238-6.623 15.37-14.899 21.114-24.569 1.437-2.317 1.437-2.317 4.199-5.806 2.672 0.282 2.672 0.282 5 1 0.045 49.743 0.081 99.486 0.102 149.23 2e-3 5.868 5e-3 11.737 8e-3 17.605 0 0.584 0 0.584 1e-3 3.54 9e-3 18.935 0.025 37.869 0.043 56.804 0.019 19.418 0.03 38.836 0.034 58.254 3e-3 11.989 0.011 23.978 0.028 35.967 0.01 8.213 0.013 16.426 0.011 24.64-2e-3 4.743 0 9.487 0.011 14.231 0.012 5.135 8e-3 10.27 2e-3 15.405 3e-3 0.755 3e-3 0.755 0.018 4.575-4e-3 1.37-8e-3 2.74-0.012 4.152 1e-3 1.186 1e-3 2.372 2e-3 3.594-0.248 3.004-0.248 3.004-2.248 7.004-3.407 1.704-7.3 1.137-11.048 1.127-0.949 2e-3 -1.899 3e-3 -2.877 5e-3 -3.201 4e-3 -6.403 1e-3 -9.605-2e-3 -2.288 1e-3 -4.576 3e-3 -6.864 5e-3 -6.234 5e-3 -12.468 3e-3 -18.703 0-6.527-3e-3 -13.055-1e-3 -19.583 1e-3 -10.98 2e-3 -21.96-1e-3 -32.94-5e-3 -12.665-6e-3 -25.329-4e-3 -37.994 2e-3 -10.882 4e-3 -21.764 5e-3 -32.645 2e-3 -6.495-1e-3 -12.989-2e-3 -19.484 2e-3 -6.122 3e-3 -12.244 0-18.367-5e-3 -2.236-2e-3 -4.472-1e-3 -6.708 1e-3 -15.246 0.014-30.361-0.374-45.546-1.894-1.827-0.166-3.659-0.29-5.492-0.383-7.704-0.42-15.095-1.746-22.627-3.348-5.107-1.074-10.131-1.854-15.33-2.383-6.713-0.805-12.243-3.003-18.418-5.679-3.87-1.484-7.504-2.295-11.582-3.008-5.611-0.989-9.968-2.502-14.933-5.25-3.571-1.882-7.427-2.929-11.254-4.188-2.784-1.228-5.535-2.516-8.289-3.808-2.507-1.102-4.97-1.959-7.586-2.754-3.964-1.381-6.009-2.742-9.125-5.438l-3-1.5c-3-1.5-3-1.5-5.25-3.375-2.552-1.971-4.861-3.231-7.75-4.625-3.774-1.825-6.784-3.791-10-6.5l-4-2.5c-3.25-2.031-6.037-4.1-9-6.5-2.021-1.521-4.042-3.042-6.063-4.562-5.704-4.364-10.93-9.067-16.16-13.981-2.413-2.134-4.731-3.838-7.465-5.519-6.785-4.265-11.701-10.646-16.375-17.063-2.225-2.935-4.251-5.236-6.875-7.75-3.7-3.587-6.571-7.447-9.422-11.73-2.35-3.43-4.976-6.6-7.64-9.789-4.124-4.986-7.244-9.713-10-15.606-2.065-3.422-4.166-6.795-6.442-10.082-4.861-7.044-8.672-14.499-12.031-22.367-1.493-3.47-3.121-6.844-4.777-10.238-6.394-13.707-10.814-27.565-13.844-42.363-1.137-4.955-2.891-9.293-4.906-13.95-0.832-3.436-1.188-6.772-1.395-10.297-0.732-11.319-1.752-22.402-3.73-33.578-2.776-16.186-2.272-31.431 0.211-47.656 0.753-5.051 1.313-10.106 1.828-15.187 0.08-0.771 0.08-0.771 0.483-4.668 0.311-3.047 0.609-6.094 0.893-9.143 0.85-8.124 2.365-14.948 5.546-22.467 2.127-5.49 2.746-11.224 3.547-17.027 1.043-6.658 3.148-11.196 6.617-16.977 0.515-1.547 1.031-3.093 1.562-4.687 1.438-4.313 1.438-4.313 3.375-7.063 2.643-4.163 3.686-8.384 4.938-13.129 1.216-3.373 2.858-5.377 5.125-8.121 0.474-1.485 0.948-2.97 1.437-4.5 1.632-4.698 3.059-6.167 6.563-9.5 1.369-2.648 2.697-5.318 4-8 3.828-6.521 7.989-12.321 13-18 1.363-1.979 2.694-3.982 4-6 5.671-8.652 12.217-16.253 19.558-23.539 2.245-2.263 4.315-4.596 6.379-7.023 3.077-3.506 6.116-5.926 10.063-8.438 0.598-0.783 1.196-1.567 1.812-2.375 2.5-2.999 5.352-4.742 8.625-6.82 2.949-2.076 5.493-4.403 8.125-6.867 4.262-3.981 8.428-6.986 13.438-9.938l3-3c2.666-1.333 5.333-2.666 8-4 2.341-1.655 4.675-3.321 7-5 1.991-1.017 3.992-2.015 6-3 9.02-5.063 9.02-5.063 12.812-8.687 4.139-3.003 8-3.452 12.957-4.438 4.007-1.085 6.559-2.936 9.84-5.39 3.841-2.385 8.031-3.379 12.375-4.528 3.016-0.957 3.016-0.957 5.387-2.449 4.685-2.687 10.06-3.263 15.304-4.348 4.325-1.16 4.325-1.16 8.34-3.191 4.255-2.102 7.74-2.857 12.422-3.531 1.565-0.237 3.13-0.475 4.742-0.719 1.591-0.237 3.182-0.474 4.821-0.719 3.022-0.509 6.043-1.03 9.062-1.562 1.405-0.246 2.81-0.493 4.258-0.746 2.725-0.512 5.43-1.135 8.117-1.817 15.324-2.939 31.625-2.061 47.175-2.06z" fill="#FAAF00"/>
<path transform="translate(1081,508)" d="m0 0c4.056 0.152 8.111 0.144 12.17 0.142 0.6 2e-3 0.6 2e-3 3.635 0.01 2.599 8e-3 5.198 0.013 7.797 0.017 4.136 7e-3 8.273 0.023 12.41 0.041 11.76 0.052 23.521 0.1 35.281 0.116 7.207 0.01 14.413 0.04 21.619 0.081 2.723 0.012 5.446 0.018 8.169 0.015 49.698-0.031 49.698-0.031 62.919 11.578 1.237 1.052 2.475 2.104 3.75 3.188 1.423 1.264 2.839 2.535 4.25 3.812 0.761 0.682 1.521 1.364 2.305 2.066 5.716 5.38 9.323 10.875 12.695 17.934 0.598 1.093 1.196 2.186 1.812 3.312 4.199 13.037 2.403 28.91 2.461 42.504 6e-3 1.173 0.011 2.345 0.017 3.553 0.026 6.185 0.046 12.37 0.06 18.555 0.014 5.109 0.042 10.217 0.082 15.325 0.049 6.196 0.074 12.391 0.081 18.586 7e-3 2.354 0.022 4.709 0.046 7.063 0.032 3.281 0.032 6.561 0.024 9.842 0.017 0.97 0.033 1.94 0.05 2.94-0.04 4.306-0.268 6.825-2.857 10.336-5.804 4.148-10.73 4.283-17.748 4.287-0.5 4e-3 -0.5 4e-3 -3.032 0.026-3.306 0.025-6.612 0.037-9.918 0.05-2.303 0.016-4.606 0.033-6.909 0.051-6.066 0.046-12.132 0.081-18.198 0.113-9.695 0.051-19.39 0.117-29.085 0.188-3.379 0.023-6.759 0.039-10.138 0.055-2.086 0.013-4.173 0.027-6.259 0.04-0.932 3e-3 -1.864 6e-3 -2.825 8e-3 -5.619 0.044-11.089 0.481-16.664 1.166-2.056 0.082-4.114 0.13-6.172 0.133-1.076 1e-3 -2.153 2e-3 -3.262 4e-3 -1.094-4e-3 -2.188-8e-3 -3.316-0.012-0.555 2e-3 -0.555 2e-3 -3.363 0.012-0.536-1e-3 -0.536-1e-3 -3.246-4e-3 -0.964-1e-3 -1.928-2e-3 -2.921-4e-3 -2.72-0.129-2.72-0.129-5.008-0.624-3.92-0.73-7.762-0.673-11.747-0.716-1.798-0.028-3.595-0.057-5.393-0.086-2.808-0.041-5.616-0.078-8.424-0.104-18.923-0.194-18.923-0.194-27.746-2.891-2.55-0.752-5.022-1.096-7.652-1.458-4.758-1.252-7.109-2.776-10.602-6.176-2.531-2.444-5.219-4.619-7.96-6.824-5.24-4.227-8.507-7.49-11.141-13.812-0.963-2.241-2.092-4.408-3.235-6.563-3.309-7.485-4.067-17.036-1.624-24.875 1.734-3.827 3.7-7.371 5.812-11 0.474-1.361 0.949-2.722 1.438-4.125 1.706-4.231 3.149-5.907 6.562-8.875 1.542-1.374 3.084-2.749 4.625-4.125 0.755-0.663 1.511-1.325 2.289-2.008 1.748-1.565 3.427-3.208 5.086-4.867 2.891-1.062 2.891-1.062 6.25-2 3.478-0.98 6.683-1.969 9.965-3.493 13.548-5.393 30.597-3.804 44.996-3.773 2.187-1e-3 4.375-3e-3 6.563-5e-3 4.55-3e-3 9.099 1e-3 13.649 0.01 5.803 0.012 11.606 5e-3 17.409-7e-3 4.504-7e-3 9.008-5e-3 13.512 0 2.139 2e-3 4.279 0 6.418-5e-3 28.351-0.048 28.351-0.048 34.426 4.835 3.928 7.451 3.129 14.645 0.812 22.438-4.378 3.968-9.651 3.427-15.231 3.401-1.029 7e-3 -2.057 0.014-3.116 0.021-3.399 0.02-6.797 0.019-10.196 0.019-2.368 0.012-4.736 0.026-7.104 0.04-6.238 0.037-12.476 0.057-18.715 0.072-9.967 0.025-19.934 0.065-29.9 0.122-3.473 0.016-6.946 0.02-10.419 0.023-2.147 0.01-4.294 0.02-6.441 0.031-0.957-3e-3 -1.913-5e-3 -2.899-8e-3 -11.231 0.085-20.965 2.208-29.979 9.279-3.504 5.839-3.908 12.315-3 19 2.633 5.037 8.207 8.993 13 12 4.652 1.298 9.391 1.173 14.183 1.205 0.918 0.01 1.836 0.02 2.782 0.03 3.039 0.032 6.078 0.057 9.117 0.081 2.133 0.021 4.265 0.042 6.398 0.063 4.483 0.044 8.966 0.085 13.449 0.124 5.675 0.048 11.351 0.102 17.026 0.158 5.48 0.053 10.96 0.104 16.44 0.155 1.013 0.01 2.027 0.02 3.071 0.029 6.845 0.064 13.689 0.116 20.534 0.155 1.066 6e-3 2.133 0.012 3.232 0.019 3.253 0.016 6.506 0.027 9.759 0.035 0.989 6e-3 1.977 0.011 2.996 0.016 15.614 0.021 15.614 0.021 21.013-2.07 2.078-2.207 2.078-2.207 4-5 0.727-0.812 1.454-1.624 2.203-2.461 2.814-5.542 2.482-11.029 2.547-17.164 0.025-1.348 0.051-2.696 0.077-4.084 0.048-2.903 0.087-5.807 0.117-8.71 0.057-4.691 0.168-9.379 0.283-14.069 0.052-3.15 0.101-6.3 0.148-9.45 0.038-1.46 0.077-2.921 0.116-4.426 0.084-11.194-1.238-23.752-8.303-32.948-7.645-6.445-15.796-6.113-25.296-6.057-1.404-4e-3 -2.808-7e-3 -4.255-0.011-3.041-7e-3 -6.081-6e-3 -9.122 0-4.813 9e-3 -9.625-1e-3 -14.437-0.017-11.949-0.035-23.898-0.042-35.847-0.04-10.104 2e-3 -20.208-0.012-30.312-0.048-4.741-0.011-9.482 1e-3 -14.224 0.014-2.905-9e-3 -5.811-0.019-8.717-0.031-0.659 5e-3 -0.659 5e-3 -3.994 0.03-6.703-0.053-11.498-0.217-16.984-4.528-4.577-6.454-5.092-13.318-4-21 1.872-4.183 3.818-5.842 7.938-7.75 0.854-0.407 1.709-0.815 2.589-1.234 5.311-2.182 8.883-1.724 14.473-1.016z" fill="#191919"/>
<path transform="translate(1823.2 508.6)" d="m0 0c0.661-3e-3 0.661-3e-3 4.005-0.021 4.372-0.018 8.745-0.014 13.117-9e-3 3.062-4e-3 6.124-9e-3 9.186-0.015 6.431-9e-3 12.863-7e-3 19.295 3e-3 8.165 0.011 16.331-9e-3 24.497-0.038 6.336-0.018 12.672-0.018 19.009-0.012 3.005 0 6.01-6e-3 9.015-0.019 14.946-0.053 29.611 0.282 44.431 2.359 1.167 0.163 2.333 0.326 3.535 0.495 5.326 0.835 9.158 1.654 13.708 4.661 0.408 0.268 0.408 0.268 2.473 1.621 11.322 7.941 20.694 16.712 26.527 29.379 0.506 0.829 1.011 1.659 1.532 2.513 1.939 4.607 2.035 8.927 2.14 13.85 0.033 1.103 0.065 2.207 0.099 3.343 0.46 18.005 0.453 36.023 0.469 54.032 6e-3 5.422 0.03 10.844 0.058 16.266 0.019 4.213 0.024 8.426 0.026 12.639 3e-3 2.001 0.011 4.002 0.024 6.003 0.017 2.781 0.015 5.562 9e-3 8.343 1e-3 0.788 1e-3 0.788 0.011 4.776-0.382 4.401-1.262 7.368-3.368 11.235-5.725 3.646-11.732 3.505-18.312 3.625-2.145 0.061-4.29 0.124-6.434 0.188-1.057 0.028-2.114 0.056-3.203 0.085-5.669 0.189-11.323 0.613-16.981 1.016-4.07 0.086-4.07 0.086-8.523-0.4-6.129-0.64-12.217-0.659-18.374-0.656-1.246-3e-3 -2.491-7e-3 -3.774-0.01-2.692-8e-3 -5.383-0.013-8.075-0.017-4.279-7e-3 -8.557-0.023-12.836-0.041-12.161-0.052-24.322-0.1-36.484-0.116-7.455-0.01-14.91-0.04-22.365-0.081-2.821-0.012-5.642-0.018-8.464-0.015-44.149 0.026-44.149 0.026-56.175-11.578-0.968-0.47-1.936-0.941-2.933-1.426-8.225-4.222-12.889-12.216-16.067-20.574-0.722-1.382-1.444-2.764-2.187-4.187-3.235-7.329-3.982-16.21-1.563-23.875 1.75-3.938 1.75-3.938 3.246-6.34 1.546-2.671 2.412-5.156 3.317-8.098 1.773-5.048 3.724-7.403 8.187-10.5 0.444-0.454 0.444-0.454 2.688-2.75 2.312-2.25 2.312-2.25 5.312-3.25l2-4c2.1-0.8 4.212-1.581 6.367-2.215 3.658-1.09 7.195-2.468 10.762-3.82 7.113-2.39 13.893-3.347 21.367-3.578 1.063-0.038 2.126-0.075 3.222-0.113 15.341-0.476 30.694-0.461 46.042-0.459 4.44 0 8.88-0.014 13.32-0.031 3.485-0.011 6.969-0.013 10.453-0.013 2.417-1e-3 4.834-0.012 7.251-0.023 27.598 0.056 27.598 0.056 35.216 6.252 2.396 4.791 2.643 8.774 2 14-1.66 4.024-2.869 6.26-6.52 8.648-4.512 1.753-8.76 1.927-13.538 2.04-1.031 0.033-2.062 0.066-3.124 0.101-15.954 0.446-31.923 0.278-47.88 0.211-6.45-0.027-12.899-0.047-19.348-0.062-1.444-9e-3 -2.888-0.017-4.376-0.026-26.157-0.062-26.157-0.062-32.214 4.088-0.66 0.361-0.66 0.361-4 2.188-4.593 3.229-6.614 5.743-9 10.812-0.841 5.507-0.519 8.834 2.688 13.313 5.645 6.284 10.286 9.483 18.707 10.539 1.03 0.129 2.061 0.258 3.123 0.391 1.087 0.126 2.175 0.252 3.295 0.382 1.114 0.131 2.229 0.262 3.378 0.398 19.812 2.204 19.812 2.204 28.275 0.473 5.097-0.715 10.144-0.638 15.284-0.629 1.132-1e-3 2.263-2e-3 3.429-3e-3 2.387 0 4.774 1e-3 7.161 6e-3 3.647 5e-3 7.294 0 10.941-7e-3 2.323 1e-3 4.646 2e-3 6.969 4e-3 0.544-1e-3 0.544-1e-3 3.296-6e-3 4.945 0.015 9.586 0.172 14.454 1.139 3.677 0.115 7.122 0.152 10.75-0.477 5.097-0.82 10.224-0.969 15.375-1.242 1.279-0.093 2.558-0.185 3.875-0.281 1.114-0.072 2.228-0.144 3.375-0.219 2.625-0.781 2.625-0.781 3.871-3.054 0.249-0.9 0.498-1.8 0.754-2.727 0.342-0.755 0.683-1.511 1.035-2.289 0.339-0.771 0.678-1.542 1.028-2.336 0.341-0.755 0.683-1.511 1.035-2.289 3.513-12.015 2.265-26.091 2.362-38.5 0.027-2.594 0.068-5.188 0.123-7.781 0.6-28.511 0.6-28.511-7.583-38.805-7.323-7.495-16.65-6.999-26.528-7.138-2.436-0.011-4.873-0.018-7.309-0.02-1.34-5e-3 -2.679-0.01-4.06-0.015-2.89-0.011-5.78-0.019-8.67-0.026-4.573-0.012-9.145-0.031-13.718-0.053-12.994-0.062-25.988-0.116-38.982-0.149-7.962-0.021-15.924-0.056-23.886-0.101-3.032-0.014-6.065-0.023-9.097-0.026-4.23-5e-3 -8.459-0.028-12.689-0.055-0.627 1e-3 -0.627 1e-3 -3.803 9e-3 -1.152-0.011-2.305-0.023-3.492-0.034-0.998-3e-3 -1.997-7e-3 -3.026-0.01-4.459-0.622-7.025-2.587-9.99-5.882-2.87-4.099-2.937-7.411-3-12.312-0.026-1.203-0.051-2.406-0.078-3.645 0.372-4.012 1.011-6.242 3.328-9.543 6.476-3.814 12.918-3.43 20.202-3.404z" fill="#191919"/>
<path transform="translate(880.49 503.81)" d="m0 0c0.586-4e-3 0.586-4e-3 3.553-0.025 3.829-0.024 7.657-0.041 11.486-0.056 1.316-5e-3 2.631-0.01 3.987-0.016 6.944-0.026 13.889-0.046 20.834-0.06 5.739-0.014 11.478-0.042 17.217-0.082 6.952-0.049 13.905-0.074 20.858-0.081 2.644-7e-3 5.288-0.022 7.931-0.046 3.688-0.032 7.375-0.032 11.064-0.025 1.089-0.016 2.179-0.032 3.301-0.049 5.044 0.041 7.578 0.171 11.888 3.001 4.669 5.135 5.935 9.126 5.67 16.167-0.418 3.714-1.305 6.285-3.277 9.465-5.31 3.728-9.105 4.49-15.536 4.438-0.826-1e-3 -1.652-2e-3 -2.502-3e-3 -2.722-8e-3 -5.443-0.044-8.165-0.08-1.921-0.01-3.842-0.018-5.762-0.024-5.067-0.021-10.133-0.065-15.199-0.115-8.992-0.084-17.984-0.128-26.977-0.173-0.963-5e-3 -1.925-0.01-2.917-0.015-11.562-0.056-23.118-0.074-34.676 0.273-0.515 0.011-0.515 0.011-3.117 0.07-8.74 0.336-16.408 2.762-24.524 6.004-0.977 0.379-1.954 0.758-2.961 1.148-3.102 1.72-4.571 3.646-6.664 6.477-1.011 0.804-2.021 1.609-3.063 2.437-3.098 2.703-4.252 4.872-5.937 8.563l-3 3c-7.155 18.295-8.641 35.378-1 54 2.564 3.931 5.493 6.904 9 10 0.428 0.411 0.428 0.411 2.594 2.492 14.185 13.374 29.797 14.084 48.402 13.994 3.705-0.018 7.409-0.01 11.114 4e-3 7.859 0.025 15.718 0.02 23.577 0.01 9.125-0.012 18.249-0.01 27.374 0.024 3.637 7e-3 7.274-0.01 10.911-0.027 2.242 6e-3 4.484 0.012 6.726 0.02 1-0.011 2-0.022 3.031-0.034 7.773 0.067 14.908 1.473 20.865 6.865 2.637 4.974 2.087 10.188 1.406 15.652-2.384 5.033-6 8.5-11 11-3.516 0.104-7.013 0.147-10.53 0.145-1.096 3e-3 -2.192 7e-3 -3.322 0.01-3.646 0.01-7.291 0.012-10.937 0.013-2.537 3e-3 -5.074 6e-3 -7.612 0.01-5.334 6e-3 -10.669 8e-3 -16.004 7e-3 -6.801 0-13.602 0.014-20.402 0.031-5.251 0.011-10.501 0.013-15.752 0.013-2.504 1e-3 -5.009 5e-3 -7.513 0.013-17.96 0.05-34.776-0.34-51.928-6.242-0.428-0.124-0.428-0.124-2.594-0.75-5.186-1.521-8.437-3.634-12.406-7.25-2.798-1.952-5.624-3.783-8.578-5.488-6.744-4.008-11.049-8.037-15.422-14.512-0.619-0.877-1.238-1.753-1.875-2.656-1.191-1.688-2.375-3.381-3.547-5.082-1.479-2.121-3.027-4.194-4.578-6.262-0.725-2.394-1.363-4.815-1.938-7.25-1.456-5.794-3.252-10.517-6.062-15.75-1.354-5.378-1.222-10.738-1.25-16.25-0.021-0.999-0.041-1.998-0.063-3.027-0.039-7.61 0.936-13.766 4.93-20.415 1.656-2.765 2.004-5.072 2.508-8.246 2.215-10.355 8.329-18.813 15.875-26.062 0.935-0.981 1.869-1.962 2.832-2.973 5.451-5.65 9.935-9.982 17.168-13.027 0.423-0.34 0.423-0.34 2.562-2.063 2.939-2.335 5.986-3.494 9.438-4.937l4-3c11.559-3.435 24.535-3.146 36.488-3.193z" fill="#191919"/>
<path transform="translate(2523,474)" d="m0 0c5.369 2.441 8.363 6.83 11 12 0.618 3.571 0.942 7.115 1.277 10.723 0.843 3.82 1.813 4.764 4.723 7.277 9.19 5.405 19.893 4.537 30.188 4.5 3.369-0.012 6.735 2e-3 10.105 0.031 1.48-4e-3 2.96-9e-3 4.485-0.013 4.858 0.555 8.05 1.968 12.222 4.482 2.916 4.374 2.368 8.788 2.375 13.875 0.024 0.994 0.049 1.988 0.074 3.012 0.017 4.276-0.053 7.316-1.972 11.183-5.443 4.241-12.282 4.165-18.93 4.133-1.59 0.012-3.179 0.023-4.817 0.035-3.304 8e-3 -6.609 0-9.914-0.023-10.499 0.11-20.042 1.011-27.816 8.785-0.203 3.602-0.28 7.129-0.271 10.733-3e-3 0.558-3e-3 0.558-0.016 3.385-0.01 2.434-0.016 4.867-0.018 7.301-4e-3 3.855-0.02 7.709-0.041 11.564-0.055 10.962-0.086 21.925-0.11 32.887-0.016 6.701-0.046 13.401-0.085 20.101-0.012 2.552-0.018 5.104-0.018 7.656 0 3.578-0.018 7.156-0.04 10.735 4e-3 1.049 9e-3 2.098 0.014 3.179-0.063 6.431-0.89 11.513-3.415 17.459-7.435 6.051-16.964 4.89-26 4-4.122-1.201-6.421-2.501-10-5-2.472-4.944-2.221-9.067-2.132-14.453 0.01-1.064 0.019-2.128 0.028-3.224 0.021-2.312 0.047-4.624 0.076-6.936 0.044-3.666 0.072-7.333 0.095-11 0.067-10.426 0.15-20.852 0.276-31.277 0.075-6.378 0.121-12.756 0.148-19.135 0.016-2.424 0.044-4.848 0.082-7.272 0.37-23.587 0.37-23.587-6.573-33.703l-1-3c-3.211-0.914-3.211-0.914-7.375-1.625-1.446-0.251-2.893-0.503-4.383-0.762-3.516-0.508-6.949-0.844-10.492-1.051-4.75-0.562-4.75-0.562-7.188-2-4.377-7.179-6.422-12.628-4.394-21.011 1.495-4.585 3.111-8.31 7.086-11.176 3.054-1.529 5.487-1.976 8.871-2.375 16.45-2.299 16.45-2.299 19.813-6.312 0.175-0.444 0.175-0.444 1.062-2.688 0.681-0.866 1.361-1.733 2.062-2.625 2.267-3.948 2.756-7.297 3.446-11.746 0.613-3.278 1.695-5.825 3.492-8.629 6.157-4.104 16.76-3.04 24-2z" fill="#191919"/>
<path transform="translate(2343,476)" d="m0 0c6.667 5 6.667 5 8 9 0.272 3.549 0.445 7.098 0.621 10.652 0.379 3.348 0.379 3.348 2.379 7.348 9.976 6.237 21.495 5.659 32.812 5.562 2.613-0.016 5.225-0.025 7.837-0.01 2.356 0.014 4.713-2e-3 7.069-0.019 4.901 0.534 8.081 1.926 12.282 4.467 2.843 4.265 2.329 8.419 2.312 13.375 0.017 0.946 0.033 1.892 0.049 2.867 7e-3 8.885 7e-3 8.885-3.361 12.758-2.938 1.25-2.938 1.25-6 2l-4 1c-2.527 0.048-5.055 0.037-7.582-8e-3 -1.49-0.017-2.979-0.033-4.514-0.051-3.133-0.044-6.265-0.096-9.398-0.156-1.494-0.014-2.987-0.028-4.526-0.043-1.362-0.022-2.724-0.044-4.128-0.067-6.633 0.559-16.022 4.495-20.852 9.325-0.11 3.653-0.154 7.288-0.158 10.942-5e-3 1.151-0.01 2.303-0.015 3.489-0.011 2.51-0.019 5.02-0.026 7.53-0.012 3.971-0.031 7.942-0.053 11.914-0.062 11.295-0.116 22.59-0.149 33.885-0.021 6.9-0.057 13.8-0.101 20.7-0.014 2.633-0.023 5.265-0.026 7.898-5e-3 3.684-0.028 7.368-0.055 11.053 1e-3 0.545 1e-3 0.545 9e-3 3.302-0.061 5.475-0.215 9.623-3.426 14.287-5.404 4.089-9.756 4.543-16.438 4.5-1.607 0.01-3.214 0.021-4.871 0.031-5.097-0.577-8.333-1.867-12.691-4.531-2.19-3.285-2.288-4.419-2.416-8.252-0.039-1.095-0.078-2.19-0.119-3.319-0.031-1.206-0.062-2.413-0.094-3.656-0.038-1.274-0.076-2.548-0.116-3.861-0.503-19.153-0.284-38.319-0.159-57.475 0.022-3.414 0.038-6.828 0.048-10.242 0.011-3.166 0.029-6.333 0.057-9.5 0.057-24.538 0.057-24.538-3.922-30.101-7.296-6.65-13.826-6.875-23.271-7.153-4.985-0.549-9.423-1.573-12.758-5.503-5.525-12.985-5.525-12.985-3.25-19.938 3.179-5.057 6.456-9.487 12-12 3.418-0.152 3.418-0.152 7.188 0.062 6.609 0.097 12.361 0.024 17.812-4.062 4.553-5.883 5.252-11.734 6-19 2.829-5.355 6.27-8.786 11.812-11.25 7.371-1.734 13.259-0.678 20.188 2.25z" fill="#191919"/>
<path transform="translate(1647.2 506.38)" d="m0 0c0.858 1e-3 1.716 3e-3 2.6 4e-3 38.596 0.152 38.596 0.152 53.212 9.621 1.217 0.742 2.434 1.485 3.688 2.25 4.081 2.551 8.002 5.305 11.918 8.102 2.394 1.648 2.394 1.648 4.914 3.046 8.196 5.293 13.185 14.678 16.48 23.602 0.524 1.354 1.047 2.707 1.586 4.102 1.805 5.506 2.019 10.889 2.164 16.648 0.017 0.547 0.017 0.547 0.103 3.317 0.359 14.247-0.329 28.246-2.227 42.37-0.114 0.871-0.228 1.741-0.345 2.638-0.72 4.883-2.021 8.579-4.281 12.925-0.506 2.361-0.94 4.739-1.312 7.125-1.181 6.358-3.116 11.312-6.211 16.953-1.552 3.071-2.551 6.068-3.539 9.359-1.506 4.746-2.948 7.409-6.938 10.563-1.051 1.052-2.103 2.104-3.187 3.187-7.399 5.459-16.87 5.631-25.813 4.813-4.124-1.25-4.124-1.25-7-3-2.506-5.013-2.044-7.555-1-13 1.938-2.75 1.938-2.75 4-5 2.067-4.497 2.992-9.147 4.024-13.965 0.976-3.035 0.976-3.035 2.918-5.683 2.923-4.76 3.623-9.593 4.621-15.039 0.394-2.068 0.791-4.134 1.191-6.2 0.197-1.027 0.393-2.054 0.596-3.112 0.616-2.84 1.415-5.545 2.283-8.317 1.947-6.922 1.768-13.793 1.68-20.934 2e-3 -0.661 2e-3 -0.661 0.01-4.008-0.06-10.742-2.375-18.32-7.323-27.742-0.536-1.176-1.072-2.351-1.624-3.563-5.717-8.273-13.169-12.973-22.735-15.671-2.641-0.766-2.641-0.766-5.703-2.391-7.898-3.697-16.817-3.716-25.375-3.312-1.007 0.043-2.014 0.087-3.052 0.132-6.678 0.406-11.981 1.632-18.007 4.649-5.231 2.415-10.342 2.706-15.941 1.281-3.857-3.198-4.497-6.299-5.563-11.125 0.126-4 0.126-4 1-8 0.33-1.588 0.661-3.176 1-4.813 2-4.187 2-4.187 5.626-6 1.785-0.424 3.578-0.815 5.374-1.187 1.178-0.32 2.356-0.64 3.57-0.969 10.985-2.879 21.285-3.729 32.618-3.656z" fill="#191919"/>
<path transform="translate(1553.9 464.69)" d="m0 0c0.542-8e-3 0.542-8e-3 3.287-0.049 0.524 0 0.524 0 3.178-2e-3 0.954-3e-3 1.907-6e-3 2.89-9e-3 4.774 0.657 7.362 3.027 10.707 6.372 1.263 3.787 1.13 6.964 1.134 10.965 2e-3 0.821 5e-3 1.641 7e-3 2.487 6e-3 2.759 6e-3 5.518 5e-3 8.277 3e-3 1.974 6e-3 3.948 0.01 5.922 9e-3 5.37 0.011 10.74 0.012 16.11 1e-3 4.478 4e-3 8.956 8e-3 13.435 8e-3 10.562 0.011 21.125 0.01 31.688-1e-3 10.906 0.01 21.813 0.026 32.72 0.013 9.356 0.018 18.711 0.017 28.067 0 5.591 3e-3 11.182 0.014 16.774 9e-3 5.257 9e-3 10.514 2e-3 15.771-1e-3 1.932 1e-3 3.864 7e-3 5.796 8e-3 2.632 3e-3 5.264-4e-3 7.897 0 1.475 1e-3 2.949 1e-3 4.469-0.249 3.622-0.249 3.622-2.249 7.622-5.927 3.725-10.556 4.545-17.5 4.5-1.598 0.011-3.196 0.021-4.843 0.032-5.098-0.582-8.326-1.81-12.657-4.532-2.267-4.534-2.251-6.987-2.253-12.019-4e-3 -0.815-7e-3 -1.629-0.01-2.469-8e-3 -2.732-2e-3 -5.465 5e-3 -8.198-3e-3 -1.958-7e-3 -3.916-0.011-5.874-9e-3 -5.323-5e-3 -10.645 1e-3 -15.967 5e-3 -5.57 0-11.14-3e-3 -16.709-4e-3 -9.359 1e-3 -18.717 0.011-28.075 0.011-10.813 7e-3 -21.626-4e-3 -32.439-9e-3 -9.284-0.01-18.569-5e-3 -27.853 3e-3 -5.545 4e-3 -11.089-3e-3 -16.634-6e-3 -5.217-2e-3 -10.434 0.01-15.651 2e-3 -1.912 2e-3 -3.824-3e-3 -5.737-5e-3 -2.615 2e-3 -5.231 0.012-7.847 0-1.462 1e-3 -2.924 2e-3 -4.431 0.265-4.315 0.846-8.004 2.251-12.097 5.405-2.702 9.983-2.33 15.938-2.312z" fill="#191919"/>
<path transform="translate(1327.8 508.44)" d="m0 0c0.96-0.037 1.919-0.073 2.908-0.111 7.369-0.046 10.854 1.689 16.28 6.673 4.38 8.762 2.077 23.005 1.963 32.698-9e-3 0.988-0.017 1.976-0.026 2.994-0.012 0.878-0.023 1.757-0.035 2.662 0.098 2.646 0.098 2.646 0.596 5.25 0.615 4.165 0.629 8.178 0.631 12.389 2e-3 0.886 3e-3 1.771 5e-3 2.684 5e-3 2.923 2e-3 5.846-2e-3 8.769l3e-3 6.153c2e-3 4.305 0 8.611-5e-3 12.917-6e-3 5.461-3e-3 10.923 3e-3 16.385 4e-3 4.243 3e-3 8.487 0 12.73 0 2.01 0 4.02 3e-3 6.03 6e-3 6.448-0.034 12.893-0.136 19.339-0.014 0.939-0.027 1.877-0.041 2.843-0.049 2.768-0.128 5.534-0.218 8.302-0.045 1.608-0.09 3.217-0.137 4.874-0.604 3.981-0.604 3.981-2.478 6.431-7.319 5.337-15.248 6.173-24.126 6.55-6.433-1.409-10.278-4.47-15-9-1.935-3.869-1.183-8.751-1.206-13.029-0.01-1.15-0.02-2.3-0.03-3.485-0.032-3.83-0.056-7.66-0.081-11.489-0.02-2.673-0.041-5.345-0.063-8.018-0.055-7.071-0.105-14.142-0.153-21.213-0.04-5.699-0.084-11.397-0.128-17.095-0.054-6.871-0.105-13.741-0.156-20.612-9e-3 -1.281-0.019-2.562-0.029-3.882-0.053-7.241-0.096-14.482-0.132-21.722-0.023-3.49-0.062-6.979-0.104-10.469-0.019-2.225-0.037-4.451-0.055-6.677-0.016-0.997-0.032-1.993-0.049-3.021-0.042-7.263 0.091-14.893 3.998-21.225 5.693-5.368 10.439-5.61 18-5.625z" fill="#191919"/>
<path transform="translate(2083.2 509.69)" d="m0 0c4.173 3.509 6.573 6.473 7.105 12.004-0.055 1.277-0.11 2.555-0.167 3.871-0.264 7.073-0.264 7.073 0.297 9.766 0.585 3.037 0.669 5.879 0.704 8.971 0.017 1.252 0.034 2.504 0.051 3.794 0.014 1.346 0.027 2.692 0.041 4.078 0.019 1.393 0.037 2.785 0.056 4.219 0.059 4.453 0.112 8.906 0.163 13.359 0.068 5.85 0.142 11.698 0.219 17.547 0.013 1.338 0.027 2.676 0.041 4.054 0.088 6.63 0.404 13.073 1.24 19.649 0.089 2.999 0.13 6 0.125 9 1e-3 0.743 1e-3 0.743 8e-3 4.5-0.133 4.5-0.133 4.5-0.635 8.736-0.475 4.541-0.608 8.928-0.603 13.491-8e-3 0.804-8e-3 0.804-0.045 4.875-0.023 2.519-0.037 5.037-0.025 7.557 0.057 15.883 0.057 15.883-3.563 20.365-7.043 5.347-13.608 5.254-22.262 4.476-5.744-1.496-9.748-3.974-13-9-0.503-3.068-0.503-3.068-0.508-6.565-0.011-1.33-0.022-2.659-0.034-4.028 8e-3 -1.452 0.016-2.903 0.024-4.399-7e-3 -1.533-0.014-3.067-0.021-4.647-0.014-4.203-0.011-8.405 2e-3 -12.608 0.01-4.399 0-8.798-6e-3 -13.197-7e-3 -7.388 2e-3 -14.775 0.022-22.163 0.021-8.539 0.014-17.078-8e-3 -25.618-0.018-7.333-0.021-14.667-0.01-22 6e-3 -4.379 7e-3 -8.758-6e-3 -13.138-0.014-4.881 5e-3 -9.763 0.027-14.644-8e-3 -1.452-0.016-2.903-0.024-4.399 6e-3 -0.665 6e-3 -0.665 0.034-4.028 2e-3 -1.154 3e-3 -2.308 5e-3 -3.497 0.614-3.743 1.882-5.375 4.503-8.069 8.019-5.034 17.672-6.766 26.25-2.312z" fill="#191919"/>
<path transform="translate(2191,510)" d="m0 0c1.347 0.193 2.694 0.387 4.082 0.586 11.822 1.875 20.605 6.849 28.918 15.414 0.969 0.763 1.939 1.526 2.938 2.312 7.862 6.901 12.161 15.021 14.624 25.063 2.39 9.468 2.39 9.468 3.606 13.422 1.178 4.534 0.544 8.653-0.168 13.203-0.206 1.526-0.412 3.053-0.625 4.625-1.976 6.288-5.292 10.693-11.125 13.875-6.235 0.959-11.909 1.649-17.688-1.188-5.302-4.785-7.138-8.45-8.562-15.5-1.464-6.689-3.19-12.578-6-18.812-0.577-1.361-1.155-2.722-1.75-4.125-7.293-12.56-19.03-16.495-32.25-20.875-4.808-1.202-9.393-1.184-14.312-1.188-0.925-0.012-1.85-0.024-2.803-0.037-6.222-0.013-11.903 0.263-17.26 3.787-3.866 2.117-7.257 2.317-11.625 2.438-3.67-1.562-4.773-2.659-7-6-1.486-6.916-1.396-12.645 2-19 5.8-7.089 16.234-8.472 24.914-9.434 2.352-0.161 4.707-0.294 7.063-0.39 3.023-0.176 3.023-0.176 5.476-0.68 12.379-2.411 25.352 0.294 37.547 2.504z" fill="#191919"/>
<path transform="translate(1475,521)" d="m0 0c1.914 1.316 3.831 2.628 5.75 3.938 4.859 3.534 7.926 7.075 11.25 12.062 0.99 1.32 1.98 2.64 3 4 5.698 14.63 10.156 29.218 7 45-1.969 3.595-3.818 5.242-7 8-0.722 0.804-1.444 1.609-2.188 2.438-5.514 3.063-12.156 3.093-18.25 1.874-4.923-2.521-7.063-4.154-9.312-9.374-1.025-3.414-1.347-6.45-1.438-10-0.849-11.632-7.944-22.354-16.386-30.028-3.326-2.619-6.495-4.326-10.426-5.91-1.048-0.431-2.096-0.861-3.176-1.305-11.888-4.766-26.18-7.809-38.64-3.32-2.137 1.09-4.263 2.2-6.375 3.336-4.51 2.07-7.095 1.711-11.809 0.289-4.403-4.072-4.924-7.845-5.312-13.75 0.054-5.232 1.495-8.79 4.312-13.25 21.887-16.415 78.855-10.541 99 6z" fill="#191919"/>
</svg>
