<?xml version="1.0" encoding="UTF-8"?>
<svg version="1.1" viewBox="0 0 2904 1352" xmlns="http://www.w3.org/2000/svg">
<path transform="translate(697.81 25.867)" d="m0 0c0.498 1e-3 0.498 1e-3 3.017 7e-3 1.052-1e-3 2.105-3e-3 3.189-4e-3 3.582-4e-3 7.163 0 10.745 4e-3 2.583-1e-3 5.165-3e-3 7.748-5e-3 7.167-4e-3 14.334-1e-3 21.501 2e-3 7.77 3e-3 15.541-1e-3 23.312-3e-3 13.642-4e-3 27.284-4e-3 40.926-1e-3 14.645 3e-3 29.29 3e-3 43.934 1e-3h2.798c3.761-1e-3 7.521-1e-3 11.282-2e-3 35.065-5e-3 70.13-5e-3 105.2-3e-3 0.52 0 0.52 0 3.151 1e-3h3.157c31.696 2e-3 63.393 3e-3 95.089 2e-3h6.36c8.518-1e-3 17.037-1e-3 25.555-1e-3 23.815-1e-3 47.629-2e-3 71.444-2e-3h3.286c34.577-1e-3 69.153 0 103.73 3e-3h3.4l54.666 3e-3c72.276 5e-3 144.55 5e-3 216.83 0 18.212-1e-3 36.425-2e-3 54.637-3e-3 1.121 0 2.243 0 3.398-1e-3 34.539-2e-3 69.078-3e-3 103.62-2e-3h3.284c23.788 0 47.576 1e-3 71.363 2e-3 8.511 0 17.022 0 25.533 1e-3h6.352c31.691 1e-3 63.382 0 95.072-2e-3 1.04-1e-3 2.08-1e-3 3.152-1e-3h3.146c34.961-3e-3 69.922-2e-3 104.88 4e-3 3.749 0 7.497 1e-3 11.246 1e-3 0.46 0 0.46 0 2.788 1e-3 14.61 2e-3 29.22 0 43.83-3e-3 14.341-2e-3 28.683-1e-3 43.024 3e-3 7.682 3e-3 15.364 4e-3 23.046 0 6.972-3e-3 13.943-2e-3 20.915 3e-3 2.522 1e-3 5.045 1e-3 7.568-2e-3 3.395-3e-3 6.79 0 10.185 4e-3 0.995-2e-3 1.991-5e-3 3.017-7e-3 6.7 0.018 6.7 0.018 7.814 1.133 0.099 2.334 0.126 4.671 0.126 7.008 3e-3 1.541 6e-3 3.082 9e-3 4.67-2e-3 1.738-4e-3 3.475-7e-3 5.212 2e-3 1.832 4e-3 3.664 6e-3 5.497 4e-3 5.082 3e-3 10.165 0 15.247-1e-3 5.511 3e-3 11.023 6e-3 16.534 6e-3 9.675 7e-3 19.35 6e-3 29.025-2e-3 14.387 3e-3 28.773 8e-3 43.16 9e-3 27.184 0.012 54.368 0.013 81.552 0 20.985 2e-3 41.97 6e-3 62.955 0 6.031 1e-3 12.063 2e-3 18.094 0 1.499 1e-3 2.998 1e-3 4.543 6e-3 42.192 0.01 84.385 0.01 126.58-1e-3 1.592-1e-3 3.184-1e-3 4.824v24.21 4.858 9.724c-1e-3 50.45 7e-3 100.9 0.021 151.35 0.015 56.623 0.024 113.25 0.023 169.87 0 6.031-1e-3 12.063-1e-3 18.094v4.501c0 23.957 7e-3 47.913 0.015 71.87 9e-3 24.054 0.01 48.108 3e-3 72.162-3e-3 14.311-2e-3 28.621 8e-3 42.931 6e-3 9.541 5e-3 19.082-2e-3 28.623-4e-3 5.448-5e-3 10.896 3e-3 16.344 7e-3 4.946 6e-3 9.891-4e-3 14.837-1e-3 1.788 0 3.576 6e-3 5.364 6e-3 2.41 0 4.819-8e-3 7.229 0 1.339 0 2.679 1e-3 4.059-0.25 3.075-0.25 3.075-2.25 5.075-3.341 0.197-6.599 0.266-9.941 0.25-0.526 2e-3 -0.526 2e-3 -3.189 9e-3 -3.575 7e-3 -7.149-1e-3 -10.724-8e-3 -2.581 2e-3 -5.161 5e-3 -7.741 9e-3 -7.155 8e-3 -14.31 3e-3 -21.465-3e-3 -7.76-6e-3 -15.52 1e-3 -23.28 6e-3 -13.621 7e-3 -27.242 7e-3 -40.863 2e-3 -14.622-6e-3 -29.244-7e-3 -43.866-3e-3 -0.922 1e-3 -1.844 1e-3 -2.794 1e-3 -3.755 1e-3 -7.511 2e-3 -11.266 3e-3 -35.012 0.011-70.025 0.012-105.04 6e-3h-3.147c-1.04 0-2.08-1e-3 -3.151-1e-3 -31.649-5e-3 -63.298-6e-3 -94.946-4e-3 -2.117 0-4.234 1e-3 -6.351 1e-3 -8.506 0-17.013 1e-3 -25.519 2e-3 -23.781 1e-3 -47.561 3e-3 -71.342 3e-3h-3.282c-34.526 1e-3 -69.051-1e-3 -103.58-6e-3h-3.395c-18.194-2e-3 -36.389-5e-3 -54.583-7e-3 -72.168-0.01-144.34-9e-3 -216.5 0-18.185 3e-3 -36.37 5e-3 -54.556 7e-3 -1.119 1e-3 -2.239 1e-3 -3.392 1e-3 -34.489 4e-3 -68.978 6e-3 -103.47 5e-3h-3.279c-23.754-1e-3 -47.508-2e-3 -71.262-4e-3 -8.499 0-16.998-1e-3 -25.497-2e-3h-6.343c-31.642-2e-3 -63.285 0-94.928 5e-3h-3.147c-1.036 0-2.073 1e-3 -3.141 1e-3 -34.908 5e-3 -69.817 3e-3 -104.73-7e-3 -3.744-1e-3 -7.487-3e-3 -11.231-4e-3h-2.784c-14.586-4e-3 -29.173-2e-3 -43.76 4e-3 -14.32 5e-3 -28.64 3e-3 -42.96-6e-3 -7.67-5e-3 -15.34-6e-3 -23.01 1e-3 -6.962 6e-3 -13.924 4e-3 -20.886-7e-3 -2.518-2e-3 -5.036 0-7.553 5e-3 -3.392 6e-3 -6.783 0-10.174-9e-3 -0.992 5e-3 -1.983 0.01-3.005 0.015-6.708-0.037-6.708-0.037-8.936-2.265-0.25-3.075-0.25-3.075-0.25-7.134-5e-3 -1.544-9e-3 -3.088-0.014-4.678l0.015-5.205c-2e-3 -1.833-5e-3 -3.667-8e-3 -5.501-7e-3 -5.082-1e-3 -10.164 6e-3 -15.245 6e-3 -5.513 0-11.025-4e-3 -16.538-6e-3 -9.675-4e-3 -19.35 3e-3 -29.026 0.01-14.387 8e-3 -28.774 4e-3 -43.161-6e-3 -24.198-3e-3 -48.396 6e-3 -72.594 8e-3 -23.971 0.013-47.942 0.013-71.913v-4.511-18.127c-1e-3 -56.729 9e-3 -113.46 0.024-170.19 0.014-50.45 0.02-100.9 0.019-151.35v-9.718-4.852-24.182-4.819c0-42.101 4e-3 -84.201 0.01-126.3 1e-3 -1.497 1e-3 -2.994 1e-3 -4.536 1e-3 -6.019 2e-3 -12.039 3e-3 -18.058 3e-3 -20.981 4e-3 -41.961 5e-3 -62.941 0-27.031 4e-3 -54.061 0.014-81.091 5e-3 -14.311 8e-3 -28.621 6e-3 -42.931-1e-3 -9.54 2e-3 -19.08 8e-3 -28.62 4e-3 -5.448 5e-3 -10.896 3e-3 -16.344-3e-3 -4.945-1e-3 -9.889 5e-3 -14.834 1e-3 -1.789 1e-3 -3.578-1e-3 -5.366-3e-3 -2.409 1e-3 -4.817 5e-3 -7.225 1e-3 -1.34 1e-3 -2.679 1e-3 -4.059 0.234-5.494 3.133-4.069 7.94-4.082zm391.85 247.93c-8.521 1.292-17.048 1.893-25.655 2.296-8.263 0.499-15.002 2.242-22.005 6.911-2.095 0.352-4.202 0.636-6.313 0.875-5.214 0.735-8.585 1.653-12.687 5.125-4 3-4 3-7.938 3.875-4.608 1.276-5.867 2.69-9.062 6.125-1.341 0.825-2.681 1.65-4.063 2.5-3.655 2.321-5.373 4.139-7.937 7.5-0.779 0.442-1.557 0.884-2.36 1.339-2.974 1.87-4.591 3.806-6.703 6.598-2.481 3.258-4.988 6.22-7.937 9.063-3 3-3 3-4.375 5.812-1.625 3.188-1.625 3.188-4.125 5.813-3.024 4.081-3.623 7.565-4.68 12.461-1.117 3.968-3.251 6.735-5.82 9.914-6.902 20.705-4.442 46.782-4.392 68.314 7e-3 4.439-4e-3 8.878-0.012 13.317-0.014 8.648-0.011 17.296-2e-3 25.944 7e-3 7.039 8e-3 14.078 4e-3 21.117 0 1.01-1e-3 2.019-1e-3 3.059-1e-3 2.052-2e-3 4.103-3e-3 6.155-9e-3 19.145 1e-3 38.291 0.017 57.436 0.014 16.366 0.011 32.731-2e-3 49.097-0.016 19.092-0.023 38.185-0.014 57.277l3e-3 6.126c1e-3 1.004 1e-3 2.009 2e-3 3.043 2e-3 7.019-2e-3 14.037-9e-3 21.055-9e-3 8.57-6e-3 17.14 0.01 25.71 8e-3 4.358 0.011 8.716 1e-3 13.074-0.027 15.521 0.049 30.968 1.61 46.423 0.099 1.065 0.198 2.13 0.301 3.227 0.978 8.302 3.874 14.707 8.487 21.626 0.433 1.588 0.866 3.176 1.312 4.812 1.36 4.746 3.385 7.482 6.688 11.188 0.68 1.402 1.361 2.805 2.062 4.25 1.938 3.75 1.938 3.75 5.938 5.75 1.375 1.971 2.702 3.976 4 6 3.952 4.918 8.15 8.973 13 13l3 3c0.474 0.309 0.474 0.309 2.875 1.875 3.125 2.125 3.125 2.125 5.562 4.75 3.078 2.852 5.563 3.252 9.563 4.375 0.845 0.783 1.691 1.567 2.562 2.375 4.43 3.382 8.739 4.263 14.082 5.648 3.853 1.121 6.971 2.843 10.356 4.977 13.766 3.441 29.298 2.247 43.411 2.295 2.407 0.011 4.814 0.032 7.22 0.061 3.519 0.043 7.037 0.059 10.556 0.069 1.068 0.018 2.136 0.035 3.236 0.053 9.566-0.027 15.367-3.252 22.577-9.478l4-2c0.454-0.805 0.907-1.609 1.375-2.438 2.055-3.241 4.239-3.869 7.625-5.562 0.474-0.805 0.949-1.609 1.437-2.438 2.152-3.528 4.98-4.586 8.563-6.562l2.5-2.5c2.885-2.886 5.946-4.526 9.5-6.5l3-3c0.474-0.31 0.474-0.31 2.875-1.875 3.123-2.124 5.495-4.428 8.125-7.125 1.662-1.339 3.329-2.672 5-4 0.68-0.702 1.361-1.403 2.062-2.125 1.938-1.875 1.938-1.875 5.938-3.875 0.784-0.97 1.567-1.939 2.375-2.938 2.753-3.212 4.854-4.297 8.625-6.062 0.319-0.32 0.319-0.32 1.937-1.938 2.063-2.062 2.063-2.062 5.5-4 3.534-2.046 5.804-4.086 8.563-7.062 2.85-3.005 5.717-5.578 9.062-8 3.357-2.558 5.385-4.743 7.938-8 1.655-1.019 3.322-2.019 5-3 3.088-2.772 5.604-5.74 8.062-9.063 2.938-3.937 2.938-3.937 5-5.812 2.574-2.823 3.975-5.954 5.594-9.395 1.344-2.73 1.344-2.73 3.351-5.573 2.77-5.779 2.915-11.061 3.219-17.403 0.075-1.343 0.15-2.685 0.227-4.068 0.851-17.041 0.921-34.099 0.917-51.157 0-4.726 0.028-9.451 0.062-14.177 0.022-3.687 0.026-7.373 0.025-11.059 2e-3 -1.745 0.011-3.49 0.027-5.235 0.019-2.417 0.011-4.833 2e-3 -7.25 2e-3 -1.368 5e-3 -2.735 8e-3 -4.144-0.569-4.22-1.827-6.386-4.494-9.664-3.84-1.92-8.662-1.147-12.904-1.146-1.135-3e-3 -2.27-6e-3 -3.44-0.01-3.768-9e-3 -7.536-0.011-11.305-0.012-2.61-4e-3 -5.221-7e-3 -7.832-0.01-5.479-6e-3 -10.959-8e-3 -16.438-8e-3 -7.031 0-14.061-0.013-21.092-0.03-5.394-0.012-10.788-0.014-16.182-0.013-2.593-1e-3 -5.185-6e-3 -7.778-0.013-3.622-0.01-7.244-7e-3 -10.867-1e-3 -0.538-3e-3 -0.538-3e-3 -3.262-0.017-4.689 0.02-7.643 0.131-11.9 2.26-2.733 5.375-2.261 11.197-2.211 17.079 1e-3 1.106 2e-3 2.213 4e-3 3.353 6e-3 3.653 0.026 7.305 0.047 10.958 6e-3 2.546 0.011 5.092 0.015 7.638 0.014 6.703 0.038 13.407 0.066 20.11 0.043 10.715 0.073 21.43 0.096 32.146 0.01 3.734 0.027 7.468 0.045 11.203 7e-3 2.305 0.013 4.611 0.02 6.916 6e-3 1.03 0.013 2.06 0.02 3.121 0.028 18.196 0.028 18.196-6.102 24.476l-2 4c-2.65 1.042-5.319 2.039-8 3-0.743 0.721-1.485 1.443-2.25 2.187-4.62 3.045-9.408 2.71-14.75 1.813-3.653-1.61-6.759-3.691-10-6-0.885-0.47-1.769-0.939-2.68-1.422-3.758-2.556-4.104-6.349-5.32-10.578l-2-4c-0.252-2.714-0.252-2.714-0.255-5.892-6e-3 -1.213-0.011-2.425-0.017-3.674 3e-3 -1.334 7e-3 -2.668 0.011-4.042-4e-3 -1.415-8e-3 -2.831-0.012-4.289-0.01-4.767-6e-3 -9.533-2e-3 -14.3-3e-3 -3.408-9e-3 -6.816-0.015-10.224-0.013-8.31-0.015-16.62-0.013-24.931 2e-3 -6.754 0-13.508-4e-3 -20.263 0-0.96-1e-3 -1.92-2e-3 -2.91l-3e-3 -5.853c-0.011-18.309-9e-3 -36.618-3e-3 -54.926 5e-3 -16.753-6e-3 -33.506-0.025-50.259-0.019-17.196-0.028-34.391-0.024-51.587 2e-3 -9.657 0-19.313-0.015-28.97-0.011-8.221-0.013-16.443-1e-3 -24.665 6e-3 -4.195 6e-3 -8.39-5e-3 -12.586-0.01-4.547-2e-3 -9.094 0.011-13.641-8e-3 -1.327-0.015-2.654-0.023-4.021 0.038-6.412 0.313-11.186 3.397-16.967 0.124-0.609 0.124-0.609 0.75-3.688 1.696-4.495 4.043-5.209 8.25-7.312 0.528-0.686 1.057-1.372 1.601-2.079 3.75-3.004 7.805-2.54 12.399-2.484 0.451-0.012 0.451-0.012 2.734-0.072 6.648 0.015 6.648 0.015 9.703 3.08 0.516 0.843 1.032 1.686 1.563 2.555 0.99 0.474 1.98 0.948 3 1.437 3.72 1.938 4.915 3.968 7 7.563 0.526 0.651 1.052 1.302 1.594 1.973 2.205 4.747 1.78 9.406 1.715 14.575-2e-3 0.584-2e-3 0.584-9e-3 3.539-0.012 3.863-0.045 7.726-0.078 11.588-0.01 2.687-0.019 5.373-0.027 8.06-0.023 7.078-0.062 14.155-0.106 21.233-0.07 11.317-0.125 22.635-0.162 33.953-0.017 3.951-0.046 7.901-0.077 11.852l-0.03 7.29c-0.012 1.095-0.023 2.19-0.036 3.318-0.022 14.339-0.022 14.339 4.156 18.595 4.629 1.548 9.188 1.431 14.013 1.396 1.104 4e-3 2.209 7e-3 3.347 0.011 3.65 8e-3 7.3-6e-3 10.95-0.02 2.537-1e-3 5.073 0 7.61 1e-3 5.316 0 10.632-0.01 15.948-0.028 6.817-0.023 13.633-0.023 20.449-0.017 5.238 4e-3 10.476-3e-3 15.714-0.013 2.514-4e-3 5.027-5e-3 7.541-3e-3 3.511 0 7.023-0.012 10.535-0.029 1.04 3e-3 2.08 5e-3 3.152 8e-3 8.637-0.064 8.637-0.064 12.801-2.282 3.101-6.791 3.427-12.935 3.372-20.315 4e-3 -1.097 7e-3 -2.195 0.011-3.326 8e-3 -3.618-5e-3 -7.237-0.02-10.855 0-2.552 0-5.103 2e-3 -7.654-1e-3 -5.359-0.011-10.718-0.029-16.077-0.022-6.765-0.023-13.53-0.017-20.295 0.034-47.166 0.034-47.166-1.151-68.764-0.069-1.322-0.138-2.644-0.209-4.007-0.557-8.398-1.794-14.82-6.959-21.707-0.739-2.735-0.739-2.735-1.313-5.75-0.964-4.204-1.981-7.133-4.687-10.5-3-3.75-3-3.75-4.563-8.063-1.66-4.258-2.623-4.548-6.437-6.687-1.334-2.334-2.667-4.667-4-7-1.642-1.041-3.307-2.045-5-3-0.495-0.846-0.99-1.692-1.5-2.563-1.5-2.437-1.5-2.437-3.938-3.375-2.562-1.062-2.562-1.062-4.437-4-2.638-3.801-4.882-4.38-9.125-6.062-0.949-0.825-1.898-1.65-2.875-2.5-3.125-2.5-3.125-2.5-7.625-4s-4.5-1.5-7.125-4c-4.623-3.425-9.133-3.724-14.731-4.68-4.798-1.08-7.679-2.978-11.644-5.82-3.307-0.827-6.044-1.219-9.41-1.43-1.063-0.072-2.126-0.144-3.221-0.217-1.132-0.076-2.265-0.151-3.432-0.228-8.035-0.562-15.883-1.334-23.812-2.75-14.423-2.419-28.117-1.794-42.465 0.418zm301.34 13.207c-2.042 4.082-2.391 6.581-2.813 11.062-0.749 6.226-2.192 11.116-5.066 16.668-2.17 4.392-2.289 8.591-2.496 13.395-0.472 7.627-1.71 14.019-5.141 20.925-1.947 5.18-2.34 10.157-2.859 15.637-0.962 8.911-2.594 16.249-6.625 24.313-0.917 3.667-1.268 7.098-1.545 10.855-0.64 8.259-1.641 15.292-5.334 22.832-2.082 4.293-2.321 8.527-2.666 13.219-0.616 7.984-1.377 14.775-5.334 21.902-2.988 5.841-2.644 12.919-3.02 19.36-0.408 4.957-1.366 8.729-3.586 13.199-2.921 5.977-3.523 11.558-4.015 18.133-0.586 7.827-1.735 14.02-5.362 21.045-2.818 6.076-2.652 13.028-3.037 19.623-0.409 4.969-1.377 8.763-3.59 13.25-2.804 5.739-3.453 10.958-3.949 17.269-0.884 8.942-2.76 16.309-6.273 24.633-1.793 5.116-1.985 9.953-2.16 15.336-0.295 7.638-2.572 13.574-6.129 20.344-0.917 3.667-1.268 7.098-1.545 10.855-0.64 8.259-1.641 15.292-5.334 22.832-2.144 4.422-2.288 8.615-2.496 13.438-0.493 7.97-2.197 14.331-5.188 21.75-2.553 7.327-4.598 15.477-2.437 23.125 3 2 3 2 6.375 1.875 5.032-1.215 7.474-3.354 10.562-7.438 2.435-2.877 4.694-3.786 8.063-5.437 10.897-8.795 10.897-8.795 13-13 0.928-0.434 1.856-0.867 2.812-1.313 3.188-1.687 3.188-1.687 5.125-4.125 2.585-3.212 5.477-4.577 9.063-6.562 0.639-0.64 1.279-1.279 1.937-1.938 2.963-2.963 6.519-4.847 10.063-7.062 1.352-1.315 2.69-2.644 4-4l4-2c0.227-0.403 0.227-0.403 1.375-2.438 2.055-3.241 4.239-3.869 7.625-5.562 0.495-0.825 0.99-1.65 1.5-2.5 1.971-3.287 4.07-3.852 7.5-5.5 2.354-1.976 4.687-3.977 7-6 1.987-1.352 3.986-2.687 6-4 1.682-1.314 3.35-2.647 5-4 0.845-0.66 1.691-1.32 2.562-2 2.438-2 2.438-2 4.5-4.125 1.938-1.875 1.938-1.875 5.938-3.875 0.433-0.784 0.866-1.568 1.312-2.375 2.262-3.518 5.056-4.622 8.688-6.625 0.845-0.846 1.691-1.692 2.562-2.563 2.643-2.643 5.118-3.777 8.438-5.437 1.687-1.646 3.354-3.313 5-5 1.993-1.343 3.993-2.677 6-4 1.353-1.313 2.688-2.646 4-4 1.666-1.334 3.333-2.667 5-4 0.68-0.702 1.361-1.403 2.062-2.125 1.938-1.875 1.938-1.875 5.938-3.875 0.804-0.97 1.609-1.939 2.437-2.938 2.448-2.925 4.118-4.512 7.563-6.062 5.6 0 5.6 0 9.187 3.062 3.263 2.696 6.559 5.187 10.063 7.563 3.637 2.518 6.741 5.108 9.75 8.375 7.235 7.411 7.235 7.411 12 9 0.598 0.928 1.196 1.856 1.812 2.812 2.397 3.492 4.631 4.964 8.188 7.188l4 4c1.993 1.342 3.993 2.676 6 4l3 3c1.134 0.618 2.269 1.237 3.437 1.875 3.556 2.121 5.073 3.912 7.563 7.125 1.987 1.352 3.987 2.685 6 4 2.527 2.404 4.912 4.907 7.312 7.437 2.192 2.09 4.324 3.837 6.75 5.625 3 2.238 5.332 4.322 7.938 6.938 5.126 4.331 10.397 8.307 16 12 2.962 2.358 5.732 4.725 8.375 7.437 2.625 2.563 2.625 2.563 6.625 5.563 4.205 3.153 7.649 6.574 11.25 10.375 5.952 5.681 12.68 10.355 19.488 14.949 2.32 1.719 4.232 3.629 6.262 5.676 0.866 0.495 1.732 0.99 2.625 1.5 2.375 1.5 2.375 1.5 4.375 5.5 1.134 0.639 2.269 1.278 3.437 1.937 3.563 2.063 3.563 2.063 5.063 4.75 1.5 2.313 1.5 2.313 4.937 3.313 3.563 0 3.563 0 7.563-3 0.584-5.847 0.248-9.189-3-14-2.371-6.238-3.445-11.673-3.938-18.375-0.793-9.162-2.939-16.379-7.062-24.625-0.357-3.014-0.639-6.037-0.875-9.063-0.831-9.272-2.952-16.59-7.125-24.937-0.585-4.695-0.954-9.391-1.34-14.106-0.822-6.091-2.337-11.47-5.289-16.879-1.856-4.082-1.99-7.805-2.309-12.265-0.618-7.291-1.863-13.152-5.062-19.75-1.533-3.448-2.318-6.416-2.676-10.168-0.106-0.977-0.213-1.953-0.322-2.959-0.208-2.02-0.406-4.041-0.594-6.063-0.709-6.319-2.248-10.817-5.287-16.374-1.859-4.039-1.983-8.047-2.184-12.436-0.531-7.416-1.642-13.308-4.937-20-2.273-4.629-2.476-9.08-2.875-14.188-0.742-8.271-2.546-14.551-6.196-21.996-1.309-3.968-1.479-7.844-1.804-12.004-0.655-7.293-1.924-13.21-5.125-19.812-1.533-3.448-2.318-6.416-2.676-10.168-0.106-0.977-0.213-1.953-0.322-2.959-0.208-2.02-0.406-4.041-0.594-6.063-0.709-6.319-2.248-10.817-5.287-16.374-1.859-4.04-1.982-8.047-2.184-12.436-0.538-7.461-1.745-13.229-4.937-20-2.188-5.701-3.147-10.896-3.438-17-0.34-6.515-1.82-11.101-4.562-17-1.528-3.451-2.318-6.414-2.676-10.168-0.106-0.977-0.213-1.953-0.322-2.959-0.208-2.02-0.406-4.041-0.594-6.063-0.708-6.317-2.243-10.835-5.283-16.392-1.828-3.929-1.978-7.822-2.25-12.106-0.402-6.046-0.773-11.021-3.875-16.312-4.444-2.777-7.841-3.375-13.035-3.375-1.407-7e-3 -2.815-0.014-4.265-0.021-1.534 8e-3 -3.068 0.015-4.648 0.023-0.812-2e-3 -0.812-2e-3 -4.919-0.011-4.444-9e-3 -8.888 0-13.332 0.014-4.652 0.011-9.304 7e-3 -13.956 5e-3 -7.809-1e-3 -15.619 0.01-23.428 0.028-9.031 0.022-18.062 0.025-27.092 0.019-8.689-6e-3 -17.377 0-26.065 0.011-3.698 5e-3 -7.395 6e-3 -11.093 3e-3 -5.159-2e-3 -10.319 0.013-15.478 0.029-1.538-3e-3 -3.076-5e-3 -4.66-8e-3 -1.402 8e-3 -2.804 0.015-4.249 0.022-0.61 1e-3 -0.61 1e-3 -3.697 6e-3 -3.083 0.255-3.083 0.255-7.083 2.255zm246 0c-2.428 4.855-2.296 8.902-2.291 14.197-6e-3 1.036-0.013 2.072-0.02 3.14-0.019 3.428-0.023 6.856-0.025 10.284-7e-3 2.381-0.013 4.762-0.02 7.144-0.012 4.992-0.016 9.984-0.015 14.977 0 6.401-0.027 12.801-0.061 19.201-0.023 4.918-0.027 9.836-0.026 14.754-2e-3 2.36-0.011 4.72-0.026 7.08-0.02 3.299-0.014 6.597-2e-3 9.896-0.011 0.976-0.023 1.953-0.034 2.959 0.038 4.049 0.222 6.862 2.3 10.388 4.39 3.915 7.809 4.226 13.467 4.207 0.74 0 0.74 0 4.488-1e-3 1.598-0.01 3.196-0.02 4.843-0.031 1.637-3e-3 3.274-6e-3 4.96-9e-3 4.347-7e-3 8.693-0.027 13.04-0.049 4.437-0.021 8.875-0.03 13.312-0.04 8.704-0.021 17.407-0.055 26.11-0.097-1e-3 0.401-1e-3 0.401-4e-3 2.435-0.067 47.606-0.118 95.212-0.149 142.82l-0.012 17.142c-1e-3 1.137-2e-3 2.275-2e-3 3.447-0.013 18.428-0.037 36.856-0.065 55.284-0.028 18.904-0.044 37.808-0.051 56.712-4e-3 11.668-0.017 23.336-0.041 35.005-0.016 7.997-0.021 15.994-0.017 23.992 2e-3 4.616-1e-3 9.233-0.017 13.849-0.017 5.003-0.011 10.006-3e-3 15.009-9e-3 1.462-0.017 2.924-0.026 4.43 5e-3 1.341 0.011 2.682 0.018 4.064-2e-3 1.155-3e-3 2.309-4e-3 3.499 0.441 3.918 1.571 6.816 3.373 10.313 2.812 2.125 2.812 2.125 6 4 2 1.666 4 3.333 6 5 1.993 1.342 3.993 2.676 6 4 1.687 1.307 3.353 2.641 5 4 1.031 0.845 2.062 1.691 3.125 2.562 2.875 2.438 2.875 2.438 5.875 5.438 0.423 0.237 0.423 0.237 2.562 1.437 2.438 1.563 2.438 1.563 4.438 5.563 0.484 0.237 0.484 0.237 2.937 1.437 3.547 1.81 4.101 3.211 6.063 6.563 1.965 1.384 3.97 2.712 6 4 0.588 0.505 0.588 0.505 3.562 3.062 2.777 2.373 5.331 4.091 8.438 5.938l4 4 3 2c2.726 1.817 4.7 3.7 7 6 0.423 0.237 0.423 0.237 2.562 1.437 2.438 1.563 2.438 1.563 3.938 4.125 1.5 2.438 1.5 2.438 4 3.438s2.5 1 3.75 3.437c2.65 3.881 6.342 4.608 10.75 5.563 4.529 0.412 9.017 0.419 13.562 0.375 0.59 5e-3 0.59 5e-3 3.576 0.035 6.546-0.022 11.898-0.389 17.862-3.41 2.564-3.847 2.248-6.02 2.246-10.632 4e-3 -1.625 8e-3 -3.251 0.012-4.926-6e-3 -1.819-0.012-3.638-0.018-5.456 1e-3 -1.921 3e-3 -3.842 5e-3 -5.762 5e-3 -5.295-3e-3 -10.59-0.013-15.885-9e-3 -5.704-6e-3 -11.407-4e-3 -17.111 1e-3 -9.887-6e-3 -19.774-0.017-29.662-0.016-14.295-0.021-28.591-0.024-42.887-4e-3 -23.191-0.017-46.383-0.036-69.575-0.019-22.533-0.033-45.067-0.041-67.6-1e-3 -0.694-1e-3 -0.694-2e-3 -4.206-3e-3 -6.964-5e-3 -13.928-8e-3 -20.892-0.02-57.802-0.056-115.6-0.1-173.41 0.49 2e-3 0.49 2e-3 2.972 0.013 9.24 0.04 18.481 0.071 27.721 0.09 4.751 0.011 9.502 0.025 14.253 0.047 4.584 0.022 9.168 0.034 13.752 0.039 1.749 4e-3 3.499 0.011 5.248 0.022 2.449 0.015 4.899 0.015 7.348 0.016 1.394 4e-3 2.789 9e-3 4.226 0.013 3.48-0.24 3.48-0.24 7.48-2.24 2.449-4.9 2.303-9.036 2.306-14.381 8e-3 -1.056 0.017-2.111 0.025-3.199 0.024-3.493 0.033-6.986 0.04-10.479 9e-3 -2.426 0.018-4.852 0.027-7.278 0.017-5.087 0.024-10.174 0.027-15.26 6e-3 -6.522 0.043-13.043 0.089-19.564 0.03-5.011 0.037-10.022 0.038-15.033 4e-3 -2.405 0.017-4.809 0.038-7.214 0.026-3.361 0.022-6.721 9e-3 -10.082 0.015-0.995 0.03-1.99 0.045-3.015-0.042-3.998-0.23-6.857-2.433-10.252-4.886-3.413-9.385-2.925-15.213-2.858-1.23-6e-3 -2.461-0.012-3.729-0.017-4.135-0.013-8.269 0.01-12.404 0.032-2.96-2e-3 -5.92-6e-3 -8.879-0.012-7.212-9e-3 -14.422 6e-3 -21.633 0.03-8.395 0.028-16.79 0.03-25.184 0.03-14.976 1e-3 -29.952 0.026-44.928 0.065-14.538 0.037-29.075 0.058-43.613 0.061-0.896 0-1.791 0-2.714 1e-3h-2.709c-1.8 1e-3 -3.599 1e-3 -5.399 1e-3 -0.888 0-1.775 1e-3 -2.69 1e-3 -13.846 3e-3 -27.693 0.022-41.54 0.042-5.021 7e-3 -10.043 0.012-15.064 0.015-8.708 5e-3 -17.416 0.021-26.124 0.048-2.897 7e-3 -5.793 0.011-8.689 0.012-3.941 1e-3 -7.883 0.015-11.825 0.031-0.578-1e-3 -0.578-1e-3 -3.503-7e-3 -1.054 7e-3 -2.107 0.014-3.192 0.022-0.455 1e-3 -0.455 1e-3 -2.758 5e-3 -2.421 0.255-2.421 0.255-6.421 2.255zm327.5 9c-2.5 3-2.5 3-5.25 5.687-4.085 4.198-3.445 8.49-3.5 14.125-0.026 1.574-0.052 3.148-0.078 4.77 0.324 4.368 0.967 6.778 3.328 10.418 1.636 1.049 3.305 2.049 5 3 1.375 1.632 2.706 3.302 4 5 7.49 7.864 7.49 7.864 13.844 8.433 1.885 0.017 3.77 0.018 5.656 4e-3 0.95 0.02 1.9 0.04 2.879 0.061 6.959-5e-3 6.959-5e-3 10.09-2.338 0.505-0.713 1.01-1.426 1.531-2.16 3-3 3-3 5.437-4.313 3.188-2.099 4.515-4.488 6.563-7.687 0.853-0.684 1.706-1.367 2.586-2.071 3.375-4.097 3.149-7.858 3.039-12.929 0.019-0.89 0.038-1.779 0.058-2.696-0.032-4.364-0.257-6.786-3.066-10.203-0.864-0.693-1.727-1.387-2.617-2.101-0.825-1.197-1.65-2.393-2.5-3.625-2.437-3.289-4.065-4.387-7.5-6.375-1.051-1.635-2.06-3.299-3-5-3.844-1.922-8.571-1.229-12.813-1.25-0.998-0.021-1.997-0.042-3.025-0.063-10.094-0.054-14.273 3.646-20.662 11.313zm-492.5 327c-0.227 0.391-0.227 0.391-1.375 2.375-2.036 3.289-4.386 4.551-7.625 6.625-2.499 2.377-4.852 4.838-7.188 7.375-3.266 3.048-6.77 5.475-10.453 7.992-2.552 1.766-4.943 3.686-7.359 5.633-2 1.333-4 2.666-6 4-8.843 6.686-8.843 6.686-11 11-0.928 0.433-1.856 0.866-2.813 1.312-3.187 1.688-3.187 1.688-5.187 4.188-2.364 2.954-4.648 3.823-8 5.5-0.31 0.402-0.31 0.402-1.875 2.437-2.839 3.423-6.162 4.611-10.125 6.563-1.705 1.627-3.379 3.289-5 5l-4 2c-0.454 0.804-0.908 1.608-1.375 2.437-2.056 3.242-4.239 3.87-7.625 5.563-0.248 0.412-0.248 0.412-1.5 2.5-1.954 3.255-4.135 3.851-7.5 5.5-0.619 0.804-1.238 1.608-1.875 2.437-2.848 3.434-6.136 4.628-10.125 6.563-2.049 1.606-4.054 3.27-6 5-0.433 0.34-0.433 0.34-2.625 2.062-2.375 1.938-2.375 1.938-4.375 3.938-2.2 2.199-4.572 4.057-7 6-0.681 0.701-1.361 1.402-2.063 2.125-1.937 1.875-1.937 1.875-5.937 3.875-0.578 0.763-1.155 1.526-1.75 2.312-2.933 3.503-6.348 5.346-10.25 7.688-1.674 1.323-3.342 2.655-5 4-0.825 0.474-1.65 0.948-2.5 1.437-3.858 2.411-6.698 5.717-9.813 9-3.336 3.181-7.001 5.798-10.687 8.563-0.866 0.866-1.733 1.732-2.625 2.625-2.588 2.588-5.306 4.392-8.375 6.375-0.413 0.33-0.413 0.33-2.5 2-2.729 2.183-5.594 4.062-8.5 6-8.843 6.686-8.843 6.686-11 11-0.928 0.433-1.856 0.866-2.813 1.312-3.187 1.688-3.187 1.688-5.187 4.188-2.364 2.954-4.648 3.823-8 5.5-0.31 0.402-0.31 0.402-1.875 2.437-2.839 3.423-6.162 4.611-10.125 6.563-1.705 1.627-3.379 3.289-5 5l-4 2c-0.227 0.402-0.227 0.402-1.375 2.437-2.056 3.242-4.239 3.87-7.625 5.563-0.495 0.825-0.99 1.65-1.5 2.5-1.972 3.286-4.071 3.851-7.5 5.5-2.354 1.975-4.687 3.976-7 6-1.982 1.36-3.98 2.698-6 4l-4 3c-1.031 0.495-2.063 0.99-3.125 1.5-2.875 1.5-2.875 1.5-4.875 4.5-0.25 4.062-0.25 4.062 0 8 2.74 2.74 4.968 2.249 8.688 2.278 0.953-3e-3 1.906-5e-3 2.889-8e-3 0.505 2e-3 0.505 2e-3 3.063 0.015 3.428 0.014 6.855 0.013 10.282 0.013 2.467 7e-3 4.933 0.015 7.399 0.024 6.808 0.022 13.616 0.031 20.424 0.038 7.33 0.01 14.66 0.031 21.99 0.051 14.372 0.037 28.744 0.063 43.116 0.084 11.675 0.018 23.351 0.04 35.027 0.063 1.675 4e-3 3.35 7e-3 5.025 0.011 2.525 5e-3 5.049 0.01 7.573 0.015 23.48 0.048 46.961 0.091 70.441 0.126 0.886 2e-3 1.772 3e-3 2.685 4e-3 4.49 7e-3 8.98 0.014 13.47 0.021 0.446 0 0.446 0 2.703 4e-3 1.803 2e-3 3.606 5e-3 5.41 8e-3 28.068 0.041 56.137 0.096 84.205 0.162 31.509 0.073 63.018 0.136 94.527 0.185 3.357 5e-3 6.714 0.011 10.071 0.016 0.413 1e-3 0.413 1e-3 2.505 4e-3 12.501 0.02 25.002 0.047 37.504 0.079 14.21 0.035 28.42 0.061 42.631 0.072 7.257 7e-3 14.514 0.018 21.771 0.042 6.633 0.022 13.267 0.03 19.901 0.027 2.409 1e-3 4.818 8e-3 7.227 0.02 3.257 0.015 6.513 0.012 9.77 5e-3 0.475 4e-3 0.475 4e-3 2.882 0.027 6.478-0.044 6.478-0.044 9.821-3.386-0.072-3.901-0.637-6.385-2.625-9.75-2.874-2.723-5.743-3.721-9.375-5.25-1.706-1.627-3.378-3.29-5-5l-4-2c-0.31-0.475-0.31-0.475-1.875-2.875-2.358-3.467-4.602-4.924-8.125-7.125l-4-4c-0.805-0.475-1.609-0.949-2.438-1.438-2.994-1.825-5.087-4.087-7.562-6.562-1.987-1.353-3.988-2.686-6-4-2.963-2.358-5.733-4.726-8.375-7.438-2.625-2.562-2.625-2.562-6.625-5.562-4.205-3.154-7.65-6.575-11.25-10.375-5.214-4.977-11.021-9.151-16.938-13.25-4.731-3.282-9.159-6.679-13.187-10.813-2.625-2.562-2.625-2.562-6.625-5.562-4.229-3.172-7.689-6.618-11.313-10.438-2.208-2.106-4.369-3.879-6.812-5.687-3.875-2.875-3.875-2.875-6.875-5.875-1.3-0.805-2.599-1.609-3.938-2.438-3.281-2.069-5.425-3.834-8.062-6.562-0.413-0.238-0.413-0.238-2.5-1.438-2.5-1.562-2.5-1.562-4.438-4-2.371-2.946-4.907-4.502-8.062-6.562-1.707-1.626-3.377-3.292-5-5-0.701-0.702-1.403-1.403-2.125-2.125l-4.875-4.875c-0.392-0.227-0.392-0.227-2.375-1.375-3.008-1.862-5.128-4.128-7.625-6.625-1.981-1.362-3.981-2.696-6-4-1.687-1.308-3.354-2.642-5-4-1.031-0.846-2.063-1.692-3.125-2.563-2.875-2.437-2.875-2.437-5.875-5.437-0.846-0.475-1.691-0.949-2.563-1.438-2.437-1.562-2.437-1.562-4.437-5.562-0.97-0.475-1.939-0.949-2.938-1.438-3.546-1.809-4.1-3.211-6.062-6.562-1.959-1.393-3.964-2.723-6-4-2-1.667-4-3.334-6-5l-3-2c-3.205-2.137-6.069-4.505-9-7-0.887-0.702-1.774-1.403-2.688-2.125-2.312-1.875-2.312-1.875-5.312-4.875l-4-2c-0.64-0.99-1.279-1.98-1.938-3-2.062-3-2.062-3-4.562-4-3.523-1.409-4.438-3.876-6.5-7-1.962-1.39-3.962-2.726-6-4-1.345-1.323-2.677-2.657-4-4-12.475-11.263-12.475-11.263-21-7z" fill="#FAE100"/>
<path transform="translate(1090 280.73)" d="m0 0c1.691-1e-3 3.383-3e-3 5.074-6e-3 3.52-3e-3 7.039 1e-3 10.559 0.011 4.467 0.011 8.935 5e-3 13.402-7e-3 3.486-8e-3 6.971-5e-3 10.456 0 2.434 2e-3 4.868-4e-3 7.302-0.01 25.09 0.104 25.09 0.104 35.527 6.114 4.582 1.99 9.421 2.193 14.36 2.609 3.32 0.555 3.32 0.555 7.32 3.555v2c0.797 0.147 1.593 0.294 2.414 0.445 7.166 1.517 10.5 3.13 15.586 8.555 2.996 1.012 5.996 2.013 9 3 2.25 2.5 2.25 2.5 4 5 0.866 0.495 1.733 0.99 2.625 1.5 2.375 1.5 2.375 1.5 3.375 4.062 0.33 0.804 0.66 1.609 1 2.438 0.763 0.268 1.526 0.536 2.312 0.812 4.162 1.839 5.423 5.355 7.688 9.188 0.701 0.639 1.402 1.278 2.125 1.937 1.875 2.063 1.875 2.063 3.313 6.5 1.562 4.563 1.562 4.563 4.124 6.813 3.425 3.864 3.255 7.496 3.84 12.515 0.86 4.655 2.88 7.402 5.598 11.235 2.577 10.306 2.149 21.365 2.145 31.934 2e-3 0.657 2e-3 0.657 0.01 3.982 0.01 4.292 0.012 8.584 0.013 12.877 3e-3 2.999 7e-3 5.999 0.01 8.998 6e-3 6.26 8e-3 12.519 7e-3 18.778 0 8.035 0.014 16.069 0.031 24.104 0.011 6.181 0.013 12.362 0.013 18.543 1e-3 2.964 5e-3 5.928 0.013 8.893 0.01 4.127 7e-3 8.253 1e-3 12.38 6e-3 1.229 0.011 2.459 0.017 3.726-2e-3 0.56-2e-3 0.56-0.013 3.393 1e-3 0.975 1e-3 1.949 2e-3 2.953-0.249 2.439-0.249 2.439-2.249 5.439-3.58 0.296-6.986 0.398-10.568 0.372-0.55 2e-3 -0.55 2e-3 -3.331 0.011-3.649 8e-3 -7.296-6e-3 -10.945-0.02-2.526-1e-3 -5.051 0-7.577 1e-3 -5.3 0-10.599-0.01-15.899-0.028-6.806-0.023-13.613-0.023-20.419-0.017-5.218 4e-3 -10.435-3e-3 -15.653-0.013-2.51-4e-3 -5.02-5e-3 -7.531-3e-3 -3.503 0-7.006-0.012-10.509-0.029-1.046 3e-3 -2.092 5e-3 -3.17 8e-3 -7.169-0.054-7.169-0.054-9.398-2.282-0.214-3.892-0.301-7.714-0.303-11.607-8e-3 -1.21-0.017-2.42-0.026-3.666-0.025-4.019-0.037-8.037-0.05-12.055-0.016-2.786-0.033-5.571-0.051-8.356-0.046-7.35-0.081-14.7-0.113-22.049-0.051-11.751-0.117-23.502-0.188-35.253-0.023-4.109-0.039-8.218-0.055-12.328-0.013-2.521-0.027-5.041-0.04-7.562-2e-3 -0.572-2e-3 -0.572-8e-3 -3.467-0.073-11.157-0.073-11.157-1.166-14.657l-4-2c-0.309-0.475-0.309-0.475-1.875-2.875-2.349-3.455-4.639-4.9-8.125-7.125-0.99-1.32-1.98-2.64-3-4-4.847-1.212-9.478-1.184-14.438-1.188-0.941-0.012-1.883-0.024-2.853-0.037-9.148-0.019-9.148-0.019-12.709 2.225l-2 4c-4.286 3-4.286 3-7 3-0.206 1.01-0.412 2.021-0.625 3.062-1.375 3.938-1.375 3.938-4.415 6.796-4.646 5.3-3.778 11.65-3.702 18.351-7e-3 1.444-0.014 2.888-0.022 4.376-0.014 3.999-1e-3 7.998 0.024 11.997 0.019 4.317 5e-3 8.633-6e-3 12.949-0.015 8.452 2e-3 16.904 0.03 25.355 0.031 9.841 0.03 19.681 0.029 29.521-1e-3 17.555 0.026 35.109 0.07 52.664 0.042 17.039 0.063 34.079 0.061 51.118v3.181c0 1.048-1e-3 2.096-1e-3 3.176-2e-3 19.393 0.016 38.786 0.043 58.18 9e-3 6.862 0.012 13.723 0.013 20.585 2e-3 8.358 0.016 16.717 0.043 25.076 0.014 4.266 0.023 8.531 0.02 12.797-2e-3 4.62 0.015 9.24 0.037 13.86-2e-3 0.677-2e-3 0.677-0.014 4.104 9e-3 1.235 0.019 2.47 0.029 3.743 2e-3 1.067 4e-3 2.133 7e-3 3.232 0.437 3.318 1.48 5.149 3.379 7.877 3.92 5.701 3.92 5.701 4.688 8.562 1.863 3.461 4.553 4.452 8.023 6.129 2.289 1.309 2.289 1.309 3.891 3.426 3.998 3.138 8.472 2.499 13.398 2.445 0.998 0.024 1.995 0.048 3.023 0.072 7.339-0.014 7.339-0.014 10.469-3.056 0.498-0.851 0.995-1.702 1.508-2.578 5.172-3 5.172-3 8-3 0.206-0.887 0.412-1.774 0.625-2.688 1.375-3.312 1.375-3.312 4.437-5.562 4.053-3.794 3.708-7.485 3.938-12.75 0.107-3.975 0.107-7.944 0.082-11.92-3e-3 -1.148-6e-3 -2.295-0.01-3.478-7e-3 -2.473-0.016-4.947-0.027-7.421-0.018-3.913-0.028-7.825-0.036-11.737-0.025-11.118-0.061-22.235-0.105-33.352-0.027-6.813-0.044-13.627-0.055-20.44-6e-3 -2.596-0.016-5.192-0.03-7.788-0.019-3.617-0.026-7.233-0.03-10.85-9e-3 -1.077-0.018-2.154-0.027-3.264 0.01-7.409 0.01-7.409 2.238-10.75 3.61-0.297 7.048-0.399 10.66-0.373 1.109-3e-3 2.218-7e-3 3.361-0.011 3.68-8e-3 7.361 6e-3 11.041 0.02 2.549 1e-3 5.097 0 7.645-1e-3 5.347 0 10.693 0.01 16.04 0.028 6.867 0.023 13.734 0.024 20.601 0.017 5.264-3e-3 10.528 3e-3 15.791 0.013 2.533 4e-3 5.066 5e-3 7.598 3e-3 3.535 0 7.069 0.013 10.603 0.029 0.528-1e-3 0.528-1e-3 3.199-8e-3 7.232 0.054 7.232 0.054 9.461 2.283 0.194 3.076 0.262 6.063 0.243 9.14 2e-3 0.948 4e-3 1.896 6e-3 2.873 3e-3 3.151-7e-3 6.301-0.019 9.451-1e-3 2.191-1e-3 4.381-1e-3 6.572-1e-3 4.602-0.01 9.205-0.023 13.808-0.017 5.877-0.021 11.754-0.02 17.632-1e-3 4.53-6e-3 9.061-0.013 13.592-3e-3 2.165-5e-3 4.33-6e-3 6.495-2e-3 3.044-0.011 6.088-0.022 9.132 0 0.441 0 0.441 2e-3 2.676-0.094 18.484-0.094 18.484-4.147 23.629-2.857 3.809-3.332 4.654-3.875 9-0.828 4.718-0.828 4.718-3.5 7.25-0.866 0.577-1.733 1.155-2.625 1.75-1.353 1.987-2.686 3.987-4 6-1.627 1.705-3.29 3.377-5 5l-3 3-4 2c-0.804 0.969-1.609 1.938-2.438 2.937-2.465 2.946-4.299 4.186-7.562 6.063l-2.5 2.5c-2.393 2.393-4.609 3.795-7.5 5.5-0.639 0.66-1.279 1.32-1.938 2-2.062 2-2.062 2-5 3.437-3.062 1.563-3.062 1.563-5.624 4.125-2.438 2.438-2.438 2.438-5.126 3.438-0.763 0.33-1.526 0.66-2.312 1-0.289 0.783-0.577 1.567-0.875 2.375-1.641 3.829-4.565 4.626-8.125 6.625-0.474 0.804-0.949 1.608-1.438 2.437-2.329 3.82-5.757 5.314-9.562 7.563-1.678 1.318-3.346 2.65-5 4-2 1.333-4 2.666-6 4-1.683 1.313-3.35 2.646-5 4-0.846 0.66-1.691 1.32-2.562 2-2.438 2-2.438 2-4.438 4-2.2 2.199-4.572 4.057-7 6-0.681 0.701-1.361 1.402-2.062 2.125-1.938 1.875-1.938 1.875-5.938 3.875-0.577 0.783-1.155 1.567-1.75 2.375-2.93 3.418-6.227 4.676-10.25 6.625-2.375 2.187-2.375 2.187-4 4-3.766 1.883-8.412 1.163-12.57 1.168-1.069 3e-3 -2.138 6e-3 -3.24 0.01-2.275 5e-3 -4.549 7e-3 -6.824 7e-3 -3.428 2e-3 -6.856 0.02-10.284 0.039-32.029 0.086-32.029 0.086-42.578-6.072-3.095-1.424-5.875-1.72-9.254-2.09-6.061-0.729-8.1-2.535-12.25-7.062-2.993-0.697-5.993-1.365-9-2-2.625-2.375-2.625-2.375-5-5-1.176-0.66-2.351-1.32-3.562-2-3.52-2.048-5.067-3.76-7.438-7-2.571-2.706-5.14-5.112-8.062-7.438-3.023-2.637-4.774-5.211-6.938-8.562-0.866-0.784-1.732-1.568-2.625-2.375-3.017-3.335-3.296-6.309-4.375-10.625-0.804-0.722-1.609-1.444-2.438-2.188-3.509-3.851-3.835-7.604-4.691-12.656-0.871-3.156-0.871-3.156-2.848-5.493-6.225-8.197-4.306-22.489-4.277-32.256-3e-3 -1.627-6e-3 -3.255-9e-3 -4.933-9e-3 -4.485-5e-3 -8.97 2e-3 -13.455 4e-3 -4.851-3e-3 -9.701-8e-3 -14.551-9e-3 -9.488-7e-3 -18.976-2e-3 -28.463 5e-3 -7.714 6e-3 -15.427 3e-3 -23.14 0-1.099 0-2.199-1e-3 -3.331 0-2.234-1e-3 -4.468-2e-3 -6.701-5e-3 -20.925 1e-3 -41.849 0.012-62.774 9e-3 -17.941 7e-3 -35.883-2e-3 -53.824-0.01-20.853-0.015-41.707-9e-3 -62.56 1e-3 -2.225 2e-3 -4.45 2e-3 -6.675 1e-3 -1.094 1e-3 -2.189 1e-3 -3.317 2e-3 -7.701-1e-3 -15.403-6e-3 -23.104-5e-3 -9.389-4e-3 -18.778 7e-3 -28.167 5e-3 -4.787 7e-3 -9.574 1e-3 -14.361-7e-3 -5.196 1e-3 -10.391 0.011-15.586-4e-3 -1.505-9e-3 -3.01-0.013-4.56 0.044-12.011 0.208-21.022 7.267-30.905 0.559-2.809 0.559-2.809 0.938-5.938 0.823-6.36 3.044-9.142 7.062-14.062 0.516-1.403 1.031-2.805 1.562-4.25 1.587-4.14 2.937-5.212 6.438-7.75 0.495-0.825 0.99-1.65 1.5-2.5 1.759-2.932 3.814-4.418 6.5-6.5 0.99-1.32 1.98-2.64 3-4l4-2c0.577-0.784 1.155-1.568 1.75-2.375 2.93-3.418 6.227-4.677 10.25-6.625 0.632-0.671 1.263-1.341 1.914-2.032 3.058-2.886 6.207-3.153 10.234-3.964 2.852-1.004 2.852-1.004 5.715-3.54 3.833-3.011 6.135-3.167 10.949-3.464 8.667-0.82 8.667-0.82 12.75-3.5 10.154-6.641 25.829-4.796 37.438-4.766z" fill="#000019"/>
<path transform="translate(1649.9 289.86)" d="m0 0c1.159 1e-3 2.318 2e-3 3.512 3e-3 1.221-3e-3 2.441-6e-3 3.699-9e-3 4.124-9e-3 8.248-0.011 12.373-0.012 2.942-5e-3 5.885-0.01 8.828-0.015 8.855-0.015 17.71-0.021 26.566-0.026 4.165-2e-3 8.331-6e-3 12.496-0.01 13.838-0.012 27.675-0.022 41.513-0.026h2.686c0.888 0 1.777-1e-3 2.692-1e-3 1.801 0 3.601-1e-3 5.402-1e-3 0.893 0 1.786-1e-3 2.706-1e-3 14.48-4e-3 28.961-0.021 43.441-0.045 14.851-0.023 29.701-0.036 44.552-0.037 8.345-1e-3 16.689-7e-3 25.034-0.025 7.844-0.016 15.688-0.018 23.533-0.01 2.887 1e-3 5.774-3e-3 8.661-0.013 3.926-0.013 7.85-7e-3 11.776 4e-3 1.156-8e-3 2.313-0.017 3.505-0.025 2.696 0.017 5.391 0.189 8.079 0.392 2.738 4.106 2.288 7.868 2.275 12.64 3e-3 0.495 3e-3 0.495 0.016 2.997 0.014 3.276 0.013 6.552 0.01 9.828 4e-3 2.273 8e-3 4.546 0.013 6.819 8e-3 4.767 7e-3 9.534 2e-3 14.302-6e-3 6.114 0.011 12.229 0.035 18.344 0.014 4.695 0.015 9.39 0.012 14.085 1e-3 2.254 6e-3 4.509 0.016 6.764 0.012 3.151 5e-3 6.301-6e-3 9.451 7e-3 0.935 0.015 1.87 0.023 2.833-0.041 5.068-0.242 6.733-3.396 10.937-3.46 0.499-3.46 0.499-7.836 0.498-1.635 0.01-3.27 0.02-4.954 0.031-0.875-4e-3 -1.75-8e-3 -2.652-0.013-2.735-0.012-5.47-1e-3 -8.206 0.017-4.818 0.026-9.635 0.032-14.453 0.03-7.716-2e-3 -15.431 0.012-23.147 0.056-2.7 0.01-5.4 1e-3 -8.1-9e-3 -1.632 7e-3 -3.263 0.014-4.945 0.021-0.721 0-0.721 0-4.373-3e-3 -1.1 0.123-2.2 0.246-3.334 0.372-2.564 3.847-2.246 6.014-2.24 10.626-3e-3 1.624-6e-3 3.249-8e-3 4.922 7e-3 1.818 0.014 3.635 0.021 5.453 1e-3 1.919 1e-3 3.838 0 5.757-1e-3 5.291 0.011 10.582 0.025 15.873 0.012 5.7 0.014 11.399 0.016 17.099 6e-3 9.881 0.019 19.761 0.036 29.642 0.025 14.289 0.037 28.577 0.046 42.865 0.014 23.183 0.036 46.366 0.063 69.549 2e-3 1.388 4e-3 2.777 5e-3 4.207 0.012 9.857 0.024 19.713 0.036 29.57 0.014 11.26 0.028 22.521 0.041 33.782 2e-3 1.387 4e-3 2.774 6e-3 4.203 0.027 23.095 0.046 46.19 0.06 69.286 9e-3 14.259 0.025 28.518 0.051 42.778 0.016 9.763 0.026 19.526 0.03 29.289 3e-3 5.64 9e-3 11.281 0.024 16.921 0.013 5.156 0.018 10.312 0.015 15.468 0 1.873 4e-3 3.746 0.012 5.618 0.01 2.531 6e-3 5.062 2e-3 7.592 2e-3 1.41 4e-3 2.821 6e-3 4.274-0.247 3.226-0.247 3.226-2.247 5.226-4.911 0.593-9.869 0.608-14.812 0.75-1.38 0.055-2.76 0.111-4.182 0.168-1.328 0.043-2.656 0.085-4.025 0.129-1.218 0.04-2.436 0.079-3.691 0.12-3.286-0.167-5.391-0.647-8.29-2.167-1.349-1.654-2.681-3.322-4-5-1.986-1.353-3.987-2.686-6-4-2.548-2.424-4.952-4.95-7.375-7.5-2.625-2.5-2.625-2.5-6.187-5-3.438-2.5-3.438-2.5-5.5-5.125-2.336-2.863-4.642-3.761-7.938-5.375-1.687-1.646-3.354-3.312-5-5-1.662-1.006-3.329-2.006-5-3-3.323-2.73-6.495-5.483-9.5-8.562-2.5-2.438-2.5-2.438-6.062-4.938-3.231-2.35-5.002-4.4-7.438-7.5-4.606-4.49-9.565-8.11-14.957-11.59-2.68-1.85-4.844-4.017-7.043-6.41l-3-3c-0.371-2.825-0.371-2.825-0.366-6.342-5e-3 -1.338-0.011-2.677-0.016-4.055 9e-3 -1.48 0.019-2.959 0.028-4.484-1e-3 -1.564-3e-3 -3.129-5e-3 -4.74-5e-3 -4.355 9e-3 -8.709 0.026-13.063 0.015-4.691 0.013-9.383 0.012-14.074 2e-3 -8.132 0.015-16.265 0.035-24.397 0.029-11.762 0.04-23.524 0.047-35.285 0.011-19.086 0.035-38.171 0.068-57.257 0.032-18.535 0.06-37.071 0.082-55.606 1e-3 -1.142 3e-3 -2.283 4e-3 -3.459 0.015-12.456 0.028-24.911 0.04-37.366 0-0.547 0-0.547 3e-3 -3.315 4e-3 -4.372 8e-3 -8.744 0.012-13.117 0.011-12.816 0.027-25.633 0.05-38.45 0.015-8.037 0.026-16.074 0.035-24.111 6e-3 -4.642 0.013-9.285 0.024-13.927 0.013-5.024 0.017-10.047 0.022-15.071 5e-3 -1.48 9e-3 -2.959 0.015-4.483 0-0.67 0-0.67-1e-3 -4.056 2e-3 -1.16 4e-3 -2.321 6e-3 -3.517-0.121-2.825-0.121-2.825-1.121-5.825-3.059-1.529-5.947-1.15-9.355-1.174-1.555-0.013-3.11-0.026-4.712-0.04-0.834-5e-3 -1.669-0.011-2.528-0.016-2.605-0.016-5.21-0.039-7.815-0.065-7.408-0.07-14.816-0.131-22.223-0.182-4.528-0.031-9.056-0.073-13.584-0.12-1.729-0.016-3.458-0.028-5.187-0.037-2.413-0.012-4.827-0.037-7.24-0.063-1.375-0.01-2.75-0.021-4.167-0.031-3.189-0.272-3.189-0.272-5.189-2.272-0.194-3.341-0.262-6.599-0.242-9.942-2e-3 -1.032-4e-3 -2.065-6e-3 -3.129-4e-3 -3.425 7e-3 -6.851 0.018-10.277 1e-3 -2.371 2e-3 -4.742 1e-3 -7.113 2e-3 -4.975 0.01-9.949 0.024-14.923 0.017-6.392 0.02-12.784 0.02-19.175 0-4.898 5e-3 -9.795 0.013-14.693 3e-3 -2.357 5e-3 -4.715 6e-3 -7.073 2e-3 -3.287 0.011-6.575 0.021-9.863 0-0.492 0-0.492-1e-3 -2.983 0.041-8.527 0.644-7.941 9.092-7.972z" fill="#000019"/>
<path transform="translate(1398.9 289.38)" d="m0 0c1.194 2e-3 2.388 4e-3 3.618 6e-3 1.37-0.01 2.74-0.019 4.151-0.029 1.508 0.014 3.015 0.029 4.567 0.044 1.584-3e-3 3.168-7e-3 4.8-0.011 4.349-0.01 8.698 0.011 13.047 0.038 4.548 0.024 9.096 0.021 13.644 0.021 7.639 5e-3 15.278 0.029 22.917 0.065 8.835 0.041 17.669 0.059 26.504 0.062 9.399 4e-3 18.799 0.023 28.198 0.048 2.711 6e-3 5.422 9e-3 8.132 0.013 5.05 7e-3 10.099 0.031 15.149 0.057 1.505 1e-3 3.01 2e-3 4.561 2e-3 0.686 5e-3 0.686 5e-3 4.159 0.031 0.598 2e-3 0.598 2e-3 3.62 0.014 3.029 0.26 3.029 0.26 7.029 2.26 2.67 6.31 3.407 11.881 3.813 18.75 0.57 7.552 2.233 13.106 5.801 19.758 2.119 5.337 2.399 10.729 2.716 16.427 0.326 5.335 1.322 9.279 3.67 14.065 3.175 6.471 3.708 12.553 4.172 19.617 0.537 6.794 2.479 11.659 5.465 17.688 1.694 4.59 1.921 8.988 2.176 13.82 0.559 7.878 2.017 13.431 5.808 20.43 2.11 5.271 2.241 10.675 2.622 16.277 0.456 5.866 1.6 9.836 4.586 14.824 2.759 5.518 2.998 12.18 3.332 18.266 0.338 6.151 1.68 10.103 4.632 15.488 2.973 6.378 3.162 13.535 3.457 20.465 0.331 4.833 1.583 8.272 3.688 12.625 2.729 5.833 3.647 11.134 4.062 17.5 0.505 7.686 2.231 13.402 5.621 20.297 2.018 5.417 2.232 10.875 2.622 16.584 0.458 5.852 1.611 9.86 4.586 14.845 3.169 6.149 3.145 13.617 3.484 20.399 0.37 5.281 1.943 8.742 4.48 13.32 3.029 6.41 3.171 13.703 3.52 20.68 0.37 5.281 1.943 8.742 4.48 13.32 3.029 6.41 3.171 13.703 3.52 20.68 0.37 5.275 1.935 8.735 4.476 13.305 2.747 5.828 3.313 12.325 3.024 18.695 0.338 6.996 4.068 12.382 8.187 17.875l-1 4c-4.722-1.181-5.106-2.318-8-6-0.866-0.516-1.732-1.031-2.625-1.563-2.375-1.437-2.375-1.437-4.375-5.437-1.979-1.364-3.982-2.694-6-4-1.666-1.667-3.333-3.334-5-5-1.993-1.343-3.993-2.677-6-4-0.639-0.66-1.278-1.32-1.937-2-2.063-2-2.063-2-5.563-4-3.173-1.813-5.037-3.378-7.5-6-1.031-0.846-2.062-1.691-3.125-2.563-2.875-2.437-2.875-2.437-4.875-5.437-0.391-0.227-0.391-0.227-2.375-1.375-2.966-1.836-4.459-3.918-6.625-6.625-1.655-1.019-3.322-2.018-5-3-1.666-1.667-3.333-3.334-5-5-5.136-4.326-10.393-8.305-16-12-2.962-2.358-5.732-4.726-8.375-7.438-2.625-2.562-2.625-2.562-6.625-5.562-4.205-3.154-7.649-6.575-11.25-10.375-3.055-2.917-6.295-5.436-9.664-7.977-2.086-1.648-2.086-1.648-5.086-4.648-1.093-0.619-2.186-1.238-3.312-1.875-4.616-2.66-8.351-5.753-12.063-9.563-2.625-2.562-2.625-2.562-6.625-5.562-4.229-3.172-7.688-6.618-11.312-10.438-2.688-2.562-2.688-2.562-6.688-5.562-3.353-2.515-6.09-5.016-9-8-5.713-5.826-9.116-6.784-17-7-0.123 0.381-0.123 0.381-0.75 2.312-1.25 2.688-1.25 2.688-5.25 5.688h-2c-0.113 0.371-0.113 0.371-0.687 2.25-1.846 3.867-4.62 4.684-8.313 6.75-1.69 1.979-3.358 3.979-5 6-1.961 1.389-3.961 2.726-6 4-0.845 0.68-1.691 1.361-2.562 2.062-2.438 1.938-2.438 1.938-4.875 3.375-3.129 1.908-5.778 4.185-8.563 6.563-0.866 0.68-1.732 1.361-2.625 2.062-2.375 1.938-2.375 1.938-4.437 4.125-1.938 1.813-1.938 1.813-5.938 2.813-0.247 0.742-0.495 1.485-0.75 2.25-1.901 4.183-5.375 5.436-9.25 7.75l-2.625 2.625c-2.608 2.609-5.095 3.735-8.375 5.375-1.687 1.646-3.354 3.312-5 5-1.666 1-3.333 2-5 3-2.507 2.382-4.872 4.865-7.25 7.375-3.047 2.908-6.268 5.438-9.613 7.992-1.63 1.245-3.233 2.525-4.824 3.82-2.675 2.097-5.486 3.928-8.313 5.813-0.866 0.701-1.732 1.402-2.625 2.125-2.375 1.875-2.375 1.875-6.375 3.875-0.309 0.392-0.309 0.392-1.875 2.375-2.397 2.961-4.969 4.521-8.125 6.625-1.338 1.663-2.671 3.329-4 5-1.655 1.018-3.322 2.018-5 3l-2.5 2.5c-2.393 2.393-4.608 3.795-7.5 5.5-0.639 0.66-1.278 1.32-1.937 2-2.063 2-2.063 2-5.063 3.375-3 1.625-3 1.625-5.062 4.812-0.639 0.928-1.279 1.857-1.938 2.813h-5c-1.095-3.3-1.195-4.602 0.364-7.778 0.321-0.521 0.321-0.521 1.949-3.16 3.946-7.377 4.671-13.947 4.98-22.158 0.305-6.567 1.759-11.012 4.707-16.904 2.403-4.876 2.509-9.848 2.875-15.188 0.698-8.642 2.244-15.123 6.196-22.925 1.376-4.273 1.499-8.625 1.804-13.075 0.698-8.639 2.241-15.118 6.192-22.918 1.659-5.142 1.696-10.604 2.056-15.97 0.566-7.103 2.374-12.827 5.502-19.272 1.772-4.707 2.063-9.101 2.375-14.09 0.495-7.875 1.595-14.394 5.625-21.379 1.994-4.615 2.083-9.14 2.375-14.121 0.395-6.701 0.995-11.944 4-18.062 2.704-6.292 3.575-11.759 4-18.5 0.496-7.856 1.611-14.357 5.629-21.324 2.318-5.369 2.16-11.073 2.455-16.858 0.455-6.669 1.96-11.321 4.916-17.318 2.533-6.187 2.683-12.62 3.123-19.213 0.547-6.863 2.431-11.891 5.514-18.065 1.757-4.797 1.921-9.218 2.176-14.285 0.558-8.247 2.082-14.284 5.801-21.73 2.104-5.625 2.398-11.285 2.716-17.25 0.414-7.086 2.262-12.54 5.327-18.887 2.141-5.69 1.817-11.37 1.937-17.39 0.488-5.016 0.942-8.653 6.31-9.801zm73.096 103.62c-2.018 5.788-2.163 11.074-2 17.125 0.119 10.499-0.177 19.959-4.5 29.687-3.045 7.272-3.36 14.557-3.691 22.347-0.381 7.249-2.039 13.15-4.809 19.841-2.726 6.749-2.7 13.781-3.123 20.971-0.557 7.996-2.257 14.353-5.502 21.716-3.372 10.579-3.166 23.31-2.375 34.313 2.711 2.711 4.169 2.27 7.963 2.306 1.252 0.016 2.503 0.032 3.792 0.049 1.359 5e-3 2.717 0.01 4.116 0.016 1.389 9e-3 2.777 0.018 4.208 0.027 2.941 0.015 5.883 0.024 8.824 0.027 4.513 0.012 9.024 0.061 13.537 0.112 2.852 9e-3 5.704 0.017 8.556 0.021 1.357 0.02 2.713 0.039 4.11 0.06 1.255-6e-3 2.51-0.013 3.802-0.019 1.107 5e-3 2.213 0.01 3.353 0.016 2.739-0.615 2.739-0.615 4.609-2.882 1.691-4.089 1.277-7.595 1.005-11.983-0.085-1.614-0.17-3.228-0.257-4.891-0.805-6.333-2.733-11.802-5.247-17.648-2.117-6.504-2.148-13.041-2.455-19.836-0.434-7.207-1.903-12.834-4.916-19.375-2.439-5.845-2.429-11.627-2.75-17.875-0.477-7.573-1.155-14.04-4.25-21.063-3.522-8.078-3.95-15.877-4.33-24.578-0.439-9.317-1.251-21.242-7.67-28.484-3.528-0.595-6.384-0.333-10 0z" fill="#000019"/>
<path transform="translate(1481,628)" d="m0 0c3 2.312 3 2.312 6 5 0.866 0.516 1.733 1.031 2.625 1.562 2.545 1.541 4.279 3.342 6.375 5.438 0.412 0.237 0.412 0.237 2.5 1.438 2.5 1.562 2.5 1.562 4.438 4 2.371 2.945 4.907 4.501 8.062 6.562 2.549 2.424 4.953 4.95 7.375 7.5 2.625 2.5 2.625 2.5 6.187 5 3.438 2.5 3.438 2.5 5.376 5 2.829 3.43 6.268 5.224 10.062 7.5 1.682 1.314 3.348 2.648 5 4 0.412 0.324 0.412 0.324 2.5 1.965 9.096 7.177 9.096 7.177 12.5 11.035v2c0.928 0.247 1.856 0.495 2.812 0.75 3.188 1.25 3.188 1.25 6.188 5.25v2c0.66 0.227 1.32 0.454 2 0.688 3.531 1.544 5.983 3.805 8.82 6.374 4.565 4.058 9.398 7.761 14.492 11.126 2.579 1.738 4.499 3.623 6.688 5.812 0.846 0.474 1.691 0.949 2.562 1.438 2.438 1.562 2.438 1.562 3.938 4.124 1.5 2.438 1.5 2.438 4 3.438 3.279 1.311 3.722 3.012 5.5 6 1.973 1.373 3.975 2.704 6 4l5 5c1.994 1.343 3.993 2.677 6 4 0.639 0.66 1.279 1.32 1.938 2 2.062 2 2.062 2 5.562 4 3.173 1.813 5.037 3.378 7.5 6 1.031 0.846 2.062 1.691 3.125 2.562 2.875 2.438 2.875 2.438 4.875 5.438 0.784 0.454 1.568 0.908 2.375 1.375 2.966 1.836 4.459 3.918 6.625 6.625 1.655 1.019 3.323 2.018 5 3l5 5c5.136 4.326 10.393 8.305 16 12 2.963 2.358 5.732 4.725 8.375 7.438 2.625 2.562 2.625 2.562 6.625 5.562 4.205 3.154 7.649 6.574 11.25 10.375 3.055 2.916 6.295 5.435 9.664 7.977 2.086 1.648 2.086 1.648 5.086 4.648 0.908 0.433 1.815 0.866 2.75 1.312 6.135 3.186 13.999 8.936 16.25 15.688 0.866 0.268 1.733 0.536 2.625 0.812 5.563 1.958 9.266 6.079 13.375 10.188l-1 3h-587l-1-5c1.444-0.681 2.888-1.361 4.375-2.062 7.736-3.874 14.742-8.551 20.625-14.938 3.68-3.884 7.622-7.128 11.863-10.367 1.63-1.246 3.234-2.526 4.825-3.821 2.674-2.096 5.485-3.927 8.312-5.812 0.866-0.701 1.733-1.403 2.625-2.125 2.375-1.875 2.375-1.875 6.375-3.875 0.619-0.784 1.237-1.567 1.875-2.375 2.397-2.961 4.969-4.521 8.125-6.625 1.338-1.663 2.672-3.329 4-5 1.655-1.019 3.323-2.018 5-3l2.438-2.438c2.692-2.692 5.357-4.506 8.562-6.562 5.469-3.667 10.398-7.262 15-12l4-2 2.5-3c2.5-3 2.5-3 6.5-5 0.32-0.402 0.32-0.402 1.938-2.438 2.159-2.682 4.001-4.032 7.062-5.562h2l2-4c2.234-1.262 4.471-2.52 6.75-3.699 2.89-1.671 4.935-3.919 7.25-6.301l4-1c0.309-0.784 0.619-1.567 0.938-2.375 1.353-3.344 2.861-4.104 6.062-5.625h2c0.282-0.762 0.565-1.524 0.855-2.309 1.356-3.187 2.532-3.988 5.457-5.753 3.424-2.139 6.549-4.393 9.688-6.938 2-1.333 4-2.667 6-4 2.643-1.998 5-4 7.312-6.375 3.315-3.238 6.983-5.846 10.688-8.625 0.784-0.784 1.568-1.567 2.375-2.375 5.607-5.607 11.992-10.306 18.625-14.625 0.866-0.701 1.733-1.403 2.625-2.125 2.375-1.875 2.375-1.875 6.375-3.875 0.619-0.784 1.237-1.567 1.875-2.375 2.397-2.961 4.969-4.521 8.125-6.625 1.338-1.663 2.672-3.329 4-5 1.655-1.019 3.323-2.018 5-3l2.438-2.438c2.688-2.688 5.345-4.544 8.562-6.562 0.345-0.224 0.345-0.224 2.09-1.359 5.655-3.641 5.655-3.641 7.91-3.641l2-4c3-3 3-3 7-5 0.804-0.969 1.609-1.939 2.438-2.938 2.465-2.946 4.299-4.186 7.562-6.062 1.688-1.645 3.354-3.313 5-5 5.333-5 5.333-5 11-5z" fill="#000019"/>
<path transform="translate(1477,411)" d="m0 0c4 2 4 2 5.688 5.91 1.612 5.448 1.984 10.879 2.312 16.528 0.531 9.103 2.025 16.914 5.602 25.332 2.308 6.983 2.501 14.221 3.039 21.525 0.673 7.548 2.318 13.604 5.232 20.582 1.763 4.884 2.034 9.658 2.252 14.811 0.447 8.936 1.621 16.636 5.563 24.812 1.766 4.712 1.518 8.486 1.312 13.5-4 1-4 1-7 0-3.098-0.098-6.172-0.14-9.27-0.133-0.456 0-0.456 0-2.768-3e-3 -1.935 0-3.869 1e-3 -5.803 6e-3 -2.95 5e-3 -5.899 0-8.848-7e-3 -1.881 1e-3 -3.762 2e-3 -5.643 4e-3 -0.878-2e-3 -1.757-4e-3 -2.662-6e-3 -4.456 0.017-8.622 0.393-13.006 1.139l-2-1c-0.585-9.12 1.064-16.458 4.055-25.02 2.531-7.491 3.348-14.239 3.679-22.128 0.449-6.512 2.1-12.573 4.282-18.707 2.782-8.027 3.696-15.664 4.125-24.103 0.364-5.75 1.476-10.379 3.824-15.649 2.107-4.871 3.291-9.259 3.633-14.561 0.079-1.14 0.158-2.28 0.24-3.455 0.074-1.176 0.148-2.353 0.224-3.565 0.155-2.347 0.312-4.695 0.473-7.042 0.033-0.518 0.033-0.518 0.2-3.138 0.265-2.632 0.265-2.632 1.265-5.632z" fill="#FAE100"/>
<path transform="translate(1987,324)" d="m0 0 4 1 1 3c0.99 0.33 1.98 0.66 3 1v4h-15c1.233-4.933 2.874-6.169 7-9z" fill="#FAE100"/>
<path transform="translate(1963,305)" d="m0 0h3v21l-5-1c-0.054-2.959-0.094-5.916-0.125-8.875-0.023-1.647-0.046-3.295-0.07-4.992 0.195-4.133 0.195-4.133 2.195-6.133z" fill="#000019"/>
<path transform="translate(1979,308)" d="m0 0c4 2 4 2 6 5l4 1c-1.148 4.591-2.471 5.964-6 9l-4 1v-16z" fill="#000019"/>
<path transform="translate(2002,307)" d="m0 0 4 1v16l-4 1c-3.207-6.413-2.176-11.335 0-18z" fill="#FAE100"/>
<path transform="translate(1997,290)" d="m0 0 1 4c-7.09 1.533-14.444 2.278-21-1l2-3c2.75-0.258 2.75-0.258 6-0.125 4.486 0.162 7.756-0.936 12 0.125z" fill="#000019"/>
<path transform="translate(1971,307)" d="m0 0h3v18l-4-1c-0.027-2.646-0.046-5.292-0.062-7.938-0.012-1.473-0.024-2.946-0.036-4.464 0.098-3.598 0.098-3.598 1.098-4.598z" fill="#FAE100"/>
<path transform="translate(2011,307)" d="m0 0c0.99 0.33 1.98 0.66 3 1v16h-3v-17z" fill="#000019"/>
<path transform="translate(1988.6 338.44)" d="m0 0c1.374 0.102 2.748 0.204 4.164 0.309 1.06 0.083 2.119 0.167 3.211 0.253-0.33 0.991-0.66 1.981-1 3h-15l-1-3c3.162-1.58 6.145-0.827 9.625-0.562z" fill="#000019"/>
<path transform="translate(1994,299)" d="m0 0h2v3c-0.784 0.041-1.568 0.082-2.375 0.125-0.433 0.144-0.433 0.144-2.625 0.875-1.312 3.062-1.312 3.062-2 6h-3l-1-5c1.299-0.639 2.599-1.279 3.938-1.938 4.062-2.062 4.062-2.062 5.062-3.062z" fill="#FAE100"/>
<path transform="translate(1994,307)" d="m0 0h4l-1 4-4 1 1-5z" fill="#000019"/>
<path transform="translate(2003,330)" d="m0 0h3l-1 4h-3l1-4z" fill="#000019"/>
<path transform="translate(2002,298)" d="m0 0h4v3l-4-1v-2z" fill="#000019"/>
</svg>
