<?xml version="1.0" encoding="UTF-8"?>
<svg version="1.1" viewBox="0 0 2744 1144" xmlns="http://www.w3.org/2000/svg">
<path transform="translate(1296.2 184.44)" d="m0 0c4.4 2.993 5.612 7.581 6.75 12.562 0.423 4.577 0.42 9.126 0.398 13.719 2e-3 0.66 2e-3 0.66 0.013 3.999 6e-3 4.261-0.013 8.521-0.036 12.782-4e-3 1.447-7e-3 2.894-0.011 4.385-0.076 25.577-1.549 50.493-5.306 75.799-1.129 7.934-1.639 15.884-2.12 23.879-0.041 0.664-0.041 0.664-0.243 4.026-0.079 1.304-0.157 2.607-0.238 3.951-0.837 13.897-1.844 27.333-5.508 40.832-2.463 9.415-3.214 18.916-3.703 28.609-0.246 3.019-0.246 3.019-1.246 5.019 7.36-3.039 14.438-6.394 21.188-10.624 3.812-2.375 3.812-2.375 7.5-3.938 3.312-1.438 3.312-1.438 5.624-3.375 3.252-2.496 6.532-3.627 10.344-5.063 2.344-1 2.344-1 4.844-3 2.496-1.996 4.409-2.828 7.375-3.937 3.435-1.289 5.644-2.436 8.687-4.625 3.977-2.82 7.828-3.923 12.438-5.438 0.39-0.318 0.39-0.318 2.363-1.929 2.967-2.33 5.65-3.387 9.199-4.633 4.236-1.493 6.774-2.689 10.438-5.438 1.936-0.709 3.898-1.351 5.875-1.937 3.486-1.103 6.027-1.996 9.063-4.063 4.076-2.662 8.314-3.658 12.968-5 3.094-1 3.094-1 6.532-3 4.48-2.515 8.989-3.599 13.933-4.925 3.437-1.018 6.601-2.257 9.879-3.699 3.626-1.586 6.91-2.724 10.812-3.376 3.706-0.62 6.582-1.689 9.938-3.374 6.355-3.088 12.962-4.244 19.848-5.657 3.268-0.762 5.773-1.517 8.714-3.031 5.583-2.438 11.012-3.137 17.004-4.094 4.163-0.792 7.933-1.904 11.934-3.281 7.952-2.64 15.916-3.916 24.193-5.043 5.558-0.788 10.762-1.892 16.131-3.547 7.422-2.21 14.664-2.91 22.364-3.473 10.547-0.885 20.672-2.171 30.964-4.632 18.305-4.126 38.103-3.02 56.774-3 2.363-1e-3 4.727-2e-3 7.09-3e-3 4.929-2e-3 9.858 0 14.787 5e-3 6.221 6e-3 12.442 2e-3 18.664-3e-3 24.255-0.019 48.482-6e-3 72.72 1.021 32.625 1.305 32.625 1.305 42.813-7.888 0.908-0.35 1.815-0.701 2.75-1.062 2.25-0.938 2.25-0.938 4.25-4.938 1.551-1.534 3.162-3.009 4.812-4.437 3.535-3.074 6.898-6.228 10.188-9.563 0.509-0.503 0.509-0.503 3.086-3.05 7.05-6.992 13.684-14.074 20.039-21.7 2.5-2.825 4.903-4.964 7.875-7.25 0.733-0.751 1.467-1.503 2.223-2.277 3.05-2.99 6.27-5.552 9.652-8.16 7.689-5.977 7.689-5.977 10.937-8.813 5.771-4.978 11.284-9.455 18.188-12.75 0.743-0.639 1.485-1.278 2.25-1.937 3.292-2.469 6.587-3.669 10.445-5.035 2.305-1.027 2.305-1.027 5.305-4.028 2.391-0.808 2.391-0.808 5.25-1.437 4.679-1.066 9.266-2.287 13.875-3.625 21.748-5.764 41.894-3.874 63.369 1.463 3.481 0.833 6.991 1.491 10.506 2.162 4.87 1.021 7.95 2.492 12 5.437 1.591 0.502 3.198 0.956 4.812 1.376 4.741 1.297 8.192 3.377 12.168 6.218 2.02 1.406 2.02 1.406 5.082 2.906 4.003 2.045 7.428 4.724 10.938 7.5 0.619 0.475 0.619 0.475 3.75 2.876 5.246 5.044 8.007 10.962 8.562 18.187-0.426 6.732-2.163 12.283-6.437 17.563-1.875 1.374-1.875 1.374-3.875 1.374l-2 4c-1.658 1.345-3.326 2.677-5 4-0.804 0.991-1.609 1.981-2.438 3-2.562 3.001-2.562 3.001-5.332 4.829-3.515 2.363-6.411 5.004-9.48 7.921-12.588 11.769-12.588 11.769-19.391 15.825-2.359 1.425-2.359 1.425-4.609 3.675-10.662 10.662-10.662 10.662-18.125 10.876-11.453-1.346-20.298-12.482-28.238-19.977-6.93-6.442-14.249-12.196-22.055-17.531-2.164-1.501-4.249-3.069-6.332-4.68-3.752-2.755-7.542-5.148-11.555-7.492-2.227-1.317-4.402-2.721-6.57-4.133-3.877-2.314-7.639-3.785-11.875-5.313-0.392-0.278-0.392-0.278-2.375-1.687-4.109-2.055-8.121-1.855-12.625-1.313-6.783 2.802-10.43 9.676-13.539 16.012-4.091 11.167-6.053 24.106-5.461 35.988 2.505 5.311 5.695 7.613 11 10 7.672 1.411 15.423 1.091 23.191 1.028 2.996-0.013 5.991-0.025 8.987-0.037 4.702-0.025 9.405-0.053 14.108-0.086 4.552-0.031 9.103-0.048 13.655-0.065 1.405-0.013 2.809-0.027 4.256-0.04 1.315-4e-3 2.63-7e-3 3.985-0.011 1.15-7e-3 2.301-0.015 3.486-0.022 5.286 0.371 9.177 1.229 13.207 4.733 2.697 4.443 3.386 8.391 3.125 13.5-1.622 6.393-4.56 10.206-9 15-0.361 0.475-0.361 0.475-2.188 2.876-6.432 7.147-14.459 12.714-22.257 18.281-2.253 1.626-4.435 3.313-6.617 5.031-3.75 2.678-7.381 4.7-11.528 6.664-2.032 0.968-4.01 2.047-5.972 3.148-13.903 6.266-26.82 7.716-41.925 8.368-1.3 0.058-2.599 0.116-3.939 0.175-1.169 0.042-2.339 0.083-3.544 0.126-3.03 0.331-3.03 0.331-7.03 2.331-1.868 3.737-0.985 8.364-0.879 12.481 0.05 2.324 0.099 4.647 0.147 6.971 0.014 0.627 0.014 0.627 0.085 3.802 0.575 26.67 0.79 53.339 0.825 80.014 5e-3 3.838 0.015 7.677 0.03 11.515 0.017 4.593 0.023 9.187 0.021 13.781 1e-3 2.488 0.012 4.976 0.023 7.465-0.035 18.025-2.293 35.734-5.002 53.534-0.129 0.847-0.257 1.694-0.39 2.567-1.914 12.442-4.465 24.07-8.86 35.87-0.723 2.392-1.432 4.788-2.125 7.188-1.494 4.904-3.518 9.251-5.875 13.812-0.237 0.743-0.237 0.743-1.438 4.5-1.64 4.724-3.872 8.302-6.562 12.5-0.66 1.486-1.32 2.971-2 4.5-2.435 5.479-5.504 10.307-8.875 15.25-2.627 4.018-4.979 8.172-7.344 12.348-1.742 2.839-3.669 5.332-5.781 7.902-0.66 1.011-1.32 2.022-2 3.063-1.835 2.696-3.707 4.645-6 6.937-1.292 1.567-2.562 3.151-3.812 4.75-8.136 10.261-16.708 19.341-27.188 27.25-0.825 0.66-1.65 1.321-2.5 2-6.997 5.598-14.107 10.935-21.5 16-0.718 0.505-1.436 1.009-2.176 1.528-6.323 4.358-13.017 7.93-19.824 11.472-1.382 0.722-2.764 1.444-4.188 2.188-3.752 1.784-7.531 3.322-11.417 4.785-2.395 1.027-2.395 1.027-4.7 2.492-3.423 1.95-6.855 2.929-10.633 4.035-7.496 2.201-7.496 2.201-11.019 4.067-3.907 1.841-7.517 2.291-11.793 2.871-8.216 1.174-16.213 2.799-24.297 4.695-18.103 3.972-39.09 3.658-56.394-3.199-2.559-0.934-2.559-0.934-7.247-1.871-4.912-1.21-8.098-3.297-12.312-6.063-1.485-0.639-2.97-1.278-4.5-1.937-4.728-2.167-8.47-4.851-12.5-8.063-1.003-0.756-2.006-1.513-3.039-2.292-10.847-8.193-20.963-16.592-29.086-27.582-3.038-3.444-5.708-3.993-10.187-4.5-4.56 0.463-7.688 2.205-11.688 4.374h-2c-0.66 1.321-1.32 2.64-2 4-1.993 1.344-3.994 2.676-6 4-0.577 0.784-1.155 1.568-1.75 2.376-5.612 6.547-14.844 10.068-22.367 14.011-2.883 1.613-2.883 1.613-6.883 4.613-1.604 0.697-3.231 1.341-4.875 1.938-3.042 1.166-5.393 2.241-8.125 4.062-3.339 2.227-6.629 3.511-10.363 4.934-2.615 1.057-5.073 2.266-7.575 3.566-4.417 2.275-8.901 3.955-13.617 5.508-2.445 0.992-2.445 0.992-6.445 3.992-2.039 0.718-4.105 1.358-6.188 1.938-5.543 1.619-10.574 3.651-15.812 6.062-4.816 1.204-9.444 1.301-14.375 1.376-0.467 0.018-0.467 0.018-2.828 0.113-4.755 0.06-7.163-0.082-11.258-2.707-21.442-23.488-11.628-72.901-10.846-102.35 0.079-3.008 0.154-6.016 0.225-9.025 0.363-14.991 0.879-29.667 3.42-44.46 0.813-4.846 1.098-9.474 1.224-14.383 0.204-7.041 0.6-14.045 1.15-21.068 1.305-16.9 1.756-33.777 1.976-50.723 0.063-4.653 0.146-9.305 0.23-13.957 0.044-2.986 0.087-5.973 0.129-8.959 0.026-1.377 0.052-2.754 0.078-4.173 0.159-14.876 0.159-14.876-3.625-21.183-4.092-2.455-7.955-2.337-12.5-1.5-4.205 1.667-8.093 3.729-12 6-0.838 0.479-1.676 0.957-2.539 1.45-11.458 7.22-22.766 17.38-30.75 28.304-1.952 2.563-4.083 4.885-6.273 7.246-3.389 3.716-6.272 7.477-8.973 11.711-1.612 2.52-3.308 4.967-5.027 7.415-0.586 0.834-1.171 1.668-1.774 2.527-1.434 2.023-2.891 4.031-4.352 6.035-2.329 3.337-4.308 6.773-6.312 10.312-0.495 0.66-0.495 0.66-3 4-0.66 1.341-1.32 2.682-2 4.063-2 3.937-2 3.937-5 6.937-1.027 2.672-1.027 2.672-1.938 5.75-1.047 3.536-2.064 6.254-4.062 9.376-2.713 5.256-3.298 10.304-4.062 16.124-0.331 2.342-0.661 4.683-0.993 7.024-0.158 1.147-0.316 2.294-0.479 3.476-0.407 2.835-0.857 5.655-1.349 8.477-3.672 21.211-3.352 42.78-3.669 64.247-0.551 36.396-0.551 36.396-5.448 41.526-6.232 5.663-12.553 10.111-20 14-1.052 0.702-2.104 1.403-3.188 2.126-2.812 1.874-2.812 1.874-5.874 3.374-2.938 1.5-2.938 1.5-5.188 3.438-3.271 2.454-6.539 3.63-10.344 5.062-2.406 1-2.406 1-5.344 3-3.636 2.375-7.282 3.581-11.371 4.989-3.464 1.302-6.53 3.101-9.691 5.011-4.252 1.418-8.567 1.414-13 1-5.069-2.534-5.204-3.69-7-9-2.309-8.116-3.095-14.94-2.329-23.323 2.272-25.38 3.321-51.068 3.517-76.551 6e-3 -0.489 6e-3 -0.489 0.039-2.959 9e-3 -6.813 9e-3 -6.813-2.227-10.167-3.25-0.25-3.25-0.25-7 1-2.391 2.767-4.133 5.867-6 9-3.305 4.297-6.801 7.589-11 11-1.688 1.645-3.354 3.314-5 5-4.176 4.252-8.399 8.218-13 12-0.612 0.621-1.225 1.241-1.855 1.879-2.314 2.289-4.742 4.322-7.27 6.371-0.969 0.787-1.939 1.573-2.937 2.383-0.97 0.781-1.939 1.563-2.938 2.367-0.866 0.699-1.733 1.398-2.625 2.118-9.629 7.733-19.161 14.992-29.793 21.304-2.456 1.501-4.832 3.079-7.207 4.704-3.952 2.683-8.102 4.738-12.375 6.874-0.99 0.991-1.98 1.981-3 3-2.488 1.028-2.488 1.028-5.312 1.938-3.29 1.128-5.691 2.065-8.563 4.062-4.026 2.577-8.121 3.625-12.711 4.876-3.414 1.124-3.414 1.124-7.184 3.121-4.864 2.304-9.267 3.222-14.542 4.066-0.48 0.081-0.48 0.081-2.905 0.491-1.97 0.331-3.942 0.657-5.914 0.976-2.684 0.44-5.36 0.909-8.037 1.388-17.724 3.052-36.679 3.487-53.832-2.918 1.267-4.082 2.806-7.73 4.812-11.5 6.517-12.825 10.604-25.688 10.188-40.124-0.421-14.724-0.421-14.724 4.82-20.465 1.091-0.94 2.181-1.88 3.305-2.848 1.096-0.958 2.191-1.916 3.32-2.902 0.843-0.713 1.686-1.426 2.555-2.161-6.634 5.724-6.634 5.724-9.812 8.126-2.86 2.45-4.079 4.748-4.443 8.509-6e-3 0.986-0.012 1.971-0.018 2.987-0.018 1.094-0.036 2.188-0.054 3.315-0.016 1.156-0.032 2.311-0.048 3.501-0.247 9.548-1.122 17.618-4.625 26.562-0.656 2.268-1.302 4.539-1.938 6.813-1.666 5.445-3.856 9.501-7.062 14.187-0.237 0.547-0.237 0.547-1.438 3.313-1.985 3.415-4.087 3.95-7.562 5.687-1.016 1.993-2.018 3.992-3 6h-4c1.32 0.66 2.64 1.321 4 2 0.557 0.64 1.114 1.279 1.688 1.938 2.75 2.454 5.472 3.171 8.957 4.223 3.799 1.354 6.979 3.658 10.355 5.839 1.553 0.79 3.116 1.56 4.688 2.313 5.22 2.551 10.09 5.562 15.011 8.645 3.129 1.936 6.294 3.78 9.489 5.605 4.597 2.663 8.947 5.536 13.261 8.633 2.746 1.942 5.547 3.779 8.363 5.617 10.194 6.765 19.671 14.514 29.188 22.187 2.541 2.038 5.086 4.068 7.648 6.079 5.776 4.6 10.629 9.254 15.352 14.921 0.804 0.805 1.609 1.609 2.438 2.438 0.845 0.846 1.691 1.691 2.562 2.562 0.338 0.329 0.338 0.329 2.051 1.989 3.658 3.762 6.37 6.62 7.074 11.949-0.125 4.062-0.125 4.062-2.125 6.062-11.241-0.932-21.983-5.011-32-10-1.283-0.634-2.565-1.268-3.887-1.921-4.044-2.013-8.079-4.045-12.113-6.079-1.729-0.854-3.458-1.709-5.188-2.562-13.415-6.719-26.229-14.28-38.812-22.438-0.59-0.382-0.59-0.382-3.574-2.316-7.391-4.853-14.493-9.929-21.446-15.391-2.604-2.003-5.246-3.849-7.98-5.667-5.409-3.715-10.036-8.187-14.809-12.672-11.335-10.49-11.335-10.49-17.191-11.954-1.75-3.062-1.75-3.062-3-6-0.33 0.331-0.66 0.66-1 1 0.66 0.991 1.32 1.981 2 3-1.98 0.66-3.96 1.321-6 2-1-4-1-4 0-8-0.438-2.75-0.438-2.75-1-5-4.331-0.38-8.663-0.698-13-1-0.973-0.091-1.946-0.183-2.949-0.277-2.613-0.16-2.613-0.16-7.051 0.277-3.474 3.559-4.903 7.047-5 12 0.912 3.028 1.913 6.031 3 9 0.372 1.659 0.729 3.323 1 5-2 0.813-2 0.813-5 1-4.256-2.287-7.301-3.952-10-8-0.916-7.259 0.486-13.163 3-20 1.777-6.109 0.24-9.127-2.652-14.46-3.814-7.186-5.083-13.557-4.348-21.54 1.938-2.937 1.938-2.937 4-5 1.561-4.683 1.963-9.134 1-14-3.5-3.062-3.5-3.062-5.719-4.429-4.331-2.982-7.181-7.383-10.281-11.571-0.706-0.95-1.413-1.9-2.141-2.878-3.403-4.633-6.722-9.303-9.859-14.122-0.32-0.453-0.32-0.453-1.938-2.75-2.232-3.517-4.03-7.123-5.816-10.882-1.246-2.368-1.246-2.368-4.246-6.368v-2c1.4-0.398 2.8-0.796 4.242-1.207 1.878-0.535 3.755-1.07 5.633-1.605 0.918-0.261 1.836-0.522 2.781-0.791 6.131-1.748 12.242-3.553 18.344-5.397-7.274 1.07-14.015 2.9-21 5.126-6.368 2.016-11.838 3.214-18.52 2.769-4.115 0.175-7.455 2.025-11.148 3.738-5.13 2.105-10.458 3.192-15.863 4.375-3.469 0.992-3.469 0.992-7.469 3.992-3.926 1.08-7.876 1.902-11.859 2.743-4.141 1.257-4.141 1.257-7.871 3.754-5.542 3.249-10.531 3.895-16.832 4.691-1.156 0.159-2.312 0.319-3.503 0.483-2.285 0.314-4.572 0.62-6.859 0.918-2.557 0.342-5.107 0.734-7.654 1.138-11.892 1.866-22.379 0.728-34.055-1.977-3.116-0.694-6.212-1.208-9.367-1.687-4.516-0.804-7.337-2.213-11-5.063-1.279-0.742-2.558-1.485-3.875-2.25-8.802-5.868-16.787-14.334-19.697-24.807-0.622-4.276-0.611-8.541-0.631-12.853-6e-3 -0.963-0.012-1.926-0.017-2.919-0.01-2.038-0.016-4.076-0.02-6.115-0.01-3.083-0.041-6.166-0.072-9.249-0.055-9.98-0.029-19.272 3.312-28.807 0.388-1.232 0.776-2.464 1.176-3.734 2.517-6.679 5.233-11.796 9.824-17.266 0.701-1.01 1.403-2.021 2.125-3.062 0.619-0.639 1.237-1.279 1.875-1.938 1.32 0.33 2.64 0.661 4 1-0.347 4.169-1.002 7.004-2.938 10.75-7.904 16.288-6.846 41.12-3.062 58.25 3.359 8.904 7.055 16.548 15 22 0.495 0.496 0.495 0.496 3 3 2.092 1.265 4.222 2.468 6.375 3.626 1.121 0.611 2.243 1.222 3.398 1.851 7.931 3.745 16.702 2.707 25.289 2.711 1.547 0.012 3.093 0.024 4.686 0.037 12.322 0.016 22.238-0.545 33.252-6.225 1.907-0.498 3.825-0.953 5.75-1.374 5.587-1.283 10.132-3.475 15.176-6.145 4.2-2.023 8.507-3.265 12.98-4.543 2.844-0.862 5.493-1.889 8.219-3.062 4.482-1.903 8.794-2.603 13.625-3.09 0.743-0.259 1.485-0.519 2.25-0.786 1.152-2.554 1.152-2.554 2-5 2.562-0.187 2.562-0.187 6 0 3.01-0.617 6.013-1.275 9-2-0.915 0.084-1.83 0.168-2.773 0.254-1.189 0.102-2.377 0.204-3.602 0.309-1.183 0.104-2.367 0.209-3.586 0.316-3.039 0.121-3.039 0.121-5.039-0.879-0.566-2.103-1.027-4.235-1.438-6.374-0.845-4.358-1.834-8.587-3.089-12.84-1.653-5.971-2.21-11.806-2.598-17.973-0.04-0.563-0.04-0.563-0.24-3.413-0.577-8.52-0.951-17.043-1.234-25.577-0.21-5.79-0.649-11.497-1.285-17.255-1.41-13.086-0.579-25.586 0.574-38.668 0.449-5.65 0.727-11.306 1.018-16.967 0.971-18.724 3.116-36.354 7.397-54.636 0.857-4.112 1.361-8.119 1.77-12.297 0.839-7.623 3.116-14.34 5.68-21.542 1.384-4.268 2.27-8.35 3.007-12.77 1.052-6.276 2.813-11.727 5.247-17.59 1.198-3.117 2.008-6.157 2.753-9.41 1.171-5.028 3.123-9.058 5.438-13.688 1.327-4.034 2.548-8.095 3.777-12.16 1.433-4.498 3.217-8.57 5.223-12.84 0.676-1.683 1.342-3.371 2-5.062 1.758-4.449 3.833-8.671 6-12.938 0.673-1.538 1.34-3.08 2-4.624 1.743-3.814 3.653-6.928 6-10.376 1.35-2.658 2.683-5.325 4-8 3.031-5.555 6.461-10.762 10-16 0.474-0.721 0.949-1.443 1.438-2.187 5.702-8.678 11.72-16.993 18.562-24.813 1.327-1.661 2.652-3.324 3.977-4.988 5.127-6.276 10.711-11.995 16.461-17.699 0.486-0.49 0.486-0.49 2.947-2.971 5.907-5.891 11.996-11.268 18.615-16.342 0.94-0.754 1.879-1.508 2.848-2.285 1.568-1.258 3.138-2.513 4.711-3.765 1.603-1.28 3.2-2.569 4.789-3.867 4.664-3.753 9.235-6.464 14.652-9.083 0.413-0.329 0.413-0.329 2.5-2 3.242-2.593 6.781-4.168 10.5-6 0.495-0.34 0.495-0.34 3-2.062 3.509-2.267 7.095-3.473 11-4.938 0.949-0.659 1.898-1.319 2.875-2 3.49-2.233 6.62-3.079 10.582-4.156 2.543-0.844 2.543-0.844 6.543-3.281 5.757-3.421 12.167-4.281 18.66-5.59 3.493-0.783 6.397-1.686 9.652-3.097 24.067-9.215 75.767-11.068 99.622-0.586 2.769 1.465 5.414 3.044 8.066 4.71 1.382 0.784 2.764 1.568 4.188 2.376 7.715 5.312 12.897 11.737 17.812 19.624 0.701 1.032 1.403 2.063 2.125 3.126 2.102 3.222 4.012 6.508 5.875 9.874 0.258 0.465 0.258 0.465 1.562 2.813 1.531 3.393 2.54 6.742 3.497 10.332 0.941 2.855 0.941 2.855 2.886 6.781 2.809 6.22 3.534 12.741 4.493 19.45 0.416 2.751 0.835 5.503 1.257 8.253 0.212 1.388 0.424 2.775 0.642 4.204 1.222 7.684 2.683 15.322 4.139 22.964 0.1 0.527 0.1 0.527 0.606 3.192 0.089 0.461 0.089 0.461 0.538 2.798 0.38 2.213 0.38 2.213 0.38 4.213h7c0.049-0.888 0.098-1.776 0.148-2.691 0.21-3.576 0.443-7.15 0.685-10.724 0.115-1.774 0.219-3.55 0.314-5.326 0.732-13.536 2.695-24.628 7.853-37.259 0.538-1.661 1.062-3.327 1.562-5 8.012-22.292 25.962-38.907 45.286-51.558 1.928-1.292 3.795-2.674 5.652-4.066 2.786-1.891 5.139-3.187 8.188-4.5 4.312-1.875 4.312-1.875 8.312-4.876 10.668-3.962 24.776-7.646 35.25-1.562zm-289.25 60.562c-1.485 0.64-2.97 1.279-4.5 1.938-4.72 2.163-7.708 4.546-11.5 8.062-1.331 1.149-2.664 2.295-4 3.438-14.814 13.016-26.808 28.745-37 45.562-0.58 0.929-1.16 1.857-1.758 2.813-2.9 4.757-5.443 9.17-6.93 14.563-1.312 4.624-1.312 4.624-3.238 7.339-2.562 4.058-3.459 7.812-4.574 12.473-1.301 5.306-2.63 10.49-4.688 15.562-2.052 5.286-2.537 10.51-3.155 16.119-0.648 4.077-1.725 7.603-3.091 11.491-2.839 8.839-3.868 17.485-4.691 26.703-1.619 17.194-1.619 17.194-3.418 25.551-1.653 7.824-2.255 15.534-2.645 23.512-0.078 1.556-0.157 3.113-0.239 4.717-3.858 82.853-3.858 82.853 4.427 114.53 1.321 6.11 1.85 12.22 2.438 18.437 0.813 8.347 1.834 15.605 5.378 23.293 1.414 3.456 1.997 6.779 2.622 10.457 1.126 6.219 3.063 11.116 6.078 16.645 1.444 2.717 2.581 5.418 3.672 8.292 1.812 4.5 1.812 4.5 4.812 8.5 1.816 3.031 2.83 5.585 4 9-1.25 2.626-1.25 2.626-4 5-0.619 0.537-0.619 0.537-3.75 3.25-0.686 0.584-1.372 1.168-2.078 1.77-3.702 3.376-6.925 7.173-10.172 10.98 3 0 3 0 4.945-1.906 0.72-0.856 1.439-1.712 2.18-2.594 3.755-4.345 7.68-8.083 12.125-11.71 1.75-1.79 1.75-1.79 2.75-5.79 1.007-0.087 2.014-0.175 3.051-0.265 5.715-1.063 8.258-4.347 12.137-8.485 0.698-0.716 1.396-1.433 2.115-2.171 2.776-2.875 5.434-5.748 7.92-8.879 1.838-2.274 3.692-3.886 6.027-5.637 0.784-0.594 1.567-1.189 2.375-1.801 1.518-1.126 3.039-2.249 4.563-3.367 3.93-2.895 7.453-5.854 10.812-9.395 3.563-3.659 7.293-7.028 11.148-10.371 2.842-2.5 5.44-5.193 8.04-7.941 2.256-2.157 4.462-3.995 6.937-5.875 3.658-2.788 7.059-5.754 10.437-8.875 4.315-3.973 8.714-7.468 13.438-10.938 1.861-1.512 3.715-3.033 5.562-4.562 3.053-2.521 6.081-4.894 9.313-7.188 3.918-2.821 7.051-6.084 10.313-9.624 3.153-2.944 6.515-5.245 10.07-7.676 3.824-2.718 7.406-5.694 11.015-8.688 6.436-5.338 13.007-10.508 19.622-15.621 1.519-1.184 3.027-2.384 4.527-3.594 5.503-4.369 11.216-8.486 17.078-12.359 2.5-1.688 2.5-1.688 5.5-4.688 5.165-4.026 10.443-7.527 16-11 1.406-1.027 2.802-2.069 4.188-3.124 3.812-2.876 3.812-2.876 6.437-4.25 3.698-2.531 5.79-5.982 8.375-9.626 0.33-0.33 0.66-0.659 1-1 0.149-3.275 0.235-6.531 0.281-9.808 9e-3 -0.498 9e-3 -0.498 0.056-3.018 0.059-3.204 0.112-6.407 0.163-9.611 0.052-3.172 0.105-6.343 0.163-9.515 0.036-1.975 0.069-3.951 0.097-5.927 0.111-6.095 0.59-12.059 1.24-18.121 0.273-4.226 0.418-8.455 0.562-12.687 0.044-1.23 0.087-2.459 0.131-3.726 0.39-12.535 0.366-25.067 0.27-37.607-0.052-9.588 0.245-19.042 0.916-28.606 0.04-1.113 0.08-2.226 0.121-3.374-1-1-1-1-4.562-1.062-1.135 0.021-2.269 0.041-3.438 0.062-2.542 9.619-3.736 19.033-4.5 28.938-2.006 25.944-7.07 51.218-27.5 69.062-0.66 0.331-1.32 0.66-2 1v2c-1.659 0.685-3.328 1.348-5 2-1.547 1.089-3.067 2.217-4.562 3.376-4.621 3.331-9.015 5.087-14.481 6.605-2.957 1.019-2.957 1.019-6.129 2.952-4.051 2.188-7.546 3.191-12.035 4.173-0.778 0.172-0.778 0.172-4.717 1.041-1.613 0.344-3.226 0.687-4.888 1.041-1.602 0.355-3.204 0.71-4.854 1.076-15.134 3.294-29.907 4.177-45.334 4.736-1.405 0.056-2.81 0.111-4.258 0.168-6.493 0.148-11.931 0.122-17.742-3.168-3.125-4.802-3.379-8.718-3.312-14.374 3e-3 -1.431 7e-3 -2.862 0.011-4.336 0.436-6.211 1.7-11.686 4.676-17.164 1.786-3.405 3.322-6.781 4.687-10.376 1.114-2.876 2.136-5.044 3.876-7.624 2.574-3.902 4.164-7.978 5.902-12.305 1.16-2.82 1.16-2.82 2.785-5.945 1.564-3.27 2.503-6.525 3.434-10.02 0.941-2.856 0.941-2.856 2.91-7.055 2.189-4.834 3.2-9.592 4.093-14.801 1.16-6.583 2.807-12.641 4.938-19 0.452-2.382 0.831-4.78 1.125-7.187 0.147-1.149 0.294-2.297 0.445-3.48 6.443-64.958 6.443-64.958-9.57-86.333-2.549-2.346-5.081-4.086-8-6-0.99-0.659-1.98-1.319-3-2-8.541-1.019-14.325-0.758-21 5zm603.65 112.74c-4.075 0.13-8.15 0.25-12.226 0.369-12.462 0.382-24.896 0.881-37.326 1.863-0.995 0.078-1.99 0.157-3.015 0.238-7.165 0.61-14.139 1.711-21.204 3.063-8.429 1.572-16.924 2.543-25.477 3.113-10.854 0.739-21.064 1.96-31.597 4.722-6.303 1.625-12.529 2.62-18.989 3.387-8.479 1.024-16.388 2.865-24.589 5.317-4.049 1.135-8.017 1.926-12.161 2.621-6.985 1.219-13.536 3.155-20.255 5.366-4.448 1.464-8.87 2.765-13.432 3.822-3.63 0.854-6.404 1.832-9.875 3.374-3.689 1.64-6.677 2.577-10.562 3.438-5.452 1.263-9.192 3.569-13.938 6.562-3.317 1.121-6.661 2.073-10.027 3.032-3.462 1.128-5.987 2.911-8.973 4.968-1.592 0.499-3.198 0.953-4.812 1.376-4.692 1.285-8.031 3.332-11.961 6.144-2.246 1.493-4.435 2.556-6.915 3.606-3.832 1.666-6.868 3.554-10.312 5.874-1.176 0.496-2.351 0.991-3.562 1.5-3.438 1.5-3.438 1.5-5.813 3.438-2.625 2.062-2.625 2.062-6.937 3.75-6.119 2.578-10.99 7.558-13.732 13.621-0.968 2.724-1.475 5.22-1.886 8.078-0.156 1.022-0.312 2.043-0.472 3.096-0.312 2.116-0.62 4.234-0.922 6.351-0.768 4.977-1.637 9.41-3.699 14.018-2.751 6.383-3.134 12.972-3.727 19.836-0.125 1.279-0.25 2.559-0.379 3.877-1.637 17.314-1.637 17.314 2.129 22.435 1 1 1 1 4.188 1.313 6.133-0.503 8.862-3.246 12.874-7.75 0.485-0.588 0.485-0.588 2.938-3.563 0.412-0.402 0.412-0.402 2.5-2.437 2.5-2.563 2.5-2.563 5.062-6.063 4.11-5.586 8.895-10.547 13.643-15.591 1.931-2.054 3.856-4.114 5.779-6.174 18.894-20.202 18.894-20.202 27.887-27.887 2.593-2.25 5.106-4.581 7.629-6.91 4.337-3.955 8.752-7.492 13.5-10.938 1.503-1.184 3.003-2.371 4.5-3.562 3.998-3.122 8.166-5.796 12.5-8.438 1.481-1.017 2.96-2.038 4.438-3.062 4.333-2.919 8.76-4.89 13.562-6.938 0.772-0.507 1.544-1.015 2.34-1.539 10.507-5.77 29.715-5.232 41.219-2.468 9.275 3.829 15.308 10.075 19.441 19.007 0.99 1.32 1.98 2.64 3 4 4.656 18.13 3.39 37.569 3.264 56.105-0.019 3.378-0.023 6.757-0.026 10.135-6e-3 4.079-0.02 8.158-0.035 12.237-4e-3 1.496-8e-3 2.992-0.013 4.533-0.046 6.835-0.239 13.56-0.948 20.358-0.459 4.991-0.537 9.999-0.672 15.008-0.073 2.393-0.148 4.786-0.222 7.179-0.112 3.696-0.222 7.391-0.322 11.087-0.427 15.432-1.434 30.624-3.277 45.951-0.719 5.995-1.282 11.992-1.776 18.009-0.076 0.912-0.152 1.823-0.23 2.762-0.151 1.826-0.301 3.653-0.451 5.479-1.092 13.237-2.234 26.379-4.542 39.47-2.261 13.029-3.972 24.346 2.547 36.43 1.703 2.257 1.703 2.257 5.703 4.257 15.628 1.251 29.042-1.593 41.805-11.085 3.652-3.184 5.006-5.593 5.695-10.415-0.809-7.28-3.618-13.96-7.047-20.41-2.245-4.773-3.142-9.794-4.293-14.922-1.16-4.168-1.16-4.168-3.152-8.152-3.121-6.746-3.427-14.144-4.196-21.453-0.164-1.45-0.328-2.899-0.498-4.393-0.455-4.055-0.889-8.111-1.314-12.17-0.108-0.987-0.216-1.974-0.328-2.991-1.379-12.918-0.62-25.21 1.328-38.009 0.224-1.752 0.444-3.504 0.66-5.257 1.154-9.117 2.436-17.342 6.34-25.743 0.641-2.015 1.265-4.037 1.875-6.062 1.589-4.893 3.694-8.639 6.687-12.793 1.438-2.145 1.438-2.145 3.438-6.645 4.446-10.003 11.544-18.3 18.625-26.562 2.506-3.1 4.633-6.318 6.75-9.691 7.935-10.968 20.096-19.864 30.625-28.247 0.866-0.699 1.733-1.399 2.625-2.121 2.448-1.973 4.907-3.93 7.375-5.879 0.688-0.546 1.377-1.093 2.086-1.656 4.051-3.138 8.188-5.713 12.687-8.125 3.504-1.918 6.847-4.092 10.227-6.219 5.539-3.247 10.948-6.262 17-8.437 4-1.563 4-1.563 6.754-3.5 3.66-2.325 7.024-3.424 11.184-4.625 3.946-1.15 7.692-2.27 11.437-3.969 4.467-1.81 8.96-2.613 13.687-3.406 6.041-1.018 11.762-2.299 17.602-4.168 7.929-2.325 15.435-2.417 23.648-2.269 1.388 1e-3 2.776 2e-3 4.206 3e-3 9.095 0.078 17.147 0.738 25.607 4.309 0.418 0.176 0.418 0.176 2.531 1.066 0.774 0.329 1.547 0.658 2.344 0.996 1.196 0.454 2.392 0.908 3.625 1.376 10.864 5.23 15.069 12.436 19.375 23.624 3.122 16.916 2.579 38.177-3.934 54.086-1.326 3.624-2.142 7.28-3.004 11.04-1.561 6.495-3.659 11.174-7.062 16.874-0.724 1.883-1.41 3.78-2.062 5.688-1.481 4.288-3.339 7.576-5.938 11.312-0.66 1.506-1.32 3.012-2 4.563-1.737 3.854-3.327 6.264-6 9.437-0.557 1.032-1.114 2.063-1.688 3.126-2.656 4.452-5.813 8.197-9.14 12.16-1.844 2.305-3.379 4.546-4.86 7.09-2.423 3.799-4.816 5.828-8.312 8.624-3.655 3.816-6.937 7.895-10.096 12.125-4.236 5.46-9.031 10.272-13.931 15.133-0.948 0.948-1.896 1.895-2.872 2.871-1.994 1.991-3.99 3.979-5.988 5.965-3.043 3.024-6.078 6.056-9.111 9.09-1.947 1.942-3.894 3.883-5.842 5.824-0.899 0.898-1.798 1.796-2.725 2.722-4.995 4.957-10.099 9.682-15.435 14.27-5.904 5.654-5.904 5.654-6.203 9.864-0.016 1.138-0.031 2.276-0.047 3.449-0.026 1.131-0.052 2.261-0.078 3.426 0.365 3.631 1.23 5.317 3.328 8.261 0.509 0.753 1.018 1.506 1.543 2.282 3.918 5.286 7.649 8.44 13.457 11.718 1.667 1.334 3.333 2.667 5 4 6.153 4.035 12.502 7.321 19.125 10.5 2.875 1.5 2.875 1.5 5.625 3.5 3.531 2.173 6.69 3.121 10.688 4.094 2.562 0.906 2.562 0.906 5.343 2.895 3.919 2.449 7.165 3.001 11.719 3.699 1.454 0.231 2.908 0.461 4.406 0.699 1.351 0.203 2.702 0.405 4.094 0.613 1.094 0.186 2.189 0.372 3.316 0.563 8.891 1.449 17.443-0.044 25.684-3.563 15.304-11.365 23.351-25.463 27.078-43.992 0.962-4.184 2.41-7.995 3.922-12.008 1.435-6.522 1.956-13.204 2.461-19.855 0.08-1.042 0.16-2.084 0.242-3.158 0.152-2.064 0.294-4.13 0.424-6.195 0.43-5.979 1.486-11.313 3.171-17.056 1.188-4.631 1.501-9.291 1.827-14.048 0.079-1.052 0.157-2.104 0.238-3.188 0.997-13.802 1.57-27.588 1.848-41.421 0.075-3.714 0.151-7.427 0.227-11.141 0.019-0.941 0.038-1.881 0.057-2.85 0.265-12.644 0.778-25.219 1.776-37.829 0.671-8.628 0.959-17.233 1.167-25.883 0.203-8.04 0.593-15.76 2.062-23.688 1.82-9.963 1.938-19.865 2.154-29.974 0.231-10.312 0.804-20.547 1.686-30.823 1.519-18.108 1.519-18.108-1.028-23.391-3.823-4.133-7.236-5.807-12.82-6.308-1.059-0.105-2.119-0.21-3.21-0.319-1.124-0.102-2.249-0.204-3.407-0.31-8.048-0.819-15.859-1.832-23.75-3.625-17.914-4.031-36.237-4.378-54.523-4.943-3.832-0.119-7.664-0.249-11.497-0.381-24.527-0.818-48.931-0.66-73.459 0.131zm-6.834 125.57c-0.777 0.574-1.554 1.147-2.355 1.738-0.811 0.644-1.622 1.287-2.457 1.949-0.982 0.74-1.965 1.48-2.977 2.243-10.243 9.344-14.664 22.335-16.023 35.757-0.126 1.145-0.253 2.29-0.383 3.469-0.295 3.18-0.486 6.342-0.617 9.531-0.021 0.44-0.021 0.44-0.125 2.665-0.43 18.672 0.227 43.28 8.945 59.918 1.239 2.539 1.891 4.927 2.555 7.667 1.528 5.5 4.37 8.018 8.625 11.75 0.577 0.805 1.155 1.609 1.75 2.438 3.988 2.769 8.576 2.104 13.25 1.562 3.5-1.124 3.5-1.124 7-3 0.82-0.39 1.64-0.781 2.484-1.183 7.524-3.751 13.785-8.653 19.516-14.817v-2c1.32-0.659 2.64-1.319 4-2 2.039-2.299 4.037-4.635 6-7 0.928-0.907 1.856-1.815 2.812-2.75 2.188-2.25 2.188-2.25 3.188-5.25 1.32-0.659 2.64-1.319 4-2 1.816-2.207 1.816-2.207 3.562-4.812 0.579-0.852 1.158-1.704 1.754-2.582 2.438-3.773 4.637-7.509 6.622-11.543 2.062-4.063 2.062-4.063 4.082-6.855 7.444-12.056 6.279-30.388 3.418-43.708-1.91-6.914-4.212-10.641-9.438-15.5-0.804-0.845-1.609-1.691-2.438-2.562-15.263-14.519-27.118-18.634-47.914-18.703-7.039 0.402-13.125 1.264-18.836 5.578zm-435.81 37.687c-5.525 1.219-8.539 2.928-12.562 6.876-3.621 3.521-7.193 6.388-11.438 9.124-0.99 0.826-1.98 1.65-3 2.5-3 2.5-3 2.5-5.789 4.321-3.414 2.317-6.465 4.857-9.586 7.555-3.514 3.009-6.997 5.981-10.75 8.687-4.252 3.223-8.095 6.743-12.016 10.355-6.112 5.52-12.603 10.584-19.047 15.708-3.651 2.91-7.181 5.922-10.675 9.019-4.29 3.725-8.729 7.272-13.137 10.855-2.895 2.359-5.673 4.674-8.312 7.313-3.741 3.741-7.713 7.199-11.688 10.687-0.686 0.602-1.372 1.204-2.078 1.825-2.612 2.288-5.228 4.572-7.848 6.851-14.452 12.599-14.452 12.599-19.824 18.137-2.952 2.895-5.807 4.942-9.25 7.187-1.708 1.625-3.376 3.293-5 5-2.895 2.974-5.865 5.784-9 8.5-3.988 3.464-7.788 6.91-11 11.126-2 2.374-2 2.374-4.688 3.75-2.312 1.624-2.312 1.624-3.124 5.312-0.062 1.093-0.124 2.186-0.188 3.312-0.763 0.104-1.526 0.207-2.312 0.313-2.688 0.687-2.688 0.687-5.688 3.687l1 2c0.722-0.68 1.444-1.361 2.188-2.062 2.812-1.938 2.812-1.938 5.257-1.73 2.555 0.792 2.555 0.792 6.243 3.542 5.8 4.076 12.313 5.444 19.105 7.172 4.207 1.078 4.207 1.078 7.086 2.125 5.372 1.641 10.794 1.322 16.371 1.329 1.177 0.024 2.354 0.048 3.566 0.074 7.773 0.026 13.138-1.189 20.184-4.45 1.679-0.487 3.366-0.949 5.062-1.374 8.457-2.467 14.899-8.26 21.579-13.793 2.359-1.833 2.359-1.833 5.156-3.446 0.727-0.457 1.454-0.915 2.203-1.387v-2c1.32-0.659 2.64-1.319 4-2 1.461-1.348 2.875-2.75 4.25-4.187 3.383-3.46 6.84-6.707 10.508-9.859 5.743-5.003 11.415-10.126 16.801-15.512 2.375-2.375 4.815-4.637 7.316-6.879 0.861-0.773 1.722-1.547 2.609-2.344 2.184-1.926 4.4-3.798 6.641-5.656 0.949-0.846 1.898-1.691 2.875-2.563v-2c1.32-0.659 2.64-1.319 4-2 1.716-1.615 3.375-3.292 5-5 1.091-1.104 2.181-2.209 3.305-3.347 10.845-11.189 17.625-20.636 20.675-36.281 0.804-3.445 1.74-6.246 3.055-9.485 2.525-6.737 2.869-13.375 3.215-20.511 0.074-1.319 0.149-2.638 0.226-3.996 1.418-26.592 1.418-26.592-1.476-32.38zm-353 149c-0.33 0.661-0.66 1.32-1 2 0.708-0.072 0.708-0.072 4.293-0.437 17.995-1.75 35.671-2.26 53.707-0.563-0.165-0.329-0.165-0.329-1-2-8.186-2.253-16.757-2.352-25.188-2.312-1.17 3e-3 -2.341 5e-3 -3.548 8e-3 -9.222 0.111-18.367 0.662-27.264 3.304zm58 0c0.33 0.661 0.66 1.32 1 2 1.32-0.329 2.64-0.66 4-1-1.65-0.329-3.3-0.66-5-1zm7 1c1 2 1 2 3.047 2.825 0.892 0.285 1.784 0.569 2.703 0.863 11.869 4.137 21.245 10.46 30.383 18.922 1.867 1.39 1.867 1.39 4.867 1.39-6.024-8.233-14.989-13.494-24-18-4-2-4-2-6.5-3.687-3.421-1.796-6.686-1.989-10.5-2.313zm-41 16c-0.33 0.661-0.66 1.32-1 2 1.629 0.042 3.259 0.083 4.938 0.126 0.916 0.023 1.833 0.046 2.777 0.07 0.754-0.065 1.508-0.129 2.285-0.196 0.33-0.66 0.66-1.319 1-2-1.629-0.041-3.259-0.082-4.938-0.124-0.916-0.024-1.833-0.047-2.777-0.071-0.754 0.065-1.508 0.129-2.285 0.195zm30 0c0.33 0.661 0.66 1.32 1 2 2.197 0.699 4.394 1.397 6.594 2.086 3.589 1.364 6.363 3.604 9.406 5.914 1.114 0.599 2.227 1.197 3.375 1.813 4.733 2.856 8.597 6.424 12.625 10.187 0-3 0-3-1.871-5.085-5.46-4.87-10.63-8.57-17.129-11.915-1.011-0.742-2.021-1.485-3.062-2.25-3.648-2.172-6.742-2.46-10.938-2.75zm88 15c-0.33 0.496-0.33 0.496-2 3 1.32-0.659 2.64-1.32 4-2-0.66-0.33-1.32-0.659-2-1zm-5 5c-0.66 1.321-1.32 2.64-2 4 0.99-0.659 1.98-1.32 3-2-0.33-0.659-0.66-1.32-1-2zm-49 3c0.33 0.991 0.66 1.981 1 3v-3h-1zm1 6c-0.289 0.444-0.289 0.444-1.75 2.688-2.196 3.232-4.462 5.588-7.25 8.312-4.911 5.274-9.75 10.501-13 17 4.11-2.054 4.762-2.759 7.062-6.437 3.598-5.408 7.919-9.628 12.68-14.02 2.356-2.653 2.97-4.061 3.258-7.543h-1zm-23 28c-6.452 6.712-12.875 13.557-17 22 0.33 0.66 0.66 1.321 1 2 0.401-0.594 0.802-1.188 1.215-1.8 4.052-5.908 8.385-11.425 13.062-16.852 1.723-2.348 1.723-2.348 1.723-5.348zm22 10c0.33 0.66 0.66 1.321 1 2 0.66-0.659 1.32-1.32 2-2 1.988-0.397 3.989-0.737 6-1 0.33 0.991 0.66 1.981 1 3h1v-5c-5.281-0.304-6.577-0.317-11 3zm-1 2c-0.66 1.321-1.32 2.64-2 4 0.99-0.659 1.98-1.32 3-2-0.33-0.659-0.66-1.32-1-2zm11 2c-0.641 1.747-1.281 3.494-1.914 5.243-3.08 7.821-6.616 15.63-11.086 22.757-1.32-0.659-2.64-1.32-4-2-4.125-0.25-4.125-0.25-8 0-2 2-2 2-2.375 5.25 0.457 4.574 1.112 6.487 4.375 9.75 3.422 0.816 6.448 0.907 10 1l-3-3c0.33-0.659 0.66-1.32 1-2-0.041-0.495-0.041-0.495-0.25-3 0.082-0.99 0.165-1.98 0.25-3 0.733-0.206 1.467-0.412 2.223-0.624 4.342-2.15 5.569-6.145 7.465-10.376 0.194-0.406 0.194-0.406 1.181-2.464 2.671-5.781 4.083-11.257 5.131-17.536h-1zm-17.363 5.231c-0.487 0.488-0.487 0.488-2.949 2.957-0.483 0.481-0.483 0.481-2.926 2.918-2.421 2.537-4.625 5.118-6.762 7.894 4.413-1.39 6.663-3.414 9.688-6.874 0.383-0.432 0.383-0.432 2.324-2.618 1.988-2.508 1.988-2.508 3.988-6.508-1 0-1 0-3.363 2.231zm-32.637 4.769c-0.99 0.991-1.98 1.981-3 3-0.99 0.331-1.98 0.66-3 1l-1-3c-2.999-0.085-6.001-0.081-9 0-2.576 2.577-2.356 3.793-2.438 7.376 0.083 5.221 0.083 5.221 2.75 8.25 2.688 1.374 2.688 1.374 5.688 2.374 2.625-1.937 2.625-1.937 5-5 0.165-1.34 0.33-2.681 0.5-4.062 0.5-3.938 0.5-3.938 3.062-6.438 0.805-0.495 1.609-0.99 2.438-1.5-0.33-0.659-0.66-1.32-1-2zm18 9v3l2-3h-2zm-2 3v3zm-4 5c-3.801 3.217-7.547 6.41-11 10l2 1c0.33 0.991 0.66 1.981 1 3 3.3 1.65 6.383 1.223 10 1 3-3 3-3 3.438-7.062-0.145-1.299-0.289-2.599-0.438-3.938-1.32-0.659-2.64-1.32-4-2-0.33-0.659-0.66-1.32-1-2zm-22 2c2.366 4.732 4.323 5.746 9 8 0.66-0.33 1.32-0.659 2-1-1.457-0.98-2.916-1.959-4.375-2.937-0.812-0.545-1.624-1.091-2.461-1.652-2.164-1.411-2.164-1.411-4.164-2.411zm-8 15 4 5c0.66-0.33 1.32-0.659 2-1-1.29-1.375-2.627-2.707-4-4h-2zm53 7c-0.562 2.876-0.562 2.876 0 7 4.547 6.64 10.097 10.965 17 15 1.644 1.268 3.268 2.562 4.875 3.876 4.069 3.317 8.243 6.373 12.566 9.347 2.679 1.861 5.307 3.782 7.934 5.715 4.722 3.446 9.534 6.724 14.414 9.941 2.232 1.475 4.456 2.963 6.672 4.461 9.671 6.527 19.547 12.644 29.539 18.66 1.816 1.098 3.633 2.196 5.449 3.293 1.809 1.091 3.617 2.181 5.426 3.27 0.85 0.513 1.701 1.026 2.577 1.554 7.081 4.25 11.209 6.129 19.548 5.883 0.625-3.5 0.625-3.5 0-8-2.214-2.354-4.596-4.114-7.219-6-2.591-1.863-4.881-3.831-7.219-6-22.996-20.633-52.091-37.254-78.562-53-1.709-1.041-3.417-2.082-5.125-3.124-4.933-2.969-10.002-5.668-15.09-8.36-2.785-1.516-2.785-1.516-5.785-3.516-2.332-0.079-4.668-0.087-7 0z" fill="#3B3B3B"/>
<path transform="translate(1296.2 184.44)" d="m0 0c4.4 2.993 5.612 7.581 6.75 12.562 0.423 4.577 0.42 9.126 0.398 13.719 2e-3 0.66 2e-3 0.66 0.013 3.999 6e-3 4.261-0.013 8.521-0.036 12.782-4e-3 1.447-7e-3 2.894-0.011 4.385-0.076 25.577-1.549 50.493-5.306 75.799-1.129 7.934-1.639 15.884-2.12 23.879-0.041 0.664-0.041 0.664-0.243 4.026-0.079 1.304-0.157 2.607-0.238 3.951-0.837 13.897-1.844 27.333-5.508 40.832-2.452 9.374-3.193 18.754-3.508 28.414-0.441 3.214-0.441 3.214-3.441 7.214-1.654 0.697-3.323 1.361-5 2-0.763 0.619-1.526 1.238-2.312 1.876-2.688 2.124-2.688 2.124-6.626 4.062-4.062 2.062-4.062 2.062-7.062 4.562-3.448 2.874-6.967 4.545-11 6.5-6.616 3.947-12.975 8.289-19.375 12.575-2.846 1.904-5.702 3.793-8.563 5.675-2.784 1.885-5.457 3.779-8.124 5.813-4.694 3.501-9.605 6.52-14.606 9.559-4.504 2.789-8.713 5.565-12.644 9.128-3.225 2.842-5.808 4.536-9.688 6.25-0.99 0.661-1.98 1.32-3 2-0.025-6.367-0.043-12.735-0.055-19.104-5e-3 -2.162-0.012-4.325-0.02-6.488-0.013-3.123-0.018-6.246-0.023-9.368-5e-3 -0.955-0.01-1.91-0.015-2.893-1e-3 -6.123 0.445-12.06 1.113-18.147 0.273-4.226 0.418-8.455 0.562-12.687 0.044-1.23 0.087-2.459 0.131-3.726 0.39-12.535 0.366-25.067 0.27-37.607-0.058-10.708 0.324-21.299 1.037-31.98-2.31-0.33-4.62-0.659-7-1-1.656 11.319-3.118 22.593-4 34-1.973 24.295-8.204 45.814-25.898 63.235-2.102 1.765-2.102 1.765-4.102 1.765v2c-2.266 1.622-2.266 1.622-5.25 3.438-3.398 2.081-6.553 4.165-9.75 6.562-2.913 1.081-5.856 1.951-8.832 2.84-3.168 1.16-3.168 1.16-6.353 3.101-4.045 2.184-7.541 3.185-12.022 4.165-1.557 0.344-3.113 0.687-4.717 1.041-1.613 0.344-3.226 0.687-4.888 1.041-1.602 0.355-3.204 0.71-4.854 1.076-15.134 3.294-29.907 4.177-45.334 4.736-1.405 0.056-2.81 0.111-4.258 0.168-6.548 0.149-11.801-0.029-17.742-3.168-4.079-5.438-4.158-8.508-4.188-15.187-0.014-1.458-0.028-2.916-0.042-4.418 0.329-6.276 1.603-11.743 4.605-17.269 1.786-3.405 3.322-6.781 4.687-10.376 1.114-2.876 2.136-5.044 3.876-7.624 2.574-3.902 4.164-7.978 5.902-12.305 1.16-2.821 1.16-2.821 2.785-5.945 1.564-3.27 2.503-6.525 3.434-10.02 0.941-2.856 0.941-2.856 2.91-7.055 2.189-4.834 3.2-9.592 4.093-14.801 1.16-6.583 2.807-12.641 4.938-19 0.452-2.382 0.831-4.78 1.125-7.187 0.147-1.149 0.294-2.297 0.445-3.48 6.409-64.608 6.409-64.608-8.57-85.333-2.543-2.333-5.1-4.082-8-6-0.99-0.659-1.98-1.319-3-2-6.447-0.769-12.143-1.095-17.812 2.25-1.052 0.908-2.104 1.815-3.188 2.75-1.485 0.64-2.97 1.279-4.5 1.938-4.72 2.163-7.708 4.546-11.5 8.062-1.176 0.97-2.351 1.939-3.562 2.938-4.101 3.595-7.833 7.529-11.563 11.5-0.586 0.621-1.172 1.241-1.776 1.881-8.893 9.578-16.336 20.523-23.099 31.681-0.58 0.929-1.16 1.857-1.758 2.813-2.9 4.757-5.443 9.17-6.93 14.563-1.312 4.624-1.312 4.624-3.238 7.339-2.562 4.058-3.459 7.812-4.574 12.473-1.301 5.306-2.63 10.49-4.688 15.562-2.052 5.286-2.537 10.51-3.155 16.119-0.648 4.077-1.725 7.603-3.091 11.491-2.839 8.839-3.868 17.485-4.691 26.703-1.619 17.194-1.619 17.194-3.418 25.551-1.653 7.824-2.255 15.534-2.645 23.512-0.039 0.778-0.039 0.778-0.239 4.717-3.858 82.853-3.858 82.853 4.427 114.53 1.321 6.11 1.85 12.22 2.438 18.437 0.813 8.347 1.834 15.605 5.378 23.293 1.414 3.456 1.997 6.779 2.622 10.457 1.126 6.219 3.063 11.116 6.078 16.645 1.444 2.717 2.581 5.418 3.672 8.292 1.812 4.5 1.812 4.5 4.812 8.5 1.92 3.071 2.849 5.452 4 9-2.588 4.622-6.856 7.67-10.883 11.051-3.066 2.823-5.597 6.044-8.16 9.325-1.957 1.624-1.957 1.624-4.551 1.496-2.958-1.071-4.426-2.451-6.406-4.872v-2c-0.681-0.247-1.361-0.495-2.062-0.75-2.938-1.25-2.938-1.25-6.188-4.124-4.071-3.393-7.878-5.095-12.75-7.126-0.567-0.36-0.567-0.36-3.438-2.187-4.69-2.386-8.311-2.476-13.562-2.813-2.787-0.443-5.151-1.053-7.812-2-16.408-5.147-38.755-3.321-55.188 1-0.33 0.33-0.66 0.661-1 1-1.854 0.048-3.709 0.038-5.562 0-4.909-0.052-9.567 0.369-14.438 1-0.66-0.329-1.32-0.66-2-1-0.566-2.103-1.027-4.235-1.438-6.374-0.845-4.358-1.834-8.587-3.089-12.84-1.653-5.971-2.21-11.806-2.598-17.973-0.04-0.563-0.04-0.563-0.24-3.413-0.577-8.52-0.951-17.043-1.234-25.577-0.21-5.79-0.649-11.497-1.285-17.255-1.41-13.086-0.579-25.586 0.574-38.668 0.449-5.65 0.727-11.306 1.018-16.967 0.971-18.724 3.116-36.354 7.397-54.636 0.857-4.112 1.361-8.119 1.77-12.297 0.839-7.623 3.116-14.34 5.68-21.542 1.384-4.268 2.27-8.35 3.007-12.77 1.052-6.276 2.813-11.727 5.247-17.59 1.198-3.117 2.008-6.157 2.753-9.41 1.171-5.028 3.123-9.058 5.438-13.688 1.327-4.034 2.548-8.095 3.777-12.16 1.433-4.498 3.217-8.57 5.223-12.84 0.676-1.683 1.342-3.371 2-5.062 1.758-4.449 3.833-8.671 6-12.938 0.673-1.538 1.34-3.08 2-4.624 1.743-3.814 3.653-6.928 6-10.376 1.35-2.658 2.683-5.325 4-8 3.031-5.555 6.461-10.762 10-16 0.474-0.721 0.949-1.443 1.438-2.187 5.702-8.678 11.72-16.993 18.562-24.813 1.327-1.661 2.652-3.324 3.977-4.988 5.127-6.276 10.711-11.995 16.461-17.699 0.486-0.49 0.486-0.49 2.947-2.971 5.907-5.891 11.996-11.268 18.615-16.342 0.94-0.754 1.879-1.508 2.848-2.285 1.568-1.258 3.138-2.513 4.711-3.765 1.603-1.28 3.2-2.569 4.789-3.867 4.664-3.753 9.235-6.464 14.652-9.083 0.825-0.659 1.65-1.319 2.5-2 3.242-2.593 6.781-4.168 10.5-6 0.99-0.68 1.98-1.361 3-2.062 3.509-2.267 7.095-3.473 11-4.938 0.949-0.659 1.898-1.319 2.875-2 3.49-2.233 6.62-3.079 10.582-4.156 2.543-0.844 2.543-0.844 6.543-3.281 5.757-3.421 12.167-4.281 18.66-5.59 3.493-0.783 6.397-1.686 9.652-3.097 24.067-9.215 75.767-11.068 99.622-0.586 2.769 1.465 5.414 3.044 8.066 4.71 1.382 0.784 2.764 1.568 4.188 2.376 7.715 5.312 12.897 11.737 17.812 19.624 0.701 1.032 1.402 2.063 2.125 3.126 2.102 3.222 4.012 6.508 5.875 9.874 0.258 0.465 0.258 0.465 1.562 2.813 1.531 3.393 2.54 6.742 3.497 10.332 0.941 2.855 0.941 2.855 2.886 6.781 2.809 6.22 3.534 12.741 4.493 19.45 0.416 2.751 0.835 5.503 1.257 8.253 0.106 0.694 0.106 0.694 0.642 4.204 1.222 7.684 2.683 15.322 4.139 22.964 0.1 0.527 0.1 0.527 0.606 3.192 0.178 0.923 0.355 1.847 0.538 2.798 0.38 2.213 0.38 2.213 0.38 4.213h7c0.049-0.888 0.098-1.776 0.148-2.691 0.21-3.576 0.443-7.15 0.685-10.724 0.115-1.774 0.219-3.55 0.314-5.326 0.732-13.536 2.695-24.628 7.853-37.259 0.538-1.661 1.062-3.327 1.562-5 8.012-22.292 25.962-38.907 45.286-51.558 1.928-1.292 3.795-2.674 5.652-4.066 2.786-1.891 5.139-3.187 8.188-4.5 4.312-1.875 4.312-1.875 8.312-4.876 10.668-3.962 24.776-7.646 35.25-1.562z" fill="#4A4A4A"/>
<path transform="translate(2022.5 191.4)" d="m0 0c3.481 0.832 6.991 1.491 10.506 2.162 4.87 1.021 7.95 2.492 12 5.437 1.591 0.502 3.198 0.956 4.812 1.375 4.741 1.297 8.192 3.378 12.168 6.219 2.02 1.406 2.02 1.406 5.082 2.906 4.003 2.044 7.428 4.724 10.938 7.5 0.619 0.474 0.619 0.474 3.75 2.875 5.246 5.044 8.007 10.963 8.562 18.188-0.426 6.732-2.163 12.282-6.437 17.562-1.875 1.375-1.875 1.375-3.875 1.375l-2 4c-1.658 1.344-3.326 2.676-5 4-0.805 0.99-1.609 1.98-2.438 3-2.562 3-2.562 3-5.332 4.828-3.515 2.364-6.411 5.004-9.48 7.922-12.588 11.769-12.588 11.769-19.391 15.824-2.359 1.426-2.359 1.426-4.609 3.676-10.662 10.662-10.662 10.662-18.125 10.875-11.453-1.345-20.298-12.482-28.238-19.976-6.93-6.442-14.249-12.196-22.055-17.532-2.165-1.501-4.249-3.068-6.332-4.679-3.752-2.756-7.542-5.149-11.555-7.493-2.227-1.316-4.402-2.72-6.57-4.132-3.877-2.314-7.639-3.785-11.875-5.313-0.392-0.278-0.392-0.278-2.375-1.687-4.109-2.055-8.121-1.855-12.625-1.313-6.783 2.802-10.43 9.676-13.539 16.012-4.091 11.167-6.053 24.106-5.461 35.988 2.505 5.311 5.695 7.613 11 10 7.672 1.41 15.423 1.091 23.191 1.027 2.996-0.012 5.991-0.025 8.987-0.037 4.702-0.024 9.405-0.053 14.108-0.086 4.552-0.03 9.103-0.048 13.655-0.064 1.405-0.013 2.809-0.027 4.256-0.041 1.315-3e-3 2.63-7e-3 3.985-0.01 1.15-8e-3 2.301-0.015 3.486-0.023 5.286 0.371 9.177 1.23 13.207 4.734 2.697 4.443 3.386 8.391 3.125 13.5-1.622 6.392-4.56 10.205-9 15-0.361 0.474-0.361 0.474-2.188 2.875-6.432 7.148-14.46 12.715-22.257 18.281-2.253 1.626-4.435 3.314-6.618 5.032-3.749 2.678-7.381 4.7-11.527 6.664-2.032 0.968-4.01 2.046-5.973 3.148-13.844 6.24-26.707 7.711-41.748 8.368-1.293 0.058-2.587 0.115-3.92 0.175-1.159 0.042-2.318 0.083-3.512 0.126-3.257 0.331-3.257 0.331-6.339 1.423-3.373 1.05-5.001 0.797-8.383-0.104-1.036-0.261-2.072-0.523-3.14-0.793-1.1-0.291-2.199-0.582-3.333-0.882-8.758-2.194-17.336-3.9-26.312-4.875-7.587-0.846-14.027-2.33-21.129-5.25-5.491-1.801-11.13-2.394-16.872-2.936-6.261-0.716-6.261-0.716-9.046-3.771-0.281-0.41-0.281-0.41-1.703-2.481-6.446-1.655-12.888-2.195-19.5-2.875-6.416-0.672-12.582-1.711-18.875-3.125-18.119-3.975-36.542-4.434-55.023-5.005-3.833-0.119-7.665-0.25-11.497-0.382-24.528-0.818-48.931-0.66-73.459 0.132-4.075 0.13-8.151 0.249-12.226 0.368-12.462 0.383-24.896 0.882-37.326 1.864-0.995 0.078-1.99 0.156-3.015 0.237-7.165 0.611-14.14 1.712-21.204 3.063-8.429 1.572-16.924 2.544-25.477 3.114-10.854 0.739-21.064 1.959-31.597 4.722-6.303 1.625-12.529 2.619-18.989 3.387-8.479 1.024-16.388 2.864-24.589 5.317-4.049 1.134-8.017 1.925-12.161 2.621-6.985 1.218-13.536 3.155-20.255 5.366-4.449 1.463-8.87 2.765-13.432 3.821-3.63 0.855-6.404 1.832-9.875 3.375-3.689 1.64-6.677 2.577-10.563 3.438-5.451 1.263-9.191 3.569-13.937 6.562-3.317 1.121-6.661 2.073-10.027 3.031-3.462 1.128-5.987 2.912-8.973 4.969-1.592 0.499-3.199 0.953-4.813 1.375-4.692 1.285-8.03 3.332-11.961 6.145-2.245 1.493-4.434 2.556-6.914 3.605-3.832 1.666-6.868 3.554-10.312 5.875-1.176 0.495-2.351 0.99-3.563 1.5-3.437 1.5-3.437 1.5-5.812 3.438-2.625 2.062-2.625 2.062-7 3.812-3.649 1.521-5.61 3.097-8.063 6.188-3.196 3.991-6.343 5.709-10.957 7.789-3.659 1.788-6.808 4.134-10.101 6.515-3.249 2.281-6.636 4.273-10.055 6.285-3.91 2.352-7.673 4.914-11.449 7.473-0.97 0.639-1.939 1.279-2.938 1.938-2.586 1.741-5.138 3.517-7.687 5.312-3.831 2.697-7.711 5.301-11.625 7.875-4.147 2.747-7.948 5.664-11.75 8.875-2.218 1.525-4.467 2.998-6.719 4.473-2.78 1.861-5.446 3.862-8.109 5.886-4.342 3.281-8.756 6.462-13.172 9.641-1.073 0.784-2.145 1.568-3.25 2.375-2.75 1.625-2.75 1.625-6.074 2.422-4.165 1.363-6.132 3.03-9.239 6.078-3.621 3.521-7.192 6.388-11.437 9.125-0.495 0.413-0.495 0.413-3 2.5-3 2.5-3 2.5-5.789 4.32-3.414 2.318-6.465 4.858-9.586 7.555-3.514 3.009-6.997 5.981-10.75 8.688-4.252 3.223-8.095 6.743-12.016 10.355-6.112 5.519-12.603 10.584-19.047 15.707-3.65 2.91-7.179 5.92-10.672 9.016-5.15 4.473-10.476 8.75-15.824 12.984-3.264 2.643-6.138 5.621-9.011 8.68-3.295 3.436-5.878 5.551-10.305 7.195l-2 4c-2.022 1.576-4.049 3.145-6.102 4.68-4.363 3.493-8.375 7.351-12.435 11.185-3.314 3.127-6.64 6.22-10.088 9.198-3.375 2.937-3.375 2.937-6 5.625-2.375 2.312-2.375 2.312-5.375 4.25-3.371 2.317-5.46 4.871-8 8.062-3.764 3.963-7.853 7.445-12 11-0.464 0.474-0.464 0.474-2.813 2.875-2.187 2.125-2.187 2.125-4.187 2.125-0.041 1.093-0.083 2.186-0.125 3.313-0.289 1.216-0.578 2.433-0.875 3.687-1.988 1.024-3.99 2.02-6 3-2.817 2.524-2.817 2.524-5.563 5.375-0.908 0.936-1.817 1.872-2.754 2.836-0.885 0.92-1.771 1.841-2.683 2.789-3.834 3.91-7.84 7.494-12.012 11.035-3.616 3.574-4.232 6.729-4.262 11.586-0.017 1.094-0.035 2.189-0.054 3.316-0.015 1.155-0.031 2.31-0.047 3.501-0.247 9.548-1.122 17.618-4.625 26.562-0.656 2.268-1.302 4.539-1.938 6.813-1.666 5.445-3.856 9.501-7.062 14.187-0.237 0.547-0.237 0.547-1.438 3.313-1.985 3.414-4.087 3.949-7.562 5.687-1.016 1.992-2.018 3.991-3 6h-4l4 2c0.557 0.639 1.114 1.279 1.687 1.938 2.751 2.453 5.473 3.171 8.957 4.222 3.8 1.355 6.979 3.658 10.356 5.84 1.553 0.79 3.116 1.56 4.687 2.313 5.221 2.55 10.091 5.562 15.012 8.644 3.129 1.936 6.294 3.781 9.488 5.606 4.598 2.663 8.947 5.536 13.262 8.632 2.746 1.943 5.547 3.78 8.363 5.618 10.194 6.765 19.671 14.513 29.188 22.187 2.541 2.038 5.086 4.068 7.648 6.078 5.776 4.601 10.629 9.255 15.352 14.922 0.804 0.804 1.609 1.609 2.437 2.438 0.846 0.845 1.692 1.691 2.563 2.562 0.338 0.328 0.338 0.328 2.051 1.988 3.658 3.762 6.37 6.62 7.074 11.95-0.125 4.062-0.125 4.062-2.125 6.062-11.241-0.932-21.983-5.011-32-10-1.283-0.634-2.565-1.268-3.887-1.922-4.044-2.013-8.079-4.044-12.113-6.078-1.729-0.855-3.458-1.709-5.188-2.562-13.415-6.719-26.229-14.281-38.812-22.438-0.59-0.382-0.59-0.382-3.574-2.316-7.391-4.854-14.493-9.929-21.446-15.391-2.604-2.004-5.246-3.849-7.98-5.668-5.409-3.714-10.036-8.187-14.809-12.672-11.335-10.489-11.335-10.489-17.191-11.953-1.75-3.062-1.75-3.062-3-6l-1 1 2 3c-1.98 0.66-3.96 1.32-6 2-1-4-1-4 0-8-0.438-2.75-0.438-2.75-1-5-4.331-0.38-8.663-0.699-13-1-0.973-0.091-1.947-0.183-2.949-0.277-2.614-0.16-2.614-0.16-7.051 0.277-3.474 3.559-4.903 7.047-5 12 0.912 3.028 1.912 6.031 3 9 0.372 1.659 0.729 3.322 1 5-2 0.813-2 0.813-5 1-4.257-2.287-7.302-3.952-10-8-0.916-7.259 0.486-13.163 3-20 1.777-6.109 0.24-9.128-2.652-14.461-3.814-7.185-5.083-13.556-4.348-21.539 1.937-2.937 1.937-2.937 4-5 1.561-4.683 1.963-9.134 1-14-3.5-3.062-3.5-3.062-5.719-4.43-4.331-2.981-7.181-7.383-10.281-11.57-0.707-0.95-1.413-1.9-2.141-2.879-3.403-4.632-6.722-9.303-9.859-14.121-0.32-0.454-0.32-0.454-1.938-2.75-2.232-3.518-4.03-7.123-5.816-10.883-1.246-2.367-1.246-2.367-4.246-6.367v-2c1.4-0.398 2.8-0.797 4.242-1.207 1.878-0.535 3.755-1.07 5.633-1.605 0.459-0.131 0.459-0.131 2.781-0.791 6.131-1.749 12.242-3.553 18.344-5.397-7.275 1.07-14.016 2.899-21 5.125-6.368 2.016-11.838 3.215-18.52 2.77-4.115 0.175-7.455 2.025-11.148 3.738-5.13 2.105-10.458 3.191-15.863 4.375-3.469 0.992-3.469 0.992-7.469 3.992-3.927 1.079-7.876 1.902-11.86 2.742-4.14 1.258-4.14 1.258-7.871 3.754-5.541 3.25-10.53 3.895-16.832 4.692-1.156 0.159-2.311 0.319-3.502 0.483-2.286 0.313-4.572 0.62-6.859 0.918-2.557 0.342-5.107 0.733-7.654 1.138-11.892 1.866-22.379 0.728-34.055-1.977-3.116-0.694-6.212-1.209-9.367-1.687-4.516-0.805-7.337-2.214-11-5.063-1.279-0.742-2.558-1.485-3.875-2.25-8.802-5.868-16.788-14.334-19.697-24.807-0.622-4.276-0.611-8.541-0.631-12.853-6e-3 -0.963-0.012-1.927-0.018-2.919-9e-3 -2.038-0.016-4.077-0.019-6.115-0.01-3.083-0.041-6.166-0.073-9.249-0.054-9.98-0.028-19.272 3.313-28.807 0.388-1.232 0.776-2.465 1.176-3.734 2.517-6.679 5.233-11.796 9.824-17.266 0.701-1.011 1.402-2.021 2.125-3.062 0.619-0.64 1.237-1.279 1.875-1.938l4 1c-0.347 4.168-1.002 7.004-2.938 10.75-7.904 16.288-6.846 41.12-3.062 58.25 3.358 8.904 7.055 16.548 15 22l3 3c2.092 1.264 4.222 2.467 6.375 3.625 1.121 0.611 2.243 1.222 3.398 1.852 7.931 3.744 16.702 2.707 25.289 2.711 1.547 0.012 3.093 0.024 4.686 0.037 12.322 0.015 22.238-0.546 33.252-6.225 1.906-0.498 3.825-0.953 5.75-1.375 5.586-1.283 10.132-3.474 15.176-6.144 4.2-2.023 8.507-3.265 12.98-4.543 2.844-0.862 5.492-1.889 8.219-3.063 4.482-1.903 8.794-2.603 13.625-3.09 0.742-0.259 1.485-0.518 2.25-0.785 1.152-2.555 1.152-2.555 2-5 2.562-0.187 2.562-0.187 6 0 2.077-0.482 4.155-0.963 6.232-1.445 33.138-6.639 71.171-7.454 100.77 10.445 3.201 2.432 6.233 5.033 9.25 7.688 0.343 0.301 0.343 0.301 2.078 1.824 0.909 0.809 1.811 1.628 2.672 2.488 3.5 0.688 3.5 0.688 8 0 2.53-2.226 4.558-4.648 6.687-7.258 2.858-3.389 6.06-6.131 9.465-8.953 1.848-1.789 1.848-1.789 3.848-5.789 1.039-0.263 2.078-0.526 3.148-0.797 5.198-1.623 7.802-4.561 11.477-8.453 0.642-0.656 1.284-1.312 1.945-1.988 2.836-2.924 5.525-5.878 8.117-9.024 2.102-2.488 4.093-4.357 6.688-6.3 0.776-0.587 1.552-1.173 2.351-1.778 1.99-1.453 4.005-2.872 6.024-4.285 3.25-2.375 3.25-2.375 5.937-5.062 2.313-2.313 2.313-2.313 6.313-4.313l2-4c2.299-2.039 4.636-4.036 7-6 2.471-2.412 4.875-4.868 7.25-7.375 2.233-2.132 4.426-3.952 6.875-5.812 3.658-2.788 7.059-5.754 10.437-8.875 4.314-3.973 8.714-7.469 13.438-10.938 2.813-2.264 5.601-4.554 8.387-6.851 0.862-0.709 1.724-1.418 2.613-2.149 0.447-0.375 0.447-0.375 2.707-2.273 2.293-1.727 2.293-1.727 4.293-1.727l2-4c4.444-4 4.444-4 7-4l2-4c2.107-1.438 4.222-2.868 6.375-4.238 4.817-3.233 9.169-7.056 13.625-10.762 5.581-4.518 11.213-8.968 16.894-13.359 1.519-1.183 3.025-2.382 4.524-3.59 2.65-2.105 5.347-4.12 8.082-6.113 0.918-0.672 1.835-1.344 2.781-2.036 2.719-1.902 2.719-1.902 5.449-3.535 2.27-1.367 2.27-1.367 4.082-3.179 5.362-5.362 11.796-9.193 18.188-13.188 1.405-1.05 2.801-2.113 4.187-3.187 3.813-2.813 3.813-2.813 6.688-3.875 0.701-0.31 1.402-0.619 2.125-0.938 0.289-0.76 0.577-1.521 0.875-2.305 3.127-7.492 11.238-11.306 18.125-14.695 2.058-1.66 3.99-3.423 5.941-5.207 4.954-4.314 10.674-7.582 16.309-10.918 3.493-2.07 6.626-4.272 9.75-6.875 1.993-1.344 3.994-2.676 6-4 0.943-0.637 1.887-1.273 2.859-1.93 5.503-3.703 11.047-7.262 16.762-10.628 2.43-1.473 4.779-3.033 7.129-4.629 2.507-1.703 4.827-3.096 7.562-4.438 2.688-1.375 2.688-1.375 4.438-3.25 2.956-2.792 6.235-4.193 9.91-5.879 2.34-1.246 2.34-1.246 5.34-4.246 2.644-1.058 5.317-2.044 8-3 6.823-2.586 12.884-5.363 18.84-9.59 2.239-1.461 4.448-2.5 6.91-3.535 4.25-1.875 4.25-1.875 6.687-3.875 3.186-2.487 6.46-3.585 10.219-5 2.344-1 2.344-1 4.844-3 2.496-1.997 4.409-2.828 7.375-3.937 3.435-1.289 5.644-2.436 8.687-4.625 3.977-2.82 7.828-3.923 12.438-5.438 0.39-0.318 0.39-0.318 2.363-1.93 2.967-2.329 5.65-3.386 9.199-4.632 4.236-1.494 6.774-2.69 10.438-5.438 1.936-0.709 3.898-1.351 5.875-1.937 3.485-1.104 6.027-1.996 9.062-4.063 4.077-2.662 8.315-3.658 12.969-5 3.094-1 3.094-1 6.531-3 4.481-2.515 8.99-3.599 13.934-4.926 3.437-1.017 6.601-2.257 9.879-3.699 3.626-1.585 6.91-2.723 10.812-3.375 3.706-0.62 6.582-1.689 9.938-3.375 6.355-3.087 12.962-4.244 19.848-5.656 3.268-0.763 5.773-1.517 8.714-3.031 5.583-2.438 11.011-3.138 17.004-4.094 4.163-0.792 7.933-1.904 11.934-3.281 7.952-2.641 15.916-3.916 24.193-5.043 5.558-0.788 10.762-1.893 16.131-3.547 7.422-2.211 14.664-2.91 22.363-3.473 10.548-0.885 20.673-2.172 30.965-4.633 18.305-4.125 38.103-3.019 56.774-3 2.363 0 4.726-1e-3 7.09-3e-3 4.929-1e-3 9.858 1e-3 14.787 6e-3 6.221 5e-3 12.442 2e-3 18.663-4e-3 24.256-0.019 48.483-5e-3 72.721 1.022 32.625 1.304 32.625 1.304 42.813-7.888 0.907-0.351 1.815-0.701 2.75-1.062 2.25-0.938 2.25-0.938 4.25-4.938 1.551-1.535 3.162-3.01 4.812-4.437 3.534-3.075 6.898-6.228 10.188-9.563 0.509-0.503 0.509-0.503 3.086-3.051 7.05-6.991 13.684-14.073 20.039-21.699 2.499-2.825 4.903-4.964 7.875-7.25 0.733-0.751 1.467-1.503 2.223-2.277 3.05-2.99 6.27-5.552 9.652-8.16 7.689-5.977 7.689-5.977 10.937-8.813 5.77-4.978 11.284-9.455 18.188-12.75 0.742-0.639 1.485-1.279 2.25-1.937 3.292-2.47 6.587-3.669 10.445-5.036 2.305-1.027 2.305-1.027 5.305-4.027 2.39-0.808 2.39-0.808 5.25-1.437 4.679-1.066 9.266-2.287 13.875-3.625 21.748-5.764 41.894-3.874 63.369 1.463zm-1183.5 495.6-1 2c1.629 0.041 3.259 0.083 4.937 0.125 0.917 0.023 1.833 0.047 2.778 0.07 0.754-0.064 1.508-0.128 2.285-0.195l1-2c-1.63-0.041-3.259-0.082-4.938-0.125-0.916-0.023-1.833-0.046-2.777-0.07-0.754 0.064-1.508 0.129-2.285 0.195zm30 0 1 2c2.197 0.699 4.394 1.397 6.594 2.086 3.589 1.364 6.363 3.604 9.406 5.914 1.114 0.598 2.227 1.196 3.375 1.813 4.733 2.856 8.597 6.424 12.625 10.187 0-3 0-3-1.871-5.086-5.46-4.87-10.631-8.569-17.129-11.914-1.011-0.742-2.021-1.485-3.063-2.25-3.647-2.173-6.741-2.461-10.937-2.75zm34 23 1 3v-3h-1zm1 6c-0.289 0.444-0.289 0.444-1.75 2.688-2.196 3.232-4.462 5.587-7.25 8.312-4.911 5.274-9.75 10.501-13 17 4.11-2.055 4.761-2.759 7.062-6.437 3.598-5.408 7.919-9.629 12.68-14.02 2.356-2.653 2.97-4.061 3.258-7.543h-1zm-23 28c-6.452 6.712-12.875 13.556-17 22l1 2c0.401-0.594 0.802-1.188 1.215-1.801 4.052-5.908 8.385-11.424 13.062-16.851 1.723-2.348 1.723-2.348 1.723-5.348zm22 10 1 2 2-2c1.988-0.398 3.989-0.738 6-1l1 3h1v-5c-5.281-0.305-6.577-0.317-11 3zm-1 2-2 4 3-2-1-2zm11 2c-0.642 1.746-1.281 3.493-1.914 5.242-3.08 7.821-6.616 15.631-11.086 22.758l-4-2c-4.125-0.25-4.125-0.25-8 0-2 2-2 2-2.375 5.25 0.457 4.574 1.112 6.487 4.375 9.75 3.422 0.815 6.448 0.907 10 1l-3-3 1-2c-0.041-0.495-0.041-0.495-0.25-3 0.082-0.99 0.165-1.98 0.25-3 0.733-0.206 1.467-0.412 2.223-0.625 4.342-2.15 5.569-6.145 7.464-10.375 0.195-0.407 0.195-0.407 1.182-2.465 2.671-5.781 4.083-11.256 5.131-17.535h-1zm-17.363 5.231c-0.487 0.487-0.487 0.487-2.95 2.957-0.482 0.481-0.482 0.481-2.925 2.918-2.421 2.536-4.625 5.118-6.762 7.894 4.413-1.39 6.663-3.414 9.687-6.875 0.384-0.432 0.384-0.432 2.325-2.617 1.988-2.508 1.988-2.508 3.988-6.508-1 0-1 0-3.363 2.231zm-32.637 4.769-3 3c-0.99 0.33-1.98 0.66-3 1l-1-3c-2.999-0.086-6.001-0.081-9 0-2.576 2.576-2.356 3.793-2.438 7.375 0.082 5.222 0.082 5.222 2.75 8.25 2.688 1.375 2.688 1.375 5.688 2.375 2.625-1.937 2.625-1.937 5-5 0.165-1.341 0.33-2.681 0.5-4.062 0.5-3.938 0.5-3.938 3.062-6.438 0.805-0.495 1.609-0.99 2.438-1.5l-1-2zm18 9v3l2-3h-2zm-2 3v3zm-4 5c-3.801 3.216-7.547 6.409-11 10l2 1 1 3c3.3 1.65 6.383 1.223 10 1 3-3 3-3 3.437-7.062-0.144-1.3-0.288-2.599-0.437-3.938l-4-2-1-2zm-22 2c2.365 4.731 4.323 5.745 9 8l2-1c-1.458-0.98-2.916-1.959-4.375-2.937-0.812-0.546-1.624-1.091-2.461-1.653-2.164-1.41-2.164-1.41-4.164-2.41zm-8 15 4 5 2-1c-1.29-1.376-2.627-2.708-4-4h-2zm53 7c-0.563 2.875-0.563 2.875 0 7 4.547 6.64 10.097 10.964 17 15 1.644 1.268 3.268 2.561 4.875 3.875 4.069 3.317 8.243 6.373 12.566 9.348 2.679 1.861 5.307 3.781 7.934 5.715 4.722 3.445 9.534 6.723 14.414 9.941 2.232 1.475 4.456 2.963 6.672 4.461 9.671 6.527 19.547 12.643 29.539 18.66 1.816 1.098 3.633 2.195 5.449 3.293 1.808 1.09 3.617 2.18 5.426 3.27 0.85 0.513 1.701 1.025 2.577 1.554 7.081 4.25 11.209 6.128 19.548 5.883 0.625-3.5 0.625-3.5 0-8-2.214-2.354-4.596-4.114-7.219-6-2.592-1.864-4.881-3.832-7.219-6-22.997-20.633-52.091-37.255-78.562-53-1.709-1.041-3.417-2.083-5.125-3.125-4.933-2.968-10.002-5.667-15.09-8.359-2.785-1.516-2.785-1.516-5.785-3.516-2.332-0.079-4.668-0.088-7 0z" fill="#AE1919"/>
<path transform="translate(1155,606)" d="m0 0 1 2c3.298 0.187 6.513 0.241 9.812 0.211 1.031-1e-3 2.062-2e-3 3.124-4e-3 3.426-6e-3 6.853-0.027 10.279-0.047 2.37-6e-3 4.74-0.011 7.111-0.016 6.254-0.013 12.509-0.037 18.764-0.065 10.009-0.043 20.018-0.073 30.028-0.096 3.507-0.01 7.013-0.027 10.52-0.045 2.14-7e-3 4.28-0.013 6.42-0.02 0.492-3e-3 0.492-3e-3 2.977-0.02 6.738-0.012 6.738-0.012 8.965 1.102-0.863 5.571-1.502 9.172-4.449 14.074-3.181 5.534-3.889 11.038-4.676 17.301-0.321 2.323-0.642 4.646-0.965 6.969-0.152 1.134-0.304 2.268-0.46 3.437-0.395 2.824-0.839 5.629-1.329 8.438-3.683 21.21-3.356 42.787-3.673 64.255-0.551 36.395-0.551 36.395-5.448 41.526-6.232 5.663-12.553 10.11-20 14-1.052 0.701-2.104 1.403-3.188 2.125-2.812 1.875-2.812 1.875-5.874 3.375-2.938 1.5-2.938 1.5-5.188 3.438-3.271 2.453-6.539 3.63-10.344 5.062-2.406 1-2.406 1-5.344 3-3.636 2.375-7.282 3.581-11.371 4.988-3.464 1.302-6.53 3.102-9.691 5.012-4.252 1.417-8.567 1.413-13 1-5.069-2.534-5.204-3.69-7-9-2.309-8.116-3.095-14.941-2.329-23.324 2.272-25.38 3.321-51.067 3.517-76.551 0.013-0.976 0.026-1.952 0.039-2.958 9e-3 -6.814 9e-3 -6.814-2.227-10.167-3.25-0.25-3.25-0.25-7 1-2.391 2.766-4.133 5.866-6 9-3.305 4.297-6.801 7.589-11 11-1.688 1.645-3.354 3.313-5 5-4.176 4.251-8.399 8.217-13 12-0.306 0.31-0.306 0.31-1.855 1.879-2.314 2.289-4.742 4.322-7.27 6.371-0.969 0.786-1.939 1.573-2.937 2.383-0.97 0.781-1.939 1.562-2.938 2.367-0.866 0.699-1.733 1.397-2.625 2.117-9.629 7.734-19.161 14.993-29.793 21.305-2.456 1.501-4.832 3.079-7.207 4.703-3.952 2.684-8.102 4.738-12.375 6.875l-3 3c-2.488 1.027-2.488 1.027-5.312 1.938-3.29 1.128-5.691 2.064-8.563 4.062-4.026 2.577-8.121 3.624-12.711 4.875-3.414 1.125-3.414 1.125-7.184 3.121-4.864 2.304-9.267 3.222-14.542 4.066-0.959 0.163-1.917 0.325-2.905 0.492-1.97 0.331-3.942 0.656-5.914 0.976-2.684 0.44-5.36 0.909-8.037 1.388-17.724 3.052-36.679 3.487-53.832-2.918 1.267-4.083 2.806-7.73 4.812-11.5 6.517-12.826 10.604-25.689 10.188-40.125-0.42-14.714-0.42-14.714 4.715-20.359 0.532-0.457 0.532-0.457 3.223-2.766 1.06-0.923 2.121-1.846 3.214-2.797 0.94-0.809 1.88-1.619 2.848-2.453 3-3 3-3 5-7l4-2 1-3 4-2 3-2c4.032 0.333 5.294 1.219 8.688 3.75 5.8 4.076 12.313 5.444 19.105 7.172 4.207 1.078 4.207 1.078 7.086 2.124 5.372 1.642 10.794 1.323 16.371 1.329 0.588 0.012 0.588 0.012 3.566 0.074 7.773 0.026 13.138-1.188 20.184-4.449 1.679-0.488 3.366-0.95 5.062-1.375 8.488-2.476 14.924-8.279 21.579-13.891 2.359-1.734 2.359-1.734 5.156-2.843 0.727-0.294 1.454-0.588 2.203-0.891v-2c1.733-1.557 3.477-3.102 5.254-4.609 3.497-3.044 6.869-6.216 10.246-9.391 3.991-3.746 7.984-7.481 12.125-11.062 1.956-1.703 3.881-3.444 5.715-5.278 2.799-2.799 5.679-5.485 8.598-8.16 0.999-0.918 1.998-1.836 3.027-2.781 2.047-1.834 4.129-3.629 6.242-5.387 2.793-2.332 2.793-2.332 5.543-5.144 2.25-2.188 2.25-2.188 4.25-2.188l2-4c2.894-3.177 5.852-6.266 8.857-9.336 3.505-3.656 6.178-6.979 8.143-11.664z" fill="#323232"/>
<path transform="translate(1699.3 409.62)" d="m0 0c0.694 1e-3 0.694 1e-3 4.205 4e-3 11.264 0.097 20.149 1.989 30.483 6.371 1.175 0.433 2.351 0.866 3.562 1.313 11.099 5.448 16.05 13.124 20.438 24.687 3.11 16.925 2.583 38.166-3.934 54.086-1.326 3.623-2.143 7.279-3.004 11.039-1.561 6.495-3.659 11.175-7.062 16.875-0.724 1.882-1.411 3.779-2.063 5.687-1.481 4.288-3.338 7.576-5.937 11.313-0.661 1.506-1.32 3.011-2 4.563-1.737 3.853-3.328 6.263-6 9.437-0.557 1.031-1.114 2.063-1.688 3.125-2.641 4.425-5.765 8.15-9.07 12.09-2.013 2.5-3.772 5.017-5.492 7.722-2.486 3.673-4.302 5.456-7.75 8.063-3.712 4.056-7.172 8.19-10.5 12.563-0.59 0.741-1.179 1.482-1.786 2.246-1.714 2.191-1.714 2.191-3.148 4.351-1.504 1.965-1.504 1.965-5.566 4.84-3.769 0.25-7.271-0.107-11.024-0.531-6.177-0.582-12.277-0.573-18.476-0.532-0.565 3e-3 -0.565 3e-3 -3.422 0.014-2.693 0.012-5.386 0.03-8.078 0.049 0-4 0-4 2.124-6.313 0.949-0.886 1.898-1.773 2.876-2.687 1.051-1.258 2.103-2.516 3.187-3.813 0.928-1.051 1.856-2.103 2.813-3.187h2c0.66-1.32 1.319-2.64 2-4 0.721-0.701 1.443-1.403 2.187-2.125 6.134-6.27 10.889-13.965 14.75-21.812 2.063-4.063 2.063-4.063 4.082-6.856 7.445-12.055 6.279-30.388 3.418-43.707-1.91-6.914-4.212-10.641-9.437-15.5-0.826-0.866-1.651-1.733-2.5-2.625-14.712-13.976-26.895-17.575-46.852-17.641-7.092 0.406-13.156 1.286-18.898 5.641-0.789 0.585-1.578 1.17-2.391 1.773-0.779 0.611-1.557 1.222-2.359 1.852-0.818 0.575-1.635 1.15-2.477 1.742-10.012 8.958-14.217 22.348-15.523 35.258-0.064 0.572-0.064 0.572-0.383 3.469-0.296 3.179-0.486 6.341-0.617 9.531-0.042 0.879-0.083 1.758-0.126 2.664-0.426 18.492 0.027 43.753 9.137 60.012 1.227 2.885 1.056 5.217 0.989 8.324-1.23-2e-3 -2.459-4e-3 -3.725-7e-3 -11.58-0.02-23.16-0.035-34.74-0.045-5.954-5e-3 -11.907-0.012-17.861-0.023-5.745-0.011-11.489-0.017-17.234-0.02-2.193-2e-3 -4.385-5e-3 -6.577-0.011-3.07-7e-3 -6.139-8e-3 -9.208-8e-3 -0.908-3e-3 -1.815-7e-3 -2.751-0.01-4.087 6e-3 -7.935 0.092-11.904 1.124-0.176-8.976 0.289-17.709 1.312-26.625 0.118-1.137 0.236-2.274 0.357-3.445 1.205-10.771 3.782-20.123 8.331-29.93 0.474-1.341 0.948-2.681 1.437-4.063 1.732-4.364 4.06-7.97 6.563-11.937 0.977-2.238 1.953-4.475 2.917-6.719 4.276-9.014 11.213-16.751 17.645-24.281 2.747-3.381 5.17-6.917 7.594-10.535 8.223-10.993 20.159-19.959 30.844-28.465 0.866-0.7 1.732-1.4 2.624-2.121 2.448-1.974 4.907-3.931 7.376-5.879 0.688-0.547 1.376-1.093 2.085-1.656 4.052-3.139 8.189-5.713 12.688-8.125 3.504-1.918 6.846-4.093 10.227-6.219 5.539-3.247 10.947-6.262 17-8.437 4-1.563 4-1.563 6.753-3.5 3.66-2.326 7.025-3.424 11.184-4.626 3.947-1.149 7.692-2.269 11.437-3.968 4.468-1.81 8.961-2.613 13.688-3.406 6.04-1.019 11.761-2.3 17.602-4.168 7.929-2.325 15.435-2.417 23.648-2.27z" fill="#4A4A4A"/>
<path transform="translate(1794,375)" d="m0 0c9.802 0.52 20.079 1.097 29.027 5.484 5.757 2.197 11.566 2.675 17.661 3.391 24.111 3.083 24.111 3.083 35.312 7.125 1.481 4.442 1.242 8.937 1.316 13.578 0.021 1.114 0.042 2.228 0.064 3.375 0.067 3.766 0.126 7.531 0.182 11.297 0.011 0.652 0.011 0.652 0.063 3.949 0.382 24.99 0.513 49.981 0.556 74.973 6e-3 2.87 0.016 5.741 0.027 8.611 0.017 4.593 0.023 9.187 0.021 13.78 1e-3 2.489 0.012 4.977 0.023 7.465-0.034 17.409-2.134 34.467-4.802 51.649-0.393 2.547-0.772 5.096-1.151 7.645-0.254 1.657-0.508 3.314-0.764 4.971-0.111 0.73-0.111 0.73-0.675 4.423-0.93 4.633-2.281 8.835-3.86 13.284-0.414-0.081-0.414-0.081-2.51-0.493-3.828-0.556-7.463-0.627-11.331-0.621-1.561 1e-3 -3.123 1e-3 -4.731 1e-3l-5.076 0.015c-1.741 2e-3 -3.481 4e-3 -5.221 5e-3 -4.567 3e-3 -9.134 0.013-13.701 0.024-4.665 0.011-9.331 0.015-13.996 0.02-9.145 0.011-18.289 0.028-27.434 0.049-5e-3 -2.895-9e-3 -5.789-0.011-8.684-3e-3 -1.612-5e-3 -3.224-7e-3 -4.884 0.019-4.647 0.187-9.232 0.456-13.87 0.398-7.5 0.633-14.998 0.781-22.507 0.017-0.895 0.035-1.789 0.053-2.71 0.037-1.857 0.073-3.714 0.109-5.571 0.288-14.542 0.742-29.011 1.89-43.516 0.671-8.628 0.959-17.233 1.167-25.883 0.203-8.039 0.593-15.76 2.062-23.687 1.821-9.965 1.938-19.868 2.154-29.979 0.23-10.253 0.795-20.427 1.686-30.643 0.622-7.371 0.761-14.669 0.66-22.066z" fill="#4A4A4A"/>
<path transform="translate(861.21 686.68)" d="m0 0c10.201 0.141 16.575 3.117 24.792 9.319 1.114 0.598 2.228 1.196 3.375 1.813 4.062 2.451 7.267 5.333 10.707 8.578 1.918 1.609 1.918 1.609 3.918 1.609 1.186 5.201 1.412 7.288-1.312 12-0.444 0.495-0.444 0.495-2.688 3h-2l-2 4c-1.253 1.492-2.548 2.948-3.875 4.375-2.262 2.435-4.207 4.751-6.027 7.539-2.312 3.401-4.915 6.144-7.785 9.086-5.303 5.64-9.48 11.483-13.473 18.102-1.84 2.898-1.84 2.898-4.84 5.898h-3l-1-2c-4.5-0.187-4.5-0.187-9 0-1.725 1.725-1.374 3.895-1.5 6.25 0.02 3.024 0.02 3.024 0.5 5.75 3.188 2.875 3.188 2.875 7 5 0.805 0.846 1.609 1.691 2.438 2.563 3.182 3.027 6.626 4.533 10.562 6.437l3 3c4.063 0.313 4.063 0.313 8 0 2-2 2-2 2.313-6-0.103-1.32-0.207-2.64-0.313-4l-3-2c0.313-2.625 0.313-2.625 1-5h2c0.598-0.763 1.196-1.526 1.813-2.312 2.187-2.688 2.187-2.688 4.5-4 3.356-2.108 5.51-4.729 8.039-7.75 1.465-1.722 3.05-3.34 4.648-4.938l2-4c1.627-1.706 3.29-3.378 5-5l1-1c2.938-0.375 2.938-0.375 6 0 1.563 2 1.563 2 2 5-0.808 2.908-1.742 5.275-3 8-0.548 1.213-1.095 2.426-1.66 3.676-6.141 13.391-6.141 13.391-8.34 16.324h-4l-1-1c-2.665-0.083-5.334-0.083-8 0-1 1-1 1-1.25 4.25 0.269 4.03 0.754 5.635 3.25 8.75 2.672 0.566 2.672 0.566 5.75 0.563 5.446 0.236 8.751 1.157 13.25 4.437 0.619 0.681 1.238 1.361 1.875 2.063 2.647 2.412 5.39 3.077 8.77 4.097 3.8 1.355 6.979 3.658 10.355 5.84 1.553 0.79 3.116 1.56 4.688 2.313 5.221 2.55 10.09 5.562 15.011 8.644 3.129 1.936 6.294 3.781 9.489 5.606 4.597 2.663 8.947 5.536 13.261 8.632 2.746 1.943 5.548 3.779 8.364 5.618 10.194 6.765 19.67 14.513 29.187 22.187 2.541 2.038 5.086 4.068 7.649 6.078 5.775 4.601 10.628 9.255 15.351 14.922 0.805 0.804 1.609 1.609 2.438 2.438l2.562 2.562c0.339 0.328 0.339 0.328 2.051 1.988 3.658 3.762 6.371 6.62 7.074 11.95-0.125 4.062-0.125 4.062-2.125 6.062-11.241-0.932-21.983-5.011-32-10-0.641-0.317-0.641-0.317-3.886-1.922-4.045-2.013-8.08-4.044-12.114-6.078-1.729-0.855-3.458-1.709-5.187-2.562-13.416-6.72-26.23-14.281-38.813-22.438-1.179-0.764-2.359-1.529-3.574-2.316-7.391-4.854-14.493-9.929-21.445-15.391-2.605-2.004-5.246-3.849-7.981-5.668-5.409-3.714-10.036-8.187-14.808-12.672-11.336-10.489-11.336-10.489-17.192-11.953-1.75-3.062-1.75-3.062-3-6l-1 1 2 3c-1.98 0.66-3.96 1.32-6 2-1-4-1-4 0-8-0.437-2.75-0.437-2.75-1-5-4.33-0.38-8.663-0.699-13-1-0.486-0.046-0.486-0.046-2.949-0.277-2.613-0.16-2.613-0.16-7.051 0.277-3.474 3.559-4.903 7.047-5 12 0.913 3.028 1.913 6.031 3 9 0.373 1.658 0.73 3.322 1 5-2 0.813-2 0.813-5 1-4.256-2.287-7.301-3.952-10-8-0.916-7.259 0.487-13.163 3-20 1.777-6.109 0.24-9.128-2.652-14.461-3.814-7.185-5.083-13.557-4.348-21.539 1.938-2.937 1.938-2.937 4-5 1.561-4.683 1.964-9.134 1-14-3.5-3.062-3.5-3.062-5.719-4.43-4.331-2.981-7.181-7.383-10.281-11.57-0.706-0.95-1.413-1.9-2.14-2.879-3.404-4.633-6.722-9.303-9.86-14.121-0.639-0.907-1.279-1.815-1.937-2.75-2.233-3.518-4.031-7.123-5.817-10.883-1.246-2.367-1.246-2.367-4.246-6.367v-2c1.4-0.398 2.8-0.797 4.242-1.207 1.878-0.535 3.756-1.07 5.633-1.605 0.918-0.261 1.836-0.522 2.781-0.791 2.783-0.794 5.564-1.594 8.344-2.397 0.954-0.275 1.909-0.55 2.892-0.833 6.99-2.049 6.99-2.049 8.108-3.167 3.889-0.073 7.768 4e-3 11.656 0.063 5.337-0.1 10.762-1.368 16.552-1.382zm-16.208 115.32 4 5 2-1c-1.289-1.376-2.627-2.708-4-4h-2zm53 7c-0.562 2.875-0.562 2.875 0 7 4.547 6.64 10.097 10.964 17 15 1.644 1.268 3.268 2.561 4.875 3.875 4.069 3.317 8.243 6.373 12.567 9.348 2.679 1.861 5.306 3.781 7.933 5.715 4.723 3.445 9.534 6.723 14.414 9.941 2.233 1.475 4.456 2.963 6.672 4.461 9.672 6.527 19.547 12.643 29.539 18.66 1.817 1.098 3.633 2.195 5.449 3.293 1.809 1.09 3.617 2.18 5.426 3.27 0.851 0.512 1.701 1.025 2.577 1.554 7.081 4.25 11.21 6.128 19.548 5.883 0.625-3.5 0.625-3.5 0-8-2.214-2.354-4.596-4.114-7.219-6-2.591-1.864-4.881-3.832-7.218-6-22.997-20.633-52.092-37.255-78.563-53-1.708-1.041-3.417-2.083-5.125-3.125-4.933-2.968-10.002-5.667-15.09-8.359-2.785-1.516-2.785-1.516-5.785-3.516-2.332-0.079-4.668-0.088-7 0z" fill="#323131"/>
<path transform="translate(784,598)" d="m0 0h1v11c0.99-0.33 1.98-0.66 3-1 1.746-0.092 3.496-0.126 5.245-0.127 1.086-3e-3 2.173-6e-3 3.293-9e-3 1.192 2e-3 2.384 5e-3 3.613 7e-3 1.255-2e-3 2.511-4e-3 3.804-6e-3 4.162-4e-3 8.324-1e-3 12.486 2e-3 2.884 0 5.767-1e-3 8.65-3e-3 6.047-1e-3 12.093 1e-3 18.14 6e-3 7.767 5e-3 15.534 2e-3 23.302-4e-3 5.954-4e-3 11.908-2e-3 17.863 0 2.864 1e-3 5.729 0 8.594-2e-3 3.996-3e-3 7.992 1e-3 11.989 7e-3 1.194-2e-3 2.388-4e-3 3.619-7e-3 1.084 3e-3 2.168 6e-3 3.284 9e-3 0.946 0 1.891 1e-3 2.866 1e-3 2.252 0.126 2.252 0.126 4.252 1.126v-5h1c0.247 1.629 0.495 3.259 0.75 4.938 0.821 4.584 2.203 8.295 4.254 12.496 1.261 3.249 1.781 6.445 2.371 9.878 1.155 6.311 3.082 11.284 6.141 16.895 1.444 2.717 2.581 5.419 3.672 8.293 1.812 4.5 1.812 4.5 4.812 8.5 1.92 3.07 2.849 5.451 4 9-2.588 4.622-6.856 7.67-10.883 11.051-3.066 2.823-5.597 6.044-8.16 9.324-1.957 1.625-1.957 1.625-4.551 1.496-2.958-1.071-4.426-2.451-6.406-4.871v-2c-0.681-0.247-1.361-0.495-2.062-0.75-2.938-1.25-2.938-1.25-6.188-4.125-4.071-3.392-7.878-5.095-12.75-7.125-1.134-0.722-2.269-1.444-3.438-2.188-4.69-2.386-8.311-2.475-13.562-2.812-2.787-0.443-5.151-1.054-7.812-2-16.408-5.148-38.755-3.321-55.188 1l-1 1c-1.854 0.047-3.709 0.037-5.562 0-4.909-0.053-9.567 0.369-14.438 1l-2-1c-0.566-2.104-1.027-4.236-1.438-6.375-0.845-4.356-1.832-8.584-3.085-12.836-1.657-5.988-2.254-11.854-2.665-18.039-0.08-1.112-0.16-2.225-0.243-3.371-0.739-11.128-0.759-22.232-0.569-33.379z" fill="#323232"/>
<path transform="translate(1936.7 694.25)" d="m0 0c10.734 8.955 15.146 19.145 17.312 32.75 0.336 3.721 0.281 7.277 0 11-0.04 0.574-0.04 0.574-0.246 3.477-0.836 8.054-2.504 13.371-7.754 19.523-0.805 0.976-1.611 1.952-2.441 2.957-6.656 7.728-6.656 7.728-10.242 8.981-0.382 0.01-0.382 0.01-2.317 0.062-2-2-2-2-2.5-4.812 0.5-3.188 0.5-3.188 3.063-5.688 2.366-1.721 4.742-3.428 7.125-5.125 5.525-5.63 6.426-12.165 6.625-19.875-0.154-5.634-1.168-10.99-2.313-16.5-1.175-0.041-2.351-0.082-3.562-0.125-5.345-1.054-7.425-3.317-11.438-6.875-5.234 0-7.312 0.925-12 3-2.517 0.626-5.031 1.23-7.57 1.766-2.43 1.234-2.43 1.234-4.566 4.8-2.864 3.434-2.864 3.434-5.194 4.034-2.804 0.169-5.549 0.173-8.357 0.088-3.503-0.064-6.805 0.036-10.313 0.312-0.66 1.32-1.319 2.64-2 4-1.659 1.012-3.325 2.013-5 3-1.81 5.433-2.234 10.499 0.317 15.668 3.604 5.33 7.682 9.331 12.683 13.332 1.492 2.982 1.12 5.716 1 9-0.329 0.33-0.66 0.66-1 1-5 0-5 0-8.41-2.965-1.231-1.311-2.448-2.636-3.652-3.973-0.612-0.64-1.223-1.28-1.854-1.939-8.776-9.535-12.921-22.566-12.552-35.459 1.939-15.159 7.84-25.845 19.718-35.102 16.551-11.309 40.738-12.353 57.438-0.312z" fill="#AE1919"/>
<path transform="translate(1923,723)" d="m0 0c9.714 3.714 9.714 3.714 13 7 0.336 3.52 0.336 3.52 0.375 7.812 0.028 1.409 0.057 2.818 0.086 4.27-0.511 4.344-1.371 5.907-4.461 8.918-0.846 0.495-1.691 0.99-2.562 1.5-2.907 1.789-3.812 3.544-5.438 6.5l-3 3c-0.66 2.629-0.66 2.629-1.062 5.562-0.73 5.23-0.73 5.23-2.938 7.438-3.59 0.266-3.59 0.266-7.938 0.25-0.716 3e-3 -0.716 3e-3 -4.339 0.016-3.723-0.266-3.723-0.266-6.723-2.266-0.38-3.359-0.376-6.652-0.398-10.031-0.1-0.49-0.1-0.49-0.602-2.969-2.383-1.223-2.383-1.223-5-2-1.687-1.983-3.354-3.983-5-6-1.64-1.043-3.301-2.056-5-3-1.495-2.99-1.116-5.7-1-9l1-3c4.547-0.926 8.89-0.997 13.5-0.875 5.103 0.07 8.724-1.305 13.5-3.125 2.645-0.129 2.645-0.129 5.375-0.062 1.526 0.02 3.053 0.041 4.625 0.062 2.895-2.895 3.115-6.079 4-10z" fill="#AE1919"/>
<path transform="translate(1726.1 885.81)" d="m0 0c0.924-0.012 1.847-0.024 2.799-0.037 2.381-5e-3 4.761 0.102 7.139 0.225 0.66 0.659 1.319 1.32 2 2-0.625 9.137-3.137 18.134-5.281 27.019-0.473 1.96-0.939 3.923-1.396 5.887-2.963 12.567-6.083 22.6-17.323 30.094-2.997 0.335-2.997 0.335-6.438 0.374-0.567 0.015-0.567 0.015-3.434 0.086-3.128-0.46-3.128-0.46-5.511-2.043-2.192-3.277-2.117-5.565-2.055-9.48 1e-3 -1.228 3e-3 -2.457 4e-3 -3.723 0.434-3.214 0.434-3.214 3.434-6.214 1.319 0.33 2.64 0.659 4 1v11c4.374 0.312 4.374 0.312 9 0 1.374-2.126 1.374-2.126 2-5 0.536-0.929 1.072-1.857 1.624-2.813 1.683-3.9 1.593-6.984 1.376-11.187-1.32-0.331-2.641-0.66-4-1-0.661 0.659-1.32 1.32-2 2-0.661 0.659-1.32 1.32-2 2-1.32-0.331-2.641-0.66-4-1-1.053-1.974-2.048-3.977-3-6-0.743-0.557-1.485-1.114-2.25-1.688-2.586-3.416-2.04-6.086-1.485-10.227 1.746-7.335 4.703-13.329 10.422-18.273 5.508-3.014 10.229-2.996 16.375-3zm-6.062 5.188v3c-1.657 0.69-3.326 1.353-5 2-2.716 2.338-3.857 3.569-5 7-0.236 4.945-0.245 7.51 2 12 3.437 0.5 3.437 0.5 7 0 5.431-7.243 6.371-15.203 7-24h-6z" fill="#AE1919"/>
<path transform="translate(1163,867)" d="m0 0c1 1 1 1 1.312 3.812-0.35 4.693-1.604 8.4-3.171 12.809-1.221 3.615-2.194 7.246-3.141 10.941-1.416 5.457-3.1 10.67-5.137 15.922-0.874 2.547-1.354 4.99-1.801 7.641-0.35 1.279-0.701 2.558-1.062 3.875-2.438 1.188-2.438 1.188-5 1l-3-2c-5.237-0.295-8.265-0.368-13 2h-5c-3.354-3.507-5.843-6.114-6.25-11 0.543-8.694 2.744-14.294 9.02-20.406 5.636-4.028 11.722-3.916 18.402-4.153 0.933-0.145 1.866-0.291 2.828-0.441 2.915-4.372 2.392-8.591 2.559-13.75 0.441-3.25 0.441-3.25 3.441-6.25 3.497-1.166 5.444-0.773 9 0zm-32 32c-3.116 3.976-3.472 7-3 12 2 2 2 2 5.188 2.562 5.555-0.819 7.184-3.353 10.812-7.562 1.507-3.013 1.178-5.683 1-9-2-2-2-2-5.312-2.375-4.312 0.438-5.7 1.304-8.688 4.375z" fill="#AF1919"/>
<path transform="translate(1866,888)" d="m0 0c2.107 2.224 3.633 4.265 5 7 3.812 0.438 3.812 0.438 8 0 1.379-1.629 2.713-3.297 4-5 3.438-1.125 3.438-1.125 7-1 2.938 1.875 2.938 1.875 5 5 0.438 4.062 0.438 4.062 0 9-0.084 0.956-0.168 1.913-0.254 2.898-0.868 7.113-2.763 13.736-7.746 19.102-2.512 1.02-2.512 1.02-5 1-3.49-4.654-3.238-5.589-2.625-11.125 0.711-6.703 0.711-6.703-0.375-8.875-2.75-0.625-2.75-0.625-6 0-2.438 3.438-2.438 3.438-3.652 5.621-1.47 2.593-3.085 4.976-4.848 7.379-0.273 0.382-0.273 0.382-1.656 2.312-1.844 1.688-1.844 1.688-6.844 1.688-2.826-4.24-1.761-7.09-1-12l1-2c0.201-4.613 0.319-9.224 0.426-13.84 0.189-1.373 0.379-2.746 0.574-4.16 4-3 4-3 9-3z" fill="#AF1919"/>
<path transform="translate(1300,882)" d="m0 0 3 3c-1 4-1 4-3 8l4 1c1 2.312 1 2.312 1 5-1.625 2.375-1.625 2.375-4 4-4.3-0.3-4.3-0.3-6-2-2.328-0.368-4.662-0.702-7-1-0.155 11.494-0.155 11.494 1 16l2 1c0.438 2.938 0.438 2.938 0 6-2.238 1.355-2.238 1.355-5 2-2.352-0.977-2.352-0.977-4.625-2.625-0.755-0.529-1.511-1.057-2.289-1.602-3.025-2.571-4.935-4.743-5.52-8.726-0.011-9.473 2.009-15.889 8.434-23.047 3.059-2.02 3.059-2.02 6.438-3.812 1.112-0.605 2.224-1.21 3.371-1.833 3.191-1.355 3.191-1.355 8.191-1.355z" fill="#AF1919"/>
<path transform="translate(1450,882)" d="m0 0 1 4c-0.99 1.32-1.98 2.64-3 4-0.261 2.438-0.261 2.438-0.117 5.141 0.032 0.988 0.064 1.977 0.097 2.996 0.096 2.06 0.2 4.12 0.313 6.179 0.275 9.21-2.239 13.395-8.543 20.184-4.787 3.192-7.096 3.507-12.75 2.5-3.142-1.926-5.79-4.038-8-7v-4c4 1 4 1 5 2 3.875 0.375 3.875 0.375 8 0 2.606-2.362 2.941-4.225 3.203-7.676 0.064-4.045 0.083-7.466-1.203-11.324-0.54-5.727 0.348-8.559 4-13 3.909-4.015 6.464-4.434 12-4z" fill="#AF1919"/>
<path transform="translate(1579,884)" d="m0 0 4 1c2.24 6.672-0.144 13.464-1.75 20.062-0.266 1.159-0.531 2.317-0.805 3.51-2.629 11.11-2.629 11.11-5.445 15.428-2.688 0.875-2.688 0.875-5 1-5.318-7.2-2.487-16.55-1.312-24.875 2.06-6.477 5.532-11.345 10.312-16.125z" fill="#AE1919"/>
<path transform="translate(844,802)" d="m0 0c1.009 0.765 1.009 0.765 6.055 4.59 1.945 1.41 1.945 1.41 3.945 2.41-0.251 0.762-0.503 1.524-0.762 2.309-2.235 7.555-2.348 11.472 0.762 18.691 0.372 1.658 0.729 3.322 1 5-2 0.812-2 0.812-5 1-4.256-2.287-7.301-3.952-10-8-0.923-7.31 0.462-13.199 3-20 0.384-1.991 0.742-3.989 1-6z" fill="#AD1919"/>
<path transform="translate(1587.7 864.62)" d="m0 0c0.763 0.454 1.526 0.908 2.312 1.375v5c-2.25 1.5-2.25 1.5-5 2-1.319-0.99-2.64-1.98-4-3 0.063-2.625 0.063-2.625 1-5 3-1 3-1 5.688-0.375z" fill="#AF1919"/>
<path transform="translate(877,825)" d="m0 0-2 4c-2.625 0.75-2.625 0.75-5 1v-4c4.275-2.362 4.275-2.362 7-1z" fill="#AF1919"/>
<path transform="translate(1297,914)" d="m0 0 4 1-2 4-4-1 2-4z" fill="#AF1919"/>
<path transform="translate(1721,893)" d="m0 0c3 1 3 1 3 1z" fill="#323232"/>
<path transform="translate(1292,917)" d="m0 0 2 1z" fill="#323232"/>
</svg>
