<?xml version="1.0" encoding="UTF-8"?>
<svg version="1.1" viewBox="0 0 2744 1144" xmlns="http://www.w3.org/2000/svg">
<path transform="translate(1750,506)" d="m0 0c1.728 3.456 1.374 7.31 1.562 11.125 0.044 0.849 0.087 1.699 0.131 2.574 0.107 2.1 0.207 4.201 0.307 6.301 8.438-0.844 8.438-0.844 12-5 1.973-1.373 3.975-2.704 6-4 0.846-0.66 1.691-1.32 2.562-2 4.244-2.469 8.505-3.665 13.219-4.973 3.219-1.027 3.219-1.027 6.25-2.586 13.441-6.525 38.742-5.215 52.969-1.441 3.875 2.375 3.875 2.375 7 5 1.69 0.692 3.401 1.335 5.125 1.938 4.7 1.759 6.939 3.917 9.875 8.062 0.701 0.639 1.402 1.279 2.125 1.938 2.473 2.72 3.53 5.668 4.875 9.062 1 1 1 1 4.375 1.562 5.787-0.703 8.455-2.939 12.957-6.472 3.386-2.652 7.02-4.818 10.668-7.09 1.176-0.99 2.351-1.98 3.562-3 4.786-3.716 10.301-5.132 16.047-6.824 3.391-1.176 3.391-1.176 7.391-4.176 17.579-4.868 45.112-4.817 61 4 5.485 3.111 9.172 6.003 13 11 0.66 0.577 1.32 1.155 2 1.75 3.198 3.598 4.953 7.925 7 12.25 0.252 0.467 0.252 0.467 1.527 2.832 1.681 3.616 2.573 7.097 3.473 10.98 1.054 4.424 2.104 8.737 3.688 13 2.789 8.901 2.458 18.361 2.454 27.617 2e-3 0.595 2e-3 0.595 0.01 3.606 8e-3 2.564 0.013 5.129 0.017 7.693 7e-3 4.061 0.023 8.121 0.041 12.182 0.052 11.538 0.101 23.076 0.116 34.615 0.01 7.074 0.039 14.147 0.081 21.221 0.013 2.69 0.018 5.381 0.015 8.071-2e-3 3.758 0.02 7.514 0.048 11.272-7e-3 1.108-0.013 2.215-0.02 3.357 0.076 6.304 0.79 10.251 4.55 15.554 0.576 0.913 1.152 1.825 1.746 2.766 0.558 0.819 1.116 1.639 1.692 2.484 0.555 0.83 1.111 1.66 1.683 2.516 2.848 3.386 5.831 4.899 10.004 6.234 2.875 1 2.875 1 5.875 4 0.438 3.5 0.438 3.5 0 7-4.551 3.414-5.842 3.382-11.351 3.404-1.505 0.013-3.011 0.025-4.561 0.038-1.626-2e-3 -3.252-5e-3 -4.928-8e-3 -1.686 4e-3 -3.372 9e-3 -5.059 0.015-3.533 9e-3 -7.066 7e-3 -10.599-3e-3 -4.524-0.011-9.047 9e-3 -13.571 0.038-3.482 0.018-6.964 0.018-10.447 0.012-2.477 0-4.955 0.017-7.433 0.034-1.508-9e-3 -3.016-0.019-4.57-0.028-1.327 0-2.654-1e-3 -4.021-1e-3 -4.104-0.594-5.554-1.59-8.46-4.501-0.61-2.635-0.61-2.635-0.588-5.691-4e-3 -1.16-8e-3 -2.321-0.012-3.517 0.021-1.269 0.042-2.539 0.064-3.847 3e-3 -1.34 5e-3 -2.681 8e-3 -4.062 0.013-4.443 0.062-8.885 0.11-13.328 0.014-3.087 0.026-6.174 0.036-9.261 0.03-8.14 0.089-16.28 0.155-24.421 0.102-13.009 0.166-26.018 0.222-39.027 0.024-4.541 0.063-9.082 0.103-13.623 0.017-2.797 0.034-5.594 0.05-8.391 0.015-1.258 0.03-2.515 0.045-3.811 0.027-6.997-0.619-13.205-2.193-20.021-0.323-3.018-0.616-6.039-0.875-9.062-1.223-11.121-4.23-17.376-11.516-25.872-6.488-5.138-14.984-4.373-22.859-4.316-0.528-4e-3 -0.528-4e-3 -3.199-0.023-19.725 0.048-19.725 0.048-27.551 6.273-1.432 0.864-2.87 1.718-4.312 2.562-3.688 2.438-3.688 2.438-4.688 5.438-0.086 1.902-0.111 3.807-0.102 5.711 2e-3 1.191 5e-3 2.381 8e-3 3.607 8e-3 1.308 0.016 2.615 0.025 3.963 4e-3 1.375 9e-3 2.751 0.014 4.169 0.018 4.565 0.044 9.13 0.071 13.695 0.016 3.165 0.033 6.33 0.05 9.495 0.031 5.792 0.066 11.585 0.104 17.377 0.056 8.523 0.099 17.046 0.131 25.569 0.028 7.384 0.073 14.768 0.123 22.152 0.019 3.14 0.034 6.281 0.043 9.421 0.014 4.391 0.047 8.782 0.085 13.172v3.944c0.014 1.199 0.028 2.398 0.043 3.633 5e-3 1.038 0.011 2.075 0.017 3.144 1.043 7.928 7.277 15.914 12.888 21.386 2.5 1.562 2.5 1.562 6.188 3.124 3.312 1.438 3.312 1.438 5.312 4.438 0.312 3.5 0.312 3.5 0 7-3.811 3.811-5.155 3.379-10.437 3.388-1.549 0.01-3.097 0.019-4.693 0.029-1.695-6e-3 -3.39-0.012-5.085-0.019-1.735 2e-3 -3.47 5e-3 -5.205 9e-3 -3.637 5e-3 -7.274-2e-3 -10.912-0.016-4.662-0.017-9.323-7e-3 -13.985 0.011-3.583 0.011-7.167 7e-3 -10.75-1e-3 -1.719-2e-3 -3.438 1e-3 -5.156 8e-3 -2.404 8e-3 -4.807-6e-3 -7.21-0.021-0.684-1e-3 -0.684-1e-3 -4.145-7e-3 -3.422-0.381-3.422-0.381-7.422-3.381-0.499-2.745-0.499-2.745-0.499-6.137-5e-3 -0.643-5e-3 -0.643-0.029-3.895 0.01-1.413 0.02-2.827 0.03-4.283-3e-3 -0.743-3e-3 -0.743-0.017-4.505-0.012-4.085-6e-3 -8.171 6e-3 -12.256 8e-3 -4.286-9e-3 -8.572-0.023-12.858-0.031-9.991-0.033-19.982-0.031-29.974 2e-3 -12.669-9e-3 -25.339-0.048-38.008-0.013-4.26-0.019-8.519-9e-3 -12.779 9e-3 -4.769 1e-3 -9.538-0.011-14.308 8e-3 -1.387 0.015-2.774 0.023-4.203-0.081-15.993-1.948-29.776-13.146-41.837-7.426-6.47-17.984-5.586-27.246-4.957-9.468 0.962-18.078 1.958-25.957 7.598-2.043 1.402-2.043 1.402-4.742 2.461-2.301 0.941-2.301 0.941-3.301 2.941-0.1 1.893-0.135 3.789-0.14 5.685-6e-3 1.21-0.012 2.419-0.018 3.666-1e-3 1.334-2e-3 2.669-3e-3 4.044-5e-3 1.4-0.01 2.8-0.015 4.243-0.015 4.653-0.022 9.306-0.027 13.96-6e-3 3.226-0.012 6.453-0.017 9.679-0.01 5.91-0.016 11.819-0.019 17.729-4e-3 8.687-0.022 17.375-0.051 26.063-0.024 7.53-0.032 15.059-0.034 22.589-3e-3 3.199-0.011 6.399-0.024 9.598-0.017 4.481-0.015 8.962-8e-3 13.443-0.01 1.321-0.019 2.641-0.028 4.002 0.037 8.32 0.484 15.332 5.548 22.26 5.438 5.334 9.441 8.19 16.836 10.039 2 2 2 2 2.312 5.938-0.312 4.062-0.312 4.062-3.312 7.062-3.295 0.381-3.295 0.381-7.437 0.388-1.549 0.01-3.097 0.019-4.693 0.029-1.695-6e-3 -3.39-0.012-5.085-0.019-1.735 2e-3 -3.47 5e-3 -5.205 9e-3 -3.637 5e-3 -7.274-2e-3 -10.912-0.016-4.662-0.017-9.323-7e-3 -13.985 0.011-3.583 0.011-7.167 7e-3 -10.75-1e-3 -1.719-2e-3 -3.438 1e-3 -5.156 8e-3 -2.404 8e-3 -4.807-6e-3 -7.21-0.021-0.684-1e-3 -0.684-1e-3 -4.145-7e-3 -3.422-0.381-3.422-0.381-7.422-3.381-0.438-2.448-0.438-2.448-0.355-5.332 0.017-1.046 0.034-2.092 0.052-3.17 0.038-1.092 0.076-2.185 0.115-3.31 0.053-2.153 0.101-4.305 0.145-6.458 0.031-0.954 0.061-1.909 0.093-2.893-0.05-2.837-0.05-2.837-0.544-5.631-0.501-3.172-0.639-6.131-0.651-9.34-7e-3 -1.209-0.014-2.417-0.021-3.662-2e-3 -1.312-5e-3 -2.625-8e-3 -3.977-6e-3 -1.392-0.013-2.785-0.02-4.22-0.014-3.022-0.026-6.043-0.036-9.065-0.016-4.783-0.039-9.566-0.065-14.349-0.07-13.599-0.131-27.197-0.182-40.796-0.031-8.319-0.073-16.638-0.12-24.957-0.016-3.17-0.028-6.34-0.037-9.509-0.012-4.433-0.036-8.866-0.063-13.299-1e-3 -1.309-1e-3 -2.617-2e-3 -3.965-0.074-9.246-0.754-16.399-6.301-24.067-0.578-1.196-1.155-2.393-1.75-3.625-2.833-4.249-5.702-5.17-10.25-7.375-5.706-5.503-5.706-5.503-6.625-10.188 0.809-3.638 1.534-4.701 4.625-6.812 6.77-1.763 13.494-2.57 20.438-3.312 9.153-1.048 17.473-2.884 26.296-5.547 10.389-2.778 24.032-5.527 34.266-1.141z"/>
<path transform="translate(877 378.31)" d="m0 0c1.138 0.118 2.276 0.235 3.448 0.356 6.18 0.715 11.937 1.902 17.903 3.642 4.349 1.132 8.753 1.526 13.211 2.002 8.998 1.085 16.897 3.176 25.434 6.273 3.556 1.256 7.017 2.211 10.692 3.039 4.668 1.092 8.207 2.85 12.312 5.376 1.402 0.515 2.805 1.031 4.25 1.562 3.75 1.438 3.75 1.438 6.75 4.438 0.381 3.408 0.381 3.408 0.388 7.712 0.01 1.609 0.019 3.217 0.029 4.875-6e-3 1.761-0.012 3.522-0.019 5.284 2e-3 1.802 5e-3 3.604 9e-3 5.406 5e-3 3.779-2e-3 7.557-0.016 11.336-0.017 4.844-7e-3 9.687 0.011 14.53 0.011 3.722 7e-3 7.445-1e-3 11.167-2e-3 1.786 1e-3 3.572 8e-3 5.357 8e-3 2.497-6e-3 4.994-0.021 7.49-2e-3 1.421-5e-3 2.843-7e-3 4.307-0.381 3.536-0.381 3.536-3.381 7.536-3.035 1.011-5.197 1.165-8.375 1.187-0.468 7e-3 -0.468 7e-3 -2.836 0.043-3.046-0.252-5.09-0.8-7.789-2.23-3.496-4.662-3.692-8.236-4.25-13.813-1.169-9.736-3.913-17.596-8.75-26.187-0.641-1.177-1.281-2.354-1.941-3.567-1.97-3.285-4.082-6.082-6.559-8.996-2.436-2.895-4.587-5.579-6.562-8.813-2.685-3.636-6.073-5.355-9.938-7.624-0.495-0.496-0.495-0.496-3-3-2.733-1.098-5.5-1.957-8.309-2.84-2.691-1.16-2.691-1.16-4.484-3.125-3.287-3.031-6.787-3.567-11.082-4.661-8.957-2.316-8.957-2.316-12.223-3.449-20.422-6.514-46.154-2.895-65.902 4.075-1.955 0.471-3.914 0.928-5.875 1.374-6.107 1.481-11.508 3.849-17.125 6.626-1.093 0.495-2.186 0.99-3.312 1.5-2.688 1.5-2.688 1.5-5.563 3.937-3.125 2.563-3.125 2.563-6.828 4.281-4.842 2.571-8.274 5.551-12.172 9.344-0.347 0.332-0.347 0.332-2.101 2.012-7.963 7.692-15.471 15.289-21.024 24.926-0.681 0.99-1.361 1.98-2.062 3-2.286 3.538-4.078 7.221-5.938 11-0.681 1.134-1.361 2.268-2.062 3.437-2.214 4.07-3.493 8.166-4.938 12.563-0.638 1.149-1.276 2.299-1.934 3.484-2.602 5.688-3.583 11.192-4.628 17.328-0.393 2.236-0.79 4.472-1.192 6.707-0.098 0.55-0.098 0.55-0.596 3.33-0.596 2.891-1.386 5.607-2.279 8.416-2.109 7.443-1.806 14.994-1.746 22.672-0.012 1.471-0.023 2.943-0.035 4.459 0.023 8.7 0.949 16.28 3.41 24.604 0.523 2.453 1.026 4.911 1.5 7.374 0.249 1.255 0.498 2.509 0.754 3.801 0.499 2.558 0.986 5.118 1.461 7.68 1.243 6.375 2.404 10.852 6.285 16.145 0.685 1.776 1.327 3.57 1.938 5.374 1.737 5.044 4.164 9.133 7.062 13.626 0.714 1.55 1.401 3.113 2.062 4.687 1.702 3.787 3.264 6.221 5.938 9.313 0.33 0.505 0.33 0.505 2 3.062 1.827 2.684 3.681 4.691 6 6.938 0.639 0.804 1.279 1.608 1.938 2.437 3.048 3.787 6.359 6.989 10.124 10.063 2.938 2.5 2.938 2.5 4.813 5.062 2.877 3.3 6.2 4.566 10.125 6.438 0.846 0.68 1.691 1.361 2.562 2.062 2.438 1.938 2.438 1.938 5.876 3.375 3.562 1.563 3.562 1.563 6.374 4 3.464 2.784 6.58 4.091 10.723 5.57 2.465 0.993 2.465 0.993 4.746 2.472 2.961 1.656 5.353 2.249 8.684 2.837 1.13 0.207 2.26 0.414 3.424 0.627 1.171 0.204 2.342 0.408 3.549 0.619 2.322 0.414 4.643 0.832 6.964 1.254 1.026 0.18 2.052 0.36 3.109 0.545 3.096 0.661 5.995 1.619 8.989 2.639 3.984 0.584 7.98 0.788 12 1 0.433 0.027 0.433 0.027 2.625 0.164 11.466 0.384 23.007-2.255 33.953-5.489 2.356-0.657 4.767-1.107 7.172-1.551 4.725-1.25 7.311-3.291 11.25-6.124 1.607-0.537 3.235-1.013 4.875-1.438 4.731-1.258 8.138-3.32 12.098-6.152 2.027-1.41 2.027-1.41 5.215-2.973 3.377-1.727 5.909-3.999 8.812-6.437 0.608-0.361 0.608-0.361 3.688-2.188 4.803-2.897 8.723-6.679 12.796-10.508 5.791-5.304 5.791-5.304 8.516-5.304 0.309-0.784 0.619-1.568 0.938-2.376 1.062-2.624 1.062-2.624 4.062-4.624 2.313-0.063 2.313-0.063 5 1 6.804 7.196 6.804 7.196 7.312 11.874-0.531 7.011-3.116 13.413-5.937 19.813-1.375 3.313-1.375 3.313-2.25 7.875-1.236 4.874-2.867 6.714-6.125 10.438-0.709 1.543-1.374 3.108-2 4.687-2.131 4.595-2.663 5.234-7 7.313-2.355 0.715-4.733 1.355-7.125 1.937-4.565 1.156-8.938 2.386-13.313 4.125-5.57 2.124-11.208 3.091-17.082 4.031-3.835 0.776-7.428 1.763-11.168 2.891-6.823 1.979-13.434 3.103-20.5 3.766-1.281 0.121-2.562 0.242-3.881 0.367-36.201 2.963-76.376 4.558-111.24-6.461-4.972-1.552-9.892-2.43-15.051-3.11-3.446-0.713-6.122-2.402-9.081-4.254-4.439-2.243-9.275-3.124-14.106-4.203-3.66-1.155-5.56-2.632-8.453-5.089-2.5-1.126-2.5-1.126-5-2-3.993-1.508-6.721-3.239-10-6-1.299-0.64-2.599-1.279-3.938-1.938-3.933-1.997-6.751-4.183-10.062-7.062-0.878-0.554-1.756-1.107-2.66-1.676-4.27-2.972-7.902-6.42-11.652-10.012-0.755-0.718-1.509-1.436-2.285-2.177-1.483-1.415-2.963-2.832-4.44-4.252-1.589-1.524-3.188-3.038-4.791-4.548-7.763-7.464-13.587-16.182-19.172-25.335-0.34-0.485-0.34-0.485-2.062-2.938-1.972-3.115-3.446-6.296-4.879-9.688-1.013-2.271-2.221-4.453-3.434-6.624-3.547-6.929-5.267-14.543-7.293-22.02-1.332-4.73-1.332-4.73-2.445-7.492-9.086-22.935-4.496-62.759 3.734-85.227 1.199-3.488 1.936-6.625 2.441-10.261 1.034-5.234 2.516-6.828 5.938-10.75 0.738-2.44 1.472-4.883 2.121-7.348 1.264-3.815 3.317-6.96 5.469-10.332 1.41-2.32 1.41-2.32 2.972-6.133 1.626-3.605 3.591-5.479 6.438-8.187 0.597-0.912 1.194-1.823 1.809-2.762 4.047-5.98 9.227-11.016 14.191-16.238 0.865-0.92 1.73-1.839 2.621-2.786 4.963-5.137 10.126-9.395 15.988-13.472 2.391-1.742 2.391-1.742 4.953-4.43 3.006-2.852 6.158-4.297 9.883-6.055 2.555-1.257 2.555-1.257 6.743-3.883 3.538-2.204 6.989-3.746 10.812-5.374 0.928-0.661 1.856-1.32 2.812-2 3.483-2.186 6.556-3.073 10.528-3.997 2.66-1.003 2.66-1.003 5.957-3.472 4.092-2.797 7.179-3.641 12.015-4.594 4.726-0.945 9.033-2.016 13.442-3.93 5.822-2.421 11.651-3.242 17.871-4.07 2.296-0.329 4.591-0.659 6.887-0.992 0.553-0.079 0.553-0.079 3.353-0.48 15.764-2.342 15.764-2.342 22.135-4.465 19.523-2.018 39.508-1.731 59 0.312z"/>
<path transform="translate(2133.2 384.68)" d="m0 0c2.202 2.841 2.305 4.239 2.314 7.802 0.012 1.113 0.024 2.227 0.037 3.374-6e-3 1.217-0.013 2.433-0.02 3.687 9e-3 1.285 0.018 2.57 0.027 3.893 0.024 4.255 0.021 8.508 0.018 12.763 0.012 2.949 0.026 5.898 0.042 8.847 0.039 7.768 0.054 15.537 0.063 23.306 0.02 12.443 0.077 24.886 0.129 37.329 0.015 4.358 0.023 8.715 0.028 13.073 7e-3 2.656 0.014 5.312 0.021 7.969 0 1.22-1e-3 2.441-1e-3 3.699 4e-3 1.108 8e-3 2.215 0.012 3.357 1e-3 0.966 3e-3 1.932 4e-3 2.928 0.127 2.296 0.127 2.296 1.127 4.296 7.663 1.131 11.508-1.228 17.91-5.265 3.877-2.176 7.511-3.021 11.832-3.918 3.882-0.973 7.429-2.432 11.133-3.942 7.573-2.891 14.063-3.842 22.125-3.875 1.559-0.025 3.117-0.051 4.723-0.078 17.794-0.215 33.152-0.112 49.277 8.078 1.403 0.475 2.805 0.949 4.25 1.438 4.122 1.717 5.077 3.138 7.75 6.562 1.215 0.574 2.429 1.148 3.68 1.739 12.784 6.692 21.955 20.245 29.32 32.261 0.681 0.887 1.362 1.774 2.063 2.688 2.464 4.213 3.623 8.5 4.91 13.191 1.027 3.121 1.027 3.121 2.518 5.397 5.437 9.817 3.816 24.348 3.759 35.224 8e-3 1.476 0.016 2.952 0.024 4.473-0.044 25.094-0.044 25.094-6.059 35.641-1.322 2.596-1.946 4.987-2.59 7.824-1.627 6.419-4.853 11.187-8.625 16.562-0.71 1.082-1.42 2.163-2.152 3.278-6.585 9.74-14.345 17.686-22.848 25.722-0.811 0.779-1.621 1.558-2.457 2.36-4.168 3.848-8.428 6.243-13.543 8.64-1.196 0.764-2.392 1.527-3.625 2.313-8.996 5.704-18.332 10.043-28.633 12.766-2.742 0.921-2.742 0.921-6.742 3.921-2.961 0.692-2.961 0.692-6.375 1.133-1.232 0.166-2.464 0.333-3.734 0.504-0.642 0.081-0.642 0.081-3.891 0.488-2.542 0.335-5.083 0.671-7.625 1.008-0.563 0.072-0.563 0.072-3.414 0.434-2.961 0.433-2.961 0.433-6.961 1.433-2.289 0.199-4.581 0.362-6.875 0.5-3.504 0.212-6.867 0.452-10.32 1.094-2.805 0.406-2.805 0.406-6.805-0.594-2.06-0.152-4.123-0.273-6.187-0.375-6.934-0.452-13.609-1.585-20.43-2.879-4.438-0.755-8.838-1.206-13.32-1.621-6.069-0.661-10.321-1.844-15.547-4.91-3.114-1.504-6.051-1.997-9.453-2.59-7.874-1.488-14.376-4.938-20.063-10.625-0.202-3.682-0.276-7.291-0.265-10.975-4e-3 -1.156-8e-3 -2.313-0.013-3.504-0.012-3.903-0.01-7.805-9e-3 -11.707-6e-3 -2.787-0.013-5.574-0.021-8.361-0.014-6.015-0.023-12.03-0.027-18.046-7e-3 -9.508-0.029-19.016-0.053-28.524-0.032-13.329-0.059-26.658-0.08-39.987-1e-3 -0.846-3e-3 -1.693-4e-3 -2.565-9e-3 -6.006-0.019-12.012-0.028-18.018-0.01-6.852-0.021-13.704-0.031-20.557-2e-3 -0.843-3e-3 -1.687-4e-3 -2.557-0.023-14.072-0.053-28.144-0.089-42.216-0.023-9.455-0.037-18.91-0.043-28.364-6e-3 -5.882-0.02-11.764-0.037-17.645-6e-3 -2.731-8e-3 -5.461-7e-3 -8.191 1e-3 -3.725-0.01-7.448-0.024-11.173 4e-3 -1.083 7e-3 -2.166 0.01-3.282-0.051-8.32-0.824-14.428-6.712-20.703-0.883-0.941-1.766-1.882-2.676-2.851-3.687-3.542-7.654-6.568-11.832-9.508-2.055-2.266-2.055-2.266-2.547-5.844 0.492-3.422 0.492-3.422 3.492-6.422 3.496-1.705 6.646-2.342 10.5-2.711 0.523-0.054 0.523-0.054 3.17-0.328 1.099-0.111 2.198-0.221 3.33-0.336 9.094-0.994 17.365-2.534 26-5.625 29.761-7.995 29.761-7.995 37.199-2.323zm18.801 157.32c-1.916 0.501-3.833 1.001-5.75 1.5-4.806 1.697-8.891 3.784-11.25 8.5-0.385 5.114-0.435 10.25-0.562 15.375-0.021 0.814-0.042 1.627-0.063 2.465-0.468 18.905-0.484 37.814-0.5 56.723-2e-3 1.498-5e-3 2.995-8e-3 4.538-5e-3 4.343-4e-3 8.686 0 13.028-1e-3 1.292-3e-3 2.583-6e-3 3.914 0.032 12.697 0.181 24.159 5.139 35.957 0.292 0.931 0.583 1.862 0.883 2.821 3.513 10.371 11.638 20.538 21.266 25.949 2.611 0.955 5.137 1.647 7.851 2.23 0.97 0.413 1.939 0.825 2.938 1.25 8.017 1.964 15.69 0.951 23.472-1.472 2.59-0.778 2.59-0.778 7.215-1.59 5.356-1.454 8.951-3.946 13.375-7.188 1.114-0.721 2.228-1.443 3.375-2.187 2.625-1.813 2.625-1.813 5.625-4.813v-2l4-2c5.653-5.354 9.887-10.838 13-18 0.521-0.974 1.042-1.949 1.578-2.953 10.075-19.536 16.787-47.198 10.391-68.695-1.018-3.522-1.781-7.074-2.562-10.655-2.497-11.07-6.212-20.502-14.407-28.697h-2l-2-4c-2.5-2.75-2.5-2.75-5-5h-2l-2-4c-2.25-1.5-2.25-1.5-5-3-2-1.333-4-2.666-6-4-3.489-2.283-6.5-3.571-10.562-4.5-3.156-0.728-6.284-1.455-9.395-2.355-14.715-4.196-26.645-1.624-41.043 2.855z"/>
<path transform="translate(1457.9 503.75)" d="m0 0c3.582-0.183 5.734 0.018 8.815 1.917 2.302 2.337 2.302 2.337 2.909 5.003-8e-3 1.023-0.017 2.046-0.026 3.1 3e-3 1.178 5e-3 2.356 8e-3 3.57-0.023 1.29-0.045 2.58-0.069 3.908-4e-3 1.362-8e-3 2.724-0.012 4.127-0.019 4.524-0.073 9.047-0.125 13.57-0.017 3.158-0.031 6.317-0.043 9.475-0.036 8.346-0.1 16.692-0.171 25.038-0.115 13.275-0.199 26.55-0.259 39.826-0.026 4.603-0.073 9.205-0.121 13.808-0.102 13.414 0.076 26.686 1.469 40.037 0.054 0.545 0.054 0.545 0.329 3.304 0.765 6.359 2.2 11.023 5.413 16.571 0.458 0.826 0.915 1.652 1.387 2.504 4.041 6.395 9.279 12.051 16.613 14.496 4.891 0.292 9.789 0.278 14.688 0.312 1.35 0.029 2.7 0.058 4.091 0.088 7.603 0.049 12.782-0.258 19.221-4.4 3.304-1.721 6.413-3.144 9.938-4.375 4.267-1.707 7.382-3.899 11.062-6.625 1.114-0.536 2.228-1.073 3.375-1.625 2.625-1.375 2.625-1.375 3.625-4.375 0.096-1.71 0.135-3.423 0.141-5.135 5e-3 -1.063 0.011-2.125 0.017-3.22 1e-3 -1.166 2e-3 -2.332 3e-3 -3.533 5e-3 -1.228 0.01-2.456 0.015-3.721 0.015-4.073 0.022-8.146 0.027-12.219 6e-3 -2.827 0.012-5.653 0.018-8.479 0.01-5.932 0.016-11.863 0.019-17.795 6e-3 -7.601 0.03-15.202 0.058-22.802 0.019-5.841 0.024-11.681 0.026-17.522 3e-3 -2.802 0.011-5.604 0.024-8.406 0.017-3.921 0.015-7.842 9e-3 -11.763 4e-3 -0.579 4e-3 -0.579 0.028-3.508-0.055-10.469-3.395-17.246-10.385-24.897-3.386-3.098-6.809-6.132-10.305-9.106-2.943-3.161-3.565-4.643-3.695-8.894 0.5-2.688 0.5-2.688 2-5 6.187-3.41 12.357-3.762 19.25-4.375 9.847-0.99 18.819-2.756 28.336-5.484 9.529-2.463 19.573-3.568 29.414-3.141 2.81 1.794 4.51 3.019 6 6 0.101 2.393 0.134 4.788 0.138 7.183 6e-3 1.542 0.011 3.084 0.017 4.673l3e-3 5.163c5e-3 1.803 0.01 3.607 0.015 5.41 0.012 3.892 0.02 7.785 0.026 11.677 0.011 6.161 0.031 12.323 0.054 18.485 0.061 17.524 0.115 35.048 0.149 52.573 0.018 9.672 0.047 19.345 0.088 29.017 0.021 5.117 0.036 10.233 0.038 15.35 3e-3 4.821 0.019 9.643 0.045 14.464 7e-3 1.762 9e-3 3.525 6e-3 5.287-0.037 22.413-0.037 22.413 5.542 30.972 0.765 0.762 1.529 1.523 2.317 2.308 0.381 0.393 0.381 0.393 2.308 2.379 3.185 2.909 5.687 4.902 9.879 6.059 3.375 1 3.375 1 5.375 4 0.452 6.322 0.452 6.322-2 10-3.333 0.394-3.333 0.394-7.707 0.42-1.631 0.016-3.263 0.032-4.945 0.048-1.791 1e-3 -3.583 1e-3 -5.375 1e-3 -1.829 7e-3 -3.657 0.014-5.485 0.023-3.836 0.013-7.672 0.015-11.508 9e-3 -4.921-6e-3 -9.842 0.025-14.763 0.065-3.777 0.026-7.554 0.029-11.331 0.025-1.815 2e-3 -3.629 0.011-5.444 0.029-2.535 0.022-5.07 0.01-7.606-5e-3 -1.444 2e-3 -2.888 4e-3 -4.375 6e-3 -3.461-0.621-3.461-0.621-5.432-2.897-1.477-3.911-1.312-7.374-1.216-11.537 0.013-0.766 0.013-0.766 0.082-4.644 0.035-1.169 0.069-2.338 0.105-3.543-5.761 0.574-8.064 0.825-12 5-2.993 1.349-5.993 2.682-9 4-0.787 0.672-1.575 1.343-2.387 2.035-3.811 2.866-7.64 3.172-12.261 3.961-3.352 1.004-3.352 1.004-6.219 3.367-6.429 4.102-13.463 4.967-20.883 6.387-2.995 0.598-5.99 1.197-8.984 1.797-0.661 0.128-0.661 0.128-4.007 0.776-3.259 0.677-3.259 0.677-6.259 1.677-17.051 1.449-33.738-3.297-47-14-0.835-0.438-1.67-0.877-2.531-1.328-3.071-2.08-3.979-3.951-5.531-7.297-0.507-1.083-1.014-2.166-1.535-3.281-0.463-1.021-0.926-2.042-1.403-3.094-0.66-1.361-1.32-2.723-2-4.125-1.904-4.435-3.561-8.957-5.187-13.5-0.509-1.415-1.019-2.831-1.543-4.289-3.704-12.873-2.385-27.403-2.314-40.69 0.017-3.411 0.027-6.823 0.036-10.235 0.024-9.689 0.059-19.379 0.104-29.068 0.027-5.957 0.044-11.913 0.055-17.87 6e-3 -2.252 0.016-4.504 0.03-6.756 0.216-34.998 0.216-34.998-10.915-47.221-2.918-2.893-6.054-5.337-9.383-7.738-1.883-1.508-1.883-1.508-3.883-4.508-0.425-3.896-0.663-6.091 1.688-9.313 3.965-2.893 7.758-3.914 12.601-4.363 1.015-0.103 2.029-0.206 3.074-0.313 1.077-0.107 2.153-0.213 3.262-0.324 9.681-1.045 18.562-2.879 27.93-5.546 8.024-2.059 16.104-2.671 24.328-3.395z"/>
<path transform="translate(1128.4 498.81)" d="m0 0c1.163-0.012 2.327-0.024 3.525-0.037 9.092-0.015 17.128 1.382 25.913 3.725 4.122 1.07 8.155 1.811 12.374 2.374 5.544 0.856 9.036 3.058 13.75 6.126 2.81 0.891 5.607 1.593 8.485 2.226 2.515 0.774 2.515 0.774 6.515 3.774v2c0.867 0.247 1.733 0.495 2.626 0.75 18.482 6.845 33.661 28.311 42.374 45.25 0.512 0.968 1.024 1.936 1.551 2.933 1.481 3.133 2.491 6.177 3.449 9.504 1.069 3.612 2.16 6.924 3.688 10.375 3.456 8.394 2.532 18.224 2.553 27.147 9e-3 2.506 0.041 5.012 0.072 7.517 0.042 13.215-0.924 26.028-6.348 38.227-1.026 2.442-1.716 4.864-2.402 7.421-1.404 4.87-3.696 8.681-6.563 12.876-0.598 0.928-1.196 1.856-1.812 2.812-0.722 1.052-1.444 2.104-2.188 3.188-0.506 0.778-1.013 1.557-1.535 2.359-6.973 10.246-16.041 18.936-26.465 25.641-0.381 0.329-0.381 0.329-2.312 2-2.434 1.811-4.488 2.875-7.25 4.062-4.438 1.938-4.438 1.938-8.438 4.938-14.12 6.796-28.925 10.49-44.368 12.606-2.712 0.406-5.384 0.93-8.073 1.468-5.744 1.059-11.35 1.31-17.183 1.3-1.047 0-2.094-1e-3 -3.173-2e-3 -7.695-0.116-14.668-1.238-22.101-3.302-4.515-1.178-8.983-1.85-13.602-2.508-7.06-1.119-11.507-2.783-17.5-6.562-1.902-0.727-3.82-1.414-5.75-2.063-4.175-1.444-6.862-3.071-10.25-5.937-1.523-0.732-3.059-1.441-4.601-2.133-5.637-2.774-9.763-6.422-14.211-10.805-0.724-0.69-1.448-1.381-2.193-2.092-3.94-3.795-7.581-7.685-10.995-11.97-0.969-1.217-1.938-2.434-2.937-3.688-3.574-4.799-6.33-10.001-9.063-15.312-0.513-0.97-1.026-1.939-1.554-2.938-1.989-4.214-3.133-8.506-4.34-12.996-0.698-2.566-1.416-5.127-2.164-7.678-2.849-10.256-3.55-19.776-3.442-30.388-0.015-1.511-0.03-3.022-0.046-4.579 0.039-11.552 1.531-22.415 6.127-33.093 1.419-3.328 1.419-3.328 2.295-7.891 1.24-4.894 2.931-6.636 6.124-10.437 0.722-1.855 1.385-3.733 2-5.626 1.544-4.613 2.904-6.609 7-9.374 1.345-1.993 2.676-3.995 4-6 4.472-5.595 9.228-10.196 14.985-14.446 2.015-1.554 2.015-1.554 4.453-4.18 3.058-2.833 6.196-4.34 9.965-6.066 2.597-1.308 2.597-1.308 5.34-3.219 20.684-13.268 49.68-17.264 73.695-17.277zm-29.438 27.188c-1.299 0.515-2.598 1.031-3.937 1.562-8.688 5.213-15.095 12.706-20.063 21.438-0.701 0.783-1.402 1.567-2.124 2.374-2.274 3.183-3.048 6.159-3.969 9.93-0.907 2.696-0.907 2.696-2.886 5.881-2.153 4.065-2.765 6.992-3.251 11.541-0.163 1.444-0.326 2.888-0.494 4.375-0.076 0.746-0.076 0.746-0.463 4.523-0.325 2.972-0.652 5.943-0.98 8.915-0.137 1.311-0.274 2.623-0.415 3.975-0.418 3.486-0.418 3.486-0.959 6.019-1.073 5.77-0.643 11.805-0.646 17.654-0.012 1.372-0.024 2.744-0.037 4.158-0.011 7.569 0.563 14.285 2.224 21.655 0.51 4.212 0.816 8.444 1.124 12.675 0.556 6.464 1.935 12.117 5.314 17.699 1.471 2.472 2.384 4.748 3.375 7.438 3.808 9.79 10.156 16.117 19.187 21.188 0.366 0.322 0.366 0.322 2.215 1.957 3.483 2.554 6.773 3.522 10.911 4.73 1.405 0.416 2.81 0.833 4.257 1.262 1.194 0.346 2.388 0.693 3.617 1.051 0.991 0.33 1.981 0.659 3 1 16.976 1.221 30.13-1.137 45-10 0.829-0.493 1.658-0.985 2.512-1.493 4.717-2.998 7.653-5.572 10.488-10.507 0.661-0.743 1.32-1.486 2-2.25 2.362-3.248 3.555-6.479 4.876-10.25 1.124-2.5 1.124-2.5 3.117-4.583 3.092-4.494 3.395-9.274 4.133-14.605 0.165-1.109 0.33-2.218 0.501-3.36 1.186-8.115 2.167-16.245 2.979-24.406 0.394-3.546 0.394-3.546 0.937-6.218 0.49-2.495 0.59-4.788 0.583-7.328 2e-3 -0.826 5e-3 -1.65 7e-3 -2.5-0.133-2.5-0.133-2.5-0.617-4.915-0.599-3.002-0.741-5.903-0.89-8.961-0.425-6.457-1.509-12.578-2.883-18.894-0.725-3.641-1.157-7.229-1.555-10.918-0.954-7.145-3.741-12.568-7.188-18.812-0.226-0.578-0.226-0.578-1.374-3.5-6.022-12.97-15.019-24.468-28.626-29.5-2.783-1.299-5.553-2.624-8.324-3.95-13.504-5.303-27.963-1.499-40.676 3.95z"/>
<path transform="translate(2574.6 503.75)" d="m0 0c1.423-8e-3 2.846-0.015 4.312-0.023 12.125 0.022 21.554 0.24 31.063 8.273 0.454 0.258 0.454 0.258 2.75 1.562 2.755 1.761 4.286 3.84 6.25 6.438 0.314 0.313 0.314 0.313 1.902 1.895 7.15 7.175 10.037 14.215 12.192 24.058 1.075 4.801 2.534 9.413 4.074 14.082 2.19 7.803 2.162 15.847 2.402 23.895 0.043 1.427 0.086 2.853 0.13 4.324 0.332 12.691 0.345 25.372 0.292 38.066-4e-3 1.008-7e-3 2.015-0.011 3.053-0.037 9.392-0.083 18.785-0.152 28.178-0.038 5.205-0.061 10.411-0.075 15.617-8e-3 1.959-0.021 3.918-0.041 5.877-0.026 2.716-0.034 5.431-0.038 8.147-9e-3 1.537-0.019 3.074-0.029 4.658 0.627 7.351 4.101 13.216 8.354 19.15 3.25 1.875 3.25 1.875 6 3 1.525 3.05 1.236 5.642 1 9-4.057 4.057-6.833 4.115-12.405 4.545-7.734 0.612-14.823 1.636-22.282 3.893-10.39 2.975-20.827 3.757-31.577 4.573-11.67 0.888-11.67 0.888-17.123 2.048-7.733 1.521-15.572 1.324-23.426 1.316h-2.506c-11.559-0.024-22.96-0.609-34.431-2.125-1.199-0.157-2.397-0.314-3.632-0.475-14.999-2.237-31.558-9.032-41.618-20.775-1.963-3.225-3.484-6.549-5-10-0.577-0.928-1.155-1.856-1.75-2.812-3.296-5.768-2.434-12.885-2.437-19.313-0.013-1.078-0.025-2.155-0.038-3.266-0.022-12.177 1.325-22.023 8.975-31.859 5.062-3.937 10.224-6.59 16.375-8.25 3.571-0.964 5.163-1.713 8.25-4 3.509-2.42 5.386-3.065 9.438-3.938 5.382-1.173 9.164-3.162 13.746-6.148 3.251-1.883 6.528-2.748 10.14-3.703 2.301-0.711 2.301-0.711 5.801-2.711 3.02-1.726 5.206-2.559 8.5-3.438 3.595-0.987 5.275-1.766 8.375-4.062 3.509-2.42 5.386-3.065 9.438-3.938 5.403-1.183 9.385-3.14 13.996-6.152 2.191-1.41 2.191-1.41 5.628-2.972 3.092-1.735 4.085-3.249 5.563-6.438 2.944-11.776 1.271-23.797-1.687-35.375-0.244-0.98-0.488-1.96-0.739-2.97-1.532-5.554-3.033-8.859-7.574-12.655-0.361-0.516-0.361-0.516-2.187-3.125-4.686-4.79-10.082-5.783-16.649-6.004-12.857 0.398-22.161 2.66-31.164 12.129-9.008 9.707-9.131 16.01-8.742 29.102-0.258 3.898-0.258 3.898-3.258 7.898-3.606 0.441-6.9 0.632-10.512 0.637-1.042 0.011-2.084 0.022-3.158 0.033-2.208 0.016-4.416 0.021-6.625 0.016-3.363 1e-3 -6.723 0.061-10.086 0.125-2.148 8e-3 -4.295 0.012-6.443 0.013-0.999 0.024-1.999 0.047-3.028 0.072-5.372-0.07-8.59-0.711-12.784-4.198-3.364-3.698-3.364-3.698-4.364-7.698 3.68-5.704 7.729-9.687 13-14 0.784-0.804 1.568-1.609 2.375-2.438 2.889-2.819 5.951-5.217 9.156-7.664 2.586-1.988 5.122-4.032 7.656-6.086 3.495-2.807 7.054-5.364 10.813-7.812 0.825-0.681 1.65-1.361 2.5-2.062 2.5-1.938 2.5-1.938 5.563-3.438 2.937-1.5 2.937-1.5 4.687-3.438 2.928-2.683 5.98-3.621 9.672-4.992 2.578-1.07 2.578-1.07 6.578-3.632 3.952-2.409 7.232-3.512 11.641-4.688 2.359-0.75 2.359-0.75 5.672-2.812 9.92-5.213 22.394-4.248 33.312-4.188zm-10.625 126.25c-2.667 1-5.333 2-8 3-2.685 1.636-5.352 3.304-8 5-2.667 1.333-5.333 2.667-8 4-0.505 0.34-0.505 0.34-3.063 2.062-2.937 1.938-2.937 1.938-6.374 3.313-9.111 4.156-12.784 10.34-17.016 19.238-2.811 7.973-3.169 16.128-0.141 24.078 6.154 12.776 12.102 21.29 25.5 27.051 7.977 2.451 16.309 3.029 23.969-0.554 0.516-0.361 0.516-0.361 3.125-2.188 1.697-0.5 3.407-0.955 5.125-1.375 4.885-1.366 7.09-3.273 9.875-7.625 2.052-4.156 2.258-7.609 2.275-12.221 9e-3 -1.452 0.019-2.903 0.029-4.399-1e-3 -1.561-2e-3 -3.123-3e-3 -4.732 2e-3 -0.803 2e-3 -0.803 0.013-4.867 7e-3 -3.394 7e-3 -6.788 2e-3 -10.182-6e-3 -4.353 0.011-8.705 0.034-13.058 0.018-4.151 0.015-8.303 0.013-12.455 9e-3 -1.566 0.019-3.131 0.028-4.744-3e-3 -0.723-3e-3 -0.723-0.019-4.38 1e-3 -1.275 2e-3 -2.55 2e-3 -3.864-0.374-3.098-0.374-3.098-3.374-6.098-6.972-0.945-10.308 1.176-16 5z"/>
<path transform="translate(1344,384)" d="m0 0c3.822 3.822 3.887 6.435 4.118 11.678-3e-3 0.914-6e-3 1.828-9e-3 2.769 0 0.531 0 0.531-3e-3 3.219-3e-3 0.578-3e-3 0.578-0.019 3.502-3e-3 1.237-6e-3 2.474-8e-3 3.748-0.011 4.15-0.028 8.299-0.045 12.449-8e-3 2.973-0.016 5.947-0.024 8.92-0.016 6.407-0.036 12.814-0.057 19.221-0.033 10.136-0.053 20.272-0.071 30.409-3e-3 1.728-7e-3 3.456-0.01 5.184-4e-3 2.619-9e-3 5.237-0.014 7.856-0.018 9.871-0.037 19.741-0.057 29.611-2e-3 0.902-4e-3 1.805-6e-3 2.734-0.031 14.605-0.076 29.209-0.127 43.814-0.051 15.009-0.083 30.018-0.098 45.027-9e-3 8.421-0.027 16.842-0.068 25.263-0.038 7.925-0.052 15.851-0.049 23.776-3e-3 2.903-0.015 5.807-0.036 8.71-0.206 30.146-0.206 30.146 5.583 39.11 1.623 1.387 3.287 2.727 5 4 0.66 0.846 1.32 1.691 2 2.562 2.126 2.592 4.091 3.83 7 5.438 2 2 2 2 2.375 4.812-0.473 4.018-1.475 5.391-4.375 8.188-3.27 0.628-3.27 0.628-7.199 0.631-1.472 0.013-2.944 0.025-4.46 0.038-0.794-7e-3 -0.794-7e-3 -4.814-0.04-0.815 1e-3 -0.815 1e-3 -4.938 7e-3 -3.448 3e-3 -6.895-0.012-10.342-0.039-4.421-0.034-8.841-0.028-13.263-9e-3 -4.215 0.013-8.429-6e-3 -12.644-0.022-0.795 3e-3 -0.795 3e-3 -4.82 0.015-1.469-0.015-2.937-0.031-4.45-0.048-1.296-6e-3 -2.592-0.012-3.927-0.018-3.143-0.515-3.143-0.515-6.143-4.515-0.37-2.385-0.37-2.385-0.362-5.091-5e-3 -1.034-9e-3 -2.068-0.014-3.133 0.01-1.135 0.02-2.269 0.031-3.438-1e-3 -1.206-2e-3 -2.413-3e-3 -3.656 0-4.059 0.022-8.118 0.043-12.178 4e-3 -2.904 6e-3 -5.807 8e-3 -8.711 5e-3 -6.264 0.019-12.528 0.039-18.791 0.031-9.909 0.033-19.819 0.031-29.728-1e-3 -3.392-1e-3 -6.783-2e-3 -10.175v-2.569c0-9.652 6e-3 -19.303 0.015-28.955 0-0.441 0-0.441 2e-3 -2.673 0.014-14.278 0.047-28.557 0.085-42.835 0.038-14.67 0.045-29.34 0.027-44.01-0.011-9.844 0.014-19.688 0.064-29.532 0.023-6.138 0.012-12.276-8e-3 -18.413-2e-3 -2.839 9e-3 -5.678 0.035-8.516 0.15-17.488-0.198-29.467-12.679-42.721-1.946-1.689-3.932-3.337-6-4.875-3.072-2.657-4.632-5.317-6.312-9-0.062-2.688-0.062-2.688 1-5 4.867-4.735 9.405-5.071 16.003-5.545 9.119-0.681 16.991-2.187 25.661-5.217 7.355-2.1 14.893-2.804 22.477-3.66 11.075-1.318 11.075-1.318 15.859 0.422z"/>
<path transform="translate(2408.2 505.58)" d="m0 0c2.529 3.379 2.293 5.7 2.269 9.898 2e-3 1.557 3e-3 3.115 4e-3 4.72-0.019 1.728-0.038 3.456-0.058 5.184-6e-3 1.818-0.01 3.637-0.013 5.455-9e-3 3.918-0.031 7.836-0.062 11.753-0.049 6.199-0.069 12.398-0.085 18.596-0.034 12.047-0.098 24.093-0.165 36.14-0.085 15.315-0.158 30.63-0.201 45.946-0.018 6.158-0.052 12.315-0.098 18.473-0.025 3.838-0.039 7.677-0.049 11.516-7e-3 1.775-0.019 3.549-0.037 5.324-0.164 16.517-0.164 16.517 3.304 24.411 0.618 1.423 1.237 2.846 1.875 4.313 2.11 3.661 3.765 5.251 7.125 7.687 0.598 0.846 1.196 1.691 1.812 2.563 2.94 3.276 6.072 4.043 10.188 5.437 2 2 2 2 2.312 4.938-0.312 3.062-0.312 3.062-3.312 6.062-3.581 1.194-6.473 1.142-10.254 1.161-0.754 5e-3 -0.754 5e-3 -4.571 0.029-1.634 5e-3 -3.269 9e-3 -4.953 0.013-1.69 6e-3 -3.38 0.012-5.07 0.017-3.543 0.011-7.086 0.017-10.63 0.02-4.541 6e-3 -9.081 0.03-13.622 0.058-3.491 0.019-6.981 0.024-10.472 0.026-2.488 4e-3 -4.977 0.023-7.465 0.042-1.511-3e-3 -3.023-6e-3 -4.58-9e-3 -1.333 3e-3 -2.665 7e-3 -4.037 0.011-3.346-0.368-3.346-0.368-7.346-3.368-0.473-3.042-0.473-3.042-0.434-6.859 4e-3 -1.445 9e-3 -2.89 0.014-4.379 0.025-1.591 0.05-3.182 0.077-4.821 0.012-1.689 0.023-3.378 0.032-5.066 0.023-3.643 0.058-7.285 0.102-10.927 0.068-5.772 0.103-11.544 0.132-17.316 0.081-15.385 0.204-30.769 0.355-46.153 0.099-10.094 0.177-20.189 0.218-30.284 0.024-5.724 0.08-11.446 0.161-17.17 0.043-3.585 0.056-7.17 0.061-10.756 0.012-2.423 0.059-4.846 0.108-7.269-0.03-11.63-2.313-22.986-10.415-31.823-2.31-2.085-4.654-4.113-7.036-6.114-3.453-3.067-5.997-5.534-7.375-10.063 0.062-3.187 0.062-3.187 1-6 4.101-3.076 5.38-3.471 10.242-4.027 0.616-0.077 0.616-0.077 3.734-0.463 1.287-0.148 2.573-0.295 3.899-0.447 8.902-1.026 17.183-2.529 25.763-5.129 5.189-1.442 10.396-2.132 15.737-2.746 1.014-0.134 2.029-0.267 3.074-0.405 13.916-1.687 13.916-1.687 18.742 1.801z"/>
<path transform="translate(167,536)" d="m0 0c1.408 0.203 2.815 0.407 4.265 0.616 5.422 1.585 8.264 4.034 12.008 8.044 0.65 0.664 1.299 1.328 1.968 2.012 2.062 2.114 4.099 4.251 6.134 6.39 2.687 2.791 5.384 5.572 8.086 8.348 0.649 0.669 1.297 1.337 1.965 2.026 5.194 5.302 10.716 10.008 16.574 14.564 2.696 2.301 5.349 4.648 8 7 7.349 6.486 7.349 6.486 10.688 9.125 5.046 4.091 9.097 8.957 13.312 13.875 0.846 0.701 1.691 1.403 2.562 2.125 4.868 5.741 6.949 12.982 8.188 20.313-2.181 13.269-10.401 23.383-20.75 31.562-7.57 4.434-15.2 7.122-24 7-2.035-0.927-4.034-1.935-6-3-0.495-0.236-0.495-0.236-3-1.43-5.621-2.708-10.362-5.336-15-9.57-1.68-1.363-3.368-2.717-5.062-4.062-0.816-0.651-1.632-1.302-2.473-1.973-1.739-1.386-3.499-2.746-5.274-4.086-0.723-0.62-1.446-1.24-2.191-1.879v-2l-4-2c-1.689-1.644-3.353-3.314-5-5-0.99-0.804-1.98-1.609-3-2.438-3.079-2.63-5.451-5.425-8-8.562-2.556-2.687-5.12-5.097-8-7.438-3.079-2.63-5.451-5.425-8-8.562-2.535-2.665-5.045-5.036-7.938-7.312-5.964-5.234-11.123-11.931-13.062-19.688-0.595-10.581-0.825-19.117 5.938-27.75 1.01-1.072 2.021-2.145 3.062-3.25 0.309-0.33 0.309-0.33 1.875-2 0.701-0.66 1.403-1.32 2.125-2 1.155-1.176 2.31-2.351 3.5-3.562 8.715-7.477 19.694-7.033 30.5-5.438z"/>
<path transform="translate(419,653)" d="m0 0c1.03 0.338 2.06 0.675 3.121 1.023 7.442 2.564 12.961 5.853 18.879 10.977 0.464 0.309 0.464 0.309 2.812 1.875 2.635 2.559 3.847 5.311 5.208 8.691 0.973 2.416 2.09 4.719 3.23 7.059 2.005 5.012 2.732 8.627 0.895 13.77-3.406 7.752-7.42 13.347-14.145 18.605-2.688 2.56-5.095 5.117-7.438 8-2.63 3.079-5.425 5.451-8.562 8-2.687 2.556-5.097 5.12-7.438 8-2.63 3.079-5.425 5.451-8.562 8-2.687 2.556-5.097 5.12-7.438 8-2.63 3.079-5.425 5.451-8.562 8-2.687 2.556-5.022 5.03-7.25 8-2.994 3.266-5.74 4.854-9.637 6.844-2.113 1.156-2.113 1.156-4.425 3.281-5.676 3.96-12.512 4.934-19.313 4.75-9.126-1.825-15.114-3.945-22.375-9.875-0.516-0.289-0.516-0.289-3.125-1.75-4.234-3.313-6.314-7.595-8.875-12.25-0.267-0.395-0.267-0.395-1.621-2.395-3.29-6.216-3.251-14.934-1.254-21.605 1.882-4.015 3.903-6.738 6.875-10 0.66-1.031 1.32-2.062 2-3.125 2.069-2.974 4.156-4.671 7-6.875 1.354-1.65 2.687-3.317 4-5 3.476-3.67 7.138-6.731 11.188-9.75 7.255-5.517 14.028-11.394 20.437-17.875 2.919-2.919 5.944-5.603 9.074-8.289 2.88-2.611 5.578-5.375 8.301-8.148 9.67-9.683 22.545-21.435 37-15.938z"/>
<path transform="translate(364,356)" d="m0 0c0.373 0.237 0.373 0.237 2.262 1.438 12.185 8.061 19.094 16.059 22.738 30.562 0.648 8.605-2.223 14.465-7.676 21.012-2.781 2.845-5.802 5.396-8.828 7.976-5.6 4.897-10.811 10.181-16.058 15.45-0.502 0.499-0.502 0.499-3.038 3.025-5.348 5.355-10.463 10.802-15.4 16.537-6.741 7.087-13.704 13.942-21.688 19.625-3.312 2.375-3.312 2.375-5.874 4.937-2.613 2.613-5.33 4.454-8.438 6.438l-4 3c-3.461 0.617-3.461 0.617-7.375 0.875-1.286 0.101-2.573 0.201-3.898 0.305-4.077-0.197-6.25-1.115-9.727-3.18-0.577-0.32-0.577-0.32-3.5-1.938-6.434-3.791-12.12-7.889-17.5-13.062-0.67-0.624-1.341-1.248-2.031-1.891-5.425-5.825-5.878-11.36-6.192-19.144 0.847-15.068 11.082-25.298 21.364-35.442 2.812-2.481 5.732-4.465 8.859-6.523l2-2.5c2.337-2.921 4.878-4.461 8-6.5 1.708-1.624 3.376-3.292 5-5 3.814-3.915 7.851-7.444 12-11 2.564-2.445 4.874-4.84 7.062-7.625 1.938-2.375 1.938-2.375 5.938-5.375h2l2-4c5.986-6.907 11.814-10.701 20.836-11.82 7.489-0.426 14.726-0.379 21.164 3.82z"/>
<path transform="translate(432,538)" d="m0 0c5.509 4.582 10.393 9.676 15.312 14.875 1.962 2.035 3.93 4.064 5.898 6.092 1.256 1.295 2.509 2.592 3.759 3.892 4.16 4.31 8.453 8.285 13.031 12.141 1.134 1.176 2.269 2.351 3.438 3.562 3.349 3.233 6.609 5.551 10.496 8.043 4.018 2.713 6.905 6.204 10.004 9.895 3.062 3.5 3.062 3.5 5.937 5.812 9.014 7.752 14.115 16.413 15.75 28.188-1.385 9.972-8.299 20.219-16.25 26.25-1.114 0.743-2.228 1.485-3.375 2.25-0.601 0.66-1.201 1.32-1.82 2-2.68 2.459-4.956 3.213-8.43 4.25-1.078 0.335-2.155 0.67-3.266 1.016-10.162 2.141-18.341-0.889-27.484-5.266-3.362-2.373-6.15-5.044-9-8-3.253-2.867-6.392-5.595-10-8-5.91-3.94-10.553-8.5-15-14-2.556-2.687-5.12-5.097-8-7.438-3.079-2.63-5.451-5.425-8-8.562-2.38-2.499-4.703-4.771-7.438-6.875-3.278-2.719-5.822-5.871-8.562-9.125l-5-5c-1.011-0.99-2.021-1.98-3.062-3-5.21-7.094-8.077-16.174-6.938-25 2.06-9.445 7.114-15.431 14-22 0.362-0.347 0.362-0.347 2.195-2.105 12.168-10.529 27.94-11.481 41.805-3.895z"/>
<path transform="translate(433,419)" d="m0 0c9.748 7.218 18.026 17.104 21 29 0.949 7.728-1.845 12.734-6 19-2.375 2.688-2.375 2.688-5 5-1.34 1.326-2.673 2.66-4 4-0.688 0.687-1.377 1.374-2.086 2.082-1.523 1.526-3.033 3.064-4.539 4.606-2.67 2.599-5.513 4.927-8.375 7.312-2.857 2.714-5.433 5.505-8 8.5-2.569 2.997-5.18 5.745-8 8.5-1.501 1.499-3.001 2.999-4.5 4.5l-4.5 4.5c-0.804 0.815-1.609 1.629-2.438 2.469-3.507 3.465-7.177 6.736-10.843 10.031-1.817 1.671-3.599 3.38-5.344 5.125-7.243 7.243-16.336 12.899-26.781 13.605-10.96-0.702-20.052-3.119-27.594-11.23-0.846-0.784-1.691-1.567-2.562-2.375-0.805-0.866-1.609-1.732-2.438-2.625-0.295-0.311-0.295-0.311-1.789-1.887-6.565-7.524-7.591-15.21-7.086-24.988 0.569-7.444 5.716-12.217 10.77-17.279 0.58-0.583 1.159-1.166 1.756-1.766 1.906-1.915 3.818-3.822 5.732-5.728 1.338-1.34 2.676-2.68 4.014-4.02 2.802-2.806 5.609-5.608 8.417-8.407 3.578-3.566 7.146-7.141 10.712-10.719 2.762-2.769 5.529-5.534 8.298-8.298 1.316-1.314 2.631-2.631 3.944-3.949 6.45-6.468 12.879-12.801 20.171-18.332 2.113-1.668 3.98-3.466 5.873-5.377 11.971-10.611 28.138-8.176 41.188-1.25z"/>
<path transform="translate(223.38 472.75)" d="m0 0c1.472-0.026 2.944-0.052 4.461-0.078 8.811 0.694 15.629 6.495 21.351 12.89 0.929 1.135 1.857 2.269 2.813 3.438 5.918 6.247 12.52 11.848 19 17.5 4.716 4.113 9.365 8.296 14 12.5 0.932 0.838 1.864 1.676 2.824 2.539 7.048 6.407 13.925 12.993 20.739 19.649 0.869 0.831 1.738 1.662 2.634 2.518 5.207 5.139 8.24 9.439 10.803 16.294 0.598 0.99 1.196 1.98 1.813 3 1.958 4.947 1.125 9.429-0.676 14.367-0.978 2.242-2.056 4.439-3.137 6.633-0.454 1.072-0.908 2.145-1.375 3.25-2.025 3.427-4.494 5.322-7.625 7.75-0.289 0.33-0.289 0.33-1.75 2-3.598 3.198-7.925 4.953-12.25 7-0.929 0.539-1.859 1.078-2.816 1.633-3.937 1.69-6.975 1.732-11.247 1.679-1.372-3e-3 -2.745-7e-3 -4.16-0.011-7.189-0.573-9.957-3.169-14.902-8.363-4.896-5.018-9.884-9.589-15.371-13.942-2.354-1.876-4.624-3.815-6.879-5.808-2.077-1.827-4.186-3.622-6.375-5.313-2.25-1.875-2.25-1.875-4.094-4.25-2.137-2.601-4.25-4.446-6.906-6.5-7.823-6.269-15.014-13.198-22.25-20.125-0.878-0.835-1.756-1.671-2.66-2.531-3.675-3.572-6.571-7.173-9.34-11.469-0.887-0.887-1.774-1.774-2.687-2.688-4.145-4.144-3.507-8.366-3.563-14-0.026-1.55-0.052-3.101-0.078-4.699 0.853-11.992 7.744-17.981 16.328-25.613 2.931-2.207 5.858-4.094 9-6l2-2c4.28-1.07 7.967-1.204 12.375-1.25z"/>
<path transform="translate(494.11 475.52)" d="m0 0c3.823 3.3 7.325 6.915 10.895 10.484 0.825 0.64 1.65 1.279 2.5 1.938 2.5 2.062 2.5 2.062 4.937 5.062 2.634 3.084 5.177 4.814 8.563 7 1.688 1.645 3.353 3.314 5 5 1.924 1.664 3.848 3.327 5.773 4.989 2.445 2.209 4.737 4.529 7.039 6.886 4.231 4.283 8.694 8.074 13.383 11.84 7.534 6.138 14.276 12.269 19.805 20.285 0.99 1.32 1.98 2.64 3 4 3.615 7.11 5.305 13.125 3.187 21.036-3.995 11.861-12.118 21.267-23.25 27.089-1.299 0.619-2.599 1.238-3.937 1.875-0.778 0.525-1.555 1.05-2.356 1.59-4.906 2.616-10.239 1.99-15.644 1.41-4.688-1.687-4.688-1.687-9-4-0.869-0.397-1.738-0.794-2.633-1.203-4.986-2.296-8.233-4.153-11.367-8.797-2.857-3.014-5.868-5.779-9-8.5-5.511-4.788-10.249-9.956-15-15.5-2.736-2.876-5.523-5.439-8.563-8-2.924-2.552-5.09-4.948-7.437-8-2.708-2.854-5.484-5.405-8.5-7.937-3.237-2.832-5.771-5.759-8.5-9.063-1.647-1.358-3.313-2.692-5-4-5.856-5.437-8.598-10.051-10-18 0.51-12.073 4.924-21.447 13.039-30.199 2.422-2.225 5.013-3.357 7.961-4.801 0.701-0.68 1.402-1.361 2.125-2.062 8.281-5.581 24.806-6.306 32.98-0.422z"/>
<path transform="translate(364,594)" d="m0 0c3.625 2.875 3.625 2.875 7 6 0.969 0.557 1.939 1.114 2.938 1.688 8.468 6.394 14.678 17.392 16.75 27.75-3.033 15.715-16.438 26.479-27.25 37.25-0.99 0.993-1.979 1.986-2.999 3.009-6.396 6.388-12.745 12.673-20.127 17.928-3.153 2.261-5.642 4.572-8.312 7.375-4.176 4.252-8.408 8.206-13 12-2.501 2.382-4.708 4.562-6.625 7.438-3.101 3.345-6.591 5.058-10.621 7.132-2.754 1.43-2.754 1.43-5.305 3.118-5.214 2.794-11.609 0.542-17.011-0.938-12.919-5.095-23.387-12.911-29.438-25.75-2.216-7.353-2.577-14.507-1-22 3.803-6.308 8.06-9.757 14-14 2.876-2.67 5.355-5.424 7.875-8.438 3.142-3.582 6.475-6.509 10.125-9.562 2.501-2.384 4.769-4.7 6.875-7.438 2.719-3.278 5.871-5.822 9.125-8.562 2.479-2.364 4.735-4.652 6.812-7.375 2.408-2.89 5.123-5.234 7.981-7.668 2.346-2.08 4.521-4.273 6.707-6.519 12.384-12.534 27.901-19.477 45.5-12.438z"/>
<path transform="translate(2396,402)" d="m0 0c7.981 7.034 11.206 14.103 11.93 24.566 0.182 8.927-2.083 14.388-8.2 20.821-8.277 7.489-15.714 8.57-26.628 8.629-7.452-0.413-12.834-2.884-18.227-7.954-5.975-8.442-10.272-16.582-8.875-27.062 3.054-7.636 7.396-15.047 14-20 11.001-3.487 25.38-3.824 36 1z"/>
</svg>
