<?xml version="1.0" encoding="UTF-8"?>
<svg version="1.1" viewBox="0 0 2744 1144" xmlns="http://www.w3.org/2000/svg">
<path transform="translate(1606.6 351.87)" d="m0 0c3.54-1e-3 7.081-3e-3 10.621-5e-3 7.653-3e-3 15.306-3e-3 22.958-1e-3 11.38 4e-3 22.761 2e-3 34.141-1e-3 20.332-5e-3 40.665-5e-3 60.997-2e-3 17.792 3e-3 35.585 3e-3 53.378 2e-3h3.583c4.801 0 9.603-1e-3 14.404-1e-3 44.989-3e-3 89.978 0 134.97 5e-3 39.928 5e-3 79.856 4e-3 119.78 0 44.912-6e-3 89.825-8e-3 134.74-5e-3 4.792 1e-3 9.583 1e-3 14.375 1e-3h3.575c17.778 2e-3 35.556 0 53.334-2e-3 20.223-3e-3 40.446-2e-3 60.668 3e-3 11.304 3e-3 22.608 3e-3 33.911-1e-3 7.566-2e-3 15.132-1e-3 22.698 4e-3 4.3 2e-3 8.6 3e-3 12.9-1e-3 14.845-9e-3 29.681-4e-3 44.517 0.557 0.984 0.036 1.968 0.072 2.982 0.109 11.645 0.513 22.514 2.863 33.562 6.5 3.657 1.071 7.292 1.742 11.043 2.402 6.429 1.207 10.67 3.232 16.25 6.563 1.736 0.568 3.487 1.089 5.25 1.562 4.53 1.371 6.266 2.49 9.75 5.438 2.24 0.992 4.481 1.982 6.739 2.934 3.385 1.596 6.241 3.87 9.261 6.066 0.598 0.258 0.598 0.258 3.625 1.562 5.623 2.67 9.804 7.23 14.262 11.477 2.423 2.305 4.868 4.499 7.426 6.648 6.776 6.088 12.335 12.969 17.687 20.313 0.99 1.32 1.98 2.64 3 4 1.086 2.49 2.005 5.012 2.938 7.562 1.062 2.438 1.062 2.438 4.062 6.438 0.879 3.582 0.879 3.582 1.563 7.812 0.228 1.368 0.456 2.736 0.691 4.145 0.249 1.681 0.498 3.362 0.746 5.043 0.166 1.001 0.331 2.001 0.502 3.032 1.686 11.038 1.782 21.932 1.757 33.061 3e-3 2.085 6e-3 4.17 0.011 6.254 9e-3 5.62 5e-3 11.24-1e-3 16.86-5e-3 5.907 0 11.815 3e-3 17.722 3e-3 9.918-1e-3 19.836-0.011 29.754-0.011 11.432-7e-3 22.864 4e-3 34.296 9e-3 9.851 0.01 19.702 5e-3 29.553-3e-3 5.867-4e-3 11.735 3e-3 17.603 6e-3 5.52 2e-3 11.04-0.01 16.56-2e-3 2.014-2e-3 4.027 3e-3 6.041 0.023 11.566-0.547 22.802-2.266 34.264-0.218 1.777-0.432 3.554-0.64 5.332-1.138 8.363-2.424 15.196-6.95 22.379-1.41 2.289-1.41 2.289-2.972 6.601-1.59 4.078-3.529 6.441-6.438 9.688-0.862 1.194-1.724 2.387-2.613 3.617-3.671 4.927-7.902 9.192-12.262 13.508-0.382 0.386-0.382 0.386-2.316 2.34-4.674 4.657-9.443 8.696-14.809 12.535l-4 3c-1.299 0.639-2.598 1.279-3.937 1.937-4.063 2.063-4.063 2.063-6.625 4.125-2.944 2.341-5.979 3.482-9.438 4.938-0.887 0.66-1.773 1.32-2.687 2-3.906 2.358-7.432 3.093-11.852 4.086-3.88 1.025-7.484 2.428-11.211 3.914-6.789 2.63-13.328 4.104-20.496 5.281-4.413 0.845-8.445 2.204-12.617 3.852-9.456 2.614-19.765 2.011-29.493 1.998-1.526 2e-3 -3.053 5e-3 -4.626 7e-3 -4.23 4e-3 -8.46 5e-3 -12.69 3e-3 -4.605-1e-3 -9.21 4e-3 -13.815 8e-3 -9.13 8e-3 -18.26 0.01-27.39 0.011-10.938 1e-3 -21.875 7e-3 -32.813 0.014-26.432 0.016-52.865 0.022-79.298 0.027-12.506 2e-3 -25.012 6e-3 -37.518 0.01-42.816 0.012-85.633 0.023-128.45 0.027h-8.061c-2.694 0-5.387 1e-3 -8.081 1e-3 -5.403 0-10.807 1e-3 -16.21 1e-3 -0.67 0-0.67 0-4.06 1e-3 -43.445 3e-3 -86.891 0.019-130.34 0.042-45.942 0.025-91.885 0.039-137.83 0.04-5.044 0-10.088 0-15.132 1e-3h-3.763c-19.979 1e-3 -39.957 0.012-59.936 0.026-20.083 0.015-40.166 0.018-60.25 0.01-11.927-4e-3 -23.854-1e-3 -35.781 0.015-7.974 0.01-15.948 9e-3 -23.922-1e-3 -4.539-6e-3 -9.077-6e-3 -13.616 6e-3 -21.072 0.055-40.607-0.202-60.87-6.485-3.124-0.874-6.112-1.359-9.325-1.77-5.633-0.838-9.968-2.939-14.953-5.625-2.721-1.397-5.336-2.415-8.234-3.375-8.333-2.883-17.418-6.855-23.688-13.125-2.539-1.082-5.109-1.954-7.722-2.84-2.278-1.16-2.278-1.16-4.278-5.16l-4-2c-1.666-1.667-3.333-3.333-5-5-0.948-0.598-1.897-1.196-2.875-1.813-4.092-2.864-6.956-6.36-10.125-10.187-5.802-6.826-5.802-6.826-8.062-8.813-2.583-2.915-4.038-6.143-5.692-9.652-1.246-2.535-1.246-2.535-2.707-4.871-1.927-3.337-3.242-6.746-4.601-10.352-0.253-0.661-0.253-0.661-1.535-4.011-2.725-8.357-3.699-16.101-3.663-24.82-4e-3 -1.011-8e-3 -2.022-0.012-3.063-0.01-3.362-6e-3 -6.723-2e-3 -10.084-5e-3 -2.421-0.01-4.841-0.016-7.261-0.013-6.556-0.014-13.111-0.011-19.667 1e-3 -5.477-4e-3 -10.955-9e-3 -16.432-0.011-12.921-0.011-25.843-5e-3 -38.764 6e-3 -13.324-7e-3 -26.648-0.028-39.972-0.018-11.449-0.024-22.898-0.02-34.347 2e-3 -6.834-1e-3 -13.668-0.015-20.502-0.013-6.424-0.011-12.848 2e-3 -19.273 3e-3 -2.355 0-4.711-8e-3 -7.066-0.011-3.22-3e-3 -6.438 0.01-9.658-4e-3 -0.464-4e-3 -0.464-0.022-2.812 0.059-7.11 1.302-13.099 4.994-19.236 2.258-3.773 2.666-7.908 3.461-12.188 1.055-3.536 2.548-5.386 4.941-8.156 0.848-1.501 1.663-3.022 2.438-4.563 2.039-3.791 4.087-5.853 7.562-8.437 1.373-1.973 2.705-3.975 4-6 3.523-4.665 7.205-7.687 12-11 0.702-0.722 1.403-1.444 2.125-2.188 1.875-1.812 1.875-1.812 4.5-2.812 2.375-1 2.375-1 4.375-5 2.236-1.296 4.478-2.586 6.774-3.773 2.226-1.227 2.226-1.227 4.664-3.352 2.612-1.911 4.353-2.482 7.437-3.313 3.497-0.95 5.264-1.665 8.25-3.875 6.069-4.208 12.95-6.233 19.875-8.687 1.327-0.525 2.653-1.049 4.02-1.59 3.936-1.394 7.614-2.182 11.73-2.848 6.013-1.054 11.527-2.48 17.211-4.695 23.143-6.604 51.89-3.011 75.653-2.994zm-96.614 110.13c-1.394 0.516-2.789 1.031-4.226 1.562-4.331 1.65-7.886 3.93-11.774 6.438-0.526 0.247-0.526 0.247-3.187 1.5-3.251 1.734-5.282 3.839-7.813 6.5-1.666 1.333-3.333 2.667-5 4-3.046 2.812-5.607 5.738-8.062 9.062-2.938 3.938-2.938 3.938-4.981 5.801-6.915 7.55-6.508 20.351-6.289 29.922 0.426 5.404 1.62 10.105 3.332 15.215 0.268 1.402 0.537 2.805 0.813 4.25 1.48 4.674 3.844 7.206 7.187 10.75 0.681 0.866 1.362 1.732 2.063 2.625 3.52 4.316 7.436 8.09 11.937 11.375h2l2 4c2.523 1.752 5.13 3.065 7.875 4.437 3.125 1.563 3.125 1.563 6.375 3.563 3.713 1.98 7.071 3.08 11.125 4.094 2.625 0.906 2.625 0.906 5.977 2.914 3.842 2.098 6.714 2.754 11.023 3.367 7.573 1.273 14.386 3.534 21.567 6.211 3.723 1.297 7.328 2.235 11.183 3.039 4.958 1.044 8.517 2.744 12.875 5.375 1.616 0.47 3.243 0.905 4.875 1.312 5.051 1.375 8.382 3.872 12.313 7.262 1.812 1.426 1.812 1.426 3.812 1.426 0.97 3.878 1.2 7.081 1.25 11.062 0.013 0.615 0.013 0.615 0.078 3.723-0.328 3.215-0.328 3.215-3.328 6.215-1.476 1.075-2.978 2.115-4.5 3.125-0.773 0.518-1.547 1.036-2.343 1.57-6.049 3.66-13.386 2.53-20.219 2.555-0.691 0.01-0.691 0.01-4.186 0.062-10.683 0.041-18.879-0.915-27.752-7.312-0.804-0.248-1.608-0.495-2.437-0.75-6.743-3.289-10.616-10.658-14.008-17.051-1.89-2.673-3.614-3.791-6.555-5.199-6.445-0.758-9.634 0.262-15.035 3.641-4.089 1.875-8.316 2.575-12.715 3.359-7.172 1.279-13.535 3.049-20.269 5.906-4.136 1.518-8.252 2.065-12.617 2.539-2.364 0.555-2.364 0.555-4.364 3.555-0.314 4.956-0.247 7.505 2 12h2c0.268 0.701 0.537 1.402 0.813 2.125 2.753 6.667 8.731 11.828 14.187 16.375 3 2.5 3 2.5 5.5 5.125 2.713 2.577 5.138 3.758 8.5 5.375 1.404 0.967 2.8 1.948 4.188 2.937 4.239 2.894 8.481 4.577 13.332 6.196 2.48 0.867 2.48 0.867 5.355 2.429 4.087 1.88 8.22 2.666 12.606 3.614 4.57 1.07 8.994 2.487 13.449 3.957 6.558 1.852 13.077 2.026 19.852 2.035 0.931 3e-3 1.862 7e-3 2.821 0.01 1.967 5e-3 3.934 7e-3 5.9 7e-3 2.96 2e-3 5.92 0.021 8.88 0.04 14.321 0.043 27.399-0.167 40.617-6.225 2.512-0.524 5.035-0.999 7.563-1.438 6.41-1.169 10.132-2.903 15.437-6.562 1.527-0.495 3.053-0.99 4.625-1.5 4.571-1.567 6.814-3.318 10.375-6.5 0.629-0.382 0.629-0.382 3.813-2.313 7.941-5.096 13.775-11.01 19.187-18.687 0.722-0.846 1.444-1.691 2.188-2.563 1.812-2.437 1.812-2.437 3.312-5.937s1.5-3.5 3.625-6.125c4.492-5.69 3.097-14.236 3.125-21.125 0.021-1.238 0.042-2.475 0.063-3.75 0.041-9.652-0.801-16.971-7.313-24.5-0.474-0.99-0.948-1.98-1.437-3-1.757-3.373-3.784-5.425-6.563-8-0.319-0.351-0.319-0.351-1.937-2.125-2.063-1.875-2.063-1.875-5.063-3.375s-3-1.5-4.843-3.469c-2.482-2.337-4.419-3.035-7.657-4.031-5.089-1.566-5.089-1.566-7.363-3.969-2.969-2.822-5.903-3.429-9.824-4.531-8.858-2.6-8.858-2.6-12.875-4.563-5.193-2.267-10.389-3.58-15.887-4.91-3.551-1.027-3.551-1.027-6.488-2.562-3.781-1.809-7.23-2.263-11.375-2.84-9.213-1.497-9.213-1.497-13.438-4.125-3.982-2.343-6.149-2.979-10.562-3.75-7.593-1.545-13.125-5.444-18.688-10.75-2.315-4.631-2.272-6.08-1-11 4.377-7.2 11.218-9.055 19-11 10.864-0.724 22.211 1.105 32 6 1.667 1.667 3.334 3.333 5 5 0.99 0.33 1.98 0.66 3 1 0.227 0.722 0.454 1.444 0.688 2.187 1.979 4.241 5.294 6.625 9.312 8.813 4.073 0.632 6.101 0.476 9.739-1.449 3.654-1.738 6.83-2.315 10.824-2.926 6.531-1.135 12.237-2.897 18.34-5.438 3.12-1.196 6.149-1.969 9.41-2.687 5.582-1.288 10.546-3.359 14.687-7.5 0.52-4.419 0.436-6.39-2.187-10.063-0.464-0.484-0.464-0.484-2.813-2.937-0.825-1.011-1.65-2.021-2.5-3.063-7.343-8.627-16.603-15.598-27.125-19.937-4.375-2-4.375-2-7.375-5-2.842-1.089-5.724-2.076-8.625-3-1.539-0.495-3.078-0.99-4.664-1.5-1.554-0.495-3.109-0.99-4.711-1.5-1.494-0.534-2.988-1.067-4.527-1.617-7.959-2.461-16.204-2.794-24.473-3.383-0.992-0.075-1.985-0.151-3.008-0.228-23.947-1.715-46.951-0.916-68.992 9.228zm221 5c-4.703 6.271-4.117 11.813-4.027 19.445 0.013 2.067 0.025 4.133 0.037 6.2 0.025 3.25 0.053 6.5 0.086 9.75 0.03 3.142 0.048 6.283 0.064 9.425 0.014 0.975 0.027 1.95 0.041 2.955 0.026 6.885 0.026 6.885-2.201 10.225-3.645 0.306-7.163 0.467-10.812 0.5-12.225 0.11-12.225 0.11-16.188 3.5-2.153 4.306-1.185 10.083-1.187 14.812-0.012 1.19-0.025 2.379-0.037 3.604-2e-3 1.148-4e-3 2.296-6e-3 3.479-4e-3 1.05-8e-3 2.1-0.013 3.182 0.348 4.177 1.442 6.962 4.118 10.173 5.104 4.203 12.255 2.732 18.473 2.59 3.652 0.16 3.652 0.16 6.652 2.16 1.247 3.739 1.105 6.819 1.082 10.769-6e-3 1.623-0.013 3.246-0.02 4.918-5e-3 0.869-0.011 1.739-0.017 2.635-0.017 2.729-0.028 5.459-0.036 8.189-0.024 7.762-0.06 15.525-0.105 23.287-0.027 4.75-0.044 9.499-0.054 14.249-7e-3 1.802-0.017 3.603-0.031 5.405-0.125 16.364-0.121 30.622 11.631 43.161 5.655 5.045 10.959 7.672 18.312 9.438 3.238 0.949 3.238 0.949 6.839 2.966 4.829 2.177 8.837 2.616 14.032 2.663 0.454 0.011 0.454 0.011 2.748 0.067 2.915 0.064 5.829 0.098 8.744 0.128 1.999 0.032 3.997 0.064 5.995 0.097 36.249 0.476 36.249 0.476 44.88-4.972 4.779-6.371 4.214-12.18 4.25-19.813 0.021-1.068 0.042-2.135 0.063-3.236 0.029-5.986-0.21-10.637-3.313-15.951-4.072-2.715-7.832-2.249-12.562-2.313-8.006-0.248-13.689-1.006-20.438-5.687-2.118-4.237-2.257-6.188-2.274-10.832-0.01-1.392-0.019-2.783-0.029-4.217 1e-3 -1.501 2e-3 -3.002 3e-3 -4.549-5e-3 -1.541-9e-3 -3.082-0.013-4.669-8e-3 -4.094-5e-3 -8.188 1e-3 -12.282 0-2.513-0.01-5.025-0.024-7.537-0.024-4.817-0.029-9.633-0.027-14.449-9e-3 -1.503-0.018-3.006-0.028-4.555 6e-3 -1.388 0.013-2.777 0.019-4.207-1e-3 -1.225-1e-3 -2.45-2e-3 -3.712 0.374-2.991 0.374-2.991 3.374-5.991 2.832-0.369 2.832-0.369 6.243-0.371 1.231-0.018 2.462-0.035 3.73-0.053 2.594-9e-3 5.187-0.014 7.781-0.015 1.234-0.019 2.467-0.038 3.739-0.057 1.127-2e-3 2.255-4e-3 3.417-6e-3 3.766-0.607 5.404-1.835 8.09-4.498 2.664-6.138 2.298-12.613 2.25-19.188 8e-3 -1.079 0.016-2.159 0.024-3.271-3e-3 -1.038-5e-3 -2.077-8e-3 -3.146-1e-3 -0.47-1e-3 -0.47-7e-3 -2.849-0.259-2.546-0.259-2.546-2.259-6.546-3.57-2.38-5.254-2.276-9.496-2.344-1.28-0.029-2.561-0.059-3.881-0.09-1.34-0.022-2.68-0.043-4.06-0.066-2.645-0.043-5.289-0.095-7.934-0.156-1.175-0.019-2.35-0.038-3.56-0.057-3.069-0.287-3.069-0.287-7.069-2.287-0.381-3.734-0.508-7.186-0.468-10.922-7e-3 -1.093-0.015-2.185-0.022-3.311-0.029-4.688-0.013-9.375 0-14.062 2e-3 -3.418-0.019-6.834-0.041-10.252 0.011-1.056 0.023-2.113 0.034-3.201-0.04-5.885-0.325-9.72-4.503-14.252-4.033-2.017-5.617-2.252-9.974-2.259-1.205-6e-3 -2.41-0.012-3.651-0.019-1.298 4e-3 -2.596 8e-3 -3.933 0.012-1.337-2e-3 -2.673-3e-3 -4.05-5e-3 -2.827-2e-3 -5.654 2e-3 -8.481 0.01-4.328 0.011-8.655 0-12.983-0.012-2.745 1e-3 -5.491 3e-3 -8.236 7e-3 -1.296-4e-3 -2.592-8e-3 -3.927-0.012-1.208 6e-3 -2.416 0.013-3.661 0.019-0.53 1e-3 -0.53 1e-3 -3.214 5e-3 -3.081 0.271-5.164 0.796-7.89 2.254zm206 59c-2.18 0.49-4.368 0.952-6.562 1.375-5.827 1.289-9.552 3.255-14.438 6.625-1.155 0.454-2.31 0.907-3.5 1.375-4.596 2.134-7.882 5.162-11.5 8.625-1.063 0.989-2.127 1.977-3.222 2.996-6.6 6.317-11.212 11.606-14.778 20.004-0.634 0.857-1.268 1.714-1.922 2.598-2.798 4.581-3.945 9.231-5.265 14.402-0.13 0.486-0.13 0.486-0.787 2.945-3.466 13.147-4.925 26.796-1.026 40.055 0.303 1.038 0.606 2.075 0.918 3.145 2.796 9.374 5.813 17.556 11.082 25.855 0.495 1.217 0.99 2.434 1.5 3.687 1.672 3.692 3.512 5.609 6.5 8.313 0.382 0.402 0.382 0.402 2.313 2.437 6.218 5.93 11.926 9.357 19.953 12.29 2.734 1.273 2.734 1.273 4.559 3.261 3.203 2.962 6.543 3.5 10.738 4.574 0.753 0.197 0.753 0.197 4.566 1.192 0.398 0.098 0.398 0.098 2.408 0.597 1.645 0.433 3.278 0.914 4.895 1.44 8.556 2.695 17.024 2.849 25.943 3.021 1.593 0.036 3.186 0.072 4.827 0.109 30.343 0.501 30.343 0.501 42.798-5.921 3.528-0.836 3.528-0.836 6.938-1.375 6.577-1.287 10.845-3.532 16.062-7.625 0.949-0.619 1.898-1.238 2.875-1.875 1.032-0.701 2.063-1.403 3.125-2.125 0.418-0.276 0.418-0.276 2.532-1.672 8.712-5.983 14.988-12.695 19.468-22.328 0.644-0.73 1.287-1.459 1.95-2.211 2.442-3.322 3.169-6.1 4.113-10.102 1.029-4.178 2.073-8.04 3.625-12.062 5.502-15.197 3.717-35.594-2.699-50.27-0.989-2.355-0.989-2.355-2.239-6.73-5.929-15.671-19.63-30.953-34.863-38.082-1.975-0.814-3.962-1.598-5.965-2.34-2.922-1.203-2.922-1.203-6.183-3.211-4.327-2.306-8.53-3.255-13.301-4.117-5.28-0.999-10.341-2.157-15.438-3.875-19.741-3.214-41.146-1.455-60 5zm296.81-0.996c-2.451 0.869-4.941 1.63-7.434 2.371-6.511 2.419-12.254 5.505-17.187 10.437-2.437 2.437-3.782 2.999-7.188 3.188-2.07-2.07-1.254-6.53-1.328-9.336-0.672-2.664-0.672-2.664-2.803-4.306-3.383-1.601-5.697-1.738-9.431-1.746-1.309-0.01-2.617-0.019-3.964-0.029-0.703 3e-3 -0.703 3e-3 -4.259 0.019-1.448-3e-3 -2.897-6e-3 -4.389-9e-3 -3.06-2e-3 -6.121 3e-3 -9.181 0.016-4.693 0.016-9.384 0-14.076-0.019-2.972 2e-3 -5.944 6e-3 -8.916 0.012-1.408-7e-3 -2.815-0.013-4.265-0.019-1.305 0.01-2.61 0.019-3.954 0.029-1.149 2e-3 -2.297 5e-3 -3.481 7e-3 -2.953 0.381-2.953 0.381-6.953 3.381-1.088 3.265-1.131 5.654-1.14 9.091-6e-3 1.274-0.012 2.549-0.017 3.862-2e-3 1.401-3e-3 2.802-4e-3 4.245-5e-3 1.474-0.01 2.947-0.015 4.465-0.012 4.046-0.019 8.091-0.024 12.137-3e-3 2.527-7e-3 5.055-0.011 7.583-0.014 7.908-0.024 15.817-0.028 23.726-4e-3 9.128-0.022 18.257-0.051 27.386-0.021 7.056-0.031 14.113-0.033 21.169-1e-3 4.215-7e-3 8.429-0.024 12.644-0.017 4.702-0.016 9.403-9e-3 14.105-9e-3 1.395-0.019 2.79-0.028 4.228 6e-3 1.283 0.011 2.565 0.017 3.887-2e-3 1.112-3e-3 2.223-5e-3 3.368 0.632 5.269 2.661 8.392 6.372 12.104 2.84 0.394 2.84 0.394 6.336 0.42 0.654 8e-3 0.654 8e-3 3.964 0.048 1.416 0 2.832 1e-3 4.29 1e-3 1.451 7e-3 2.903 0.015 4.398 0.023 3.072 0.011 6.145 0.013 9.217 9e-3 4.71-1e-3 9.419 0.041 14.129 0.085 2.981 5e-3 5.963 8e-3 8.944 8e-3 1.413 0.016 2.827 0.033 4.283 0.049 1.312-9e-3 2.623-0.018 3.974-0.028 0.578 1e-3 0.578 1e-3 3.499 6e-3 2.966-0.621 2.966-0.621 5.308-2.909 3.332-5.449 2.781-11.128 2.74-17.292-3e-3 -1.077-6e-3 -2.154-9e-3 -3.263-7e-3 -2.338-0.017-4.676-0.028-7.014-0.017-3.698-0.028-7.396-0.036-11.094-0.024-10.514-0.06-21.029-0.105-31.543-0.026-6.43-0.043-12.86-0.054-19.29-7e-3 -2.453-0.017-4.906-0.031-7.359-0.019-3.425-0.026-6.851-0.03-10.277-9e-3 -1.017-0.017-2.034-0.026-3.083 6e-3 -4.58 0.156-7.334 2.237-11.497 2.813-1.563 2.813-1.563 6-3 0.722-0.536 1.444-1.073 2.188-1.625 5.019-2.454 11.1-3.188 16.484-1.574 3.846 1.981 6.409 5.36 8.328 9.199 0.078 3.478 0.094 6.935 0.066 10.413-2e-3 0.542-2e-3 0.542-0.014 3.282-0.01 2.358-0.023 4.717-0.038 7.075-0.022 3.732-0.036 7.464-0.047 11.196-0.034 10.613-0.076 21.226-0.138 31.84-0.038 6.486-0.061 12.972-0.074 19.458-8e-3 2.474-0.022 4.947-0.041 7.421-0.027 3.461-0.035 6.923-0.038 10.384-0.013 1.023-0.025 2.045-0.038 3.099 0.021 7.467 1.095 11.565 6.362 16.832 2.84 0.388 2.84 0.388 6.336 0.404 0.654 6e-3 0.654 6e-3 3.964 0.038 1.416-2e-3 2.832-5e-3 4.29-8e-3 0.726 2e-3 0.726 2e-3 4.398 0.015 3.072 7e-3 6.145 6e-3 9.217-3e-3 4.71-8e-3 9.419 0.02 14.129 0.052 2.981 2e-3 5.963 1e-3 8.944-2e-3 0.706 6e-3 0.706 6e-3 4.283 0.034 1.312-9e-3 2.623-0.019 3.974-0.028 0.578 0 0.578 0 3.499-1e-3 3.594-0.607 4.734-1.683 6.966-4.501 1.29-2.579 1.132-4.43 1.141-7.319 5e-3 -1.128 0.011-2.257 0.017-3.419 1e-3 -1.245 2e-3 -2.489 3e-3 -3.771 5e-3 -1.305 0.01-2.611 0.015-3.956 0.015-4.339 0.022-8.677 0.027-13.015 6e-3 -3.008 0.012-6.015 0.018-9.022 0.01-6.314 0.016-12.628 0.02-18.943 5e-3 -8.093 0.029-16.185 0.058-24.278 0.018-6.216 0.023-12.431 0.025-18.646 3e-3 -2.984 0.011-5.967 0.024-8.951 0.017-4.175 0.015-8.349 9e-3 -12.524 4e-3 -0.618 4e-3 -0.618 0.028-3.74-0.041-8.371-1.635-14.154-6.322-21.166-0.242-0.369-0.242-0.369-1.465-2.234-1.598-2.016-1.598-2.016-5.598-5.016h-2l-2-4c-3.039-3.039-6.754-3.702-10.8-4.98-1.888-0.602-3.767-1.237-5.618-1.946-14.571-5.292-31.566-2.114-45.773 2.93zm196.19-1.004c-1.44 0.289-2.879 0.577-4.363 0.875-13.111 2.692-25.473 7.21-35.637 16.125-1.01 0.66-2.021 1.32-3.062 2-7.123 4.85-12.341 11.799-16.938 19-0.495 0.763-0.99 1.526-1.5 2.312-1.5 2.688-1.5 2.688-3.5 7.188s-2 4.5-3.55 6.812c-5.941 11.018-3.889 28.338-3.45 40.688 0.045 1.382 0.091 2.764 0.137 4.187 0.993 12.797 6.075 28.093 15.863 36.813 1.667 2 3.334 4 5 6 1.62 1.712 3.296 3.372 5 5 0.734 0.705 1.467 1.41 2.223 2.137 5.301 4.956 10.311 8.582 16.777 11.863 0.379 0.249 0.379 0.249 2.293 1.512 3.337 1.834 6.498 2.575 10.207 3.425 6.282 1.492 12.405 3.209 18.535 5.231 8.64 2.424 17.365 1.837 26.234 1.59 2.592-0.07 5.183-0.125 7.774-0.178 1.671-0.043 3.341-0.086 5.012-0.131 1.5-0.038 3.001-0.075 4.546-0.114 7.177-0.546 13.03-2.094 19.399-5.335 2.299-0.523 4.614-0.98 6.938-1.375 5.861-1.173 9.359-2.844 14.062-6.625 1.403-0.557 2.805-1.114 4.25-1.688 8.334-3.481 14.483-11.024 20.75-17.312 1.093-1.073 2.187-2.145 3.313-3.25 3.314-4.624 2.906-7.192 2.687-12.75-35.937-12.097-35.937-12.097-48-11-3.308 1.911-4.792 3.682-6.875 6.875-3.556 5.23-7.082 8.55-13.234 10.281-5.034 0.869-9.864 1.141-14.953 1.094-0.846 8e-3 -1.693 0.015-2.565 0.023-6.438-0.019-12.745-0.271-17.998-4.273-6.384-8.065-10.823-15.54-10.375-26l1-2c3.501-0.171 6.923-0.209 10.423-0.164 0.548 3e-3 0.548 3e-3 3.321 0.019 2.389 0.014 4.778 0.033 7.167 0.056 3.777 0.034 7.555 0.055 11.333 0.072 10.743 0.049 21.487 0.12 32.231 0.209 6.563 0.053 13.125 0.088 19.688 0.11 2.506 0.012 5.012 0.032 7.518 0.06 3.503 0.038 7.005 0.052 10.508 0.06 1.041 0.018 2.081 0.035 3.154 0.053 7.03-0.019 7.03-0.019 10.271-2.376 5.522-8.357 3.065-24.749 1.886-34.412-1.119-5.372-3.193-10.427-5.25-15.5-0.161-0.4-0.161-0.4-0.978-2.428-2.338-5.441-5.316-9.394-9.272-13.759-0.95-1.479-1.874-2.976-2.75-4.5-2.901-4.505-6.386-7.058-10.882-9.895-2.368-1.605-2.368-1.605-4.426-3.71-2.842-2.773-6.249-3.531-9.942-4.895-0.656-0.627-1.312-1.253-1.988-1.898-4.649-3.244-9.78-4.024-15.262-5.227-0.547-0.126-0.547-0.126-3.316-0.762-2.154-0.492-4.31-0.977-6.468-1.451-2.547-0.569-5.082-1.188-7.614-1.818-4.98-0.966-9.667-1.228-14.727-1.219-0.956 2e-3 -1.912 3e-3 -2.897 5e-3 -9.605 0.162-18.407 2.05-27.728 4.37z"/>
<path transform="translate(150.88 449.81)" d="m0 0c1.413-0.012 2.826-0.024 4.281-0.037 13.673-0.019 26.572 1.232 39.657 5.291 2.864 0.839 5.62 1.4 8.562 1.871 5.108 1.173 8.259 3.221 12.625 6.063 1.485 0.474 2.97 0.948 4.5 1.437 5.248 1.822 8.182 4.108 12.5 7.563 0.443 0.247 0.443 0.247 2.687 1.5 3.109 2.016 5.006 4.616 7.313 7.5 0.402 0.391 0.402 0.391 2.437 2.374 6.735 6.899 9.624 12.828 12.387 22.04 1.176 3.586 1.176 3.586 2.766 6.636 1.575 3.294 2.002 5.884 2.285 9.512 0.101 1.094 0.201 2.189 0.305 3.316-0.213 3.689-0.881 5.245-3.18 8.122-2.764 0.621-2.764 0.621-6.152 0.615-1.268 9e-3 -2.536 0.018-3.843 0.028-0.686-8e-3 -0.686-8e-3 -4.157-0.05h-4.263c-2.979-5e-3 -5.957-0.023-8.935-0.052-4.566-0.041-9.129-0.041-13.695-0.034-2.89-0.01-5.78-0.023-8.67-0.039h-4.151c-0.636-8e-3 -0.636-8e-3 -3.853-0.049-0.559-4e-3 -0.559-4e-3 -3.39-0.025-2.891-0.394-2.891-0.394-6.891-3.394-0.836-2.715-0.836-2.715-1.375-5.938-1.241-6.186-3.412-11.176-6.418-16.699-1.207-2.363-1.207-2.363-1.207-4.363l-4-2c-0.619-0.81-1.238-1.62-1.875-2.454-2.501-2.997-4.507-3.904-8.125-5.296-1.031-0.408-2.063-0.815-3.125-1.235-10.061-3.554-18.17-1.653-27.875 1.985-8.382 4.112-14.715 13.483-18 22-2.072 8.869-3.349 17.893-4.57 26.914-0.269 1.932-0.579 3.859-0.946 5.775-1.016 6.954-0.669 14.047-0.671 21.061-0.013 1.586-0.025 3.173-0.038 4.808-0.016 13.774 0.403 27.736 4.514 40.984 0.747 2.582 1.169 5.117 1.586 7.77 1.208 5.033 2.61 7.005 6.125 10.688 0.598 0.99 1.196 1.98 1.813 3 3.984 5.464 8.169 8.356 14.5 10.374 14.31 2.159 27.582 1.659 39.714-6.769 2.695-2.193 4.277-4.591 5.973-7.605 0.701-0.908 1.403-1.816 2.125-2.75 3.998-6.93 4.111-14.859 4.336-22.684 0.539-2.566 0.539-2.566 4.539-5.566 2.958-0.281 2.958-0.281 6.383-0.145 1.25 0.046 2.501 0.091 3.789 0.139 1.304 0.063 2.609 0.127 3.953 0.193 1.281 0.044 2.563 0.089 3.883 0.135 5.49 0.228 10.827 0.517 16.207 1.674 6.367 1.335 12.703 1.689 19.189 2.039 2.546 0.185 5.076 0.563 7.596 0.965 3.48 4.64 3.603 5.401 3 11-2.81 11.445-6.202 24.853-15 33-0.619 0.969-1.238 1.938-1.875 2.937-3.132 4.514-7.035 7.819-11.75 10.625-2.375 1.438-2.375 1.438-4.625 3.875-3.623 3.376-7.185 4.634-11.75 6.563l-4 3c-3.32 0.773-3.32 0.773-7.125 1.374-5.855 1.066-10.509 2.528-15.629 5.54-15.061 7.281-40.757 3.396-57.183 2.836-0.955-0.027-1.91-0.053-2.894-0.08-9.98-0.447-19.143-3.15-28.427-6.702-3.711-1.311-7.493-2.203-11.332-3.062-2.909-1.094-4.229-2.726-6.41-4.906-2.656-1.09-2.656-1.09-5.5-1.938-4.659-1.574-6.706-2.923-9.5-7.062-0.464-0.31-0.464-0.31-2.813-1.876-5.253-3.502-9.332-7.414-12.187-13.124-0.803-0.626-1.606-1.251-2.434-1.895-2.916-2.393-4.035-4.397-5.629-7.793-0.253-0.535-0.253-0.535-1.535-3.242-0.462-1.013-0.925-2.027-1.402-3.07-0.66-1.424-1.32-2.847-2-4.313-0.307-0.723-0.614-1.446-0.93-2.191-0.815-1.903-1.685-3.782-2.578-5.649-10.948-24.355-11.61-68.702-2.492-93.847 0.972-2.549 1.979-5.075 3.035-7.59 0.928-2.319 1.67-4.71 2.402-7.098 1.629-4.494 3.686-7.523 6.563-11.312 0.681-1.197 1.361-2.393 2.063-3.626 1.937-3.374 1.937-3.374 4-5.937 1.937-2.437 1.937-2.437 3.062-5.313 2.394-3.989 5.265-5.728 9.109-8.257 3.666-2.475 7.035-5.255 10.442-8.071 3.615-2.794 6.961-4.664 11.261-6.234 4.063-1.562 4.063-1.562 6.817-3.566 3.827-2.354 6.811-2.868 11.246-3.496 6.851-1.078 13.327-2.587 19.949-4.633 8.237-2.342 16.427-2.051 24.926-2.055z"/>
<path transform="translate(879.31 520.25)" d="m0 0c0.864 0.026 1.729 0.053 2.619 0.08 7.866 0.389 13.135 2.65 19.069 7.67 1.01 0.639 2.021 1.279 3.062 1.938 6.3 4.423 10.7 11.894 12.495 19.389 0.447 2.702 0.571 5.21 0.576 7.948 2e-3 0.522 2e-3 0.522 0.013 3.161 0 1.133-1e-3 2.267-1e-3 3.435 3e-3 1.202 6e-3 2.404 0.01 3.643 9e-3 3.974 0.011 7.949 0.012 11.924 4e-3 2.76 7e-3 5.521 0.011 8.282 6e-3 5.787 7e-3 11.574 7e-3 17.361 0 7.422 0.013 14.843 0.031 22.265 0.011 5.701 0.013 11.402 0.012 17.104 1e-3 2.736 6e-3 5.473 0.014 8.21 9e-3 3.823 6e-3 7.646 0 11.469 6e-3 1.134 0.012 2.267 0.017 3.435-4e-3 1.043-8e-3 2.086-0.012 3.161 0 0.903 1e-3 1.806 1e-3 2.737-0.389 3.97-1.423 6.712-4.248 9.538-2.454 0.292-2.454 0.292-5.58 0.351-1.168 0.026-2.336 0.052-3.54 0.079-1.268 0.018-2.535 0.036-3.841 0.054-1.298 0.024-2.595 0.049-3.931 0.073-2.749 0.049-5.498 0.092-8.247 0.131-4.212 0.062-8.423 0.145-12.635 0.23-2.667 0.044-5.333 0.087-8 0.129-1.264 0.026-2.527 0.052-3.829 0.078-1.175 0.014-2.349 0.028-3.559 0.042-1.033 0.016-2.067 0.032-3.131 0.049-2.707-0.216-2.707-0.216-6.707-2.216-2.663-5.292-2.286-11.002-2.272-16.791-5e-3 -1.076-0.01-2.151-0.016-3.259-0.01-2.33-0.016-4.659-0.017-6.988-4e-3 -3.686-0.021-7.372-0.041-11.058-0.056-10.477-0.086-20.955-0.111-31.432-0.016-6.413-0.046-12.826-0.085-19.239-0.011-2.444-0.017-4.887-0.017-7.331 0-3.414-0.019-6.827-0.041-10.24 5e-3 -1.011 9e-3 -2.021 0.014-3.062-0.052-5.004-0.169-8.647-3.414-12.6-5.777-5.264-10.828-7.616-18.743-7.531-6.487 1.058-12.303 4.284-17.257 8.531-3.715 6.847-4.57 12.146-4.467 19.856-2e-3 1.047-5e-3 2.094-7e-3 3.172-3e-3 2.257 4e-3 4.515 0.018 6.772 0.022 3.573 0.018 7.145 8e-3 10.718-0.022 8.866-5e-3 17.732 0.021 26.599 0.022 7.508 0.024 15.015-3e-3 22.523-4e-3 3.52 0.021 7.039 0.046 10.558-5e-3 2.154-0.012 4.309-0.021 6.463 8e-3 0.489 8e-3 0.489 0.046 2.963-0.046 4.307-0.316 6.909-2.808 10.483-3.248 2.17-4.894 2.52-8.77 2.524-1.171 0.013-2.342 0.025-3.549 0.038-1.255-0.013-2.51-0.026-3.804-0.04-0.647 1e-3 -0.647 1e-3 -3.925 7e-3 -2.735-1e-3 -5.47-0.014-8.205-0.039-4.197-0.034-8.392-0.021-12.588-1e-3 -2.657-7e-3 -5.313-0.017-7.969-0.03-1.259 5e-3 -2.519 0.01-3.816 0.015-1.165-0.015-2.33-0.031-3.53-0.048-1.027-6e-3 -2.053-0.012-3.111-0.018-2.566-0.515-2.566-0.515-5.566-4.515-0.381-2.855-0.381-2.855-0.388-6.225-0.01-1.278-0.02-2.557-0.03-3.874 2e-3 -0.701 2e-3 -0.701 0.013-4.245-6e-3 -1.476-0.013-2.953-0.02-4.475-0.016-4.049-0.017-8.098-0.011-12.148 3e-3 -3.38-3e-3 -6.76-9e-3 -10.14-0.014-7.972-0.013-15.944-2e-3 -23.916 0.012-8.228-2e-3 -16.455-0.029-24.683-0.022-7.062-0.029-14.125-0.023-21.187 4e-3 -4.219 1e-3 -8.438-0.016-12.657-0.015-4.702-4e-3 -9.404 0.013-14.106-0.01-1.401-0.02-2.802-0.03-4.245 0.01-1.278 0.02-2.557 0.03-3.874 1e-3 -1.112 1e-3 -2.224 1e-3 -3.37 0.617-3.519 1.704-4.699 4.501-6.855 2.566-0.494 2.566-0.494 5.499-0.486 1.102-6e-3 2.203-0.012 3.338-0.018 0.593 7e-3 0.593 7e-3 3.592 0.043 0.612 1e-3 0.612 1e-3 3.707 3e-3 2.587 6e-3 5.174 0.022 7.761 0.046 3.955 0.037 7.909 0.041 11.864 0.041 2.515 0.01 5.029 0.021 7.543 0.035 1.182 2e-3 2.363 5e-3 3.58 7e-3 0.554 6e-3 0.554 6e-3 3.357 0.038 0.485 4e-3 0.485 4e-3 2.938 0.024 3.203 0.303 5.846 1.049 8.821 2.267 1.442 2.884 1.093 5.417 1.062 8.625-9e-3 1.189-0.018 2.377-0.027 3.602-0.012 0.915-0.024 1.83-0.035 2.773 8.449-0.581 13.19-2.426 19.492-8.039 3.407-2.664 6.879-3.793 10.965-5.09 3.442-1.179 6.403-3.05 9.543-4.871 11.337-3.052 24.636-2.204 36.312-1.75z"/>
<path transform="translate(450.55 527.04)" d="m0 0c2.537 1.001 5.06 1.706 7.695 2.402 4.553 1.319 7.257 3.297 10.75 6.563 1.258 0.907 2.517 1.815 3.813 2.75 11.461 8.547 20.176 19.51 25.25 32.875 0.506 1.312 1.013 2.624 1.535 3.976 3.02 9.472 3.722 18.495 3.652 28.399 8e-3 1.098 0.016 2.196 0.024 3.328-0.025 10.338-0.905 18.724-6.274 27.672-0.206 0.784-0.206 0.784-1.25 4.75-2.643 9.454-10.134 17.237-16.75 24.25h-2l-2 4c-2.32 1.527-2.32 1.527-5.125 2.937-3.334 1.696-6.386 3.411-9.488 5.52-5.12 3.237-10.649 4.699-16.449 6.293-1.05 0.303-2.1 0.606-3.182 0.918-11.185 3.167-21.826 3.548-33.404 3.572-2.816 0.01-5.63 0.041-8.445 0.072-14.047 0.083-26.747-1.594-40.055-6.347-2.885-0.977-5.765-1.696-8.727-2.403-4.768-1.269-7.517-3.115-11.125-6.562-1.237-0.887-2.475-1.774-3.75-2.688-7.11-5.291-13.724-11.653-18.25-19.312-0.629-0.883-1.258-1.766-1.906-2.676-2.302-3.654-3.742-7.206-5.219-11.262-0.497-1.349-0.995-2.699-1.508-4.089-3.271-9.507-3.701-17.641-3.679-27.661-0.016-1.489-0.032-2.979-0.049-4.513-5e-3 -12.129 1.835-22.064 6.736-33.174 0.565-1.307 1.13-2.614 1.711-3.961 1.938-3.71 4.158-6.532 6.914-9.664 0.557-0.949 1.114-1.898 1.688-2.875 5.436-7.346 13.743-12.194 21.312-17.125l4-3c2.457-0.747 4.94-1.406 7.438-2 4.781-1.14 8.42-2.385 12.562-5 25.147-6.756 59.482-6.221 83.555 4.035zm-63.555 26.965c-2.687 3.625-2.687 3.625-5 8-0.221 0.359-0.221 0.359-1.343 2.18-8.331 14.384-6.122 33.754-5.657 49.82 0.025 0.946 0.051 1.892 0.076 2.866 0.466 13.076 3.032 25.305 11.936 35.419 6.384 5.661 12.884 5.529 21.125 5.281 6.122-0.713 9.251-2.185 13.621-6.453 7.922-10.999 10.391-22.865 10.445-36.074 6e-3 -1.064 0.012-2.128 0.018-3.224 9e-3 -2.248 0.016-4.495 0.02-6.743 9e-3 -3.428 0.04-6.855 0.072-10.283 6e-3 -2.188 0.012-4.375 0.015-6.563 0.013-1.02 0.025-2.04 0.038-3.091-0.018-5.786-0.658-9.887-3.366-15.135-0.752-2.187-1.502-4.374-2.25-6.563-2.3-6.002-4.31-9.002-9.75-12.437-9.601-2.184-21.868-3.137-30 3z"/>
<path transform="translate(1104.4 525.52)" d="m0 0c2.852 1.611 5.228 2.175 8.434 2.793 6.089 1.412 9.403 3.728 14.187 7.687 0.969 0.461 1.939 0.921 2.938 1.395 7.788 4.083 12.502 11.826 16.062 19.605 0.62 0.693 1.24 1.385 1.879 2.098 2.949 4.036 4.238 8.295 5.746 13.027 0.306 0.948 0.611 1.895 0.926 2.87 3.706 11.705 7.472 25.937 3.449 38.005-3.805 1.903-8.548 1.164-12.752 1.174-0.559 3e-3 -0.559 3e-3 -3.39 0.02-2.435 0.014-4.87 0.026-7.306 0.036-3.848 0.017-7.697 0.04-11.545 0.065-10.944 0.071-21.888 0.131-32.833 0.182-6.687 0.032-13.374 0.073-20.061 0.12-2.555 0.017-5.11 0.029-7.665 0.037-3.565 0.012-7.131 0.037-10.696 0.063-1.065 1e-3 -2.13 2e-3 -3.227 2e-3 -7.297 0.074-7.297 0.074-9.525 2.301-0.143 3.058-0.121 5.953 0 9-0.021 1.609-0.041 3.218-0.062 4.875 0.963 8.725 8.43 15.034 14.937 20.25 5.7 4.27 10.937 4.089 17.875 4.125 0.977 0.021 1.954 0.042 2.961 0.063 5.845 0.031 10.006-0.543 15.289-3.313 1.403-0.639 2.805-1.278 4.25-1.937 4.373-2.395 7.055-5.582 10.25-9.375 4.91-5.56 4.91-5.56 10.125-6.688 3.89 0.89 6.972 2.134 10.512 3.926 5.357 2.01 11.103 2.445 16.754 3.168 4.247 0.937 6.289 1.612 9.109 4.906 0.657 3.633 0.367 5.36-1.469 8.563-4.456 5.347-8.781 9.509-14.531 13.437l-4 3c-3 1.334-6 2.667-9 4l-4 3c-2.546 1.06-2.546 1.06-5.394 2.008-1.039 0.347-2.077 0.694-3.147 1.051-1.08 0.352-2.159 0.704-3.271 1.066-1.068 0.36-2.136 0.72-3.237 1.09-10.955 3.618-21.218 4.001-32.69 4.026-2.66 9e-3 -5.318 0.04-7.978 0.072-13.787 0.086-26.955-0.608-39.283-7.313-1.485-0.288-2.97-0.577-4.5-0.875-4.406-1.101-6.865-2.529-10.285-5.492-2.215-1.633-2.215-1.633-6.016-3.406-7.337-3.891-12.593-10.211-18.199-16.227-0.334-0.351-0.334-0.351-2.023-2.132-5.23-6.171-7.414-14.336-9.977-21.868-0.544-1.282-1.088-2.565-1.648-3.886-2.434-7.371-1.824-15.322-1.789-22.989-0.02-1.584-0.04-3.168-0.061-4.8 4e-3 -9.028 0.806-16.103 4.498-24.325 0.388-1.251 0.776-2.503 1.176-3.792 5.525-16.5 19.429-28.24 33.824-37.208l3-3c2.431-0.76 4.896-1.415 7.375-2 4.806-1.137 8.465-2.368 12.625-5 19.372-5.204 55.623-8.822 73.379 2.52zm-57.406 29.613c-1.757 2.235-3.367 4.524-4.973 6.867l-2 2c-1.692 6.11-2.484 11.617-2 18 3.704 3.704 5.805 3.36 10.861 3.392 1.065-0.01 2.131-0.019 3.229-0.028 1.096 0 2.192 1e-3 3.321 1e-3 2.32-2e-3 4.639-0.012 6.958-0.028 3.551-0.024 7.101-0.021 10.653-0.014 2.252-6e-3 4.503-0.013 6.755-0.022 0.532 1e-3 0.532 1e-3 3.224 3e-3 0.991-0.01 1.982-0.019 3.003-0.029 0.87-4e-3 1.74-9e-3 2.637-0.014 2.359-0.261 2.359-0.261 6.359-2.261 1.548-3.096 1.232-5.561 1-9-1.355-4.007-1.355-4.007-3.187-8.125-0.592-1.363-1.184-2.727-1.793-4.132-2.875-5.326-5.621-8.043-11.02-10.743-10.019-1.856-25.297-3.999-33.027 4.133z"/>
<path transform="translate(694,523)" d="m0 0c0.114 3.079 0.164 6.135 0.168 9.215 3e-3 0.926 7e-3 1.852 0.01 2.806 5e-3 1.963 7e-3 3.926 7e-3 5.889 2e-3 3.011 0.021 6.022 0.04 9.033 3e-3 1.903 5e-3 3.806 5e-3 5.709 8e-3 0.906 0.015 1.811 0.022 2.743-0.023 6.376-0.023 6.376-2.252 8.605-3.258 0.152-6.431 0.182-9.688 0.125-0.972-8e-3 -1.944-0.015-2.946-0.023-4.165-0.033-8.33-0.088-12.495-0.143-3.041-0.036-6.081-0.061-9.121-0.084-0.463-8e-3 -0.463-8e-3 -2.807-0.05-7.539-0.056-16.335-0.022-22.318 5.113-2.48 2.095-5.027 4.114-7.625 6.062-1.127 4.508-1.098 8.321-1.066 12.972 5e-3 0.906 9e-3 1.812 0.014 2.746 0.011 1.966 0.023 3.933 0.038 5.899 0.022 3.115 0.036 6.23 0.048 9.345 0.033 8.856 0.075 17.712 0.137 26.569 0.038 5.418 0.061 10.837 0.075 16.256 8e-3 2.062 0.021 4.124 0.041 6.187 0.026 2.889 0.034 5.777 0.038 8.666 5e-3 0.821 5e-3 0.821 0.029 4.977-0.365 4.518-1.017 7.5-3.354 11.383-2.316 0.931-2.316 0.931-5 1-0.931 0.038-1.862 0.077-2.821 0.116-1.028-5e-3 -2.056-0.01-3.115-0.015-1.171-4e-3 -2.342-8e-3 -3.549-0.012-5.312-0.048-10.623-0.097-15.935-0.166-2.807-0.032-5.614-0.053-8.421-0.064-4.046-0.015-8.09-0.062-12.136-0.117-0.629 1e-3 -0.629 1e-3 -3.816 3e-3 -1.165-0.023-2.33-0.046-3.53-0.07-1.026-9e-3 -2.053-0.019-3.11-0.029-2.567-0.646-2.567-0.646-4.204-2.797-1.572-3.285-1.74-5.443-1.744-9.073-8e-3 -1.254-0.017-2.507-0.026-3.798 3e-3 -0.684 3e-3 -0.684 0.019-4.144-5e-3 -1.446-0.011-2.892-0.016-4.382-0.013-4.786-5e-3 -9.572 6e-3 -14.358-2e-3 -3.322-5e-3 -6.643-9e-3 -9.965-6e-3 -6.964 2e-3 -13.927 0.016-20.891 0.016-8.049 0.011-16.097-6e-3 -24.146-0.013-6.913-0.015-13.826-7e-3 -20.739 4e-3 -4.128 4e-3 -8.255-5e-3 -12.383-7e-3 -4.601 4e-3 -9.203 0.021-13.804-6e-3 -1.367-0.012-2.735-0.019-4.144 9e-3 -1.253 0.017-2.506 0.026-3.798 1e-3 -1.087 2e-3 -2.175 3e-3 -3.296 0.431-3.341 1.391-5.23 3.378-7.928 2.691-1.345 4.782-1.135 7.795-1.145 1.215-7e-3 2.429-0.013 3.681-0.02 1.317-1e-3 2.635-2e-3 3.993-3e-3 1.346-3e-3 2.693-7e-3 4.08-0.01 2.851-5e-3 5.703-7e-3 8.554-7e-3 4.379-2e-3 8.757-0.021 13.135-0.04 2.765-3e-3 5.529-5e-3 8.293-5e-3 1.318-8e-3 2.636-0.015 3.993-0.022 0.608 1e-3 0.608 1e-3 3.681 9e-3 1.073-1e-3 2.146-3e-3 3.252-4e-3 2.543 0.247 2.543 0.247 4.543 2.247 0.468 3.057 0.838 6.051 1.125 9.125 0.086 0.849 0.173 1.699 0.262 2.574 0.212 2.1 0.414 4.2 0.613 6.301 4.086-0.249 6.371-0.454 9.512-3.18 0.718-0.889 1.436-1.779 2.176-2.695 4.179-5.092 7.769-8.167 14.124-10.125 3.256-1.011 6.229-2.021 9.286-3.543 5.451-2.036 10.753-2.358 16.527-2.769 0.559-0.05 0.559-0.05 3.391-0.299 11.488-0.885 11.488-0.885 14.984 2.611z"/>
<path transform="translate(1349,524)" d="m0 0c0.198 2.941 0.262 5.892 0.266 8.84 2e-3 0.878 3e-3 1.756 5e-3 2.66 2e-3 1.859-2e-3 3.717-0.01 5.576-0.011 2.847 0 5.693 0.012 8.539-1e-3 1.804-3e-3 3.608-7e-3 5.412-3e-3 1.648-5e-3 3.295-7e-3 4.992-0.259 3.981-0.259 3.981-2.259 6.981-3.305 0.242-6.421 0.299-9.723 0.223-0.974-9e-3 -1.949-0.018-2.953-0.028-3.129-0.03-6.258-0.079-9.386-0.133-3.104-0.047-6.208-0.091-9.312-0.122-1.932-0.019-3.865-0.049-5.797-0.09-9.132-0.1-15.844 0.786-22.829 7.15-1.992 1.015-3.991 2.019-6 3-1.736 3.473-1.144 7.504-1.142 11.327-2e-3 0.484-2e-3 0.484-0.01 2.933-8e-3 2.106-0.013 4.212-0.017 6.318-7e-3 3.333-0.022 6.665-0.041 9.998-0.053 9.477-0.1 18.955-0.116 28.432-0.01 5.793-0.039 11.585-0.081 17.377-0.013 2.209-0.018 4.419-0.015 6.628 2e-3 3.091-0.02 6.181-0.048 9.271 3e-3 0.457 3e-3 0.457 0.02 2.77-0.057 3.859-0.362 6.596-2.202 10.019-3.009 2.47-4.579 2.531-8.446 2.482-1.231-4e-3 -2.463-8e-3 -3.731-0.013-1.326-0.032-2.652-0.064-4.019-0.097-1.363-0.017-2.726-0.035-4.131-0.052-2.883-0.044-5.765-0.1-8.647-0.168-4.423-0.1-8.843-0.146-13.267-0.186-2.797-0.049-5.595-0.101-8.392-0.156-0.664-6e-3 -0.664-6e-3 -4.025-0.036-0.614-0.018-0.614-0.018-3.721-0.108-1.083-0.022-2.166-0.044-3.281-0.066-2.688-0.673-2.688-0.673-4.332-2.826-1.563-3.282-1.733-5.447-1.737-9.071-8e-3 -1.254-0.017-2.507-0.026-3.798 3e-3 -0.684 3e-3 -0.684 0.019-4.144-5e-3 -1.446-0.011-2.892-0.016-4.382-0.013-4.786-5e-3 -9.572 6e-3 -14.358-2e-3 -3.322-5e-3 -6.643-9e-3 -9.965-6e-3 -6.964 2e-3 -13.927 0.016-20.891 0.016-8.049 0.011-16.097-6e-3 -24.146-0.013-6.913-0.015-13.826-7e-3 -20.739 4e-3 -4.128 4e-3 -8.255-5e-3 -12.383-7e-3 -4.601 4e-3 -9.203 0.021-13.804-6e-3 -1.367-0.012-2.735-0.019-4.144 9e-3 -1.253 0.017-2.506 0.026-3.798 1e-3 -1.087 2e-3 -2.175 3e-3 -3.296 0.431-3.341 1.391-5.23 3.378-7.928 2.691-1.345 4.782-1.135 7.795-1.145 1.215-7e-3 2.429-0.013 3.681-0.02 1.317-1e-3 2.635-2e-3 3.993-3e-3 1.346-3e-3 2.693-7e-3 4.08-0.01 2.851-5e-3 5.703-7e-3 8.554-7e-3 4.379-2e-3 8.757-0.021 13.135-0.04 2.765-3e-3 5.529-5e-3 8.293-5e-3 1.318-8e-3 2.636-0.015 3.993-0.022 0.608 1e-3 0.608 1e-3 3.681 9e-3 1.073-1e-3 2.146-3e-3 3.252-4e-3 2.543 0.247 2.543 0.247 4.543 2.247 0.462 2.695 0.823 5.408 1.125 8.125 0.168 1.467 0.335 2.934 0.508 4.445 0.121 1.132 0.242 2.264 0.367 3.43 7.394-0.506 7.394-0.506 10.137-2.742 0.511-0.704 1.023-1.408 1.551-2.133 3.867-5.201 8.066-7.217 14.187-9.125 3.257-1.02 6.268-2.068 9.352-3.543 4.764-1.84 9.214-2.329 14.273-2.769 0.911-0.099 1.823-0.198 2.762-0.299 6.059-0.564 12.125-1.002 16.738 3.611z"/>
<path transform="translate(1990,562)" d="m0 0c2.312 2.25 2.312 2.25 4 5 0.722 1.176 1.444 2.351 2.188 3.562 7.266 13.782 3.917 36.3 3.624 51.376-0.017 1.533-0.035 3.067-0.054 4.648-0.256 10.013-1.535 17.075-6.758 25.726-5.091 4.561-11.06 7.683-18.016 7.692-6.453-0.996-11.502-2.793-15.605-8.102-12.203-18.465-8.647-52.058-6.379-72.902 1.566-6.768 4.238-11.929 9-17 9.337-4.601 18.645-4.111 28 0z"/>
<path transform="translate(2476,562)" d="m0 0c5.234 5.234 6.753 12.384 7.438 19.625-0.145 1.114-0.289 2.227-0.438 3.375-4.068 2.712-7.856 2.411-12.594 2.52-0.471 0.013-0.471 0.013-2.858 0.08-1.993 0.052-3.987 0.1-5.981 0.143-3.056 0.069-6.11 0.165-9.165 0.263-1.936 0.048-3.872 0.094-5.808 0.139-0.458 0.015-0.458 0.015-2.775 0.094-2.274 0.037-4.55-0.089-6.819-0.239-3-3-3-3-3.625-7 0.212-7.213 4.986-13.059 9.641-18.246 7.96-7.036 23.943-4.522 32.984-0.754z"/>
<path transform="translate(2662,529)" d="m0 0c-0.188 2.25-0.188 2.25-1 5-0.423 0.278-0.423 0.278-2.562 1.688-2.873 2.725-2.866 3.487-3 7.312 0.171 3.345 0.295 4.638 2.312 7.375 0.742 0.536 1.485 1.072 2.25 1.625 2.312 2.062 2.312 2.062 4 4l-1 3c-3.597-0.289-5.56-0.634-8.371-2.969-3.556-4.356-5.534-6.871-6.004-12.593 1.614-5.209 3.867-9.27 7.375-13.438 2-1 2-1 6-1z"/>
<path transform="translate(2704,530)" d="m0 0c3.257 0.418 4.634 0.634 7 3 1.64 6.559 1.897 13.216-0.188 19.688-1.812 2.312-1.812 2.312-4.5 3.187-0.763 0.041-1.526 0.082-2.312 0.125 0.165-0.928 0.33-1.856 0.5-2.812 0.935-7.831 0.965-14.628-1.5-22.188l1-1z"/>
<path transform="translate(2690,524)" d="m0 0 1 2c-8.246 4.062-8.246 4.062-12.062 3.75-0.64-0.247-1.279-0.495-1.938-0.75l1-3c4.046-1.788 7.592-2.41 12-2z"/>
<path transform="translate(2692,558)" d="m0 0h4c-0.125 2.438-0.125 2.438-1 5-3.062 0.812-3.062 0.812-6 1 1.875-4.875 1.875-4.875 3-6z"/>
<path transform="translate(2690,536)" d="m0 0 4 2-1 4-4 1-1-4 2-3z"/>
<path transform="translate(2669,524)" d="m0 0 2 1z"/>
</svg>
