<?xml version="1.0" encoding="UTF-8"?>
<svg version="1.1" viewBox="0 0 2448 1112" xmlns="http://www.w3.org/2000/svg">
<path transform="translate(2096,265)" d="m0 0c0.472 0.01 0.472 0.01 2.859 0.059 10.038 0.233 19.575 0.605 29.141 3.941 6.97 2.308 13.624 3.266 20.938 3.812 7.354 0.575 12.759 2.059 19.121 5.805 4.653 2.188 9.413 2.41 14.496 2.766 4.013 0.719 6.19 2.215 9.445 4.617 3.72 1.86 5.685 2.311 9.688 2.75 5.521 0.829 8.638 2.565 13.031 5.875 2.668 1.608 4.767 1.969 7.843 2.375 4.089 0.545 6.337 1.347 9.5 4 3.731 2.842 4.696 3.378 9 4 5.382 0.788 7.856 3.438 11.938 7 1.485 0.33 2.97 0.66 4.5 1 5.342 1.187 7.433 3.451 11.5 7l4 1c4 1 4 1 7.375 3.938 3.935 3.324 6.569 4.055 11.414 5.285 3.107 1.092 4.226 3.216 6.211 5.777 1.444 0.474 2.887 0.949 4.375 1.438 5.11 1.726 6.958 3.736 10.625 7.562 2.316 1.038 4.649 2.042 7 3 0.619 0.66 1.238 1.32 1.875 2 2.125 2 2.125 2 6.625 3.375 5.155 1.862 5.711 3.162 8.5 7.625 2.303 1.069 4.637 2.072 7 3 0.619 0.639 1.238 1.279 1.875 1.938 2.125 2.062 2.125 2.062 6.625 4 4.459 2.043 5.71 3.275 8.5 7.062 0.412 0.165 0.412 0.165 2.5 1 2.5 1 2.5 1 4.438 3.438 2.413 2.998 4.636 3.884 8.062 5.562 1.688 1.645 3.354 3.313 5 5 2.331 1.67 4.664 3.338 7 5 2.376 4.752 0.025 10.923-1.5 15.688-0.247 0.711-0.247 0.711-1.5 4.312-0.783 3.998-1.19 7.928-1.43 11.992-0.073 1.118-0.147 2.235-0.222 3.387-0.148 2.322-0.289 4.645-0.422 6.969-0.534 7.856-2.169 13.941-5.555 21.093-2.141 5.557-2.212 11.189-2.648 17.086-0.783 4.847-2.339 8.207-4.723 12.473-1.984 3.968-2.344 6.233-2.75 10.562-0.803 6.266-2.611 10.387-5.875 15.715-1.537 3.044-1.97 5.536-2.375 8.911-0.524 4.246-1.226 6.607-4 9.874-3.361 4.412-3.785 7.06-4.508 12.383-0.674 3.501-2.287 5.799-4.492 8.555-1.997 2.995-2.535 4.862-3.312 8.312-1.305 5.058-3.296 7.702-6.688 11.688-0.812 2.371-0.812 2.371-1.5 5-1.247 4.728-3.267 7.294-6.5 11-0.754 1.541-1.461 3.106-2.125 4.688-1.875 4.312-1.875 4.312-4.875 7.312-0.992 2.559-0.992 2.559-1.875 5.438-1.627 4.768-3.133 6.491-7.125 9.562-0.474 1.423-0.949 2.846-1.438 4.312-1.717 5.153-3.909 7.737-7.562 11.688-1.36 1.982-2.698 3.98-4 6-0.495 0.66-0.495 0.66-3 4-0.227 0.66-0.227 0.66-1.375 4-1.742 4.289-3.04 5.311-6.625 8l-1.5 3c-1.5 3-1.5 3-3.875 4.812-2.997 2.498-4.387 5.2-6.18 8.622-4.572 8.119-10.784 16.881-18.133 22.691-2.312 1.875-2.312 1.875-3.812 4.375-1.756 2.927-3.85 4.38-6.5 6.5-1.019 1.655-2.018 3.323-3 5-1.664 1.67-3.331 3.336-5 5-1.808 2.09-3.599 4.195-5.375 6.312-11.638 13.66-23.908 27.234-37.563 38.907-2.396 2.07-4.725 4.206-7.062 6.343-2.933 2.651-5.873 5.167-9.062 7.5-5.69 4.245-10.92 8.92-15.938 13.938-0.392 0.309-0.392 0.309-2.375 1.875-3.581 2.899-6.71 6.159-9.875 9.5-5.922 5.652-12.336 10.049-19.395 14.152-3.432 2.146-6.355 4.767-9.355 7.473-0.887 0.701-1.774 1.403-2.688 2.125-2.312 1.875-2.312 1.875-4.312 3.937-2.174 2.107-4.393 3.412-7 4.938-0.804 0.66-1.609 1.32-2.438 2-2.562 2-2.562 2-5.5 3.438-3.488 1.779-6.089 4.023-9.062 6.562-1.011 0.66-2.021 1.32-3.062 2-2.938 2-2.938 2-5.25 4.625-3.626 3.204-6.986 3.385-11.688 4.375-1.299 0.825-2.599 1.65-3.938 2.5-4.505 2.722-8.604 3.012-13.812 3.438-5.979 0.504-10.439 1.265-15.75 4.062-6.604 3.466-12.862 3.992-20.238 4.48-6.467 0.789-11.06 2.619-16.262 6.52-2.75-0.312-2.75-0.312-5-1l1-3c1.279-0.454 2.557-0.908 3.875-1.375 4.58-1.804 4.924-2.523 7.125-6.625 1.959-1.393 3.964-2.722 6-4 2.011-1.653 4.01-3.322 6-5 4.872-3.897 9.808-7.539 15-11 2.017-1.646 4.017-3.313 6-5 0.866-0.681 1.733-1.361 2.625-2.062 2.289-1.868 4.32-3.819 6.375-5.938 3.813-3.916 7.852-7.444 12-11 2.876-2.736 5.44-5.522 8-8.562 2.552-2.925 4.949-5.091 8-7.438 3.684-3.49 6.985-7.252 10.305-11.082 2.894-3.275 6.028-6.285 9.195-9.293 2.5-2.625 2.5-2.625 5-6.125 2.301-3.221 4.713-5.713 7.5-8.5 3.229-4.123 6.213-8.297 9.062-12.688 2.938-4.46 6.393-7.889 10.313-11.5 3.688-3.95 6.606-8.341 9.625-12.812 0.382-0.547 0.382-0.547 2.312-3.312 1.688-2.688 1.688-2.688 2.626-5.313 1.062-2.375 1.062-2.375 3.5-4.313 2.562-2.062 2.562-2.062 4.062-5.062s1.5-3 4-4.812c2.5-2.188 2.5-2.188 3.938-6.5 1.717-5.153 3.909-7.737 7.562-11.688 1.36-1.982 2.698-3.98 4-6 0.99-1.32 1.98-2.64 3-4 0.454-1.485 0.907-2.97 1.375-4.5 1.625-4.5 1.625-4.5 4.063-6.375 3.53-2.928 4.185-6.152 5.472-10.469 1.235-3.01 2.807-4.377 5.09-6.656 1.379-2.91 1.379-2.91 2.562-6.062 1.509-4.001 2.352-5.852 5.438-8.938 1.027-2.523 1.027-2.523 1.938-5.375 1.128-3.295 1.927-5.458 4.124-8.187 2.041-2.568 2.542-4.189 3.376-7.313 0.984-3.651 1.763-5.402 4.062-8.563 2.817-4.014 3.569-7.308 4.684-12.007 0.816-2.555 0.816-2.555 3.378-5.493 3.166-3.976 3.267-7.27 3.911-12.214 0.678-3.661 2.183-5.991 4.527-8.848 2.161-3.242 2.435-5.011 2.938-8.812 0.868-5.631 2.358-9.715 5.601-14.422 1.733-3.28 2.037-5.897 2.399-9.578 0.745-5.986 2.003-10.026 5.062-15.188 2.242-4.484 2.43-7.587 2.812-12.562 0.683-6.845 1.827-12.217 5.067-18.274 1.919-3.704 2.271-7.304 2.48-11.391 0.709-11.838 1.877-22.595 5.52-33.933 2.748-9.412 3.544-20.148 2.121-29.84-2.464-3.473-5.252-5.094-9-7-0.887-0.722-1.774-1.444-2.688-2.188-3.452-2.706-7.141-5.047-10.812-7.445-0.887-0.595-1.774-1.191-2.688-1.805-0.839-0.555-1.678-1.111-2.542-1.683-2.485-2.057-3.643-4.126-5.27-6.879-1.996-0.679-3.996-1.346-6-2-0.619-0.784-1.238-1.567-1.875-2.375-2.827-3.493-6.114-4.682-10.125-6.625l-4-4c-1.155-0.474-2.31-0.949-3.5-1.438-3.891-1.737-4.919-3.277-7.5-6.562-2.641-1.707-5.307-3.376-8-5l-3-3c-0.65-0.227-0.65-0.227-3.938-1.375-4.4-1.76-5.25-3.022-8.062-6.625-2.65-1.366-5.317-2.7-8-4-0.639-0.681-1.279-1.361-1.938-2.062-2.062-1.938-2.062-1.938-6.562-3.376-4.89-1.697-5.439-2.736-8.5-6.562-2.996-1.013-5.996-2.012-9-3l-5-5c-2.534-1.138-5.105-2.078-7.715-3.027-2.741-1.167-4.198-2.886-6.285-4.973-1.258-0.289-2.516-0.577-3.812-0.875-4.188-1.125-4.188-1.125-7.626-4.125-4.207-3.543-7.256-3.837-12.562-5-1.94-1.495-3.879-2.993-5.766-4.555-3.53-2.283-7.351-2.809-11.422-3.664-2.812-0.781-2.812-0.781-6.374-3.343-4.051-2.872-7.037-3.218-11.852-3.911-3.496-0.713-5.8-2.353-8.586-4.527-4.108-2.054-7.241-2.652-11.75-3.375-6.229-1.109-10.786-2.545-16.25-5.625-2.316-0.724-4.646-1.411-7-2v-3h-8l-1 3-8-1v-4c6.591-1.898 12.888-2.494 19.688-2.938 12.742-0.93 12.742-0.93 18.687-2.562 17.717-4.641 37.43-3.934 55.625-3.5z" fill="#E16419"/>
<path transform="translate(787.28 472.81)" d="m0 0c2.642-2e-3 5.284-0.02 7.926-0.039 1.689-3e-3 3.379-5e-3 5.068-6e-3 0.765-2e-3 0.765-2e-3 4.633-0.013 4.937 0.294 8.556 0.922 12.34 4.181 2.803 2.102 4.477 2.612 7.813 3.437 3.877 1.044 4.691 1.306 7.25 4.625 0.556 0.99 1.113 1.98 1.687 3 0.866 0.495 1.733 0.99 2.625 1.5 2.375 1.5 2.375 1.5 3.078 4.508 0.428 0.988 0.856 1.975 1.297 2.992 3.258 1.024 3.258 1.024 7.125 1.375 0.641 0.066 0.641 0.066 3.883 0.399 0.987 0.075 1.975 0.149 2.992 0.226 0.268-1.093 0.536-2.186 0.813-3.312 1.357-4.216 2.86-5.924 6.687-8.125 2.5-1.563 2.5-1.563 5.5-5.563 2.488-0.871 2.488-0.871 5.313-1.437 5.071-1.208 7.759-3.092 11.687-6.563 7.353-1.793 15.15-1.186 22.676-1.185 2.684-2e-3 5.367-0.02 8.051-0.039 1.724-3e-3 3.448-5e-3 5.171-6e-3 1.554-4e-3 3.108-8e-3 4.709-0.013 7.978 0.442 12.431 2.042 18.393 7.243 0.536 0.207 0.536 0.207 3.25 1.25 11.166 5.211 19.194 15.597 23.75 26.75 0.518 0.95 1.037 1.899 1.571 2.878 1.546 3.379 1.915 5.829 2.107 9.524 0.065 1.232 0.129 2.464 0.195 3.733 0.213 6.48 0.274 12.953 0.272 19.436 2e-3 0.744 2e-3 0.744 0.01 4.509 8e-3 4.034 0.012 8.069 0.012 12.103 1e-3 2.525 3e-3 5.049 6e-3 7.574 9e-3 8.816 0.013 17.632 0.012 26.448 0 8.209 0.01 16.417 0.026 24.625 0.013 7.067 0.019 14.134 0.018 21.201 0 4.213 2e-3 8.426 0.013 12.639 0.01 4.685 7e-3 9.369 1e-3 14.053 6e-3 1.395 0.011 2.789 0.017 4.226-2e-3 0.636-2e-3 0.636-0.013 3.856 1e-3 1.106 1e-3 2.213 2e-3 3.353-0.249 2.842-0.249 2.842-2.249 6.842-4.19 1.147-8.366 1.131-12.692 1.146-1.311 6e-3 -2.623 0.012-3.974 0.019-1.403 1e-3 -2.806 2e-3 -4.252 3e-3 -0.725 2e-3 -0.725 2e-3 -4.392 0.01-3.059 5e-3 -6.117 8e-3 -9.176 8e-3 -4.694 2e-3 -9.388 0.02-14.082 0.039-2.971 3e-3 -5.942 5e-3 -8.912 6e-3 -1.41 7e-3 -2.819 0.014-4.271 0.022-0.651-2e-3 -0.651-2e-3 -3.945-0.01-1.148 2e-3 -2.295 3e-3 -3.478 5e-3 -2.826-0.248-2.826-0.248-5.826-2.248-1.068-3.203-1.125-5.484-1.125-8.852-2e-3 -1.221-5e-3 -2.442-7e-3 -3.701 2e-3 -1.342 4e-3 -2.683 6e-3 -4.066-1e-3 -0.706-1e-3 -0.706-6e-3 -4.277-4e-3 -3.071-6e-3 -6.142-6e-3 -9.213-4e-3 -7.353-0.03-14.706-0.053-22.059-0.035-11.298-0.062-22.596-0.059-33.895 1e-3 -8.433-0.023-16.865-0.062-25.297-0.011-3.222-0.012-6.444-5e-3 -9.667 0.01-4.494-0.011-8.988-0.039-13.483 0.01-1.344 0.02-2.688 0.03-4.072-6e-3 -0.61-6e-3 -0.61-0.041-3.693-2e-3 -1.063-3e-3 -2.127-5e-3 -3.222-0.207-0.826-0.414-1.652-0.628-2.503-2.375-1.162-2.375-1.162-5-2-0.866-1.031-1.732-2.062-2.625-3.125-4.2-3.578-6.481-3.583-11.828-3.265-3.206 0.491-5.046 1.318-7.547 3.39-0.949 0.702-1.897 1.403-2.875 2.125-5.326 4.9-10.336 9.553-11.026 17.074-0.047 1.903-0.057 3.807-0.035 5.711-0.015 1.04-0.03 2.081-0.046 3.153-0.04 3.313-0.031 6.624-0.018 9.937-0.014 2.129-0.03 4.257-0.048 6.385-0.036 5.519-0.025 11.037 3e-3 16.557 0.018 3.611 0.028 7.223 0.036 10.835 0.025 10.247 0.061 20.493 0.105 30.74 0.027 6.317 0.044 12.634 0.055 18.951 6e-3 2.394 0.016 4.787 0.03 7.18 0.019 3.326 0.026 6.651 0.03 9.976 9e-3 0.982 0.018 1.965 0.027 2.977-0.014 9.273-0.014 9.273-2.238 12.399-4.158 1.234-8.374 1.131-12.692 1.146-1.311 6e-3 -2.623 0.012-3.974 0.019-1.403 1e-3 -2.806 2e-3 -4.252 3e-3 -0.725 2e-3 -0.725 2e-3 -4.392 0.01-3.059 5e-3 -6.117 8e-3 -9.176 8e-3 -4.694 2e-3 -9.388 0.02-14.082 0.039-2.971 3e-3 -5.942 5e-3 -8.912 6e-3 -1.41 7e-3 -2.819 0.014-4.271 0.022-0.651-2e-3 -0.651-2e-3 -3.945-0.01-1.148 2e-3 -2.295 3e-3 -3.478 5e-3 -2.826-0.248-2.826-0.248-5.826-2.248-0.896-3.582-1.118-6.179-1.104-9.824 1e-3 -0.596 1e-3 -0.596 5e-3 -3.607 3e-3 -0.651 3e-3 -0.651 0.021-3.947 6e-3 -2.848 0.012-5.697 0.017-8.545 5e-3 -1.513 0.01-3.025 0.015-4.583 0.019-7.994 4e-3 -15.987-7e-3 -23.98-0.012-10.179-0.014-20.358 0.029-30.536 0.035-8.22 0.028-16.44-4e-3 -24.659-5e-3 -3.135 5e-3 -6.269 0.029-9.403 0.031-4.384 0.013-8.765-0.017-13.149 0.021-1.297 0.042-2.593 0.064-3.929-0.13-8.65-0.13-8.65-2.824-12.135-2.16-1.876-2.16-1.876-6.224-4.703l-2-3c-3.957-0.468-3.957-0.468-8.812-0.5-1.595-0.031-3.19-0.062-4.832-0.093-4.999 0.681-6.294 1.713-9.356 5.593-1.296 1.37-2.62 2.715-4 4h-2c-0.851 3.691-1.129 7.105-1.138 10.89-5e-3 1.179-0.011 2.358-0.017 3.573-1e-3 1.284-2e-3 2.569-3e-3 3.893-5e-3 1.36-0.01 2.72-0.015 4.121-0.011 2.952-0.019 5.905-0.026 8.857-0.012 4.669-0.031 9.337-0.053 14.005-0.062 13.273-0.116 26.547-0.149 39.82-0.021 8.117-0.056 16.234-0.101 24.351-0.014 3.098-0.023 6.195-0.026 9.293-5e-3 4.324-0.028 8.647-0.055 12.971 1e-3 0.643 1e-3 0.643 9e-3 3.9-6e-3 0.588-6e-3 0.588-0.034 3.564-3e-3 1.022-7e-3 2.044-0.01 3.098-0.382 2.664-0.382 2.664-3.382 6.664-3.081 0.464-3.081 0.464-6.918 0.41-1.435-0.01-2.87-0.021-4.348-0.032-0.777-0.017-0.777-0.017-4.707-0.1-1.589-0.021-3.178-0.042-4.815-0.063-3.364-0.049-6.727-0.105-10.09-0.175-4.317-0.089-8.633-0.147-12.95-0.195-4.111-0.049-8.222-0.121-12.332-0.192-0.778-0.01-0.778-0.01-4.713-0.058-1.431-0.032-2.863-0.065-4.338-0.099-1.266-0.023-2.531-0.046-3.835-0.07-0.975-0.141-1.95-0.281-2.954-0.426-2.626-3.938-2.254-6.357-2.261-11.085-3e-3 -0.833-7e-3 -1.667-0.011-2.526-0.011-2.803-7e-3 -5.605-3e-3 -8.408-4e-3 -2.006-9e-3 -4.011-0.015-6.016-0.014-5.455-0.014-10.909-0.012-16.364 2e-3 -4.548-3e-3 -9.096-8e-3 -13.644-0.011-10.725-0.012-21.451-6e-3 -32.176 6e-3 -11.079-6e-3 -22.157-0.027-33.236-0.018-9.5-0.024-19.001-0.021-28.502 2e-3 -5.679 0-11.358-0.014-17.037-0.013-5.339-0.011-10.677 2e-3 -16.015 3e-3 -1.963 0-3.926-8e-3 -5.889-0.011-2.672-3e-3 -5.344 0.01-8.016 0-1.498-1e-3 -2.996-1e-3 -4.539 0.375-3.547 0.375-3.547 3.375-6.547 2.764-0.387 2.764-0.387 6.152-0.404 0.634-6e-3 0.634-6e-3 3.843-0.038 1.372 3e-3 2.744 6e-3 4.157 9e-3 1.407-6e-3 2.814-0.011 4.263-0.016 2.979-7e-3 5.957-5e-3 8.935 3e-3 4.566 9e-3 9.13-0.02 13.695-0.052 2.89-1e-3 5.78-1e-3 8.67 2e-3 1.37-0.011 2.74-0.022 4.151-0.034 1.271 0.01 2.543 0.019 3.853 0.029h3.391c3.577 0.62 4.727 1.628 6.89 4.501 1 4 1 4 0 8-0.067 1.916-0.085 3.834-0.062 5.75 9e-3 0.985 0.018 1.97 0.027 2.985 0.011 0.747 0.023 1.495 0.035 2.265 3.008 0.485 3.008 0.485 7 0 3.001-2.229 5.394-4.966 7.875-7.75 5.36-5.96 9.619-9.328 17.125-12.25 1.67-1.328 3.338-2.661 5-4 6.8-1.948 14.262-1.186 21.283-1.185z" fill="#001964"/>
<path transform="translate(3,404)" d="m0 0c118 0 118 0 140 4 8.438 0.625 8.438 0.625 11.809 0.727 4.701 0.402 8.8 0.879 12.222 4.308 3.276 3.269 7.445 3.235 11.875 3.961 3.789 1.23 4.723 2.898 7.094 6.004 2.402 0.934 2.402 0.934 4.938 1.438 5.065 1.299 6.953 3.298 10.062 7.562 1.659 1.012 3.326 2.013 5 3 1.354 1.65 2.687 3.317 4 5 0.782 0.615 1.565 1.23 2.371 1.863 6.674 5.425 10.979 12.446 14.629 20.137l2 2.5c2.587 3.234 4.152 6.804 6 10.5l3 3c0.773 2.891 0.773 2.891 1.375 6.25 1.185 5.675 2.995 9.165 6.625 13.75 1.209 4.258 1.239 8.597 1.438 13 0.273 5.193 0.683 10.2 1.624 15.312 1.662 9.908 2.187 21.129-0.019 30.946-1.595 7.252-1.785 14.567-2.166 21.969-0.467 7.531-1.75 12.944-5.439 19.585-1.318 2.921-1.779 5.007-2.25 8.126-0.956 5.381-3.512 8.019-7.188 12.062-0.983 2.187-1.964 4.376-2.875 6.594-3.079 6.585-7.299 12.078-13.125 16.406l-2 4c-2 1.333-4 2.667-6 4l-2 4-6 3c-0.577 0.804-1.155 1.609-1.75 2.438-2.902 3.304-5.792 4.128-9.91 5.472-2.34 1.09-2.34 1.09-5.34 5.09-2.488 0.871-2.488 0.871-5.312 1.438-5.043 1.204-7.849 3.004-11.688 6.562-4.207 1.052-8.182 1.42-12.5 1.812-5.438 0.571-10.235 1.222-15.312 3.25-43.008 13.468-90.123 2.355-135.19 1.938v-281zm84 64c-1.044 3.657-1.128 7.156-1.134 10.945-4e-3 1.192-8e-3 2.383-0.013 3.611 1e-3 1.299 1e-3 2.598 2e-3 3.936-4e-3 1.374-7e-3 2.749-0.01 4.165-0.01 4.549-0.012 9.098-0.013 13.648-3e-3 3.159-7e-3 6.319-0.01 9.479-6e-3 6.626-8e-3 13.252-7e-3 19.878 0 7.651-0.01 15.301-0.026 22.952-0.015 7.369-0.018 14.738-0.018 22.107-1e-3 3.131-5e-3 6.263-0.013 9.394-0.01 4.378-7e-3 8.756-1e-3 13.135-6e-3 1.294-0.011 2.589-0.017 3.923 0.051 14.618 0.051 14.618 4.26 18.827 4.064 0.46 8.163 0.324 12.25 0.312 1.133 0.017 2.266 0.033 3.434 0.049 5.84 4e-3 10.309 1e-3 15.316-3.361 3-2 3-2 7.312-2.688 5.67-1.587 7.156-3.737 10.688-8.312 0.866-0.495 1.733-0.99 2.625-1.5 3.361-2.123 4.474-5.066 6.375-8.5l4-3c0.871-2.672 0.871-2.672 1.438-5.75 1.188-5.435 3.079-8.85 6.562-13.25 4.45-17.799 7.356-54.843-2-71-0.99-1.32-1.98-2.64-3-4-0.821-3.285-1.387-6.57-1.961-9.906-1.264-3.765-2.852-4.834-6.039-7.094-0.66-1.031-1.32-2.062-2-3.125-2.249-3.233-3.479-3.485-7-4.875-0.681-1.661-1.347-3.328-2-5-2.887-2.293-5.212-3.052-8.812-3.938-4.188-1.062-4.188-1.062-7.649-3.097-5.944-2.573-10.952-2.554-17.351-2.465-1.132-0.015-2.263-0.031-3.428-0.047-0.541 3e-3 -0.541 3e-3 -3.28 0.016-0.49 2e-3 -0.49 2e-3 -2.971 0.013-2.509 0.518-2.509 0.518-5.509 4.518z" fill="#001964"/>
<path transform="translate(1354.4 400.73)" d="m0 0c1.04-2e-3 2.08-4e-3 3.151-6e-3 2.18-1e-3 4.361 2e-3 6.542 0.011 3.3 0.011 6.599 0 9.899-0.013 28.456-0.025 28.456-0.025 36.974 6.274 3.622 0.836 3.622 0.836 7.438 1.375 6.825 1.215 9.778 2.738 14.562 7.625 1.032 0.515 2.063 1.031 3.125 1.562 3.375 1.687 5.272 3.71 7.875 6.438 1.326 1.155 2.66 2.3 4 3.437 3.38 2.931 6.319 5.96 9 9.563v2l4 2c1.551 1.97 3.096 3.947 4.547 5.992 1.453 2.008 1.453 2.008 3.703 4.445 1.75 2.563 1.75 2.563 2.688 7 1.062 4.563 1.062 4.563 3.539 7.324 3.099 3.977 3.393 6.639 3.961 11.614 1.111 7.971 3.243 14.713 6.453 22.074 1.255 4.017 1.149 6.498 0.109 10.551-3.491 1.745-7.558 1.224-11.406 1.281-0.953 0.018-1.906 0.037-2.889 0.056-3.068 0.059-6.136 0.111-9.205 0.163-40.138 0.693-40.138 0.693-46.5 3.5-3.187 0.187-3.187 0.187-6-1-0.996-3.139-1.564-5.777-2-9-1.097-6.728-2.764-11.91-6-18-0.474-1.568-0.948-3.135-1.437-4.75-2.871-7.396-9.283-12.673-15.563-17.25-5.35-2.118-10.278-2.27-16-2.25-1.526-6e-3 -3.052-0.011-4.625-0.016-5.823 0.354-9.941 0.73-14 5.078-0.783 1.052-1.567 2.104-2.375 3.188-2.514 2.576-5.082 5.078-7.687 7.562-3.715 3.916-4.552 7.314-5.125 12.5-0.8 5.742-2.397 10.278-5.066 15.402-2.102 4.753-2.248 9.628-2.267 14.765-6e-3 1.212-0.013 2.424-0.019 3.672-1e-3 1.297-2e-3 2.594-4e-3 3.931-3e-3 1.346-6e-3 2.692-0.01 4.079-5e-3 2.846-7e-3 5.691-7e-3 8.536-2e-3 4.339-0.02 8.677-0.039 13.016-3e-3 2.768-5e-3 5.537-6e-3 8.306-4e-3 0.646-4e-3 0.646-0.022 3.912 0.021 8.35 0.303 15.602 4.252 23.131 1.85 3.873 2.347 6.158 2.813 10.313 0.671 4.935 0.969 5.66 4.75 9.375 1.134 0.825 2.269 1.65 3.437 2.5l1 4c0.908 0.288 1.815 0.577 2.75 0.875 3.25 1.125 3.25 1.125 5.106 4.136 4.949 4.704 10.118 4.01 16.707 3.926 1.264-7e-3 2.529-0.013 3.832-0.02 8.52-0.281 14.262-1.446 20.574-7.558 0.67-0.779 1.341-1.557 2.031-2.359 0.712-0.657 1.424-1.313 2.157-1.989 2.059-2.247 2.854-4.082 3.843-6.949 1.056-3.05 1.892-4.94 4.059-7.371 2.591-3.592 2.653-6.434 3.004-10.816 0.617-7.555 0.617-7.555 3.937-10.875 3.649 0.257 3.649 0.257 8 1 2.875 0.296 5.75 0.588 8.625 0.875 7.048 0.717 14.052 1.618 21.063 2.625 9.246 1.324 18.493 2.185 27.809 2.853 7.405 0.548 7.405 0.548 8.503 1.647 0.651 6.074-0.531 9.029-3.711 14.109-1.755 3.936-2.15 7.753-2.726 12.016-1.082 7.569-2.285 10.597-7.563 15.875-0.679 2.997-1.347 5.997-2 9-2.375 2.187-2.375 2.187-5 4-1.354 1.986-2.684 3.988-4 6-5.011 6.309-10.671 12.483-17.687 16.562-2.313 1.438-2.313 1.438-4.688 4.5-3.132 3.505-5.164 3.764-9.625 4.938-0.866 0.804-1.732 1.608-2.625 2.437-4.289 3.257-8.124 3.777-13.336 4.813-3.626 0.895-5.961 2.675-9.039 4.75-7.44 2.015-14.927 2.296-22.589 2.265-1.066 2e-3 -2.132 4e-3 -3.23 6e-3 -2.238 1e-3 -4.476-2e-3 -6.714-0.011-3.392-0.01-6.783 0-10.176 0.013-2.189-1e-3 -4.378-4e-3 -6.568-8e-3 -0.997 4e-3 -1.994 8e-3 -3.022 0.013-18.761-0.123-18.761-0.123-25.701-6.278-3.523-0.836-3.523-0.836-7.375-1.375-6.569-1.161-9.838-2.839-14.625-7.625-2.331-1.005-4.664-2.006-7-3-1.707-1.625-3.375-3.293-5-5-0.926-0.617-1.853-1.233-2.808-1.868-8.52-5.694-14.82-12.485-20.192-21.132-1.314-1.352-2.643-2.691-4-4-1-1.667-2-3.334-3-5-0.661-0.591-1.322-1.181-2.004-1.789-3-3.324-3.204-6.835-3.992-11.141-1.004-3.07-1.004-3.07-3.504-5.867-3.252-4.168-3.469-7.361-4.062-12.578-0.786-6.8-2.23-11.592-5.438-17.625-6.095-21.915-5.918-59.067 3-80 1.785-4.647 2.348-8.861 2.75-13.813 0.724-6.341 1.872-10.084 5.801-15.031 2.216-3.296 2.846-6.82 3.613-10.676 1.018-3.018 2.543-4.315 4.836-6.48 0.64-1.3 1.279-2.599 1.938-3.938 2.029-3.997 3.902-5.977 7.062-9.062 1.481-1.774 2.939-3.566 4.375-5.375 5.332-6.56 9.93-11.863 17.625-15.625 0.619-0.805 1.238-1.609 1.875-2.438 2.849-3.436 6.126-4.655 10.125-6.562 0.383-0.335 0.383-0.335 2.321-2.028 3.227-2.376 5.683-2.823 9.617-3.472 5.403-1.025 8.513-2.434 13.062-5.5 7.732-1.907 15.506-2.299 23.434-2.266z" fill="#001964"/>
<path transform="translate(1604.5 472.83)" d="m0 0c1.263-3e-3 2.526-7e-3 3.828-0.01 2.657-5e-3 5.314-7e-3 7.972-7e-3 4.033-3e-3 8.066-0.021 12.098-0.04 2.597-3e-3 5.193-5e-3 7.79-5e-3 1.188-8e-3 2.377-0.015 3.602-0.022 11.079 0.03 20.992 0.696 30.769 6.15 4.035 1.839 8.021 1.805 12.418 2.102 4 2 4 2 6.312 4.437 2.688 2.563 2.688 2.563 5.875 3.75 7.316 3.479 13.279 9.415 16.125 17.063 0.271 0.83 0.541 1.66 0.82 2.516 0.868 2.234 0.868 2.234 3.555 5.234 5.203 6.749 3.458 18.505 3.454 26.736 4e-3 1.341 7e-3 2.683 0.011 4.064 7e-3 2.898 0.013 5.796 0.016 8.694 7e-3 4.591 0.023 9.181 0.042 13.772 0.052 13.047 0.1 26.094 0.115 39.142 0.011 7.993 0.04 15.986 0.082 23.979 0.012 3.04 0.017 6.079 0.015 9.119-2e-3 4.253 0.02 8.505 0.048 12.758-7e-3 1.248-0.014 2.496-0.02 3.782 0.099 9.354 2.366 15.586 6.55 23.954-0.063 2.687-0.063 2.687-1 5-3.859 1.143-7.668 1.138-11.671 1.161-0.666 5e-3 -0.666 5e-3 -4.034 0.029-1.431 4e-3 -2.861 9e-3 -4.334 0.013-1.473 6e-3 -2.946 0.011-4.464 0.017-3.112 0.01-6.224 0.016-9.335 0.02-4.776 0.01-9.551 0.041-14.327 0.072-3.02 7e-3 -6.041 0.012-9.062 0.016-0.717 6e-3 -0.717 6e-3 -4.347 0.038-0.662-2e-3 -0.662-2e-3 -4.015-0.01-1.168 4e-3 -2.337 8e-3 -3.541 0.011-2.87-0.367-2.87-0.367-5.87-3.367-1.231-2.461-1.206-4.258-1.317-7.008-0.021-0.493-0.021-0.493-0.127-2.988-0.039-1.033-0.078-2.065-0.119-3.129-0.043-1.04-0.086-2.081-0.131-3.152-0.106-2.574-0.207-5.149-0.306-7.723-2.666-0.09-5.335-0.087-8 0-1.188 2.125-1.188 2.125-2 5-3.623 5.114-7.657 7.811-13 11l-3 3c-2.27 1.027-2.27 1.027-4.813 1.937-4.16 1.573-7.495 3.573-11.187 6.063-5.044 1.282-10.098 1.162-15.27 1.168-0.995 3e-3 -1.99 7e-3 -3.015 0.01-2.102 5e-3 -4.204 7e-3 -6.307 7e-3 -3.199 2e-3 -6.398 0.021-9.598 0.04-2.047 3e-3 -4.095 4e-3 -6.142 5e-3 -0.95 8e-3 -1.899 0.015-2.877 0.022-13.454-0.046-13.454-0.046-17.952-4.291-0.607-0.647-1.214-1.294-1.839-1.961-2.622-0.836-2.622-0.836-5.438-1.375-5.334-1.289-7.348-3.087-10.562-7.625-0.867-0.516-1.733-1.031-2.625-1.563-2.887-1.747-3.688-3.555-5.375-6.437-0.413-0.268-0.413-0.268-2.5-1.625-3.377-3.207-3.709-6.298-4.747-10.742-0.924-3.229-2.432-5.235-4.753-7.633-3-6-2.201-14.457-2-21 0.016-0.996 0.033-1.993 0.05-3.02 0.313-7.11 1.843-11.016 5.95-16.98 0.495-1.568 0.99-3.135 1.5-4.75 1.619-4.59 2.627-5.576 6.5-8.25 1.687-1.983 3.353-3.983 5-6 3.66-3.949 7.626-6.876 12-10 0.763-0.887 1.526-1.774 2.312-2.688 3.376-2.904 5.947-3.055 10.25-3.714 3.629-0.89 5.777-3.068 8.438-5.598 3.341-1.114 6.37-1.386 9.875-1.75 6.465-0.813 11.829-2.41 17.734-5.129 7.618-2.519 15.933-2.203 23.891-2.516 0.849-0.034 1.697-0.068 2.572-0.103 0.862-0.035 1.723-0.07 2.611-0.106 0.873-0.035 1.745-0.07 2.644-0.106 1.796-0.069 3.592-0.132 5.388-0.189 2.617-0.085 5.231-0.194 7.847-0.308 1.548-0.057 3.096-0.113 4.691-0.171 3.747-0.622 3.747-0.622 6.747-4.622 0.398-3.496 0.398-3.496 0.375-7.438 7e-3 -1.298 0.015-2.596 0.023-3.933-0.695-6.326-4.11-10.179-8.875-14.189-5.025-2.867-10.449-2.402-16.086-2.253-0.596-9e-3 -0.596-9e-3 -3.615-0.056-5.856 0.062-8.946 0.259-13.85 3.67-0.981 1.055-1.962 2.111-2.972 3.199-0.885 0.655-1.769 1.31-2.68 1.984-2.812 2.443-4.452 5.128-6.445 8.266-4.049 5.464-4.049 5.464-7.34 6.602-2.951 0.026-5.627-0.349-8.535-0.852-1.243-0.128-2.486-0.255-3.766-0.387-6.317-0.664-12.44-1.607-18.609-3.113-8.202-1.902-16.533-2.285-24.916-2.766-0.548-0.034-0.548-0.034-3.319-0.207-0.989-0.054-1.979-0.108-2.999-0.164-2.391-0.363-2.391-0.363-4.391-2.363-0.672-3.654-0.669-6.019 1.461-9.145 1.259-1.516 2.527-3.025 3.804-4.527 2.548-3.42 3.412-7.302 4.735-11.328 2.937-3.813 2.937-3.813 6-7 0.618-0.66 1.237-1.32 1.875-2 0.701-0.66 1.402-1.32 2.125-2 0.563-0.558 1.126-1.116 1.707-1.691 4.819-4.554 8.924-6.246 15.293-8.309 1.113-1.031 2.227-2.063 3.375-3.125 4.329-3.433 6.37-3.295 11.668-3.469 4.453-0.612 7.836-2.728 11.644-5.031 8.401-3.487 18.853-2.535 27.836-2.543zm23.637 114.14c-3.713 2.377-6.109 2.568-10.473 2.835-6.489 0.706-9.985 2.085-14.762 6.465-1.925 1.723-1.925 1.723-5.738 3.66-5.226 3.382-6.722 8.202-8.187 14.063-0.504 6.869-0.672 12.96 3 19 4.169 4.796 6.951 7.825 13.437 8.379 16.662 0.719 16.662 0.719 22.5-4.067 1.387-1.406 2.745-2.841 4.063-4.312 1.134-0.887 2.268-1.774 3.437-2.688 3.847-3.471 5.311-6.307 6.563-11.312 0.231-5.185 0.185-10.373 0.187-15.563 0.012-1.435 0.025-2.87 0.037-4.349 2e-3 -1.371 4e-3 -2.742 6e-3 -4.154 4e-3 -1.258 8e-3 -2.516 0.012-3.811-0.242-3.123-0.242-3.123-2.242-6.123-7.841-0.807-7.841-0.807-11.84 1.977z" fill="#001964"/>
<path transform="translate(1099.5 472.83)" d="m0 0c1.263-3e-3 2.526-7e-3 3.828-0.01 2.657-5e-3 5.314-7e-3 7.972-7e-3 4.033-3e-3 8.066-0.021 12.098-0.04 2.597-3e-3 5.193-5e-3 7.79-5e-3 1.188-8e-3 2.377-0.015 3.602-0.022 11.079 0.03 20.992 0.696 30.769 6.15 4.035 1.839 8.021 1.805 12.418 2.102 4 2 4 2 6.312 4.375 2.688 2.625 2.688 2.625 6.063 4.437 4.554 2.749 7.289 6.114 10.625 10.188 0.526 0.567 0.526 0.567 3.187 3.437 3.258 4.127 4.85 7.69 6.813 12.563 0.518 1.05 1.037 2.1 1.571 3.182 1.689 4.513 1.985 8.643 2.103 13.4 0.033 0.951 0.066 1.901 0.1 2.88 0.365 11.719 0.394 23.446 0.425 35.17 0.012 4.15 0.031 8.299 0.053 12.449 0.061 11.78 0.116 23.559 0.149 35.339 0.021 7.249 0.056 14.497 0.101 21.745 0.014 2.749 0.023 5.498 0.026 8.247 5e-3 3.829 0.028 7.656 0.055 11.484-3e-3 1.128-6e-3 2.256-9e-3 3.418 0.063 5.969 0.613 10.28 3.426 15.686 0.75 2.875 0.75 2.875 1 5-1.877 1.877-5.078 1.213-7.584 1.269-1.412 0.033-2.823 0.065-4.278 0.099-1.538 0.03-3.077 0.059-4.662 0.089-1.567 0.03-3.135 0.061-4.75 0.092-3.324 0.061-6.647 0.119-9.972 0.173-4.263 0.072-8.525 0.167-12.788 0.267-4.059 0.09-8.118 0.152-12.177 0.218-0.768 0.02-0.768 0.02-4.65 0.119-0.709 9e-3 -0.709 9e-3 -4.297 0.052-1.252 0.024-2.503 0.047-3.793 0.072-3.049-0.45-3.049-0.45-6.049-4.45-0.433-2.565-0.433-2.565-0.512-5.422-0.036-1.025-0.071-2.05-0.108-3.105-0.022-1.064-0.045-2.127-0.068-3.223-0.034-1.079-0.068-2.158-0.103-3.27-0.083-2.659-0.148-5.32-0.209-7.98-3.875-0.25-3.875-0.25-8 0l-2 4c-2.049 1.875-4.162 3.681-6.313 5.437-3.277 2.687-6.426 5.291-9.363 8.348-3.134 2.986-6.157 3.205-10.324 4.215-2.355 1.636-4.691 3.3-7 5-5.101 1.362-10.281 1.162-15.524 1.168-1.019 3e-3 -2.039 7e-3 -3.089 0.01-2.154 5e-3 -4.307 7e-3 -6.461 7e-3 -3.283 2e-3 -6.565 0.021-9.848 0.04-2.097 3e-3 -4.193 4e-3 -6.289 5e-3 -0.977 8e-3 -1.953 0.015-2.959 0.022-5.277-0.017-9.824-0.36-14.83-2.252-0.599-0.66-1.197-1.32-1.813-2-2.96-2.706-5.874-2.622-9.719-3.238-4.104-1.267-5.969-4.43-8.468-7.762l-4-2c-1.344-1.993-2.676-3.994-4-6-0.846-0.598-1.692-1.196-2.563-1.813-3.499-3.14-4.043-6.762-5.437-11.187-1.287-1.703-2.611-3.379-4-5-1.548-6.192-1.185-12.392-1.188-18.75-0.012-1.346-0.024-2.692-0.037-4.078-0.015-10.175 0.242-17.338 7.225-25.172 0.536-1.093 1.072-2.186 1.625-3.313 1.375-2.687 1.375-2.687 4.375-3.687l2-4c3.813-5.022 7.635-8.307 12.914-11.586 2.086-1.414 2.086-1.414 4.523-4.164 3.255-2.858 5.832-3.077 10.063-3.5 2.5-0.75 2.5-0.75 4.75-3.219 3.765-3.466 6.709-3.475 11.75-4.031 7.089-0.892 13.259-2.372 19.75-5.414 7.536-2.518 15.868-2.178 23.75-2.516 0.848-0.036 1.697-0.073 2.572-0.111 7.177-0.307 7.177-0.307 10.643-0.433 2.616-0.097 5.231-0.212 7.847-0.331 1.548-0.061 3.096-0.123 4.691-0.187 3.747-0.508 3.747-0.508 6.747-3.508 1.568-5.988 2.3-14.16 0-20-1.648-0.713-3.318-1.374-5-2-1.386-1.623-2.727-3.287-4-5-7.519-3.759-20.869-2.076-29-1-4.944 2.164-7.738 4.765-11 9-0.613 0.654-1.225 1.307-1.856 1.98-2.853 3.07-5.105 6.371-7.144 10.02-1 1-1 1-5.5 1.187-10.123-0.105-20.223-1.323-30.063-3.687-7.7-1.803-15.475-2.244-23.352-2.678-1.001-0.065-2.003-0.13-3.035-0.197-0.9-0.049-1.801-0.098-2.729-0.148-2.321-0.477-2.321-0.477-5.321-3.477 0.231-7.174 2.009-11.01 7-16 0.433-1.444 0.866-2.888 1.312-4.375 1.845-5.056 3.475-6.488 7.688-9.625l2-4c0.969-0.474 1.938-0.949 2.937-1.438 3.063-1.562 3.063-1.562 4.313-4.062 2.484-3.549 5.266-3.659 9.347-4.684 2.403-0.816 2.403-0.816 4.715-3.379 3.774-3.422 7.262-3.203 12.215-3.773 4.651-0.889 8.21-2.884 12.23-5.324 8.371-3.459 18.821-2.5 27.766-2.508zm22.477 115.17c-4.262 0.884-8.527 1.459-12.836 2.059-4.318 0.976-6.692 2.264-10.164 4.941-4 3-4 3-7 4.125-3.639 2.274-4.605 4.674-6.122 8.613-0.878 2.262-0.878 2.262-2.628 5.262-1.838 4.41-1.861 7.234-1.25 12 2.624 5.627 5.603 10.603 10 15 4.538 1.513 9.136 1.308 13.875 1.375 0.993 0.037 1.987 0.075 3.011 0.113 7.389 0.089 7.389 0.089 11.067-2.84 0.675-0.874 1.351-1.748 2.047-2.648 1.278-0.908 2.557-1.815 3.875-2.75 5.818-4.395 10.44-8.45 11.781-15.895 0.287-4.133 0.359-8.212 0.344-12.355 0.036-1.298 0.072-2.596 0.109-3.934 0.124-5.885 1e-3 -10.51-2.109-16.066-1.568-0.062-3.135-0.124-4.75-0.188-0.882-0.034-1.764-0.069-2.672-0.105-2.578 0.293-2.578 0.293-6.578 3.293z" fill="#001964"/>
<path transform="translate(2017.7 472.83)" d="m0 0c0.492-2e-3 0.492-2e-3 2.979-0.01 2.064-5e-3 4.128-7e-3 6.192-7e-3 3.133-3e-3 6.266-0.021 9.399-0.04 2.019-3e-3 4.037-5e-3 6.055-5e-3 0.923-8e-3 1.846-0.015 2.798-0.022 9.111 0.031 16.684 1.307 24.534 6.1 2.697 1.319 5.012 1.697 7.981 2.089 5.593 0.812 8.282 3.131 12.374 7.063 1.992 1.016 3.992 2.017 6 3 2.021 1.642 4.021 3.309 6 5 1.032 0.681 2.063 1.361 3.126 2.062 2.659 1.793 4.777 3.518 6.874 5.938v2c1.321 0.66 2.64 1.32 4 2 1.528 2.426 1.528 2.426 2.938 5.312 1.741 3.39 3.002 5.629 5.75 8.313 3.235 3.322 3.916 7.002 5.312 11.375 2.126 2.875 2.126 2.875 4 5 1.03 3.089 1.136 5.384 1.25 8.625 0.368 5.537 1.537 10.29 3.25 15.562 2.787 8.884 3.903 17.475 3.5 26.813-2.698 2.698-4.083 2.259-7.859 2.278-1.248 0.012-2.496 0.023-3.782 0.034-0.688 1e-3 -0.688 1e-3 -4.171 7e-3 -0.722 5e-3 -0.722 5e-3 -4.376 0.03-4.794 0.031-9.588 0.048-14.382 0.065-3.315 0.019-6.63 0.038-9.946 0.059-7.848 0.047-15.696 0.083-23.544 0.116-8.934 0.039-17.867 0.088-26.8 0.138-18.38 0.104-36.76 0.193-55.14 0.273-0.087 4.875-0.14 9.75-0.187 14.625-0.025 1.381-0.05 2.761-0.076 4.184-0.01 1.334-0.02 2.668-0.029 4.043-0.016 1.225-0.032 2.45-0.048 3.713 0.499 5.038 2.617 8.36 5.403 12.497 1.937 2.938 1.937 2.938 2.73 5.493 1.207 2.445 1.207 2.445 3.598 3.668 0.944 0.277 1.887 0.554 2.859 0.839 4.481 1.443 7.914 3.157 11.75 5.938 4.393 1.464 8.792 1.225 13.376 1.25 0.946 0.021 1.892 0.041 2.867 0.062 5.118 0.029 8.687-0.074 12.757-3.312 6-4 6-4 8.5-5.313 4.533-3.059 7.619-7.364 10.626-11.875 1.874-2.812 1.874-2.812 4-4.562 3.006-3.608 3.1-7.665 3.874-12.25 1-1 1-1 3.544-1.089 1.131 0.017 2.263 0.034 3.429 0.051 0.639 9e-3 0.639 9e-3 3.873 0.051 1.392 0.024 2.783 0.048 4.217 0.073 1.417 0.021 2.834 0.042 4.293 0.064 3.003 0.047 6.006 0.096 9.009 0.147 4.615 0.078 9.231 0.145 13.846 0.211 2.909 0.046 5.818 0.093 8.727 0.14 1.392 0.02 2.783 0.04 4.217 0.061 1.278 0.023 2.556 0.046 3.873 0.07 1.132 0.018 2.263 0.037 3.429 0.056 2.543 0.165 2.543 0.165 3.543 1.165 0 5 0 5-1.937 8.187-2.617 4.839-2.637 8.351-3.063 13.813-1.989 3.979-3.899 5.899-7 9-0.577 0.866-1.155 1.732-1.75 2.625-5.689 8.534-11.916 15.418-20.25 21.375-0.907 0.763-1.815 1.526-2.75 2.312-2.25 1.688-2.25 1.688-4.812 2.625-2.438 1.063-2.438 1.063-4 3.563-3.445 3.534-6.707 3.306-11.477 3.906-4.11 0.824-6.65 3.095-9.961 5.594-7.823 2.348-15.441 2.29-23.562 2.266-1.386 2e-3 -2.773 3e-3 -4.201 5e-3 -2.922 2e-3 -5.843-2e-3 -8.765-0.01-4.457-0.011-8.913 0-13.37 0.012-2.846-1e-3 -5.693-3e-3 -8.539-7e-3 -0.663 2e-3 -0.663 2e-3 -4.016 0.012-16.873-0.085-16.873-0.085-23.984-4.778-3.279-1.975-5.903-2.882-9.687-3.438-5.612-1.223-7.722-3.222-11.876-7.062-2.324-1.02-4.657-2.021-7-3-2.032-1.626-4.035-3.292-6-5-0.804-0.433-1.608-0.866-2.437-1.313-6.549-4.313-10.556-11.112-14.563-17.687-1.007-1.343-2.028-2.677-3.062-4-2.839-3.865-4.829-7.71-6.938-12l-3-3c-0.589-2.854-1.051-5.736-1.437-8.625-1.51-10.035-1.51-10.035-3.687-14.5-5.336-11.026-4.081-27.205-0.876-38.875 1-2.761 2.061-5.494 3.126-8.23 1.188-3.762 1.364-7.395 1.605-11.313 0.364-3.32 1.391-5.712 3.269-8.457l3-1c0.774-2.582 0.774-2.582 1.376-5.813 1.171-5.2 2.092-7.202 6.624-10.187 1.352-2.323 2.685-4.657 4-7 1.635-1.698 3.306-3.362 5-5 0.826-0.848 1.651-1.696 2.5-2.57 0.826-0.843 1.651-1.686 2.5-2.555 0.826-0.848 1.651-1.696 2.5-2.57 2.386-2.199 4.704-3.69 7.5-5.305 0.403-0.413 0.403-0.413 2.438-2.5 2.705-2.639 5.194-3.851 8.562-5.5 0.583-0.66 1.166-1.32 1.766-2 2.9-2.596 5.105-2.829 8.922-3.438 4.554-0.852 8.128-1.73 12.062-4.187 7.537-4.211 16.462-3.533 24.938-3.543zm-11.794 43.466c-1.894 1.702-1.894 1.702-5.894 3.702-1.367 2.649-2.699 5.317-4 8-1.295 1.37-2.619 2.715-4 4-1.338 4.015-1.247 7.644-1.312 11.875-0.037 1.586-0.075 3.171-0.113 4.805 0.468 4.756 1.047 6.078 4.425 9.32 2.84 0.583 2.84 0.583 6.158 0.523 1.245-0.01 2.49-0.021 3.773-0.032 0.671-0.019 0.671-0.019 4.066-0.116 1.38-0.022 2.761-0.044 4.184-0.067 2.921-0.052 5.842-0.117 8.763-0.193 4.473-0.114 8.944-0.186 13.418-0.252 2.836-0.056 5.673-0.114 8.51-0.176 1.339-0.022 2.679-0.044 4.059-0.066 1.248-0.036 2.496-0.072 3.782-0.109 1.096-0.026 2.192-0.053 3.321-0.08 3.334-0.486 5.265-1.449 7.966-3.432 1.994-3.987 1.525-8.667 1-13-1.035-2.43-2.278-4.51-3.703-6.73-1.436-2.514-2.131-4.85-2.859-7.645-1.438-4.625-1.438-4.625-5.438-7.625-1.299-0.639-2.598-1.279-3.937-1.938-4.063-2.062-4.063-2.062-6.02-4.148-4.947-3.112-10.07-2.611-15.793-2.602-1.142-0.04-2.284-0.081-3.46-0.123-7.344-0.029-11.466 1.077-16.896 6.109z" fill="#001964"/>
<path transform="translate(371.01 472.74)" d="m0 0c3.116 0.011 6.231 0 9.346-0.013 2.009 2e-3 4.018 4e-3 6.028 8e-3 0.916-4e-3 1.833-8e-3 2.778-0.012 7.87 0.056 15.868 0.68 22.776 4.778 3.692 2.006 6.776 2.925 10.938 3.5 4.876 0.722 4.876 0.722 7.25 3.375 0.309 0.433 0.309 0.433 1.875 2.625 2.238 1.023 4.481 2.043 6.761 2.968 3.219 1.483 5.603 3.689 8.239 6.032 0.515 0.33 0.515 0.33 3.125 2 2.986 2.077 4.693 4.115 6.875 7 0.825 0.763 1.65 1.526 2.5 2.312 3.024 3.251 4.547 6.719 6.5 10.688 0.637 0.621 1.273 1.242 1.929 1.883 3.854 3.941 5.745 9.177 8.071 14.117 0.598 1.175 1.196 2.351 1.812 3.562 1.074 3.107 1.378 5.213 1.563 8.438 0.3 4.712 1.416 8.516 3.062 12.937 2.205 6.247 3.361 12.197 4.063 18.75 0.101 0.862 0.202 1.724 0.306 2.611 0.469 5.138 0.423 6.397-2.806 10.702-2.681 0.508-2.681 0.508-5.98 0.519-0.624 7e-3 -0.624 7e-3 -3.786 0.042-1.373-5e-3 -2.746-0.01-4.161-0.015-1.444 0.01-2.888 0.02-4.375 0.031-4.789 0.03-9.577 0.031-14.366 0.032-3.314 0.015-6.628 0.032-9.942 0.05-7.841 0.041-15.682 0.061-23.523 0.074-8.926 0.016-17.852 0.054-26.778 0.095-18.363 0.082-36.726 0.136-55.089 0.172-0.206 4.582-0.329 9.164-0.438 13.75-0.058 1.282-0.117 2.565-0.178 3.886-0.173 9.792 2.206 15.365 7.616 23.364 0.256 0.534 0.256 0.534 1.555 3.24 1.893 3.616 3.59 4.111 7.382 5.447 4.095 1.477 6.493 2.636 10.063 5.313 4.692 1.173 9.137 1.184 13.937 1.187 0.894 0.012 1.788 0.025 2.709 0.037 4.519 0.01 8.349 7e-3 12.354-2.224 0.598-0.619 1.196-1.238 1.812-1.875 2.188-2.125 2.188-2.125 6.125-4 6.302-3.296 9.233-8.319 13.063-14.125 0.701-0.763 1.402-1.527 2.125-2.313 2.554-3.66 2.995-7.353 3.875-11.687 2.7-2.701 4.094-2.254 7.871-2.259 1.231-6e-3 2.462-0.013 3.731-0.019 0.668 2e-3 0.668 2e-3 4.05 0.012 1.366-2e-3 2.732-4e-3 4.14-6e-3 2.894-1e-3 5.789 3e-3 8.683 0.011 4.44 0.011 8.88 0 13.32-0.013 2.806 2e-3 5.613 4e-3 8.42 8e-3 1.334-4e-3 2.668-8e-3 4.043-0.012 0.618 3e-3 0.618 3e-3 3.741 0.019 1.089 2e-3 2.178 3e-3 3.3 5e-3 2.701 0.254 2.701 0.254 5.701 2.254 0 5 0 5-1.875 7.562-2.18 3.526-2.582 5.474-3.125 9.5-0.652 4.683-1.296 7.697-5 10.938h-2c-0.228 0.848-0.457 1.696-0.692 2.57-4.223 11.069-13.597 19.181-23.308 25.43l-4 3c-0.825 0.474-1.65 0.948-2.5 1.437-2.564 1.603-4.407 3.397-6.5 5.563-2 1-2 1-6 1.187-5.053 0.48-8.342 2.564-12.446 5.438-6.917 3.723-16.024 2.536-23.668 2.543-1.364 3e-3 -2.729 6e-3 -4.135 0.01-2.882 5e-3 -5.764 7e-3 -8.647 7e-3 -4.391 2e-3 -8.782 0.02-13.173 0.039-2.806 3e-3 -5.613 5e-3 -8.42 6e-3 -0.652 4e-3 -0.652 4e-3 -3.953 0.022-17.078-0.042-17.078-0.042-24.496-4.752-3.824-2.353-5.437-2.881-9.687-3.438-5.53-0.792-7.623-2.883-11.375-7.062-2.318-1.035-4.652-2.036-7-3-2.037-1.622-4.038-3.289-6-5-1.011-0.64-2.022-1.279-3.063-1.938-3.31-2.324-5.435-4.901-7.937-8.062-0.341-0.31-0.341-0.31-2.063-1.875-2.731-2.995-4.131-6.513-5.937-10.125-0.32-0.31-0.32-0.31-1.938-1.875-2.775-2.86-4.146-6.096-5.816-9.688-1.246-2.437-1.246-2.437-4.246-6.437-0.603-2.918-1.091-5.861-1.5-8.813-0.83-5.949-2.066-10.716-4.5-16.187-2.687-11.308-2.239-25.24 2-36 1.862-4.828 2.361-9.226 2.75-14.375 0.817-7.683 2.326-10.881 7.25-16.625 0.671-2.999 1.338-5.999 2-9 2.375-2.188 2.375-2.188 5-4 1.353-1.987 2.685-3.988 4-6 1.624-1.708 3.292-3.376 5-5 2.501-2.441 4.828-4.773 6.937-7.563 2.389-2.823 4.975-4.421 8.063-6.437 0.804-0.846 1.608-1.692 2.437-2.563 2.967-2.822 5.81-3.868 9.563-5.437 0.589-0.659 1.178-1.318 1.785-1.996 2.918-2.64 5.235-2.874 9.09-3.504 5.433-1.023 8.552-2.419 13.125-5.5 10.6-2.475 21.186-2.305 32.009-2.261zm-19.009 42.261v2c-0.464 0.134-0.464 0.134-2.813 0.812-3.187 1.188-3.187 1.188-6.187 4.188-0.33 1.196-0.66 2.392-1 3.625-0.33 1.113-0.66 2.227-1 3.375-0.99 0.33-1.98 0.66-3 1-2.776 5.107-3.432 9.355-3.438 15.125-0.019 1.364-0.038 2.727-0.058 4.133 0.573 4.322 1.401 5.734 4.496 8.742 2.921 0.59 2.921 0.59 6.357 0.539 1.288-7e-3 2.576-0.015 3.904-0.023 1.388-0.035 2.777-0.07 4.207-0.106 1.428-0.02 2.856-0.04 4.327-0.06 3.019-0.048 6.039-0.108 9.058-0.181 4.628-0.106 9.256-0.165 13.885-0.218 2.931-0.053 5.862-0.108 8.793-0.166 1.389-0.017 2.777-0.034 4.208-0.051 1.288-0.036 2.576-0.072 3.903-0.109 1.134-0.024 2.268-0.048 3.436-0.073 3.534-0.668 4.707-1.778 6.922-4.552 1.748-3.497 1.368-6.109 1-10-1.334-3.11-2.871-6.046-4.477-9.024-1.367-2.672-2.343-5.175-3.211-8.039-1.312-3.937-1.312-3.937-4.312-6.937l-4-2c-4-2-4-2-7-5-5.127-1.709-10.508-1.269-15.875-1.313-1.185-0.029-2.37-0.058-3.59-0.088-1.144-8e-3 -2.287-0.016-3.465-0.025-1.044-0.015-2.088-0.029-3.164-0.044-3.631 0.587-5.316 1.907-7.906 4.47z" fill="#001964"/>
<path transform="translate(624.31 472.69)" d="m0 0c0.542-8e-3 0.542-8e-3 3.283-0.049 0.519 0 0.519 0 3.143-2e-3 0.939-3e-3 1.877-6e-3 2.845-9e-3 2.417 0.372 2.417 0.372 5.417 3.372 0.38 2.771 0.38 2.771 0.388 6.168 9e-3 1.272 0.019 2.543 0.028 3.853-3e-3 0.688-3e-3 0.688-0.018 4.167 1e-3 0.705 1e-3 0.705 9e-3 4.27 2e-3 2.983-4e-3 5.965-0.016 8.948-0.016 4.576-1e-3 9.151 0.019 13.727-2e-3 2.894-6e-3 5.787-0.012 8.68 6e-3 1.375 0.012 2.75 0.018 4.167-4e-3 0.635-4e-3 0.635-0.028 3.853-3e-3 1.121-5e-3 2.242-8e-3 3.397-0.38 2.77-0.38 2.77-3.38 5.77-3.396 0.195-6.614 0.229-10 0.126-1.907-0.026-3.813-0.048-5.719-0.067-0.914-0.012-1.828-0.023-2.77-0.036-12.181-0.111-12.181-0.111-16.261 3.227-0.743 0.908-1.486 1.816-2.25 2.75-1.197 0.826-2.393 1.65-3.626 2.5-3.284 2.433-4.352 4.099-6.374 7.5-0.837 0.266-1.674 0.532-2.536 0.806-0.814 0.394-1.627 0.788-2.464 1.194-0.701 2.43-0.701 2.43-0.802 5.43-0.046 1.083-0.093 2.167-0.14 3.282-0.02 1.086-0.039 2.171-0.058 3.288-0.028 0.924-0.055 1.847-0.083 2.798-0.064 2.775-0.083 5.548-0.091 8.324-3e-3 0.519-3e-3 0.519-0.02 3.148-0.014 2.231-0.026 4.462-0.036 6.693-0.017 3.531-0.04 7.061-0.065 10.592-0.071 10.029-0.131 20.058-0.182 30.088-0.032 6.154-0.073 12.308-0.121 18.462-0.016 2.341-0.028 4.682-0.036 7.023-0.013 3.263-0.037 6.524-0.064 9.787 0 0.967-1e-3 1.934-1e-3 2.931-0.049 4.464-0.271 7.093-2.301 11.154-2.871 1.436-5.397 1.197-8.606 1.269-1.391 0.033-2.783 0.066-4.217 0.1-1.511 0.029-3.023 0.058-4.58 0.089-1.544 0.03-3.087 0.06-4.678 0.091-3.271 0.061-6.542 0.119-9.813 0.174-3.361 0.057-6.722 0.127-10.083 0.207-4.829 0.112-9.658 0.198-14.488 0.278-0.755 0.019-0.755 0.019-4.574 0.119-0.698 8e-3 -0.698 8e-3 -4.227 0.052-0.615 0.011-0.615 0.011-3.73 0.071-3.004-0.45-3.004-0.45-6.004-4.45-0.381-3.666-0.381-3.666-0.388-8.198-6e-3 -0.834-0.011-1.668-0.016-2.526-0.015-2.798-8e-3 -5.595-1e-3 -8.393-5e-3 -2.004-0.012-4.008-0.02-6.011-0.018-5.447-0.017-10.893-0.011-16.339 3e-3 -4.543-3e-3 -9.086-9e-3 -13.629-0.015-10.715-0.013-21.429-2e-3 -32.144 0.012-11.063-2e-3 -22.126-0.029-33.189-0.022-9.491-0.029-18.983-0.023-28.474 4e-3 -5.672 1e-3 -11.344-0.016-17.016-0.016-5.332-0.012-10.663 7e-3 -15.995 4e-3 -1.96 1e-3 -3.919-0.01-5.878-0.013-2.67-1e-3 -5.339 0.016-8.009 1e-3 -1.495 1e-3 -2.991 1e-3 -4.532 0.501-3.667 0.501-3.667 2.341-6.195 3.245-2.211 5.346-1.19 9.16-0.472 3.755 0.107 7.506-1e-3 11.261-0.078 2.192-0.027 4.384-0.053 6.576-0.078 3.437-0.043 6.874-0.094 10.31-0.166 3.33-0.066 6.659-0.101 9.989-0.131 0.515-0.014 0.515-0.014 3.119-0.087 7.094-0.027 7.094-0.027 10.397 2.856 1.727 3.44 1.779 5.912 1.66 9.747-0.012 0.604-0.012 0.604-0.074 3.66-0.238 3.277-0.238 3.277-1.238 7.277-0.068 2.083-0.086 4.167-0.063 6.25 9e-3 1.078 0.018 2.156 0.027 3.266 0.012 0.82 0.024 1.64 0.036 2.484h8c0.206-1.34 0.412-2.681 0.624-4.062 1.144-5.211 3.716-8.058 7.376-11.938 0.68-1.031 1.361-2.062 2.062-3.124 3.754-5.571 7.963-8.832 13.938-11.876h2c0.659-1.319 1.319-2.639 2-4 6.64-2.435 13.333-2.333 20.312-2.312z" fill="#001964"/>
<path transform="translate(1881.4 472.81)" d="m0 0c1.05-0.012 2.1-0.024 3.182-0.037 0.505-1e-3 0.505-1e-3 3.064-6e-3 0.924-4e-3 1.847-8e-3 2.799-0.012 2.517 0.243 2.517 0.243 6.517 2.243 0.992 3.585 1.185 5.447 0 9-0.098 3.522-0.139 7.024-0.132 10.546-1e-3 1.045-2e-3 2.09-3e-3 3.166-1e-3 2.212 1e-3 4.425 5e-3 6.637 5e-3 3.373 0 6.746-6e-3 10.119 0 2.151 2e-3 4.302 4e-3 6.453-1e-3 0.503-1e-3 0.503-6e-3 3.044 0.013 4.125 0.126 7.954 0.772 12.039 0.366 2.996 0.366 2.996-1.634 5.996-3.802 1.267-6.989 1.057-11 1-2.999-3e-3 -6-3e-3 -9 0-1.084-0.01-2.168-0.019-3.285-0.028-6.272 0.203-9.474 1.679-13.879 6.164-1.836 1.864-1.836 1.864-5.46 4.364-5.116 5.305-6.899 11.662-9.376 18.5-0.515 1.024-1.03 2.048-1.56 3.103-1.749 4.735-1.857 9.017-1.824 13.991-6e-3 0.989-0.011 1.979-0.017 2.998-9e-3 2.139-0.012 4.277-9e-3 6.415 4e-3 3.384-0.01 6.767-0.029 10.15-0.043 8.397-0.054 16.795-0.066 25.193-0.011 7.106-0.035 14.213-0.075 21.32-0.013 3.335-9e-3 6.669-4e-3 10.004-9e-3 2.04-0.02 4.08-0.031 6.119 6e-3 0.929 0.013 1.857 0.019 2.814-0.049 5.053-0.259 6.699-3.404 10.893-3.657 1.179-7.266 1.118-11.087 1.101-0.603-2e-3 -0.603-2e-3 -3.651-0.012-5.476-0.048-10.951-0.098-16.426-0.167-2.89-0.032-5.781-0.053-8.671-0.063-4.17-0.015-8.339-0.063-12.508-0.117-0.647 0-0.647 0-3.918 2e-3 -1.205-0.023-2.409-0.046-3.651-0.069-1.057-0.01-2.115-0.02-3.204-0.03-3.999-0.896-5.345-2.451-7.884-5.645-0.629-3.725-0.629-3.725-0.634-8.161-8e-3 -0.817-0.016-1.635-0.024-2.477-0.02-2.737-4e-3 -5.473 0.012-8.21-7e-3 -1.963-0.016-3.926-0.027-5.889-0.023-5.331-0.014-10.661 2e-3 -15.992 0.013-5.576 1e-3 -11.152-7e-3 -16.729-9e-3 -9.365 3e-3 -18.729 0.027-28.094 0.027-10.83 0.018-21.659-9e-3 -32.489-0.023-9.295-0.026-18.591-0.013-27.886 8e-3 -5.553 9e-3 -11.106-8e-3 -16.658-0.014-5.221-4e-3 -10.441 0.024-15.661 7e-3 -1.917 5e-3 -3.834-6e-3 -5.751-0.013-2.615 4e-3 -5.228 0.029-7.843 1e-3 -1.464 3e-3 -2.928 5e-3 -4.436 0.768-4.542 1.941-6.029 5.629-8.724 3.814-0.425 7.161-0.561 10.961-0.454 1.064 0.01 2.128 0.019 3.224 0.029 3.398 0.035 6.794 0.103 10.191 0.175 3.389 0.05 6.778 0.093 10.168 0.131 2.107 0.026 4.214 0.06 6.321 0.104 4.21 0.07 7.93 0.053 12.087-0.731 3.048-0.254 3.048-0.254 5.464 1.314 1.974 3.029 2.035 4.737 1.94 8.334-0.017 1.137-0.035 2.275-0.053 3.447-0.019 0.592-0.019 0.592-0.115 3.588-0.052 2.342-0.101 4.685-0.145 7.027-0.03 1.038-0.061 2.076-0.093 3.145 0.048 2.766 0.415 5.205 1.05 7.891h8c0.098-0.797 0.196-1.594 0.297-2.415 0.871-6.166 1.59-10.714 5.703-15.585 0.569-0.731 1.137-1.462 1.723-2.215 4.637-5.688 8.507-8.097 15.277-10.785 2.376-2.188 2.376-2.188 4-4 4.72-1.574 9.495-1.185 14.438-1.188z" fill="#001964"/>
<path transform="translate(2382.9 616.69)" d="m0 0c3.637 1.559 6.144 3.665 9.062 6.312 0.66 0.331 1.321 0.66 2 1v3c0.784 0.062 1.568 0.124 2.376 0.188 0.866 0.268 1.732 0.536 2.624 0.812 0.682 1.661 1.348 3.328 2 5 0.825 0.331 1.651 0.66 2.5 1 2.5 1 2.5 1 3.636 3.158 1.669 5.485 1.234 11.216 1.24 16.905 0.024 1.279 0.048 2.559 0.074 3.877 4e-3 1.228 7e-3 2.456 0.011 3.721 9e-3 1.12 0.017 2.24 0.025 3.394-0.597 3.623-1.703 4.637-4.486 6.945-3 3-3 3-4.374 5.563-1.965 2.947-3.416 3.154-6.626 4.437-0.494 0.846-0.989 1.692-1.5 2.563-1.5 2.437-1.5 2.437-3.746 3.079-4.908 0.639-9.811 0.543-14.754 0.546-1.08 0.012-2.16 0.024-3.273 0.037-0.522 1e-3 -0.522 1e-3 -3.164 6e-3 -0.947 4e-3 -1.895 8e-3 -2.871 0.012-2.941-0.265-5.054-0.927-7.692-2.243-1.349-1.653-2.681-3.321-4-5-0.494-0.288-0.494-0.288-3-1.75-4.085-3.063-5.06-6.596-7-11.25-2.187-2.437-2.187-2.437-4-4-1.716-3.433-1.213-7.149-1.25-10.937-0.025-1.618-0.051-3.236-0.078-4.902 0.328-4.161 0.328-4.161 3.328-7.161h3c0.227-1.361 0.454-2.722 0.688-4.124 1.044-4.7 2.825-7.471 6.312-10.876 4-2 4-2 9-2v10c0.621-0.047 0.621-0.047 3.762-0.289 1.626-0.11 3.251-0.221 4.926-0.335 1.613-0.117 3.225-0.233 4.887-0.352 3.946-0.021 6.065 0.046 9.425 1.976 1.379 1.63 2.713 3.298 4 5 1.321 0.991 2.64 1.981 4 3 0.5 3.938 0.5 3.938 0 8-1.333 1.334-2.666 2.667-4 4-0.582 4.591-0.717 6.992 2 10.813 0.66 0.722 1.321 1.444 2 2.187v3c-3.773 0.045-7.332-0.062-11-1-2.124-3.374-2.124-3.374-3-7-0.329-0.99-0.659-1.98-1-3-3.562-0.687-3.562-0.687-7-1-0.329 2.31-0.659 4.621-1 7h-5v4h-6c0.25 3.313 0.25 3.313 1 7 4.481 3.361 5.575 3.362 10.954 3.293 1.34-9e-3 2.681-0.019 4.062-0.029 1.397-0.025 2.795-0.05 4.234-0.076 1.413-0.014 2.826-0.027 4.282-0.041 3.49-0.035 6.979-0.085 10.468-0.147 0.33-2.639 0.66-5.279 1-8 2.64-0.33 5.281-0.659 8-1 2.153-25.977 2.153-25.977-2-36-2.374-1.312-2.374-1.312-5-2-2.414-2.293-4.694-4.667-6.949-7.117-4.603-2.841-9.052-2.558-14.363-2.633-1.027-0.029-2.053-0.059-3.111-0.089-2.525-0.071-5.051-0.118-7.577-0.161 0.25-2.374 0.25-2.374 1-5 6.586-3.292 13.786-2.561 20.938-1.312zm-38.938 24.312c-2.242 2.243-1.185 7.616-1.187 10.75-0.012 0.908-0.024 1.816-0.037 2.75-0.019 8.629-0.019 8.629 2.224 12.5 4.22 2.532 6.722 2 12 2v-31c-6.299 0-7.998 0.024-13 3zm24-1c-0.042 3-0.041 6.001 0 9 1 1 1 1 4.5 1.126 3.5-0.126 3.5-0.126 4.5-1.126 0.084-2.665 0.084-5.334 0-8-1-1-1-1-5.062-1.062-1.299 0.021-2.599 0.041-3.938 0.062z" fill="#001964"/>
</svg>
