<?xml version="1.0" encoding="UTF-8"?>
<svg version="1.1" viewBox="0 0 2904 1312" xmlns="http://www.w3.org/2000/svg">
<path transform="translate(250,418)" d="m0 0c0.464 0.474 0.464 0.474 2.812 2.875 3.832 3.756 7.128 4.508 12.188 6.125 2.013 1.651 4.014 3.316 6 5 1.196 0.33 2.393 0.66 3.625 1 3.375 1 3.375 1 5.187 3.438 2.903 3.4 5.612 3.715 9.836 4.812 2.958 0.943 4.559 2.224 6.352 4.75v2c0.67 0.103 0.67 0.103 4.062 0.625 5.215 1.133 7.966 3.837 11.938 7.375 2.655 1.03 5.321 2.034 8 3 0.639 0.66 1.279 1.32 1.938 2 2.062 2 2.062 2 6.437 3.375 5.088 1.788 6.881 3.881 10.625 7.625 2.992 1.025 5.992 2.025 9 3l5 5c2.996 1.013 5.996 2.012 9 3 2.033 1.626 4.035 3.292 6 5 1.176 0.495 2.351 0.99 3.562 1.5 3.438 1.5 3.438 1.5 5.813 4.062 2.625 2.438 2.625 2.438 7.187 3.438 4.438 1 4.438 1 6.313 3.375 2.933 3.623 6.17 4.169 10.512 5.59 3.365 1.333 5.181 3.4 7.613 6.035 2.318 1.035 4.652 2.036 7 3 0.784 0.66 1.567 1.32 2.375 2 2.625 2 2.625 2 7.187 3.438 4.438 1.562 4.438 1.562 6.376 4.062 2.398 2.907 3.502 3.088 7.062 4 4.619 1.195 6.268 2.499 9 6.5 0.526 0.32 0.526 0.32 3.188 1.938 2.812 2.062 2.812 2.062 3.486 4.748 0.345 3.504 0.405 6.885 0.348 10.406-0.02 1.434-0.041 2.868-0.061 4.345-0.014 0.789-0.014 0.789-0.082 4.782-0.024 1.71-0.048 3.42-0.071 5.13-0.05 3.735-0.103 7.47-0.158 11.205-0.449 30.498-0.706 60.978-0.473 91.48 0.034 4.59 0.062 9.18 0.088 13.77 9e-3 1.512 0.018 3.024 0.027 4.582 0.017 3.05 0.035 6.1 0.052 9.149 0.054 9.075 0.145 18.148 0.259 27.222 0.064 5.721 0.095 11.441 0.117 17.162 0.017 2.68 0.049 5.36 0.095 8.039 0.063 3.695 0.076 7.387 0.077 11.082 0.031 1.071 0.061 2.142 0.092 3.246-0.069 7.28-2.091 11.235-6.771 16.776-3.051 2.672-5.933 3.401-9.83 4.235-3.905 1.152-6.412 4.012-9.383 6.703-2.323 1.024-4.655 2.027-7 3-0.598 0.681-1.196 1.361-1.812 2.062-2.57 2.276-3.975 2.398-7.313 2.938-1.609 0.33-3.217 0.66-4.875 1l-2 4c-4 3-4 3-8 3.875-4 1.125-4 1.125-5.875 3.563-2.423 2.921-3.372 3.099-6.937 4-5.263 1.35-8.152 3.906-12.188 7.562-2.316 1.038-4.649 2.042-7 3-0.784 0.66-1.567 1.32-2.375 2-2.625 2-2.625 2-7.187 3.438-4.438 1.562-4.438 1.562-6.376 4.062-2.806 3.401-5.583 3.622-9.75 4.688-2.312 0.812-2.312 0.812-4.312 3.312-2.737 3.421-5.478 3.625-9.613 4.688-3.317 1.128-5.002 3.302-7.387 5.812-2.661 1.014-5.328 2.014-8 3-0.485 0.413-0.485 0.413-2.938 2.5-3.062 2.5-3.062 2.5-7.687 4-4.375 1.5-4.375 1.5-6.375 4.062-2 2.438-2 2.438-6.438 3.376-4.562 1.062-4.562 1.062-7 4-3.192 3.814-5.539 4.121-10.214 5.285-3.294 1.09-4.953 3.321-7.348 5.777-3 1-6 2-9 3-0.866 0.866-1.732 1.733-2.625 2.625-3.093 3.093-5.058 3.298-9.375 3.375-3.47-0.826-4.841-1.832-7.312-4.438-3.276-3.122-6.481-4.001-10.688-5.562-0.99-1.32-1.98-2.64-3-4-2.34-0.871-2.34-0.871-4.938-1.438-4.744-1.249-6.006-2.742-9.062-6.562-2.312-0.812-2.312-0.812-5-1.5-4.722-1.215-5.997-2.653-9-6.5-2.517-1.165-5.075-2.09-7.684-3.031-2.776-1.161-4.205-2.858-6.316-4.969-1.464-0.454-2.929-0.908-4.438-1.375-4.562-1.625-4.562-1.625-7-4.625-3.193-3.739-5.587-4.068-10.214-5.227-3.314-1.091-4.97-3.273-7.348-5.773-2.984-1.368-5.985-2.702-9-4-1.678-1.319-3.346-2.651-5-4-0.577-0.237-0.577-0.237-3.5-1.438-3.5-1.562-3.5-1.562-5.938-4.124-2.562-2.438-2.562-2.438-6.5-3.376-4.943-1.293-6.498-3.498-10.062-7.062-2.992-1.025-5.992-2.025-9-3-1.687-1.646-3.355-3.312-5-5-0.66-0.247-0.66-0.247-4-1.5-4-1.5-4-1.5-6.5-4.062-2.5-2.438-2.5-2.438-6.5-3.376-4-1.062-4-1.062-6.375-4-3.231-3.768-5.537-4.118-10.203-5.285-3.495-1.121-5.706-3.363-8.422-5.777-0.629-0.258-0.629-0.258-3.812-1.562-0.526-0.238-0.526-0.238-3.188-1.438l-1-4c3.023-3.023 6.045-2.728 10.25-3.254 0.418-0.053 0.418-0.053 2.533-0.32 2.738-0.341 5.477-0.666 8.217-0.988 0.938-0.113 1.876-0.225 2.843-0.34 15.072-1.789 29.977-2.876 45.157-3.098 6.324-0.117 12.648-0.246 18.972-0.381 2.739-0.054 5.478-0.098 8.217-0.14 17.08-0.3 33.87-1.873 50.749-4.541 11.102-1.658 22.03-2.685 33.252-2.874 3.078-0.07 6.149-0.216 9.224-0.361 2.154-0.07 4.307-0.138 6.461-0.203 0.993-0.055 1.986-0.11 3.009-0.167 5.343-0.097 8.481 0.407 12.639 3.905 2.581 2.599 4.667 5.108 6.227 8.45 2.25 4.312 2.25 4.312 4.438 6.312 1.812 2 1.812 2 2.687 6.438 1.125 4.562 1.125 4.562 4.063 6.812 4.162 3.737 4.315 7.194 5.128 12.594 0.934 3.156 0.934 3.156 3.446 5.582 3.251 3.364 3.323 5.66 3.738 10.262 0.703 7.218 0.703 7.218 1.75 9.312 3.313 0.375 3.313 0.375 7 0l1.812-1.812c2.485-2.485 3.842-2.776 7.188-3.626 4.764-1.267 4.764-1.267 7-4.062 2.327-2.908 3.303-3.048 6.812-3.938 5.263-1.35 8.152-3.906 12.188-7.562 2.316-1.038 4.649-2.042 7-3 0.784-0.681 1.567-1.361 2.375-2.062 2.625-1.938 2.625-1.938 7.313-2.938 1.423-0.33 2.846-0.66 4.312-1l2-4c4-3 4-3 8-3.875 4-1.125 4-1.125 5.812-3.5 2.981-3.576 6.167-4.168 10.508-5.59 3.521-1.36 5.873-3.547 8.68-6.035 2.331-1.005 4.664-2.005 7-3 0.619-0.66 1.238-1.32 1.875-2 2.125-2 2.125-2 6.625-3.438 4.819-1.673 5.624-2.631 8.5-6.562 2.328-1.342 4.661-2.676 7-4 1.094-3.281 1.106-5.631 1.08-9.085-6e-3 -1.281-0.012-2.563-0.018-3.883-5e-3 -0.709-5e-3 -0.709-0.031-4.294-0.051-14.046 0.024-28.087 0.188-42.133 0.022-1.98 0.045-3.96 0.068-5.94 0.035-3.041 0.07-6.081 0.105-9.122 0.232-19.847 0.422-39.695 0.608-59.543 8e-3 -0.891 0.017-1.782 0.026-2.7 0.092-9.81 0.169-19.62 0.206-29.431 0.012-2.554 0.029-5.108 0.051-7.662 0.03-3.465 0.04-6.929 0.045-10.395 0.012-0.979 0.025-1.959 0.037-2.969-0.021-6.599-0.453-13.931-5.365-18.843-1.114-0.454-2.228-0.908-3.375-1.375-3.625-1.625-3.625-1.625-5.437-3.625-2.47-2.257-3.99-2.611-7.188-3.438-4.771-1.274-4.771-1.274-6.938-4-2.884-3.583-6.166-4.126-10.453-5.527-3.355-1.331-5.147-3.44-7.609-6.035-2.661-1.014-5.328-2.014-8-3-2.017-1.646-4.017-3.313-6-5-1.155-0.495-2.31-0.99-3.5-1.5-3.5-1.5-3.5-1.5-6.438-4.062-3.062-2.438-3.062-2.438-7.187-3.438-3.875-1-3.875-1-5.75-3.438-2.847-3.433-5.562-3.719-9.773-4.812-2.958-0.943-4.559-2.224-6.352-4.75v-2c-1.526-0.392-3.053-0.784-4.625-1.188-4.795-1.416-7.588-3.53-11.375-6.812-1.196-0.33-2.392-0.66-3.625-1-3.375-1-3.375-1-5.187-3.438-2.493-2.919-3.572-3.138-7.188-4.062-4.785-1.229-4.785-1.229-6.938-3.938-2.884-3.583-6.166-4.126-10.453-5.527-3.355-1.331-5.147-3.44-7.609-6.035l-4-1.5c-4-1.5-4-1.5-6.312-4.188-3.646-3.136-6.282-3.076-10.985-2.874-4.258 0.886-6.599 3.631-9.703 6.562-3 1-6 2-9 3-0.66 0.846-1.32 1.691-2 2.562-2.968 3.618-6.536 3.446-11 4.438-0.619 0.784-1.238 1.567-1.875 2.375-2.455 3.033-3.795 3.381-7.437 4.563-5.319 1.737-8.519 4.293-12.688 8.062-2.316 1.038-4.649 2.042-7 3-0.382 0.33-0.382 0.33-2.312 2-2.762 2.055-4.404 2.522-7.688 3.312-4.07 1.123-4.999 1.687-8.062 4.938-1.942 3.758-2.681 6.553-2.938 10.75 6.625-0.75 6.625-0.75 10-3 2.509-0.262 2.509-0.262 5.562-0.278 1.157-0.012 2.314-0.023 3.505-0.034 1.271-2e-3 2.541-5e-3 3.85-7e-3 0.668-5e-3 0.668-5e-3 4.05-0.03 4.432-0.031 8.863-0.048 13.295-0.065 3.067-0.019 6.134-0.038 9.202-0.059 8.083-0.051 16.166-0.091 24.25-0.128 8.244-0.04 16.489-0.091 24.733-0.141 16.184-0.097 32.369-0.182 48.553-0.258-2.289 4.579-4.751 8.036-8 12l-4 1c-0.289 0.763-0.577 1.526-0.875 2.312-1.53 3.656-3.833 4.558-7.125 6.688-1.711 1.962-3.379 3.963-5 6-2.484 2.608-4.804 4.862-7.75 6.938-2.84 2.603-3.004 4.288-3.25 8.062v2c0.454 0.113 0.454 0.113 2.75 0.688 3.806 1.536 4.832 3.063 7.25 6.312 1.983 1.687 3.983 3.354 6 5 2.687 2.556 5.097 5.12 7.438 8 2.63 3.079 5.425 5.451 8.562 8 2.897 2.752 5.481 5.569 8.062 8.625 2.938 3.375 2.938 3.375 6.938 6.375 3.213 10.784-0.706 24.622-3.562 35.25-2.227 8.288-3.306 16.169-3.438 24.75-0.027 0.926-0.054 1.851-0.082 2.805-0.045 2.737 5e-3 5.458 0.082 8.195 0.017 1.177 0.034 2.354 0.051 3.566 0.323 9.305 2.199 17.465 4.75 26.395 1.631 6.249 2.105 12.578 2.478 19.01 0.417 6.306 1.922 10.302 5.358 15.509 1.636 3.024 1.869 5.421 2.175 8.832 0.866 6.578 2.826 9.769 7.188 14.688 1.795 3.591 1.492 6.007 1 10-2.185 4.083-4.555 7.88-8 11-2.504 0.117-2.504 0.117-5-1-2.203-2.215-2.203-2.215-4.25-4.938-0.686-0.895-1.372-1.791-2.078-2.714-3.827-5.374-2.686-11.278-2.545-17.629 0.055-4.663-8e-3 -7.481-2.127-11.719-1.279-0.639-2.558-1.279-3.875-1.938-5.736-2.867-8.095-6.106-10.125-12.062-0.32-2.369-0.586-4.745-0.812-7.125-0.735-6.092-2.092-10.767-5.067-16.117-2.555-6.285-2.241-13.424-2.187-20.12 0.01-1.602 0.02-3.203 0.03-4.853 3e-3 -0.422 3e-3 -0.422 0.022-2.554 0.022-2.661 0.036-5.323 0.048-7.984 0.033-7.561 0.075-15.121 0.137-22.682 0.038-4.64 0.061-9.279 0.075-13.919 8e-3 -1.762 0.021-3.524 0.041-5.286 0.026-2.462 0.032-4.924 0.038-7.386 9e-3 -1.399 0.019-2.797 0.029-4.238-0.559-5.902-2.371-8.844-6.729-12.798-1.196-0.97-2.393-1.939-3.625-2.938-2.501-2.384-4.769-4.7-6.875-7.438-2.719-3.278-5.871-5.822-9.125-8.562-2.606-2.485-4.946-4.932-7.188-7.75-1.812-2.25-1.812-2.25-3.812-3.25-7.212-0.582-7.212-0.582-10.222 1.641-3.407 4.52-2.389 10.222-2.34 15.671-0.024 1.212-0.048 2.423-0.073 3.67 0.012 7.167 0.421 11.634 5.635 17.018 2.352 1.855 2.352 1.855 4.625 3.188 3.575 2.116 4.72 3.272 7.375 6.812 0.846 0.33 1.691 0.66 2.562 1 2.438 1 2.438 1 4.438 5 0.175 2.431 0.239 4.871 0.238 7.309 7e-3 0.729 7e-3 0.729 0.039 4.421 6e-3 0.777 6e-3 0.777 0.035 4.708 0.187 11.191 0.74 21.527 3.818 32.297 2.028 7.196 2.707 14.265 3.061 21.723 0.392 6.477 1.981 10.821 4.809 16.542 1.819 4.898 3.101 9.472 3.812 14.625 0.648 4.068 1.546 6.251 4.376 9.25 2.812 3.125 2.812 3.125 3.124 5.937-1.312 2.188-1.312 2.188-4.25 3.626-5.076 0.702-9.274 0.47-14.062-1.438-2.555-2.883-3.811-5.598-5.438-9.062-1.772-3.333-3.804-5.377-6.562-7.938-3.267-3.187-6.171-6.423-9-10-1.121-1.275-2.246-2.545-3.375-3.812-2.827-3.204-5.368-6.544-7.898-9.989-2.902-3.695-6.113-7.103-9.301-10.551-1.955-2.134-3.824-4.301-5.676-6.523-7.538-8.666-16.42-16.461-25.75-23.125-2.01-1.655-4.011-3.32-6-5-0.464-0.32-0.464-0.32-2.812-1.938-2.188-2.062-2.188-2.062-3.188-5.124v-2.938c3-3 3-3 5.625-3.812 2.375-1.188 2.375-1.188 3.375-4.126v-3.062c-3-3-3-3-6.625-3.391-9.474 0.305-15.175 1.419-22.176 7.969-2.199 2.422-2.199 2.422-4.32 5.168-1.879 2.254-1.879 2.254-4.629 3.066-0.743 0.392-1.485 0.784-2.25 1.188-0.688 3.875-0.688 3.875 0 8 2.688 2.188 2.688 2.188 6 4 2.506 2.384 4.872 4.865 7.25 7.375 2.952 2.817 6.054 5.262 9.293 7.738 3.365 2.584 6.663 5.248 9.969 7.907 2.411 1.919 4.852 3.795 7.3 5.668 4.578 3.557 8.393 7.365 12.126 11.812 2.831 3.236 5.758 5.771 9.062 8.5 1.358 1.646 2.693 3.313 4 5 0.382 0.371 0.382 0.371 2.312 2.25 2.939 3.007 5.433 6.203 7.989 9.535 3.332 4.343 6.302 7.917 10.699 11.215v5c-1.963 1.963-5.798 1.131-8.369 1.134-1.608 4e-3 -3.216 8e-3 -4.873 0.013-1.801-1e-3 -3.601-1e-3 -5.401-2e-3 -1.882 3e-3 -3.764 7e-3 -5.646 0.01-5.129 9e-3 -10.257 0.012-15.385 0.012-4.277 1e-3 -8.554 5e-3 -12.83 8e-3 -10.091 9e-3 -20.182 0.011-30.273 0.01-10.415 0-20.83 0.01-31.245 0.026-8.933 0.013-17.866 0.018-26.8 0.018-5.339 0-10.678 2e-3 -16.017 0.013-5.024 0.01-10.048 0.01-15.072 3e-3 -1.843-2e-3 -3.687 1e-3 -5.531 7e-3 -2.518 8e-3 -5.036 2e-3 -7.554-5e-3 -0.705 1e-3 -0.705 1e-3 -4.27 2e-3 -4.686-0.312-8.352-0.867-11.734-4.249-0.183-2.632-0.228-5.275-0.216-7.914 1e-3 -0.827 2e-3 -1.654 3e-3 -2.506 6e-3 -2.788 0.026-5.575 0.046-8.362 7e-3 -1.993 0.013-3.985 0.019-5.977 0.018-5.424 0.048-10.847 0.081-16.271 0.033-5.668 0.057-11.337 0.082-17.005 0.043-9.524 0.095-19.048 0.152-28.572 0.065-11.015 0.116-22.031 0.159-33.046 0.038-9.448 0.084-18.896 0.135-28.344 0.031-5.647 0.06-11.294 0.081-16.941 0.021-5.311 0.051-10.622 0.089-15.934 0.012-1.95 0.021-3.901 0.026-5.852 8e-3 -2.66 0.028-5.321 0.051-7.982 8e-3 -1.489 0.016-2.979 0.025-4.514 0.244-3.462 0.645-5.742 2.267-8.78 1.988-1.441 1.988-1.441 4.312-2.562 2.742-1.391 4.829-2.558 7.188-4.563 2.5-1.875 2.5-1.875 7.062-3.313 4.438-1.562 4.438-1.562 6.313-4.062 2.997-3.526 6.191-3.667 10.59-4.688 3.381-1.083 4.396-3.052 6.535-5.812 2.509-0.897 5.041-1.527 7.621-2.191 3.307-1.124 4.962-3.332 7.379-5.809 2.535-1.14 5.108-2.079 7.719-3.031 2.281-0.969 2.281-0.969 4.343-3.031 1.938-1.938 1.938-1.938 6.376-3.376 4.562-1.562 4.562-1.562 7.062-4.062 3.376-3.376 7.012-4.004 11.5-5.5 0.804-0.825 1.609-1.65 2.438-2.5 2.748-2.682 4.01-3.073 7.624-4 4.712-1.218 4.712-1.218 6.938-4 2.737-3.421 5.48-3.626 9.617-4.688 3.302-1.126 4.973-3.341 7.383-5.812 3-1 6-2 9-3l2.5-2.5c3.376-3.376 7.012-4.004 11.5-5.5 0.804-0.825 1.609-1.65 2.438-2.5 2.748-2.682 4.01-3.073 7.624-4 4.726-1.218 4.726-1.218 6.813-4 3.132-3.685 6.802-3.806 11.445-4.629 0.885-0.287 1.769-0.575 2.68-0.871l2-4c3-2 3-2 6.875-2.812 4.516-1.3 6.05-2.762 9.125-6.188 3.669-1.223 5.291-1.091 9 0z" fill="#C50000"/>
<path transform="translate(975.2 544.63)" d="m0 0c1.334 0 2.668 0 4.043 1e-3 1.53-8e-3 3.059-0.015 4.635-0.022 1.702 8e-3 3.404 0.015 5.106 0.023 1.787-2e-3 3.574-6e-3 5.361-0.011 4.859-9e-3 9.719 0 14.578 0.014 5.081 0.011 10.161 7e-3 15.241 5e-3 8.534-1e-3 17.067 0.01 25.601 0.029 9.871 0.021 19.742 0.024 29.612 0.018 9.488-6e-3 18.975 0 28.463 0.011 4.041 5e-3 8.082 6e-3 12.123 4e-3 4.758-2e-3 9.516 6e-3 14.274 0.022 1.748 4e-3 3.496 5e-3 5.244 2e-3 2.383-3e-3 4.766 7e-3 7.148 0.018 1.335 2e-3 2.67 4e-3 4.044 6e-3 3.327 0.255 3.327 0.255 7.327 2.255 0.474 0.804 0.948 1.608 1.437 2.437 1.563 2.563 1.563 2.563 4.125 4.063 2.438 1.5 2.438 1.5 3.438 4.062 1 2.438 1 2.438 3.437 3.5 0.846 0.31 1.691 0.619 2.563 0.938 3 4 3 4 3 6 0.763 0.268 1.526 0.536 2.312 0.812 4.043 1.787 4.981 4.639 6.751 8.517 1.634 4.657 1.264 9.407 1.249 14.296 0.016 1.049 0.032 2.098 0.049 3.179 1e-3 1.006 1e-3 2.011 2e-3 3.047 3e-3 0.916 6e-3 1.832 9e-3 2.776-0.372 2.373-0.372 2.373-3.372 5.373-4.468 1.489-8.987 1.183-13.653 1.203-0.526 3e-3 -0.526 3e-3 -3.187 0.017-2.225 0.01-4.45 0.016-6.675 0.02-3.406 0.01-6.812 0.041-10.218 0.072-2.161 7e-3 -4.321 0.012-6.482 0.016-1.02 0.012-2.04 0.025-3.091 0.037-5.295-0.016-7.33-0.092-11.694-3.365-0.575-2.664-0.575-2.664-0.688-5.625-0.244-5.306-0.244-5.306-1.312-6.375-3.899-0.096-7.781-0.126-11.68-0.114h-3.725c-4.085 0-8.17 8e-3 -12.255 0.016-2.824 2e-3 -5.648 3e-3 -8.471 4e-3 -7.449 4e-3 -14.898 0.014-22.347 0.025-7.594 0.01-15.188 0.015-22.782 0.02-14.914 0.011-29.827 0.028-44.74 0.049-0.025 5.375-0.043 10.75-0.055 16.125-5e-3 1.83-0.012 3.659-0.021 5.488-0.012 2.627-0.018 5.253-0.022 7.879-5e-3 1.581-0.01 3.163-0.016 4.792 0.114 3.716 0.114 3.716 1.114 5.716 2.657 0.25 2.657 0.25 6.281 0.251 1.367 6e-3 2.734 0.011 4.143 0.017 1.514-5e-3 3.028-9e-3 4.589-0.013 2.43 6e-3 4.861 0.011 7.292 0.017 2.622 4e-3 5.243 4e-3 7.865 2e-3 5.458-3e-3 10.916 0.012 16.373 0.029 15.523 0.047 31.046 0.071 46.569 0.078 8.566 3e-3 17.133 0.021 25.7 0.055 5.427 0.02 10.854 0.022 16.281 0.011 4.169-3e-3 8.337 0.02 12.506 0.039 0.754-5e-3 0.754-5e-3 4.57-0.025 0.688 5e-3 0.688 5e-3 4.168 0.033 1.197 1e-3 2.394 2e-3 3.628 4e-3 3.681 0.609 4.703 1.663 7.035 4.502 1.854 1.854 3.726 3.691 5.625 5.5 2.375 2.5 2.375 2.5 3.375 5.5 0.392 0.123 0.392 0.123 2.375 0.75 2.625 1.25 2.625 1.25 4.264 4.371 1.407 4.01 1.741 6.957 1.749 11.188 9e-3 1.421 0.019 2.843 0.029 4.307-4e-3 0.76-4e-3 0.76-0.019 4.606 2e-3 0.787 2e-3 0.787 9e-3 4.77 2e-3 3.323-2e-3 6.645-0.016 9.968-0.017 4.249-7e-3 8.498 0.01 12.747 0.014 4.067 5e-3 8.135-3e-3 12.203 6e-3 1.522 0.012 3.044 0.019 4.612-5e-3 0.709-5e-3 0.709-0.029 4.298-3e-3 1.245-5e-3 2.49-7e-3 3.772-0.546 4.88-1.985 8.232-5.756 11.408-0.867 0.66-1.733 1.32-2.625 2-1.688 1.982-3.354 3.983-5 6-2.42 2.541-4.796 4.841-7.563 7-2.437 2-2.437 2-4.125 4.687-6.044 6.044-21.532 3.468-29.524 3.474-1.728 4e-3 -3.455 0.01-5.182 0.015-4.665 0.013-9.33 0.019-13.995 0.024-2.917 3e-3 -5.833 7e-3 -8.749 0.011-9.132 0.014-18.264 0.024-27.396 0.028-10.531 4e-3 -21.062 0.022-31.594 0.051-8.153 0.021-16.306 0.031-24.459 0.033-4.865 1e-3 -9.73 7e-3 -14.596 0.024-4.569 0.017-9.139 0.019-13.708 0.01-2.476-1e-3 -4.953 0.013-7.429 0.027-1.473-5e-3 -2.947-0.011-4.465-0.017-1.28 2e-3 -2.56 3e-3 -3.879 5e-3 -6.567-0.732-10.438-5.083-15.149-9.435-1.161-1.063-2.323-2.127-3.519-3.222-2.668-2.715-2.668-2.715-2.668-4.715l-4-2c-2.106-2.313-2.106-2.313-4.188-5-0.347-0.444-0.347-0.444-2.105-2.688-3.283-4.446-3.147-8.757-3.457-14.125-0.069-0.903-0.137-1.806-0.207-2.736-0.288-5.027-0.395-8.517 2.957-12.451 3.932-1.966 8.893-1.341 13.246-1.457 1.122-0.031 2.244-0.061 3.4-0.092 2.376-0.061 4.753-0.119 7.129-0.174 2.44-0.06 4.879-0.129 7.319-0.207 3.508-0.112 7.017-0.198 10.527-0.277 0.547-0.02 0.547-0.02 3.314-0.12 0.508-8e-3 0.508-8e-3 3.074-0.051 0.894-0.024 1.787-0.048 2.707-0.072 2.284 0.45 2.284 0.45 5.284 4.45 0.949 2.797 0.949 2.797 1.687 5.75 0.252 0.985 0.503 1.969 0.762 2.984 0.182 0.748 0.363 1.495 0.551 2.266 15.707 0.092 31.414 0.163 47.122 0.207 7.293 0.021 14.586 0.049 21.879 0.094 7.035 0.044 14.07 0.068 21.105 0.078 2.687 8e-3 5.375 0.022 8.062 0.044 3.757 0.029 7.513 0.033 11.27 0.031 1.117 0.014 2.234 0.029 3.385 0.043 1.024-5e-3 2.047-0.011 3.102-0.016 0.444 2e-3 0.444 2e-3 2.693 0.011 3.182-0.658 4.364-1.998 6.382-4.492 1.159-3.478 1.113-6.188 1.097-9.856-3e-3 -1.344-6e-3 -2.687-9e-3 -4.072-9e-3 -1.406-0.017-2.811-0.026-4.26-2e-3 -0.708-2e-3 -0.708-0.014-4.295-0.011-3.506-0.028-7.011-0.048-10.517-3.766-0.942-6.594-1.114-10.446-1.094-1.328 5e-3 -2.655 9e-3 -4.023 0.014-1.456 0.01-2.911 0.02-4.41 0.03-1.534 6e-3 -3.067 0.012-4.647 0.019-3.335 0.014-6.67 0.029-10.005 0.047-5.274 0.028-10.547 0.045-15.821 0.06-1.805 5e-3 -3.611 0.01-5.417 0.015-0.904 3e-3 -1.808 5e-3 -2.74 8e-3 -12.276 0.036-24.553 0.082-36.829 0.148-8.282 0.044-16.565 0.074-24.847 0.088-4.383 8e-3 -8.765 0.024-13.148 0.057-4.886 0.037-9.773 0.043-14.659 0.046-1.453 0.016-2.907 0.032-4.404 0.048-1.33-4e-3 -2.661-8e-3 -4.032-0.012-0.577 3e-3 -0.577 3e-3 -3.501 0.015-3.76-0.599-5.369-1.856-8.071-4.489l-2-3c-0.825-0.454-1.65-0.908-2.5-1.375-2.5-1.625-2.5-1.625-3.5-4.188-0.33-0.804-0.66-1.609-1-2.437-0.768-0.294-1.536-0.589-2.327-0.892-5.033-2.087-7.452-6.287-9.673-11.108-0.897-5.106-0.796-10.068-0.649-15.239 0.013-1.438 0.025-2.877 0.037-4.36 0.046-4.572 0.14-9.142 0.237-13.714 0.065-4.589 0.12-9.178 0.172-13.767 0.035-2.849 0.081-5.699 0.136-8.548 0.023-1.288 0.046-2.577 0.069-3.905 0.023-1.131 0.047-2.262 0.071-3.428-0.073-3.039-0.073-3.039-0.643-5.797-0.43-2.242-0.43-2.242 0.679-4.594 0.541-0.75 1.083-1.5 1.641-2.273 0.531-0.756 1.062-1.511 1.609-2.289 6.004-7.634 22.402-28.356 31.841-29.461z" fill="#C60000"/>
<path transform="translate(2348.2 544.62)" d="m0 0c0.844-5e-3 1.689-9e-3 2.559-0.014 2.839-0.012 5.679-3e-3 8.519 7e-3 2.031-4e-3 4.063-0.01 6.095-0.016 5.527-0.014 11.053-9e-3 16.58 1e-3 5.778 8e-3 11.556 1e-3 17.334-4e-3 9.706-6e-3 19.413 2e-3 29.119 0.016 11.226 0.016 22.452 0.011 33.678-6e-3 9.631-0.013 19.261-0.015 28.892-7e-3 5.755 4e-3 11.511 5e-3 17.266-5e-3 5.412-9e-3 10.824-3e-3 16.237 0.015 1.987 4e-3 3.975 3e-3 5.963-4e-3 2.711-8e-3 5.422 2e-3 8.133 0.017 1.518 1e-3 3.036 2e-3 4.6 3e-3 10.049 0.988 18.675 11.621 24.839 18.94 3 3.438 3 3.438 5.5 5.438 3.765 3.012 7.329 6.656 9.5 11 0.112 3.525 0.165 7.029 0.168 10.555 4e-3 1.053 7e-3 2.106 0.01 3.191 5e-3 2.231 8e-3 4.462 8e-3 6.693 2e-3 3.415 0.02 6.83 0.039 10.245 3e-3 2.165 5e-3 4.33 6e-3 6.496 7e-3 1.023 0.014 2.046 0.022 3.1-0.02 5.936-0.294 9.593-4.44 14.095-2.072 1.934-4.207 3.8-6.375 5.625-2.925 2.552-5.09 4.949-7.438 8-3.761 3.964-7.853 7.446-12 11-2.272 2.215-4.492 4.47-6.687 6.762-2.647 2.721-4.894 5.029-8.313 6.738l-2 1.5c0.096 6.058 1.977 8.682 6.188 12.875 3.447 3.559 6.548 6.928 9.187 11.125 2.378 3.623 4.249 5.445 7.625 8 1 1.667 2 3.333 3 5 1.663 1.338 3.33 2.672 5 4l2 4c0.784 0.454 1.568 0.907 2.375 1.375 3.275 2.027 4.534 4.422 6.625 7.625 0.856 0.476 1.712 0.951 2.594 1.441 3.954 4.205 3.05 9.018 2.906 14.559 3e-3 1.093 6e-3 2.186 8e-3 3.312-0.1 8.144-0.1 8.144-3.508 12.688-3.124 0.393-5.891 0.537-9.015 0.496-0.445 1e-3 -0.445 1e-3 -2.695 4e-3 -1.883-1e-3 -3.766-0.013-5.649-0.033-2.866-0.029-5.731-0.021-8.598-8e-3 -1.832-6e-3 -3.664-0.015-5.496-0.025-0.425 1e-3 -0.425 1e-3 -2.579 8e-3 -6.461-0.101-11.506-1.228-16.374-5.606-0.691-0.812-1.382-1.624-2.094-2.461-0.765-0.892-1.531-1.784-2.32-2.703-2.473-3.032-4.855-6.122-7.215-9.242-3.305-4.087-6.973-7.841-10.609-11.633-2.356-2.797-2.356-2.797-3.43-5.531-0.926-2.266-0.926-2.266-4.926-4.266-1.683-1.986-3.349-3.987-5-6-0.887-0.701-1.773-1.403-2.687-2.125-2.313-1.875-2.313-1.875-4.313-5.875-0.783-0.454-1.567-0.908-2.375-1.375-3.258-2.017-4.534-4.455-6.625-7.625l-4-2c-1.343-1.993-2.676-3.994-4-6-1.629-1.379-3.297-2.713-5-4-0.604-0.853-1.209-1.705-1.831-2.584-5.05-3.851-10.246-3.091-16.423-3.01h-3.918c-2.731 5e-3 -5.462 0.023-8.193 0.052-4.185 0.042-8.369 0.041-12.555 0.034-2.653 0.011-5.306 0.024-7.959 0.039-0.627 0-0.627 0-3.8 1e-3 -1.165 0.016-2.33 0.032-3.53 0.048-1.024 8e-3 -2.048 0.017-3.103 0.026-2.688 0.394-2.688 0.394-6.688 3.394-0.467 3.195-0.467 3.195-0.422 7.194 7e-3 1.494 0.014 2.989 0.02 4.529 0.027 1.619 0.054 3.238 0.082 4.906 0.013 1.672 0.023 3.345 0.032 5.017 0.026 4.404 0.075 8.807 0.13 13.211 0.086 7.052 0.146 14.104 0.192 21.156 0.021 2.468 0.056 4.935 0.09 7.402 0.013 1.492 0.026 2.984 0.04 4.521 0.016 1.319 0.033 2.637 0.05 3.996-0.214 3.068-0.214 3.068-2.214 5.068-3.391 0.905-6.61 1.134-10.11 1.161-0.99 0.01-1.981 0.019-3.002 0.029-0.53 2e-3 -0.53 2e-3 -3.208 0.013-1.096 6e-3 -2.191 0.011-3.32 0.017-2.311 0.01-4.623 0.016-6.934 0.02-3.545 0.01-7.088 0.041-10.633 0.072-2.246 7e-3 -4.492 0.012-6.738 0.016-1.062 0.012-2.125 0.025-3.22 0.037-7.492-0.022-7.492-0.022-10.835-3.365-0.377-3.625-0.377-3.625-0.381-8.275-4e-3 -0.854-9e-3 -1.708-0.014-2.588-0.012-2.872-2e-3 -5.743 7e-3 -8.616-4e-3 -2.054-9e-3 -4.109-0.016-6.164-0.013-5.588-8e-3 -11.177 1e-3 -16.766 8e-3 -5.84 1e-3 -11.68-4e-3 -17.52-5e-3 -9.809 2e-3 -19.618 0.016-29.427 0.017-11.351 0.011-22.702-5e-3 -34.053-0.014-9.735-0.016-19.469-8e-3 -29.203 5e-3 -5.819 5e-3 -11.638-5e-3 -17.457-8e-3 -5.469-2e-3 -10.939 0.015-16.409 4e-3 -2.011 3e-3 -4.022-4e-3 -6.033-8e-3 -2.738 2e-3 -5.476 0.017-8.214 2e-3 -1.535 3e-3 -3.069 4e-3 -4.65 0.776-7.45 5.191-7.001 11.563-7.006zm47.814 50.381c-0.517 3.512-0.517 3.512-0.531 7.687-5e-3 1.503-0.01 3.007-0.016 4.555 0.016 1.57 0.031 3.14 0.047 4.758-0.015 1.57-0.031 3.14-0.047 4.758 6e-3 1.503 0.011 3.006 0.016 4.554 5e-3 1.378 9e-3 2.756 0.014 4.176 0.517 3.512 0.517 3.512 1.889 5.698 4.094 2.826 8.391 2.378 13.193 2.347 1.075 9e-3 2.15 0.018 3.258 0.027 3.558 0.022 7.115 0.015 10.673 6e-3 2.471 6e-3 4.942 0.012 7.413 0.019 5.181 0.011 10.362 6e-3 15.543-9e-3 6.643-0.017 13.284 7e-3 19.927 0.042 5.104 0.022 10.207 0.02 15.311 0.012 2.449-1e-3 4.898 6e-3 7.347 0.021 3.424 0.017 6.846 3e-3 10.27-0.02 1.013 0.012 2.027 0.023 3.071 0.035 4.502-0.06 7.048-0.205 10.619-3.069 0.33-0.428 0.33-0.428 2.003-2.597 0.908-0.722 1.815-1.444 2.75-2.188 2.25-1.812 2.25-1.812 3.25-3.812 0.272-4.641 0.232-9.29 0.25-13.938 0.021-1.301 0.042-2.602 0.063-3.943 5e-3 -1.244 0.01-2.489 0.015-3.771 0.01-1.145 0.019-2.29 0.029-3.469-0.357-2.879-0.357-2.879-3.357-5.879-3.787-0.303-7.411-0.42-11.201-0.404-1.154-7e-3 -2.309-0.014-3.499-0.021-3.828-0.018-7.655-0.014-11.483-9e-3 -2.654-4e-3 -5.309-0.01-7.963-0.016-5.567-8e-3 -11.135-6e-3 -16.703 4e-3 -7.143 0.011-14.287-9e-3 -21.431-0.038-5.482-0.018-10.965-0.018-16.447-0.012-2.635 0-5.269-6e-3 -7.903-0.019-3.68-0.015-7.359-4e-3 -11.039 0.013-1.094-9e-3 -2.188-0.019-3.314-0.029-0.502 5e-3 -0.502 5e-3 -3.038 0.03h-2.636c-3.164 0.676-4.366 1.988-6.343 4.501z" fill="#C60000"/>
<path transform="translate(575.59 544.63)" d="m0 0c1.517 0 3.034 0 4.598 1e-3 0.422-2e-3 0.422-2e-3 2.558-0.013 2.84-9e-3 5.679 3e-3 8.519 0.014 2.032-2e-3 4.064-6e-3 6.095-0.011 5.527-9e-3 11.054 0 16.581 0.014 5.778 0.011 11.556 7e-3 17.334 5e-3 9.706-1e-3 19.412 0.01 29.119 0.029 11.226 0.021 22.452 0.024 33.678 0.018 10.79-6e-3 21.58 0 32.371 0.011 4.595 5e-3 9.191 6e-3 13.787 4e-3 5.412-2e-3 10.824 6e-3 16.236 0.022 1.988 4e-3 3.976 5e-3 5.964 2e-3 2.711-3e-3 5.421 6e-3 8.132 0.018 1.518 2e-3 3.036 4e-3 4.6 6e-3 6.575 0.436 9.46 2.447 13.84 7.255 0.969 1.155 1.939 2.31 2.938 3.5 2.836 3.242 5.722 5.799 9.062 8.5 2.75 2.616 5.21 5.255 7.625 8.187 2.375 2.813 2.375 2.813 5.375 4.813 1.083 3.249 1.129 5.609 1.134 9.028 2e-3 0.63 2e-3 0.63 0.013 3.82-1e-3 1.385-1e-3 2.771-2e-3 4.198 4e-3 1.457 7e-3 2.914 0.01 4.416 0.01 4.834 0.012 9.668 0.013 14.503 2e-3 2.503 5e-3 5.006 7e-3 7.509 9e-3 7.873 0.011 15.746 0.01 23.619 0 8.126 0.01 16.252 0.026 24.378 0.013 6.973 0.019 13.946 0.018 20.919 0 4.167 3e-3 8.333 0.013 12.499 0.01 4.645 7e-3 9.29 1e-3 13.935 6e-3 1.383 0.011 2.767 0.017 4.192-4e-3 1.263-8e-3 2.527-0.013 3.828 1e-3 1.099 1e-3 2.197 2e-3 3.329-0.249 2.827-0.249 2.827-2.249 6.827-0.825 0.309-1.65 0.618-2.5 0.937-2.5 1.063-2.5 1.063-3.562 3.5-0.31 0.846-0.619 1.691-0.938 2.563-4 3-4 3-6 3-0.289 0.763-0.577 1.526-0.875 2.312-1.125 2.688-1.125 2.688-5.125 5.688h-2c-0.309 0.783-0.619 1.567-0.937 2.375-1.063 2.625-1.063 2.625-4.063 4.625-4.471 1.279-8.93 1.131-13.553 1.14-0.43 2e-3 -0.43 2e-3 -2.606 9e-3 -2.879 9e-3 -5.759 0.01-8.638 0.012-2.065 4e-3 -4.13 0.01-6.195 0.015-5.607 0.013-11.214 0.019-16.821 0.024-3.501 3e-3 -7.002 7e-3 -10.503 0.011-10.947 0.014-21.894 0.024-32.842 0.028-12.649 4e-3 -25.299 0.022-37.949 0.051-9.772 0.021-19.545 0.031-29.317 0.033-5.84 1e-3 -11.68 7e-3 -17.52 0.024-5.488 0.017-10.976 0.019-16.464 0.01-2.017 0-4.035 4e-3 -6.053 0.014-2.747 0.012-5.493 7e-3 -8.239-4e-3 -0.77 1e-3 -0.77 1e-3 -4.665 5e-3 -3.635-0.372-3.635-0.372-6.635-3.372-0.377-3.625-0.377-3.625-0.381-8.275-5e-3 -0.854-9e-3 -1.708-0.014-2.588-0.012-2.872-3e-3 -5.744 7e-3 -8.616-4e-3 -2.054-0.01-4.109-0.016-6.164-0.014-5.589-8e-3 -11.177 1e-3 -16.766 8e-3 -5.84 1e-3 -11.68-4e-3 -17.521-6e-3 -9.808 2e-3 -19.617 0.016-29.426 0.016-11.351 0.011-22.702-6e-3 -34.053-0.013-9.735-0.015-19.469-7e-3 -29.203 4e-3 -5.819 5e-3 -11.638-5e-3 -17.457-9e-3 -5.47-3e-3 -10.939 0.015-16.409 4e-3 -2.011 3e-3 -4.022-4e-3 -6.034-8e-3 -2.738 2e-3 -5.475 0.017-8.213 1e-3 -1.535 2e-3 -3.069 4e-3 -4.65 0.526-5.057 1.901-6.471 6.965-7zm53.797 48.214c-2.095 4.781-1.903 9.209-1.827 14.373 2e-3 1.133 3e-3 2.265 4e-3 3.431 9e-3 3.743 0.049 7.485 0.09 11.228 0.018 2.601 0.034 5.203 0.049 7.805 0.036 5.453 0.088 10.906 0.15 16.359 0.078 6.989 0.115 13.977 0.14 20.966 0.024 5.373 0.072 10.746 0.127 16.119 0.023 2.577 0.038 5.153 0.046 7.73 0.014 3.603 0.059 7.205 0.113 10.808-2e-3 1.064-5e-3 2.129-7e-3 3.226 0.101 4.704 0.437 7.567 2.682 11.776 4.099 3.147 7.575 3.184 12.545 3.116 0.95 0.011 1.9 0.021 2.879 0.032 3.14 0.026 6.277 9e-3 9.417-0.011 2.189 4e-3 4.377 9e-3 6.566 0.017 4.589 9e-3 9.177-4e-3 13.766-0.032 5.864-0.034 11.725-0.015 17.589 0.021 4.522 0.022 9.044 0.015 13.566 0 2.16-4e-3 4.321 0 6.481 0.015 20.951 0.106 20.951 0.106 29.239-6.818 2.075-2.267 4.091-4.592 6-7l4-3c1.326-3.979 1.143-7.473 1.161-11.675 5e-3 -0.887 0.01-1.773 0.015-2.687 0.015-2.936 0.022-5.873 0.027-8.81 6e-3 -2.042 0.012-4.083 0.017-6.125 0.011-4.284 0.017-8.568 0.02-12.852 6e-3 -5.482 0.03-10.964 0.058-16.446 0.019-4.219 0.024-8.438 0.026-12.657 3e-3 -2.021 0.011-4.041 0.024-6.062 0.017-2.831 0.015-5.662 8e-3 -8.494 4e-3 -1.61 8e-3 -3.219 0.012-4.878-0.509-5.967-1.795-9.878-6.243-13.939-1.031-0.784-2.062-1.568-3.125-2.375-0.675-0.861-1.349-1.722-2.044-2.608-4.215-3.411-8.184-3.093-13.374-3.039-1.048-9e-3 -2.096-0.018-3.175-0.027-3.46-0.022-6.919-7e-3 -10.38 0.01-2.404-4e-3 -4.809-9e-3 -7.214-0.015-5.038-7e-3 -10.075 4e-3 -15.113 0.027-6.462 0.028-12.924 0.012-19.386-0.018-4.965-0.018-9.929-0.012-14.893 1e-3 -2.384 3e-3 -4.767-1e-3 -7.15-0.013-3.328-0.012-6.654 7e-3 -9.982 0.035-0.988-0.01-1.975-0.02-2.993-0.031-3.929 0.061-6.652 0.224-9.911 2.517z" fill="#C60000"/>
<path transform="translate(1539.5 544.41)" d="m0 0c1.541-4e-3 3.082-8e-3 4.669-0.013 1.704 0.021 3.408 0.042 5.112 0.064 1.797 5e-3 3.595 7e-3 5.392 8e-3 4.878 8e-3 9.756 0.048 14.634 0.094 5.103 0.045 10.206 0.064 15.309 0.087 8.569 0.042 17.137 0.105 25.706 0.181 9.91 0.086 19.821 0.141 29.731 0.178 9.531 0.036 19.061 0.095 28.591 0.165 4.058 0.029 8.116 0.05 12.173 0.065 4.777 0.019 9.553 0.057 14.329 0.111 1.754 0.016 3.509 0.026 5.263 0.029 2.392 4e-3 4.783 0.036 7.174 0.069 0.67 5e-3 0.67 5e-3 4.059 0.03 3.827 0.599 5.066 1.436 7.336 4.522v2l4 2c1.676 1.993 3.341 3.994 5 6 2.313 2.024 4.646 4.025 7 6 4.141 3.859 7.634 7.198 8.391 12.991 7e-3 1.117 0.014 2.234 0.021 3.385 0.016 1.287 0.031 2.574 0.047 3.9 2e-3 1.405 4e-3 2.81 5e-3 4.257 0.014 1.485 0.027 2.97 0.041 4.5 0.033 4.069 0.054 8.136 0.067 12.205 0.017 4.259 0.049 8.518 0.079 12.777 0.048 7.152 0.084 14.304 0.113 21.456 0.033 8.267 0.084 16.534 0.145 24.8 0.058 7.955 0.105 15.911 0.146 23.866 0.017 3.384 0.039 6.768 0.063 10.152 0.032 4.726 0.05 9.452 0.065 14.178 6e-3 0.702 6e-3 0.702 0.036 4.257 1e-3 1.287 3e-3 2.574 4e-3 3.9 3e-3 0.559 3e-3 0.559 0.016 3.385-0.247 3.092-0.816 5.244-2.239 7.991-1.663 1.007-3.33 2.006-5 3-1.342 1.994-2.676 3.994-4 6l-4 2-2 3c-2 3-2 3-6 5-0.577 1.011-1.155 2.021-1.75 3.063-2.25 2.937-2.25 2.937-5.908 3.612-4.039 0.303-8.01 0.456-12.059 0.466-0.754 3e-3 -0.754 3e-3 -4.571 0.017-0.818 1e-3 -0.818 1e-3 -4.956 3e-3l-5.265 0.015c-4.75 0.013-9.5 0.02-14.25 0.024-2.969 3e-3 -5.938 7e-3 -8.907 0.012-9.294 0.014-18.589 0.023-27.884 0.027-10.721 5e-3 -21.443 0.022-32.164 0.051-8.297 0.022-16.593 0.032-24.89 0.033-4.952 1e-3 -9.904 7e-3 -14.856 0.025-4.654 0.016-9.308 0.019-13.962 0.01-2.52-1e-3 -5.04 0.012-7.561 0.027-1.502-6e-3 -3.005-0.012-4.554-0.017-0.652 0-0.652 0-3.951 4e-3 -7.569-0.802-11.43-5.013-16.512-10.372-2.386-2.443-4.66-4.741-7.375-6.812-4.591-3.826-11.279-9.712-11.892-15.873-8e-3 -1.091-0.016-2.181-0.025-3.305-0.014-1.252-0.028-2.504-0.042-3.794-6e-3 -1.377-0.011-2.753-0.016-4.171-0.014-1.447-0.027-2.894-0.041-4.385-0.041-4.802-0.067-9.604-0.093-14.406-0.024-3.327-0.048-6.653-0.073-9.98-0.051-6.98-0.093-13.96-0.131-20.94-0.043-8.071-0.101-16.143-0.167-24.214-0.056-6.926-0.104-13.853-0.145-20.78-0.025-4.138-0.053-8.276-0.087-12.414-0.036-4.614-0.06-9.228-0.08-13.842-0.013-1.374-0.027-2.748-0.04-4.164-3e-3 -1.255-6e-3 -2.509-9e-3 -3.802-6e-3 -1.092-0.013-2.183-0.02-3.307 0.459-5.461 3.423-8.251 7.236-11.811 1.155-0.969 2.31-1.939 3.5-2.937 3.242-2.837 5.8-5.723 8.5-9.063 3.455-3.631 7.153-6.794 11-10 0.732-0.864 1.464-1.729 2.218-2.619 3.623-3.1 5.578-2.995 10.304-2.971zm26.916 52.528c-0.805 1.01-1.609 2.021-2.438 3.062-0.722 0.64-1.443 1.279-2.187 1.938-4.351 4.951-4.065 11.587-4.072 17.856-3e-3 0.851-7e-3 1.702-0.01 2.579-9e-3 2.795-3e-3 5.59 4e-3 8.385l-6e-3 5.853c-3e-3 4.08 1e-3 8.16 0.011 12.24 0.011 5.227 4e-3 10.453-8e-3 15.68-7e-3 4.025-5e-3 8.05 1e-3 12.075 1e-3 1.928-1e-3 3.855-5e-3 5.782-5e-3 2.693 2e-3 5.385 0.013 8.078 2e-3 1.531 4e-3 3.062 5e-3 4.639 0.231 3.543 0.536 5.821 2.254 8.895 1.981 1.362 3.981 2.696 6 4l2 4c6.634 6.655 13.693 7.748 22.826 7.774 2.763-0.031 5.525-0.098 8.288-0.168 1.942-0.026 3.885-0.048 5.828-0.069 4.053-0.05 8.104-0.124 12.156-0.216 5.186-0.118 10.371-0.186 15.558-0.238 4.004-0.044 8.008-0.108 12.011-0.179 1.913-0.032 3.825-0.059 5.738-0.082 2.671-0.035 5.34-0.096 8.011-0.165 1.516-0.03 3.033-0.06 4.596-0.091 4.409-0.625 6.533-1.829 9.988-4.566 0.99-0.742 1.98-1.485 3-2.25 4.256-3.901 8.147-8.191 10-13.75 0.112-2.767 0.16-5.538 0.177-8.307 4e-3 -0.424 4e-3 -0.424 0.02-2.569 0.02-2.807 0.032-5.614 0.042-8.421 4e-3 -0.959 8e-3 -1.918 0.012-2.907 0.021-5.078 0.035-10.157 0.044-15.235 0.011-5.24 0.046-10.48 0.086-15.72 0.026-4.034 0.034-8.068 0.038-12.101 5e-3 -1.932 0.016-3.863 0.035-5.794 0.024-2.707 0.023-5.413 0.016-8.121 6e-3 -1.538 0.012-3.077 0.018-4.662-0.743-6.34-3.724-10.145-7.488-15.163-0.804-0.474-1.608-0.949-2.437-1.437-2.563-1.563-2.563-1.563-4.149-4.122-2.932-2.965-4.869-3.039-8.948-3.096-0.876 0.013-1.751 0.026-2.653 0.04-0.464-3e-3 -0.464-3e-3 -2.815-0.017-3.071-0.012-6.141 0.013-9.213 0.038-2.134 2e-3 -4.269 2e-3 -6.404 0-4.474 2e-3 -8.949 0.021-13.423 0.052-5.735 0.04-11.469 0.044-17.204 0.037-4.408-3e-3 -8.817 9e-3 -13.226 0.026-2.114 7e-3 -4.228 0.01-6.343 9e-3 -2.956 2e-3 -5.912 0.023-8.868 0.05-0.874-3e-3 -1.747-6e-3 -2.647-9e-3 -6.705 0.095-9.867 1.362-14.232 6.367z" fill="#C60000"/>
<path transform="translate(2096.1 545.83)" d="m0 0c1.523-0.011 3.045-0.023 4.614-0.035 1.699-7e-3 3.398-0.015 5.097-0.022 1.78-0.011 3.561-0.023 5.341-0.035 5.86-0.036 11.719-0.062 17.578-0.084 0.997-4e-3 1.994-8e-3 3.02-0.012 9.398-0.037 18.796-0.068 28.193-0.089 12.024-0.028 24.047-0.079 36.07-0.161 8.452-0.056 16.903-0.085 25.356-0.094 5.048-6e-3 10.096-0.024 15.145-0.071 4.752-0.044 9.504-0.054 14.257-0.04 1.741 0 3.483-0.012 5.224-0.038 14.789-0.203 14.789-0.203 19.927 4.227 1.017 1.195 2.034 2.39 3.082 3.621 0.956 0.908 1.911 1.816 2.896 2.751 2.831 2.807 5.659 5.618 8.479 8.437 0.996 0.984 1.993 1.968 3.019 2.982 0.475 0.474 0.475 0.474 2.879 2.873 0.43 0.428 0.43 0.428 2.607 2.595 5.218 5.816 4.453 11.577 4.432 18.925 0.017 1.149 0.033 2.298 0.049 3.482 1e-3 1.1 2e-3 2.201 2e-3 3.334 3e-3 1.006 6e-3 2.013 9e-3 3.049-0.372 2.572-0.372 2.572-3.372 5.572-2.384 0.381-2.384 0.381-5.234 0.389-0.534 4e-3 -0.534 4e-3 -3.237 0.028-1.153-6e-3 -2.306-0.012-3.494-0.018-0.592 1e-3 -0.592 1e-3 -3.59 8e-3 -2.508 3e-3 -5.015-3e-3 -7.523-0.016-3.841-0.016-7.681 0-11.522 0.02-2.434-2e-3 -4.868-6e-3 -7.302-0.012-1.152 6e-3 -2.303 0.012-3.489 0.018-0.535-5e-3 -0.535-5e-3 -3.246-0.028-0.941-3e-3 -1.882-5e-3 -2.852-8e-3 -2.511-0.381-2.511-0.381-6.511-3.381-0.574-2.664-0.574-2.664-0.688-5.625-0.243-5.306-0.243-5.306-1.312-6.375-3.675-0.101-7.331-0.136-11.006-0.129-1.157-2e-3 -2.315-4e-3 -3.508-5e-3 -3.848-5e-3 -7.696-2e-3 -11.545 2e-3 -2.661-1e-3 -5.323-2e-3 -7.985-3e-3 -5.588-2e-3 -11.176 0-16.764 5e-3 -7.178 6e-3 -14.355 2e-3 -21.533-4e-3 -5.499-3e-3 -10.999-2e-3 -16.499 1e-3 -2.647 0-5.294-1e-3 -7.941-3e-3 -3.695-2e-3 -7.389 1e-3 -11.084 7e-3 -0.552-1e-3 -0.552-1e-3 -3.345-6e-3 -7.562 0.021-7.562 0.021-9.79 1.135-0.201 2.786-0.262 5.582-0.266 8.375-2e-3 0.84-4e-3 1.68-6e-3 2.545-1e-3 1.779 3e-3 3.557 0.011 5.336 0.011 2.733 0 5.465-0.013 8.197 2e-3 1.724 4e-3 3.448 8e-3 5.172 3e-3 1.581 5e-3 3.161 7e-3 4.789 0.086 1.184 0.171 2.367 0.259 3.586 2.831 1.416 5.224 1.141 8.39 1.158 0.672 5e-3 0.672 5e-3 4.076 0.031 0.731 4e-3 0.731 4e-3 4.428 0.022 3.07 0.028 6.14 0.057 9.209 0.086 4.859 0.042 9.718 0.078 14.577 0.105 4.676 0.027 9.351 0.073 14.027 0.122 1.455 3e-3 2.911 6e-3 4.41 0.01 0.677 8e-3 0.677 8e-3 4.105 0.05 1.191 8e-3 2.382 0.016 3.609 0.024 3.483 0.431 5.397 1.266 8.169 3.392 0.647 2.401 0.647 2.401 0.664 5.227 6e-3 1.032 0.013 2.065 0.019 3.129-0.019 1.079-0.038 2.158-0.058 3.269 0.019 1.056 0.039 2.112 0.058 3.2-0.046 7.483-1.465 11.979-5.683 18.175-3.125 2.813-3.125 2.813-6 5-0.99 1.32-1.98 2.64-3 4-2.587 0.506-2.587 0.506-5.725 0.515-1.174 0.013-2.349 0.026-3.559 0.04-1.269-5e-3 -2.538-0.01-3.845-0.016-0.65 6e-3 -0.65 6e-3 -3.941 0.036-4.164 0.036-8.328 0.045-12.493 0.05-4.167 0.017-8.335 0.039-12.503 0.072-2.596 0.02-5.193 0.029-7.789 0.027-1.171 7e-3 -2.343 0.014-3.55 0.021-1.034 1e-3 -2.069 3e-3 -3.135 4e-3 -2.46 0.251-2.46 0.251-4.46 2.251-0.468 5.255-0.324 10.54-0.313 15.813-8e-3 0.738-8e-3 0.738-0.048 4.471-1e-3 1.418-2e-3 2.837-2e-3 4.298-3e-3 1.302-6e-3 2.604-9e-3 3.945 0.426 3.976 0.642 5.538 3.372 8.473 3.794 0.508 7.141 0.683 10.941 0.647 1.127 9e-3 2.254 0.018 3.416 0.027 3.735 0.022 7.47 7e-3 11.205-0.01 2.59 4e-3 5.179 9e-3 7.768 0.015 5.431 7e-3 10.861-3e-3 16.292-0.027 6.971-0.028 13.942-0.012 20.913 0.018 5.348 0.018 10.696 0.012 16.044-1e-3 2.571-3e-3 5.142 1e-3 7.713 0.013 3.589 0.012 7.177-7e-3 10.766-0.035 1.07 0.01 2.139 0.021 3.24 0.031 2.958-0.043 2.958-0.043 7.702-0.678 2.129-2.389 2.129-2.389 3-5 0.145-0.399 0.145-0.399 0.879-2.422 0.225-0.768 0.451-1.536 0.683-2.328 1.438-4.25 1.438-4.25 3.438-5.25 1.709-0.144 3.422-0.229 5.136-0.284 1.072-0.036 2.143-0.072 3.247-0.11 4.891-0.136 9.782-0.268 14.674-0.383 2.586-0.065 5.171-0.141 7.755-0.228 3.717-0.124 7.434-0.215 11.153-0.299 1.159-0.045 2.319-0.089 3.513-0.135 1.075-0.017 2.149-0.035 3.256-0.052 0.947-0.026 1.893-0.052 2.869-0.079 2.397 0.57 2.397 0.57 4.202 2.925 1.371 3.036 1.582 5.174 1.593 8.497 4e-3 1.098 8e-3 2.196 0.012 3.328-6e-3 0.569-6e-3 0.569-0.035 3.445 0.012 1.145 0.023 2.29 0.035 3.469-4e-3 1.096-8e-3 2.192-0.012 3.32-3e-3 1-6e-3 2-0.01 3.03-0.388 2.556-0.388 2.556-3.388 5.556-0.371 0.382-0.371 0.382-2.25 2.313-2.75 2.687-2.75 2.687-6.313 5.687-2.924 2.553-5.09 4.949-7.437 8-1.647 1.687-3.312 3.355-5 5l-3 3c-4.864 1.028-9.631 1.128-14.59 1.134-0.753 2e-3 -0.753 2e-3 -4.563 0.013-1.637 0-3.275-1e-3 -4.962-1e-3 -1.754 3e-3 -3.507 6e-3 -5.26 0.01-4.75 9e-3 -9.5 0.011-14.25 0.012-2.969 0-5.938 2e-3 -8.907 5e-3 -10.363 9e-3 -20.726 0.013-31.089 0.013-9.654-1e-3 -19.307 0.01-28.961 0.025-8.296 0.013-16.592 0.019-24.887 0.018-4.952 0-9.903 3e-3 -14.855 0.013-4.655 0.01-9.311 0.01-13.967 3e-3 -2.518-2e-3 -5.037 7e-3 -7.556 0.015-1.506-4e-3 -3.012-8e-3 -4.563-0.012-1.304 0-2.609 1e-3 -3.953 1e-3 -5.562-0.38-9.438-0.935-13.262-5.124-0.784-1.031-1.568-2.062-2.375-3.125-1.646-1.358-3.313-2.692-5-4-2.875-2.727-5.444-5.527-8-8.562-3-3.438-3-3.438-5.648-5.262-2.352-2.176-2.352-2.176-2.979-5.041 0-1.116-1e-3 -2.233-1e-3 -3.384-0.013-1.284-0.026-2.568-0.039-3.891 0.012-1.407 0.024-2.814 0.036-4.263-7e-3 -1.484-0.015-2.967-0.022-4.495-0.014-4.069-5e-3 -8.136 0.014-12.205 0.017-4.258 8e-3 -8.517 3e-3 -12.776-5e-3 -7.154 0.011-14.307 0.039-21.461 0.032-8.267 0.032-16.532 0.015-24.799-0.016-7.954-9e-3 -15.909 8e-3 -23.863 7e-3 -3.384 6e-3 -6.767-2e-3 -10.151-5e-3 -4.728 0.015-9.456 0.042-14.184-6e-3 -1.403-0.013-2.806-0.019-4.251 0.012-1.29 0.025-2.58 0.038-3.909 3e-3 -1.117 6e-3 -2.235 9e-3 -3.386 1.066-6.563 5.968-10.827 10.514-15.355 1.151-1.149 2.302-2.298 3.488-3.482 0.595-0.59 1.191-1.179 1.804-1.786 1.832-1.813 3.655-3.634 5.477-5.457 10.206-10.154 10.206-10.154 18.319-10.204z" fill="#C60000"/>
<path transform="translate(1259.2 544.88)" d="m0 0c1.544-2e-3 3.087-3e-3 4.678-5e-3 1.723 3e-3 3.445 7e-3 5.168 0.011h5.415c5.939 1e-3 11.878 0.013 17.816 0.027 1.01 2e-3 2.019 4e-3 3.059 7e-3 9.517 0.021 19.033 0.046 28.549 0.081 12.183 0.044 24.366 0.069 36.55 0.066 8.561 0 17.121 0.022 25.682 0.061 5.116 0.023 10.231 0.036 15.347 0.025 4.813-0.011 9.625 7e-3 14.437 0.046 1.767 0.01 3.534 9e-3 5.301-2e-3 2.411-0.015 4.822 0.011 7.233 0.039 1.349 4e-3 2.699 7e-3 4.09 0.01 4.601 1 5.806 2.994 8.483 6.757 1.979 1.691 3.979 3.358 6 5 2.708 2.576 5.135 5.165 7.5 8.062 2.5 2.938 2.5 2.938 5.187 5 3.389 2.84 4.181 5.578 4.603 9.936 0.049 3.543 0.081 7.084 0.085 10.627 0.024 1.24 0.049 2.48 0.074 3.757 4e-3 1.186 8e-3 2.372 0.012 3.594 8e-3 1.084 0.016 2.167 0.025 3.284-0.486 2.74-0.486 2.74-4.486 5.74-3.631 0.294-7.085 0.42-10.715 0.398-0.524 2e-3 -0.524 2e-3 -3.175 9e-3 -2.215 2e-3 -4.43-4e-3 -6.645-0.016-3.387-0.016-6.772 0-10.159 0.019-2.153-2e-3 -4.306-6e-3 -6.459-0.012-1.011 6e-3 -2.023 0.012-3.065 0.019-9.009-0.09-9.009-0.09-12.782-3.417-0.637-2.664-0.637-2.664-0.688-5.625-0.074-2.977-0.074-2.977-0.312-5.375-3.975-1.988-9.105-1.138-13.502-1.13-1.199-1e-3 -2.397-3e-3 -3.632-5e-3 -3.977-4e-3 -7.955-2e-3 -11.933 2e-3 -2.752-1e-3 -5.504-2e-3 -8.257-3e-3 -5.774-2e-3 -11.549 1e-3 -17.323 5e-3 -7.421 6e-3 -14.842 3e-3 -22.263-3e-3 -5.685-4e-3 -11.37-3e-3 -17.055 0-2.737 1e-3 -5.474 0-8.212-3e-3 -3.817-2e-3 -7.633 2e-3 -11.45 7e-3 -1.144-2e-3 -2.287-4e-3 -3.465-6e-3 -7.794 0.021-7.794 0.021-8.908 1.136-0.106 3.694-0.147 7.37-0.145 11.065-4e-3 1.164-7e-3 2.329-0.011 3.528-9e-3 3.871-0.011 7.742-0.012 11.614-3e-3 2.679-7e-3 5.359-0.01 8.038-6e-3 5.627-8e-3 11.253-8e-3 16.88 1e-3 7.22-0.013 14.44-0.03 21.66-0.011 5.537-0.013 11.075-0.013 16.612-1e-3 2.662-6e-3 5.325-0.013 7.987-0.01 3.721-7e-3 7.441-1e-3 11.162-6e-3 1.106-0.011 2.212-0.017 3.352 4e-3 1.013 8e-3 2.027 0.013 3.072-1e-3 0.88-2e-3 1.76-2e-3 2.666 0.249 2.364 0.249 2.364 2.249 6.364 3.745 1.872 8.355 1.156 12.489 1.161 1.091 5e-3 2.182 0.01 3.306 0.015 3.625 0.014 7.249 0.021 10.873 0.027 2.514 6e-3 5.027 0.011 7.541 0.017 5.279 0.011 10.557 0.016 15.836 0.02 6.761 5e-3 13.522 0.029 20.283 0.058 5.197 0.019 10.393 0.024 15.589 0.025 2.492 3e-3 4.984 0.011 7.477 0.024 3.49 0.017 6.98 0.016 10.47 9e-3 0.514 5e-3 0.514 5e-3 3.116 0.028 5.682-0.033 9.93-0.549 15.02-3.384 1.453-2.157 1.453-2.157 2.25-4.5 1.75-4.5 1.75-4.5 4.75-7.5 3.675-0.394 7.187-0.61 10.871-0.688 0.537-0.015 0.537-0.015 3.254-0.09 2.272-0.058 4.544-0.108 6.816-0.151 3.48-0.071 6.957-0.185 10.436-0.302 2.206-0.051 4.412-0.099 6.619-0.144 1.042-0.039 2.083-0.077 3.157-0.116 7.152-0.079 7.152-0.079 10.501 2.666 1.455 3.054 1.861 5.019 1.877 8.387 3e-3 0.522 3e-3 0.522 0.016 3.164-0.016 1.08-0.031 2.161-0.047 3.274 8e-3 0.54 8e-3 0.54 0.047 3.273-0.039 7.892-0.039 7.892-2.43 11.82-0.699 0.629-1.397 1.259-2.117 1.907-0.784 0.825-1.568 1.65-2.375 2.5-2.625 2.5-2.625 2.5-5.625 4.937-3.079 2.63-5.451 5.425-8 8.563-1.648 1.685-3.311 3.356-5 5l-2 2c-8.635 1.495-17.439 1.155-26.175 1.161-1.735 4e-3 -3.471 9e-3 -5.206 0.015-4.692 0.013-9.384 0.019-14.076 0.024-2.933 3e-3 -5.866 7e-3 -8.8 0.011-9.184 0.014-18.369 0.024-27.554 0.028-10.592 4e-3 -21.183 0.022-31.775 0.051-8.199 0.021-16.398 0.031-24.597 0.033-4.893 1e-3 -9.785 7e-3 -14.678 0.024-4.598 0.017-9.195 0.019-13.792 0.01-2.489-1e-3 -4.979 0.013-7.468 0.027-1.485-6e-3 -2.969-0.011-4.499-0.017-0.644 1e-3 -0.644 1e-3 -3.903 5e-3 -7.545-0.807-11.412-5.031-16.477-10.372-2.527-2.588-4.956-4.966-7.813-7.188-6.523-5.756-11.513-10.635-12.228-19.662-0.058-2.648-0.074-5.296-0.054-7.944-0.011-0.727-0.011-0.727-0.063-4.404-0.057-4.782-0.057-9.563-0.053-14.345-0.023-3.332-0.048-6.664-0.076-9.996-0.053-6.973-0.073-13.945-0.074-20.918-1e-3 -8.051-0.052-16.1-0.13-24.151-0.074-7.763-0.114-15.527-0.138-23.29-0.013-3.296-0.035-6.592-0.065-9.888-0.037-4.604-0.035-9.205-0.023-13.809-0.018-1.362-0.036-2.723-0.055-4.126 0.093-10.289 0.093-10.289 3.629-14.43 1.037-0.94 2.074-1.88 3.143-2.849 0.99-1.32 1.98-2.64 3-4l4-2 2-3c2-3 2-3 6-5l2-3c2-3 2-3 6-5 1.041-1.642 2.045-3.307 3-5 3.026-1.514 5.817-1.124 9.192-1.123z" fill="#C60000"/>
<path transform="translate(1824.6 544.69)" d="m0 0c0.946-0.029 1.891-0.058 2.865-0.088 6.823-0.063 6.823-0.063 9.847 1.806 2.631 3.956 2.232 7.944 2.148 12.532-3e-3 1.009-5e-3 2.017-8e-3 3.056-0.013 3.336-0.054 6.671-0.094 10.006-0.013 2.317-0.023 4.633-0.032 6.95-0.026 6.101-0.075 12.202-0.13 18.302-0.087 9.766-0.146 19.532-0.193 29.298-0.02 3.415-0.054 6.829-0.089 10.243-0.014 2.09-0.027 4.18-0.04 6.27-7e-3 0.476-7e-3 0.476-0.041 2.884-0.02 5.7 0.416 9.112 4.392 13.429 2.05 1.913 4.164 3.759 6.313 5.562 3.242 2.837 5.799 5.723 8.5 9.062 2.556 2.688 5.119 5.098 8 7.438 3.079 2.63 5.45 5.425 8 8.562 2.576 2.709 5.165 5.135 8.062 7.5 2.75 2.341 4.736 4.66 6.938 7.5 0.866 0.867 1.732 1.733 2.624 2.626 2.376 2.374 2.376 2.374 4.376 5.374 4.124 0.626 4.124 0.626 9 0 2.835-2.249 5.398-4.5 8-7 0.809-0.776 1.619-1.553 2.454-2.353 2.767-2.687 5.511-5.395 8.249-8.111 0.5-0.496 0.5-0.496 3.031-3.007 2.102-2.089 4.203-4.179 6.303-6.27 2.144-2.134 4.293-4.262 6.447-6.386 3.124-3.082 6.235-6.177 9.344-9.275 0.96-0.943 1.921-1.886 2.91-2.857 0.895-0.898 1.79-1.796 2.712-2.721 0.784-0.778 1.568-1.556 2.376-2.358 5.455-6.679 6.751-12.646 6.58-21.085-4e-3 -1.012-8e-3 -2.024-0.013-3.067-0.012-2.185-0.033-4.37-0.062-6.555-0.047-3.454-0.069-6.907-0.085-10.362-0.032-6.079-0.086-12.157-0.147-18.236-0.097-9.75-0.178-19.501-0.228-29.251-0.024-3.41-0.066-6.818-0.109-10.228-0.014-2.077-0.027-4.154-0.04-6.231-0.017-0.952-0.034-1.905-0.051-2.887-5e-3 -2.256 0.147-4.511 0.329-6.76 3.294-2.196 4.407-2.275 8.25-2.366 1.071-0.03 2.142-0.059 3.246-0.09 0.578-0.01 0.578-0.01 3.504-0.063 1.187-0.027 2.374-0.053 3.597-0.08 2.512-0.053 5.024-0.101 7.535-0.143 3.853-0.07 7.703-0.166 11.555-0.263 2.437-0.048 4.875-0.094 7.313-0.139 1.156-0.031 2.312-0.062 3.503-0.094 0.536-7e-3 0.536-7e-3 3.247-0.042 0.471-9e-3 0.471-9e-3 2.859-0.056 2.391 0.336 2.391 0.336 5.391 3.336 0.307 3.848 0.43 7.535 0.419 11.385 9e-3 1.174 0.017 2.348 0.026 3.558 0.024 3.893 0.024 7.786 0.023 11.679 7e-3 2.699 0.015 5.398 0.023 8.097 0.014 5.661 0.015 11.323 9e-3 16.985-5e-3 7.265 0.025 14.529 0.066 21.794 0.025 5.575 0.028 11.15 0.025 16.726 1e-3 2.679 0.011 5.358 0.029 8.037 0.022 3.742 0.012 7.483-5e-3 11.226 0.013 1.112 0.026 2.224 0.04 3.37-0.083 7.533-0.083 7.533-3.006 10.648-0.875 0.494-1.749 0.987-2.649 1.495-2.021 2.316-4.021 4.65-6 7-2.385 2.501-4.7 4.769-7.438 6.876-3.278 2.718-5.822 5.87-8.562 9.124-2.385 2.501-4.7 4.769-7.438 6.876-3.278 2.718-5.822 5.87-8.562 9.124-2.385 2.501-4.7 4.769-7.438 6.876-3.278 2.718-5.822 5.87-8.562 9.124-2.385 2.501-4.7 4.769-7.438 6.876-3.278 2.718-5.822 5.87-8.562 9.124-2.405 2.522-4.747 4.804-7.5 6.938-2.5 2.062-2.5 2.062-4.351 5.139-4.859 4.51-9.635 3.795-16.044 3.763-1.261 0.016-2.523 0.032-3.822 0.049-4.032 0.044-8.064 0.046-12.096 0.049-2.704 0.027-5.408 0.056-8.111 0.088-23.248 0.212-23.248 0.212-29.076-1.026-2.75-3.437-2.75-3.437-5-7-0.661-0.329-0.661-0.329-4-2-1.334-2-2.667-4-4-6-0.661-0.329-0.661-0.329-4-2-1.334-2-2.667-4-4-6-0.661-0.329-0.661-0.329-4-2-1.334-2-2.667-4-4-6-1.32-0.659-2.641-1.319-4-2-1.334-2-2.667-4-4-6-1.32-0.659-2.641-1.319-4-2-1.334-2-2.667-4-4-6-1.32-0.659-2.641-1.319-4-2-1.334-2-2.667-4-4-6-1.32-0.659-2.641-1.319-4-2-1.334-2-2.667-4-4-6-1.32-0.659-2.641-1.319-4-2-1.334-2-2.667-4-4-6-1.32-0.659-2.641-1.319-4-2-1.334-2-2.667-4-4-6-1.32-0.659-2.641-1.319-4-2-1.334-2-2.667-4-4-6-1.32-0.659-2.641-1.319-4-2-1.632-3.262-1.146-6.607-1.162-10.225-5e-3 -0.851-0.01-1.701-0.015-2.578-0.014-2.822-0.021-5.644-0.027-8.466-5e-3 -1.958-0.011-3.916-0.017-5.874-0.01-4.11-0.016-8.22-0.02-12.33-5e-3 -5.266-0.029-10.532-0.058-15.798-0.018-4.047-0.024-8.093-0.025-12.14-3e-3 -1.941-0.011-3.883-0.024-5.824-0.017-2.717-0.015-5.433-9e-3 -8.15-4e-3 -1.547-7e-3 -3.093-0.011-4.686 0.839-8.974 9.095-15.978 15.368-21.929 0.99-0.804 1.98-1.608 3-2.437 3-2.563 3-2.563 5.5-5.563 7.329-8.795 13.078-9.199 24.062-9.312z" fill="#C60000"/>
<path transform="translate(2631.5 545.02)" d="m0 0c1.144 0.016 2.288 0.033 3.467 0.05 2.424 0.038 4.848 0.078 7.271 0.121 3.716 0.063 7.431 0.105 11.147 0.145 2.351 0.039 4.702 0.08 7.053 0.122 1.115 9e-3 2.231 0.019 3.38 0.028 0.518 0.012 0.518 0.012 3.135 0.07 0.911 0.014 1.822 0.028 2.761 0.043 2.321 0.405 2.321 0.405 5.321 3.405 0.214 3.1 0.253 5.995 0.153 9.086-0.029 1.836-0.057 3.672-0.084 5.508-0.063 2.893-0.131 5.785-0.206 8.677-0.066 2.792-0.108 5.585-0.148 8.378-0.015 0.431-0.015 0.431-0.091 2.611-0.049 3.955 0.094 6.313 2.3 9.657 0.685 0.687 1.37 1.375 2.076 2.083 0.495 0.887 0.99 1.774 1.5 2.688 1.5 2.312 1.5 2.312 5.5 4.312 1.333 2 2.667 4 4 6l4 2c1.333 2 2.667 4 4 6l4 2c1.333 2 2.667 4 4 6l4 2c1.333 2 2.667 4 4 6l4 2c1.333 2 2.667 4 4 6l4 2c0.619 0.949 1.238 1.898 1.875 2.875 2.336 3.435 4.596 5.008 8.125 7.125l1 1c2.328 0.368 4.662 0.703 7 1 0.241-0.721 0.482-1.443 0.731-2.187 1.445-3.201 3.194-5.245 5.582-7.813 0.403-0.435 0.403-0.435 2.445-2.636 3.294-3.473 6.524-6.78 10.242-9.801 3.079-2.63 5.451-5.425 8-8.563 1.653-1.68 3.322-3.345 5-5 0.843-0.838 1.687-1.676 2.556-2.539 0.882-0.877 1.765-1.753 2.675-2.656 1.985-1.976 3.971-3.953 5.957-5.93 0.505-0.5 0.505-0.5 3.06-3.035 0.964-0.96 1.927-1.92 2.92-2.91 0.88-0.874 1.759-1.748 2.665-2.649 5.734-6.034 5.279-11.365 5.159-19.413-0.017-1.793-0.034-3.586-0.05-5.379-0.031-2.816-0.067-5.632-0.113-8.447-0.042-2.725-0.066-5.449-0.087-8.174-0.022-1.629-0.044-3.257-0.067-4.935 0.325-3.933 0.325-3.933 3.325-6.933 2.429-0.343 2.429-0.343 5.342-0.296 1.091 0.011 2.182 0.021 3.307 0.032 1.178 0.028 2.356 0.056 3.57 0.085 1.209 0.019 2.419 0.038 3.665 0.058 2.559 0.045 5.118 0.098 7.676 0.158 3.924 0.088 7.848 0.145 11.772 0.198 2.483 0.047 4.966 0.097 7.449 0.148 1.179 0.016 2.357 0.032 3.571 0.048 1.091 0.03 2.182 0.059 3.306 0.089 0.962 0.021 1.923 0.041 2.914 0.061 2.428 0.419 2.428 0.419 5.428 3.419 0.421 2.42 0.421 2.42 0.484 5.323 0.014 0.544 0.014 0.544 0.087 3.299 0.013 1.178 0.025 2.356 0.039 3.57 8e-3 0.607 8e-3 0.607 0.051 3.682 0.029 2.576 0.048 5.153 0.06 7.729 0.029 3.922 0.122 7.838 0.217 11.759 0.019 2.506 0.035 5.011 0.047 7.517 0.037 1.164 0.074 2.328 0.112 3.527-0.054 6.65-1.002 10.217-5.494 15.243-1.51 1.475-3.042 2.93-4.603 4.351-0.866 0.908-1.732 1.815-2.625 2.75-1.918 1.817-3.917 3.549-5.937 5.25-2.925 2.553-5.091 4.949-7.438 8-2.728 2.876-5.527 5.444-8.562 8-2.925 2.553-5.091 4.949-7.438 8-2.728 2.876-5.527 5.444-8.562 8-2.925 2.553-5.091 4.949-7.438 8-2.728 2.876-5.527 5.444-8.562 8-2.925 2.553-5.091 4.949-7.438 8-2.728 2.876-5.527 5.444-8.562 8-3.438 3-3.438 3-5.625 5.75-1.813 2.25-1.813 2.25-5.813 4.25-1.309 2.618-1.139 4.572-1.158 7.504-0.01 1.151-0.02 2.303-0.031 3.489-7e-3 1.249-0.014 2.498-0.022 3.785-0.028 2.623-0.057 5.246-0.086 7.869-0.041 4.152-0.078 8.304-0.104 12.457-0.028 3.995-0.074 7.991-0.122 11.986-4e-3 1.247-7e-3 2.494-0.01 3.779-0.017 1.154-0.033 2.309-0.05 3.498-4e-3 0.509-4e-3 0.509-0.025 3.084-0.392 2.549-0.392 2.549-3.392 5.549-3.658 0.288-7.143 0.396-10.801 0.364-0.534 0-0.534 0-3.239 1e-3 -2.264-2e-3 -4.528-0.012-6.792-0.028-3.456-0.024-6.912-0.021-10.369-0.014-2.2-6e-3 -4.4-0.013-6.6-0.022-1.031 1e-3 -2.062 2e-3 -3.125 3e-3 -9.487-0.093-9.487-0.093-14.074-2.304-2.543-3.814-1.821-4.6-1-9 0.116-3.232 0.188-6.443 0.203-9.675 6e-3 -0.925 0.012-1.85 0.018-2.802 9e-3 -1.951 0.016-3.902 0.019-5.852 0.01-2.963 0.041-5.925 0.073-8.887 6e-3 -1.903 0.011-3.806 0.015-5.709 6e-3 -0.438 6e-3 -0.438 0.038-2.653-0.022-6.161-1.03-10.794-3.366-16.422-3.375-3.25-3.375-3.25-7-6-2.876-2.735-5.44-5.522-8-8.562-2.552-2.925-4.948-5.09-8-7.438-2.875-2.727-5.444-5.527-8-8.562-2.552-2.925-4.948-5.09-8-7.438-2.875-2.727-5.444-5.527-8-8.562-2.552-2.925-4.948-5.09-8-7.438-2.875-2.727-5.444-5.527-8-8.562-2.552-2.925-4.948-5.09-8-7.438-3.964-3.761-7.446-7.853-11-12l-2.812-2.812c-3.287-3.287-3.328-5.134-3.425-9.675-0.026-1.149-0.053-2.297-0.08-3.48-0.023-1.245-0.046-2.491-0.07-3.775-0.025-1.275-0.051-2.55-0.077-3.864-0.052-2.701-0.101-5.403-0.148-8.105-0.075-4.14-0.166-8.278-0.257-12.418-0.049-2.621-0.096-5.242-0.143-7.863-0.029-1.242-0.058-2.483-0.088-3.763-0.017-1.154-0.034-2.309-0.051-3.498-0.019-1.015-0.038-2.031-0.058-3.077 0.209-2.67 0.209-2.67 2.209-6.67 3.966-1.982 9.082-1.053 13.465-0.984z" fill="#C60000"/>
<path transform="translate(863.31 544.62)" d="m0 0c1.046-0.037 2.092-0.075 3.17-0.113 7.787-0.09 7.787-0.09 11.557 2.89 0.323 0.429 0.323 0.429 1.961 2.598 1.01 0.639 2.021 1.279 3.062 1.937 3.296 2.314 4.758 4.721 6.938 8.063 1.32 0.66 2.639 1.32 4 2 1.333 2 2.666 4 4 6 1.32 0.66 2.639 1.32 4 2 1.735 2.623 3.407 5.288 5 8 0.33 0.33 0.659 0.66 1 1 0.237 6.525 0.237 6.525-1 9-0.077 2.198-0.084 4.399-0.063 6.598 0.012 1.412 0.023 2.824 0.035 4.279 0.018 1.559 0.035 3.118 0.053 4.724 0.023 2.509 0.045 5.017 0.067 7.525 0.024 2.702 0.051 5.405 0.079 8.107 0.056 5.625 0.103 11.251 0.148 16.877 0.129 15.999 0.266 31.997 0.425 47.996 0.087 8.832 0.163 17.664 0.228 26.496 0.035 4.676 0.075 9.353 0.129 14.029 0.06 5.213 0.097 10.425 0.131 15.638 0.011 0.779 0.011 0.779 0.066 4.718 6e-3 1.415 0.012 2.83 0.018 4.288 0.011 1.233 0.022 2.467 0.034 3.738-0.35 2.987-0.35 2.987-3.35 5.987-5.02 1.255-9.865 1.182-15.004 1.203-1.075 6e-3 -2.15 0.012-3.257 0.017-2.271 0.01-4.541 0.016-6.812 0.02-3.48 0.01-6.961 0.041-10.441 0.073-2.205 6e-3 -4.41 0.011-6.615 0.015-1.044 0.012-2.088 0.025-3.163 0.038-7.366-0.023-7.366-0.023-10.708-3.366-0.391-3.591-0.391-3.591-0.413-8.192-8e-3 -0.845-0.016-1.69-0.024-2.561-0.024-2.842-0.025-5.684-0.028-8.526-0.012-2.033-0.025-4.067-0.04-6.1-0.036-5.531-0.054-11.062-0.067-16.593-0.017-5.781-0.049-11.562-0.079-17.343-0.048-9.71-0.084-19.421-0.113-29.132-0.033-11.234-0.084-22.468-0.145-33.702-0.058-10.795-0.105-21.591-0.146-32.387-0.018-4.599-0.039-9.198-0.063-13.797-0.029-5.415-0.047-10.83-0.057-16.244-6e-3 -1.99-0.014-3.98-0.027-5.97-0.016-2.711-0.02-5.422-0.021-8.134-6e-3 -1.519-0.011-3.037-0.016-4.602 0.239-3.717 0.239-3.717 2.239-7.717 3.98-1.99 8.935-1.316 13.312-1.375z" fill="#C50000"/>
<path transform="translate(284,758)" d="m0 0c2.254 0.355 2.254 0.355 5 1 0.407 0.091 0.407 0.091 2.465 0.551 4.274 1.316 6.833 2.354 9.305 6.207 0.986 2.119 1.937 4.255 2.851 6.406 1.752 3.602 4.311 5.339 7.379 7.836 1.062 3.562 1.062 3.562 1 7-3 4-3 4-7.5 5h-4.5c-3-4-3-4-4.5-7.062-1.5-2.938-1.5-2.938-4.5-5.938-0.433-1.423-0.866-2.846-1.312-4.312-1.688-4.688-1.688-4.688-4.938-7.938l-2.75-2.75c0.058-2.627 0.111-4.111 2-6z" fill="#BD0000"/>
</svg>
