<?xml version="1.0" encoding="UTF-8"?>
<svg version="1.1" viewBox="0 0 2744 1144" xmlns="http://www.w3.org/2000/svg">
<path transform="translate(1518.7 45.82)" d="m0 0c3.896 0.747 7.777 1.41 11.711 1.922 11.154 1.465 20.394 4.667 30.629 9.258 0.702 0.258 0.702 0.258 4.258 1.566 3.54 1.356 6.293 3.12 9.437 5.199 2.732 1.464 5.369 2.145 8.367 2.922 8.411 2.398 14.87 7.315 21.938 12.313 1.928 1.264 3.864 2.516 5.812 3.75 0.863 0.548 1.725 1.095 2.614 1.66 3.445 2.128 6.952 4.145 10.48 6.133 3.277 2.28 4.913 4.649 5.781 8.519-1.348 7.72-7.367 13.509-12.437 19.25-2.782 3.156-4.967 6.176-7.25 9.688-7.16 10.907-14.616 21.438-22.688 31.687-2.338 2.971-4.452 6.009-6.5 9.188-2.812 4.125-2.812 4.125-6.812 7.125-3.66 0.518-5.431 0.331-8.641-1.539-0.861-0.689-1.722-1.377-2.609-2.086-7.481-5.746-15.262-10.264-23.75-14.375-1.585-0.79-3.168-1.582-4.75-2.375-0.848-0.421-1.697-0.841-2.57-1.274-1.82-0.918-3.628-1.861-5.422-2.828-6.974-3.685-13.953-6.14-21.516-8.363-3.06-0.949-5.837-2.022-8.742-3.348-6.678-2.788-13.86-3.141-21-3.812-1.034-0.112-2.068-0.225-3.133-0.34-11.798-1.174-23.57-0.929-35.367 0.09-0.81 0.069-0.81 0.069-4.906 0.422-9.665 1.742-18.324 7.556-24.493 15.171-5.027 7.358-7.64 13.752-6.101 22.657 4.398 9.439 10.681 15.486 19.598 20.57 2.402 1.43 2.402 1.43 6.402 4.43 2.458 0.685 4.942 1.279 7.437 1.812 5.2 1.219 9.664 2.563 14.375 5.063 7.694 3.827 15.909 5.208 24.261 6.942 5.856 1.231 11.417 2.511 16.989 4.745 7.571 3.004 15.518 4.186 23.528 5.475 6.374 1.095 11.424 2.729 17.1 5.817 3.472 1.723 7.018 2.367 10.81 3.083 6.278 1.363 10.891 3.036 16.176 6.625 2.565 1.587 5.027 2.491 7.886 3.438 4.571 1.551 8.037 3.584 11.942 6.382 2.965 1.921 6.039 3.324 9.246 4.805 7.834 3.854 13.901 8.869 20.25 14.813 0.631 0.589 1.263 1.178 1.913 1.785 7.876 7.41 14.728 14.743 20.087 24.215 0.666 0.912 1.333 1.825 2.019 2.765 2.382 3.889 3.359 7.507 4.481 11.922 1.294 5.011 2.629 9.865 4.687 14.625 5.965 15.551 4.307 34.907 2.125 51-0.149 1.229-0.297 2.458-0.451 3.725-1.154 8.576-3.456 16.025-6.861 23.963-1.383 3.241-2.106 5.645-2.688 9.187-1.415 5.19-3.418 8.256-6.656 12.453-1.656 2.36-1.656 2.36-2.426 4.668-1.926 4.214-5.223 7.223-8.418 10.504-1.307 1.36-2.613 2.72-3.918 4.082-0.646 0.674-1.293 1.347-1.959 2.041-1.94 2.069-3.805 4.188-5.658 6.334-10.491 11.942-10.491 11.942-17.277 13.356-3.872 1.331-5.83 2.644-9 5.125-5.347 4.061-10.749 6.43-17.031 8.73-3.182 1.218-6.14 2.557-9.2 4.035-5.74 2.64-11.387 3.929-17.582 5.047-6.448 1.203-12.685 2.554-18.953 4.508-7.694 2.252-15.19 2.861-23.172 3.242-0.724 0.038-0.724 0.038-4.387 0.231-11.974 0.562-23.736 0.476-35.675-0.543-0.57-0.048-0.57-0.048-3.451-0.286-12.26-1.059-24.266-2.137-36.077-5.757-4.032-1.112-8.019-1.683-12.16-2.27-7.83-1.216-14.866-3.398-22.259-6.142-4.453-1.652-8.775-3.036-13.428-3.983-6.037-1.363-10.743-4.413-16-7.59-3.616-1.967-7.006-3.215-10.938-4.41-11.092-3.439-22.251-8.615-30.683-16.746-6.172-5.594-13.45-10.104-20.817-13.941-5.665-3.003-12.039-6.394-14.148-12.789-0.039-3.086-0.039-3.086 1.586-5.578 0.784-0.787 1.567-1.573 2.375-2.383 0.836-0.864 1.673-1.728 2.535-2.617 0.813-0.828 1.627-1.656 2.465-2.508 1.156-1.324 2.303-2.657 3.437-4 2.633-3.038 5.424-5.832 8.313-8.625 6.045-5.972 11.099-12.635 16.25-19.375 1.513-1.964 3.033-3.923 4.562-5.875 0.62-0.802 1.24-1.604 1.879-2.43 0.515-0.559 1.029-1.119 1.559-1.695h2l2-4c2.165-2.616 4.451-5.088 6.758-7.578 1.691-1.827 3.325-3.707 4.929-5.61 2.313-1.812 2.313-1.812 4.871-1.847 5.066 1.523 8.674 4.567 12.817 7.785 7.92 6.059 15.925 11.346 24.625 16.25 1.093 0.639 2.186 1.278 3.312 1.937 3.689 2.063 7.438 3.921 11.235 5.774 2.453 1.289 2.453 1.289 6.14 3.851 5.101 2.883 9.983 4.022 15.645 5.403 3.245 0.915 5.799 1.974 8.73 3.597 5.135 2.819 10.406 3.8 16.129 4.86 2.809 0.578 2.809 0.578 3.809 1.578 2.27 0.048 4.542 0.036 6.812 0 4.792-0.036 9.481 0.036 14.25 0.5 20.018 1.839 42.45 1.125 59.563-10.516 3.768-3.148 6.058-6.701 8.375-10.984 0.784-1.279 1.567-2.558 2.375-3.875 2.589-6.574 2.863-11.708 0.437-18.403-5.16-10.63-12.959-17.92-24.144-21.832-0.881-0.294-1.761-0.587-2.668-0.89-2.191-0.824-4.379-1.658-6.563-2.5-1.012-0.382-2.023-0.763-3.066-1.157-2.587-1.031-5.127-2.182-7.641-3.382-4.855-2.178-9.624-3.029-14.855-3.836-6.535-1.11-12.339-2.483-18.438-5.188-5.728-2.516-11.138-3.639-17.312-4.375-8.353-1.007-15.127-3.394-22.836-6.871-4.646-1.832-9.07-2.787-13.977-3.691-7.451-1.409-13.226-3.638-19.84-7.274-3.837-1.908-7.608-3.098-11.722-4.289-6.692-1.97-12.009-4.534-17.75-8.437-1.341-0.825-2.681-1.65-4.063-2.5-1.299-0.825-2.598-1.65-3.937-2.5-0.731-0.462-1.462-0.923-2.215-1.399-5.335-3.447-10.148-7.257-14.785-11.601-0.502-0.452-0.502-0.452-3.039-2.739-8.777-8.252-14.408-16.676-19.961-27.261-0.709-1.337-1.418-2.674-2.149-4.051-1.773-3.782-2.917-7.277-3.914-11.324-1.056-4.212-2.147-8.334-3.562-12.438-6.475-21.23-4.789-47.494 3.465-68.019 1.153-3.151 1.696-6.051 2.222-9.356 2.075-9.742 8.401-17.727 13.938-25.812 0.696-1.057 1.392-2.114 2.109-3.203 8.724-12.751 20.183-22.235 32.891-30.797 1.793-1.29 3.585-2.581 5.375-3.875 5.462-3.796 10.904-6.567 17.25-8.625 4.097-1.405 6.846-3.07 10.375-5.5 5.327-2.189 10.828-2.71 16.5-3.375 6.361-0.794 12.383-1.691 18.5-3.688 32.234-10.016 71.456-3.302 103.66 2.883z" fill="#E0194B"/>
<path transform="translate(1507,624)" d="m0 0c0.634 0.02 0.634 0.02 3.845 0.122 10.522 0.454 20.492 2.054 30.78 4.253 1.467 0.304 2.934 0.608 4.445 0.922 2.904 0.602 5.806 1.21 8.706 1.825 5.327 1.107 10.672 2.116 16.023 3.105 4.024 0.972 7.384 2.576 10.986 4.578 2.215 1.195 2.215 1.195 6.59 2.82 3.625 1.375 3.625 1.375 7.625 4.375 0.536 0.144 0.536 0.144 3.25 0.875 3.672 1.102 6.298 2.683 9.473 4.785 2.559 1.506 5.131 2.526 7.902 3.59 10.646 4.291 19.435 10.521 27.375 18.75 5.045 4.08 10.199 8.035 15.512 11.762 4.171 2.937 7.031 5.243 8.488 10.238-2.409 11.076-13.812 19.932-21.645 27.59-3.215 3.29-6.059 6.823-8.933 10.41-6.76 8.374-13.738 16.467-21.422 24-1.176 1.346-2.342 2.701-3.5 4.062-3.272 3.757-6.449 7.012-10.5 9.938-3.165-0.126-4.608-0.657-7-2.75-0.66-0.743-1.32-1.485-2-2.25-5.367-5.637-11.519-9.747-18-14-5.747-3.783-5.747-3.783-8.188-5.875-3.466-2.619-7.152-4.551-10.996-6.563-2.816-1.562-2.816-1.562-5.761-3.632-3.203-2.023-5.83-2.899-9.493-3.805-5.133-1.349-9.738-3.049-14.562-5.25-9.691-4.006-19.638-4.417-30-4.875-1.198-0.059-2.395-0.119-3.629-0.18-12.576-0.289-25.812 0.259-37.269 5.762-3.863 1.766-7.819 3.029-11.852 4.356-6.522 2.263-11.065 4.562-16.25 9.062-0.902 0.575-1.805 1.15-2.734 1.742-3.96 2.738-7.364 5.936-10.828 9.258-6.898 6.574-6.898 6.574-10.153 9.141-9.055 7.367-14.761 18.519-19.758 28.832-1.527 3.027-1.527 3.027-3.617 6.414-2.058 3.893-2.758 7.024-3.41 11.363-0.804 4.809-1.677 9.13-3.562 13.625-7.922 20.184-4.939 46.858 1.847 66.844 1.127 3.508 1.897 6.916 2.59 10.531 1.277 5.905 3.743 10.353 6.957 15.43 1.52 2.57 2.41 4.801 3.293 7.632 4.786 12.882 19.08 24.723 29.375 33.188 0.714 0.755 1.428 1.511 2.164 2.289 3.396 3.246 7.126 5.806 11.024 8.399 7.587 5.087 7.587 5.087 9.812 7.312 2.03 0.362 4.076 0.642 6.125 0.875 4.247 0.584 6.895 1.135 10.75 3.125 16.778 8.135 48.962 6.604 66.687 1.625 4.438-1.625 4.438-1.625 7.438-3.25 2.978-1.365 4.845-1.638 8.062-1.875 4.803-0.486 6.132-0.964 9.938-3.5 0.839-0.532 1.678-1.065 2.543-1.613 0.873-0.561 1.745-1.122 2.645-1.699 3.667-2.349 7.365-4.615 11.124-6.813 3.892-2.311 7.257-4.912 10.688-7.875 0.887-0.577 1.774-1.155 2.688-1.75 3.03-2.058 5.798-4.236 8.624-6.562 0.951-0.778 1.901-1.555 2.879-2.356 1.78-1.477 3.54-2.977 5.274-4.508 3.411-2.91 5.536-4.681 10.035-5.324 4.443 1.904 6.969 4.586 10.238 8.094 2.038 2.168 4.123 4.104 6.387 6.031 5.632 4.865 10.565 9.927 15.187 15.75 4.425 5.493 9.325 10.064 14.688 14.625 2.693 2.305 5.364 4.63 8 7 0.886 0.795 1.771 1.591 2.684 2.41 0.908 0.855 1.817 1.709 2.754 2.59 0.844 0.784 1.688 1.567 2.558 2.375 2.516 3.296 2.952 5.503 3.004 9.625-6.408 8.884-15.447 15.854-23.73 22.957-1.84 1.656-3.622 3.378-5.383 5.117-6.792 6.626-12.984 11.526-21.633 15.449-6.362 2.887-12.154 6.714-17.942 10.602-6.757 4.513-12.872 7.53-20.738 9.652-3.007 1.029-5.373 2.173-8.136 3.687-5.305 2.672-10.161 3.668-16.024 4.337-0.998 0.126-1.996 0.253-3.024 0.383-3.253 0.401-6.508 0.769-9.765 1.128-1.126 0.129-2.251 0.257-3.411 0.389-39.382 4.419-100.4 10.213-136.58-8.455-2.991-1.413-5.948-2.25-9.137-3.121-5.704-1.663-10.064-4.137-14.953-7.465-3.642-2.374-7.561-3.944-11.547-5.66-10.248-5.064-18.539-11.537-26.957-19.203-1.931-1.699-3.986-3.254-6.043-4.797v-2l-4-2c-9.472-5.711-15.503-13.174-22-22-1.161-1.483-2.327-2.963-3.5-4.438-4.132-5.315-8.078-10.769-12.047-16.207-1.801-2.463-3.622-4.913-5.453-7.355-0.84-1.896-1.628-3.815-2.375-5.75-1.478-3.672-2.892-6.661-5.063-10-3.151-5.227-5.079-10.614-7.132-16.348-1.43-3.902-1.43-3.902-2.922-7.136-2.08-5.196-3.259-10.507-4.508-15.954-0.499-2.139-0.999-4.278-1.5-6.417-0.246-1.061-0.492-2.121-0.745-3.214-0.742-3.124-1.535-6.232-2.337-9.341-9.296-37.104-4.907-75.978 5.805-112.21 0.635-2.152 1.24-4.313 1.836-6.477 1.852-6.522 4.303-12.767 6.879-19.031 0.324-0.798 0.648-1.596 0.982-2.418 2.151-5.089 4.853-9.249 8.08-13.707 1.047-2.668 1.047-2.668 1.75-5.188 2.375-6.973 6.632-12.159 11.25-17.812 0.737-0.906 1.475-1.812 2.234-2.746 1.475-1.801 2.954-3.598 4.438-5.391 2.568-3.158 5.045-6.377 7.516-9.613 0.841-1.093 1.683-2.186 2.55-3.312 1.715-2.228 3.427-4.457 5.137-6.688 3.672-3.819 7.689-6.745 11.965-9.855 5.785-4.384 11.02-9.406 16.273-14.407 4.866-4.495 9.891-7.235 15.887-9.988 1.711-0.848 3.42-1.702 5.125-2.562 2.967-1.491 5.94-2.946 8.937-4.376 3.938-2.062 3.938-2.062 7.938-5.062 5.112-3.526 10.519-4.559 16.547-5.75 3.858-1.083 6.813-2.365 10.363-4.145 7.983-3.79 16.116-5.28 24.778-6.793 1.645-0.296 3.29-0.593 4.936-0.89 21.146-3.765 41.881-6.246 63.376-5.422z" fill="#E0194B"/>
<path transform="translate(612,48)" d="m0 0c3.658-0.494 3.658-0.494 8.326-0.486 0.425-2e-3 0.425-2e-3 2.579-0.011 2.832-8e-3 5.662 0.014 8.493 0.036 1.989 2e-3 3.978 3e-3 5.967 3e-3 4.192 3e-3 8.383 0.02 12.575 0.046 5.284 0.034 10.567 0.042 15.851 0.041 58.653 3e-3 58.653 3e-3 85.209 5.371 0.992 0.185 1.984 0.37 3.006 0.561 13.806 2.579 27.189 5.85 40.494 10.377 1.173 0.394 2.347 0.789 3.556 1.195 6.932 2.451 12.997 5.507 19.269 9.33 3.319 1.907 6.617 3.024 10.3 4.037 6.845 2.133 11.807 5.072 17.375 9.5 4.686 3.557 9.413 7.024 14.24 10.387 10.161 7.082 19.543 13.663 27.221 23.511 2.408 2.942 4.959 5.68 7.601 8.412 9.99 10.347 18.395 21.311 23.938 34.69 1.292 2.283 2.607 4.552 3.938 6.812 3.609 6.228 6.507 12.468 9.062 19.188 0.358 0.891 0.717 1.781 1.086 2.699 2.4 6.18 3.885 12.331 5.105 18.844 0.809 3.457 0.809 3.457 2.297 7.184 1.822 5.15 2.52 10.053 3.137 15.461 0.123 1.054 0.247 2.108 0.374 3.195 3.139 28.027 2.269 56.275-6.034 83.441-0.899 2.959-1.66 5.925-2.403 8.926-1.225 4.569-3.093 8.433-5.32 12.59-1.393 2.983-2.206 5.918-3.054 9.098-1.714 5.913-4.334 9.884-8.114 14.683-2.279 3.164-3.901 6.36-5.574 9.879-5.633 11.554-13.168 19.897-22.292 28.799-3.767 3.689-7.263 7.316-10.396 11.576-6.657 8.763-16.398 14.962-25.718 20.609-2.516 1.639-4.869 3.335-7.25 5.157-8.159 6.213-15.168 11.137-25.317 13.636-3.179 1.102-5.037 2.167-7.73 4.078-5.177 3.589-10.522 5.574-16.485 7.52-1.145 0.377-2.291 0.754-3.471 1.143-22.313 7.037-45.979 11.656-69.223 14.193-2.36 0.261-4.719 0.543-7.076 0.828-18.907 1.989-37.868 1.766-56.855 1.722-4.998-0.012-9.996-5e-3 -14.993 7e-3 -3.873 7e-3 -7.745 5e-3 -11.617 0-1.846-2e-3 -3.691 0-5.536 5e-3 -2.557 5e-3 -5.114-4e-3 -7.671-0.014-1.452-2e-3 -2.903-3e-3 -4.399-5e-3 -3.471-0.254-3.471-0.254-6.471-2.254-1.26-3.78-1.135-6.963-1.145-10.956-4e-3 -0.81-7e-3 -1.62-0.01-2.455-0.01-2.682-0.012-5.364-0.013-8.046-3e-3 -1.865-7e-3 -3.729-0.01-5.594-6e-3 -3.911-8e-3 -7.823-7e-3 -11.734 0-5.007-0.014-10.014-0.031-15.021-0.011-3.853-0.013-7.705-0.013-11.558-1e-3 -1.846-5e-3 -3.691-0.013-5.537-0.01-2.585-7e-3 -5.17-1e-3 -7.755-1e-3 -1.469-3e-3 -2.939-4e-3 -4.454 0.302-4.756 0.813-8.456 4.247-11.89 2.645-0.165 5.299-0.193 7.949-0.164 0.824 7e-3 1.647 0.013 2.496 0.019 1.798 0.014 3.597 0.033 5.395 0.056 2.883 0.035 5.765 0.055 8.648 0.072 8.202 0.048 16.403 0.117 24.605 0.209 71.3 0.767 71.3 0.767 88.219-9.13 3.46-1.934 6.27-2.846 10.063-3.874 5.514-1.609 9.187-3.686 13.52-7.403 2.093-1.775 4.233-3.243 6.543-4.723 16.733-11.068 28.203-25.916 36.562-44.062 0.518-1.118 1.036-2.235 1.57-3.387 3.036-6.781 5.498-13.208 6.43-20.613 0.092-0.683 0.092-0.683 0.555-4.137 3.212-26.689 3.704-54.889-9.555-78.863-0.722-1.799-1.416-3.61-2.062-5.438-2.33-5.485-5.344-9.842-8.938-14.562-0.608-0.837-1.217-1.673-1.844-2.535-4.952-6.566-10.676-11.449-17.156-16.465-0.99-0.846-1.98-1.691-3-2.562-6.919-5.622-13.823-10.79-22-14.438-0.892-0.398-1.784-0.797-2.703-1.207-33.614-14.563-70.666-12.056-106.55-11.793-6.599 0.047-13.198 0.088-19.797 0.112-2.614 0.013-5.228 0.038-7.841 0.063-1.565 7e-3 -3.13 0.014-4.742 0.02-1.379 0.011-2.759 0.021-4.18 0.032-3.19-0.227-3.19-0.227-5.19-2.227-1.071-4.282-1.141-7.871-1.161-12.285-5e-3 -0.833-0.01-1.666-0.015-2.524-0.015-2.751-0.022-5.502-0.027-8.253-6e-3 -1.913-0.012-3.826-0.017-5.739-0.011-4.008-0.017-8.016-0.02-12.024-6e-3 -5.138-0.03-10.276-0.058-15.415-0.019-3.949-0.024-7.899-0.026-11.849-3e-3 -1.894-0.011-3.789-0.024-5.683-0.017-2.648-0.015-5.295-8e-3 -7.943-4e-3 -1.507-8e-3 -3.014-0.011-4.566 0.367-3.719 0.367-3.719 3.367-7.719z" fill="#E0194B"/>
<path transform="translate(1731.3 642.38)" d="m0 0c1.287-0.012 2.573-0.024 3.899-0.036 0.705 6e-3 0.705 6e-3 4.276 0.038 0.751-3e-3 0.751-3e-3 4.548-0.019 4.168-0.013 8.335-3e-3 12.502 0.016 4.494 0.016 8.987 2e-3 13.481-7e-3 8.803-0.015 17.605-3e-3 26.408 0.019 10.245 0.024 20.49 0.022 30.735 0.019 18.275-3e-3 36.55 0.018 54.824 0.052 17.746 0.033 35.492 0.047 53.238 0.041 19.312-7e-3 38.624-5e-3 57.937 0.015 0.51 1e-3 0.51 1e-3 3.092 3e-3 2.05 2e-3 4.099 4e-3 6.149 6e-3 7.147 7e-3 14.294 8e-3 21.441 7e-3 8.705-2e-3 17.409 8e-3 26.113 0.032 4.444 0.011 8.888 0.019 13.331 0.013 4.81-6e-3 9.619 0.011 14.428 0.03 1.416-5e-3 2.831-0.01 4.29-0.016 0.641 5e-3 0.641 5e-3 3.883 0.028 1.111 1e-3 2.222 3e-3 3.367 4e-3 2.72 0.379 2.72 0.379 5.72 3.379 1.664 3.328 1.154 6.831 1.177 10.517 6e-3 0.881 0.013 1.763 0.019 2.671 0.02 2.924 0.032 5.848 0.042 8.773 4e-3 0.997 8e-3 1.994 0.012 3.021 0.021 5.276 0.035 10.552 0.045 15.828 0.011 5.457 0.045 10.913 0.085 16.37 0.026 4.19 0.034 8.38 0.038 12.569 5e-3 2.012 0.017 4.024 0.035 6.036 0.024 2.813 0.023 5.625 0.017 8.439 2e-3 0.801 2e-3 0.801 0.017 4.853-0.487 3.923-0.487 3.923-2.196 6.14-2.751 2.14-4 2.269-7.446 2.23-1.042-2e-3 -2.084-3e-3 -3.157-5e-3 -0.568-0.011-0.568-0.011-3.446-0.068-1.202-7e-3 -2.404-0.015-3.642-0.022-2.612-0.019-5.223-0.047-7.835-0.082-4.131-0.056-8.261-0.086-12.393-0.109-10.26-0.061-20.52-0.162-30.781-0.272-8.667-0.092-17.334-0.164-26.002-0.208-4.074-0.029-8.146-0.087-12.22-0.145-2.494-0.015-4.988-0.029-7.482-0.041-0.568-0.012-0.568-0.012-3.441-0.073-1.044 1e-3 -2.088 2e-3 -3.165 3e-3 -0.904-0.01-1.809-0.019-2.741-0.029-4.009 0.953-5.221 2.16-7.54 5.604-0.747 4.34-0.664 8.638-0.619 13.033-7e-3 1.341-0.013 2.683-0.019 4.065-0.015 4.511 5e-3 9.02 0.026 13.531-4e-3 3.227-0.01 6.455-0.017 9.682-0.014 6.957-0.01 13.913 6e-3 20.87 0.023 10.061 0.016 20.122 1e-3 30.184-0.024 16.328-0.029 32.656-0.018 48.984 1e-3 0.977 1e-3 1.954 2e-3 2.961 1e-3 1.978 2e-3 3.956 4e-3 5.934 0 0.981 1e-3 1.962 2e-3 2.972 0 0.982 1e-3 1.964 1e-3 2.975 7e-3 10.907 9e-3 21.814 9e-3 32.72 0 0.977 1e-3 1.954 1e-3 2.96-1e-3 16.269-0.013 32.538-0.031 48.807-0.011 10.04-0.011 20.08 5e-3 30.12 0.012 7.685 9e-3 15.369 1e-3 23.054-1e-3 3.159 3e-3 6.319 0.013 9.478 0.013 4.297 8e-3 8.593-2e-3 12.89 8e-3 1.264 0.016 2.529 0.025 3.831-4e-3 0.573-4e-3 0.573-0.02 3.471 1e-3 0.496 1e-3 0.496 3e-3 3.008-0.373 2.47-0.373 2.47-3.373 5.47-4.016 1.338-7.887 1.155-12.074 1.161-0.929 5e-3 -1.858 0.01-2.815 0.015-3.076 0.014-6.152 0.021-9.229 0.027-2.136 5e-3 -4.272 0.011-6.408 0.017-4.48 0.011-8.961 0.016-13.442 0.02-5.742 5e-3 -11.484 0.029-17.227 0.058-4.413 0.018-8.825 0.024-13.238 0.025-2.117 3e-3 -4.235 0.011-6.352 0.024-2.961 0.017-5.922 0.016-8.883 9e-3 -0.875 9e-3 -1.75 0.018-2.651 0.028-4.722-0.032-7.954-0.366-11.681-3.384-1.293-2.586-1.12-4.427-1.112-7.324 0-0.568 0-0.568 1e-3 -3.444 3e-3 -0.629 3e-3 -0.629 0.017-3.815 2e-3 -1.33 4e-3 -2.659 6e-3 -4.029 8e-3 -4.487 0.023-8.975 0.038-13.462 6e-3 -3.204 0.013-6.408 0.019-9.612 0.013-6.915 0.029-13.831 0.047-20.747 0.028-10.927 0.045-21.855 0.06-32.782 5e-3 -3.736 0.01-7.472 0.015-11.209 1e-3 -0.933 3e-3 -1.867 4e-3 -2.829 0.015-10.635 0.031-21.271 0.049-31.906 1e-3 -0.972 3e-3 -1.945 5e-3 -2.947 0.026-15.762 0.064-31.524 0.105-47.285 0.042-16.172 0.068-32.344 0.081-48.516 9e-3 -9.98 0.03-19.961 0.067-29.942 0.027-7.645 0.033-15.29 0.032-22.936 2e-3 -3.14 0.012-6.281 0.029-9.422 0.022-4.277 0.02-8.553 0.011-12.829 0.012-1.253 0.025-2.505 0.037-3.796-7e-3 -1.144-0.014-2.288-0.022-3.467 2e-3 -0.988 4e-3 -1.975 6e-3 -2.992-0.637-3.481-2.085-5.17-4.495-7.709-3.957-1.979-9.064-1.079-13.439-1.035-1.192 8e-3 -2.384 0.016-3.612 0.024-2.596 0.018-5.191 0.037-7.787 0.058-5.511 0.042-11.022 0.065-16.533 0.09-10.27 0.046-20.541 0.098-30.811 0.185-7.134 0.059-14.269 0.094-21.404 0.113-2.722 0.012-5.445 0.033-8.168 0.063-3.807 0.041-7.612 0.051-11.42 0.053-1.129 0.02-2.258 0.039-3.421 0.06-4.705-0.025-7.552-0.081-11.604-2.599-2.445-4.089-2.436-7.005-2.448-11.762-9e-3 -0.871-0.018-1.741-0.027-2.638-0.022-2.872-7e-3 -5.741 0.01-8.612-4e-3 -1.999-9e-3 -3.998-0.015-5.996-7e-3 -4.187 3e-3 -8.373 0.027-12.559 0.028-5.364 0.012-10.726-0.018-16.09-0.018-4.127-0.012-8.253 0-12.379 4e-3 -1.978 0-3.955-0.012-5.933-0.013-2.765 7e-3 -5.528 0.035-8.293 4e-3 -1.573 8e-3 -3.146 0.012-4.766 1.13-7.091 5.033-9.61 11.973-9.608z" fill="#E0194B"/>
<path transform="translate(1729 47.622)" d="m0 0c0.632-4e-3 0.632-4e-3 3.83-0.024 1.396 7e-3 2.793 0.014 4.231 0.021 1.478-5e-3 2.955-0.01 4.477-0.015 4.111-0.01 8.222-6e-3 12.333 3e-3 4.429 7e-3 8.859-3e-3 13.288-0.012 8.683-0.013 17.365-0.01 26.047-1e-3 7.055 6e-3 14.11 7e-3 21.165 4e-3 1.003 0 2.006-1e-3 3.039-1e-3 2.037-1e-3 4.074-2e-3 6.111-3e-3 19.119-9e-3 38.238 1e-3 57.357 0.017 16.412 0.014 32.825 0.011 49.238-3e-3 19.046-0.016 38.091-0.022 57.137-0.013 2.03 1e-3 4.061 2e-3 6.091 3e-3 0.499 0 0.499 0 3.027 1e-3 7.048 3e-3 14.095-1e-3 21.142-8e-3 8.588-9e-3 17.175-7e-3 25.763 9e-3 4.383 8e-3 8.766 0.011 13.15 2e-3 4.747-0.011 9.494 2e-3 14.241 0.017 1.392-7e-3 2.784-0.014 4.218-0.021 1.269 8e-3 2.538 0.016 3.846 0.024 0.548 0 0.548 0 3.322 1e-3 3.369 0.432 5.255 1.313 7.938 3.377 1.055 3.617 1.197 5.409 0 9-0.075 2.539-0.086 5.08-0.066 7.62 5e-3 0.795 5e-3 0.795 0.03 4.814 7e-3 0.85 0.015 1.7 0.022 2.576 0.022 2.66 0.036 5.321 0.048 7.981 0.034 7.564 0.075 15.128 0.138 22.692 0.037 4.626 0.06 9.253 0.074 13.879 8e-3 1.764 0.022 3.527 0.041 5.291 0.026 2.465 0.033 4.931 0.038 7.396 0.01 1.404 0.019 2.807 0.029 4.253-0.354 3.498-0.354 3.498-3.354 7.498-4.57 1.523-9.228 1.144-14.001 1.141-1.134 4e-3 -2.267 7e-3 -3.435 0.011-2.465 7e-3 -4.931 0.013-7.396 0.016-3.9 7e-3 -7.8 0.023-11.699 0.042-11.09 0.052-22.179 0.1-33.268 0.115-6.78 0.011-13.559 0.04-20.338 0.082-2.586 0.012-5.172 0.017-7.758 0.015-3.615-2e-3 -7.229 0.02-10.844 0.047-1.072-6e-3 -2.143-0.013-3.247-0.02-7.259 0.092-7.259 0.092-11.155 2.459-2.928 3.295-2.984 5.166-2.986 9.496-3e-3 1.154-6e-3 2.309-9e-3 3.498 1e-3 0.64 1e-3 0.64 5e-3 3.877-2e-3 1.351-4e-3 2.701-6e-3 4.093-6e-3 4.558-5e-3 9.117-5e-3 13.676-3e-3 3.255-6e-3 6.51-0.01 9.764-8e-3 7.026-0.013 14.051-0.016 21.077-6e-3 11.099-0.023 22.198-0.042 33.297-6e-3 3.795-0.012 7.59-0.019 11.385-1e-3 0.948-3e-3 1.896-4e-3 2.874-0.018 10.801-0.035 21.603-0.05 32.404-1e-3 0.988-2e-3 1.976-4e-3 2.993-0.022 16.012-0.032 32.023-0.04 48.035-8e-3 16.426-0.031 32.852-0.068 49.278-0.022 10.138-0.032 20.277-0.025 30.416 3e-3 7.765-0.014 15.529-0.039 23.294-7e-3 3.191-7e-3 6.382 0 9.573 9e-3 4.343-7e-3 8.685-0.028 13.028 8e-3 1.275 0.016 2.55 0.025 3.863-5e-3 0.58-5e-3 0.58-0.033 3.515 0 0.501 0 0.501-3e-3 3.039-0.639 3.333-1.909 4.5-4.502 6.617-3.213 1.606-6.428 1.11-9.994 1.097-0.827-1e-3 -1.653-3e-3 -2.504-4e-3 -1.799-4e-3 -3.597-0.01-5.395-0.018-2.851-0.013-5.701-0.02-8.552-0.024-7.085-0.014-14.17-0.038-21.256-0.062-5.976-0.02-11.953-0.035-17.93-0.045-2.8-7e-3 -5.601-0.019-8.402-0.032-1.732-4e-3 -3.464-7e-3 -5.196-0.01-1.504-5e-3 -3.008-0.011-4.557-0.016-4.214 0.114-4.214 0.114-8.582 0.69-3.632 0.424-3.632 0.424-6.507-0.701-3.109-2.744-4-5.491-4.368-9.593 2e-3 -0.991 5e-3 -1.982 8e-3 -3.003 0-0.575 0-0.575-4e-3 -3.482 8e-3 -1.257 0.017-2.515 0.026-3.811 0-0.669 0-0.669 3e-3 -4.058 6e-3 -4.504 0.027-9.007 0.047-13.51 7e-3 -3.223 0.013-6.445 0.018-9.668 0.013-6.947 0.032-13.893 0.056-20.84 0.034-10.05 0.053-20.101 0.068-30.151 0.024-16.315 0.054-32.629 0.09-48.944 1e-3 -0.488 1e-3 -0.488 7e-3 -2.959 0.031-13.861 0.068-27.722 0.108-41.584 3e-3 -0.976 5e-3 -1.952 8e-3 -2.958 3e-3 -0.975 6e-3 -1.95 9e-3 -2.954 0.046-16.252 0.076-32.504 0.094-48.756 0.012-10.027 0.037-20.053 0.078-30.079 0.031-7.68 0.041-15.359 0.043-23.039 4e-3 -3.153 0.016-6.306 0.034-9.459 0.025-4.296 0.024-8.592 0.018-12.887 0.013-1.256 0.026-2.511 0.039-3.805-0.062-10.582-0.062-10.582-4.507-15.335-3.988-1.994-9.149-1.144-13.562-1.142-1.205-4e-3 -2.41-7e-3 -3.651-0.011-2.624-7e-3 -5.247-0.013-7.871-0.016-4.147-7e-3 -8.294-0.023-12.441-0.041-11.793-0.053-23.586-0.101-35.38-0.116-7.206-0.01-14.411-0.04-21.617-0.082-2.753-0.012-5.505-0.017-8.257-0.015-3.844 2e-3 -7.686-0.02-11.529-0.047-0.573 3e-3 -0.573 3e-3 -3.471 0.02-1.045-0.013-2.09-0.025-3.166-0.038-0.909-3e-3 -1.818-5e-3 -2.755-7e-3 -2.3-0.505-2.3-0.505-5.3-4.505-0.381-3.878-0.381-3.878-0.388-8.669-5e-3 -0.873-0.01-1.747-0.016-2.647-0.013-2.886-4e-3 -5.771 6e-3 -8.657-2e-3 -2.005-5e-3 -4.01-9e-3 -6.015-4e-3 -4.201 2e-3 -8.401 0.016-12.602 0.017-5.389 7e-3 -10.778-0.01-16.168-0.011-4.139-8e-3 -8.278 0-12.417 2e-3 -1.988-1e-3 -3.975-8e-3 -5.963-7e-3 -2.775 4e-3 -5.549 0.021-8.324 3e-3 -1.58 5e-3 -3.16 7e-3 -4.788 0.655-6.441 3.587-7.125 9.39-7.128z" fill="#E0194B"/>
<path transform="translate(621.84 643.84)" d="m0 0c1.036-5e-3 2.072-0.01 3.14-0.015 3.459-0.015 6.918-0.021 10.377-0.027 2.417-6e-3 4.835-0.012 7.253-0.017 5.098-0.011 10.196-0.017 15.294-0.02 5.179-4e-3 10.357-0.018 15.536-0.041 67.801-0.294 67.801-0.294 97.37 7.469 1.452 0.348 2.904 0.697 4.4 1.056 10.373 2.639 19.384 6.695 28.787 11.756 1.096 0.543 2.192 1.087 3.321 1.647 2.584 1.305 4.628 2.717 6.867 4.541 3.368 2.694 6.796 5.251 10.312 7.75 13.559 9.881 24.815 22.172 31.367 37.804 1.133 2.258 1.133 2.258 4.133 5.758 3.938 4.945 4.684 10.705 5.848 16.793 0.959 3.919 2.132 7.138 3.691 10.824 2.869 7.252 3.445 14.082 3.774 21.821 0.073 1.255 0.145 2.509 0.22 3.802 0.712 13.138 0.604 26.194-0.22 39.323-0.054 1.163-0.107 2.326-0.162 3.525-0.48 7.49-2.057 13.554-4.958 20.467-1.537 3.795-2.379 7.639-3.255 11.633-4.012 14.934-14.05 26.72-23.938 38.312-1.542 1.937-3.084 3.874-4.625 5.813-5.474 6.655-11.35 11.321-18.761 15.617-3.536 2.124-6.861 4.505-10.215 6.902-2.254 1.568-4.547 3.004-6.899 4.418-3.5 2.25-3.5 2.25-5.5 5.25-0.689 5.933 0.736 8.953 4.063 13.813 0.821 1.218 1.642 2.436 2.488 3.691 2.051 2.927 4.119 5.84 6.199 8.746 2.29 3.206 4.126 6.378 5.813 9.938 2.193 4.6 5.037 7.996 8.437 11.812 1.596 2.285 3.115 4.609 4.629 6.949 1.371 2.051 1.371 2.051 3.434 4.489 1.815 2.401 3.006 4.613 4.312 7.312 2.936 6.051 6.572 11.433 10.528 16.86 0.63 0.871 1.26 1.742 1.91 2.64 0.584 0.789 1.168 1.578 1.769 2.391 1.508 2.508 1.887 4.511 2.418 7.359 1.62 1.712 3.296 3.372 5 5 3.974 4.988 7.294 10.085 10.512 15.582 1.739 2.826 3.751 5.398 5.785 8.016 3.127 4.411 5.752 9.139 8.457 13.816 2.246 3.586 2.246 3.586 5.086 6.797 0.713 0.92 1.426 1.841 2.16 2.789-1 4-1 4-2 5-3.22 0.136-6.419 0.208-9.641 0.237-1.013 0.013-2.026 0.026-3.07 0.04-3.369 0.042-6.739 0.076-10.109 0.11-2.336 0.025-4.672 0.051-7.008 0.077-4.908 0.053-9.816 0.102-14.724 0.149-6.284 0.06-12.569 0.134-18.854 0.212-4.83 0.058-9.659 0.106-14.489 0.152-2.317 0.023-4.633 0.05-6.95 0.08-3.246 0.041-6.491 0.069-9.737 0.094-0.955 0.015-1.91 0.03-2.895 0.046-6.532 0.031-12.127-0.135-17.21-4.509-0.763-0.887-1.527-1.774-2.313-2.688-0.639-0.701-1.279-1.402-1.937-2.125-1.939-2.703-3.444-5.378-5-8.312-2.307-4.331-4.835-7.851-8.063-11.563-1.533-2.226-3.01-4.481-4.472-6.754-1.528-2.246-1.528-2.246-3.532-4.664-2.071-2.68-3.437-5.269-4.871-8.332-3.086-6.327-6.74-11.94-10.847-17.64-3.699-5.171-6.838-10.394-9.809-16.012-2.159-3.819-4.791-7.123-7.469-10.598-1.685-2.655-3.352-5.322-5-8-0.974-1.462-1.953-2.92-2.937-4.375-2.093-3.117-4.081-6.273-6-9.5-0.493-0.824-0.985-1.647-1.492-2.496-1.114-1.865-2.223-3.732-3.329-5.602-0.297-0.489-0.297-0.489-1.804-2.964-0.538-0.896-1.075-1.792-1.629-2.715-2.147-2.787-3.614-3.84-6.809-5.348-3.133-0.4-6.072-0.636-9.215-0.726-0.457-0.018-0.457-0.018-2.772-0.106-12.643-0.395-25.294 0.127-37.93 0.576-3.237 0.112-6.474 0.205-9.712 0.295-0.492 0.02-0.492 0.02-2.985 0.123-5.261 0.135-7.03 0.105-11.386-3.162-1.409-4.169-1.133-8.56-1.145-12.924-6e-3 -1.605-0.013-3.21-0.019-4.864-2e-3 -1.748-3e-3 -3.495-4e-3 -5.243-3e-3 -1.797-6e-3 -3.594-0.01-5.391-6e-3 -3.762-8e-3 -7.525-7e-3 -11.287 0-4.819-0.014-9.637-0.031-14.456-0.011-3.709-0.013-7.419-0.012-11.128-2e-3 -1.777-6e-3 -3.554-0.014-5.33-0.01-2.484-5e-3 -4.969-1e-3 -7.453-1e-3 -1.413-3e-3 -2.826-4e-3 -4.281 0.309-4.554 1.005-7.4 4.247-10.643 2.918-0.176 5.844-0.214 8.767-0.195 0.909 3e-3 1.818 6e-3 2.755 9e-3 1.984 7e-3 3.967 0.02 5.951 0.036 3.161 0.025 6.322 0.038 9.483 0.048 7.872 0.027 15.744 0.075 23.616 0.123 6.621 0.04 13.241 0.071 19.862 0.091 3.074 0.013 6.148 0.038 9.223 0.063 9.991 0.054 19.905-0.204 29.868-0.995 0.474-0.035 0.474-0.035 2.873-0.211 8.662-0.776 14.872-3.961 22.114-8.434 2.219-1.369 4.476-2.675 6.738-3.972 9.707-6.633 14.537-16.924 18.188-27.875 2.011-16.758 0.686-32.714-9.438-46.688-0.887-1.237-1.774-2.475-2.687-3.75-3.648-3.579-7.186-5.616-11.715-7.902-2.598-1.348-2.598-1.348-5.66-3.598-20.372-12.136-55.666-7.149-78.707-7.014-3.929 0.019-7.857 0.023-11.785 0.027-4.715 5e-3 -9.43 0.019-14.145 0.034-0.444 1e-3 -0.444 1e-3 -2.689 6e-3 -2.508 7e-3 -5.016 0.021-7.525 0.036-1.421 7e-3 -2.842 0.014-4.307 0.021-3.78 0.14-3.78 0.14-7.141 0.748-2.639 0.392-2.639 0.392-4.951-1.17-3.366-4.862-2.818-10.744-2.833-16.475-6e-3 -1.605-0.013-3.21-0.019-4.864-2e-3 -1.743-3e-3 -3.485-4e-3 -5.228-3e-3 -1.795-6e-3 -3.591-0.01-5.386-6e-3 -3.757-8e-3 -7.513-7e-3 -11.27 0-4.811-0.014-9.621-0.031-14.432-0.011-3.705-0.013-7.41-0.012-11.115-2e-3 -1.774-6e-3 -3.548-0.014-5.322-0.01-2.479-5e-3 -4.959-1e-3 -7.438-1e-3 -1.41-3e-3 -2.819-4e-3 -4.272 0.682-10.026 4.117-9.787 13.09-9.797z" fill="#E0194B"/>
<path transform="translate(1045.8 47.498)" d="m0 0c0.549-3e-3 0.549-3e-3 3.327-0.016 3.633-0.013 7.265 4e-3 10.897 0.022 2.521-1e-3 5.042-2e-3 7.562-5e-3 5.284-1e-3 10.567 0.011 15.85 0.034 6.782 0.029 13.563 0.026 20.345 0.013 5.205-7e-3 10.409 1e-3 15.614 0.013 2.501 5e-3 5.002 5e-3 7.503 1e-3 3.491-3e-3 6.982 0.014 10.472 0.036 1.04-5e-3 2.079-9e-3 3.151-0.014 7.156 0.075 7.156 0.075 10.499 3.418 0.375 3.125 0.375 3.125 0.375 7.073 7e-3 1.502 0.015 3.003 0.022 4.55-7e-3 1.678-0.015 3.357-0.022 5.035 2e-3 1.773 6e-3 3.547 0.012 5.32 0.01 4.888 2e-3 9.777-9e-3 14.665-9e-3 5.266 0 10.532 6e-3 15.798 9e-3 10.322 3e-3 20.644-9e-3 30.966-0.014 12.011-0.012 24.023-0.01 36.034 3e-3 21.427-9e-3 42.854-0.028 64.281-0.019 20.808-0.026 41.617-0.021 62.425 6e-3 22.638 6e-3 45.276-5e-3 67.914-2e-3 2.413-3e-3 4.825-4e-3 7.238-1e-3 1.187-1e-3 2.374-2e-3 3.597-4e-3 8.379-3e-3 16.759-1e-3 25.138 2e-3 10.208-3e-3 20.416-0.018 30.623-7e-3 5.212-0.011 10.423-7e-3 15.635 4e-3 4.766-1e-3 9.532-0.013 14.298-3e-3 1.729-3e-3 3.458 1e-3 5.187 5e-3 2.341-3e-3 4.682-0.012 7.023-1e-3 1.304-2e-3 2.607-3e-3 3.949-0.252 3.251-0.252 3.251-2.252 7.251-3.668 1.834-8.105 1.21-12.153 1.253-0.528 7e-3 -0.528 7e-3 -3.198 0.044-3.504 0.047-7.008 0.087-10.512 0.125-1.194 0.013-2.389 0.027-3.619 0.042-6.321 0.073-12.642 0.14-18.964 0.203-6.537 0.066-13.074 0.151-19.611 0.24-5.019 0.065-10.039 0.116-15.058 0.164-2.41 0.025-4.821 0.056-7.231 0.091-3.37 0.049-6.741 0.078-10.112 0.102-0.998 0.019-1.996 0.037-3.024 0.057-4.971 0.015-8.622-0.03-12.518-3.321-1.483-2.968-1.137-5.638-1.149-8.951-8e-3 -1.499-0.016-2.998-0.024-4.543-4e-3 -1.682-8e-3 -3.363-0.012-5.044-7e-3 -1.773-0.015-3.545-0.023-5.318-0.022-4.89-0.037-9.781-0.051-14.671-0.016-5.267-0.038-10.534-0.059-15.8-0.049-12.728-0.089-25.455-0.128-38.183-0.018-5.987-0.037-11.975-0.056-17.963-0.064-19.893-0.124-39.786-0.178-59.679l-0.042-15.495c-3e-3 -1.284-7e-3 -2.568-0.01-3.891-0.057-20.812-0.131-41.625-0.212-62.438-0.083-21.349-0.151-42.697-0.204-64.045-0.03-11.995-0.066-23.989-0.12-35.983-0.045-10.212-0.077-20.423-0.091-30.634-8e-3 -5.214-0.022-10.427-0.053-15.641-0.029-4.768-0.039-9.536-0.035-14.304-1e-3 -1.73-0.01-3.459-0.026-5.189-0.02-2.342-0.014-4.684-6e-3 -7.026-2e-3 -0.652-2e-3 -0.652-0.012-3.951 0.491-3.251 0.491-3.251 2.224-5.67 3.903-2.722 8.457-2.126 13.047-2.083z" fill="#E0194B"/>
<path transform="translate(1046.4 642.91)" d="m0 0c1.077 3e-3 2.153 6e-3 3.262 0.01 3.574 0.012 7.147 0.033 10.721 0.056 1.218 7e-3 2.435 0.014 3.69 0.021 6.443 0.037 12.886 0.081 19.329 0.13 6.668 0.05 13.335 0.076 20.002 0.097 5.117 0.02 10.233 0.058 15.349 0.101 2.459 0.017 4.917 0.028 7.375 0.032 3.436 7e-3 6.871 0.038 10.307 0.076 0.51-1e-3 0.51-1e-3 3.092-0.01 6.864 0.113 6.864 0.113 9.781 2.156 2.384 3.312 2.241 5.535 2.245 9.6 0.011 1.5 0.022 3.001 0.034 4.547-8e-3 1.672-0.017 3.344-0.025 5.017 5e-3 1.77 0.012 3.541 0.021 5.312 0.018 4.877 0.012 9.753 2e-3 14.629-7e-3 5.255 9e-3 10.51 0.022 15.765 0.021 10.299 0.021 20.597 0.013 30.895-6e-3 8.367-5e-3 16.733 1e-3 25.1 1e-3 1.189 2e-3 2.378 3e-3 3.604 2e-3 2.415 4e-3 4.831 5e-3 7.247 0.017 22.668 8e-3 45.336-8e-3 68.004-0.015 20.759-1e-3 41.517 0.028 62.276 0.03 21.295 0.041 42.59 0.031 63.885-1e-3 2.407-2e-3 4.814-3e-3 7.22 0 0.592 0 0.592-1e-3 3.589-2e-3 8.361 7e-3 16.721 0.022 25.082 0.017 10.183 0.017 20.366-5e-3 30.549-0.012 5.199-0.015 10.398 4e-3 15.597 0.017 4.754 0.01 9.508-0.014 14.262-5e-3 1.725-2e-3 3.45 0.011 5.176 0.016 2.334-1e-3 4.668-0.021 7.002v3.939c-0.626 3.119-0.626 3.119-2.868 5.037-4.357 1.71-8.748 1.498-13.36 1.47-0.533 3e-3 -0.533 3e-3 -3.234 0.016-3.525 0.014-7.049 5e-3 -10.574-5e-3 -2.45 2e-3 -4.899 5e-3 -7.349 8e-3 -5.132 5e-3 -10.264-2e-3 -15.396-0.016-6.583-0.017-13.166-7e-3 -19.749 0.011-5.057 0.011-10.114 7e-3 -15.171 0-2.428-2e-3 -4.856 0-7.283 7e-3 -3.39 8e-3 -6.78-4e-3 -10.17-0.021-0.503 3e-3 -0.503 3e-3 -3.049 0.019-5.209-0.048-7.122-0.181-11.423-3.407-1.323-3.981-1.121-8.061-1.113-12.226 0-1.484 0-2.969 1e-3 -4.498 5e-3 -1.632 0.011-3.265 0.016-4.947 2e-3 -1.75 4e-3 -3.501 6e-3 -5.251 5e-3 -4.815 0.017-9.63 0.029-14.446 0.013-5.191 0.019-10.382 0.027-15.572 0.016-10.171 0.037-20.342 0.06-30.513 0.02-8.263 0.037-16.527 0.053-24.791 0.047-23.413 0.098-46.826 0.154-70.24 3e-3 -1.262 6e-3 -2.525 9e-3 -3.826 3e-3 -1.264 6e-3 -2.528 9e-3 -3.83 0.049-20.503 0.088-41.005 0.122-61.507 0.036-21.037 0.079-42.073 0.129-63.11 0.028-11.816 0.054-23.633 0.071-35.45 0.014-10.057 0.036-20.115 0.067-30.172 0.015-5.135 0.027-10.269 0.031-15.404 3e-3 -4.696 0.015-9.392 0.035-14.087 9e-3 -2.513 7e-3 -5.026 5e-3 -7.539 8e-3 -1.482 0.016-2.964 0.024-4.491 3e-3 -1.284 6e-3 -2.567 9e-3 -3.89 0.256-3.21 0.256-3.21 2.256-7.21 3.713-1.856 8.258-1.112 12.353-1.085z" fill="#E0194B"/>
<path transform="translate(2062.3 941.75)" d="m0 0c1.02-0.021 2.041-0.041 3.092-0.062 5.896-0.031 10.333 0.337 15.596 3.312 0.989 0.99 1.98 1.98 3 3 2.636 0.703 2.636 0.703 5.687 1.25 6.497 1.527 9.76 4.025 14.313 8.75 0.455 0.427 0.455 0.427 2.757 2.586 5.672 5.399 9.981 10.311 13.243 17.414 0.524 1.022 1.049 2.044 1.589 3.098 3.363 6.764 5.354 12.355 5.411 19.902 0.018 0.521 0.018 0.521 0.113 3.156 0.232 10.465-1.199 18.461-6.113 27.844-0.495 1.547-0.99 3.094-1.5 4.688-1.79 5.143-4.035 7.852-7.829 11.632-1.723 1.728-3.425 3.477-5.101 5.25-8.348 8.722-8.348 8.722-14.57 10.43h-5l-1-3c3.504-4.763 7.175-8.001 11.988-11.484 6.094-4.592 9.962-9.601 13.652-16.184 1.36-2.332 1.36-2.332 4.36-6.332 2.769-12.321 4.82-31.789-2-43-2.214-3.419-4.614-6.7-7-10-0.261-0.371-0.261-0.371-1.579-2.246-3.609-5.024-7.502-8.624-12.472-12.25-3.633-2.663-6.218-4.862-8.949-8.504-5.538-0.861-11.116-0.786-16.712-0.796-2.753-0.016-5.498-0.102-8.249-0.19-8.225-0.128-14.88-0.135-21.551 5.341-1.517 1.528-3.015 3.075-4.488 4.645-1.415 1.073-2.851 2.117-4.313 3.125-6.873 5.358-10.95 11.71-15.172 19.203-1.097 1.935-2.282 3.821-3.515 5.672-3.508 15.047-3.839 31.706 4.234 45.266 5.21 8.068 9.816 14.269 17.766 19.734 7.632 6.265 7.632 6.265 9 9 8.855 1.14 17.77 1.301 26.687 1.562 1.381 0.044 2.762 0.087 4.186 0.131 3.375 0.105 6.751 0.208 10.127 0.307v4c-8.132 6.273-20.462 4.579-30.09 3.727-5.807-0.949-9.254-3.296-13.91-6.727-1.798-0.647-3.613-1.248-5.438-1.812-5.159-1.748-8.037-4.105-11.656-8.11-1.911-2.083-3.919-3.839-6.094-5.64-6.21-5.408-9.299-11.157-11.902-18.852-1.057-3.003-2.461-5.756-3.91-8.586-1.281-5.121-1.224-9.929-1.25-15.188-0.021-1.003-0.042-2.007-0.063-3.041-0.077-14.855 6.801-28.941 17.051-39.521 0.746-0.742 1.493-1.485 2.262-2.25 0.694-0.742 1.389-1.485 2.105-2.25 6.191-6.515 12.507-9.605 20.895-12.75 2.338-1.325 4.672-2.657 7-4 5.158-1.29 10.016-1.224 15.312-1.25z" fill="#DF194B"/>
<path transform="translate(2065.2 971.8)" d="m0 0c7.764-0.337 11.682 2.547 17.645 7.141 4.347 4.177 5.043 6.19 5.5 12.125-0.313 3.937-0.313 3.937-3.313 7.937-3.125 0.813-3.125 0.813-6 1-1.687-1.687-1.245-3.94-1.375-6.25-0.68-7.615-0.68-7.615-3.625-10.75-5.589-3.469-10.418-4.904-17-5-4.605 1.74-6.854 4.628-9 9-0.814 5.722-0.576 9.232 3 14v2c5.656 0.783 10.385 0.919 16 0 4.25-0.562 4.25-0.562 8 0 1.813 3.625 1.813 3.625 3 8 1.434 3.179 2.753 5.706 5 8.375 4.324 5.675 5.717 11.578 5 18.625l-3 3c-2.562-0.125-2.562-0.125-5-1-2.596-3.893-2.696-7.31-3.242-11.894-1.558-6.383-5.242-9.91-10.57-13.481-0.997-0.688-1.993-1.377-3.02-2.086-3.714-1.804-6.088-2.042-10.168-1.539-5.88 6.964-5.025 13.38-4.84 22.094-0.16 3.906-0.16 3.906-2.16 6.906-2.5-0.125-2.5-0.125-5-1-2.235-3.352-2.256-4.467-2.275-8.386-9e-3 -1.101-0.019-2.203-0.029-3.338 1e-3 -1.191 2e-3 -2.381 3e-3 -3.608-4e-3 -1.224-8e-3 -2.449-0.013-3.711-5e-3 -2.593-6e-3 -5.186-2e-3 -7.779 4e-3 -3.964-0.02-7.927-0.045-11.891-3e-3 -2.519-3e-3 -5.038-2e-3 -7.556-9e-3 -1.185-0.019-2.37-0.028-3.59 0.058-10.426 0.058-10.426 3.391-15.141 6.388-3.194 16.093-1.749 23.168-2.203z" fill="#DF194B"/>
</svg>
