<?xml version="1.0" encoding="UTF-8"?>
<svg version="1.1" viewBox="0 0 2448 1112" xmlns="http://www.w3.org/2000/svg">
<path transform="translate(1375.3 212.02)" d="m0 0c3.966 1.042 7.022 1.046 11.105 0.855 14.597-0.165 30.858 1.429 44.086 7.926 2.78 1.313 5.516 2.072 8.477 2.887 7.547 2.433 13.07 7.273 19.062 12.312 0.765 0.578 1.529 1.155 2.317 1.75 6.265 4.905 9.85 11.378 13.683 18.25 0.463 0.802 0.926 1.604 1.403 2.43 15.089 27.865 14.195 59.823 14.106 90.532-0.012 5.364 1e-3 10.727 0.01 16.09 0.013 10.472 6e-3 20.944-9e-3 31.416-0.017 12.22-0.014 24.44-0.01 36.661 6e-3 21.815-8e-3 43.631-0.033 65.447-0.024 21.123-0.031 42.247-0.02 63.371 0.011 23.06 0.013 46.121-2e-3 69.182-1e-3 2.463-3e-3 4.925-4e-3 7.388-1e-3 1.211-2e-3 2.423-2e-3 3.671-5e-3 8.5-3e-3 17 1e-3 25.5 5e-3 10.368-1e-3 20.736-0.021 31.104-0.01 5.28-0.015 10.561-7e-3 15.842 7e-3 4.848 0 9.696-0.018 14.544-6e-3 2.553 3e-3 5.107 0.012 7.66-0.094 17.521-2.392 34.257-8.156 50.85-0.404 1.252-0.809 2.505-1.226 3.795-2.642 7.807-5.898 14.072-11.024 20.517-0.782 1.024-1.564 2.048-2.371 3.102-8.82 10.771-17.293 20.649-30.918 24.844-2.711 1.054-2.711 1.054-5.32 3.015-4.779 2.875-9.569 3.573-15.016 4.539-2.268 0.42-4.536 0.841-6.804 1.262-1.12 0.206-2.24 0.411-3.394 0.623-2.773 0.537-5.505 1.147-8.247 1.823-18.583 4.389-38.992 5.604-57.164-0.93-3.961-1.344-7.691-1.949-11.828-2.528-9.142-1.598-16.211-5.765-23.938-10.75-0.505-0.315-0.505-0.315-3.062-1.91-20.778-13.901-28.012-36.094-33.938-59.09-0.382-1.424-0.765-2.848-1.16-4.316-1.146-6.395-1.267-12.698-1.402-19.184-0.061-2.531-0.124-5.062-0.191-7.593-0.024-1.111-0.048-2.221-0.073-3.366-0.174-3.541-0.174-3.541-0.676-7.246-0.806-7.161-0.635-14.356-0.625-21.553-1e-3 -1.64-3e-3 -3.281-4e-3 -4.971-4e-3 -4.538-2e-3 -9.076 1e-3 -13.614 2e-3 -4.9-1e-3 -9.8-4e-3 -14.7-5e-3 -9.592-4e-3 -19.185-1e-3 -28.777 2e-3 -7.795 3e-3 -15.591 2e-3 -23.386-1e-3 -1.11-1e-3 -2.219-1e-3 -3.363 0-2.254 0-4.508-1e-3 -6.762-3e-3 -21.134 1e-3 -42.268 6e-3 -63.402 4e-3 -18.136 4e-3 -36.271-1e-3 -54.407-5e-3 -21.062-7e-3 -42.123-4e-3 -63.185 0-2.245 0-4.49 1e-3 -6.736v-3.348c1e-3 -7.787 0-15.575-3e-3 -23.362-3e-3 -9.488-2e-3 -18.976 3e-3 -28.464 3e-3 -4.841 4e-3 -9.682 1e-3 -14.524-4e-3 -5.245 0-10.49 5e-3 -15.736-2e-3 -1.534-4e-3 -3.067-6e-3 -4.648 2e-3 -1.405 5e-3 -2.81 8e-3 -4.258v-3.668c0.129-3.539 0.585-6.933 1.125-10.431 0.051-1.686 0.065-3.375 0.036-5.062 2e-3 -12.495 1.479-24.007 4.589-36.125 0.319-1.263 0.637-2.525 0.966-3.826 3.303-12.14 8.365-23.267 16.409-32.987 0.272-0.337 0.272-0.337 1.649-2.046 5.962-7.177 13.22-12.394 21.351-16.954 1.012-0.569 2.024-1.139 3.067-1.726 14.297-7.376 30.098-9.471 46.035-10.098 14.792-0.897 14.792-0.897 17.168-0.156zm-23.27 90.98c-0.653 0.593-1.307 1.185-1.981 1.796-6.256 5.838-8.273 10.856-9.144 19.267-0.826 7.72-0.826 7.72-1.393 10.257-0.568 3.161-0.608 6.134-0.61 9.346-3e-3 1.359-7e-3 2.719-0.01 4.119 2e-3 1.493 3e-3 2.986 5e-3 4.524-3e-3 1.587-5e-3 3.173-7e-3 4.807-6e-3 4.407-6e-3 8.814-5e-3 13.22 0 4.751-5e-3 9.503-0.01 14.254-8e-3 9.31-0.011 18.62-0.012 27.931 0 7.567-2e-3 15.135-5e-3 22.702-9e-3 21.451-0.014 42.903-0.013 64.354v3.505 3.51c1e-3 18.769-9e-3 37.538-0.023 56.307-0.014 19.268-0.021 38.536-0.02 57.804 0 10.819-3e-3 21.638-0.014 32.458-9e-3 9.212-0.011 18.424-4e-3 27.636 3e-3 4.699 3e-3 9.399-5e-3 14.099-0.01 5.096-3e-3 10.192 4e-3 15.288-5e-3 1.484-0.01 2.968-0.015 4.497 0.024 7.121 0.415 13.441 2.262 20.319 0.174 2.206 0.304 4.415 0.375 6.625 0.64 9.171 5.282 15.046 11.625 21.375 6.466 4.662 13.113 4.183 20.75 4.188 1.06 0.012 2.12 0.024 3.211 0.037 13.216 0.025 21.589-3.526 31.024-12.713 4.217-5.255 5.39-10.313 5.393-16.948 4e-3 -0.741 4e-3 -0.741 0.024-4.487-7e-3 -1.618-0.014-3.236-0.021-4.903 4e-3 -1.743 9e-3 -3.486 0.015-5.229 0.012-4.786 6e-3 -9.572-3e-3 -14.357-7e-3 -5.163 3e-3 -10.327 0.012-15.49 0.013-10.114 0.01-20.228 1e-3 -30.342-6e-3 -8.221-7e-3 -16.443-4e-3 -24.664 0-0.585 0-0.585 1e-3 -3.545 1e-3 -2.377 2e-3 -4.753 3e-3 -7.13 9e-3 -22.293-1e-3 -44.585-0.017-66.878-0.014-19.123-0.011-38.245 3e-3 -57.368 0.016-22.207 0.022-44.413 0.013-66.619l-3e-3 -7.107c-1e-3 -1.166-1e-3 -2.332-1e-3 -3.533-3e-3 -8.208 1e-3 -16.416 8e-3 -24.625 9e-3 -10.008 6e-3 -20.016-9e-3 -30.024-8e-3 -5.106-0.011-10.211-2e-3 -15.316 9e-3 -4.677 4e-3 -9.353-0.011-14.03-5e-3 -2.486 4e-3 -4.972 0.015-7.458-0.05-9.562-0.11-18.716-5.749-26.841-0.875-0.864-1.751-1.728-2.653-2.618-0.823-0.843-1.647-1.686-2.496-2.554-8.536-6.734-16.169-7.344-26.816-7.446-0.65-0.012-0.65-0.012-3.937-0.073-8.739 0.169-13.599 1.877-19.751 8.073z" fill="#E10101"/>
<path transform="translate(1561,232)" d="m0 0c0.608 0.155 0.608 0.155 3.688 0.938 5.258 1.295 10.327 1.496 15.726 1.718 3.586 0.344 3.586 0.344 6.328 1.285 5.761 1.872 11.843 2.185 17.848 2.827 9.887 1.163 9.887 1.163 14.41 4.232 3.518 6.131 4.795 12.247 6.156 19.137 1.221 5.589 2.928 11.008 4.586 16.48 1.267 4.415 2.317 8.839 3.32 13.321 1.033 4.559 2.094 8.794 4 13.062 1.927 4.377 2.632 8.657 3.376 13.375 1.03 6.427 2.659 11.648 5.371 17.523 1.917 4.991 2.567 10.179 3.449 15.434 0.745 3.683 2.013 6.725 3.707 10.074 2.072 5.192 2.893 10.79 4.031 16.246 0.802 3.473 1.718 6.509 3.066 9.786 1.947 4.888 2.663 9.816 3.376 15 0.921 6.681 2.489 12.237 5.371 18.328 2.097 5.695 2.602 11.721 3.32 17.718 0.924 4.79 2.698 8.174 4.871 12.516 0.873 3.362 1.402 6.758 1.938 10.188 1.255 7.289 2.944 13.799 5.835 20.636 1.935 5.009 3.086 10.182 4.325 15.399 0.75 3.141 1.574 6.236 2.464 9.339 1.599 5.676 2.595 11.444 3.594 17.25 0.844 3.188 0.844 3.188 3.844 6.188 4.188 0.688 4.188 0.688 8 1-0.066-1.361-0.133-2.722-0.201-4.124-0.697-15.627-0.943-31.248-1.08-46.888-5e-3 -0.536-5e-3 -0.536-0.029-3.25-0.079-8.956-0.148-17.913-0.216-26.87-0.051-6.731-0.106-13.463-0.166-20.194-0.026-3.122-0.047-6.244-0.068-9.366-0.016-1.914-0.033-3.827-0.051-5.74-4e-3 -0.855-8e-3 -1.709-0.012-2.59-0.038-3.667-0.208-7.221-0.677-10.861-0.632-5.202-0.668-10.321-0.689-15.556-5e-3 -0.561-5e-3 -0.561-0.026-3.398-0.017-2.427-0.032-4.854-0.045-7.281-0.022-3.858-0.049-7.716-0.077-11.574-0.06-8.207-0.112-16.414-0.163-24.62-0.06-9.48-0.122-18.96-0.192-28.439-0.026-3.77-0.047-7.541-0.068-11.311-0.016-2.358-0.033-4.717-0.051-7.076-6e-3 -1.116-0.013-2.231-0.02-3.381-0.05-5.104-0.179-10.172-0.55-15.263-0.063-0.882-0.126-1.764-0.191-2.673-0.181-2.322-0.394-4.642-0.61-6.961 0.182-3.584 0.182-3.584 1.917-6.024 5.487-3.78 10.981-1.986 17.077-0.872 1.035 0.183 2.069 0.367 3.135 0.556 6.968 1.273 13.739 2.929 20.549 4.885 5.006 1.244 10.036 1.786 15.164 2.281 4.579 0.809 8.034 1.947 10.988 5.662 1.833 3.97 1.735 7.164 1.745 11.535 6e-3 0.87 0.012 1.74 0.018 2.636 0.017 2.929 0.012 5.858 8e-3 8.787 7e-3 2.115 0.016 4.23 0.026 6.346 0.024 5.824 0.03 11.648 0.032 17.472 5e-3 6.277 0.028 12.554 0.048 18.831 0.038 12.301 0.059 24.603 0.074 36.904 0.013 9.996 0.032 19.992 0.055 29.988 3e-3 1.421 6e-3 2.842 9e-3 4.306 7e-3 2.887 0.014 5.774 0.02 8.66 0.062 27.089 0.105 54.179 0.142 81.268 0.032 23.255 0.08 46.51 0.139 69.764 0.069 26.987 0.128 53.975 0.171 80.962 5e-3 2.877 0.01 5.753 0.014 8.63 1e-3 0.708 1e-3 0.708 7e-3 4.29 0.017 9.985 0.041 19.971 0.068 29.956 0.032 12.167 0.053 24.334 0.061 36.501 4e-3 6.211 0.014 12.421 0.036 18.631 0.02 5.683 0.026 11.365 0.021 17.047 1e-3 2.058 6e-3 4.117 0.018 6.175 0.014 2.794 0.01 5.587 2e-3 8.38 2e-3 1.553 5e-3 3.106 8e-3 4.706-0.391 4.386-1.25 7.307-3.37 11.153-4.35 3.263-6.923 3.862-12.188 4.938-1.608 0.337-3.217 0.675-4.874 1.023-0.824 0.171-1.648 0.342-2.497 0.518-3.725 0.795-7.425 1.692-11.129 2.583-5.471 1.286-10.943 2.562-16.437 3.75-1.158 0.254-2.315 0.508-3.508 0.77-3.849 0.478-6.625 0.488-10.367-0.582-4.011-4.371-4.899-8.963-6-14.688-1.059-5.154-2.106-10.05-4.062-14.937-1.753-4.426-2.629-8.747-3.438-13.437-0.778-4.494-1.548-8.535-3.438-12.688-2.56-5.706-3.467-11.814-4.491-17.944-0.745-4.18-1.689-7.54-3.606-11.345-2.234-4.503-2.807-8.234-3.403-13.211-0.905-6.773-2.465-12.423-5.374-18.598-1.511-4.01-2.067-7.914-2.688-12.152-0.968-6.564-2.464-11.828-5.242-17.809-2.153-5.461-3.103-11.203-4.289-16.937-0.792-3.479-1.717-6.578-3.031-9.879-1.71-4.333-2.588-8.534-3.376-13.125-1.171-6.789-3.078-12.968-5.371-19.449-1.666-5.315-2.511-10.698-3.449-16.18-0.631-3.078-1.392-5.532-2.68-8.371-2.54-5.693-3.489-11.758-4.579-17.856-0.74-4.048-1.606-7.76-2.924-11.675-1.973-5.973-3.183-11.999-4.434-18.157-6.305-30.136-6.305-30.136-11.125-36.562-3.625-0.375-3.625-0.375-7 0-3.348 6.695-0.908 17.501-0.562 24.812 1.327 28.967 1.651 57.938 1.808 86.93 8e-3 1.497 0.017 2.994 0.025 4.537 0.078 14.068 0.149 28.136 0.206 42.204 0.032 7.775 0.073 15.55 0.12 23.325 0.016 2.933 0.028 5.867 0.037 8.8 0.012 4.075 0.036 8.149 0.063 12.224 1e-3 1.191 1e-3 2.383 2e-3 3.61 0.044 5.05 0.226 9.798 1.304 14.74 1.053 5.087 1.279 9.904 1.256 15.069 3e-3 0.971 7e-3 1.941 0.01 2.941 9e-3 3.173 3e-3 6.346-3e-3 9.519 1e-3 2.218 3e-3 4.436 5e-3 6.654 3e-3 4.632-1e-3 9.263-0.01 13.894-0.012 5.939-5e-3 11.877 7e-3 17.815 7e-3 4.573 5e-3 9.145 0 13.718-2e-3 2.19 0 4.381 5e-3 6.571 5e-3 3.054-3e-3 6.108-0.014 9.162 4e-3 0.905 8e-3 1.81 0.012 2.742-0.029 4.351-0.287 6.764-2.271 10.733-5.865 2.988-11.296 3.331-17.727 3.691-3.027 0.286-5.566 0.852-8.461 1.747-12.661 3.748-27.694 4.972-40.812 3.562-4.11-4.11-4.117-5.841-4.141-11.577 1e-3 -0.468 1e-3 -0.468 4e-3 -2.838-3e-3 -0.994-5e-3 -1.987-8e-3 -3.011-8e-3 -3.368-8e-3 -6.736-9e-3 -10.104-4e-3 -2.423-8e-3 -4.847-0.013-7.27-0.012-6.69-0.018-13.38-0.022-20.07-6e-3 -7.203-0.018-14.407-0.029-21.61-0.024-17.41-0.039-34.819-0.052-52.229-3e-3 -4.914-7e-3 -9.827-0.011-14.741-0.026-30.484-0.048-60.968-0.06-91.452l-9e-3 -21.195c0-0.878-1e-3 -1.755-1e-3 -2.66-0.012-28.471-0.043-56.941-0.085-85.412-0.044-30.084-0.07-60.167-0.075-90.251-4e-3 -16.405-0.015-32.811-0.048-49.217-0.028-13.968-0.039-27.935-0.028-41.902 5e-3 -7.132 2e-3 -14.263-0.022-21.395-0.023-6.522-0.022-13.043-3e-3 -19.565 3e-3 -2.366-3e-3 -4.732-0.018-7.099-0.019-3.203-8e-3 -6.406 0.012-9.609-0.013-0.93-0.026-1.86-0.039-2.817 0.057-4.233 0.381-6.595 2.895-10.061 4.09-2.836 8.01-2.489 12.762-1.915z" fill="#E10000"/>
<path transform="translate(922,224)" d="m0 0c3.681 2.757 4.876 4.238 5.623 8.826-1e-3 1.517-1e-3 3.034-2e-3 4.596 6e-3 0.85 0.013 1.7 0.019 2.575 0.015 2.862-5e-3 5.722-0.025 8.583 3e-3 2.067 9e-3 4.134 0.017 6.201 0.015 5.691-1e-3 11.381-0.022 17.072-0.018 6.134-6e-3 12.268 1e-3 18.402 0.011 12.026-5e-3 24.052-0.03 36.078-0.028 14.014-0.029 28.028-0.029 42.043-1e-3 25.023-0.026 50.046-0.065 75.07-0.037 24.254-0.059 48.508-0.061 72.762-1e-3 1.491-1e-3 2.982-1e-3 4.518 0 1.489 0 2.977-1e-3 4.511 0 2.998 0 5.995-1e-3 8.993v4.48c-4e-3 23.137-0.022 46.273-0.042 69.41-7e-3 8.371-0.012 16.741-0.015 25.112-5e-3 13.295-0.017 26.59-0.041 39.885-0.012 6.07-0.02 12.141-0.019 18.211 0 5.574-9e-3 11.147-0.025 16.72-5e-3 2.001-6e-3 4.002-3e-3 6.003 0.013 10.504-0.302 20.911-1.182 31.382-0.039 0.477-0.039 0.477-0.239 2.893-0.678 7.357-2.361 13.77-4.857 20.674-0.348 1.257-0.696 2.514-1.055 3.809-2.832 10.167-7.059 18.453-12.945 27.191-0.736 1.097-1.472 2.194-2.23 3.324-8.823 12.446-23.168 24.319-38.442 27.422-2.708 0.459-5.416 0.918-8.125 1.375-4.203 0.879-4.203 0.879-8.535 2.453-5.403 1.65-10.004 1.871-15.606 1.801-0.924 0.012-1.849 0.023-2.802 0.035-5.642-0.024-10.253-0.873-15.587-2.648-5.246-1.496-10.706-1.875-16.111-2.512-12.053-1.569-22.451-4.302-33.562-9.25-0.964-0.423-1.928-0.846-2.922-1.281-23.894-11.263-38.909-26.802-48.078-51.719-0.296-0.794-0.593-1.588-0.898-2.406-4.756-14.125-4.395-29.369-4.369-44.093-4e-3 -2.033-9e-3 -4.065-0.014-6.097-0.012-5.543-0.012-11.086-0.01-16.628 1e-3 -5.994-0.01-11.987-0.02-17.98-0.016-11.72-0.022-23.441-0.023-35.162-1e-3 -9.522-5e-3 -19.044-0.012-28.565-0.017-27.001-0.026-54.002-0.025-81.002v-4.405c0-0.728 0-0.728 1e-3 -4.41 0-23.631-0.019-47.263-0.047-70.894-0.029-24.269-0.042-48.538-0.041-72.806 1e-3 -13.624-5e-3 -27.248-0.026-40.872-0.018-11.587-0.023-23.174-9e-3 -34.761 7e-3 -5.915 7e-3 -11.829-0.011-17.744-0.015-5.407-0.013-10.815 5e-3 -16.223 3e-3 -1.962-1e-3 -3.924-0.012-5.885-0.014-2.656-4e-3 -5.311 0.013-7.967 0-1.478-1e-3 -2.957-1e-3 -4.48 0.499-3.62 0.499-3.62 2.405-6.064 3.224-2.396 5.443-2.792 9.406-3.204 1.077-0.119 2.153-0.238 3.262-0.36 2.252-0.241 4.505-0.478 6.758-0.711 6.903-0.769 13.059-2.153 19.668-4.281 9.056-2.009 18.759-3.077 28-2 3.966 3.966 3.939 6.172 4.122 11.663-2e-3 1.439-3e-3 2.878-5e-3 4.361 1e-3 0.807 2e-3 1.613 2e-3 2.445 1e-3 2.714-6e-3 5.428-0.012 8.143-1e-3 1.961-2e-3 3.922-2e-3 5.883-2e-3 5.399-9e-3 10.797-0.018 16.196-9e-3 5.819-0.011 11.637-0.015 17.456-6e-3 10.087-0.016 20.173-0.027 30.26-0.017 14.593-0.027 29.186-0.034 43.78-0.012 23.688-0.027 47.377-0.045 71.065-2e-3 1.418-3e-3 2.837-4e-3 4.298-0.015 20.127-0.034 40.255-0.054 60.382-1e-3 1.417-3e-3 2.834-4e-3 4.295-1e-3 1.415-3e-3 2.83-4e-3 4.289-0.023 23.593-0.039 47.187-0.048 70.781-5e-3 14.557-0.018 29.115-0.038 43.672-0.014 9.975-0.021 19.949-0.021 29.924-1e-3 5.757-5e-3 11.514-0.018 17.271-0.012 5.27-0.014 10.54-9e-3 15.811 0 1.906-3e-3 3.813-0.01 5.719-9e-3 2.593-6e-3 5.186 1e-3 7.779-2e-3 1.44-3e-3 2.879-4e-3 4.363 0.598 10.072 3.173 15.419 10.153 22.48 7.826 6.789 15.725 8.07 25.782 8.684 0.878 0.054 1.757 0.109 2.663 0.165 7.072 0.232 13.18-0.758 19.137-4.892 0.602-0.626 1.204-1.253 1.824-1.898 0.615-0.611 1.23-1.222 1.864-1.852 4.714-6.521 6.325-12.359 6.308-20.331 4e-3 -0.843 7e-3 -1.686 0.011-2.555 8e-3 -2.813-0.013-5.626-0.034-8.44-1e-3 -2.042 1e-3 -4.084 4e-3 -6.125 3e-3 -5.603-0.019-11.205-0.045-16.808-0.023-6.045-0.023-12.089-0.026-18.134-8e-3 -10.472-0.031-20.944-0.063-31.416-0.046-15.145-0.066-30.291-0.081-45.437-0.023-24.58-0.062-49.16-0.113-73.741-3e-3 -1.471-6e-3 -2.942-9e-3 -4.457-0.013-5.961-0.025-11.922-0.038-17.882-0.034-16.418-0.066-32.837-0.097-49.255-2e-3 -1.47-5e-3 -2.94-8e-3 -4.455-0.045-24.494-0.079-48.987-0.105-73.48-0.016-15.114-0.044-30.227-0.086-45.341-0.029-10.347-0.047-20.695-0.056-31.042-6e-3 -5.975-0.018-11.95-0.042-17.926-0.022-5.465-0.03-10.929-0.028-16.394-1e-3 -1.982-8e-3 -3.963-0.02-5.945-0.016-2.685-0.013-5.369-6e-3 -8.054-2e-3 -0.747-2e-3 -0.747-0.01-4.527 0.376-3.86 0.982-5.764 3.368-8.778 4.693-2.407 9.82-2.386 15-2.656 3-0.344 3-0.344 5.867-1.379 3.904-1.203 7.182-1.049 11.258-0.903 5.301 0.078 9.851-0.062 14.937-1.562 7.099-2.045 14.634-2.716 21.938-1.5z" fill="#E10000"/>
<path transform="translate(1071 214.8)" d="m0 0c1.251-6e-3 2.502-0.011 3.79-0.017 2.646-0.01 5.292-0.016 7.938-0.02 3.983-0.01 7.965-0.041 11.948-0.072 20.031-0.084 38.435 1.057 57.34 8.312 0.968 0.353 1.936 0.707 2.933 1.07 4.816 1.818 8.857 4.001 13.067 6.93 1.34 0.64 2.681 1.279 4.062 1.938 3.911 2.048 5.997 3.827 8.938 7.062 0.303 0.282 0.303 0.282 1.836 1.711 7.239 6.796 12.334 14.666 16.128 23.848 0.793 1.87 1.652 3.712 2.54 5.539 3.222 6.638 5.535 12.591 6.496 19.902 0.08 0.606 0.08 0.606 0.484 3.672 0.331 2.537 0.65 5.076 0.953 7.617 0.563 3.711 0.563 3.711 1.581 7.368 1.052 4.655 1.236 8.769 1.242 13.538 4e-3 0.893 8e-3 1.786 0.012 2.706 0.01 2.973 6e-3 5.947 2e-3 8.92 5e-3 2.14 0.01 4.279 0.016 6.418 0.013 5.8 0.014 11.6 0.011 17.4-1e-3 4.848 4e-3 9.696 9e-3 14.544 0.011 11.443 0.011 22.886 5e-3 34.328-6e-3 11.788 7e-3 23.576 0.028 35.364 0.018 10.134 0.023 20.269 0.02 30.403-2e-3 6.047 1e-3 12.093 0.015 18.14 0.013 5.69 0.011 11.379-2e-3 17.069-3e-3 2.082 0 4.164 8e-3 6.245 0.07 19.037 0.07 19.037-2.684 27.929-1.125 3.758-1.328 7.568-1.638 11.464-0.716 7.117-2.026 12.433-5.062 18.875-1.486 3.922-2.94 7.808-4.188 11.813-2.493 5.759-5.897 10.309-9.812 15.187-0.833 1.058-1.666 2.117-2.524 3.207-16.033 18.931-42.128 28.683-66.476 30.793-9.268 0.381-18.556 0.365-27.829 0.381-3.214 9e-3 -6.427 0.043-9.64 0.08-0.983-5e-3 -1.967-0.01-2.98-0.015-4.197 0.06-7.032 0.234-10.647 2.463-3.532 3.879-3.024 6.751-3.011 11.935 0 0.82 1e-3 1.64 2e-3 2.484 3e-3 2.763 0.013 5.525 0.023 8.287l9e-3 5.922c7e-3 4.259 0.016 8.518 0.028 12.777 0.018 6.73 0.028 13.461 0.036 20.192 0.024 19.142 0.06 38.284 0.105 57.426 0.024 10.566 0.041 21.132 0.051 31.697 7e-3 6.695 0.022 13.389 0.044 20.083 0.012 4.162 0.016 8.324 0.017 12.486 2e-3 1.933 7e-3 3.866 0.017 5.8 0.012 2.635 0.012 5.269 8e-3 7.904 2e-3 0.738 2e-3 0.738 0.01 4.472-0.243 3.626-0.243 3.626-2.243 7.626-4.872 2.436-7.438 2.026-12.844 1.645-7.464-0.474-14.896-0.754-22.375-0.821-1.876-0.023-3.753-0.048-5.629-0.072-2.859-0.035-5.718-0.065-8.578-0.078-2.827-0.015-5.653-0.055-8.481-0.1-0.857 2e-3 -1.714 4e-3 -2.597 6e-3 -3.684-0.076-5.992-0.208-9.002-2.428-3.242-4.669-2.636-9.629-2.626-15.081-2e-3 -1.036-4e-3 -2.073-6e-3 -3.142-6e-3 -3.509-4e-3 -7.018-3e-3 -10.528-2e-3 -2.527-5e-3 -5.055-9e-3 -7.582-8e-3 -6.973-0.01-13.946-0.01-20.919-2e-3 -7.509-0.01-15.018-0.017-22.528-0.014-17.288-0.02-34.577-0.024-51.866-3e-3 -8.539-6e-3 -17.078-0.01-25.617-0.013-29.217-0.023-58.435-0.027-87.652 0-1.835 0-3.669-1e-3 -5.504v-5.517c-1e-3 -3.69-1e-3 -7.38-2e-3 -11.069v-2.773c-4e-3 -29.676-0.019-59.353-0.043-89.029-0.024-31.36-0.038-62.72-0.039-94.079 0-3.44-1e-3 -6.881-1e-3 -10.321v-2.567c-1e-3 -13.651-0.012-27.303-0.027-40.954-0.014-13.713-0.017-27.425-9e-3 -41.137 4e-3 -7.433 3e-3 -14.867-0.011-22.3-0.013-6.798-0.012-13.595 0-20.392 2e-3 -2.467-1e-3 -4.933-0.01-7.399-0.011-3.339-3e-3 -6.677 9e-3 -10.016-8e-3 -0.969-0.016-1.939-0.023-2.937 0.038-4.875 0.156-8.448 3.395-12.243 7.298-3.856 14.383-4.154 22.492-4.281 0.905-0.019 1.809-0.037 2.742-0.056 2.88-0.058 5.76-0.111 8.641-0.163 3.789-0.068 7.578-0.142 11.367-0.219 0.858-0.013 1.717-0.027 2.602-0.041 3.693-0.075 7.29-0.258 10.954-0.745 5.735-0.676 11.416-0.677 17.186-0.698zm-5.984 92.203c-0.588 3.454-0.805 6.195-0.749 9.641-8e-3 0.964-0.016 1.929-0.024 2.923-0.019 3.229 4e-3 6.457 0.028 9.686-5e-3 2.316-0.012 4.633-0.022 6.949-0.019 6.289 0 12.578 0.027 18.867 0.022 6.58 0.014 13.159 0.01 19.739-2e-3 11.049 0.02 22.099 0.057 33.148 0.043 12.778 0.05 25.555 0.037 38.333-0.011 12.288 0 24.576 0.022 36.864 0.01 5.231 0.012 10.462 7e-3 15.693-3e-3 6.159 0.013 12.318 0.044 18.477 9e-3 2.262 0.011 4.524 5e-3 6.785-6e-3 3.085 0.012 6.169 0.036 9.254-7e-3 0.897-0.015 1.794-0.023 2.718 0.077 5.489 0.965 8.733 4.545 12.923 9.02 6.014 29.677 3.359 40.054 1.433 10.955-3.137 17.24-9.565 22.758-19.183 3.082-5.987 4.441-9.41 4.469-16.136 0.011-1.647 0.022-3.294 0.034-4.991 3e-3 -1.829 5e-3 -3.658 7e-3 -5.486 9e-3 -1.924 0.019-3.848 0.03-5.771 0.026-5.23 0.039-10.46 0.048-15.689 6e-3 -3.269 0.014-6.539 0.023-9.808 0.027-10.234 0.047-20.468 0.054-30.702 9e-3 -11.803 0.044-23.606 0.102-35.409 0.044-9.128 0.064-18.257 0.066-27.386 3e-3 -5.449 0.014-10.898 0.05-16.348 0.033-5.13 0.037-10.261 0.02-15.392-2e-3 -1.877 7e-3 -3.754 0.027-5.631 0.104-10.5-0.351-18.791-6.742-27.501-0.51-0.753-1.02-1.506-1.545-2.282-4.64-6.588-8.435-9.909-16.393-11.343-6.715-1.242-6.715-1.242-9.851-2.441-4.53-1.317-8.973-1.263-13.649-1.246-0.916-0.016-1.832-0.033-2.775-0.049-9.012-7e-3 -14.928 2.183-20.787 9.361z" fill="#E10000"/>
<path transform="translate(560.64 288.68)" d="m0 0c2.624 3e-3 5.246-0.021 7.87-0.046 11.419-0.043 21.849 0.751 32.242 5.799 0.82 0.391 1.64 0.781 2.485 1.184 0.456 0.227 0.456 0.227 2.765 1.379 1.273 0.577 2.545 1.155 3.856 1.75 4.48 2.432 8.044 5.322 11.707 8.812 0.326 0.309 0.326 0.309 1.98 1.87 5.147 4.994 9.127 10.192 12.457 16.568 0.722 1.361 1.444 2.722 2.188 4.125 1.997 4.269 3.948 8.545 5.812 12.875 0.503 1.101 1.006 2.201 1.524 3.336 2.065 6.523 2.485 12.991 3.039 19.789 0.224 2.669 0.454 5.339 0.691 8.007 0.096 1.175 0.192 2.349 0.291 3.56 0.455 3.308 0.455 3.308 1.467 5.794 1.414 5.027 1.267 9.845 1.249 15.043 4e-3 1.168 8e-3 2.336 0.012 3.54 0.01 3.917 6e-3 7.834 2e-3 11.751 4e-3 2.808 9e-3 5.615 0.015 8.422 0.014 7.631 0.014 15.261 0.012 22.892-1e-3 6.371 4e-3 12.742 8e-3 19.114 0.012 15.897 0.011 31.793 5e-3 47.69-5e-3 13.787 6e-3 27.574 0.025 41.362 0.019 14.169 0.027 28.339 0.024 42.508-2e-3 7.95 1e-3 15.9 0.015 23.849 0.012 7.482 0.01 14.963-3e-3 22.445-2e-3 2.741 1e-3 5.481 9e-3 8.222 0.01 3.753 2e-3 7.505-0.01 11.257 7e-3 1.075 0.014 2.15 0.022 3.257-0.047 6.676-0.998 12.672-2.696 19.131-1.431 6.188-1.493 12.573-1.785 18.9-0.442 7.194-1.963 12.549-4.916 19.131-0.247 0.763-0.247 0.763-1.5 4.625-3.211 9.367-8.141 15.945-14.5 23.375-0.306 0.386-0.306 0.386-1.859 2.34-3.911 4.817-7.523 7.144-13.141 9.66-1.442 0.95-2.879 1.909-4.312 2.875-13.279 7.917-27.406 10.076-42.552 9.742-2.597-0.055-5.192-0.061-7.79-0.061-9.228-0.058-17.5-0.967-26.346-3.556-3.28-0.68-6.574-1.234-9.875-1.813-11.236-2.054-22.165-4.992-33.125-8.187-1.282-0.374-2.565-0.748-3.886-1.133-5.88-1.767-11.619-3.779-17.364-5.942-2.913-0.98-5.81-1.645-8.812-2.3-7.872-1.876-14.057-5.118-18.938-11.625-1.173-3.986-1.121-7.879-1.116-12.015 0-1.437 0-2.874-1e-3 -4.355 5e-3 -1.58 0.01-3.16 0.015-4.788 1e-3 -1.694 2e-3 -3.389 3e-3 -5.084 3e-3 -4.661 0.013-9.322 0.024-13.983 0.01-5.026 0.015-10.051 0.02-15.076 0.014-10.99 0.035-21.979 0.057-32.969 0.014-6.859 0.027-13.719 0.039-20.579 0.034-18.987 0.07-37.975 0.113-56.963 3e-3 -1.215 5e-3 -2.43 8e-3 -3.682 3e-3 -1.218 6e-3 -2.436 9e-3 -3.692 5e-3 -2.468 0.011-4.937 0.016-7.405 3e-3 -1.225 6e-3 -2.449 9e-3 -3.711 0.044-19.85 0.075-39.701 0.101-59.551 0.026-20.373 0.063-40.746 0.111-61.12 0.027-11.441 0.049-22.883 0.059-34.325 9e-3 -9.74 0.027-19.481 0.059-29.221 0.016-4.971 0.028-9.942 0.026-14.913-2e-3 -4.55 0.011-9.099 0.034-13.649 9e-3 -2.427 3e-3 -4.855-4e-3 -7.282 0.01-1.442 0.02-2.885 0.031-4.371 2e-3 -1.243 5e-3 -2.487 7e-3 -3.767 0.436-4.016 1.499-6.934 3.38-10.499 4.599-2.722 9.211-3.408 14.422-4.344 2.693-0.685 4.72-1.681 7.141-3.031 5.837-3.145 11.976-4.262 18.414-5.66 3.21-0.77 5.912-1.619 8.898-2.965 5.456-2.392 11.216-3.356 17.028-4.496 4.578-0.915 8.907-2.013 13.285-3.629 12.555-4.444 26.274-4.224 39.45-4.191zm-33.638 80.316c-1.406 0.278-2.812 0.557-4.261 0.843-10.831 2.462-10.831 2.462-14.614 6.782-3.6 5.718-3.27 10.292-3.265 16.933-3e-3 1.219-6e-3 2.438-9e-3 3.694-9e-3 4.114-0.01 8.228-0.012 12.343-4e-3 2.938-9e-3 5.876-0.015 8.814-0.014 8.837-0.02 17.674-0.025 26.511-3e-3 4.159-7e-3 8.318-0.01 12.477-0.013 13.821-0.023 27.641-0.026 41.462 0 0.885-1e-3 1.77-1e-3 2.682 0 0.887 0 1.774-1e-3 2.688 0 1.798 0 3.596-1e-3 5.393 0 0.892 0 1.784-1e-3 2.703-4e-3 14.452-0.021 28.905-0.044 43.357-0.024 14.829-0.036 29.658-0.038 44.488-1e-3 8.329-7e-3 16.659-0.024 24.989-0.017 7.832-0.019 15.665-0.01 23.498 0 2.879-4e-3 5.759-0.014 8.638-0.012 3.922-7e-3 7.844 4e-3 11.766-8e-3 1.147-0.016 2.295-0.025 3.477 7e-3 1.05 0.014 2.1 0.02 3.182 0 0.453 0 0.453-1e-3 2.744 0.685 4.653 3.111 7.274 6.373 10.536 2.602 1.062 2.602 1.062 5.625 2 1.072 0.336 2.143 0.673 3.246 1.019 0.517 0.162 0.517 0.162 3.129 0.981 1.547 0.557 3.094 1.113 4.688 1.687 11.157 3.396 29.135 5.604 40.078 0.586 5.339-4.245 9.122-9.244 12.234-15.273 0.528-0.995 1.056-1.991 1.6-3.016 1.863-5.299 1.829-10.033 1.808-15.61 8e-3 -1.166 0.015-2.332 0.023-3.533 0.021-3.905 0.021-7.81 0.021-11.715 0.011-2.801 0.022-5.602 0.035-8.403 0.031-7.608 0.042-15.215 0.048-22.823 4e-3 -4.753 0.013-9.507 0.023-14.26 0.026-13.172 0.049-26.343 0.051-39.515 1e-3 -0.842 1e-3 -1.684 1e-3 -2.552 0-1.707 0-3.414 1e-3 -5.122v-2.568c0-0.848 0-1.696 1e-3 -2.571 3e-3 -13.746 0.039-27.492 0.091-41.239 0.052-14.127 0.078-28.253 0.078-42.38 0-7.926 0.012-15.852 0.051-23.778 0.036-7.457 0.038-14.912 0.015-22.368-3e-3 -2.734 6e-3 -5.467 0.028-8.201 0.028-3.738 0.013-7.474-0.013-11.213 0.019-1.076 0.037-2.152 0.056-3.261-0.142-9.106-3.741-15.394-9.899-21.997-7.699-7.152-14.419-8.37-24.566-8.164-7.609 0.494-14.989 1.758-22.453 3.289z" fill="#E10101"/>
<path transform="translate(1825,280)" d="m0 0c0.615 0.095 0.615 0.095 3.727 0.578 6.507 1.122 12.549 2.352 18.648 4.922 5.188 2.163 10.065 3.178 15.625 4 6.737 1.001 12.409 2.604 18.656 5.246 3.919 1.47 7.819 2.359 11.906 3.254 6.233 1.377 11.691 3.243 17.493 5.852 3.237 1.262 6.346 1.937 9.757 2.586 7.842 1.523 14.849 4.48 22.188 7.562 6.274 2.444 12.627 4.521 19.062 6.5 6.123 1.896 12.072 3.918 17.938 6.5 0.898 0.367 1.797 0.735 2.723 1.113 0.448 0.198 0.448 0.198 2.715 1.199 0.803 0.347 1.606 0.694 2.433 1.051 3.263 2.509 3.845 4.684 5.129 8.637 0.452 4.775 0.444 9.531 0.434 14.324 5e-3 1.379 0.01 2.758 0.015 4.179 7e-3 2.907 6e-3 5.815-3e-3 8.722-8e-3 4.457 0.02 8.913 0.052 13.371 2e-3 2.826 1e-3 5.652-2e-3 8.478 0.011 1.336 0.023 2.671 0.034 4.047-9e-3 1.238-0.019 2.477-0.028 3.753 0 1.089-1e-3 2.178-1e-3 3.3-0.621 3.5-1.689 4.709-4.501 6.826-3.725 0-5.579-0.688-8.574-2.906-4.256-2.601-8.548-3.562-13.364-4.594-6.439-1.386-11.341-3.083-17.062-6.5-5.731-0.599-7.293-0.53-12 3-0.497 2.624-0.497 2.624-0.494 5.852-4e-3 0.615-4e-3 0.615-0.025 3.725 5e-3 0.679 5e-3 0.679 0.034 4.113-2e-3 0.719-2e-3 0.719-0.012 4.353-8e-3 3.997 3e-3 7.994 0.021 11.991 0.016 4.307 8e-3 8.614 2e-3 12.921-6e-3 7.466 2e-3 14.932 0.019 22.398 0.023 10.801 0.021 21.601 0.01 32.402-0.017 17.529-0.019 35.058-9e-3 52.587 0 1.05 1e-3 2.1 1e-3 3.181 7e-3 11.712 0.016 23.423 0.027 35.135 3e-3 4.246 7e-3 8.493 0.011 12.739 0 0.524 0 0.524 2e-3 3.175 0.015 17.46 0.01 34.92-0.01 52.38-0.012 10.775-6e-3 21.551 0.022 32.326 0.018 7.382 0.018 14.763 4e-3 22.145-7e-3 4.262-6e-3 8.523 0.017 12.785 0.02 4.616 0.01 9.231-8e-3 13.848 0.014 1.353 0.027 2.706 0.041 4.1-0.08 9.044-0.08 9.044-3.001 13.123-2.929 1.901-5.67 3.186-8.964 4.346-0.535 0.192-0.535 0.192-3.239 1.164-1.138 0.4-2.276 0.799-3.449 1.211-1.289 0.505-2.578 1.011-3.906 1.531-4.079 1.464-8.047 2.442-12.282 3.344-5.524 1.244-10.641 2.716-15.874 4.875-4.847 1.957-8.646 3.116-13.938 2.25-2.925-2.176-3.894-3.349-4.488-6.983 3e-3 -0.588 3e-3 -0.588 0.018-3.565-3e-3 -1.358-6e-3 -2.717-9e-3 -4.117 0.017-1.497 0.034-2.994 0.052-4.537 2e-3 -1.587 4e-3 -3.174 7e-3 -4.809 6e-3 -4.413 0.038-8.825 0.073-13.238 0.034-4.756 0.044-9.512 0.057-14.268 0.025-8.245 0.064-16.489 0.112-24.733 0.067-11.928 0.106-23.855 0.135-35.783 0.048-19.361 0.108-38.722 0.181-58.083 4e-3 -1.159 8e-3 -2.318 0.013-3.513 0.062-16.451 0.137-32.903 0.216-49.354 5e-3 -1.158 0.011-2.316 0.017-3.51 5e-3 -1.157 0.011-2.314 0.017-3.506 0.092-19.284 0.153-38.567 0.189-57.851 0.023-11.899 0.073-23.797 0.156-35.696 0.055-8.153 0.081-16.305 0.084-24.458 3e-3 -4.706 0.019-9.411 0.07-14.116 0.055-5.1 0.048-10.197 0.035-15.297 0.013-0.745 0.013-0.745 0.079-4.517-0.096-9.759-0.096-9.759-2.746-13.532-3.766-3.409-7.545-5.466-12.498-6.46-1.134-0.239-2.268-0.478-3.436-0.724-1.162-0.219-2.324-0.437-3.522-0.662-1.142-0.238-2.285-0.476-3.462-0.721-6.806-1.389-13.61-2.479-20.504-3.331-3.216-0.719-5.241-1.614-7.846-3.636-2.036-3.963-2.253-7.313-2.259-11.73-3e-3 -0.673-3e-3 -0.673-0.019-4.076 4e-3 -1.446 8e-3 -2.892 0.012-4.382-2e-3 -1.49-3e-3 -2.98-5e-3 -4.516-2e-3 -3.15 2e-3 -6.301 0.01-9.451 0.011-4.826 0-9.652-0.012-14.478 1e-3 -3.06 3e-3 -6.12 7e-3 -9.179-4e-3 -1.446-8e-3 -2.892-0.012-4.382 6e-3 -1.345 0.013-2.69 0.019-4.076 2e-3 -1.181 3e-3 -2.363 5e-3 -3.581 0.254-3.152 0.805-5.349 2.254-8.149 3.093-1.547 5.633-0.56 9 0z" fill="#E10001"/>
<path transform="translate(315,376)" d="m0 0c2.201 2.201 1.132 6.162 1.143 9.115-1e-3 1.184-2e-3 2.368-3e-3 3.589 3e-3 1.246 6e-3 2.493 9e-3 3.778 9e-3 4.214 0.011 8.428 0.012 12.642 5e-3 3.007 0.01 6.014 0.015 9.02 0.013 8.195 0.02 16.389 0.024 24.583 3e-3 5.114 7e-3 10.227 0.012 15.341 0.012 14.149 0.022 28.298 0.026 42.447v2.747c0 0.908 1e-3 1.817 1e-3 2.753 0 1.841 1e-3 3.682 1e-3 5.523 0 0.457 0 0.457 1e-3 2.768 4e-3 14.798 0.021 29.596 0.045 44.395 0.023 15.182 0.036 30.363 0.037 45.545 1e-3 8.529 7e-3 17.057 0.025 25.586 0.017 8.021 0.018 16.041 0.01 24.062-1e-3 2.949 3e-3 5.898 0.013 8.847 0.013 4.016 7e-3 8.031-4e-3 12.048 5e-3 0.587 5e-3 0.587 0.025 3.561-7e-3 1.076-0.013 2.151-0.02 3.259 1e-3 0.927 1e-3 1.854 2e-3 2.809-0.459 3.168-1.415 5.061-3.374 7.582-5.516 0.104-8.667-1.793-13-5-1.391-0.945-2.787-1.882-4.188-2.812-0.765-0.511-1.531-1.021-2.32-1.547-5.774-3.802-11.63-7.477-17.492-11.141-0.66-0.413-0.66-0.413-4-2.5-0.38-0.226-0.38-0.226-2.305-1.371-16.519-10.067-31.101-22.951-44.695-36.629l-3.008-3.008c-12.176-12.176-12.176-12.176-15.992-17.992-1.581-2.148-3.164-4.294-4.75-6.438-18.108-25.595-25.581-56.055-21.934-87.27 0.802-4.58 2.13-8.918 3.684-13.292 0.339-1.048 0.678-2.096 1.027-3.176 5.187-14.823 13.099-28.667 22.973-40.824 1.147-1.52 2.293-3.041 3.438-4.562 5.868-7.485 12.197-14.505 19.492-20.618 2.525-2.22 4.846-4.602 7.195-7.008 3.416-3.463 6.725-6.243 10.875-8.812 0.619-0.639 1.238-1.279 1.875-1.938 2.387-2.316 5.004-3.923 7.84-5.64 5.158-3.21 10.225-6.664 14.847-10.61 3.505-2.606 7.456-4.042 11.438-5.812 1.687-1.307 3.354-2.642 5-4 2.189-1.223 4.378-2.444 6.586-3.633 2.52-1.427 4.896-2.988 7.289-4.617 5.126-3.417 6.657-4.34 12.125-1.75z" fill="#E10102"/>
<path transform="translate(2083,375)" d="m0 0c4.543 0.172 7.203 1.513 10.75 4.25 4.188 3.089 8.389 5.4 13.074 7.637 2.705 1.384 4.857 3.16 7.176 5.113 3.904 2.496 7.851 4.91 11.812 7.312 7.91 5.077 15.377 10.716 22.668 16.641 1.699 1.38 3.41 2.744 5.133 4.094 18.924 15.007 38.84 35.449 48.387 57.953 0.655 0.77 1.31 1.539 1.984 2.332 2.359 3.122 3.081 5.695 4.016 9.48 1.093 4.136 2.165 7.913 4.188 11.688 7.602 14.681 4.752 42.157 0.812 57.5-1.333 2.667-2.667 5.333-4 8-0.653 2.117-1.276 4.243-1.875 6.375-1.546 5.218-3.49 9.43-6.445 13.98-1.938 3.051-3.597 6.21-5.305 9.395-4.5 7.95-10.312 14.468-16.375 21.25-0.701 0.889-1.403 1.779-2.125 2.695-1.751 2.153-3.499 3.847-5.625 5.617-2.85 2.43-5.519 4.935-8.125 7.626-6.809 6.888-14.63 12.496-22.48 18.128-2.397 1.752-4.71 3.571-7.02 5.434-4.59 3.614-9.506 6.604-14.512 9.605-3.097 1.885-6.105 3.872-9.113 5.895-1.859 1.174-3.719 2.346-5.59 3.5-1.879 1.169-3.743 2.361-5.601 3.562-1.133 0.722-2.267 1.444-3.434 2.188-0.532 0.343-0.532 0.343-3.227 2.078-3.204 1.702-5.522 2.568-9.148 2.672-2.202-3.303-2.254-4.3-2.27-8.14-9e-3 -1.07-0.019-2.14-0.028-3.242 0-1.18-1e-3 -2.36-1e-3 -3.576-8e-3 -1.25-0.015-2.5-0.024-3.787-0.024-4.213-0.034-8.425-0.043-12.638-0.015-3.01-0.03-6.02-0.045-9.031-0.037-7.342-0.063-14.684-0.085-22.026-0.018-5.965-0.039-11.93-0.063-17.896-3e-3 -0.847-6e-3 -1.695-0.01-2.569-7e-3 -1.723-0.014-3.445-0.021-5.168-0.063-16.164-0.114-32.327-0.161-48.491-0.043-14.8-0.103-29.6-0.171-44.399-0.069-15.184-0.127-30.369-0.173-45.553-0.026-8.529-0.056-17.059-0.098-25.589-0.04-8.017-0.063-16.034-0.077-24.052-7e-3 -2.949-0.019-5.899-0.037-8.849-0.024-4.012-0.029-8.024-0.029-12.036-0.012-1.18-0.023-2.36-0.034-3.576 3e-3 -1.07 7e-3 -2.14 0.011-3.242-3e-3 -0.927-6e-3 -1.854-9e-3 -2.809 0.368-2.331 0.368-2.331 3.368-5.331z" fill="#E10000"/>
<path transform="translate(1561,232)" d="m0 0c0.608 0.155 0.608 0.155 3.688 0.938 5.258 1.295 10.327 1.496 15.726 1.718 3.586 0.344 3.586 0.344 6.305 1.274 4.947 1.613 10.003 2.073 15.156 2.695 0.535 0.067 0.535 0.067 3.242 0.406 2.627 0.329 5.255 0.65 7.883 0.969v1c-8.223 0.123-16.413-0.044-24.625-0.438-0.865-0.039-1.729-0.078-2.62-0.118-3.746-0.192-7.103-0.531-10.755-1.444-2.854 0.045-5.69 0.191-8.539 0.355-0.406-0.058-0.406-0.058-2.461-0.355l-2-4c-4.562-0.312-4.562-0.312-9 0-1.929 1.929-1.128 4.831-1.137 7.399 1e-3 0.466 1e-3 0.466 6e-3 2.825-1e-3 0.493-1e-3 0.493-7e-3 2.985-5e-3 3.345-4e-3 6.69-2e-3 10.035-3e-3 2.405-6e-3 4.81-9e-3 7.214-9e-3 6.643-0.01 13.286-0.011 19.929-2e-3 7.15-9e-3 14.301-0.016 21.452-0.014 15.653-0.02 31.306-0.024 46.958-3e-3 9.767-7e-3 19.533-0.012 29.3-0.012 27.018-0.022 54.036-0.026 81.055v5.245c0 1.752-1e-3 3.505-1e-3 5.257 0 3.516-1e-3 7.033-1e-3 10.549 0 0.871 0 1.743-1e-3 2.641-3e-3 28.27-0.019 56.539-0.042 84.809-0.025 29.871-0.039 59.742-0.04 89.614-1e-3 16.29-7e-3 32.579-0.025 48.869-0.015 13.871-0.02 27.741-0.012 41.612 4e-3 7.081 3e-3 14.163-0.011 21.244-0.013 6.478-0.012 12.956 1e-3 19.434 1e-3 2.348-2e-3 4.696-0.01 7.044-0.011 3.184-4e-3 6.367 8e-3 9.551-4e-3 0.459-4e-3 0.459-0.023 2.783 0.044 5.408 0.923 9.382 3.395 14.196 6.875-0.875 6.875-0.875 8-2 4.637-0.073 9.266 4e-3 13.902 0.062 4.098-0.062 4.098-0.062 6.098-1.062 1.707-0.07 3.417-0.084 5.125-0.062 1.609 0.02 3.217 0.041 4.875 0.062-1 2-1 2-4.039 3.055-12.329 2.942-26.335 4.303-38.961 2.945-4.11-4.11-4.117-5.841-4.141-11.577 1e-3 -0.468 1e-3 -0.468 4e-3 -2.838-3e-3 -0.994-5e-3 -1.987-8e-3 -3.011-8e-3 -3.368-8e-3 -6.736-9e-3 -10.104-4e-3 -2.423-8e-3 -4.847-0.013-7.27-0.012-6.69-0.018-13.38-0.022-20.07-6e-3 -7.203-0.018-14.407-0.029-21.61-0.024-17.41-0.039-34.819-0.052-52.229-3e-3 -4.914-7e-3 -9.827-0.011-14.741-0.026-30.484-0.048-60.968-0.06-91.452l-9e-3 -21.195c0-0.878-1e-3 -1.755-1e-3 -2.66-0.012-28.471-0.043-56.941-0.085-85.412-0.044-30.084-0.07-60.167-0.075-90.251-4e-3 -16.405-0.015-32.811-0.048-49.217-0.028-13.968-0.039-27.935-0.028-41.902 5e-3 -7.132 2e-3 -14.263-0.022-21.395-0.023-6.522-0.022-13.043-3e-3 -19.565 3e-3 -2.366-3e-3 -4.732-0.018-7.099-0.019-3.203-8e-3 -6.406 0.012-9.609-0.013-0.93-0.026-1.86-0.039-2.817 0.057-4.233 0.381-6.595 2.895-10.061 4.09-2.836 8.01-2.489 12.762-1.915z" fill="#E14B64"/>
<path transform="translate(884,227)" d="m0 0 3 2c-3.173 3.173-6.034 3-10.406 3.062-2.562-0.023-5.123-0.062-7.684-0.101-3.877-0.036-7.127 0.093-10.91 1.039-1.513 4.184-1.13 8.787-1.136 13.186-2e-3 0.824-5e-3 1.648-8e-3 2.497-7e-3 2.774-7e-3 5.548-7e-3 8.322-4e-3 2.004-9e-3 4.008-0.013 6.012-0.012 5.516-0.017 11.032-0.022 16.549-6e-3 5.945-0.018 11.891-0.029 17.836-0.018 10.306-0.033 20.612-0.045 30.918-0.019 14.908-0.043 29.816-0.07 44.725-0.043 24.196-0.082 48.393-0.118 72.589-2e-3 1.449-4e-3 2.898-6e-3 4.391-0.016 10.283-0.031 20.567-0.046 30.85-0.017 11.743-0.035 23.487-0.052 35.23-2e-3 1.446-5e-3 2.893-7e-3 4.383-0.036 24.102-0.076 48.204-0.119 72.307-0.026 14.873-0.048 29.747-0.067 44.621-0.012 10.188-0.028 20.377-0.047 30.566-0.011 5.882-0.02 11.764-0.025 17.646-4e-3 5.383-0.013 10.765-0.026 16.148-4e-3 1.949-6e-3 3.899-6e-3 5.848 0 2.646-7e-3 5.292-0.015 7.939-2e-3 1.471-4e-3 2.942-7e-3 4.457-0.326 10.031-0.326 10.031-3.191 13.418-0.32 0.257-0.32 0.257-1.938 1.562l-2-1 1-3c0.092-2.689 0.118-5.38 0.115-8.07v-2.534c0-2.825-7e-3 -5.651-0.015-8.477-2e-3 -2.037-3e-3 -4.074-4e-3 -6.11-3e-3 -5.616-0.013-11.232-0.024-16.848-0.01-6.049-0.015-12.098-0.02-18.148-0.01-10.488-0.023-20.976-0.038-31.464-0.023-16.569-0.036-33.138-0.048-49.707-4e-3 -5.664-8e-3 -11.329-0.012-16.993-1e-3 -1.416-2e-3 -2.832-3e-3 -4.29-0.012-16.123-0.026-32.247-0.04-48.37-1e-3 -0.737-1e-3 -0.737-4e-3 -4.468-0.023-23.903-0.053-47.806-0.084-71.71-0.033-24.52-0.054-49.04-0.065-73.56-7e-3 -15.136-0.024-30.273-0.052-45.409-0.019-10.367-0.027-20.734-0.027-31.101 0-5.987-5e-3 -11.975-0.023-17.962-0.017-5.476-0.019-10.952-0.011-16.428 1e-3 -1.986-4e-3 -3.972-0.014-5.958-0.013-2.691-7e-3 -5.381 3e-3 -8.071-2e-3 -1.497-4e-3 -2.994-5e-3 -4.537 0.379-3.863 0.984-5.77 3.371-8.785 4.746-2.434 9.938-2.36 15.168-2.715 5.652-0.569 9.971-2.727 15.832-2.285z" fill="#E14B64"/>
<path transform="translate(779,240)" d="m0 0c3.954 3.954 3.94 6.15 4.118 11.622-2e-3 0.71-2e-3 0.71-0.011 4.302-1e-3 1.64-3e-3 3.281-4e-3 4.97-7e-3 1.825-0.014 3.65-0.021 5.474-3e-3 1.935-7e-3 3.87-9e-3 5.805-0.01 5.324-0.025 10.649-0.041 15.973-0.017 5.739-0.028 11.478-0.039 17.217-0.021 9.946-0.046 19.892-0.072 29.837-0.039 14.38-0.073 28.76-0.105 43.14-0.052 23.33-0.108 46.659-0.168 69.988-0.058 22.665-0.113 45.33-0.166 67.995-3e-3 1.397-6e-3 2.794-0.01 4.233l-0.048 21.018c-0.135 58.142-0.277 116.28-0.424 174.43-3.947-3.947-3.936-6.142-4.124-11.603 0-1.41 1e-3 -2.821 1e-3 -4.274-2e-3 -1.63-4e-3 -3.26-6e-3 -4.939 3e-3 -1.813 6e-3 -3.626 9e-3 -5.438-1e-3 -1.923-2e-3 -3.845-3e-3 -5.768-2e-3 -5.29 2e-3 -10.58 7e-3 -15.871 4e-3 -5.702 3e-3 -11.404 2e-3 -17.106 0-9.882 3e-3 -19.764 8e-3 -29.646 8e-3 -14.287 0.011-28.575 0.012-42.863 2e-3 -23.179 9e-3 -46.359 0.019-69.539 9e-3 -22.519 0.016-45.039 0.02-67.558 0-1.388 1e-3 -2.776 1e-3 -4.205 1e-3 -6.961 2e-3 -13.923 4e-3 -20.884 0.01-57.769 0.028-115.54 0.05-173.31-6.452-1.613-10.443-1.385-16.438 1.438-7.413 3.284-14.543 3.467-22.562 3.562-0.608 8e-3 -0.608 8e-3 -3.688 0.047-2.772 0.013-5.54 0-8.312-0.047v-1c1.146-0.193 2.292-0.387 3.473-0.586 1.514-0.26 3.029-0.521 4.589-0.789 0.749-0.128 0.749-0.128 4.536-0.773 3.896-0.754 7.597-1.741 11.402-2.852 9.102-1.92 18.724-3.081 28-2z" fill="#E14B64"/>
<path transform="translate(1412,317)" d="m0 0c3 2 3 2 4.171 5.1 1.203 7.11 1.107 14.105 1.09 21.304 3e-3 1.685 7e-3 3.37 0.011 5.055 0.011 4.62 8e-3 9.24 4e-3 13.86-2e-3 4.987 7e-3 9.973 0.014 14.96 0.013 9.764 0.015 19.528 0.012 29.293-1e-3 7.935 0 15.87 5e-3 23.805 0 1.129 1e-3 2.258 1e-3 3.422 2e-3 2.294 3e-3 4.588 4e-3 6.882 0.011 21.511 9e-3 43.022 3e-3 64.533-6e-3 19.685 6e-3 39.37 0.025 59.056 0.019 20.21 0.027 40.421 0.024 60.631-2e-3 11.348 0 22.696 0.014 34.043 0.012 9.659 0.014 19.317 2e-3 28.975-6e-3 4.928-7e-3 9.857 5e-3 14.785 0.01 4.511 7e-3 9.022-7e-3 13.532-4e-3 2.407 7e-3 4.813 0.019 7.219-8e-3 1.43-0.015 2.861-0.022 4.334v3.735c-0.427 3.963-1.585 6.93-3.375 10.476h-1l-1-425z" fill="#E14B64"/>
<path transform="translate(310,374)" d="m0 0c4.556 1.556 4.556 1.556 6 3 0.105 3.907 0.143 7.796 0.14 11.704 3e-3 1.246 6e-3 2.493 9e-3 3.778 9e-3 4.214 0.011 8.428 0.012 12.642 5e-3 3.007 0.01 6.014 0.015 9.02 0.013 8.195 0.02 16.389 0.024 24.583 3e-3 5.114 7e-3 10.227 0.012 15.341 0.012 14.149 0.022 28.298 0.026 42.447v2.747c0 0.908 1e-3 1.817 1e-3 2.753 0 1.841 1e-3 3.682 1e-3 5.523 0 0.913 1e-3 1.827 1e-3 2.768 4e-3 14.798 0.021 29.596 0.045 44.395 0.023 15.182 0.036 30.363 0.037 45.545 1e-3 8.529 7e-3 17.057 0.025 25.586 0.017 8.021 0.018 16.041 0.01 24.062-1e-3 2.949 3e-3 5.898 0.013 8.847 0.013 4.016 7e-3 8.031-4e-3 12.048 9e-3 1.175 0.017 2.35 0.025 3.561-3e-3 0.538-3e-3 0.538-0.02 3.259 1e-3 0.927 1e-3 1.854 2e-3 2.809-0.459 3.168-1.415 5.061-3.374 7.582-5.416 0.102-8.814-1.69-13-5l-2-3 12 1c0.991-2.972 1.127-4.909 1.131-8.009 4e-3 -1.041 8e-3 -2.082 0.012-3.155 0-0.573 0-0.573-3e-3 -3.476 3e-3 -1.216 6e-3 -2.432 9e-3 -3.685 9e-3 -4.097 0.011-8.194 0.012-12.292l0.015-8.784c0.013-7.971 0.02-15.942 0.024-23.913 3e-3 -4.976 7e-3 -9.951 0.012-14.926 0.012-13.77 0.022-27.54 0.026-41.31v-2.672c0-0.883 1e-3 -1.767 1e-3 -2.677 0-1.791 1e-3 -3.581 1e-3 -5.372 0-0.888 1e-3 -1.776 1e-3 -2.691 4e-3 -14.398 0.021-28.795 0.045-43.193 0.023-14.775 0.036-29.55 0.037-44.325 1e-3 -8.298 7e-3 -16.596 0.025-24.895 0.016-7.802 0.018-15.604 0.01-23.407-1e-3 -2.868 3e-3 -5.736 0.013-8.604 0.013-3.907 7e-3 -7.813-4e-3 -11.72 9e-3 -1.143 0.017-2.285 0.025-3.463-7e-3 -1.046-0.013-2.092-0.02-3.17 1e-3 -0.902 1e-3 -1.804 2e-3 -2.733-0.453-3.061-1.647-4.99-3.374-7.528l2-1z" fill="#E14B64"/>
<path transform="translate(649,382)" d="m0 0c3.754 3.754 3.122 7.793 3.138 12.862-1e-3 1.102-3e-3 2.205-4e-3 3.341 2e-3 1.168 4e-3 2.337 7e-3 3.542 6e-3 3.938 5e-3 7.876 4e-3 11.814 3e-3 2.815 7e-3 5.63 0.01 8.445 9e-3 7.664 0.012 15.327 0.012 22.99 1e-3 6.392 5e-3 12.784 8e-3 19.175 8e-3 14.217 0.011 28.434 0.01 42.651v2.586 2.59c0 13.842 9e-3 27.685 0.023 41.527 0.015 14.212 0.022 28.423 0.021 42.634 0 7.979 2e-3 15.958 0.013 23.938 0.01 7.506 0.01 15.012 3e-3 22.518-2e-3 2.756 1e-3 5.511 7e-3 8.267 8e-3 3.761 3e-3 7.522-5e-3 11.283 5e-3 1.091 0.011 2.182 0.016 3.307-0.027 5.827-0.562 10.896-2.263 16.53-1.909-3.817-2.25-5.045-2.249-9.078-4e-3 -1.031-9e-3 -2.062-0.014-3.124 5e-3 -1.131 0.01-2.262 0.016-3.427-3e-3 -1.203-5e-3 -2.405-8e-3 -3.644-5e-3 -4.046 3e-3 -8.092 0.012-12.138-1e-3 -2.894-3e-3 -5.787-6e-3 -8.681-5e-3 -7.872 3e-3 -15.743 0.013-23.615 9e-3 -8.223 7e-3 -16.446 7e-3 -24.669 1e-3 -13.809 9e-3 -27.617 0.023-41.426 0.014-14.219 0.021-28.438 0.021-42.656v-2.655c0-0.874-1e-3 -1.749-1e-3 -2.65 0-15.354 5e-3 -30.708 0.013-46.061 4e-3 -6.547 6e-3 -13.093 6e-3 -19.639 1e-3 -7.701 7e-3 -15.401 0.017-23.102 3e-3 -2.834 4e-3 -5.668 4e-3 -8.502-1e-3 -3.853 5e-3 -7.705 0.012-11.558-1e-3 -1.135-3e-3 -2.271-4e-3 -3.441 0.024-7.706 0.024-7.706 1.138-9.934z" fill="#E14B64"/>
<path transform="translate(453,314)" d="m0 0c-2.695 5.389-5.72 6.36-11 9-0.503 2.935-0.503 2.935-0.508 6.79-0.011 1.463-0.023 2.927-0.034 4.435 7e-3 1.624 0.015 3.249 0.023 4.922-6e-3 1.73-0.013 3.46-0.023 5.19-0.02 4.773-0.015 9.546-7e-3 14.319 5e-3 5.139-0.013 10.279-0.028 15.419-0.024 8.911-0.032 17.822-0.031 26.734 2e-3 12.884-0.019 25.768-0.044 38.652-0.042 20.902-0.065 41.804-0.077 62.706-0.012 20.309-0.032 40.618-0.063 60.927-2e-3 1.251-4e-3 2.502-6e-3 3.791-0.01 6.276-0.02 12.551-0.03 18.827-0.083 52.096-0.137 104.19-0.172 156.29-3.058-3.058-2.963-6.021-3.121-10.248 2e-3 -1.243 3e-3 -2.486 5e-3 -3.766 0-1.438-1e-3 -2.875-1e-3 -4.356 5e-3 -1.58 0.01-3.16 0.015-4.787 1e-3 -1.695 2e-3 -3.39 3e-3 -5.084 3e-3 -4.661 0.013-9.323 0.024-13.984 0.01-5.025 0.015-10.051 0.02-15.076 0.013-10.989 0.034-21.979 0.057-32.968 0.014-6.86 0.026-13.72 0.038-20.58 0.035-18.987 0.071-37.975 0.114-56.962 2e-3 -1.215 5e-3 -2.431 8e-3 -3.683 3e-3 -1.218 5e-3 -2.436 8e-3 -3.691 6e-3 -2.469 0.011-4.937 0.017-7.406 3e-3 -1.224 6e-3 -2.449 8e-3 -3.71 0.045-19.851 0.076-39.701 0.101-59.552 0.026-20.373 0.064-40.746 0.112-61.119 0.027-11.442 0.049-22.883 0.059-34.325 9e-3 -9.741 0.027-19.481 0.059-29.222 0.016-4.971 0.027-9.942 0.026-14.913-2e-3 -4.549 0.01-9.099 0.033-13.649 9e-3 -2.427 3e-3 -4.854-3e-3 -7.282 0.01-1.442 0.02-2.885 0.03-4.371 3e-3 -1.243 5e-3 -2.486 8e-3 -3.767 0.437-4.025 1.476-6.933 3.38-10.499 4.01-2.26 6.387-3 11-3z" fill="#E14B64"/>
<path transform="translate(506,375)" d="m0 0 4 1c-0.325 0.371-0.325 0.371-1.969 2.248-2.87 5.301-2.582 9.852-2.532 15.791-3e-3 0.611-3e-3 0.611-0.017 3.705-0.014 4.102 1e-3 8.203 0.016 12.305-3e-3 2.939-9e-3 5.877-0.016 8.816-0.014 7.985-3e-3 15.97 0.014 23.956 0.012 7.502 8e-3 15.005 4e-3 22.507-5e-3 14.866 9e-3 29.731 0.033 44.597 0.024 14.427 0.031 28.854 0.021 43.281-0.011 15.709-0.013 31.418 1e-3 47.127 8e-3 8.316 0.011 16.632 6e-3 24.948-5e-3 7.817 5e-3 15.633 0.027 23.449 5e-3 2.873 6e-3 5.746 1e-3 8.619-6e-3 3.913 6e-3 7.826 0.023 11.739-6e-3 1.145-0.012 2.289-0.018 3.469 9e-3 1.048 0.017 2.095 0.026 3.175 1e-3 0.903 2e-3 1.806 3e-3 2.737 0.461 3.098 1.628 4.955 3.377 7.531l2 3c-5.75-0.75-5.75-0.75-8-3-0.252-2.212-0.252-2.212-0.254-5.029-3e-3 -0.536-3e-3 -0.536-0.018-3.246 4e-3 -1.186 7e-3 -2.372 0.011-3.593-2e-3 -0.627-2e-3 -0.627-0.011-3.796-0.011-4.227-7e-3 -8.454-3e-3 -12.681-4e-3 -3.019-9e-3 -6.037-0.015-9.055-0.012-7.366-0.015-14.732-0.012-22.098 1e-3 -5.985 0-11.971-5e-3 -17.956 0-0.85-1e-3 -1.701-1e-3 -2.577-2e-3 -1.728-3e-3 -3.456-4e-3 -5.184-0.011-16.219-9e-3 -32.437-3e-3 -48.656 6e-3 -14.848-6e-3 -29.695-0.025-44.543-0.019-15.233-0.027-30.465-0.024-45.698 2e-3 -8.557 0-17.114-0.014-25.671-0.013-8.045-0.011-16.091 2e-3 -24.136 2e-3 -2.959 0-5.918-9e-3 -8.877-0.01-4.027-2e-3 -8.054 0.011-12.082-8e-3 -1.181-0.015-2.363-0.023-3.58 8e-3 -1.076 0.015-2.152 0.022-3.261v-2.818c0.375-2.463 0.375-2.463 3.375-6.463z" fill="#E14B64"/>
<path transform="translate(1706,442)" d="m0 0h1c1.43 9.257 2.505 18.466 3.125 27.812 0.086 1.264 0.171 2.528 0.26 3.83 0.709 11.601 0.759 23.176 0.629 34.795-0.014 1.323-0.027 2.645-0.041 4.008-0.018 1.171-0.036 2.342-0.055 3.548 0.082 3.007 0.082 3.007 1.082 7.007 0.225 4.164 0.185 8.331 0.188 12.5 0.012 1.141 0.024 2.282 0.037 3.457 1e-3 0.549 1e-3 0.549 5e-3 3.324 5e-3 1.001 9e-3 2.002 0.013 3.033-0.243 2.686-0.243 2.686-2.243 6.686-2.812 0.562-2.812 0.562-6 0-4.089-3.16-5.991-5.955-7-11-0.149-4.006-0.117-7.993 0-12l10 2c-0.071-1.57-0.143-3.14-0.217-4.757-0.783-18.317-0.903-36.599-0.845-54.931 5e-3 -2.863 9e-3 -5.727 0.013-8.591 0.011-6.907 0.028-13.814 0.049-20.721z" fill="#E14B64"/>
<path transform="translate(1074,300)" d="m0 0c-1.3 0.953-2.6 1.907-3.939 2.889-3.468 3.057-4.013 3.888-5.048 8.647-0.035 1.746-0.026 3.493 0.018 5.238-7e-3 0.967-0.015 1.934-0.023 2.93-0.015 3.232 0.026 6.46 0.068 9.691 1e-3 2.32-2e-3 4.64-8e-3 6.959-7e-3 6.294 0.036 12.586 0.088 18.879 0.046 6.583 0.048 13.167 0.055 19.75 0.017 11.052 0.064 22.104 0.131 33.155 0.094 15.596 0.137 31.192 0.17 46.788 0.047 20.88 0.107 41.76 0.229 62.639 0.012 2.264 0.023 4.528 0.032 6.792 0.013 3.083 0.032 6.166 0.053 9.25 2e-3 0.901 5e-3 1.803 8e-3 2.732 0.031 3.775 0.245 6.978 1.166 10.661-1.968-1.405-1.968-1.405-4-4-0.393-3.288-0.54-6.239-0.508-9.527-6e-3 -0.977-0.012-1.954-0.019-2.96-0.016-3.281-3e-3 -6.562 9e-3 -9.843-5e-3 -2.349-0.012-4.698-0.021-7.046-0.018-6.387-0.011-12.773 2e-3 -19.159 0.01-6.675 0-13.35-6e-3 -20.026-7e-3 -11.211 2e-3 -22.422 0.022-33.633 0.021-12.972 0.014-25.943-8e-3 -38.915-0.018-11.126-0.021-22.252-0.01-33.378 6e-3 -6.651 7e-3 -13.3-6e-3 -19.951-0.012-6.251-4e-3 -12.502 0.019-18.753 6e-3 -2.298 4e-3 -4.595-5e-3 -6.893-0.011-3.13 3e-3 -6.259 0.023-9.389-9e-3 -0.915-0.018-1.831-0.027-2.774 0.047-3.769 0.123-6.188 2.379-9.286 3.611-2.457 4.817-2.552 9.156-1.467z" fill="#E14B64"/>
<path transform="translate(1067,636)" d="m0 0 2 1c-0.99 1.32-1.98 2.64-3 4-0.364 3.62-0.364 3.62-0.347 8.085-1e-3 0.821-3e-3 1.643-4e-3 2.489 0 2.756 0.021 5.512 0.042 8.268 4e-3 1.974 7e-3 3.949 9e-3 5.923 6e-3 4.253 0.021 8.507 0.044 12.76 0.036 6.722 0.05 13.445 0.061 20.167 0.024 13.055 0.07 26.11 0.119 39.165 0.061 16.618 0.111 33.236 0.142 49.854 0.014 6.686 0.037 13.371 0.07 20.057 0.018 4.156 0.028 8.311 0.035 12.466 6e-3 1.93 0.015 3.86 0.027 5.791 0.017 2.63 0.021 5.26 0.022 7.89 6e-3 1.474 0.012 2.947 0.018 4.465-0.238 3.62-0.238 3.62-2.238 7.62-0.99 0.33-1.98 0.66-3 1 0.325-1.145 0.649-2.29 0.984-3.469 1.012-4.511 1.269-8.407 1.274-13.021 2e-3 -0.408 2e-3 -0.408 0.011-2.475 0.01-2.716 6e-3 -5.431 2e-3 -8.147 5e-3 -1.956 0.01-3.911 0.016-5.866 0.012-4.2 0.017-8.4 0.018-12.6 2e-3 -6.638 0.02-13.277 0.041-19.916 0.049-16.483 0.08-32.966 0.101-49.449 0.017-12.823 0.039-25.646 0.083-38.468 0.022-6.603 0.03-13.205 0.028-19.807 1e-3 -4.101 0.015-8.201 0.033-12.302 5e-3 -1.904 6e-3 -3.809 1e-3 -5.713-6e-3 -2.595 6e-3 -5.19 0.023-7.785 2e-3 -1.453 4e-3 -2.907 6e-3 -4.404 0.379-3.578 0.379-3.578 3.379-7.578z" fill="#E14B64"/>
<path transform="translate(1936,749)" d="m0 0c-4.423 3.347-8.836 5.19-14.023 6.973-2.292 0.79-4.56 1.647-6.817 2.531-4.103 1.476-8.086 2.463-12.348 3.371-5.524 1.244-10.641 2.716-15.874 4.875-4.839 1.962-8.647 3.034-13.938 2.25l-3-3c0.681 0.041 0.681 0.041 4.125 0.25 4.875-0.25 4.875-0.25 7.402-2.148 5.855-3.544 12.553-3.605 19.264-4.348 7.448-0.988 10.838-2.544 16.209-7.754 4.562-0.688 4.562-0.688 9-1 6.076-2.981 6.076-2.981 10-2z" fill="#E14B64"/>
<path transform="translate(1614,475)" d="m0 0h5c3.044 3.044 3.932 4.263 4.098 8.48-0.017 1.254-0.017 1.254-0.098 7.52-1.279-0.041-2.557-0.082-3.875-0.125-4.125 0.125-4.125 0.125-6.125 2.125-1.925-4.812-2.417-8.828-2-14 0.99-1.32 1.98-2.64 3-4z" fill="#E14B64"/>
<path transform="translate(1616,711)" d="m0 0c2.662 2.662 2.957 5.033 3.12 8.721-2e-3 1.039-4e-3 2.078-6e-3 3.149-1e-3 1.181-1e-3 2.362-1e-3 3.579-5e-3 1.27-0.01 2.539-0.015 3.848-2e-3 1.304-3e-3 2.608-5e-3 3.951-5e-3 4.167-0.018 8.335-0.031 12.502-5e-3 2.824-9e-3 5.648-0.013 8.473-0.011 6.925-0.028 13.851-0.049 20.777h-1c-1.443-14.944-2.272-29.87-2.688-44.875-0.048-1.64-0.096-3.28-0.146-4.969-0.038-1.534-0.076-3.068-0.115-4.648-0.017-0.688-0.017-0.688-0.104-4.168 0.053-3.34 0.053-3.34 1.053-6.34z" fill="#E14B64"/>
<path transform="translate(2159,633)" d="m0 0 4 1c-5.835 5.513-11.65 10.665-18.32 15.141-4.347 3.016-8.457 6.338-12.602 9.625-2.928 2.125-5.799 3.722-9.078 5.234 0.125-2.25 0.125-2.25 1-5 4.973-4.003 10.951-6.984 17-9 0.69-1.657 1.353-3.326 2-5 3.012-5.108 7.521-7.137 12.637-9.766 2.363-1.234 2.363-1.234 3.363-2.234z" fill="#E14B64"/>
<path transform="translate(563.79 363.05)" d="m0 0c2.023 1.328 2.023 1.328 5.211 3.953 0.928 0.351 1.856 0.701 2.812 1.063 2.188 0.937 2.188 0.937 5.188 4.937l-1 4c-1.856-1.725-3.711-3.45-5.566-5.176-6.872-5.151-13.127-5.211-21.372-5.011-0.532 6e-3 -0.532 6e-3 -3.228 0.041-2.612 0.035-5.223 0.089-7.834 0.146 3.958-7.915 18.196-6.803 25.789-3.953z" fill="#E14B64"/>
<path transform="translate(2195,592)" d="m0 0h2c-4.995 13.361-16.152 27.101-28 35 0.399-5.07 2.821-7.284 6.312-10.812 4.381-4.596 7.089-8.47 9.688-14.188 4-3 4-3 6-3 0.697-1.654 1.361-3.323 2-5l2-2z" fill="#E14B64"/>
<path transform="translate(1402,759)" d="m0 0 1 3c-1.157 2.208-2.227 4.227-4 6-9.318 1.057-18.756 1.121-28.125 1.188-0.983 0.012-1.966 0.025-2.979 0.039-5.004 6e-3 -9.254-0.114-13.896-2.227l-2-2 1-3c0.743 0.474 1.485 0.949 2.25 1.438 5.864 3.332 11.965 2.746 18.5 2.75 1.06 0.012 2.119 0.024 3.211 0.037 9.135 0.017 16.189-1.259 24.039-6.225l1-1z" fill="#E14B64"/>
<path transform="translate(1274,799)" d="m0 0c4 1 4 1 7 5 0.289 1.485 0.578 2.97 0.875 4.5 1.245 4.98 2.062 5.725 6.125 8.5 1.019 1.655 2.018 3.323 3 5 3.102 3.347 6.408 6.197 10 9 2.003 1.663 4.004 3.329 6 5l-1 2c-15.812-10.217-24.639-21.674-32-39z" fill="#E14B64"/>
<path transform="translate(464,752)" d="m0 0c8.644 0.13 13.328 0.322 20 6 3.187 0.504 6.313 0.633 9.535 0.773 6.656 0.436 13.33 1.141 18.215 5.915 0.413 0.763 0.825 1.526 1.25 2.312-34.973-7.667-34.973-7.667-49-14v-1z" fill="#E14B64"/>
<path transform="translate(635,732)" d="m0 0h4c-1.357 5.247-3.693 8.389-7.25 12.438-0.991 1.131-1.983 2.263-3.004 3.429-0.906 1.034-1.812 2.068-2.746 3.133-1.065 1.352-2.128 2.706-3.188 4.062-3.286 3.433-6.505 4.993-10.812 6.938l-4 3h-2c2.174-4.349 2.972-4.751 7-7 9.085-6.824 16.267-12.989 20-24l2-2z" fill="#E14B64"/>
<path transform="translate(599,295)" d="m0 0c15.215 4.112 27.061 14.361 35 28 0.784 1.341 1.567 2.681 2.375 4.062 0.536 0.97 1.072 1.939 1.625 2.938-2.188-0.438-2.188-0.438-5-2-1.111-2.088-2.217-4.179-3.285-6.289-3.6-5.69-8.866-10.094-13.715-14.711-0.842-0.9-1.684-1.8-2.551-2.727-2.534-2.352-4.39-3.308-7.637-4.398-4.602-1.559-4.602-1.559-6.812-4.875z" fill="#E14B64"/>
<path transform="translate(813,832)" d="m0 0h41c-6.37 4.247-12.327 4.338-19.75 4.312-0.938 0.017-1.877 0.033-2.844 0.049-6.677 5e-3 -12.092-1.186-18.406-3.361v-1z" fill="#E14B64"/>
<path transform="translate(722,783)" d="m0 0c4 1 4 1 7 5 0.392 1.093 0.784 2.186 1.188 3.312 2.375 4.833 5.693 7.345 9.812 10.688 3.062 2.75 3.062 2.75 5 5l-1 3c-9.329-7.098-16.583-14.493-22-25v-2z" fill="#E14B64"/>
<path transform="translate(514,767)" d="M0 0 C2.25 -0.027 4.5 -0.046 6.75 -0.062 C8.003 -0.074 9.256 -0.086 10.547 -0.098 C14 0 14 0 18 1 C22.635 1.433 27.271 1.829 31.91 2.207 C36 3 36 3 39 7 C32.318 7.295 26.881 6.633 20.449 4.867 C13.717 3.175 6.843 2.143 0 1 C0 0.67 0 0.34 0 0 Z " fill="#E14B64"/>
</svg>
