<?xml version="1.0" encoding="UTF-8"?>
<svg version="1.1" viewBox="0 0 2744 1144" xmlns="http://www.w3.org/2000/svg">
<path transform="translate(103.79 237.37)" d="m0 0c1.164-0.013 2.328-0.026 3.527-0.04 1.275 0.012 2.549 0.023 3.862 0.034 0.679-4e-3 0.679-4e-3 4.113-0.023 4.564-0.02 9.126-4e-3 13.69 0.011 3.265-7e-3 6.53-0.015 9.795-0.026 7.957-0.023 15.914-0.018 23.871-3e-3 6.465 0.011 12.931 0.013 19.396 7e-3 0.92-1e-3 1.839-1e-3 2.787-2e-3 1.868-2e-3 3.736-3e-3 5.604-5e-3 17.522-0.014 35.044 2e-3 52.566 0.029 15.043 0.022 30.085 0.018 45.127-5e-3 17.46-0.026 34.921-0.037 52.381-0.022 1.861 2e-3 3.722 4e-3 5.583 5e-3 0.915 1e-3 1.831 2e-3 2.774 2e-3 6.46 5e-3 12.92-3e-3 19.38-0.014 8.69-0.016 17.379-5e-3 26.069 0.024 3.196 7e-3 6.392 5e-3 9.588-6e-3 4.349-0.014 8.697 3e-3 13.047 0.028 1.276-0.011 2.553-0.022 3.868-0.034 1.162 0.014 2.323 0.027 3.52 0.04 0.502 0 0.502 0 3.043 2e-3 3.626 0.868 4.671 2.531 6.62 5.627 0.508 3.27 0.508 3.27 0.518 7.022 0.012 1.408 0.025 2.816 0.038 4.267-4e-3 0.758-4e-3 0.758-0.025 4.59 4e-3 1.559 8e-3 3.119 0.012 4.725 3e-3 3.297-3e-3 6.592-0.022 9.888-0.022 4.223-9e-3 8.444 0.015 12.667 0.018 4.032 5e-3 8.063-5e-3 12.095 8e-3 1.517 0.016 3.034 0.025 4.596-7e-3 0.703-7e-3 0.703-0.038 4.258-4e-3 1.237-7e-3 2.475-0.01 3.749-0.508 3.143-0.508 3.143-1.959 5.31-3.75 2.696-7.397 2.366-11.842 2.301-0.476 1e-3 -0.476 1e-3 -2.883 6e-3 -3.196 2e-3 -6.391-0.025-9.587-0.051-2.288-5e-3 -4.576-7e-3 -6.865-8e-3 -4.931-6e-3 -9.862-0.025-14.793-0.053-7.794-0.044-15.587-0.061-23.381-0.073-12.326-0.023-24.652-0.064-36.978-0.114-22.076-0.088-44.152-0.155-66.228-0.2-7.751-0.017-15.502-0.045-23.253-0.082-4.818-0.021-9.637-0.035-14.455-0.046-2.238-7e-3 -4.476-0.017-6.713-0.031-3.051-0.019-6.101-0.026-9.151-0.029-0.889-9e-3 -1.779-0.017-2.695-0.026-4.308 8e-3 -7.917 0.094-11.725 2.239-1.684 3.368-1.147 7.18-1.145 10.884-4e-3 0.921-7e-3 1.841-0.01 2.79-0.01 3.054-0.012 6.108-0.013 9.162-3e-3 2.118-7e-3 4.235-0.01 6.353-6e-3 4.443-8e-3 8.887-7e-3 13.331 0 5.699-0.014 11.397-0.031 17.096-0.011 4.375-0.013 8.75-0.013 13.125-1e-3 2.101-5e-3 4.203-0.013 6.304-0.01 2.937-7e-3 5.875-1e-3 8.812-6e-3 0.871-0.011 1.742-0.017 2.639 0.022 4.287 0.301 6.586 2.26 10.504 3.179 1.59 6.312 1.115 9.844 1.107 0.41 0 0.41 0 2.484-2e-3 2.762-3e-3 5.525-0.013 8.287-0.023 1.974-4e-3 3.948-7e-3 5.922-9e-3 4.259-7e-3 8.518-0.016 12.777-0.028 6.73-0.018 13.461-0.028 20.191-0.036 19.143-0.024 38.285-0.06 57.427-0.105 10.566-0.024 21.131-0.042 31.697-0.051 6.695-7e-3 13.389-0.022 20.083-0.045 4.162-0.011 8.324-0.015 12.485-0.016 1.934-2e-3 3.867-7e-3 5.801-0.017 2.634-0.012 5.269-0.012 7.904-9e-3 0.738-1e-3 0.738-1e-3 4.472-9e-3 3.626 0.243 3.626 0.243 7.626 2.243 2.117 4.234 2.257 6.177 2.275 10.817 9e-3 1.388 0.019 2.776 0.029 4.206-1e-3 0.749-1e-3 0.749-3e-3 4.54 4e-3 1.538 8e-3 3.077 0.013 4.662 7e-3 4.089 4e-3 8.177-2e-3 12.266 0 2.507 0.011 5.013 0.024 7.52 0.025 4.809 0.029 9.618 0.027 14.427 9e-3 1.498 0.019 2.996 0.028 4.539-3e-3 0.694-3e-3 0.694-0.019 4.207 1e-3 1.222 2e-3 2.445 2e-3 3.705-0.374 3.111-0.374 3.111-3.374 7.111-5.443 1.104-10.836 1.122-16.376 1.114h-2.438c-2.674-1e-3 -5.348-8e-3 -8.023-0.016-1.926-2e-3 -3.851-4e-3 -5.777-5e-3 -4.136-3e-3 -8.272-9e-3 -12.408-0.018-6.538-0.013-13.076-0.019-19.614-0.024-13.871-0.011-27.743-0.03-41.614-0.051-14.99-0.022-29.979-0.042-44.969-0.053-6.501-5e-3 -13.003-0.015-19.505-0.029-4.039-7e-3 -8.077-0.01-12.115-0.013-1.876-1e-3 -3.751-5e-3 -5.626-0.011-2.556-7e-3 -5.111-7e-3 -7.667-7e-3 -1.431-3e-3 -2.863-5e-3 -4.337-7e-3 -3.531 0.12-3.531 0.12-7.531 1.12-0.069 14.551-0.123 29.102-0.155 43.654-0.016 6.756-0.037 13.512-0.071 20.268-0.033 6.517-0.051 13.033-0.059 19.549-5e-3 2.49-0.016 4.98-0.032 7.47-0.022 3.479-0.025 6.958-0.024 10.437-0.01 1.037-0.021 2.073-0.032 3.141 0.031 7.139 0.031 7.139 3.373 10.481 4.086 1.362 8.028 1.104 12.287 1.062 0.962-5e-3 1.925-0.01 2.917-0.016 3.24-0.019 6.481-0.045 9.721-0.072 2.318-0.015 4.635-0.029 6.953-0.043 4.997-0.032 9.995-0.066 14.993-0.102 7.898-0.057 15.797-0.104 23.696-0.148 22.464-0.129 44.927-0.267 67.39-0.425 12.401-0.087 24.802-0.164 37.203-0.228 6.566-0.035 13.131-0.075 19.697-0.129 6.174-0.051 12.348-0.087 18.522-0.113 2.268-0.012 4.536-0.03 6.805-0.053 3.092-0.03 6.183-0.042 9.275-0.049 0.902-0.013 1.804-0.026 2.733-0.04 4.765 0.011 8.052 0.29 11.808 3.356 1.472 2.943 1.152 5.579 1.177 8.865 0.013 1.448 0.026 2.897 0.039 4.389 4e-3 0.787 4e-3 0.787 0.022 4.77 8e-3 1.608 0.016 3.216 0.025 4.872 0.015 3.408 0.025 6.816 0.032 10.224 0.011 4.368 0.046 8.734 0.085 13.101 0.033 4.164 0.037 8.327 0.046 12.49 9e-3 0.785 9e-3 0.785 0.053 4.757-2e-3 0.728-2e-3 0.728-9e-3 4.409 3e-3 0.641 3e-3 0.641 0.018 3.884-0.589 3.91-1.421 4.829-4.488 7.239-2.646 0.5-2.646 0.5-5.726 0.501-1.175 0.01-2.35 0.019-3.561 0.03-1.293-0.01-2.585-0.02-3.916-0.03-1.372 6e-3 -2.744 0.011-4.158 0.017-4.619 0.014-9.238-1e-3 -13.858-0.016-3.302 4e-3 -6.605 9e-3 -9.908 0.016-8.053 0.014-16.106 7e-3 -24.159-8e-3 -9.374-0.017-18.748-0.014-28.123-0.01-16.724 6e-3 -33.448-9e-3 -50.173-0.033-16.235-0.024-32.47-0.031-48.706-0.021-17.67 0.012-35.339 0.014-53.009-1e-3 -1.884-1e-3 -3.768-3e-3 -5.651-4e-3 -0.927-1e-3 -1.854-2e-3 -2.809-3e-3 -6.537-4e-3 -13.074-3e-3 -19.611 2e-3 -7.965 5e-3 -15.93-1e-3 -23.896-0.021-4.065-0.01-8.13-0.014-12.196-7e-3 -4.403 6e-3 -8.806-7e-3 -13.21-0.024-1.29 6e-3 -2.58 0.012-3.909 0.018-0.589-4e-3 -0.589-4e-3 -3.57-0.025-1.016-2e-3 -2.033-3e-3 -3.08-4e-3 -3.247-0.442-5.138-1.457-7.771-3.377-1.526-3.052-1.131-5.904-1.137-9.307-5e-3 -1.578-0.01-3.157-0.015-4.784-1e-3 -1.771-2e-3 -3.542-2e-3 -5.313-4e-3 -1.867-8e-3 -3.734-0.013-5.6-0.012-5.151-0.018-10.302-0.022-15.453-6e-3 -5.546-0.018-11.093-0.029-16.64-0.024-13.405-0.039-26.811-0.052-40.216-3e-3 -3.784-7e-3 -7.567-0.011-11.351-0.026-23.478-0.048-46.955-0.06-70.433-3e-3 -5.44-6e-3 -10.881-9e-3 -16.321-1e-3 -1.353-2e-3 -2.705-2e-3 -4.098-0.013-21.922-0.046-43.843-0.088-65.764-0.042-22.486-0.066-44.973-0.071-67.459-4e-3 -12.633-0.015-25.266-0.048-37.9-0.028-10.755-0.039-21.511-0.028-32.267 5e-3 -5.491 2e-3 -10.982-0.023-16.474-0.022-5.023-0.021-10.045-2e-3 -15.068 3e-3 -1.821-3e-3 -3.642-0.018-5.463-0.019-2.468-5e-3 -4.936 0.012-7.404-1e-3 -1.374-3e-3 -2.747-4e-3 -4.161 1.166-6.605 4.922-9.148 11.411-9.153z" fill="#000019"/>
<path transform="translate(813.88 369.69)" d="m0 0c1.645-0.016 3.291-0.032 4.986-0.048 1.802-7e-3 3.605-0.012 5.407-0.017 1.845-9e-3 3.689-0.018 5.534-0.027 3.869-0.017 7.737-0.024 11.606-0.027 4.955-6e-3 9.91-0.043 14.866-0.089 3.811-0.03 7.621-0.037 11.432-0.038 1.827-4e-3 3.654-0.017 5.48-0.037 2.557-0.027 5.112-0.022 7.669-0.01 1.455-5e-3 2.909-0.01 4.408-0.015 4.532 0.746 5.963 2.018 8.732 5.614 1.187 3.532 1.187 3.532 2 7.5 1.446 6.442 3.368 12.304 5.843 18.411 1.505 4.022 2.445 8.096 3.414 12.273 0.701 2.66 1.593 5.043 2.68 7.566 1.812 4.277 2.93 8.545 4 13.063 1.501 6.294 3.479 12.11 5.906 18.098 1.505 4.022 2.445 8.096 3.414 12.273 0.701 2.66 1.593 5.043 2.68 7.566 1.812 4.277 2.93 8.545 4 13.063 1.496 6.278 3.48 12.059 5.906 18.027 1.579 4.314 2.462 8.698 3.414 13.184 0.841 3.372 2.204 6.364 3.711 9.488 1.815 4.379 2.798 9 3.961 13.586 1.034 3.767 2.271 7.368 3.633 11.027 1.681 4.537 2.989 8.957 4 13.688 0.98 4.573 2.364 8.467 4.406 12.699 1.817 4.384 2.8 9.01 3.965 13.602 1.011 3.683 2.222 7.189 3.567 10.761 2.477 6.652 4.003 13.363 5.41 20.313 1.174 4.108 2.134 6.707 5.09 9.812 4.25 0.375 4.25 0.375 8 0 0.314-1.122 0.629-2.245 0.953-3.402 3.926-13.731 3.926-13.731 6.172-18.535 1.454-3.152 2.456-5.883 3.375-9.188 0.891-3.15 1.732-5.265 3.437-8.125 2.554-4.643 3.69-9.304 5.063-14.402 1.21-4.052 3.11-7.569 5-11.348 0.701-2.323 1.364-4.657 2-7 1.472-5.41 3.388-10.022 6-15 4.975-11.076 5.365-18.903 1.187-30.375-1.406-3.577-2.768-6.936-4.769-10.218-1.641-2.785-2.429-5.42-3.293-8.532-1.575-5.351-3.573-10.223-5.969-15.25-1.48-3.358-2.43-6.776-3.414-10.304-0.742-2.321-0.742-2.321-2.68-6.133-1.79-3.636-2.937-6.883-4.062-10.75-1.084-3.696-2.08-6.576-4-9.938-2.425-4.242-3.57-8.485-4.93-13.16-1.31-4.089-3.069-7.845-4.914-11.715-1.479-3.357-2.429-6.774-3.414-10.3-0.742-2.325-0.742-2.325-2.68-6.2-1.703-3.407-2.869-6.455-4-10.062-1.262-3.998-2.71-7.412-4.875-11-2.187-4.063-2.187-4.063-1.887-6.754 0.7-2.309 0.7-2.309 1.7-3.309 2.008-0.109 4.021-0.149 6.032-0.161 0.646-5e-3 0.646-5e-3 3.914-0.029 1.407-4e-3 2.815-8e-3 4.265-0.013 1.434-5e-3 2.868-0.011 4.346-0.017 3.041-9e-3 6.083-0.016 9.124-0.02 4.666-0.01 9.332-0.041 13.998-0.072 2.948-7e-3 5.896-0.012 8.844-0.016 0.702-6e-3 0.702-6e-3 4.252-0.037 0.649 1e-3 0.649 1e-3 3.933 9e-3 1.145-4e-3 2.29-7e-3 3.47-0.011 2.822 0.367 2.822 0.367 5.822 3.367 4.479 7.713 7.687 15.563 10.105 24.125 0.895 2.875 0.895 2.875 2.895 6.75 2.515 5.189 3.787 10.444 5.168 16.028 0.832 3.097 0.832 3.097 1.832 4.097 7.207 0.591 7.207 0.591 10.175-1.621 2.257-2.942 2.623-5.102 3.2-8.754 1.243-6.556 3.39-12.114 6.148-18.168 1.456-3.409 2.528-6.768 3.539-10.332 1.59-5.442 3.592-9.547 6.938-14.125 2.844-1.422 5.257-1.135 8.437-1.145 0.678-3e-3 0.678-3e-3 4.106-0.019 1.47-1e-3 2.941-2e-3 4.457-4e-3 0.751-1e-3 0.751-1e-3 4.55-0.01 3.181-5e-3 6.362-7e-3 9.543-7e-3 4.886-2e-3 9.771-0.02 14.657-0.039 3.083-3e-3 6.166-5e-3 9.25-6e-3 1.47-7e-3 2.941-0.014 4.457-0.022 1.354 3e-3 2.709 6e-3 4.105 9e-3 0.599 0 0.599 0 3.629-4e-3 2.809 0.247 2.809 0.247 4.809 2.247-0.237 6.361-2.175 11.167-4.875 16.875-2.259 4.861-4.458 9.628-5.875 14.813-1.25 4.312-1.25 4.312-3.188 7.687-2.314 4.069-3.584 8.063-4.992 12.508-1.04 3.028-2.265 5.85-3.633 8.742-1.627 3.447-2.923 6.764-3.937 10.438-1.243 4.452-3.107 8.285-5.243 12.371-1.725 3.521-2.999 7.15-4.293 10.848-1.218 3.433-2.588 6.794-3.96 10.168-1.43 3.632-2.707 7.316-3.977 11.007-1.027 2.543-1.027 2.543-2.535 4.993-1.649 2.817-2.444 5.406-3.305 8.55-1.399 4.829-3.15 9.09-5.437 13.563-3.74 7.839-3.936 14.405-1.5 22.687 1.178 2.525 2.408 5.025 3.687 7.5 1.686 3.474 2.901 6.656 4.063 10.313 1.108 3.473 2.155 6.204 4 9.375 2.43 4.329 3.615 8.68 5 13.43 1.258 3.942 3.127 7.447 5 11.132 1.023 2.974 1.969 5.961 2.875 8.973 1.125 3.027 1.125 3.027 3.089 6.356 2.252 4.061 3.4 7.879 4.598 12.359 1.362 5.086 2.249 8.062 5.438 12.312 4.187 0.25 4.187 0.25 8 0 1.663-4.688 3.093-9.157 3.937-14.062 0.626-3.39 1.312-5.419 2.938-8.563 2.01-4.138 3.018-7.668 4.062-12.125 1.444-6.14 3.348-11.63 5.906-17.379 1.586-3.938 2.465-7.953 3.414-12.082 0.872-3.273 2.255-6.21 3.711-9.261 1.803-4.418 2.79-9.071 3.961-13.688 1.316-4.719 3.085-9.168 4.914-13.707 1.155-3.128 1.97-6.198 2.719-9.445 0.832-3.595 1.658-6.114 3.375-9.438 2.548-5.249 3.658-10.486 4.992-16.148 1.272-4.873 3.025-9.415 4.914-14.074 1.11-2.906 1.951-5.766 2.719-8.778 1.061-4.147 2.577-7.806 4.406-11.687 1.786-4.437 2.787-9.094 3.961-13.723 1.316-4.719 3.085-9.168 4.914-13.707 1.155-3.128 1.97-6.198 2.719-9.445 0.832-3.595 1.658-6.114 3.375-9.438 2.583-5.322 3.705-10.669 5.059-16.41 1.209-4.625 2.975-8.52 5.004-12.84 0.545-1.784 1.066-3.576 1.562-5.375 1.438-4.625 1.438-4.625 4.438-7.625 3.339-0.387 3.339-0.387 7.545-0.404 0.785-6e-3 0.785-6e-3 4.762-0.038 1.721 2e-3 3.441 5e-3 5.161 9e-3 1.76-5e-3 3.52-0.01 5.28-0.016 3.688-9e-3 7.377-7e-3 11.066 3e-3 4.731 0.012 9.462-8e-3 14.194-0.038 3.634-0.018 7.267-0.018 10.901-0.012 1.745 0 3.49-6e-3 5.235-0.018 2.437-0.015 4.874-2e-3 7.311 0.013h4.205c3.34 0.501 3.34 0.501 6.34 4.501-0.621 4.275-1.486 7.264-3.969 10.817-2.202 3.45-3.047 6.273-3.969 10.246-1.535 6.176-3.531 11.91-5.906 17.805-1.155 3.128-1.97 6.198-2.719 9.445-0.835 3.602-1.676 6.157-3.375 9.5-2.458 4.99-3.637 9.935-4.992 15.312-1.308 4.736-3.08 9.191-4.914 13.743-1.155 3.128-1.97 6.198-2.719 9.445-0.835 3.602-1.676 6.157-3.375 9.5-2.458 4.99-3.637 9.935-4.992 15.312-1.308 4.736-3.08 9.191-4.914 13.743-1.155 3.128-1.97 6.198-2.719 9.445-0.835 3.602-1.676 6.157-3.375 9.5-2.458 4.99-3.637 9.935-4.992 15.312-1.308 4.736-3.08 9.191-4.914 13.743-1.155 3.128-1.97 6.198-2.719 9.445-0.835 3.602-1.676 6.157-3.375 9.5-2.458 4.99-3.637 9.935-4.992 15.312-1.308 4.736-3.08 9.191-4.914 13.743-1.155 3.128-1.97 6.198-2.719 9.445-0.835 3.602-1.676 6.157-3.375 9.5-2.497 5.069-3.686 10.13-5.062 15.594-1 3.593-1 3.593-3 8.031-1.867 4.258-2.937 8.115-4 12.625-1.389 5.862-3.307 10.55-6 15.937-0.952 3.954-1.808 7.91-2.582 11.903-1.837 5.308-4.217 9.319-8.418 13.097-3.936 0.915-6.524 1.211-10.446 1.117-0.514 6e-3 -0.514 6e-3 -3.112 0.034-3.381 0.024-6.757-0.017-10.138-0.061-2.354-1e-3 -4.709 0-7.063 5e-3 -4.928 0-9.855-0.032-14.783-0.086-6.317-0.068-12.631-0.07-18.948-0.05-4.86 0.011-9.718-9e-3 -14.577-0.039-2.329-0.011-4.659-0.015-6.988-0.01-3.254 1e-3 -6.505-0.037-9.758-0.086-0.963 8e-3 -1.925 0.015-2.916 0.023-4.649-0.111-6.805-0.408-10.248-3.644-4.609-7.294-7.608-13.655-9.988-21.933-1.288-4.069-3.046-7.799-4.879-11.645-1.479-3.358-2.431-6.774-3.41-10.304-0.746-2.321-0.746-2.321-2.746-6.133-2.272-4.757-3.274-9.28-4.289-14.43-0.711-2.758-0.711-2.758-2.711-4.758-4.438-0.437-4.438-0.437-9 0-2.952 3.677-3.815 7.658-4.875 12.188-1.429 5.636-3.206 10.4-5.973 15.488-1.198 2.417-1.939 4.726-2.652 7.324-0.984 3.584-2.258 6.656-4 9.938-1.856 3.507-2.994 6.696-3.875 10.562-1.499 6.083-4.579 10.762-8.625 15.5-3.561 1.781-7.771 1.176-11.695 1.193-1.007 8e-3 -2.013 0.017-3.05 0.025-3.342 0.025-6.683 0.041-10.025 0.056-1.139 5e-3 -2.279 0.01-3.452 0.016-6.03 0.027-12.059 0.046-18.088 0.06-6.235 0.017-12.469 0.062-18.704 0.113-4.787 0.033-9.575 0.045-14.363 0.051-2.298 6e-3 -4.597 0.022-6.895 0.046-3.216 0.031-6.43 0.031-9.646 0.024-0.951 0.016-1.902 0.033-2.883 0.05-4.364-0.042-6.719-0.254-10.195-2.999-0.661-0.87-1.323-1.739-2.004-2.635-0.712-0.901-1.423-1.802-2.157-2.73-2.274-4.034-3.312-8.112-4.343-12.582-2.519-10.263-2.519-10.263-4.563-14.438-1.802-3.954-2.871-7.552-3.937-11.75-1.252-4.923-2.711-9.282-4.934-13.867-2.132-5.264-3.371-10.842-4.84-16.32-0.96-3.376-1.996-6.523-3.351-9.75-1.42-3.454-2.458-6.543-3.375-10.125-1.087-4.212-2.611-7.933-4.469-11.875-1.786-4.437-2.787-9.094-3.961-13.723-1.316-4.719-3.085-9.168-4.914-13.707-1.155-3.128-1.97-6.198-2.719-9.445-0.832-3.595-1.657-6.114-3.375-9.438-2.586-5.328-3.708-10.682-5.062-16.429-1.187-4.535-3.076-8.551-5-12.821-0.699-2.512-1.363-5.034-2-7.562-1.056-4.163-2.048-7.532-4-11.375-2.583-5.246-3.663-10.569-5-16.242-1.187-4.535-3.076-8.551-5-12.821-0.7-2.49-1.364-4.992-2-7.5-1.086-4.274-2.202-7.953-4-12-2.318-5.215-3.6-10.421-5-15.941-1-3.559-1-3.559-3-7.996-1.867-4.258-2.937-8.116-4-12.625-1.384-5.845-3.239-10.594-6-15.938-0.817-3.04-1.509-6.098-2.207-9.168-1.02-3.64-2.905-6.576-4.793-9.832-0.438-3.312-0.438-3.312 0-6 3.884-2.589 6.221-2.272 10.88-2.306z" fill="#000019"/>
<path transform="translate(700.23 237.84)" d="m0 0c0.776-5e-3 0.776-5e-3 4.703-0.029 1.708-5e-3 3.417-9e-3 5.126-0.013 1.74-6e-3 3.48-0.011 5.22-0.017 3.654-0.011 7.307-0.017 10.961-0.02 4.686-6e-3 9.373-0.03 14.06-0.058 3.596-0.019 7.192-0.024 10.788-0.025 1.728-3e-3 3.456-0.012 5.184-0.025 2.416-0.017 4.831-0.013 7.247-8e-3 1.376-4e-3 2.752-8e-3 4.17-0.011 3.315 0.367 3.315 0.367 6.315 3.367 1.526 3.053 1.13 5.905 1.134 9.307 5e-3 1.579 9e-3 3.158 0.014 4.784 0 1.771-1e-3 3.543-1e-3 5.314 3e-3 1.866 7e-3 3.733 0.011 5.6 0.01 5.15 0.014 10.301 0.017 15.452 4e-3 5.547 0.013 11.094 0.022 16.64 0.02 13.406 0.03 26.811 0.039 40.216 4e-3 6.307 9e-3 12.614 0.015 18.921 0.017 20.954 0.031 41.908 0.038 62.863 2e-3 5.441 4e-3 10.881 6e-3 16.322 1e-3 1.352 1e-3 2.704 2e-3 4.098 8e-3 21.921 0.033 43.842 0.066 65.763 0.033 22.487 0.051 44.973 0.054 67.459 2e-3 12.633 0.011 25.267 0.036 37.9 0.022 10.756 0.03 21.512 0.02 32.268-4e-3 5.491-2e-3 10.982 0.017 16.473 0.018 5.023 0.017 10.046 1e-3 15.068-2e-3 1.822 2e-3 3.643 0.014 5.464 0.015 2.468 3e-3 4.936-0.01 7.404 1e-3 1.373 2e-3 2.746 3e-3 4.161-0.574 4.057-1.541 5.729-4.498 8.523-3.371 0.635-3.371 0.635-7.443 0.647-1.525 0.016-3.051 0.032-4.622 0.048-0.824-5e-3 -0.824-5e-3 -4.994-0.031-1.708 4e-3 -3.417 8e-3 -5.126 0.015-3.58 7e-3 -7.16-4e-3 -10.74-0.027-4.585-0.028-9.168-0.012-13.753 0.018-3.529 0.018-7.057 0.012-10.585-1e-3 -2.511-5e-3 -5.022 0.01-7.533 0.026-1.529-0.016-3.057-0.032-4.632-0.048-1.344-4e-3 -2.689-8e-3 -4.075-0.012-4.332-0.786-5.814-2.211-8.497-5.635-0.552-2.739-0.552-2.739-0.453-5.668 0.02-1.058 0.041-2.115 0.062-3.205 0.047-1.094 0.093-2.187 0.141-3.314 0.061-2.181 0.118-4.362 0.172-6.543 0.037-0.964 0.074-1.927 0.112-2.919-0.034-2.351-0.034-2.351-1.034-4.351-3.125-0.625-3.125-0.625-7 0-3.25 3.438-3.25 3.438-4.992 5.645-12.622 14.807-31.922 23.866-50.196 29.23-0.972 0.286-1.945 0.572-2.947 0.867-12.282 3.433-24.135 4.586-36.865 4.508-1.263 8e-3 -2.527 0.016-3.828 0.024-11.721-0.025-22.685-1.676-33.985-4.711-1.553-0.412-3.106-0.823-4.707-1.246-7.22-2.122-13.798-4.872-20.48-8.317-1.299-0.619-2.599-1.237-3.938-1.875-15.039-7.867-32.683-21.132-41.062-36.125-0.784-0.763-1.568-1.526-2.375-2.312-9.46-9.685-17.043-25.837-20.711-38.754-0.914-2.934-0.914-2.934-2.855-7.485-2.385-5.887-3.521-11.838-4.622-18.074-0.423-2.318-0.846-4.635-1.269-6.953-0.1-0.555-0.1-0.555-0.604-3.361-0.705-3.826-1.518-7.628-2.314-11.436-1.71-9.151-2.01-18.343-2.25-27.625-0.03-1.129-0.059-2.258-0.09-3.422-0.037-3.196 0.021-6.382 0.09-9.578-7e-3 -1.373-0.013-2.746-0.02-4.16 0.207-12.173 2.071-23.898 4.332-35.84 0.296-1.573 0.592-3.145 0.897-4.765 2.256-11.501 5.023-22.508 9.791-33.235 0.653-1.831 1.298-3.664 1.937-5.5 1.61-4.486 3.594-8.41 6.063-12.5 0.577-1.237 1.155-2.475 1.75-3.75 2.913-5.503 6.51-10.286 10.25-15.25 0.773-1.054 1.547-2.109 2.344-3.195 11.23-15.236 26.541-27.837 43.531-36.305 0.802-0.402 1.604-0.804 2.43-1.219 5.618-2.67 11.264-4.9 17.195-6.781 0.624-0.201 0.624-0.201 3.781-1.219 12.745-3.46 24.809-4.764 37.971-4.672 2.745 0.016 5.488 0 8.232-0.019 14.302-0.019 27.473 1.915 40.953 6.785 0.41 0.139 0.41 0.139 2.483 0.844 5.567 1.969 10.144 4.545 15.08 7.781 1.382 0.681 2.764 1.361 4.187 2.063 3.406 1.73 5.913 3.495 8.813 5.937 0.99 0.64 1.98 1.279 3 1.938 3.794 2.608 6.802 5.512 9.621 9.16 4.571 5.772 4.571 5.772 9.254 6.527 1.031-0.206 2.062-0.412 3.125-0.625 1.385-2.769 1.113-4.991 1.1-8.091-3e-3 -1.3-6e-3 -2.6-9e-3 -3.939-8e-3 -1.434-0.017-2.868-0.025-4.346-5e-3 -1.504-0.01-3.008-0.014-4.558-0.011-3.277-0.023-6.553-0.038-9.83-0.023-5.181-0.036-10.362-0.048-15.543-0.033-14.734-0.075-29.468-0.137-44.202-0.035-8.134-0.059-16.268-0.071-24.402-6e-3 -4.305-0.019-8.611-0.045-12.916-0.028-4.803-0.034-9.606-0.038-14.408-0.012-1.429-0.024-2.857-0.037-4.328 2e-3 -1.309 5e-3 -2.617 8e-3 -3.965-4e-3 -1.135-8e-3 -2.271-0.012-3.442 0.98-8.113 4.264-9.155 11.592-9.191zm-115.23 191.16c-0.926 0.277-1.851 0.554-2.805 0.84-14.585 4.483-27.707 16.674-34.941 29.934-1.254 2.226-1.254 2.226-4.254 6.226-0.706 1.705-1.349 3.438-1.938 5.188-1.162 3.438-2.436 6.585-4.023 9.863-2.597 5.771-3.621 11.749-4.727 17.949-0.212 1.124-0.424 2.248-0.642 3.406-3.664 19.788-4.41 40.751-0.67 60.594 0.081 0.468 0.081 0.468 0.489 2.836 2.15 12.45 4.299 24.011 10.511 35.164 0.619 1.361 1.237 2.723 1.875 4.125 7.533 13.736 18.191 25.558 32.125 32.875 0.364 0.245 0.364 0.245 2.207 1.485 16.551 8.981 36.519 8.083 54.025 3.147 7.028-2.159 13.012-4.989 18.768-9.632 0.813-0.626 1.627-1.253 2.465-1.898 8.636-7.16 15.902-15.878 20.535-26.102 0.958-1.611 1.916-3.222 2.875-4.832 3.653-6.662 5.297-13.48 6.937-20.855 0.299-1.267 0.597-2.533 0.905-3.838 2.194-9.477 3.438-18.539 3.486-28.283 6e-3 -0.925 0.011-1.85 0.017-2.803 0.01-1.953 0.016-3.905 0.02-5.857 0.01-2.93 0.041-5.858 0.072-8.788 0.066-11.568-0.796-22.397-3.312-33.744-0.189-0.891-0.378-1.783-0.573-2.702-0.439-1.983-0.93-3.954-1.427-5.923-0.309-1.25-0.619-2.501-0.938-3.789-1.912-6.455-4.852-12.277-8-18.211-0.669-1.271-1.338-2.542-2.027-3.851-1.813-3.14-3.687-5.776-6.035-8.524-0.271-0.329-0.271-0.329-1.641-1.992-11.891-13.911-26.121-22.8-44.359-26.008-12.35-0.607-23.371-0.648-35 4z" fill="#000019"/>
<path transform="translate(2131.5 237.6)" d="m0 0c0.786-6e-3 0.786-6e-3 4.763-0.038 1.72 2e-3 3.44 5e-3 5.161 8e-3 1.76-4e-3 3.519-9e-3 5.279-0.015 3.689-9e-3 7.377-7e-3 11.066 3e-3 4.732 0.012 9.463-9e-3 14.194-0.038 3.634-0.018 7.268-0.018 10.902-0.012 1.745 0 3.489-6e-3 5.234-0.019 2.437-0.014 4.874-1e-3 7.311 0.013 1.388 1e-3 2.776 1e-3 4.205 1e-3 3.34 0.501 3.34 0.501 6.34 4.501 0.383 3.381 0.383 3.381 0.393 7.516 0.012 1.575 0.023 3.149 0.034 4.772-2e-3 1.756-5e-3 3.512-8e-3 5.268 8e-3 1.858 0.016 3.717 0.027 5.576 0.023 5.119 0.029 10.239 0.031 15.359 5e-3 5.516 0.028 11.033 0.049 16.55 0.037 10.813 0.058 21.626 0.073 32.439 0.013 8.787 0.032 17.574 0.055 26.361 3e-3 1.249 6e-3 2.498 0.01 3.785 6e-3 2.538 0.013 5.075 0.019 7.612 0.062 23.814 0.105 47.628 0.142 71.442 0.032 20.441 0.08 40.882 0.139 61.324 0.069 23.722 0.128 47.444 0.171 71.166 5e-3 2.529 0.01 5.058 0.014 7.588 1e-3 0.622 1e-3 0.622 7e-3 3.771 0.017 8.776 0.041 17.553 0.068 26.33 0.032 10.696 0.054 21.391 0.061 32.087 5e-3 5.459 0.014 10.918 0.036 16.377 0.02 4.996 0.026 9.992 0.021 14.987 1e-3 1.809 6e-3 3.618 0.018 5.427 0.014 2.456 9e-3 4.913 2e-3 7.369 1e-3 0.683 1e-3 0.683 8e-3 4.137-0.409 4.151-1.385 7.098-3.37 10.757-3.611 1.204-6.548 1.142-10.361 1.161-0.766 5e-3 -0.766 5e-3 -4.642 0.029-1.676 5e-3 -3.352 9e-3 -5.028 0.013-1.715 6e-3 -3.43 0.012-5.145 0.017-3.594 0.011-7.189 0.017-10.783 0.02-4.611 6e-3 -9.221 0.03-13.831 0.058-3.542 0.019-7.083 0.024-10.624 0.026-1.7 3e-3 -3.4 0.011-5.1 0.024-2.375 0.017-4.75 0.013-7.125 8e-3 -0.676 2e-3 -0.676 2e-3 -4.097 0.012-3.264-0.368-3.264-0.368-6.264-3.368-0.432-2.911-0.432-2.911-0.512-6.418-0.035-1.254-0.071-2.507-0.107-3.799-0.011-0.655-0.011-0.655-0.068-3.97-0.035-1.322-0.069-2.644-0.104-4.006-0.083-3.269-0.152-6.538-0.209-9.807-5.523 0.064-8.829 0.292-12.879 4.203-1.249 1.33-2.477 2.679-3.683 4.047-4.806 5.289-9.228 9.165-15.438 12.75-0.949 0.681-1.897 1.361-2.875 2.063-3.44 2.133-6.872 3.515-10.66 4.91-2.465 1.027-2.465 1.027-4.688 2.488-3.846 2.131-7.914 3.062-12.152 4.102-9.452 2.385-9.452 2.385-13.226 3.527-8.743 2.341-17.603 2.093-26.586 2.098-1.334 0.012-2.667 0.024-4.041 0.037-10.888 0.016-21.313-0.936-31.772-4.1-1.158-0.348-2.315-0.696-3.508-1.055-1.152-0.353-2.305-0.706-3.492-1.07-1.152-0.333-2.305-0.665-3.492-1.008-6.204-1.819-11.8-3.896-17.508-6.992-1.382-0.66-2.764-1.32-4.187-2-3.36-1.762-5.926-3.581-8.813-6-0.767-0.452-1.534-0.905-2.324-1.371-13.652-8.311-24.529-20.734-33.676-33.629-0.628-0.844-1.255-1.689-1.902-2.559-4.487-6.136-7.84-12.588-11.098-19.441-0.51-0.985-1.021-1.97-1.547-2.984-1.878-3.899-3.102-7.893-4.39-12.016-1.063-3-1.063-3-2.563-5.777-1.925-4.136-2.696-8.33-3.5-12.785-0.339-1.804-0.68-3.608-1.023-5.411-0.165-0.869-0.33-1.738-0.499-2.633-0.597-2.993-1.342-5.939-2.103-8.894-7.342-32.175-6.106-71.242 2.66-103 0.937-3.4 1.682-6.799 2.403-10.25 1.234-5.45 3.118-10.365 5.375-15.469 1.187-2.781 1.187-2.781 2.687-7.531 1.624-4.602 3.844-8.169 6.5-12.25 0.639-1.299 1.279-2.599 1.938-3.937 5.319-10.478 12.653-19.882 21.062-28.063 0.763-0.969 1.526-1.939 2.313-2.937 3.183-3.628 6.761-6.312 10.687-9.063 0.834-0.592 1.668-1.183 2.527-1.793 2.482-1.75 4.976-3.479 7.473-5.207 1.011-0.722 2.021-1.444 3.063-2.187 3.024-1.867 6.122-3.314 9.398-4.688 2.11-0.935 4.171-1.982 6.215-3.055 4.647-2.224 9.205-3.76 14.137-5.195 0.825-0.251 1.651-0.503 2.502-0.762 12.373-3.667 24.127-4.486 36.953-4.484 2.83-4e-3 5.659-0.04 8.49-0.078 11.614-0.073 22.017 1.157 33.242 4.449 0.483 0.136 0.483 0.136 2.924 0.827 2.291 0.675 4.56 1.42 6.826 2.173 1.459 0.474 2.919 0.949 4.422 1.438 3.629 1.481 5.884 3.042 8.828 5.562 2.221 0.966 4.443 1.931 6.672 2.879 3.834 1.846 7.069 4.425 10.328 7.121 0.335 0.274 0.335 0.274 2.031 1.66 4.253 3.59 7.655 7.262 10.84 11.836 3.428 2.422 7.053 1.592 11.129 1.504 1e-3 -0.408 1e-3 -0.408 7e-3 -2.475 0.059-19.854 0.135-39.708 0.229-59.563 0.045-9.601 0.084-19.202 0.111-28.804 0.022-8.366 0.056-16.733 0.102-25.099 0.024-4.432 0.042-8.864 0.049-13.296 7e-3 -4.942 0.037-9.884 0.07-14.827-2e-3 -1.476-3e-3 -2.952-5e-3 -4.472 0.013-1.342 0.025-2.684 0.038-4.067 5e-3 -1.17 0.01-2.339 0.014-3.545 0.892-6.611 5.376-6.234 10.93-6.256zm-115.54 191.4c-0.852 0.289-1.704 0.578-2.582 0.875-9.593 3.384-18.291 8.955-24.418 17.125-0.825 0.619-1.65 1.238-2.5 1.875-3.403 2.892-5.237 6.296-7.5 10.125-0.681 0.949-1.361 1.898-2.062 2.875-2.116 3.413-3.51 6.811-4.911 10.563-1.027 2.562-1.027 2.562-2.479 5.263-2.864 6.105-3.808 12.789-5.173 19.362-0.312 1.438-0.624 2.875-0.945 4.357-7.399 35.13-4.127 75.815 13.57 107.58 8.099 11.799 17.472 21.991 30 29 0.735 0.496 1.47 0.993 2.227 1.504 16.712 9.015 37.396 8.215 55.086 3.113 17.717-6.112 33.279-21.338 41.871-37.898 1.001-2.213 1.909-4.466 2.816-6.719 0.66-1.444 1.32-2.887 2-4.375 2.574-6.445 3.732-13.256 5.07-20.039 0.586-2.886 1.238-5.761 1.985-8.609 2.295-9.656 2.128-19.287 2.133-29.164 0.012-1.416 0.024-2.833 0.037-4.291 0.019-14.318-2.237-27.578-5.6-41.459-0.146-0.631-0.146-0.631-0.883-3.823-1.532-6.372-3.107-11.699-6.742-17.24-0.848-1.701-1.683-3.409-2.5-5.125-1.828-3.7-3.797-6.736-6.5-9.875-0.639-1.011-1.279-2.021-1.937-3.062-2.112-3.007-4.15-4.736-7.063-6.938-0.804-0.825-1.609-1.65-2.437-2.5-2.693-2.627-5.369-4.519-8.563-6.5-0.969-0.639-1.939-1.279-2.937-1.937-18.075-9.177-40.065-11.868-59.063-4.063z" fill="#000019"/>
<path transform="translate(1536.6 367.44)" d="m0 0c1.044 0.288 2.088 0.577 3.164 0.874 5.268 1.532 9.106 2.905 13.211 6.688 1.341 0.557 2.681 1.114 4.063 1.688 17.675 7.529 29.96 23.452 37.937 40.312 0.316 0.586 0.316 0.586 1.914 3.551 2.524 5.385 4.158 10.801 5.773 16.512 0.308 1.05 0.615 2.1 0.932 3.182 4.698 16.334 4.527 33.215 4.539 50.104 8e-3 2.519 0.015 5.038 0.023 7.557 8e-3 2.669 0.013 5.338 0.018 8.007 0.011 5.585 0.031 11.171 0.053 16.757 0.062 15.869 0.116 31.738 0.149 47.607 0.019 8.795 0.048 17.589 0.088 26.384 0.021 4.642 0.037 9.284 0.039 13.927 3e-3 5.162 0.028 10.325 0.055 15.487-3e-3 1.532-6e-3 3.064-9e-3 4.643 0.011 1.406 0.023 2.811 0.034 4.259 2e-3 0.61 2e-3 0.61 0.01 3.693 0.427 3.726 1.529 6.093 3.382 9.33 0.66 1.238 1.32 2.476 2 3.75 3.733 4.044 6.16 4.271 11.477 4.766 2.523 0.484 2.523 0.484 5.523 3.484 0.669 5.597 0.463 11.244 0.437 16.876 0.02 1.566 0.04 3.132 0.061 4.746-1e-3 1.504-1e-3 3.008-2e-3 4.558 2e-3 1.379 4e-3 2.758 6e-3 4.179-0.577 4.184-1.442 5.776-4.502 8.641-11.276 6.252-29.614 4.312-42.063 4.25-1.608 8e-3 -3.216 0.016-4.873 0.024-14.957-0.025-27.509-2.19-39.373-12.227-1.762-1.93-3.237-3.875-4.691-6.047-0.282-0.397-0.282-0.397-1.707-2.41-3.658-5.542-4.986-9.84-5.293-16.59-0.33-1.319-0.66-2.639-1-4-7.691 0.038-7.691 0.038-11.02 2.486-1.952 1.996-3.76 4.054-5.543 6.202-4.785 5.578-9.4 10.084-15.437 14.312-0.826 0.581-1.653 1.161-2.504 1.758-6.507 4.322-13.003 8.159-20.207 11.242-2.128 0.93-4.212 1.962-6.289 3-5.719 2.567-11.816 3.727-17.914 5.071-4.086 0.929-4.086 0.929-7.484 1.984-9.252 2.428-18.854 2.128-28.352 2.133-1.268 0.012-2.537 0.024-3.844 0.037-11.103 0.017-21.993-0.892-32.656-4.162-1.15-0.349-2.3-0.699-3.484-1.059-1.078-0.331-2.156-0.662-3.266-1.004-0.477-0.129-0.477-0.129-2.891-0.785-5.094-1.395-8.823-3.179-13.109-6.215-1.596-0.788-3.201-1.557-4.813-2.312-14.58-7.137-25.931-20.39-33.187-34.688-0.474-0.863-0.949-1.727-1.437-2.617-2.055-4.448-3.362-8.987-4.688-13.695-0.132-0.45-0.132-0.45-0.801-2.725-6.852-24.052-3.764-51.638 8.328-73.498 8.588-14.138 20.116-24.894 34.328-33.125 2.27-1.339 2.27-1.339 5.27-3.464 3.388-2.118 6.795-3.472 10.535-4.848 2.465-1.028 2.465-1.028 4.801-2.496 3.303-1.899 6.577-2.881 10.227-3.969 4.874-1.47 9.702-2.986 14.5-4.687 5.663-1.919 11.382-3.004 17.253-4.098 3.315-0.7 6.362-1.612 9.559-2.715 6.215-2.013 12.433-2.981 18.875-3.937 9.006-1.344 17.838-3.039 26.687-5.188 1.011-0.245 2.022-0.491 3.064-0.744 9.506-2.363 18.618-5.014 27.499-9.194 0.963-0.449 1.926-0.899 2.918-1.363 10.045-5.334 16.654-12.609 20.895-23.137 2.79-10.575-0.28-18.64-5.157-28.109-6.117-8.829-15.506-12.583-25.652-14.68-1.321-0.234-2.643-0.469-4.004-0.711-1.167-0.234-2.333-0.469-3.535-0.71-13.005-2.3-25.701-0.797-38.59 1.523-0.438 0.076-0.438 0.076-2.656 0.463-5.438 1.058-9.574 2.735-14.219 5.724-0.806 0.481-1.611 0.962-2.441 1.458-5.124 3.274-8.856 6.632-12.559 11.542-0.3 0.385-0.3 0.385-1.816 2.329-4.861 6.778-6.345 12.932-7.383 21.168-0.877 3.835-1.701 5.163-4.801 7.503-3.5 1.167-6.284 1.149-9.978 1.178-0.724 6e-3 -0.724 6e-3 -4.389 0.038-0.785 4e-3 -0.785 4e-3 -4.754 0.023-1.607 8e-3 -3.213 0.016-4.869 0.024-3.402 0.015-6.804 0.025-10.206 0.033-4.359 0.011-8.718 0.045-13.077 0.085-4.158 0.032-8.315 0.037-12.473 0.045-1.567 0.018-3.134 0.035-4.748 0.053-0.726-1e-3 -0.726-1e-3 -4.398-9e-3 -0.64 3e-3 -0.64 3e-3 -3.876 0.018-3.232-0.488-3.232-0.488-5.654-2.309-2.292-3.165-1.945-5.343-1.578-9.179 2.82-14.147 7.038-28.916 15-41 0.598-1.113 1.196-2.227 1.813-3.374 2.968-4.92 6.507-9.224 10.187-13.626 0.642-0.79 1.284-1.58 1.945-2.394 6.806-8.087 15.154-13.061 24.055-18.606 1.052-0.824 2.104-1.649 3.187-2.5 4.371-2.866 8.726-4.534 13.629-6.289 3.184-1.211 3.184-1.211 5.99-2.677 3.166-1.52 6.08-2.441 9.483-3.287 1.19-0.298 2.38-0.595 3.606-0.901 1.231-0.3 2.462-0.599 3.73-0.908 0.604-0.152 0.604-0.152 3.66-0.92 38.273-9.455 81.482-8.743 119.34 1.92zm-31.625 171.56c-3.777 1.126-3.777 1.126-7.937 2-9.055 1.989-17.999 4.273-26.915 6.813-5.127 1.452-10.217 2.596-15.461 3.563-7.55 1.467-14.547 3.79-21.687 6.624-0.833 0.33-1.665 0.66-2.523 1-13.557 5.708-25.814 14.528-32.477 28-1.266 3.903-1.266 3.903-2.25 7.938-0.168 0.665-0.168 0.665-1.016 4.027-2.123 11.667 0.847 22.677 6.266 33.035 2.375 2.75 2.375 2.75 5 5 0.887 0.805 1.774 1.609 2.687 2.438 16.059 12.422 33.929 11.792 53.626 9.938 7.67-1.064 13.906-3.745 20.687-7.376 1.007-0.478 2.014-0.956 3.051-1.449 6.765-3.557 12.772-8.965 17.949-14.551 0.313-0.328 0.313-0.328 1.898-1.988 4.68-5.036 7.994-9.881 11.102-16.012 0.65-1.189 1.299-2.379 1.969-3.605 6.993-15.13 7.495-32.318 7.531-48.707 6e-3 -1.585 0.012-3.169 0.019-4.802-0.126-11.362-0.126-11.362-3.519-15.886-2.707-0.531-2.707-0.531-5.813-0.5-1.017-0.01-2.034-0.02-3.082-0.031-3.827 0.655-5.9 2.373-9.105 4.531z" fill="#000019"/>
<path transform="translate(2357.6 360.8)" d="m0 0c1.211-6e-3 2.422-0.011 3.67-0.017 2.56-0.01 5.12-0.016 7.681-0.02 3.86-0.01 7.719-0.041 11.579-0.072 13.497-0.06 26.234 0.336 39.453 3.312 1.256 0.277 2.512 0.553 3.806 0.839 3.498 0.81 6.97 1.689 10.444 2.599 1.156 0.286 2.312 0.573 3.504 0.869 5.852 1.515 10.343 3.036 15.246 6.693 2.816 1.125 2.816 1.125 5.562 2 4.227 1.464 7.074 3 10.438 6 1.217 0.743 2.434 1.485 3.687 2.25 15.201 9.328 25.853 22.237 34.313 37.75 0.722 1.299 1.444 2.599 2.187 3.938 2.002 4.486 3.423 8.971 4.793 13.683 0.992 3.286 2.148 6.472 3.332 9.692 1.66 4.915 2.017 8.559 0.688 13.687-2.893 2.893-4.983 2.261-9.033 2.275-1.485 9e-3 -2.97 0.019-4.5 0.029-1.615-1e-3 -3.23-2e-3 -4.893-3e-3 -1.667 4e-3 -3.333 8e-3 -5 0.013-3.498 7e-3 -6.996 7e-3 -10.494 2e-3 -4.479-6e-3 -8.958 0.011-13.437 0.034-3.444 0.015-6.889 0.016-10.333 0.013-2.453 0-4.907 0.014-7.36 0.028-0.747-3e-3 -0.747-3e-3 -4.53-0.019-0.657 1e-3 -0.657 1e-3 -3.985 2e-3 -3.695-0.402-5.564-1.039-8.435-3.374-1.64-4.226-2.834-8.376-4-12.75-5.084-10.803-13.075-18.608-24-23.25-1.101-0.519-2.202-1.039-3.336-1.574-16.353-6.363-42.875-6.011-59.164 0.324-1.155 0.743-2.31 1.485-3.5 2.25-0.745 0.422-1.49 0.843-2.258 1.277-7.327 4.365-11.389 9.726-14.117 17.786-1.319 8.308-0.842 15.538 3.375 22.937 5.042 6.176 10.416 9.784 17.75 12.75 0.907 0.379 1.815 0.759 2.75 1.149 7.872 3.145 15.747 4.852 24.074 6.277 3.658 0.681 6.833 1.529 10.301 2.824 5.511 2.003 11.051 2.961 16.812 3.938 8.372 1.421 16.356 3.368 24.473 5.906 3.597 1.083 7.167 1.937 10.84 2.719 4.495 0.989 8.387 2.376 12.547 4.402 4.225 1.783 8.681 2.794 13.121 3.91 3.616 1.221 6.208 2.957 9.332 5.125 2.422 1.055 2.422 1.055 4.75 1.875 17.312 6.702 35.323 21.553 43.312 38.5 0.308 0.753 0.616 1.506 0.934 2.281 1.394 3.255 3.12 6.315 4.855 9.399 3.928 10.073 3.49 20.887 3.464 31.523-3e-3 2.719 0.021 5.436 0.046 8.155 0.054 14.58-1.71 27.173-8.361 40.267-0.598 1.32-1.196 2.64-1.813 4-7.456 13.635-7.456 13.635-14.187 17l-2 4c-2.063 1.813-2.063 1.813-5 4-0.676 0.551-1.351 1.101-2.047 1.668-4.756 3.846-9.399 6.696-14.953 9.332l-4 3c-1.872 0.713-3.772 1.354-5.688 1.938-3.59 1.098-6.785 2.295-10.164 3.961-6.929 3.132-14.419 4.309-21.836 5.789-1.463 0.307-2.927 0.615-4.435 0.931-14.934 3.037-29.495 3.547-44.681 3.511-2.692-5e-3 -5.383 0-8.075 7e-3 -13.968 8e-3 -27.453-0.44-41.121-3.512-2.084-0.454-4.167-0.909-6.25-1.363-0.988-0.219-1.975-0.437-2.992-0.663-3.576-0.776-7.167-1.461-10.758-2.161-5.167-1.103-9.308-2.977-14-5.438-1.845-0.514-3.7-0.991-5.563-1.437-5.046-1.283-8.274-3.384-12.437-6.563-1.569-0.799-3.154-1.568-4.75-2.312-15.03-7.31-29.177-19.974-37.25-34.688v-2h-2c-0.979-1.818-1.936-3.65-2.805-5.523-1.195-2.477-1.195-2.477-2.578-4.766-6.269-10.865-8.172-23.545-10.617-35.711-0.303-1.334-0.606-2.668-0.918-4.043-0.082-2.957-0.082-2.957 1.452-5.109 3.379-2.532 5.633-2.355 9.833-2.365 0.754-7e-3 0.754-7e-3 4.571-0.039 1.629 8e-3 3.258 0.017 4.937 0.025 1.688-3e-3 3.377-7e-3 5.066-0.012 3.537-6e-3 7.074 3e-3 10.612 0.022 4.533 0.022 9.065 9e-3 13.598-0.015 3.486-0.014 6.973-0.01 10.459 1e-3 2.484 4e-3 4.968-8e-3 7.452-0.021 0.754 7e-3 0.754 7e-3 4.571 0.039 1.329 3e-3 2.658 6e-3 4.027 9e-3 3.858 0.587 5.047 1.41 7.34 4.508 0.617 2.629 0.617 2.629 0.875 5.563 0.926 6.772 3.528 11.7 7.125 17.437 0.639 1.073 1.279 2.145 1.937 3.25 3.934 5.245 8.293 9.545 14.063 12.75l3 3c12.142 6.723 23.075 9.514 37 10 0.86 0.03 1.721 0.061 2.608 0.092 6.141 0.185 12.252 0.124 18.392-0.092 1.499-0.045 2.998-0.09 4.543-0.137 12.24-0.862 22.525-5.065 31.386-13.726 6.641-7.839 8.419-13.278 8.383-23.574 0.016-0.929 0.033-1.858 0.049-2.815 4e-3 -5.378-0.387-9.098-3.361-13.748-0.524-0.822-1.047-1.645-1.586-2.492-9.506-12.66-22.652-17.157-37.414-21.508-0.495-0.153-0.495-0.153-2.996-0.93-5.382-1.589-10.785-2.575-16.317-3.507-6.459-1.091-12.552-2.621-18.808-4.528-5.708-1.523-11.504-2.517-17.333-3.464-4.347-0.755-8.165-1.712-12.179-3.571-4.176-1.912-7.959-3.013-12.43-4-5.84-1.388-10.626-3.167-15.937-6-2.054-0.693-4.117-1.357-6.188-2-4.448-1.427-7.268-2.922-10.812-6-1.651-0.864-3.32-1.694-5-2.5-3.766-1.821-6.817-3.759-10-6.5-0.99-0.639-1.98-1.279-3-1.937-3.117-2.143-5.416-4.298-8-7.063-0.705-0.735-1.41-1.469-2.137-2.226-4.967-5.304-8.615-10.278-11.863-16.774-0.649-1.173-1.297-2.346-1.965-3.555-8.555-18.685-8.379-39.123-4.41-58.82 0.117-0.595 0.117-0.595 0.712-3.604 1.692-7.705 4.302-13.493 8.663-20.021 0.669-1.23 1.338-2.459 2.027-3.726 10.43-17.308 28.858-29.365 46.973-37.274 0.874-0.483 1.748-0.967 2.648-1.465 4.335-1.985 8.785-2.999 13.414-4.035 0.932-0.214 1.863-0.428 2.823-0.649 1.856-0.427 3.713-0.85 5.57-1.271 4.228-0.964 8.441-1.99 12.658-3.002 7.838-1.569 15.544-1.752 23.504-1.781z" fill="#000019"/>
<path transform="translate(1847.9 366.69)" d="m0 0c0.787-8e-3 0.787-8e-3 4.768-0.049 1.508 0 3.017-1e-3 4.572-2e-3 1.364-3e-3 2.727-6e-3 4.132-9e-3 3.743 0.388 5.635 1.096 8.59 3.372 1.404 2.808 1.151 5.158 1.178 8.299 6e-3 0.662 6e-3 0.662 0.038 4.015 8e-3 1.44 0.015 2.879 0.023 4.362 8e-3 1.473 0.016 2.945 0.024 4.462 0.014 3.122 0.025 6.243 0.033 9.364 0.017 4.781 0.061 9.56 0.105 14.34 0.01 3.028 0.019 6.056 0.025 9.084 0.018 1.434 0.035 2.867 0.053 4.344-1e-3 0.667-1e-3 0.667-9e-3 4.044 6e-3 1.173 0.012 2.346 0.018 3.555-0.593 3.807-1.698 5.503-4.488 8.131-3.624-0.187-3.624-0.187-6.046-0.578-12.075-1.725-23.273-0.294-35.078 2.266-1.15 0.244-2.3 0.487-3.484 0.739-6.78 1.571-11.688 3.603-17.392 7.573-1.59 0.78-3.192 1.536-4.812 2.25-15.278 7.451-28.538 22.657-35.062 38.211-1.126 2.54-1.126 2.54-3.025 6.003-9.352 20.202-7.749 44.199-7.509 65.89 0.044 4.48 0.055 8.96 0.069 13.44 0.034 9.401 0.099 18.802 0.171 28.203 0.109 14.214 0.192 28.429 0.247 42.644 0.022 5.312 0.06 10.624 0.111 15.936 0.035 4.064 0.052 8.128 0.072 12.192 9e-3 0.731 9e-3 0.731 0.056 4.43 3e-3 1.342 6e-3 2.684 0.01 4.067 9e-3 1.163 0.018 2.325 0.028 3.523-0.406 3.666-1.448 6.072-3.356 9.211-3.008 1.505-5.785 1.153-9.14 1.178-1.508 0.012-3.017 0.025-4.571 0.038-0.82 4e-3 -0.82 4e-3 -4.968 0.023-0.416 2e-3 -0.416 2e-3 -2.52 0.012-4.401 0.021-8.802 0.035-13.202 0.045-4.549 0.011-9.097 0.045-13.646 0.085-3.495 0.026-6.99 0.034-10.485 0.038-2.493 7e-3 -4.986 0.034-7.478 0.06-0.758-1e-3 -0.758-1e-3 -4.591-9e-3 -0.667 3e-3 -0.667 3e-3 -4.046 0.018-3.876-0.564-5.011-1.421-7.353-4.488-1.281-2.563-1.128-4.376-1.134-7.248-4e-3 -1.119-9e-3 -2.239-0.013-3.393v-3.758c-3e-3 -1.31-7e-3 -2.62-0.011-3.969-0.011-4.421-0.015-8.841-0.019-13.262-6e-3 -3.156-0.012-6.313-0.019-9.469-0.02-9.494-0.03-18.988-0.039-28.483-5e-3 -4.467-0.01-8.934-0.015-13.402-0.017-14.844-0.032-29.688-0.039-44.532-2e-3 -3.854-4e-3 -7.707-6e-3 -11.561 0-0.957-1e-3 -1.915-1e-3 -2.902-8e-3 -15.527-0.034-31.053-0.066-46.58-0.033-15.928-0.051-31.857-0.055-47.786-2e-3 -8.948-0.01-17.897-0.036-26.845-0.024-8.413-0.028-16.826-0.017-25.239 0-3.094-6e-3 -6.189-0.02-9.283-0.017-4.211-0.01-8.422 3e-3 -12.634-0.011-1.236-0.022-2.471-0.033-3.745 8e-3 -1.125 0.017-2.25 0.026-3.409-1e-3 -0.972-2e-3 -1.945-3e-3 -2.947 0.647-3.318 1.852-4.506 4.497-6.553 3.416-0.514 3.416-0.514 7.551-0.533 1.549-0.016 3.097-0.032 4.692-0.048 1.69 4e-3 3.38 9e-3 5.07 0.015 1.733-5e-3 3.467-0.011 5.2-0.019 3.632-0.01 7.263-6e-3 10.895 9e-3 4.654 0.017 9.307-6e-3 13.961-0.041 3.58-0.022 7.158-0.021 10.738-0.013 1.716 1e-3 3.432-6e-3 5.148-0.02 2.398-0.018 4.796 0 7.195 0.019 1.364 1e-3 2.729 2e-3 4.135 3e-3 3.415 0.628 3.415 0.628 5.865 2.874 2.376 4.221 1.931 8.392 1.722 13.087-0.027 0.991-0.055 1.983-0.084 3.005-0.093 3.159-0.215 6.317-0.338 9.475-0.068 2.145-0.134 4.29-0.199 6.436-0.162 5.251-0.349 10.501-0.551 15.751 7.594 0.368 7.594 0.368 11.25-2.937 2.371-3.502 3.971-6.775 5.563-10.668 2.312-4.663 5.826-8.459 9.187-12.395 1.032-1.278 2.063-2.557 3.126-3.874 2.775-3.017 5.32-5.106 8.874-7.126h2c0.33-0.99 0.661-1.98 1-3 17.373-10.865 32.794-13.354 52.938-13.312z" fill="#000019"/>
<path transform="translate(2442,797)" d="m0 0c1.182 0.329 2.364 0.657 3.582 0.996 11.723 3.489 21.967 9.059 30.418 18.004 0.79 0.819 1.58 1.637 2.395 2.48 14.337 16.052 17.972 34.11 17.503 55.059-1.416 17.751-10.52 31.967-23.46 43.773-1.471 1.24-2.949 2.47-4.438 3.688-1.238 1.052-2.475 2.104-3.75 3.188-5.18 3.817-11.213 5.745-17.25 7.812-0.936 0.356-1.872 0.712-2.836 1.078-19.435 5.663-41.173 2.172-59.164-6.078-1.692-0.957-3.361-1.955-5-3-0.802-0.509-1.604-1.018-2.43-1.543-7.518-5.056-13.016-10.536-17.57-18.457-1.513-1.964-3.027-3.928-4.543-5.891-1.457-2.109-1.457-2.109-3.207-6.171-3.006-5.261-6.64-8.589-12.25-10.938-11.297-1.348-22.641-1.141-33.999-1.131-2.244-2e-3 -4.488-4e-3 -6.732-7e-3 -4.865-4e-3 -9.731-6e-3 -14.597-5e-3 -7.917 2e-3 -15.834-3e-3 -23.751-9e-3 -11.491-8e-3 -22.983-0.013-34.474-0.017-18.153-5e-3 -36.306-0.022-54.458-0.041-6.211-6e-3 -12.423-0.013-18.634-0.019-0.776-1e-3 -0.776-1e-3 -4.703-5e-3 -17.653-0.018-35.306-0.034-52.96-0.049-1.613-1e-3 -3.227-3e-3 -4.889-4e-3 -26.186-0.022-52.373-0.033-78.56-0.04-26.877-8e-3 -53.755-0.032-80.633-0.068-16.585-0.022-33.171-0.032-49.756-0.026-11.351 3e-3 -22.701-8e-3 -34.052-0.031-6.556-0.012-13.112-0.018-19.668-7e-3 -5.994 0.01-11.987 2e-3 -17.98-0.021-2.176-5e-3 -4.352-3e-3 -6.528 6e-3 -2.942 0.011-5.884-2e-3 -8.826-0.021-1.639-1e-3 -3.277-2e-3 -4.966-3e-3 -1.265-0.166-2.53-0.331-3.834-0.502-3.544-4.725-3.405-6.53-3.375-12.312-8e-3 -1.461-0.015-2.922-0.023-4.426 0.415-4.44 1.126-7.427 3.398-11.262 4.527-1.513 9.399-1.128 14.123-1.102 0.925 1e-3 1.851 2e-3 2.804 4e-3 3.119 5e-3 6.237 0.017 9.355 0.029 2.252 5e-3 4.503 0.01 6.755 0.014 6.2 0.013 12.401 0.033 18.601 0.053 6.682 0.021 13.364 0.035 20.046 0.051 11.582 0.027 23.165 0.058 34.748 0.092 16.754 0.047 33.508 0.088 50.263 0.126 27.191 0.062 54.383 0.126 81.574 0.195 0.814 2e-3 0.814 2e-3 4.934 0.012 23.112 0.058 46.223 0.119 69.335 0.181 1.628 5e-3 3.255 9e-3 4.932 0.014 1.626 4e-3 3.251 8e-3 4.926 0.013 27.086 0.073 54.171 0.138 81.257 0.196 16.716 0.037 33.432 0.08 50.148 0.132 11.451 0.034 22.901 0.062 34.351 0.084 6.611 0.012 13.223 0.029 19.834 0.054 6.048 0.022 12.097 0.036 18.146 0.042 2.191 4e-3 4.383 0.011 6.575 0.022 2.973 0.015 5.946 0.017 8.919 0.016 0.856 7e-3 1.712 0.014 2.594 0.021 6.299-0.022 11.437-0.814 16.842-4.124 3.474-3.696 5.223-7.426 7.368-11.984 3.444-6.89 7.923-12.908 13.57-18.141 0.538-0.592 1.075-1.183 1.629-1.793 17.8-19.212 47.687-26.014 72.371-18.207z" fill="#000019"/>
<path transform="translate(847.78 855.85)" d="m0 0c2.921-0.037 5.842-0.073 8.763-0.11 1.37-0.033 2.739-0.066 4.15-0.099 0.637-7e-3 0.637-7e-3 3.861-0.037 0.562-0.01 0.562-0.01 3.409-0.061 3.745 0.564 5.374 1.808 8.033 4.457 1.364 3.836 1.069 5.76-0.062 9.687-2.372 4.056-3.533 4.745-7.938 6.313-3.773 0.236-7.489-0.029-11.257-0.281-2.358-0.124-4.717-0.244-7.076-0.36-0.625-0.031-0.625-0.031-3.788-0.191-6.619-0.287-13.24-0.368-19.864-0.449-1.412-0.019-2.824-0.037-4.279-0.056-4.542-0.057-9.084-0.11-13.626-0.163l-9.927-0.123c-6.963-0.086-13.926-0.17-20.888-0.252-6.88-0.081-13.759-0.164-20.638-0.25-100.11-1.25-200.22-2.014-300.33-2.388-17.394-0.065-34.787-0.132-52.18-0.206-1.129-5e-3 -2.258-9e-3 -3.422-0.014-35.031-0.149-70.06-0.407-105.09-0.767-1.032-0.011-2.065-0.021-3.128-0.032-109.24-1.119-109.24-1.119-121.5-3.468 8.79-8.79 163.39-6.596 185.9-6.938 4.058-0.061 8.117-0.124 12.175-0.187 106.34-1.644 212.7-2.314 319.05-2.983l8.061-0.051c24.069-0.152 48.138-0.3 72.207-0.445 4.76-0.029 9.52-0.058 14.281-0.087 7.472-0.045 14.944-0.089 22.416-0.133 2.699-0.016 5.399-0.032 8.098-0.048 1.254-8e-3 2.508-0.016 3.8-0.023 1.232-8e-3 2.463-0.015 3.732-0.023 3.606-0.019 7.212-0.03 10.818-0.04 5.416-0.019 10.829-0.096 16.245-0.192z" fill="#000019"/>
<path transform="translate(1137,819)" d="m0 0c3.088 2.745 5.567 5.671 8 9 0.423 0.526 0.423 0.526 2.562 3.188 1.438 2.812 1.438 2.812 1.313 6.124-0.289 0.887-0.578 1.774-0.875 2.688-4.531 2.266-10.244 2.241-15.188 1.562-3.41-1.894-5.375-4.488-7.847-7.453-5.015-5.384-10.577-8.442-17.965-8.859-7.222 0.355-12.944 3.694-18 8.75-0.465 4.029-0.334 6.369 1.578 9.977 6.449 8.051 17.724 11.123 27.484 13.023 12.244 2.419 22.621 7.24 30.618 17.02 2.892 4.337 2.553 8.649 2.632 13.73 0.019 0.781 0.019 0.781 0.114 4.734-0.733 7.772-5.065 13.052-10.426 18.516-4 2.25-4 2.25-8 4-1.011 0.557-2.021 1.114-3.062 1.688-10.317 4.609-26.271 3.739-36.938 0.312-10.455-4.136-17.872-8.493-24-18-0.99-1.32-1.98-2.64-3-4-1.614-6.884-1.614-6.884 0.375-10.5 5.01-2.863 9.971-1.914 15.375-0.562 3.75 2.379 4.818 4.782 6.727 8.703 3.107 4.813 8.466 7.831 13.523 10.359 16.091 1.38 16.091 1.38 22.438-2.75 3.797-3.465 5.398-5.482 5.874-10.625-0.427-4.954-1.792-8.31-5.597-11.602-7.596-4.508-14.832-6.469-23.516-8.003-4.353-1.057-7.392-2.709-11.199-5.02-1.444-0.392-2.888-0.784-4.375-1.188-6.928-2.715-11.562-6.995-15.113-13.566-3.344-8.261-2.417-14.201 0.676-22.434 4.114-9.21 10.405-11.762 19.374-15.578 15.742-5.652 32.642-1.906 46.438 6.766z" fill="#000019"/>
<path transform="translate(972.75 811.46)" d="m0 0c0.674 4e-3 0.674 4e-3 4.085 0.023 1.449 0.035 2.898 0.07 4.391 0.106 1.493 0.02 2.986 0.04 4.524 0.06 3.155 0.048 6.309 0.109 9.464 0.181 4.837 0.106 9.673 0.165 14.51 0.218 3.064 0.053 6.127 0.108 9.19 0.166 1.451 0.017 2.902 0.034 4.397 0.051 1.345 0.036 2.69 0.072 4.076 0.109 0.592 0.012 0.592 0.012 3.588 0.073 3.633 0.663 4.847 1.613 7.029 4.552 0.5 3.5 0.5 3.5 0 7-1.867 2.365-3.321 3.661-6 5-3.295 0.051-6.57 0.043-9.864-8e-3 -2.021-0.017-4.043-0.034-6.064-0.05-3.193-0.031-6.386-0.067-9.579-0.113-3.077-0.042-6.154-0.066-9.232-0.087-0.952-0.018-1.904-0.037-2.885-0.056-4.913-0.019-8.568 1e-3 -12.376 3.314-2.085 6.254-1.681 13.018 0.437 19.188 1.563 2.812 1.563 2.812 2.563 3.812 2.981 0.124 5.943 0.186 8.925 0.211 1.847 0.028 3.694 0.057 5.541 0.086 2.924 0.041 5.846 0.078 8.77 0.105 2.813 0.027 5.626 0.073 8.439 0.122 0.437 1e-3 0.437 1e-3 2.646 0.01 4.967 0.1 6.551 0.37 10.679 3.466 1.193 3.659 1.326 5.3-0.313 8.813-1.687 2.187-1.687 2.187-3.687 3.187-2.777 0.063-5.555 0.06-8.332 0.028-1.703-0.013-3.405-0.025-5.108-0.037-2.686-0.025-5.372-0.053-8.058-0.087-2.59-0.03-5.181-0.048-7.772-0.064-1.553-0.017-3.106-0.034-4.706-0.051-3.61 0.19-5.89 0.482-9.024 2.211-2.49 4.092-2.3 8.307-2.313 13-0.017 1.382-0.033 2.764-0.051 4.188 0.373 3.911 0.965 5.756 3.364 8.812 4.291 2.861 8.42 2.15 13.398 2.02 2.109-0.03 4.219-0.06 6.328-0.088 3.327-0.056 6.654-0.119 9.981-0.199 3.209-0.073 6.418-0.114 9.629-0.151 0.992-0.032 1.985-0.064 3.008-0.097 4.53-0.033 7.103 0.102 10.787 2.854 1.869 2.661 1.869 2.661 2.431 5.661-0.709 3.781-1.821 5.311-4.562 8-3.157 0.628-3.157 0.628-6.924 0.631-1.412 0.013-2.823 0.025-4.278 0.038-0.761-6e-3 -0.761-6e-3 -4.615-0.04-1.563 3e-3 -3.126 5e-3 -4.737 8e-3 -3.306-1e-3 -6.611-0.012-9.918-0.04-4.239-0.034-8.478-0.028-12.717-9e-3 -4.043 0.013-8.085-5e-3 -12.128-0.021-1.525 5e-3 -3.05 0.01-4.621 0.015-1.408-0.016-2.817-0.032-4.268-0.048-0.621-3e-3 -0.621-3e-3 -3.765-0.019-3.029-0.515-3.029-0.515-6.029-4.515-0.302-3.128-0.431-6.058-0.42-9.187-9e-3 -0.929-0.017-1.858-0.026-2.815-0.023-3.071-0.024-6.141-0.023-9.213-7e-3 -2.134-0.015-4.269-0.023-6.403-0.014-4.475-0.015-8.95-9e-3 -13.424 6e-3 -5.735-0.025-11.469-0.065-17.204-0.026-4.408-0.029-8.817-0.026-13.226-1e-3 -2.114-0.011-4.228-0.029-6.342-0.022-2.957-0.012-5.912 5e-3 -8.869-0.013-0.873-0.026-1.747-0.04-2.647 0.056-4.05 0.441-6.361 2.772-9.718 3.518-2.381 5.406-2.551 9.63-2.491z" fill="#000019"/>
<path transform="translate(1497.1 821.31)" d="m0 0c4.77 4.098 7.191 8.419 7.938 14.688 0.421 6.317-0.556 11.15-3 17-4 3-4 3-6 3-0.614 8.219-0.614 8.219 2.062 11.624 0.969 0.784 1.939 1.568 2.938 2.376 6.361 5.813 9.631 10.277 10.312 19-0.681 8.721-2.717 15.11-9.312 21-14.569 9.012-30.462 11.469-47.309 7.878-9.041-2.952-16.231-8.163-21.691-15.878-3.256-8.916-2.931-18.356 1-27 2.374-2.313 2.374-2.313 5-4 1.685-1.648 3.356-3.311 5-5 0.164-0.165 0.164-0.165 1-1 0.562-3.063 0.562-3.063 0-7-1.861-2.243-3.852-4.105-6.055-6.008-3.492-3.576-3.921-6.761-4.445-11.68 0.188-7.899 4.683-13.832 10.124-19.25 13.087-10.41 39.198-9.326 52.438 0.25zm-42.062 10.688c-2.931 4.604-3.838 8.602-3 14 2.445 5.538 4.847 8.456 10.374 11.062 7.406 1.501 12.96 1.816 19.626-2.062 3.65-2.985 6.546-5.851 7.542-10.571 0.154-4.892-0.213-8.788-3.542-12.429-11.114-7.641-20.097-8.292-31 0zm-2.5 44.5c-3.283 4.505-4.838 8.069-4.422 13.679 1.894 5.796 6.234 10.077 10.922 13.821 7.113 3.047 14.087 3.055 21.312 0.437 4.887-3.231 8.802-6.782 10.688-12.437 0.745-5.84 0.856-10.602-2.688-15.5-4.573-4.832-8.069-7.158-14.828-7.704-8.781-0.15-14.873 0.96-20.984 7.704z" fill="#000019"/>
<path transform="translate(1603.7 820.19)" d="m0 0c0.763 0.928 1.526 1.856 2.312 2.812 2.385 1.97 4.786 3.916 7.208 5.84 1.792 2.16 1.792 2.16 2.179 5.289-0.387 2.871-0.387 2.871-2.387 4.871-5.705 0.341-10.703 0.241-16-2-1.687-1.982-3.353-3.983-5-6-4.8-2.667-8.538-3.659-14-3-8.261 2.56-12.179 6.941-17 14-1.311 2.624-1.132 4.637-1.124 7.563-3e-3 0.991-6e-3 1.983-8e-3 3.004 0.132 2.433 0.132 2.433 1.132 3.433 6.486 0.795 9.711-1.444 15-5 10.661-2.665 19.739-0.54 29.25 4.813 8.581 5.464 12.011 12.571 14.75 22.187 1.793 10.267-1.964 20.447-7.624 28.938-10.406 9.442-20.02 12.513-34.016 12.242-10.084-0.539-17.487-4.083-25.11-10.492-12.964-15.485-13.906-34.201-12.25-53.688 1.532-12.208 4.717-22.431 14-31 0.737-0.706 1.473-1.412 2.231-2.14 10.836-9.436 34.954-11.035 46.457-1.672zm-41.688 53.812c-3.099 5.399-3.529 9.82-3 16 3.146 6.071 7.814 12.269 13.876 15.563 7.493 1.049 14.172 1.31 20.511-3.297 7.86-6.886 7.86-6.886 8.613-12.266 0.594-11.717 0.594-11.717-2-17-6.487-6.185-11.161-10.405-20.339-10.273-7.741 0.796-12.822 5.676-17.661 11.273z" fill="#000019"/>
<path transform="translate(1185.9 811.85)" d="m0 0c0.714-3e-3 0.714-3e-3 4.328-0.019 1.547-1e-3 3.094-3e-3 4.688-4e-3 1.584-3e-3 3.169-6e-3 4.801-0.01 3.355-5e-3 6.71-8e-3 10.065-7e-3 4.298 0 8.597-0.014 12.896-0.031 4.1-0.014 8.2-0.013 12.3-0.014 1.545-7e-3 3.09-0.015 4.682-0.022 1.431 3e-3 2.863 6e-3 4.338 9e-3 0.63 0 0.63 0 3.821-4e-3 3.195 0.247 3.195 0.247 7.195 2.247 2.027 4.055 2.537 5.615 2 10-1.372 2.68-1.372 2.68-4 5-3.642 0.317-6.824 0.382-10.438 0.188-11.593-0.484-11.593-0.484-15.562 1.812-2 2-2 2-2.245 5.244 1e-3 0.701 1e-3 0.701 5e-3 4.248-4e-3 1.585-7e-3 3.17-0.011 4.804 2e-3 0.851 4e-3 1.702 7e-3 2.579 5e-3 2.66-4e-3 5.32-0.018 7.981-0.037 7.566-0.055 15.131-0.044 22.697 6e-3 4.626-0.012 9.251-0.046 13.876-8e-3 1.763-6e-3 3.525 4e-3 5.288 0.015 2.468-4e-3 4.936-0.025 7.404 0 1.404-1e-3 2.808-2e-3 4.254-0.767 4.444-2.076 5.924-5.625 8.625-3.947 0.564-6.2 0.374-9.813-1.312-2.187-1.688-2.187-1.688-4.187-4.688-0.234-3.257-0.234-3.257-0.212-7.345 4e-3 -1.529 7e-3 -3.057 0.011-4.632 0.013-1.673 0.027-3.346 0.04-5.019 7e-3 -1.712 0.012-3.425 0.016-5.137 0.013-4.512 0.038-9.023 0.065-13.534 0.044-7.217 0.073-14.435 0.097-21.652 0.01-2.522 0.027-5.043 0.045-7.565 6e-3 -1.531 0.013-3.063 0.019-4.641 4e-3 -0.675 4e-3 -0.675 0.025-4.091-0.106-3.384-0.106-3.384-1.106-7.384-3.43-1.907-6.254-2.215-10.125-2.054-0.477 0.012-0.477 0.012-2.891 0.074-1.99 0.07-3.98 0.148-5.969 0.234-7.283 0.167-7.283 0.167-11.133-2.047-2.653-3.11-3.025-5.143-2.882-9.207 4.424-5.653 8.001-6.124 14.886-6.145z" fill="#000019"/>
<path transform="translate(2480.3 242.38)" d="m0 0c0.608 0.433 0.608 0.433 3.688 2.625 0.357 0.233 0.357 0.233 2.164 1.414 11.792 8.226 18.093 20.718 20.836 34.586 1.87 17.306-2.703 30.515-13.282 43.895-7.595 9.304-20.562 17.807-32.718 19.105-18.547 0.74-31.811-2.04-46.313-14.125-11.617-11.234-17.206-24.542-17.836-40.676 0.671-15.879 6.478-29.274 18.149-40.136 19.408-16.297 43.045-18.951 65.312-6.688zm-64.312 17.625c-8.033 11.481-11.013 22.678-9.637 36.703 2.23 12.426 8.753 22.458 18.637 30.297 12.786 7.678 24.942 10.036 39.796 7.301 12.111-3.686 22.187-11.949 28.454-22.926 5.669-11.982 6.119-24.644 2.75-37.375-4.678-11.192-12.798-21.498-23.84-26.867-21.698-8.78-40.029-4.334-56.16 12.867z" fill="#000019"/>
<path transform="translate(1707.1 815.93)" d="m0 0c4.053 0.09 6.524 0.877 9.943 3.065 1.5 3.438 1.5 3.438 1 8-3.825 6.447-8.722 11.731-14 17-1.382 1.967-2.715 3.969-4 6-0.66 0.928-1.32 1.856-2 2.813-1.625 2.589-2.851 4.966-4.063 7.75-1.937 4.437-1.937 4.437-3.449 6.834-1.647 2.881-2.433 5.475-3.242 8.689-0.296 1.172-0.592 2.343-0.897 3.551-0.301 1.233-0.602 2.467-0.912 3.738-0.314 1.258-0.627 2.515-0.951 3.811-1.871 7.685-3.335 15.122-3.807 23.029-0.925 3.791-2.683 5.364-5.679 7.785-3.915 0.559-6.203 0.355-9.813-1.25-2.187-1.75-2.187-1.75-4.187-5.75 0.375-2.525 0.777-5.049 1.308-7.547 0.512-2.557 0.927-5.135 1.289-7.718 1.231-8.695 2.926-16.02 6.934-23.848 1.352-2.658 2.398-5.272 3.406-8.074 3.283-8.392 9.194-15.106 15.063-21.813 1.601-3.203 1.056-6.478 1-10-3.935-1.311-7.277-1.039-11.43-0.957-1.699 0.023-3.398 0.044-5.098 0.065-2.675 0.037-5.35 0.08-8.025 0.139-2.584 0.055-5.167 0.084-7.752 0.109-0.773 0.013-0.773 0.013-4.687 0.082-4.396-0.48-6.001-1.271-9.008-4.438-1.063-2.437-1.063-2.437-1-5 1.229-2.616 1.229-2.616 4-5 4.117-0.789 8.212-0.721 12.394-0.707 1.221-0.015 2.442-0.03 3.699-0.046 3.907-0.043 7.812-0.051 11.719-0.059 2.621-0.023 5.241-0.049 7.861-0.076 5.857-0.057 11.713-0.096 17.57-0.103 2.271-7e-3 4.543-0.038 6.814-0.074z" fill="#000019"/>
<path transform="translate(1394,817)" d="m0 0c4.032 4.032 3.385 6.069 3.404 11.707 7e-3 0.889 0.014 1.779 0.021 2.696 0.018 2.946 0.014 5.892 9e-3 8.839 4e-3 2.047 9e-3 4.093 0.015 6.139 9e-3 4.293 7e-3 8.585-3e-3 12.877-0.011 5.501 9e-3 11.001 0.038 16.501 0.018 4.228 0.018 8.455 0.012 12.683 0 2.027 6e-3 4.055 0.019 6.083 0.014 2.837 4e-3 5.673-0.013 8.51 0 1.614-1e-3 3.228-1e-3 4.891-0.541 4.398-1.31 6.073-4.501 9.074-4.537 1.601-8.69 1.588-13.062-0.375-4.6-6.232-3.056-16.717-3-24.176 3e-3 -1.176 7e-3 -2.353 0.011-3.565 0.012-3.732 0.031-7.464 0.051-11.196 0.027-4.934 0.047-9.868 0.062-14.801 9e-3 -1.133 0.017-2.265 0.026-3.432 3e-3 -1.051 6e-3 -2.103 0.01-3.187 5e-3 -0.923 0.01-1.846 0.016-2.797-0.114-2.471-0.114-2.471-1.114-6.471-1.265 0.095-2.529 0.191-3.832 0.289-1.644 0.111-3.287 0.222-4.98 0.336-1.636 0.116-3.272 0.232-4.958 0.352-4.23 0.023-4.23 0.023-7.23-1.977-1.168-3.088-1.181-4.526 0-7.625 3.594-4.267 8.465-5.218 13.688-6.75 4.574-1.724 5.76-2.615 8.312-6.625 4.36-6.596 4.36-6.596 7.375-8.5 3.5-0.667 6.17-0.332 9.625 0.5z" fill="#000019"/>
<path transform="translate(2450.6 261.85)" d="m0 0c8.292-0.326 14.813 0.775 20.98 6.402 2.59 3.985 3.607 6.019 3.438 10.75-2.813 5.813-2.813 5.813-5 8-0.496 7.344 0.156 10.633 4 17 0.485 4.773 0.176 6.648-2 11-3 0.875-3 0.875-6 1-3.389-3.389-4.144-8.217-5.586-12.714-1.414-3.286-1.414-3.286-5.414-6.286-4.563-0.5-4.563-0.5-9 0-2.81 3.523-3.499 6.783-4.063 11.188-0.725 5.6-0.725 5.6-2.937 7.812-2.438-0.062-2.438-0.062-5-1-3.64-4.39-3.483-9.053-3.504-14.5-5e-3 -0.456-5e-3 -0.456-0.03-2.767-0.015-1.927-0.022-3.853-0.022-5.78-7e-3 -2.944-0.061-5.884-0.118-8.828-9e-3 -1.875-0.015-3.75-0.017-5.625-0.022-0.877-0.044-1.754-0.066-2.658 0.052-4.616 0.418-6.482 3.635-9.891 3.118-1.948 4.756-2.617 8.372-2.763 0.953-0.043 1.905-0.085 2.887-0.129 1.816-0.037 3.632-0.104 5.445-0.211zm-6.707 10.652c-1.875 2.5-1.875 2.5-2.5 6.438 0.625 4.062 0.625 4.062 2.5 7.062 4.412 2.824 8.026 2.861 13.125 2 3.125-1.375 3.125-1.375 5-4 0.726-3.697 0.489-6.134 0-10-2.304-2.611-3.998-2.873-7.383-3.3-4.154-0.217-6.959-0.016-10.742 1.8z" fill="#000019"/>
<path transform="translate(1284,899)" d="m0 0c3.963 3.963 3.777 6.497 4 12-1.011 3.96-1.535 4.69-5 7-3.705 0.483-5.526 0.263-8.812-1.562-2.897-3.228-3.188-5.123-3.188-9.438 1.188-3.812 1.188-3.812 3-7 4.364-2.182 5.466-2.254 10-1z" fill="#000019"/>
</svg>
