<?xml version="1.0" encoding="UTF-8"?>
<svg version="1.1" viewBox="0 0 2904 1352" xmlns="http://www.w3.org/2000/svg">
<path transform="translate(1118,642)" d="m0 0c1 1 1 1 1.098 4.462-6e-3 0.763-6e-3 0.763-0.036 4.624-1e-3 0.406-1e-3 0.406-0.011 2.463-0.016 3.49-0.044 6.981-0.072 10.472-0.018 2.542-0.03 5.085-0.041 7.627-6e-3 0.764-6e-3 0.764-0.036 4.631 0.098 3.721 0.098 3.721 1.098 6.721 4.062 0.688 4.062 0.688 8 1 0.186-0.67 0.186-0.67 1.125-4.062 3.133-9.475 11.984-16.047 18.875-22.938 0.969-0.474 1.939-0.949 2.938-1.438 3.062-1.562 3.062-1.562 4.914-3.57 3.125-2.898 6.306-3.175 10.394-3.988 2.754-1.004 2.754-1.004 4.996-3.496 3.777-3.435 7.558-3.673 12.446-4.196 1.802-0.227 3.604-0.456 5.406-0.687 1.619-0.206 3.238-0.413 4.906-0.625 1.901-0.369 3.799-0.757 5.688-1.188 7.835-1.476 13.966-0.8 21.468 1.465 2.946 0.749 5.69 1.032 8.719 1.223 6.064 0.432 8.831 2.206 13.125 6.5 0.66 0.237 0.66 0.237 4 1.438 4 1.562 4 1.562 7 5.562 0.289 0.701 0.289 0.701 1.75 4.25 0.743 1.237 1.485 2.475 2.25 3.75 3.75 0.5 3.75 0.5 7 0 0.049-0.892 0.098-1.784 0.148-2.703 0.075-1.171 0.15-2.341 0.227-3.547 0.07-1.16 0.139-2.32 0.211-3.516 0.414-3.234 0.414-3.234 2.414-7.234 4.635-1.784 8.854-2.258 13.79-2.291 1.308-0.012 2.616-0.025 3.963-0.038 0.698-1e-3 0.698-1e-3 4.227-7e-3 1.446-7e-3 2.892-0.013 4.381-0.02 3.048-0.01 6.097-0.015 9.146-0.015 4.674-4e-3 9.348-0.04 14.022-0.078 2.963-6e-3 5.926-0.01 8.889-0.012 1.401-0.014 2.802-0.029 4.246-0.043 1.298 6e-3 2.597 0.012 3.934 0.018 1.143-3e-3 2.285-6e-3 3.462-8e-3 2.94 0.494 2.94 0.494 5.215 2.024 3.867 5.537 3.976 12.178 3.986 18.732 7e-3 1.629 0.014 3.259 0.021 4.939-2e-3 1.788-5e-3 3.577-7e-3 5.366 4e-3 1.898 9e-3 3.796 0.015 5.694 0.014 5.146 0.014 10.291 0.012 15.437-1e-3 4.31 3e-3 8.621 8e-3 12.931 0.011 10.187 0.012 20.374 6e-3 30.561-6e-3 10.462 6e-3 20.924 0.027 31.386 0.018 9.014 0.024 18.029 0.021 27.043-2e-3 5.369 0 10.738 0.014 16.107 0.013 5.063 0.011 10.127-2e-3 15.19-2e-3 1.841 0 3.682 9e-3 5.523 0.048 11.51-0.839 22.523-2.662 33.88-0.662 4.288-1.14 8.549-1.535 12.869-0.878 6.798-3.327 11.262-7.188 16.812-0.237 0.516-0.237 0.516-1.438 3.125-1.865 3.432-4.187 6.051-6.808 8.93-1.468 1.628-2.843 3.341-4.192 5.07-3.197 3.587-6.671 6.051-10.562 8.875l-3 3c-2.667 1.333-5.333 2.667-8 4-0.752 0.673-1.503 1.346-2.277 2.039-3.462 2.493-6.204 2.81-10.411 3.399-6.053 0.994-10.516 2.436-15.813 5.42-7.934 3.626-19.021 2.302-27.601 2.31-1.317 3e-3 -2.634 7e-3 -3.991 0.01-2.768 5e-3 -5.536 7e-3 -8.304 7e-3 -4.222 2e-3 -8.444 0.021-12.665 0.04-2.701 3e-3 -5.402 5e-3 -8.102 5e-3 -1.253 8e-3 -2.507 0.015-3.798 0.022-8.069-0.021-15.404-0.137-22.542-4.291-4.207-2.36-7.659-2.776-12.434-3.336-7.681-1.138-11.349-2.547-17.062-7.625-2.663-1.009-5.33-2.009-8-3-2.049-1.607-4.054-3.27-6-5-0.433-0.237-0.433-0.237-2.625-1.438-3.062-2.014-4.401-4.505-6.375-7.562l-4-3c-1.125-2.34-1.125-2.34-2-4.938-1.771-4.854-1.771-4.854-4.125-7-2.797-3.076-2.717-6.478-3.305-10.507-0.712-3.193-2.14-4.449-4.57-6.555v-5c3.135-1.568 6.188-1.145 9.675-1.161 1.625-0.01 3.251-0.019 4.926-0.029 1.785-5e-3 3.571-9e-3 5.356-0.013 1.824-6e-3 3.647-0.012 5.471-0.017 3.827-0.011 7.655-0.017 11.482-0.02 4.903-6e-3 9.806-0.03 14.709-0.058 3.768-0.019 7.537-0.024 11.306-0.026 1.807-3e-3 3.614-0.011 5.421-0.024 2.53-0.017 5.061-0.013 7.591-8e-3 0.72-2e-3 0.72-2e-3 4.362-0.011 3.819 0.379 5.698 1.036 8.701 3.367 1.449 2.27 1.449 2.27 2.688 4.812 2.808 4.999 5.802 7.238 10.847 9.836 2.465 1.352 2.465 1.352 4.77 3.493 3.689 2.545 6.319 2.324 10.757 2.234 1.394-0.013 2.787-0.026 4.223-0.039 4.594-0.415 6.957-1.578 10.215-4.836 2.5-2.5 2.5-2.5 6.5-4.5 1.344-2.172 1.344-2.172 2.5-4.75 1.434-3.085 2.775-5.64 4.75-8.438 4.701-7.554 3.139-19.013 3.375-27.624 0.052-1.621 0.103-3.242 0.156-4.913 0.022-0.77 0.022-0.77 0.133-4.67 0.041-1.411 0.082-2.822 0.124-4.276-0.038-3.329-0.038-3.329-1.038-5.329-3.25-0.625-3.25-0.625-7 0-2.688 3.75-2.688 3.75-5 8-2.369 2.922-3.874 3.946-7.375 5.438-3.625 1.562-3.625 1.562-6.5 4.187-4.047 3.076-7.118 2.901-12.125 3.375l-3.5 2c-12.928 5.746-27.873 2.959-40.859-1.293-3.1-0.83-6.141-1.159-9.329-1.519-6.085-0.841-8.847-2.898-13.312-7.188-1.299-0.474-2.599-0.949-3.938-1.438-4.401-1.693-6.865-3.704-10.257-6.878-1.805-1.684-1.805-1.684-4.367-3.559-3.722-3.245-6.503-7.174-9.438-11.125-0.99-1.32-1.98-2.64-3-4-0.474-0.825-0.949-1.65-1.438-2.5-1.562-2.5-1.562-2.5-3.566-4.227-2.6-2.961-2.864-5.284-3.496-9.148-1.016-5.38-2.285-8.665-5.5-13.125-2.242-7.714-2.311-15.158-2.344-23.152-0.014-1.337-0.029-2.673-0.044-4.05-0.062-5.693-0.102-11.386-0.144-17.079-0.033-4.166-0.078-8.331-0.124-12.496-3e-3 -0.648-3e-3 -0.648-0.016-3.927-0.014-1.192-0.027-2.384-0.041-3.612-4e-3 -0.526-4e-3 -0.526-0.022-3.188-0.265-2.496-0.265-2.496-2.265-4.496-2.989-0.44-5.992-0.779-9-1.062-8.812-0.844-8.812-0.844-11-1.938-6.282-0.251-10.98 0.132-17 2-1.999 0.257-3.999 0.507-6 0.75-5.854 0.913-8.772 3.022-13 7.25-0.824 0.458-1.647 0.915-2.496 1.387-2.894 1.865-3.967 3.5-5.629 6.488-0.477 0.843-0.954 1.686-1.445 2.555-0.472 0.848-0.944 1.696-1.43 2.57-0.534 0.807-1.067 1.614-1.617 2.445-8.862 16.372-4.669 45.717-4.571 63.867 5e-3 2.507 0.01 5.014 0.013 7.521 0.04 14.331 0.193 28.649 1.082 42.957 0.055 1.044 0.111 2.088 0.167 3.163 0.058 0.868 0.115 1.736 0.175 2.63-0.322 3.13-1.375 4.914-3.249 7.417-3.611 1.204-6.548 1.142-10.361 1.161-0.766 5e-3 -0.766 5e-3 -4.642 0.029-1.676 5e-3 -3.352 9e-3 -5.028 0.013-1.715 6e-3 -3.43 0.012-5.145 0.017-3.594 0.011-7.189 0.017-10.783 0.02-4.611 6e-3 -9.221 0.03-13.831 0.058-3.542 0.019-7.083 0.024-10.624 0.026-1.7 3e-3 -3.4 0.011-5.1 0.024-2.375 0.017-4.75 0.013-7.125 8e-3 -0.676 2e-3 -0.676 2e-3 -4.097 0.011-3.264-0.367-3.264-0.367-6.264-3.367-0.375-3.682-0.375-3.682-0.374-8.413-4e-3 -0.869-8e-3 -1.738-0.012-2.633-0.01-2.923 2e-3 -5.845 0.014-8.768-3e-3 -2.091-6e-3 -4.182-0.011-6.272-0.01-5.688 0-11.376 0.013-17.064 0.011-5.947 7e-3 -11.893 5e-3 -17.839-1e-3 -9.989 0.01-19.977 0.029-29.966 0.021-11.553 0.024-23.107 0.018-34.66-5e-3 -11.104 0-22.208 0.011-33.313 5e-3 -4.729 6e-3 -9.459 4e-3 -14.188-2e-3 -5.57 6e-3 -11.14 0.022-16.71 4e-3 -2.046 5e-3 -4.092 2e-3 -6.137-3e-3 -2.79 6e-3 -5.58 0.018-8.37 2e-3 -1.562 4e-3 -3.124 7e-3 -4.734 0.229-3.541 0.421-5.908 2.254-8.933 3.177-0.681 5.782-0.931 9-1 1.046-0.03 2.092-0.06 3.169-0.09 3.699-0.076 7.396-0.101 11.097-0.113 1.351-6e-3 2.703-0.012 4.095-0.017 2.844-0.01 5.688-0.016 8.533-0.02 4.356-0.01 8.711-0.041 13.067-0.072 2.768-7e-3 5.536-0.012 8.305-0.016 1.302-0.012 2.604-0.025 3.945-0.038 1.212 3e-3 2.424 6e-3 3.673 0.01 1.063-4e-3 2.126-8e-3 3.222-0.011 3.327 0.422 5.207 1.392 7.894 3.367 1.321 2.643 1.096 4.603 1.062 7.559-7e-3 1.108-0.015 2.215-0.023 3.357-0.026 2.344-0.052 4.688-0.078 7.031-8e-3 1.11-0.016 2.219-0.023 3.362-0.012 1.019-0.024 2.037-0.036 3.087 0.098 2.604 0.098 2.604 1.098 5.604 4.062 0.688 4.062 0.688 8 1 0.124-1.093 0.247-2.186 0.375-3.312 2.315-6.679 6.7-10.748 11.625-15.688 0.883-0.905 1.766-1.81 2.676-2.742 2.326-2.26 4.548-3.606 7.324-5.258 0.928-0.99 1.856-1.98 2.812-3 4.624-4.088 10.192-4.428 16.114-5.34 3.6-0.583 6.951-1.401 10.449-2.41 10.064-2.553 17.626-0.084 26.625 4.75zm100 56c-1.134 0.619-2.269 1.237-3.438 1.875-3.545 2.115-6.484 4.381-9.562 7.125-0.423 0.371-0.423 0.371-2.562 2.25-2.674 3.016-4.434 6.056-6.305 9.605-0.893 1.691-1.873 3.335-2.883 4.957-3.42 5.985-2.473 13.272-2.5 19.938-0.021 1.25-0.041 2.501-0.062 3.789-0.034 7.997 0.653 14.114 4.917 21.086 1.635 2.784 2.114 5.212 2.707 8.375 1.29 5.544 2.876 7.76 7.688 11 0.598 0.866 1.196 1.733 1.812 2.625 3.163 3.434 6.784 4.006 11.188 5.375 0.887 0.722 1.774 1.444 2.688 2.188 5.549 3.036 11.148 2.694 17.312 1.812 4.294-1.573 8.107-3.616 12-6 0.9-0.508 1.8-1.016 2.727-1.539 2.764-1.777 3.846-3.531 5.273-6.461v-2l4-2c1.814-3.627 2.316-5.281 2.633-9.148 0.084-0.999 0.168-1.997 0.254-3.026 0.079-1.056 0.157-2.113 0.238-3.201 0.084-1.085 0.168-2.171 0.255-3.289 0.575-7.797 0.919-15.518 0.62-23.336-0.053-1.432-0.106-2.864-0.16-4.34-0.92-19.406-0.92-19.406-6.215-24.91-0.629-0.66-1.258-1.32-1.906-2-0.284-0.289-0.284-0.289-1.719-1.75-0.619-0.743-1.237-1.485-1.875-2.25-2.673-2.201-5.593-3.43-8.781-4.734-2.344-1.016-2.344-1.016-6.094-3.266-7.533-3.102-15.399-3.444-22.25 1.25z" fill="#191919"/>
<path transform="translate(1796.5 563.43)" d="m0 0h3.996c1.441 0.026 2.881 0.052 4.365 0.078 0.762 4e-3 0.762 4e-3 4.614 0.023 4.177 0.025 8.353 0.073 12.53 0.131 4.386 0.056 8.772 0.084 13.159 0.115 7.38 0.056 14.76 0.131 22.14 0.218 10.35 0.123 20.701 0.212 31.052 0.295 8.088 0.066 16.176 0.141 24.264 0.218 0.857 8e-3 1.714 0.016 2.596 0.024 5.736 0.054 11.472 0.117 17.208 0.183 1.414 0.014 2.828 0.028 4.285 0.042 26.854 0.337 26.854 0.337 35.525 2.243 4.067 0.856 7.684 1.222 11.812 1.438 7.182 0.452 12.918 1.528 19 5.625 2.938 1.937 2.938 1.937 7 2.812 4.875 1.393 5.924 3.132 8.938 7.125 1.288 1.173 2.603 2.317 3.937 3.438 3.801 3.245 6.976 6.627 10.063 10.562v2l4 2c2.501 2.502 2.416 3.854 2.875 7.313 0.76 4.652 1.782 7.237 5.125 10.687 1.977 5.934 1.226 12.552 1.24 18.76 0.01 2.598 0.041 5.196 0.072 7.795 5e-3 1.639 0.01 3.279 0.016 4.968 9e-3 1.505 0.018 3.01 0.028 4.561-0.363 3.99-1.056 5.727-3.356 8.916-1.561 3.511-3.013 7.033-4.375 10.625-2.997 6.224-8.45 9.953-13.625 14.375-0.681 0.743-1.362 1.485-2.063 2.25-2.442 2.206-4.793 2.892-7.937 3.75-0.563 3.75-0.563 3.75 0 8 2.847 1.904 5.756 2.8 9 4l1 3c2.236 0.723 4.473 1.443 6.722 2.125 3.249 1.248 4.999 3.289 7.278 5.875 0.99 0.722 1.98 1.444 3 2.188 3.445 3.23 4.845 6.238 6.777 10.48 1.223 2.332 1.223 2.332 3.848 4.645 3.32 3.757 3.765 7.582 4.699 12.433 0.676 3.254 0.676 3.254 1.695 6.102 4.616 14.839 2.418 32.326-1.019 47.152-0.29 1.409-0.58 2.818-0.879 4.27-1.788 8.101-3.606 13.526-9.121 19.73-0.681 1.052-1.362 2.104-2.063 3.188-2.06 2.99-4.309 5.312-6.937 7.812l-5 5c-0.825 0.866-1.65 1.733-2.5 2.625-2.396 2.276-4.685 3.686-7.5 5.375-0.743 0.846-1.485 1.691-2.25 2.563-3.639 3.224-7.057 3.394-11.75 4.437-2.938 2.563-2.938 2.563-5 5-2.455 1.227-4.324 1.213-7.063 1.375-6.668 0.556-12.443 2.549-18.579 5.196-7.553 2.476-15.606 1.904-23.467 1.925-1.835 0.015-3.671 0.032-5.506 0.05-4.965 0.045-9.929 0.071-14.894 0.092-4.148 0.019-8.296 0.048-12.444 0.076-9.782 0.067-19.564 0.118-29.347 0.159-10.091 0.043-20.182 0.112-30.274 0.193-8.671 0.069-17.342 0.123-26.013 0.163-5.176 0.025-10.352 0.055-15.528 0.1-4.863 0.042-9.725 0.065-14.587 0.072-1.785 6e-3 -3.57 0.019-5.354 0.039-2.435 0.026-4.87 0.025-7.304 0.023-1.363 7e-3 -2.726 0.015-4.13 0.022-4.047-0.559-5.709-1.556-8.51-4.485-0.57-2.896-0.57-2.896-0.492-6.309 8e-3 -0.642 8e-3 -0.642 0.052-3.893 0.044-1.398 0.089-2.796 0.135-4.235 0.013-0.732 0.013-0.732 0.081-4.433 0.093-4.711 0.22-9.42 0.349-14.13 0.064-3.049 0.127-6.099 0.187-9.148 0.121-5.802 0.252-11.602 0.403-17.403 0.02-0.778 0.02-0.778 0.123-4.718 0.12-4.441 0.264-8.882 0.41-13.322 0.72-22.546 0.888-45.065 0.89-67.62 1e-3 -6.284 0.014-12.568 0.029-18.853 3e-3 -1.071 5e-3 -2.143 8e-3 -3.248 5e-3 -2.185 0.011-4.371 0.016-6.556 0.035-14.567 0.062-29.134 0.059-43.701-2e-3 -9.924 0.014-19.847 0.051-29.77 0.018-5.225 0.028-10.45 0.015-15.675-0.011-4.884 0-9.766 0.03-14.65 7e-3 -1.789 5e-3 -3.579-6e-3 -5.368-0.014-2.44 6e-3 -4.88 0.027-7.32 2e-3 -1.364 3e-3 -2.729 5e-3 -4.135 1.266-7.086 5.335-9.147 12.144-9.083zm77.484 76.57c-3.544 5.315-2.452 11.982-2.481 18.223-0.019 2.504-0.082 5.008-0.144 7.511-0.088 13.535-0.088 13.535 3.406 17.782 5.888 4.545 10.448 4.779 17.609 4.75 0.51 1e-3 0.51 1e-3 3.087 5e-3 2.155 2e-3 4.31-2e-3 6.465-0.01 3.281-0.011 6.562 0 9.843 0.012 2.097-1e-3 4.195-3e-3 6.293-7e-3 0.974 4e-3 1.948 8e-3 2.952 0.012 10.508-0.071 22.434-2.751 30.97-9.278 1.361-1.981 2.696-3.981 4-6l4-3c1.101-3.303 1.202-5.898 1.25-9.375 0.025-1.121 0.051-2.243 0.078-3.398-0.611-6.004-4.106-9.206-8.328-13.227-0.805-0.907-1.609-1.815-2.438-2.75-9.169-8.051-33.302-4.464-45.425-4.49-2.795-0.01-5.589-0.041-8.383-0.072-1.806-7e-3 -3.612-0.012-5.418-0.016-1.604-9e-3 -3.207-0.019-4.858-0.028-4.72 0.375-8.204 1.344-12.478 3.356zm0 103c-2.84 4.26-2.306 8.407-2.301 13.363-4e-3 1.025-9e-3 2.05-0.013 3.106-6e-3 2.169-6e-3 4.339-2e-3 6.508 3e-3 3.312-0.02 6.623-0.046 9.935-2e-3 2.109-3e-3 4.218-2e-3 6.326-9e-3 0.988-0.018 1.976-0.028 2.993 0.036 5.297 0.214 9.415 3.392 13.769 3.84 1.97 7.067 2.257 11.347 2.275 1.262 9e-3 2.523 0.019 3.823 0.029 1.355-1e-3 2.711-2e-3 4.107-3e-3 1.399 4e-3 2.798 8e-3 4.24 0.013 2.958 6e-3 5.916 6e-3 8.874 2e-3 4.525-3e-3 9.05 0.02 13.575 0.045 2.875 3e-3 5.749 3e-3 8.623 2e-3 0.677 5e-3 0.677 5e-3 4.101 0.028 1.265-6e-3 2.53-0.012 3.833-0.019 1.108 1e-3 2.217 2e-3 3.359 2e-3 5.386-0.646 8.831-3.159 13.118-6.374 0.99-0.454 1.98-0.907 3-1.375 3.353-1.816 4.753-3.582 7-6.625 0.443-0.423 0.443-0.423 2.687-2.562 4.456-4.697 3.525-10.771 3.461-16.879-0.459-11.003-0.459-11.003-4.523-14.746-0.867-0.599-1.733-1.197-2.625-1.813-1.379-1.969-2.719-3.967-4-6-3.127-3.126-7.216-2.975-11.438-3.562-9.249-1.333-9.249-1.333-12.562-2.438-2.364-0.153-4.731-0.249-7.098-0.316-1.434-0.043-2.867-0.085-4.344-0.129-6.152-0.156-12.304-0.311-18.457-0.451-3.349-0.085-6.692-0.201-10.039-0.342-8.57-0.254-14.141-0.076-21.062 5.238z" fill="#191919"/>
<path transform="translate(294.74 550.8)" d="m0 0c4.677 0.728 9.311 1.328 14.033 1.673 0.939 0.07 1.878 0.14 2.846 0.213 1.788 0.125 3.578 0.233 5.369 0.319 6.126 0.441 9.198 2.36 14.016 5.999 3.5 0.933 3.5 0.933 7 1.437 6.28 1.163 9.38 3.037 14 7.563 2.331 1.005 4.664 2.005 7 3 1.707 1.624 3.375 3.292 5 5 0.916 0.604 1.833 1.209 2.777 1.832 9.273 6.238 16.662 14.18 22.734 23.484 0.512 0.783 1.024 1.565 1.551 2.371 0.491 0.757 0.982 1.514 1.488 2.293 1.45 2.02 1.45 2.02 4.2 4.52 3.117 3.463 3.251 7.005 4.25 11.5 0.813 0.767 1.626 1.534 2.465 2.324 3.148 3.323 3.442 5.503 4.097 9.988 1.036 6.042 2.404 10.403 5.438 15.688 1.839 3.955 2 5.362 2 10-4.994 3.745-8.099 3.117-14 2.687-9.715-0.574-19.386-0.715-29.114-0.625-1.159 9e-3 -2.319 0.018-3.513 0.028-4.751 0.038-9.501 0.078-14.252 0.155-3.39 0.055-6.781 0.084-10.172 0.11-1.029 0.024-2.059 0.048-3.119 0.072-4.191 0.016-7.176-0.035-10.819-2.219-4.46-4.897-7.517-8.643-9.511-14.958-1.741-4.933-3.087-5.728-7.5-8.25-0.598-0.846-1.197-1.691-1.813-2.563-3.14-3.499-6.762-4.043-11.187-5.437-2.938-2.125-2.938-2.125-5-4-4.733-2.366-11.308-1.367-16.5-1.438-1.338-0.045-2.676-0.091-4.055-0.138-7.757-0.088-12.956 0.468-19.284 5.132-2.462 1.645-4.607 2.246-7.474 2.944-5.227 1.673-6.535 3.176-9.687 7.5-0.825 0.412-1.65 0.825-2.5 1.25-3.498 2.448-4.557 5.521-6.309 9.344-1.191 2.406-1.191 2.406-3.316 4.781-2.582 3.614-3.125 7.318-4.086 11.613-1.043 3.981-2.852 7.396-4.789 11.012-4.414 17.654-6.081 48.528 2 65 0.257 0.381 0.257 0.381 1.562 2.312 1.53 2.861 1.78 4.809 2.188 8 0.837 5.325 2.649 8.042 6.496 11.739 1.754 1.949 1.754 1.949 3.156 4.828 4.578 8.943 12.46 14.606 21.598 18.121 2.375 2.187 2.375 2.187 4 4 8.93 2.977 19.314 2.154 28.625 2.125 0.629 2e-3 0.629 2e-3 3.812 0.012 19.446-0.021 19.446-0.021 24.313-4.887 0.746-0.728 1.492-1.457 2.261-2.207 0.657-0.674 1.313-1.349 1.989-2.043 0.845-0.805 1.691-1.609 2.562-2.438 2.956-3.107 5.767-6.329 8.57-9.574 1.868-1.988 1.868-1.988 4.868-3.988 0.687-4.625 0.687-4.625 1-9-1.034 0.016-2.068 0.031-3.134 0.047-4.684 0.063-9.369 0.102-14.054 0.14-0.814 0.013-0.814 0.013-4.931 0.077-0.782 4e-3 -0.782 4e-3 -4.737 0.029-1.44 0.016-2.88 0.031-4.364 0.047-3.88-0.349-5.78-0.902-8.78-3.34-1-2.998-1.138-5.025-1.161-8.158-0.01-1.052-0.02-2.103-0.03-3.186-2e-3 -0.567-2e-3 -0.567-0.012-3.437-6e-3 -1.165-0.012-2.33-0.018-3.531-9e-3 -2.464-0.016-4.929-0.02-7.394-9e-3 -3.779-0.04-7.558-0.072-11.337-6e-3 -2.392-0.012-4.784-0.015-7.176-0.013-1.134-0.025-2.269-0.038-3.438 3e-3 -1.051 6e-3 -2.102 9e-3 -3.185-2e-3 -0.463-2e-3 -0.463-0.011-2.805 0.368-2.353 0.368-2.353 3.368-5.353 3.722-0.297 7.277-0.409 11.001-0.388 0.567-3e-3 0.567-3e-3 3.435-0.016 3.758-0.013 7.516-5e-3 11.275 5e-3 2.607-2e-3 5.213-5e-3 7.82-8e-3 5.47-5e-3 10.939 2e-3 16.408 0.016 7.014 0.017 14.027 7e-3 21.041-0.011 5.385-0.011 10.771-7e-3 16.157 0 2.586 2e-3 5.172 0 7.758-7e-3 3.615-8e-3 7.229 4e-3 10.844 0.021 1.072-6e-3 2.143-0.012 3.247-0.019 4.008 0.035 7.423 0.233 11.28 1.369 1.734 2.038 1.734 2.038 1.549 5.804-0.136 0.802-0.273 1.604-0.413 2.43-0.831 5.796-0.495 11.704-0.452 17.548 6e-3 1.459 0.012 2.919 0.019 4.422 0.013 3.158 0.029 6.316 0.047 9.473 0.027 4.992 0.045 9.984 0.06 14.976 5e-3 1.712 0.01 3.424 0.015 5.137 3e-3 0.857 5e-3 1.714 8e-3 2.597 0.036 11.61 0.082 23.221 0.147 34.832 0.045 7.849 0.075 15.698 0.089 23.548 8e-3 4.15 0.026 8.299 0.057 12.449 0.034 4.619 0.043 9.236 0.046 13.855 0.016 1.377 0.032 2.755 0.048 4.174-4e-3 1.254-8e-3 2.507-0.012 3.798 2e-3 0.546 2e-3 0.546 0.015 3.308-0.489 2.687-0.489 2.687-4.489 5.687-3.624 0.364-7.085 0.56-10.715 0.617-1.048 0.025-2.096 0.05-3.176 0.076-2.214 0.049-4.429 0.091-6.644 0.125-3.387 0.057-6.772 0.145-10.159 0.237-2.153 0.043-4.306 0.085-6.459 0.125-1.011 0.027-2.023 0.055-3.065 0.084-8.891 0.099-8.891 0.099-12.782-3.264-1.781-4.564-1.073-9.843-1-14.688 0.134-9.043 0.134-9.043-1-11.312-3.313-0.438-3.313-0.438-7 0-2.125 2.187-2.125 2.187-4 5-2.864 3.182-5.386 5.237-9.063 7.5-3.937 2.5-3.937 2.5-5.75 5.125-3.079 3.343-6.353 3.654-10.726 4.504-2.461 0.871-2.461 0.871-4.461 4.871-3.891 2.31-7.988 2.29-12.418 2.66-3.124 0.411-5.917 1.456-8.875 2.508-20.707 6.364-40.458 4.371-60.844-1.488-3.378-0.802-6.73-1.206-10.176-1.618-5.233-0.68-8.564-1.59-12.687-5.062-4-2-4-2-8.563-2.938-4.437-1.062-4.437-1.062-7.437-4.062v-2c-1.568-0.392-3.135-0.784-4.75-1.188-4.668-1.387-6.415-2.803-9.25-6.812l-3.5-2c-3.567-2.038-5.076-3.768-7.5-7-1.65-1.354-3.318-2.687-5-4-2.927-2.707-5.203-5.288-7.5-8.563-2.5-3.437-2.5-3.437-5.063-5.375-3.34-2.826-4.596-6.134-6.437-10.062-0.495-0.66-0.495-0.66-3-4-1.938-4.438-1.938-4.438-2.84-6.684-1.16-2.316-1.16-2.316-3.199-4.711-2.269-3.014-2.752-5.163-3.399-8.855-0.903-4.464-1.645-6.881-4.125-10.813-3.792-6.057-3.574-13.539-4.078-20.488-0.359-4.449-0.359-4.449-1.359-8.449-0.101-1.853-0.149-3.71-0.161-5.565-0.01-1.121-0.02-2.241-0.03-3.395-4e-3 -1.213-8e-3 -2.427-0.012-3.677-6e-3 -1.267-0.012-2.533-0.018-3.839-9e-3 -2.696-0.016-5.391-0.02-8.087-9e-3 -4.036-0.04-8.071-0.072-12.107-0.054-12.415 0.142-24.746 1.453-37.1 0.092-0.979 0.183-1.959 0.278-2.968 0.798-6.46 2.822-11.191 6.231-16.732 1.431-2.68 1.952-4.854 2.413-7.843 1.036-5.18 2.545-6.798 5.938-10.687 1.035-2.988 2.039-5.987 3-9l3-3h2c0.254-0.89 0.508-1.779 0.769-2.695 1.255-3.37 2.629-5.436 4.918-8.18 0.71-0.857 1.421-1.715 2.153-2.598 3.023-3.537 6.083-7.037 9.16-10.527 0.618-0.866 1.237-1.733 1.875-2.625 2.647-2.959 5.618-4.836 8.953-6.961 2.172-1.414 2.172-1.414 4.859-3.602 2.313-1.812 2.313-1.812 5.438-3.312 2.875-1.5 2.875-1.5 5.875-5.5 2.269-0.871 2.269-0.871 4.812-1.438 3.65-0.959 5.099-1.483 8-4.062 4.142-3.249 7.944-3.754 13.067-4.629 3.121-0.871 3.121-0.871 5.461-2.836 5.834-4.464 13.935-4.378 21.035-5.035 5.197-0.497 10.323-1.046 15.437-2.125 10.747-2.051 21.216-0.766 31.924 0.921z" fill="#191919"/>
<path transform="translate(1595.5 639.27)" d="m0 0c0.638 0.021 0.638 0.021 3.865 0.124 2.686 0.089 5.372 0.181 8.058 0.276 4.095 0.142 8.189 0.269 12.284 0.395 2.619 0.088 5.237 0.177 7.855 0.267 0.608 0.019 0.608 0.019 3.685 0.111 8.319 0.312 16.307 0.767 23.659 5.057 3.663 1.966 6.696 2.892 10.813 3.438 5.556 0.814 8.248 3.158 12.312 7.062 0.97 0.413 1.939 0.825 2.938 1.25 6.57 3.755 12.478 11.991 14.871 19.18 0.207 0.807 0.415 1.614 0.629 2.445 0.937 3.372 1.786 5.481 3.687 8.5 4.396 8.5 3.024 19.853 3.008 29.235 1e-3 1.274 3e-3 2.547 4e-3 3.86 2e-3 4.093-4e-3 8.187-0.012 12.28-1e-3 1.392-3e-3 2.784-4e-3 4.218-0.088 66.935-0.088 66.935-4.121 79.032-0.583 8.105 0.3 14.316 3 22 0.486 3.846 0.87 7.683 1.18 11.547 0.992 4.178 2.757 5.558 5.82 8.453v4c-3.079 1.54-6.002 1.136-9.431 1.146-0.786 3e-3 -0.786 3e-3 -4.763 0.019-1.726 2e-3 -3.451 3e-3 -5.177 3e-3 -1.761 4e-3 -3.522 7e-3 -5.283 0.011-3.695 6e-3 -7.39 7e-3 -11.084 7e-3 -4.74 0-9.479 0.013-14.218 0.031-3.638 0.011-7.276 0.013-10.915 0.012-1.747 1e-3 -3.495 6e-3 -5.242 0.013-2.442 0.01-4.884 6e-3 -7.326 1e-3 -0.695 1e-3 -0.695 1e-3 -4.214 5e-3 -3.347-0.248-3.347-0.248-6.347-2.248-0.511-3.039-0.511-3.039-0.687-6.625-0.033-0.594-0.033-0.594-0.199-3.601-0.038-0.915-0.075-1.831-0.114-2.774-0.804-0.051-0.804-0.051-4.875-0.312-0.905-0.058-1.81-0.116-2.742-0.176-0.786 0.161-1.573 0.322-2.383 0.488-0.701 1.653-1.365 3.321-2 5-2.312 1.364-2.312 1.364-5 2.313-0.887 0.326-1.774 0.652-2.687 0.988-2.313 0.699-2.313 0.699-4.313 0.699l-2 4c-3.647 1.824-5.528 2.341-9.437 2.813-5.107 0.703-9.985 1.787-14.966 3.114-16.979 4.459-33.043 4.902-49.659-1.489-3.362-1.227-6.004-1.775-9.5-2.25-5.578-0.909-8.348-3.258-12.438-7.188-0.949-0.433-1.897-0.866-2.875-1.312-4.901-2.647-8.345-6.65-12.125-10.688-0.557-0.577-0.557-0.577-3.375-3.5-3.016-4.021-4.144-7.721-5.625-12.5-1.315-2.011-2.646-4.014-4-6-1.428-5.497-1.184-11.046-1.187-16.687-0.012-1.038-0.025-2.077-0.037-3.147-0.018-9.385 0.578-17.36 6.224-25.166 0.64-1.505 1.279-3.011 1.938-4.562 3.041-6.543 7.614-9.897 13.062-14.438 0.825-0.866 1.65-1.732 2.5-2.625 2.673-2.539 5.209-3.764 8.5-5.375 0.292-0.33 0.292-0.33 1.77-2 3.582-3.212 7.698-3.251 12.332-3.996 3.415-0.879 5.641-1.869 8.679-3.539 5.392-2.812 10.091-3.246 16.094-3.465 9.727-0.583 18.59-2.297 27.973-4.878 5.426-1.465 10.609-2.224 16.215-2.516 1.126-0.069 2.253-0.138 3.414-0.209 2.348-0.139 4.697-0.267 7.047-0.383 6.258-0.404 10.56-0.756 15.476-5.014 6.818-5 6.818-5 9-5 1.497-5.988 1.643-11.862 1-18-2.125-2.937-2.125-2.937-5-5-0.526-0.618-0.526-0.618-3.187-3.75-4.303-4.972-7.307-4.662-13.813-5.25-3.207-0.112-6.416-0.174-9.625-0.187-1.601-0.014-3.202-0.028-4.851-0.043-8.797 0.448-13.585 3.015-19.524 9.23-1.707 2.304-3.379 4.635-5 7-1.628 1.705-3.287 3.381-5 5l-2 2c-2.75 0.261-2.75 0.261-6.298 0.275-0.662 5e-3 -0.662 5e-3 -4.015 0.029-1.44-1e-3 -2.879-2e-3 -4.363-3e-3 -0.736 2e-3 -0.736 2e-3 -4.461 0.013-3.122 6e-3 -6.243 6e-3 -9.364 2e-3 -4.781-3e-3 -9.56 0.02-14.341 0.046-3.028 2e-3 -6.056 3e-3 -9.084 2e-3 -0.716 4e-3 -0.716 4e-3 -4.343 0.028-1.335-7e-3 -2.669-0.013-4.044-0.019-0.587 0-0.587 0-3.555 2e-3 -3.757-0.449-6.437-1.68-9.132-4.375 0.246-4.094 0.823-6.703 2.938-10.25 1.933-3.515 2.457-5.454 3-9.312 0.795-5.167 2.459-7.577 6.062-11.438 0.557-1.258 1.114-2.516 1.688-3.812 4.896-8.867 12.177-13.451 21.312-17.188 0.631-0.676 1.261-1.353 1.91-2.05 2.615-2.439 4.133-2.515 7.653-2.825 5.792-0.769 9.786-2.643 14.672-5.785 6.304-3.054 13.808-2.556 20.703-2.84 4.703-0.194 9.361-0.405 14.031-1.034 6.173-0.699 12.303-0.413 18.5-0.196zm5.824 131.78c-5.322 3.157-10.912 2.861-16.98 3.266-4.565 0.728-6.697 1.912-10.313 4.687-7.28 3.696-7.28 3.696-10.812 5.188-4.056 3.36-4.9 8.29-5.473 13.309-0.214 5.976 0.716 11.033 3.285 16.503 3.188 2.188 3.188 2.188 7 4 1.438 1.034 2.855 2.098 4.25 3.188 4.996 3.747 7.943 3.99 14.063 4.062 0.648 0.013 0.648 0.013 3.926 0.079 5.692-0.497 8.758-2.326 12.761-6.329 1.549-0.679 3.113-1.321 4.688-1.937 6.755-3.235 9.622-8.803 13.312-15.063 0.363-0.416 0.363-0.416 2.199-2.523 2.862-5.525 2.339-11.042 2.239-17.164 7e-3 -1.236 0.014-2.471 0.021-3.744-0.065-9.175-0.065-9.175-3.459-12.569-7.567-0.687-14.536 0.381-20.707 5.047z" fill="#191919"/>
<path transform="translate(2206.6 644.81)" d="m0 0c8.891 1.818 17.765 3.093 26.797 3.972 5.598 0.627 9.239 1.678 13.641 5.216 3 2 3 2 7.812 2.75 5.336 0.967 7.554 3.203 11.188 7.25 1.991 1.016 3.991 2.016 6 3 2.378 1.946 4.709 3.95 7 6 1.155 0.928 2.309 1.856 3.5 2.812 5.351 4.873 9.329 10.292 13.124 16.438 2.376 3.75 2.376 3.75 5.063 6.124 2.89 3.282 3.13 5.762 3.563 10.028 0.75 2.598 0.75 2.598 3.242 5.461 2.968 3.712 3.262 5.695 3.632 10.387 0.129 1.522 0.258 3.044 0.391 4.613 0.035 0.415 0.035 0.415 0.209 2.518 0.285 2.708 0.722 5.355 1.197 8.036 2.4 14.514 1.868 28.21 0.453 42.77-0.087 0.93-0.175 1.86-0.266 2.819-1.922 19.745-1.922 19.745-8.108 27.994-0.685 2.446-1.37 4.892-2.051 7.339-1.3 3.642-3.297 6.501-5.539 9.625-1.41 2.036-1.41 2.036-2.973 5.348-1.69 3.159-3.6 4.542-6.437 6.688-1.354 1.65-2.687 3.317-4 5-3.639 3.82-7.148 7.093-11.938 9.437-3.062 1.563-3.062 1.563-5.375 3.5-3.592 2.757-7.559 4.228-11.687 6.063-0.76 0.681-1.519 1.363-2.301 2.066-3.515 2.518-6.101 2.569-10.387 2.871-7.295 0.733-11.995 2.439-18.312 6.063-4.686 1.171-9.124 1.181-13.918 1.203-0.972 5e-3 -1.944 0.011-2.945 0.017-2.057 9e-3 -4.114 0.016-6.171 0.02-3.125 9e-3 -6.25 0.04-9.375 0.072-2.003 7e-3 -4.006 0.012-6.009 0.016-0.926 0.012-1.851 0.024-2.804 0.037-7.516-0.025-13.343-1.711-20.154-4.991-3.359-1.274-5.658-1.636-9.187-1.874-5.856-0.408-9.47-2.101-14.25-5.5-3.187-2-3.187-2-7.687-3.438-4.6-1.597-6.88-3.415-10.5-6.562-1.238-0.496-2.475-0.991-3.75-1.5-3.913-1.806-3.785-2.691-5.25-6.5-0.949-0.31-1.898-0.619-2.876-0.938-4.119-1.4-4.873-3.431-7.124-7.062-0.413-0.32-0.413-0.32-2.5-1.938-3.157-2.604-4.579-5.476-6.5-9.062-0.495-0.66-0.495-0.66-3-4-1.938-4.438-1.938-4.438-2.84-6.684-1.16-2.316-1.16-2.316-3.196-4.594-2.575-3.568-2.866-6.507-3.464-10.848-0.966-6.188-2.226-11.704-4.633-17.48-2.866-7.912-2.161-16.66-2.218-24.96-0.016-1.783-0.043-3.565-0.082-5.347-0.217-10.192-0.218-18.29 5.433-27.087 1.146-3.441 1.35-6.576 1.687-10.188 0.923-7.249 2.612-10.36 7.313-15.812 0.761-1.538 1.47-3.102 2.124-4.688 1.657-3.81 3.208-6.214 5.876-9.312 0.515-0.867 1.031-1.733 1.562-2.626 1.438-2.374 1.438-2.374 4.438-5.374h2c0.113-0.361 0.113-0.361 0.687-2.188 1.849-3.961 4.729-5.403 8.313-7.812 0.618-0.681 1.237-1.362 1.874-2.063 3.219-2.935 7.168-4.179 11.126-5.937 0.63-0.671 1.26-1.341 1.91-2.032 2.61-2.459 4.533-2.799 8.027-3.468 4.761-1.055 7.383-2.242 11.063-5.5 5.83-2.092 11.507-2.465 17.624-2.876 7.579-0.58 14.377-1.562 21.524-4.32 6.889-1.944 13.57-0.444 20.414 1.008zm-31.562 65.188c-0.547 0.206-0.547 0.206-3.313 1.25-3.827 2.491-5.203 5.827-7.195 9.863-1.492 2.887-1.492 2.887-3.625 5.754-2.304 3.865-2.466 6.46-2.617 10.945-0.055 1.586-0.109 3.171-0.165 4.805-0.032 1.794-0.061 3.588-0.085 5.383-0.016 0.981-0.031 1.962-0.046 2.973-0.141 10.906-0.08 21.815 0.358 32.714 0.058 1.468 0.116 2.936 0.176 4.449 0.828 6.249 3.6 10.096 7.512 14.864 0.433 0.845 0.866 1.691 1.312 2.562 2.3 3.323 5.169 4.524 8.688 6.438 1.369 1.295 2.715 2.619 4 4 4.192 2.096 9.643 1.273 14.25 1.312 1.133 0.029 2.266 0.058 3.433 0.088 6.345 0.048 10.327-0.067 15.317-4.4 0.69-0.423 0.69-0.423 4.187-2.563 5.026-3.213 7.124-5.682 9.25-11.125 1.363-3.469 2.732-6.603 4.615-9.831 2.361-5.434 2.527-9.638 2.479-15.481 4e-3 -1.036 7e-3 -2.071 0.011-3.137 3e-3 -2.179-4e-3 -4.357-0.021-6.535-0.021-3.319 0-6.635 0.025-9.954-2e-3 -2.125-7e-3 -4.25-0.015-6.374 8e-3 -0.984 0.016-1.968 0.024-2.981-0.085-6.314-1.283-10.46-4.555-16.019-0.481-0.971-0.962-1.942-1.458-2.942-4.403-8.516-9.381-13.865-17.542-19.058-0.99-0.991-1.981-1.981-3-3-11.883-3.961-22.511-1.426-32 6z" fill="#191919"/>
<path transform="translate(836.22 639.53)" d="m0 0c5.105 0.633 10.207 0.9 15.344 1.125 4.73 0.473 9.003 1.073 12.625 4.281 3.063 2.246 5.011 2.666 8.687 3.438 5.775 1.281 8.786 3.546 13.125 7.625 0.526 0.175 0.526 0.175 3.188 1.062 3.578 1.193 4.525 3.007 6.812 5.938 0.99 0.474 1.98 0.949 3 1.437 3.695 1.925 4.798 4.081 7 7.563 1.663 1.338 3.329 2.672 5 4 1.03 1.648 2.031 3.315 3 5 0.33 0.289 0.33 0.289 2 1.75 2 2.25 2 2.25 3.438 6.687 1.562 4.563 1.562 4.563 4.125 6.875 3.321 3.662 3.238 6.857 3.844 11.657 0.719 3.675 2.503 6.309 4.428 9.48 4.773 10.45 3.455 24.492 3.371 35.706-0.018 2.54-0.02 5.08-0.02 7.62-0.094 26.533-0.094 26.533-4.123 33.912-2.026 3.97-3.429 7.275-4.063 11.688-1.182 5.466-3.247 7.572-7 11.625-1.365 2.65-2.701 5.316-4 8-1.293 1.697-2.625 3.367-4 5-0.536 0.907-1.072 1.815-1.625 2.75-5.404 7.395-12.574 12.622-20.375 17.25-0.845 0.722-1.691 1.444-2.562 2.187-2.438 1.813-2.438 1.813-5.875 2.75-3.563 1.063-3.563 1.063-6.278 3.524-3.887 3.004-6.585 3.518-11.41 4.226-4.567 0.693-7.718 1.234-11.875 3.313-14.735 4.111-29.806 4.304-45 4-0.581-3e-3 -0.581-3e-3 -3.523-0.016-8.507-0.272-15.487-2.539-23.41-5.57-3.665-1.275-6.921-1.992-10.754-2.477-5.187-0.689-7.348-2.479-11.313-5.937-1.855-0.57-3.734-1.064-5.625-1.5-4.864-1.166-6.494-2.328-9.375-6.5-1.859-1.129-3.72-2.256-5.59-3.367-8.463-5.734-15.563-13.301-21.41-21.633-0.617-0.872-1.235-1.743-1.871-2.641-1.191-1.694-2.375-3.392-3.551-5.098-1.479-2.12-3.026-4.193-4.578-6.261-0.826-3.153-1.385-6.309-1.961-9.516-1.039-3.484-1.039-3.484-3.527-6.816-4.264-6.475-3.838-14.603-4.324-22.106-0.121-1.558-0.241-3.115-0.365-4.72-0.92-12.338-0.798-24.16 0.365-36.467 0.101-1.284 0.202-2.568 0.306-3.891 0.705-7.356 1.688-11.648 6.506-17.484 0.934-3.211 0.934-3.211 1.438-6.375 1.307-6.498 3.601-10.344 7.562-15.625 0.258-0.454 0.258-0.454 1.563-2.75 1.812-2.837 4.002-4.931 6.437-7.25 2.854-2.781 5.455-5.55 8-8.625 2.684-3.02 4.572-4.442 8-6.375 0.763-0.805 1.527-1.609 2.313-2.438 3.241-3.09 6.674-4.62 10.687-6.562l3-3c2.891-0.774 2.891-0.774 6.25-1.375 5.675-1.186 9.166-2.996 13.75-6.625 3.863-1.064 7.698-1.191 11.688-1.375 5.892-0.344 11.515-1.154 17.312-2.25 12.074-2.11 23.193-0.562 35.219 1.156zm-38.219 60.469c-2 2-2 2-4.437 3.375-3.246 2.058-5.188 4.625-7.563 7.625l-3 3c-1.097 3.398-1.097 3.398-2.062 7.375-1.774 7.221-1.774 7.221-2.996 10.226-2.525 6.433-2.125 13.283-2.129 20.086-0.012 1.026-0.025 2.051-0.037 3.108-0.019 9.754 1.171 18.288 5.224 27.205 0.518 1.745 1.017 3.495 1.5 5.25 1.5 4.75 1.5 4.75 4.5 7.75h2l2 4c1.968 1.705 3.971 3.369 6 5 0.601 0.866 1.202 1.732 1.821 2.625 5.228 3.905 10.906 3.056 17.242 2.937 1.279 0.011 2.559 0.022 3.877 0.033 9.406-0.074 9.406-0.074 12.456-2.506 1.604-2.089 1.604-2.089 1.604-4.089 0.372-0.134 0.372-0.134 2.25-0.813 3.368-1.454 4.718-3.176 6.75-6.187v-2l4-2c2.321-3.481 2.743-6.085 3.5-10.188 0.719-3.854 1.418-7.555 2.61-11.293 1.358-6.894 0.911-13.648 0.64-20.644-0.02-0.72-0.02-0.72-0.121-4.364-0.215-6.273-0.474-11.582-2.629-17.511-0.306-2.183-0.577-4.371-0.812-6.563-0.789-5.475-1.73-7.935-6.188-11.437-0.598-0.99-1.196-1.98-1.812-3-2.821-3.869-6.079-5.598-10.188-8-0.341-0.35-0.341-0.35-2.066-2.121-4.481-2.87-8.728-2.422-13.934-2.317-0.985-7e-3 -1.969-0.014-2.984-0.021-6.49 0.057-10.306 0.749-15.016 5.459z" fill="#191919"/>
<path transform="translate(2462.4 645.38)" d="m0 0c7.698 1.724 15.132 2.971 23 3.562 6.739 0.589 11.035 1.737 16.496 5.688 2.129 1.375 2.129 1.375 6.816 2.375 5.201 1.206 7.404 3.453 11.313 7 1.258 0.536 2.516 1.072 3.813 1.625 3.187 1.375 3.187 1.375 5.187 5.375 1.979 1.364 3.982 2.694 6 4 3.666 3.398 6.931 7.054 10 11v2l4 2c2.688 3.584 4.841 7.086 7 11 0.258 0.464 0.258 0.464 1.563 2.813 1.243 2.756 2.068 5.287 2.874 8.187 1.212 4.282 3.051 7.316 5.563 11 1.033 4.648 1.189 9.253 1.375 14 0.292 5.654 0.915 10.875 2.25 16.375 2.081 8.884 0.655 16.535-1.105 25.34-0.544 3.435-0.809 6.858-1.069 10.324-0.622 7.81-1.462 13.4-6.076 19.766-1.575 2.515-1.956 4.46-2.375 7.382-1.169 5.626-3.19 7.622-7 11.813-1.105 2.254-1.105 2.254-2.063 4.625-1.904 4.301-3.462 6.324-6.937 9.375l-5 5c-0.825 0.866-1.65 1.732-2.5 2.625-3.249 3.087-6.523 4.916-10.563 6.812-2.937 1.563-2.937 1.563-4.75 3.5-3.233 3.049-7.141 4.289-11.187 6.063-0.762 0.682-1.524 1.364-2.309 2.066-3.496 2.512-6.049 2.569-10.316 2.871-6.46 0.65-11.404 1.94-17.141 4.942-5.054 2.536-10.209 2.298-15.714 2.324-0.928 6e-3 -1.855 0.012-2.811 0.017-1.963 0.01-3.925 0.016-5.888 0.02-2.98 0.01-5.96 0.041-8.94 0.073-1.912 6e-3 -3.824 0.011-5.736 0.015-0.882 0.012-1.764 0.025-2.672 0.038-7.351-0.026-13.044-1.652-19.598-4.929-3.935-1.459-7.152-1.838-11.312-2.25-4.805-0.556-8.078-0.985-11.813-4.124-3.621-2.957-5.09-3.621-9.437-4.626-4.844-1.127-6.994-2.643-10.313-6.437-0.526-0.247-0.526-0.247-3.187-1.5-3.423-1.825-3.473-3.015-4.813-6.5-1.664-0.674-3.331-1.34-5-2-1.73-1.946-3.393-3.951-5-6-1.646-1.687-3.312-3.355-5-5-5.35-5.225-7.233-8.412-8.242-15.723-0.25-0.751-0.5-1.503-0.758-2.277l-4-2c-2-4-2-4-2.313-8.563-0.411-5.242-2.165-9.239-4.531-13.894-7.672-16.874-4.824-46.934-0.156-64.543 0.634-1.626 1.314-3.236 2.063-4.813 1.77-3.826 2.348-6.34 2.874-10.437 0.759-5.334 2.092-7.063 6.063-10.75 0.734-1.807 1.394-3.646 2-5.5 1.556-4.681 3.183-7.256 7-10.5 1.338-1.663 2.672-3.329 4-5 1.313-1.354 2.646-2.688 4-4 0.639-0.66 1.279-1.32 1.937-2 2.239-2.171 4.629-4.053 7.063-6 0.598-0.681 1.196-1.361 1.813-2.063 2.187-1.937 2.187-1.937 6.062-3.374 4.125-1.563 4.125-1.563 7.062-4.126 3.866-3.076 7.275-3.387 12.063-4.437 2.367-1.618 4.706-3.28 7-5 4.113-1.158 8.248-1.199 12.5-1.375 8.009-0.462 16.462-1.221 23.801-4.723 7.633-2.551 15.506-0.283 23.074 1.473zm-27.375 61.625c-1.675 0.798-3.362 1.571-5.063 2.313-4.84 2.344-7.053 5.106-9.937 9.687l-4 3c-0.758 2.277-0.758 2.277-1.125 4.937-0.063 0.428-0.063 0.428-0.383 2.59-0.162 1.146-0.325 2.292-0.492 3.473-0.161 0.841-0.322 1.683-0.488 2.55-3.144 16.84-2.421 34.857-0.449 51.825 0.084 0.865 0.168 1.731 0.254 2.623 0.948 6.805 3.95 10.394 8.683 15.002 0.433 0.443 0.433 0.443 2.625 2.687 0.784 0.764 1.568 1.527 2.375 2.313 0.433 0.443 0.433 0.443 2.625 2.687 5.953 5.797 12.341 5.462 20.312 5.5 1.33 0.015 2.659 0.029 4.028 0.043 8.156-0.465 12.859-2.243 18.848-7.855 1.099-1.003 2.199-2.006 3.332-3.039 3.14-3.669 4.423-6.754 5.855-11.336 2.681-7.485 2.681-7.485 4.625-10.625 3.757-6.49 2.508-15.151 2.375-22.375-7e-3 -0.94-0.015-1.879-0.022-2.847-0.029-3.156-0.095-6.31-0.165-9.466-6e-3 -1.013-0.012-2.027-0.018-3.071-0.216-7.288-1.956-11.437-5.795-17.616-1.039-2.961-1.039-2.961-1.625-5.375-1.375-4.625-1.375-4.625-4.375-7.625h-2l-2-4c-2.023-1.816-2.023-1.816-4.375-3.563-0.771-0.578-1.542-1.157-2.336-1.753-0.755-0.556-1.511-1.112-2.289-1.684l-4-3c-3.211-0.321-6.169-0.464-9.375-0.437-0.419-0.01-0.419-0.01-2.539-0.061-5.655 4e-3 -8.671 1.055-13.086 4.498z" fill="#191919"/>
<path transform="translate(576.12 637.44)" d="m0 0c8.111 1.718 15.902 2.957 24.199 3.332 5.092 0.439 8.776 2.68 13.051 5.293 3.625 1.937 3.625 1.937 8.125 2.813 5.273 1.318 7.554 3.476 11.5 7.124 1.093 0.537 2.186 1.073 3.313 1.626 2.687 1.374 2.687 1.374 4.687 5.374 0.99 0.64 1.98 1.279 3 1.938 3.347 2.301 3.573 3.448 5 7.062 0.743 0.269 1.485 0.537 2.25 0.813 4.242 1.832 6.255 5.467 8.75 9.187 0.577 0.846 1.155 1.692 1.75 2.563 1.25 2.437 1.25 2.437 2.125 5.875 1.125 3.562 1.125 3.562 3.602 6.277 3.017 3.928 3.412 6.532 4.023 11.411 0.991 6.61 2.476 12.075 5.414 18.066 3.082 7.971 2.303 17.135 2.336 25.558 0.01 0.657 0.01 0.657 0.063 3.981 2e-3 0.63 2e-3 0.63 0.015 3.816 9e-3 1.143 0.019 2.287 0.028 3.464-0.356 2.989-0.356 2.989-3.356 6.989-2.477 0.444-2.477 0.444-5.493 0.363-0.574-0.01-0.574-0.01-3.476-0.062-1.264-0.042-2.529-0.085-3.832-0.129-1.339-0.028-2.679-0.056-4.059-0.084-2.936-0.063-5.871-0.134-8.806-0.214-7.137-0.19-14.274-0.325-21.412-0.459-1.691-0.032-3.383-0.064-5.074-0.098-21.065-0.415-42.129-0.45-63.198-0.442-2.905 1e-3 -5.809-2e-3 -8.714-6e-3 -4.586-6e-3 -9.173-6e-3 -13.759-3e-3 -2.513 2e-3 -5.026-1e-3 -7.539-4e-3 -1.495 3e-3 -2.989 6e-3 -4.53 9e-3 -1.307 1e-3 -2.614 2e-3 -3.96 3e-3 -3.148 0.126-3.148 0.126-6.148 1.126-0.407 6.244 1.022 11.176 3 17 0.413 1.32 0.825 2.64 1.25 4 1.947 4.451 4.425 8.022 7.324 11.899 1.426 2.101 1.426 2.101 1.426 4.101 1.32 0.372 2.64 0.743 4 1.126 3.778 1.062 5.531 2.322 8.629 4.933 4.879 3.771 9.301 3.867 15.308 3.879 0.938 0.029 1.876 0.058 2.842 0.088 16.236 0.372 16.236 0.372 23.221-5.026 2.517-1.534 5.039-3.021 7.625-4.437 2.375-1.563 2.375-1.563 5.375-5.563 3.423-1.141 6.092-1.147 9.703-1.177 0.694-6e-3 0.694-6e-3 4.207-0.038 1.503-8e-3 3.006-0.015 4.555-0.023 1.54-8e-3 3.08-0.016 4.666-0.024 3.261-0.014 6.522-0.025 9.783-0.033 3.347-9e-3 6.694-0.029 10.042-0.061 4.815-0.043 9.631-0.059 14.446-0.069 1.501-0.018 3.003-0.035 4.549-0.053 1.392 3e-3 2.783 6e-3 4.217 9e-3 1.225-6e-3 2.451-0.012 3.714-0.018 3.118 0.487 3.118 0.487 5.565 2.314 1.553 2.173 1.553 2.173 1.24 5.423-1.82 4.046-3.96 6.511-6.957 9.711-2.554 3.01-3.994 6.511-5.73 10.039-3.118 3.898-6.366 7.58-10 11-0.282 0.274-0.282 0.274-1.707 1.657-3.469 3.229-6.575 5.662-10.98 7.469-4.313 1.874-4.313 1.874-6.813 4.5-3.447 3.274-6.92 3.357-11.5 4.374-0.74 0.814-1.48 1.627-2.242 2.465-3.697 3.398-6.434 3.503-11.383 4.098-1.699 0.223-3.396 0.451-5.094 0.684-0.87 0.117-1.74 0.234-2.636 0.355-5.817 0.877-11.54 2.249-17.278 3.531-16.168 3.211-31.15 3.16-46.761-1.857-5.508-1.757-10.623-2.771-16.419-3.276-7.032-0.681-9.861-2.514-15.187-7-1.526-0.33-3.053-0.659-4.625-1-5.232-1.195-6.808-3.116-10.375-7-0.536-0.268-0.536-0.268-3.25-1.624-2.75-1.376-2.75-1.376-4.75-5.376-1.657-0.69-3.325-1.354-5-2-6.123-5.194-11.307-11.353-16.184-17.707-1.816-2.293-1.816-2.293-5.129-5.667-3.143-4.241-3.842-7.67-4.902-12.758-1.078-3.938-3.337-6.647-5.785-9.868-1.297-5.376-1.337-10.93-1.563-16.437-0.041-1.009-0.083-2.018-0.126-3.058-0.557-14.653-0.537-29.291 0.064-43.942 0.031-0.846 0.062-1.692 0.093-2.563 0.403-8.326 1.955-14.134 6.532-21 0.703-1.84 1.366-3.696 2-5.562 1.46-4.232 3.055-7.033 6-10.438 0.639-1.32 1.279-2.639 1.937-4 2.014-3.905 3.837-6.088 7.063-9 2.874-2.8 5.493-5.594 8.063-8.687 2.937-3.313 2.937-3.313 6.937-5.313 0.763-0.969 1.526-1.938 2.313-2.937 3.033-3.457 5.473-4.377 9.687-6.063 0.598-0.659 1.196-1.32 1.813-2 2.905-2.656 5.763-3.146 9.554-3.996 2.633-1.004 2.633-1.004 5.457-3.527 3.857-3.008 6.282-3.273 11.113-3.664 3.945-0.343 7.573-0.672 11.383-1.762 4.826-1.378 9.65-2.018 14.617-2.675 0.951-0.135 1.902-0.269 2.881-0.407 10.009-1.352 18.478-0.685 28.307 1.469zm-37.125 55.562c-1.65 0.806-3.319 1.575-5 2.313-5.45 2.59-7.73 5.663-11 10.687-0.99 1.32-1.98 2.64-3 4-2.203 5.797-2.408 10.88-2 17 3.728 2.486 5.689 2.271 10.146 2.307 0.743 8e-3 0.743 8e-3 4.501 0.048 0.804 3e-3 0.804 3e-3 4.876 0.017 1.649 9e-3 3.298 0.018 4.996 0.027 3.492 0.016 6.984 0.024 10.476 0.027 4.472 5e-3 8.942 0.043 13.413 0.089 3.441 0.03 6.881 0.037 10.321 0.038 2.449 6e-3 4.898 0.035 7.347 0.065 0.745-3e-3 0.745-3e-3 4.519-0.018 1.312 5e-3 2.625 0.01 3.977 0.015 4.292-0.769 5.756-2.24 8.428-5.615 0.993-3.761 0.785-7.2 0-11-2.75-3.624-2.75-3.624-6-7-0.577-1.505-1.155-3.011-1.75-4.562-2.628-5.182-4.891-6.567-9.91-9.148-2.34-1.29-2.34-1.29-5.34-4.29-12.427-3.866-29.175-4.184-39 5z" fill="#191919"/>
<path transform="translate(2626.1 578.6)" d="m0 0c1.408-0.013 2.816-0.025 4.267-0.038 1.51 2e-3 3.019 5e-3 4.574 8e-3 1.558-5e-3 3.116-0.01 4.721-0.015 4.132-8e-3 8.263-1e-3 12.394 0.01 3.374 2e-3 6.746-0.022 10.119-0.045 4.027-0.023 8.053-0.016 12.079-0.012 0.757-6e-3 0.757-6e-3 4.586-0.034 1.402 9e-3 2.804 0.019 4.248 0.028 1.235 1e-3 2.469 1e-3 3.741 1e-3 3.717 0.594 4.854 1.575 7.136 4.501 1.342 2.684 1.154 4.79 1.189 7.795 0.017 1.215 0.034 2.429 0.051 3.681 0.013 1.317 0.027 2.635 0.041 3.993 0.018 1.346 0.037 2.693 0.056 4.08 0.079 5.782 0.146 11.565 0.215 17.348 0.052 4.212 0.109 8.423 0.166 12.634 0.014 1.318 0.028 2.636 0.042 3.993 0.016 1.215 0.033 2.43 0.05 3.681 0.013 1.073 0.025 2.147 0.038 3.252 0.152 2.543 0.152 2.543 1.152 4.543 3.582 1.194 6.373 1.063 10.152 0.992 1.416-0.017 2.832-0.033 4.291-0.051 2.992-0.044 5.985-0.096 8.977-0.156 1.417-0.014 2.834-0.028 4.295-0.043 1.3-0.022 2.601-0.044 3.941-0.067 3.344 0.325 3.344 0.325 7.344 3.325 0.379 3.37 0.512 6.408 0.461 9.777-1e-3 0.963-2e-3 1.926-3e-3 2.918-6e-3 2.037-0.022 4.074-0.047 6.11-0.036 3.117-0.041 6.233-0.04 9.349-0.01 1.979-0.022 3.957-0.035 5.936-3e-3 0.932-5e-3 1.865-7e-3 2.825-0.065 4.435-0.312 7.051-2.329 11.085-2.313 0.938-2.313 0.938-5 1-0.725-0.479-1.449-0.959-2.196-1.453-5.616-3.098-12.519-2.341-18.804-2.547-1.168-0.076-2.336-0.152-3.539-0.23-7.659-0.352-7.659-0.352-11.649 2.543-2.566 3.804-2.94 6.523-2.958 11.006-6e-3 1.089-0.012 2.179-0.019 3.301-1e-3 1.181-2e-3 2.362-3e-3 3.579-4e-3 1.223-7e-3 2.446-0.01 3.706-5e-3 2.599-8e-3 5.197-8e-3 7.795-2e-3 3.927-0.02 7.852-0.039 11.779-0.035 15.216-0.015 29.796 4.225 44.521 0.46 3.92 0.814 7.837 1.144 11.77 0.283 1.066 0.565 2.132 0.856 3.23 2.437 1.289 2.437 1.289 5 2 1.386 1.623 2.726 3.287 4 5 2.67 1.335 4.79 1.161 7.777 1.211 1.153 0.028 2.306 0.057 3.494 0.086 2.44 0.052 4.88 0.096 7.321 0.133 1.154 0.031 2.308 0.062 3.498 0.093 1.06 0.02 2.121 0.04 3.214 0.061 2.696 0.416 2.696 0.416 5.696 3.416 0.387 2.422 0.387 2.422 0.404 5.326 6e-3 0.544 6e-3 0.544 0.038 3.297-3e-3 1.175-6e-3 2.35-9e-3 3.561 6e-3 1.207 0.011 2.414 0.016 3.657 7e-3 2.555 5e-3 5.11-3e-3 7.664-9e-3 3.914 0.02 7.826 0.052 11.739 1e-3 2.48 1e-3 4.96-2e-3 7.44 0.011 1.173 0.022 2.346 0.034 3.554-9e-3 1.091-0.019 2.183-0.029 3.307v2.906c-0.675 3.434-1.633 4.553-4.501 6.549-3.344 0.501-3.344 0.501-7.38 0.502-0.756 4e-3 -0.756 4e-3 -4.582 0.028-1.636-0.011-3.271-0.022-4.956-0.034-1.699 0-3.398 2e-3 -5.097 5e-3 -3.564 1e-3 -7.127-0.012-10.691-0.034-4.548-0.029-9.095-0.026-13.644-0.013-3.511 7e-3 -7.023-1e-3 -10.534-0.014-2.486-6e-3 -4.973-2e-3 -7.459 3e-3 -18.367-0.153-18.367-0.153-24.657-6.443-2.524-0.992-2.524-0.992-5.375-1.875-7.847-2.736-10.894-7.501-15.625-14.125-0.433-0.371-0.433-0.371-2.625-2.25-3.003-3.476-3.644-6.601-4.602-11.031-0.773-2.719-0.773-2.719-2.279-5.031-5.539-9.964-2.66-27.323-2.693-38.572-0.012-3.653-0.032-7.306-0.054-10.959-0.061-10.375-0.115-20.749-0.149-31.124-0.021-6.371-0.056-12.741-0.1-19.111-0.015-2.422-0.023-4.843-0.026-7.264-5e-3 -3.375-0.028-6.749-0.056-10.123 3e-3 -0.998 6e-3 -1.996 9e-3 -3.024-0.106-8.798-0.106-8.798-3.425-12.511-3.199-0.488-3.199-0.488-7.117-0.312-1.412 0.038-2.823 0.077-4.278 0.117l-8.937 0.39c-0.707 0.02-0.707 0.02-4.285 0.118-1.296 0.058-2.591 0.116-3.926 0.175-3.457-0.488-3.457-0.488-6.386-2.7-3.144-4.231-2.641-8.491-2.446-13.538 0.021-1.016 0.043-2.032 0.065-3.079 0.074-3.059 0.187-6.114 0.31-9.171 0.029-0.887 0.058-1.774 0.088-2.687 0.458-13.632 0.458-13.632 2.912-17.313 3.379-1.126 5.902-1.098 9.461-1.062 1.276 7e-3 2.552 0.015 3.867 0.023l8.07 0.078c0.64 4e-3 0.64 4e-3 3.875 0.024 1.17 0.011 2.34 0.023 3.545 0.035 2.874-0.088 5.382-0.497 8.182-1.098 6e-3 -0.738 0.011-1.477 0.018-2.237 0.063-7.69 0.148-15.379 0.244-23.068 0.033-2.869 0.061-5.738 0.084-8.608 0.034-4.125 0.086-8.25 0.142-12.376 6e-3 -1.281 0.013-2.563 0.019-3.883 0.02-1.201 0.04-2.402 0.06-3.639 0.011-1.053 0.023-2.105 0.034-3.19 0.484-3.639 1.374-5.93 3.399-8.999 4.367-2.947 7.935-3.381 13.135-3.404z" fill="#191919"/>
<path transform="translate(1453,643)" d="m0 0c2.685 4.028 2.252 6.671 2.254 11.51 3e-3 0.879 6e-3 1.758 9e-3 2.664 8e-3 2.957 2e-3 5.914-4e-3 8.871 2e-3 2.116 6e-3 4.231 0.01 6.346 0.01 5.754 6e-3 11.508 0 17.262-5e-3 6.012-1e-3 12.023 2e-3 18.035 4e-3 10.095-1e-3 20.191-0.01 30.286-0.011 11.687-8e-3 23.373 3e-3 35.059 9e-3 10.02 0.011 20.039 6e-3 30.059-4e-3 5.99-4e-3 11.981 3e-3 17.971 5e-3 5.63 1e-3 11.26-0.01 16.889-3e-3 2.072-2e-3 4.143 2e-3 6.214 6e-3 2.817-1e-3 5.634-0.011 8.451-1e-3 1.58-2e-3 3.16-2e-3 4.788-0.252 3.595-0.252 3.595-2.252 5.595-2.568 0.2-5.147 0.266-7.723 0.275-0.817 4e-3 -0.817 4e-3 -4.954 0.029l-5.385-3e-3c-1.831 4e-3 -3.662 8e-3 -5.493 0.013-3.84 7e-3 -7.68 7e-3 -11.52 2e-3 -4.93-6e-3 -9.86 0.011-14.79 0.034-3.781 0.015-7.563 0.016-11.344 0.013-1.818 0-3.636 5e-3 -5.455 0.015-2.537 0.013-5.075 4e-3 -7.613-6e-3 -1.447 1e-3 -2.893 2e-3 -4.383 2e-3 -0.551-0.062-0.551-0.062-3.34-0.374-2.587-3.88-2.22-6.081-2.167-10.732 0.014-1.633 0.028-3.265 0.042-4.948l0.078-5.433c0.021-1.89 0.04-3.781 0.06-5.671 0.054-5.112 0.122-10.223 0.194-15.335 0.043-3.192 0.082-6.384 0.12-9.576 0.385-32.415 1.066-64.815 2.018-97.218 0.386-13.374 0.742-26.73 0.608-40.11-9e-3 -1.028-0.018-2.055-0.028-3.114-0.047-4.52-0.125-9.037-0.263-13.555-0.026-1.476-0.053-2.952-0.08-4.472-0.039-1.242-0.078-2.484-0.118-3.764 0.536-3.072 0.536-3.072 2.638-5.228 3.533-2.248 5.63-2.37 9.796-2.422 1.382-0.026 2.764-0.052 4.187-0.079 1.487-7e-3 2.973-0.015 4.505-0.023 0.766-0.01 0.766-0.01 4.644-0.064 3.24-0.041 6.48-0.072 9.721-0.095 4.96-0.036 9.919-0.104 14.879-0.177 3.148-0.035 6.296-0.069 9.443-0.101 1.485-0.02 2.969-0.039 4.499-0.06 1.385-7e-3 2.77-0.014 4.196-0.022 1.216-0.01 2.431-0.02 3.683-0.03 3.486 0.239 6.146 0.829 9.345 2.229z" fill="#191919"/>
<path transform="translate(1383.5 559.5)" d="m0 0c1.512-9e-3 3.023-0.019 4.58-0.028 1.628 0.011 3.255 0.022 4.931 0.034 1.69-1e-3 3.379-2e-3 5.069-5e-3 3.536-1e-3 7.071 0.011 10.607 0.034 4.534 0.029 9.067 0.026 13.602 0.013 3.486-7e-3 6.972 1e-3 10.459 0.013 2.485 7e-3 4.971 3e-3 7.456-2e-3 1.506 0.013 3.011 0.026 4.562 0.039 1.328 5e-3 2.656 0.01 4.025 0.016 3.212 0.388 3.212 0.388 6.212 3.388 0.287 3.776 0.396 7.384 0.364 11.16 0 0.55 0 0.55 1e-3 3.336-2e-3 2.327-0.012 4.655-0.028 6.982-0.024 3.574-0.021 7.146-0.014 10.719-6e-3 2.258-0.013 4.517-0.022 6.775 1e-3 1.074 2e-3 2.148 3e-3 3.255-0.073 7.542-0.073 7.542-2.304 9.773-3.174 0.26-3.174 0.26-7.323 0.274-0.775 5e-3 -0.775 5e-3 -4.693 0.029-1.7 0-3.4-1e-3 -5.101-3e-3 -1.736 4e-3 -3.472 9e-3 -5.209 0.013-3.643 8e-3 -7.287 8e-3 -10.93 2e-3 -4.67-5e-3 -9.339 0.012-14.009 0.035-3.588 0.014-7.175 0.015-10.763 0.012-1.721 1e-3 -3.443 6e-3 -5.165 0.016-2.408 0.012-4.816 4e-3 -7.224-6e-3 -0.685 0-0.685 0-4.154 2e-3 -3.429-0.374-3.429-0.374-7.429-3.374 0.242-3.227 0.242-3.227 1-7 0.089-2.455 0.131-4.911 0.133-7.367 2e-3 -1.381 3e-3 -2.762 4e-3 -4.184-4e-3 -1.427-8e-3 -2.854-0.012-4.324 4e-3 -1.42 8e-3 -2.839 0.012-4.301-0.011-11.617-0.011-11.617-0.957-17.082-0.059-1.235-0.118-2.47-0.18-3.742 3.85-4.198 6.952-4.501 12.497-4.502z" fill="#191919"/>
<path transform="translate(2755.1 575.31)" d="m0 0c2.875 1.688 2.875 1.688 4.438 6 0.437 4.688 0.437 4.688-0.938 7.75-0.536 0.639-1.073 1.279-1.625 1.938-2-3-2-3-4-7-2.383-0.829-2.383-0.829-5.125-1.25-1.609-0.248-3.218-0.496-4.875-0.75 6.837-7.217 6.837-7.217 12.125-6.688z" fill="#191919"/>
<path transform="translate(2733,584)" d="m0 0c2.438 0.562 2.438 0.562 5 2 1.188 3.062 1.188 3.062 2 6l2 1v5c-1.46-0.955-2.918-1.914-4.375-2.875-0.812-0.534-1.624-1.067-2.461-1.617-2.164-1.508-2.164-1.508-4.164-3.508 0.556-4.556 0.556-4.556 2-6z" fill="#191919"/>
<path transform="translate(2732,572)" d="m0 0h2l-1 2-1-2z" fill="#191919"/>
</svg>
