<?xml version="1.0" encoding="UTF-8"?>
<svg version="1.1" viewBox="0 0 2448 1112" xmlns="http://www.w3.org/2000/svg">
<path transform="translate(1773.8 135.69)" d="m0 0c0.964-0.029 1.928-0.058 2.922-0.088 7.491-0.066 12.639 1.544 18.683 6.225 0.605 0.615 1.21 1.229 1.833 1.863 0.306 0.301 0.306 0.301 1.855 1.824 7.639 9.713 7.699 17.793 7.68 29.888 0.015 1.867 0.032 3.734 0.051 5.6 0.045 5.05 0.059 10.098 0.067 15.148 0.011 5.288 0.048 10.577 0.081 15.865 0.052 8.875 0.083 17.749 0.102 26.623 0.023 10.264 0.077 20.526 0.149 30.789 0.068 9.877 0.114 19.754 0.149 29.632 0.015 4.203 0.039 8.406 0.069 12.608 0.034 4.944 0.048 9.888 0.046 14.831 3e-3 1.816 0.013 3.632 0.03 5.447 0.022 2.475 0.016 4.949 0.01 7.424 4e-3 1.386 9e-3 2.771 0.014 4.199-0.566 3.96-1.364 5.046-4.491 7.434-0.95 0.632-1.9 1.264-2.879 1.915-3.342 2.233-6.129 4.712-9.059 7.461-3.194 2.982-6.358 5.865-9.75 8.624-7.366 6.672-12.889 14.736-18.312 23-0.495 0.496-0.495 0.496-3 3-1.003 2.234-2.003 4.468-2.957 6.723-1.366 2.984-3.198 5.571-5.043 8.277-2.598 4.676-2.72 9.78-2 15 1.796 2.935 2.944 4.473 6 6 11.601 1.108 11.601 1.108 16-2.374 0.66-0.867 1.32-1.733 2-2.626 2.5-1.624 2.5-1.624 5-2 3.973 2.744 4.935 4.757 6.188 9.438 2.484 6.255 6.076 7.565 11.812 10.562 1.689 1.306 3.36 2.634 5 4 0.922 0.596 1.843 1.192 2.793 1.805 3.201 2.192 5.935 4.551 8.769 7.195 1.803 1.678 3.615 3.345 5.438 5 0.793 0.743 1.586 1.486 2.402 2.25 3.198 2.154 5.795 2.452 9.598 2.75 0.112-1.388 0.224-2.776 0.34-4.207 1.32-13.32 3.637-21.113 14.226-29.929 4.579-3.446 8.731-5.748 14.434-6.864 0.375-3.75 0.375-3.75 0-8-2.625-2.062-2.625-2.062-6-4-0.928-1.113-1.856-2.227-2.812-3.374-3.936-4.477-8.742-9.181-14.883-9.973-0.761-0.215-1.521-0.431-2.305-0.653-1.326-3.273-1.509-6.474-2-10-2.31-0.33-4.62-0.659-7-1-0.33 3.301-0.66 6.601-1 10-0.857 0.11-1.714 0.22-2.598 0.333-6.34 0.879-11.54 2.05-17.402 4.667-12.4 3.541-12.4 3.541-18 2 0.501-4.42 1.963-6.493 5-9.687 3.933-4.179 3.933-4.179 5-6.313h2l1-3c4.457-4 4.457-4 7-4 0.66-1.319 1.32-2.639 2-4 5.108-4.736 11.083-8.373 17-12 1.196-0.928 2.392-1.856 3.625-2.812 3.585-2.324 5.206-2.696 9.375-2.188 1.539 4.619 0.042 8.283-1 13 1.011 0.186 2.021 0.372 3.062 0.563 4.955 1.809 7.305 4.672 10.938 8.437 4.719 3.113 8.389 3.46 14 3 0.99-0.659 1.98-1.319 3-2 0.731-6.269-0.545-8.932-4-14 0.66-1.319 1.32-2.639 2-4 3.529-0.932 5.915-1.453 9.337-0.022 3.147 1.208 5.587 1.266 8.952 1.253 1.189-2e-3 2.377-4e-3 3.602-6e-3 1.232-0.012 2.464-0.024 3.734-0.037 1.24-1e-3 2.48-1e-3 3.758-2e-3 9.195-0.045 9.195-0.045 12.617-1.186 2.421-0.048 4.844-0.036 7.266 8e-3 1.447 0.017 2.895 0.034 4.386 0.051 3.05 0.044 6.099 0.096 9.149 0.156 0.726 7e-3 0.726 7e-3 4.402 0.043 1.327 0.022 2.654 0.044 4.021 0.067 4.14-0.356 7.028-1.591 10.776-3.325 10.231-0.196 18.93 7.366 26 14 1.373 1.17 2.748 2.337 4.125 3.5 4.699 4.111 8.533 8.831 12.437 13.688 2.438 2.813 2.438 2.813 5.188 4.938 2.25 1.874 2.25 1.874 3.25 5.874-0.33 0.661-0.66 1.32-1 2-2.941 0.196-2.941 0.196-6.562 0.126-1.198-0.019-2.396-0.037-3.629-0.055-0.464-0.012-0.464-0.012-2.809-0.071 0.494 4.278 1.048 7.096 3 11-3.63-0.66-7.26-1.319-11-2 0.186 1.692 0.371 3.383 0.562 5.126 0.032 3.074 0.032 3.074-0.562 5.874-1.969 1.645-1.969 1.645-4.438 2.938-2.507 1.34-2.507 1.34-4.562 3.062-0.75 3.11-0.819 5.81-0.707 9-0.591 6.051-5.14 10.078-9.168 14.313-8.891 9.638-15.307 19.555-16.5 32.875 0.543 6.964 1.494 15.092 6.77 20.074 5.993 3.999 9.62 4.007 16.605 3.738 0.66-0.329 1.32-0.66 2-1 3.562-0.124 3.562-0.124 7 0 2.369 2.369 1.185 8.703 1.188 12.063 0.012 1.025 0.024 2.051 0.037 3.107 0.011 5.973-0.64 11.035-2.225 16.83-0.23 3.372-0.23 3.372-0.188 6.438 7e-3 1.03 0.013 2.06 0.02 3.121 0.168 2.441 0.168 2.441 1.168 3.441 3.625 0.626 3.625 0.626 8 0 5.553-4.696 8.567-11.719 11.543-18.203 1.528-2.932 3.378-5.236 5.457-7.797 1.904-4.321 3.039-8.218 3.875-12.874 0.671-3.715 1.732-6.517 3.563-9.813 2.336-4.298 3.238-8.246 4.062-13.063 1.005-5.607 1.797-9.579 6.5-13.25 1.32 0.33 2.64 0.661 4 1 0.256 8.086-1.73 15.376-3.625 23.188-0.166 0.721-0.166 0.721-1.004 4.369-2.132 8.855-4.974 16.483-9.371 24.443-0.598 1.3-1.196 2.599-1.812 3.938-2.662 4.942-5.774 9.435-9.04 13.996-2.148 3.066-2.148 3.066-4.46 7.192-3.549 3.795-6.571 3.959-11.551 4.933-4.538 1.362-7.429 3.989-10.942 7.078-2.53 2.148-5.21 3.445-8.195 4.863-2 3-2 3-2.938 6.5-1.311 4.322-3.049 5.897-6.89 8.184-7.441 3.814-14.548 6.514-22.699 8.395-3.684 0.978-6.977 2.415-10.473 3.921-7.152 1.927-14.878 1.225-22.235 1.241-2.794 9e-3 -5.587 0.04-8.38 0.072-9.497 0.057-18.3-0.255-27.385-3.313-0.846-0.261-1.692-0.523-2.564-0.792-2.365-0.743-4.713-1.537-7.061-2.332-1.539-0.519-3.078-1.037-4.664-1.571-3.711-1.305-3.711-1.305-5.711-2.305-3.625-0.624-3.625-0.624-8 0-3.134 2.629-5.511 5.771-8 9-9.951 11.982-9.951 11.982-16 16h-5c-2.535-2.851-2.535-2.851-5.062-6.624-0.837-1.23-1.674-2.46-2.536-3.727-0.792-1.204-1.585-2.408-2.402-3.649-3.809-5.764-3.809-5.764-5.875-8.312-2.351-2.973-4.408-6.071-6.492-9.234-2.799-4.206-5.723-8.324-8.633-12.454-3.896-5.529-7.737-11.083-11.473-16.722-2.201-3.282-4.471-6.514-6.746-9.746-1.748-2.484-3.483-4.976-5.219-7.469-3.185-4.559-6.461-9.046-9.765-13.52-1.797-2.543-1.797-2.543-3.231-4.945-1.958-3.247-4.156-6.275-6.378-9.348-11.188-15.593-11.188-15.593-11.188-18.25-0.99-0.329-1.98-0.66-3-1-1.543-2.335-1.543-2.335-3.188-5.374-2.966-5.272-6.221-10.115-9.832-14.961-2.535-3.411-4.958-6.893-7.382-10.383-1.422-2.03-2.882-4.033-4.348-6.032-2.25-3.25-2.25-3.25-3.812-6.437-1.438-2.813-1.438-2.813-3.254-4.598-2.58-2.616-4.503-5.421-6.559-8.465-2.555-3.748-5.113-7.463-7.875-11.062-2.75-3.688-2.75-3.688-5.125-7.5-2.066-3.295-4.194-6.378-6.5-9.5-2.69-3.652-5.222-7.341-7.625-11.188-4.141-6.614-8.629-12.997-13.578-19.035-1.776-2.277-3.141-4.478-4.484-7.027-1.648-3.116-3.284-5.565-5.438-8.438-2.162-7.365-1.929-16.459 0-23.812 5.411-8.623 12.39-18.419 22.875-20.855 13.431-1.428 22.697 0.217 33.582 8.429 3.741 3.293 6.067 6.959 8.543 11.238 0.988 1.529 1.989 3.05 3 4.563 0.496 0.745 0.993 1.49 1.504 2.258 1.892 2.757 3.904 5.419 5.926 8.082 3.979 5.316 7.783 10.751 11.258 16.41 1.959 3.125 3.999 5.83 6.312 8.687 3.526 4.76 6.638 9.109 8.875 14.626 0.701 1.113 1.402 2.227 2.125 3.374 4.633 0.211 4.633 0.211 9 0 1e-3 -1.21 1e-3 -2.42 2e-3 -3.667 0.014-29.471 0.057-58.943 0.13-88.414 0.035-14.252 0.06-28.504 0.064-42.756 3e-3 -12.424 0.023-24.848 0.065-37.273 0.021-6.576 0.033-13.153 0.025-19.729-7e-3 -6.196 8e-3 -12.391 0.042-18.586 8e-3 -2.269 8e-3 -4.537-1e-3 -6.806-0.055-14.47 0.314-27.072 10.841-38.081 7.586-6.987 13.572-7.901 23.582-8zm71.25 362.31c-0.447 5.278 0.155 10.001 1.02 15.208 1.572 11.546 1.118 23.168 0.98 34.792-0.053 4.563-0.093 9.125-0.125 13.688-0.017 1.032-0.033 2.065-0.05 3.128-0.064 9.342 1.465 15.535 8.038 22.392 2.137 1.792 2.137 1.792 5.512 2.918 4.82-1.496 7.302-4.324 10.867-7.813 3.724-3.122 7.625-4.461 12.133-6.141 3.638-1.624 5.335-3.966 7.625-7.172 1.134-0.948 2.269-1.897 3.438-2.874 6.315-5.54 9.77-11.149 12.562-19.126 0.99-1.319 1.98-2.639 3-4 0.5-3.5 0.5-3.5 0-7-3.418-4.006-8.525-5.716-13.281-7.753-4.862-2.229-8.288-4.551-11.781-8.621-0.69-0.796-1.38-1.591-2.09-2.411-1.369-1.64-2.685-3.323-3.973-5.027-2.319-2.706-4.885-4.248-7.875-6.188-5-3.333-10-6.666-15-10-7.314-0.457-7.314-0.457-11 2z" fill="#4B197D"/>
<path transform="translate(362,576)" d="m0 0c1.764 0.523 3.535 1.023 5.312 1.5 4.579 1.465 5.644 2.151 8.688 5.5 1.279 0.639 2.558 1.279 3.875 1.938 3.981 1.99 6.786 4.159 10.125 7.062 0.928 0.606 1.856 1.212 2.812 1.836 3.275 2.223 6.134 4.63 9.063 7.289 0.967 0.869 1.934 1.738 2.93 2.633 2.195 2.242 2.195 2.242 2.195 4.242l4 2 2 2c-0.379 6.449-5.299 9.958-9.625 14.25-0.795 0.828-1.591 1.655-2.41 2.508-3.558 3.563-6.023 5.939-10.871 7.5-3.094-0.258-3.094-0.258-5.969-3.633-0.244-0.369-0.244-0.369-1.48-2.238-4.991-7.243-11.568-12.341-19.067-16.782-2.578-1.605-2.578-1.605-5.035-3.675-2.794-2.12-5.132-2.997-8.481-3.992-4.274-1.329-8.058-2.936-12.062-4.938-7.178-1.507-14.449-1.224-21.75-1.25-1.415-0.021-2.831-0.041-4.289-0.062-7.993-0.03-14.46 0.53-21.961 3.312-1.035 0.351-2.07 0.701-3.137 1.062-14.202 5.22-14.202 5.22-19.863 9.938-1.43 0.948-2.869 1.885-4.312 2.812-7.594 5.05-13.103 10.299-18.168 17.915-1.52 2.273-1.52 2.273-3.582 4.773-5.9 7.613-9.074 15.227-11.762 24.473-1.176 4.027-1.176 4.027-2.785 8.125-2.106 6.29-1.965 12.703-1.953 19.277v4.016c0.194 11.208 2.29 20.277 6.562 30.609 0.483 1.364 0.967 2.728 1.465 4.133 3.625 9.131 9.967 16.679 16.535 23.867 0.763 0.99 1.526 1.98 2.312 3 5.351 5.972 11.941 10.707 18.688 15 0.908 0.681 1.815 1.361 2.75 2.062 3.536 2.109 6.777 3.069 10.719 4.149 3.727 1.162 7.071 3 10.531 4.789 6.625 1.656 13.385 1.227 20.188 1.25 1.48 0.021 2.96 0.041 4.486 0.062 11.636 0.042 18.98-1.972 29.326-7.312 1.134-0.433 2.269-0.866 3.438-1.312 12.849-6.087 22.094-17.956 29.562-29.688 0.598-0.928 1.196-1.856 1.812-2.812 2.343-4.316 2.378-8.515 2.438-13.313 0.026-1.24 0.052-2.48 0.078-3.758-0.108-1.028-0.216-2.057-0.328-3.117-4.475-2.983-9.162-2.319-14.379-2.344-0.561-7e-3 -0.561-7e-3 -3.403-0.044-4.814-0.062-9.628-0.102-14.442-0.144-3.51-0.033-7.02-0.079-10.53-0.124-1.096-6e-3 -2.192-0.011-3.321-0.016-7.699-0.102-7.699-0.102-9.925-2.328-1.074-5.379-1.195-10.714-1.25-16.188-0.013-0.78-0.013-0.78-0.078-4.73 0.328-4.082 0.328-4.082 3.328-8.082 3.751-0.501 3.751-0.501 8.539-0.502 0.872-5e-3 1.743-0.011 2.642-0.016 2.886-0.013 5.772 4e-3 8.659 0.022 2.004 0 4.008-2e-3 6.012-5e-3 4.202-1e-3 8.404 0.012 12.607 0.034 5.388 0.029 10.776 0.026 16.164 0.013 4.14-7e-3 8.279 1e-3 12.418 0.014 1.987 4e-3 3.973 4e-3 5.96 1e-3 2.777-3e-3 5.554 0.013 8.331 0.035 1.581 5e-3 3.162 0.011 4.79 0.016 3.878 0.388 3.878 0.388 7.878 3.388 0.394 2.856 0.394 2.856 0.242 6.328-0.047 1.268-0.095 2.536-0.143 3.843-0.037 0.673-0.037 0.673-0.224 4.079-0.063 1.364-0.127 2.728-0.192 4.134-1.267 25.111-1.267 25.111-6.464 34.221-1.34 2.632-1.989 5.085-2.657 7.957-1.193 4.831-3.107 8.291-6.062 12.27-1.5 2.168-1.5 2.168-2.883 5.082-1.788 3.413-3.863 5.84-6.492 8.648-0.843 0.909-1.686 1.818-2.555 2.754-7.006 7.316-7.006 7.316-10.632 9.684-2.938 2-2.938 2-4.688 4.438-2.864 3.261-5.911 4.561-9.809 6.371-2.441 1.191-2.441 1.191-5.379 3.316-3.685 2.256-7.184 3.068-11.355 4.09-2.707 0.785-2.707 0.785-6.395 2.847-18.034 8.103-52.959 7.577-71.417 0.797-1.832-0.839-3.646-1.719-5.434-2.648-2.461-1.211-2.461-1.211-7.273-2.523-11.558-3.284-21.326-10.841-30.188-18.688-0.95-0.829-1.9-1.658-2.879-2.512-8.012-7.118-14.596-14.279-20.121-23.488-0.495-0.66-0.495-0.66-3-4-1.351-2.658-2.683-5.325-4-8-0.319-0.54-0.319-0.54-1.934-3.273-13.766-24.827-15.222-60.842-8.218-88.016 0.964-3.273 2.036-6.487 3.152-9.711 0.383-1.19 0.766-2.38 1.16-3.605 2.104-6.312 4.329-11.804 8.25-17.192 1.782-2.469 3.327-5.035 4.902-7.641 3.086-4.888 6.618-9.07 10.575-13.273 2.113-2.289 2.113-2.289 4.078-4.824 4.893-5.926 11.638-10.3 18.035-14.465 0.784-0.66 1.567-1.32 2.375-2 3.325-2.533 6.867-4.178 10.625-6 1.093-0.681 2.186-1.361 3.312-2.062 3.87-2.033 7.414-3.059 11.649-4.032 3.039-0.906 3.039-0.906 7.281-2.922 4.731-2.148 9.355-2.858 14.508-3.234 0.902-0.075 1.804-0.15 2.733-0.228 22.051-1.671 44.126-1.844 64.517 7.478z" fill="#4B197D"/>
<path transform="translate(1469.3 574.5)" d="m0 0c3.14 1.277 6.037 2.126 9.312 2.938 4.389 1.152 6.998 2.458 10.376 5.562 0.587 0.361 0.587 0.361 3.562 2.188 10.351 6.401 19.035 14.051 27.438 22.812 0.97 0.83 1.941 1.66 2.941 2.516 0.679 0.819 1.359 1.639 2.059 2.484-1.611 6.137-6.461 9.974-10.813 14.312-0.808 0.836-1.615 1.672-2.447 2.534-0.787 0.789-1.574 1.579-2.385 2.392-0.715 0.723-1.43 1.445-2.167 2.189-2.188 1.573-2.188 1.573-7.188 1.573-2.833-2.598-2.833-2.598-5.813-6.062-6.183-6.98-12.257-12.939-20.187-17.938-0.867-0.66-1.733-1.32-2.626-2-4.034-2.391-8.079-3.656-12.539-5.055-3.113-1.038-5.905-2.48-8.835-3.945-7.024-1.473-14.107-1.184-21.25-1.188-1.368-0.012-2.736-0.024-4.145-0.037-11.171-0.016-19.565 1.048-29.605 6.225-1.7 0.508-3.409 0.987-5.126 1.438-4.631 1.311-7.293 3.285-10.874 6.562-1.382 0.866-2.764 1.732-4.188 2.625-11.627 7.653-20.712 18.972-26.812 31.375-0.645 1.045-1.29 2.091-1.954 3.168-9.542 17.865-13.159 42.437-7.359 62.02 0.752 1.944 1.524 3.882 2.313 5.812 0.819 2.602 1.631 5.206 2.437 7.812 6.267 18.445 20.926 34.754 37.645 44.461 2.918 1.727 2.918 1.727 6.918 4.727 1.956 0.732 3.938 1.395 5.937 2 3.155 0.957 5.808 1.845 8.629 3.562 6.863 4.055 16.005 2.661 23.684 2.688 1.475 0.021 2.951 0.041 4.472 0.062 11.572 0.042 19.004-1.923 29.278-7.312 0.948-0.451 1.897-0.902 2.874-1.367 12.449-6.505 22.796-16.155 29.126-28.633 0.721-1.011 1.443-2.021 2.187-3.062 3.43-5.559 4.309-11.485 3.813-17.938-2-4-2-4-4-5-3.681-0.122-7.346-0.186-11.028-0.211-2.258-0.028-4.517-0.057-6.775-0.086-3.573-0.041-7.146-0.078-10.719-0.104-3.44-0.028-6.879-0.074-10.318-0.122-1.072-4e-3 -2.144-7e-3 -3.249-0.01-7.571-0.126-7.571-0.126-10.911-3.467-0.465-2.388-0.465-2.388-0.583-5.184-0.044-1.01-0.088-2.02-0.134-3.06-0.016-0.527-0.016-0.527-0.096-3.194-0.051-1.049-0.102-2.099-0.154-3.181-0.296-7.857-0.296-7.857 1.967-12.381 3.287-1.644 6.69-1.145 10.333-1.161 0.862-5e-3 1.724-0.01 2.612-0.015 2.859-0.015 5.719-0.022 8.578-0.027 1.983-6e-3 3.966-0.012 5.949-0.017 4.161-0.011 8.322-0.017 12.484-0.02 5.335-6e-3 10.671-0.03 16.006-0.058 4.097-0.019 8.194-0.024 12.292-0.026 1.967-3e-3 3.934-0.011 5.901-0.024 2.751-0.017 5.501-0.015 8.252-8e-3 0.783-2e-3 0.783-2e-3 4.746-0.011 3.847 0.367 3.847 0.367 7.847 3.367 0.394 2.749 0.394 2.749 0.242 6.074-0.048 1.218-0.095 2.435-0.144 3.689-0.037 0.648-0.037 0.648-0.224 3.925-0.032 0.658-0.032 0.658-0.194 3.992-0.198 3.776-0.431 7.547-0.68 11.32-0.105 1.645-0.209 3.29-0.317 4.984-0.749 7.981-2.759 14.502-6.168 21.75-1.426 3.072-2.56 6.122-3.641 9.328-1.414 4.005-3.03 6.738-5.874 9.938-0.565 1.049-1.13 2.099-1.711 3.18-2.531 4.222-5.529 7.662-8.915 11.195-0.621 0.653-1.242 1.307-1.881 1.98-7.143 7.451-13.741 14.298-23.263 18.594-2.23 1.051-2.23 1.051-5.168 3.176-3.635 2.226-7.047 3.054-11.184 3.969-2.878 0.906-2.878 0.906-6.25 2.922-16.649 9.104-49.48 5.719-67.628 1.984-2.616-0.829-5.045-1.779-7.532-2.934-3.009-1.3-6.061-2.125-9.218-3.004-5.182-1.547-8.225-3.394-12.25-7.062-1.485-0.66-2.971-1.32-4.5-2-8.766-4.15-15.536-11.99-22.266-18.797-2.234-2.203-2.234-2.203-4.672-3.953-3.675-3.226-5.965-7.141-8.562-11.25-0.351-0.505-0.351-0.505-2.126-3.062-2.245-3.518-4.009-7.208-5.874-10.938-0.991-1.32-1.981-2.64-3-4-0.712-1.893-1.354-3.814-1.938-5.75-1.103-3.649-2.309-6.713-4.113-10.094-8.815-18.796-6.793-55.658-0.575-75.094 0.537-1.34 1.073-2.681 1.626-4.062 0.669-1.895 1.335-3.791 2-5.688 2.33-6.337 5.229-11.714 9-17.312 0.577-1.052 1.154-2.104 1.75-3.188 10.805-18.309 25.295-30.759 43.25-41.812 1.031-0.701 2.062-1.403 3.124-2.125 4.409-2.875 8.064-4.701 13.25-5.813 4.626-1.062 4.626-1.062 8.626-3.062 20.491-10.246 58.819-7.78 79.312 1.5z" fill="#4B197D"/>
<path transform="translate(773,550)" d="m0 0c2.583 5.156 2.259 10.313 2.211 15.953-1e-3 1.105-2e-3 2.209-4e-3 3.347-6e-3 3.65-0.027 7.3-0.047 10.95-6e-3 2.537-0.011 5.074-0.016 7.61-0.013 6.68-0.037 13.359-0.065 20.038-0.043 10.691-0.073 21.382-0.096 32.074-0.01 3.736-0.027 7.472-0.045 11.209-7e-3 2.288-0.013 4.577-0.02 6.866-3e-3 0.52-3e-3 0.52-0.02 3.152-7e-3 4.41 0.135 8.5 1.102 12.801 6.994-0.109 9.559-1.135 14.703-6.156 4.449-3.572 9.958-5.023 15.297-6.844 1.249-0.535 2.498-1.07 3.785-1.621 4.815-1.575 9.149-1.787 14.153-1.691 0.421-2e-3 0.421-2e-3 2.552-0.01 17.632 0.149 33.546 8.037 46.26 19.884 0.743 0.805 1.485 1.609 2.25 2.438 0.784 0.846 1.567 1.691 2.375 2.562 16.931 22.172 19.836 47.286 16.387 74.317-1.126 6.092-3.23 11.491-5.762 17.121-0.354 0.866-0.709 1.732-1.074 2.625-1.826 4.388-3.916 7.738-6.926 11.375-0.663 0.862-1.325 1.725-2.008 2.613-7.627 9.724-15.716 16.352-26.992 21.387-0.577 0.289-0.577 0.289-3.5 1.75-13.781 4.922-35.697 4.309-49.16-1.266-9.29-4.419-9.29-4.419-13.012-8.195-2.328-2.289-2.328-2.289-6.14-2.601-0.526 0.051-0.526 0.051-3.188 0.312-0.205 0.71-0.41 1.421-0.621 2.152-0.27 0.919-0.539 1.839-0.817 2.786-0.266 0.916-0.533 1.833-0.808 2.777-0.754 2.285-0.754 2.285-1.754 3.285-4.096 0.309-8.206 0.278-12.312 0.312-1.155 0.03-2.309 0.059-3.499 0.088-1.11 9e-3 -2.221 0.017-3.365 0.026-0.51 7e-3 -0.51 7e-3 -3.091 0.044-3.673-0.632-4.558-1.425-6.733-4.47-0.389-3.484-0.531-6.65-0.494-10.135-5e-3 -1.042-0.01-2.084-0.015-3.157-0.011-3.503 6e-3 -7.004 0.023-10.507-2e-3 -2.506-6e-3 -5.013-0.011-7.519-0.01-6.816 5e-3 -13.632 0.026-20.448 0.017-7.123 0.014-14.247 0.013-21.371 2e-3 -11.964 0.019-23.928 0.046-35.893 0.032-13.844 0.042-27.688 0.041-41.532-1e-3 -13.303 9e-3 -26.605 0.025-39.908 8e-3 -5.668 0.011-11.336 0.012-17.004 2e-3 -6.672 0.014-13.343 0.035-20.014 5e-3 -2.453 8e-3 -4.906 7e-3 -7.358-1e-3 -3.34 0.01-6.679 0.025-10.019-4e-3 -0.978-7e-3 -1.956-0.01-2.963 0.032-4.477 0.24-7.098 2.277-11.172 3.591-1.796 7.789-1.477 11.75-1.688 0.895-0.059 1.789-0.119 2.711-0.181 4.906-0.264 9.14-0.489 13.539 1.869zm13.25 149.31c-8.857 10.05-12.397 17.973-13 31.563-0.041 0.908-0.082 1.816-0.124 2.752-0.458 13.565-0.265 26.621 8.874 37.373 0.681 0.928 1.361 1.856 2.062 2.812 9.268 10.056 19.501 14.008 32.938 15.688 11.665-1.458 20.479-4.244 29-12.5 0.928-0.866 1.856-1.733 2.812-2.625 0.722-0.784 1.444-1.567 2.188-2.375 0.791-0.843 1.583-1.686 2.398-2.555 6.613-8.757 10.943-22.616 10.278-33.613-3.426-19.424-10.262-33.31-26.676-44.832-6.376-4.251-11.775-4.158-19.375-4.188-0.819-7e-3 -0.819-7e-3 -4.961-0.042-10.505 0.519-18.868 5.37-26.414 12.542z" fill="#4B197D"/>
<path transform="translate(1861.1 86.688)" d="m0 0c0.676 0.167 0.676 0.167 4.098 1.012 8.559 2.899 12.153 7.987 16.84 15.3 0.783 1.156 1.567 2.311 2.374 3.5 4.52 9.735 2.737 22.219 2.679 32.764-7e-3 1.947-0.013 3.895-0.019 5.842-0.018 5.264-0.043 10.528-0.069 15.792-0.022 4.396-0.04 8.793-0.059 13.19-0.045 10.366-0.095 20.731-0.148 31.097-0.056 10.699-0.1 21.399-0.138 32.099-0.034 9.191-0.075 18.382-0.123 27.572-0.028 5.488-0.053 10.976-0.07 16.464-0.017 5.152-0.043 10.304-0.077 15.457-0.01 1.893-0.018 3.787-0.021 5.68-6e-3 2.578-0.023 5.155-0.044 7.733-7e-3 1.445-0.014 2.889-0.021 4.377-0.264 3.433-0.264 3.433-2.264 6.433-2.985 0.59-2.985 0.59-6.75 0.938-6.538 0.746-12.484 2.132-18.762 4.059-3.6 1.036-7.187 1.787-10.864 2.503-5.423 1.119-9.763 2.781-14.624 5.5-9.065 4.364-9.065 4.364-14 5-1.679-3.356-1.153-6.922-1.175-10.636-6e-3 -0.905-0.013-1.811-0.019-2.743-0.021-3.052-0.034-6.104-0.047-9.156-0.013-2.181-0.026-4.363-0.039-6.544-0.117-19.957-0.173-39.916-0.217-59.874-0.033-14.747-0.093-29.493-0.188-44.24-0.064-10.373-0.098-20.746-0.109-31.119-7e-3 -6.191-0.028-12.382-0.083-18.573-0.051-5.836-0.063-11.671-0.047-17.507 0-2.132-0.014-4.264-0.044-6.395-0.198-15.288 1.892-27.279 12.155-39.463 9.221-6.651 20.943-8.871 31.875-6.062z" fill="#4B197D"/>
<path transform="translate(1930.9 104.56)" d="m0 0c1.524-0.019 3.047-0.039 4.617-0.059 8.746 0.963 16.596 6.08 22.508 12.497 5.569 9.729 8.248 20.145 8.254 31.337 6e-3 1.621 0.011 3.242 0.017 4.911l-0.012 5.319c3e-3 1.885 6e-3 3.77 0.01 5.654 9e-3 5.099 6e-3 10.198 0 15.297-5e-3 5.341-1e-3 10.683 2e-3 16.024 4e-3 8.964-1e-3 17.929-0.01 26.893-0.011 10.364-8e-3 20.728 3e-3 31.092 9e-3 8.904 0.011 17.809 6e-3 26.714-4e-3 5.316-4e-3 10.631 3e-3 15.947 5e-3 4.994 1e-3 9.988-0.01 14.982-3e-3 1.833-2e-3 3.666 2e-3 5.499 6e-3 2.5-2e-3 5-0.011 7.501-1e-3 1.399-2e-3 2.799-2e-3 4.241-0.237 3.37-0.667 5.626-2.252 8.589-0.66 0.33-1.32 0.659-2 1-2.342-0.815-4.65-1.729-6.937-2.688-0.682-0.279-0.682-0.279-4.133-1.691-1.297-0.535-2.594-1.07-3.93-1.621-8.081-3.321-16.213-5.28-24.766-7.071-2.66-0.584-5.306-1.247-7.918-2.019-4.024-1.105-7.811-1.292-11.961-1.469-0.388-0.073-0.388-0.073-2.355-0.441-2.542-3.813-2.254-5.921-2.261-10.489-7e-3 -1.585-0.014-3.169-0.021-4.801 2e-3 -1.763 5e-3 -3.526 7e-3 -5.29-4e-3 -1.851-9e-3 -3.702-0.015-5.553-0.014-5.035-0.014-10.07-0.012-15.106 1e-3 -4.202-3e-3 -8.404-8e-3 -12.606-0.011-9.916-0.012-19.831-6e-3 -29.747 6e-3 -10.228-6e-3 -20.457-0.027-30.686-0.018-8.779-0.024-17.559-0.021-26.339 2e-3 -5.244 0-10.489-0.014-15.733-0.013-4.935-0.011-9.869 2e-3 -14.804 2e-3 -1.809 0-3.619-9e-3 -5.428-0.01-2.474 0-4.948 0.011-7.422 0-1.383-1e-3 -2.767-1e-3 -4.192 0.787-7.985 4.989-14.096 10.375-19.804 4.063-2.876 4.063-2.876 8-5 0.888-0.53 1.776-1.06 2.691-1.606 4.216-1.777 7.619-1.828 12.184-1.832z" fill="#4B197D"/>
<path transform="translate(2029,162)" d="m0 0c9.03 6.189 11.808 14.593 14 25 0.838 7.622 0.645 15.303 0.583 22.958 1e-3 2.272 3e-3 4.543 8e-3 6.815 5e-3 6.121-0.02 12.242-0.051 18.363-0.028 6.419-0.028 12.838-0.031 19.257-9e-3 10.763-0.036 21.525-0.077 32.288-0.057 15.188-0.079 30.376-0.095 45.564-0.013 10.526-0.033 21.051-0.056 31.577-5e-3 2.551-0.01 5.102-0.015 7.654-0.014 7.262-0.034 14.524-0.061 21.786-8e-3 2.201-0.014 4.402-0.019 6.603-6e-3 2.997-0.018 5.995-0.032 8.992 0 0.438 0 0.438-2e-3 2.655-0.023 3.724-0.243 6.853-1.152 10.488-4-1-4-1-6.5-4.562-2.361-4.051-4.456-8.218-6.5-12.438-3.491-7.087-6.911-12.964-12-19-1.469-1.948-2.937-3.896-4.395-5.852-1.71-2.288-3.431-4.567-5.167-6.836-0.538-0.705-1.076-1.41-1.629-2.136-7.234-8.702-16.551-15.521-25.911-21.766-1.898-1.41-1.898-1.41-2.898-3.41-0.099-2.108-0.131-4.22-0.134-6.33-4e-3 -1.353-8e-3 -2.706-0.013-4.1 1e-3 -1.493 1e-3 -2.987 2e-3 -4.525-4e-3 -1.566-7e-3 -3.132-0.01-4.746-8e-3 -4.306-0.012-8.612-0.012-12.918-1e-3 -3.595-5e-3 -7.191-8e-3 -10.786-9e-3 -8.489-0.011-16.977-0.01-25.465 0-8.748-0.01-17.496-0.026-26.243-0.013-7.513-0.018-15.026-0.018-22.538 0-4.486-2e-3 -8.971-0.013-13.457-0.012-5.01-7e-3 -10.02-1e-3 -15.031-6e-3 -1.479-0.011-2.959-0.017-4.483 0.043-14.167 2.158-21.756 11.822-32.128 13.514-8.845 26.517-9.094 40.438-1.25z" fill="#4B197D"/>
<path transform="translate(997.94 657.62)" d="m0 0c0.883 0.01 1.766 0.02 2.676 0.031 6.503 0.155 11.386 0.912 17.386 3.344 0.571 0.218 0.571 0.218 3.458 1.324 10.378 4.141 10.378 4.141 14.418 8.051 3.124 2.625 3.124 2.625 7.374 3.5 1.238-0.289 2.475-0.577 3.75-0.875 1.876-3.875 1.876-3.875 3-8 3.647-3.646 9.51-2.37 14.438-2.375 1.158-0.024 2.316-0.049 3.51-0.074 1.109-4e-3 2.218-8e-3 3.361-0.012 0.51-4e-3 0.51-4e-3 3.088-0.025 2.603 0.486 2.603 0.486 5.603 4.486 0.378 2.68 0.378 2.68 0.381 5.8 9e-3 1.185 0.017 2.37 0.026 3.59-3e-3 0.648-3e-3 0.648-0.018 3.928 2e-3 0.684 2e-3 0.684 0.016 4.145 0.013 4.532 4e-3 9.064-6e-3 13.596 2e-3 3.143 5e-3 6.287 9e-3 9.43 4e-3 6.593-2e-3 13.187-0.016 19.78-0.017 7.62-0.011 15.239 5e-3 22.859 0.015 7.332 0.014 14.664 5e-3 21.996-2e-3 3.119 0 6.238 7e-3 9.357 8e-3 4.357-4e-3 8.714-0.02 13.071 6e-3 1.295 0.012 2.589 0.018 3.922-4e-3 0.594-4e-3 0.594-0.026 3.599-1e-3 1.03-2e-3 2.06-3e-3 3.121-0.441 3.279-1.391 5.176-3.378 7.806-2.587 0.631-2.587 0.631-5.656 0.629-0.552 1e-3 -0.552 1e-3 -3.347 6e-3 -1.154-0.024-2.308-0.048-3.497-0.072-0.576 5e-3 -0.576 5e-3 -3.496 0.033-6.385-0.056-6.385-0.056-9.004-0.596-3.289-4.386-3.555-6.67-4-12-6.464 0.329-8.622 1.409-13 6-2.202 1.053-4.41 2.102-6.671 3.023-2.329 0.977-2.329 0.977-6.391 3.164-12.259 5.643-33.078 4.356-45.938 0.813-3.062-1.25-3.062-1.25-6-3-0.773-0.365-1.546-0.73-2.343-1.105-10.951-5.366-19.745-13.245-25.657-23.895-0.701-0.687-1.402-1.374-2.124-2.082-2.338-2.391-2.941-4.412-3.876-7.605-1.203-3.896-2.485-7.608-4.187-11.313-3.617-7.981-2.999-15.947-2.998-24.525-2e-3 -2.701-0.02-5.402-0.039-8.104-3e-3 -1.733-5e-3 -3.466-6e-3 -5.199-4e-3 -1.567-8e-3 -3.133-0.012-4.747 0.346-6.31 1.64-11.822 4.68-17.362 1.755-3.332 2.91-6.163 4.062-9.813 1.568-4.441 3.319-6.836 6.5-10.25 0.66-0.846 1.321-1.691 2-2.563 7.025-8.561 16.113-16.06 26.75-19.437 0.965-0.309 1.929-0.619 2.922-0.937 1.099-0.351 2.197-0.702 3.328-1.063 1.409-0.529 2.818-1.057 4.27-1.602 5.002-1.478 9.503-1.859 14.668-1.773zm-15.188 35.125c-0.995 0.655-1.99 1.31-3.015 1.984-2.999 2.485-4.641 5.001-6.735 8.266-0.828 0.773-1.657 1.547-2.511 2.344-7.862 8.392-10.131 21.642-10.176 32.781-7e-3 0.851-0.014 1.703-0.021 2.58 0.184 6.383 1.986 10.665 4.708 16.295 0.351 1.588 0.702 3.176 1.063 4.813 2.051 7.263 7.702 12.033 12.937 17.187 1.052 1.155 2.104 2.31 3.188 3.5 9.348 6.13 21.348 7.693 32.215 5.687 9.438-2.471 16.109-4.803 22.597-12.187 0.682-0.652 1.364-1.305 2.067-1.977 9.592-10.037 11.113-23.153 11.121-36.336 0.012-1.089 0.024-2.179 0.037-3.302 0.025-13.863-3.547-24.17-13.225-34.385h-2c-0.329-0.66-0.329-0.66-2-4-2.898-2.105-2.898-2.105-6.374-4.187-1.143-0.695-2.285-1.39-3.461-2.106-5.475-2.953-10.294-2.871-16.415-2.894-1.634-0.015-3.269-0.029-4.953-0.043-7.412 0.356-12.893 1.824-19.047 5.98z" fill="#4B197D"/>
<path transform="translate(2095.6 661.94)" d="m0 0c3.24 1.231 6.459 2.403 9.75 3.5 6.053 2.565 10.155 6.919 14.688 11.562 0.587 0.547 0.587 0.547 3.562 3.313 3.498 3.49 5.393 7.175 7.438 11.687 0.631 0.991 1.263 1.981 1.914 3 2.701 5.181 3.963 10.331 5.273 16 0.259 1.107 0.518 2.214 0.785 3.355 3.816 16.925 3.816 16.925 3.028 24.645-3 4-3 4-5.868 4.608-1.176 0.046-2.352 0.091-3.564 0.139-0.675 0.027-0.675 0.027-4.091 0.167-7.28 0.141-14.556 0.196-21.837 0.162-2.809-0.013-5.618-0.02-8.426-0.024-5.947-0.012-11.893-0.031-17.84-0.052-6.932-0.023-13.864-0.043-20.797-0.055-2.761-7e-3 -5.522-0.019-8.284-0.032-1.69-4e-3 -3.379-7e-3 -5.069-0.01-0.736-3e-3 -0.736-3e-3 -4.459-0.016-3.091 0.093-5.778 0.37-8.765 1.113-1.655 11.743 2.515 20.491 9 30 7.761 8.785 18.948 12.255 30.374 13.313 7.776-0.525 15.249-2.854 22.626-5.313 0.329-0.659 0.329-0.659 2-4 1.633-1.366 3.268-2.73 4.917-4.078 4.182-3.86 7.552-8.474 11.083-12.922 1-1 1-1 3.562-1.437 4.079 0.519 6.074 2.216 9.207 4.773 3.187 2.378 6.641 3.992 10.227 5.684 2.004 0.98 2.004 0.98 3.004 1.98 0.73 3.813 0.545 6.173-1.61 9.442-1.409 1.735-2.846 3.447-4.308 5.137-2.082 2.421-2.082 2.421-4.582 6.171-3.111 4.045-6.323 6.313-10.5 9.25-0.805 0.702-1.609 1.403-2.438 2.126-3.578 2.618-7.5 4.125-11.562 5.874-0.801 0.511-1.602 1.021-2.426 1.547-13.241 7.475-39.048 4.795-53.598 2.286-5.396-1.509-10.122-4.091-14.976-6.833-1.003-0.474-2.006-0.948-3.04-1.437-11.935-6.299-20.65-18.458-25.96-30.563-0.248-0.494-0.248-0.494-1.5-2.996-2.07-5.525-2.843-11.057-3.688-16.878-0.177-1.134-0.354-2.267-0.537-3.434-1.788-11.914-1.009-22.815 0.725-34.692 0.159-1.243 0.319-2.487 0.484-3.769 2.251-14.284 9.106-27.178 19.516-37.231 0.647-0.672 1.294-1.345 1.96-2.039 2.016-1.937 4.028-3.475 6.352-5.023 0.718-0.486 1.436-0.972 2.176-1.473 3.073-1.792 6.218-3.117 9.512-4.465 0.623-0.264 0.623-0.264 3.777-1.605 16.927-6.437 35.702-6.951 52.785-0.457zm-57.562 42.062c-1.81 3.62-1.696 8.064-1 12 4.246 3.186 5.009 3.379 10.006 3.405 1.211 0.012 2.422 0.025 3.67 0.038 1.304-3e-3 2.609-6e-3 3.952-9e-3 0.671 3e-3 0.671 3e-3 4.065 0.016 2.835 6e-3 5.67 5e-3 8.505-3e-3 4.351-9e-3 8.7 0.02 13.05 0.052 2.751 1e-3 5.503 1e-3 8.255-2e-3 0.654 5e-3 0.654 5e-3 3.959 0.034 0.604-5e-3 0.604-5e-3 3.661-0.029h3.227c2.65-0.502 2.65-0.502 5.65-4.502 0.496-4.393 0.459-7.099-1.563-11.062-6.408-7.723-12.939-13.526-22.437-16.938-3.415-0.282-6.597-0.42-10-0.374-0.864-0.012-1.728-0.024-2.618-0.036-13.223 0.061-21.787 8.277-30.382 17.41z" fill="#4B197D"/>
<path transform="translate(620.88 657.75)" d="m0 0c1.038-8e-3 2.075-0.015 3.145-0.023 9.398 0.023 17.606 1.946 26.359 5.285 2.18 0.822 4.397 1.543 6.621 2.238 5.629 2.463 10.191 5.962 15 9.75 0.726 0.57 1.451 1.14 2.199 1.727 5.398 4.475 9.657 9.637 13.801 15.273 0.61 0.81 1.219 1.619 1.848 2.453 7.364 10.553 11.804 23.679 12.152 36.547 0.013 0.475 0.013 0.475 0.078 2.879 0.047 3.045-2e-3 6.076-0.078 9.121 6e-3 0.826 0.013 1.653 0.02 2.504-0.428 13.002-6.143 27.292-14.02 37.496-0.465 0.797-0.931 1.593-1.41 2.414-6.376 10.37-15.677 17.525-26.59 22.586-0.958 0.498-1.916 0.995-2.902 1.508-17.258 8.66-43.448 9.919-62.098 4.492-8.114-3.175-15.656-7.027-22.5-12.438-0.732-0.576-1.464-1.152-2.219-1.746-0.753-0.599-1.505-1.198-2.281-1.816-0.824-0.625-1.647-1.25-2.496-1.895-6.846-5.756-11.805-13.022-15.504-21.105-0.33-0.445-0.33-0.445-2-2.695-2.408-3.98-2.989-7.282-3.687-11.867-0.231-1.466-0.462-2.932-0.7-4.442-0.202-1.319-0.404-2.637-0.613-3.996-0.187-0.811-0.374-1.622-0.566-2.457-3.055-17.914-0.467-38.494 9.566-53.543 0.413-0.928 0.825-1.856 1.25-2.812 7.41-13.497 22.31-24.523 36.75-29.188 0.481-0.164 0.481-0.164 2.914-0.992 3.022-1.027 6.045-2.039 9.086-3.008 1.033-0.365 2.065-0.73 3.129-1.105 5.284-1.221 10.342-1.185 15.746-1.145zm-33.812 42.688c-3.419 3.976-5.729 7.902-8.063 12.562-0.742 1.32-1.485 2.64-2.25 4-5.038 11.516-4.102 28.981-0.75 41 5.792 12.903 14.691 22.757 28 28 14.798 4.386 26.493 3.425 41-2 3.359-2.086 5.293-4.027 8-7 0.866-0.804 1.732-1.609 2.625-2.438 7.783-8.397 10.068-15.337 12.375-26.562 0.193-0.901 0.387-1.802 0.586-2.73 2.054-11.258-0.44-25.664-5.984-35.543-7.492-10.732-16.502-19.452-29.602-22.727-3.593-0.123-7.157-0.185-10.75-0.188-0.964-0.012-1.928-0.024-2.922-0.037-13.256-0.027-22.622 4.65-32.265 13.663z" fill="#4B197D"/>
<path transform="translate(1758,662)" d="m0 0c2.769 0.798 5.54 1.589 8.312 2.375 6.477 2.033 10.644 4.121 15.688 8.625 0.325 0.273 0.325 0.273 1.969 1.656 2.054 1.738 4.047 3.527 6.031 5.344 0.33 0.297 0.33 0.297 2 1.801 13.906 13.118 21.03 31.962 22.238 50.941 0.187 10.401-1.269 19.317-4.238 29.258-0.156 0.59-0.156 0.59-0.945 3.574-1.969 7.122-4.616 12.549-9.055 18.426-0.908 1.341-1.815 2.681-2.75 4.062-0.743 0.97-1.485 1.939-2.25 2.938h-2l-2 4c-3.342 3.985-7.594 6.315-12 9l-4 3c-1.624 0.718-3.272 1.384-4.938 2-2.717 1.008-5.04 1.986-7.488 3.551-12.707 7.154-38.357 5.027-52.441 2.418-8.042-2.487-16.136-6.304-23.133-10.969v-2l-4-2c-8.755-7.123-16.321-14.601-21-25-0.648-0.808-1.297-1.616-1.965-2.449-2.948-5.144-3.476-10.294-4.285-16.113-0.173-1.105-0.345-2.209-0.523-3.346-1.764-11.986-1.575-23.341 0.398-35.28 0.141-1.002 0.281-2.004 0.426-3.037 1.2-7.386 3.854-12.582 7.949-18.775 0.557-1.134 1.114-2.269 1.688-3.438 1.312-2.562 1.312-2.562 4.312-5.562h2l2-4c5.321-6.172 10.461-10.733 18-14 0.905-0.639 1.81-1.279 2.742-1.938 3.643-2.306 7.005-3.459 11.133-4.687 1.338-0.405 2.676-0.81 4.055-1.227 0.671-0.189 0.671-0.189 4.07-1.148 0.628-0.186 0.628-0.186 3.809-1.125 13.41-2.8 27.479-1.766 40.191 3.125zm-61.43 41.973c-1.94 2.504-3.237 5.161-4.57 8.027l-3 3c-3.925 10.208-3.49 21.257-3 32 0.035 0.937 0.07 1.874 0.105 2.84 1.224 10.37 9.13 22.462 17.02 28.972 12.144 8.462 24.46 11.832 39.031 9.532 8.998-1.825 15.22-3.997 21.844-10.344 0.516-0.361 0.516-0.361 3.125-2.188 10.075-9.855 13.918-23.868 14.437-37.624-0.299-11.288-2.834-22.979-9.562-32.188-0.866-1.32-1.733-2.64-2.625-4-3.602-4.778-8.175-7.219-13.375-10-1.258-0.763-2.516-1.526-3.812-2.312-5.902-3.125-11.872-2.901-18.438-2.938-0.904-0.021-1.807-0.041-2.738-0.062-14.272-0.083-25.302 6.661-34.442 17.285z" fill="#4B197D"/>
<path transform="translate(1590.4 548.41)" d="m0 0c1.004 3e-3 2.007 5e-3 3.041 8e-3 1.037 0.028 2.074 0.057 3.143 0.086 1.041-3e-3 2.081-5e-3 3.154-8e-3 7.739 0.099 7.739 0.099 12.283 3.508 1.172 4.688 1.142 9.099 1.134 13.893 2e-3 1.016 4e-3 2.032 7e-3 3.079 6e-3 3.415 5e-3 6.829 4e-3 10.244 3e-3 2.444 7e-3 4.888 0.011 7.332 8e-3 6.647 0.011 13.293 0.011 19.94 1e-3 5.544 5e-3 11.089 9e-3 16.633 8e-3 13.079 0.01 26.157 9e-3 39.235 0 13.501 0.01 27.002 0.026 40.503 0.013 11.584 0.019 23.167 0.018 34.75 0 6.921 3e-3 13.843 0.013 20.765 0.01 6.509 0.01 13.017 3e-3 19.526-1e-3 2.391 1e-3 4.781 7e-3 7.172 8e-3 3.26 3e-3 6.52-5e-3 9.78 5e-3 0.949 0.011 1.897 0.016 2.875-0.025 4.764-0.124 8.957-2.263 13.273-4.905 2.452-9.088 2.33-14.437 2.312-0.942 0.016-1.884 0.032-2.854 0.049-5.024 4e-3 -8.774-0.04-12.709-3.361-1.798-3.596-1.152-7.887-1.154-11.85-4e-3 -1.035-9e-3 -2.071-0.013-3.138-0.014-3.492-0.02-6.984-0.026-10.476-8e-3 -2.495-0.016-4.99-0.025-7.484-0.026-8.212-0.041-16.423-0.055-24.634-6e-3 -2.823-0.011-5.645-0.016-8.468-0.022-11.736-0.041-23.472-0.052-35.208-0.016-16.843-0.05-33.685-0.106-50.528-0.039-11.83-0.059-23.661-0.064-35.491-4e-3 -7.072-0.016-14.144-0.048-21.216-0.03-6.651-0.037-13.301-0.025-19.952 0-2.444-8e-3 -4.889-0.025-7.333-0.023-3.331-0.015-6.661 1e-3 -9.992-0.014-0.972-0.028-1.944-0.042-2.946 0.052-4.421 0.299-6.826 3.025-10.385 2.971-2.15 4.377-2.521 8.004-2.493z" fill="#4B197D"/>
<path transform="translate(1833,663)" d="m0 0c4.545-0.68 9.16-0.463 13.75-0.438 0.638-9e-3 0.638-9e-3 3.867-0.06 11.666 6e-3 11.666 6e-3 16.383 4.498 2.326 3.016 3.206 5.646 4.375 9.312 1.625 4.688 1.625 4.688 4.063 8.563 2.565 4.13 4.026 7.908 5.472 12.512 1.09 2.613 1.09 2.613 3.086 5.043 2.308 2.961 3.05 5.393 4.004 9.008 1.411 4.926 3.115 8.324 6 12.562 1.057 3.042 1.992 6.098 2.875 9.195 1.267 3.159 2.439 4.728 5.125 6.805 4.75 0.75 4.75 0.75 9 1 0.147-0.822 0.294-1.645 0.445-2.492 1.399-6.961 3.24-12.191 7.145-18.102 1.894-3.231 2.687-6.506 3.633-10.105 1.2-3.553 3.608-6.264 5.777-9.301 0.852-2.486 1.514-4.989 2.191-7.527 1.268-3.877 3.618-7.052 5.809-10.473 0.679-1.632 1.324-3.279 1.938-4.938 1.973-5.202 4.916-12.489 10.062-15.062 4.829-0.245 9.666-0.185 14.5-0.188 1.357-0.012 2.715-0.024 4.113-0.037 1.293-2e-3 2.586-3e-3 3.918-5e-3 1.192-5e-3 2.384-9e-3 3.612-0.013 2.857 0.243 2.857 0.243 4.857 2.243-0.227 5.438-2.645 9.441-5.25 14.125-3.272 5.981-6.182 11.975-8.707 18.309-1.476 3.631-3.246 7.084-5.043 10.566-1.286 2.563-2.565 5.129-3.844 7.695-0.891 1.776-1.801 3.543-2.718 5.305-1.635 3.411-2.965 6.892-4.278 10.438-1.16 2.562-1.16 2.562-3.039 5.359-5.262 7.946-9.007 17.139-12.433 26.015-1.688 4.188-1.688 4.188-4.688 8.188-0.862 1.916-1.672 3.856-2.438 5.812-1.405 3.486-2.805 6.609-4.687 9.876-1.875 3.312-1.875 3.312-3.375 7.937-1.5 4.375-1.5 4.375-3.438 6.75-2.705 3.444-3.676 7.038-4.937 11.199-1.125 2.426-1.125 2.426-5.125 4.426-3.825-1.372-4.855-2.707-6.66-6.363-0.463-1.304-0.926-2.607-1.402-3.949-1.84-5.122-3.918-9.183-6.938-13.688-1.09-2.965-1.09-2.965-1.938-5.938-1.61-5.156-3.893-8.674-7.062-13.062-0.556-1.649-1.053-3.318-1.5-5-1.286-4.824-3.541-7.958-6.5-12-1.112-2.526-2.083-5.068-3.008-7.668-0.992-2.332-0.992-2.332-3.992-6.332-0.696-1.604-1.341-3.231-1.938-4.875-1.16-3.037-2.191-5.311-4.062-8-1.985-3.101-2.91-5.692-4-9.187-1.423-4.538-2.985-7.263-6-10.938-1.094-2.761-2.041-5.557-3-8.367-1.227-3.232-3.059-5.782-5-8.633-1.018-2.403-1.931-4.837-2.855-7.277-1.633-3.885-3.733-7.459-5.875-11.082-1.423-2.958-2.042-5.369-2.27-8.641l2-3z" fill="#4B197D"/>
<path transform="translate(479.63 548.37)" d="m0 0c1.053-2e-3 2.106-4e-3 3.191-6e-3 1.09 0.024 2.179 0.048 3.301 0.072 1.097-0.011 2.194-0.022 3.324-0.033 6.057 0.056 6.057 0.056 8.551 0.596 3.672 4.896 3.418 8.333 3.374 14.179 4e-3 1.047 8e-3 2.094 0.012 3.172 0.01 3.519-2e-3 7.037-0.013 10.555 2e-3 2.518 6e-3 5.036 0.011 7.554 9e-3 6.847 0 13.694-0.014 20.541-0.011 7.154-7e-3 14.309-5e-3 21.464 1e-3 12.016-0.01 24.031-0.029 36.047-0.021 13.907-0.024 27.813-0.018 41.72 6e-3 13.36 0 26.72-0.011 40.08-5e-3 5.695-6e-3 11.389-4e-3 17.083 2e-3 6.7-6e-3 13.4-0.022 20.1-4e-3 2.464-5e-3 4.929-2e-3 7.393 3e-3 3.353-6e-3 6.706-0.018 10.059 2e-3 0.493 2e-3 0.493 0.011 2.984-0.043 6.726-0.043 6.726-2.272 10.069-4.555 1.518-9.182 1.184-13.937 1.187-1.003 0.013-2.005 0.025-3.037 0.038-0.967 1e-3 -1.933 3e-3 -2.928 5e-3 -0.882 4e-3 -1.763 9e-3 -2.672 0.013-2.426-0.243-2.426-0.243-6.426-2.243-1.802-3.605-1.152-7.914-1.154-11.888-4e-3 -1.039-8e-3 -2.079-0.013-3.15-0.013-3.506-0.02-7.012-0.026-10.518-8e-3 -2.504-0.016-5.009-0.024-7.513-0.027-8.244-0.042-16.488-0.056-24.732-6e-3 -2.833-0.011-5.667-0.016-8.501-0.022-11.782-0.041-23.564-0.052-35.347-0.016-16.909-0.049-33.819-0.106-50.728-0.039-11.877-0.059-23.754-0.064-35.631-4e-3 -7.1-0.016-14.2-0.048-21.3-0.03-6.677-0.036-13.354-0.025-20.031 1e-3 -2.454-8e-3 -4.907-0.025-7.361-0.023-3.344-0.015-6.687 1e-3 -10.031-0.014-0.977-0.028-1.953-0.042-2.959 0.052-4.423 0.296-6.846 3.018-10.412 3.038-2.191 4.555-2.53 8.265-2.527z" fill="#4B197D"/>
<path transform="translate(1144.9 548.25)" d="m0 0c0.555 0.014 0.555 0.014 3.365 0.082 0.532 0.02 0.532 0.02 3.225 0.121 0.977 0.033 1.954 0.065 2.961 0.099 2.511 0.448 2.511 0.448 5.511 3.448 1.034 6.868 1.138 13.664 1.103 20.597-1e-3 0.51-1e-3 0.51-3e-3 3.089-5e-3 3.389-0.018 6.778-0.03 10.167l-0.015 7.32c-0.013 6.607-0.034 13.214-0.056 19.821-0.014 4.126-0.027 8.253-0.039 12.379-0.039 12.909-0.081 25.818-0.13 38.727-0.056 14.908-0.099 29.817-0.13 44.725-0.026 11.527-0.062 23.053-0.108 34.579-0.026 6.885-0.048 13.771-0.059 20.656-9e-3 6.465-0.033 12.931-0.068 19.396-0.011 2.377-0.016 4.755-0.016 7.132-1e-3 3.235-0.019 6.469-0.043 9.703 2e-3 0.475 2e-3 0.475 0.013 2.877-0.076 6.49-0.076 6.49-3.419 9.832-3.742 0.807-7.556 0.836-11.374 1-1.042 0.076-2.084 0.152-3.157 0.23-1.008 0.048-2.016 0.096-3.054 0.145-0.919 0.049-1.837 0.098-2.783 0.148-3.949-0.785-5.196-2.332-7.632-5.523-0.484-3.592-0.663-6.703-0.614-10.293-6e-3 -1.047-0.012-2.094-0.017-3.172-0.013-3.514 9e-3 -7.026 0.032-10.539-2e-3 -2.517-6e-3 -5.033-0.012-7.549-0.01-6.839 0.011-13.677 0.039-20.516 0.023-7.149 0.021-14.298 0.021-21.447 5e-3 -12.006 0.028-24.011 0.064-36.016 0.042-13.892 0.06-27.783 0.063-41.675 4e-3 -14.773 0.023-29.547 0.047-44.32 6e-3 -4.264 0.01-8.529 0.013-12.793 6e-3 -6.693 0.022-13.387 0.047-20.08 7e-3 -2.461 0.011-4.922 0.012-7.382 1e-3 -3.351 0.015-6.701 0.031-10.052-2e-3 -0.981-4e-3 -1.962-7e-3 -2.973 0.035-4.481 0.243-7.115 2.281-11.193 4.095-2.047 9.456-0.921 13.938-0.75z" fill="#4B197D"/>
<path transform="translate(1212.1 848.69)" d="m0 0c1.199-0.037 2.398-0.075 3.633-0.113 3.242 0.425 3.242 0.425 5.582 2.066 2.005 2.85 2.504 4.991 3.097 8.422 1.46 7.683 3.43 15.146 5.477 22.687 0.875 3.424 1.582 6.758 2.086 10.25 2.31-0.33 4.62-0.659 7-1 0.303-1.546 0.606-3.093 0.918-4.687 5.242-26.27 5.242-26.27 9.082-35.313 3.844-2.562 6.28-2.365 10.875-2.437 1.4-0.04 2.8-0.08 4.242-0.121 4.818 0.693 5.958 1.725 8.883 5.558 0.583 3.935 0.583 3.935 0.523 8.579-2e-3 0.418-2e-3 0.418-0.012 2.534-0.02 2.713-0.077 5.425-0.136 8.137-0.025 1.861-0.048 3.721-0.069 5.581-0.06 4.564-0.152 9.126-0.255 13.688-0.073 3.537-0.11 7.073-0.153 10.61-0.045 2.228-0.095 4.456-0.148 6.684-0.014 0.999-0.027 1.997-0.042 3.026-0.138 3.825-0.311 6.557-2.442 9.798-2.266 1.363-2.266 1.363-7.266 1.363-4.094-4.094-3.56-7.827-3.687-13.312-0.034-0.984-0.067-1.967-0.102-2.981-0.238-7.568-0.327-15.136-0.211-22.707-3.25-0.25-3.25-0.25-7 1-4.301 7.366-4.934 16.832-6.094 25.118-1.191 5.103-3.163 8.506-7.281 11.758-3.147 1.348-5.234 1.567-8.625 1.124-4.744-4.744-5.227-9.908-6.25-16.374-1.34-7.512-3.658-14.249-6.543-21.297-1.207-3.329-1.207-3.329-1.207-7.329h-7c0.026 1.222 0.052 2.443 0.079 3.701 0.091 4.532 0.148 9.064 0.196 13.597 0.025 1.961 0.059 3.923 0.102 5.884 0.061 2.82 0.089 5.639 0.111 8.459 0.026 0.876 0.052 1.752 0.078 2.655 2e-3 4.128-0.093 6.186-2.929 9.293-2.637 1.411-2.637 1.411-5.324 1.349-2.313-0.938-2.313-0.938-4.313-3.938-0.299-2.839-0.299-2.839-0.366-6.335-0.03-1.308-0.06-2.617-0.09-3.965-0.021-1.415-0.042-2.831-0.064-4.289-0.026-1.452-0.052-2.903-0.08-4.398-0.053-3.072-0.1-6.145-0.143-9.217-0.069-4.711-0.165-9.42-0.263-14.129-0.048-2.982-0.094-5.963-0.139-8.944-0.031-1.413-0.062-2.827-0.094-4.284-0.014-1.311-0.027-2.622-0.042-3.973-0.018-1.155-0.036-2.31-0.055-3.499 0.336-2.967 0.336-2.967 3.336-6.967 4.306-1.146 8.682-1.221 13.125-1.312z" fill="#4B197D"/>
<path transform="translate(782.88 849.5)" d="m0 0c4.959 3.006 6.28 5.046 8.125 10.5 0.751 6.196-0.193 9.135-4 14-0.742 0.928-1.485 1.856-2.25 2.812-2.369 4.316-2.304 7.34-1.75 12.188 1.437 2.562 1.437 2.562 4 4 4.625 0.5 4.625 0.5 9 0l2-4 2-2h5c1.698 3.396 1.329 6.271 1 10-1.667 2-3.333 4-5 6-0.625 4.062-0.625 4.062 0 8 2.437 2.938 2.437 2.938 5 5 1 1 1 1 1 6-3 2-3 2-6.5 1.75-3.5-0.75-3.5-0.75-6.5-2.75-7.984-0.684-7.984-0.684-11.875 1.938-0.701 0.68-1.403 1.361-2.125 2.062-7.644 2.548-15.798 1.292-23-2-4.615-3.216-8.214-6.27-10.563-11.438-0.845-6.886-1.478-12.635 2.563-18.562 3.188-2.916 6.542-5.407 10-8 0.888-4.837-0.261-7.808-2.5-12-2.254-4.275-3.5-7.093-2.5-12 7.017-10.933 15.835-16.401 28.875-11.5zm-16.875 11.5c-0.536 5.632-0.477 7.364 3 12 5.292 0.674 6.606 0.296 11-3 0.437-4.5 0.437-4.5 0-9-3-3-3-3-7-3.375-4 0.375-4 0.375-7 3.375zm-5.937 32.812c-3.01 4.651-3.073 8.797-2.063 14.188 2.105 3.212 3.563 5.282 7 7 1.934 0.149 3.873 0.221 5.813 0.25 1.037 0.026 2.075 0.052 3.144 0.078 3.473-0.374 5.304-1.18 8.043-3.328 0.937-3.5 0.937-3.5 0-8-7.073-9.537-7.073-9.537-12-12-4.175-0.473-6.326-0.416-9.937 1.812z" fill="#4B197D"/>
<path transform="translate(1884,871)" d="m0 0c4.368-0.048 8.728-0.196 13.094-0.355 1.289 0.117 2.578 0.234 3.906 0.355 3.05 4.067 3.376 4.588 3.388 9.268 0.01 1.052 0.019 2.104 0.029 3.187-6e-3 1.133-0.012 2.265-0.019 3.432 3e-3 1.171 6e-3 2.343 9e-3 3.55 2e-3 2.481-3e-3 4.961-0.016 7.442-0.016 3.777 0 7.553 0.019 11.33-2e-3 2.413-6e-3 4.827-0.012 7.24 3e-3 0.561 3e-3 0.561 0.019 3.401-0.066 7.449-0.341 14.907-5.729 20.588-6.223 3.617-12.11 3.899-19.188 3.874-0.462 9e-3 -0.462 9e-3 -2.801 0.049-7.115 5e-3 -11.234-1.17-16.511-5.861-2.188-2.5-2.188-2.5-3.188-5.5 1.5-2.188 1.5-2.188 4-4 3.562-0.562 3.562-0.562 7 0 1.812 2.438 1.812 2.438 3 5 2.812 1.406 5.24 1.246 8.375 1.312 0.571 0.019 0.571 0.019 3.461 0.114 3.164-0.426 3.164-0.426 5.531-2.149 2.514-3.506 2.385-7.063 2.633-11.277-1.074 0.217-2.148 0.433-3.254 0.656-1.422 0.279-2.844 0.557-4.308 0.844-1.404 0.278-2.808 0.557-4.254 0.844-3.849 0.603-7.301 0.957-11.184 0.656-1.562-2.312-1.562-2.312-3-5-1.975-1.048-3.975-2.052-6-3-4.551-6.827-6.868-16.76-5.438-24.875 0.444-1.718 0.923-3.427 1.438-5.125 0.112-0.454 0.112-0.454 0.676-2.754 2.217-8.508 2.217-8.508 6.324-11.246 7.599-4.047 13.63-4.79 22-2zm-15 13c-3.667 5.847-4.835 10.131-4 17 1.681 4.74 3.6 8.747 7.375 12.125 4.647 1.549 8.245 1.326 12.875-0.187 4.315-3.041 5.138-7.102 6.75-11.938 0.447-7.489-0.164-13.562-5.062-19.5-6.196-3.164-13.264-2.999-17.938 2.5z" fill="#4B197D"/>
<path transform="translate(894,852)" d="m0 0c3.472 2.996 6.447 6.171 9 10 0.079 2.332 0.088 4.668 0 7-3 0.938-3 0.938-7 1-2.248-1.519-4.074-3.259-6.027-5.141-3.751-3.535-7.308-5.617-12.411-6.359-4.472 0.628-7.683 2.226-11.562 4.5-1.685 3.371-1.683 5.274-1 9 6.03 4.942 12.141 6.692 19.625 8.5 8.158 1.989 14.08 3.549 18.945 10.859 2.717 4.899 4.421 8.991 3.43 14.641-2.685 7.237-4.948 12.305-11.938 16.188-8.633 3.285-20.241 3.413-29.144 0.964-5.516-2.772-8.798-7.004-11.918-12.152-1.062-3.812-1.062-3.812-1-7l3-3c3.345 0.048 4.652 0.664 7.062 2.996 0.64 0.806 1.279 1.611 1.938 2.442 3.551 4.46 6.195 6.237 11.902 6.898 6.182 0.079 10.311 0.063 15.098-4.336 1.814-3.627 1.325-7.052 1-11-3.458-2.703-7.181-3.802-11.367-4.98-1.216-0.361-2.431-0.721-3.684-1.092-2.537-0.74-5.079-1.464-7.625-2.172-8.154-2.455-12.432-4.71-17.324-11.756-2.487-4.973-2.326-8.735-1-14 3.127-6.364 7.219-11.438 13.875-14.188 9.419-2.448 19.467-2.807 28.125 2.188z" fill="#4B197D"/>
<path transform="translate(1323.8 872.5)" d="m0 0c4.41 3.038 5.907 6.435 7.172 11.496 0.225 5.153 0.228 10.306 0.24 15.463 0.01 2.528 0.041 5.056 0.072 7.584 3e-3 0.797 3e-3 0.797 0.016 4.828 5e-3 0.731 5e-3 0.731 0.028 4.43-0.356 3.695-0.356 3.695-3.356 7.695-3.041-0.186-5.277-0.638-8-2-1.83-0.121-3.666-0.175-5.5-0.187-0.98-0.015-1.959-0.029-2.969-0.043-2.531 0.23-2.531 0.23-4.531 2.23-5.813 0.753-11.225 1.243-16.125-2.187-0.31-0.464-0.31-0.464-1.875-2.813-0.598-0.722-1.196-1.444-1.813-2.187-2.158-5.111-1.957-10.451-0.25-15.688 5.752-5.926 14.243-6.973 22.024-8.414 3.039-0.711 3.039-0.711 6.039-2.711 0.25-4.562 0.25-4.562 0-9-1-1-1-1-5.25-1.25-6.322 0.333-8.38 1.88-12.75 6.25-6.445-0.444-6.445-0.444-8-2 0-5 0-5 1.937-7.562 9.819-7.815 21.725-10.054 32.891-3.934zm-26.828 32.496c-0.438 3.813-0.438 3.813 0 8 3.035 2.961 5.243 3.846 9.375 4.688 5.206-0.988 8.475-3.437 11.625-7.688 0.625-4.312 0.625-4.312 0-8-2-2-2-2-6.625-2.375-5.313 0.085-10.486 1.486-14.375 5.375z" fill="#4B197D"/>
<path transform="translate(954.61 871.25)" d="m0 0c4.014 2.94 5.95 6.093 7.395 10.754 0.584 5.737 0.636 11.419 0.542 17.177-0.043 2.712-0.042 5.422-0.035 8.135-0.08 13.261-0.08 13.261-3.507 16.688-2.675-0.261-4.601-0.801-7-2-9.286-0.357-9.286-0.357-14 2-5.811 0.769-10.502 0.92-15.563-2.188-3.524-4.066-5.26-6.24-5.875-11.687 0.517-4.874 1.399-7.272 4.438-11.125 6.348-3.686 12.767-4.93 19.96-6.192 3.04-0.808 3.04-0.808 6.04-3.808 0.312-4.125 0.312-4.125 0-8-3.355-1.677-6.315-1.271-10-1-3.144 1.746-5.469 3.469-8 6-2.938 0.312-2.938 0.312-6 0l-3-3c0.59-3.469 1.547-5.487 3.875-8.125 10.073-6.044 19.657-7.332 30.73-3.629zm-25.605 33.754c-0.701 7.124-0.701 7.124 2 10.5 4.073 2.037 6.49 2.183 11 1.5 4-2.375 4-2.375 7-6 0.65-3.594 0.394-6.302 0-10-1-1-1-1-5.563-1.313-5.354 0.031-10.512 1.387-14.437 5.313z" fill="#4B197D"/>
<path transform="translate(1539.7 871.74)" d="m0 0c4.51 2.508 6.704 5.653 8.389 10.446 1.638 7.099 0.924 14.327 0.693 21.566-0.032 1.612-0.063 3.225-0.096 4.886-0.022 0.769-0.022 0.769-0.134 4.661-0.039 1.406-0.078 2.812-0.118 4.26-0.464 3.443-0.464 3.443-3.464 6.443-2.755-0.218-4.807-0.912-7.313-2.063-3.75-1.308-6.744-1.307-10.687-0.937-0.413 0.34-0.413 0.34-2.5 2.062-2.5 1.938-2.5 1.938-6.438 1.875-5.078-1.172-8.525-2.524-12.375-6.062-3.104-5.289-2.936-10.187-2.062-16.125 3.69-5.827 8.91-6.987 15.375-8.75 3.656-0.774 7.312-1.386 11-2l3-2c0.375-4 0.375-4 0-8-3.972-2.648-6.286-2.422-11-2-3.144 1.746-5.469 3.468-8 6-3 0.25-3 0.25-6 0l-2-2c0.091-3.376 0.916-4.893 3-7.563 9.258-7.523 19.776-9.495 30.73-4.699zm-24.73 33.262c-0.701 7.124-0.701 7.124 2 10.5 4.126 2.063 6.427 2.25 11 1.5 3.254-1.885 5.737-3.99 8-7 0.687-3.75 0.687-3.75 0-7-3-3-3-3-7.188-3.438-5.116 0.465-10.032 1.657-13.812 5.438z" fill="#4B197D"/>
<path transform="translate(1669,872)" d="m0 0c2.075 3.854 2.215 7.113 2.125 11.438-0.015 1.224-0.031 2.449-0.047 3.71l-0.156 7.704c-0.016 1.224-0.031 2.449-0.047 3.71-0.023 1.116-0.046 2.231-0.07 3.379 0.202 3.167 0.711 5.264 2.195 8.059 4.168 2.779 7.076 2.405 12 2 3.032-2.198 3.817-3.45 5-7 0.093-2.225 0.132-4.453 0.141-6.68 0.019-1.321 0.038-2.642 0.058-4.004 0.034-2.786 0.052-5.572 0.055-8.359 0.012-0.662 0.012-0.662 0.074-4.012 9e-3 -1.211 0.019-2.423 0.028-3.671 0.82-4.171 2.305-5.717 5.644-8.274 3.188 0.5 3.188 0.5 6 2 2.719 4.079 2.287 7.785 2.266 12.523 1e-3 0.47 1e-3 0.47 5e-3 2.844 2e-3 1.985-2e-3 3.971-0.01 5.956-0.011 3.033 0 6.066 0.012 9.099-1e-3 1.93-3e-3 3.859-7e-3 5.789 4e-3 0.905 8e-3 1.811 0.012 2.743-0.062 8.337-0.062 8.337-2.278 12.046-4.458 1.454-5.694 1.153-10-1-5.138-0.459-9.188 0.292-14.062 1.75-4.276 1.129-5.515 1.4-9.813-0.125-4.309-3.619-8.315-7.194-10.125-12.625-0.208-5.128-0.186-10.256-0.185-15.387-2e-3 -2.537-0.021-5.074-0.04-7.611-2e-3 -1.598-3e-3 -3.196-5e-3 -4.842-5e-3 -1.468-9e-3 -2.936-0.013-4.449 0.243-3.711 0.243-3.711 2.243-7.711 3.845-1.282 5.372-0.698 9 1z" fill="#4B197D"/>
<path transform="translate(1048,873)" d="m0 0c5.758 4.35 9.384 11.301 10.562 18.375-0.711 3.318-1.934 4.538-4.562 6.625-2.666 1.333-4.796 1.179-7.777 1.246-1.153 0.033-2.306 0.066-3.494 0.1-2.44 0.061-4.881 0.118-7.321 0.172-0.577 0.017-0.577 0.017-3.498 0.103-1.061 0.025-2.121 0.05-3.214 0.076-2.696 0.303-2.696 0.303-5.696 2.303-0.5 3.312-0.5 3.312 0 7 2.173 2.63 3.947 4.473 7 6 5.223 0.402 9.068 0.212 13.75-2.062 4.25-1.938 4.25-1.938 7.25-1.938l2 1 1 4c-3.761 5.188-8.999 7.323-15 9-8.34 0.914-13.831-1.252-20.75-5.812-6.837-6.647-9.248-13.237-9.562-22.626 0.209-8.419 2.877-15.162 8.23-21.609 8.892-8.342 20.93-7.359 31.082-1.953zm-24 9c-0.312 3.938-0.312 3.938 0 8 4.005 2.002 5.67 2.272 10 2.25 1.031 5e-3 2.062 0.01 3.125 0.016 2.875-0.266 2.875-0.266 6.875-2.266 0.688-4.438 0.688-4.438 0-9-6.481-4.365-14.257-4.743-20 1z" fill="#4B197D"/>
<path transform="translate(1109,870)" d="m0 0c4 0.312 4 0.312 8 2 1.688 3.25 1.688 3.25 3 8 0.837 2.443 1.692 4.881 2.562 7.312 0.414 1.193 0.828 2.385 1.254 3.614 1.184 3.074 1.184 3.074 3.184 6.074 3.625 0.688 3.625 0.688 7 1 1.248-5.26 2.171-10.38 2.812-15.75 0.623-4.123 1.056-6.056 3.438-9.562 3.242-1.99 5.01-2.187 8.75-1.688l2 1c0.601 6.386-0.903 11.409-3.25 17.25-0.649 1.676-1.296 3.354-1.941 5.031-0.314 0.807-0.627 1.614-0.95 2.446-1.124 2.975-2.093 5.99-3.047 9.023-1.061 3.293-2.048 5.637-3.874 8.625-1.974 3.692-2.497 6.347-3.188 10.437-1.399 7.318-4.447 12.02-9.75 17.188-3.262 1.631-6.422 1.168-10 1l-2-2c0.062-2.875 0.062-2.875 1-6 2.5-2.25 2.5-2.25 5-4 2.463-4.926 1.573-11.828 0.211-16.992-0.985-2.715-2.049-5.364-3.211-8.008-1.737-3.959-3.263-7.783-4.438-11.938-0.98-3.446-2.035-5.955-3.75-9.187-2.04-4.363-2.377-7.115-1.812-11.875l3-3z" fill="#4B197D"/>
<path transform="translate(1826,870)" d="m0 0c5.305 2.88 9.3 5.472 12 11 0.464 3.669 0.464 3.669 0.582 7.898 0.045 1.532 0.089 3.063 0.135 4.641 0.031 1.596 0.063 3.192 0.095 4.836 0.026 0.794 0.026 0.794 0.155 4.813 0.34 13.734 0.34 13.734-1.967 19.812-3 2-3 2-6.062 1.875-0.97-0.289-1.939-0.577-2.938-0.875-2.148-4.296-2.275-6.485-2.344-11.215-0.029-1.408-0.059-2.816-0.09-4.267-0.022-1.471-0.043-2.941-0.066-4.456-0.043-2.905-0.095-5.81-0.156-8.714-0.01-0.645-0.01-0.645-0.057-3.906-0.276-3.306-0.721-5.534-2.287-8.442-3.726-2.484-5.587-2.38-10-2-2.812 1.125-2.812 1.125-5 3-1.798 4.337-2.259 8.084-2.309 12.754-0.025 1.266-0.05 2.533-0.076 3.838-0.035 2.651-0.066 5.302-0.094 7.953-0.026 1.265-0.052 2.53-0.08 3.834-0.013 1.15-0.027 2.301-0.04 3.486-0.444 3.472-1.26 5.383-3.401 8.135-3 0.75-3 0.75-6 0-3.109-5.488-3.429-10.569-3.363-16.73-1e-3 -0.913-1e-3 -1.826-2e-3 -2.767 3e-3 -1.918 0.012-3.837 0.029-5.756 0.024-2.936 0.02-5.871 0.014-8.808 5e-3 -1.869 0.012-3.738 0.021-5.607-1e-3 -0.876-2e-3 -1.752-3e-3 -2.655 0.051-4.323 0.333-6.735 2.304-10.677 3.194-0.247 6.072-0.282 9.25-0.125 7.34 0.302 14.939-3.012 21.75-0.875z" fill="#4B197D"/>
<path transform="translate(2049.2 871.75)" d="m0 0c3.793 2.238 5.162 3.269 6.812 7.25 1.572 6.484 1.451 13.176 1.688 19.812 0.06 1.342 0.12 2.683 0.182 4.065 0.242 6.722 0.372 12.673-1.87 19.123-1 1-1 1-3.937 1.188-3.063-0.188-3.063-0.188-5.063-2.188-0.918-3.673-1.137-6.515-1.175-10.27-0.012-0.609-0.012-0.609-0.073-3.693-0.042-2.554-0.074-5.109-0.093-7.664-0.154-6.794-0.316-11.792-4.659-17.373-3.149-1.575-5.52-1.348-9-1-5.615 3.848-5.615 3.848-7 8-0.127 2.078-0.201 4.16-0.246 6.242-0.032 1.231-0.065 2.462-0.099 3.731-0.061 2.593-0.119 5.187-0.172 7.781-0.034 1.234-0.068 2.467-0.104 3.738-0.025 1.128-0.05 2.256-0.076 3.418-0.415 4.233-1.278 7.066-4.303 10.09h-5c-3.996-4.195-3.434-9.522-3.398-14.973-3e-3 -0.96-6e-3 -1.92-9e-3 -2.909-2e-3 -2.025 4e-3 -4.05 0.016-6.074 0.016-3.099 1e-3 -6.197-0.019-9.296 2e-3 -1.969 6e-3 -3.939 0.012-5.908-6e-3 -0.926-0.012-1.852-0.018-2.807 0.055-5.09 0.255-6.818 3.416-11.033 4.02-0.32 4.02-0.32 8.813-0.125 9.689 0.365 16.183-2.967 25.375 0.875z" fill="#4B197D"/>
<path transform="translate(1414.5 870.44)" d="m0 0c3.5 0.562 3.5 0.562 5.207 2.747 1.435 3.124 1.605 5.009 1.481 8.421-0.024 1.067-0.047 2.133-0.071 3.232-0.077 2.214-0.155 4.427-0.234 6.641-0.155 7.175 0.64 12.765 3.117 19.521 1 1 1 1 5.75 1.376 3.976-0.035 4.984-0.18 8.312-2.626 3.049-4.326 3.072-8.249 3.149-13.378 0.014-0.641 0.014-0.641 0.086-3.885 0.052-2.703 0.096-5.406 0.133-8.11 0.031-1.28 0.062-2.561 0.093-3.88 0.02-1.174 0.04-2.348 0.06-3.557 0.417-2.94 0.417-2.94 3.417-5.94 3.062-0.374 3.062-0.374 6 0 2.816 4.224 2.325 8.3 2.336 13.215 7e-3 1.008 0.013 2.015 0.02 3.053 0.01 2.131 0.015 4.262 0.015 6.392 4e-3 3.262 0.04 6.522 0.078 9.784 6e-3 2.07 0.01 4.139 0.012 6.209 0.014 0.976 0.029 1.952 0.043 2.958-0.026 3.988-0.056 6.729-2.334 10.083-2.17 1.306-2.17 1.306-5.358 0.556-0.629-0.206-0.629-0.206-3.812-1.25-7.916-0.542-7.916-0.542-12.125 1.563-3.937 1.968-5.668 1.721-9.875 0.437-5.177-3.184-9.225-6.009-11-12-1.234-7.403-1.221-14.7-1.25-22.187-0.021-1.366-0.041-2.732-0.062-4.139-6e-3 -1.309-0.011-2.618-0.016-3.966-9e-3 -1.192-0.019-2.383-0.028-3.611 0.555-4.824 2.025-6.883 6.856-7.659z" fill="#4B197D"/>
<path transform="translate(1379,870)" d="m0 0c4.439 2.033 8.228 3.841 11 8 1.387 8.372 1.259 16.787 1.312 25.25 0.03 1.552 0.059 3.104 0.088 4.703 9e-3 1.485 0.017 2.97 0.026 4.5 0.014 1.353 0.029 2.705 0.044 4.099-0.47 3.448-0.47 3.448-2.333 5.924-2.137 1.524-2.137 1.524-4.762 1.462-2.375-0.938-2.375-0.938-4.375-3.938-0.271-2.876-0.271-2.876-0.309-6.355-0.025-1.263-0.05-2.526-0.076-3.827-0.035-2.651-0.066-5.302-0.094-7.953-0.142-6.84-0.31-12.648-3.521-18.865-3.726-2.484-5.587-2.38-10-2-4.184 1.859-4.879 2.758-7 7-0.287 3.129-0.287 3.129-0.344 6.777-0.029 1.318-0.059 2.636-0.09 3.994-0.022 1.375-0.043 2.75-0.066 4.167-0.043 2.717-0.095 5.435-0.156 8.152-0.019 1.205-0.038 2.41-0.057 3.652-0.283 3.216-0.716 5.442-2.287 8.258-3.438 1.125-3.438 1.125-7 1-3.967-4.366-3.434-9.664-3.398-15.227-3e-3 -0.984-6e-3 -1.969-9e-3 -2.983-2e-3 -2.076 3e-3 -4.152 0.016-6.228 0.016-3.183 0-6.364-0.019-9.546 2e-3 -2.019 6e-3 -4.037 0.012-6.055-7e-3 -0.953-0.013-1.906-0.019-2.888 0.072-6.728 0.072-6.728 3.417-10.073 3.125 0.312 3.125 0.312 7 1 4.845 0.269 8.145 0.369 12.625-1.562 4.18-1.781 6.012-1.642 10.375-0.438z" fill="#4B197D"/>
<path transform="translate(2107.8 871.66)" d="m0 0c3.973 2.392 6.984 4.983 10.219 8.336v5c-2 2-2 2-4.563 2.562-3.864-0.632-4.856-1.558-7.75-4.062-3.55-2.951-4.619-3.49-9.437-4.188-5.718 0.925-7.736 2.599-11.063 7.188-2.31 6.81-2.191 13.868 0.5 20.562 3.24 5.517 3.24 5.517 7.313 6.938 4.257 0.542 6.36 0.358 10.125-1.75 2.875-2.25 2.875-2.25 5.375-4.563 2.5-1.687 2.5-1.687 5.812-1.437 0.887 0.247 1.774 0.495 2.688 0.75 0.437 3.062 0.437 3.062 0 7-5.263 6.315-10.057 9.773-18.313 10.875-7.272 0.464-12.537-1.359-18.5-5.563-6.942-7.214-8.528-14.777-8.398-24.406 0.577-7.947 3.209-15.416 9.211-20.906 8.719-5.556 17.197-7.094 26.781-2.336z" fill="#4B197D"/>
<path transform="translate(1601.3 874.44)" d="m0 0c3.688 2.562 3.688 2.562 5.688 6.562-0.376 2.75-0.376 2.75-1 5-2.938 0.938-2.938 0.938-7 1-2.153-1.492-2.153-1.492-4.376-3.437-3.563-3.053-4.442-3.541-9.374-4.125-6.595 0.873-6.595 0.873-9.25 2.562-1.25 2.438-1.25 2.438-2 5-0.33 0.991-0.661 1.981-1 3-0.147 2.268-0.221 4.541-0.25 6.813-0.026 1.203-0.052 2.405-0.079 3.645 0.49 5.281 2.076 8.461 6.079 11.918 3.86 1.93 5.984 2.234 10.25 1.624 3.242-1.815 5.807-3.826 8.562-6.312 2.438-1.688 2.438-1.688 5.188-1.5 2.25 0.812 2.25 0.812 3.25 1.812 0.154 3.78-0.352 6.183-2.723 9.172-6.828 6.599-12.626 7.891-21.903 7.766-6.745-1.445-11.424-4.429-15.75-9.75-4.402-7.024-4.911-13.202-4.437-21.375 0.076-1.54 0.152-3.081 0.23-4.668 0.564-4.013 1.214-5.948 3.583-9.145 0.845-1.175 1.691-2.351 2.562-3.562 10.247-10.247 21.88-8.709 33.75-2z" fill="#4B197D"/>
<path transform="translate(1493,849)" d="m0 0c1 1 1 1 1.375 3.75-0.375 3.25-0.375 3.25-2.875 5.688-2.5 2.562-2.5 2.562-3.125 6.062 0.774 4.337 2.54 5.494 5.625 8.5 0.188 2.562 0.188 2.562-1 5-0.999 0.553-1.999 1.106-3.028 1.676-2.972 2.324-2.972 2.324-3.713 5.804 2e-3 1.365 4e-3 2.731 7e-3 4.137-0.017 1.494-0.034 2.988-0.051 4.528 0.011 1.561 0.023 3.122 0.035 4.73-8e-3 3.081-0.023 6.162-0.047 9.242 7e-3 1.368 0.014 2.735 0.021 4.144-0.281 4.695-0.837 8.352-4.224 11.739h-5c-3-3-3-3-3.353-6.658 6e-3 -1.502 0.011-3.005 0.017-4.553-0.013-1.637-0.026-3.274-0.039-4.961-4e-3 -2.603 0-5.205 0.015-7.807 8e-3 -2.515-0.015-5.03-0.038-7.544 3e-3 -1.505 6e-3 -3.01 0.01-4.56-0.728-4.658-2.011-6.001-5.612-8.917l-2-2v-5l3-3h2c0.182-0.736 0.364-1.472 0.551-2.23 3.18-12.347 3.18-12.347 9.137-16.082 4.49-1.758 7.54-2.107 12.312-1.688z" fill="#4B197D"/>
<path transform="translate(997,849)" d="m0 0 3 2c-0.062 2.875-0.062 2.875-1 6-0.34 0.32-0.34 0.32-2.062 1.938-1.938 2.062-1.938 2.062-2.5 5.5 0.698 4.425 2.431 5.511 5.562 8.562 0.188 2.562 0.188 2.562-1 5-0.5 0.274-0.5 0.274-3.028 1.66-2.972 2.34-2.972 2.34-3.713 5.928 2e-3 1.413 4e-3 2.827 7e-3 4.283-0.017 1.544-0.034 3.087-0.051 4.678 0.011 1.613 0.023 3.226 0.035 4.889-8e-3 3.186-0.023 6.372-0.047 9.558 7e-3 1.415 0.014 2.829 0.021 4.287-0.277 4.601-0.951 7.444-4.224 10.717h-5c-3.568-4.758-3.358-6.482-3.336-12.309-0.013-1.633-0.026-3.267-0.039-4.951-4e-3 -2.591 0-5.183 0.015-7.774 8e-3 -2.508-0.015-5.017-0.038-7.525 1e-3 -0.749 1e-3 -0.749 0.01-4.54-0.729-4.646-2.021-5.99-5.612-8.901l-2-2c1-4 1-4 3.312-6.062 3.256-3.559 4.212-6.83 5.723-11.34 2.881-7.757 7.927-10.183 15.965-9.598z" fill="#4B197D"/>
<path transform="translate(1081.5,853.5)" d="m0 0c4.317 2.59 5.096 7.028 6.375 11.688 1.125 2.812 1.125 2.812 3.75 4.874 0.784 0.64 1.568 1.279 2.375 1.938v5c-2.938 2.188-2.938 2.188-6 4-2.166 4.332-1.319 10.055-1.375 14.812-0.037 1.19-0.075 2.379-0.113 3.604-0.089 8.814-0.089 8.814 2.886 12.783 0.859 0.594 1.717 1.189 2.602 1.801 2 2 2 2 2.375 4.938-0.124 1.01-0.247 2.021-0.375 3.062-4 3-4 3-6.25 3-5.862-2.132-10.022-5.029-13.75-10-0.337-3.404-0.337-3.404-0.301-7.434-8e-3 -1.453-0.017-2.906-0.025-4.404 9e-3 -3.062 0.03-6.125 0.062-9.187-0.012-1.455-0.024-2.91-0.037-4.409 5e-3 -0.665 5e-3 -0.665 0.026-4.033-0.95-4.631-3.107-5.67-6.725-8.533 0-5 0-5 2.312-7.688 3.496-4.308 4.281-7.965 5.688-13.312 1.544-3.089 3.277-3.145 6.5-2.5z" fill="#4B197D"/>
<path transform="translate(1627,854)" d="m0 0c2.938-0.562 2.938-0.562 6 0 2.169 3.213 3.149 6.448 4.375 10.125 1.734 4.136 3.209 5.198 6.625 7.875v5c-3.438 2.688-3.438 2.688-7 5-2.14 4.281-1.097 9.938-1 14.625-6e-3 1.164-0.013 2.328-0.02 3.527 0.206 8.628 2.08 11.73 8.02 17.848-0.373 4.373-0.373 4.373-2 6-6.052 0.618-9.816-0.924-15-4-2.515-3.772-2.24-5.828-2.238-10.336-0.016-1.457-0.033-2.913-0.049-4.414-0.017-3.075-0.022-6.151-0.016-9.227-0.02-1.459-0.04-2.918-0.06-4.421-3e-3 -1.338-6e-3 -2.675-9e-3 -4.053-0.775-4.381-2.305-5.705-5.628-8.549-2-3-2-3-1.875-5.562 0.875-2.438 0.875-2.438 4.875-4.438 0.977-2.715 0.977-2.715 1.625-5.938 0.767-3.712 1.251-5.875 3.375-9.062z" fill="#4B197D"/>
<path transform="translate(1994,851)" d="m0 0c1.829 1.829 1.166 4.728 1.193 7.185 0.016 1.325 0.032 2.65 0.049 4.015 0.044 6.076 0.085 12.151 0.108 18.226 0.017 3.209 0.044 6.418 0.082 9.626 0.055 4.613 0.077 9.225 0.091 13.839 0.023 1.436 0.046 2.873 0.069 4.353-1e-3 0.669-1e-3 0.669-9e-3 4.054 9e-3 1.176 0.017 2.352 0.025 3.564-0.791 4.08-2.376 5.61-5.608 8.138-2.688-0.375-2.688-0.375-5-2-1.978-3.86-2.253-7.094-2.259-11.395-6e-3 -1.271-0.012-2.543-0.019-3.852 4e-3 -1.365 8e-3 -2.73 0.012-4.136-2e-3 -1.406-3e-3 -2.813-5e-3 -4.262-2e-3 -2.97 2e-3 -5.941 0.01-8.911 0.011-4.558 0-9.116-0.012-13.674 1e-3 -2.885 3e-3 -5.769 7e-3 -8.653-4e-3 -1.369-8e-3 -2.737-0.012-4.148 3e-3 -0.632 3e-3 -0.632 0.019-3.833 2e-3 -1.115 3e-3 -2.23 5e-3 -3.379 0.254-2.757 0.254-2.757 2.254-5.757 3.782-1.261 5.364-0.423 9 1z" fill="#4B197D"/>
<path transform="translate(1731,871)" d="m0 0c1.998 0.09 4 0.13 6 0.125 0.505 1e-3 0.505 1e-3 3.062 8e-3 2.938-0.133 2.938-0.133 5.688-0.766 0.743-0.121 1.485-0.242 2.25-0.367 2 2 2 2 2.25 4.938-0.25 3.062-0.25 3.062-2.25 6.062-2.485 1.121-5.01 1.962-7.59 2.84-2.41 1.16-2.41 1.16-5.41 5.16-0.401 2.822-0.401 2.822-0.441 6.051-0.027 1.173-0.053 2.347-0.08 3.556-0.014 1.223-0.028 2.446-0.041 3.705-0.222 15.397-0.222 15.397-2.438 20.688-3 2-3 2-5.562 1.75-2.438-0.75-2.438-0.75-4.438-2.75-1.152-4.608-1.162-8.943-1.168-13.656-3e-3 -0.94-7e-3 -1.879-0.01-2.847-5e-3 -1.983-7e-3 -3.967-7e-3 -5.951-2e-3 -3.035-0.021-6.07-0.04-9.105-3e-3 -1.928-5e-3 -3.856-5e-3 -5.785-8e-3 -0.907-0.015-1.815-0.022-2.749 0.016-4.405 0.245-6.893 2.252-10.907 3.396-1.132 4.578-0.726 8 0z" fill="#4B197D"/>
<path transform="translate(1768.9 871.69)" d="m0 0c1.361 0.103 2.723 0.206 4.125 0.312 3.543 4.724 3.375 6.391 3.363 12.168 0 1.616-1e-3 3.232-2e-3 4.897-8e-3 0.842-0.016 1.684-0.025 2.551-0.023 2.546-0.02 5.091-0.014 7.636-0.089 20.516-0.089 20.516-4.322 24.748-2.937 0.313-2.937 0.313-6 0-3.967-3.967-3.508-7.217-3.582-12.523-0.023-0.938-0.045-1.877-0.069-2.843-0.044-1.986-0.082-3.971-0.112-5.957-0.049-3.033-0.125-6.065-0.204-9.098-0.04-1.93-0.078-3.86-0.115-5.789-0.023-0.906-0.046-1.811-0.069-2.744-0.055-4.447 4e-3 -8.084 2.151-12.046 1-1 1-1 4.875-1.312z" fill="#4B197D"/>
<path transform="translate(1925,911)" d="M0 0 C4.062 0.125 4.062 0.125 8 1 C10.667 5 10.266 7.722 10.25 12.5 C10.255 14.016 10.26 15.532 10.266 17.094 C10 21 10 21 8 24 C6.68 24 5.36 24 4 24 C3.887 23.402 3.887 23.402 3.312 20.375 C2 16 2 16 -0.625 12.938 C-3 10 -3 10 -3.5 6.312 C-3 3 -3 3 0 0 Z " fill="#4B197D"/>
<path transform="translate(2134,912)" d="M0 0 C3.938 -0.375 3.938 -0.375 8 0 C11 3 11 3 11.5 6 C11 9 11 9 8.875 10.938 C5.407 12.219 3.525 12.018 0 11 C-2 9 -2 9 -2.25 6.062 C-2 3 -2 3 0 0 Z " fill="#4B197D"/>
<path transform="translate(1772,849)" d="m0 0 3 2c0.5 2.875 0.5 2.875 0 6-2.188 2.438-2.188 2.438-5 4-2.688-0.062-2.688-0.062-5-1-2.3-3.45-2.431-4.946-2-9 3.47-2.313 4.925-2.34 9-2z" fill="#4B197D"/>
<path transform="translate(2e3 448)" d="m0 0v5l-2 2c-2.5-0.188-2.5-0.188-5-1-2-3-2-3-2-6 3.478-1.159 5.459-0.708 9 0z" fill="#4B197D"/>
<path transform="translate(1927,937)" d="m0 0 1 4-5 1 1-4c0.99-0.33 1.98-0.66 3-1z" fill="#4B197B"/>
<path transform="translate(1827,401)" d="m0 0h4c-0.875 2.5-0.875 2.5-2 5h-2v-5z" fill="#4B197D"/>
<path transform="translate(1981,443)" d="m0 0 5 1-3 2-2-1v-2z" fill="#4B197A"/>
</svg>
