<?xml version="1.0" encoding="UTF-8"?>
<svg version="1.1" viewBox="0 0 2904 1312" xmlns="http://www.w3.org/2000/svg">
<path transform="translate(2587.6 446.51)" d="m0 0c0.867-5e-3 1.734-0.01 2.627-0.015 2.905-0.011 5.809 6e-3 8.713 0.024 2.084-3e-3 4.167-6e-3 6.25-0.012 5.662-0.01 11.323 6e-3 16.985 0.026 5.934 0.018 11.869 0.014 17.803 0.013 9.978 2e-3 19.955 0.02 29.933 0.047 11.505 0.031 23.011 0.042 34.516 0.04 12.274-1e-3 24.547 0.013 36.821 0.031 3.521 5e-3 7.042 6e-3 10.563 7e-3 5.561 2e-3 11.122 0.014 16.683 0.034 2.03 6e-3 4.06 8e-3 6.09 7e-3 31.931-0.011 31.931-0.011 39.398 5.292 0.64 0.66 1.279 1.32 1.938 2 2.062 2 2.062 2 4.875 3.375 8.465 4.316 14.992 12.187 19.761 20.305 1.426 2.32 1.426 2.32 3.989 4.383 3.22 3.881 3.28 7.154 3.906 12.059 0.675 3.656 2.274 5.966 4.531 8.878 1.741 6.963 1.227 14.165 1.25 21.313 0.01 0.796 0.01 0.796 0.063 4.826 5e-3 1.539 0.01 3.077 0.015 4.662 0.01 1.404 0.019 2.809 0.029 4.255-0.481 5.315-2.385 9.226-4.982 13.819-1.375 3.125-1.375 3.125-1.75 7.688-0.735 5.221-1.889 5.962-5.625 9.437-0.988 2.233-1.975 4.467-2.898 6.727-1.746 3.604-4.433 6.321-7.102 9.273-0.258 0.465-0.258 0.465-1.562 2.813-1.438 2.187-1.438 2.187-4 3.187-0.805 0.33-1.609 0.66-2.438 1-0.309 0.784-0.619 1.568-0.937 2.375-1.469 3.628-3.814 4.523-7.063 6.625l-2.5 3c-2.588 3.106-5.103 4.859-8.5 7l-3 3c-1.526 0.475-3.052 0.949-4.625 1.438-1.444 0.516-2.887 1.031-4.375 1.562-1.934 7.736-1.823 12.885 1.875 19.875 2.889 5.685 3.722 10.837 4.125 17.125 0.489 7.519 2.065 12.892 5.617 19.516 2.38 5.997 2.434 12.307 2.766 18.688 0.838 6.511 3.185 11.277 6.43 16.984 1.441 3.413 1.171 5.287 0.187 8.812-2.354 2.354-8.881 1.181-12.217 1.193-1.181 9e-3 -2.361 0.017-3.578 0.025-3.926 0.025-7.853 0.042-11.779 0.056-0.669 3e-3 -0.669 3e-3 -4.053 0.016-7.081 0.027-14.162 0.046-21.243 0.061-7.323 0.016-14.645 0.061-21.968 0.112-5.622 0.034-11.244 0.045-16.865 0.051-2.7 7e-3 -5.4 0.022-8.099 0.046-3.778 0.031-7.555 0.031-11.333 0.024-0.559 8e-3 -0.559 8e-3 -3.387 0.05-5.105-0.041-7.738-0.151-12.105-2.997-4.947-5.498-5.716-10.034-6.185-17.324-0.54-5.733-1.065-9.95-4.188-14.813-3.869-6.028-3.978-12.141-4.383-19.167-0.687-4.827-2.248-8.1-4.617-12.333-1.776-3.551-2.486-5.917-3.125-9.75-0.084-0.492-0.084-0.492-0.508-2.984-0.121-0.748-0.242-1.495-0.367-2.266-8.936 0.358-8.936 0.358-13 2.813-2.996 4.775-3.305 9.667-4 15.187-1.088 6.061-2.347 10.051-6 15-1.223 3.671-1.365 7.079-1.687 10.938-0.781 7.129-2.467 11.98-5.993 18.137-1.962 4.348-2.002 8.491-2.019 13.211-0.301 2.714-0.301 2.714-3.301 5.714-3.859 0.298-7.556 0.41-11.416 0.389-0.589 2e-3 -0.589 2e-3 -3.568 0.016-3.903 0.013-7.805 4e-3 -11.707-6e-3 -2.704 2e-3 -5.408 5e-3 -8.112 9e-3 -5.67 4e-3 -11.34-2e-3 -17.01-0.016-7.283-0.018-14.566-8e-3 -21.849 0.01-5.583 0.011-11.167 8e-3 -16.751 0-2.686-2e-3 -5.372 0-8.058 7e-3 -3.748 8e-3 -7.495-4e-3 -11.242-0.02-0.56 3e-3 -0.56 3e-3 -3.393 0.018-2.634-0.022-5.267-0.199-7.894-0.407-2-3-2-3-1.937-6.125 0.937-3.875 0.937-3.875 3.375-7.812 3.847-6.445 3.826-13.747 4.562-21.063 0.853-5.117 1.918-8.952 4.5-13.375 3.035-5.63 3.165-11.239 3.621-17.532 0.444-5.054 1.324-8.72 3.879-13.093 3.027-5.18 3.55-9.531 4-15.5 0.558-7.395 1.928-11.955 5.617-18.265 2.411-5.639 2.436-11.663 2.766-17.719 0.675-4.935 2.216-8.184 4.617-12.516 2.28-4.612 2.404-8.953 2.75-14.062 0.489-5.879 1.233-10.775 4.25-15.938 3.027-5.18 3.55-9.531 4-15.5 0.451-5.968 0.974-10.319 4-15.5 3.811-6.531 3.814-12.977 4.375-20.398 0.75-5.518 2.664-9.353 5.242-14.211 2.256-5.532 2.421-11.21 2.766-17.129 0.837-5.778 2.656-10.209 6.72-14.462 3.974-2.468 6.851-2.297 11.515-2.294zm104.38 43.494c-5.35 7.217-5.595 13.698-6.34 22.516-0.637 4.328-1.64 7.15-3.66 10.984-2.77 5.269-3.525 9.632-4 15.563-0.463 5.765-1.085 9.872-4 14.875-3.848 6.617-3.985 13.372-4.383 20.84-0.658 4.506-1.631 5.946-4.617 9.222-0.437 3.688-0.437 3.688 0 7 5.446 3.631 12.491 2.413 18.875 2.438 0.736 0.016 0.736 0.016 4.457 0.1 1.414 7e-3 2.828 0.014 4.285 0.021 1.296 0.014 2.591 0.027 3.926 0.041 4.34-0.753 5.607-2.336 8.457-5.6 1.361-0.866 2.723-1.732 4.125-2.625 4.456-3.212 5.135-6.596 6.227-11.812 0.82-3.241 2.343-5.181 4.648-7.563 1.686-3.371 1.414-7.148 1.688-10.875 0.638-7.325 2.234-12.632 5.933-18.96 2.366-5.429 2.349-11.187 2.813-17.036 0.525-3.825 1.089-5.745 3.191-8.879 3.35-5.994 3.585-11.521 2.375-18.25-2.939-3.461-4.762-4.587-9-6-4.954-0.29-9.913-0.277-14.875-0.312-0.688-0.015-0.688-0.015-4.168-0.088-1.324-8e-3 -2.648-0.017-4.012-0.025-1.211-0.015-2.423-0.029-3.671-0.044-3.93 0.564-5.472 1.71-8.274 4.469z" fill="#AE9595"/>
<path transform="translate(1099.4 445.75)" d="m0 0c0.796-3e-3 0.796-3e-3 4.822-0.017 1.776 4e-3 3.553 8e-3 5.329 0.012 1.861-3e-3 3.722-6e-3 5.582-0.01 5.067-0.01 10.133-6e-3 15.199 0 5.298 5e-3 10.596 1e-3 15.894-2e-3 8.903-4e-3 17.807 1e-3 26.711 0.01 10.29 0.011 20.58 8e-3 30.871-3e-3 8.831-0.01 17.661-0.011 26.492-6e-3 5.276 4e-3 10.551 4e-3 15.827-3e-3 4.965-5e-3 9.93-1e-3 14.895 0.01 1.821 3e-3 3.642 2e-3 5.463-2e-3 2.489-6e-3 4.978 2e-3 7.467 0.011 1.392 1e-3 2.784 2e-3 4.218 2e-3 3.887 0.256 7.114 1.107 10.823 2.252 0.774 0.082 0.774 0.082 4.688 0.5 4.312 0.5 4.312 0.5 8.312 2.5 0.619 0.804 1.238 1.609 1.875 2.437 2.457 2.963 4.699 3.885 8.125 5.563 3.722 3.358 6.797 7.156 10 11 0.887 0.846 1.774 1.691 2.688 2.562 2.312 2.438 2.312 2.438 3.312 5.125 0.33 0.764 0.66 1.527 1 2.313 0.804 0.278 1.607 0.557 2.434 0.844 2.566 1.156 2.566 1.156 3.789 3.363 0.277 0.86 0.554 1.72 0.84 2.605 1.017 3.098 1.808 5.039 3.965 7.524 2.552 3.447 2.862 6.253 3.472 10.476 1.033 6.224 2.37 10.762 5.5 16.188 4.783 19.13 5.433 48.134-3.562 66.125-1.461 3.939-1.875 7.211-2.313 11.375-0.746 6.363-2.219 9.385-6.125 14.5-1.133 3.571-2.052 7.147-2.91 10.793-1.181 3.477-2.446 4.754-5.09 7.207-0.66 1.506-1.32 3.011-2 4.562-2 4.438-2 4.438-6 7.438-1.089 2.305-1.089 2.305-1.937 4.875-1.632 4.437-3.503 6.941-7.063 10.125l-2 4c-0.783 0.454-1.567 0.907-2.375 1.375-3.258 2.017-4.534 4.455-6.625 7.625l-4 2c-0.237 0.402-0.237 0.402-1.437 2.437-1.829 3-3.593 3.781-6.563 5.563-0.237 0.423-0.237 0.423-1.437 2.562-1.563 2.438-1.563 2.438-4.625 3.438-2.938 1-2.938 1-4.188 3.5-0.247 0.825-0.495 1.65-0.75 2.5-2 2-2 2-4.25 2.812-2.75 1.188-2.75 1.188-5.5 3.625-3.25 2.563-3.25 2.563-7.812 4.063-4.438 1.5-4.438 1.5-6.688 4-3.815 3.468-7.617 3.704-12.589 4.68-4.113 1.067-6.832 3.239-10.161 5.82-4.754 1.139-9.421 1.128-14.294 1.134-0.819 2e-3 -1.639 4e-3 -2.484 7e-3 -2.738 6e-3 -5.476 5e-3 -8.214 4e-3 -1.967 3e-3 -3.933 7e-3 -5.9 0.01-5.334 9e-3 -10.669 0.012-16.003 0.012-4.451 1e-3 -8.902 5e-3 -13.354 8e-3 -10.496 9e-3 -20.992 0.011-31.488 0.01-10.838 0-21.676 0.01-32.514 0.026-9.301 0.013-18.603 0.018-27.904 0.018-5.557 0-11.114 2e-3 -16.672 0.013-5.221 0.01-10.442 0.01-15.663 2e-3 -1.919-1e-3 -3.838 2e-3 -5.758 8e-3 -2.613 8e-3 -5.225 3e-3 -7.838-5e-3 -1.465 1e-3 -2.929 1e-3 -4.438 2e-3 -3.476-0.249-3.476-0.249-6.476-2.249 0.249-2.98 0.66-5.32 2-8 0.268-2.519 0.515-5.04 0.75-7.563 0.834-7.107 2.386-11.492 6.25-17.437 1.096-4.382 1.352-8.496 1.688-13 0.639-7.269 2.261-12.495 5.934-18.77 1.805-4.23 2.114-8.383 2.441-12.918 0.76-9.964 0.76-9.964 3.437-14 3.72-6.417 3.768-13.029 4.5-20.312 0.853-5.117 1.918-8.953 4.5-13.375 3.051-5.648 3.221-11.472 3.692-17.737 0.385-4.44 0.827-7.838 3.308-11.576 3.72-6.417 3.768-13.029 4.5-20.312 0.853-5.117 1.918-8.953 4.5-13.375 3.393-6.291 3.432-13.049 3.848-20.039 0.705-4.957 2.239-8.233 4.652-12.586 2.281-4.612 2.404-8.953 2.75-14.063 0.612-7.307 2.174-12.801 5.86-19.144 1.998-4.014 2.481-7.973 2.969-12.395 0.99-5.63 5.011-4.649 9.828-4.652zm100.59 43.254c-1.678 3.357-1.413 7.101-1.687 10.812-0.54 6.186-1.356 11.127-4.313 16.688-2.864 5.398-3.537 9.912-4 16-0.571 7.521-2.12 12.467-5.621 19.047-1.736 4.349-2.107 8.58-2.441 13.203-0.76 9.902-0.76 9.902-3.438 14-3.605 6.13-3.767 12.27-4.5 19.25-0.716 5.307-1.805 9.845-4.5 14.5-2.575 4.739-3 8.96-3.437 14.312-0.504 5.946-1.265 10.354-4.063 15.625-3.72 7.061-4.096 13.829-4.675 21.668-0.325 3.895-0.325 3.895-1.325 5.895-0.25 4.5-0.25 4.5 0 9 4.637 3.091 9.359 2.369 14.813 2.375 1.081 0.024 2.162 0.049 3.275 0.074 6.232 0.023 9.991-0.263 14.912-4.449 0.441-0.271 0.441-0.271 2.668-1.641 7.364-4.704 9.25-8.641 11.207-17.172 0.946-3.52 1.936-5.742 3.625-8.875 2.621-5.446 3.052-10.739 3.438-16.687 0.512-7.816 1.915-13.166 5.684-20.113 2.164-5.512 2.242-11.102 2.618-16.967 0.523-7.085 2.059-11.565 5.76-17.545 0.911-3.642 1.239-7.019 1.495-10.75 0.539-7.319 1.207-13.518 4.505-20.188 3.343-6.797 3.715-12.942 4.168-20.37 0.508-6.829 2.344-11.814 5.547-17.899 2.136-4.642 2.037-7.74 1.285-12.793-2.856-5.293-5.411-7.894-11-10-3.82-0.429-7.597-0.419-11.437-0.375-1.011-0.012-2.023-0.023-3.064-0.035-5.827 0.023-10.298 0.477-15.499 3.41z" fill="#AE9595"/>
<path transform="translate(872.98 441.76)" d="m0 0c1.08-8e-3 2.161-0.016 3.274-0.024 2.288-0.014 4.576-0.025 6.864-0.033 2.33-0.011 4.659-0.032 6.988-0.061 3.375-0.043 6.749-0.059 10.124-0.07 1.03-0.017 2.059-0.035 3.12-0.053 7.14 0.022 12.16 1.498 18.653 4.479 4.522 1.72 8.559 2.333 13.375 2.75 7.158 0.868 10.204 2.685 15.625 7.25 1.341 0.33 2.682 0.66 4.063 1 4.888 1.242 7.206 3.684 10.937 7 1.032 0.33 2.063 0.66 3.125 1 3.896 1.355 5.311 3.844 7.875 7 0.846 0.33 1.692 0.66 2.563 1 3.476 1.426 4.443 3.883 6.437 7 0.413 0.33 0.413 0.33 2.5 2 2.926 2.341 4.523 4.836 6.5 8 0.99 1.32 1.98 2.64 3 4 0.454 1.465 0.908 2.929 1.375 4.438 1.625 4.562 1.625 4.562 4.129 6.828 3.282 3.595 3.449 6.26 4.059 11.047 0.968 6.458 2.151 11.1 5.437 16.687 1.732 6.926 1.227 14.078 1.25 21.188 0.011 0.788 0.011 0.788 0.063 4.775 0.027 8.016-0.1 14.652-3.313 22.037-2.343 5.999-3.279 11.185-3.875 17.625-0.699 6.769-1.947 9.975-6.125 15.375-0.553 2.317-1.024 4.654-1.437 7-1.167 6.316-3.122 9.282-7.563 14-1.024 2.992-2.025 5.992-3 9-2.437 3.188-2.437 3.188-5 6-0.701 1.093-1.402 2.187-2.125 3.313-1.875 2.687-1.875 2.687-4.875 3.687-0.694 1.991-1.356 3.993-2 6-3.428 6.034-8.301 10.944-13 16-0.804 0.887-1.608 1.774-2.437 2.688-5.134 4.633-10.962 8.376-16.875 11.937-3.414 2.199-5.953 4.399-8.688 7.375-2 2-2 2-5.75 2.813-4.25 1.187-4.25 1.187-7 3.625-3.979 3.137-7.329 3.722-12.25 4.594-3 0.968-3 0.968-5.761 3.464-4.151 3.21-7.988 3.579-13.051 4.067-7.211 0.737-12.632 2.293-19.188 5.437-10.986 2.747-22.924 2.101-34.187 2.125-1.163 5e-3 -2.326 9e-3 -3.524 0.014-12.42-0.022-23.279-0.21-34.601-5.764-3.382-1.261-5.707-1.635-9.25-1.875-5.725-0.399-9.43-1.757-13.813-5.562-2.625-1.938-2.625-1.938-6.625-2.875-4.564-1.213-5.848-2.669-9-6.063-1.216-0.66-2.433-1.32-3.687-2-3.707-2.238-3.892-3.144-5.313-7-1.645-0.717-3.314-1.383-5-2-3-4-3-4-3-6-0.371-0.123-0.371-0.123-2.25-0.75-3.674-1.67-4.652-3.84-6.75-7.25-0.866-0.948-1.732-1.897-2.625-2.875-2.375-3.125-2.375-3.125-3.375-7.187-1.134-4.467-2.637-5.92-6-8.938-1.009-3.03-1.132-5.265-1.25-8.437-0.43-5.908-2.096-10.535-4.593-15.871-3.185-7.414-2.341-15.528-2.344-23.442-0.012-1.428-0.025-2.856-0.037-4.328-0.013-9.327 0.487-17.279 4.224-25.922 1.885-4.884 2.428-9.416 2.875-14.625 0.633-6.51 1.686-10.223 5.75-15.265 1.693-2.597 1.978-4.675 2.375-7.735 0.761-5.646 3.166-8.149 7-12.375 1.025-2.991 2.026-5.991 3-9 2.438-3.187 2.438-3.187 5-6 0.681-1.031 1.362-2.062 2.063-3.125 1.797-2.666 3.677-4.614 5.937-6.875 0.608-0.911 1.215-1.822 1.84-2.761 7.839-11.752 17.427-20.512 29.16-28.239 0.681-0.722 1.362-1.443 2.063-2.187 1.937-1.813 1.937-1.813 4.562-2.25 0.784-0.186 1.568-0.371 2.375-0.563 1.125-2.437 1.125-2.437 2-5 3-2 3-2 7.438-2.812 4.562-1.188 4.562-1.188 6.449-3.668 2.694-3.212 4.408-3.373 8.488-4.02 4.215-0.671 6.197-1.118 9.426-3.996 4.125-3.228 7.961-3.58 13.012-4.066 7.211-0.737 12.632-2.294 19.187-5.438 5.009-1.252 9.848-1.202 14.977-1.238zm-2.414 48.738c-0.846 1.155-1.691 2.31-2.563 3.5-0.886 0.557-1.773 1.114-2.687 1.688-3.297 3.297-3.603 6.786-4.559 11.265-0.993 4.015-2.808 7.415-4.754 11.047-0.949 3.797-1.273 7.37-1.545 11.262-0.601 8.225-1.267 15.331-5.333 22.68-2.299 4.219-2.339 8.623-2.667 13.32-0.673 9.203-1.807 16.609-6.455 24.738-1.133 3.401-1.298 6.617-1.545 10.174-0.598 8.254-1.253 15.394-5.333 22.768-2.299 4.219-2.339 8.622-2.667 13.32-0.601 8.225-1.267 15.331-5.333 22.68-2.445 4.489-2.316 9.009-2.372 13.996-0.025 1.391-0.051 2.782-0.078 4.215 0.426 4.992 1.616 7.332 5.332 10.621 4.595 1.881 9.014 1.819 13.934 1.851 0.976 0.045 1.953 0.091 2.959 0.137 5.661 0.054 7.414-0.087 11.635-4.219 0.814-1.169 1.629-2.338 2.468-3.543 0.846-0.433 1.692-0.866 2.563-1.312 3.399-2.353 4.464-5.304 6.129-9.02 1.308-2.668 1.308-2.668 3.398-5.347 2.547-4.427 2.67-8.647 2.91-13.633 0.37-7.576 1.693-12.841 5-19.688 2.087-5.899 2.426-11.563 2.813-17.75 0.553-7.42 1.37-13.623 5.066-20.226 3.226-5.823 2.755-13.264 3.196-19.783 0.455-5.697 1.38-10.045 3.925-15.241 2.879-6.576 3.512-12.257 3.875-19.312 0.579-8.645 1.803-15.04 6.125-22.688 1.202-4.805 1.436-9.514 1.688-14.437 0.06-0.942 0.12-1.884 0.182-2.854 0.471-9.146 0.471-9.146-1.87-12.709-2.093-1.328-2.093-1.328-4.5-2.25-4.5-1.75-4.5-1.75-6.5-2.75-8.341-0.906-16.588 1.545-22.437 7.5z" fill="#AE9595"/>
<path transform="translate(560.19 441.19)" d="m0 0c1.109 0.018 2.218 0.036 3.36 0.054 7.487 0.263 13.579 1.817 20.452 4.758 3.937 1.559 7.307 2.145 11.5 2.438 5.676 0.446 9.488 1.718 13.75 5.625 2.903 2.045 4.322 2.31 7.75 2.813 5.245 0.859 6.791 2.874 10 7.124 2.32 1.032 4.655 2.03 7 3 2.392 1.931 4.727 3.933 7 6 0.991 0.784 1.981 1.568 3 2.376 5.148 4.504 9.489 8.923 12.126 15.312 1.874 4.312 1.874 4.312 4.437 6.75 3.06 3.217 3.589 6.041 4.684 10.262 0.948 2.894 2.479 4.33 4.753 6.3 1.427 5.707 1.817 11.479 2.403 17.325 0.597 4.675 0.597 4.675 1.644 9.183 2.371 11.175 1.535 22.693-1.269 33.692-0.803 3.927-1.127 7.707-1.399 11.698-0.56 8.183-1.388 14.639-6 21.618-1.645 2.965-2.02 5.444-2.441 8.797-0.677 5.384-2.3 7.607-5.938 11.687-0.916 2.555-1.602 5.091-2.226 7.731-0.774 2.269-0.774 2.269-3.774 5.269h-2c-0.135 0.702-0.27 1.403-0.41 2.126-1.666 7.344-4.194 11.682-9.59 16.874-2.83 2.763-5.192 5.27-7.5 8.5-4.097 5.737-9.161 9.939-14.5 14.5-1.353 1.314-2.688 2.645-4 4-3.571 3.662-7.028 6.867-11.5 9.438-2.5 1.562-2.5 1.562-4.187 3.562-2.541 2.198-4.104 2.607-7.313 3.438-4.506 1.2-6.449 2.525-9 6.562-2 1-2 1-6.124 1.188-4.876 0.812-4.876 0.812-8.376 3.75-5.034 4.225-10.669 3.912-17 4.434-4.614 0.644-8.216 1.893-12.5 3.691-8.475 3.392-15.931 3.909-25 3.937-2.195 0.026-4.39 0.052-6.585 0.079-33.503 0.29-33.503 0.29-45.602-5.641-3.605-1.359-6.453-1.813-10.25-2.25-4.495-0.601-7.307-1.286-10.813-4.188-4.272-3.418-7.477-3.898-12.75-5-3-4-3-4-3-6-0.832-0.192-1.665-0.384-2.523-0.582-4.528-1.846-7.622-4.775-11.101-8.105-0.655-0.6-1.31-1.2-1.985-1.818-4.057-3.823-6.759-7.523-9.391-12.495l-2.437-2.437c-6.161-6.161-10.016-13.961-11.437-22.5-0.697-3.946-1.41-5.507-3.688-9.063-5.484-8.999-3.624-21.706-3.623-31.984-2e-3 -2.811-0.02-5.621-0.039-8.432-0.081-24.994-0.081-24.994 6.127-36.107 1.604-3.62 1.664-7.082 1.863-10.996 0.486-5.146 3.208-8.445 6.234-12.481 1.089-3.24 1.957-6.507 2.84-9.808 1.24-3.41 2.825-5.448 5.16-8.192 0.64-1.319 1.279-2.639 1.938-4 2.006-3.89 4.015-5.952 7.062-9 1.016-2.326 2.015-4.66 3-7 1.627-2.032 3.292-4.035 5-6 0.496-0.907 0.991-1.814 1.5-2.75 1.5-2.25 1.5-2.25 4.063-3.25 0.402-0.165 0.402-0.165 2.437-1 0.31-0.783 0.619-1.567 0.938-2.374 1.461-3.61 3.851-4.528 7.062-6.626 0.454-0.804 0.908-1.608 1.376-2.437 2.408-3.798 5.779-5.324 9.624-7.563 1.032-0.701 2.063-1.402 3.126-2.124 2.874-1.876 2.874-1.876 5.937-3.313 2.937-1.563 2.937-1.563 5.375-4.125 3.071-2.921 5.538-3.288 9.562-4.438 0.351-0.402 0.351-0.402 2.126-2.437 3.918-3.493 7.706-3.747 12.769-4.742 3.957-1.045 6.239-2.954 9.105-5.821 3.188-1.062 5.714-1.172 9.063-1.312 5.391-0.372 9.638-1.382 14.523-3.652 6.283-2.694 12.389-3.46 19.164-3.723 0.941-0.038 1.881-0.075 2.849-0.114 7.868-0.254 15.721-0.214 23.589-0.011zm-30.766 52.656c-2.128 3.227-3.742 6.681-5.422 10.156-1.314 1.352-2.643 2.691-4 4-0.949 3.797-1.273 7.371-1.545 11.263-0.673 9.203-1.807 16.608-6.455 24.737-1.175 3.526-1.302 6.893-1.545 10.581-0.637 9.278-1.408 16.397-6.455 24.419-0.949 3.797-1.273 7.371-1.545 11.262-0.601 8.225-1.267 15.332-5.333 22.68-2.298 4.22-2.339 8.623-2.667 13.321-0.673 9.203-1.807 16.608-6.455 24.737-2.538 7.617-2.072 16.529-2.25 24.5-0.025 1.104-0.051 2.207-0.078 3.344 0.38 3.651 1.435 6.031 3.328 9.156 3.836 1.918 8.52 1.272 12.75 1.313 0.991 0.029 1.981 0.058 3 0.088 7.633 0.066 11.296-1.587 16.876-6.901 0.783-0.825 1.567-1.649 2.374-2.5 0.668-0.59 1.336-1.18 2.024-1.789 2.34-2.617 3.019-4.724 3.976-8.085 1.01-3.525 1.894-5.979 4.055-8.969 2.469-4.005 2.691-7.11 3.071-11.781 0.149-1.589 0.299-3.177 0.453-4.813 0.139-1.506 0.278-3.011 0.421-4.563 0.893-7.536 2.275-13.27 6-20 0.804-3.214 1.185-5.775 1.36-9.035 0.676-10.687 1.272-19.466 6.64-28.965 0.978-3.91 1.28-7.608 1.546-11.617 0.586-8.428 1.126-15.843 5.333-23.359 2.428-4.381 2.329-9.005 2.616-13.893 0.597-9.49 1.627-16.794 6.232-25.263 2.139-4.816 2.092-9.714 1.273-14.868-2.762-5.524-6.279-7.011-12-9-10.603-1.782-20.896 1.317-27.578 9.844z" fill="#AE9595"/>
<path transform="translate(239.77 447.5)" d="m0 0c6.305 0.75 12.616 0.948 18.957 1.16 5.319 0.428 9.565 0.932 13.754 4.387 3.261 2.529 5.834 2.729 9.898 3.269 7.342 1.285 9.873 3.127 14.625 8.688 3.438 1.437 3.438 1.437 6 2 0.438 2.5 0.438 2.5 0 6-1.615 2.149-3.404 4.034-5.257 5.98-2.343 2.715-3.409 5.717-4.743 9.02-0.66 0.598-1.32 1.196-2 1.812-2.313 2.531-2.551 4.079-3.312 7.375-0.715 2.645-0.715 2.645-1.688 4.813-3.375 1.375-3.375 1.375-7 1-3.152-2.006-5.351-4.351-8-7-3.235-0.884-6.475-1.456-9.773-2.059-3.565-1.04-5.445-2.537-8.227-4.941-9.395-3.132-21.111-2.295-31-2-1.019 5e-3 -2.039 0.01-3.089 0.016-7.358 0.254-10.559 1.632-15.911 6.984-0.701 0.433-0.701 0.433-4.25 2.625-5.14 3.256-6.984 6.483-8.687 12.125-1.104 3.652-2.298 6.681-4.133 10.051-2.184 4.751-2.559 8.436-2.867 13.636-0.768 10.051-0.768 10.051-3.563 14.313-3.606 6.13-3.749 12.274-4.5 19.25-0.697 4.535-1.563 8.289-4 12.254-2.19 4.102-2.706 7.079-3.125 11.683-1.474 13.807-1.474 13.807-4.875 19.286-2.17 4.099-2.704 7.059-3.125 11.652-1.66 15.516-1.66 15.516-4.836 19.723-2.642 4.408-3.186 8.705-3.789 13.714-0.125 0.9-0.25 1.799-0.379 2.725-2.222 16.891-2.222 16.891 2.129 23.963 6.849 5.527 12.57 5.77 21.188 5.625 1.162 0.019 2.324 0.039 3.521 0.059 8.343-0.048 8.343-0.048 12.498-2.833 1.969-3.13 2.696-5.463 3.293-9.101 1.011-5.176 2.581-8.619 5.383-13.121 1.538-3.619 1.715-7.033 2.055-10.942 0.508-5.666 1.234-9.746 4.062-14.687 2.8-4.9 3.522-8.881 4-14.5 0.593-6.963 2.183-11.396 5.621-17.387 2.203-4.973 2.362-10.065 2.665-15.449 0.877-4.499 2.434-6.512 5.714-9.664 4.934-1.234 9.654-1.148 14.704-1.145 1.09-4e-3 2.18-7e-3 3.302-0.011 3.605-9e-3 7.21-0.011 10.815-0.012 2.5-3e-3 5.001-7e-3 7.501-0.01 5.241-6e-3 10.481-8e-3 15.722-7e-3 6.73 0 13.46-0.014 20.19-0.031 5.163-0.011 10.325-0.013 15.488-0.013 2.482-1e-3 4.965-5e-3 7.447-0.013 3.462-0.01 6.924-7e-3 10.387-1e-3 0.516-3e-3 0.516-3e-3 3.132-0.017 7.084 0.032 7.084 0.032 9.312 2.26-0.331 4.193-1.336 5.449-4 9-1.055 4.222-1.344 8.162-1.687 12.5-0.612 5.873-1.335 10.331-4.313 15.437-3.011 5.204-3.548 9.582-4 15.563-0.559 7.405-1.933 12.02-5.625 18.348-1.775 4.07-2.022 7.734-2.375 12.152-0.463 5.797-1.086 9.957-4 15-3.668 6.355-3.85 12.492-4.445 19.703-0.926 7.177-4.286 16.029-9.555 21.297-2.606 0.102-5.216 0.131-7.824 0.134-0.83 2e-3 -1.659 4e-3 -2.514 6e-3 -2.802 7e-3 -5.604 6e-3 -8.406 5e-3 -2.001 3e-3 -4.001 7e-3 -6.001 0.01-5.451 9e-3 -10.901 0.012-16.352 0.012-4.545 1e-3 -9.09 5e-3 -13.635 8e-3 -10.724 8e-3 -21.448 0.011-32.172 0.01-11.069 0-22.138 0.01-33.207 0.026-9.494 0.013-18.988 0.018-28.482 0.018-5.674-1e-3 -11.349 2e-3 -17.023 0.013-5.339 0.01-10.678 0.01-16.017 2e-3 -1.96-1e-3 -3.92 2e-3 -5.88 8e-3 -2.676 7e-3 -5.351 3e-3 -8.027-5e-3 -1.498 1e-3 -2.995 1e-3 -4.538 2e-3 -4.792-0.304-8.494-0.796-11.926-4.288-2.553-2.508-4.442-2.729-7.933-3.336-5.607-1.239-7.751-2.808-11.063-7.625-1.659-1.012-3.325-2.013-5-3-1.378-1.629-2.712-3.298-4-5-0.639-0.598-1.278-1.196-1.937-1.813-5.944-6.303-9.224-14.083-11.5-22.312-1.173-4.096-2.721-6.655-5.563-9.875-1.619-6.476-1.668-13.102-2.062-19.75-0.091-1.422-0.182-2.844-0.276-4.309-0.929-15.384-0.733-30.563 0.213-45.941 0.079-1.435 0.158-2.87 0.239-4.348 0.599-9.951 1.563-17.548 6.734-26.226 1.295-2.726 1.694-5.067 2.09-8.051 0.804-5.62 3.294-8.136 7.062-12.375 0.33-1.506 0.66-3.011 1-4.563 1.196-5.306 3.066-6.818 7-10.437 1.372-2.311 2.71-4.643 4-7l3-3c1.208-1.958 2.414-3.916 3.614-5.879 3.417-5.227 7.79-9.908 12.386-14.121h2l2-4c6.606-6 6.606-6 10-6v-2c2.249-1.224 4.499-2.444 6.762-3.641 2.768-1.681 4.236-3.839 6.238-6.359 2.65-1.366 5.317-2.7 8-4 0.622-0.67 1.243-1.341 1.883-2.031 3.245-3.018 6.792-3.187 11.047-3.965 3.07-1.004 3.07-1.004 5.93-3.508 3.89-3.092 6.62-3.398 11.515-3.996 6.991-1.045 10.936-2.496 16.625-6.5 5.262-1.036 10.526-1.217 15.875-1.438 6.322-0.284 12.533-0.801 18.813-1.625 12.261-1.518 23.867-1.167 36.078 0.559z" fill="#AE9595"/>
<path transform="translate(2441.4 445.81)" d="m0 0c2.597 0.192 2.597 0.192 5.597 3.192 2.002 4.046 2.71 8.202 3.5 12.625 0.237 1.313 0.474 2.625 0.719 3.977 0.258 1.451 0.515 2.903 0.781 4.398 0.163 0.802 0.326 1.605 0.494 2.431 1.332 6.724 1.881 13.245 2.069 20.089 0.036 1.061 0.073 2.122 0.111 3.215 0.116 3.359 0.223 6.718 0.326 10.078 0.925 29.845 0.925 29.845 3.982 43.608 2.969 13.423 3.772 26.418 4.081 40.142 0.426 17.662 2.062 34.218 5.562 51.562 2.82 14.949 2.59 30.315 2.983 45.481 0.565 20.48 0.565 20.48 4.392 26.394-1 4-1 4-4 6-3.479 0.196-6.879 0.273-10.359 0.259-1.065 4e-3 -2.13 7e-3 -3.228 0.011-3.531 8e-3 -7.062 3e-3 -10.593-4e-3 -2.45 1e-3 -4.899 3e-3 -7.349 6e-3 -5.14 3e-3 -10.28-2e-3 -15.42-0.011-6.589-0.011-13.179-5e-3 -19.769 7e-3 -5.061 7e-3 -10.123 5e-3 -15.184 0-2.43-1e-3 -4.86 0-7.289 5e-3 -3.397 5e-3 -6.794-3e-3 -10.191-0.014-1.006 4e-3 -2.012 8e-3 -3.048 0.012-8.857-0.054-8.857-0.054-12.57-2.271-2.287-3.43-2.339-5.043-2.562-9.101-0.038-0.607-0.038-0.607-0.227-3.676-0.07-1.27-0.139-2.54-0.211-3.848-0.139-2.492-0.285-4.985-0.437-7.476-0.061-1.107-0.122-2.214-0.184-3.354-0.459-4.297-1.382-8.341-2.379-12.545-12.887-0.311-25.774-0.582-38.662-0.801-6.68-0.117-13.356-0.281-20.034-0.49-4.021-0.118-8.042-0.199-12.064-0.271-1.901-0.041-3.801-0.099-5.7-0.174-14.749-0.564-14.749-0.564-19.23 2.69-1.812 2.286-3.096 4.403-4.31 7.046-0.557 0.887-1.114 1.774-1.687 2.688-0.434 0.763-0.867 1.526-1.313 2.312-3.595 5.731-3.595 5.731-7 8-0.69 2.463-1.378 4.927-2.051 7.395-1.448 3.975-4.052 6.588-6.949 9.605-0.99 1.32-1.98 2.64-3 4-2.297 0.481-2.297 0.481-5.022 0.454-1.021 0-2.042 0-3.094-1e-3 -1.1-0.02-2.2-0.041-3.333-0.062-0.564-3e-3 -0.564-3e-3 -3.418-0.017-3.607-0.023-7.213-0.073-10.82-0.124-2.444-0.02-4.887-0.038-7.33-0.054-5.995-0.045-11.989-0.114-17.983-0.196-0.668-2.367-0.668-2.367-1-5 0.887-0.701 1.774-1.402 2.688-2.125 4.053-3.518 4.719-6.387 6.312-11.371 1.293-3.236 3.277-4.409 6-6.504 1.037-2.987 2.038-5.987 3-9 1.291-1.374 2.626-2.709 4-4 0.66-1.34 1.32-2.681 2-4.062 2-3.938 2-3.938 6-6.938 0.836-2.269 0.836-2.269 1.375-4.812 1.365-5.184 3.747-7.471 7.625-11.188 1.058-2.644 2.061-5.311 3-8 1.308-1.687 2.642-3.353 4-5 0.66-1.361 1.32-2.722 2-4.125 2-3.875 2-3.875 6-6.875 0.836-2.269 0.836-2.269 1.375-4.812 1.373-5.193 3.737-7.458 7.625-11.188 1.545-2.929 2.73-5.934 4-9 0.99-1.32 1.98-2.64 3-4 0.619-1.299 1.238-2.599 1.875-3.937 2.125-4.063 2.125-4.063 4.75-6.563 2.375-2.5 2.375-2.5 3.313-6.437 1.296-4.957 3.448-6.521 7.062-10.063 1.545-2.93 2.73-5.933 4-9 0.99-1.32 1.98-2.64 3-4 0.619-1.299 1.238-2.599 1.875-3.937 2.125-4.063 2.125-4.063 4.688-6.5 2.437-2.563 2.437-2.563 3.937-7.063 1.586-4.757 3.017-6.102 6.5-9.5 1.384-2.977 2.717-5.978 4-9 1.306-2.018 2.636-4.02 4-6 0.474-1.01 0.949-2.021 1.438-3.062 1.562-2.938 1.562-2.938 4.062-5.25 2.5-2.688 2.5-2.688 4-7.188 1.586-4.757 3.017-6.102 6.5-9.5 1.384-2.977 2.717-5.978 4-9 1.306-2.018 2.636-4.02 4-6 0.474-1.01 0.949-2.021 1.438-3.062 1.562-2.938 1.562-2.938 4.062-5.25 2.5-2.688 2.5-2.688 4.063-7.375 0.474-1.423 0.948-2.847 1.437-4.313l4-2c1.125-2.937 1.125-2.937 2-6 2-3 2-3 5-4 3.026-0.121 6.031-0.185 9.058-0.205 0.927-0.01 1.854-0.02 2.81-0.03 3.071-0.032 6.143-0.056 9.214-0.081 2.134-0.021 4.268-0.042 6.401-0.063 5.625-0.055 11.25-0.105 16.875-0.153 5.712-0.05 11.424-0.106 17.136-0.161 8.354-0.08 16.707-0.158 25.06-0.231 0.436-4e-3 0.436-4e-3 2.641-0.023 6.932-0.06 6.932-0.06 10.208-0.245zm-113.4 106.19c-0.231 0.797-0.461 1.594-0.699 2.414-1.937 6.293-3.756 10.692-8.301 15.586-0.516 1.031-1.031 2.063-1.562 3.125-1.438 2.875-1.438 2.875-3.438 4.688-2 2.187-2 2.187-3.375 6.625-1.828 5.133-3.52 6.211-7.625 9.562-1.584 2.92-2.74 5.916-4 9-0.99 1.32-1.98 2.64-3 4-0.454 1.176-0.907 2.351-1.375 3.563-1.79 3.786-2.979 4.614-6.625 6.437-1.239 2.478-1.167 4.237-1.187 7-0.015 0.887-0.029 1.774-0.043 2.688 0.23 2.312 0.23 2.312 2.23 4.312 2.27 0.236 2.27 0.236 5.137 0.215 0.535-2e-3 0.535-2e-3 3.246-0.012 1.161-0.017 2.323-0.033 3.519-0.05 1.189-0.014 2.378-0.027 3.602-0.04 2.518-0.033 5.036-0.071 7.553-0.114 3.861-0.061 7.721-0.084 11.582-0.106 2.442-0.036 4.884-0.075 7.326-0.115 0.58-2e-3 0.58-2e-3 3.513-8e-3 0.538-0.013 0.538-0.013 3.256-0.079 0.474-6e-3 0.474-6e-3 2.869-0.038 2.397-0.653 2.397-0.653 4.207-3.016 1.408-3.12 1.503-5.237 1.397-8.648-0.027-1.146-0.055-2.291-0.083-3.471-0.041-1.161-0.082-2.322-0.124-3.518-0.019-1.067-0.038-2.133-0.057-3.233-0.234-13.18-0.891-25.894-3.943-38.767-0.347-1.554-0.693-3.109-1.051-4.711-2.747-12.087-2.747-12.087-3.949-13.289-3-0.041-6-0.042-9 0z" fill="#AE9595"/>
<path transform="translate(2007.6 445.38)" d="m0 0c0.558 0.102 0.558 0.102 3.384 0.616 2.88 0.085 5.761 0.113 8.642 0.107 0.858-1e-3 1.715-1e-3 2.598-2e-3 2.865-3e-3 5.73-0.013 8.595-0.023 2.057-4e-3 4.113-7e-3 6.17-9e-3 4.425-7e-3 8.849-0.017 13.274-0.028 6.991-0.019 13.982-0.028 20.973-0.036 19.877-0.024 39.755-0.06 59.632-0.105 10.981-0.024 21.963-0.042 32.944-0.051 6.956-7e-3 13.911-0.023 20.867-0.045 4.317-0.011 8.634-0.015 12.951-0.016 2.008-2e-3 4.016-8e-3 6.025-0.017 2.731-0.012 5.463-0.012 8.194-9e-3 1.532-3e-3 3.064-6e-3 4.642-9e-3 3.493 0.243 3.493 0.243 5.493 2.243 1.598 5.286 0.421 8.159-2 13-0.676 1.205-1.351 2.411-2.047 3.652-2.12 4.719-2.64 8.398-3.016 13.536-0.736 9.886-0.736 9.886-3.937 13.812-4.722 2.361-7.587 2.263-12.852 2.287-0.893 7e-3 -1.786 0.014-2.706 0.021-1.937 0.013-3.874 0.023-5.811 0.028-3.064 8e-3 -6.127 0.028-9.191 0.052-7.606 0.057-15.213 0.092-22.82 0.128-6.43 0.031-12.86 0.07-19.29 0.12-3.022 0.02-6.044 0.028-9.066 0.036-1.847 0.013-3.694 0.027-5.542 0.041-0.808 4e-3 -0.808 4e-3 -4.896 0.022-3.826 0.265-3.826 0.265-6.826 2.265-0.809 2.758-0.809 2.758-1.438 6.125-1.17 5.605-2.834 9.874-5.562 14.875-1.334 5.336-1.329 10.571-1.524 16.055-0.485 4.022-1.562 6.426-3.476 9.945-0.417 2.655-0.769 5.323-1 8 3.64 0.831 7.037 1.143 10.768 1.19 1.135 0.016 2.269 0.033 3.438 0.05 1.214 0.014 2.429 0.027 3.681 0.041 1.253 0.019 2.506 0.037 3.798 0.056 5.362 0.079 10.724 0.147 16.086 0.215 3.913 0.052 7.827 0.109 11.741 0.167 1.22 0.013 2.441 0.027 3.699 0.041 1.125 0.017 2.25 0.033 3.409 0.051 0.993 0.012 1.986 0.025 3.009 0.038 2.371 0.151 2.371 0.151 4.371 1.151-0.587 3.521-1.357 5.713-3 9-0.331 3.036-0.593 6.079-0.813 9.125-0.57 6.586-1.533 11.882-4.953 17.594-1.888 3.49-2.668 7.185-3.558 11.031-0.676 2.25-0.676 2.25-2.676 4.25-2.357 0.162-2.357 0.162-5.348 0.04-1.119-0.039-2.237-0.079-3.39-0.12-1.214-0.051-2.429-0.102-3.68-0.154-2.559-0.081-5.119-0.16-7.678-0.239-4.045-0.134-8.089-0.277-12.133-0.442-3.896-0.155-7.792-0.271-11.689-0.382-1.204-0.059-2.409-0.118-3.65-0.179-9.384-0.223-9.384-0.223-13.605 3.264-6.655 7.562-7.151 14.192-7.894 23.996-0.482 5.263-1.541 9.151-4.058 13.779-4.13 7.768-3.616 15.844-2.875 24.437 1 1 1 1 4.561 1.1 1.609-0.011 3.217-0.022 4.874-0.034 0.885-5e-3 1.769-9e-3 2.681-0.014 1.927-0.011 3.854-0.023 5.781-0.038 3.046-0.022 6.092-0.036 9.139-0.048 8.663-0.033 17.326-0.075 25.989-0.137 5.292-0.038 10.583-0.061 15.876-0.075 2.021-8e-3 4.043-0.021 6.065-0.041 2.823-0.026 5.646-0.034 8.469-0.038 0.805-4e-3 0.805-4e-3 4.876-0.029 0.609 0.058 0.609 0.058 3.689 0.354 2.409 3.613 2.554 4.728 2 9-1.147 2.376-2.425 4.605-3.809 6.852-3.239 5.842-2.466 12.935-2.533 19.439-0.118 3.88-0.291 7.025-2.146 10.479-3.686 3.271-6.408 2.851-11.287 2.845-0.896 5e-3 -1.791 0.011-2.714 0.017-3.007 0.013-6.014-0.01-9.021-0.033-2.153 2e-3 -4.307 6e-3 -6.46 0.012-5.853 0.01-11.706-0.011-17.559-0.038-6.118-0.024-12.236-0.021-18.354-0.021-10.274-5e-3 -20.547-0.029-30.821-0.065-11.889-0.042-23.778-0.059-35.667-0.063-12.642-3e-3 -25.284-0.022-37.927-0.047-3.65-6e-3 -7.299-9e-3 -10.949-0.013-5.729-6e-3 -11.457-0.022-17.185-0.046-2.106-8e-3 -4.213-0.012-6.319-0.012-2.867-2e-3 -5.734-0.015-8.601-0.032-0.804-2e-3 -0.804-2e-3 -4.87-0.014-3.778-0.26-3.778-0.26-6.778-2.26 0.266-3.457 1.048-5.072 3-8 0.311-2.785 0.551-5.579 0.75-8.375 0.592-6.034 1.384-10.657 4.25-16 3.314-6.294 3.718-12.308 4.172-19.261 0.522-6.638 2.345-11.106 5.449-16.88 2.103-5.313 2.24-10.753 2.621-16.393 0.353-4.529 0.725-8.023 3.258-11.841 3.751-6.377 3.777-12.988 4.5-20.25 0.676-4.864 1.409-9.028 4-13.289 2.184-4.053 2.704-6.965 3.125-11.523 0.151-1.402 0.302-2.803 0.457-4.247 0.138-1.3 0.276-2.601 0.418-3.941 0.703-5.288 1.77-9.763 4.5-14.375 2.716-4.983 3.059-9.875 3.437-15.437 0.422-6.131 1.118-11.202 4.063-16.688 2.918-5.443 3.604-10.419 4-16.5 0.49-7.522 2.064-12.898 5.625-19.523 1.771-4.478 2.066-8.848 2.375-13.602 0.686-10.07 3.43-16.235 9.5-24.125 2.5-1.75 2.5-1.75 5.116-1.366z" fill="#AE9595"/>
<path transform="translate(1799.6 447.17)" d="m0 0c4.942 6.691 7.158 11.55 7.902 19.82 0.561 3.277 1.442 4.785 3.453 7.387 3.775 4.915 4.32 10.035 5.129 16.074 0.934 3.551 0.934 3.551 3.426 6.504 3.078 3.739 3.43 6.351 4.07 11.11 0.783 5.746 1.739 8.544 5.438 12.937 1.047 3.113 1.047 3.113 1.75 6.313 0.242 1.068 0.485 2.137 0.734 3.238 0.17 0.808 0.341 1.616 0.516 2.449 3.625 0.125 3.625 0.125 8-1 1.776-2.234 2.975-4.567 4.293-7.098 2.554-4.342 5.96-7.743 9.437-11.359 2.145-2.403 3.646-4.779 5.27-7.543 1.65-1.354 3.317-2.687 5-4 1.354-1.65 2.687-3.317 4-5 1.646-1.687 3.312-3.355 5-5l7-7c0.32-0.402 0.32-0.402 1.937-2.437 1.903-2.364 3.921-4.421 6.063-6.563l2-2.5c2-2.5 2-2.5 4-4.437 2-2.063 2-2.063 3.687-4.625 2.116-3.146 4.33-6.097 6.688-9.063 0.73-0.92 1.459-1.841 2.211-2.789 3.324-3.56 5.994-6.301 11.037-6.895 3.268-0.058 6.509 0.016 9.775 0.137 1.191 0.028 2.381 0.056 3.607 0.085 3.791 0.093 7.58 0.214 11.37 0.337 2.574 0.068 5.148 0.135 7.723 0.199 6.301 0.162 12.602 0.35 18.902 0.551-2.051 9.9-2.051 9.9-5.375 13.188-2.31 2.396-4.027 4.427-5.875 7.25-1.75 2.562-1.75 2.562-4.75 3.562-0.697 1.654-1.361 3.323-2 5-1.635 1.635-3.275 3.267-4.938 4.875-2.062 2.125-2.062 2.125-4.062 4.625s-2 2.5-3.938 4.313c-2.284 2.423-3.917 5.058-5.64 7.898-1.593 2.564-3.27 5.054-4.985 7.539-0.558 0.81-1.116 1.619-1.691 2.453-1.759 2.314-3.666 4.272-5.746 6.297l-2 2.5c-1.877 2.346-3.879 4.379-6 6.5l-2 2.5c-2 2.5-2 2.5-3.938 4.313-2.284 2.423-3.917 5.058-5.64 7.898-1.593 2.564-3.27 5.054-4.985 7.539-0.558 0.81-1.116 1.619-1.691 2.453-1.759 2.314-3.666 4.272-5.746 6.297-0.639 0.804-1.279 1.609-1.938 2.438-2.88 3.579-6.127 6.699-9.5 9.812-4.115 4.416-7.159 9.479-10.324 14.602-3.075 4.949-5.983 9.123-10.238 13.148-1.343 1.994-2.677 3.993-4 6-0.682 0.535-1.364 1.07-2.066 1.621-2.907 3.576-2.569 6.837-2.809 11.379-0.531 7.343-2.056 12.511-5.75 18.852-2.336 5.347-2.288 11.002-2.75 16.765-0.77 5.399-2.745 9.267-5.25 14.043-2.163 5.254-2.269 10.604-2.75 16.223-0.626 4.12-1.689 6.835-3.625 10.492-3.663 6.989-4.017 13.904-4.48 21.633-0.52 3.992-0.52 3.992-3.52 6.992-2.504 1.252-4.207 1.131-7.011 1.14-1.06 6e-3 -2.12 0.012-3.212 0.018-1.168 1e-3 -2.335 2e-3 -3.539 3e-3 -1.226 5e-3 -2.452 0.01-3.715 0.015-4.07 0.015-8.14 0.022-12.211 0.027-2.817 6e-3 -5.634 0.012-8.451 0.017-5.912 0.011-11.824 0.017-17.735 0.02-7.594 6e-3 -15.187 0.03-22.78 0.058-5.82 0.019-11.64 0.024-17.459 0.026-2.801 3e-3 -5.601 0.011-8.402 0.024-3.908 0.017-7.815 0.015-11.723 8e-3 -1.168 0.01-2.336 0.019-3.539 0.028-1.06-5e-3 -2.12-0.011-3.213-0.016-0.924 1e-3 -1.849 2e-3 -2.802 4e-3 -0.728-0.123-1.457-0.246-2.208-0.372-2-3-2-3-1.938-6.187 1.14-4.633 3.335-7.843 5.938-11.813 0.929-3.715 1.269-7.201 1.545-11.008 0.645-8.433 1.536-14.929 6.455-21.992 1.103-4.414 1.391-8.589 1.75-13.125 0.697-7.684 2.277-13.253 6.25-19.875 1.103-4.414 1.391-8.589 1.75-13.125 0.502-5.608 1.107-10.566 3.875-15.562 2.589-4.702 3.253-7.047 2.375-12.313-0.816-0.905-1.632-1.81-2.473-2.742-3.039-3.918-3.256-6.237-3.59-11.133-0.767-7.962-2.529-12.514-6.937-19.125-0.589-3.998-0.955-7.997-1.34-12.02-0.811-4.891-2.51-8.296-5.285-12.359-1.84-3.507-2.021-6.627-2.375-10.558-0.594-6.576-1.917-11.011-5.637-16.461-1.797-3.431-1.895-6.376-2.176-10.227-0.572-5.41-1.292-9.263-4.187-13.875-3.595-5.727-3.996-11.243-4.48-17.898-0.783-5.423-3.263-8.259-6.52-12.602-0.419-4.103-0.326-5.511 2-9 3.057-0.281 5.911-0.367 8.969-0.325 0.931 1e-3 1.861 3e-3 2.82 4e-3 3.094 7e-3 6.187 0.035 9.281 0.063 2.156 8e-3 4.312 0.015 6.468 0.02 5.699 0.017 11.397 0.052 17.096 0.09 9.07 0.059 18.141 0.094 27.212 0.126 3.15 0.014 6.301 0.036 9.451 0.058 9.814 0.057 19.532-0.057 29.325-0.817 9.876-0.64 9.876-0.64 12.96 1.949z" fill="#AE9595"/>
<path transform="translate(1918,314)" d="m0 0c2 2 2 2 2.082 5.52-0.089 1.416-0.178 2.833-0.27 4.292-0.038 0.705-0.038 0.705-0.23 4.27-0.577 3.883-1.331 5.781-3.582 8.918-2.497 3.958-4.906 7.812-7 12-2.64 2.087-5.26 4.061-8 6l-4 3c-0.547 0.217-0.547 0.217-3.312 1.312-3.688 1.688-3.688 1.688-7 4.75-4.084 3.254-6.348 3.651-11.325 4.376-3.585 0.853-5.712 3.1-8.363 5.562-3.731 0.933-6.742 1.133-10.562 1.25-7.964 0.465-15.224 2.362-22.833 4.594-25.365 6.368-54.853 2.182-80.343-2.16-6.76-1.085-13.413-1.825-20.262-1.809-1.114-3e-3 -2.227-5e-3 -3.375-8e-3 -2.625 0.133-2.625 0.133-3.625 1.133-0.368 2.328-0.702 4.662-1 7 0.784 0.206 1.568 0.413 2.375 0.625 5.612 2.129 11.351 5.101 15.625 9.375 0 2.438 0 2.438-1 5-2.812 1.562-2.812 1.562-6 3-1.371 1.295-2.713 2.622-4 4-2.627 1.314-4.726 1.213-7.664 1.316-1.122 0.042-2.243 0.084-3.398 0.127-1.176 0.04-2.352 0.079-3.563 0.119-0.592 0.022-0.592 0.022-3.586 0.131-2.93 0.107-5.859 0.209-8.789 0.307l-1 7 6 2c-0.625 3.312-0.625 3.312-2 7-2.875 1.75-2.875 1.75-6 3l-4 3c-5.966 1.121-11.918 1.133-17.969 1.098-0.46-1e-3 -0.46-1e-3 -2.79-5e-3 -2.914-5e-3 -5.827-0.018-8.741-0.031-1.987-5e-3 -3.974-9e-3 -5.961-0.013-4.846-0.011-9.693-0.028-14.539-0.049-1.136 4.543-1.023 8.381-0.938 13.062 0.125 17.524 0.125 17.524-4.624 24.938-2.784 4.568-2.997 7.451-3.004 12.68-0.143 0.765-0.287 1.531-0.434 2.32l-4 2-6-6c-5.598-0.367-7.377-0.468-12 3-1.658 4.975-1.614 10.374-1.898 15.598-0.347 4.343-0.807 7.01-3.454 10.527-2.648 1.875-2.648 1.875-6.273 2-3.375-1.125-3.375-1.125-4.813-3.687-1.562-2.438-1.562-2.438-5.312-3.313-5.329 1.097-6.817 2.822-9.863 7.168-1.876 3.662-2.297 7.098-2.797 11.145-0.937 4.069-3.864 6.495-6.59 9.562-0.679 2.997-1.347 5.997-2 9-2.375 2.125-2.375 2.125-5 4-0.578 1.258-1.155 2.516-1.75 3.812-0.371 0.526-0.371 0.526-2.25 3.188-4.312 0.5-4.312 0.5-9-1-2.852-2.693-4.911-5.696-7-9-0.578-0.804-1.155-1.609-1.75-2.438-1.594-3.268-2.443-6.631-3.426-10.124-1.086-3.213-2.831-5.715-4.824-8.438-4.788-14.365-1.872-33.417-1.256-48.395 0.887-22.207 0.887-22.207-2.744-30.605l-2.5-2.5c-3.441-3.441-3.851-6.884-4.824-11.562-0.676-2.938-0.676-2.938-1.735-5.372-3.584-9.772-0.622-21.539 1.57-31.393 1.041-4.709 1.713-9.168 1.864-13.985 0.326-5.674 2.64-8.125 6.625-12.188 0.299-0.629 0.299-0.629 1.812-3.812 4.511-8.636 10.844-14.4 19.188-19.188 1.052-0.887 2.104-1.774 3.188-2.688 2.676-2.2 4.655-3.049 7.812-4.312l2.438-2.438c4.542-3.267 8.59-3.747 14.027-4.742 4.133-0.959 7.359-2.537 10.961-4.734 6.945-2.93 15.45-2.23 22.872-2.215 1.096-2e-3 2.192-4e-3 3.322-6e-3 3.613-4e-3 7.227-1e-3 10.841 2e-3 2.549 0 5.098-1e-3 7.647-3e-3 5.354-1e-3 10.709 1e-3 16.063 6e-3 6.756 5e-3 13.512 2e-3 20.269-4e-3 36.085-0.026 72.065 0.381 108.1 2.334 20.693 1.11 40.988 0.688 61.643-0.638 4.326-0.272 8.653-0.541 12.98-0.808 1.06-0.067 2.12-0.133 3.212-0.202 5.408-0.331 10.813-0.611 16.228-0.802 0.536-0.02 0.536-0.02 3.247-0.117 2.015-0.068 4.03-0.129 6.046-0.181 10.289-0.343 21.104-7.679 30.099-6.452zm-281 44c-0.846 0.474-1.691 0.949-2.562 1.438-2.438 1.562-2.438 1.562-4.586 4.124-3.757 3.211-6.037 3.005-10.914 3-7.399 7e-3 -7.399 7e-3 -10.274 2.305-0.275 0.352-0.275 0.352-1.664 2.133l-8 8v2l-12 3c-0.312 3.312-0.312 3.312 0 7 3.017 3.225 6.292 3.233 10.5 3.375 4.265-0.132 7.267-0.35 10.5-3.375 0.267-0.839 0.534-1.679 0.809-2.543 1.191-2.457 1.191-2.457 3.415-3.281 0.912-0.097 1.824-0.193 2.764-0.293 1.011-0.128 2.022-0.257 3.064-0.389 1.076-0.122 2.152-0.243 3.26-0.369 9.558-1.321 17.875-3.055 25.688-9.125 0.99-1.32 1.98-2.64 3-4 2.594-0.539 2.594-0.539 5.5-0.625 5.211-0.182 5.211-0.182 8.5-2.375 0.875-3.75 0.875-3.75 0-8-4.655-4.103-10.12-6.342-16.312-6.625-4.886 0.651-6.928 1.565-10.688 4.625zm-74 54c-0.673 7.269 1.377 11.906 5 18 1 1 1 1 5 1.188 0.66-0.031 0.66-0.031 4-0.188 1.969-3.938 1.458-8.708 1-13-2.098-3.617-3.049-4.683-7-6-2.666-0.04-5.334-0.044-8 0z" fill="#AE9595"/>
<path transform="translate(1433.6 582.39)" d="m0 0c3.414 1.613 3.414 1.613 5.016 4.695 0.168 0.616 0.168 0.616 1.023 3.731 1.563 5.574 3.212 8.214 7.375 12.187 1.258 2.571 1.258 2.571 2.125 5.125 1.283 3.734 1.951 4.951 4.875 7.875 1.027 2.305 1.027 2.305 1.938 4.875 1.53 4.042 3.326 6.772 6.062 10.125 0.474 1.3 0.949 2.599 1.438 3.938 1.562 4.062 1.562 4.062 4.062 6.937 2.444 3.056 3.057 4.584 4 8.25 1.213 4.653 1.213 4.653 4 6.813 3.011 2.484 3.092 3.709 3.938 7.437 0.998 4.381 1.421 5.485 4.75 8.813 2.812 2.812 2.812 2.812 3.75 6.5-1.82 8.37-8.343 14.205-14.938 19.312-1.688 1.646-3.354 3.313-5 5-2.782 2.782-5.567 5.557-8.375 8.313-4.386 4.386-8.385 9.09-12.434 13.785-10.312 11.72-21.351 23.253-33.66 32.883-5.478 4.37-10.832 9.106-15.597 14.25-1.934 1.769-1.934 1.769-5.934 2.769l-2 4c-4 3-4 3-7.437 4.438-3.446 1.511-5.68 3.197-8.563 5.562-0.969 0.475-1.939 0.949-2.937 1.438-3.063 1.562-3.063 1.562-5.875 4.125-3.188 2.437-3.188 2.437-7.563 3.375-4.701 1.08-6.797 2.68-10.469 5.66-6.764 4.399-15.554 3.775-23.156 2.402l-3-3c0.162-6.239 0.8-10.592 4-16 0.224-0.434 0.224-0.434 1.356-2.633 2.747-5.297 5.333-9.194 9.644-13.367 1.438-1.732 2.855-3.483 4.25-5.25 2.901-3.595 5.855-6.927 9.188-10.125 4.645-4.507 8.449-9.516 12.3-14.707 2.262-2.918 2.262-2.918 4.465-5 2.105-2.246 2.562-3.816 3.235-6.793 0.974-3.678 1.542-5.102 4.125-8.062 2.583-3.246 2.837-4.416 3.375-8.375 0.583-4.213 1.461-6.641 4.062-10 3.611-4.82 3.908-9.453 4.285-15.356 0.715-3.332 0.715-3.332 3.184-6.238 3.152-3.853 3.397-6.503 3.969-11.406 0.971-6.526 2.18-10.354 6.222-15.453 2.244-3.741 2.24-7.836 2.715-12.106 0.825-4.13 2.725-6.519 5.246-9.804 2.177-3.67 2.311-7.512 2.824-11.688 0.768-3.648 2.953-5.034 5.555-7.637 0.816-3.004 0.816-3.004 1.5-6.5 1.096-5.568 2.38-7.585 6.5-11.5 0.906-2.806 1.555-5.585 2.129-8.476 1.555-4.505 3.893-5.629 8.457-5.137z" fill="#AF9696"/>
<path transform="translate(1526,529)" d="m0 0c2.205 2.646 4.119 5.148 6 8 0.557 0.804 1.114 1.609 1.688 2.438 1.312 2.562 1.312 2.562 2.687 7.062 1.685 4.667 3.081 6.21 6.625 9.5 0.392 0.639 0.392 0.639 2.375 3.875 2.853 4.484 5.811 7.45 9.625 11.125 0.619 0.969 1.237 1.939 1.875 2.938 2.125 2.062 2.125 2.062 6.75 2.687 1.444-0.206 2.888-0.413 4.375-0.625 1.188-2.188 1.188-2.188 2-5 1.983-1.687 3.983-3.354 6-5 1.006-1.663 2.007-3.329 3-5l4-2c1.598-2.277 1.598-2.277 3.062-4.938 1.824-3.283 3.235-5.359 5.938-8.062h5c2 3 2 3 2.812 7.438 1.351 5.188 2.159 5.47 6.188 8.562 1.417 2.465 2.613 4.974 3.789 7.562 1.211 2.438 1.211 2.438 4.211 6.438 1.198 3.593 1.331 6.227 1 10-2.33 3.647-4.316 4.101-8.5 5.438-4.853 1.684-5.551 2.661-8.5 6.562-2.641 1.383-5.309 2.717-8 4l-2.5 2c-2.5 2-2.5 2-6.5 3.938-3.947 2.035-6.011 3.849-9 7.062-4.585 4.322-9.351 8.042-14.637 11.465-5.491 3.567-10.846 7.262-15.863 11.473-2.5 2.062-2.5 2.062-4.5 2.062-0.206 0.701-0.412 1.403-0.625 2.125-1.712 3.58-4.175 5.162-7.367 7.41-2.008 1.465-2.008 1.465-4.446 3.903-5.721 5.721-12.425 10.756-19.562 14.562-3.559-0.077-4.487-0.487-7-3-0.672-1.754-1.291-3.528-1.875-5.312-1.512-4.336-3.223-7.131-6.125-10.688-0.474-1.485-0.949-2.97-1.438-4.5-1.562-4.5-1.562-4.5-4.062-6.938-3.137-3.214-3.586-5.961-4.688-10.222-0.812-2.34-0.812-2.34-3.312-4.778-2.799-2.869-3.113-4.303-4-8.124-1.218-5.213-1.218-5.213-4-7.438-3.057-2.446-3.133-3.757-4-7.5-1.229-5.285-1.229-5.285-3.938-7.438-3.744-3.013-4.183-6.712-5.511-11.226-1.051-2.836-1.051-2.836-3.863-5.648-2.188-2.188-2.188-2.188-2.313-5.75 1.37-4.187 2.378-5.174 6.125-7.438 1.485-0.639 2.97-1.279 4.5-1.938 4.5-2.062 4.5-2.062 7-4.687 2.5-2.375 2.5-2.375 7.062-3.375 4.438-1 4.438-1 6.376-3.438 2.781-3.455 5.433-3.677 9.621-4.75 2.441-0.812 2.441-0.812 5.379-3.312 3.141-2.564 4.66-3.056 8.5-3.938 5.47-1.284 8.413-3.745 12.562-7.562 3.58-1.279 6.471-1.463 10 0z" fill="#AE9696"/>
<path transform="translate(2308.4 860.69)" d="m0 0c1.339-0.037 2.679-0.075 4.059-0.113 1.156 0.14 2.312 0.281 3.503 0.425 2.699 3.599 3.719 5.655 5 9.813 1.018 3.278 2.044 6.275 3.563 9.359 1.908 5.082 2.133 9.88 2.437 15.266 0.489 8.596 2.02 15.22 5.626 23.125 2.58 6.451 2.548 13.119 2.812 20 0.353 8.241 1.175 16.298 2.562 24.437h8c0.248-0.783 0.495-1.567 0.75-2.374 1.25-3.626 1.25-3.626 3.313-7.938 2.502-6.094 2.479-12.178 2.742-18.691 0.322-6.592 1.201-11.372 4.715-17.11 2.853-5.038 3.22-9.375 3.418-15.074 0.506-8.1 2.05-14.228 5.672-21.578 1.927-4.482 2.474-8.863 2.969-13.688 0.421-2.547 0.421-2.547 2.421-4.547 3.45-0.265 3.45-0.265 7.688-0.25 1.386-5e-3 2.771-0.01 4.199-0.015 4.069 0.263 7.317 0.786 11.113 2.265 3.677 4.902 3.66 8.864 4 14.75 0.493 8.379 1.865 14.928 5.633 22.555 1.829 4.942 1.973 9.593 2.243 14.821 0.54 8.07 1.574 14.921 5.003 22.351 2.082 4.685 2.31 9.321 2.621 14.399 0.315 4.751 0.717 9.423 1.5 14.124h8c1.461-6.921 1.309-14.013 1.43-21.058 0.189-6.283 1.002-11.111 3.57-16.942 2.521-5.999 3.487-11.368 3.876-17.812 0.544-7.01 1.602-12.876 5.003-19.094 2.98-5.565 2.427-12.003 2.645-18.148 0.488-4.042 1.247-6.555 3.476-9.946 7.021-2.574 13.148-2.941 20 0-1.081 22.93-1.081 22.93-5.5 30-2.753 4.494-3.014 8.602-3.437 13.813-0.493 5.843-1.121 10.105-4.063 15.187-2.927 5.06-3.537 9.245-4 15.063-0.451 5.648-0.909 9.605-4 14.375-4.007 6.219-3.949 12.828-4.285 20.012-0.826 5.257-2.804 8.149-5.715 12.55-1.074 3.59-1.074 3.59-1.687 6.938-0.38 2.032-0.803 4.059-1.313 6.062-3.271 1.636-6.63 1.172-10.25 1.188-1.49 0.014-2.98 0.028-4.515 0.043-3.927-0.214-6.692-0.569-10.235-2.231-2.954-3.939-3.371-4.556-3.589-9.07-0.063-0.979-0.125-1.959-0.19-2.969-0.104-2.033-0.206-4.067-0.304-6.101-0.453-7-2.009-12.502-4.917-18.86-2.179-4.945-2.464-9.66-2.812-15-0.483-6.173-1.026-11.553-3.625-17.25-4.412-9.802-4.569-21.163-5.563-31.75h-8c-0.819 3.825-1.07 7.485-1.105 11.379-0.207 18.961-0.207 18.961-5.484 28.293-1.852 4.372-2.11 8.649-2.411 13.328-0.394 6.066-1.068 11.019-4 16.438-3.558 6.592-3.929 12.958-4.242 20.318-0.214 3.99-0.514 6.832-2.562 10.307-4.364 3.851-9.724 3.103-15.258 3.125-0.8 7e-3 -0.8 7e-3 -4.848 0.043-4.09-0.231-4.09-0.231-7.09-2.231-0.913-3.153-1.461-6.315-2.058-9.542-0.942-3.458-0.942-3.458-2.977-6.731-2.524-4.787-2.707-8.832-2.965-14.164-0.349-7.199-1.321-12.16-5-18.563-2.284-4.568-2.432-8.455-2.75-13.437-0.608-7.736-2.177-13.251-5.863-20.141-2.339-5.773-2.484-11.786-2.867-17.941-0.672-5.792-2.511-10.502-5.144-15.668-2.4-4.909-2.672-9.376-2.376-14.813 2.976-5.951 5.076-5.196 11.438-5.312z" fill="#AE9595"/>
<path transform="translate(2107.3 857.75)" d="m0 0c0.925-0.021 1.85-0.041 2.803-0.062 6.924-0.04 11.615 1.496 17.697 4.874 2.956 1.334 5.088 1.783 8.25 2.25 5.148 0.91 6.882 2.91 9.938 7.188 0.866 0.516 1.732 1.031 2.624 1.562 2.867 1.736 3.696 3.59 5.376 6.438 1.32 0.66 2.639 1.32 4 2 1.385 2.64 2.715 5.31 4 8 0.667 0.719 1.335 1.439 2.023 2.18 2.745 3.916 2.984 7.416 3.601 12.132 0.636 4.714 1.269 9.268 2.442 13.879 2.361 9.631 0.953 18.908-1.344 28.407-0.905 4.262-1.172 8.433-1.316 12.781-0.626 4.039-2.407 6.716-5.406 9.433-2 2.188-2 2.188-3.063 5.75-3.411 7.812-9.934 14.544-17.875 17.876-0.67 0.257-0.67 0.257-4.062 1.562-2.376 2.187-2.376 2.187-4 4-4.251 1.417-8.456 1.163-12.891 1.168-0.978 3e-3 -1.956 7e-3 -2.964 0.01-2.071 5e-3 -4.142 7e-3 -6.213 7e-3 -3.156 2e-3 -6.312 0.021-9.468 0.04-2.014 3e-3 -4.028 5e-3 -6.043 5e-3 -0.938 8e-3 -1.877 0.015-2.844 0.022-9.003-0.031-13.802-1.485-20.577-7.252-1.032-0.309-2.063-0.619-3.126-0.938-3.854-1.424-4.739-3.645-6.874-7.062-1.321-0.66-2.64-1.32-4-2-1.716-2.636-3.383-5.303-5-8-0.99-0.99-1.981-1.98-3-3-0.854-3.072-1.391-6.149-1.961-9.285-0.919-3.283-1.906-5.252-3.598-8.129-3.62-7-3.209-14.179-3.129-21.898-0.028-1.42-0.055-2.84-0.084-4.303 0.02-8.66 1.242-14.966 5.386-22.603 1.4-2.811 1.944-5.067 2.386-8.157 1.178-5.452 3.138-7.687 7-11.625 0.68-0.866 1.361-1.732 2.062-2.625 2.993-3.669 5.947-6.735 9.938-9.313 3-2.062 3-2.062 5.124-5.187 3.817-3.817 6.848-3.759 12.063-4.379 3.503-0.618 5.286-2.048 7.813-4.496 4.804-1.201 9.395-1.223 14.312-1.25zm-18.312 22.25c-1.354 1.65-2.687 3.317-4 5-0.825 0.474-1.651 0.949-2.5 1.438-3.203 2.001-4.476 4.399-6.5 7.562-0.417 0.364-0.417 0.364-2.524 2.207-3.121 3.519-3.442 5.984-4.102 10.605-0.703 4.454-1.328 8.076-3.062 12.25-3.629 10.889-1.064 21.367 2.398 31.965 1.29 3.973 1.29 3.973 2.278 8.219 1.293 4.798 3.897 8.01 7.012 11.754 0.783 1.072 1.567 2.145 2.374 3.25 3.202 3.354 6.433 4.815 10.626 6.75 0.871 0.684 1.742 1.369 2.64 2.074 4.368 2.504 8.263 2.652 13.172 2.614 0.893-3e-3 1.787-6e-3 2.708-9e-3 6.471-0.216 10.256-1.326 14.8-5.878 0.554-0.594 1.108-1.189 1.68-1.801 1.072-0.681 2.144-1.361 3.25-2.062 4.191-2.954 6.961-6.36 9.25-10.938 1.5-3 1.5-3 4.124-5.688 5.559-7.752 3.559-21.139 3.563-30.374 0.012-1.393 0.024-2.786 0.037-4.221 0.028-19.601 0.028-19.601-7.224-27.717-0.689-1.523-1.333-3.067-1.938-4.625-2.239-4.749-3.63-5.842-8.062-8.375-0.825-0.887-1.651-1.774-2.5-2.688-5.29-4.892-13.727-3.495-20.563-3.5-1.076-0.012-2.151-0.024-3.26-0.037-1.039-2e-3 -2.079-3e-3 -3.15-5e-3 -0.941-5e-3 -1.882-9e-3 -2.852-0.013-2.935 0.267-5.044 0.929-7.675 2.243z" fill="#AF9696"/>
<path transform="translate(1960.8 857.75)" d="m0 0c0.869-0.021 1.738-0.041 2.633-0.062 6.982-0.042 12.346 1.572 18.555 4.874 3.062 1.438 3.062 1.438 7.5 2.25 5.281 1.375 7.633 3.485 11.562 7.188 0.866 0.474 1.733 0.949 2.625 1.438 3.378 2.222 5.123 5.243 7.375 8.562l3 3c0.773 2.27 0.773 2.27 1.375 4.812 1.297 4.741 3.307 7.521 6.625 11.188 1.244 4.976 1.182 9.768 1.203 14.863 6e-3 1.066 0.012 2.131 0.017 3.229 0.01 2.253 0.016 4.507 0.02 6.76 0.01 3.437 0.041 6.873 0.072 10.31 7e-3 2.192 0.012 4.384 0.016 6.576 0.012 1.023 0.025 2.047 0.038 3.101-0.025 7.846-1.577 12.776-6.366 19.161-0.454 1.485-0.908 2.97-1.375 4.5-1.744 4.831-2.599 5.663-6.625 8.5-1.194 1.287-2.359 2.603-3.5 3.938-7.505 8.722-7.505 8.722-13.5 11.062l-2.562 2.562c-8.776 6.223-24.017 3.621-34.313 3.626-1.677 0.012-3.354 0.024-5.031 0.037-0.798 1e-3 -0.798 1e-3 -4.836 5e-3 -0.721 3e-3 -0.721 3e-3 -4.371 0.013-7.038-0.44-10.059-2.295-14.887-7.243-0.505-0.247-0.505-0.247-3.062-1.5-3.358-1.714-4.732-3.485-6.938-6.5-2.129-2.198-4.318-4.295-6.562-6.375-3.434-3.698-5.023-7.623-6.938-12.25-1.5-3.375-1.5-3.375-4.5-7.375-1.141-4.565-1.162-8.847-1.168-13.516-3e-3 -0.929-7e-3 -1.859-0.01-2.817-5e-3 -1.967-7e-3 -3.934-7e-3 -5.901-2e-3 -2.991-0.021-5.982-0.04-8.973-3e-3 -1.915-5e-3 -3.831-5e-3 -5.746-8e-3 -0.887-0.015-1.774-0.022-2.687 0.03-8.277 1.075-13.965 6.252-20.36 0.684-1.63 1.327-3.278 1.938-4.938 1.703-4.486 3.801-7.491 7.062-11.062 0.928-1.341 1.856-2.681 2.812-4.062 3.142-4.265 6.619-6.317 11.188-8.938l3-3c2.707-0.809 2.707-0.809 5.812-1.438 4.859-1.107 8.164-2.544 12.188-5.562 4.63-1.157 9.013-1.222 13.75-1.25zm-25.75 29.25c-0.318 0.306-0.318 0.306-1.926 1.852-4.297 4.471-6.28 8.718-8.168 14.593-1.146 3.231-2.902 5.791-4.906 8.555-1.93 5.789-1.228 12.196-1.25 18.25-0.021 1.406-0.041 2.813-0.062 4.262-6e-3 1.362-0.011 2.725-0.016 4.129-9e-3 1.243-0.019 2.486-0.028 3.766 0.589 5.943 2.805 9.859 6.356 14.593 0.247 1.444 0.495 2.888 0.75 4.375 1.522 5.63 3.713 7.141 8.25 10.625l2 4c2.658 1.351 5.325 2.683 8 4 0.678 0.852 1.356 1.704 2.055 2.582 4.468 3.668 8.643 3.225 14.257 3.168 1.008 0.036 2.015 0.072 3.053 0.109 5.574 0 8.886-0.507 13.115-4.281 0.591-0.62 1.182-1.239 1.79-1.878 1.73-1.7 1.73-1.7 5.73-3.7l2-3c2-3 2-3 6-5 1.125-2.645 1.125-2.645 2-5.812 1.379-4.557 2.703-7.664 6-11.188 2.111-6.334 1.273-13.566 1.312-20.188 0.03-1.588 0.059-3.177 0.088-4.814 0.079-14.431 0.079-14.431-4.4-20.998-1.732-2.841-3.168-5.408-4.438-8.5-3.388-7.591-9.734-12.948-16.562-17.5-5.267-1.366-10.532-1.184-15.938-1.188-0.488-6e-3 -0.488-6e-3 -2.958-0.037-9.947-0.02-15.066 2.336-22.104 9.225z" fill="#AE9595"/>
<path transform="translate(2785.7 863)" d="m0 0c3.106 0.947 5.989 1.418 9.203 1.809 5.896 0.972 8.97 4.058 13.063 8.187 0.948 0.701 1.897 1.403 2.875 2.125 5.84 5.154 5.904 15.448 6.375 22.75-0.677 11.165-1.306 17.181-9.25 25.125-0.619 0.701-1.238 1.403-1.875 2.125-2.549 2.249-4.874 2.988-8.125 3.875-0.484 5.93 0.649 9.109 4 14 0.825 0.763 1.65 1.526 2.5 2.313 2.993 3.217 4.096 6.243 5.589 10.324 0.911 2.363 0.911 2.363 2.598 5.176 3.155 5.258 2.632 11.855 2.934 17.812 0.563 5.013 1.696 7.613 5.066 11.375 2.313 3 2.313 3 2.25 5.813-0.937 2.187-0.937 2.187-2.937 3.187-2.602 0.15-5.208 0.222-7.813 0.25-1.409 0.026-2.818 0.052-4.269 0.078-4.02-0.336-5.809-0.837-8.918-3.328-4.624-6.621-6.04-11.364-6.375-19.312-0.48-7.747-1.946-12.449-6.625-18.688-0.598-1.279-1.197-2.557-1.813-3.875-2.271-4.282-4.515-6.988-8.187-10.125-4.487-1.121-8.439-1.205-13.063-1.25-1.6-0.026-3.199-0.051-4.848-0.078-4.089 0.328-4.089 0.328-7.089 3.328-0.226 3.683-0.276 7.194-0.188 10.871 6e-3 0.537 6e-3 0.537 0.035 3.254 0.049 4.602 0.133 9.202 0.214 13.803 0.054 3.356 0.091 6.712 0.126 10.068 0.025 1.042 0.05 2.084 0.076 3.157 0.054 5.364 0.053 7.425-3.263 11.847-3.653 0.496-3.653 0.496-7.938 0.438-0.706-1e-3 -0.706-1e-3 -4.277-4e-3 -3.785-0.434-3.785-0.434-7.785-3.434-0.501-2.357-0.501-2.357-0.502-5.193-9e-3 -1.075-0.019-2.151-0.029-3.259 4e-3 -0.59 4e-3 -0.59 0.029-3.575-5e-3 -1.242-0.011-2.485-0.016-3.765-0.013-4.12 4e-3 -8.24 0.022-12.36-1e-3 -2.856-2e-3 -5.712-5e-3 -8.568-1e-3 -5.991 0.011-11.983 0.034-17.974 0.028-7.689 0.026-15.377 0.013-23.065-7e-3 -5.9 1e-3 -11.799 0.013-17.699 5e-3 -2.835 5e-3 -5.67 1e-3 -8.506-3e-3 -3.96 0.014-7.919 0.036-11.879-5e-3 -1.178-9e-3 -2.356-0.014-3.57 0.01-1.078 0.02-2.156 0.03-3.267 2e-3 -0.936 5e-3 -1.872 7e-3 -2.837 0.381-2.483 0.381-2.483 3.381-6.483 3.167-0.974 6.07-1.68 9.312-2.25 0.927-0.167 1.854-0.334 2.809-0.506 14.408-2.372 28.594-2.702 42.613 1.76zm-34.072 16.48c-2.468 3.736-2.164 6.783-2.158 11.227-2e-3 0.846-3e-3 1.692-5e-3 2.563 2e-3 1.787 0.013 3.574 0.034 5.361 0.029 2.724 0.021 5.446 8e-3 8.17 6e-3 1.739 0.014 3.479 0.025 5.219 0.01 1.577 0.02 3.154 0.03 4.778 0.403 4.188 1.155 6.677 3.404 10.198 3.412 1.706 6.999 0.973 10.75 0.813 0.791-0.028 0.791-0.028 4.796-0.168 4.704-0.681 6.725-1.835 10.454-4.645 1.688-0.676 3.397-1.306 5.125-1.875 4.62-1.765 6.682-3.549 8.875-8.125 1.074-4.298 1.204-8.01 1.25-12.437 0.013-0.742 0.013-0.742 0.078-4.497-0.565-6.996-4.601-11.055-9.328-16.066-5.734-2.934-11.77-2.368-18.063-2.375-1.184-0.024-2.368-0.049-3.588-0.074-1.137-4e-3 -2.275-8e-3 -3.447-0.012-1.037-8e-3 -2.073-0.016-3.141-0.025-2.761 0.486-2.761 0.486-5.099 1.97z" fill="#AF9696"/>
<path transform="translate(2661,865)" d="m0 0c1.904 3.807 2.227 5.316 2.375 9.375 0.362 4.93 1.42 7.74 4.625 11.625 2.406 3.608 2.456 5.957 2.875 10.25 0.704 5.809 1.618 9.928 5.125 14.75 2.403 3.605 2.386 5.836 2.75 10.125 0.591 5.003 1.114 8.401 4.25 12.375 3.837 4.878 4.009 9.899 4.48 15.949 0.82 5.6 3.152 9.06 6.52 13.551 0.625 3.461 0.625 3.461 1 7.375 0.645 6.708 2.159 11.153 6.188 16.563 2.178 3.681 2.379 5.852 1.812 10.062-3.882 2.588-6.302 2.267-10.938 2.25-1.411 5e-3 -2.823 0.01-4.277 0.016-4.051-0.285-6.606-0.949-9.383-4.051-4.402-6.844-5.382-13.277-6.547-21.258-1.157-5.356-3.198-7.975-6.855-11.957v-2c-6.847-1.63-13.878-1.225-20.875-1.25-1.445-0.021-2.89-0.041-4.379-0.062-1.399-6e-3 -2.797-0.011-4.238-0.016-1.272-9e-3 -2.544-0.019-3.855-0.028-5.338 0.52-9.312 1.945-13.028 5.856-2.77 4.262-2.841 8.018-3.25 13-0.933 7.88-3.195 13.477-8.375 19.5-3.885 2.59-6.359 2.3-11 2.312-1.423 0.017-2.846 0.034-4.312 0.051-3.688-0.363-3.688-0.363-6.688-3.363-0.107-4.495 1.195-6.257 3.938-9.875 3.093-4.315 3.595-7.87 4.062-13.125 0.573-6.436 1.673-9.643 5.625-14.602 2.423-4.227 2.295-8.993 2.75-13.769 0.635-3.686 1.519-5.596 3.625-8.629 3.648-5.256 3.835-10.294 4.445-16.547 0.555-3.453 0.555-3.453 2.993-7.328 2.786-4.486 3.28-7.449 4.062-12.625 1.038-6.839 2.344-11.032 6.5-16.5 0.989-2.966 1.197-5.273 1.375-8.375 0.681-7.583 0.681-7.583 3.625-10.625 10.215-3.637 23.166-3.831 33 1zm-21 19c-2.114 3.733-2.386 7.535-2.812 11.75-0.586 4.522-1.2 7.858-3.688 11.688-3.226 5.003-3.405 10.175-3.848 16.011-0.793 4.316-2.533 7.432-5.652 10.551-0.188 4.438-0.188 4.438 0 9 2.969 2.969 5.385 2.259 9.527 2.266 0.757 1e-3 0.757 1e-3 4.588 7e-3 1.592-7e-3 3.183-0.015 4.823-0.023 1.587 8e-3 3.174 0.015 4.81 0.023 1.515-2e-3 3.031-5e-3 4.592-7e-3 0.698-2e-3 0.698-2e-3 4.23-7e-3 3.43-0.259 3.43-0.259 6.43-2.259 0.438-3.312 0.438-3.312 0-7-0.651-0.754-1.302-1.508-1.973-2.285-2.539-3.401-2.613-5.638-2.902-9.84-0.555-5.271-1.334-8.846-4.187-13.313-3.611-5.814-3.656-11.23-3.735-17.96-0.193-3.425-0.445-5.665-2.203-8.602-4-0.625-4-0.625-8 0z" fill="#AE9595"/>
<path transform="translate(1628,601)" d="m0 0c3.327 3.327 3.721 4.444 4 9-2.596 5.192-4.707 5.025-10 7l-2.5 2.5c-2.5 2.5-2.5 2.5-6.5 3.938-4.602 1.797-5.94 3.796-9 7.562-2.31 1.054-4.643 2.057-7 3l-2 2c-2 2-2 2-5.5 3.438-3.842 1.715-4.943 3.345-7.5 6.562-0.516 0.165-0.516 0.165-3.125 1-0.949 0.33-1.898 0.66-2.875 1-0.717 1.646-1.383 3.314-2 5-1.631 1.058-3.303 2.053-5 3-0.371 0.382-0.371 0.382-2.25 2.312-2.294 2.243-4.277 3.78-6.938 5.5-6.805 4.405-13.154 9.376-18.812 15.188-8 8-8 8-12 10-0.474 0.804-0.949 1.609-1.438 2.438-1.828 2.999-3.593 3.78-6.562 5.562-0.474 0.804-0.949 1.609-1.438 2.438-1.972 3.234-4.428 4.495-7.562 6.562l-2 4c-2 1.333-4 2.667-6 4l-2 4c-1.993 1.343-3.994 2.676-6 4-0.701 0.887-1.402 1.774-2.125 2.688-1.875 2.312-1.875 2.312-5.875 3.312-0.697 1.654-1.361 3.323-2 5-4 3-4 3-6 3-0.289 0.763-0.577 1.526-0.875 2.312-1.125 2.688-1.125 2.688-5.125 5.688h-2c-0.289 0.763-0.577 1.526-0.875 2.312-1.125 2.688-1.125 2.688-5.125 5.688h-2c-0.289 0.763-0.578 1.526-0.875 2.312-1.125 2.688-1.125 2.688-5.125 5.688h-2c-0.268 0.763-0.536 1.526-0.812 2.312-1.491 3.375-3.07 3.832-6.188 5.688l-2 3c-2.129 3.194-3.768 4.094-7 6-0.474 0.846-0.949 1.691-1.438 2.562-2.059 3.214-4.014 3.306-7.562 4.438l-2 4c-4 3-4 3-6.875 4.375-3.491 1.815-6.135 4.08-9.125 6.625-0.846 0.495-1.691 0.99-2.562 1.5-2.438 1.5-2.438 1.5-4.813 4-3.01 2.867-5.803 3.93-9.625 5.5-0.804 0.681-1.609 1.361-2.438 2.062-2.562 1.938-2.562 1.938-6.75 2.938-1.258 0.33-2.516 0.66-3.812 1l-2 4c-2 2-2 2-6.875 2.812-4.827 0.866-4.827 0.866-7.437 3.688-0.557 0.825-1.114 1.65-1.688 2.5-3.142 1.745-5.372 2.029-9 2.312-4 0.688-4 0.688-6.562 3.25-2.438 2.438-2.438 2.438-6.063 3-3.375-0.562-3.375-0.562-6.375-4.562-0.625-2.75-0.625-2.75 0-6 4.692-7.201 8.816-8.967 16.996-11.07 3.806-1.178 5.99-3.374 9.004-5.93 1.835-0.566 3.693-1.061 5.562-1.5 4.923-1.174 7.013-2.704 10.438-6.5 2.65-1.366 5.317-2.7 8-4 1.678-1.319 3.346-2.651 5-4 1.011-0.474 2.021-0.949 3.062-1.438 3.317-1.763 4.649-3.629 6.938-6.562 1.987-1.353 3.987-2.686 6-4l2.25-2.25c4.9-4.9 10.481-9.018 15.984-13.219 10.13-7.792 19.5-16.23 28.508-25.289 2.258-2.242 2.258-2.242 5.32-4.742 2.75-2.34 4.736-4.659 6.938-7.5 2.728-2.875 5.527-5.444 8.562-8 2.925-2.552 5.091-4.949 7.438-8 3.485-3.679 7.237-6.98 11.07-10.285 1.667-1.481 3.246-3.059 4.805-4.653 2.125-2.062 2.125-2.062 4.125-2.062 0.247-0.743 0.495-1.485 0.75-2.25 1.651-3.632 3.954-4.575 7.25-6.75 1.352-1.988 2.687-3.987 4-6l4-2c0.474-0.804 0.949-1.609 1.438-2.438 1.828-2.999 3.593-3.78 6.562-5.562 0.247-0.413 0.247-0.413 1.5-2.5 1.796-2.993 3.531-3.733 6.5-5.5 1.687-1.983 3.354-3.983 5-6 1.643-1.362 3.308-2.699 5-4 0.62-0.626 1.24-1.253 1.879-1.898 5.122-5.076 11.121-9.142 17.121-13.102 5.745-4.017 11.105-7.961 16-13 1.659-1.012 3.326-2.013 5-3 0.598-0.66 1.196-1.32 1.812-2 2.188-2 2.188-2 6-3.375 4.701-1.824 7.413-4.33 11.188-7.625 2.316-1.038 4.649-2.042 7-3 1.689-1.305 3.36-2.634 5-4 4.121-1.374 7.682-1.24 12-1z" fill="#AF9696"/>
<path transform="translate(1514,378)" d="m0 0c0.99 0.33 1.98 0.66 3 1l1 3c-0.598 0.743-1.196 1.485-1.812 2.25-4.816 6.053-4.617 13.522-4.876 20.938-0.038 1.021-0.076 2.042-0.116 3.095-0.597 18.575-0.597 18.575 2.476 23.272 0.438 0.807 0.876 1.614 1.328 2.445-2.494 4.988-5.285 6.171-10 9l-3 3c-2.285 0.998-4.571 1.994-6.871 2.957-2.129 1.043-2.129 1.043-4.129 3.168-2 1.875-2 1.875-6.625 2.875-1.444 0.33-2.888 0.66-4.375 1l-2 4c-4 3-4 3-8 3.875-4 1.125-4 1.125-5.938 3.563-2.98 3.703-6.615 4.1-11.062 5.562-1.707 1.626-3.377 3.291-5 5-2.331 1.005-4.664 2.005-7 3-0.99 1.32-1.98 2.64-3 4-3.868 0.215-5.461-1.348-8.562-3.688-3.111-2.997-5.167-5.678-7.438-9.312-0.846-0.928-1.691-1.856-2.562-2.812-2.438-3.188-2.438-3.188-3.938-7.75-1.5-4.438-1.5-4.438-4.125-6.938-2.375-2.5-2.375-2.5-3.5-7.062 0.125-4.438 0.125-4.438 2.313-6.688 0.928-0.577 1.856-1.155 2.812-1.75 0.299-0.423 0.299-0.423 1.812-2.562 2.934-3.269 6.105-3.93 10.188-5.438 0.804-0.825 1.609-1.65 2.438-2.5 2.562-2.5 2.562-2.5 7.124-4 4.438-1.5 4.438-1.5 6.376-4 2.374-2.878 3.36-3.046 6.874-3.938 5.262-1.342 8.123-3.957 12.188-7.562 2.329-0.683 4.662-1.351 7-2 0.784-0.804 1.568-1.609 2.375-2.438 3.465-3.382 7.071-4.044 11.625-5.562 0.804-0.825 1.609-1.65 2.438-2.5 2.748-2.682 4.01-3.073 7.624-4 4.712-1.218 4.712-1.218 6.938-4 2.742-3.427 5.514-3.625 9.66-4.672 3.182-1.126 4.455-3.114 6.34-5.828z" fill="#AE9595"/>
<path transform="translate(2495.9 861.24)" d="m0 0c0.67 0.125 0.67 0.125 4.059 0.758 4.312 0.174 8.626 0.14 12.941 0.133 1.241 1e-3 2.482 2e-3 3.761 3e-3 2.616 1e-3 5.233-1e-3 7.849-5e-3 4.001-6e-3 8.001 0 12.002 6e-3 2.546-1e-3 5.092-2e-3 7.638-4e-3 1.194 2e-3 2.388 4e-3 3.618 6e-3 0.559-1e-3 0.559-1e-3 3.388-9e-3 0.489-1e-3 0.489-1e-3 2.964-3e-3 2.839-0.127 2.839-0.127 6.014-0.822 0.466-0.051 0.466-0.051 2.825-0.305 3.73 3.73 3.931 5.878 4.25 11.063-0.25 3.937-0.25 3.937-3.25 6.937-2.284 0.372-2.284 0.372-4.991 0.369-1.014 7e-3 -2.028 0.014-3.074 0.021-1.093-6e-3 -2.187-0.012-3.314-0.019-2.305 0.018-4.611 0.035-6.916 0.053-3.643 0.01-7.286 0.014-10.93 0.012-3.51 4e-3 -7.019 0.031-10.529 0.06-1.096-8e-3 -2.192-0.016-3.321-0.024-3.064 0.03-3.064 0.03-7.925 0.528-2.259 4.519-2.189 6.766-2.047 11.758 0.043 1.512 0.085 3.024 0.129 4.582 0.055 1.579 0.111 3.158 0.168 4.785 0.04 1.587 0.08 3.174 0.121 4.809 0.373 11.811 0.373 11.811 2.629 14.066 3.385 0.186 6.696 0.253 10.082 0.239 2.067 0.015 4.134 0.031 6.201 0.048 3.266 0.017 6.531 0.026 9.796 0.019 3.147-3e-3 6.293 0.025 9.44 0.058 0.974-0.011 1.949-0.021 2.952-0.031 4.476 0.064 7.04 0.303 10.68 3.012 1.849 2.655 1.849 2.655 1.911 5.78-1.062 2.875-1.062 2.875-5.062 5.875-3.683 0.328-7.205 0.489-10.891 0.512-1.06 0.018-2.119 0.036-3.211 0.054-3.383 0.055-6.765 0.088-10.148 0.122-2.294 0.033-4.589 0.067-6.883 0.103-5.622 0.085-11.245 0.152-16.867 0.209-0.721 8.261-1.182 16.458-1.188 24.75-6e-3 0.482-6e-3 0.482-0.037 2.918-0.012 6.086 0.624 11.452 2.225 17.332 1.922 1.922 4.78 1.129 7.337 1.139 0.446-1e-3 0.446-1e-3 2.702-6e-3 0.457 1e-3 0.457 1e-3 2.77 3e-3 1.942 1e-3 3.884-1e-3 5.826-5e-3 2.956-6e-3 5.912 0 8.869 6e-3 1.886-1e-3 3.773-2e-3 5.66-4e-3 0.879 2e-3 1.759 4e-3 2.665 6e-3 3.79-0.014 7.39-0.172 11.141-0.749 3.03-0.39 3.03-0.39 5.342 1.235 2.77 3.899 3.727 6.209 3.563 11.063-0.289 1.093-0.578 2.186-0.875 3.312-4.273 2.137-6.306 2.262-11 2.291-1.428 0.013-2.857 0.025-4.328 0.038-1.542 3e-3 -3.084 5e-3 -4.672 7e-3 -0.792 4e-3 -0.792 4e-3 -4.797 0.02-3.349 0.011-6.698 0.016-10.047 0.015-4.291 0-8.581 0.027-12.872 0.061-4.095 0.028-8.189 0.027-12.284 0.029-1.542 0.015-3.084 0.029-4.672 0.044-1.428-6e-3 -2.857-0.013-4.328-0.019-1.258 3e-3 -2.516 6e-3 -3.813 9e-3 -3.86-0.599-4.792-1.477-7.187-4.495-0.488-2.511-0.488-2.511-0.47-5.389-3e-3 -1.094-6e-3 -2.187-9e-3 -3.314 0.018-1.195 0.035-2.39 0.053-3.621 3e-3 -1.262 6e-3 -2.524 8e-3 -3.825 0.015-4.179 0.059-8.358 0.105-12.538 0.02-2.9 0.039-5.799 0.056-8.698 0.041-6.08 0.097-12.159 0.163-18.239 0.083-7.801 0.13-15.603 0.167-23.405 0.032-5.988 0.083-11.975 0.139-17.963 0.025-2.877 0.044-5.754 0.057-8.632 0.022-4.017 0.068-8.034 0.121-12.051 2e-3 -1.195 3e-3 -2.39 4e-3 -3.621 0.02-1.094 0.04-2.188 0.06-3.314 9e-3 -0.95 0.018-1.9 0.027-2.878 0.894-4.329 2.997-6.637 7.46-6.27z" fill="#AE9595"/>
<path transform="translate(1810.5 861.9)" d="m0 0c1.345 4e-3 2.69 8e-3 4.076 0.012 6.142 0.048 12.283 0.098 18.425 0.166 3.243 0.032 6.487 0.053 9.73 0.064 4.67 0.015 9.338 0.062 14.008 0.117 0.726-1e-3 0.726-1e-3 4.4-3e-3 1.352 0.023 2.703 0.046 4.095 0.07 1.188 9e-3 2.376 0.019 3.6 0.029 4.086 0.835 5.575 2.443 8.163 5.646 1 3.063 1 3.063 1 6-3 4-3 4-6 5-3.58 0.132-7.143 0.21-10.723 0.246-2.169 0.033-4.337 0.066-6.506 0.1-3.426 0.047-6.852 0.092-10.278 0.131-3.301 0.039-6.602 0.091-9.904 0.144-0.515 4e-3 -0.515 4e-3 -3.121 0.026-7.242 0.126-7.242 0.126-9.468 2.353-0.626 5.788-0.655 11.62-0.813 17.438-0.032 0.817-0.032 0.817-0.193 4.955-0.023 0.78-0.023 0.78-0.139 4.728-0.045 1.438-0.09 2.876-0.136 4.357 0.281 3.522 0.281 3.522 3.281 6.522 3.518 0.432 3.518 0.432 7.886 0.512 1.579 0.035 3.157 0.071 4.784 0.107 1.672 0.023 3.345 0.046 5.017 0.069 1.637 0.034 3.273 0.068 4.959 0.103 12.14 0.242 12.14 0.242 17.701 0.091 3.653 0.118 3.653 0.118 6.653 2.118 0.363 2.645 0.363 2.645 0.312 5.813-4e-3 1.037-8e-3 2.075-0.012 3.144-0.326 3.297-0.87 6.612-3.3 9.043-2.973-0.045-5.922-0.152-8.891-0.297-1.842-0.073-3.685-0.144-5.527-0.215-2.915-0.115-5.829-0.238-8.743-0.383-2.805-0.137-5.611-0.241-8.418-0.339-0.867-0.051-1.735-0.102-2.629-0.154-3.938-0.114-6.44 0.18-9.855 2.195-2.903 4.784-2.522 9.026-2.355 14.513 0.011 1.096 0.023 2.192 0.035 3.32 0.042 3.496 0.116 6.99 0.195 10.485 0.063 3.502 0.118 7.004 0.163 10.506 0.029 2.178 0.07 4.356 0.123 6.534 0.124 7.501 0.124 7.501-2.098 10.835-3.504 0.876-6.239 1.195-9.813 1.25-0.498 0.013-0.498 0.013-3.019 0.078-4.24-0.439-6.577-0.922-10.168-3.328-1.08-4.044-0.854-8.066-0.751-12.226 2e-3 -0.632 2e-3 -0.632 0.012-3.83 0.022-4.19 0.094-8.379 0.168-12.569 0.028-2.903 0.053-5.806 0.076-8.709 0.055-6.091 0.133-12.18 0.229-18.269 0.123-7.819 0.202-15.637 0.265-23.456 0.051-5.997 0.119-11.993 0.191-17.989 0.035-2.884 0.066-5.767 0.093-8.651 0.043-4.025 0.105-8.05 0.173-12.074 5e-3 -0.6 5e-3 -0.6 0.029-3.637 0.023-1.094 0.045-2.187 0.069-3.314 0.013-0.952 0.027-1.904 0.041-2.885 0.405-2.391 0.405-2.391 3.405-5.391 3.386-1.129 5.933-1.116 9.503-1.101z" fill="#AE9696"/>
<path transform="translate(2187,862)" d="m0 0c2.703 0.09 5.409 0.128 8.113 0.129 0.811 2e-3 0.811 2e-3 4.915 0.01 1.762-2e-3 3.523-4e-3 5.284-6e-3 1.816 0 3.632 1e-3 5.447 3e-3 3.799 1e-3 7.599-1e-3 11.398-6e-3 4.862-5e-3 9.725-2e-3 14.587 4e-3 3.747 4e-3 7.494 2e-3 11.241 0 1.793-1e-3 3.585 0 5.378 2e-3 2.508 3e-3 5.016-2e-3 7.524-7e-3 1.425 0 2.85-1e-3 4.319-2e-3 3.794-0.127 3.794-0.127 7.114-0.76 2.68-0.367 2.68-0.367 5.68 1.633 1.758 4.071 2.48 7.58 2 12-3 4-3 4-6.522 4.514-1.438 8e-3 -2.875 0.017-4.357 0.025-1.56 0.023-3.121 0.046-4.728 0.07-1.636 6e-3 -3.271 0.011-4.955 0.016-3.231 0.025-6.462 0.059-9.692 0.102-0.718 3e-3 -0.718 3e-3 -4.354 0.018-3.392 0.255-3.392 0.255-5.392 2.255-0.203 3.609-0.28 7.142-0.271 10.752-3e-3 0.559-3e-3 0.559-0.016 3.39-0.01 2.435-0.016 4.871-0.018 7.306-4e-3 3.848-0.02 7.697-0.041 11.545-0.055 10.944-0.086 21.888-0.11 32.833-0.016 6.687-0.046 13.374-0.085 20.061-0.012 2.555-0.018 5.11-0.018 7.665 0 3.566-0.018 7.131-0.04 10.696 4e-3 1.065 9e-3 2.13 0.014 3.227-0.026 2.512-0.205 5.022-0.415 7.525-3.885 2.59-6.359 2.3-11 2.312-1.423 0.017-2.846 0.034-4.312 0.051-3.688-0.363-3.688-0.363-6.688-3.363-0.306-3.682-0.427-7.197-0.417-10.881-4e-3 -0.561-4e-3 -0.561-0.026-3.396-0.025-3.712-0.029-7.424-0.034-11.137-0.014-2.572-0.03-5.143-0.047-7.715-0.042-6.776-0.067-13.552-0.087-20.328-0.036-10.855-0.097-21.709-0.159-32.564-0.019-3.803-0.031-7.606-0.041-11.409-0.01-2.316-0.021-4.632-0.031-6.947-1e-3 -1.067-2e-3 -2.134-3e-3 -3.234-0.042-7.276-0.042-7.276-1.155-8.389-2.632-0.123-5.267-0.18-7.902-0.211-1.612-0.028-3.224-0.057-4.885-0.086-2.579-0.041-5.157-0.078-7.736-0.104-2.481-0.028-4.961-0.075-7.442-0.122-0.746-0.01-0.746-0.01-4.519-0.06-1.16-0.138-2.321-0.275-3.516-0.417-2.758-4.137-2.265-7.101-2-12 0.875-3 0.875-3 2-5 2.874-1.437 4.843-0.533 8 0z" fill="#AE9595"/>
<path transform="translate(1444,506)" d="m0 0c15.863-1.663 32.481 1.006 48.062 3.875 0.864 0.149 1.728 0.298 2.617 0.452 2.419 0.478 2.419 0.478 6.321 1.673l2 4-2 3c-2.493 0.459-4.986 0.915-7.484 1.34-3.609 0.947-5.706 3.26-8.516 5.66-2.34 0.781-2.34 0.781-4.938 1.438-5.197 1.357-8.014 4.029-12.062 7.562-2.992 1.025-5.992 2.025-9 3l-3 2.5c-3.911 3.259-7.069 4.267-12 5.5-2-2-2-2-2.23-4.477 0.014-1.039 0.028-2.078 0.042-3.148 0.016-1.159 0.031-2.318 0.047-3.512 0.198-5.422 0.585-10.826 1.02-16.234 0.121-3.629 0.121-3.629-0.477-6.914-0.402-2.715-0.402-2.715 1.598-5.715z" fill="#AE9595"/>
<path transform="translate(1524,457)" d="m0 0c2 2 2 2 2.188 5-0.188 3-0.188 3-1.188 5-1.121 7.222-1.047 14.322-0.938 21.621-0.062 3.379-0.062 3.379-1.062 5.379-6.398 2.133-13.211 0.836-19.77-0.059-1.63-0.221-3.26-0.442-4.939-0.67-0.419-0.058-0.419-0.058-2.538-0.352-2.575-0.358-5.151-0.706-7.728-1.054-12.611-1.727-12.611-1.727-16.025-2.865v-5c3-3 3-3 7.375-3.875 5.111-1.243 6.086-2.497 9.625-6.125 3-1 6-2 9-3 0.412-0.413 0.412-0.413 2.5-2.5 2.5-2.5 2.5-2.5 7.062-4 4.622-1.562 5.84-2.551 8.438-6.5 2.763-1.381 4.947-1.191 8-1z" fill="#AE9595"/>
</svg>
