<?xml version="1.0" encoding="UTF-8"?>
<svg version="1.1" viewBox="0 0 2448 1112" xmlns="http://www.w3.org/2000/svg">
<path transform="translate(210,4)" d="m0 0h2024v343l-39 1c-3.63 0.99-7.26 1.98-11 3-0.879 3.516-1.127 6.063-1.131 9.636-4e-3 1.156-8e-3 2.311-0.012 3.502 0 0.635 0 0.635 3e-3 3.848-3e-3 1.349-6e-3 2.698-9e-3 4.088-9e-3 4.54-0.011 9.081-0.012 13.622l-0.015 9.741c-0.014 8.837-0.02 17.674-0.024 26.511-3e-3 5.518-7e-3 11.035-0.012 16.553-0.012 15.278-0.022 30.555-0.026 45.832v2.964c0 0.98-1e-3 1.96-1e-3 2.97 0 1.986-1e-3 3.973-1e-3 5.959 0 0.985-1e-3 1.97-1e-3 2.985-4e-3 15.963-0.021 31.926-0.045 47.889-0.023 16.388-0.036 32.777-0.037 49.166-1e-3 9.202-7e-3 18.403-0.025 27.605-0.017 8.655-0.018 17.31-0.01 25.965 1e-3 3.178-3e-3 6.356-0.013 9.534-0.013 4.336-7e-3 8.672 4e-3 13.009-5e-3 0.629-5e-3 0.629-0.025 3.815 0.039 6.857 0.341 12.589 3.392 18.806 5.038 2.434 10.285 2.343 15.773 2.414 0.924 0.019 1.848 0.039 2.8 0.059 2.934 0.059 5.868 0.106 8.802 0.152 1.996 0.038 3.992 0.077 5.988 0.117 4.879 0.096 9.758 0.18 14.637 0.258 0.219 51.034 0.417 102.07 0.586 153.1 0.02 6.02 0.041 12.039 0.061 18.059 4e-3 1.198 8e-3 2.397 0.012 3.632 0.066 19.426 0.146 38.853 0.231 58.28 0.088 19.92 0.159 39.841 0.217 59.763 0.037 12.3 0.085 24.601 0.148 36.902 0.042 8.425 0.069 16.85 0.085 25.276 0.01 4.867 0.026 9.734 0.059 14.601 0.037 5.267 0.042 10.534 0.044 15.801 0.016 1.551 0.031 3.103 0.047 4.701-4e-3 1.403-9e-3 2.806-0.013 4.251 2e-3 0.609 2e-3 0.609 0.013 3.688-0.49 2.944-0.49 2.944-4.49 5.944-2.679 0.375-2.679 0.375-5.812 0.374-1.198 8e-3 -2.397 0.015-3.631 0.022-0.661-4e-3 -0.661-4e-3 -4.005-0.022-0.704 2e-3 -0.704 2e-3 -4.266 0.012-4.774 9e-3 -9.548-2e-3 -14.322-0.014-3.45 1e-3 -6.899 6e-3 -10.348 0.011-7.553 9e-3 -15.106 7e-3 -22.659-3e-3 -11.306-0.014-22.613-0.011-33.92-4e-3 -19.266 0.01-38.532 6e-3 -57.799-5e-3 -19.534-0.011-39.069-0.016-58.603-0.013h-3.734c-6.282 1e-3 -12.564 2e-3 -18.846 3e-3 -45.514 8e-3 -91.029 1e-3 -136.54-0.013-45.087-0.015-90.174-0.024-135.26-0.024-2.829 0-5.657-1e-3 -8.485-1e-3h-34.095c-31.771-1e-3 -63.543-2e-3 -95.315-4e-3h-4.385c-70.418-5e-3 -140.84-0.021-211.26-0.038-97.941-0.023-195.88-0.037-293.82-0.041h-9.143c-10.646 0-21.292-1e-3 -31.938-1e-3 -9.092-1e-3 -18.184-1e-3 -27.275-1e-3 -4.533 0-9.066-1e-3 -13.599-1e-3 -94.761-3e-3 -189.52-0.014-284.28-0.027-29.596-4e-3 -59.192-7e-3 -88.789-0.01-59.298-5e-3 -118.6-0.012-177.89-0.028-5-1e-3 -10.001-3e-3 -15.001-4e-3 -1.227 0-2.455-1e-3 -3.719-1e-3 -19.489-5e-3 -38.979-7e-3 -58.468-8e-3 -19.13 0-38.261-4e-3 -57.391-0.012-11.237-5e-3 -22.474-7e-3 -33.712-5e-3 -7.442 2e-3 -14.885-1e-3 -22.328-6e-3 -4.232-3e-3 -8.464-5e-3 -12.696-2e-3 -4.528 3e-3 -9.057-1e-3 -13.585-6e-3 -1.329 2e-3 -2.658 4e-3 -4.026 6e-3 -1.191-2e-3 -2.382-5e-3 -3.609-8e-3 -1.034 0-2.068 0-3.133-1e-3 -2.304-0.125-2.304-0.125-3.304-1.125-0.098-2.137-0.124-4.278-0.123-6.417-2e-3 -1.406-4e-3 -2.811-6e-3 -4.26 3e-3 -1.565 6e-3 -3.13 9e-3 -4.743-1e-3 -1.646-2e-3 -3.293-3e-3 -4.989-2e-3 -4.593 2e-3 -9.185 7e-3 -13.778 4e-3 -4.944 3e-3 -9.888 2e-3 -14.832 0-8.574 3e-3 -17.147 8e-3 -25.721 8e-3 -12.396 0.011-24.792 0.012-37.188 2e-3 -20.109 9e-3 -40.218 0.019-60.328 9e-3 -19.539 0.016-39.079 0.02-58.619 0-1.203 1e-3 -2.407 1e-3 -3.647 1e-3 -6.037 2e-3 -12.074 4e-3 -18.112 0.01-50.122 0.028-100.24 0.05-150.37 0.876-6e-3 1.752-0.012 2.655-0.018 8.269-0.058 16.537-0.13 24.806-0.218 4.251-0.044 8.501-0.084 12.752-0.11 4.89-0.031 9.78-0.086 14.67-0.142 1.522-7e-3 3.044-0.013 4.612-0.02 1.421-0.019 2.842-0.039 4.306-0.06 1.248-0.011 2.496-0.022 3.782-0.033 3.776-0.441 6.194-1.408 9.417-3.399 4.278-6.426 3.425-14.103 3.401-21.532 7e-3 -1.461 0.014-2.922 0.021-4.427 0.02-4.823 0.019-9.645 0.019-14.467 0.012-3.348 0.025-6.696 0.04-10.045 0.041-9.71 0.06-19.421 0.077-29.133 0.022-12.379 0.055-24.758 0.107-37.138 0.023-5.78 0.029-11.561 0.033-17.341 0.01-3.011 0.02-6.021 0.031-9.032-3e-3 -1.384-5e-3 -2.768-8e-3 -4.195 7e-3 -1.254 0.014-2.509 0.021-3.802 1e-3 -1.095 3e-3 -2.19 5e-3 -3.319 0.253-2.569 0.253-2.569 2.253-4.569 2.512-0.216 2.512-0.216 5.719-0.167 0.599 7e-3 0.599 7e-3 3.63 0.042 1.299 0.025 2.598 0.051 3.936 0.078 1.327 0.02 2.653 0.041 4.02 0.062 2.809 0.045 5.617 0.096 8.426 0.152 4.317 0.083 8.633 0.145 12.951 0.204 2.722 0.047 5.444 0.095 8.166 0.145 1.301 0.017 2.602 0.035 3.942 0.054 1.195 0.026 2.389 0.052 3.62 0.079 1.058 0.02 2.116 0.039 3.205 0.059 0.787 0.096 1.574 0.193 2.385 0.292 1.352 2.705 1.131 4.814 1.138 7.843 5e-3 1.245 0.011 2.49 0.017 3.773 1e-3 1.373 2e-3 2.747 3e-3 4.162 5e-3 1.441 0.01 2.881 0.015 4.366 0.011 3.139 0.019 6.278 0.026 9.417 0.012 4.968 0.031 9.935 0.053 14.903 0.062 14.127 0.116 28.255 0.149 42.383 0.019 7.798 0.048 15.597 0.088 23.396 0.021 4.126 0.035 8.252 0.039 12.378 5e-3 4.609 0.028 9.216 0.055 13.825-3e-3 1.361-6e-3 2.723-9e-3 4.125 0.112 12.747 0.112 12.747 3.426 18.429 4.863 3 9.102 3.375 14.736 3.372 0.758 3e-3 0.758 3e-3 4.592 0.019 1.623-9e-3 3.246-0.018 4.918-0.028 1.697 0 3.394 0 5.092 2e-3 3.549 0 7.099-0.011 10.649-0.029 4.533-0.022 9.066-0.023 13.6-0.016 3.503 3e-3 7.006-4e-3 10.509-0.013 2.479-6e-3 4.958-5e-3 7.437-3e-3 1.519-0.01 3.037-0.02 4.602-0.029 1.329-5e-3 2.658-0.01 4.027-0.014 5.678-0.386 10.338-1.016 14.776-4.699 3.019-3.751 3.196-6.537 3.263-11.209 0.019-1.194 0.039-2.388 0.058-3.618 0.016-1.329 0.032-2.659 0.049-4.029 0.02-1.425 0.04-2.85 0.061-4.318 0.054-4.031 0.103-8.063 0.149-12.095 0.029-2.618 0.06-5.235 0.092-7.853 0.609-51.822 0.612-103.65 0.629-155.47 5e-3 -14.948 0.022-29.895 0.051-44.842 0.021-11.725 0.032-23.449 0.033-35.174 1e-3 -6.942 7e-3 -13.884 0.025-20.826 0.016-6.456 0.018-12.913 0.01-19.369-1e-3 -2.363 3e-3 -4.727 0.013-7.09 0.013-3.219 7e-3 -6.437-4e-3 -9.656 9e-3 -0.935 0.017-1.87 0.025-2.833-0.039-5.145-0.534-8.845-3.392-13.176-4.718-3.287-8.845-3.379-14.496-3.388-0.832-5e-3 -1.664-0.011-2.52-0.016-2.736-0.013-5.471-5e-3 -8.207 6e-3 -1.907-2e-3 -3.815-5e-3 -5.722-9e-3 -3.992-5e-3 -7.984 2e-3 -11.976 0.016-5.114 0.017-10.227 7e-3 -15.34-0.011-3.937-0.011-7.874-7e-3 -11.811 1e-3 -1.885 2e-3 -3.77-1e-3 -5.656-8e-3 -2.635-8e-3 -5.27 4e-3 -7.905 0.021-1.499 2e-3 -2.997 5e-3 -4.541 7e-3 -3.916 0.39-5.81 0.905-8.826 3.381-1.949 3.898-2.247 5.209-2.227 9.358v3.293c0.011 1.187 0.021 2.374 0.032 3.597 3e-3 1.254 6e-3 2.508 9e-3 3.8 7e-3 2.725 0.019 5.449 0.036 8.173 0.025 4.307 0.038 8.614 0.048 12.921 0.023 9.14 0.061 18.28 0.102 27.42 0.047 10.593 0.088 21.185 0.112 31.778 0.013 4.251 0.038 8.503 0.063 12.755 8e-3 2.595 0.014 5.191 0.02 7.786 0.011 1.189 0.021 2.378 0.032 3.604v3.284c4e-3 0.943 9e-3 1.886 0.014 2.858-0.241 2.373-0.241 2.373-2.241 5.373-2.55 0.367-2.55 0.367-5.811 0.356-1.218 3e-3 -2.436 6e-3 -3.69 0.01-1.321-0.013-2.642-0.025-4.003-0.038-0.674-1e-3 -0.674-1e-3 -4.087-6e-3 -2.856-6e-3 -5.711-0.02-8.567-0.041-4.389-0.031-8.779-0.041-13.168-0.047-2.768-9e-3 -5.535-0.019-8.303-0.031-1.323-4e-3 -2.646-8e-3 -4.009-0.013-1.214-9e-3 -2.429-0.019-3.681-0.029-0.537-3e-3 -0.537-3e-3 -3.258-0.021-2.423-0.14-2.423-0.14-3.423-1.14-0.102-1.684-0.134-3.373-0.138-5.06-5e-3 -1.096-0.011-2.193-0.017-3.322-1e-3 -1.214-2e-3 -2.427-3e-3 -3.678-5e-3 -1.269-0.01-2.539-0.015-3.848-0.011-2.768-0.019-5.537-0.026-8.306-0.012-4.378-0.031-8.757-0.053-13.135-0.062-12.453-0.116-24.906-0.149-37.359-0.021-7.607-0.057-15.214-0.101-22.821-0.014-2.904-0.023-5.808-0.026-8.712-5e-3 -4.061-0.028-8.121-0.055-12.182 3e-3 -1.205 6e-3 -2.411 9e-3 -3.653-0.011-1.107-0.023-2.215-0.034-3.356-2e-3 -0.48-2e-3 -0.48-0.01-2.91-0.473-3.295-1.279-5.071-3.382-7.658-24.368-8.123-51.316-2.638-77-3v-334zm1860 346c-3.915 6.493-3.407 13.148-3.35 20.481-1e-3 1.366-2e-3 2.732-4e-3 4.139 0 4.58 0.021 9.16 0.042 13.74 4e-3 3.282 7e-3 6.563 9e-3 9.845 6e-3 7.991 0.03 15.982 0.059 23.973 0.024 6.494 0.042 12.987 0.056 19.481 2e-3 0.925 4e-3 1.849 6e-3 2.801 4e-3 1.878 8e-3 3.756 0.012 5.633 0.039 17.605 0.098 35.211 0.162 52.816 0.059 16.11 0.094 32.22 0.119 48.33 0.025 16.541 0.065 33.083 0.122 49.624 0.031 9.287 0.057 18.574 0.067 27.861 0.01 8.729 0.041 17.458 0.086 26.187 0.014 3.208 0.02 6.416 0.019 9.625 1e-3 4.37 0.025 8.739 0.056 13.11-6e-3 1.277-0.012 2.554-0.017 3.87 0.122 10.76 0.122 10.76 4.556 15.484 3.023 1.511 5.831 1.152 9.2 1.177 1.522 0.013 3.044 0.026 4.613 0.039 1.671 8e-3 3.343 0.016 5.015 0.022 0.84 4e-3 1.68 8e-3 2.546 0.013 4.449 0.02 8.897 0.035 13.345 0.044 4.591 0.011 9.182 0.046 13.773 0.085 3.533 0.027 7.066 0.035 10.599 0.038 2.513 8e-3 5.027 0.034 7.541 0.061 0.767-2e-3 0.767-2e-3 4.65-9e-3 0.674 3e-3 0.674 3e-3 4.087 0.018 4.307-0.579 6.358-1.65 9.631-4.488 3.526-5.324 3.469-10.605 3.505-16.786 0.017-1.079 0.034-2.159 0.052-3.271 0.054-3.595 0.086-7.19 0.118-10.785 0.032-2.563 0.066-5.126 0.1-7.689 0.101-8.156 0.168-16.312 0.225-24.469 9e-3 -1.3 0.018-2.6 0.028-3.94 0.124-18.755 0.16-37.51 0.172-56.266 3e-3 -4.398 7e-3 -8.795 0.012-13.193 0.013-13.832 0.023-27.665 0.027-41.497 4e-3 -15.851 0.022-31.702 0.051-47.553 0.021-12.372 0.032-24.743 0.033-37.114 1e-3 -7.347 7e-3 -14.693 0.025-22.04 0.016-6.862 0.018-13.724 0.01-20.587-1e-3 -2.512 3e-3 -5.024 0.013-7.536 0.013-3.429 7e-3 -6.858-4e-3 -10.287 9e-3 -0.989 0.017-1.979 0.025-2.998-0.045-6.265-1.002-11.175-3.392-16.989-3.579-3.181-6.761-3.403-11.449-3.512-0.652-0.018-0.652-0.018-3.95-0.108-1.415-0.022-2.83-0.045-4.289-0.068-1.471-0.031-2.942-0.062-4.458-0.094-4.068-0.077-8.137-0.137-12.206-0.185-2.748-0.034-5.497-0.075-8.246-0.116-4.763-0.067-9.526-0.114-14.29-0.146-1.857-0.014-3.715-0.032-5.572-0.055-2.621-0.03-5.242-0.04-7.864-0.044-1.507-9e-3 -3.013-0.019-4.565-0.028-4.455 0.386-7.289 1.027-11.111 3.356zm-1191.2 83.5c-2.638 1.439-4.797 2.074-7.688 2.812-5.057 1.416-7.5 3.802-11.062 7.688-0.949 0.433-1.898 0.866-2.875 1.312-4.061 2.193-6.39 5.188-9.293 8.727-1.832 1.961-1.832 1.961-4.832 2.961l1-3c0.566-10.905 0.566-10.905-3-16-4.54-2.27-7.061-2.264-12.102-2.291-0.813-6e-3 -1.626-0.013-2.465-0.02-2.686-0.019-5.372-0.023-8.058-0.025-1.868-6e-3 -3.736-0.013-5.604-0.02-3.914-0.012-7.828-0.016-11.742-0.015-5.017 1e-3 -10.034-0.027-15.051-0.061-3.857-0.022-7.714-0.026-11.571-0.025-1.85-3e-3 -3.7-0.012-5.55-0.027-2.585-0.02-5.17-0.014-7.755-2e-3 -0.736-1e-3 -0.736-1e-3 -4.459-8e-3 -3.643 0.494-3.643 0.494-6.087 2.399-3.227 4.345-2.701 8.445-2.696 13.672-3e-3 1.006-6e-3 2.012-9e-3 3.049-9e-3 3.393-0.011 6.786-0.012 10.18l-0.015 7.272c-0.013 6.601-0.02 13.202-0.024 19.804-3e-3 4.121-7e-3 8.242-0.012 12.363-0.013 12.885-0.023 25.77-0.027 38.655-4e-3 14.89-0.022 29.781-0.051 44.671-0.021 11.498-0.032 22.997-0.033 34.495-1e-3 6.872-7e-3 13.745-0.025 20.617-0.016 6.465-0.018 12.929-0.01 19.394 1e-3 2.374-3e-3 4.749-0.013 7.123-0.013 3.238-7e-3 6.476 4e-3 9.715-9e-3 0.942-0.017 1.884-0.025 2.855 0.039 5.161 0.516 8.887 3.392 13.23 4.533 3.104 8.334 3.379 13.746 3.388 1.542 0.01 3.084 0.019 4.672 0.029 1.673-6e-3 3.346-0.012 5.02-0.019 1.725 2e-3 3.451 5e-3 5.177 9e-3 3.611 5e-3 7.222-2e-3 10.833-0.016 4.62-0.017 9.24-7e-3 13.86 0.011 3.562 0.011 7.124 7e-3 10.686-1e-3 1.703-2e-3 3.407 1e-3 5.11 8e-3 2.383 8e-3 4.767-6e-3 7.15-0.021 1.354-2e-3 2.708-5e-3 4.104-7e-3 3.964-0.415 6.345-1.148 9.642-3.381 2.227-4.152 2.253-7.86 2.258-12.515 7e-3 -1.539 0.014-3.079 0.021-4.665-2e-3 -1.702-5e-3 -3.405-8e-3 -5.107 5e-3 -1.796 0.01-3.591 0.016-5.387 0.012-3.864 0.017-7.728 0.018-11.593 2e-3 -6.109 0.02-12.219 0.041-18.328 0.049-15.174 0.08-30.348 0.101-45.521 0.017-11.795 0.039-23.589 0.083-35.384 0.022-6.074 0.03-12.148 0.028-18.223 1e-3 -3.777 0.015-7.554 0.033-11.331 5e-3 -1.753 6e-3 -3.505 1e-3 -5.258-6e-3 -2.391 8e-3 -4.782 0.023-7.173 1e-3 -0.669 1e-3 -0.669 6e-3 -4.056 0.518-4.727 2.055-7.282 5.57-10.408 0.783-0.574 1.565-1.147 2.371-1.739 2.302-1.704 4.412-3.286 6.438-5.312 8.028-2.491 16.666-3.019 25-2 3.727 2.034 5.643 3.464 8 7 1.543 10.302 1.127 20.956 1.082 31.343-4e-3 1.694-7e-3 3.387-0.01 5.081-6e-3 3.617-0.016 7.234-0.027 10.851-0.019 5.724-0.028 11.449-0.036 17.173-0.024 16.268-0.06 32.536-0.105 48.804-0.025 9.007-0.042 18.015-0.052 27.022-6e-3 5.686-0.022 11.372-0.044 17.059-0.012 3.537-0.015 7.074-0.016 10.611-3e-3 2.412-0.016 4.825-0.03 7.237 2e-3 1.447 3e-3 2.893 4e-3 4.383-3e-3 1.251-6e-3 2.501-9e-3 3.789 0.344 5.156 0.912 9.973 4.181 14.085 4.029 3.052 7.783 2.694 12.683 2.707 0.794 3e-3 0.794 3e-3 4.814 0.02l5.217 3e-3c1.78 3e-3 3.56 7e-3 5.34 0.01 3.731 6e-3 7.463 8e-3 11.194 7e-3 4.783 0 9.566 0.014 14.349 0.031 3.676 0.011 7.352 0.013 11.028 0.013 1.763 1e-3 3.527 5e-3 5.29 0.013 2.466 0.01 4.931 6e-3 7.397 1e-3 0.701 1e-3 0.701 1e-3 4.252 4e-3 3.498-0.247 3.498-0.247 7.498-2.247 2.7-5.618 3.376-10.346 3.381-16.532 2e-3 -0.411 2e-3 -0.411 0.014-2.489 0.012-2.732 3e-3 -5.464-7e-3 -8.196 4e-3 -1.966 0.01-3.933 0.016-5.9 0.014-5.329 8e-3 -10.657-1e-3 -15.986-8e-3 -5.583-1e-3 -11.167 4e-3 -16.751 6e-3 -9.377-2e-3 -18.754-0.016-28.132-0.016-10.83-0.011-21.66 6e-3 -32.49 0.013-9.309 0.015-18.618 7e-3 -27.927-4e-3 -5.555-5e-3 -11.11 5e-3 -16.666 9e-3 -5.224 2e-3 -10.448-0.015-15.673-4e-3 -1.913-3e-3 -3.827 4e-3 -5.74 8e-3 -2.62-2e-3 -5.239-0.017-7.859-1e-3 -1.463-2e-3 -2.927-3e-3 -4.435-0.644-7.201-2.677-12.669-7.378-18.224-0.639-1.299-1.279-2.599-1.938-3.938-1.992-3.923-4.196-6.755-7.062-10.062-0.474-0.846-0.949-1.691-1.438-2.562-2.039-3.182-4.62-5.085-7.562-7.438-0.392-0.402-0.392-0.402-2.375-2.438-6.015-5.871-11.259-9.019-19.152-11.624-2.999-1.138-5.024-2.897-7.473-4.938-15.957-5.721-40.769-6.154-55.25 3.5zm210.25 0.055c-3.145 1.515-6.031 2.281-9.438 3.007-5.062 1.128-7.726 2.864-11.562 6.438-2.667 1.333-5.333 2.667-8 4-2.748 1.906-5.354 3.951-8 6-1.011 0.619-2.021 1.238-3.062 1.875-3.153 2.281-5.525 4.883-8.016 7.859-2.085 2.458-4.281 4.789-6.484 7.141-3.654 4.033-6.504 8.151-9.149 12.898-1.289 2.227-1.289 2.227-4.289 6.227-0.717 2.216-1.431 4.432-2.121 6.656-0.879 2.344-0.879 2.344-3.317 6.094-2.76 4.578-4.095 8.778-5.472 13.906-1.09 3.344-1.09 3.344-3.102 6.746-3.28 6.361-3.204 13.65-3.738 20.66-0.125 1.413-0.25 2.825-0.379 4.28-1.219 14.596-1.032 28.831 0.317 43.408 0.101 1.319 0.202 2.637 0.306 3.996 0.68 7.391 1.965 13.291 5.331 19.917 1.477 2.938 2.337 5.914 3.175 9.087 1.538 5.287 3.726 8.801 7 13.25 0.51 1.63 0.965 3.279 1.375 4.938 1.292 4.864 3.469 7.651 6.918 11.246 2.246 2.389 3.922 5.074 5.707 7.816l3 3c0.412 0.928 0.825 1.856 1.25 2.812 3.686 6.715 10.868 10.801 16.988 15.168 2.522 1.844 4.918 3.781 7.324 5.77 3.812 3.017 7.59 4.762 12.176 6.328 2.262 0.922 2.262 0.922 6.262 3.922 3.128 0.924 6.207 1.751 9.375 2.5 5.555 1.325 10.537 2.861 15.625 5.5 4.769 1.328 9.632 1.162 14.543 1.168 0.924 3e-3 1.847 7e-3 2.799 0.01 1.952 5e-3 3.905 7e-3 5.857 7e-3 2.961 2e-3 5.921 0.021 8.881 0.04 1.904 3e-3 3.809 5e-3 5.713 5e-3 0.437 4e-3 0.437 4e-3 2.646 0.022 8.111-0.029 15.693-1.367 23.311-4.252 4.472-1.573 8.601-2.37 13.312-2.875 6.022-0.742 10.194-2.482 15.344-5.617 2.57-1.494 5.051-2.507 7.844-3.508 4.81-1.85 7.952-4.469 11.75-8 1.83-1.441 3.664-2.879 5.5-4.312 5.019-4.093 8.772-8.428 12.5-13.688 1.081-1.418 2.164-2.835 3.25-4.25 5.366-7.318 5.366-7.318 6.688-12.25 1.127-3.715 2.592-5.567 5.062-8.5 2.749-4.811 2.273-9.605 2-15-2-4-2-4-4.172-5.231-6.053-1.646-12.474-1.095-18.703-1.081-1.445-0.017-2.89-0.033-4.379-0.049-1.399-1e-3 -2.797-2e-3 -4.238-2e-3 -1.272-3e-3 -2.544-6e-3 -3.855-9e-3 -4.098 0.417-7.023 1.445-10.653 3.372-1.672 2.996-1.672 2.996-2.75 6.438-1.413 4.372-2.43 6.802-5.25 10.562-0.371 1.588-0.743 3.176-1.125 4.812-1.75 6.256-5.535 8.844-10.875 12.188-1.114 0.701-2.227 1.403-3.375 2.125-1.196 0.619-2.392 1.237-3.625 1.875-0.811 0.423-1.622 0.846-2.457 1.281-14.669 7.219-31.555 7.724-46.992 2.567-7.917-3.09-15.723-6.586-20.551-13.848-1.67-5.625-2.398-11.176-3-17-0.171-0.733-0.343-1.466-0.519-2.22-0.647-3.74-0.592-7.349-0.579-11.143 2e-3 -0.804 2e-3 -0.804 0.01-4.873 8e-3 -1.692 0.017-3.384 0.026-5.076 5e-3 -1.712 9e-3 -3.424 0.013-5.135 0.012-4.185 0.028-8.369 0.049-12.553 0.724-3e-3 1.449-7e-3 2.195-0.01 17.645-0.081 35.289-0.173 52.934-0.278 8.533-0.05 17.066-0.096 25.599-0.134 8.234-0.036 16.469-0.083 24.703-0.136 3.142-0.019 6.284-0.034 9.425-0.045 4.401-0.017 8.801-0.046 13.201-0.078 1.299-2e-3 2.598-4e-3 3.936-7e-3 15.841-0.146 15.841-0.146 21.007-5.312 1.737-4.151 2.248-7.671 2.23-12.148 0-1.163-1e-3 -2.325-2e-3 -3.523-0.013-1.222-0.027-2.445-0.04-3.704-6e-3 -0.63-6e-3 -0.63-0.033-3.816-0.028-2.491-0.061-4.983-0.102-7.475-0.043-2.711-0.061-5.423-0.073-8.135-0.24-8.843-2.383-16.096-5.562-24.336-1.191-3.244-1.989-6.158-2.543-9.551-0.896-4.418-2.131-6.796-4.875-10.312-2-3-2-3-2.75-7.25-1.433-5.447-3.534-7.597-7.25-11.75-0.859-1.622-1.67-3.27-2.438-4.938-2.451-5.177-5.661-8.92-9.562-13.062-1.234-1.412-2.463-2.829-3.688-4.25-0.583-0.66-1.167-1.32-1.769-2-1.16-1.315-2.295-2.653-3.418-4-2.125-1.75-2.125-1.75-6.625-3.688-4.615-2.115-5.513-3.26-8.5-7.062-3.235-2.177-6.613-4.072-10-6l-3-2c-1.804-0.305-3.619-0.547-5.438-0.75-4.7-0.696-8.025-1.871-12.124-4.25-19.651-10.382-62.155-8.628-81.438 1.555zm791 1.445c-1.928 0.35-3.868 0.635-5.812 0.875-5.025 0.769-8.167 1.889-12.188 5.125-1.667 1-3.333 2-5 3-2.94 1.899-5.767 3.813-8.5 6-2.5 2-2.5 2-5.5 3.938-5.286 3.633-9.165 8.402-13.309 13.234-1.691 1.828-1.691 1.828-4.253 3.64-3.359 3.014-4.97 6.6-7.028 10.579-1.527 2.825-3.392 5.12-5.41 7.609-1.35 2.658-2.684 5.325-4 8-0.99 1.32-1.98 2.64-3 4-0.703 2.353-1.32 4.733-1.875 7.125-1.172 4.711-2.386 8.735-4.813 12.937-6.201 11.68-3.466 28.943-3.442 41.869 5e-3 3.561 0 7.122-7e-3 10.682-0.015 32.348-0.015 32.348 5.657 42.438 1.552 3.093 2.317 5.886 3.042 9.261 1.155 5.23 3.136 8.42 6.438 12.688 0.726 1.524 1.413 3.067 2.062 4.625 1.711 3.863 3.259 6.209 5.938 9.375 0.73 1.216 1.459 2.431 2.211 3.684 2.702 4.363 5.946 8.105 9.477 11.816 0.616 0.654 1.232 1.307 1.868 1.981 4.804 5.015 9.886 9.357 15.444 13.519 1.688 1.416 3.376 2.833 5.062 4.25 4.455 3.569 8.646 5.633 13.938 7.75 1.237 0.681 2.475 1.361 3.75 2.062 4.642 2.117 9.027 3.101 13.996 4.149 3.058 0.741 5.794 1.699 8.692 2.914 6.711 2.758 12.756 3.034 19.949 3.043 0.897 3e-3 1.795 7e-3 2.72 0.01 1.895 5e-3 3.79 7e-3 5.686 7e-3 2.868 2e-3 5.735 0.021 8.603 0.04 21.883 0.069 21.883 0.069 31.979-4.225 4.059-1.582 7.738-2.37 12.063-2.875 6.017-0.793 10.545-2.791 15.843-5.684 2.719-1.441 2.719-1.441 7.031-2.941 4.478-1.821 7.121-4.235 10.688-7.5 1.828-1.486 3.661-2.965 5.5-4.438 7.046-5.783 12.612-11.218 17.156-19.207 1.095-1.918 2.298-3.773 3.532-5.605 1.865-2.831 3.321-5.707 4.812-8.75 0.701-1.176 1.402-2.351 2.125-3.562 3.327-6.1 3.896-12.523 2.125-19.313-1.25-2.125-1.25-2.125-5.25-4.125-5.426-0.442-10.87-0.324-16.312-0.312-1.498-0.017-2.995-0.033-4.538-0.049-1.448-1e-3 -2.896-2e-3 -4.388-2e-3 -1.321-3e-3 -2.641-6e-3 -4.002-9e-3 -4.145 0.41-7.082 1.44-10.76 3.372-2.154 3.231-3.118 6.365-4.312 10.062-3.776 11.385-7.075 18.808-17.688 24.938l-4 3c-1.81 0.748-3.646 1.433-5.5 2.062-3.357 1.149-6.306 2.341-9.5 3.938-19.221 2.296-35.778 0.679-51.688-11.188-4.608-4.392-5.178-9.786-6.312-15.812-0.236-0.769-0.472-1.538-0.715-2.33-2.755-9.299-2.627-18.287-2.473-27.92 0.014-1.615 0.028-3.23 0.042-4.895 0.035-3.952 0.084-7.903 0.146-11.855 0.741-3e-3 1.482-7e-3 2.245-0.01 18.036-0.081 36.073-0.173 54.109-0.278 8.723-0.05 17.445-0.096 26.167-0.134 8.416-0.036 16.832-0.083 25.248-0.136 3.213-0.019 6.425-0.034 9.637-0.045 4.497-0.017 8.993-0.046 13.489-0.078 1.33-2e-3 2.661-4e-3 4.032-7e-3 11.59-0.105 11.59-0.105 17.073-2.312 4.168-4.288 3.606-10.226 3.75-15.875 0.032-1.058 0.063-2.116 0.096-3.205 0.08-3.307 0.125-6.612 0.154-9.92 0.011-1.022 0.022-2.045 0.033-3.098 0.041-11.971-1.061-21.803-5.623-33.031-1.414-3.883-1.994-7.273-2.41-11.371-0.629-5.67-2.1-8.929-5.555-13.41-1.56-2.257-2.257-4.212-3.007-6.84-1.539-4.548-3.039-6.017-6.438-9.25-1.333-2.667-2.667-5.333-4-8-1.925-2.396-3.931-4.728-6-7-0.548-0.65-1.096-1.299-1.66-1.969-5.706-6.758-11.9-12.236-19.34-17.031-0.382-0.32-0.382-0.32-2.312-1.938-3.016-2.314-6.15-4.043-9.504-5.816-2.184-1.246-2.184-1.246-6.184-4.246-2.734-0.555-2.734-0.555-5.75-0.875-5.809-0.829-9.286-2.973-14.25-6.125-21.849-6.388-60.908-7.728-80 5zm-1310-3.062c-5.812 2.73-10.909 3.807-17.242 4.585-3.701 0.64-5.817 2.175-8.758 4.477-2.783 1.523-5.594 2.984-8.414 4.438-2.586 1.562-2.586 1.562-4.656 3.64-1.93 1.922-1.93 1.922-6.18 3.672-8.113 3.397-13.189 10.7-18.75 17.25-0.804 0.784-1.609 1.567-2.438 2.375-5.739 5.88-9.972 11.5-12.542 19.363-1.02 2.262-1.02 2.262-3.012 4.196-2.431 2.501-3.007 4.478-3.946 7.816-1.217 3.989-2.234 6.501-4.624 10-3.023 5.27-3.734 10.011-4.68 15.969-0.716 4.042-1.784 7.787-2.946 11.719-4.383 18.367-3.869 39.576 1.895 57.531 1.298 4.046 2.08 7.971 2.793 12.156 1.189 6.274 3.217 10.43 6.5 15.875 1.059 2.818 2.011 5.647 2.91 8.52 1.252 2.849 2.895 4.306 5.09 6.48 1.055 2.332 1.055 2.332 1.875 4.812 1.882 5.002 4.43 8.276 8.125 12.188 1.193 1.349 2.381 2.703 3.562 4.062 0.296 0.336 0.296 0.336 1.79 2.032 1.402 1.622 2.75 3.291 4.086 4.968 5.352 6.136 11.209 10.504 18.257 14.532 2.305 1.406 2.305 1.406 5.305 4.031 3.319 2.628 6.38 3.888 10.34 5.285 2.66 1.09 2.66 1.09 5.988 3.086 3.86 2.107 7.202 3.063 11.484 4.004 4.523 1 8.221 2.016 12.379 4.102 7.579 3.127 16.009 2.416 24.068 2.31 2.866-0.037 5.73-0.041 8.596-0.041 1.843-0.01 3.685-0.021 5.528-0.035 0.423-1e-3 0.423-1e-3 2.564-7e-3 7.029-0.111 13.331-1.401 19.741-4.267 3.942-1.652 7.75-2.648 11.937-3.5 5.659-1.212 9.536-3.336 14.375-6.562 0.743-0.227 0.743-0.227 4.5-1.375 4.716-1.703 7.096-3.562 10.664-6.926 3.369-3.118 7.339-5.386 11.211-7.824 3.971-3.15 6.719-6.529 9.785-10.531 1.84-2.344 1.84-2.344 4.402-4.844 3.018-3.095 5.297-6.509 7.692-10.098 1.746-2.402 1.746-2.402 3.867-4.367 2.279-2.468 2.698-4.272 3.379-7.535 1.06-5.078 1.06-5.078 3.438-7.359 2.87-2.979 3.456-5.931 4.562-9.891 1.208-4.292 2.329-7.95 4.543-11.832 2.803-6.327 3.201-12.505 3.769-19.356 0.124-1.417 0.248-2.834 0.376-4.293 1.004-12.703 0.791-25.083-0.188-37.769l-0.348-5.637c-0.566-8.031-1.184-15.085-5.429-22.066-1.489-2.797-2.063-5.454-2.723-8.547-1.167-5.196-3.028-7.685-6.5-11.75-0.705-1.959-1.345-3.942-1.938-5.938-1.696-5.548-4.05-8.804-8.062-13.062-0.745-1.228-1.49-2.457-2.258-3.723-2.747-4.485-6.054-8.175-9.68-11.965-0.297-0.318-0.297-0.318-1.802-1.931-8.868-9.391-8.868-9.391-14.885-11.881-3.375-1.5-3.375-1.5-5.187-3.875-2.8-3.359-5.77-4.619-9.696-6.434-2.492-1.191-2.492-1.191-5.68-3.316-4.949-2.434-9.841-3.123-15.246-4.09-3.566-0.785-3.566-0.785-7.566-2.847-15.481-7.499-50.501-7.924-66 0zm676 7.062c-1.962 3.925-1.346 8.712-1 13 1.212 3.116 2.618 5.451 4.516 8.176 1.853 3.526 2.319 6.704 2.922 10.636 1.063 6.134 2.629 10.678 5.562 16.188 0.682 2.302 1.324 4.616 1.938 6.938 1.147 4.277 2.307 7.829 4.687 11.562 2.324 3.777 2.84 6.977 3.313 11.375 0.685 6.158 2.431 10.049 5.617 15.281 2.182 4.294 2.803 8.731 3.668 13.438 0.75 3.287 1.785 5.896 3.277 8.906 2.598 5.243 3.668 10.389 4.629 16.141 0.871 3.359 0.871 3.359 2.875 6.797 2.189 3.906 2.769 6.897 3.371 11.312 1.08 6.462 2.812 10.985 6.211 16.52 2.112 4.077 2.815 8.284 3.578 12.785 0.836 2.945 0.836 2.945 2.836 5.324 2.666 3.494 2.829 6.348 3.375 10.683 1.069 6.894 2.827 11.923 6.215 17.958 2.09 4.418 2.763 8.943 3.476 13.753 0.934 3.227 0.934 3.227 3.414 6.129 3.072 3.777 3.543 6.508 4.27 11.286 1.232 7.759 1.232 7.759 2.25 10.812 0.912 8.12-0.333 15.642-2.25 23.5-0.204 0.86-0.409 1.721-0.62 2.607-1.271 4.894-2.817 8.118-6.13 11.893-0.949 2.359-0.949 2.359-1.688 4.75-2.279 6.08-6.309 10.205-11.312 14.25-0.99 0.33-1.98 0.66-3 1 0.361-0.727 0.722-1.454 1.094-2.203 3.38-7.323 5.441-13.723 3.906-21.797-1.266-2.931-2.741-5.549-4.422-8.262-1.629-2.827-2.597-5.507-3.578-8.613-1.712-4.927-3.559-7.192-8-10.125-0.718-0.501-1.436-1.003-2.176-1.52-10.166-7.022-19.089-10.147-31.515-8.019-6.059 1.572-9.705 4.205-14.309 8.539-0.866 0.433-1.733 0.866-2.625 1.312-3.139 2.231-4.353 4.842-6.066 8.239-1.309 2.449-1.309 2.449-3.321 5.219-2.353 3.823-3.249 7.233-4.238 11.605-0.335 1.431-0.67 2.862-1.016 4.336-1.307 7.634-0.584 14.391 1.016 21.914 0.157 0.82 0.315 1.64 0.477 2.484 1.554 7.439 5.057 12.144 9.773 17.891 0.578 0.784 1.155 1.567 1.75 2.375 4.836 5.642 9.738 9.837 16.737 12.593 2.513 1.032 2.513 1.032 5.317 2.507 8.413 4.353 15.293 5.454 24.696 5.275 0.608 0.012 0.608 0.012 3.684 0.07 9.192-0.059 15.781-2.509 23.816-6.82 1.444-0.66 2.888-1.32 4.375-2 4.08-2.251 7.182-4.865 10.625-8 0.331-0.262 0.331-0.262 2.004-1.59 4.781-3.855 7.644-7.766 10.621-13.121 1.73-2.879 3.977-4.956 6.375-7.289 1.052-1.973 2.048-3.977 3-6 0.804-1.258 1.609-2.516 2.438-3.812 1.819-2.974 3.261-5.595 4.624-8.75 1.938-4.438 1.938-4.438 4.063-7.75 1.801-3.542 2.262-5.7 2.75-9.563 0.749-5.445 2.426-8.389 5.68-12.711 2.306-3.853 2.818-8.002 3.668-12.367 0.777-3.047 0.777-3.047 3.277-6.859 3.186-5.338 3.7-10.277 4.688-16.356 0.726-3.424 1.505-5.641 3.312-8.582 2.227-3.786 3.085-6.138 4-10.312 0.904-4.088 1.643-6.156 4-9.75 3.063-5.131 3.753-9.744 4.629-15.602 0.961-3.958 2.623-6.225 4.871-9.586 1.164-4.047 2.008-8.103 2.875-12.223 1.163-3.905 2.581-5.685 5.125-8.777 1.09-3.234 1.09-3.234 1.938-6.75 1.133-4.308 2.233-7.928 4.624-11.688 3.04-4.96 3.633-10.195 4.626-15.859 0.961-4.384 2.629-7.962 4.624-11.953 1.339-3.1 2.015-6.069 2.688-9.375 0.845-4.09 1.771-7.221 4-10.75 2.457-3.956 3.205-7.61 4-12.187 1.088-6.253 3.072-10.077 6.5-15.438 0.386-1.966 0.693-3.949 0.938-5.938 0.708-5.44 2.375-8.39 5.613-12.718 2.208-3.572 2.854-7.322 3.73-11.391 1.048-4.303 2.741-7.997 4.719-11.953h1c0.086 1.002 0.173 2.003 0.262 3.035 0.812 7.682 1.446 12.994 6.738 18.965 1.594 4.781 1.683 9.858 2.074 14.865 0.467 5.055 1.372 8.761 3.926 13.135 2.629 4.661 3.415 8.23 3.812 13.562 0.598 5.617 1.566 9.816 4.188 14.813 3.441 6.683 3.894 12.972 4.512 20.391 0.534 4.637 1.711 8.376 3.476 12.66 2.502 6.366 3.779 13.167 4.95 19.886 1.062 4.688 1.062 4.688 3.003 7.872 2.389 4.427 3.245 8.668 4.059 13.566 1.166 6.428 2.61 12.37 5.074 18.422 1.214 3.709 1.718 7.408 2.301 11.266 0.877 5.496 1.959 9.775 4.687 14.624 2.664 4.746 3.475 8.648 4 14.063 0.86 8.827 2.865 15.452 9.626 21.437 4.165 3.066 5.763 3.567 10.828 3.631 1.155 0.016 2.311 0.032 3.501 0.049 5.301 0.044 10.601 0.085 15.902 0.108 2.793 0.017 5.587 0.044 8.38 0.082 4.028 0.055 8.055 0.077 12.084 0.091 1.243 0.023 2.486 0.046 3.766 0.069 7.566-0.018 11.92-0.779 17.851-5.592 5.31-6.926 5.571-13.195 6.344-21.742 0.641-4.158 1.663-6.932 3.594-10.633 3.536-6.818 4.276-13.515 5.285-21.066 0.692-4.062 1.649-7.242 3.277-10.997 2.352-5.467 3.258-10.821 4-16.687 0.837-6.575 2.124-11.837 5.234-17.691 2.216-5.574 2.968-11.494 3.922-17.394 0.773-4.776 1.615-9.243 3.344-13.79 3.088 3.088 2.494 6.344 2.812 10.625 0.72 7.31 2.108 11.255 6.188 17.375 1.014 4.627 1.489 9.295 2 14 0.765 5.916 1.811 10.895 4.5 16.25 2.769 5.635 3.259 10.958 3.91 17.148 0.565 3.447 1.397 5.679 3.028 8.727 2.656 5.174 3.289 10.293 3.937 16 1.363 11.652 4.736 23.175 11.625 32.875 4.004 2.002 5.564 2.256 9.883 2.275 1.184 9e-3 2.369 0.019 3.59 0.029 1.276-1e-3 2.552-2e-3 3.867-3e-3 1.314 4e-3 2.628 8e-3 3.982 0.013 2.78 6e-3 5.56 6e-3 8.34 2e-3 4.255-3e-3 8.51 0.02 12.766 0.045 2.7 3e-3 5.399 3e-3 8.099 2e-3 0.637 5e-3 0.637 5e-3 3.861 0.028 1.188-6e-3 2.376-0.012 3.6-0.019 1.043 1e-3 2.085 2e-3 3.16 2e-3 4.143-0.543 6.8-2.212 9.582-5.284 4.532-6.695 5.85-12.912 6.649-20.86 0.827-7.831 2.141-14.043 5.461-21.168 1.78-4.699 2.097-9.462 2.633-14.433 0.873-6.013 3.038-11.446 5.601-16.926 1.232-3.596 1.426-7.043 1.738-10.828 0.698-6.563 2.023-11.277 5.02-17.078 2.349-5.624 2.553-11.782 3.168-17.797 0.272-2.294 0.562-4.586 0.875-6.875 0.121-0.967 0.242-1.934 0.367-2.93 0.758-3.195 0.758-3.195 2.707-7.367 2.438-5.263 3.185-10.497 3.989-16.203 1.874-12.14 1.874-12.14 4.687-17.313 3.054-5.67 3.162-11.663 3.637-17.956 0.629-7.702 2.547-13.622 5.781-20.61 1.289-3.699 1.725-7.368 2.269-11.246 1.114-7.101 2.917-13.185 5.668-19.793 1.759-4.67 1.781-7.996-0.23-12.519-1.75-2.188-1.75-2.188-5.75-4.188-4.738-0.46-9.492-0.37-14.25-0.375-1.298-0.024-2.596-0.049-3.934-0.074-7.359-0.023-12.688 0.189-18.816 4.449-1.969 3.938-2.593 6.823-3.312 11.125-0.883 4.684-1.771 8.517-4.188 12.625-3.033 5.407-3.531 11.019-4.336 17.1-0.677 4.816-1.67 8.91-3.664 13.338-3.061 7.078-3.626 14.355-4.248 21.973-0.506 5.306-1.364 9.497-3.736 14.296-2.93 5.934-3.66 11.569-4.266 18.105-0.221 2.127-0.445 4.253-0.672 6.379-0.088 0.925-0.177 1.85-0.268 2.803-0.31 2.256-0.31 2.256-1.31 4.256l-3 1c-0.059-0.694-0.119-1.389-0.18-2.104-2.077-23.047-2.077-23.047-7.41-31.826-2.282-4.969-2.638-10.278-3.297-15.653-0.808-6.237-2.439-11.332-4.922-17.062-1.967-5.539-2.576-11.281-3.32-17.093-0.871-4.262-0.871-4.262-2.832-8.141-2.424-4.899-3.253-9.391-4.101-14.746-2.308-14.311-2.308-14.311-7.651-18.504-6.222-2.716-11.97-2.443-18.689-2.402-1.392-4e-3 -2.784-8e-3 -4.218-0.012-2.937-3e-3 -5.875 5e-3 -8.812 0.022-4.486 0.021-8.971 0-13.457-0.026-2.858 3e-3 -5.717 8e-3 -8.576 0.016-1.337-8e-3 -2.673-0.016-4.05-0.025-7.254 0.073-12.401 0.448-18.485 4.556-2.89 4.926-3.816 10.185-4.938 15.75-1.08 5.116-2.172 9.925-4.187 14.75-1.868 4.699-2.319 9.094-2.75 14.125-0.738 8.047-2.845 14.679-5.738 22.184-1.831 5.533-2.424 10.911-2.867 16.703-0.702 4.71-2.624 8.076-5.145 12.05-3.049 5.405-2.676 11.687-2.937 17.75-0.044 0.932-0.087 1.863-0.131 2.823-0.106 2.288-0.207 4.576-0.307 6.865-3.986-2.657-3.965-4.366-5-9-0.474-3.354-0.907-6.701-1.312-10.062-0.985-7.546-2.594-14.115-5.434-21.204-1.6-4.764-2.412-9.538-3.254-14.484-1.123-6.566-2.514-11.992-5.914-17.742-1.999-4.617-2.01-9.677-2.5-14.641-0.685-4.518-2.205-7.732-4.297-11.738-2.339-5.678-3.094-11.838-4.101-17.871-1.285-4.605-2.419-6.398-6.188-9.258-5.052-1.263-9.926-1.164-15.099-1.177-0.566-3e-3 -0.566-3e-3 -3.431-0.02-3.748-0.02-7.496-0.031-11.243-0.041-1.28-4e-3 -2.56-8e-3 -3.878-0.013-6.77-0.02-13.539-0.035-20.309-0.044-6.997-0.011-13.993-0.046-20.99-0.085-5.377-0.026-10.754-0.035-16.131-0.038-2.58-5e-3 -5.159-0.017-7.739-0.035-3.608-0.025-7.214-0.024-10.822-0.017-0.533-6e-3 -0.533-6e-3 -3.231-0.039-5.849 0.041-9.596 0.39-14.127 4.509-1.285 2.953-1.285 2.953-2.062 6.25-1.145 4.285-2.097 7.001-4.5 10.812-2.681 4.331-3.541 7.951-4.626 12.864-1.064 4.028-2.813 7.544-4.624 11.281-1.265 2.974-1.992 5.828-2.688 8.981-0.921 4.099-1.725 6.163-4.062 9.812-2.371 3.89-2.874 5.755-3.438 10.125-0.706 5.413-2.243 7.836-6 11.875-1.25 3.289-1.917 6.425-2.418 9.902-0.866 5.986-1.583 10.299-5.582 15.098-1.658-1.658-1.203-3.783-1.312-6.062-0.52-6.353-2.718-10.967-6.235-16.27-1.641-3.013-2.207-5.613-2.828-8.98-0.918-4.336-1.625-6.688-4.125-10.438-3.28-5.575-3.722-10.857-4.684-17.195-0.723-3.592-1.462-5.817-3.378-8.867-2.3-3.95-2.835-5.767-3.376-10.126-0.723-5.512-2.555-8.84-5.609-13.406-2.229-4.075-2.919-8.328-3.715-12.871-0.738-2.785-0.738-2.785-3.738-5.785-8.838-2.917-18.143-2.309-27.352-2.301-1.786-4e-3 -3.572-8e-3 -5.359-0.013-3.73-7e-3 -7.46-7e-3 -11.19-2e-3 -4.769 6e-3 -9.538-0.011-14.307-0.034-3.684-0.015-7.368-0.016-11.052-0.013-1.758 0-3.516-5e-3 -5.274-0.015-2.46-0.013-4.919-4e-3 -7.379 6e-3 -1.396-1e-3 -2.792-2e-3 -4.231-2e-3 -4.179 0.405-7.148 1.431-10.856 3.374z" fill="#FA0019"/>
<path transform="translate(210,347)" d="m0 0c9.79-0.051 19.58-0.086 29.37-0.11 3.333-9e-3 6.666-0.024 9.999-0.041 4.781-0.024 9.561-0.035 14.342-0.044 1.499-0.011 2.998-0.021 4.542-0.032h4.186c0.611-2e-3 0.611-2e-3 3.701-0.014 2.86 0.241 2.86 0.241 4.86 2.241-0.021 2.613-0.021 2.613-0.371 5.867-0.6 6.448-0.75 12.783-0.698 19.254 4e-3 1.133 9e-3 2.267 0.014 3.434 0.018 3.699 0.043 7.398 0.071 11.097 0.016 2.591 0.033 5.181 0.05 7.771 0.036 5.405 0.077 10.811 0.121 16.216 0.055 6.926 0.092 13.851 0.124 20.777 0.027 5.339 0.069 10.677 0.113 16.016 0.019 2.554 0.034 5.109 0.043 7.663 0.014 3.564 0.047 7.127 0.085 10.69v3.188c0.078 5.411 0.355 9.377 3.448 14.027 6.941 5.92 18.884 4.083 27.426 3.914 1.265-0.021 2.53-0.042 3.834-0.064 2.66-0.046 5.32-0.095 7.98-0.147 4.076-0.078 8.154-0.145 12.231-0.211 2.589-0.046 5.178-0.093 7.767-0.14 1.22-0.02 2.44-0.04 3.697-0.061 1.131-0.023 2.263-0.046 3.43-0.07 0.994-0.018 1.988-0.037 3.013-0.056 2.622-0.165 2.622-0.165 6.622-1.165 2.58-6.792 2.264-13.762 2.211-20.918-1e-3 -1.277-2e-3 -2.554-4e-3 -3.87-6e-3 -4.205-0.027-8.41-0.047-12.614-6e-3 -2.924-0.011-5.847-0.016-8.77-0.013-7.682-0.037-15.364-0.065-23.046-0.043-12.321-0.073-24.642-0.096-36.963-0.01-4.313-0.027-8.625-0.045-12.938-7e-3 -2.623-0.013-5.246-0.02-7.869-7e-3 -1.209-0.013-2.418-0.02-3.663-2e-3 -1.092-3e-3 -2.184-5e-3 -3.309-3e-3 -0.955-7e-3 -1.91-0.01-2.893 0.117-2.147 0.117-2.147 1.117-3.147 2.576-0.095 5.155-0.117 7.733-0.114h2.453c2.69 1e-3 5.379 9e-3 8.068 0.016 1.859 2e-3 3.719 4e-3 5.578 5e-3 4.904 3e-3 9.808 0.013 14.712 0.024 5.001 0.011 10.001 0.015 15.001 0.02 9.818 0.011 19.637 0.028 29.455 0.049 1.26 6.794 1.125 13.514 1.096 20.394-2e-3 1.357-4e-3 2.713-6e-3 4.11-7e-3 4.548-0.022 9.096-0.037 13.644-6e-3 3.259-0.013 6.517-0.019 9.776-0.016 7.934-0.037 15.867-0.06 23.8-0.02 6.445-0.037 12.89-0.053 19.335-0.047 18.265-0.098 36.53-0.154 54.795-1e-3 0.492-1e-3 0.492-9e-3 2.983-1e-3 0.492-1e-3 0.492-9e-3 2.986-0.049 15.993-0.088 31.986-0.122 47.979-0.036 16.415-0.079 32.83-0.129 49.245-0.028 9.218-0.054 18.437-0.071 27.656-0.016 8.66-0.043 17.32-0.076 25.98-0.011 3.187-0.018 6.374-0.022 9.562-5e-3 4.332-0.023 8.664-0.044 12.996 1e-3 1.277 3e-3 2.554 4e-3 3.87-4e-3 0.577-4e-3 0.577-0.024 3.493-3e-3 1.001-6e-3 2.002-9e-3 3.033-0.256 2.363-0.256 2.363-2.256 4.363-3.264 0.274-3.264 0.274-7.539 0.306-1.595 0.016-3.19 0.032-4.834 0.049-1.75 6e-3 -3.501 0.012-5.252 0.016-1.786 9e-3 -3.572 0.018-5.358 0.027-3.746 0.017-7.492 0.025-11.238 0.028-4.809 5e-3 -9.617 0.043-14.426 0.088-3.689 0.03-7.378 0.037-11.067 0.038-1.773 4e-3 -3.547 0.017-5.32 0.038-2.476 0.027-4.951 0.019-7.427 9e-3 -0.705 3e-3 -0.705 3e-3 -4.275 0.016-0.538-0.102-0.538-0.102-3.264-0.615-2.049-3.71-2.243-6.954-2.22-11.135 1e-3 -1.233 3e-3 -2.467 4e-3 -3.738 0.012-1.346 0.024-2.691 0.037-4.078 4e-3 -1.423 9e-3 -2.846 0.013-4.313 0.011-3.091 0.027-6.183 0.046-9.274 0.03-4.892 0.047-9.784 0.06-14.676 0.034-12.151 0.087-24.302 0.149-36.453 0.053-10.264 0.094-20.528 0.118-30.793 0.01-3.243 0.027-6.486 0.049-9.729 0.031-4.534 0.044-9.068 0.053-13.602 0.014-1.341 0.028-2.683 0.042-4.065-0.012-11.768-0.012-11.768-3.351-17.144-5.092-2.3-10.062-2.246-15.59-2.23h-2.466c-2.627 3e-3 -5.254 0.022-7.882 0.042-1.807 9e-3 -3.615 0.017-5.423 0.024-9.924 0.056-19.846 0.178-29.764 0.539-0.469 0.015-0.469 0.015-2.844 0.093-4.617 0.209-8.85 0.461-13.031 2.532-1.132 4.528-1.232 8.813-1.319 13.447-0.021 0.958-0.042 1.916-0.063 2.903-0.067 3.185-0.127 6.371-0.184 9.556-0.011 0.552-0.011 0.552-0.065 3.344-0.327 17.22-0.438 34.434-0.396 51.656 2e-3 1.098 5e-3 2.196 8e-3 3.327 0.026 10.07 0.066 20.14 0.115 30.211 0.027 5.614 0.044 11.228 0.055 16.843 6e-3 2.108 0.016 4.217 0.03 6.325 0.019 2.894 0.026 5.789 0.03 8.683 8e-3 1.639 0.015 3.278 0.023 4.967-0.234 3.738-0.234 3.738-2.234 5.738-7.155 1.349-14.4 1.145-21.652 1.133-1.296 1e-3 -2.592 2e-3 -3.927 3e-3 -2.726 0-5.451-1e-3 -8.177-6e-3 -4.191-5e-3 -8.383 0-12.574 7e-3 -2.649-1e-3 -5.298-2e-3 -7.947-4e-3 -1.261 2e-3 -2.521 4e-3 -3.819 6e-3 -1.156-3e-3 -2.311-6e-3 -3.501-0.01-0.511 0-0.511 0-3.097-2e-3 -2.306-0.127-2.306-0.127-3.306-1.127-0.097-1.804-0.124-3.611-0.123-5.417-2e-3 -1.183-4e-3 -2.366-6e-3 -3.585 3e-3 -1.316 6e-3 -2.632 9e-3 -3.988-1e-3 -1.385-2e-3 -2.77-3e-3 -4.198-2e-3 -4.681 4e-3 -9.363 9e-3 -14.045 1e-3 -3.34 1e-3 -6.68 0-10.02 0-7.211 3e-3 -14.423 8e-3 -21.634 8e-3 -10.427 0.011-20.854 0.012-31.28 2e-3 -16.915 9e-3 -33.83 0.019-50.745 9e-3 -16.435 0.016-32.871 0.02-49.307 0-1.012 1e-3 -2.024 1e-3 -3.067 1e-3 -5.078 2e-3 -10.157 4e-3 -15.235 0.01-42.16 0.028-84.319 0.05-126.48z" fill="#FAFAFA"/>
<path transform="translate(1471 447.88)" d="m0 0c1.336 5e-3 2.672 0.01 4.048 0.015 1.509 4e-3 3.017 8e-3 4.572 0.012 1.644 0.011 3.289 0.023 4.983 0.034 0.833 6e-3 1.666 0.012 2.523 0.018 4.408 0.031 8.815 0.07 13.222 0.114 4.556 0.044 9.112 0.06 13.669 0.069 3.5 0.013 6.999 0.048 10.498 0.088 2.497 0.023 4.994 0.023 7.491 0.021 0.759 0.012 0.759 0.012 4.601 0.07 0.669 4e-3 0.669 4e-3 4.055 0.029 3.359 0.646 3.359 0.646 5.753 2.904 2.305 3.934 2.897 8.053 3.606 12.492 1.146 7.04 3.066 12.686 6 19.25 0.735 3.21 1.379 6.442 1.938 9.687 1.106 6.105 2.416 11.761 4.687 17.563 1.916 4.942 2.806 9.349 3.313 14.625 0.732 7.368 2.917 13.37 5.691 20.195 1.359 3.896 1.924 7.273 2.309 11.367 0.765 7.72 3.483 14.169 6.601 21.176 1.461 3.387 1.461 3.387 1.461 5.387 4.313 0.437 4.313 0.437 9 0 3.13-5.285 3.585-10.685 4-16.688 0.73-8.616 2.179-16.567 4.789-24.8 1.784-5.648 2.791-11.044 3.391-16.946 0.76-3.304 1.785-5.702 3.262-8.726 2.768-5.864 3.787-11.449 4.621-17.84 0.968-7.208 2.383-13.568 5.017-20.353 1.439-4.139 1.923-8.174 2.483-12.522 1.31-10.136 1.31-10.136 4.437-14.125 4.171-3.128 4.847-3.379 9.715-3.42 0.574-8e-3 0.574-8e-3 3.479-0.048 1.235 0 2.471-1e-3 3.744-1e-3 1.272-7e-3 2.544-0.015 3.855-0.023 2.69-0.011 5.38-0.014 8.07-9e-3 4.122 1e-3 8.242-0.041 12.364-0.085 2.612-5e-3 5.224-8e-3 7.836-8e-3 1.235-0.016 2.471-0.033 3.744-0.049 1.148 9e-3 2.296 0.018 3.479 0.028 1.009-2e-3 2.018-4e-3 3.058-7e-3 3.635 0.851 4.646 2.567 6.656 5.622 3.59 7.215 4.875 15.011 6.094 22.91 0.729 3.288 1.567 5.816 2.875 8.867 2.663 6.372 3.476 12.861 4.453 19.657 0.908 5.831 2.344 10.828 4.669 16.248 1.314 3.349 1.824 6.706 2.347 10.255 0.827 4.871 1.719 8.844 4.062 13.188 3.191 6.266 3.693 12.916 4.424 19.821 0.668 6.068 1.955 11.322 4.076 17.054 1.589 0.062 3.177 0.124 4.813 0.187 0.893 0.035 1.787 0.07 2.707 0.106 2.48-0.293 2.48-0.293 5.48-3.293 1.803-3.606 2.318-5.304 2.676-9.149 0.103-0.997 0.206-1.995 0.313-3.023 0.107-1.057 0.214-2.114 0.324-3.203 0.915-8.224 2.344-15.261 5.5-22.945 1.563-4.844 2.105-9.637 2.687-14.68 0.886-7.612 2.362-14.093 5.243-21.234 1.935-5.794 2.826-11.748 3.738-17.778 0.893-5.592 2.376-10.369 4.594-15.573 1.425-3.719 1.968-7.488 2.55-11.415 1.166-7.791 1.166-7.791 3.375-10 3.67-0.363 7.259-0.606 10.938-0.75 1.015-0.055 2.03-0.111 3.076-0.168 0.487-0.021 0.487-0.021 2.951-0.129 0.893-0.04 1.787-0.079 2.707-0.12 2.328 0.167 2.328 0.167 5.328 2.167-0.118 10.16-2.554 20.182-6.476 29.512-2.223 6.547-2.974 13.192-3.897 20.025-0.921 6.316-2.369 11.887-4.683 17.83-1.485 4.144-2.199 8.369-2.944 12.695-1.891 10.307-1.891 10.307-4.125 15.063-2.012 4.412-2.335 8.557-2.75 13.375-0.6 6.554-1.82 12.127-4.062 18.312-2.44 6.737-3.786 12.997-4.625 20.063-0.823 6.884-2.17 12.583-5.18 18.836-2.041 5.339-2.847 10.923-3.738 16.555-0.751 4.516-1.73 8.491-3.551 12.703-2.228 5.25-2.851 10.266-3.406 15.906-1.126 9.636-2.44 19.002-9.563 26.125-2.428 0.381-2.428 0.381-5.341 0.388-1.092 0.01-2.183 0.019-3.307 0.029-1.178-6e-3 -2.356-0.012-3.57-0.019-0.605 2e-3 -0.605 2e-3 -3.665 9e-3 -2.559 2e-3 -5.118-3e-3 -7.677-0.016-3.924-0.016-7.847 0-11.772 0.019-2.483-2e-3 -4.966-6e-3 -7.449-0.012-0.589 3e-3 -0.589 3e-3 -3.57 0.019-0.546-5e-3 -0.546-5e-3 -3.307-0.029-0.961-2e-3 -1.923-5e-3 -2.913-7e-3 -2.429-0.381-2.429-0.381-5.429-3.381-0.589-2.531-0.589-2.531-0.937-5.5-0.591-4.102-1.378-7.664-2.938-11.5-2.055-5.231-3.103-10.556-4.125-16.063-1.124-6.038-2.436-11.528-5-17.117-1.773-5.001-2.556-10.29-3.429-15.515-0.742-4.166-1.67-7.498-3.606-11.278-2.365-4.848-2.866-9.034-3.402-14.34-0.844-7.07-2.057-12.617-5.43-18.949-1.982-4.792-2.217-9.853-2.742-14.976-1.202-11.573-1.202-11.573-5.391-15.762-3.871 0.07-6.198 0.394-9.312 2.75-2.945 3.927-3.922 7.77-4.399 12.601-0.11 1.018-0.221 2.035-0.335 3.083-0.217 2.103-0.428 4.207-0.633 6.312-0.908 8.204-3.197 15.214-6.389 22.789-1.475 3.903-2.061 7.998-2.807 12.09-1.038 5.49-2.049 10.751-4.187 15.937-2.28 5.611-2.897 11.356-3.723 17.327-0.899 6.061-2.624 11.134-5.027 16.728-1.46 4.159-2.056 8.211-2.688 12.57-1.298 8.706-3.119 15.432-9.5 21.813-2.504 0.35-2.504 0.35-5.525 0.312-1.131-7e-3 -2.263-0.014-3.428-0.022-1.222-0.025-2.444-0.05-3.703-0.075-1.254-0.017-2.507-0.034-3.799-0.052-2.653-0.04-5.306-0.089-7.959-0.144-4.069-0.081-8.137-0.125-12.207-0.166-2.574-0.044-5.148-0.09-7.722-0.138-1.222-0.011-2.444-0.021-3.703-0.032-1.131-0.03-2.263-0.059-3.428-0.09-0.997-0.017-1.994-0.035-3.021-0.054-2.505-0.539-2.505-0.539-5.505-4.539-3.539-7.307-5.096-14.726-6.429-22.691-0.743-4.174-1.678-7.52-3.606-11.313-2.251-4.578-2.868-8.812-3.402-13.809-0.858-6.783-2.18-12.369-5.375-18.425-2.039-4.743-2.54-9.808-3.379-14.875-0.735-3.533-1.708-6.273-3.246-9.512-3.007-6.563-3.943-13.318-5.113-20.385-0.959-5.662-2.238-10.704-4.45-16.017-1.713-5.095-2.54-10.426-3.429-15.72-1.025-5.715-2.979-10.101-5.571-15.253-0.76-3.125-1.425-6.274-2-9.438-0.95-4.975-1.932-9.415-4.062-14.062-2.641-6.134-3.22-12.301-4.031-18.879-0.945-4.815-2.589-8.324-4.907-12.621-1.931-6.663-2.53-13.098-2-20 1-1 1-1 3.979-1.116z" fill="#FAFAFA"/>
<path transform="translate(909.06 435.56)" d="m0 0c1.241-7e-3 2.481-0.014 3.76-0.021 6.435 0.044 11.405 0.317 17.178 3.459 0.659 0.247 0.659 0.247 4 1.5 6.059 2.272 11.031 4.315 16 8.5 0.77 0.44 1.541 0.881 2.335 1.335 8.101 5.06 13.416 12.296 17.665 20.665l3 3c1.121 2.401 2.154 4.845 3.124 7.312 0.519 1.296 1.037 2.591 1.571 3.926 2.076 5.985 2.429 11.417 2.425 17.734 0 0.808 0 0.808 4e-3 4.895-4e-3 1.782-7e-3 3.565-0.011 5.347v5.648c1e-3 5.105-5e-3 10.209-0.012 15.314-6e-3 5.337-7e-3 10.675-8e-3 16.012-3e-3 10.104-0.011 20.208-0.021 30.312-0.012 11.504-0.017 23.008-0.022 34.512-0.011 23.663-0.028 47.325-0.05 70.988-4.795 0.72-9.338 1.116-14.189 1.085-1.395-7e-3 -2.789-0.015-4.226-0.022-1.489-0.015-2.977-0.029-4.511-0.044-0.77-7e-3 -0.77-7e-3 -4.664-0.043-3.245-0.033-6.491-0.069-9.736-0.109-3.334-0.037-6.667-0.067-10.001-0.084-4.804-0.027-9.608-0.08-14.412-0.139-0.749-2e-3 -0.749-2e-3 -4.542-0.013-1.379-0.023-2.757-0.046-4.178-0.07-1.218-0.012-2.436-0.024-3.691-0.036-0.47-0.087-0.47-0.087-2.85-0.525-1.969-3.937-2.25-5.325-2.243-9.535-3e-3 -1.129-6e-3 -2.258-0.01-3.421 8e-3 -1.238 0.015-2.476 0.022-3.752v-3.975c4e-3 -4.377 0.023-8.753 0.043-13.13 7e-3 -3.068 0.013-6.136 0.02-9.204 0.081-29.002 0.457-58.001 0.882-86.999 0.085-5.973 0.161-11.945 0.234-17.918 0.033-2.639 0.071-5.278 0.112-7.917 0.053-3.444 0.091-6.888 0.123-10.333 9e-3 -0.485 9e-3 -0.485 0.056-2.938 0.052-8.896-2.163-16.536-5.239-24.878-0.331-1.32-0.66-2.64-1-4-2.274-1.059-2.274-1.059-5-2-1.568-0.982-3.11-2.003-4.626-3.063-5.555-3.877-10.603-4.942-17.374-3.937-2.949 1.269-5.599 2.771-8.344 4.433-2.656 1.567-2.656 1.567-7.219 3.379-9.319 4.594-16.018 11.22-19.437 21.188-0.717 5.444-0.691 10.837-0.66 16.322-0.01 1.616-0.021 3.232-0.032 4.897-0.028 4.407-0.025 8.813-0.017 13.22 3e-3 4.626-0.022 9.251-0.044 13.877-0.038 8.758-0.05 17.516-0.053 26.274-5e-3 9.938-0.038 19.876-0.073 29.814-0.065 18.414-0.102 36.827-0.117 55.241-4e-3 1.284-7e-3 2.569-0.011 3.893 4e-3 2.13 0.025 4.26 0.076 6.389 0.045 2.024 0 4.049-0.069 6.073-2.905 2.904-5.031 2.253-9.096 2.258-1.499 7e-3 -2.997 0.013-4.54 0.019-1.627-4e-3 -3.255-8e-3 -4.931-0.012-1.676 1e-3 -3.352 3e-3 -5.029 6e-3 -3.514 3e-3 -7.029-1e-3 -10.544-0.011-4.515-0.011-9.03-5e-3 -13.546 7e-3 -3.461 8e-3 -6.922 5e-3 -10.384 0-2.478-2e-3 -4.956 4e-3 -7.434 0.01-1.495-6e-3 -2.99-0.012-4.53-0.019-1.324-1e-3 -2.648-3e-3 -4.012-5e-3 -0.975-0.083-1.95-0.167-2.954-0.253-1.734-3.467-1.137-7.485-1.127-11.301-1e-3 -0.488-1e-3 -0.488-5e-3 -2.958-4e-3 -3.292-1e-3 -6.584 2e-3 -9.876-1e-3 -2.352-3e-3 -4.704-5e-3 -7.055-5e-3 -6.403-3e-3 -12.806 0-19.208 3e-3 -6.687 0-13.374-1e-3 -20.061-2e-3 -11.232 0-22.463 5e-3 -33.694 6e-3 -13.003 4e-3 -26.005-2e-3 -39.007-4e-3 -11.145-5e-3 -22.29-2e-3 -33.435 1e-3 -6.664 1e-3 -13.329-2e-3 -19.993-3e-3 -6.265-1e-3 -12.529 5e-3 -18.793 1e-3 -2.305 1e-3 -4.61-1e-3 -6.915-3e-3 -3.135 1e-3 -6.269 6e-3 -9.404-3e-3 -0.923-5e-3 -1.846-7e-3 -2.796 0.019-6.276 0.019-6.276 1.134-8.504 2.985-0.254 2.985-0.254 7.042-0.259 0.756-3e-3 0.756-3e-3 4.581-0.019 0.824 2e-3 0.824 2e-3 4.994 0.012 1.695-1e-3 3.39-3e-3 5.086-6e-3 3.559-3e-3 7.118 1e-3 10.678 0.011 4.565 0.011 9.131 5e-3 13.696-7e-3 3.504-8e-3 7.007-5e-3 10.511 0 2.503 2e-3 5.007-4e-3 7.51-0.01 1.518 6e-3 3.036 0.012 4.6 0.019 1.341 1e-3 2.681 3e-3 4.062 5e-3 3.24 0.254 3.24 0.254 6.24 2.254 0.257 3.773 0.257 3.773 0.124 8.374-0.211 8.279-0.211 8.279 0.876 12.626 9.327 0.49 9.327 0.49 12.312-1.688 0.557-0.763 1.114-1.526 1.688-2.312 9.197-9.724 20.628-18.753 33.98-21.2 3.02-0.8 3.02-0.8 6.504-2.855 6.265-2.699 11.834-2.492 18.578-2.383z" fill="#FAFAFA"/>
<path transform="translate(634.61 441.44)" d="m0 0c3.229 0.763 6.468 1.176 9.76 1.563 5.52 0.76 9.03 2.784 13.625 6 1.548 0.721 3.111 1.408 4.688 2.063 3.794 1.704 6.184 3.303 9.312 5.937 1.155 0.64 2.31 1.279 3.5 1.938 4.632 2.729 7.62 5.985 11 10.125 2.5 2.937 2.5 2.937 4.907 4.824 9.254 7.54 15.31 18.66 19.558 29.598 0.342 0.871 0.683 1.743 1.035 2.64 0.31 0.807 0.619 1.614 0.938 2.446 1.062 2.429 1.062 2.429 2.597 4.828 1.713 3.041 2.27 5.674 2.903 9.101 0.927 4.734 2.076 9.145 3.687 13.688 2.693 8.447 2.717 17.01 2.875 25.812 0.029 1.402 0.057 2.803 0.086 4.247 0.038 3.922-2e-3 7.832-0.086 11.753-8e-3 0.622-8e-3 0.622-0.051 3.766-0.303 8.282-1.953 15.392-4.621 23.227-1.712 5.167-2.981 10.409-4.238 15.703-1.192 3.615-2.932 6.188-5.09 9.304-0.474 1.444-0.948 2.888-1.437 4.375-1.626 4.811-3.738 8.423-6.563 12.625-0.66 1.073-1.32 2.145-2 3.25-2 2.75-2 2.75-4.359 4.59-2.778 2.273-4.716 4.626-6.891 7.473-4.129 5.129-8.345 8.967-13.75 12.687-0.986 0.693-1.972 1.385-2.988 2.098-5.216 3.579-10.14 6.507-16.012 8.902-1.111 0.495-2.222 0.99-3.367 1.5-23.514 10.056-51.523 10.585-76.633 7.188-0.876-0.118-1.752-0.235-2.655-0.356-7.528-1.136-14.384-3.44-21.407-6.332-3.07-1.258-6.111-2.408-9.25-3.5-3.635-1.478-5.76-2.938-8.688-5.5-0.608-0.443-0.608-0.443-3.687-2.687-14.574-10.951-29.621-24.741-35.313-42.313-0.825-1.113-1.65-2.227-2.5-3.375-2.755-3.995-3.642-7.234-4.75-11.89-0.75-2.735-0.75-2.735-2.812-6.86-5.735-12.472-4.254-28.89-4.198-42.359 0.01-3.077 0-6.155-0.013-9.232-0.024-29.902-0.024-29.902 6.051-41.698 1.294-2.737 2.017-5.332 2.722-8.273 1.29-5.129 3.539-8.906 6.5-13.313 0.681-1.381 1.362-2.763 2.063-4.187 1.753-3.45 3.407-5.921 5.937-8.813 1.026-1.191 2.052-2.382 3.11-3.609 3.965-4.526 8.102-8.858 12.328-13.141 0.712-0.741 1.424-1.482 2.158-2.246 4.479-4.532 8.571-7.28 14.404-10.004 1.348-1.318 2.684-2.649 4-4 2.516-1.125 2.516-1.125 5.25-2 3.426-1.108 6.346-2.318 9.539-4.027 4.557-2.134 8.361-2.875 13.336-3.535 5.651-0.778 11.16-1.698 16.688-3.125 16.776-3.644 32.475-1.086 48.802 3.124zm-57.783 27.677c-2.807 4.423-4.36 8.888-5.832 13.886-0.725 2.127-1.454 4.252-2.187 6.375-4.789 14.157-3.887 29.464-3.864 44.239 2e-3 1.516 3e-3 3.033 5e-3 4.595 0.03 16.879 0.169 33.757 0.364 50.635 0.04 3.524 0.074 7.048 0.104 10.572 0.037 4.359 0.083 8.718 0.136 13.076 0.027 2.41 0.045 4.819 0.063 7.228 0.129 9.538 0.916 18.142 3.817 27.273 0.255 0.807 0.51 1.614 0.773 2.445 0.261 0.804 0.521 1.609 0.789 2.437 0.13 0.414 0.13 0.414 0.789 2.508 2.095 6.56 4.166 10.916 9.211 15.617 0.887 0.846 1.774 1.692 2.688 2.563 6.481 4.769 13.194 7.422 21.312 6.437 14.188-3.678 20.749-10.095 28.106-22.57 2.408-5.631 3.255-11.016 4.082-17.055 0.167-1.166 0.334-2.332 0.507-3.534 1.59-11.366 2.351-22.439 2.337-33.919-2e-3 -1.027-3e-3 -2.054-4e-3 -3.112-6e-3 -3.603-0.016-7.206-0.028-10.81-4e-3 -1.379-9e-3 -2.759-0.013-4.18-0.036-9.485-0.104-18.969-0.194-28.453-0.028-3.317-0.05-6.634-0.064-9.951-0.075-16.815-0.349-33.489-2.463-50.189-0.146-1.199-0.291-2.399-0.442-3.634-1.067-7.453-3.122-13.033-6.824-19.593-0.495-0.907-0.99-1.815-1.5-2.75-4.612-6.917-9.79-11.96-17.5-15.25-14.806-2.805-25.392 3.524-34.168 15.114z" fill="#FAFAFA"/>
<path transform="translate(1128 435.42)" d="m0 0c2.781 0.014 5.558-0.02 8.339-0.058 11.105-0.047 20.296 1.638 30.711 5.634 3.919 0.861 7.796 1.512 11.758 2.129 3.64 0.978 5.402 2.451 8.242 4.871 2.5 1.09 2.5 1.09 5 1.938 4.404 1.663 6.776 3.584 10 7.062 1.196 0.681 2.392 1.362 3.625 2.063 7.719 4.602 13.886 12.261 18.375 19.937 0.763 0.702 1.526 1.403 2.312 2.125 3.244 3.47 5.177 7.156 7.356 11.352 1.332 2.523 1.332 2.523 3.332 5.523 0.769 2.654 1.393 5.326 2.023 8.016 0.977 2.984 0.977 2.984 2.934 6.19 2.129 3.954 2.957 7.085 3.711 11.494 0.253 1.457 0.506 2.914 0.767 4.416 0.248 1.508 0.497 3.017 0.752 4.572 0.26 1.489 0.52 2.979 0.787 4.514 1.965 11.53 3.171 22.794 3.151 34.486 2e-3 1.551 5e-3 3.101 8e-3 4.699-0.133 3.613-0.133 3.613-1.133 4.613-1.87 0.105-3.744 0.138-5.616 0.145-1.22 7e-3 -2.44 0.014-3.696 0.021-1.351 3e-3 -2.701 5e-3 -4.093 8e-3 -1.413 7e-3 -2.826 0.013-4.282 0.02-3.081 0.014-6.162 0.026-9.244 0.036-4.874 0.017-9.749 0.04-14.624 0.065-13.864 0.071-27.729 0.131-41.594 0.182-8.469 0.032-16.938 0.073-25.407 0.12-3.232 0.016-6.464 0.029-9.696 0.037-4.522 0.012-9.045 0.037-13.567 0.063-0.669 1e-3 -0.669 1e-3 -4.056 2e-3 -11.952 0.094-11.952 0.094-17.125 2.301-7.95 11.925-4.049 38.686-1.879 52.493 2.67 10.658 6.468 20.355 15.879 26.507 0.379 0.264 0.379 0.264 2.297 1.598 1.528 1.044 3.074 2.063 4.636 3.055 2.067 1.347 2.067 1.347 4.754 3.597 12.423 6.563 34.744 5.533 48.383 2.766 12.104-4.196 24.374-11.777 30.93-23.016 0.66-1.113 1.32-2.227 2-3.375 5.591-10.134 5.591-10.134 7.062-15.5 0.938-3.125 0.938-3.125 3.938-5.125 2.911-0.135 2.911-0.135 6.418 0.024 1.253 0.051 2.507 0.103 3.799 0.156 1.31 0.065 2.62 0.129 3.97 0.195 1.322 0.057 2.644 0.114 4.006 0.172 3.27 0.142 6.538 0.293 9.807 0.453 0.221 5.523-0.924 7.431-4 12-0.547 1.673-1.044 3.363-1.5 5.063-1.167 4.188-2.518 6.7-5.5 9.937-0.928 1.259-1.856 2.517-2.813 3.813-7.208 9.587-15.043 16.732-25.187 23.187-0.752 0.49-1.503 0.98-2.278 1.485-2.969 1.653-5.771 2.577-9.035 3.515-3.562 1.032-6.95 2.109-10.383 3.524-5.276 1.81-10.343 2.484-15.867 3.101-1.065 0.125-2.131 0.25-3.229 0.379-8.059 0.92-16.099 1.705-24.208 1.996-0.66 0.027-0.66 0.027-3.996 0.161-9.291 0.193-18.339-0.452-27.567-1.473-0.547-0.059-0.547-0.059-3.315-0.357-8.128-0.973-15.322-2.853-22.747-6.393-4.375-1.938-4.375-1.938-8-2.813-3.51-1.169-5.535-2.731-8.227-5.222-2.764-2.448-5.697-4.622-8.648-6.84-7.046-5.396-12.655-10.561-17.5-18.063-0.99-1.155-1.98-2.31-3-3.5-2.625-3.061-4.84-6.105-7-9.5l-2-3c-0.76-2.426-1.39-4.87-2.024-7.332-0.976-2.668-0.976-2.668-2.953-5.453-2.464-3.914-3.147-7.308-4.023-11.84-1.096-5.364-2.257-10.44-4.188-15.562-5.98-17.168-5.644-48.033 0.301-65.113 1.599-4.866 2.651-9.885 3.824-14.868 1.465-5.283 3.617-9.968 6.125-14.832 1.938-4 1.938-4 2.75-7.375 2.765-8.438 9.317-15.137 15.188-21.625 1.147-1.332 2.293-2.665 3.437-4 6.013-6.831 11.702-12.361 19.563-17 0.825-0.701 1.65-1.402 2.5-2.125 3.243-2.432 6.714-3.47 10.5-4.875l3-3c2.807-0.75 5.648-1.38 8.5-1.937 5.125-1.007 9.529-2.054 14.297-4.156 7.767-2.916 15.973-2.54 24.153-2.483zm-21.95 34.576c-0.336 0.311-0.336 0.311-2.035 1.884-2.229 2.4-2.927 4.169-3.852 7.292-0.298 0.993-0.597 1.987-0.904 3.01-0.296 1.032-0.592 2.064-0.897 3.127-0.307 1.02-0.615 2.041-0.931 3.092-3.29 11.135-3.597 21.754-3.621 33.311-0.01 2.842-0.041 5.683-0.073 8.525-6e-3 1.817-0.011 3.634-0.015 5.451-0.01 1.642-0.019 3.283-0.029 4.975 0.354 4.303 1.046 6.731 3.357 10.333 6.242 4.893 13.971 4.17 21.551 4.204 0.506 2e-3 0.506 2e-3 3.07 0.017 2.139 9e-3 4.279 0.016 6.418 0.02 3.252 9e-3 6.504 0.04 9.756 0.072 2.085 6e-3 4.17 0.012 6.256 0.016 0.962 0.012 1.925 0.024 2.917 0.037 6.292-0.021 11.196-0.957 17.032-3.366 7.345-7.528 5.328-22.449 5.219-32.402-0.21-7.715-1.612-15.065-3.219-22.598-0.333-1.772-0.661-3.546-0.985-5.32-0.337-1.81-0.676-3.62-1.015-5.43-0.154-0.846-0.308-1.692-0.466-2.565-1.097-5.628-2.468-9.618-6.534-13.685-2-2-2-2-3.192-4.386-4.195-6.063-13.027-8.796-20.007-10.305-11.473-0.72-21.215 5.741-27.801 14.691z" fill="#FAFAFA"/>
<path transform="translate(1923.5 435.38)" d="m0 0c0.888 1e-3 1.776 2e-3 2.691 3e-3 11.875 0.04 22.69 0.791 33.864 5.114 3.217 1.23 5.946 1.967 9.297 2.586 4.818 0.956 6.053 1.867 9.648 4.922 1.629 0.686 3.278 1.328 4.938 1.937 4.49 1.712 7.519 3.751 11.062 7.063 1.196 1.011 2.392 2.021 3.625 3.063 3.708 3.269 7.273 6.673 10.813 10.124 0.514 0.503 0.514 0.503 3.121 3.043 2.441 2.77 2.441 2.77 3.441 6.77l4 2c5.768 8.033 10.09 16.576 13 26 0.486 1.335 0.972 2.671 1.473 4.047 1.892 5.665 2.725 11.433 3.589 17.328 0.324 2.133 0.648 4.266 0.973 6.398 0.157 1.048 0.314 2.096 0.476 3.176 0.455 2.837 1 5.641 1.567 8.457 1.212 6.542 1.412 13.081 1.61 19.719 0.023 0.615 0.023 0.615 0.142 3.727 0.225 6.664 0.225 6.664 0.17 9.148-1.756 1.756-4.231 1.136-6.616 1.145-1.22 7e-3 -2.439 0.014-3.696 0.021-1.351 2e-3 -2.701 5e-3 -4.093 8e-3 -1.413 6e-3 -2.826 0.013-4.281 0.02-3.082 0.014-6.163 0.026-9.244 0.036-4.875 0.016-9.75 0.039-14.625 0.065-13.864 0.071-27.729 0.131-41.594 0.182-8.469 0.031-16.938 0.073-25.407 0.12-3.232 0.016-6.464 0.028-9.696 0.037-4.522 0.012-9.044 0.036-13.567 0.063-0.669 0-0.669 0-4.056 2e-3 -12.109 0.095-12.109 0.095-17.125 2.301-4.385 8.092-3.406 17.4-3.312 26.375-2e-3 0.768-2e-3 0.768-0.01 4.656 0.058 12.309 1.045 22.6 6.447 33.719 0.403 0.831 0.805 1.661 1.22 2.517 3.09 6.114 5.881 10.141 11.655 13.733 0.478 0.347 0.478 0.347 2.898 2.102 15.199 10.414 36.887 9.927 54.664 6.961 12.013-3.055 25.505-12.639 32.411-23.032 4.443-7.508 6.783-13.436 8.027-22.031 3.556-2.371 5.131-2.257 9.348-2.266 1.244-2e-3 2.489-5e-3 3.771-7e-3 1.301 7e-3 2.603 0.015 3.943 0.023 1.306-8e-3 2.611-0.015 3.956-0.023 0.621 1e-3 0.621 1e-3 3.767 7e-3 0.572 2e-3 0.572 2e-3 3.465 7e-3 2.75 0.259 2.75 0.259 4.75 2.259-0.362 3.761-1.692 6.684-3.438 10-1.291 2.467-2.507 4.855-3.5 7.457-5.339 12.78-15.893 23.667-27.062 31.543-0.789 0.558-1.578 1.116-2.391 1.691-6.069 4.17-11.849 6.442-18.914 8.43-2.695 0.879-2.695 0.879-5.824 2.375-4.944 1.921-9.688 2.522-14.933 3.129-1.026 0.125-2.052 0.25-3.109 0.378-21.133 2.512-41.7 2.346-62.829-3e-3 -1.19-0.121-2.38-0.242-3.605-0.367-6.773-0.877-12.3-3.165-18.411-6.184-2.984-1.449-2.984-1.449-7.484-3.074-3.562-1.399-5.583-2.945-8.5-5.375-0.816-0.639-1.632-1.279-2.473-1.937-12.763-10.165-24.47-21.194-31.527-36.063-0.495-0.66-0.495-0.66-3-4-0.883-1.957-1.714-3.939-2.5-5.937-1.176-2.982-2.241-5.678-4.031-8.34-2.107-3.906-2.704-8.025-3.469-12.348-1.184-6.337-2.427-12.542-4.387-18.695-2.577-11.26-1.801-23.213-1.613-34.68 0.017-1.204 0.034-2.408 0.051-3.648 0.328-7.3 2.044-14.105 4.01-21.11 1.477-5.285 2.562-10.515 3.439-15.929 1.123-6.368 2.753-10.103 6.5-15.313l2-4.5c7.372-16.586 22.399-34.595 39-42.5 0.763-0.625 1.526-1.25 2.312-1.895 8.042-6.3 18.007-9.661 27.981-11.304 3.707-0.801 3.707-0.801 6.118-1.75 9.545-3.734 18.987-3.753 29.089-3.676zm-26.891 34.621c-3.214 5.999-4.854 12.463-6.609 19.004-0.578 1.752-1.161 3.502-1.75 5.25-2.869 10.903-2.46 22.356-2.5 33.563-0.021 1.461-0.041 2.922-0.062 4.427-6e-3 1.412-0.011 2.825-0.016 4.28-9e-3 1.269-0.019 2.539-0.028 3.846 0.4 4.082 1.482 7 3.356 10.634 6.174 5.006 14.205 4.171 21.77 4.203 1.035 6e-3 2.071 0.012 3.138 0.017 2.186 0.01 4.372 0.016 6.558 0.02 3.325 0.01 6.649 0.041 9.973 0.073 2.131 6e-3 4.262 0.011 6.393 0.015 0.985 0.012 1.969 0.025 2.984 0.038 7.679-0.025 14.517-0.699 20.184-6.366 2.121-6.363 1.309-13.874 1.35-20.554 0.016-1.936 0.043-3.871 0.082-5.806 0.274-13.799-1.32-25.439-5.432-38.64-0.135-0.529-0.135-0.529-0.817-3.208-1.369-5.343-3.062-8.173-7.183-11.792-0.568-0.956-1.137-1.913-1.723-2.898-4.642-6.323-12.94-9.158-20.437-10.789-11.45-0.74-22.657 5.482-29.231 14.683z" fill="#FAFAFA"/>
<path transform="translate(1255,445)" d="m0 0c10.344-0.116 20.688-0.205 31.033-0.259 4.804-0.026 9.607-0.062 14.41-0.118 4.636-0.055 9.272-0.084 13.908-0.097 1.768-0.01 3.537-0.028 5.305-0.055 2.477-0.036 4.955-0.038 7.433-0.039 1.41-0.011 2.82-0.022 4.273-0.033 4.47 0.738 5.893 2.067 8.638 5.601 1.188 3.418 1.188 3.418 2 7.188 1.108 4.644 2.219 8.65 4.562 12.812 2.869 5.231 3.598 10.571 4.626 16.398 0.943 4.181 2.553 7.368 4.624 11.079 1.4 2.973 2.028 5.806 2.688 9.023 1.077 5.233 2.764 9.297 5.309 13.961 1.747 3.724 2.522 7.561 3.32 11.582 0.871 2.957 0.871 2.957 2.891 6.312 2.228 4.101 2.693 7.146 3.105 11.77 0.863 9.317 0.863 9.317 2.875 12.875 3.091 0.718 5.837 1 9 1 0.969-2.125 0.969-2.125 2-5 1.254-3.023 2.518-6.043 3.781-9.062 0.402-0.97 0.805-1.939 1.219-2.938 0.354-0.831 0.709-1.663 1.074-2.52 1.008-2.699 1.626-5.353 2.238-8.168 1.231-5.095 3.029-9.338 5.497-13.941 1.827-3.637 2.922-7.51 4.191-11.371 0.639-1.238 1.279-2.475 1.938-3.75 1.773-3.654 2.932-6.937 4.062-10.812 1.092-3.738 2.074-6.564 4.062-9.938 1.906-3.442 2.585-5.995 3.376-9.812 1.111-5.307 2.778-9.527 5.367-14.262 1.283-2.604 2.059-5.128 2.82-7.926 1.375-4.5 1.375-4.5 4.375-6.5 3.426-0.143 6.766-0.187 10.188-0.125 0.94 9e-3 1.88 0.018 2.849 0.027 2.321 0.024 4.642 0.06 6.963 0.098 1.618 4.853 0.112 7.502-2 12-0.814 2.43-1.606 4.868-2.375 7.312-1.47 4.507-3.007 8.7-5.25 12.876-2.418 4.519-3.45 8.973-4.563 13.953-0.986 3.471-2.758 6.263-4.628 9.328-1.513 3.234-2.018 6.328-2.622 9.843-1.116 6.411-3.119 11.303-6.218 16.985-1.862 3.746-2.471 7.627-3.344 11.703-0.753 1.541-1.548 3.061-2.375 4.562-2.989 5.619-4.224 11.448-5.66 17.614-1.004 3.977-2.342 7.57-3.965 11.324-1.205 3.014-2.094 6.071-3 9.188-1.098 3.694-2.119 6.518-4.062 9.874-1.849 3.279-2.563 5.683-3.376 9.313-1.089 4.817-2.778 8.344-5.374 12.578-1.544 3.311-2.063 6.515-2.688 10.109-1.093 6.247-3.007 10.111-6.5 15.438-0.869 3.007-1.538 5.997-2.129 9.07-0.871 2.93-0.871 2.93-2.805 5.707-2.571 4.01-3.527 8.077-4.566 12.661-1.397 6.132-3.291 11.124-6.5 16.562-0.743 2.289-1.412 4.604-2 6.938-1.463 5.444-3.477 10.016-6 15.062-0.517 1.949-0.993 3.908-1.438 5.875-1.164 5.059-2.93 9.206-5.378 13.762-1.184 2.363-1.184 2.363-2.622 6.863-2.433 7.009-6.256 12.881-10.75 18.75-2.812 3.75-2.812 3.75-4.156 6.633-1.894 3.565-4.093 5.918-6.968 8.742-0.925 0.92-1.849 1.841-2.801 2.789-2.825 2.531-5.697 4.545-8.887 6.586l-4 3c-17.197 5.777-35.83 6.057-53 0-10.82-6.151-20.011-16.034-24-28-0.289-4.6-0.278-9.205-0.312-13.812-0.03-1.272-0.059-2.544-0.088-3.854-0.077-11.206-0.077-11.206 4.4-16.334 0.776-1.676 1.528-3.363 2.25-5.062 2.555-5.213 5.527-7.288 10.75-9.938 1.237-0.763 2.475-1.526 3.75-2.312 6.879-2.732 12.68-3.04 19.664-0.395 7.728 3.882 14.242 8.122 17.668 16.285 2.97 9.927 3.128 21.323 0.918 31.422-0.25 4.625-0.25 4.625 0 9 3 3 3 3 6.688 3.562 7.863-1.025 12.863-6.643 17.785-12.48 2.3-3.136 3.861-6.578 5.527-10.082 0.646-0.763 1.292-1.526 1.957-2.312 2.338-3.077 3.347-5.835 4.543-9.5 1.354-4.039 2.628-7.413 4.75-11.126 3.949-9.166 3.471-19.605 0.75-29.062-1.316-2.675-2.651-5.341-4-8-0.678-2.115-1.321-4.241-1.938-6.375-1.219-4.188-2.589-7.867-4.687-11.687-1.94-3.634-2.784-6.668-3.313-10.75-0.793-5.963-2.963-10.592-5.613-15.95-1.834-4.099-2.769-8.183-3.742-12.55-0.707-2.688-0.707-2.688-2.645-6.5-2.482-5.041-3.665-10.048-4.937-15.504-1.125-3.684-1.125-3.684-3.16-7.157-2.178-3.909-2.779-6.991-3.403-11.402-0.792-4.738-1.443-8.576-4.062-12.625-2.566-3.982-3.193-7.649-3.938-12.312-1.073-6.589-2.954-11.456-6.152-17.262-1.979-4.106-2.737-8.257-3.633-12.703-1.043-4.325-2.793-8.193-4.589-12.25-1.206-3.018-1.976-5.931-2.688-9.098-0.907-3.972-2.057-7.234-4-10.813-2.576-4.791-3.594-9.468-4.688-14.769-0.818-3.316-1.94-6.231-3.312-9.355-3.55-8.084-5.283-16.226-6.5-24.938z" fill="#FAFAFA"/>
<path transform="translate(2085.5 354.85)" d="m0 0c1.352-6e-3 2.703-0.013 4.095-0.019 1.463-1e-3 2.926-3e-3 4.432-4e-3 1.498-3e-3 2.996-6e-3 4.54-0.01 3.17-5e-3 6.341-7e-3 9.512-7e-3 4.866-2e-3 9.731-0.02 14.597-0.039 3.075-3e-3 6.151-5e-3 9.226-6e-3 0.732-4e-3 0.732-4e-3 4.432-0.022 0.676 2e-3 0.676 2e-3 4.096 9e-3 0.596 0 0.596 0 3.613-4e-3 2.922 0.247 2.922 0.247 5.922 2.247 0.375 2.35 0.375 2.35 0.375 5.363 7e-3 1.146 0.014 2.291 0.021 3.471-3e-3 0.634-3e-3 0.634-0.022 3.845 4e-3 1.34 8e-3 2.68 0.012 4.06 0.01 4.522-2e-3 9.044-0.014 13.566 3e-3 3.228 6e-3 6.457 0.011 9.686 0.01 7.878 3e-3 15.757-9e-3 23.635-0.014 9.167-0.012 18.333-0.01 27.5 3e-3 16.351-8e-3 32.701-0.028 49.052-0.019 15.882-0.026 31.763-0.02 47.645 6e-3 17.276 5e-3 34.552-6e-3 51.828-1e-3 1.84-2e-3 3.681-4e-3 5.522 0 0.905-1e-3 1.811-1e-3 2.744-4e-3 6.396-4e-3 12.793-2e-3 19.189 2e-3 8.601-6e-3 17.203-0.022 25.805-4e-3 3.166-5e-3 6.332-2e-3 9.499 3e-3 4.304-6e-3 8.607-0.018 12.911 1e-3 0.635 1e-3 0.635 0.011 3.846-3e-3 0.572-3e-3 0.572-0.018 3.47-1e-3 0.995-1e-3 1.989-2e-3 3.014-0.252 2.349-0.252 2.349-2.252 4.349-2.885 0.254-2.885 0.254-6.621 0.259-1.395 6e-3 -2.79 0.013-4.227 0.019-1.515-4e-3 -3.029-8e-3 -4.59-0.012-0.773 1e-3 -0.773 1e-3 -4.685 6e-3 -4.116 1e-3 -8.231-7e-3 -12.347-0.018-2.528-4e-3 -5.055 0-7.582 7e-3 -4.837 0.012-9.674 0.011-14.511 5e-3 -1.514 4e-3 -3.029 8e-3 -4.589 0.012-0.698-3e-3 -0.698-3e-3 -4.227-0.019-0.617-1e-3 -0.617-1e-3 -3.737-5e-3 -2.884-0.254-2.884-0.254-4.884-2.254-0.249-2.358-0.249-2.358-0.246-5.384-4e-3 -1.15-8e-3 -2.3-0.012-3.485 6e-3 -1.274 0.011-2.548 0.017-3.861-1e-3 -1.346-3e-3 -2.691-5e-3 -4.077-3e-3 -4.54 8e-3 -9.081 0.019-13.621 0-3.242 0-6.483-1e-3 -9.725-1e-3 -6.996 5e-3 -13.992 0.016-20.988 0.017-10.115 0.022-20.23 0.024-30.345 5e-3 -16.409 0.018-32.819 0.037-49.229 0.018-15.943 0.032-31.887 0.041-47.831 1e-3 -0.982 1e-3 -1.964 2e-3 -2.976 2e-3 -4.927 5e-3 -9.854 7e-3 -14.782 0.021-40.898 0.056-81.797 0.101-122.7 3.384-1.128 5.967-1.134 9.535-1.145z" fill="#FAFAFA"/>
<path transform="translate(2196,355)" d="m0 0 38 1v330l-38 1c-2.834-4.724-3.375-5.628-3.378-10.667-3e-3 -0.568-3e-3 -0.568-0.023-3.445 6e-3 -1.244 0.013-2.488 0.02-3.769-5e-3 -1.326-9e-3 -2.651-0.014-4.016-0.012-4.455-3e-3 -8.91 7e-3 -13.365-4e-3 -3.188-0.01-6.376-0.016-9.564-0.012-7.768-0.011-15.536-2e-3 -23.304 7e-3 -6.312 8e-3 -12.623 5e-3 -18.935-1e-3 -0.897-1e-3 -1.795-2e-3 -2.72-1e-3 -1.823-2e-3 -3.647-3e-3 -5.47-8e-3 -17.104 2e-3 -34.207 0.018-51.31 0.013-14.686 0.011-29.371-3e-3 -44.056-0.016-17.044-0.022-34.089-0.013-51.133 1e-3 -1.817 2e-3 -3.633 3e-3 -5.449 0-0.894 0-1.787 1e-3 -2.708 3e-3 -6.307-2e-3 -12.614-9e-3 -18.921-9e-3 -8.482-3e-3 -16.964 0.015-25.446 4e-3 -3.121 3e-3 -6.241-4e-3 -9.362-8e-3 -4.244 2e-3 -8.488 0.017-12.733-7e-3 -1.248-0.013-2.497-0.02-3.783 8e-3 -1.131 0.015-2.263 0.023-3.429 1e-3 -0.98 1e-3 -1.961 2e-3 -2.971 0.376-2.444 0.376-2.444 3.376-5.444z" fill="#FAFAFA"/>
<path transform="translate(618,468)" d="m0 0c3.212 4.283 4.32 7.959 6 13 0.99 1.32 1.98 2.64 3 4 1.091 4.366 1.353 8.542 1.554 13.012 0.042 0.92 0.084 1.841 0.128 2.789 0.51 12.331 0.462 24.668 0.451 37.008 0 2.626 1e-3 5.253 3e-3 7.88 1e-3 5.465-1e-3 10.931-6e-3 16.396-5e-3 6.972-2e-3 13.943 4e-3 20.915 4e-3 5.409 2e-3 10.818 0 16.228-1e-3 2.57 0 5.14 2e-3 7.71 0.032 43.861 0.032 43.861-13.261 59.812-5.685 3.301-10.471 2.717-16.875 2.25-1.567 0.062-3.135 0.124-4.75 0.188-6.598-1.844-9.406-6.765-13.25-12.188l-1-1c-3.254-21.019-3.524-42.407-3.688-63.625-0.03-2.945-0.061-5.89-0.092-8.836-0.059-5.827-0.11-11.654-0.153-17.481-0.046-6.051-0.121-12.101-0.216-18.152-0.276-18.074-0.189-36.027 1.649-54.031 0.062-0.679 0.062-0.679 0.374-4.115 1.086-8.852 3.687-15.409 10.126-21.76 3.105-1.733 5.437-2.277 9-3 0.406-0.1 0.406-0.1 2.461-0.605 5.888-0.915 13.162 1.244 18.539 3.605z" fill="#FA0019"/>
<path transform="translate(1130.9 466.75)" d="m0 0c0.778-3e-3 0.778-3e-3 4.715-0.016 3.948 0.242 6.784 0.597 10.347 2.266 2.563 3.688 2.563 3.688 5 8 0.454 0.485 0.454 0.485 2.75 2.938 5.99 10.814 3.408 28.379 3.381 40.661-6e-3 2.953 0 5.905 6e-3 8.858 0 1.879-2e-3 3.758-4e-3 5.637 2e-3 0.882 4e-3 1.764 6e-3 2.673-0.023 6.118-0.023 6.118-1.139 7.233-3.515 0.114-7.01 0.164-10.527 0.168-1.059 3e-3 -2.118 7e-3 -3.21 0.01-2.245 5e-3 -4.49 7e-3 -6.736 7e-3 -3.446 2e-3 -6.891 0.021-10.337 0.04-2.176 3e-3 -4.353 5e-3 -6.529 5e-3 -1.037 8e-3 -2.073 0.015-3.141 0.022-7.291-0.023-7.291-0.023-9.52-2.252-0.198-2.706-0.261-5.423-0.265-8.137-3e-3 -0.823-6e-3 -1.647-9e-3 -2.495-5e-3 -2.685 7e-3 -5.37 0.024-8.056 5e-3 -0.908 0.01-1.817 0.015-2.753 0.038-6.187 0.126-12.373 0.235-18.559 0.02-1.309 0.04-2.617 0.061-3.966 0.244-10.913 0.576-19.939 8.553-28.241 5.312-3.991 9.729-4.065 16.324-4.043z" fill="#FA0019"/>
<path transform="translate(1922.4 466.75)" d="m0 0c0.946-0.021 1.892-0.041 2.867-0.062 5.075-0.029 8.767-3e-3 12.758 3.312 2 2.312 2 2.312 4 5 0.866 0.784 1.733 1.567 2.625 2.375 6.494 9.912 4.816 25.689 5.063 37.316 0.063 2.833 0.146 5.664 0.23 8.497 0.044 1.822 0.087 3.645 0.129 5.468 0.04 1.628 0.079 3.255 0.12 4.932-0.158 4.172-0.822 7.479-2.167 11.412-6.799 0.049-13.599 0.086-20.398 0.11-2.314 0.01-4.629 0.024-6.943 0.041-3.321 0.024-6.642 0.035-9.964 0.044-1.039 0.011-2.079 0.021-3.15 0.032-2.516 0-5.032-0.104-7.545-0.227-2.877-2.877-2.259-4.911-2.266-8.938-4e-3 -1.44-8e-3 -2.881-0.013-4.365 0.01-1.55 0.019-3.1 0.029-4.697 8e-3 -1.575 0.016-3.15 0.025-4.773 0.09-9.606 0.273-19.2 0.85-28.789 0.045-1.02 0.09-2.039 0.136-3.088 0.682-9.213 4.807-15.108 10.239-22.35 4.392-1.464 8.792-1.225 13.375-1.25z" fill="#FA0019"/>
</svg>
