<?xml version="1.0" encoding="UTF-8"?>
<svg version="1.1" viewBox="0 0 2448 1112" xmlns="http://www.w3.org/2000/svg">
<path transform="translate(4,235)" d="m0 0c283.59-0.06 283.59-0.06 362-0.075 4.573-1e-3 9.145-2e-3 13.718-3e-3 88.713-0.017 177.43-0.031 317.71-0.049 2.596 0 5.193 0 7.789-1e-3 73.564-9e-3 147.13-0.017 220.69-0.024 2.722-1e-3 5.445-1e-3 8.167-1e-3h2.725c33.813-4e-3 67.626-8e-3 101.44-0.011 3.674-1e-3 7.348-1e-3 11.022-1e-3 86.74-0.01 173.48-0.021 260.22-0.041 0.457 0 0.457 0 2.768-1e-3 30.371-6e-3 60.743-0.014 91.114-0.021 27.442-6e-3 54.883-0.012 82.325-0.018 0.901-1e-3 1.803-1e-3 2.732-1e-3 56.436-0.012 112.87-0.021 169.31-0.026 0.436 0 0.436 0 2.641-1e-3 38.265-3e-3 76.531-6e-3 114.8-8e-3 15.393-1e-3 30.787-2e-3 46.18-2e-3 2.553-1e-3 5.105-1e-3 7.657-1e-3 39.065-2e-3 78.129-7e-3 117.19-0.019 0.422 0 0.422 0 2.555-1e-3 13.564-4e-3 27.127-9e-3 40.691-0.013 55.532-0.018 111.06-0.027 166.6-0.023 7.546 1e-3 15.092 1e-3 22.639 2e-3h4.482c23.488 1e-3 46.975-8e-3 70.462-0.021 23.058-0.013 46.115-0.015 69.173-5e-3 13.543 5e-3 27.085 1e-3 40.627-0.014 8.972-9e-3 17.944-7e-3 26.915 3e-3 5.101 6e-3 10.201 7e-3 15.301-6e-3 4.617-0.011 9.235-8e-3 13.852 6e-3 2.456 3e-3 4.912-8e-3 7.368-0.019 1.44 7e-3 2.88 0.014 4.363 0.021 1.246 0 2.492 0 3.776-1e-3 3.001 0.375 3.001 0.375 6.001 3.375 0.382 3.838 0.382 3.838 0.393 8.81 3e-3 0.458 3e-3 0.458 0.018 2.775 0.017 3.098 0.012 6.196 8e-3 9.294 7e-3 2.232 0.016 4.464 0.026 6.696 0.024 6.156 0.03 12.311 0.032 18.467 5e-3 6.63 0.028 13.26 0.048 19.89 0.038 12.997 0.059 25.993 0.074 38.99 0.013 10.559 0.032 21.118 0.055 31.676 3e-3 1.5 6e-3 3.001 9e-3 4.546 7e-3 3.048 0.014 6.095 0.02 9.142 0.062 28.604 0.105 57.207 0.142 85.811 0.032 24.567 0.08 49.134 0.139 73.701 0.069 28.499 0.128 56.997 0.171 85.495 5e-3 3.036 0.01 6.072 0.014 9.109 3e-3 1.494 5e-3 2.988 7e-3 4.527 0.017 10.552 0.041 21.103 0.068 31.655 0.032 12.85 0.053 25.701 0.061 38.552 4e-3 6.562 0.014 13.124 0.036 19.687 0.02 5.999 0.026 11.998 0.021 17.997 1e-3 2.178 6e-3 4.357 0.018 6.535 0.014 2.945 0.01 5.89 2e-3 8.835 2e-3 1.641 5e-3 3.282 8e-3 4.972-0.37 3.838-0.37 3.838-3.37 6.838-3.002 0.375-3.002 0.375-6.78 0.374-0.72 4e-3 -0.72 4e-3 -4.364 0.021-0.799-3e-3 -0.799-3e-3 -4.842-0.022-1.712 2e-3 -3.424 6e-3 -5.136 0.011-4.747 0.011-9.494 2e-3 -14.241-9e-3 -5.168-0.01-10.335-1e-3 -15.503 5e-3 -9.106 8e-3 -18.212 5e-3 -27.319-5e-3 -13.632-0.016-27.264-0.013-40.897-8e-3 -23.228 9e-3 -46.456 4e-3 -69.685-9e-3 -23.553-0.013-47.106-0.02-70.66-0.019-0.742 0-0.742 0-4.501 1e-3 -7.573 0-15.146 1e-3 -22.719 1e-3 -54.874 4e-3 -109.75-6e-3 -164.62-0.024-13.578-4e-3 -27.155-9e-3 -40.733-0.013-0.844 0-1.687 0-2.557-1e-3 -39.079-0.012-78.157-0.016-117.24-0.018-2.555 0-5.11-1e-3 -7.665-1e-3 -15.406-1e-3 -30.813-1e-3 -46.219-2e-3 -38.303-2e-3 -76.606-5e-3 -114.91-9e-3h-2.643c-56.49-5e-3 -112.98-0.014-169.47-0.027h-2.734c-27.46-6e-3 -54.92-0.013-82.38-0.019-30.389-7e-3 -60.777-0.014-91.165-0.021-0.914 0-1.828 0-2.77-1e-3 -86.771-0.019-173.54-0.031-260.32-0.04-3.675 0-7.35-1e-3 -11.025-1e-3 -33.817-4e-3 -67.633-7e-3 -101.45-0.011h-2.725c-2.723 0-5.445-1e-3 -8.168-1e-3 -73.554-7e-3 -147.11-0.016-220.66-0.025-2.596 0-5.191 0-7.786-1e-3 -84.338-0.01-168.68-0.021-319.94-0.049-4.302-1e-3 -8.605-2e-3 -12.908-2e-3 -119.42-0.023-238.85-0.05-358.27-0.075v-547zm307.58 40.496c-4.876 0.537-9.677 0.793-14.578 1.004-10.085 0.493-18.737 1.355-28.039 5.434-3.92 1.411-7.88 2.17-11.961 3.004-6.173 1.296-11.242 2.818-16.711 5.91-2.582 1.3-5.045 1.968-7.851 2.652-4.571 1.136-8.155 2.833-12.18 5.242-2.424 1.35-4.853 2.338-7.446 3.32-4.018 1.542-7.268 3.473-10.812 5.938-1.341 0.66-2.681 1.32-4.062 2-3.938 2-3.938 2-6.438 4s-2.5 2-6.312 3.875c-4.476 2.271-8.277 5.023-12.188 8.125-8.508 6.709-8.508 6.709-11.75 8.625-2.874 1.756-4.895 3.965-7.25 6.375-3.476 3.15-7.008 6.215-10.688 9.125-5.044 4.09-9.105 8.952-13.312 13.875l-4 4c-7.128 7.967-14.161 16.029-20 25-1.332 2.022-2.665 4.042-4 6.062-0.66 1.002-1.32 2.004-2 3.036-2 2.902-2 2.902-4.105 5.492-1.777 2.26-2.988 4.32-4.207 6.91-3.661 7.558-7.563 15.017-11.938 22.188-1.888 3.573-2.84 6.981-3.902 10.859-0.848 2.453-0.848 2.453-3.348 6.141-2.957 5.1-3.689 9.552-4.531 15.335-0.842 3.457-1.759 5.614-3.43 8.672-3.021 5.763-3.849 11.404-4.664 17.805-0.792 5.89-1.549 11.482-3.367 17.156-4.292 13.575-3.832 28.571-3.769 42.677 0.011 2.862 0 5.724-0.012 8.587-0.012 14.274 1.035 27.556 5.273 41.268 1.175 4.481 1.814 8.98 2.438 13.562 0.934 6.416 2.12 11.192 5.378 16.742 1.53 3.24 2.019 6.355 2.622 9.883 1.115 6.335 3.088 11.172 6.152 16.789 1.403 2.822 2.224 5.408 2.972 8.461 1.376 5.605 3.733 10.306 6.438 15.375 1.27 2.588 2.53 5.18 3.789 7.773 1.211 2.227 1.211 2.227 4.211 6.227 0.952 2.167 1.903 4.335 2.844 6.508 3.302 7.117 7.682 13.372 12.57 19.476 2.022 2.57 3.773 5.296 5.586 8.016 7.128 10.165 7.128 10.165 13 12 4.737 0.408 6.678 0.161 11-2 2.042-3.823 2.623-7.887 3.375-12.125 0.876-4.591 1.85-8.804 3.625-13.125 2.235-5.69 2.999-11.463 3.853-17.495 0.742-5.092 1.782-9.938 3.209-14.88 2.288-8.021 3.167-16.088 3.938-24.375 4.871-0.069 9.497 0.089 14.312 0.812 7.694 1.089 15.403 1.964 23.126 2.813 1.228 0.135 2.456 0.27 3.721 0.409 2.947 0.324 5.894 0.646 8.841 0.966 0.437 7.001-1.157 12.341-3.312 18.875-3.143 10.012-4.657 19.649-5.62 30.075-0.709 7.162-2.044 13.391-4.982 20.023-2.487 6.934-2.288 14.545-2.398 21.839-0.038 1.636-0.075 3.272-0.114 4.958 0.426 4.23 0.426 4.23 2.231 6.785 2.195 1.445 2.195 1.445 5.633 1.757 4.47-1.647 5.37-3.877 7.394-8.05 1.56-3.021 3.713-4.921 6.168-7.262 4.892-5.826 9.453-11.904 14-18 1.122-1.44 2.247-2.877 3.375-4.312 14.878-19.086 14.878-19.086 13.625-30.688-0.595-1.859-1.241-3.703-1.926-5.531-3.015-9.44-3.144-19.209-3.636-29.031-0.778-14.984-2.614-28.167-7.438-42.438-0.777-2.899-1.529-5.802-2.254-8.715-0.746-2.285-0.746-2.285-2.746-4.285-2.938-0.375-2.938-0.375-6 0-3.425 4.567-3.405 6.06-3.512 11.609-0.035 1.476-0.071 2.952-0.107 4.473-0.011 0.77-0.011 0.77-0.069 4.668-0.034 1.556-0.068 3.112-0.103 4.715-0.083 3.845-0.152 7.69-0.209 11.535-3.195-1.028-6.139-2.069-9.148-3.57-5.162-1.916-10.015-2.036-15.477-2.305-8.117-0.527-14.864-1.47-22.332-4.887-4.876-1.984-9.954-2.753-15.121-3.66-2.922-0.578-2.922-0.578-3.922-1.578-0.774-9.294 2.116-17.327 5.562-25.875 1.324-3.797 2.087-7.305 2.813-11.25 1.209-6.429 3.121-12.23 5.437-18.332 1.251-3.731 1.999-7.359 2.688-11.231 1.041-5.736 2.713-10.307 5.312-15.492 1.392-3.305 2.03-6.485 2.688-10.008 1.171-6.092 2.959-9.767 6.5-14.812 0.516-1.237 1.031-2.475 1.562-3.75 1.479-3.343 2.857-4.745 5.438-7.25 0.722-1.258 1.444-2.516 2.188-3.812 3.096-5.016 6.889-8.017 11.812-11.188 1.065-0.696 2.13-1.392 3.227-2.109 10.728-6.189 20.882-7.329 33.062-8.321 4.209-0.348 7.73-1.112 11.711-2.57 5 0 5 0 8.562 3.5 3.894 5.334 5.119 10.943 6.418 17.34 0.796 3.245 1.681 5.88 2.973 8.918 2.322 5.596 3.486 11.243 4.609 17.18 0.394 2.03 0.791 4.06 1.192 6.089 0.099 0.505 0.099 0.505 0.602 3.058 0.593 2.683 1.349 5.237 2.171 7.856 2.195 7.835 2.543 15.985 3.214 24.06 0.452 5.231 0.987 10.454 1.513 15.679 0.217 2.187 0.434 4.375 0.65 6.562 0.33 3.33 0.661 6.661 0.994 9.99 0.329 3.295 0.655 6.59 0.981 9.885 0.105 1.044 0.21 2.088 0.318 3.164 0.684 6.973 1.126 13.923 1.279 20.93 0.653 3.477 1.726 4.679 4.524 6.789 3.71 0.53 5.932 0.744 9.062-1.438 2.307-3.05 4.418-6.199 6.5-9.406 1.438-2.156 1.438-2.156 3.438-4.594 0.66-0.845 1.32-1.691 2-2.562 0.26-0.289 0.26-0.289 1.578-1.75 7.52-9.839 5.231-24.11 3.801-35.738-0.788-5.689-1.735-11.349-2.881-16.978-1.87-9.463-2.446-19.028-3.09-28.641-0.637-7.833-1.958-14.037-5.265-21.161-1.771-4.232-2.109-8.168-2.581-12.732-0.874-7.288-2.628-12.864-6.242-19.246-2.266-4.726-3.053-9.555-2.32-14.754 2.25-2.062 2.25-2.062 6-3 1.835-0.472 3.668-0.952 5.5-1.438 0.954-0.248 1.908-0.497 2.891-0.753 3.384-1.049 5.814-2.649 8.609-4.809 1.114-0.598 2.228-1.196 3.375-1.812 6.991-6.147 11.955-15.18 12.687-24.563-0.58-9.177-6.204-19.192-12.16-26.035-2.704-3.682-3.856-7.689-5.09-12.028-0.26-0.908-0.52-1.817-0.789-2.753-2.279-8.595-6.174-24.507-2.023-32.809 5.119-0.139 10.223 0.242 15.334 0.539 2.561 0.146 5.122 0.269 7.684 0.389 8.468 0.464 16.022 1.098 23.982 4.072 0.493 0.181 0.493 0.181 2.988 1.098 0.767 0.318 1.534 0.636 2.324 0.964 0.78 0.321 1.56 0.642 2.364 0.973 0.767 0.319 1.534 0.637 2.324 0.965 0.425 0.156 0.425 0.156 2.574 0.945 4.796 2.085 8.42 6 11.988 9.743 6.251 5.929 14.404 7.401 22.813 7.5 4.625-0.188 4.625-0.188 7.625-1.188 2.666-0.04 5.334-0.044 8 0 0.248 1.382 0.495 2.764 0.75 4.188 1.206 4.642 2.302 6.275 5.25 9.812v5c-2.082 1.957-2.082 1.957-4.812 3.812-4.823 3.665-6.864 6.099-8.188 12.188-0.29 3.33-0.502 6.659-0.695 9.996-0.363 3.573-1.237 6.062-3.305 9.004-3.271 2.181-4.614 2.292-8.438 2.5-4.063 0.221-5.778 0.608-9.562 2.5-3.75 6.697-3.415 12.207-2.312 19.625 2.654 8.847 8.225 11.79 15.96 16.055 3.743 1.474 6.363 1.672 10.352 1.32 4.719-2.311 7.341-5.471 10.363-9.715 4.441-6.2 9.249-11.897 14.637-17.285 1.483-1.934 2.964-3.871 4.406-5.836 4.025-5.464 8.265-10.763 12.532-16.039 2.839-3.532 5.543-7.131 8.187-10.813 3.096-4.299 6.362-8.34 9.875-12.312 3.679-4.194 6.921-8.359 10-13 1.484-2.053 2.984-4.095 4.5-6.125 0.376-0.507 0.376-0.507 2.281-3.07 1.953-2.469 3.981-4.602 6.219-6.805 1.272-1.523 2.521-3.066 3.75-4.625 0.695-0.878 1.39-1.756 2.105-2.66 0.354-0.448 0.354-0.448 2.145-2.715 1.353-1.688 2.707-3.376 4.062-5.062 0.659-0.827 1.318-1.653 1.997-2.504 1.256-1.576 2.519-3.146 3.789-4.711 10.591-13.245 10.591-13.245 11.777-20.598-1.454-7.269-11.025-12.375-16.875-16.313-0.908-0.598-1.815-1.196-2.75-1.812-1.667-1.333-3.333-2.667-5-4l-3-2c-3-2-3-2-5.25-3.875-6.556-5.066-14.013-8.84-21.293-12.75-2.457-1.375-2.457-1.375-5.519-3.5-3.373-2.153-6.779-3.459-10.508-4.875-2.43-1-2.43-1-5.742-3-4.343-2.355-8.655-3.583-13.407-4.875-3.281-1.125-3.281-1.125-6.629-3.125-4.197-2.298-7.898-3.107-12.59-4-6.353-1.211-11.342-2.992-17.062-6-3.749-0.937-7.01-1.273-10.855-1.5-0.673-0.041-0.673-0.041-4.077-0.25-1.404-0.082-2.809-0.165-4.256-0.25-14.861-0.885-14.861-0.885-20.374-1.551-6.418-0.649-12.804-0.64-19.25-0.637-1.378 1e-3 -2.756 1e-3 -4.175 1e-3 -9.253 0.051-18.245 0.584-27.435 1.683zm510.42 235.5c-1.25 3.375-1.25 3.375-1 7 2.236 2.828 4.696 4.757 7.5 7 3.557 2.845 6.646 5.898 9.438 9.5 2.411 2.923 5.129 5.106 8.062 7.5 3.683 3.494 6.984 7.254 10.309 11.082 3.036 3.443 6.198 6.515 9.753 9.418 2.743 2.334 4.709 4.696 6.938 7.5 1.646 1.358 3.313 2.693 5 4 1.354 1.312 2.687 2.646 4 4l2.312 2.312c15.688 15.688 15.688 15.688 16.188 18.75-0.832 6.555-5.496 9.983-10.062 14.438-3.96 4.061-7.143 8.717-10.469 13.297-3.883 5.277-7.849 10.245-12.344 15.015-4.87 5.279-7.316 9.186-8.063 16.438 0.145 1.237 0.289 2.475 0.438 3.75 4.91 3.682 8.433 3.444 14.301 3.436 0.524 5e-3 0.524 5e-3 3.175 0.03 3.469 0.029 6.938 0.035 10.407 0.038l7.242 0.03c5.066 0.018 10.132 0.024 15.197 0.022 6.477 0 12.952 0.04 19.428 0.092 4.99 0.034 9.979 0.04 14.969 0.038 2.387 4e-3 4.773 0.017 7.16 0.04 3.348 0.03 6.695 0.021 10.043 3e-3 0.977 0.017 1.954 0.033 2.961 0.051 7.285-0.099 12.393-2.264 18.117-6.78 1.863-2.049 3.479-4.121 5.086-6.375 2.338-3.206 4.892-6.178 7.476-9.187 4.004-4.703 7.787-9.46 11.438-14.438 1.723-2.275 3.463-4.532 5.234-6.77 1.138-1.437 2.255-2.892 3.344-4.367 4-5.096 8.18-7.604 14.035-10.293 3.78-1.752 7.414-3.705 11.075-5.695 3.993-2.147 7.95-4.23 12.124-6 3.287-1.472 6.091-2.986 9.126-4.875 3.4-2.111 6.688-3.727 10.437-5.125 4.625-1.875 4.625-1.875 6.574-3.867 2.402-2.352 4.299-3.017 7.489-4.008 4.323-1.46 7.03-3.102 10.562-6 2.504-1.087 5.044-2.04 7.598-3.004 2.402-0.996 2.402-0.996 5.277-2.934 3.011-1.987 5.787-3.221 9.125-4.562 4.425-1.784 8.063-3.793 12-6.5 2.939-1.528 5.91-2.984 8.883-4.445 2.764-1.379 5.475-2.814 8.179-4.305 5.096-2.806 10.229-5.538 15.376-8.25 0.41-0.216 0.41-0.216 2.488-1.312 5.531-2.904 11.098-5.721 16.726-8.434 2.348-1.254 2.348-1.254 6.348-4.254 2.996-1.012 5.996-2.013 9-3 2-2 2-2 2.375-5.438-0.124-1.175-0.247-2.351-0.375-3.562-5.252-3.939-8.772-4.124-15.191-4.134-0.623-2e-3 -0.623-2e-3 -3.776-0.013-1.359 1e-3 -2.719 1e-3 -4.12 2e-3 -1.438-4e-3 -2.876-7e-3 -4.357-0.01-4.762-0.01-9.524-0.012-14.286-0.013-3.31-3e-3 -6.619-7e-3 -9.929-0.01-6.943-6e-3 -13.886-8e-3 -20.829-7e-3 -8.008 0-16.017-0.01-24.026-0.026-6.887-0.013-13.775-0.018-20.663-0.018-4.108 0-8.216-3e-3 -12.324-0.013-4.589-0.01-9.177-7e-3 -13.765-1e-3 -0.675-3e-3 -0.675-3e-3 -4.09-0.017-18.693 0.062-18.693 0.062-25.144 5.072-3.927 2.865-7.928 4.976-12.336 7.012-2.164 1.176-2.164 1.176-5.164 4.176-2.305 1.027-2.305 1.027-4.875 1.938-4.05 1.54-6.774 3.297-10.125 6.062-2.499 1.323-5.036 2.548-7.582 3.777-2.978 1.506-5.653 3.359-8.418 5.223-2.658 1.35-5.325 2.683-8 4-3.62 2.004-7.137 4.087-10.625 6.312-4.661 2.952-9.537 5.481-14.422 8.04-2.953 1.648-2.953 1.648-6.953 4.648-4.625 1.542-8.313 2.428-13 1-3.446-3.018-6.31-6.247-9.238-9.766-2.44-2.857-4.803-4.959-7.762-7.234-2.021-2.315-4.02-4.649-6-7-2.52-2.646-5.026-5.021-7.875-7.312-4.754-4.089-8.663-8.803-12.5-13.75-6.823-7.636-13.104-11.481-23.543-12.213-4.382-0.028-8.763-0.047-13.144-0.037-0.764-9e-3 -0.764-9e-3 -4.627-0.049-1.476-1e-3 -2.951-2e-3 -4.471-2e-3 -1.337-3e-3 -2.674-6e-3 -4.051-9e-3 -4.175 0.41-7.114 1.363-10.789 3.372zm386.56 3.227c-0.555 0.791-1.109 1.583-1.68 2.398-0.638 0.874-1.276 1.748-1.934 2.648-0.64 0.9-1.281 1.8-1.941 2.727-1.385 1.759-2.78 3.509-4.188 5.25-0.331 0.415-0.331 0.415-2.011 2.516-2.235 2.772-4.522 5.499-6.801 8.234-5.796 7.139-11.354 14.413-16.812 21.812-3.174 4.235-6.532 8.311-9.895 12.395-2.807 3.419-5.572 6.872-8.328 10.332-1.314 1.646-2.634 3.286-3.961 4.922-4.187 5.174-8.162 10.46-12.055 15.859-7.294 10.029-7.294 10.029-10.976 13.703-2.389 2.394-4.334 5.051-6.336 7.77-2.25 3.033-4.583 5.999-6.91 8.973-1.652 2.137-3.255 4.305-4.852 6.484-2.875 3.75-2.875 3.75-5.563 6.312-2.843 2.998-4.088 5.495-5.312 9.438 0.125 3.812 0.125 3.812 1 7 4.266 2.844 8.421 2.303 13.387 2.306 1.069 9e-3 2.137 0.017 3.238 0.026 3.545 0.024 7.089 0.032 10.633 0.039 2.463 9e-3 4.925 0.018 7.388 0.027 5.17 0.017 10.34 0.025 15.51 0.028 6.615 5e-3 13.228 0.043 19.842 0.088 5.091 0.03 10.182 0.037 15.273 0.038 2.437 4e-3 4.875 0.017 7.312 0.038 3.419 0.027 6.835 0.022 10.253 9e-3 1.001 0.015 2.002 0.03 3.033 0.045 7.063-0.073 11.225-1.748 17.131-5.644 2.016-2.062 2.016-2.062 3.25-4 2.75-4 2.75-4 5.074-6.277 3.143-3.198 5.634-6.637 8.238-10.285 2.948-4.125 5.787-7.926 9.438-11.438 0.928-1.217 1.856-2.434 2.812-3.688 0.535-0.69 1.07-1.38 1.622-2.092 1.566-2.22 1.566-2.22 2.664-4.577 1.657-3.052 3.031-4.643 5.902-6.643 7.049-1.33 14.028-1.096 21.176-0.949 2.092 0.011 4.185 0.02 6.278 0.024 4.376 0.018 8.75 0.065 13.125 0.136 5.617 0.091 11.233 0.134 16.851 0.158 5.353 0.025 10.706 0.07 16.058 0.119 1.025 9e-3 2.05 0.017 3.106 0.025 2.887 0.028 5.774 0.07 8.661 0.117 0.822 0.011 0.822 0.011 4.983 0.069 3.762 0.301 3.762 0.301 5.762 2.301 0.703 1.665 1.34 3.357 1.938 5.062 0.349 0.994 0.698 1.988 1.058 3.012 3.458 10.077 3.458 10.077 4.867 14.848 1.813 6.118 3.793 12.156 6.012 18.14 0.451 1.229 0.902 2.457 1.367 3.723 2.17 3.969 3.739 5.133 7.758 7.215 3.528 0.373 6.734 0.527 10.256 0.486 0.51 2e-3 0.51 2e-3 3.087 0.011 3.357 8e-3 6.714-0.014 10.071-0.036 2.336-2e-3 4.672-3e-3 7.008-3e-3 4.891-3e-3 9.781-0.02 14.672-0.046 6.272-0.034 12.545-0.042 18.817-0.04 4.822-1e-3 9.643-0.012 14.464-0.026 2.313-7e-3 4.627-0.011 6.94-0.012 3.229-5e-3 6.458-0.022 9.687-0.043 0.958 0 1.916 1e-3 2.904 2e-3 4.449-0.043 7.045-0.268 11.094-2.293 3.019-6.037 3.09-11.666 0.984-18.105-1.262-3-2.605-5.947-3.984-8.895-1.64-4.227-3.134-8.426-4.5-12.75-1.5-4.25-1.5-4.25-4.5-8.25v-4c1.609-0.351 3.217-0.701 4.875-1.062 11.794-2.956 22.912-7.353 33.125-13.938 1.217-0.536 2.434-1.072 3.688-1.625 16.195-8.919 29.1-24.589 34.515-42.313 1.801-9.183 2.532-20.194-1.609-28.847-4.886-6.79-11.829-11.369-19.594-14.215-3.93-0.385-3.93-0.385-8.307-0.399-0.81-6e-3 -1.621-0.013-2.456-0.02-2.707-0.018-5.414-0.016-8.121-0.013-1.95-9e-3 -3.901-0.02-5.851-0.031-5.32-0.028-10.64-0.037-15.96-0.043-5.672-0.01-11.344-0.036-17.015-0.06-10.855-0.044-21.71-0.072-32.565-0.095-11.954-0.027-23.909-0.071-35.863-0.117-21.12-0.08-42.24-0.133-63.361-0.166-14.143-0.023-28.286-0.069-42.43-0.154-9.225-0.054-18.45-0.097-27.676-0.13-5.403-0.02-10.806-0.047-16.209-0.092-4.99-0.041-9.979-0.064-14.968-0.072-1.814-6e-3 -3.627-0.02-5.44-0.04-20.657-0.231-20.657-0.231-28.223 6.659zm774.44 4.773c-2.056 2.644-4.041 5.289-6 8-3.709 4.879-7.529 9.654-11.438 14.375-3.738 4.545-7.23 9.219-10.66 14-2.319 3.201-4.732 6.319-7.175 9.426-1.203 1.531-2.395 3.071-3.579 4.617-0.605 0.79-1.211 1.58-1.836 2.394-0.54 0.708-1.08 1.416-1.636 2.145-1.676 2.043-1.676 2.043-3.727 4.055-1.949 1.988-1.949 1.988-4.449 5.988-2.076 3.321-3.713 5.377-6.5 8-4.089 4.449-7.876 9.053-11.461 13.922-3.427 4.627-6.991 9.155-10.601 13.64-3.696 4.65-7.214 9.434-10.688 14.25-3.366 4.521-7.215 8.575-11.078 12.672-2.993 3.467-4.118 5.945-4.547 10.516 0.375 4 0.375 4 1.747 6.217 4.071 2.762 8.3 2.347 13.053 2.316 1.06 9e-3 2.121 0.018 3.214 0.027 3.511 0.022 7.022 0.015 10.533 6e-3 2.441 6e-3 4.883 0.012 7.324 0.019 5.121 0.011 10.242 6e-3 15.363-9e-3 6.555-0.017 13.11 7e-3 19.665 0.042 5.044 0.022 10.088 0.02 15.133 0.012 2.416-1e-3 4.832 6e-3 7.248 0.021 3.385 0.017 6.768 3e-3 10.153-0.02 0.993 0.012 1.987 0.023 3.01 0.036 8.028-0.11 12.573-2.499 18.471-8.062 0.688-0.797 1.377-1.595 2.086-2.417 0.753-0.872 1.506-1.743 2.281-2.641 2.825-3.437 5.47-6.953 8.094-10.547 1.201-1.589 2.41-3.172 3.625-4.75 0.549-0.717 1.098-1.433 1.664-2.172 1.711-2.078 1.711-2.078 3.664-4.004 2.322-2.352 4.214-4.849 6.172-7.512 0.784-1.053 1.568-2.106 2.375-3.191 1.689-2.277 3.376-4.556 5.062-6.836 0.846-1.125 1.692-2.251 2.563-3.41 0.766-1.029 1.531-2.057 2.32-3.117 7.196-8.473 7.196-8.473 12.012-9.566 2.949-0.219 5.846-0.25 8.803-0.215 1.112-0.011 2.225-0.021 3.372-0.032 3.664-0.028 7.326-0.014 10.989 0 2.546-0.011 5.092-0.025 7.638-0.041 6.689-0.036 13.378-0.037 20.068-0.03 6.83 1e-3 13.661-0.031 20.491-0.062 13.394-0.053 26.788-0.07 40.182-0.062-1.633 5.555-4.143 8.671-8 13-0.516 0.866-1.031 1.733-1.562 2.625-1.766 2.916-4.031 4.968-6.438 7.375-0.289 0.433-0.289 0.433-1.75 2.625-2.742 4.112-5.859 7.824-9.008 11.629-1.891 2.316-3.712 4.656-5.492 7.058-2.482 3.329-5.093 6.499-7.75 9.688-1.793 3.586-1.268 7.091-1 11 6.61 4.958 14.031 4.146 22.037 4.101 0.972-2e-3 1.944-3e-3 2.945-5e-3 3.192-7e-3 6.384-0.023 9.577-0.041 1.095-6e-3 2.191-0.012 3.32-0.018 5.794-0.031 11.588-0.07 17.382-0.114 5.969-0.044 11.938-0.06 17.908-0.069 4.606-0.013 9.212-0.048 13.818-0.088 2.2-0.016 4.401-0.023 6.601-0.022 3.083 1e-3 6.163-0.03 9.246-0.069 0.449 4e-3 0.449 4e-3 2.725 0.022 7.779-0.153 13.394-2.679 18.937-8.17 0.641-0.854 1.281-1.709 1.942-2.589 0.739-0.96 1.479-1.919 2.242-2.907 0.765-1 1.531-2 2.32-3.031 1.678-2.029 3.366-4.049 5.062-6.062 6.53-7.825 12.845-15.77 18.938-23.938 2.32-3.01 4.661-6.005 7-9 1.775-2.286 3.55-4.573 5.324-6.859 2.46-3.143 4.96-6.253 7.465-9.36 4.598-5.713 9.086-11.503 13.547-17.324 3.736-4.849 7.525-9.655 11.316-14.461 3.491-4.455 6.095-8.492 8.301-13.711 1.047-2.285 1.047-2.285 3.235-5.66 3.132-6.265 3.338-12.07 1.937-18.875-2.827-4.989-6.408-7.613-11.125-10.75-0.928-0.619-1.856-1.238-2.812-1.875-4.701-2.417-9.186-2.261-14.355-2.283-0.832-5e-3 -1.664-0.01-2.521-0.015-2.797-0.016-5.594-0.024-8.39-0.032-2.008-0.01-4.015-0.02-6.023-0.03-5.489-0.027-10.979-0.048-16.469-0.068-5.844-0.022-11.689-0.05-17.534-0.076-9.918-0.045-19.836-0.085-29.754-0.124-9.966-0.038-19.933-0.08-29.899-0.125-1.202-5e-3 -2.403-0.011-3.641-0.016-1.2-6e-3 -2.399-0.011-3.635-0.017-24.149-0.109-48.297-0.2-72.446-0.271-13.261-0.039-26.522-0.089-39.782-0.152-9.354-0.044-18.707-0.076-28.061-0.101-5.467-0.014-10.934-0.034-16.402-0.066-5.041-0.03-10.083-0.046-15.124-0.051-1.833-4e-3 -3.666-0.014-5.499-0.028-2.499-0.02-4.998-0.019-7.497-0.018-0.695-2e-3 -0.695-2e-3 -4.216-0.016-9.154 0.845-14.192 4.693-19.94 11.364zm-1384.2-1.621c-1.615 2.196-3.221 4.394-4.793 6.621-0.66 0.866-1.32 1.733-2 2.625-1.45 3.444-0.94 5.818 0 9.375 3.722 2.481 5.597 2.242 10.042 2.227h4.428c1.581-0.011 3.162-0.021 4.792-0.032 1.616-3e-3 3.232-5e-3 4.897-8e-3 4.296-8e-3 8.591-0.028 12.887-0.05 4.384-0.02 8.768-0.029 13.151-0.039 8.601-0.022 17.202-0.056 25.803-0.098-0.754 4.936-2.38 6.55-6 10-1.666 2.241-3.289 4.514-4.875 6.812-3.277 4.659-6.595 9.066-10.422 13.278-2.668 2.993-5.125 6.15-7.613 9.293-2.101 2.631-4.249 5.217-6.402 7.805-3.608 4.385-6.979 8.903-10.313 13.5-3.904 5.37-7.865 10.441-12.375 15.312-0.784 0.866-1.567 1.733-2.375 2.625-3.591 3.249-7.529 5.808-11.625 8.375-0.731 0.49-1.462 0.98-2.215 1.484-3.781 2.058-7.765 3.329-11.847 4.641-0.803 0.264-1.605 0.529-2.432 0.801-6.124 2.002-11.295 3.199-17.735 3.212-1.502 5e-3 -3.003 0.011-4.55 0.017-1.649 1e-3 -3.297 2e-3 -4.996 3e-3 -1.752 4e-3 -3.505 0.01-5.258 0.015-3.775 0.011-7.551 0.02-11.326 0.026-5.971 0.011-11.943 0.031-17.914 0.053-16.981 0.062-33.961 0.116-50.942 0.149-9.377 0.019-18.755 0.048-28.132 0.088-4.962 0.021-9.923 0.037-14.885 0.039-4.668 2e-3 -9.336 0.018-14.004 0.045-2.526 0.01-5.052 6e-3 -7.578 1e-3 -0.755 6e-3 -0.755 6e-3 -4.576 0.034-1.308 3e-3 -2.616 7e-3 -3.964 0.01-8.895 0.932-14.118 5.808-19.646 12.382-2.882 4.71-4.908 8.42-4 14 3.657 3.657 5.624 3.365 10.616 3.415 1.066-4e-3 2.132-9e-3 3.231-0.014 0.565 4e-3 0.565 4e-3 3.427 0.021 3.811 0.019 7.622 0.016 11.433 0.014 2.725 9e-3 5.45 0.019 8.175 0.03 7.425 0.027 14.85 0.034 22.275 0.036 4.647 2e-3 9.293 8e-3 13.939 0.016 15.396 0.027 30.791 0.041 46.186 0.038h2.517 2.52c14.246-2e-3 28.492 0.032 42.738 0.077 12.976 0.04 25.951 0.055 38.926 0.054 7.738-1e-3 15.476 7e-3 23.214 0.039 7.302 0.029 14.603 0.029 21.905 8e-3 2.659-4e-3 5.318 3e-3 7.977 0.022 21.102 0.136 44.03-0.824 62.421-12.318 2.5-1.438 2.5-1.438 6.375-2.75 4.63-1.895 7.438-4.342 11.125-7.688 0.906-0.574 1.812-1.147 2.746-1.738 3.99-2.774 7.304-6.055 10.692-9.512 0.663-0.671 1.326-1.342 2.009-2.033 6.439-6.552 12.216-13.216 17.553-20.717 1.331-1.336 2.664-2.669 4-4 4.215-4.968 8.14-10.146 11.938-15.438 5.242-7.277 10.914-14.175 16.874-20.874 3.188-3.688 3.188-3.688 5.083-6.555 2.143-3.189 4.477-6.033 6.98-8.945 3.04-3.599 5.887-7.164 8.437-11.126 2.379-3.595 4.661-6.052 7.688-9.062 1.79-2.092 3.539-4.218 5.25-6.375 0.436-0.54 0.436-0.54 2.641-3.273 2.307-3.667 3.088-6.031 3.109-10.352-4.468-4.468-6.524-4.131-12.779-4.161-0.813-5e-3 -1.626-0.01-2.463-0.015-2.739-0.016-5.478-0.024-8.217-0.033-1.958-9e-3 -3.916-0.019-5.874-0.029-6.443-0.032-12.887-0.052-19.331-0.071-0.548-1e-3 -0.548-1e-3 -3.321-0.01-10.331-0.03-20.663-0.057-30.995-0.074-13.222-0.022-26.443-0.064-39.664-0.133-9.293-0.048-18.585-0.072-27.878-0.079-5.552-5e-3 -11.103-0.02-16.654-0.06-5.225-0.037-10.45-0.045-15.675-0.032-1.916 0-3.832-0.01-5.747-0.032-11.76-0.124-18.366 0.223-26.609 9.108zm1062.5-9c-0.901 0.031-1.802 0.061-2.73 0.093-7.959 0.358-15.84 1.286-23.004 4.966-3.714 1.802-7.169 3.058-11.187 4-4.831 1.209-8.241 3.179-12.25 6.085-2.125 1.477-2.125 1.477-6.313 3.539-3.858 1.961-6.597 4.058-9.812 6.938-1.176 0.969-2.351 1.939-3.562 2.938-7.99 7.016-15.775 15.053-21.438 24.062-4.433 6.917-9.172 13.18-15 18.996-3.424 3.542-4.879 5.254-5.688 10.254 0.783 4.268 1.213 5.265 4.688 7.75 3.944 0.492 3.944 0.492 8.871 0.481 0.453 2e-3 0.453 2e-3 2.745 0.01 3.042 7e-3 6.083-0.015 9.125-0.037 2.178-1e-3 4.356 0 6.534 2e-3 5.919 1e-3 11.838-0.023 17.757-0.05 6.183-0.025 12.367-0.028 18.55-0.033 11.712-0.012 23.424-0.045 35.136-0.085 13.332-0.045 26.664-0.067 39.997-0.087 27.428-0.042 54.857-0.112 82.285-0.201-0.94 1.594-1.883 3.186-2.828 4.777-0.525 0.886-1.05 1.773-1.591 2.686-3.542 5.684-8.145 10.547-12.581 15.537-0.62 0.74-1.24 1.48-1.879 2.242-4.602 5.168-9.733 6.77-16.121 8.758-0.812 0.344-1.624 0.688-2.461 1.043-6.007 2.264-12.214 2.123-18.555 2.162-1 0.01-2.001 0.02-3.031 0.03-3.329 0.032-6.659 0.057-9.988 0.081-2.361 0.021-4.723 0.042-7.084 0.063-6.336 0.056-12.672 0.105-19.008 0.153-3.93 0.03-7.86 0.063-11.789 0.096-25.999 0.217-51.998 0.412-77.998 0.399-0.892 0-1.785 0-2.704-1e-3 -8.908-5e-3 -17.816-0.026-26.724-0.063-6.683-0.025-13.365-0.02-20.048 0.02-2.399 0.011-4.798 0.012-7.196 2e-3 -3.323-8e-3 -6.642 0.028-9.965 0.077-0.952-0.011-1.905-0.022-2.886-0.033-7.406 0.189-10.716 2.875-15.563 7.971-0.928 0.825-1.856 1.65-2.812 2.5-3.394 3.878-4.94 7.661-5.626 12.75 0.438 2.75 0.438 2.75 4.438 5.75 2.396 0.381 2.396 0.381 5.119 0.389 1.04 0.01 2.081 0.02 3.152 0.031 1.142-4e-3 2.284-8e-3 3.46-0.012 0.607 4e-3 0.607 4e-3 3.679 0.023 4.086 0.021 8.172 0.021 12.259 0.021 2.924 0.01 5.848 0.022 8.772 0.035 7.964 0.031 15.929 0.042 23.893 0.048 4.986 4e-3 9.972 0.012 14.958 0.022 13.836 0.027 27.671 0.05 41.506 0.052 0.443 0 0.443 0 2.685 1e-3h5.388c0.891 1e-3 1.783 1e-3 2.701 1e-3h2.705c14.392 3e-3 28.784 0.04 43.176 0.091 14.817 0.053 29.634 0.079 44.451 0.079 8.302 0 16.604 0.011 24.906 0.051 7.837 0.036 15.673 0.038 23.51 0.015 2.851-3e-3 5.701 6e-3 8.552 0.028 15.182 0.111 29.517-0.87 44.396-4.053 1.314-0.279 2.627-0.559 3.981-0.847 7.092-1.666 13.107-3.833 19.356-7.602 2.468-1.415 4.909-2.411 7.583-3.373 4.905-1.885 8.777-4.676 12.812-8 0.804-0.633 1.609-1.266 2.438-1.918 11.778-9.283 21.513-19.102 30.562-31.082 0.514-0.681 1.029-1.361 1.559-2.062 1.99-2.648 3.973-5.302 5.937-7.969 4.074-5.502 8.14-10.965 13.379-15.407 2.125-2.562 2.125-2.562 2.687-6.624-0.562-3.938-0.562-3.938-2.043-6.154-3.766-2.667-6.809-2.275-11.39-2.265-0.906-3e-3 -1.812-7e-3 -2.745-0.01-3.042-7e-3 -6.083 0.015-9.125 0.037-2.178 1e-3 -4.356 0-6.534-2e-3 -5.919-1e-3 -11.838 0.023-17.757 0.05-6.183 0.025-12.367 0.028-18.55 0.033-11.712 0.012-23.424 0.045-35.136 0.085-13.332 0.045-26.664 0.067-39.997 0.087-27.428 0.042-54.857 0.112-82.285 0.201 1.8-5.004 3.228-8.836 6.938-12.688 2.144-2.272 4.142-4.42 6-6.937 1.94-2.235 3.883-4.134 6.124-6.063 0.336-0.29 0.336-0.29 2.036-1.761 10.225-5.464 23.595-3.799 34.868-3.73 2.118 5e-3 4.236 0.01 6.355 0.013 4.543 0.01 9.087 0.026 13.63 0.046 7.186 0.032 14.372 0.048 21.558 0.06 17.841 0.034 35.681 0.087 53.522 0.149 13.882 0.049 27.764 0.091 41.647 0.112 7.142 0.011 14.285 0.037 21.427 0.073 4.441 0.019 8.881 0.026 13.322 0.029 2.058 4e-3 4.116 0.013 6.174 0.028 2.81 0.019 5.62 0.02 8.431 0.016 1.572 6e-3 3.144 0.011 4.764 0.017 6.673-0.577 11.955-3.281 17.204-7.364 1.401-1.953 2.733-3.957 4-6 0.908-0.969 1.815-1.939 2.75-2.938 2.25-3.062 2.25-3.062 2.812-6.75-0.562-3.312-0.562-3.312-4.562-6.312-3.845-0.3-7.528-0.42-11.374-0.405-1.175-8e-3 -2.351-0.015-3.562-0.023-3.955-0.021-7.91-0.02-11.866-0.02-2.83-0.011-5.66-0.023-8.491-0.036-7.705-0.032-15.411-0.045-23.117-0.055-8.073-0.013-16.146-0.042-24.219-0.069-13.579-0.044-27.158-0.076-40.738-0.1-13.93-0.026-27.859-0.06-41.789-0.105-0.855-3e-3 -1.71-6e-3 -2.591-8e-3 -0.427-2e-3 -0.427-2e-3 -2.588-9e-3 -1.719-5e-3 -3.439-0.011-5.158-0.016-0.848-3e-3 -1.697-6e-3 -2.571-9e-3 -14.121-0.045-28.243-0.081-42.364-0.117-4.79-0.012-9.58-0.026-14.37-0.04-7.571-0.022-15.141-0.038-22.711-0.05-2.762-5e-3 -5.525-0.011-8.287-0.02-12.642-0.039-25.273-0.022-37.908 0.461zm640.58 102.12c-0.309 0.413-0.309 0.413-1.875 2.5-0.825 0.392-1.65 0.784-2.5 1.188-3.473 2.518-4.167 5.45-5.508 9.437-0.992 2.375-0.992 2.375-3.992 5.375-1.795 5.386-1.901 10.952 0.375 16.125 0.536 0.619 1.073 1.237 1.625 1.875h2c0.103 0.887 0.206 1.774 0.312 2.688 1.408 6.782 5.49 10.402 10.801 14.503 7.104 4.451 14.739 5.591 22.887 3.809 0.486-0.1 0.486-0.1 2.945-0.605 10.127-2.252 15.148-5.76 21.055-14.395 0.382-0.547 0.382-0.547 2.312-3.312 3.954-6.297 3.114-13.491 2.688-20.688-1.25-4.375-1.25-4.375-3-7l-4-1c-0.247-0.866-0.495-1.733-0.75-2.625-2.186-5.902-6.966-9.152-12.395-12.059-4.679-1.597-8.972-1.757-13.855-1.691-0.864-0.012-1.727-0.023-2.617-0.035-6.546 0.03-12.121 0.748-16.508 5.91z" fill="#FAFAFA"/>
<path transform="translate(322.57 281.87)" d="m0 0c1.476-1e-3 2.952-2e-3 4.473-3e-3 3.108-1e-3 6.216 1e-3 9.324 5e-3 4.749 6e-3 9.497 0 14.246-6e-3 3.027 1e-3 6.055 2e-3 9.082 4e-3 1.415-2e-3 2.83-4e-3 4.287-6e-3 13.442 0.032 13.442 0.032 19.018 1.139l1 2c-3.66 0.827-7.129 1.163-10.875 1.289-11.666 0.517-22.805 1.226-33.938 4.961-0.417 0.138-0.417 0.138-2.525 0.834-5.548 2.034-9.36 4.927-13.662 8.916-0.619 0.433-0.619 0.433-3.75 2.625-9.077 6.759-15.734 15.071-20.25 25.375-0.537 0.845-1.073 1.691-1.625 2.562-1.375 2.438-1.375 2.438-2.875 7-1.5 4.438-1.5 4.438-4.5 8.438-0.475 3.801-0.655 6.018 1.5 9.25 2.5 1.75 2.5 1.75 6.687 3.187 1.258 0.516 2.516 1.032 3.813 1.563 1.423 4.092 1.084 8.391 1.027 12.679-0.012 1.487-0.024 2.973-0.037 4.504-0.035 3.12-0.074 6.24-0.117 9.36-6e-3 0.744-6e-3 0.744-0.033 4.512-0.017 1.355-0.034 2.711-0.051 4.108 0.286 5.205 1.177 9.336 4.148 13.649 1.927 2.979 2.633 4.946 3.5 8.313 1.232 4.535 2.713 6.111 6.563 8.875 4.111 10.06 4.179 21.962 0 32-2.313 2.5-2.313 2.5-5 4-0.949 0.68-1.898 1.361-2.875 2.062-6.886 4.27-13.046 5.513-21.016 6.41-3.109 0.528-3.109 0.528-6.109 2.528-1.426 7.514 0.724 13.256 4 20 0.309 1.444 0.618 2.887 0.937 4.375 0.882 3.838 1.72 6.015 3.5 9.375 2.982 6.198 3.641 12.607 4.466 19.347 0.66 5.235 1.57 10.1 3.159 15.153 6.855 22.518 12.788 65.98 2.938 87.75-2.5 3.25-2.5 3.25-5 6-0.99 1.32-1.98 2.64-3 4-0.99-0.33-1.98-0.66-3-1-0.401-2.886-0.401-2.886-0.442-6.762-0.012-0.709-0.012-0.709-0.075-4.3-0.015-1.526-0.03-3.053-0.046-4.626-0.063-3.123-0.131-6.247-0.203-9.371-0.035-1.531-0.071-3.062-0.107-4.64-0.164-5.533-0.468-11.036-0.94-16.551-0.065-0.787-0.065-0.787-0.394-4.766-0.508-4.055-1.587-7.79-2.782-11.695-2.15-7.217-2.849-14.18-3.386-21.664-0.854-9.941-2.266-18.099-6.282-27.262-1.76-4.406-2.222-8.659-2.789-13.34-0.766-4.176-2.446-7.623-4.339-11.398-1.203-2.598-1.909-5.039-2.59-7.813-1.517-5.562-4.707-8.672-8.625-12.812v-2c-11.69-0.586-22.199 1.109-33.563 3.75-0.799 0.174-0.799 0.174-4.846 1.055-12.672 2.869-12.672 2.869-18.591 7.195-1.362 0.804-2.723 1.609-4.125 2.437-3.565 2.358-5.377 4.203-7.875 7.563-0.825 0.639-1.65 1.279-2.5 1.937-2.878 2.374-4.502 4.931-6.5 8.063l-3 3c-0.976 2.203-1.951 4.408-2.84 6.648-1.16 2.352-1.16 2.352-3.164 4.715-2.351 3.105-3.066 5.682-3.996 9.449-1 4.023-2.087 7.358-3.965 11.071-2.153 4.354-3.386 8.482-4.598 13.179-1.123 4.336-2.21 8.418-4.004 12.524-1.55 3.691-2.195 7.027-2.808 10.976-1.161 6.652-3.019 12.559-5.434 18.844-1.736 5.235-2.53 10.552-3.32 16-0.954 3.935-2.581 6.297-4.871 9.594-0.605 5.704-0.516 7.313 3 12 3.238 1.026 6.319 1.85 9.625 2.562 1.743 0.394 3.485 0.791 5.226 1.192 0.863 0.198 1.725 0.396 2.614 0.6 2.411 0.614 4.776 1.405 7.132 2.204 5.796 1.898 11.592 2.699 17.61 3.598 3.793 0.844 3.793 0.844 7.793 3.844-5.631 1.964-10.139 2.067-16.063 1.625-21.501-1.437-21.501-1.437-26.937 0.375-2.258 4.515-2.403 7.444-2.676 12.465-0.107 1.705-0.214 3.41-0.322 5.115-0.16 2.665-0.313 5.33-0.453 7.996-0.59 10.947-1.948 20.328-6.549 30.424-1.18 3.996-1.984 7.889-2.606 12.008-0.233 1.461-0.466 2.923-0.707 4.429-0.202 1.402-0.405 2.803-0.613 4.246-0.177 0.548-0.177 0.548-1.074 3.317-2.418 1.105-2.418 1.105-5 1-3-2.125-3-2.125-6-5-0.402-0.361-0.402-0.361-2.438-2.188-2.98-3.27-5.426-6.757-7.914-10.41-1.492-2.174-3.066-4.292-4.648-6.402-0.475-1.32-0.949-2.64-1.438-4-1.562-4-1.562-4-3.535-5.91-2.354-2.427-3.031-4.321-4.027-7.528-1.091-3.238-1.821-5.344-4-8-2.76-3.535-3.675-7.331-5-11.582-1-2.98-1-2.98-3-6.98-2.123-4.245-3.512-8.439-4.875-12.973-1.125-3.027-1.125-3.027-3.157-6.406-2.142-3.941-2.814-7.077-3.468-11.496-0.776-4.616-1.499-8.726-3.563-12.938-4.251-9.188-4.582-19.895-5.617-29.875-0.661-5.738-1.768-11.012-3.426-16.55-2.276-8.196-2.251-15.756-1.832-24.2 0.041-1.391 0.081-2.783 0.123-4.216 0.407-10.264 0.407-10.264 2.293-15.271 1.609-4.309 2.13-7.955 2.514-12.528 0.148-1.59 0.296-3.179 0.449-4.817 0.288-3.304 0.569-6.609 0.844-9.914 0.798-8.439 1.92-15.503 5.547-23.183 2.433-5.487 3.041-11.435 4.078-17.313 1.091-4.327 2.525-6.739 5.09-10.32 1.09-2.895 1.09-2.895 1.937-5.813 1.229-3.915 2.569-7.385 4.625-10.937 2.438-4.25 2.438-4.25 3.938-8.375 1.629-4.209 3.854-7.238 6.5-10.875l1.5-3.5c1.696-3.959 3.941-7.046 6.5-10.5 0.495-0.846 0.99-1.691 1.5-2.563 1.5-2.437 1.5-2.437 3.937-5.312 2.637-3.216 4.525-6.509 6.563-10.125 3.389-4.558 7.236-8.75 11-13 0.329-0.377 0.329-0.377 1.996-2.281 6.373-7.204 13.164-13.96 20.004-20.719 0.857-0.884 1.714-1.769 2.597-2.68 2.26-2.182 4.482-3.895 7.09-5.633 3.563-2.433 6.967-4.963 10.313-7.687 4.835-3.923 9.856-7.496 15-11 1.031-0.722 2.062-1.444 3.125-2.188 3.502-2.208 7.173-3.961 10.875-5.812 0.969-0.66 1.938-1.32 2.937-2 3.133-2.046 6.339-3.53 9.774-5 2.128-0.93 4.211-1.961 6.289-3 2.861-1.431 5.701-2.777 8.625-4.063 2.424-1.073 4.837-2.184 7.175-3.433 4.705-2.212 9.605-3.224 14.641-4.442 3.559-1.062 3.559-1.062 6.067-2.597 3.224-1.895 6.118-2.306 9.804-2.903 9.652-1.678 19.089-4.02 28.531-6.621 9.832-2.227 19.697-2.088 29.727-2.074z"/>
<path transform="translate(1227.9 514.89)" d="m0 0h4.484c1.642 5e-3 3.283 0.01 4.974 0.015 1.745 1e-3 3.491 3e-3 5.237 3e-3 4.805 4e-3 9.609 0.013 14.414 0.024 5.152 0.01 10.304 0.016 15.456 0.021 6.59 8e-3 13.181 0.016 19.772 0.026 16.181 0.025 32.362 0.023 48.543 0.01 21.369-0.016 42.738-1e-3 64.106 0.044 12.219 0.025 24.437 0.035 36.655 0.016 10.939-0.017 21.877-9e-3 32.815 0.028 5.712 0.018 11.423 0.025 17.135 2e-3 5.297-0.021 10.592-9e-3 15.888 0.027 1.929 8e-3 3.858 4e-3 5.787-0.013 12.54-0.103 20.834 1.268 30.139 10.062 3.938 4.067 5.214 7.589 5.475 13.225-0.314 5.721-1.844 10.091-4.469 15.144-1.281 2.481-1.281 2.481-2.594 6.481-3.944 9.349-10.135 15.89-18.172 21.929-2.515 2.071-2.515 2.071-4.507 4.735-2.41 2.803-3.805 3.154-7.383 3.836-3.918 0.902-5.422 1.318-8.5 4.062-4.845 3.779-10.137 3.782-16.125 4.438-2.377 0.273-4.753 0.564-7.125 0.875-1.055 0.121-2.109 0.242-3.196 0.367-2.679 0.758-2.679 0.758-5.679 4.758-1.467 8.826 0.113 15.458 4.48 23.109 1.966 3.739 2.821 7.474 3.797 11.558 0.934 3.014 2.763 4.899 4.723 7.333 0.375 3.687 0.375 3.687 0 7-2.733 2.732-4.917 2.234-8.625 2.24-0.933-8e-3 -1.865-0.017-2.826-0.026-0.981-1e-3 -1.961-3e-3 -2.972-4e-3 -3.254-8e-3 -6.507-0.032-9.761-0.058-2.254-0.014-4.509-0.027-6.763-0.04-4.73-0.031-9.461-0.07-14.191-0.114-6.071-0.055-12.142-0.078-18.213-0.093-4.658-0.017-9.315-0.056-13.972-0.101-2.239-0.018-4.478-0.028-6.716-0.03-3.128-4e-3 -6.254-0.04-9.381-0.083-0.93 5e-3 -1.861 0.011-2.82 0.016-2.579-0.055-2.579-0.055-6.76-0.707-3.075-3.505-3.427-6.753-3.875-11.313-0.601-4.516-1.082-6.62-3.563-10.562-3.163-5.093-3.858-9.674-4.789-15.54-1.345-6.238-3.858-10.874-8.804-15.076-6.968-3.542-15.675-2.433-23.34-2.334-2.008 3e-3 -4.015 4e-3 -6.022 2e-3 -4.199 3e-3 -8.397 0.03-12.596 0.075-5.364 0.056-10.727 0.065-16.092 0.056-4.143-3e-3 -8.285 0.015-12.428 0.039-1.977 0.011-3.954 0.016-5.931 0.016-2.771 4e-3 -5.541 0.034-8.312 0.071-1.572 0.013-3.145 0.025-4.765 0.037-5.883 0.693-11.161 2.34-15.577 6.501-0.464 0.69-0.928 1.379-1.406 2.09-0.557 0.785-1.114 1.57-1.688 2.379-0.598 0.844-1.196 1.689-1.812 2.559-1.486 1.844-2.987 3.677-4.5 5.5-5.943 7.241-11.604 14.574-16.938 22.277-1.755 2.496-3.616 4.873-5.562 7.223-0.681 0.907-1.361 1.815-2.063 2.75-1.937 2.25-1.937 2.25-4.937 3.25-3.364 0.092-6.707 0.125-10.071 0.113h-3.135c-3.425 0-6.85-8e-3 -10.275-0.016-2.372-2e-3 -4.744-3e-3 -7.116-4e-3 -6.249-4e-3 -12.498-0.014-18.747-0.025-6.374-0.01-12.749-0.015-19.123-0.02-12.511-0.01-25.022-0.027-37.533-0.048 0-4.834 0.816-5.323 4.062-8.688 3.681-3.924 7.078-7.925 10.332-12.207 2.452-3.215 4.999-6.352 7.535-9.5 4.128-5.131 8.147-10.317 12.071-15.605 5.239-7.062 10.65-13.964 16.265-20.731 4.413-5.321 8.524-10.691 12.325-16.469 0.465-0.594 0.93-1.188 1.41-1.8h2c0.227-0.681 0.454-1.362 0.687-2.063 1.557-3.483 3.846-5.571 6.578-8.18 2.315-2.346 3.965-4.985 5.735-7.757 1.648-2.015 3.318-4.013 5-6 7.183-8.775 7.183-8.775 10-13 12.089-18.134 12.089-18.134 23.87-18.115zm87.13 17.115c-0.913 0.515-1.826 1.031-2.766 1.562-2.767 1.78-4.138 3.723-5.984 6.438-2.806 4.005-5.696 7.855-8.813 11.625-5.823 7.052-5.823 7.052-8.375 10.25-0.545 0.678-1.09 1.356-1.652 2.054-1.41 2.071-1.41 2.071-2.375 4.692-1.035 2.379-1.035 2.379-4.66 4.566-3.375 2.813-3.375 2.813-3.938 5.281-0.062 2.719-0.062 2.719 0.563 7.532 4.715 3.143 9.48 3.124 15.032 3.145 1.176 6e-3 2.351 0.012 3.562 0.019 1.264 1e-3 2.529 2e-3 3.832 3e-3 1.324 5e-3 2.648 9e-3 4.013 0.013 4.291 0.01 8.582 0.01 12.873 7e-3 1.45 0 2.9-1e-3 4.394-1e-3 16.443-0.014 32.874-0.032 49.294-0.999 1.257-0.07 2.514-0.14 3.81-0.212 14.227-1.013 14.227-1.013 19.127-5.913 2.063-2.062 2.063-2.062 6-3.5 9.578-3.996 17.212-13.516 22.461-22.242 2.914-4.222 6.629-7.77 10.211-11.426 4.047-4.9 4.983-9.614 4.391-15.894-3.587-3.587-5.37-3.372-10.265-3.44-1.006 1e-3 -2.011 2e-3 -3.047 4e-3 -1.06-0.01-2.12-0.02-3.213-0.031-3.517-0.028-7.033-0.034-10.549-0.037-2.443-0.01-4.886-0.02-7.329-0.031-5.127-0.018-10.254-0.023-15.381-0.021-6.563 0-13.125-0.041-19.688-0.093-5.049-0.033-10.097-0.039-15.146-0.038-2.419-3e-3 -4.838-0.016-7.257-0.04-3.389-0.029-6.777-0.02-10.167-2e-3 -0.498-9e-3 -0.498-9e-3 -3.015-0.051-7.239 0.097-10.508 2.024-15.943 6.78z" fill="#961919"/>
<path transform="translate(2003.1 514.88)" d="m0 0c1.092-1e-3 2.183-2e-3 3.308-3e-3 1.209 4e-3 2.418 8e-3 3.664 0.012 0.638 1e-3 0.638 1e-3 3.869 2e-3 4.31 2e-3 8.62 0.012 12.93 0.022 3.077 4e-3 6.155 7e-3 9.232 0.01 9.26 0.01 18.52 0.03 27.78 0.05 4.36 0.01 8.72 0.018 13.081 0.027 14.494 0.029 28.988 0.061 43.482 0.1 3.763 0.01 7.526 0.021 11.289 0.031 0.467 1e-3 0.467 1e-3 2.834 7e-3 15.144 0.04 30.288 0.064 45.433 0.08 15.546 0.016 31.093 0.048 46.64 0.095 8.73 0.025 17.459 0.044 26.188 0.047 8.215 2e-3 16.429 0.025 24.643 0.061 3.015 0.011 6.029 0.014 9.044 0.01 4.117-4e-3 8.234 0.016 12.351 0.042 0.596-4e-3 0.596-4e-3 3.61-0.022 10.152 0.111 18.729 2.604 26.5 9.548 2.574 8.021-1.967 16.577-5 24-2.026 3.641-4.347 6.795-7 10-1.168 1.519-2.335 3.04-3.5 4.562-1.165 1.481-2.332 2.96-3.5 4.438-4.942 6.315-9.825 12.668-14.566 19.136-2.623 3.556-5.318 6.747-8.434 9.864-1.353 1.987-2.686 3.987-4 6-1.328 1.67-2.662 3.337-4 5-0.825 1.175-1.65 2.351-2.5 3.562-2.054 2.825-4.054 4.991-6.5 7.438-1.449 1.932-2.898 3.865-4.339 5.804-2.583 3.415-5.312 6.705-8.036 10.008-4.599 5.605-8.992 11.291-13.137 17.246-1.488 1.942-1.488 1.942-3.488 2.942-3.296 0.093-6.57 0.125-9.866 0.113-1.024 0-2.049 0-3.104 1e-3 -3.398-1e-3 -6.796-9e-3 -10.194-0.017-2.351-2e-3 -4.703-3e-3 -7.054-4e-3 -6.198-4e-3 -12.396-0.014-18.593-0.025-6.321-0.01-12.642-0.015-18.962-0.02-12.409-0.01-24.818-0.027-37.227-0.048 0.686-5.008 1.715-7.415 5.062-11.25 0.815-0.953 1.63-1.906 2.469-2.887 0.815-0.945 1.63-1.89 2.469-2.863 1.363-1.681 2.717-3.368 4.062-5.063 2.017-2.532 4.037-5.059 6.075-7.574 3.511-4.342 6.813-8.68 9.863-13.363 2.286-2.973 4.589-5.59 7.25-8.25 3.365-4.589 3.263-7.188 2.75-12.75-4.701-1.567-9.548-1.148-14.46-1.146-1.183-3e-3 -2.365-6e-3 -3.583-0.01-3.921-9e-3 -7.841-0.011-11.762-0.012-2.719-4e-3 -5.438-7e-3 -8.157-0.01-5.704-6e-3 -11.409-8e-3 -17.114-8e-3 -7.316 0-14.632-0.013-21.948-0.03-5.618-0.012-11.235-0.014-16.852-0.013-2.698-1e-3 -5.396-6e-3 -8.093-0.013-3.771-0.01-7.541-7e-3 -11.312-1e-3 -1.118-6e-3 -2.236-0.012-3.388-0.017-0.514 2e-3 -0.514 2e-3 -3.118 0.012-0.892 0-1.783-1e-3 -2.701-1e-3 -6.602 0.654-10.274 4.454-14.512 9.249-1.507 1.946-3.014 3.894-4.461 5.886-2.751 3.778-5.657 7.436-8.539 11.114-0.66 0.845-1.32 1.691-2 2.562-1.667 2.032-3.418 3.995-5.188 5.938-3.079 3.482-5.7 7.155-8.312 11-3.543 5.206-7.217 9.887-11.5 14.5-0.683 0.885-1.367 1.771-2.071 2.683-4.149 3.281-7.979 2.98-13.044 2.884-0.507 1e-3 -0.507 1e-3 -3.076 2e-3 -3.349-3e-3 -6.698-0.042-10.047-0.081-2.325-9e-3 -4.649-0.017-6.974-0.022-6.114-0.019-12.228-0.068-18.342-0.123-6.24-0.051-12.481-0.074-18.721-0.099-12.242-0.054-24.484-0.139-36.725-0.244-1-4-1-4 0.625-6.938 2.283-2.944 4.745-5.432 7.375-8.062 0.577-0.867 1.155-1.733 1.75-2.625 2.71-4.066 5.772-7.745 8.883-11.508 3.507-4.248 6.944-8.551 10.367-12.867 0.597-0.751 1.194-1.501 1.809-2.274 3.078-3.908 6.004-7.871 8.816-11.976 2.526-3.652 5.192-6.645 8.375-9.75 2.732-3.282 5.358-6.646 8-10 1.374-1.71 2.749-3.418 4.125-5.125 2.293-2.861 4.51-5.736 6.687-8.688 2.712-3.667 5.655-7.103 8.625-10.562 3.932-4.607 7.549-9.269 10.942-14.282 2.223-3.214 4.646-6.256 7.07-9.32 1.551-2.023 1.551-2.023 3.551-5.148 4.277-6.149 8.354-11.004 16.122-10.994zm93.878 15.119c-0.878 0.469-1.756 0.938-2.66 1.421-5.922 3.274-9.654 6.879-13.34 12.579-1.182 1.712-2.37 3.42-3.563 5.125-0.587 0.845-1.175 1.691-1.781 2.562-2.548 3.558-5.371 6.884-8.297 10.137-3.183 3.786-4.349 6.101-4.984 11.051 0.206 1.361 0.412 2.722 0.625 4.125 4.737 2.368 8.543 2.274 13.699 2.243 0.985 1e-3 1.969 3e-3 2.984 5e-3 3.263 4e-3 6.526-7e-3 9.79-0.018 2.28-1e-3 4.561-2e-3 6.841-1e-3 4.793-2e-3 9.585-0.01 14.378-0.024 6.091-0.016 12.183-0.02 18.275-0.02 4.72 0 9.439-5e-3 14.159-0.013 2.242-3e-3 4.485-5e-3 6.727-6e-3 10.595-7e-3 21.193-0.061 31.782-0.454 1.469-0.05 2.938-0.1 4.452-0.152 8.056-1.154 13.298-6.231 18.163-12.435 0.907-1.362 1.815-2.723 2.75-4.125 1.248-1.751 2.499-3.501 3.75-5.25 3.76-5.318 5.824-9.091 5.25-15.75-2.075-5.796-4.974-7.581-10.375-10.313-1.307-0.677-2.614-1.353-3.961-2.051-5.876-2.624-10.862-2.773-17.29-2.813-0.858-7e-3 -1.716-0.014-2.599-0.02-2.829-0.02-5.657-0.032-8.486-0.042-0.969-4e-3 -1.937-8e-3 -2.935-0.012-5.124-0.021-10.248-0.035-15.372-0.045-5.284-0.011-10.569-0.045-15.854-0.085-4.071-0.026-8.143-0.034-12.214-0.038-1.948-5e-3 -3.896-0.016-5.844-0.035-2.729-0.024-5.456-0.023-8.185-0.016-1.55-6e-3 -3.101-0.012-4.698-0.018-4.664 0.543-7.304 1.917-11.187 4.488z" fill="#961919"/>
<path transform="translate(1672.8 515.64)" d="m0 0c1.227-3e-3 2.454-5e-3 3.719-8e-3 4.081-5e-3 8.161 0.012 12.242 0.028 2.938 1e-3 5.876 1e-3 8.814-1e-3 7.953-1e-3 15.907 0.017 23.86 0.038 7.477 0.016 14.953 0.019 22.43 0.023 14.801 6e-3 29.602 0.026 44.403 0.054 14.372 0.028 28.744 0.049 43.116 0.062 0.443 0 0.443 0 2.687 2e-3l13.35 0.012c36.875 0.031 73.749 0.084 110.62 0.151 1 4 1 4-0.563 6.625-4.989 4.861-10.625 4.619-17.312 4.595-0.882 0-1.764-1e-3 -2.673-1e-3 -2.95-4e-3 -5.9-0.022-8.85-0.04-2.118-5e-3 -4.236-0.01-6.353-0.014-4.558-9e-3 -9.115-0.025-13.672-0.045-7.206-0.032-14.413-0.048-21.619-0.061-17.9-0.034-35.799-0.086-53.698-0.149-13.911-0.048-27.823-0.09-41.735-0.111-7.163-0.012-14.326-0.037-21.49-0.073-4.457-0.019-8.914-0.026-13.371-0.029-2.066-4e-3 -4.132-0.013-6.198-0.028-2.821-0.019-5.643-0.02-8.465-0.017-0.789-2e-3 -0.789-2e-3 -4.783-0.016-4.38 0.378-7.306 1.423-11.218 3.364-1.178 0.472-2.357 0.943-3.571 1.429-1.173 0.477-2.346 0.954-3.554 1.446-1.178 0.472-2.357 0.943-3.571 1.429-3.573 1.833-5.623 3.728-8.304 6.696-0.886 0.934-1.771 1.869-2.684 2.832-5.112 5.532-9.948 11.032-14.316 17.168-0.949 1.155-1.898 2.31-2.875 3.5-2.558 4.212-2.864 6.654-2.125 11.5 4.733 2.366 7.554 2.246 12.833 2.24 0.902 2e-3 1.803 4e-3 2.733 5e-3 3.027 4e-3 6.055-7e-3 9.083-0.018 2.168-1e-3 4.336 0 6.504 1e-3 5.892 0 11.785-0.012 17.677-0.025 6.155-0.013 12.31-0.014 18.466-0.016 11.658-7e-3 23.317-0.023 34.976-0.043 13.272-0.023 26.544-0.034 39.816-0.044 27.304-0.021 54.608-0.056 81.912-0.1 0.608 2.373 0.608 2.373 1 5-1.731 2.027-1.731 2.027-4.188 3.937-3.749 3.101-6.314 5.842-8.812 10.063-4.011 6.398-8.395 11.837-13.547 17.359-2.111 2.273-4.136 4.587-6.141 6.953-3.244 3.611-6.544 6.634-10.312 9.688-0.736 0.6-1.472 1.201-2.231 1.82-4.11 3.291-8.001 5.904-12.769 8.18-0.748 0.644-1.496 1.289-2.266 1.953-3.057 2.288-5.562 3.118-9.234 4.109-6.042 1.645-6.042 1.645-8.834 3.43-8.904 5.035-21.752 3.922-31.68 4.129-0.811 0.019-0.811 0.019-4.915 0.114-24.528 0.523-49.067 0.372-73.599 0.333-7.22-0.01-14.439-0.013-21.659-0.017-18.25-0.011-36.5-0.031-54.751-0.051-19.821-0.022-39.642-0.043-59.463-0.054-8.568-5e-3 -17.136-0.014-25.705-0.028-5.307-8e-3 -10.614-0.011-15.921-0.013-2.459-2e-3 -4.918-6e-3 -7.378-0.011-3.354-7e-3 -6.708-8e-3 -10.063-8e-3 -0.973-3e-3 -1.946-7e-3 -2.949-0.011-4.954 8e-3 -9.699 0.278-14.583 1.125l-1-4c1.363-2.106 1.363-2.106 3.312-4.188 0.636-0.695 1.271-1.389 1.926-2.105 3.527-3.417 6.566-2.828 11.358-2.821h4.951c1.825 6e-3 3.65 0.011 5.475 0.016 1.912 2e-3 3.824 3e-3 5.736 5e-3 4.129 3e-3 8.259 9e-3 12.388 0.018 6.552 0.013 13.103 0.019 19.654 0.024 15.12 0.012 30.239 0.034 45.359 0.056 13.798 0.02 27.597 0.038 41.395 0.048 5.434 4e-3 10.867 0.011 16.301 0.022 39.132 0.081 39.132 0.081 53.556-0.454 0.913-0.031 1.825-0.061 2.765-0.093 7.721-0.361 12.901-1.617 18.824-6.528 1.299-0.598 2.598-1.196 3.937-1.813 4.583-2.468 6.858-5.128 10.063-9.187 0.79-0.785 1.58-1.57 2.394-2.379 2.572-2.587 4.832-5.272 7.106-8.121 2.983-3.739 6.12-7.12 9.5-10.5 2.753-4.13 2.343-7.13 2-12-4.075-2.717-6.856-2.262-11.751-2.279-0.905-6e-3 -1.81-0.011-2.743-0.017-3.044-0.017-6.089-0.02-9.134-0.023-2.178-9e-3 -4.355-0.02-6.533-0.031-5.923-0.027-11.847-0.042-17.77-0.055-6.186-0.016-12.372-0.042-18.558-0.068-11.719-0.047-23.438-0.084-35.157-0.117-13.34-0.038-26.679-0.087-40.019-0.138-27.445-0.103-54.89-0.192-82.335-0.272l-1-4c2.538-3.032 4.225-4.742 8-6 0.247-0.825 0.495-1.65 0.75-2.5 1.771-4.959 4.93-8.47 8.25-12.5 0.35-0.454 0.35-0.454 2.125-2.75 2.149-2.58 4.5-4.876 6.875-7.25 1.089-1.266 2.171-2.538 3.25-3.813 5.492-6.33 11.647-11.728 18.75-16.187l4-3c2.523-1.084 5.077-2.006 7.66-2.938 2.34-1.062 2.34-1.062 5.34-4.062 3.487-0.954 6.903-1.772 10.437-2.5 1.895-0.405 3.79-0.811 5.684-1.219 0.457-0.096 0.457-0.096 2.769-0.582 2.928-0.658 5.79-1.448 8.68-2.257 6.465-1.617 12.547-1.855 19.186-1.803z" fill="#961919"/>
<path transform="translate(855.83 514.62)" d="m0 0c6.693-0.518 10 0.43 15.293 4.688 1.658 1.527 3.288 3.086 4.875 4.687l3 3v2l4 2c1.782 1.824 3.505 3.708 5.187 5.625 4.042 4.509 8.182 8.578 12.766 12.52 2.65 2.402 4.912 5.042 7.219 7.769 3.408 3.889 7.141 7.464 10.828 11.086l3 3c3.291 2.618 5.369 3.911 9.562 4.5 4.101-0.596 5.327-1.834 8.438-4.5 3-1.333 6-2.667 9-4l2.5-2c3.485-2.788 7.433-4.193 11.5-6l2.5-2c3.492-2.794 7.416-4.21 11.5-6 2.006-1.324 4.007-2.657 6-4 1.176-0.495 2.351-0.99 3.562-1.5 3.438-1.5 3.438-1.5 5.75-3.375 3.213-2.54 6.587-4.123 10.262-5.898 2.981-1.508 5.668-3.347 8.426-5.227 0.99-0.474 1.98-0.949 3-1.437 3-1.563 3-1.563 5.812-4.063 3.854-3.022 7.546-4.017 12.188-5.5 0.789-0.678 1.577-1.357 2.39-2.056 5.729-3.085 11.471-2.514 17.877-2.49 1.444-0.01 2.889-0.021 4.377-0.031 4.772-0.03 9.544-0.031 14.317-0.032 3.31-0.015 6.619-0.032 9.929-0.05 7.819-0.041 15.639-0.061 23.459-0.074 8.904-0.016 17.809-0.055 26.713-0.095 18.313-0.082 36.625-0.137 54.938-0.172v3c-6.305 4.841-13.022 7.484-20.68 9.262-3.311 1.053-4.954 3.25-7.32 5.738-2.428 1.128-4.871 2.04-7.402 2.91-2.598 1.09-2.598 1.09-5.192 2.867-5.686 3.71-11.926 6.323-18.084 9.157-4.936 2.31-9.15 4.511-13.322 8.066-2.395 1.09-2.395 1.09-4.813 1.937-4.808 1.81-8.835 4.326-13.187 7.063-1.361 0.495-2.723 0.99-4.125 1.5-3.875 1.5-3.875 1.5-6.813 4-3.777 3.083-7.452 3.984-12.062 5.5l-3.5 2.5c-3.5 2.5-3.5 2.5-8.125 4-4.375 1.5-4.375 1.5-6.75 4-3.421 3.258-6.544 3.688-11.059 4.758-3.212 0.929-5.029 2.595-7.566 4.742-1.587 0.688-3.194 1.329-4.813 1.937-7.157 2.727-13.019 6.379-18.187 12.063-0.606 0.66-1.212 1.32-1.836 2-3.98 4.391-7.714 8.906-11.312 13.613-2.089 2.693-4.246 5.321-6.415 7.95-9.307 11.334-9.307 11.334-12.25 16.812-3.079 3.696-6.625 3.968-11.187 4.625-3.431 0.169-6.775 0.254-10.201 0.227-0.977 0-1.954 1e-3 -2.96 1e-3 -3.198-1e-3 -6.395-0.017-9.593-0.033-2.229-3e-3 -4.458-6e-3 -6.687-8e-3 -5.845-8e-3 -11.689-0.027-17.533-0.05-5.973-0.02-11.946-0.029-17.919-0.039-11.702-0.022-23.405-0.056-35.107-0.098 0-4.917 1.657-6.17 4.871-9.664 5.795-6.359 11.054-13.205 16.309-20.012 4.465-5.701 9.059-11.306 13.82-16.761 3.677-4.711 3.481-9.795 3-15.563-2.188-2.25-2.188-2.25-5-4-1.688-1.645-3.354-3.313-5-5-0.423-0.413-0.423-0.413-2.563-2.5-2.437-2.5-2.437-2.5-4.25-4.875-2.387-2.865-5.095-5.152-7.907-7.587-3.982-3.559-7.713-7.367-11.468-11.163-0.78-0.785-1.561-1.57-2.365-2.379-1.499-1.508-2.998-3.018-4.495-4.528-1.56-1.573-3.124-3.14-4.69-4.706-1.593-1.593-3.18-3.193-4.762-4.797-0.413-0.417-0.413-0.417-2.5-2.528-0.413-0.418-0.413-0.418-2.5-2.535-2.395-2.301-4.906-4.332-7.5-6.402-0.299-0.382-0.299-0.382-1.813-2.313-3.023-3.715-6.538-6.585-10.187-9.687l1-2c3.109-0.321 6.132-0.52 9.25-0.625 0.909-0.031 1.819-0.063 2.756-0.095 1.826-0.061 3.653-0.12 5.48-0.175 2.119-0.088 4.235-0.273 6.346-0.48z" fill="#961919"/>
<path transform="translate(622.6 514.85)" d="m0 0c0.792-4e-3 0.792-4e-3 4.801-0.022 1.758-3e-3 3.516-5e-3 5.274-8e-3 1.85-6e-3 3.699-0.013 5.549-0.02 5.025-0.017 10.049-0.028 15.074-0.036 3.136-5e-3 6.273-0.011 9.409-0.017 9.806-0.02 19.613-0.034 29.419-0.042 11.334-0.01 22.669-0.036 34.003-0.077 8.754-0.03 17.508-0.045 26.263-0.048 5.232-2e-3 10.465-0.011 15.697-0.036 4.917-0.023 9.833-0.028 14.75-0.018 1.808 1e-3 3.617-5e-3 5.425-0.019 2.46-0.018 4.92-8e-3 7.38 2e-3 1.38-2e-3 2.759-4e-3 4.18-7e-3 0.523 0.082 0.523 0.082 3.171 0.495l2 4c-2.875 3.625-2.875 3.625-4.879 5.746-5.548 5.896-10.333 12.519-15.246 18.942-2.673 3.493-5.351 6.941-8.25 10.25-2.487 2.901-4.54 5.866-6.625 9.062-2.654 3.379-5.388 6.688-8.125 10-4.31 5.25-8.434 10.626-12.515 16.055-2.295 2.864-4.751 5.37-7.36 7.945-1.217 1.455-2.407 2.933-3.562 4.438-0.558 0.72-1.117 1.441-1.692 2.183-1.255 1.71-2.444 3.469-3.59 5.254-2.437 3.533-5.16 6.555-8.093 9.688-1.02 1.094-2.04 2.188-3.09 3.316-2.619 2.75-5.283 5.441-7.973 8.121-1.093 1.176-2.186 2.351-3.312 3.563-3.468 3.498-7.24 5.323-11.688 7.437-0.604 0.655-1.209 1.31-1.832 1.985-2.738 2.545-5.073 3.125-8.668 4.078-4.511 1.205-6.658 2.056-10.5 4.937-3.398 0.695-3.398 0.695-7.375 1.125-1.286 0.147-2.573 0.294-3.898 0.445-1.56 0.142-3.12 0.284-4.727 0.43-0.86 0.085-1.72 0.17-2.606 0.257-12.479 1.073-24.98 0.876-37.493 0.857-2.632-1e-3 -5.265 0-7.898 0-7.112 0-14.225-5e-3 -21.337-0.012-7.446-7e-3 -14.892-7e-3 -22.338-8e-3 -14.084-4e-3 -28.169-0.012-42.253-0.022-16.041-0.011-32.082-0.016-48.124-0.022-32.983-0.01-65.967-0.028-98.951-0.05 0.658-4.846 2.442-7.426 6.292-10.565 5.699-3.02 12.103-2.328 18.398-2.214 1.573 1e-3 3.147 2e-3 4.768 2e-3 4.306 2e-3 8.609 0.048 12.914 0.1 4.531 0.048 9.062 0.055 13.593 0.066 8.6 0.027 17.199 0.089 25.799 0.164 12.543 0.107 25.086 0.163 37.63 0.219 1.868 8e-3 3.737 0.017 5.606 0.025 0.914 4e-3 1.829 8e-3 2.771 0.013 5.365 0.025 10.73 0.06 16.095 0.103 30.122 0.243 30.122 0.243 43.575-0.279 0.893-0.031 1.786-0.062 2.706-0.095 5.828-0.282 11.515-0.643 16.166-4.414 2.687-2.125 2.687-2.125 7.312-3.812 13.543-5.139 23.726-18.197 32.375-29.313 1.331-1.669 2.664-3.335 4-5 2.028-2.532 4.053-5.066 6.071-7.605 2.976-3.741 5.959-7.429 9.117-11.02 2.812-3.375 2.812-3.375 5-7.062 3.032-5.087 7.194-9.123 11.23-13.418 3.077-3.45 5.229-6.928 7.582-10.895 1.031-1.196 2.063-2.392 3.125-3.625 4.178-4.904 6.04-8.137 5.946-14.574-0.024-1.584-0.047-3.169-0.071-4.801-9.574 0.118-19.149 0.243-28.723 0.372-3.257 0.044-6.514 0.085-9.771 0.125-4.682 0.058-9.363 0.122-14.045 0.187-0.728 8e-3 -0.728 8e-3 -4.413 0.05-1.361 0.02-2.722 0.04-4.124 0.061-1.195 0.015-2.39 0.031-3.621 0.047-3.303 0.158-3.303 0.158-6.61 0.796-0.889 0.12-1.777 0.239-2.693 0.362-2-2-2-2-2.062-4.25 1.621-4.196 4.515-6.105 8.062-8.75 4.087-1.021 7.4-1.134 11.605-1.147z" fill="#961919"/>
<path transform="translate(407,290)" d="m0 0c7.625-0.678 14.296 2.03 20.938 5.562 2.988 1.403 5.604 2.083 8.812 2.813 5.061 1.195 9.3 2.917 13.871 5.367 2.337 1.236 4.696 2.289 7.129 3.32 3.765 1.717 6.846 3.62 10.25 5.938 2.658 1.35 5.325 2.683 8 4 10.561 5.846 20.6 12.428 30 20 1.011 0.66 2.021 1.32 3.062 2 2.671 1.818 4.705 3.69 6.938 6l3 2c0.58 3.707 0.345 5.46-1.688 8.641-0.763 0.861-1.526 1.722-2.312 2.609-0.821 0.95-1.642 1.9-2.488 2.879-0.829 0.947-1.658 1.895-2.512 2.871-11.877 14.53-11.877 14.53-16.562 22.188-2.256 3.527-4.428 5.945-7.438 8.812-3.193 3.453-6.264 6.895-8.875 10.812-2.667 4.001-5.7 7.622-8.762 11.325-3.505 4.247-6.93 8.557-10.363 12.863-1.333 1.667-2.666 3.334-4 5-0.659 0.825-1.317 1.65-1.996 2.5-1.34 1.672-2.687 3.338-4.039 5-3.288 4.055-6.45 8.131-9.403 12.438-3.243 4.715-6.791 9.12-10.449 13.519-1.401 1.686-2.786 3.387-4.152 5.102-1.832 2.281-3.716 4.494-5.649 6.691-0.601 0.686-1.203 1.372-1.824 2.078-2.363 2.655-2.363 2.655-5.176 3.047-4.426-0.501-6.064-2.398-9.312-5.375-1.988-1.351-3.986-2.688-6-4-1.799-1.799-1.173-4.451-1.188-6.875-0.014-1.07-0.028-2.14-0.042-3.242 0.23-2.883 0.23-2.883 2.23-5.883 2.609-0.625 2.609-0.625 5.75-1 8.77-1.323 8.77-1.323 12.25-4 2.42-5.476 3.383-10.391 4-16.312 1.514-9.501 5.836-13.703 13-19.688 1.85-3.701 1.363-6.95 1-11-1.425-2.027-2.86-4.056-4.469-5.941-2.512-3.378-3.358-7.045-4.531-11.059-1-1-1-1-3.389-1.066-1.04 0.024-2.079 0.049-3.15 0.074-1.138 0.017-2.277 0.033-3.449 0.051-2.401 0.043-4.803 0.095-7.203 0.156-9.366 0.116-15.062-1.334-22.247-7.59-4.331-3.653-8.664-6.749-13.562-9.625-0.791-0.516-1.583-1.031-2.398-1.562-5.526-3.537-10.118-5.392-16.602-6.438v-1c11.341-0.366 22.603 1.029 33.758 3.012 7.474 1.273 14.969 1.684 22.531 2.111 7.536 0.499 14.442 1.862 21.711 3.877 9.06 2.243 17.969 4.349 27.266 5.312 3.345 0.842 5.094 2.521 7.734 4.688 3.812 0.25 3.812 0.25 7 0 0.411-4.684 0.276-7.456-1.875-11.688-3.403-3.607-6.325-5.125-10.773-7.132-3.068-1.539-5.001-3.705-7.352-6.18-1.361-0.804-2.722-1.609-4.125-2.438-4.174-2.76-5.094-4.025-6.875-8.562-0.23-3.051-0.23-3.051-0.188-6.312-0.491-9.831-4.728-20.172-11.363-27.508-1.922-1.711-3.895-3.363-5.887-4.992-2.763-2.473-4.539-4.37-6.624-7.313-2.794-3.685-5.09-5.459-8.938-7.875l-1-3z"/>
<path transform="translate(1350.2 535.71)" d="m0 0c2.135 6e-3 4.27 0.01 6.406 0.013 5.583 0.011 11.165 0.041 16.748 0.074 5.712 0.031 11.423 0.044 17.135 0.059 11.18 0.033 22.359 0.084 33.539 0.147l1 4c-3.016 4.489-6.191 8.191-10 12-0.804 1.134-1.609 2.269-2.437 3.437-7.485 10.036-15.228 18.436-27.563 21.563-0.66 0.278-0.66 0.278-4 1.687-10.635 3.49-22.51 2.445-33.574 2.411-1.778-2e-3 -3.556-4e-3 -5.334-5e-3 -4.644-3e-3 -9.288-0.013-13.932-0.024-4.753-0.011-9.506-0.015-14.259-0.02-9.301-0.011-18.601-0.028-27.901-0.049 1.121-4.483 2.572-6.165 5.563-9.625 0.903-1.06 1.807-2.119 2.738-3.211 0.445-0.522 0.445-0.522 2.699-3.164 12.902-15.772 12.902-15.772 16.125-22.313 7.833-10.046 25.433-7.07 37.047-6.98z" fill="#FAFAFA"/>
<path transform="translate(2112.5 536.87)" d="m0 0c0.421-1e-3 0.421-1e-3 2.55-5e-3 2.777-5e-3 5.553-2e-3 8.33 2e-3 1.94-1e-3 3.879-2e-3 5.819-3e-3 4.067-2e-3 8.134 0 12.2 5e-3 5.188 6e-3 10.376 2e-3 15.564-4e-3 4.008-3e-3 8.017-2e-3 12.025 1e-3 1.911 0 3.822-1e-3 5.733-3e-3 26.565-0.025 26.565-0.025 31.308 3.136 0.79 8.951-1.816 13.881-7.313 20.688-0.738 0.932-1.477 1.864-2.238 2.824-4.064 4.129-7.718 5.647-13.461 5.849-2.014 9e-3 -4.028 1e-3 -6.042-0.02-1.103 0-2.206 1e-3 -3.343 1e-3 -3.636-2e-3 -7.272-0.025-10.908-0.049-2.525-5e-3 -5.05-0.01-7.575-0.012-6.638-0.012-13.276-0.041-19.915-0.075-6.776-0.03-13.553-0.044-20.33-0.059-13.292-0.032-26.584-0.083-39.875-0.147 0-5.44 0.114-5.716 3.625-9.312 4.698-4.997 8.817-10.108 12.375-16 5.24-7.041 13.414-6.813 21.471-6.817z" fill="#FAFAFA"/>
<path transform="translate(224,656)" d="m0 0c3.105 6.005 3.821 12.312 4.562 18.938 0.12 1.033 0.239 2.066 0.362 3.131 0.246 2.186 0.485 4.372 0.718 6.56 0.24 2.261 0.489 4.522 0.748 6.781 0.376 3.34 0.717 6.682 1.048 10.028 0.058 0.511 0.058 0.511 0.355 3.099 0.779 8.68-1.067 13.835-6.379 20.904-0.92 1.03-1.841 2.06-2.789 3.121-6.19 7.065-6.19 7.065-8.687 10.5-3.393 4.548-7.012 8.867-10.668 13.204-1.821 2.193-3.56 4.454-5.27 6.734h-2c0.405-6.397 1.152-11.45 3.271-17.526 1.298-4.405 1.634-8.92 2.104-13.474 0.991-8.592 2.759-16.4 5.426-24.648 1.663-6.036 2.468-12.104 3.211-18.311 0.53-4.335 1.251-8.041 2.988-12.041 0.211-4.503 0.095-8.62-1-13 6.609-4 6.609-4 12-4z"/>
<path transform="translate(2339,627)" d="m0 0 4 1c-0.14 2.813-0.287 5.625-0.438 8.438-0.081 1.566-0.162 3.132-0.246 4.746-0.316 3.816-0.316 3.816-1.316 4.816h-5l-1-1c0.406-6.497 1.771-11.894 4-18z" fill="#FAFAFA"/>
<path transform="translate(2299,632)" d="m0 0 5 1c0.125 6.75 0.125 6.75-1 9h-4v-10z" fill="#FAFAFA"/>
<path transform="translate(2321,651)" d="m0 0h4v4h-4v-4z" fill="#FAFAFA"/>
<path transform="translate(2319,637)" d="m0 0 2 1v2c-0.99-0.33-1.98-0.66-3-1l1-2z" fill="#961919"/>
</svg>
