<?xml version="1.0" encoding="UTF-8"?>
<svg version="1.1" viewBox="0 0 2744 1144" xmlns="http://www.w3.org/2000/svg">
<path transform="translate(2320.8 413.93)" d="m0 0c4.871 1.232 9.692 1.874 14.668 2.508 6.415 0.858 11.795 2.052 17.402 5.375 2.412 1.325 4.69 1.99 7.348 2.687 4.718 1.299 7.854 3.602 11.812 6.5 1.692 0.708 3.402 1.373 5.125 2 4.334 1.624 6.75 3.527 9.875 7 1.987 1.353 3.988 2.686 6 4 4.808 3.554 8.285 7.635 11.918 12.325 1.367 1.756 2.765 3.489 4.196 5.195 4.062 4.858 7.199 9.568 9.871 15.312 1.015 2.168 1.015 2.168 2.578 4.668 1.856 3.229 3.085 6.61 4.375 10.098 1.062 2.402 1.062 2.402 4.062 6.402 0.741 2.999 1.374 6.026 1.938 9.063 1.02 5.302 2.047 10.393 4.187 15.375 5.397 14.193 4.053 30.729 4.063 45.687 1e-3 0.846 2e-3 1.691 3e-3 2.562-6e-3 42.224-6e-3 42.224-5.706 53.243-1.767 3.654-2.267 6.937-2.86 10.945-1.129 6.528-2.934 10.59-6.625 16.125-0.584 2.046-1.101 4.111-1.562 6.188-1.048 4.689-2.205 7.199-5.438 10.812-0.757 1.507-1.483 3.03-2.187 4.563-6.997 14.311-18.829 26.395-31.813 35.437l-4 3c-1.051 0.433-2.103 0.867-3.187 1.313-3.134 1.387-5.428 2.737-8.188 4.687-3.084 2.136-5.853 3.576-9.437 4.688-4.188 1.312-4.188 1.312-8.188 4.312-2.789 0.741-5.607 1.374-8.437 1.938-6.683 1.395-13.109 3.033-19.57 5.23-9.108 2.533-18.658 2.018-28.027 2.018-2.694 2e-3 -5.388 0.02-8.083 0.039-22.252 0.078-22.252 0.078-31.508-4.229-4.829-2.203-9.182-3.084-14.375-3.933-7.27-1.313-12.797-3.031-19-7.063-1.32-0.474-2.64-0.948-4-1.437-7.844-3.064-14.344-8.492-21-13.563-1.258-0.887-2.516-1.773-3.812-2.687-8.211-6.183-15.11-13.389-20.188-22.313-0.66-0.783-1.32-1.567-2-2.375-2.457-3.225-4.086-6.638-5.843-10.281-1.157-2.344-1.157-2.344-2.719-4.844-1.841-3.201-3.08-6.546-4.375-10-1.063-2.5-1.063-2.5-2.563-4.707-2.124-3.955-2.729-8.106-3.5-12.48-2.003-10.777-2.003-10.777-3.625-15.438-4.191-12.95-3.706-27.798-3.625-41.25 7e-3 -1.616 0.014-3.232 0.021-4.897 0.134-15.5 0.802-30.172 5.229-45.13 1.058-3.804 1.758-7.585 2.438-11.473 1.022-5.385 2.466-9.234 5.379-13.824 1.473-2.864 2-5.581 2.621-8.738 1.142-5.565 2.99-9.584 6.102-14.305 1.46-2.258 1.46-2.258 3.273-6.195 2.491-4.627 5.505-8.325 8.891-12.324 2.047-2.441 3.96-4.933 5.859-7.489 8.901-11.506 21.97-19.193 34.437-26.25 0.379-0.246 0.379-0.246 2.297-1.492 4.004-2.233 8.247-3.225 12.645-4.445 3.058-1.063 3.058-1.063 7.058-4.063 2.917-0.596 5.861-1.055 8.813-1.437 5.624-0.749 11.212-1.53 16.777-2.641 18.28-3.627 36.02-5.039 54.18 8e-3zm-59.77 47.07c-1.402 0.413-2.805 0.825-4.25 1.25-4.551 1.415-7.409 3.669-10.828 6.934-1.922 1.816-1.922 1.816-4.402 3.734-8.699 7.189-16.091 18.606-20.02 29.082-1.5 4-1.5 4-3.492 7.25-2.157 4.03-2.925 7.25-3.633 11.75-0.238 1.485-0.476 2.97-0.722 4.5-0.783 5.401-1.502 10.808-2.184 16.223-0.469 3.277-0.469 3.277-1.531 7.715-1.4 6.814-1.655 13.622-1.938 20.562-0.054 1.062-0.108 2.125-0.164 3.219-0.256 9.039 1.156 17.804 2.651 26.69 0.583 3.511 1.133 7.028 1.685 10.544 0.421 2.6 0.843 5.199 1.266 7.797 0.193 1.238 0.386 2.475 0.585 3.75 1.121 6.698 2.592 12.023 5.977 18 0.792 1.93 1.564 3.867 2.313 5.813 3.461 8.402 7.437 15.6 14.687 21.187 2.021 2.316 4.021 4.65 6 7 3.993 4.285 7.792 6.896 13 9.5 3 1.5 3 1.5 5.331 3.021 9.509 5.27 22.865 3.783 33.357 3.729 1.527 8e-3 3.054 0.016 4.627 0.024 20.207-0.035 20.207-0.035 27.81-5.149 2.979-1.939 5.589-3.437 8.875-4.875 8.373-4.709 14.115-11.697 18.704-20.023 1.296-2.227 1.296-2.227 3.859-5.102 3.579-4.588 5.332-9.74 7.437-15.125 0.557-1.196 1.114-2.392 1.688-3.625 1.346-3.461 2.052-6.841 2.711-10.488 0.96-4.607 2.348-9.084 3.699-13.59 3.725-13.611 3.089-28.407 3.088-42.397 2e-3 -2.529 0.02-5.058 0.039-7.587 0.016-13.19-1.191-25.423-4.725-38.125-1.286-4.664-2.518-9.275-3.507-14.012-1.156-4.863-3.26-8.012-5.993-12.176-0.515-1.382-1.031-2.763-1.562-4.187-3.001-7.131-9.092-12.389-14.438-17.813-0.867-0.912-1.735-1.825-2.628-2.765-2.372-2.235-2.372-2.235-6.372-4.235l-2-4c-3.704-2.646-7.807-4.265-12-6-0.587-0.268-0.587-0.268-3.562-1.625-8.203-3.281-16.989-2.595-25.686-2.615-2.612-0.01-5.222-0.041-7.834-0.072-1.678-7e-3 -3.356-0.012-5.035-0.016-1.512-9e-3 -3.024-0.019-4.581-0.028-6.567 0.544-11.053 2.42-16.302 6.356z" fill="#193232"/>
<path transform="translate(1966.8 409.62)" d="m0 0c0.717 1e-3 0.717 1e-3 4.344 4e-3 12.467 0.101 24.905 0.982 36.968 4.308 5.255 1.403 10.458 2.553 15.813 3.5 5.532 1.064 9.958 2.647 14.863 5.379 2.262 1.184 2.262 1.184 6.824 2.621 7.535 2.653 12.905 6.88 18.438 12.563 0.474 0.299 0.474 0.299 2.875 1.813 4.069 2.848 6.989 6.391 10.125 10.187 0.38 0.437 0.38 0.437 2.305 2.648 4.779 5.595 7.986 10.529 10.695 17.352 0.659 1.042 1.317 2.083 1.996 3.156 2.329 4.467 3.123 8.664 3.754 13.594 0.12 0.882 0.24 1.763 0.364 2.672 0.814 6.289 1.509 12.262 0.886 18.578-4.04 3.03-4.519 3.376-9.148 3.372-1.025 7e-3 -2.049 0.013-3.105 0.019-1.101-9e-3 -2.202-0.018-3.337-0.028-0.568 1e-3 -0.568 1e-3 -3.444 2e-3 -2.404-3e-3 -4.807-0.012-7.21-0.029-3.676-0.023-7.351-0.02-11.027-0.014-2.336-5e-3 -4.671-0.012-7.006-0.021-1.099 1e-3 -2.199 2e-3 -3.331 3e-3 -1.028-0.01-2.055-0.02-3.114-0.029-0.451-3e-3 -0.451-3e-3 -2.73-0.014-2.86-0.293-4.977-0.981-7.548-2.261-2.684-3.739-3.161-6.965-3.438-11.437-0.362-5.17-1.629-8.204-4.562-12.563-0.4-0.758-0.799-1.516-1.211-2.297-5.648-10.512-13.788-17.369-24.789-21.703-1.67-1.329-3.338-2.661-5-4-4.819-1.434-9.85-1.162-14.832-1.168-0.951-3e-3 -1.901-7e-3 -2.881-0.01-2.008-5e-3 -4.016-7e-3 -6.024-7e-3 -3.054-2e-3 -6.109-0.021-9.163-0.04-1.957-3e-3 -3.913-5e-3 -5.87-5e-3 -0.452-4e-3 -0.452-4e-3 -2.743-0.022-6.596 0.023-12.758 0.372-18.299 4.189-3.104 2.009-5.088 2.624-8.626 3.438-5.444 1.352-8.522 3.665-12.562 7.625-0.866 0.681-1.733 1.361-2.625 2.063-8.701 7.098-15.742 16.28-21.375 25.937-0.701 1.072-1.402 2.145-2.125 3.25-2.093 4.187-3.045 8.12-3.969 12.687-0.906 3.063-0.906 3.063-2.898 6.333-2.375 4.412-3.058 8.518-3.633 13.417-0.118 0.923-0.235 1.845-0.357 2.795-0.239 1.911-0.47 3.823-0.693 5.737-0.3 2.564-0.626 5.126-0.954 7.687-2.104 18.007-2.928 36.46 0.852 54.278 0.786 3.859 1.203 7.648 1.589 11.566 0.81 6.459 2.807 11.53 5.743 17.309 1.289 2.623 2.195 5.081 3.007 7.878 1.536 4.339 3.402 6.657 6.438 10.063 0.557 1.052 1.114 2.104 1.688 3.187 5.45 8.986 11.985 15.149 21.312 19.813 0.969 0.846 1.939 1.691 2.938 2.563 3.398 2.704 6.541 3.997 10.597 5.445 2.465 0.992 2.465 0.992 4.571 2.481 11.86 6.193 31.267 3.824 44.404 3.772 3.185-0.011 6.369 0 9.554 0.012 33.079 0.027 33.079 0.027 39.936-5.273 2.027-4.054 2.26-5.717 2.291-10.11 0.012-1.236 0.025-2.471 0.038-3.743 2e-3 -1.333 5e-3 -2.665 7e-3 -4.038 7e-3 -1.373 0.013-2.747 0.02-4.162 0.01-2.909 0.015-5.817 0.015-8.726 4e-3 -4.44 0.04-8.879 0.078-13.319 6e-3 -2.826 0.01-5.653 0.012-8.48 7e-3 -0.662 7e-3 -0.662 0.043-4.013-0.036-7.32-0.572-12.185-4.504-18.409-0.504-0.91-1.008-1.82-1.527-2.758-2.847-4.779-5.886-8.977-9.473-13.242-0.46-0.929-0.92-1.859-1.395-2.816-1.623-3.221-3.469-5.97-5.605-8.871-0.34-0.466-0.34-0.466-2.062-2.825-1.938-2.488-1.938-2.488-4.938-5.488v-5c5.185-0.864 10.129-1.109 15.382-1.069 0.404 2e-3 0.404 2e-3 2.447 0.014 2.647 0.018 5.294 0.044 7.941 0.071 1.846 0.016 3.692 0.033 5.538 0.05 3.857 0.036 7.714 0.077 11.572 0.121 4.951 0.055 9.902 0.092 14.853 0.124 3.806 0.027 7.612 0.068 11.419 0.113 1.826 0.019 3.653 0.034 5.479 0.043 2.545 0.014 5.089 0.049 7.634 0.085 1.449 0.014 2.898 0.028 4.391 0.043 1.103 0.133 2.207 0.267 3.344 0.405 2.293 3.44 2.254 4.707 2.267 8.756 5e-3 0.6 5e-3 0.6 0.026 3.637-1e-3 1.318-2e-3 2.637-2e-3 3.995 6e-3 1.387 0.013 2.775 0.02 4.204 0.019 4.602 0.023 9.204 0.025 13.806 6e-3 3.19 0.013 6.38 0.02 9.57 0.012 6.693 0.016 13.387 0.015 20.08-2e-3 7.736 0.02 15.472 0.051 23.208 0.029 7.442 0.037 14.883 0.035 22.324 3e-3 3.167 0.012 6.334 0.027 9.5 0.02 4.425 0.014 8.848 2e-3 13.273 0.011 1.314 0.022 2.629 0.034 3.983-8e-3 1.206-0.017 2.412-0.026 3.654 2e-3 1.046 3e-3 2.092 4e-3 3.17-0.63 3.592-1.985 5.241-4.498 7.84-10.756 6.047-22.992 7.819-35 9.75-2.61 0.434-5.219 0.873-7.827 1.315-2.344 0.396-4.69 0.778-7.036 1.161-4.137 0.774-4.137 0.774-7.305 1.806-10.489 2.649-21.815 2.144-32.574 2.206-1.366 8e-3 -2.732 0.016-4.14 0.025-2.875 0.013-5.751 0.024-8.627 0.032-2.893 0.012-5.786 0.032-8.679 0.062-21.139 0.215-41.029-0.882-61.416-6.726-3.093-0.815-6.152-1.154-9.334-1.444-6.218-0.802-10.841-2.727-16.3-5.738-2.578-1.353-4.978-2.252-7.762-3.074-4.106-1.411-5.099-2.386-8-5.375-1.524-0.786-3.069-1.531-4.625-2.25-7.52-3.593-13.538-8.876-19.375-14.75-0.804-0.639-1.609-1.279-2.438-1.937-5.32-4.283-9.09-9.047-12.914-14.661-1.492-2.174-3.066-4.292-4.648-6.402-0.474-0.969-0.949-1.939-1.438-2.937-1.562-3.063-1.562-3.063-3.562-5.188-2.611-3.753-3.221-7.392-4.094-11.84-0.906-3.035-0.906-3.035-2.902-5.949-2.325-3.581-2.894-6.323-3.566-10.523-0.238-1.399-0.475-2.798-0.719-4.239-0.237-1.427-0.475-2.854-0.719-4.324-0.508-2.711-1.028-5.419-1.562-8.125-0.229-1.178-0.457-2.356-0.692-3.57-0.746-3.305-0.746-3.305-1.766-6.254-7.33-22.808-4.397-52.801 3.02-75.051 0.508-2.974 0.984-5.954 1.438-8.937 0.932-5.894 1.988-11.075 4.46-16.493 1.964-4.581 3.298-9.391 4.758-14.152 1.361-3.461 2.941-5.618 5.344-8.418 1.351-2.658 2.683-5.325 4-8 1.641-2.682 3.306-5.351 5-8 0.474-0.887 0.949-1.774 1.438-2.687 2.073-3.07 4.678-5.005 7.562-7.313 2.687-2.556 5.097-5.12 7.438-8 2.627-3.076 5.421-5.461 8.562-8 0.66-0.701 1.32-1.403 2-2.125 2.453-2.3 4.978-3.392 8-4.875 2.28-1.469 4.518-2.992 6.762-4.516 2.994-1.985 6.102-3.735 9.238-5.484 0.759-0.491 1.519-0.982 2.301-1.488 2.996-1.679 5.835-2.579 9.137-3.512 3.329-0.943 6.245-1.825 9.277-3.504 5.499-2.504 11.406-2.988 17.347-3.869 5.141-0.815 9.767-1.868 14.633-3.732 7.608-2.659 15.076-2.405 23.055-2.27z" fill="#193232"/>
<path transform="translate(1620,419)" d="m0 0c5.086 5.086 4.158 9.653 4.172 16.527 3e-3 0.608 3e-3 0.608 0.019 3.684 0.02 4.103 0.033 8.205 0.046 12.308 0.013 2.93 0.026 5.86 0.04 8.789 0.035 7.979 0.065 15.959 0.092 23.938 0.021 5.813 0.043 11.627 0.066 17.44 0.061 15.625 0.117 31.249 0.169 46.874 3e-3 0.888 6e-3 1.776 9e-3 2.69 2e-3 0.89 5e-3 1.779 8e-3 2.694 0.049 14.412 0.107 28.823 0.169 43.234 0.064 14.785 0.121 29.57 0.17 44.355 0.027 8.306 0.058 16.611 0.097 24.917 0.036 7.809 0.062 15.618 0.081 23.427 9e-3 2.871 0.021 5.743 0.036 8.615 0.021 3.909 0.03 7.818 0.035 11.727 9e-3 1.147 0.018 2.293 0.028 3.474-1e-3 1.045-3e-3 2.09-4e-3 3.166 4e-3 0.903 7e-3 1.806 0.01 2.736-0.243 2.405-0.243 2.405-2.243 6.405-2.468 1.234-4.265 1.206-7.023 1.316-1.023 0.042-2.045 0.084-3.098 0.127-1.074 0.04-2.148 0.079-3.254 0.119-1.035 0.044-2.07 0.087-3.137 0.131-9.81 0.385-19.618 0.528-29.426-5e-3 -1.225-0.059-2.451-0.117-3.714-0.176-3.546-0.542-5.5-1.367-8.348-3.512-2.513-3.77-1.837-5.94-1.303-10.29 0.457-4.085 0.439-8.144 0.448-12.252 4e-3 -0.896 7e-3 -1.792 0.01-2.715 0.01-2.93 0.012-5.86 0.013-8.79 3e-3 -2.06 7e-3 -4.119 0.01-6.179 6e-3 -4.307 8e-3 -8.614 7e-3 -12.92 0-5.485 0.014-10.97 0.031-16.454 0.011-4.252 0.013-8.504 0.013-12.756 1e-3 -2.02 5e-3 -4.041 0.013-6.061 0.102-29.188 0.102-29.188-4.195-35.412-4.234-3.017-8.081-2.899-13.095-2.878-1.008-0.015-2.017-0.031-3.057-0.046-3.333-0.044-6.666-0.053-10-0.059-2.324-0.021-4.647-0.044-6.97-0.068-4.871-0.045-9.742-0.074-14.614-0.089-6.226-0.021-12.452-0.077-18.678-0.145-4.8-0.05-9.6-0.084-14.4-0.113-2.294-0.015-4.589-0.034-6.883-0.058-3.219-0.03-6.437-0.039-9.655-0.043-0.938-0.012-1.876-0.025-2.843-0.037-6.469 0.021-11.773 1.091-17.852 3.365-2.991 4.486-2.283 9.173-2.271 14.4-3e-3 0.588-3e-3 0.588-0.016 3.563-0.01 2.557-0.016 5.114-0.018 7.671-4e-3 4.042-0.02 8.084-0.041 12.126-0.055 11.494-0.086 22.988-0.11 34.482-0.016 7.025-0.046 14.051-0.085 21.076-0.012 2.683-0.018 5.365-0.018 8.048 0 3.745-0.018 7.489-0.04 11.234 4e-3 1.116 9e-3 2.231 0.014 3.381-0.073 7.677-0.073 7.677-3.415 11.019-11.242 1.932-23.233 1.058-34.614 0.758-2.806-0.072-5.611-0.125-8.417-0.178-1.789-0.042-3.578-0.086-5.367-0.131-1.606-0.038-3.211-0.075-4.865-0.114-3.737-0.335-3.737-0.335-5.737-2.335-0.924-3.438-1.124-6.676-1.119-10.224-1e-3 -1.038-2e-3 -2.076-3e-3 -3.145 5e-3 -1.134 9e-3 -2.268 0.013-3.436 0-1.209 1e-3 -2.419 1e-3 -3.665 3e-3 -4.063 0.013-8.127 0.023-12.19 3e-3 -2.909 7e-3 -5.818 9e-3 -8.727 0.01-7.909 0.026-15.817 0.045-23.726 0.011-4.938 0.022-9.875 0.033-14.813 0.029-13.669 0.061-27.337 0.1-41.006l0.03-10.635c3e-3 -0.881 5e-3 -1.763 8e-3 -2.67 0.04-14.288 0.063-28.575 0.079-42.862 0.017-14.667 0.048-29.334 0.095-44 0.025-8.236 0.044-16.471 0.047-24.707 3e-3 -7.742 0.025-15.483 0.062-23.225 0.01-2.846 0.013-5.691 9e-3 -8.537-4e-3 -3.876 0.016-7.751 0.042-11.627-7e-3 -1.134-0.014-2.268-0.021-3.436 0.088-7.586 0.088-7.586 2.421-11.567 2.682-2.273 4.088-2.434 7.581-2.449 1.091-0.016 2.183-0.031 3.307-0.048 0.586 5e-3 0.586 5e-3 3.554 0.031 1.208-5e-3 2.416-0.01 3.661-0.015 2.553-3e-3 5.106 6e-3 7.658 0.027 3.917 0.027 7.83 0 11.746-0.032 2.478 4e-3 4.957 0.01 7.435 0.02 1.175-0.01 2.35-0.02 3.561-0.031 1.088 0.016 2.176 0.032 3.297 0.048 0.958 4e-3 1.917 8e-3 2.904 0.012 2.422 0.635 2.422 0.635 4.23 2.451 1.829 4.887 1.614 9.602 1.593 14.78 3e-3 0.586 3e-3 0.586 0.021 3.554 0.02 3.877 0.019 7.754 0.019 11.631 0.012 2.694 0.026 5.388 0.04 8.081 0.037 7.094 0.057 14.187 0.072 21.281 0.025 11.354 0.064 22.709 0.122 34.063 0.016 3.969 0.02 7.938 0.023 11.907 0.01 2.431 0.02 4.861 0.031 7.291-2e-3 0.553-2e-3 0.553-8e-3 3.351 7e-3 1.017 0.014 2.035 0.021 3.084 1e-3 0.881 3e-3 1.762 5e-3 2.67 0.294 2.895 0.83 4.944 2.253 7.491 6.949 2.029 13.621 2.28 20.818 2.215 1.031-2e-3 2.061-3e-3 3.123-5e-3 3.373-8e-3 6.745-0.032 10.118-0.058 2.355-0.013 4.71-0.026 7.065-0.04 4.918-0.03 9.836-0.069 14.754-0.114 6.31-0.055 12.621-0.078 18.932-0.093 4.854-0.016 9.709-0.055 14.563-0.101 2.328-0.018 4.657-0.027 6.985-0.029 3.244-5e-3 6.486-0.04 9.73-0.084 0.964 6e-3 1.929 0.011 2.923 0.017 6.328-0.131 6.328-0.131 9.084-2.538 1.388-4.861 1.318-9.55 1.29-14.582 5e-3 -1.153 0.011-2.307 0.016-3.495 0.01-2.502 0.013-5.005 0.01-7.507-5e-3 -3.959 9e-3 -7.918 0.028-11.876 0.037-8.404 0.051-16.807 0.061-25.21 0.012-9.737 0.034-19.474 0.08-29.211 0.014-3.902 9e-3 -7.805 5e-3 -11.707 9e-3 -2.39 0.019-4.78 0.03-7.17-3e-3 -0.543-3e-3 -0.543-0.018-3.294 0.076-9.317 0.076-9.317 3.403-13.118 12.916-7.695 40.646-5.845 55-3z" fill="#193232"/>
<path transform="translate(1230.6 415.75)" d="m0 0c0.651 0.031 0.651 0.031 3.945 0.188 11.624 0.697 21.634 3.853 32.43 8.062 1.382 0.474 2.764 0.949 4.187 1.438 3.661 1.5 5.8 3.076 8.813 5.562 1.223 0.574 2.447 1.147 3.707 1.738 4.527 2.385 7.753 5.021 11.48 8.512 1.17 1.078 2.339 2.155 3.543 3.266 3.38 3.601 5.743 7.254 8.27 11.484 0.709 0.857 1.418 1.714 2.148 2.598 2.173 2.819 3.258 5.502 4.477 8.84 0.405 1.091 0.81 2.183 1.227 3.308 3.566 10.105 4.972 19.483 4.148 30.254-3.354 3.354-8.142 2.428-12.668 2.52-1.068 0.026-2.136 0.052-3.237 0.08-2.265 0.053-4.531 0.1-6.796 0.143-3.455 0.069-6.909 0.165-10.363 0.263-2.202 0.048-4.403 0.094-6.604 0.139-1.029 0.031-2.059 0.062-3.119 0.094-5.785 0.082-10.034-0.327-15.213-3.239-2.82-3.476-3.435-6.552-3.937-10.938-0.763-5.04-1.77-8.056-5.063-12.062-0.53-0.719-1.06-1.439-1.605-2.18-6.617-8.909-13.174-12.825-23.395-16.82-1.007-0.535-2.014-1.07-3.051-1.621-5.736-2.003-11.167-1.853-17.199-1.817-0.582-9e-3 -0.582-9e-3 -3.527-0.06-7.863 4e-3 -14.052 1.308-21.223 4.498-1.116 0.469-2.233 0.938-3.383 1.422-11.234 5.441-18.442 11.872-24.144 23.152-3.362 10.102-3.037 22.417 0.527 32.426 1.937 2.625 1.937 2.625 4 5 0.392 0.804 0.784 1.609 1.187 2.438 2.802 3.96 6.726 6.051 10.813 8.562 0.423 0.289 0.423 0.289 2.563 1.75 2.437 1.25 2.437 1.25 6.124 2.125 3.582 0.934 5.64 1.79 8.75 3.563 5.785 3.042 11.655 3.697 18.059 4.679 4.62 0.906 8.729 2.282 13.129 3.945 5.371 2.016 10.17 3.353 15.875 3.938 7.293 0.751 13.578 2.977 20.414 5.555 3.7 1.309 7.246 2.229 11.086 3.007 5.812 1.224 9.911 3.4 15 6.438 1.32 0.474 2.64 0.949 4 1.438 7.218 2.819 12.624 7.041 18 12.562 0.949 0.598 1.898 1.196 2.875 1.812 9.153 6.407 17.012 18.689 19.715 29.56 2.843 18.208 4.191 41.731-5.149 58.093-1.441 2.535-1.441 2.535-2.941 6.723-2.785 7.078-7.002 12.596-12.5 17.812-0.804 0.99-1.609 1.98-2.437 3-2.628 3.076-5.422 5.461-8.563 8-0.598 0.681-1.196 1.361-1.813 2.062-3.285 2.91-7.18 4.213-11.187 5.938l-4 3c-2.425 1.053-4.882 1.94-7.367 2.84-2.633 1.16-2.633 1.16-5.309 3.133-4.324 2.637-8.737 3.534-13.637 4.527-1.808 0.384-3.617 0.77-5.425 1.156-0.489 0.101-0.489 0.101-2.961 0.613-2.415 0.535-4.818 1.126-7.211 1.749-10.261 2.635-19.888 3.665-30.465 3.794-1.528 0.03-3.057 0.059-4.632 0.089-37.354 0.58-37.354 0.58-48.915-5.417-3.524-1.699-6.658-2.251-10.515-2.859-6.099-1.136-9.714-2.649-14.563-6.625-2.216-0.981-4.432-1.962-6.664-2.906-6.337-2.968-11.538-7.037-16.336-12.094-0.485-0.361-0.485-0.361-2.937-2.188-3.446-3.163-5.402-6.358-7.668-10.41-1.395-2.402-1.395-2.402-4.395-6.402-0.733-1.935-1.396-3.896-2-5.875-0.963-3.139-1.845-5.863-3.52-8.695-2.284-5.291-2.589-10.732-3.167-16.43-0.13-1.163-0.26-2.325-0.393-3.523-1.238-11.451-1.238-11.451-0.92-15.477 5.015-5.015 9.396-4.161 16.176-4.168 1.117-3e-3 2.234-7e-3 3.386-0.01 2.368-5e-3 4.736-7e-3 7.104-7e-3 3.621-2e-3 7.242-0.021 10.863-0.04 2.299-3e-3 4.598-5e-3 6.897-5e-3 1.083-8e-3 2.167-0.015 3.283-0.022 1.014 3e-3 2.029 6e-3 3.073 9e-3 0.889-1e-3 1.778-3e-3 2.694-4e-3 2.864 0.28 4.96 0.948 7.524 2.247 2.879 4.524 3.184 8.652 3.437 13.875 0.348 6.443 1.516 10.455 4.563 16.125 0.396 0.782 0.791 1.565 1.199 2.371 3.954 7.595 8.11 11.56 15.617 15.32 2.184 1.309 2.184 1.309 3.801 3.293 3.773 3.192 8.186 3.704 12.946 4.704 1.897 0.419 3.794 0.84 5.691 1.261 1.566 0.347 3.132 0.694 4.746 1.051 0.99 0.33 1.98 0.66 3 1 9.993 0.844 18.951-1.793 28.496-4.377 2.596-0.646 5.192-1.136 7.824-1.611 3.985-0.862 6.272-1.491 9.493-3.824 0.734-0.532 1.469-1.063 2.226-1.61 2.515-2.024 4.74-4.237 6.961-6.578 0.949-0.681 1.898-1.361 2.875-2.062 7.439-6.993 10.476-13.569 10.961-23.75 0.13-10.584-0.613-18.895-7.836-27.188-0.866-1.011-1.733-2.021-2.625-3.062-3.978-3.245-7.966-5.288-12.812-6.938-2.96-1.01-5.663-2.052-8.438-3.504-3.527-1.689-6.879-2.552-10.688-3.434-5.053-1.206-9.999-2.509-14.937-4.124-4.882-1.561-9.699-2.57-14.75-3.438-6.146-1.076-11.053-2.932-16.75-5.5-2.512-0.522-5.035-0.997-7.563-1.438-6.246-1.139-10.075-3.127-15.437-6.562-3.846-1.121-7.697-2.051-11.609-2.91-3.642-1.171-4.843-2.355-7.391-5.09-2.548-1.143-5.11-1.995-7.758-2.875-2.242-1.125-2.242-1.125-4.242-5.125l-4-2-5-5c-0.928-0.557-1.856-1.114-2.813-1.688-7.348-5.331-11.607-12.155-14.316-20.714-0.871-2.598-0.871-2.598-3.058-6.786-3.649-7.675-2.996-16.28-3-24.624-0.013-1.112-0.025-2.224-0.038-3.37-0.018-10.473 0.894-18.723 6.225-27.818 0.591-2.055 1.15-4.118 1.687-6.188 2.218-7.584 6.337-12.791 11.313-18.812 0.687-0.923 1.374-1.846 2.082-2.797 4.092-5.456 7.845-8.882 13.918-12.203 1.341-0.846 2.681-1.691 4.063-2.562 3.604-2.232 7.249-4.35 10.937-6.438 0.787-0.497 1.575-0.995 2.386-1.508 4.352-2.484 9.071-3.665 13.864-5.054 1.072-0.311 2.144-0.622 3.248-0.942 8.791-2.461 17.387-3.872 26.502-4.496 1.27-0.108 2.539-0.217 3.848-0.328 13.941-1.096 27.83-0.755 41.777 0.078z" fill="#193232"/>
<path transform="translate(910,420)" d="m0 0c1 1 1 1 1.375 3.75-0.503 4.357-2.135 5.362-5.375 8.25-2.003 2.33-4.004 4.664-6 7-0.701 0.681-1.403 1.361-2.125 2.062-1.875 1.938-1.875 1.938-3.625 4.563-2.02 3.03-4.132 5.884-6.375 8.75-0.342 0.437-0.342 0.437-2.07 2.648-0.596 0.653-1.191 1.305-1.805 1.977h-2c-0.683 1.66-1.346 3.328-2 5-3.45 5.934-8.099 11.212-13 16h-2c-0.121 0.443-0.121 0.443-0.73 2.684-1.381 3.606-2.947 5.584-5.582 8.378-0.403 0.434-0.403 0.434-2.438 2.626-1.634 1.679-3.331 3.297-5.062 4.874-2.188 2.438-2.188 2.438-4.126 6.938-2.209 4.822-3.974 6.294-8.062 9.5-2.478 2.892-4.737 5.938-7 9-9.251 12.41-9.251 12.41-13.062 15.875-1.938 2.125-1.938 2.125-3.813 6.063-2.301 4.398-4.348 5.926-8.125 9.062-2.44 3.058-4.751 6.188-7.047 9.355-1.953 2.645-1.953 2.645-3.953 4.645-1.035 8.15 1.523 13.269 6 20 2.937 3.687 2.937 3.687 6 7 1.213 1.371 2.421 2.746 3.625 4.125 0.587 0.668 1.173 1.335 1.777 2.023 1.298 1.504 2.549 3.048 3.786 4.602 1.812 2.25 1.812 2.25 3.687 4.062 2.418 2.489 4.438 5.197 6.492 7.989 1.652 2.224 3.354 4.4 5.071 6.574 3.138 4.007 6.04 8.145 8.886 12.363 1.725 2.328 3.612 4.234 5.676 6.262 3.931 4.607 7.634 9.319 10.875 14.438 3.08 4.772 6.851 8.779 10.758 12.886 2.367 2.676 2.367 2.676 4.328 5.637 2.979 4.441 6.69 8.091 10.383 11.941 6.656 7.763 6.656 7.763 6.656 12.098h2c1.594 1.801 1.594 1.801 3.5 4.312 3.882 5.014 8.089 9.59 12.496 14.145 2.094 2.658 2.873 4.178 3.004 7.543-2 2-2 2-4.523 2.216-0.532-8e-3 -0.532-8e-3 -3.224-0.049-1.205-0.014-2.41-0.027-3.652-0.042-1.308-0.025-2.616-0.051-3.964-0.078-1.34-0.02-2.679-0.041-4.059-0.062-2.839-0.045-5.677-0.096-8.516-0.152-4.346-0.082-8.691-0.144-13.037-0.204-2.754-0.047-5.509-0.095-8.263-0.145-1.303-0.017-2.605-0.035-3.946-0.054-1.215-0.026-2.429-0.052-3.681-0.079-1.066-0.02-2.133-0.039-3.231-0.059-5.252-0.528-8.503-2.261-11.904-6.292v-2l-4-2c-5.22-5.027-9.853-10.432-13-17v-2h-2c-1.699-1.871-1.699-1.871-3.688-4.438-0.71-0.91-1.42-1.82-2.152-2.757-0.713-0.926-1.426-1.851-2.16-2.805-1.25-1.604-2.5-3.209-3.75-4.812-0.266-0.344-0.266-0.344-1.609-2.083-2.443-3.135-4.935-6.23-7.43-9.324-6.685-8.306-13.204-16.74-19.586-25.281-5.7-7.6-5.7-7.6-8.937-10.75-4.365-4.466-8.152-9.396-11.563-14.625-2.737-4.026-5.841-7.694-8.949-11.437-1.732-2.139-3.35-4.369-4.926-6.626-2.197-2.99-4.37-4.773-7.25-7.062-1.373-1.973-2.704-3.975-4-6l-2.5-3c-2.407-2.888-4.465-5.842-6.5-9l-2-3c0.321-2.634 0.814-4.627 2-7h2l2-4c1.11-1.486 2.261-2.941 3.438-4.375 3.479-4.281 6.909-8.596 10.312-12.937 5.077-6.478 5.077-6.478 7.492-9.418 1.758-2.27 1.758-2.27 3.133-5.27 1.987-3.667 4.414-5.334 7.625-8 2.789-3.237 5.375-6.629 8-10 1.536-1.901 3.077-3.797 4.625-5.688 0.749-0.916 1.498-1.833 2.27-2.777 1.77-2.131 3.578-4.214 5.417-6.285 2.688-3.25 2.688-3.25 4.626-6.688 3.147-5.436 7.27-9.812 11.75-14.187 2.312-2.375 2.312-2.375 4.113-5.156 2.309-3.38 4.858-6.152 7.699-9.094 4.216-4.516 6.772-8.582 9.5-14.125 3.131-3.861 6.39-7.579 10-11h2c0.244-0.883 0.487-1.766 0.738-2.676 1.358-3.578 2.899-5.68 5.45-8.512 0.368-0.419 0.368-0.419 2.23-2.542 6.576-5.78 13.443-5.722 21.754-5.747 1.159-0.015 2.319-0.031 3.513-0.047 3.688-0.047 7.377-0.075 11.065-0.101 3.703-0.037 7.405-0.077 11.108-0.123 2.3-0.027 4.601-0.048 6.901-0.063 1.038-0.01 2.077-0.021 3.146-0.031 0.457-4e-3 0.457-4e-3 2.769-0.02 8.854-0.525 8.854-0.525 10.326-0.138z" fill="#193232"/>
<path transform="translate(433.28 420.44)" d="m0 0c0.624 1e-3 0.624 1e-3 3.781 7e-3 2.621 0.01 5.243 0.031 7.864 0.065 4.027 0.049 8.052 0.061 12.08 0.067 2.55 0.014 5.1 0.03 7.65 0.049 0.604 2e-3 0.604 2e-3 3.661 0.016 1.112 0.016 2.224 0.032 3.37 0.048 0.981 0.011 1.962 0.021 2.973 0.032 2.344 0.275 2.344 0.275 4.344 2.275-0.133 4.919-2.663 6.662-6 10-0.949 1.564-1.863 3.15-2.75 4.75-2.768 4.827-6.135 8.224-10.153 12.027-2.071 2.194-3.352 4.175-4.722 6.848-2.141 3.942-4.256 6.467-7.496 9.511-2.865 2.841-5.277 6.006-7.766 9.176-2.234 2.841-4.511 5.642-6.801 8.438-0.749 0.916-1.498 1.833-2.269 2.777-1.612 1.951-3.259 3.874-4.918 5.785-2.125 2.688-2.125 2.688-3.5 5.625-1.772 3.339-4.015 5.553-6.731 8.149-3.918 3.958-7.157 8.518-10.422 13.019-2.967 4.069-6.144 7.509-9.765 10.996-1.879 2.089-3.148 4.199-4.52 6.649-2.934 5.178-6.66 9.194-10.726 13.511-2.982 3.318-5.462 6.826-7.922 10.539-1.539 2.2-1.539 2.2-4.477 5.2-2.945 4.283-2.96 7.95-2.062 13 1.75 3.312 1.75 3.312 4 6 2.86 3.574 5.46 7.189 8 11l2 2.5c2 2.5 2 2.5 3.757 5.261 2.44 3.523 5.152 6.461 8.118 9.551 4.046 4.315 7.528 8.492 10.632 13.508 1.808 2.641 3.88 4.896 6.055 7.242 2.671 2.884 4.697 5.364 6.75 8.75 3.386 5.276 7.53 9.526 11.82 14.078 3.276 3.553 6.055 7.184 8.868 11.11 4.254 5.57 8.628 11.045 13.015 16.511 2.477 3.106 4.915 6.24 7.344 9.383 1.143 1.466 2.301 2.92 3.473 4.363 3.339 4.225 6.498 8.588 9.658 12.948 2.861 3.871 5.692 6.885 9.51 9.795 1 2.562 1 2.562 1 5l-3 3c-2.345-0.245-4.677-0.602-7-1-3.696-0.122-7.389-0.046-11.086 7e-3 -2.17 0.018-4.339 0.035-6.508 0.051-3.392 0.031-6.785 0.067-10.177 0.113-3.293 0.043-6.585 0.066-9.878 0.086-0.501 0.01-0.501 0.01-3.04 0.057-6.412 0.023-11.39-0.78-17.311-3.314-3-3.5-3-3.5-4.411-5.629-1.848-2.757-3.905-5.258-6.027-7.809-2.714-3.288-5.368-6.598-7.937-10-2.851-3.721-5.969-7.094-9.188-10.5-4.005-4.298-7.013-8.433-9.84-13.551-2.584-4.062-5.903-7.409-9.23-10.871-2.367-2.64-2.367-2.64-4.305-5.578-2.343-3.48-5.021-6.299-7.937-9.312-4.272-4.557-7.69-8.876-10.692-14.329-3.367-5.688-7.772-10.76-12.433-15.421-1.432-1.717-2.847-3.448-4.25-5.188-2.744-3.384-5.518-6.705-8.438-9.937-2.315-2.607-4.259-5.244-6.125-8.188-2.432-3.819-5.237-6.927-8.375-10.187-4.39-4.769-6.965-8.005-7.812-14.5 2-4.063 2-4.063 5-8 0.783-1.32 1.567-2.64 2.375-4 2.375-3.62 4.85-6.67 7.734-9.868 5.06-5.708 9.653-11.801 14.188-17.929 2.985-3.862 6.172-7.558 9.335-11.274 2.323-2.874 4.337-5.845 6.368-8.929 1.985-2.346 3.987-4.678 6-7 1.318-1.641 2.63-3.287 3.937-4.938 4.141-5.203 8.461-10.219 12.949-15.125 2.649-2.932 4.866-5.433 6.614-9 1.692-3.315 3.933-5.47 6.605-8.023 4.434-4.48 8.022-9.739 11.77-14.789 2.482-3.338 5.099-6.545 7.75-9.75 2.315-2.806 4.48-5.534 6.5-8.563 1.603-2.405 3.237-4.638 5.062-6.875 0.509-0.63 1.019-1.261 1.543-1.91 7.784-6.953 14.476-7.751 24.547-7.586z" fill="#E14B32"/>
<path transform="translate(1705.3 417.84)" d="m0 0c1.111-0.01 2.223-0.019 3.368-0.029 1.205-4e-3 2.41-9e-3 3.652-0.013 1.233-6e-3 2.466-0.011 3.736-0.017 2.612-0.01 5.224-0.016 7.836-0.02 4.005-0.01 8.01-0.041 12.016-0.072 2.533-7e-3 5.066-0.012 7.599-0.016 1.203-0.012 2.407-0.025 3.646-0.037 1.115 3e-3 2.229 6e-3 3.377 9e-3 0.983-4e-3 1.965-8e-3 2.977-0.011 2.473 0.367 2.473 0.367 5.473 3.367 0.375 2.32 0.375 2.32 0.375 5.111 7e-3 1.064 0.014 2.128 0.021 3.224-3e-3 0.586-3e-3 0.586-0.022 3.553 4e-3 1.243 8e-3 2.486 0.012 3.766 0.01 4.187-2e-3 8.374-0.014 12.561 3e-3 2.992 6e-3 5.985 0.011 8.977 9e-3 7.297 3e-3 14.595-9e-3 21.892-0.014 8.492-0.012 16.984-0.01 25.475 3e-3 15.147-8e-3 30.294-0.028 45.44-0.019 14.711-0.026 29.422-0.02 44.132 6e-3 16.006 5e-3 32.011-6e-3 48.017-1e-3 1.705-2e-3 3.411-3e-3 5.116-1e-3 0.839-2e-3 1.678-2e-3 2.543-4e-3 5.924-4e-3 11.849-2e-3 17.774 2e-3 7.967-6e-3 15.934-0.022 23.902-4e-3 2.932-5e-3 5.865-2e-3 8.797 3e-3 3.986-6e-3 7.972-0.018 11.959 2e-3 0.587 2e-3 0.587 0.011 3.56-0.044 7.973-0.044 7.973-2.272 10.201-2.384 0.299-2.384 0.299-5.412 0.367-0.566 0.014-0.566 0.014-3.428 0.089-0.614 0.011-0.614 0.011-3.719 0.064-1.255 0.026-2.51 0.053-3.803 0.08-2.659 0.053-5.318 0.1-7.977 0.143-4.078 0.069-8.156 0.165-12.233 0.263-2.579 0.048-5.158 0.094-7.737 0.139-1.225 0.031-2.45 0.062-3.712 0.094-1.134 0.014-2.269 0.027-3.438 0.042-1 0.018-2 0.036-3.03 0.055-2.511-0.336-2.511-0.336-5.511-3.336-1.993-3.986-1.14-9.147-1.134-13.558-2e-3 -1.219-4e-3 -2.438-7e-3 -3.694-6e-3 -4.115-5e-3 -8.229-4e-3 -12.343-3e-3 -2.938-7e-3 -5.876-0.011-8.814-8e-3 -8.002-0.011-16.004-0.011-24.006-1e-3 -5.83-4e-3 -11.661-7e-3 -17.492-8e-3 -15.672-0.012-31.344-0.011-47.017v-2.699-2.702c0-14.452-9e-3 -28.905-0.024-43.357-0.014-14.829-0.021-29.659-0.02-44.488 0-8.33-3e-3 -16.659-0.013-24.989-0.01-7.832-0.01-15.665-3e-3 -23.498 1e-3 -2.879-1e-3 -5.759-7e-3 -8.639-8e-3 -3.921-3e-3 -7.843 5e-3 -11.765-5e-3 -1.147-0.011-2.295-0.016-3.477 5e-3 -1.05 9e-3 -2.101 0.014-3.183 0-0.905 0-1.81-1e-3 -2.743 0.281-2.849 0.978-4.976 2.25-7.536 2.573-1.287 4.438-1.141 7.32-1.161z" fill="#193232"/>
<path transform="translate(978.39 417.76)" d="m0 0c1.14-8e-3 2.279-0.016 3.453-0.024 2.415-0.014 4.83-0.025 7.245-0.033 3.694-0.017 7.388-0.061 11.081-0.105 2.345-0.01 4.689-0.019 7.033-0.026 1.106-0.017 2.211-0.035 3.35-0.053 0.517 2e-3 0.517 2e-3 3.134 9e-3 0.453-3e-3 0.453-3e-3 2.748-0.017 3.727 0.709 5.024 1.6 7.561 4.487 0.787 3.931 0.69 7.84 0.66 11.837 5e-3 0.612 5e-3 0.612 0.032 3.712 0.029 4.122 0.022 8.243 0.015 12.365 0.014 2.948 0.029 5.896 0.047 8.844 0.041 8.021 0.051 16.041 0.054 24.062 5e-3 7.533 0.036 15.066 0.063 22.599 0.054 14.927 0.083 29.855 0.099 44.782 0.015 14.49 0.049 28.979 0.104 43.468 0.06 15.771 0.11 31.542 0.143 47.314 2e-3 0.834 4e-3 1.667 5e-3 2.527 4e-3 1.674 7e-3 3.349 0.011 5.024 0.012 5.834 0.031 11.667 0.052 17.501 0.028 7.851 0.04 15.702 0.04 23.552 2e-3 2.886 0.01 5.772 0.023 8.658 0.017 3.931 0.015 7.861 9e-3 11.792 9e-3 1.15 0.018 2.3 0.028 3.485-6e-3 1.052-0.011 2.105-0.017 3.189 1e-3 0.907 3e-3 1.815 4e-3 2.749-0.457 3.121-1.508 5.014-3.372 7.54-2.459 0.66-2.459 0.66-5.417 0.707-1.108 0.03-2.216 0.059-3.358 0.089-1.197 6e-3 -2.394 0.011-3.627 0.017-1.229 0.022-2.458 0.044-3.725 0.067-2.601 0.042-5.203 0.071-7.805 0.09-3.986 0.03-7.97 0.103-11.956 0.183-2.526 0.035-5.051 0.067-7.576 0.097-1.195 0.022-2.39 0.044-3.621 0.066-1.111 4e-3 -2.223 8e-3 -3.367 0.012-0.977 0.01-1.954 0.019-2.961 0.029-2.587-0.357-2.587-0.357-6.587-3.357-0.5-2.297-0.5-2.297-0.5-5.056-0.01-1.051-0.02-2.103-0.03-3.186 5e-3 -0.579 5e-3 -0.579 0.029-3.512-3e-3 -0.614-3e-3 -0.614-0.017-3.722-0.013-4.139 2e-3 -8.277 0.017-12.416-4e-3 -2.958-0.01-5.915-0.017-8.873-0.012-7.215-6e-3 -14.429 9e-3 -21.643 0.017-8.398 0.014-16.796 0.01-25.194-6e-3 -14.983 8e-3 -29.967 0.033-44.95 0.024-14.545 0.031-29.09 0.02-43.634-0.011-15.829-0.013-31.658 2e-3 -47.486 1e-3 -1.688 3e-3 -3.376 4e-3 -5.063 1e-3 -0.831 2e-3 -1.661 2e-3 -2.517 5e-3 -5.855 3e-3 -11.711-1e-3 -17.567-5e-3 -7.881 5e-3 -15.762 0.027-23.643 6e-3 -2.898 6e-3 -5.795 1e-3 -8.692-6e-3 -3.946 7e-3 -7.892 0.024-11.838-6e-3 -1.154-0.012-2.309-0.018-3.498 8e-3 -1.057 0.016-2.113 0.025-3.202 1e-3 -0.911 2e-3 -1.822 3e-3 -2.76 0.461-3.111 1.554-5.007 3.377-7.548 3.959-1.979 9.015-1.209 13.395-1.238z" fill="#193232"/>
<path transform="translate(654.99 417.7)" d="m0 0c0.977-4e-3 1.953-9e-3 2.959-0.013 2.066-6e-3 4.131-6e-3 6.196-2e-3 3.147 3e-3 6.294-0.02 9.441-0.046 2.009-2e-3 4.019-3e-3 6.029-1e-3 0.936-0.01 1.871-0.019 2.835-0.028 5.516 0.038 9.748 0.603 14.552 3.391 1.915 3.83 2.25 5.084 2.254 9.138 6e-3 1.044 0.012 2.088 0.018 3.164-4e-3 1.146-8e-3 2.291-0.012 3.472 2e-3 0.609 2e-3 0.609 0.012 3.691 0.01 4.099 6e-3 8.198 2e-3 12.297 5e-3 2.931 0.01 5.863 0.016 8.795 0.013 7.975 0.014 15.949 0.011 23.924-1e-3 7.489 5e-3 14.977 0.011 22.465 0.011 15.734 8e-3 31.468 2e-3 47.201-5e-3 14.406 6e-3 28.811 0.025 43.216 0.02 14.782 0.028 29.564 0.024 44.345-2e-3 8.303 1e-3 16.606 0.015 24.908 0.013 7.804 0.011 15.607-2e-3 23.41-3e-3 2.871 0 5.741 8e-3 8.612 0.011 3.905 3e-3 7.81-0.01 11.715 7e-3 1.148 0.015 2.296 0.022 3.479-3e-3 0.52-3e-3 0.52-0.022 3.156 0 0.451 0 0.451 1e-3 2.733-0.375 2.279-0.375 2.279-3.375 5.279-3.963 1.981-9.045 1.163-13.43 1.168-0.571 1e-3 -0.571 1e-3 -3.46 0.01-2.42 5e-3 -4.839 7e-3 -7.258 7e-3 -3.705 2e-3 -7.409 0.02-11.114 0.039-2.348 3e-3 -4.695 5e-3 -7.043 6e-3 -1.11 7e-3 -2.221 0.015-3.365 0.022-1.034-3e-3 -2.069-6e-3 -3.134-9e-3 -0.455 0-0.455 0-2.755 4e-3 -2.441-0.247-2.441-0.247-6.441-2.247-1.979-3.958-1.148-9.052-1.147-13.431-4e-3 -1.205-8e-3 -2.411-0.012-3.653-0.011-4.068-0.014-8.136-0.018-12.204-7e-3 -2.905-0.013-5.81-0.02-8.716-0.018-7.913-0.028-15.826-0.036-23.739l-0.018-14.82c-0.017-13.673-0.031-27.346-0.039-41.02-2e-3 -3.549-3e-3 -7.099-5e-3 -10.648-1e-3 -0.883-1e-3 -1.765-2e-3 -2.674-8e-3 -14.293-0.034-28.585-0.066-42.878-0.033-14.669-0.051-29.337-0.054-44.006-3e-3 -8.238-0.012-16.476-0.037-24.714-0.023-7.749-0.027-15.498-0.017-23.247 0-2.847-6e-3 -5.693-0.02-8.54-0.017-3.882-0.01-7.763 3e-3 -11.645-0.011-1.13-0.022-2.26-0.033-3.424 0.051-6.258 0.547-10.501 4.521-15.641 4.795-2.398 8.761-2.306 13.988-2.301z" fill="#193232"/>
</svg>
