<?xml version="1.0" encoding="UTF-8"?>
<svg version="1.1" viewBox="0 0 2904 1352" xmlns="http://www.w3.org/2000/svg">
<path transform="translate(1945.3 305.87)" d="m0 0c1.089-2e-3 2.178-5e-3 3.3-7e-3 3.692-7e-3 7.384-6e-3 11.076-6e-3 2.657-3e-3 5.313-7e-3 7.97-0.011 7.334-0.01 14.668-0.014 22.002-0.016 7.897-4e-3 15.793-0.014 23.69-0.023 18.185-0.019 36.369-0.029 54.554-0.037 8.982-4e-3 17.965-0.01 26.947-0.015 30.736-0.018 61.471-0.033 92.206-0.04 1.931-1e-3 3.861-1e-3 5.791-2e-3h2.901c4.851-2e-3 9.701-3e-3 14.551-4e-3 0.963 0 1.925 0 2.917-1e-3 31.214-8e-3 62.429-0.031 93.643-0.064 32.986-0.034 65.972-0.054 98.957-0.057 3.62 0 7.24-1e-3 10.86-1e-3 0.891 0 1.782 0 2.7-1e-3 14.357-2e-3 28.714-0.018 43.071-0.038 14.426-0.02 28.852-0.025 43.278-0.016 7.818 4e-3 15.637 2e-3 23.455-0.017 7.153-0.018 14.306-0.017 21.459-1e-3 2.592 2e-3 5.184-2e-3 7.776-0.014 3.516-0.015 7.031-6e-3 10.547 0.01 1.013-0.01 2.026-0.02 3.07-0.031 6.263 0.062 10.558 1.074 15.982 4.526 3.405 5.368 5.012 10.957 6.621 17.074 0.113 0.423 0.113 0.423 0.687 2.563 0.718 2.682 1.425 5.366 2.13 8.051 2.705 10.285 5.398 20.423 9.394 30.301 2.069 5.334 3.592 10.828 5.168 16.324 0.696 2.385 1.392 4.771 2.09 7.156 0.165 0.566 0.165 0.566 0.999 3.43 1.878 6.396 3.89 12.749 5.911 19.101 0.573 1.811 1.146 3.623 1.719 5.434 5.055 15.959 5.055 15.959 7.531 23.254 1.129 3.341 2.095 6.627 2.992 10.047 2.596 9.617 5.987 18.999 9.199 28.423 3.136 9.292 5.968 18.599 8.516 28.065 0.821 2.974 1.709 5.868 2.731 8.777 6.393 19.486 2.354 37.325-3.595 56.418-1.981 6.494-3.775 13.041-5.593 19.582-2.7 9.712-5.492 19.379-8.5 29-0.647 2.104-1.293 4.208-1.937 6.313-1.054 3.436-2.12 6.866-3.215 10.289-2.765 8.673-5.251 17.393-7.613 26.182-1.536 5.704-3.156 11.372-4.86 17.029-1.588 5.326-2.973 10.639-4.187 16.062-1.955 8.555-4.443 16.912-6.973 25.312-2.99 9.957-5.781 19.963-8.513 29.994-1.81 6.637-3.709 13.235-5.702 19.819-0.65 2.312-1.296 4.624-1.937 6.938-1.208 4.272-2.527 8.421-4.125 12.562-2.042 5.333-3.026 10.71-3.934 16.336-1.268 3.998-2.707 5.582-6.004 8.164-6.245 2.872-11.802 3.426-18.574 3.372-1.046 4e-3 -2.092 8e-3 -3.17 0.012-3.51 9e-3 -7.02-4e-3 -10.53-0.016-2.54 2e-3 -5.08 5e-3 -7.62 0.01-6.984 8e-3 -13.968-2e-3 -20.952-0.015-7.53-0.011-15.061-4e-3 -22.591 0-13.051 5e-3 -26.102-1e-3 -39.153-0.015-13.695-0.015-27.39-0.023-41.085-0.024h-2.581c-3.458-1e-3 -6.916-1e-3 -10.374-1e-3 -31.517-1e-3 -63.035-0.017-94.553-0.042-29.748-0.023-59.495-0.037-89.243-0.041h-2.776c-3.694 0-7.388-1e-3 -11.081-1e-3 -1.841 0-3.682-1e-3 -5.523-1e-3 -1.836 0-3.672 0-5.508-1e-3 -29.253-3e-3 -58.505-0.015-87.758-0.027-8.562-4e-3 -17.125-7e-3 -25.688-0.01-18.009-4e-3 -36.019-0.012-54.028-0.028-7.448-6e-3 -14.897-0.011-22.345-0.012-6.818-1e-3 -13.636-6e-3 -20.454-0.016-2.467-2e-3 -4.934-3e-3 -7.4-2e-3 -3.354 1e-3 -6.708-4e-3 -10.061-0.01-0.479 1e-3 -0.479 1e-3 -2.901 5e-3 -19.522-0.065-19.522-0.065-24.051-4.137-5.789-9.883-8.41-22.253-10.937-33.312-1.924-8.387-4.411-16.507-7.063-24.688-0.836-2.665-1.67-5.332-2.5-8-1.219-3.908-2.442-7.816-3.68-11.719-3.459-10.943-6.671-21.954-9.857-32.98-0.681-2.334-1.372-4.665-2.071-6.994-4.01-13.417-7.542-26.949-11.084-40.495-3.21-12.261-6.536-24.471-10.121-36.628-3.576-12.147-6.937-24.354-10.312-36.559-0.968-3.495-1.937-6.99-2.907-10.485-0.623-2.252-1.244-4.505-1.864-6.758-1.358-4.938-2.736-9.866-4.212-14.769-0.467-1.577-0.934-3.153-1.415-4.777-0.41-1.337-0.819-2.675-1.24-4.053-1.376-7.066 0.516-13.188 2.634-19.935 0.244-0.783 0.244-0.783 1.476-4.744 0.53-1.68 1.06-3.361 1.591-5.041 0.818-2.622 1.635-5.245 2.451-7.868 0.555-1.78 1.11-3.561 1.666-5.341 3.085-9.877 6.072-19.784 9.058-29.691 1.905-6.308 3.837-12.605 5.821-18.889 2.35-7.497 4.542-15.035 6.714-22.584 4.717-16.393 9.692-32.641 15.185-48.794 2.342-6.889 4.567-13.768 6.542-20.771 1.528-5.412 3.489-10.226 5.945-15.269 1.437-3.478 2.263-6.942 3.118-10.606 5.006-21.177 5.006-21.177 13.062-28.25 3.699-1.849 8.216-1.14 12.297-1.134zm344.7 109.13c-27.194 21.469-52.817 26.828-86.5 23.125-1.67-0.176-3.341-0.352-5.012-0.527-7.615-0.81-15.211-1.686-22.8-2.707-7.415-0.939-14.719-1.258-22.188-1.266-0.598-0.012-0.598-0.012-3.625-0.074-7.076-0.023-11.692 0.684-17.875 4.449-1.293 0.641-2.586 1.282-3.918 1.942-4.5 2.269-8.946 4.627-13.394 6.996-5.068 2.688-10.111 5.337-15.375 7.625-11.77 5.271-21.228 10.649-29.594 20.578-3.756 3.95-8.008 6.37-12.707 9.062-4.21 2.512-7.453 5.423-11.012 8.797-0.319 0.277-0.319 0.277-1.934 1.676-7.843 7.094-8.527 16.122-9.566 26.074-1.451 12.767-1.451 12.767-3 18.625-1.581 6.192-2.246 12.41-2.937 18.75-1.04 9.457-2.167 18.892-3.5 28.313-0.146 1.094-0.292 2.188-0.442 3.315-1.568 10.815-5.121 20.001-10.558 29.435-0.417 0.742-0.834 1.483-1.264 2.248-2.052 3.624-4.176 7.154-6.42 10.666-8.393 13.753-13.691 30.761-10.629 46.836 5.172 9.338 14.263 16.14 22.25 23.062 1.296 1.371 2.588 2.746 3.875 4.125 9.659 9.772 23.914 12.911 37.219 13.065 0.87 5e-3 1.74 9e-3 2.637 0.013 0.912 6e-3 1.825 0.012 2.766 0.018 1.918 9e-3 3.837 0.016 5.756 0.019 2.936 0.01 5.872 0.041 8.808 0.073 1.869 6e-3 3.738 0.011 5.607 0.015 0.876 0.013 1.752 0.025 2.655 0.038 4.997-0.019 6.52-0.248 10.677-3.366 0.58-5.798 0.323-9.257-3-14-5.324-5.765-11.545-9.729-18.398-13.457-2.602-1.543-2.602-1.543-5.602-4.543h-2c-0.75-3.25-0.75-3.25-1-7 2.536-3.149 5.081-4.732 8.781-6.261 0.92-0.393 1.839-0.786 2.786-1.19 0.968-0.408 1.936-0.816 2.933-1.236 7.827-3.408 14.645-7.006 21.258-12.5 2.763-2.234 5.033-3.844 8.68-3.75 5.946 2.175 9.272 8.194 12.75 13.187 4.709 6.508 9.614 11.688 15.812 16.75 7.577 6.507 14.163 12.466 19.5 21 8.986 14.26 8.986 14.26 18.231 16.574 10.097 1.315 20.462 0.76 30.551-0.337 3.095-0.27 6.171-0.371 9.277-0.448 1.127-0.028 2.254-0.056 3.416-0.086 2.335-0.052 4.671-0.096 7.007-0.132 0.56-0.016 0.56-0.016 3.389-0.094 1.01-0.02 2.02-0.04 3.06-0.06 2.569-0.417 2.569-0.417 5.569-3.417 0.72-4.845 1.074-8.039-1.301-12.375-4.781-5.897-10.75-9.218-17.355-12.789-14.98-8.225-21.845-21.448-26.707-37.273-0.679-2.565-1.331-5.138-1.946-7.719-0.691-2.844-0.691-2.844-1.691-4.844-0.04-2.666-0.043-5.333 0-8 6.771-1.33 13.59-1.367 20.469-1.621 3.963-0.331 6.834-1.067 10.531-2.379h5c1 4 1 4 0.063 6.625-2.207 7.009-1.484 12.912 1.093 19.641 1.123 3.637 1.594 7.284 2.157 11.047 2.571 14.893 10.246 24.317 19.687 35.687 1.321 1.723 2.635 3.451 3.938 5.188 5.226 6.507 11.101 10.159 19.062 12.812 2.172 0.096 4.346 0.131 6.52 0.133 0.661 1e-3 0.661 1e-3 4.008 6e-3 0.707-2e-3 0.707-2e-3 4.285-0.014 1.436-3e-3 2.872-7e-3 4.352-0.01 8.512-0.041 17.017-0.15 25.523-0.49 0.882-0.031 1.764-0.061 2.673-0.093 6.458-0.309 10.044-0.937 14.639-5.532 1.281-8.006 1.281-8.006-1.383-12.152-7.487-7.414-18.76-11.562-28.617-14.848-1-2.562-1-2.562-1-6 3.255-6.992 8.604-11.79 14.082-17.121 2.282-2.251 4.411-4.501 6.481-6.941 11.521-13.48 11.521-13.48 18.437-16.938 7.913 0.578 13.45 8.402 18.528 13.9 10.579 11.292 21.765 17.171 37.015 20.467 7.461 1.922 10.943 7.534 15.207 13.446 4.287 5.734 8.802 10.963 15.25 14.187 4.063 0.313 4.063 0.313 8 0 3.252-3.252 3.858-4.987 5.125-9.312 0.333-1.11 0.665-2.22 1.008-3.364 3.502-13.423 1.694-26.685-0.445-40.199-0.214-1.444-0.427-2.887-0.647-4.375-1.542-9.998-3.888-18.134-8.978-26.937-0.669-1.169-1.339-2.339-2.028-3.543-1.847-2.968-3.811-5.58-6.035-8.27-1.316-1.789-2.628-3.581-3.937-5.375-3.828-5.116-7.841-10.029-12-14.875-0.284-0.334-0.284-0.334-1.721-2.025-1.402-1.615-2.867-3.176-4.342-4.725h-2c-1.787-3.575-2.386-7.079-3-11 0.421-2e-3 0.421-2e-3 2.551-0.015 16.216-1.011 30.789-8.938 44.996-16.344 4.13-1.962 6.931-2.093 11.453-1.641l4 2c7.405 1.01 10.553-0.736 16.184-5 10.678-7.583 23.003-10.63 35.531-13.64 10.333-2.564 17.772-7.116 26.285-13.36 0.889-0.649 1.779-1.299 2.695-1.969 6.914-5.202 10.543-9.012 12.055-17.843 0.242-1.347 0.485-2.694 0.734-4.082 1.298-10.335 1.298-10.335-0.671-14.793-0.3-0.382-0.3-0.382-1.813-2.313-0.647-0.829-1.294-1.658-1.961-2.511-4.223-3.458-8.173-3.844-13.476-4.614-8.18-1.26-13.808-2.809-20.563-7.875h-2c-0.67-1.665-1.336-3.332-2-5-8.129-11.652-15.568-17.87-29.418-21.101-3.027-0.76-5.587-1.635-8.394-2.961-3.252-1.505-6.027-2.511-9.438-3.438-6.757-2.134-9.892-5.322-13.875-11.062-5.732-8.219-5.732-8.219-9.512-8.942-7.968-0.153-11.556 1.003-17.363 6.504-0.866 1.052-1.732 2.104-2.625 3.188-2.688 3.183-4.446 4.452-8.375 5.812-9.104 0.319-17.929-1.051-26.909-2.344-2.818-0.402-5.638-0.787-8.458-1.171-8.743-1.225-17.148-2.676-25.54-5.508-5.933-1.874-12.057-2.96-18.155-4.164-2.554-0.514-5.107-1.028-7.661-1.543-0.555-0.111-0.555-0.111-3.367-0.669-2.316-0.478-4.616-1.027-6.91-1.601-10.598-0.815-18.94-1.444-27 6z" fill="#E10000"/>
<path transform="translate(691.51 301.92)" d="m0 0c33.653-0.94 69.033 0.057 95.241 23.551 6.572 6.224 11.068 12.541 15.246 20.532 0.825 1.423 1.65 2.846 2.5 4.312 0.843 1.557 1.675 3.12 2.5 4.688 0.541 1.003 1.082 2.006 1.639 3.04 5.238 10.359 7.428 20.512 9.236 31.835 0.295 1.734 0.592 3.469 0.89 5.203 1.979 11.644 3.385 22.964 3.369 34.778 2e-3 1.167 4e-3 2.334 6e-3 3.537 7e-3 3.896 6e-3 7.792 5e-3 11.688 3e-3 2.8 6e-3 5.6 0.01 8.399 9e-3 7.598 0.011 15.195 0.012 22.793 1e-3 4.752 3e-3 9.504 6e-3 14.256 8e-3 15.737 0.013 31.475 0.012 47.212v2.568 2.572c0 13.731 9e-3 27.463 0.023 41.195 0.015 14.128 0.021 28.256 0.021 42.384-1e-3 7.92 2e-3 15.84 0.013 23.76 0.01 7.457 0.01 14.914 2e-3 22.371-1e-3 2.726 2e-3 5.451 8e-3 8.177 0.037 18.088-0.565 35.504-4.42 53.259-0.611 2.916-1.144 5.849-1.633 8.789-4.014 23.78-17.295 47.232-36.516 62.098-2.683 2.086-2.683 2.086-4.648 3.921-4.964 4.487-10.684 6.961-16.848 9.415-0.399 0.164-0.399 0.164-2.419 0.998-16.967 6.384-35.463 6.294-53.331 6.189-0.547-2e-3 -0.547-2e-3 -3.319-9e-3 -32.315-0.133-60.207-2.517-84.118-26.428-3.206-3.528-6.126-7.201-9-11-0.834-1.046-1.668-2.091-2.528-3.168-12.644-16.524-16.147-34.803-19.472-54.832-0.159-0.809-0.319-1.618-0.483-2.451-1.512-8.09-1.822-15.925-1.836-24.142-0.01-1.418-0.02-2.837-0.03-4.299-0.031-4.704-0.048-9.408-0.065-14.112-0.019-3.349-0.039-6.698-0.059-10.046-0.048-8.054-0.084-16.107-0.117-24.16-0.027-6.497-0.057-12.993-0.091-19.489-0.239-46.683-0.414-93.367-0.442-140.05-2e-3 -3.6-6e-3 -7.2-0.01-10.799-6e-3 -5.609-6e-3 -11.218-2e-3 -16.826 1e-3 -1.998 1e-3 -3.997-1e-3 -5.995-0.01-10.131 0.128-20.241 0.554-30.364 0.035-0.885 0.07-1.769 0.107-2.68 0.35-7.468 1.439-14.698 2.729-22.064 0.726-4.403 1.196-8.771 1.621-13.211 0.963-8.527 3.266-16.245 6.125-24.312 0.37-1.145 0.74-2.29 1.121-3.469 2.494-7.25 5.91-12.764 10.684-18.75 1.928-2.443 3.607-4.898 5.257-7.531 10.642-16.094 29.823-25.927 48.35-29.748 11.29-2.029 22.641-3.209 34.101-3.585zm-11.513 92.083c-7.499 10.841-8.308 22.318-8.254 35.193-3e-3 1.166-6e-3 2.333-0.01 3.536-8e-3 3.877-1e-3 7.755 5e-3 11.633-3e-3 2.793-6e-3 5.587-0.011 8.38-9e-3 7.567-5e-3 15.133 1e-3 22.699 5e-3 7.934 1e-3 15.867-3e-3 23.801-3e-3 14.178 3e-3 28.356 0.013 42.535 9e-3 12.827 7e-3 25.655-2e-3 38.482-0.011 14.927-0.015 29.853-9e-3 44.78 3e-3 7.89 4e-3 15.78-3e-3 23.67-6e-3 7.423-1e-3 14.846 0.01 22.27 3e-3 2.715 2e-3 5.43-3e-3 8.145-0.06 40.681-0.06 40.681 9.242 51.086 6.488 6.351 13.036 8.763 22.024 9.227 8.911-0.322 15.758-4.196 22-10.437 5.801-7.402 5.289-17.466 5.254-26.398 1e-3 -0.612 1e-3 -0.612 9e-3 -3.712 8e-3 -4.092 2e-3 -8.184-4e-3 -12.277 2e-3 -2.939 6e-3 -5.878 0.01-8.817 9e-3 -7.975 6e-3 -15.95-1e-3 -23.926-4e-3 -7.503-1e-3 -15.006 2e-3 -22.508 6e-3 -15.769-1e-3 -31.537-0.011-47.306-9e-3 -13.515-8e-3 -27.031 2e-3 -40.547 0.01-15.71 0.014-31.42 8e-3 -47.131-3e-3 -8.31-3e-3 -16.621 3e-3 -24.932 6e-3 -7.815 2e-3 -15.631-9e-3 -23.447-3e-3 -2.865-2e-3 -5.731 2e-3 -8.597 6e-3 -3.917-1e-3 -7.834-0.011-11.751 2e-3 -0.565 2e-3 -0.565 0.013-3.422-0.066-13.471-1.909-22.749-11.517-32.542-12.245-8.776-27.948-9.495-38.75 2.313z"/>
<path transform="translate(900.29 305.87)" d="m0 0c1.165-2e-3 2.329-4e-3 3.529-5e-3 3.868-5e-3 7.735-2e-3 11.603 2e-3 2.693-1e-3 5.385-2e-3 8.078-3e-3 5.659-2e-3 11.317 0 16.976 5e-3 7.216 6e-3 14.432 2e-3 21.649-4e-3 5.571-3e-3 11.141-2e-3 16.712 1e-3 2.658 0 5.315-1e-3 7.973-3e-3 62.565-0.043 62.565-0.043 86.194 15.136 0.795 0.493 1.591 0.985 2.41 1.493 17.519 11.949 27.157 34.166 31.164 54.406 0.434 3.157 0.554 6.158 0.558 9.344 3e-3 1.239 7e-3 2.479 0.011 3.756-1e-3 1.354-2e-3 2.708-2e-3 4.103 3e-3 1.445 5e-3 2.89 9e-3 4.379 7e-3 4.006 9e-3 8.013 0.01 12.02 2e-3 4.323 0.01 8.647 0.016 12.97 0.014 9.455 0.02 18.911 0.024 28.366 3e-3 5.91 7e-3 11.82 0.012 17.731 0.012 16.379 0.022 32.759 0.026 49.139v3.176c1e-3 1.051 1e-3 2.102 1e-3 3.184 0 2.129 1e-3 4.258 1e-3 6.387 0 0.528 0 0.528 1e-3 3.2 4e-3 17.084 0.021 34.167 0.045 51.251 0.023 17.561 0.036 35.121 0.037 52.682 1e-3 9.851 7e-3 19.702 0.025 29.552 0.015 8.395 0.02 16.79 0.012 25.185-4e-3 4.276-3e-3 8.552 0.011 12.827 0.091 33.022-1.007 64.326-25.086 89.685-3.816 3.614-7.817 6.413-12.285 9.164-0.519 0.372-0.519 0.372-3.148 2.254-20.323 12.931-50.255 12.902-73.891 12.892-1.136 3e-3 -2.273 6e-3 -3.444 0.01-3.714 9e-3 -7.428 0.011-11.142 0.012-2.596 4e-3 -5.193 7e-3 -7.789 0.01-5.42 6e-3 -10.84 8e-3 -16.259 8e-3 -6.952 0-13.904 0.013-20.855 0.03-5.352 0.012-10.703 0.014-16.054 0.013-2.565 1e-3 -5.129 6e-3 -7.694 0.013-3.573 0.01-7.147 7e-3 -10.72 1e-3 -1.061 6e-3 -2.122 0.012-3.215 0.017-4.657-0.02-7.56-0.145-11.789-2.26-2.896-4.344-2.288-8.676-2.278-13.735-6e-3 -1.121-0.012-2.243-0.018-3.398-0.017-3.789-0.02-7.577-0.023-11.365-9e-3 -2.718-0.019-5.436-0.03-8.154-0.028-7.453-0.043-14.907-0.056-22.36-0.015-7.921-0.042-15.843-0.068-23.764-0.045-14.414-0.08-28.827-0.111-43.24-0.028-13.163-0.06-26.326-0.096-39.489l-0.015-5.253c-7e-3 -2.626-0.014-5.253-0.021-7.879-0.118-43.121-0.207-86.242-0.284-129.36-2e-3 -1.417-5e-3 -2.834-8e-3 -4.295-0.056-31.566-0.101-63.132-0.113-94.698-2e-3 -5.576-6e-3 -11.151-0.01-16.727-7e-3 -9.452-9e-3 -18.903-3e-3 -28.355 1e-3 -3.016 0-6.033-2e-3 -9.049-5e-3 -8.626 0.02-17.25 0.136-25.876 0.013-1.002 0.027-2.004 0.04-3.037 0.048-2.682 0.125-5.362 0.218-8.043 0.046-1.432 0.091-2.864 0.137-4.34 0.682-4.033 1.686-5.76 4.605-8.58 4.652-1.55 9.426-1.138 14.286-1.129zm69.714 80.129c-2.285 3.428-2.251 4.651-2.254 8.681-6e-3 1.191-0.012 2.382-0.018 3.608 4e-3 1.315 8e-3 2.63 0.011 3.984-3e-3 1.392-7e-3 2.783-0.011 4.217-0.011 4.691-7e-3 9.383-3e-3 14.074-4e-3 3.352-9e-3 6.704-0.015 10.056-0.013 8.177-0.015 16.354-0.012 24.531 2e-3 6.644 0 13.289-4e-3 19.933-1e-3 0.945-2e-3 1.889-2e-3 2.863-1e-3 1.918-3e-3 3.837-4e-3 5.756-0.011 18.007-9e-3 36.014-3e-3 54.021 6e-3 16.483-6e-3 32.966-0.025 49.449-0.019 16.913-0.027 33.826-0.023 50.739 1e-3 9.5-1e-3 19-0.015 28.5-0.012 8.088-0.014 16.175-1e-3 24.263 5e-3 4.129 5e-3 8.257-5e-3 12.385-0.011 4.471-3e-3 8.942 0.01 13.414-7e-3 1.31-0.015 2.62-0.022 3.97 7e-3 1.196 0.014 2.392 0.021 3.624v3.128c0.443 3.31 1.36 5.155 3.375 7.804 9.651 4.738 22.001 4.711 32.188 1.438 6.735-2.954 11.056-7.365 14.187-14.063 1.897-5.107 2.75-9.307 2.754-14.731 1e-3 -0.534 1e-3 -0.534 0.01-3.235-2e-3 -1.166-4e-3 -2.333-5e-3 -3.535 1e-3 -0.622 1e-3 -0.622 7e-3 -3.77 6e-3 -4.181 5e-3 -8.362 4e-3 -12.542 3e-3 -2.993 7e-3 -5.986 0.011-8.978 7e-3 -7.293 0.011-14.585 0.011-21.878 1e-3 -5.928 3e-3 -11.856 6e-3 -17.784 9e-3 -16.808 0.013-33.616 0.013-50.424 0-0.453 0-0.453-1e-3 -2.745v-2.75c0-14.702 9e-3 -29.404 0.024-44.107 0.014-15.097 0.021-30.194 0.02-45.291 0-8.476 2e-3 -16.951 0.013-25.427 0.01-7.97 0.01-15.941 3e-3 -23.912-1e-3 -2.926 1e-3 -5.853 7e-3 -8.78 8e-3 -3.993 3e-3 -7.985-5e-3 -11.978 5e-3 -1.16 0.011-2.32 0.016-3.515-0.045-10.539-1.674-18.891-9.052-26.946-7.422-7.037-15.473-8.567-25.398-8.484-0.432-0.01-0.432-0.01-2.616-0.061-5.605 5e-3 -8.934 0.833-13.197 4.498z"/>
<path transform="translate(1607.1 305.69)" d="m0 0c1.485-0.016 2.97-0.032 4.501-0.048 1.609-6e-3 3.218-0.011 4.876-0.017 0.825-4e-3 0.825-4e-3 4.996-0.027 3.492-0.017 6.984-0.024 10.476-0.027 4.472-6e-3 8.942-0.043 13.413-0.089 3.441-0.03 6.881-0.037 10.321-0.038 2.449-6e-3 4.898-0.036 7.347-0.065 1.491 6e-3 2.983 0.012 4.519 0.018 1.312-5e-3 2.625-0.01 3.977-0.015 3.428 0.614 3.428 0.614 6.35 2.507 2.916 4.361 2.782 8.357 2.737 13.429 0.011 1.04 0.021 2.081 0.032 3.152 0.029 3.455 0.023 6.908 0.016 10.362 0.013 2.433 0.028 4.866 0.046 7.299 0.04 6.439 0.05 12.879 0.054 19.318 9e-3 6.399 0.047 12.797 0.082 19.196 0.056 11.068 0.086 22.136 0.098 33.205 6e-3 6.425 0.02 12.851 0.046 19.276 0.014 3.621 0.025 7.242 0.034 10.864 7e-3 2.385 0.019 4.771 0.031 7.157 0.011 7.697-0.286 15.196-1.098 22.849-0.084 2.854-0.13 5.708-0.125 8.563-3e-3 1.362-5e-3 2.725-8e-3 4.129 0.133 3.308 0.133 3.308 1.133 5.308 2.809 0.485 2.809 0.485 6 0 7.388-8.069 9.595-19.083 11.918-29.429 1.024-4.326 2.346-8.125 4.121-12.172 1.658-4.139 2.709-8.46 3.891-12.754 1.068-3.636 2.313-7.155 3.633-10.707 2.051-5.587 3.45-11.113 4.691-16.926 0.697-2.814 1.598-5.293 2.746-7.949 1.669-3.899 2.618-7.651 3.438-11.813 1.22-6.141 3.11-11.752 5.304-17.605 1.801-5.217 3.013-10.542 4.293-15.906 1.056-4.089 2.455-7.92 3.977-11.852 1.191-3.481 1.981-6.988 2.801-10.574 5.147-21.283 5.147-21.283 13.187-27.313 4.631-0.944 9.15-1.133 13.866-1.161 0.662-5e-3 0.662-5e-3 4.014-0.029 0.707-2e-3 0.707-2e-3 4.284-0.013 1.465-5e-3 2.931-0.011 4.441-0.017 3.091-9e-3 6.182-0.016 9.274-0.02 4.736-0.01 9.471-0.041 14.207-0.072 3.005-7e-3 6.01-0.012 9.016-0.016 0.708-6e-3 0.708-6e-3 4.296-0.037 1.318 3e-3 2.637 6e-3 3.995 9e-3 1.158-4e-3 2.316-7e-3 3.509-0.011 3.472 0.412 5.37 1.196 8.098 3.367 0.683 4.999-0.365 8.743-2.187 13.375-2.459 6.537-4.492 13.122-6.407 19.836-2.043 6.959-4.232 13.871-6.406 20.789-0.918 2.933-1.836 5.865-2.754 8.797-0.936 2.985-1.872 5.969-2.808 8.953-0.235 0.749-0.235 0.749-1.42 4.536-2.336 7.442-4.712 14.867-7.198 22.26-0.965 2.888-1.874 5.79-2.757 8.704-0.332 1.084-0.663 2.169-1.004 3.286-0.175 0.571-0.175 0.571-1.059 3.464-2.582 8.393-5.241 16.748-8.062 25.063-2.257 6.713-4.181 13.441-5.946 20.297-1.371 5.03-3.043 9.939-4.719 14.875-1.926 5.696-3.743 11.421-5.484 17.177-0.589 1.931-1.186 3.86-1.789 5.787-1.126 3.615-2.221 7.238-3.312 10.864-0.362 1.147-0.724 2.294-1.097 3.475-4.21 14.228-2.946 26.467 1.034 40.587 0.362 1.343 0.725 2.686 1.098 4.07 1.071 3.942 2.168 7.875 3.277 11.805 0.303 1.08 0.607 2.159 0.919 3.27 1.263 4.472 2.544 8.937 3.843 13.398 1.27 4.444 2.398 8.904 3.481 13.395 0.777 3.015 1.665 5.973 2.593 8.945 4.605 14.85 9.116 29.74 13.039 44.785 1.65 6.169 3.384 12.314 5.125 18.457 0.333 1.186 0.665 2.371 1.008 3.592 1.463 5.14 2.962 10.211 4.867 15.205 6.022 16.146 9.853 33.246 14.25 49.891 1.022 3.864 2.045 7.727 3.07 11.59 0.244 0.917 0.487 1.834 0.738 2.779 1.679 6.303 3.445 12.577 5.258 18.843 1.032 3.637 1.935 7.298 2.809 10.975 1.445 5.912 3.165 11.614 5.266 17.325 0.734 2.55 0.734 2.55 0.734 7.55-3.783 3.784-5.048 3.379-10.282 3.389-1.516 9e-3 -3.031 0.018-4.593 0.028-1.643-6e-3 -3.287-0.012-4.98-0.018-1.703 2e-3 -3.406 5e-3 -5.109 9e-3 -3.574 4e-3 -7.147-2e-3 -10.721-0.016-4.565-0.018-9.13-8e-3 -13.695 0.01-3.52 0.011-7.04 8e-3 -10.56 0-2.497-3e-3 -4.994 6e-3 -7.491 0.015-0.765-4e-3 -0.765-4e-3 -4.64-0.028-1.341-3e-3 -2.682-5e-3 -4.064-8e-3 -5.317-0.524-9.944-1.968-14.271-5.15-2.086-2.919-2.504-5.389-3.094-8.918-0.947-4.997-2.206-9.004-4.465-13.582-1.791-4.724-2.567-9.714-3.535-14.659-0.87-4.351-1.847-8.453-3.5-12.572-1.928-4.823-2.943-9.732-3.937-14.812-1.38-7.008-3.29-13.539-5.836-20.211-1.802-5.105-3.011-10.321-4.235-15.59-0.992-3.887-0.992-3.887-2.457-8.219-1.636-4.975-2.829-9.938-3.972-15.043-1.486-6.44-3.104-12.611-5.532-18.769-1.938-5.368-3.308-10.911-4.804-16.414-1.345-4.868-2.817-9.684-4.336-14.5-0.848-2.798-1.564-5.604-2.266-8.442-1.477-5.603-3.88-10.653-6.418-15.847-1.207-2.653-1.207-2.653-1.207-4.653h-8c-0.028 2.5-0.047 5-0.062 7.5-0.012 1.393-0.024 2.785-0.036 4.219 0.027 4.205 0.297 8.37 0.595 12.564 0.541 8.5 0.651 16.962 0.648 25.477 4e-3 1.591 7e-3 3.182 0.01 4.821 9e-3 4.309 0.012 8.618 0.012 12.928 1e-3 2.698 3e-3 5.396 6e-3 8.095 9e-3 9.429 0.013 18.858 0.012 28.287 0 8.77 0.01 17.539 0.026 26.309 0.013 7.557 0.018 15.114 0.018 22.671 0 4.502 2e-3 9.004 0.013 13.506 0.012 5.009 7e-3 10.019 1e-3 15.028 6e-3 1.483 0.011 2.966 0.017 4.495-4e-3 1.366-8e-3 2.732-0.013 4.14 1e-3 1.182 1e-3 2.365 2e-3 3.583-0.277 3.756-0.911 6.853-2.249 10.377-4.516 3.387-5.719 3.379-11.168 3.389-0.732 4e-3 -0.732 4e-3 -4.439 0.028-1.583-6e-3 -3.165-0.012-4.795-0.018-0.813 1e-3 -0.813 1e-3 -4.925 9e-3 -3.439 4e-3 -6.877-2e-3 -10.316-0.016-4.403-0.018-8.806-8e-3 -13.208 0.01-4.205 0.014-8.409 4e-3 -12.614-3e-3 -1.58 6e-3 -3.16 0.012-4.789 0.018-1.468-9e-3 -2.936-0.019-4.449-0.028-1.291-3e-3 -2.583-5e-3 -3.913-8e-3 -3.643-0.41-5.496-1.166-8.384-3.381-2.64-3.96-2.252-6.423-2.254-11.179-4e-3 -0.848-7e-3 -1.696-0.01-2.569-9e-3 -2.866-3e-3 -5.732 3e-3 -8.599-3e-3 -2.065-7e-3 -4.131-0.011-6.196-0.011-5.696-8e-3 -11.392-4e-3 -17.088 2e-3 -6.135-7e-3 -12.27-0.014-18.405-0.013-12.027-0.015-24.054-0.012-36.081 1e-3 -9.772 0-19.544-5e-3 -29.316 0-1.388-1e-3 -2.777-1e-3 -4.208-2e-3 -2.82-3e-3 -5.641-4e-3 -8.461-0.011-26.477-9e-3 -52.954-3e-3 -79.431 6e-3 -24.242-6e-3 -48.485-0.025-72.728-0.019-24.868-0.027-49.736-0.024-74.605 2e-3 -13.971 0-27.942-0.014-41.913-0.012-11.895-0.014-23.789-2e-3 -35.683 6e-3 -6.072 7e-3 -12.144-5e-3 -18.217-0.01-5.554-7e-3 -11.108 7e-3 -16.662 2e-3 -2.014 0-4.028-8e-3 -6.042-0.01-2.729-2e-3 -5.457 0.011-8.185v-4.602c0.383-3.907 0.96-5.785 3.375-8.83 3.728-2.485 5.689-2.27 10.146-2.306z"/>
<path transform="translate(319.97 305.87)" d="m0 0c0.614-2e-3 0.614-2e-3 3.724-0.01 1.331 2e-3 2.662 4e-3 4.034 7e-3 0.685-1e-3 0.685-1e-3 4.152-3e-3 2.906-1e-3 5.812 1e-3 8.718 5e-3 4.427 5e-3 8.853 0 13.28-6e-3 2.825 0 5.65 2e-3 8.475 4e-3 1.317-2e-3 2.634-4e-3 3.991-7e-3 18.715 0.048 18.715 0.048 23.223 2.577 3.966 7.068 2.581 17.831 2.567 25.748 1e-3 0.641 1e-3 0.641 6e-3 3.887 4e-3 4.215 1e-3 8.431-2e-3 12.646 0 2.944 1e-3 5.887 3e-3 8.831 1e-3 6.16-1e-3 12.319-6e-3 18.479-5e-3 7.882-2e-3 15.763 4e-3 23.645 3e-3 6.076 2e-3 12.151 0 18.227-1e-3 2.905 0 5.811 2e-3 8.717 3e-3 4.065-1e-3 8.131-7e-3 12.197 2e-3 1.192 4e-3 2.384 6e-3 3.612-0.016 6.602-0.386 13.014-1.135 19.573-0.185 4.293-0.185 8.579-0.188 12.875-0.012 1.114-0.024 2.228-0.037 3.375-2e-3 1.07-4e-3 2.14-6e-3 3.243-4e-3 0.962-8e-3 1.925-0.012 2.917 0.243 2.59 0.243 2.59 2.243 6.59 3.625 0.75 3.625 0.75 7 1 0.282-0.742 0.565-1.485 0.855-2.25 1.145-2.75 1.145-2.75 3.457-6.75 3.138-6.127 4.453-12.652 5.9-19.336 1.189-5.443 2.791-10.446 4.788-15.664 0.683-2.636 1.329-5.282 1.937-7.937 1.249-5.149 2.663-9.701 4.997-14.477 2.137-5.183 3.389-10.675 4.839-16.082 1.037-3.806 2.156-7.558 3.352-11.316 1.315-4.182 2.388-8.34 3.312-12.625 1.3-5.876 3.211-11.376 5.305-17.012 1.265-3.57 2.316-7.149 3.32-10.801 1.111-4.018 2.308-7.851 3.938-11.687 1.667-3.959 2.774-7.894 3.812-12.063 1.565-6.02 3.407-11.857 5.563-17.687 0.544-1.489 1.088-2.978 1.648-4.512 2.245-4.317 3.747-5.516 7.977-7.801 3.383-0.501 3.383-0.501 7.119-0.501 1.405-0.01 2.81-0.019 4.258-0.029 1.506 0.011 3.012 0.023 4.564 0.034 0.778 0 0.778 0 4.714-4e-3 4.126 2e-3 8.252 0.023 12.378 0.051 2.529 0.012 5.057 0.01 7.585 3e-3 4.858-0.012 9.715-4e-3 14.573 0.013 1.509-3e-3 3.017-6e-3 4.571-9e-3 1.402 0.013 2.804 0.025 4.248 0.038 1.232 6e-3 2.464 0.011 3.734 0.017 3.559 0.423 5.477 1.139 8.256 3.387 0.91 5.763-0.558 9.78-2.859 15.032-1.384 3.601-2.252 7.215-3.141 10.968-1.289 5.394-2.823 10.32-5.004 15.403-1.697 4.426-2.754 9.023-3.934 13.609-1.793 6.733-3.945 13.352-6.062 19.988-2.834 8.901-5.534 17.822-8.063 26.813-1.733 6.158-3.597 12.19-5.886 18.164-1.476 4.246-2.656 8.57-3.864 12.898-2.561 9.162-5.473 18.167-8.523 27.176-2.671 7.896-5.139 15.858-7.531 23.843-1.697 5.617-3.483 11.171-5.492 16.685-7.863 21.712-7.74 36.717-0.641 58.421 0.836 2.624 1.67 5.249 2.5 7.875 0.401 1.259 0.802 2.517 1.215 3.813 1.879 6.306 3.487 12.68 5.054 19.07 1.375 5.469 3.09 10.573 5.256 15.777 1.625 4.11 2.796 8.335 3.975 12.59 0.258 0.915 0.516 1.829 0.781 2.772 1.5 5.367 2.899 10.751 4.219 16.166 1.668 6.836 3.653 13.555 5.712 20.281 2.248 7.391 4.213 14.837 6.112 22.324 0.811 2.986 1.718 5.947 2.703 8.879 1.375 4.158 2.411 8.241 3.348 12.516 1.632 7.125 3.664 14.019 5.906 20.973 1.219 3.964 2.244 7.934 3.219 11.964 1.623 6.676 3.561 13.194 5.644 19.739 3.953 12.426 7.662 24.801 10.399 37.562 0.977 3.778 2.395 7.131 3.957 10.699 0.375 3.25 0.375 3.25 0 6-3.869 3.87-5.393 3.384-10.773 3.404-1.622 0.013-3.244 0.026-4.915 0.039-1.777-2e-3 -3.555-5e-3 -5.332-9e-3 -1.819 5e-3 -3.639 0.01-5.459 0.016-3.817 9e-3 -7.635 6e-3 -11.452-4e-3 -4.886-0.011-9.771 9e-3 -14.657 0.038-3.76 0.019-7.521 0.018-11.281 0.013-1.801 0-3.601 6e-3 -5.402 0.018-2.523 0.015-5.046 2e-3 -7.568-0.013h-4.347c-4.323-0.568-6.481-1.739-9.814-4.502-1.753-3.593-2.218-7.278-2.875-11.187-0.67-3.916-1.626-7.422-3.063-11.125-1.586-4.103-2.609-8.055-3.437-12.375-1.052-5.284-2.578-10.054-4.563-15.063-2.868-7.296-4.552-14.546-6.132-22.211-0.75-3.255-1.586-6.007-2.93-9.039-2.592-5.87-3.613-12.086-4.934-18.339-1.306-5.709-3.034-11.213-4.843-16.778-1.22-3.874-2.273-7.762-3.286-11.695-1.125-4.344-2.37-8.508-4-12.688-2.106-5.507-3.083-11.091-4.156-16.875-0.89-4.128-2.276-7.844-3.82-11.761-1.129-3.364-1.724-6.682-2.336-10.176-1.628-8.79-4.645-17.217-9.625-24.688-3.125-0.187-3.125-0.187-6 0-1.896 4.773-2.178 8.574-1.99 13.688 0.05 1.606 0.1 3.213 0.151 4.868 0.031 0.878 0.062 1.755 0.094 2.659 0.174 5.027 0.3 10.054 0.426 15.082 0.028 1.131 0.056 2.261 0.085 3.426 0.576 24.584 0.533 49.183 0.575 73.774 0.017 9.576 0.05 19.151 0.107 28.727 0.043 7.658 0.059 15.316 0.065 22.975 7e-3 3.228 0.022 6.456 0.046 9.684 0.032 4.468 0.032 8.935 0.024 13.403 0.017 1.323 0.033 2.646 0.05 4.01-0.061 8.88-0.061 8.88-2.92 12.999-4.4 2.765-8.347 2.841-13.406 2.882-1.362 0.013-2.723 0.026-4.127 0.039-0.734 4e-3 -0.734 4e-3 -4.454 0.023-1.511 8e-3 -3.023 0.016-4.58 0.024-3.2 0.014-6.399 0.025-9.598 0.033-4.897 0.017-9.792 0.061-14.689 0.105-3.106 0.01-6.213 0.018-9.32 0.025-1.466 0.018-2.932 0.035-4.442 0.053-1.368-3e-3 -2.736-6e-3 -4.145-9e-3 -1.201 6e-3 -2.401 0.012-3.638 0.018-4.076-0.6-6.184-1.832-9.314-4.488-2.385-4.384-2.247-8.454-2.242-13.376-2e-3 -0.844-3e-3 -1.689-5e-3 -2.559-4e-3 -2.844 7e-3 -5.688 0.017-8.532 1e-3 -2.054 0-4.108-1e-3 -6.162-1e-3 -5.655 0.011-11.31 0.025-16.965 0.012-6.095 0.014-12.19 0.016-18.285 8e-3 -11.944 0.026-23.888 0.049-35.832 0.019-9.706 0.034-19.411 0.048-29.116 0.037-27.498 0.083-54.996 0.14-82.494 3e-3 -1.484 6e-3 -2.967 0.01-4.495 3e-3 -1.485 6e-3 -2.97 9e-3 -4.5 0.049-24.077 0.079-48.153 0.099-72.23 0.021-24.705 0.057-49.41 0.108-74.114 0.029-13.877 0.051-27.754 0.058-41.63 5e-3 -11.813 0.025-23.626 0.062-35.439 0.019-6.03 0.031-12.06 0.026-18.09-5e-3 -5.516 9e-3 -11.032 0.038-16.548 7e-3 -2 7e-3 -3.999 0-5.998-8e-3 -2.712 7e-3 -5.422 0.03-8.133 2e-3 -1.508 5e-3 -3.015 7e-3 -4.569 0.566-4.4 1.648-6.576 4.506-9.933 3.231-1.077 5.567-1.127 8.965-1.129z"/>
<path transform="translate(1387.2 305.84)" d="m0 0c0.838-5e-3 1.676-0.01 2.539-0.015 2.774-0.015 5.549-0.021 8.323-0.027 1.93-6e-3 3.859-0.012 5.789-0.017 4.048-0.011 8.097-0.017 12.145-0.02 5.18-6e-3 10.359-0.03 15.539-0.058 3.987-0.019 7.974-0.024 11.962-0.025 1.909-3e-3 3.818-0.011 5.727-0.025 2.676-0.017 5.351-0.015 8.027-8e-3 0.76-2e-3 0.76-2e-3 4.609-0.011 5.57 0.496 9.628 1.723 13.433 5.904 2.198 4.5 3.007 8.974 3.754 13.877 0.082 0.505 0.082 0.505 0.497 3.061 1.741 10.932 3.112 21.912 4.44 32.9 1.461 12.037 3.02 24.029 5 35.992 2.28 13.824 3.836 27.708 5.355 41.633 1.326 12.083 2.882 24.002 5.269 35.925 1.3 6.515 2.197 12.966 2.814 19.575 1.496 14.515 3.466 28.953 5.454 43.408 1.255 9.135 2.479 18.274 3.704 27.414 1.326 9.888 2.66 19.775 3.997 29.663 0.264 1.954 0.528 3.908 0.791 5.863 0.783 5.801 1.572 11.602 2.366 17.402 0.186 1.382 0.373 2.764 0.565 4.188 0.899 6.524 1.934 12.982 3.205 19.445 1.64 8.539 2.56 17.094 3.418 25.742 1.598 15.423 3.481 30.782 5.614 46.139 0.404 2.916 0.8 5.834 1.19 8.752 1.704 12.697 3.52 25.378 5.345 38.058 1.047 7.288 2.076 14.578 3.054 21.875 0.177 1.318 0.354 2.636 0.537 3.994 0.331 2.469 0.657 4.939 0.978 7.409 0.746 5.563 1.712 10.764 3.344 16.148 0.063 3.75 0.063 3.75-1 7-4.754 2.549-8.602 3.377-13.957 3.388-1.345 0.01-2.69 0.019-4.075 0.029-1.436-6e-3 -2.872-0.012-4.351-0.018-1.487 2e-3 -2.975 5e-3 -4.507 8e-3 -3.139 2e-3 -6.277-3e-3 -9.416-0.016-4.808-0.016-9.616 0-14.424 0.019-3.051-2e-3 -6.102-6e-3 -9.153-0.011-1.439 6e-3 -2.879 0.012-4.362 0.018-1.339-9e-3 -2.677-0.019-4.056-0.029-1.176-2e-3 -2.352-4e-3 -3.563-7e-3 -3.523-0.428-5.325-1.243-8.136-3.381-3.384-4.513-3.565-6.483-4.097-11.992-0.081-0.797-0.081-0.797-0.491-4.828-0.159-1.685-0.317-3.37-0.474-5.055-0.322-3.268-0.646-6.537-0.973-9.805-0.079-0.792-0.079-0.792-0.477-4.801-0.557-5.161-1.284-10.281-2.053-15.414-0.751-5.362-1.164-10.752-1.558-16.152-0.431-4.939-1.187-8.752-3.877-12.953-8.349-5.263-17.731-4.183-27.25-4.187-1.476-0.013-2.952-0.025-4.472-0.037-20.348-0.028-20.348-0.028-26.278 5.224-5.722 10.301-6.244 21.768-6.746 33.336-0.116 2.303-0.233 4.607-0.35 6.91-0.173 3.581-0.343 7.162-0.506 10.744-0.161 3.491-0.339 6.981-0.519 10.471-0.044 1.069-0.088 2.138-0.133 3.239-0.289 5.424-0.647 9.649-3.746 14.3-4.893 3.734-9.811 4.12-15.812 4.161-1.145 0.01-2.29 0.019-3.469 0.029-1.227 5e-3 -2.454 9e-3 -3.719 0.013-1.268 6e-3 -2.537 0.012-3.844 0.018-2.679 9e-3 -5.359 0.016-8.039 0.019-4.101 0.01-8.203 0.041-12.304 0.073-2.604 6e-3 -5.209 0.011-7.813 0.015-1.227 0.013-2.454 0.025-3.719 0.038-1.144-3e-3 -2.289-6e-3 -3.468-9e-3 -1.005 3e-3 -2.009 7e-3 -3.043 0.011-3.539-0.47-6.229-1.827-8.77-4.368-0.221-6.782 0.27-13.231 1.313-19.937 0.134-0.914 0.269-1.827 0.408-2.768 0.64-4.298 1.329-8.58 2.076-12.861 1.683-9.746 2.606-19.317 3.203-29.184 0.533-8.794 1.185-17.313 3.219-25.914 1.949-8.321 3.048-16.504 3.594-25.023 0.679-9.207 1.901-18.213 3.437-27.313 2.999-17.891 4.752-35.905 6.519-53.953 1.199-11.999 2.787-23.672 5.314-35.463 1.454-7.269 2.218-14.59 2.98-21.959 0.969-9.291 2.216-18.287 4.284-27.399 0.974-4.81 1.264-9.584 1.528-14.476 0.677-10.091 1.956-20.006 3.5-30 3.244-21.099 5.557-42.303 7.408-63.568 0.797-9.141 2.158-18.066 3.754-27.092 1.361-7.908 2.135-15.778 2.744-23.774 0.725-9.203 2.159-18.216 3.719-27.316 1.473-8.926 2.527-17.823 3.34-26.836 0.94-5.931 2.398-9.901 6.66-14.164 3.85-1.283 7.149-1.143 11.216-1.161zm29.784 179.16c-2.276 6.413-3.896 12.688-5.125 19.375-0.169 0.869-0.338 1.738-0.512 2.633-2.158 11.489-2.543 22.987-2.959 34.639-0.563 15.618-1.199 30.985-3.933 46.402-2.147 12.232-2.866 24.559-3.471 36.951-0.047 0.886-0.093 1.773-0.141 2.686-0.642 13.372-0.642 13.372 4.141 19.314 8.046 4.733 18.947 3.97 27.926 2.531 3.63-1.024 6.198-2.629 9.137-4.968 4.867-8.949 1.285-18.743-1.047-28.055-2.511-11.143-2.973-22.589-3.659-33.96-0.947-15.525-2.638-30.825-4.773-46.229-0.649-4.797-1.252-9.6-1.849-14.405-0.326-2.584-0.652-5.168-0.979-7.752-0.311-2.478-0.614-4.956-0.917-7.435-0.972-7.586-2.013-14.602-4.839-21.727h-7z"/>
<path transform="translate(1184.4 305.26)" d="m0 0c1.485-0.012 2.97-0.025 4.5-0.038 1.599 0.019 3.198 0.037 4.846 0.056 0.823 0 0.823 0 4.987-3e-3 3.48 0 6.96 0.021 10.44 0.057 4.456 0.046 8.91 0.047 13.366 0.033 4.257-8e-3 8.513 0.016 12.769 0.038 1.599-2e-3 3.198-4e-3 4.846-5e-3 1.485 0.019 2.97 0.038 4.5 0.057 0.653 5e-3 0.653 5e-3 3.958 0.028 4.178 0.638 5.696 1.267 8.415 4.522 2.233 8.232 2.041 15.788 1.628 24.257-0.523 13.386-0.735 26.741-0.721 40.134 0 0.952 1e-3 1.904 2e-3 2.885 5e-3 6.119 0.018 12.237 0.034 18.356 0.012 5.609 0.019 11.218 0.026 16.827 0.013 9.679 0.029 19.358 0.047 29.036 0.029 15.299 0.045 30.598 0.06 45.897 5e-3 5.25 0.01 10.501 0.015 15.752 2e-3 1.311 3e-3 2.622 4e-3 3.973 0.015 14.859 0.032 29.717 0.049 44.576 2e-3 1.355 3e-3 2.711 5e-3 4.107 0.027 22.051 0.065 44.103 0.105 66.154 0.042 22.689 0.069 45.379 0.082 68.068 8e-3 13.974 0.029 27.948 0.066 41.923 0.024 9.552 0.034 19.104 0.032 28.656 0 5.511 6e-3 11.023 0.029 16.535 0.022 5.041 0.025 10.082 0.013 15.124-1e-3 1.826 5e-3 3.652 0.018 5.479 0.017 2.476 7e-3 4.954-5e-3 7.431 2e-3 1.377 4e-3 2.754 7e-3 4.173-0.572 4.214-1.831 6.383-4.496 9.657-2.936 1.467-5.555 1.151-8.833 1.177-1.442 0.012-2.884 0.025-4.37 0.039-0.784 3e-3 -0.784 3e-3 -4.75 0.022-1.603 8e-3 -3.207 0.016-4.859 0.024-3.399 0.015-6.799 0.025-10.198 0.033-4.349 0.011-8.698 0.045-13.047 0.085-4.153 0.032-8.306 0.037-12.459 0.045-1.559 0.018-3.119 0.035-4.726 0.053-1.454-2e-3 -2.909-5e-3 -4.407-8e-3 -1.278 5e-3 -2.555 0.011-3.872 0.017-4.311-0.604-6.313-1.479-9.479-4.487-1.689-6.026-2.249-11.583-2.244-17.822-3e-3 -0.844-5e-3 -1.688-7e-3 -2.558-5e-3 -2.818 5e-3 -5.636 0.015-8.454-1e-3 -2.046-2e-3 -4.091-4e-3 -6.136-3e-3 -5.612 7e-3 -11.224 0.019-16.836 0.011-6.055 0.01-12.11 0.011-18.165 4e-3 -13.233 0.023-26.466 0.044-39.699 0.014-8.26 0.024-16.521 0.034-24.781 0.026-22.866 0.056-45.732 0.1-68.598 3e-3 -1.462 5e-3 -2.925 8e-3 -4.432 6e-3 -2.965 0.012-5.93 0.017-8.895 3e-3 -1.472 6e-3 -2.944 9e-3 -4.461 2e-3 -1.473 5e-3 -2.947 8e-3 -4.465 0.045-23.906 0.067-47.811 0.078-71.716 0.011-24.538 0.042-49.075 0.091-73.613 0.027-13.779 0.047-27.559 0.046-41.338-1e-3 -11.727 0.016-23.453 0.055-35.18 0.019-5.986 0.03-11.971 0.02-17.956-0.01-5.476 4e-3 -10.951 0.036-16.427 7e-3 -1.984 6e-3 -3.968-4e-3 -5.953-0.012-2.691 6e-3 -5.38 0.032-8.072 2e-3 -1.496 4e-3 -2.993 6e-3 -4.535 1.28-7.941 5.295-10.66 13.003-10.653z"/>
</svg>
