<?xml version="1.0" encoding="UTF-8"?>
<svg version="1.1" viewBox="0 0 2448 1112" xmlns="http://www.w3.org/2000/svg">
<path transform="translate(9.4904 263.87)" d="m0 0c1.193-3e-3 2.385-6e-3 3.614-9e-3 1.321 2e-3 2.641 5e-3 4.002 7e-3 1.383-2e-3 2.765-4e-3 4.189-6e-3 4.606-4e-3 9.212-1e-3 13.818 2e-3 3.201-1e-3 6.403-1e-3 9.605-3e-3 6.736-1e-3 13.473 1e-3 20.209 6e-3 7.74 5e-3 15.481 3e-3 23.221-2e-3 7.475-5e-3 14.951-5e-3 22.427-2e-3 3.162 1e-3 6.325 0 9.487-2e-3 53.282-0.031 53.282-0.031 69.016 6.98 2.79 1.104 5.28 1.691 8.234 2.156 5.145 1.098 7.554 2.843 11.688 6 2.219 0.983 4.439 1.965 6.675 2.91 7.024 3.294 13.184 8.412 19.325 13.09 1.216 0.846 2.433 1.691 3.687 2.562 9.769 7.342 17.956 16.748 25.313 26.438 0.626 0.771 1.253 1.542 1.898 2.336 3.771 4.662 6.48 9.239 9.102 14.664 0.66 0.763 1.32 1.526 2 2.312 2.565 3.448 3.658 7.001 4.972 11.067 1.028 2.621 1.028 2.621 4.028 6.621 0.903 2.391 1.73 4.812 2.5 7.25 1.249 3.926 2.506 7.765 4.062 11.582 1.682 4.878 2.345 9.501 2.938 14.605 0.244 1.946 0.492 3.891 0.742 5.836 0.061 0.481 0.061 0.481 0.374 2.914 1.013 7.43 2.274 14.871 3.917 22.188 0.488 2.745 0.587 5.271 0.58 8.058v3.214c-5e-3 1.134-0.01 2.267-0.016 3.435 0 0.585 0 0.585-4e-3 3.543-6e-3 3.729-0.018 7.458-0.031 11.187-5e-3 2.531-0.01 5.062-0.014 7.592-0.011 6.199-0.028 12.397-0.048 18.596h-3c-0.231-0.713-0.462-1.426-0.7-2.16-2.07-6.08-4.454-10.648-8.3-15.84-0.965-2.187-1.929-4.375-2.875-6.57-5.205-11.24-13.585-19.681-22.125-28.43-0.731-0.764-1.462-1.529-2.215-2.316-2.612-2.464-5.651-3.955-8.785-5.684-1.011-0.681-2.022-1.361-3.063-2.063-2.937-1.937-2.937-1.937-6.125-3.5-2.812-1.437-2.812-1.437-5.812-4.437l-4-1c4.105 3.284 7.829 6.087 12.687 8.125 3.819 1.66 6.177 3.248 9.313 5.875 0.474 0.206 0.474 0.206 2.875 1.25 3.496 1.958 5.663 4.375 8.199 7.445 2.094 2.507 4.315 4.862 6.551 7.242 4.002 4.424 6.65 8.769 9.375 14.063 0.68 0.99 1.361 1.98 2.062 3 2.463 3.813 4.116 7.846 5.938 12 1.329 2.336 2.662 4.669 4 7 0.515 1.237 1.031 2.475 1.562 3.75 1.438 3.25 1.438 3.25 4.438 6.25 0.324 3.091 0.324 3.091 0.257 6.863-0.014 1.362-0.028 2.724-0.043 4.127-0.029 1.427-0.059 2.853-0.089 4.322-0.044 2.809-0.083 5.618-0.118 8.426-0.024 1.248-0.048 2.497-0.073 3.783 0.066 3.479 0.066 3.479 0.562 6.058 0.669 4.546 0.643 9.045 0.633 13.629 1e-3 0.507 1e-3 0.507 5e-3 3.078 5e-3 3.366 2e-3 6.731-2e-3 10.097 1e-3 2.371 2e-3 4.743 3e-3 7.114 2e-3 4.992 0 9.983-5e-3 14.975-5e-3 5.048-5e-3 10.096 0 15.145 0.014 15.41-0.013 30.818-0.112 46.228-0.018 3.028-0.03 6.056-0.042 9.084-0.024 5.126-0.093 10.25-0.172 15.376-5e-3 1.465-0.01 2.93-0.016 4.439-0.028 1.317-0.056 2.633-0.086 3.99-7e-3 0.563-7e-3 0.563-0.045 3.41-0.873 3.794-2.423 4.812-5.657 6.856-3.051 1.017-5.062 1.115-8.252 1.096-1.088-4e-3 -2.176-9e-3 -3.297-0.013-1.194-0.01-2.388-0.019-3.618-0.03-0.628-3e-3 -0.628-3e-3 -3.809-0.019-4.167-0.023-8.334-0.053-12.501-0.085-2.886-0.019-5.771-0.038-8.657-0.057-6.051-0.041-12.102-0.086-18.153-0.134-7.776-0.061-15.552-0.108-23.328-0.151-5.959-0.035-11.917-0.079-17.876-0.126-2.868-0.021-5.737-0.039-8.605-0.054-3.999-0.021-7.998-0.055-11.997-0.092-0.599-2e-3 -0.599-2e-3 -3.63-0.012-0.541-6e-3 -0.541-6e-3 -3.28-0.038-0.946-7e-3 -1.893-0.013-2.868-0.021-0.703-0.087-1.405-0.174-2.129-0.264-1.355-2.709-1.065-5.009-1-8-0.713-0.086-1.426-0.173-2.161-0.262-6.592-0.967-10.526-2.509-15.839-6.738l-4-1c1.051 0.598 2.103 1.196 3.187 1.812 2.138 1.227 4.27 2.467 6.375 3.75 2.438 1.438 2.438 1.438 5.625 2.938 2.813 1.5 2.813 1.5 4.813 4.5v4c-11.828 0.197-23.579 0.155-35.375-0.813-0.931-0.07-1.862-0.14-2.821-0.212-6.951-0.629-13.381-1.889-19.433-5.577-3.047-1.796-5.831-2.192-9.309-2.773-5.796-1.15-8.702-2.562-13.062-6.625-1.644-0.721-3.314-1.384-5-2-4.463-1.65-7.421-3.827-11-7-0.929-0.433-1.857-0.866-2.813-1.313-6.978-3.694-12.302-9.58-17.187-15.687-2.718-2.789-5.507-5.488-8.313-8.188-5.914-5.927-11.143-12.192-14.687-19.812-0.623-0.761-1.246-1.521-1.887-2.305-6.146-7.838-9.378-17.706-12.613-27.008-1.5-3.687-1.5-3.687-4.5-6.687-0.374-2.308-0.374-2.308-0.372-5.083-7e-3 -1.057-0.014-2.114-0.02-3.204 8e-3 -1.166 0.016-2.331 0.024-3.532-3e-3 -1.235-6e-3 -2.47-0.01-3.743-7e-3 -4.162 7e-3 -8.323 0.021-12.485-1e-3 -2.975-3e-3 -5.949-6e-3 -8.923-5e-3 -7.253 5e-3 -14.506 0.02-21.759 0.018-8.439 0.019-16.878 0.02-25.317 2e-3 -15.051 0.017-30.102 0.041-45.154 0.024-14.62 0.038-29.241 0.041-43.861 1e-3 -0.901 1e-3 -1.801 1e-3 -2.73 0-1.814 1e-3 -3.628 1e-3 -5.443 1e-3 -0.895 1e-3 -1.79 1e-3 -2.712 0-0.892 0-1.785 1e-3 -2.704 3e-3 -13.913 0.015-27.826 0.027-41.739 5e-3 -5.051 8e-3 -10.102 0.011-15.153 5e-3 -8.755 0.015-17.511 0.031-26.267 4e-3 -2.915 7e-3 -5.83 8e-3 -8.745 2e-3 -3.96 0.01-7.92 0.019-11.881-1e-3 -1.17-2e-3 -2.34-3e-3 -3.546 0.034-9.144 0.034-9.144 6.634-9.146zm90.51 140.13c-3.437 4.836-4.126 9.193-4.121 15.024-1e-3 1.234-2e-3 2.468-4e-3 3.739 4e-3 1.351 7e-3 2.702 0.011 4.093v4.317c0 4.719 8e-3 9.437 0.016 14.155 2e-3 3.268 3e-3 6.535 4e-3 9.803 3e-3 7.728 0.012 15.455 0.022 23.183 0.011 8.798 0.016 17.596 0.021 26.394 0.011 18.097 0.028 36.195 0.051 54.292l2-1c0.243-2.182 0.243-2.182 0.233-5.127 2e-3 -1.111 3e-3 -2.223 4e-3 -3.368-8e-3 -1.231-0.017-2.461-0.026-3.729-2e-3 -1.288-3e-3 -2.576-4e-3 -3.902-7e-3 -4.288-0.027-8.575-0.047-12.862-7e-3 -2.974-0.012-5.949-0.016-8.923-0.013-7.858-0.038-15.717-0.065-23.576-0.043-12.54-0.073-25.081-0.096-37.621-0.011-4.376-0.028-8.752-0.045-13.128-7e-3 -2.705-0.014-5.411-0.02-8.117-7e-3 -1.208-0.014-2.416-0.021-3.661-0.028-21.461-0.028-21.461 4.103-26.986 4.681-2.341 8.408-2.289 13.503-2.275 0.482-2e-3 0.482-2e-3 2.919-0.015 3.19-0.014 6.38-0.013 9.57-0.011 2.225-4e-3 4.45-8e-3 6.675-0.013 4.673-7e-3 9.345-7e-3 14.017-2e-3 5.956 6e-3 11.911-0.011 17.867-0.034 4.602-0.015 9.204-0.016 13.806-0.013 2.193 0 4.386-5e-3 6.58-0.015 10.724-0.044 20.887-0.053 31.332 2.735 2.731 0.643 2.731 0.643 7.731 0.643-1-2-1-2-3.741-3.054-12.606-3.459-24.662-3.496-37.65-3.407-2.322 2e-3 -4.643 3e-3 -6.965 3e-3 -4.831 3e-3 -9.662 0.019-14.493 0.046-6.193 0.035-12.387 0.042-18.581 0.04-4.778 1e-3 -9.557 0.012-14.335 0.026-2.285 7e-3 -4.571 0.011-6.856 0.012-3.18 5e-3 -6.36 0.022-9.541 0.043-0.942 0-1.884-1e-3 -2.855-2e-3 -4.417 0.043-6.961 0.282-10.983 2.293zm-4 158c0.342 11.414 1.994 21.994 4.75 33.062 0.335 1.444 0.67 2.887 1.015 4.374 1.762 7.215 3.34 12.79 8.235 18.564 0.93 2.183 1.861 4.365 2.785 6.551 2.433 4.906 5.88 9.129 9.215 13.449 0.665 0.895 1.33 1.789 2.015 2.711 4.164 5.458 8.301 9.432 13.985 13.289-1.786-3.572-3.067-5.434-6-8h-2l-2-4c-1.425-1.922-2.853-3.843-4.297-5.75-11.037-14.58-17.735-29.112-20.946-47.176-0.689-3.705-1.498-7.349-2.382-11.012-0.91-3.785-1.59-7.434-1.938-11.312-0.144-1.238-0.289-2.475-0.437-3.75l-2-1z" fill="#63AE32"/>
<path transform="translate(665.61 404.34)" d="m0 0c1.876-8e-3 3.753-0.019 5.629-0.031 5.031-0.027 10.06-0.023 15.09-0.011 4.214 7e-3 8.427-1e-3 12.64-0.01 9.931-0.019 19.862-0.014 29.793 8e-3 10.236 0.023 20.471 5e-3 30.707-0.033 8.816-0.031 17.631-0.039 26.447-0.028 5.255 6e-3 10.509 4e-3 15.763-0.019 4.927-0.022 9.853-0.014 14.78 0.017 1.807 6e-3 3.614 2e-3 5.421-0.013 2.465-0.018 4.93 4e-3 7.395 0.028 1.379 1e-3 2.758 2e-3 4.179 3e-3 4.662 0.989 5.96 2.848 8.545 6.752 1.409 4.228 1.145 8.393 1.141 12.804 3e-3 1.019 6e-3 2.037 9e-3 3.087 8e-3 3.429 0.01 6.858 0.011 10.288l0.015 7.356c0.013 6.674 0.02 13.347 0.024 20.021 3e-3 4.167 7e-3 8.334 0.012 12.501 0.014 13.032 0.023 26.064 0.027 39.096 5e-3 15.055 0.022 30.11 0.051 45.165 0.022 11.629 0.032 23.258 0.033 34.887 1e-3 6.949 7e-3 13.898 0.025 20.847 0.016 6.537 0.019 13.074 0.01 19.611-1e-3 2.399 3e-3 4.799 0.013 7.199 0.013 3.275 7e-3 6.55-3e-3 9.825 4e-3 0.475 4e-3 0.475 0.024 2.88-0.041 5.489-0.752 9.597-3.392 14.433-3.422 2.785-6.06 3.379-10.413 3.404-0.529 6e-3 -0.529 6e-3 -3.207 0.038-0.567-1e-3 -0.567-1e-3 -3.435-9e-3 -0.587 3e-3 -0.587 3e-3 -3.56 0.016-2.483 7e-3 -4.966 5e-3 -7.449-3e-3 -3.79-9e-3 -7.579 0.02-11.369 0.052-2.416 2e-3 -4.831 1e-3 -7.247-2e-3 -1.129 0.011-2.258 0.022-3.422 0.034-6.339-0.056-10.7-0.49-15.898-4.53-2.372-4.745-2.219-8.507-2.125-13.664 8e-3 -0.947 0.015-1.895 0.023-2.871 0.033-4.044 0.089-8.088 0.143-12.132 0.037-2.957 0.061-5.915 0.084-8.872 0.017-0.899 0.033-1.797 0.05-2.722 0.11-14.322 0.11-14.322-3.685-19.998-3.675-2.57-7.252-2.267-11.573-2.195-0.917-1e-3 -1.835-1e-3 -2.78-2e-3 -3.03 3e-3 -6.06 0.034-9.09 0.065-2.102 8e-3 -4.204 0.013-6.305 0.017-5.531 0.016-11.061 0.055-16.591 0.099-5.644 0.041-11.288 0.059-16.932 0.08-11.073 0.042-22.146 0.111-33.219 0.195-2.261 9.49-2.261 9.49-2.163 14.532 0.013 0.984 0.026 1.969 0.039 2.983 0.023 1.031 0.046 2.063 0.069 3.125 0.026 2.227 0.05 4.454 0.075 6.68 0.049 3.479 0.106 6.957 0.172 10.435 0.06 3.378 0.096 6.756 0.128 10.135 0.027 1.04 0.054 2.08 0.082 3.151 0.031 4.431 0.039 7.178-2.172 11.091-3.628 3.04-7.304 2.998-11.837 3.029-1.125 0.01-2.25 0.019-3.408 0.029-1.211 4e-3 -2.421 9e-3 -3.668 0.013-0.624 3e-3 -0.624 3e-3 -3.781 0.017-2.639 0.01-5.277 0.016-7.916 0.02-4.038 0.01-8.076 0.041-12.114 0.072-2.563 7e-3 -5.126 0.012-7.689 0.016-1.209 0.012-2.417 0.025-3.662 0.037-1.128-3e-3 -2.256-6e-3 -3.418-9e-3 -0.99 4e-3 -1.979 8e-3 -2.999 0.011-4.178-0.56-6.799-2.428-9.738-5.367-0.157-2.621-0.174-5.251-0.135-7.877 9e-3 -0.824 0.019-1.647 0.029-2.496 0.034-2.78 0.082-5.559 0.13-8.338 0.026-1.99 0.051-3.979 0.075-5.969 0.054-4.301 0.113-8.602 0.177-12.904 0.171-11.556 0.307-23.113 0.439-34.67 0.014-1.201 0.028-2.403 0.042-3.64 0.216-18.775 0.282-37.546 0.247-56.321-2e-3 -1.228-4e-3 -2.456-6e-3 -3.721-0.02-11.97-0.052-23.94-0.109-35.91-0.019-4.44-0.03-8.881-0.039-13.322-7e-3 -2.046-0.017-4.093-0.031-6.139-0.127-18.5-0.017-33.774 10.181-49.693 0.598-1.031 1.196-2.063 1.813-3.125 2.313-3.04 4.866-5.102 7.992-7.285 2.195-1.59 2.195-1.59 4.792-4.016 11.36-8.591 28.455-8.309 42.014-8.237zm5.389 77.663c-1.157 5.261-1.512 10.64-2 16-0.148 1.495-0.296 2.99-0.449 4.531-0.89 11.106-1.508 23.193 5.449 32.469 9.271 2.858 18.91 2.232 28.52 2.117 1.789-0.016 3.579-0.032 5.369-0.047 3.733-0.035 7.465-0.078 11.198-0.127 4.779-0.061 9.558-0.094 14.337-0.12 3.689-0.024 7.376-0.066 11.064-0.114 1.763-0.019 3.526-0.033 5.288-0.04 2.46-0.012 4.92-0.051 7.38-0.092 1.397-0.014 2.795-0.029 4.235-0.045 4.109-0.606 5.765-1.551 8.609-4.532 2.979-8.34 2.168-17.073 1.944-25.791-0.069-2.833-0.105-5.665-0.139-8.498-0.04-1.813-0.081-3.625-0.125-5.438-0.034-1.635-0.068-3.27-0.102-4.955-0.619-4.629-1.542-6.817-4.578-10.318-4.38-2.19-6.604-2.263-11.44-2.291-1.525-0.012-3.051-0.025-4.623-0.038-1.668-3e-3 -3.336-6e-3 -5.003-7e-3 -1.717-7e-3 -3.434-0.013-5.15-0.02-3.602-0.012-7.204-0.016-10.807-0.015-4.59 0-9.18-0.027-13.771-0.061-3.549-0.023-7.098-0.027-10.648-0.026-2.507-3e-3 -5.015-0.025-7.522-0.047-9.996 0.04-19.621 0.09-27.036 7.505z" fill="#001919"/>
<path transform="translate(1692.2 404.73)" d="m0 0c1.797-4e-3 3.593-0.01 5.39-0.015 4.841-0.014 9.681-0.014 14.521-0.012 4.049 1e-3 8.098-4e-3 12.147-9e-3 9.546-0.011 19.092-0.011 28.639-5e-3 9.844 6e-3 19.687-6e-3 29.531-0.028 8.467-0.017 16.935-0.023 25.402-0.02 5.051 2e-3 10.102-1e-3 15.153-0.015 4.741-0.012 9.481-0.01 14.222 3e-3 1.74 2e-3 3.479-1e-3 5.219-9e-3 2.373-0.01 4.746 0 7.12 0.01h4.024c3.696 0.403 5.549 1.065 8.437 3.375 2.428 4.856 2.278 8.879 2.254 14.173 1e-3 0.523 1e-3 0.523 9e-3 3.169 8e-3 3.516 2e-3 7.032-5e-3 10.548 3e-3 2.517 7e-3 5.033 0.011 7.549 9e-3 6.843 6e-3 13.686-1e-3 20.528-5e-3 7.152 0 14.304 3e-3 21.456 4e-3 12.011-1e-3 24.022-0.011 36.034-0.01 13.898-7e-3 27.797 4e-3 41.696 9e-3 11.92 0.01 23.84 5e-3 35.761-3e-3 7.125-3e-3 14.25 3e-3 21.375 6e-3 6.697 2e-3 13.395-0.01 20.093-2e-3 2.462-1e-3 4.924 3e-3 7.387 5e-3 3.352-1e-3 6.705-0.011 10.058 2e-3 0.491 2e-3 0.491 0.013 2.975-0.026 4.487-0.226 7.115-2.267 11.198-2.515 1.257-4.335 1.18-7.149 1.253-1.075 0.029-2.151 0.059-3.258 0.089-0.584 0.013-0.584 0.013-3.539 0.08-0.599 0.013-0.599 0.013-3.633 0.084-2.544 0.057-5.087 0.11-7.631 0.161-3.879 0.082-7.756 0.186-11.634 0.29-2.471 0.052-4.943 0.103-7.414 0.152-0.578 0.017-0.578 0.017-3.502 0.104-6.404 0.099-11.368-0.306-17.24-3.213-4.102-5.103-3.376-11.265-3.25-17.5 5e-3 -1.02 0.01-2.04 0.015-3.09 0.041-3.93 0.115-7.698 0.766-11.578 1.591-9.612 0.51-20.941-3.531-29.832-3.333-1.667-6.844-1.146-10.533-1.161-0.883-5e-3 -1.766-0.01-2.676-0.016-2.929-0.014-5.858-0.021-8.787-0.026-2.031-6e-3 -4.061-0.012-6.091-0.018-4.26-0.01-8.519-0.016-12.779-0.02-5.466-5e-3 -10.931-0.029-16.397-0.058-4.194-0.018-8.388-0.023-12.582-0.025-2.015-3e-3 -4.031-0.011-6.046-0.024-2.816-0.017-5.631-0.015-8.447-9e-3 -1.604-3e-3 -3.208-7e-3 -4.86-0.011-3.802 0.368-3.802 0.368-6.802 3.368-3.337 6.006-3.372 11.119-3.223 17.789 5e-3 0.51 5e-3 0.51 0.027 3.095 0.03 3.247 0.08 6.494 0.133 9.741 0.048 3.254 0.091 6.507 0.122 9.762 0.02 2.02 0.05 4.04 0.09 6.06 0.096 8.891 0.096 8.891-2.149 12.553-6.797 5.097-15.004 4.178-23.219 4.238-1.057 8e-3 -2.115 0.016-3.204 0.024-2.225 0.014-4.451 0.025-6.676 0.033-2.268 0.011-4.535 0.032-6.802 0.061-3.294 0.043-6.587 0.059-9.881 0.069-0.502 9e-3 -0.502 9e-3 -3.046 0.053-6.345-0.019-10.669-0.983-16.172-4.478-1.652-3.106-2.233-4.848-1.536-8.304 0.601-3.028 0.662-5.807 0.663-8.894 2e-3 -1.247 5e-3 -2.495 8e-3 -3.78-2e-3 -1.361-4e-3 -2.722-6e-3 -4.125 2e-3 -1.439 4e-3 -2.879 5e-3 -4.362 5e-3 -4.767 2e-3 -9.534-1e-3 -14.301 0-3.312 1e-3 -6.624 2e-3 -9.936 2e-3 -6.947 0-13.894-5e-3 -20.841-5e-3 -8.016-4e-3 -16.033 2e-3 -24.05 4e-3 -6.892 5e-3 -13.785 2e-3 -20.678-1e-3 -4.112-1e-3 -8.224 2e-3 -12.336 3e-3 -4.591-1e-3 -9.182-7e-3 -13.773 2e-3 -1.353 4e-3 -2.706 6e-3 -4.1-0.015-6.599-0.266-12.98-1.135-19.52-1.094-17.172-0.487-33.931 2.937-50.813 0.258-1.344 0.516-2.688 0.781-4.072 3.282-14.635 13-26.126 25.067-34.834 12.715-7.356 30.291-6.579 44.41-6.556zm2.805 76.275c-4.612 9.263-4.421 19.964-4.5 30.062-0.042 1.31-0.083 2.621-0.125 3.971-0.07 8.64 0.975 13.339 6.625 19.967 3.262 1.631 6.607 1.145 10.226 1.161 0.85 5e-3 1.701 0.01 2.577 0.015 2.822 0.014 5.644 0.021 8.466 0.027 1.958 6e-3 3.917 0.011 5.875 0.017 4.11 0.011 8.22 0.016 12.33 0.02 5.266 5e-3 10.531 0.029 15.797 0.058 4.047 0.018 8.094 0.024 12.14 0.025 1.941 3e-3 3.883 0.011 5.824 0.024 2.717 0.017 5.434 0.016 8.151 9e-3 1.546 4e-3 3.092 7e-3 4.685 0.011 3.946-0.369 5.849-0.945 8.929-3.367 2.862-4.547 2.306-9.922 2.3-15.121 3e-3 -0.489 3e-3 -0.489 0.013-2.963 6e-3 -2.063 7e-3 -4.127 2e-3 -6.19-3e-3 -3.149 0.021-6.298 0.046-9.447 2e-3 -2.009 3e-3 -4.017 2e-3 -6.025 9e-3 -0.938 0.018-1.876 0.028-2.842-0.037-5.205-0.382-9.084-3.391-13.412-4.437-2.219-6.803-2.275-11.715-2.323-1.586-0.019-3.172-0.038-4.806-0.058-1.734-0.01-3.468-0.018-5.202-0.026-1.784-0.011-3.568-0.023-5.352-0.034-3.743-0.021-7.486-0.033-11.23-0.04-4.772-0.011-9.544-0.059-14.316-0.116-3.688-0.037-7.376-0.047-11.065-0.05-1.757-6e-3 -3.515-0.022-5.273-0.049-19.416-0.271-19.416-0.271-27.041 6.696z" fill="#001919"/>
<path transform="translate(2184.7 404.73)" d="m0 0c1.578-9e-3 3.156-0.017 4.782-0.026 1.746 1e-3 3.493 2e-3 5.239 3e-3 1.842-6e-3 3.684-0.013 5.525-0.02 5.005-0.018 10.01-0.023 15.015-0.024 3.134-2e-3 6.268-6e-3 9.402-0.011 10.953-0.019 21.907-0.027 32.861-0.025 10.172 1e-3 20.345-0.02 30.518-0.052 8.757-0.026 17.514-0.037 26.271-0.035 5.219 0 10.438-5e-3 15.657-0.027 4.923-0.019 9.846-0.019 14.77-5e-3 1.791 2e-3 3.583-2e-3 5.375-0.014 13.25-0.085 27.814 0.461 39.898 6.503 1.334 1.667 2.667 3.334 4 5 1.295 1.167 2.609 2.311 3.938 3.438 7.656 6.649 10.712 13.116 14.062 22.562 0.513 1.232 1.025 2.464 1.552 3.733 1.459 4.298 1.825 7.452 1.829 11.964 9e-3 1.505 0.017 3.009 0.026 4.558-3e-3 0.816-3e-3 0.816-0.018 4.942 4e-3 1.751 9e-3 3.501 0.016 5.251 0.013 4.737 8e-3 9.475-2e-3 14.213-7e-3 4.967 0 9.934 5e-3 14.901 5e-3 8.342-2e-3 16.683-0.016 25.025-0.017 9.63-0.011 19.261 5e-3 28.891 0.014 8.281 0.016 16.563 8e-3 24.844-5e-3 4.941-6e-3 9.881 4e-3 14.821 9e-3 4.647 3e-3 9.293-0.014 13.94-6e-3 2.509 3e-3 5.018 0.012 7.527-0.057 10.238-0.919 17.61-6.407 26.39-0.64 1.821-1.245 3.655-1.812 5.5-1.773 5.049-3.725 7.404-8.188 10.5-0.391 0.403-0.391 0.403-2.375 2.438-7.4 7.225-12.449 9.507-22.625 10.562-1.243 0.169-2.487 0.338-3.769 0.512-6.275 0.724-12.56 0.928-18.867 1.207-4.364 0.281-4.364 0.281-6.709 0.826-3.281 0.563-6.171 0.313-9.487 0.027-7.964-0.6-15.868-0.717-23.852-0.713-1.488-4e-3 -2.976-7e-3 -4.509-0.011-3.202-7e-3 -6.404-0.013-9.605-0.016-5.064-7e-3 -10.128-0.023-15.192-0.042-1.742-6e-3 -3.483-0.012-5.224-0.019-0.871-3e-3 -1.742-6e-3 -2.639-9e-3 -11.767-0.042-23.533-0.075-35.3-0.088-7.973-8e-3 -15.946-0.03-23.918-0.069-4.21-0.02-8.419-0.032-12.629-0.027-4.68 2e-3 -9.359-0.02-14.039-0.048-1.392 7e-3 -2.785 0.014-4.22 0.02-1.271-0.012-2.542-0.024-3.852-0.037-1.105-3e-3 -2.21-5e-3 -3.349-8e-3 -3.563-0.633-4.712-1.609-6.84-4.505-1.675-4.783-1.145-10.115-1.14-15.134-3e-3 -1.03-6e-3 -2.06-9e-3 -3.121-9e-3 -3.455-0.01-6.91-0.012-10.366-4e-3 -2.475-9e-3 -4.95-0.015-7.426-0.013-6.727-0.019-13.454-0.024-20.181-3e-3 -4.2-7e-3 -8.401-0.011-12.601-0.014-13.135-0.024-26.271-0.027-39.406-5e-3 -15.176-0.023-30.353-0.051-45.529-0.022-11.724-0.032-23.448-0.033-35.172-2e-3 -7.006-7e-3 -14.012-0.025-21.018-0.017-6.586-0.019-13.172-0.01-19.758 1e-3 -2.42-4e-3 -4.84-0.014-7.26-0.012-3.298-7e-3 -6.595 4e-3 -9.893-8e-3 -0.963-0.016-1.925-0.024-2.917 0.036-4.845 0.065-8.516 3.391-12.218 4.084-2.397 8.03-2.256 12.687-2.267zm76.126 68.892c-0.943 0.045-1.886 0.09-2.857 0.136-7.178 0.563-11.282 2.804-16.956 7.239-1.887 3.774-1.166 8.446-1.177 12.613-6e-3 1.104-0.013 2.208-0.019 3.346-0.02 3.666-0.032 7.332-0.042 10.998-4e-3 1.25-8e-3 2.5-0.012 3.787-0.021 6.613-0.035 13.226-0.045 19.839-0.011 6.84-0.045 13.679-0.085 20.519-0.026 5.251-0.034 10.502-0.038 15.753-5e-3 2.522-0.017 5.044-0.035 7.566-0.024 3.526-0.023 7.052-0.017 10.579-0.012 1.045-0.025 2.089-0.038 3.166 0.029 4.106 0.158 7.199 2.163 10.834 4.872 4.155 8.857 5.376 15.214 5.389 0.677 4e-3 0.677 4e-3 4.099 0.028 1.453-6e-3 2.906-0.012 4.404-0.018 0.754 1e-3 0.754 1e-3 4.574 9e-3 3.197 2e-3 6.394-4e-3 9.59-0.016 4.853-0.016 9.704-1e-3 14.556 0.019 3.114-2e-3 6.228-6e-3 9.342-0.012 1.435 6e-3 2.87 0.012 4.348 0.018 22.062-0.151 22.062-0.151 30.968-5.792 5.676-6.621 6.375-11.925 6.412-20.565 5e-3 -0.903 0.01-1.806 0.015-2.736 0.014-2.987 0.021-5.973 0.027-8.96 5e-3 -2.081 0.011-4.161 0.017-6.241 0.01-4.364 0.016-8.727 0.02-13.091 5e-3 -5.577 0.029-11.154 0.058-16.731 0.018-4.299 0.023-8.598 0.025-12.897 3e-3 -2.056 0.011-4.111 0.024-6.166 0.017-2.884 0.015-5.767 9e-3 -8.65 4e-3 -1.638 7e-3 -3.276 0.011-4.964-0.559-7.026-2.19-13.534-7.368-18.624-8.318-5.159-16.882-5.739-26.437-5.75-2.457-0.033-4.914-0.069-7.371-0.109-1.071-5e-3 -2.141-0.01-3.244-0.015-2.769-0.118-5.244-0.552-7.948-1.126-10.725-0.444-21.48-0.089-32.187 0.625z" fill="#001919"/>
<path transform="translate(115.62 403.61)" d="m0 0c0.963-5e-3 1.927-0.011 2.919-0.016 3.185-0.013 6.369-4e-3 9.554 6e-3 2.224-2e-3 4.447-5e-3 6.671-9e-3 4.667-4e-3 9.333 2e-3 13.999 0.016 5.948 0.017 11.895 7e-3 17.843-0.011 4.598-0.011 9.195-7e-3 13.793 1e-3 2.191 2e-3 4.381-1e-3 6.572-8e-3 20.766-0.052 20.766-0.052 31.105 2.767 2.927 0.642 2.927 0.642 6.512 0.625 7.002 0.035 12.156 3.81 17.415 8.017 1.485 0.66 2.97 1.32 4.5 2 3.888 1.728 6.303 3.321 9.5 6 0.949 0.413 1.898 0.825 2.875 1.25 3.496 1.958 5.663 4.376 8.199 7.445 2.095 2.507 4.315 4.862 6.551 7.243 4.002 4.423 6.65 8.768 9.375 14.062 0.681 0.99 1.361 1.98 2.063 3 2.462 3.814 4.116 7.846 5.937 12 1.329 2.336 2.662 4.67 4 7 0.516 1.238 1.031 2.475 1.563 3.75 1.437 3.25 1.437 3.25 4.437 6.25 0.325 3.091 0.325 3.091 0.258 6.863-0.014 1.362-0.028 2.724-0.043 4.127-0.03 1.427-0.059 2.853-0.09 4.323-0.043 2.808-0.083 5.617-0.117 8.425-0.024 1.249-0.049 2.497-0.074 3.783 0.066 3.479 0.066 3.479 0.562 6.059 0.67 4.545 0.643 9.045 0.633 13.628 1e-3 0.508 1e-3 0.508 6e-3 3.078 4e-3 3.366 1e-3 6.731-2e-3 10.097 1e-3 2.371 2e-3 4.743 3e-3 7.114 1e-3 4.992-1e-3 9.984-6e-3 14.975-4e-3 5.049-4e-3 10.097 0 15.145 0.014 15.41-0.013 30.819-0.111 46.228-0.018 3.028-0.031 6.056-0.043 9.084-0.024 5.126-0.093 10.25-0.171 15.376-5e-3 1.465-0.011 2.93-0.016 4.439-0.029 1.317-0.057 2.633-0.086 3.99-0.015 1.125-0.03 2.251-0.046 3.41-0.873 3.794-2.423 4.812-5.657 6.856-3.05 1.017-5.062 1.115-8.251 1.096-1.088-4e-3 -2.177-8e-3 -3.298-0.013-1.193-9e-3 -2.387-0.019-3.617-0.029-1.257-7e-3 -2.515-0.013-3.81-0.02-4.167-0.023-8.334-0.053-12.501-0.085-2.885-0.019-5.771-0.038-8.656-0.057-6.051-0.041-12.102-0.086-18.153-0.134-7.776-0.06-15.552-0.107-23.329-0.151-5.958-0.035-11.917-0.079-17.875-0.126-2.869-0.021-5.737-0.039-8.606-0.054-3.999-0.021-7.997-0.055-11.996-0.092-0.599-2e-3 -0.599-2e-3 -3.63-0.011-1.083-0.013-2.165-0.026-3.281-0.039-0.946-6e-3 -1.892-0.013-2.868-0.02-0.702-0.088-1.405-0.175-2.129-0.265-1.354-2.709-1.065-5.009-1-8-0.356-0.043-0.356-0.043-2.16-0.262-6.617-0.97-10.498-2.526-15.84-6.738-1.176-0.454-2.351-0.907-3.562-1.375-4.39-2.075-6.441-4.846-9.438-8.625-0.825-0.804-1.65-1.609-2.5-2.437-3.192-3.273-5.833-6.865-8.5-10.563-0.558-0.741-1.116-1.482-1.691-2.246-9.575-13.045-14.737-26.847-17.551-42.68-0.689-3.705-1.498-7.348-2.383-11.011-1.199-5.036-1.885-9.914-2.375-15.063l-1-4 1-1c0.094-1.707 0.117-3.417 0.114-5.126 0-1.112-1e-3 -2.224-1e-3 -3.369-5e-3 -1.23-0.01-2.461-0.015-3.729-2e-3 -1.288-3e-3 -2.575-5e-3 -3.902-4e-3 -2.81-0.01-5.619-0.018-8.429-0.012-4.452-0.019-8.904-0.024-13.356-0.013-11.068-0.037-22.137-0.061-33.206-0.02-9.33-0.036-18.66-0.046-27.991-6e-3 -4.376-0.019-8.752-0.032-13.127-3e-3 -2.706-7e-3 -5.412-0.01-8.118-5e-3 -1.208-0.01-2.416-0.015-3.661-2e-3 -21.102-2e-3 -21.102 4.113-26.986 4.373-3.748 9.132-3.425 14.617-3.388z" fill="#007C31"/>
<path transform="translate(1150 404.74)" d="m0 0c0.82-4e-3 0.82-4e-3 4.971-0.021 1.816 2e-3 3.631 4e-3 5.447 7e-3 1.914-4e-3 3.828-9e-3 5.741-0.015 5.197-0.014 10.393-0.014 15.589-0.012 4.337 1e-3 8.673-4e-3 13.01-8e-3 10.229-0.012 20.458-0.012 30.687-6e-3 10.557 6e-3 21.114-6e-3 31.671-0.028 9.062-0.017 18.123-0.023 27.185-0.02 5.413 2e-3 10.826-1e-3 16.239-0.015 5.089-0.012 10.178-0.01 15.267 3e-3 1.869 2e-3 3.737-1e-3 5.605-9e-3 2.549-0.01 5.098 0 7.647 0.01h4.324c3.772 0.388 5.676 1.07 8.646 3.375 1.33 2.658 1.142 4.694 1.162 7.671 9e-3 1.188 0.019 2.376 0.029 3.601 2e-3 0.644 2e-3 0.644 0.013 3.907 5e-3 1.32 0.011 2.639 0.017 3.999 9e-3 2.796 0.016 5.592 0.02 8.388 9e-3 4.284 0.04 8.568 0.072 12.852 6e-3 2.712 0.012 5.424 0.016 8.136 0.012 1.286 0.024 2.571 0.037 3.896-3e-3 1.194-6e-3 2.389-9e-3 3.62 2e-3 0.525 2e-3 0.525 0.011 3.184-0.368 2.746-0.368 2.746-3.368 6.746-2.973 0.991-4.925 1.129-8.027 1.138-1.039 5e-3 -2.078 0.011-3.148 0.016-0.57 1e-3 -0.57 1e-3 -3.453 3e-3 -0.6 3e-3 -0.6 3e-3 -3.637 0.016-2.611 0.011-5.222 0.019-7.833 0.026-4.131 0.012-8.262 0.031-12.393 0.053-11.747 0.062-23.495 0.116-35.242 0.149-7.181 0.021-14.362 0.056-21.544 0.101-2.738 0.014-5.477 0.023-8.216 0.026-3.83 5e-3 -7.66 0.028-11.49 0.055-0.567-1e-3 -0.567-1e-3 -3.434-9e-3 -5.565 0.059-9.838 0.154-14.583 3.426-2.626 4.146-2.149 8.283-1.875 13.062 0.065 1.394 0.129 2.787 0.196 4.223 0.78 4.262 1.187 5.25 4.679 7.715 3.267 0.387 6.197 0.533 9.463 0.498 0.958 6e-3 1.916 0.011 2.904 0.017 2.079 9e-3 4.158 9e-3 6.238 1e-3 3.291-0.012 6.581-1e-3 9.872 0.016 5.8 0.027 11.599 0.032 17.399 0.031 9.28-2e-3 18.56 0.012 27.84 0.056 3.242 9e-3 6.484 1e-3 9.726-9e-3 1.989 6e-3 3.978 0.013 5.966 0.021 0.902-8e-3 1.803-0.016 2.732-0.024 4.774 0.039 8.096 0.321 11.86 3.393 1.272 2.543 1.141 4.349 1.162 7.196 9e-3 1.085 0.019 2.17 0.029 3.288 2e-3 0.588 2e-3 0.588 0.013 3.566 5e-3 1.207 0.011 2.413 0.017 3.655 9e-3 2.557 0.016 5.113 0.02 7.669 9e-3 3.912 0.04 7.822 0.072 11.733 6e-3 2.481 0.012 4.962 0.016 7.443 0.012 1.171 0.024 2.342 0.037 3.549-3e-3 1.094-6e-3 2.189-9e-3 3.316 2e-3 0.48 2e-3 0.48 0.011 2.909-0.446 3.247-1.426 5.047-3.368 7.676-4.627 3.47-7.725 3.54-13.25 3.687-1.634 0.066-3.269 0.132-4.953 0.199-11.466 0.271-22.918 0.11-34.383-0.175-1.116-0.027-2.233-0.054-3.384-0.082-9.377-0.226-9.377-0.226-13.937-0.353-3.435-0.095-6.869-0.175-10.304-0.253-1.035-0.032-2.071-0.064-3.138-0.097-8.277-0.169-15.811-0.056-22.651 5.074-1.491 7.056 0.253 14.498 3 21 4.762 2.317 9.432 2.292 14.661 2.379 0.826 0.017 1.652 0.034 2.504 0.051 2.632 0.053 5.265 0.093 7.898 0.132 2.608 0.045 5.216 0.092 7.823 0.143 2.385 0.046 4.769 0.084 7.154 0.121 3.698 0.13 7.309 0.367 10.989 0.694 8.041 0.648 16.044 0.512 24.104 0.402 3.271-0.028 6.542-0.054 9.813-0.079 5.118-0.042 10.236-0.092 15.353-0.166 4.966-0.07 9.931-0.101 14.897-0.13 1.54-0.029 3.081-0.058 4.668-0.088 1.419-4e-3 2.839-7e-3 4.301-0.011 1.251-0.014 2.502-0.028 3.791-0.043 3.044 0.595 3.044 0.595 4.948 2.753 1.22 3.161 1.471 5.471 1.469 8.854 6e-3 1.188 0.012 2.376 0.019 3.6-5e-3 0.637-5e-3 0.637-0.028 3.86 0 0.658 0 0.658 1e-3 3.986-2e-3 2.778-0.012 5.556-0.028 8.334-0.024 4.258-0.021 8.515-0.014 12.772-6e-3 2.699-0.013 5.397-0.022 8.096 1e-3 1.276 2e-3 2.552 3e-3 3.867-0.01 1.185-0.019 2.369-0.029 3.59-5e-3 1.042-9e-3 2.084-0.014 3.157-0.261 2.726-0.261 2.726-2.261 6.726-2.748 1.374-4.946 1.129-8.024 1.133-1.285 5e-3 -2.57 9e-3 -3.894 0.013-1.419 0-2.838-1e-3 -4.299-1e-3 -0.744 2e-3 -0.744 2e-3 -4.509 0.01-4.094 8e-3 -8.188 0.011-12.281 0.012-2.562 1e-3 -5.124 3e-3 -7.686 5e-3 -8.953 0.01-17.905 0.014-26.857 0.013-8.318-1e-3 -16.636 0.01-24.954 0.026-7.155 0.013-14.31 0.018-21.465 0.018-4.267-1e-3 -8.534 2e-3 -12.8 0.013-4.777 0.01-9.554 7e-3 -14.331 1e-3 -1.392 5e-3 -2.785 0.011-4.219 0.017-14.087-0.045-26.379-0.219-37.681-9.26-0.99-0.475-1.98-0.949-3-1.438-7.299-3.802-10.863-10.74-15-17.562-0.484-0.717-0.969-1.433-1.468-2.172-6.785-12.531-6.111-28.334-6.049-42.177-6e-3 -2.075-0.013-4.15-0.021-6.225-0.018-5.576-0.012-11.151 1e-3 -16.727 0.01-5.853 1e-3 -11.706-5e-3 -17.559-8e-3 -9.809 2e-3 -19.618 0.021-29.427 0.022-11.342 0.015-22.684-7e-3 -34.026-0.019-9.759-0.021-19.518-0.011-29.277 7e-3 -5.82 7e-3 -11.641-6e-3 -17.461-0.011-5.459-3e-3 -10.917 0.02-16.375 5e-3 -2.005 4e-3 -4.009-5e-3 -6.014-0.011-2.73 2e-3 -5.46 0.022-8.19 2e-3 -1.529 4e-3 -3.058 5e-3 -4.633 0.503-3.737 0.503-3.737 2.223-6.135 5.059-3.554 9.1-3.854 15.251-3.863z" fill="#001919"/>
<path transform="translate(1909.3 403.89)" d="m0 0c1.547 1e-3 3.094 3e-3 4.689 4e-3 1.722 6e-3 3.444 0.013 5.166 0.02 1.808 4e-3 3.617 7e-3 5.426 0.01 4.924 9e-3 9.849 0.025 14.774 0.044 3.084 0.012 6.167 0.022 9.251 0.033 9.668 0.033 19.336 0.071 29.004 0.115 11.121 0.051 22.242 0.085 33.363 0.105 8.615 0.017 17.23 0.049 25.845 0.092 5.135 0.025 10.269 0.045 15.403 0.048 4.848 3e-3 9.695 0.025 14.543 0.061 1.762 0.01 3.523 0.014 5.285 0.01 9.62-0.018 18.863 0.646 28.311 2.384 0.441 0.079 0.441 0.079 2.669 0.481 7.075 1.422 10.863 3.702 15.952 8.702 0.526 0.31 0.526 0.31 3.188 1.875 10.251 7.746 14.396 22.169 16.441 34.248 1.138 8.818 1.127 17.783 1.229 26.663 0.142 3.214 0.142 3.214 0.64 6.84 0.843 7.497 0.667 15.046 0.679 22.581 7e-3 1.738 0.013 3.477 0.02 5.215 0.021 5.679 0.032 11.357 0.042 17.035 4e-3 1.959 8e-3 3.918 0.012 5.878 0.019 9.194 0.033 18.388 0.042 27.583 9e-3 10.608 0.036 21.217 0.076 31.826 0.03 8.209 0.045 16.418 0.048 24.627 3e-3 4.901 0.012 9.801 0.037 14.702 0.023 4.602 0.027 9.204 0.017 13.806-1e-3 2.497 0.018 4.994 0.038 7.491-3e-3 0.741-3e-3 0.741-0.021 4.49 2e-3 1.29 5e-3 2.58 7e-3 3.909-0.581 3.797-1.49 4.925-4.495 7.231-5.709 2.828-11.996 2.306-18.222 2.301-1.179 4e-3 -2.357 9e-3 -3.571 0.013-2.485 6e-3 -4.971 6e-3 -7.456 2e-3 -3.803-3e-3 -7.606 0.02-11.409 0.046-2.417 2e-3 -4.835 3e-3 -7.252 1e-3 -0.568 5e-3 -0.568 5e-3 -3.444 0.028-0.531-3e-3 -0.531-3e-3 -3.216-0.018-0.93 0-1.86 1e-3 -2.819 1e-3 -3.204-0.459-5.035-1.428-7.611-3.374-2.091-4.183-2.246-5.965-2.233-10.528-2e-3 -1.346-3e-3 -2.692-4e-3 -4.079 8e-3 -1.475 0.017-2.951 0.026-4.471 1e-3 -1.555 3e-3 -3.109 4e-3 -4.711 4e-3 -3.381 0.012-6.762 0.026-10.143 0.023-5.344 0.031-10.689 0.037-16.034 0.011-8.452 0.032-16.904 0.057-25.357 0.044-15.139 0.077-30.279 0.1-45.418 8e-3 -5.314 0.022-10.629 0.041-15.943 0.013-4.079 0.02-8.158 0.028-12.238 7e-3 -1.475 0.014-2.951 0.021-4.471 0-0.673 0-0.673 4e-3 -4.078 4e-3 -1.171 7e-3 -2.342 0.011-3.549-0.118-2.98-0.118-2.98-1.118-6.98-0.099-2.041-0.181-4.083-0.25-6.125-0.521-6.529-1.463-11.773-5.75-16.875-9.204-5.17-19.877-4.551-30.093-4.461-1.722 3e-3 -3.445 4e-3 -5.167 3e-3 -3.583 3e-3 -7.167 0.02-10.75 0.047-4.591 0.034-9.182 0.041-13.773 0.04-3.545 0-7.09 0.011-10.634 0.026-2.515 9e-3 -5.03 0.013-7.545 0.016-0.761 6e-3 -0.761 6e-3 -4.614 0.039-1.34 7e-3 -2.681 0.015-4.062 0.023-3.362 0.267-3.362 0.267-7.362 2.267-4.392 8.785-2.135 23.607-2.097 33.329 1e-3 1.44 3e-3 2.879 4e-3 4.363 4e-3 3.097 0.01 6.195 0.018 9.292 0.013 4.922 0.02 9.844 0.024 14.766 0.012 11.342 0.034 22.684 0.057 34.027 0.02 10.393 0.038 20.787 0.048 31.18 5e-3 5.646 0.019 11.292 0.034 16.939 0.023 12.695 0.035 25.391-0.404 38.08-0.022 0.892-0.045 1.784-0.067 2.703-0.262 5.967-0.262 5.967-3.617 9.321-2.77 0.419-2.77 0.419-6.168 0.48-1.271 0.03-2.543 0.059-3.852 0.09-0.688 7e-3 -0.688 7e-3 -4.167 0.047-1.409 0.025-2.819 0.051-4.27 0.076-2.983 0.049-5.965 0.091-8.948 0.126-4.576 0.056-9.152 0.144-13.728 0.236-2.893 0.043-5.786 0.085-8.679 0.125-1.375 0.028-2.75 0.056-4.167 0.085-1.271 0.01-2.543 0.021-3.853 0.032-1.121 0.015-2.242 0.03-3.397 0.046-2.771-0.343-2.771-0.343-5.771-3.343-1.182-6.128-1.133-12.275-1.102-18.495 1e-3 -1.032 2e-3 -2.065 3e-3 -3.128 5e-3 -3.446 0.018-6.892 0.03-10.338 5e-3 -2.476 0.01-4.952 0.014-7.428 0.014-6.714 0.035-13.429 0.057-20.143 0.014-4.194 0.027-8.388 0.039-12.582 0.038-13.119 0.081-26.239 0.13-39.358 0.056-15.151 0.099-30.301 0.13-45.452 0.025-11.712 0.062-23.423 0.107-35.134 0.027-6.996 0.049-13.992 0.059-20.988 0.01-6.574 0.034-13.148 0.069-19.721 0.011-2.416 0.016-4.831 0.016-7.246 0-3.291 0.019-6.581 0.043-9.872-4e-3 -0.961-8e-3 -1.921-0.013-2.911 0.055-4.842 0.179-8.442 3.418-12.204 3.612-1.204 6.504-1.118 10.319-1.109z" fill="#001919"/>
<path transform="translate(1116,405)" d="m0 0c1 4 1 4-0.328 6.691-0.317 0.474-0.317 0.474-1.922 2.871-0.312 0.476-0.312 0.476-1.891 2.879-1.859 2.559-1.859 2.559-4.859 5.559h-2l-2 4c-1.63 1.702-3.302 3.366-5 5-1.701 1.8-3.388 3.613-5.062 5.438-0.837 0.906-1.674 1.812-2.536 2.746-2.402 2.816-2.402 2.816-4.347 5.761-2.347 3.489-4.997 6.423-7.867 9.493-1.061 1.136-2.122 2.273-3.215 3.445-2.247 2.356-4.513 4.663-6.848 6.929-4.76 4.855-8.484 10.174-12.125 15.876-2.538 3.862-5.312 6.487-9 9.312-5.697 5.39-11.575 11.246-15.84 17.848-3.185 4.648-7.125 8.545-11.027 12.586-8.747 9.178-8.747 9.178-9.821 15.816 1.207 8.333 6.631 14.147 12.688 19.75 4.163 4.012 7.745 7.881 11.145 12.574 3.429 4.484 7.2 8.688 10.89 12.957 3.142 3.676 6.16 7.429 9.156 11.223 2.828 3.512 5.828 6.864 8.809 10.246 0.722 0.908 1.444 1.815 2.188 2.75 1.812 2.25 1.812 2.25 3.695 4.105 2.109 2.137 3.95 4.348 5.805 6.707 0.693 0.874 1.387 1.748 2.101 2.649 0.73 0.92 1.459 1.841 2.211 2.789 8.386 10.519 8.386 10.519 12.688 14.688 4.599 4.599 8.161 9.656 11.874 15 2.77 3.764 5.781 6.906 9.344 9.929 1.969 1.758 1.969 1.758 5.094 5.383-0.062 3.938-0.062 3.938-1 7-7.625 0.125-7.625 0.125-11-1-3.697-0.05-7.375-0.043-11.07 8e-3 -2.283 0.017-4.565 0.034-6.848 0.051-3.583 0.03-7.165 0.065-10.748 0.112-36.25 0.45-36.25 0.45-43.151-5.669-0.36-0.412-0.36-0.412-2.183-2.502-1.321-1.181-2.653-2.349-4-3.5-7.725-6.718-15.411-14.164-20.875-22.875-3.248-5.127-7.367-9.344-11.504-13.762-4.04-4.413-7.475-9.057-10.683-14.113-2.058-2.92-4.146-4.542-6.938-6.75-4.079-4.393-7.741-8.938-11.312-13.75-1.561-2.085-3.124-4.168-4.688-6.25-0.842-1.134-1.684-2.269-2.551-3.438-0.849-1.093-1.699-2.186-2.574-3.312-0.383-0.503-0.383-0.503-2.32-3.047-2.555-2.203-2.555-2.203-6.297-2.656-1.075 0.149-2.15 0.299-3.258 0.453-1.673 3.345-1.144 7.114-1.142 10.792-2e-3 0.456-2e-3 0.456-0.01 2.76-8e-3 1.982-0.013 3.964-0.017 5.946-7e-3 3.135-0.022 6.269-0.041 9.404-0.053 8.915-0.1 17.83-0.116 26.745-0.01 5.449-0.039 10.897-0.081 16.346-0.013 2.079-0.018 4.158-0.015 6.237 2e-3 2.907-0.02 5.812-0.048 8.719 3e-3 0.43 3e-3 0.43 0.02 2.61-0.056 3.556-0.237 5.961-2.203 8.974-2.996 1.873-4.902 1.974-8.429 1.985-1.228 0.012-2.456 0.025-3.721 0.038-0.662-4e-3 -0.662-4e-3 -4.009-0.025-0.681 2e-3 -0.681 2e-3 -4.125 0.012-2.878 3e-3 -5.756-5e-3 -8.634-0.022-4.412-0.021-8.822 0-13.234 0.026-2.794-3e-3 -5.588-8e-3 -8.383-0.016-1.322 8e-3 -2.645 0.016-4.009 0.025-0.614-7e-3 -0.614-7e-3 -3.721-0.038-1.08-4e-3 -2.161-7e-3 -3.274-0.01-3.716-0.672-4.611-1.417-6.808-4.508-0.391-3.535-0.535-6.757-0.501-10.293-6e-3 -1.059-0.011-2.118-0.017-3.209-0.014-3.56 1e-3 -7.12 0.016-10.68-3e-3 -2.547-9e-3 -5.095-0.016-7.642-0.014-6.928-3e-3 -13.855 0.014-20.782 0.013-7.239 7e-3 -14.478 3e-3 -21.717-2e-3 -12.157 0.011-24.314 0.034-36.471 0.027-14.07 0.029-28.14 0.017-42.211-0.011-13.517-5e-3 -27.034 0.01-40.551 5e-3 -5.761 5e-3 -11.522 1e-3 -17.283-5e-3 -6.779 5e-3 -13.558 0.027-20.337 5e-3 -2.493 6e-3 -4.987 1e-3 -7.48-6e-3 -3.393 6e-3 -6.785 0.023-10.178-6e-3 -0.996-0.012-1.992-0.018-3.019 0.064-6.805 0.064-6.805 3.406-10.147 3.618-1.062 7.075-1.115 10.828-1.085 1.148 7e-3 2.296 0.014 3.479 0.022 1.23 0.014 2.461 0.029 3.728 0.043 0.636 8e-3 0.636 8e-3 3.851 0.043 2.684 0.033 5.368 0.07 8.052 0.109 4.112 0.055 8.225 0.084 12.337 0.112 2.608 0.036 5.215 0.073 7.823 0.111 1.232 5e-3 2.464 9e-3 3.734 0.014 0.572 0.011 0.572 0.011 3.469 0.069 1.006 0.012 2.013 0.024 3.05 0.036 2.649 0.526 2.649 0.526 4.971 2.005 2.516 3.78 2.199 6.91 2.224 11.42 0.01 0.898 0.021 1.796 0.031 2.721 0.03 2.966 0.031 5.93 0.032 8.896 0.015 2.057 0.032 4.114 0.05 6.17 0.044 5.412 0.064 10.824 0.079 16.236 0.02 5.524 0.062 11.047 0.102 16.57 0.075 10.836 0.125 21.672 0.16 32.508 3.863 0.172 3.863 0.172 8 0 2.188-2.75 2.188-2.75 4-6 1.629-1.379 3.297-2.713 5-4 3.071-2.829 5.666-5.813 8.188-9.125 3.555-4.656 7.436-8.946 11.406-13.25 2.013-2.197 3.97-4.423 5.906-6.687 2.647-3.064 5.466-5.873 8.375-8.688 4.537-4.475 8.282-9.273 12.027-14.418 4.24-5.724 9.066-10.8 14.098-15.832 0.969-1.155 1.939-2.31 2.938-3.5 2.833-3.239 5.719-5.811 9.062-8.5 0.619-0.681 1.237-1.361 1.875-2.062 7.531-6.867 15.443-6.552 25.168-6.583 1.442-0.018 2.883-0.037 4.369-0.057 3.038-0.036 6.077-0.063 9.115-0.082 4.655-0.028 9.309-0.084 13.963-0.144 2.955-0.032 5.91-0.063 8.865-0.092 0.697-7e-3 0.697-7e-3 4.221-0.043 1.295-8e-3 2.59-0.015 3.925-0.022 1.137-8e-3 2.274-0.016 3.446-0.024 5.401 0.193 5.401 0.193 8.053 1.109z" fill="#001919"/>
<path transform="translate(1388.3 403.93)" d="m0 0c1.065 0.01 2.129 0.021 3.226 0.032 1.145 0.017 2.29 0.035 3.47 0.053 0.59 8e-3 0.59 8e-3 3.579 0.05 2.497 0.037 4.994 0.078 7.492 0.121 3.82 0.063 7.641 0.105 11.462 0.145 2.426 0.039 4.853 0.08 7.279 0.121 0.571 5e-3 0.571 5e-3 3.463 0.029 1.068 0.023 2.136 0.046 3.236 0.07 0.936 0.014 1.872 0.028 2.837 0.043 5.283 0.816 7.459 3.185 10.624 7.405 0.361 3.072 0.361 3.072 0.341 6.752 0 1.396-1e-3 2.792-1e-3 4.23-8e-3 0.765-8e-3 0.765-0.047 4.64-7e-3 2.477-0.013 4.954-0.02 7.431-0.01 2.665-0.028 5.33-0.047 7.994-0.041 5.566-0.059 11.133-0.073 16.699-0.036 12.837-0.102 25.674-0.168 38.511-0.061 11.734-0.115 23.468-0.145 35.203-0.015 5.519-0.044 11.037-0.085 16.555-0.017 2.619-0.027 5.238-0.034 7.857-9e-3 3.174-0.028 6.347-0.061 9.521-3e-3 24.454-3e-3 24.454 5.261 30.993 4.789 3.718 10.582 2.782 16.353 2.804 1.163 8e-3 2.326 0.016 3.524 0.025 2.53 0.017 5.061 0.033 7.592 0.046 4.011 0.021 8.021 0.048 12.032 0.076 8.526 0.06 17.052 0.112 25.578 0.163 9.853 0.06 19.706 0.122 29.559 0.192 3.941 0.027 7.882 0.048 11.824 0.068 2.436 0.017 4.872 0.034 7.309 0.051 1.087 4e-3 2.174 8e-3 3.294 0.013 18.991 0.154 18.991 0.154 23.014 4.176 1.04 3.576 1.136 7.029 1.161 10.737 0.01 1.128 0.02 2.256 0.029 3.418 3e-3 0.604 3e-3 0.604 0.013 3.662 6e-3 1.248 0.012 2.497 0.018 3.783 9e-3 2.637 0.016 5.274 0.019 7.911 0.01 4.04 0.041 8.08 0.073 12.12 6e-3 2.562 0.011 5.124 0.015 7.686 0.013 1.21 0.025 2.421 0.038 3.668-3e-3 1.125-6e-3 2.249-9e-3 3.408 1e-3 0.494 1e-3 0.494 0.011 2.996-0.368 2.611-0.368 2.611-3.368 6.611-2.778 0.514-2.778 0.514-6.218 0.533-1.303 0.017-2.606 0.033-3.949 0.051-0.716-1e-3 -0.716-1e-3 -4.344-6e-3 -1.508 0.014-3.016 0.027-4.569 0.041-4.146 0.033-8.291 0.048-12.437 0.055-4.355 0.01-8.709 0.042-13.063 0.071-7.333 0.045-14.665 0.074-21.997 0.094-8.427 0.023-16.853 0.067-25.28 0.123-8.141 0.054-16.282 0.096-24.422 0.132-3.444 0.015-6.888 0.033-10.331 0.055-52.372 0.295-52.372 0.295-63.39-9.149-0.304-0.252-0.304-0.252-1.844-1.531-4.877-4.127-9.099-8.539-13.156-13.469-0.454-0.505-0.454-0.505-2.75-3.062-6.801-11.902-5.709-26.867-5.73-40.19-0.014-2.101-0.029-4.202-0.045-6.302-0.04-5.661-0.062-11.321-0.08-16.982-0.016-4.735-0.042-9.469-0.068-14.204-0.061-11.164-0.108-22.328-0.145-33.492-0.038-11.512-0.098-23.023-0.169-34.535-0.061-9.901-0.109-19.803-0.148-29.705-0.023-5.907-0.05-11.813-0.088-17.72-0.036-5.544-0.056-11.089-0.065-16.634-5e-3 -2.034-0.016-4.068-0.032-6.102-0.022-2.776-0.025-5.551-0.023-8.327-6e-3 -1.553-0.012-3.106-0.019-4.706 0.456-5.08 1.751-8.427 5.362-12.039 3.457-0.864 5.836-1.11 9.332-1.069z" fill="#001919"/>
<path transform="translate(363.81 403.82)" d="m0 0c1.168 0.01 2.336 0.021 3.539 0.032 0.629 0.011 0.629 0.011 3.811 0.069 1.294 0.018 2.588 0.036 3.922 0.054 2.737 0.041 5.474 0.088 8.211 0.139 4.194 0.076 8.387 0.125 12.581 0.172 2.658 0.043 5.316 0.088 7.973 0.135 1.257 0.012 2.515 0.025 3.81 0.038 1.168 0.026 2.336 0.053 3.54 0.08 1.027 0.017 2.054 0.034 3.112 0.052 2.694 0.412 2.694 0.412 6.694 3.412 1.435 4.303 1.382 8.637 1.559 13.135 0.042 1.057 0.084 2.114 0.128 3.203 0.465 13 0.426 26.001 0.389 39.008-0.013 4.61-0.02 9.221-0.025 13.831-0.011 9.774-0.03 19.548-0.051 29.323-0.023 11.369-0.044 22.738-0.056 34.107-6e-3 4.515-0.019 9.03-0.031 13.546-0.078 38.8-0.078 38.8 5.087 44.847 5.503 3.009 12.15 2.285 18.26 2.271 0.616 3e-3 0.616 3e-3 3.732 0.016 2.67 0.01 5.34 0.016 8.01 0.018 4.223 3e-3 8.447 0.02 12.67 0.041 12.007 0.055 24.014 0.086 36.02 0.11 7.347 0.016 14.694 0.046 22.04 0.085 2.801 0.012 5.602 0.018 8.403 0.018 3.912 0 7.823 0.018 11.735 0.04 0.58-2e-3 0.58-2e-3 3.515-0.014 1.067 0.01 2.134 0.02 3.233 0.03 0.924 2e-3 1.848 4e-3 2.8 6e-3 3.157 0.463 5.03 1.485 7.582 3.379 2.401 5.615 2.271 11.304 2.188 17.312-9e-3 1.011-0.017 2.021-0.026 3.062-0.04 3.542-0.1 7.084-0.162 10.626-0.019 1.45-0.038 2.9-0.058 4.394-0.067 4.64-0.157 9.279-0.254 13.918-0.022 1.502-0.045 3.003-0.068 4.55-0.035 1.403-0.071 2.806-0.108 4.251-0.026 1.256-0.052 2.512-0.079 3.806-0.433 3.081-0.433 3.081-3.433 6.081-2.636 0.375-2.636 0.375-5.873 0.374-1.228 7e-3 -2.455 0.014-3.719 0.021-1.35-7e-3 -2.699-0.015-4.089-0.023-1.42 4e-3 -2.84 7e-3 -4.304 0.011-4.724 8e-3 -9.447-5e-3 -14.171-0.02-3.294 0-6.588 0-9.882 2e-3 -6.931 1e-3 -13.861-0.011-20.792-0.029-7.942-0.021-15.884-0.025-23.827-0.018-7.69 5e-3 -15.38 0-23.07-0.012-3.244-3e-3 -6.487-5e-3 -9.73-3e-3 -15.315 1e-3 -30.592-0.103-45.877-1.134-1.102-0.069-2.204-0.138-3.339-0.209-5.439-0.424-9.598-1.007-14.327-3.96-0.929-0.533-1.858-1.065-2.816-1.613-5.333-3.3-9.426-6.263-13.184-11.387-0.66-0.578-1.32-1.155-2-1.75-2.64-2.971-4.135-6.224-5.832-9.801-0.894-1.876-1.886-3.707-2.918-5.512-2.774-6.52-2.381-14.025-2.428-21.014-7e-3 -0.868-0.014-1.735-0.021-2.63-0.023-2.883-0.038-5.766-0.054-8.649-0.014-2.077-0.029-4.154-0.044-6.231-0.04-5.624-0.073-11.247-0.105-16.871-0.02-3.516-0.04-7.031-0.062-10.547-0.065-11.007-0.127-22.013-0.184-33.02-0.065-12.694-0.143-25.388-0.232-38.083-0.069-9.823-0.126-19.647-0.174-29.47-0.028-5.864-0.062-11.727-0.108-17.59-0.043-5.511-0.072-11.023-0.089-16.535-9e-3 -2.02-0.023-4.041-0.042-6.061-0.026-2.762-0.034-5.524-0.036-8.286-9e-3 -1.545-0.018-3.089-0.027-4.68 0.387-4.64 1.326-8.084 3.356-12.27 4.025-2.013 5.48-2.238 9.807-2.183z" fill="#001919"/>
<path transform="translate(988.48 735.84)" d="m0 0c1.03-5e-3 2.06-0.01 3.121-0.015 3.389-0.015 6.778-0.021 10.167-0.027 2.359-6e-3 4.719-0.012 7.078-0.017 4.936-0.011 9.872-0.017 14.808-0.02 6.334-6e-3 12.668-0.03 19.003-0.058 4.867-0.019 9.735-0.024 14.602-0.025 2.337-3e-3 4.673-0.012 7.009-0.025 3.259-0.017 6.516-0.015 9.774-8e-3 0.485-5e-3 0.485-5e-3 2.938-0.028 6.68 0.042 6.68 0.042 10.022 3.384 0.364 4.125 0.364 4.125 0.313 9-4e-3 1.609-8e-3 3.218-0.012 4.875-0.301 4.125-0.301 4.125-2.301 7.125-3.293 0.379-3.293 0.379-7.611 0.385-1.613 0.01-3.225 0.02-4.886 0.031-0.867-2e-3 -1.733-4e-3 -2.625-5e-3 -2.712-5e-3 -5.424 9e-3 -8.136 0.028-5.768 0.037-11.536 0.051-17.304 0.061-6.661 0.012-13.322 0.034-19.983 0.08-2.661 0.014-5.322 0.01-7.984 5e-3 -15.575 0.096-15.575 0.096-22.471 3.415-2.209 3.314-2.224 4.345-2.125 8.188 0.042 1.588 0.083 3.176 0.125 4.812 9.407 2.102 18.359 2.229 27.973 2.125 1.6-7e-3 3.2-0.015 4.849-0.023 5.08-0.024 10.161-0.061 15.241-0.102 6.72-0.053 13.44-0.093 20.16-0.125 1.552-0.016 3.104-0.033 4.703-0.05 1.426-7e-3 2.852-0.013 4.321-0.02 1.259-0.011 2.518-0.021 3.816-0.032 2.937 0.227 2.937 0.227 4.937 2.227 0.924 3.694 1.166 6.596 1.188 10.375 0.014 1.101 0.028 2.202 0.043 3.336-0.243 3.461-0.851 6.109-2.231 9.289-7.933 5.289-21.28 3.104-30.468 3.027-2.951-0.012-5.901-0.025-8.852-0.037-4.613-0.025-9.226-0.053-13.839-0.086-4.478-0.03-8.956-0.048-13.434-0.064-1.386-0.013-2.771-0.027-4.198-0.041-0.642-1e-3 -0.642-1e-3 -3.886-0.01-1.128-8e-3 -2.255-0.015-3.417-0.023-2.906 0.234-2.906 0.234-6.906 2.234-0.629 4.826-0.919 7.752 2.03 11.754 3.891 2.942 6.21 2.872 11.062 2.874 1.642 0.013 3.284 0.026 4.976 0.04 1.788-0.01 3.577-0.021 5.366-0.031 1.839 8e-3 3.679 0.018 5.518 0.031 4.839 0.029 9.678 0.029 14.518 0.022 7.741-7e-3 15.483 0.025 23.225 0.063 2.7 9e-3 5.399 3e-3 8.099-4e-3 1.645 4e-3 3.291 8e-3 4.986 0.012 1.446-2e-3 2.892-4e-3 4.382-6e-3 8.111 0.518 8.111 0.518 10.838 3.245 0.127 2.956 0.176 5.916 0.188 8.875 0.014 1.627 0.028 3.254 0.043 4.93-0.231 4.195-0.231 4.195-2.231 7.195-4.26 1.065-7.792 1.127-12.183 1.13-0.411 0-0.411 0-2.495 5e-3 -2.73 4e-3 -5.459 1e-3 -8.189-2e-3 -1.914 1e-3 -3.829 2e-3 -5.743 3e-3 -4.027 1e-3 -8.054-1e-3 -12.08-5e-3 -5.097-6e-3 -10.193-3e-3 -15.289 3e-3 -3.965 4e-3 -7.931 3e-3 -11.897 0-1.874-1e-3 -3.748 0-5.622 2e-3 -6.169 6e-3 -12.334-0.039-18.502-0.136-0.994-0.013-1.988-0.026-3.012-0.04-3.044-0.05-6.086-0.13-9.129-0.218-0.942-0.014-1.884-0.027-2.855-0.041-2.645-0.096-2.645-0.096-7.004-0.701-3.632-4.844-3.425-8.173-3.388-13.953-5e-3 -1.01-0.01-2.021-0.016-3.061-0.013-3.341-4e-3 -6.681 6e-3 -10.021-2e-3 -2.319-5e-3 -4.638-9e-3 -6.956-4e-3 -4.86 2e-3 -9.72 0.016-14.579 0.017-6.237 8e-3 -12.474-0.01-18.711-0.011-4.788-8e-3 -9.575 0-14.363 2e-3 -2.3 0-4.6-7e-3 -6.901-8e-3 -3.21 4e-3 -6.42 0.02-9.631-3e-3 -0.478-3e-3 -0.478-0.018-2.895 0.064-6.586 0.064-6.586 3.406-9.929 5.756-1.285 11.607-1.154 17.478-1.161z" fill="#007D32"/>
<path transform="translate(1837.6 735.42)" d="m0 0c0.957-2e-3 1.914-5e-3 2.899-7e-3 3.163-2e-3 6.323 0.032 9.486 0.067 2.206 7e-3 4.412 0.012 6.618 0.014 5.814 0.014 11.627 0.058 17.44 0.108 4.72 0.035 9.439 0.048 14.158 0.06 5.657 0.015 11.314 0.04 16.971 0.068 1.068 5e-3 2.135 0.01 3.236 0.015 24.315 0.131 24.315 0.131 31.635 1.258 3.341 4.456 3.386 5.648 3.313 11-4e-3 1.217-8e-3 2.434-0.012 3.688-0.301 3.312-0.301 3.312-2.301 7.312-3.222 1.612-6.481 1.16-10.058 1.19-0.833 8e-3 -1.665 0.017-2.523 0.025-1.812 0.018-3.623 0.033-5.435 0.046-2.866 0.021-5.732 0.048-8.598 0.077-6.087 0.059-12.174 0.111-18.261 0.162-7.045 0.06-14.09 0.122-21.136 0.192-2.825 0.027-5.65 0.048-8.475 0.068-1.732 0.017-3.465 0.034-5.197 0.051-1.513 0.013-3.026 0.025-4.584 0.038-3.733 0.151-3.733 0.151-7.733 1.151-2.506 4.136-2.304 8.279-2 13 2 3 2 3 5 4 2.284 0.075 4.57 0.087 6.855 0.066 1.422-9e-3 2.844-0.019 4.309-0.029 1.54-0.015 3.081-0.029 4.668-0.044 3.244-0.018 6.488-0.035 9.733-0.051 5.128-0.03 10.257-0.066 15.386-0.113 4.939-0.045 9.879-0.066 14.819-0.086 0.767-0.01 0.767-0.01 4.65-0.057 1.431-3e-3 2.862-7e-3 4.337-0.01 0.629-5e-3 0.629-5e-3 3.808-0.03 3.81 0.393 6.191 1.348 9.435 3.354 3.23 4.629 3.427 8.452 3 14-1.072 5.451-1.408 6.556-6 10-4.573 0.936-8.993 1.117-13.65 1.082-1.279-6e-3 -2.557-0.013-3.874-0.02-1.363-0.011-2.727-0.022-4.132-0.034-2.908-0.013-5.815-0.025-8.723-0.037-4.569-0.025-9.138-0.053-13.706-0.086-4.42-0.031-8.839-0.048-13.259-0.065-1.363-0.013-2.727-0.027-4.132-0.04-1.278-4e-3 -2.557-7e-3 -3.873-0.011-1.119-7e-3 -2.237-0.015-3.389-0.022-8.648 0.619-8.648 0.619-11.262 3.233-0.133 4.603-0.12 8.521 1 13 0.531 5e-3 0.531 5e-3 3.218 0.025 10.02 0.078 20.039 0.165 30.058 0.263 5.151 0.05 10.302 0.096 15.453 0.134 4.973 0.037 9.946 0.084 14.919 0.137 1.895 0.018 3.79 0.033 5.685 0.045 2.66 0.017 5.319 0.046 7.978 0.078 1.512 0.013 3.024 0.026 4.582 0.04 4.017 0.272 7.333 0.893 11.107 2.278 2.331 3.641 2.298 7.315 2.313 11.563 0.016 1.115 0.033 2.23 0.05 3.379-0.363 3.058-0.363 3.058-3.363 7.058-4.395 1.465-8.802 1.157-13.391 1.162-1.068 5e-3 -2.137 0.01-3.237 0.015-3.541 0.014-7.081 0.021-10.622 0.027-2.455 5e-3 -4.909 0.011-7.364 0.017-5.148 0.01-10.296 0.016-15.444 0.02-6.608 5e-3 -13.216 0.029-19.824 0.058-5.07 0.018-10.14 0.024-15.21 0.025-2.437 3e-3 -4.874 0.011-7.311 0.024-3.402 0.017-6.804 0.015-10.206 9e-3 -1.013 9e-3 -2.026 0.018-3.07 0.028-6.979-0.042-6.979-0.042-10.321-3.385-1.391-4.172-1.173-8.27-1.193-12.624-8e-3 -0.987-0.016-1.975-0.025-2.992-0.024-3.271-0.041-6.542-0.055-9.813-6e-3 -1.117-0.011-2.233-0.016-3.383-0.027-5.906-0.047-11.812-0.061-17.718-0.017-6.106-0.061-12.211-0.112-18.317-0.034-4.691-0.046-9.381-0.051-14.072-7e-3 -2.251-0.022-4.503-0.046-6.754-0.032-3.148-0.032-6.295-0.024-9.443-0.017-0.931-0.033-1.862-0.05-2.822 0.039-4.062 0.391-6.677 2.572-10.143 4.172-2.615 7.846-2.589 12.618-2.502z" fill="#007D32"/>
<path transform="translate(1388.2 735.73)" d="m0 0c1.01-5e-3 2.019-0.011 3.06-0.016 5.329-0.027 10.658-0.046 15.987-0.061 4.401-0.013 8.803-0.041 13.204-0.082 5.336-0.049 10.672-0.074 16.008-0.081 2.028-7e-3 4.055-0.022 6.083-0.046 2.829-0.031 5.657-0.031 8.486-0.024 1.607-8e-3 3.215-0.016 4.872-0.025 4.058 0.608 4.058 0.608 7.093 2.902 2.746 3.782 2.371 6.235 1.965 10.831-0.103 1.406-0.206 2.811-0.313 4.258-0.687 3.617-0.687 3.617-3.687 6.617-4.836 1.028-9.531 1.106-14.461 1.05-1.455-0.012-2.91-0.025-4.41-0.039-1.557-0.018-3.114-0.035-4.719-0.054-2.466-0.016-4.931-0.033-7.397-0.048-6.059-0.038-12.119-0.085-18.178-0.155-3.407-0.04-6.813-0.068-10.22-0.085-3.202-0.016-6.404-0.047-9.606-0.096-13.536-0.033-13.536-0.033-20.009 4.427-3 3-3 3-3.5 6.5 0.5 3.5 0.5 3.5 2.687 5.375 4.979 1.992 9.382 2.23 14.723 2.128 0.693-0.011 0.693-0.011 4.199-0.069 1.493-0.027 2.986-0.054 4.524-0.082 3.169-0.037 6.338-0.072 9.507-0.105 4.991-0.056 9.98-0.121 14.97-0.22 4.82-0.091 9.639-0.137 14.46-0.175 0.74-0.02 0.74-0.02 4.487-0.119 9.407-0.025 15.874 1.293 22.943 7.767 3.728 4.849 3.438 10.093 3.398 16 3e-3 0.954 6e-3 1.908 9e-3 2.891 2e-3 2.01-4e-3 4.021-0.016 6.031-0.016 3.068 0 6.135 0.019 9.203-2e-3 1.959-6e-3 3.917-0.012 5.875 6e-3 0.913 0.012 1.826 0.019 2.766-0.057 5.175-0.572 8.87-3.417 13.234-14.256 13.365-47.287 7.221-66.138 7.241-4.563 5e-3 -9.127 0.029-13.69 0.058-3.544 0.018-7.088 0.023-10.632 0.025-2.498 4e-3 -4.996 0.023-7.493 0.042-1.51-3e-3 -3.021-6e-3 -4.577-9e-3 -1.326 4e-3 -2.652 7e-3 -4.018 0.011-3.662-0.39-5.549-1.147-8.452-3.368-1.531-3.061-1.211-5.974-1.25-9.375-0.026-1.327-0.052-2.655-0.078-4.023 0.328-3.602 0.328-3.602 3.328-7.602 4.24-1.141 8.42-1.117 12.793-1.097 0.668 1e-3 0.668 1e-3 4.048 0.01 0.717 4e-3 0.717 4e-3 4.346 0.025 1.49 4e-3 2.98 8e-3 4.515 0.011 6.364 0.017 12.728 0.045 19.091 0.072 4.652 0.018 9.305 0.03 13.957 0.042 0.709 4e-3 0.709 4e-3 4.297 0.025 6.577 0.016 13.148-0.051 19.718-0.341 1.107-0.046 2.213-0.092 3.353-0.139 3.525-0.743 4.768-1.718 6.882-4.608 0.437-4.562 0.437-4.562 0-9-3-3-3-3-5.493-3.354-0.497 5e-3 -0.497 5e-3 -3.01 0.03-0.565 1e-3 -0.565 1e-3 -3.422 0.01-1.225 0.019-2.45 0.037-3.712 0.057-1.267 6e-3 -2.535 0.013-3.84 0.02-4.071 0.023-8.141 0.067-12.211 0.112-47.817 0.42-47.817 0.42-55.422-5.523-9.786-10.299-9.094-18.52-9.14-32.289-0.021-1.549-0.041-3.098-0.063-4.693-5e-3 -1.493-0.01-2.985-0.015-4.522-0.01-1.361-0.019-2.722-0.029-4.125 0.559-5.832 3.24-10.036 6.857-14.535 0.294-0.385 0.294-0.385 1.781-2.332 8.464-5.776 24.829-3.079 34.961-3.129z" fill="#007D32"/>
<path transform="translate(829.4 735.82)" d="m0 0c0.928-7e-3 1.855-0.013 2.811-0.02 3.055-0.02 6.11-0.031 9.166-0.041 1.046-4e-3 2.092-8e-3 3.17-0.013 5.531-0.02 11.062-0.035 16.593-0.044 5.71-0.011 11.419-0.046 17.129-0.085 4.396-0.026 8.792-0.035 13.187-0.038 2.106-5e-3 4.211-0.017 6.316-0.035 2.944-0.025 5.887-0.024 8.831-0.017 0.433-6e-3 0.433-6e-3 2.626-0.039 5.47 0.047 8.579 0.998 12.773 4.509 5.507 5.923 7.047 9.123 7.5 17.063 0.249 4.366 0.592 8.545 1.25 12.875 0.958 8.906-1.155 19.385-5.75 27.062-1.052 0.743-2.104 1.485-3.188 2.25-3.113 3.044-3.285 3.616-3.437 7.75 0.281 4.509 1.275 6.837 4.625 10 0.68 0.557 1.361 1.114 2.062 1.688 5.263 6.281 5.293 14.619 5.434 22.429-0.616 3.577-1.629 4.716-4.496 6.883-5.817 1.454-11.63 2.069-17-1-3-4-3-4-3.688-8.75-0.937-5.2-3.065-7.885-6.754-11.559-7.027-4.645-14.138-5.121-22.289-4.906-0.994 0.017-1.988 0.034-3.012 0.052-2.087 0.04-4.174 0.088-6.26 0.144-3.186 0.082-6.371 0.125-9.558 0.165-2.036 0.044-4.072 0.091-6.107 0.139-0.474 5e-3 -0.474 5e-3 -2.87 0.032-5.635 0.186-9.154 0.975-13.462 4.683-1.964 3.927-1.244 8.971-1.329 13.301-0.812 4.476-2.135 5.927-5.671 8.699-5.993 1.844-10.3 0.297-16-2-2.761-2.761-2.257-5.06-2.294-8.804 1e-3 -0.959 2e-3 -1.918 3e-3 -2.906-7e-3 -1.009-0.013-2.017-0.02-3.056-0.019-3.346-0.023-6.692-0.025-10.039l-0.021-6.957c-0.012-4.868-0.015-9.735-0.014-14.603 0-6.243-0.027-12.487-0.062-18.73-0.022-4.792-0.026-9.584-0.025-14.376-2e-3 -2.303-0.011-4.605-0.026-6.907-0.02-3.218-0.014-6.435-2e-3 -9.653-0.012-0.955-0.023-1.91-0.034-2.894 0.036-3.75 0.108-6.439 2.175-9.636 5.344-3.28 11.658-2.597 17.743-2.616zm3.602 34.177c-0.399 3.715-0.399 3.715-0.375 7.938-8e-3 1.39-0.016 2.781-0.024 4.214 0.502 4.851 1.59 7.323 5.309 10.46 4.699 2.111 9.211 1.816 14.304 1.786 1.089 3e-3 2.177 6e-3 3.299 9e-3 2.299 2e-3 4.598-3e-3 6.896-0.016 3.512-0.016 7.022 0 10.534 0.019 2.236-2e-3 4.473-6e-3 6.709-0.012 1.047 7e-3 2.094 0.013 3.173 0.019 5.466-0.053 9.483-0.284 14.175-3.417 2.3-2.41 2.3-2.41 4.312-5.062 0.677-0.878 1.354-1.756 2.051-2.661 2.669-3.713 2.851-6.019 2.949-10.589 0.037-1.131 0.075-2.262 0.113-3.426-0.512-3.923-1.639-5.505-4.425-8.262-3.041-1.013-5.186-1.156-8.371-1.209-1.098-0.019-2.196-0.038-3.328-0.058-5.023-0.058-10.046-0.107-15.069-0.138-2.648-0.022-5.296-0.056-7.943-0.103-3.821-0.067-7.64-0.094-11.461-0.113-0.59-0.014-0.59-0.014-3.574-0.084-9.581 0.024-13.469 2.99-19.254 10.705z" fill="#007D32"/>
<path transform="translate(1543.8 735.87)" d="m0 0c1.475-1e-3 2.95-2e-3 4.47-3e-3 3.104-1e-3 6.207 1e-3 9.311 5e-3 4.707 6e-3 9.413 0 14.119-6e-3 3.034 1e-3 6.067 2e-3 9.1 4e-3 1.386-2e-3 2.772-4e-3 4.2-6e-3 4.001 9e-3 7.999 0.062 11.999 0.139 0.725 9e-3 0.725 9e-3 4.39 0.056 0.712 0.023 0.712 0.023 4.31 0.14 1.281 0.033 2.562 0.067 3.881 0.101 4.25 0.873 5.66 2.433 8.419 5.703 0.454 0.464 0.454 0.464 2.75 2.812 4.131 5.853 3.385 13.132 3.443 20.095 4e-3 0.426 4e-3 0.426 0.025 2.58 0.024 2.789 0.041 5.579 0.056 8.368 5e-3 0.958 0.01 1.915 0.016 2.901 0.026 5.057 0.046 10.114 0.06 15.17 0.014 4.18 0.042 8.359 0.082 12.538 0.05 5.061 0.074 10.12 0.082 15.181 6e-3 1.924 0.021 3.849 0.045 5.773 0.032 2.688 0.032 5.375 0.025 8.063 8e-3 1.528 0.016 3.056 0.024 4.631-0.723 4.626-1.927 6.089-5.608 8.888-2.719 0.558-2.719 0.558-5.5 0.437-0.459-0.011-0.459-0.011-2.781-0.066-2.903-0.396-5.108-1.044-7.719-2.371-3.344-5.016-2.412-10.972-2.558-16.875-0.442-4.125-0.442-4.125-3.442-7.125-3.992-0.477-3.992-0.477-8.875-0.625-5.433-0.194-10.838-0.398-16.25-0.938-6.494-0.502-12.989-0.654-19.5-0.75-1.049-0.029-2.099-0.059-3.18-0.09-7.191-0.053-13.821 0.839-20.195 4.403-1.493 4.478-0.964 8.868-0.84 13.555-0.159 3.436-0.433 5.486-2.16 8.445-3.71 3-6.378 3.358-11.062 2.937-1.023-0.073-2.045-0.147-3.098-0.222-3.589-0.904-4.642-1.729-6.84-4.715-0.494-4.016-0.494-4.016-0.486-9.004-3e-3 -0.909-7e-3 -1.819-0.011-2.756-8e-3 -3.006 0.014-6.011 0.036-9.018 3e-3 -2.089 4e-3 -4.179 3e-3 -6.269 3e-3 -4.381 0.02-8.761 0.047-13.141 0.034-5.614 0.041-11.227 0.04-16.841 0-4.316 0.011-8.631 0.026-12.947 6e-3 -2.07 0.01-4.14 0.011-6.209 5e-3 -2.894 0.022-5.788 0.044-8.682 7e-3 -1.647 0.015-3.294 0.023-4.99 0.442-6.846 3.023-11.18 7.675-16.116 3.048-2.383 4.574-2.624 8.398-2.785 0.575-0.026 0.575-0.026 3.488-0.16 6.504-0.144 13.001-0.224 19.507-0.215zm-13.801 27.133c-3.608 4.979-3.452 10.195-3.375 16.125-0.011 0.893-0.023 1.786-0.035 2.707 0.023 5.127 0.238 6.938 3.41 11.168 3.239 1.08 5.636 1.146 9.045 1.177 1.245 0.013 2.49 0.025 3.772 0.039 0.674 3e-3 0.674 3e-3 4.082 0.022 0.691 4e-3 0.691 4e-3 4.188 0.025 2.927 0.013 5.854 0.024 8.781 0.032 4.482 0.017 8.963 0.061 13.445 0.105 2.841 0.01 5.682 0.019 8.523 0.026 0.672 8e-3 0.672 8e-3 4.069 0.053 0.626-2e-3 0.626-2e-3 3.792-9e-3 1.099 6e-3 2.198 0.012 3.33 0.018 3.679-0.604 5.349-1.888 7.973-4.488 0.631-2.486 0.631-2.486 0.629-5.246 2e-3 -1.003 4e-3 -2.005 6e-3 -3.037-0.024-1.041-0.048-2.082-0.072-3.155 5e-3 -0.518 5e-3 -0.518 0.033-3.142-0.043-4.479-0.118-7.561-2.318-11.518-4.028-3.364-7.718-4.152-12.891-4.177-0.551-5e-3 -0.551-5e-3 -3.337-0.029-1.181 1e-3 -2.361 2e-3 -3.577 3e-3 -0.611-2e-3 -0.611-2e-3 -3.702-0.013-2.581-6e-3 -5.163-6e-3 -7.744-2e-3 -3.946 3e-3 -7.891-0.02-11.837-0.046-2.51-2e-3 -5.02-2e-3 -7.53-1e-3 -1.178-0.01-2.356-0.019-3.57-0.028-10.357 0.058-10.357 0.058-15.09 3.391z" fill="#007D32"/>
<path transform="translate(542.15 735.84)" d="m0 0c1.007-5e-3 2.014-0.01 3.052-0.015 3.32-0.015 6.64-0.021 9.959-0.027 2.312-6e-3 4.623-0.012 6.934-0.017 4.839-0.011 9.679-0.017 14.518-0.02 6.203-6e-3 12.406-0.03 18.609-0.058 4.77-0.019 9.541-0.024 14.312-0.025 2.287-3e-3 4.574-0.012 6.862-0.025 3.195-0.017 6.39-0.015 9.586-8e-3 0.945-0.01 1.89-0.019 2.864-0.028 5.418 0.034 9.233 0.462 13.155 4.384 0.18 2.6 0.268 5.207 0.313 7.813 0.019 0.714 0.019 0.714 0.113 4.332-0.426 3.855-0.426 3.855-1.883 6.304-7.576 4.621-19.646 2.607-28.144 2.508-3.266-0.022-6.531-0.044-9.797-0.064-5.127-0.036-10.253-0.079-15.379-0.14-4.962-0.058-9.924-0.083-14.887-0.108-1.532-0.024-3.065-0.048-4.643-0.072-1.432-4e-3 -2.864-7e-3 -4.34-0.011-1.254-0.012-2.508-0.024-3.8-0.036-5.783 0.772-9.488 3.41-13.553 7.474-0.812 3.438-0.812 3.438 0 7 8.703 4.783 16.876 4.479 26.621 4.285 1.577-0.012 3.154-0.025 4.779-0.038 4.163-0.035 8.326-0.086 12.489-0.147 5.887-0.086 11.774-0.16 17.662-0.211 3.13-0.027 6.259-0.069 9.388-0.126 1.409-0.013 2.818-0.026 4.27-0.04 1.242-0.019 2.485-0.037 3.764-0.057 3.027 0.334 3.027 0.334 6.027 3.334 1.824 3.647 1.314 7.923 1.375 11.938 0.019 0.46 0.019 0.46 0.114 2.787 0.035 2.677 0.035 2.677-0.489 7.275-3.754 3.136-6.868 3.361-11.651 3.309-1.329-7e-3 -2.657-0.013-4.026-0.02-0.715-0.011-0.715-0.011-4.334-0.066-1.479-9e-3 -2.957-0.018-4.481-0.027-4.732-0.03-9.463-0.08-14.195-0.133-4.714-0.048-9.428-0.092-14.142-0.123-2.933-0.019-5.866-0.049-8.798-0.09-7.405-0.054-14.24 0.041-21.373 2.15-3.663 4.885-4.13 8.011-3.992 13.902 0.017 1.138 0.034 2.276 0.051 3.448 0.044 2.388 0.096 4.776 0.156 7.164 0.014 1.139 0.029 2.278 0.043 3.451 0.011 0.519 0.011 0.519 0.067 3.144-0.382 3.403-1.215 5.206-3.325 7.891-7.157 2.603-11.27 1.899-18-1-2.76-2.76-2.256-5.06-2.293-8.804 1e-3 -0.959 2e-3 -1.918 3e-3 -2.906-7e-3 -1.009-0.014-2.017-0.021-3.056-0.019-3.346-0.022-6.692-0.025-10.039-6e-3 -2.319-0.013-4.638-0.02-6.957-0.012-4.868-0.015-9.735-0.014-14.603 0-6.243-0.027-12.487-0.062-18.73-0.022-4.792-0.026-9.584-0.025-14.376-2e-3 -2.302-0.011-4.605-0.027-6.907-0.019-3.218-0.014-6.435-2e-3 -9.653-0.011-0.955-0.022-1.91-0.034-2.893 0.036-3.751 0.109-6.44 2.176-9.636 5.541-3.402 12.189-2.594 18.493-2.601z" fill="#007D32"/>
<path transform="translate(1684.5 735.84)" d="m0 0c1.03-5e-3 2.06-0.01 3.121-0.015 3.389-0.015 6.778-0.021 10.167-0.027 2.359-6e-3 4.719-0.012 7.078-0.017 4.936-0.011 9.872-0.017 14.808-0.02 6.334-6e-3 12.668-0.03 19.003-0.058 4.867-0.019 9.735-0.024 14.602-0.025 2.337-3e-3 4.673-0.012 7.009-0.025 3.259-0.017 6.516-0.015 9.774-8e-3 0.485-5e-3 0.485-5e-3 2.938-0.028 6.68 0.042 6.68 0.042 10.022 3.384 0.399 4.125 0.399 4.125 0.375 9 4e-3 0.805 4e-3 0.805 0.024 4.875-0.399 4.125-0.399 4.125-3.399 7.125-3.375 0.379-3.375 0.379-7.633 0.385-1.592 0.01-3.185 0.02-4.825 0.031-0.853-2e-3 -1.706-4e-3 -2.585-5e-3 -2.674-5e-3 -5.348 9e-3 -8.022 0.028-5.687 0.037-11.373 0.051-17.06 0.061-6.57 0.012-13.14 0.034-19.711 0.08-2.624 0.014-5.247 0.01-7.871 5e-3 -15.365 0.096-15.365 0.096-22.293 3.415-2.209 3.314-2.224 4.345-2.125 8.188 0.042 1.588 0.083 3.176 0.125 4.812 9.106 2.012 17.69 2.218 26.993 2.09 3.086-0.02 6.172-0.041 9.257-0.061 4.833-0.043 9.665-0.092 14.498-0.145 4.685-0.048 9.371-0.078 14.057-0.107 0.725-0.01 0.725-0.01 4.391-0.065 1.346-7e-3 2.691-0.014 4.077-0.021 0.591-6e-3 0.591-6e-3 3.581-0.038 3.499 0.386 5.351 1.243 8.146 3.347 2.943 5.282 2.512 11.131 2 17-1.312 4.188-1.312 4.188-3 7-3.538 1.179-6.303 1.106-10.038 1.082-1.462-7e-3 -2.924-0.013-4.43-0.02-0.792-6e-3 -0.792-6e-3 -4.801-0.035-2.481-9e-3 -4.963-0.018-7.444-0.027-6.127-0.023-12.255-0.057-18.382-0.096-3.436-0.021-6.871-0.038-10.307-0.048-3.237-0.011-6.475-0.029-9.712-0.057-1.472-3e-3 -2.943-7e-3 -4.459-0.01-1.292-8e-3 -2.584-0.015-3.916-0.023-3.591 0.24-7.828 0.551-10.511 3.234-0.122 2.463-0.179 4.929-0.21 7.395-0.015 0.756-0.015 0.756-0.086 4.584-0.052 3.21-0.097 6.421-0.133 9.632-0.016 0.759-0.016 0.759-0.094 4.596-0.02 1.397-0.04 2.794-0.06 4.234-0.417 3.559-0.417 3.559-3.417 7.559-3.13 1.044-5.585 1.268-8.875 1.375-0.514 0.025-0.514 0.025-3.117 0.149-4.222-0.735-5.422-2.117-8.008-5.524-0.483-3.521-0.664-6.55-0.615-10.067-5e-3 -1.01-0.011-2.02-0.017-3.061-0.011-3.336 0.013-6.669 0.039-10.005 1e-3 -2.317 1e-3 -4.634 0-6.952 1e-3 -4.854 0.02-9.707 0.051-14.561 0.04-6.229 0.045-12.458 0.037-18.687-3e-3 -4.783 9e-3 -9.567 0.026-14.35 7e-3 -2.297 0.01-4.595 9e-3 -6.892 2e-3 -3.206 0.024-6.411 0.051-9.617-3e-3 -0.954-6e-3 -1.907-9e-3 -2.89 0.085-6.575 0.085-6.575 3.428-9.918 5.756-1.285 11.607-1.154 17.478-1.161z" fill="#007D32"/>
<path transform="translate(697.44 735.85)" d="m0 0c1.452-6e-3 2.904-0.013 4.4-0.019 1.554-1e-3 3.108-3e-3 4.71-4e-3 1.611-3e-3 3.222-6e-3 4.882-0.01 3.405-6e-3 6.809-8e-3 10.213-7e-3 4.343 0 8.686-0.014 13.028-0.031 4.168-0.014 8.335-0.013 12.502-0.014 1.55-7e-3 3.1-0.015 4.698-0.022 7.311 0.015 14.115 0.036 21.122 2.252 1.658 3.317 1.213 6.772 1.25 10.438 0.026 1.525 0.052 3.05 0.078 4.621-0.328 3.941-0.328 3.941-3.328 6.941-2.464 0.353-2.464 0.353-5.367 0.336-0.525 7e-3 -0.525 7e-3 -3.184 0.039-2.208 0-4.416-7e-3 -6.625-0.023-8.109 0.119-8.109 0.119-11.832 2.875-0.657 0.915-1.314 1.83-1.992 2.773-0.69 0.689-1.38 1.377-2.091 2.086-2.627 4.01-2.483 7.671-2.44 12.309-4e-3 0.906-8e-3 1.812-0.012 2.746-2e-3 1.914 5e-3 3.828 0.022 5.741 0.021 2.911 0 5.819-0.026 8.73 3e-3 1.865 8e-3 3.73 0.016 5.595-8e-3 0.862-0.016 1.724-0.025 2.612 0.103 6.723 1.716 12.341 6.556 17.181 4.149 1.037 7.425 1.031 11.688 0.938 6.15-0.039 11.445 0.21 17.312 2.062 1.658 3.317 1.213 6.772 1.25 10.438 0.026 1.525 0.052 3.05 0.078 4.621-0.328 3.941-0.328 3.941-3.328 6.941-4.177 1.286-8.398 1.134-12.74 1.146-0.783 3e-3 -0.783 3e-3 -4.743 0.019-1.703 1e-3 -3.407 3e-3 -5.111 3e-3 -1.752 3e-3 -3.504 7e-3 -5.256 0.01-3.668 6e-3 -7.336 8e-3 -11.005 8e-3 -4.697-1e-3 -9.395 0.013-14.092 0.03-3.617 0.011-7.234 0.013-10.851 0.013-1.732 1e-3 -3.464 6e-3 -5.196 0.013-2.422 0.01-4.844 6e-3 -7.266 1e-3 -0.688 1e-3 -0.688 1e-3 -4.173 5e-3 -3.405-0.237-5.621-0.549-8.567-2.248-2.114-4.228-2.298-6.357-2.312-11-0.017-1.217-0.034-2.433-0.051-3.687 0.363-3.313 0.363-3.313 3.363-7.313 6.828-1.662 13.946-0.938 20.918-0.742 4.082-0.258 4.082-0.258 8.082-3.258 1.247-4.987 1.182-9.792 1.203-14.898 3e-3 -0.534 3e-3 -0.534 0.018-3.236 9e-3 -2.257 0.016-4.515 0.019-6.773 0.01-3.448 0.041-6.895 0.073-10.343 6e-3 -2.195 0.011-4.39 0.015-6.586 0.013-1.028 0.025-2.056 0.038-3.116-0.017-5.379-0.151-9.488-3.366-14.048-3.098-1.032-5.194-1.096-8.437-1.07-0.53-5e-3 -0.53-5e-3 -3.211-0.031-2.235-0.016-4.469-8e-3 -6.703 0.023-3.03-0.051-5.714-0.165-8.649-0.922-2.955-4.204-3.414-8.12-3.375-13.187-8e-3 -1.004-0.015-2.009-0.023-3.043 0.398-2.77 0.398-2.77 3.398-6.77 4.793-1.102 9.541-1.13 14.445-1.145z" fill="#007D32"/>
<path transform="translate(1997.8 735.85)" d="m0 0c0.503-2e-3 0.503-2e-3 3.046-0.01 3.331-0.01 6.662-0.012 9.994-0.013 2.313-3e-3 4.626-6e-3 6.939-0.01 4.853-6e-3 9.706-8e-3 14.559-7e-3 6.218 0 12.435-0.014 18.653-0.031 4.779-0.011 9.558-0.013 14.337-0.012 2.292-2e-3 4.585-6e-3 6.877-0.014 3.207-0.01 6.415-7e-3 9.622-1e-3 0.947-5e-3 1.893-0.011 2.868-0.017 4.793 0.023 8.958 0.152 13.313 2.26 4.496 5.996 3.475 11.761 3.437 19.063 0.02 1.387 0.04 2.775 0.061 4.205-1e-3 0.663-1e-3 0.663-2e-3 4.017 2e-3 1.216 4e-3 2.432 5e-3 3.684-0.501 3.031-0.501 3.031-4.501 6.031-4.298 1.314-8.543 1.412-13 1-5.314-3.334-7.736-7.76-11-13-4.538-2.269-6.992-2.385-12-2-3.586 1.637-4.793 2.69-7 6-1.124 4.054-1.098 7.924-1.05 12.114 0.013 1.428 0.026 2.856 0.039 4.328 0.018 1.536 0.035 3.073 0.054 4.656 0.022 3.247 0.044 6.493 0.064 9.74 0.036 5.125 0.079 10.249 0.14 15.373 0.057 4.942 0.083 9.883 0.108 14.824 0.012 0.77 0.012 0.77 0.072 4.663 4e-3 1.425 7e-3 2.85 0.011 4.318 0.012 1.255 0.024 2.51 0.036 3.803-0.563 3.778-1.486 4.888-4.474 7.181-4.903 2.34-8.754 2.333-14 1-3.184-3.065-4.833-5-5.568-9.401 0.026-1.241 0.053-2.483 0.079-3.762 0.017-1.416 0.034-2.831 0.051-4.289 0.041-1.519 0.083-3.038 0.125-4.602 0.019-1.571 0.038-3.142 0.058-4.76 0.071-5.871 0.187-11.74 0.307-17.61 0.114-5.751 0.191-11.503 0.26-17.255 0.042-1.515 0.083-3.03 0.126-4.591 0.095-8.138 0.053-13.486-5.438-19.73-3.716-1.858-5.064-2.294-9-2.312-0.846-0.017-1.691-0.034-2.563-0.051-2.437 0.363-2.437 0.363-6.437 3.363l-2 4c-2 4-2 4-6 7-5.136 1.226-9.644 1.491-14.625-0.312-2.375-1.688-2.375-1.688-3.375-3.688-0.301-4.953-0.278-9.914-0.313-14.875-0.029-1.388-0.058-2.776-0.088-4.207-8e-3 -1.331-0.016-2.663-0.025-4.035-0.015-1.223-0.029-2.446-0.044-3.706 0.559-3.778 1.461-4.904 4.47-7.177 4.224-1.408 8.385-1.147 12.792-1.145z" fill="#007D32"/>
<path transform="translate(2161,739)" d="m0 0 1 1c-0.023 2.113-0.053 4.225-0.116 6.337-0.233 8.466 0.136 15.043 4.116 22.663 0.371 1.072 0.742 2.145 1.125 3.25 3.408 4.998 9.21 7.862 14.875 9.75 5.204 0.294 10.414 0.278 15.625 0.312 0.719 0.015 0.719 0.015 4.355 0.088 8.13 0.049 13.931-0.327 21.02-4.4 0.821-0.469 1.642-0.938 2.488-1.422 5.004-3.643 7.268-6.863 9.512-12.578 0.422-4.723 0.047-9.408-0.244-14.131-0.261-7.172-0.261-7.172 2.498-10.982 4.714-3.239 9.178-3.224 14.746-2.887 5.625 2.25 5.625 2.25 7 5 0.303 4.619 0.278 9.247 0.312 13.875 0.015 0.637 0.015 0.637 0.088 3.859 0.056 8.338-0.795 15.658-4.4 23.266-2.375 2.25-2.375 2.25-5 4-0.412 0.577-0.412 0.577-2.5 3.5-4.582 6.379-11.432 13.966-18.5 17.5-1.936 0.263-3.874 0.511-5.812 0.75-4.078 0.659-5.937 1.064-9.313 3.562-3.091 4.43-4.134 7.86-3.93 13.25 0.025 1.045 0.049 2.089 0.075 3.165 0.07 2.182 0.148 4.364 0.234 6.546 0.168 8.01 0.168 8.01-2.117 11.891-3.569 3.066-5.844 3.883-10.575 3.711-4.212-1.035-7.47-2.783-10.562-5.875 0.042-4.854 0.127-9.7 0.303-14.551 0.121-7.277-0.427-14.099-4.303-20.449-2.953-1.266-2.953-1.266-6.25-1.25-6.852-0.033-10.082-3.137-14.75-7.75-0.75-0.72-1.5-1.44-2.273-2.182-2.37-2.292-4.707-4.613-7.039-6.943-0.798-0.785-1.595-1.57-2.417-2.379-0.766-0.764-1.532-1.529-2.322-2.316-0.687-0.684-1.375-1.367-2.083-2.071-7.786-8.8-7.228-20.451-7.241-31.609-0.012-0.583-0.012-0.583-0.074-3.531-2e-3 -0.557-2e-3 -0.557-0.012-3.375-8e-3 -1.004-0.016-2.007-0.025-3.041 0.486-2.553 0.486-2.553 4.486-5.553 6.305-1.926 12.631-2.068 18 2z" fill="#007D32"/>
<path transform="translate(1211.9 744.62)" d="m0 0c1.618-0.028 3.236-0.057 4.902-0.086 0.687 0.076 0.687 0.076 4.16 0.461 3.37 4.492 3.37 4.492 3.188 9.027-0.023 0.957-0.046 1.915-0.07 2.901-0.078 2.002-0.156 4.005-0.235 6.008-0.224 9.258-0.224 9.258 3.117 13.064 6.973 4.154 12.818 3.98 20.688 3.547 3.312 0.453 3.312 0.453 5.699 2.672 3.699 6.376 3.014 14.778 1.613 21.781-3.998 2.999-4.492 3.369-9.062 3.406-0.481 0.011-0.481 0.011-2.914 0.067-1.008 9e-3 -1.008 9e-3 -6.047 0.054-0.481 0.011-0.481 0.011-2.914 0.067-0.438 3e-3 -0.438 3e-3 -2.652 0.021-2.411 0.385-2.411 0.385-6.411 3.385-1.832 6.339-0.925 13.26-0.742 19.785-0.255 4.179-0.476 6.127-3.258 9.215-3.69 1.326-7.25 1.041-11.124 0.75-1.034-0.067-2.068-0.134-3.133-0.203-2.743-0.547-2.743-0.547-5.743-3.547-0.384-2.68-0.384-2.68-0.406-5.875-0.022-1.15-0.044-2.3-0.066-3.484-0.018-2.427-0.037-4.855-0.055-7.282-0.022-1.149-0.044-2.299-0.066-3.484-7e-3 -1.054-0.014-2.109-0.022-3.195-0.385-2.68-0.385-2.68-3.385-5.68-3.689-0.328-7.244-0.513-10.937-0.563-1.988-0.034-3.977-0.077-5.965-0.128-0.881-0.013-1.763-0.025-2.671-0.038-2.427-0.271-2.427-0.271-6.427-2.271-2.588-6.213-3.23-13.462-1-19.875 5.42-5.758 10.687-6.352 18.313-6.75 1.378-0.034 2.756-0.067 4.176-0.102 3.511-0.273 3.511-0.273 6.511-2.273 1.059-3.174 1.171-5.574 1.247-8.91 0.032-1.155 0.065-2.309 0.099-3.498 0.061-2.44 0.119-4.88 0.172-7.321 0.034-1.153 0.068-2.306 0.104-3.494 0.025-1.059 0.05-2.119 0.076-3.211 0.741-6.28 6.111-4.9 11.24-4.941z" fill="#007D32"/>
</svg>
