<?xml version="1.0" encoding="UTF-8"?>
<svg version="1.1" viewBox="0 0 2448 1112" xmlns="http://www.w3.org/2000/svg">
<path transform="translate(1743.6 746.87)" d="m0 0c0.54-1e-3 0.54-1e-3 3.274-6e-3 3.645-6e-3 7.29-4e-3 10.935-3e-3 2.63-3e-3 5.259-6e-3 7.889-9e-3 7.246-8e-3 14.491-0.01 21.737-0.011 7.807-1e-3 15.613-9e-3 23.419-0.016 17.967-0.014 35.933-0.02 53.899-0.024 8.874-3e-3 17.748-6e-3 26.622-0.01 30.363-0.013 60.726-0.024 91.089-0.027 1.906 0 3.812-1e-3 5.718-1e-3h5.731c3.834-1e-3 7.667-1e-3 11.5-2e-3h2.88c30.841-4e-3 61.683-0.02 92.524-0.043 32.592-0.025 65.183-0.038 97.775-0.04h10.723 2.667c14.189-1e-3 28.379-0.013 42.568-0.027 14.247-0.014 28.495-0.017 42.742-0.01 7.725 4e-3 15.45 3e-3 23.174-0.011 7.062-0.012 14.123-0.011 21.184 1e-3 2.564 2e-3 5.129-1e-3 7.693-0.01 3.467-0.011 6.932-4e-3 10.398 8e-3 0.507-3e-3 0.507-3e-3 3.069-0.023 6.892 0.053 6.892 0.053 10.235 3.395 1.728 3.456 1.136 7.451 1.127 11.254 1e-3 0.971 3e-3 1.942 5e-3 2.943 4e-3 3.276 0 6.551-3e-3 9.827 2e-3 2.34 3e-3 4.681 6e-3 7.021 4e-3 6.374 2e-3 12.749-1e-3 19.123-2e-3 6.665 0 13.33 2e-3 19.995 1e-3 11.202-1e-3 22.404-6e-3 33.606-5e-3 12.946-3e-3 25.893 2e-3 38.839 5e-3 11.11 5e-3 22.219 3e-3 33.328-2e-3 6.637-2e-3 13.275 1e-3 19.912 3e-3 6.247 1e-3 12.494-5e-3 18.741-1e-3 2.291-1e-3 4.582 2e-3 6.873 2e-3 3.132-1e-3 6.264-6e-3 9.396 2e-3 0.903 4e-3 1.805 7e-3 2.735-0.057 18.534-7.241 29.03-19.572 42.032-3.689 3.496-7.469 6.374-11.562 9.375l-3 3c-2.518 1.281-5.09 2.454-7.688 3.563-0.682 0.3-0.682 0.3-4.136 1.816-12.327 4.404-26.173 3.904-39.077 3.831-1.752-3e-3 -3.504-5e-3 -5.256-5e-3 -4.774-5e-3 -9.547-0.023-14.32-0.042-5.172-0.019-10.343-0.027-15.514-0.035-10.145-0.019-20.29-0.049-30.435-0.082-11.94-0.039-23.879-0.067-35.819-0.094-21.455-0.049-42.911-0.108-64.366-0.173-20.522-0.062-41.045-0.118-61.568-0.166-1.249-3e-3 -2.499-6e-3 -3.786-9e-3 -2.519-6e-3 -5.039-0.012-7.558-0.018-1.245-3e-3 -2.489-6e-3 -3.771-9e-3 -1.243-3e-3 -2.485-6e-3 -3.766-9e-3 -161.44-0.382-161.44-0.382-220.88-0.87-1.544-0.012-3.088-0.025-4.679-0.038-13.787-0.115-27.575-0.239-41.363-0.388-4.644-0.049-9.288-0.095-13.933-0.141-3.057-0.032-6.113-0.07-9.17-0.109-1.793-0.018-3.586-0.036-5.378-0.054-1.519-0.018-3.038-0.036-4.602-0.054-3.443 0.076-6.559 0.436-9.931 1.086-1.709 0.094-3.42 0.148-5.132 0.162-0.971 9e-3 -1.941 0.019-2.942 0.029-1.031 4e-3 -2.063 8e-3 -3.125 0.013-1.072 5e-3 -2.144 0.011-3.249 0.017-2.258 9e-3 -4.517 0.016-6.775 0.02-3.463 9e-3 -6.926 0.04-10.388 0.072-2.196 6e-3 -4.392 0.012-6.588 0.016-0.519 6e-3 -0.519 6e-3 -3.144 0.037-7.314-0.023-7.314-0.023-10.657-3.366-1.356-4.067-1.141-8.003-1.134-12.246-2e-3 -0.958-4e-3 -1.917-7e-3 -2.904-6e-3 -3.227-5e-3 -6.453-4e-3 -9.68-3e-3 -2.307-7e-3 -4.615-0.011-6.923-8e-3 -6.281-0.011-12.562-0.011-18.844-1e-3 -5.243-5e-3 -10.486-9e-3 -15.729-8e-3 -12.375-0.01-24.751-9e-3 -37.126 0-12.759-0.01-25.519-0.026-38.279-0.013-10.954-0.019-21.909-0.018-32.864 0-6.542-3e-3 -13.085-0.013-19.627-0.01-6.159-0.01-12.318-3e-3 -18.478 1e-3 -2.256-1e-3 -4.512-7e-3 -6.768-8e-3 -3.09-3e-3 -6.18 5e-3 -9.269-6e-3 -0.885-0.011-1.769-0.016-2.68 0.069-12.682 3.063-21.169 10.263-31.583 0.853-1.268 1.707-2.536 2.586-3.843 9.3-13.325 21.483-24.789 37.845-28.744 4.347-0.698 8.732-0.552 13.124-0.544zm124.32 54.256c-3.954 6.064-5.034 12.54-6.25 19.563-1.177 6.676-3.093 12.633-5.504 18.949-1.11 3.329-1.68 6.389-2.121 9.863-0.595 4.666-1.67 8.618-3.375 13-2.629 6.869-3.961 13.717-5.105 20.954-0.749 4.469-1.678 7.9-3.551 12.097-2.095 4.733-2.793 8.703-3.407 13.824-0.878 6.552-2.319 11.847-5.375 17.704-2.13 5.242-2.56 10.862-3.375 16.433-0.959 5.299-2.678 9.977-4.617 14.981-1.762 5.171-2.596 10.431-3.504 15.808-0.593 3.174-1.36 6.081-2.379 9.137-1.393 4.842-1.928 8.557-1.312 13.562 3.148 3.061 6.09 3.19 10.281 3.18 2.074-0.08 4.147-0.183 6.219-0.305 0.537-0.028 0.537-0.028 3.257-0.173 19.664-1.205 19.664-1.205 24.942-6.315 2.599-3.826 3.477-6.875 4.426-11.387 1.593-7.443 1.593-7.443 3.406-11.023 1.747-3.541 2.252-6.704 2.844-10.602 0.881-5.081 1.903-9.505 4.062-14.187 3.117-6.776 4.26-13.872 5.571-21.16 0.992-4.028 0.992-4.028 3.992-7.028 11.131-4.583 24.833-3.161 36.652-3.246 3.158-0.033 6.317-0.066 9.475-0.099 4.926-0.048 9.853-0.092 14.779-0.131 4.791-0.04 9.581-0.092 14.371-0.145 1.473-8e-3 2.946-0.016 4.464-0.025 1.376-0.017 2.751-0.033 4.169-0.051 0.602-5e-3 0.602-5e-3 3.647-0.031 4.913-0.388 9.092-0.958 12.693-4.459 4.932-7.926 5.889-15.361 6-24.563 0.026-1.294 0.051-2.588 0.078-3.921-0.328-3.329-0.328-3.329-3.328-6.329-3.854-0.398-3.854-0.398-8.786-0.432-0.898-0.01-1.796-0.02-2.721-0.031-2.97-0.03-5.94-0.039-8.911-0.048-2.058-0.017-4.117-0.035-6.175-0.055-5.42-0.047-10.841-0.077-16.261-0.103-5.53-0.03-11.06-0.076-16.589-0.122-10.853-0.086-21.705-0.153-32.557-0.209-0.064-8.912 0.43-16.963 4.562-25.062 1.459-2.981 1.971-5.366 2.528-8.621 0.086-0.497 0.086-0.497 0.523-3.014 0.128-0.76 0.255-1.52 0.387-2.303 1.532-3e-3 3.064-7e-3 4.643-0.011 14.42-0.037 28.841-0.094 43.261-0.172 7.414-0.04 14.829-0.072 22.243-0.088 7.152-0.015 14.303-0.049 21.455-0.097 2.732-0.015 5.464-0.023 8.196-0.023 3.819-3e-3 7.638-0.03 11.457-0.063 0.568 3e-3 0.568 3e-3 3.441 0.016 1.041-0.014 2.081-0.028 3.153-0.043 0.904-3e-3 1.807-7e-3 2.738-0.011 3.221-0.678 4.402-1.945 6.413-4.508 0.941-3.933 0.941-3.933 1.562-8.437 0.75-5.361 1.515-9.032 4.438-13.563 0.375-4.125 0.375-4.125 0-8-3.625-3.624-4.483-3.383-9.439-3.418-0.676-9e-3 -0.676-9e-3 -4.096-0.052-0.744-1e-3 -0.744-1e-3 -4.506-0.01-1.562-0.015-3.125-0.03-4.735-0.045-4.292-0.038-8.583-0.062-12.874-0.079-4.489-0.021-8.978-0.056-13.466-0.089-7.541-0.052-15.082-0.092-22.622-0.125-8.718-0.038-17.436-0.098-26.153-0.169-7.482-0.06-14.964-0.109-22.446-0.148-4.47-0.023-8.94-0.05-13.41-0.088-4.984-0.042-9.969-0.059-14.954-0.073-1.483-0.015-2.965-0.031-4.493-0.047h-4.113c-0.589-3e-3 -0.589-3e-3 -3.572-0.018-4.523 0.524-7.076 2.316-10.246 5.486zm192 0c-3.664 5.618-4.862 11.335-5.688 17.875-0.959 7.017-3.347 13.243-5.808 19.856-1.57 4.72-2.23 9.205-2.824 14.121-0.591 3.219-1.62 5.747-2.993 8.711-2.304 5.073-3.255 9.802-4.062 15.312-0.968 6.6-2.512 11.813-5.313 17.813-1.499 4.025-2.064 7.94-2.687 12.187-0.794 5.415-1.685 10.04-4 15-2.266 4.874-3.166 9.369-3.938 14.688-1.154 7.901-3.391 14.804-6.211 22.25-1.669 5.017-2.365 9.858-2.832 15.109-0.574 3.267-1.809 5.146-3.519 7.953-0.815 3.81-0.841 7.192 0 11 3.619 4.107 5.637 5.696 11.027 6.391 3.884 0.058 7.56-0.093 11.367-0.894 4.614-0.879 9.327-0.842 14.012-1.02 4.69-0.622 7.29-2.172 10.594-5.477 0.706-2.042 1.342-4.109 1.937-6.187 1.014-3.526 2.063-6.812 3.571-10.16 1.741-4.263 2.571-8.38 3.429-12.903 1.25-6.342 2.783-12.316 5.196-18.32 0.933-2.616 1.415-5.129 1.867-7.867 1.294-5.904 1.294-5.904 5-8.563 3.572-0.47 3.572-0.47 7.836-0.425 0.769 4e-3 0.769 4e-3 4.664 0.025 1.609 0.029 3.217 0.058 4.875 0.088 0.8 5e-3 0.8 5e-3 4.851 0.029 13.99 0.135 13.99 0.135 18.774 1.283 1.191 2.106 1.191 2.106 2 5 0.463 1.152 0.925 2.303 1.402 3.489 4.363 10.869 4.363 10.869 6.285 16.136 1.313 3.375 1.313 3.375 2.75 5.653 1.804 3.143 2.801 6.2 3.875 9.66 1.738 5.324 3.577 10.562 5.688 15.75 0.454 1.118 0.907 2.235 1.375 3.387 2.61 4.698 5.887 6.557 10.625 8.925 2.742 0.344 2.742 0.344 5.875 0.5 4.808 0.297 9.491 0.813 14.25 1.563 6.06 0.901 11.751 1.26 17.875 0.937 2.739-2.739 2.299-4.366 2.312-8.187-0.115-6.973-1.922-11.336-5.312-17.375-2.266-5.028-3.169-9.801-4.219-15.188-0.939-3.906-2.768-6.789-4.781-10.25-0.527-2.134-1.001-4.282-1.438-6.437-0.877-4.245-1.819-7.465-4.25-11.063-2.312-3.5-2.312-3.5-2.312-8.5 0.929-0.037 1.859-0.074 2.816-0.113 1.236-0.066 2.473-0.131 3.746-0.199 1.219-0.058 2.437-0.116 3.692-0.176 13.923-1.902 29.025-12.717 37.429-23.715 1.205-1.872 2.269-3.832 3.317-5.797 0.536-0.948 1.072-1.897 1.625-2.875 1.509-3.429 2.497-6.842 3.433-10.464 0.942-2.661 0.942-2.661 2.915-5.825 2.5-4.731 3.227-9.029 4.027-14.273 1.126-6.84 2.416-13.493 4.25-20.188 2.539-10.063 3.601-16.958-1.813-26.187-1.435-2.094-2.911-4.16-4.437-6.188-0.551-0.737-1.101-1.474-1.668-2.234-5.279-6.1-12.943-8.294-20.743-9.132-3.764-0.143-7.508-0.163-11.274-0.135-1.418-6e-3 -2.836-0.011-4.297-0.017-4.651-0.012-9.301 4e-3 -13.952 0.022-3.244 0-6.488-1e-3 -9.732-4e-3 -6.781-1e-3 -13.562 0.011-20.343 0.034-7.833 0.027-15.666 0.028-23.5 0.016-7.555-0.01-15.11-4e-3 -22.665 0.01-3.209 5e-3 -6.417 5e-3 -9.626 1e-3 -4.473-3e-3 -8.947 0.014-13.421 0.035-1.328-4e-3 -2.656-9e-3 -4.025-0.013-0.609 5e-3 -0.609 5e-3 -3.691 0.03-1.056 2e-3 -2.113 5e-3 -3.201 7e-3 -4.337 0.576-6.939 2.458-9.987 5.505z" fill="#C8964B"/>
<path transform="translate(243.81 121.94)" d="m0 0c0.722 0.351 1.444 0.701 2.188 1.062 1 4.001 1 4.001-1.313 8.063-0.45 0.672-0.9 1.343-1.363 2.035-4.428 9.704-3.635 20.785-3.585 31.218 0.01 2.679 0 5.357-0.013 8.036-0.01 11.271 0.301 21.673 4.711 32.211 1.582 3.892 2.974 7.693 4.063 11.75 1.564 4.889 3.613 8.463 6.5 12.687 2.107 3.162 4.178 6.299 6.124 9.563 5.052 8.126 11.005 15.784 17.876 22.437 12.999 13 12.999 13 15.621 15.711 2.217 2.134 4.365 3.749 6.941 5.415 5.279 3.6 9.814 7.793 14.473 12.152 4.798 4.406 9.754 8.897 15.437 12.129 2.995 1.888 5.07 4.032 7.528 6.593 1.451 1.435 2.906 2.865 4.363 4.293 1.65 1.632 3.299 3.263 4.949 4.895 0.817 0.8 1.633 1.6 2.475 2.424 10.465 10.382 19.051 22.146 27.213 34.388 0.639 0.764 1.278 1.527 1.937 2.313 2.27 2.958 4.009 6.093 5.781 9.367 1.95 3.531 4.13 6.91 6.282 10.32 2.97 4.742 5.84 9.419 8.062 14.563 1.386 3.174 2.747 5.875 4.5 8.813 2.396 4.17 3.56 8.262 4.566 12.949 0.872 2.676 0.872 2.676 2.801 5.445 2.541 3.965 3.482 7.672 4.633 12.23 2.155 8.481 2.155 8.481 3.969 11.821 2.227 4.822 2.684 9.821 3.406 15.055 0.991 7.109 2.243 13.918 4.172 20.839 2.249 8.73 2.379 17.001 2.203 25.973-0.01 1.488-0.019 2.976-0.029 4.51-0.245 24.158-0.245 24.158-3.221 32.178-1.628 4.807-2.472 9.264-3 14.312-0.77 6.732-2.767 11.483-6.062 17.312-1.245 3.276-2.062 6.31-2.75 9.75-1.33 4.52-3.243 7.734-5.743 11.676-1.467 2.506-2.504 4.917-3.507 7.637-1.966 5.153-4.794 9.476-8 13.937-0.792 1.132-1.583 2.264-2.399 3.43-4.297 6.104-8.651 11.975-13.601 17.57-2.072 2.577-4.123 5.168-6.168 7.766-3.123 3.809-6.638 6.64-10.582 9.555-2.322 1.733-4.6 3.513-6.876 5.305-4.153 3.239-8.388 6.211-12.937 8.874-2.437 1.5-2.437 1.5-4.937 3.563-2.497 1.935-4.448 3.134-7.5 3.937-0.991-0.659-1.981-1.32-3-2 1.007-3.206 1.905-4.91 4.374-7.25 3.394-3.554 4.787-7.214 6.626-11.75 0.492-1.066 0.984-2.132 1.492-3.23 1.681-4.204 2.603-8.273 3.508-12.707 0.916-4.487 1.801-8.585 3.562-12.816 3.159-9.33 2.595-19.772 2.605-29.547 4e-3 -1.12 7e-3 -2.24 0.011-3.394 5e-3 -2.351 7e-3 -4.701 7e-3 -7.051 2e-3 -3.548 0.02-7.095 0.039-10.643 0.085-32.532 0.085-32.532-5.224-39.612-4.5-0.75-4.5-0.75-9 0-1.75 3.376-1.75 3.376-3 8-3.127 7.295-7.317 13.627-12 20-0.507 0.737-1.014 1.473-1.536 2.231-3.254 4.625-6.5 8.012-11.464 10.769-4-2-4-2-5.75-6.25-3.527-13.586-1.694-31.472 1.272-45.163 3.803-20.618 1.36-45.364-6.866-64.501-1.656-4.086-1.656-4.086-2.692-8.296-0.9-3.534-1.908-5.786-3.902-8.79-2.657-4.197-4.332-8.335-6.062-13-1.637-2.685-3.304-5.352-5-8-0.619-1.278-1.238-2.557-1.876-3.874-4.287-8.322-9.843-15.113-16.187-21.938-0.59-0.634-1.179-1.269-1.787-1.922-3.516-3.715-7.207-7.017-11.15-10.266-1.246-1.299-2.459-2.629-3.626-4-0.596-0.681-1.193-1.363-1.808-2.066-1.567-1.934-1.567-1.934-3.254-4.871-3.965-3.536-9.179-2.974-14.312-3.063 0.144 0.774 0.144 0.774 0.874 4.688 0.163 0.87 0.325 1.74 0.493 2.637 0.633 2.675 0.633 2.675 1.653 4.92 1.981 5.574 1.306 11.716 1.292 17.568 8e-3 0.671 8e-3 0.671 0.049 4.064 3e-3 7.033-0.219 12.688-3.361 19.123-0.593 1.225-1.186 2.45-1.797 3.711-9.947 18.661-23.362 32.805-38.455 47.417-2.949 2.89-4.88 5.135-6.748 8.872-1.619 1.714-3.297 3.371-5 5-8.549 8.183-15.395 16.569-21 27-1.324 1.675-2.656 3.343-4 5-1.017 1.992-2.017 3.992-3 6-0.66 0.908-1.32 1.816-2 2.75-2.157 3.504-3.115 6.628-4.094 10.59-0.906 2.66-0.906 2.66-2.906 6.012-2.104 3.837-2.831 6.784-3.5 11.086-1.204 7.124-2.805 14.051-4.633 21.039-4.103 16.669-3.807 36.961 3.133 52.754 1.236 3.424 1.813 6.81 2.437 10.395 1.17 6.363 2.88 10.128 6.563 15.374 0.433 1.259 0.866 2.517 1.312 3.813 2.633 6.534 6.815 12.382 11.863 17.313 2.326 2.39 2.957 4.695 3.825 7.874-3.179 1.029-4.559 1.211-7.626-0.25-0.556-0.288-0.556-0.288-3.374-1.75-1.806-0.486-3.619-0.942-5.438-1.374-5.092-1.31-8.306-3.509-12.562-6.626-2.805-1.113-5.641-2.067-8.5-3.031-3.004-1.164-5.017-2.942-7.5-4.969-0.733-0.237-0.733-0.237-4.438-1.437-4.76-1.63-6.868-3.237-10.562-6.563-1.819-1.395-3.654-2.768-5.5-4.124-0.898-0.663-1.795-1.326-2.719-2.008-2.781-1.867-2.781-1.867-5.602-3.106-4.593-2.544-7.906-6.087-11.555-9.824-0.752-0.764-1.505-1.527-2.281-2.314-6.801-6.964-13.204-13.723-17.343-22.624-0.614-0.724-1.228-1.448-1.86-2.195-8.208-10.754-11.996-25.952-15.332-38.941-0.684-2.423-1.491-4.811-2.324-7.188-6.3-19.846-3.778-43.053-3.484-63.676 0.014-1.116 0.028-2.233 0.042-3.383 0.267-16.015 3.178-31.297 7.317-46.73 0.77-3.469 1.133-6.917 1.515-10.449 0.718-5.968 2.24-10.415 4.958-15.73 1.706-3.955 2.201-7.922 2.71-12.176 0.458-2.532 0.458-2.532 2.458-5.532 1.319 0.33 2.639 0.661 4 1 1.22 3.358 2.15 6.543 3 10 2.191 8.899 4.395 17.038 9 25 0.498 0.877 0.997 1.754 1.511 2.657 2.564 4.391 5.228 8.431 8.489 12.343 0.295 0.462 0.295 0.462 1.789 2.797 6.294 9.12 15.069 16.109 24.211 22.203 4 0.438 4 0.438 8 0 5.787-5.98 5.214-16.322 5.167-24.082-0.167-2.918-0.167-2.918-1.167-6.918-0.312-3.428-0.586-6.851-0.833-10.285-0.16-2.078-0.32-4.157-0.482-6.236-0.251-3.262-0.497-6.524-0.73-9.788-0.227-3.16-0.475-6.318-0.725-9.476-0.064-0.958-0.127-1.917-0.193-2.905-0.5-6.05-1.83-11.186-4.096-16.821-3.199-8.452-3.438-17.86-4.157-26.789-0.355-4.183-0.863-8.033-1.827-12.137-1.133-5.397-1.299-10.441-1.27-15.937 3e-3 -1.049 5e-3 -2.098 8e-3 -3.178 0.109-8.225 1.039-16.006 2.519-24.104 0.747-4.132 1.26-8.234 1.723-12.406 0.802-6.249 2.447-11.216 5.063-16.938 1.541-3.497 2.319-6.591 2.812-10.374 0.667-3.955 1.16-5.587 3.562-8.938 2.658-3.734 3.483-6.249 4.626-10.625 1.529-5.816 3.584-10.064 7-15.063 0.877-1.696 1.73-3.405 2.562-5.124 1.881-3.856 4.038-7.315 6.438-10.876 0.577-1.216 1.155-2.433 1.75-3.687 2.359-4.523 5.118-8.362 8.164-12.437 2.053-2.831 3.926-5.72 5.773-8.688 2.508-4.013 5.221-7.595 8.313-11.188 0.592-0.921 1.185-1.843 1.796-2.792 3.1-4.512 6.863-8.266 10.645-12.208 2.476-2.903 3.9-5.593 5.559-9 2.275-2.065 4.612-4.065 7-6 2.501-2.385 4.734-4.63 6.75-7.437 2.553-2.909 5.438-4.695 8.687-6.758 2.948-2.076 5.493-4.403 8.125-6.867 4.271-3.985 8.412-6.992 13.438-9.938 0.845-0.701 1.691-1.402 2.562-2.124 2.438-1.876 2.438-1.876 5.875-3.313 3.563-1.563 3.563-1.563 6.687-4.313 2.876-2.25 2.876-2.25 5.688-2.312z" fill="#C8964B"/>
<path transform="translate(984.95 351.73)" d="m0 0c1.177-5e-3 2.354-9e-3 3.566-0.014 3.929-0.012 7.858-0.011 11.787-9e-3 2.822-6e-3 5.645-0.013 8.467-0.02 7.655-0.018 15.309-0.023 22.963-0.024 6.388-2e-3 12.775-9e-3 19.163-0.016 14.201-0.016 28.402-0.022 42.603-0.02h2.579 2.582c13.832 1e-3 27.664-0.018 41.496-0.046 14.207-0.029 28.413-0.043 42.62-0.041 7.975 0 15.949-6e-3 23.924-0.027 7.491-0.019 14.983-0.019 22.474-5e-3 2.754 3e-3 5.508-2e-3 8.263-0.014 3.749-0.016 7.497-7e-3 11.246 9e-3 1.099-0.01 2.198-0.021 3.33-0.031 7.387 0.068 7.387 0.068 10.233 2.244 3.081 4.01 2.878 8.099 2.884 13.005 4e-3 1.15 8e-3 2.299 0.012 3.483-1e-3 1.259-2e-3 2.517-3e-3 3.813 2e-3 0.67 2e-3 0.67 9e-3 4.061 9e-3 4.506 0.011 9.011 0.012 13.517l0.015 9.672c0.014 8.769 0.02 17.537 0.024 26.305 3e-3 5.474 7e-3 10.947 0.012 16.421 0.012 15.151 0.022 30.302 0.026 45.454v2.937c0 0.972 1e-3 1.944 1e-3 2.945 0 1.969 1e-3 3.939 1e-3 5.908 0 0.976 1e-3 1.953 1e-3 2.96 4e-3 15.839 0.021 31.678 0.045 47.518 0.023 16.257 0.036 32.515 0.037 48.773 1e-3 9.129 7e-3 18.259 0.025 27.389 0.017 8.582 0.018 17.165 0.01 25.747-1e-3 3.155 3e-3 6.31 0.013 9.466 0.013 4.296 7e-3 8.591-4e-3 12.888 5e-3 0.629 5e-3 0.629 0.025 3.813-7e-3 1.149-0.013 2.298-0.02 3.483 1e-3 0.991 1e-3 1.983 2e-3 3.005-0.442 3.216-1.476 5.106-3.374 7.718-3.345 1.673-7.113 1.166-10.792 1.177-0.911 7e-3 -1.822 0.014-2.76 0.02-3.022 0.02-6.043 0.032-9.065 0.042-0.515 2e-3 -0.515 2e-3 -3.122 0.012-5.451 0.021-10.902 0.035-16.353 0.045-5.639 0.011-11.277 0.045-16.915 0.085-4.329 0.026-8.657 0.034-12.986 0.038-2.079 5e-3 -4.158 0.016-6.237 0.035-2.906 0.024-5.812 0.023-8.719 0.016-0.43 7e-3 -0.43 7e-3 -2.61 0.039-3.718-0.032-5.936-0.124-8.944-2.413-2.797-3.916-2.637-6.54-2.671-11.359-0.013-1.535-0.027-3.07-0.04-4.652-6e-3 -0.823-0.011-1.647-0.016-2.495-0.016-2.572-0.039-5.143-0.065-7.714-0.071-7.312-0.131-14.624-0.182-21.937-0.032-4.469-0.073-8.939-0.12-13.409-0.016-1.706-0.028-3.413-0.037-5.119-0.012-2.382-0.037-4.765-0.063-7.147-5e-3 -0.679-5e-3 -0.679-0.031-4.113-0.272-3.151-0.272-3.151-2.272-5.151-2.39-0.26-2.39-0.26-5.453-0.274-0.579-5e-3 -0.579-5e-3 -3.509-0.03-1.277-1e-3 -2.554-1e-3 -3.87-2e-3 -1.339-8e-3 -2.679-0.017-4.06-0.025-4.45-0.024-8.9-0.033-13.35-0.04-3.082-9e-3 -6.163-0.018-9.245-0.027-6.468-0.017-12.936-0.024-19.404-0.027-8.302-5e-3 -16.603-0.043-24.905-0.089-6.367-0.03-12.734-0.037-19.101-0.038-3.062-4e-3 -6.123-0.017-9.184-0.037-4.277-0.027-8.552-0.022-12.829-0.01-1.273-0.015-2.545-0.03-3.857-0.045-1.164 0.01-2.327 0.02-3.526 0.03-0.506-1e-3 -0.506-1e-3 -3.065-6e-3 -3.653 0.858-4.691 2.496-6.642 5.62-0.492 3.505-0.492 3.505-0.482 7.589-4e-3 0.766-4e-3 0.766-0.021 4.641 6e-3 0.824 6e-3 0.824 0.034 4.997-5e-3 1.712-0.012 3.424-0.021 5.136-0.025 5.421-0.02 10.842-0.01 16.262 0.012 6.29 0.01 12.578-0.024 18.867-7e-3 2.52 0.01 5.038 0.027 7.557-3e-3 0.763-3e-3 0.763-0.021 4.622 4e-3 1.346 7e-3 2.692 0.01 4.079-0.492 3.25-0.492 3.25-4.492 6.25-3.947 0.375-3.947 0.375-8.836 0.373-0.891 3e-3 -1.783 7e-3 -2.701 0.011-2.946 8e-3 -5.892-6e-3 -8.838-0.02-2.047-1e-3 -4.095 0-6.142 1e-3 -4.291 0-8.581-0.01-12.872-0.028-5.501-0.023-11.002-0.024-16.504-0.017-4.227 3e-3 -8.455-3e-3 -12.683-0.013-2.028-4e-3 -4.057-5e-3 -6.085-3e-3 -2.835 0-5.669-0.013-8.503-0.029-1.613-5e-3 -3.227-9e-3 -4.889-0.014-3.947-0.261-3.947-0.261-7.947-2.261-1.873-3.745-1.162-8.358-1.172-12.492-6e-3 -1.105-0.012-2.21-0.019-3.348-0.02-3.727-0.033-7.454-0.046-11.181-0.013-2.662-0.026-5.324-0.04-7.986-0.035-7.253-0.065-14.505-0.092-21.758-0.018-4.53-0.037-9.06-0.056-13.59-0.068-15.8-0.13-31.601-0.188-47.402-0.053-14.73-0.118-29.46-0.189-44.191-0.06-12.64-0.112-25.28-0.158-37.921-0.027-7.552-0.058-15.104-0.097-22.655-0.036-7.109-0.062-14.218-0.081-21.327-9e-3 -2.606-0.021-5.212-0.036-7.818-0.022-3.565-0.03-7.13-0.035-10.695-9e-3 -1.025-0.018-2.05-0.028-3.106 0.01-8.649 0.738-17.358 4.612-25.217 0.222-0.455 0.222-0.455 1.344-2.758 0.211-0.421 0.211-0.421 1.281-2.555 0.619-1.34 1.237-2.681 1.875-4.062 8.46-15.676 20.612-26.516 36.125-34.938 0.99-0.721 1.98-1.443 3-2.187 7.289-4.404 15.695-4.104 23.951-4.08zm31.049 103.27c-1.278 2.557-1.155 4.411-1.193 7.273-0.016 1.102-0.032 2.203-0.049 3.338-0.044 5.046-0.085 10.091-0.108 15.136-0.017 2.662-0.044 5.324-0.082 7.985-0.055 3.834-0.077 7.668-0.091 11.503-0.023 1.187-0.046 2.375-0.069 3.599 3e-3 1.114 6e-3 2.228 8e-3 3.376-8e-3 0.976-0.016 1.951-0.024 2.956 0.931 4.342 2.144 6 5.608 8.834 4.354 0.896 8.649 0.799 13.08 0.745 1.331 7e-3 2.661 0.015 4.032 0.022 4.402 0.016 8.803-0.011 13.204-0.04 3.055-1e-3 6.11 0 9.165 3e-3 6.403 0 12.806-0.021 19.209-0.057 8.218-0.046 16.435-0.047 24.653-0.033 6.308 6e-3 12.615-7e-3 18.923-0.026 3.031-8e-3 6.061-0.01 9.092-7e-3 4.231 0 8.461-0.025 12.691-0.057 1.259 5e-3 2.518 0.01 3.815 0.015 1.151-0.014 2.302-0.029 3.488-0.043 0.5-2e-3 0.5-2e-3 3.03-0.013 3.351-0.651 4.545-1.844 6.618-4.509 0.501-3.035 0.501-3.035 0.502-6.632 9e-3 -1.349 0.018-2.697 0.028-4.086-0.011-1.454-0.022-2.908-0.034-4.407 2e-3 -1.494 3e-3 -2.988 4e-3 -4.527-1e-3 -3.161-0.013-6.322-0.033-9.482-0.029-4.846-0.021-9.691-8e-3 -14.537-6e-3 -3.068-0.015-6.136-0.025-9.204 3e-3 -1.454 5e-3 -2.908 8e-3 -4.406-6e-3 -0.674-6e-3 -0.674-0.038-4.086-3e-3 -0.593-3e-3 -0.593-0.016-3.597-0.388-3.036-0.388-3.036-3.388-7.036-2.377-0.511-2.377-0.511-5.242-0.528-0.543-8e-3 -0.543-8e-3 -3.292-0.047-1.193 3e-3 -2.385 7e-3 -3.613 0.01-1.256-0.012-2.511-0.023-3.805-0.036-4.166-0.033-8.331-0.035-12.497-0.035-2.891-0.011-5.783-0.022-8.674-0.033-6.069-0.02-12.137-0.023-18.206-0.017-7.774 6e-3 -15.546-0.038-23.32-0.096-5.975-0.037-11.95-0.042-17.925-0.037-2.866-3e-3 -5.731-0.017-8.596-0.043-4.013-0.032-8.023-0.019-12.036 4e-3 -0.591-9e-3 -0.591-9e-3 -3.582-0.057-10.366 0.145-15.209 4.511-21.212 12.915z" fill="#C8964B"/>
<path transform="translate(537.51 351.87)" d="m0 0c1.179-3e-3 2.358-6e-3 3.572-0.01 1.307 2e-3 2.614 3e-3 3.96 5e-3 1.379-2e-3 2.758-5e-3 4.179-7e-3 4.655-6e-3 9.311-5e-3 13.966-5e-3 3.324-3e-3 6.648-6e-3 9.972-0.01 8.112-8e-3 16.223-0.011 24.335-0.011 6.591-1e-3 13.183-3e-3 19.774-6e-3 18.672-9e-3 37.344-0.014 56.016-0.013h3.053 3.056c16.351 1e-3 32.702-9e-3 49.053-0.023 16.774-0.014 33.548-0.021 50.322-0.02 9.424 0 18.847-3e-3 28.27-0.013 8.023-9e-3 16.046-0.012 24.069-5e-3 4.095 3e-3 8.191 2e-3 12.287-5e-3 4.434-8e-3 8.869-3e-3 13.303 4e-3 0.651-2e-3 0.651-2e-3 3.946-0.015 1.184 4e-3 2.368 9e-3 3.588 0.014 1.024 0 2.048-1e-3 3.104-1e-3 2.661 0.25 2.661 0.25 6.661 2.25 1.56 3.118 1.136 6.129 1.146 9.599 3e-3 0.804 3e-3 0.804 0.019 4.874 2e-3 1.767 3e-3 3.534 3e-3 5.3 4e-3 1.804 7e-3 3.607 0.01 5.411 6e-3 3.784 8e-3 7.569 8e-3 11.354 0 4.851 0.013 9.702 0.03 14.553 0.012 3.727 0.014 7.454 0.013 11.18 1e-3 1.789 6e-3 3.577 0.013 5.366 0.01 2.502 6e-3 5.003 1e-3 7.505 2e-3 1.424 3e-3 2.848 5e-3 4.315-0.248 3.543-0.248 3.543-2.248 7.543-4.646 2.323-8.289 2.277-13.344 2.251-0.957 3e-3 -1.914 6e-3 -2.9 9e-3 -3.214 8e-3 -6.428 1e-3 -9.643-5e-3 -2.301 3e-3 -4.602 6e-3 -6.903 0.011-4.959 8e-3 -9.918 0.01-14.877 8e-3 -7.835-3e-3 -15.67 0.012-23.506 0.029-22.281 0.047-44.563 0.071-66.844 0.077-12.303 4e-3 -24.606 0.022-36.909 0.056-7.795 0.02-15.59 0.022-23.385 0.011-4.842-2e-3 -9.683 0.012-14.525 0.03-2.251 6e-3 -4.502 4e-3 -6.754-5e-3 -3.064-0.011-6.128 3e-3 -9.192 0.022-0.899-9e-3 -1.798-0.018-2.724-0.028-2.481 0.031-2.481 0.031-6.494 0.534-4.427 5.903-3.475 11.374-3.437 18.562-0.02 1.34-0.04 2.68-0.061 4.061 1e-3 1.28 2e-3 2.561 2e-3 3.881-2e-3 1.173-3e-3 2.347-5e-3 3.556 0.501 2.94 0.501 2.94 4.501 5.94 3.214 0.358 3.214 0.358 7.098 0.333 1.472-1e-3 2.945-3e-3 4.461-5e-3 0.808-8e-3 0.808-8e-3 4.896-0.051 1.719-8e-3 3.437-0.014 5.155-0.018 3.7-0.013 7.4-0.035 11.1-0.064 5.849-0.046 11.698-0.067 17.546-0.085 14.527-0.047 29.053-0.124 43.58-0.21 11.29-0.067 22.58-0.125 33.87-0.155 5.816-0.016 11.632-0.052 17.448-0.101 3.616-0.027 7.231-0.037 10.847-0.042 2.48-9e-3 4.96-0.037 7.44-0.067 1.473 1e-3 2.945 3e-3 4.462 4e-3 0.64-4e-3 0.64-4e-3 3.883-0.023 3.78 0.569 4.936 1.477 7.214 4.484 1.297 4.019 1.139 8.115 1.162 12.313 9e-3 1.471 0.019 2.943 0.029 4.459 2e-3 0.791 2e-3 0.791 0.013 4.798 5e-3 1.628 0.011 3.257 0.017 4.934 0.01 3.442 0.016 6.883 0.02 10.324 5e-3 4.413 0.029 8.826 0.058 13.239 0.023 4.209 0.025 8.419 0.03 12.628 0.012 1.587 0.024 3.175 0.037 4.811-3e-3 1.465-6e-3 2.93-9e-3 4.439 3e-3 1.293 7e-3 2.586 0.011 3.918-0.368 3.137-0.368 3.137-3.368 6.137-2.976 1.488-5.669 1.138-8.991 1.151-0.749 4e-3 -0.749 4e-3 -4.542 0.025-1.673 5e-3 -3.345 9e-3 -5.018 0.013-1.752 8e-3 -3.504 0.016-5.257 0.025-3.779 0.018-7.558 0.033-11.337 0.046-5.97 0.02-11.939 0.048-17.909 0.077-13.748 0.065-27.497 0.12-41.245 0.176-12.6 0.05-25.2 0.103-37.8 0.164-5.941 0.029-11.881 0.052-17.822 0.072-3.688 0.013-7.375 0.031-11.063 0.049-1.717 8e-3 -3.434 0.014-5.15 0.019-2.334 6e-3 -4.668 0.018-7.001 0.031-1.309 5e-3 -2.618 0.01-3.967 0.016-2.898 0.136-2.898 0.136-3.898 1.136-1.595 19.129-1.595 19.129 3.313 26.125 2.132 2.512 3.923 4.032 6.687 5.875 3.012 0.197 5.933 0.276 8.945 0.265 0.463 2e-3 0.463 2e-3 2.806 0.013 3.116 0.012 6.232 0.01 9.349 9e-3 2.228 6e-3 4.457 0.013 6.686 0.02 4.806 0.015 9.612 0.024 14.418 0.028 7.597 7e-3 15.193 0.029 22.789 0.053 16.128 0.049 32.255 0.081 48.382 0.112 17.402 0.033 34.804 0.069 52.206 0.124 7.555 0.023 15.109 0.037 22.664 0.043 4.697 6e-3 9.394 0.02 14.092 0.037 2.181 5e-3 4.362 8e-3 6.544 7e-3 2.973-1e-3 5.947 0.01 8.921 0.024 0.866-4e-3 1.733-7e-3 2.626-0.01 4.256 0.033 7.806 0.174 11.572 2.275 1.588 3.175 1.203 6.345 1.269 9.874 8e-3 0.407 8e-3 0.407 0.05 2.464 0.052 2.697 0.096 5.394 0.138 8.091 0.016 0.92 0.031 1.84 0.046 2.788 0.079 4.867 0.152 9.735 0.22 14.602 0.071 5.034 0.166 10.066 0.267 15.099 0.072 3.865 0.127 7.731 0.177 11.597 0.027 1.855 0.061 3.711 0.102 5.566 0.055 2.596 0.086 5.19 0.11 7.785 0.023 1.478 0.047 2.955 0.071 4.477-0.45 3.657-0.45 3.657-2.223 6.102-5.047 3.523-11.107 2.697-16.998 2.688-0.555 1e-3 -0.555 1e-3 -3.365 7e-3 -3.734 7e-3 -7.469 6e-3 -11.204 5e-3 -2.672 3e-3 -5.344 6e-3 -8.017 0.01-7.271 9e-3 -14.542 0.011-21.813 0.012-6.068 1e-3 -12.136 5e-3 -18.205 8e-3 -14.32 8e-3 -28.64 0.011-42.96 0.01-14.77-1e-3 -29.54 0.01-44.31 0.026-12.679 0.013-25.358 0.018-38.036 0.017-7.573 0-15.146 3e-3 -22.719 0.014-7.127 9e-3 -14.254 9e-3 -21.381 2e-3 -2.613-1e-3 -5.225 1e-3 -7.838 8e-3 -3.573 7e-3 -7.147 3e-3 -10.721-5e-3 -1.027 5e-3 -2.054 0.01-3.113 0.015-10.768-0.051-19.622-1.609-28.922-7.137-0.767-0.435-1.534-0.869-2.324-1.317-4.041-2.324-7.733-4.812-11.301-7.808l-3-2c-2.808-1.872-5.392-3.861-8-6-0.804-0.578-1.608-1.155-2.437-1.75-5.848-5.135-8.955-10.647-11.559-17.825-1.004-2.425-1.004-2.425-3.629-6.238-7.047-12.426-4.657-29.625-4.633-43.477-3e-3 -2.665-7e-3 -5.33-0.011-7.996-9e-3 -7.208-6e-3 -14.416 1e-3 -21.624 5e-3 -7.548 0-15.096-3e-3 -22.644-4e-3 -12.663 1e-3 -25.327 0.011-37.991 0.011-14.651 7e-3 -29.301-4e-3 -43.951-9e-3 -12.583-0.01-25.166-5e-3 -37.749 3e-3 -7.514 3e-3 -15.028-3e-3 -22.542-6e-3 -7.054-2e-3 -14.109 0.01-21.164 2e-3 -2.593 1e-3 -5.186-3e-3 -7.779-5e-3 -3.529 1e-3 -7.059 0.011-10.589-4e-3 -1.034-8e-3 -2.067-0.013-3.133 0.025-4.587 0.183-7.379 2.267-11.548 2.629-1.314 4.569-1.127 7.514-1.129z" fill="#C8964B"/>
<path transform="translate(2039.5 351.87)" d="m0 0c1.18-4e-3 2.359-8e-3 3.574-0.012 1.308 1e-3 2.615 2e-3 3.962 3e-3 1.38-3e-3 2.759-6e-3 4.181-9e-3 4.658-9e-3 9.316-0.01 13.973-0.012 3.326-4e-3 6.651-9e-3 9.977-0.015 9.057-0.013 18.115-0.019 27.173-0.024 5.651-3e-3 11.303-7e-3 16.954-0.011 15.636-0.012 31.272-0.023 46.908-0.026 1.001 0 2.002-1e-3 3.034-1e-3h3.041c2.034-1e-3 4.068-1e-3 6.102-2e-3h3.057c16.358-4e-3 32.716-0.022 49.075-0.045 16.779-0.024 33.559-0.036 50.339-0.038 9.427 0 18.854-6e-3 28.281-0.024 8.026-0.016 16.051-0.021 24.077-0.013 4.097 4e-3 8.194 2e-3 12.292-0.011 4.435-0.012 8.87-7e-3 13.305 4e-3 1.305-8e-3 2.61-0.016 3.954-0.024 1.182 6e-3 2.364 0.013 3.582 0.019 1.025 0 2.049-1e-3 3.105-1e-3 2.538 0.373 2.538 0.373 5.538 3.373 1.521 3.042 1.144 5.887 1.161 9.277 9e-3 1.538 0.019 3.077 0.029 4.663 5e-3 1.691 9e-3 3.381 0.013 5.072 5e-3 1.729 0.011 3.458 0.017 5.188 0.011 3.63 0.016 7.261 0.02 10.892 5e-3 4.643 0.029 9.285 0.058 13.927 0.018 3.575 0.024 7.15 0.025 10.725 3e-3 1.711 0.011 3.421 0.024 5.132 0.018 2.4 0.014 4.801 9e-3 7.201 4e-3 1.364 7e-3 2.729 0.011 4.134-0.403 4.16-1.285 8.707-4.367 11.789-3.015 0.104-6.007 0.142-9.022 0.138-0.958 3e-3 -1.917 6e-3 -2.904 9e-3 -3.238 8e-3 -6.475 0.01-9.713 0.011-2.31 5e-3 -4.621 0.01-6.931 0.016-4.989 0.011-9.977 0.019-14.965 0.026-7.882 0.01-15.763 0.031-23.644 0.053-22.416 0.062-44.831 0.116-67.247 0.149-12.37 0.018-24.74 0.047-37.11 0.088-6.552 0.021-13.104 0.036-19.657 0.039-6.161 2e-3 -12.321 0.018-18.482 0.044-2.266 7e-3 -4.532 9e-3 -6.798 6e-3 -3.084-4e-3 -6.168 0.01-9.252 0.029-0.452-2e-3 -0.452-2e-3 -2.742-0.016-6.191 0.066-6.191 0.066-9.533 3.408-1.43 5.718-1.04 11.199-0.875 17.063 5e-3 0.598 5e-3 0.598 0.031 3.627 0.033 1.145 0.067 2.291 0.101 3.471 0.023 1.048 0.045 2.096 0.067 3.176 0.676 2.663 0.676 2.663 2.764 4.309 3.608 1.678 6.197 1.716 10.174 1.695 1.484 0 2.967 0 4.496-1e-3 1.623-0.015 3.246-0.031 4.918-0.047 1.73-5e-3 3.46-0.01 5.189-0.013 3.722-9e-3 7.444-0.028 11.166-0.054 5.882-0.041 11.764-0.058 17.646-0.072 12.483-0.034 24.965-0.092 37.448-0.154 13.482-0.066 26.964-0.127 40.446-0.16 5.851-0.015 11.701-0.044 17.552-0.085 3.634-0.022 7.268-0.032 10.902-0.039 2.496-8e-3 4.992-0.032 7.488-0.056h4.478c1.288-7e-3 2.577-0.013 3.905-0.02 3.104 0.36 3.104 0.36 6.104 3.36 1.526 3.052 1.152 5.924 1.177 9.324 0.012 1.549 0.025 3.097 0.039 4.693 8e-3 1.7 0.015 3.4 0.022 5.101 4e-3 0.853 8e-3 1.707 0.012 2.587 0.021 4.517 0.035 9.034 0.045 13.552 0.011 4.67 0.045 9.339 0.085 14.009 0.026 3.587 0.034 7.175 0.038 10.763 5e-3 1.721 0.017 3.443 0.035 5.164 0.024 2.408 0.021 4.817 0.017 7.225 3e-3 0.685 3e-3 0.685 0.017 4.154-0.487 3.428-0.487 3.428-2.062 5.611-3.339 2.502-5.574 2.32-9.726 2.323-1.518 0.011-3.035 0.022-4.598 0.033-1.682-8e-3 -3.365-0.016-5.047-0.024-1.771 5e-3 -3.542 0.012-5.312 0.021-3.813 0.016-7.626 0.018-11.439 0.011-6.025-0.01-12.049 7e-3 -18.074 0.028-9.525 0.03-19.049 0.042-28.573 0.046-17.069 6e-3 -34.137 0.035-51.205 0.085-5.994 0.016-11.988 0.022-17.982 0.018-3.721 0-7.443 7e-3 -11.164 0.017-1.731 3e-3 -3.462 2e-3 -5.193-3e-3 -2.355-5e-3 -4.71 2e-3 -7.065 0.011-1.321 0-2.641 1e-3 -4.001 1e-3 -3.046 0.25-3.046 0.25-5.046 2.25-1.123 9.358 0.193 18.382 4 27 4.119 4.119 6.701 4.116 12.367 4.142 0.44-1e-3 0.44-1e-3 2.667-4e-3 0.935 3e-3 1.871 6e-3 2.835 9e-3 3.148 8e-3 6.297 0.01 9.445 0.011 2.252 5e-3 4.503 0.01 6.755 0.016 4.855 0.011 9.711 0.019 14.566 0.026 7.671 0.01 15.343 0.031 23.014 0.053 21.817 0.062 43.633 0.116 65.45 0.149 12.044 0.018 24.088 0.047 36.132 0.088 6.378 0.021 12.755 0.036 19.133 0.039 5.995 2e-3 11.99 0.018 17.985 0.044 2.205 7e-3 4.41 9e-3 6.614 6e-3 3.001-4e-3 6.002 0.01 9.002 0.029 0.881-5e-3 1.761-0.011 2.668-0.016 6.024 0.066 6.024 0.066 9.367 3.408 1.255 3.766 1.142 6.935 1.161 10.913 5e-3 0.805 0.01 1.61 0.015 2.439 0.014 2.664 0.021 5.328 0.027 7.992 5e-3 1.85 0.011 3.699 0.017 5.548 0.011 3.877 0.016 7.754 0.02 11.631 5e-3 4.974 0.029 9.947 0.058 14.921 0.018 3.819 0.024 7.638 0.025 11.458 3e-3 1.834 0.011 3.668 0.024 5.502 0.017 2.561 0.016 5.123 9e-3 7.684 4e-3 1.459 7e-3 2.918 0.011 4.421-0.367 3.491-0.367 3.491-3.367 6.491-3.811 1.906-8.571 1.148-12.779 1.148-1.135 3e-3 -2.271 7e-3 -3.441 0.011-3.83 0.011-7.661 0.015-11.492 0.018-2.736 7e-3 -5.472 0.013-8.208 0.02-7.453 0.018-14.905 0.028-22.358 0.037-4.653 5e-3 -9.306 0.011-13.959 0.017-13.715 0.018-27.429 0.032-41.144 0.04-2.511 2e-3 -5.022 3e-3 -7.532 5e-3 -0.832 0-1.663 1e-3 -2.519 1e-3 -13.461 8e-3 -26.922 0.034-40.383 0.066-13.818 0.033-27.636 0.051-41.454 0.054-7.759 3e-3 -15.518 0.012-23.277 0.037-7.3 0.023-14.6 0.027-21.9 0.017-2.68 0-5.36 6e-3 -8.04 0.02-3.658 0.017-7.316 0.01-10.974-3e-3 -1.061 0.011-2.122 0.022-3.215 0.033-6.457-0.056-10.638-1.165-16.325-4.521-0.578-0.247-0.578-0.247-3.5-1.5-9.654-4.137-18.227-8.872-25.5-16.5-2.518-2.257-5.054-4.492-7.598-6.718-4.457-4.232-7.032-8.292-9.395-13.985-1.007-2.297-1.007-2.297-3.132-5.859-2.218-5.248-2.719-9.919-3.276-15.56-0.412-3.352-0.888-6.531-1.557-9.826-3.062-15.166-3.636-29.799-3.48-45.239 6e-3 -1.205 0.011-2.411 0.017-3.652 0.071-15.538 0.458-30.904 2.667-46.309 1.886-13.422 1.918-27.011 1.879-40.539-2e-3 -0.831-3e-3 -1.663-4e-3 -2.519-0.03-17.933-0.289-35.863-0.559-53.794-0.019-1.373-0.039-2.746-0.059-4.161-0.058-3.946-0.121-7.893-0.187-11.839-0.017-1.179-0.033-2.359-0.051-3.574-0.111-6.21-0.543-12.252-1.265-18.426-0.23-5.957-0.231-11.913-0.25-17.875-0.021-1.603-0.042-3.207-0.063-4.859-5e-3 -1.529-0.01-3.058-0.016-4.633-9e-3 -1.393-0.018-2.786-0.028-4.222 0.357-3.411 0.357-3.411 3.357-6.411 2.628-1.314 4.571-1.127 7.516-1.131z" fill="#C8964B"/>
<path transform="translate(1368.6 351.86)" d="m0 0c0.574-1e-3 0.574-1e-3 3.479-9e-3 3.838-9e-3 7.675-0.01 11.513-0.012 2.755-4e-3 5.51-9e-3 8.265-0.015 7.474-0.013 14.949-0.019 22.424-0.024 4.667-3e-3 9.334-7e-3 14-0.011 14.594-0.014 29.189-0.024 43.783-0.027 1.677-1e-3 3.354-1e-3 5.032-2e-3h2.521c13.506-4e-3 27.012-0.022 40.518-0.045 13.869-0.024 27.738-0.036 41.607-0.037 7.786-2e-3 15.573-8e-3 23.359-0.025 7.314-0.017 14.628-0.019 21.942-0.01 2.69 1e-3 5.38-4e-3 8.07-0.014 3.66-0.012 7.319-7e-3 10.978 4e-3 1.076-8e-3 2.151-0.016 3.259-0.024 7.336 0.049 7.336 0.049 10.678 3.391 1.211 4.011 1.151 8.023 1.193 12.19 8e-3 0.722 8e-3 0.722 0.049 4.379 0.044 6.574 0.086 13.148 0.108 19.723 0.014 3.473 0.042 6.945 0.082 10.417 0.059 5.003 0.077 10.006 0.092 15.01 0.022 1.555 0.045 3.111 0.068 4.713-2e-3 1.445-5e-3 2.89-8e-3 4.379 8e-3 1.271 0.016 2.541 0.024 3.85-0.799 4.391-2.092 5.623-5.608 8.339-3.997 0.612-3.997 0.612-8.823 0.593-0.889 3e-3 -1.778 6e-3 -2.694 0.01-2.979 5e-3 -5.956-0.025-8.935-0.054-2.136-3e-3 -4.271-4e-3 -6.407-3e-3 -4.599-1e-3 -9.198-0.018-13.798-0.046-7.274-0.043-14.547-0.046-21.821-0.043-18.069 2e-3 -36.138-0.044-54.207-0.109-14.039-0.05-28.077-0.085-42.116-0.072-7.23 5e-3 -14.458-0.022-21.688-0.073-4.501-0.025-9.001-0.021-13.502-9e-3 -2.085-1e-3 -4.17-0.013-6.255-0.038-17.725-0.204-17.725-0.204-22.939 4.207-17.412 22.5-12.964 75.506-9.815 102.64 0.137 3.008 0.215 6.014 0.291 9.023 0.932 36.314 0.932 36.314 9.897 45.102 12.556 9.469 30.202 8.179 45.215 8.141 1.733 1e-3 3.467 3e-3 5.201 6e-3 3.61 3e-3 7.219-1e-3 10.829-0.011 4.579-0.011 9.159-5e-3 13.738 7e-3 3.574 8e-3 7.147 5e-3 10.721 0 2.494-2e-3 4.989 4e-3 7.483 0.01 28.871-0.117 28.871-0.117 37.625-6.278 5.02-5.494 8.289-10.651 8.188-18.187-7e-3 -1.066-0.013-2.132-0.02-3.231-0.168-2.582-0.168-2.582-1.168-3.582-2.049-0.108-4.101-0.146-6.153-0.157-1.318-0.011-2.637-0.021-3.996-0.031-1.438-8e-3 -2.877-0.015-4.359-0.022-3.018-0.029-6.036-0.057-9.054-0.086-4.78-0.042-9.559-0.079-14.339-0.105-4.598-0.028-9.196-0.073-13.794-0.122-0.713-2e-3 -0.713-2e-3 -4.322-0.01-1.338-0.016-2.675-0.033-4.054-0.05-1.171-8e-3 -2.343-0.016-3.55-0.025-4.002-0.464-6.878-1.393-10.379-3.392-0.934-2.265-0.934-2.265-1-5-0.031-1.041-0.063-2.082-0.095-3.155 0.013-1.185 0.027-2.37 0.042-3.591 0.013-1.348 0.027-2.696 0.041-4.085 0.021-1.449 0.042-2.898 0.063-4.391 0.019-1.493 0.038-2.986 0.057-4.524 0.042-3.154 0.087-6.309 0.134-9.464 0.071-4.837 0.125-9.673 0.178-14.51 0.043-3.063 0.086-6.127 0.131-9.19 0.015-1.451 0.029-2.902 0.045-4.397 0.023-1.345 0.046-2.69 0.07-4.076 0.016-1.184 0.032-2.368 0.049-3.588 0.285-3.029 0.285-3.029 2.285-7.029 4.147-2.073 5.967-2.263 10.491-2.305 1.337-0.017 2.675-0.034 4.053-0.051 1.466-9e-3 2.932-0.017 4.443-0.026 1.545-0.016 3.09-0.033 4.681-0.05 4.238-0.042 8.475-0.076 12.713-0.104 2.647-0.018 5.293-0.039 7.94-0.061 9.231-0.077 18.462-0.144 27.693-0.2 8.61-0.054 17.219-0.129 25.828-0.215 7.389-0.073 14.779-0.131 22.168-0.176 4.415-0.028 8.829-0.061 13.243-0.11 4.921-0.055 9.841-0.077 14.761-0.096 0.733-0.01 0.733-0.01 4.443-0.062h4.053c1.164-9e-3 2.327-0.017 3.526-0.026 3.639 0.592 4.781 1.555 6.964 4.482 0.874 3.496 1.13 6.033 1.141 9.584 5e-3 1.137 0.011 2.274 0.017 3.445 1e-3 1.243 2e-3 2.486 3e-3 3.767 5e-3 1.313 0.01 2.625 0.015 3.978 0.015 4.35 0.022 8.7 0.027 13.051 6e-3 3.022 0.012 6.043 0.018 9.065 0.01 6.341 0.016 12.682 0.02 19.023 5e-3 8.12 0.029 16.239 0.057 24.359 0.019 6.244 0.024 12.489 0.026 18.734 3e-3 2.993 0.011 5.986 0.024 8.978 0.017 4.192 0.015 8.383 9e-3 12.574 9e-3 1.233 0.018 2.466 0.028 3.736-0.081 16.72-7.925 28.992-19.385 40.706-0.927 0.966-1.853 1.931-2.808 2.926-4.504 4.613-8.733 8.608-14.192 12.074-1.175 0.825-2.351 1.65-3.562 2.5-11.169 6.782-25.88 8.897-38.669 5.994-3.773-0.673-7.422-0.624-11.253-0.626-0.408-1e-3 -0.408-1e-3 -2.47-3e-3 -1.721-1e-3 -3.443 1e-3 -5.164 5e-3 -2.609 5e-3 -5.218 0-7.827-6e-3 -1.68 0-3.359 2e-3 -5.039 4e-3 -1.513 1e-3 -3.026 2e-3 -4.585 3e-3 -4.527 0.132-8.935 0.596-13.431 1.129-1.91 0.119-3.821 0.216-5.734 0.282-0.986 0.037-1.972 0.074-2.988 0.113-2.034 0.071-4.068 0.141-6.102 0.211-0.981 0.037-1.962 0.075-2.973 0.113-0.88 0.03-1.76 0.061-2.667 0.092-2.536 0.189-2.536 0.189-4.798 0.674-7.63 1.437-15.67 1.247-23.425 1.578-1.03 0.044-2.059 0.088-3.12 0.134-29.934 1.251-60.078 1.848-90.005 0.116-0.541-0.027-0.541-0.027-3.28-0.161-6.903-0.51-12.667-2.305-19.047-4.976-2.861-1.176-2.861-1.176-7.423-2.488-17.566-6.68-30.621-21.36-38.801-37.813-3.429-8.118-4.21-15.686-4.75-24.406-0.084-1.322-0.169-2.643-0.255-4.005-0.769-13.045-0.901-26.064-0.838-39.129 0.019-3.807 0.021-7.613 0.021-11.42 0.02-13.83 0.267-27.639 0.681-41.461 0.429-14.507 0.592-29.001 0.634-43.514 0.011-3.483 0.025-6.966 0.04-10.45 0.01-2.34 0.02-4.68 0.029-7.021 5e-3 -1.165 0.01-2.329 0.015-3.529 0.024-5.995 0.038-11.99 0.037-17.984-1e-3 -5.919 0.022-11.837 0.062-17.755 0.01-2.225 0.012-4.449 4e-3 -6.674-0.01-3.089 0.012-6.175 0.04-9.264-0.01-0.895-0.021-1.791-0.031-2.714 0.111-6.843 2.261-11.68 5.674-17.549 0.475-0.866 0.949-1.732 1.438-2.625 9.377-14.253 22.119-28.653 37.562-36.375 6.521-1.139 12.976-1.145 19.572-1.14z" fill="#C8964B"/>
<path transform="translate(1695.1 351.5)" d="m0 0c0.921-5e-3 1.841-0.011 2.79-0.016 3.044-0.013 6.086 4e-3 9.13 0.022 2.115-1e-3 4.229-2e-3 6.344-5e-3 4.432-1e-3 8.863 0.011 13.295 0.034 5.683 0.029 11.366 0.026 17.049 0.013 4.367-7e-3 8.733 1e-3 13.1 0.013 2.095 5e-3 4.191 5e-3 6.286 1e-3 2.928-3e-3 5.856 0.014 8.783 0.036 0.434-3e-3 0.434-3e-3 2.63-0.014 4.921 0.061 6.378 0.34 10.482 3.418 1.29 5.378 1.109 10.801 1.08 16.309-2e-3 0.459-2e-3 0.459-0.011 2.779-0.012 3.062-0.032 6.124-0.051 9.186-0.01 2.2-0.02 4.4-0.029 6.6-0.02 4.733-0.043 9.466-0.067 14.199-0.037 7.489-0.062 14.978-0.083 22.467-4e-3 1.265-7e-3 2.53-0.011 3.833-7e-3 2.587-0.015 5.173-0.022 7.759-0.05 17.431-0.108 34.862-0.204 52.292-0.065 11.764-0.108 23.529-0.126 35.293-0.011 6.222-0.032 12.443-0.08 18.665-0.045 5.854-0.061 11.707-0.057 17.561-3e-3 2.144-0.016 4.287-0.041 6.43-0.232 21.054-0.232 21.054 6.702 29.627 3.806 3.806 8.627 3.13 13.698 3.144 1.606 7e-3 3.211 0.014 4.865 0.021 1.781 3e-3 3.563 6e-3 5.345 8e-3 1.874 7e-3 3.748 0.013 5.622 0.021 4.038 0.014 8.075 0.026 12.112 0.036 6.383 0.015 12.765 0.039 19.147 0.064 18.15 0.072 36.3 0.131 54.449 0.183 10.023 0.028 20.046 0.063 30.069 0.106 6.346 0.027 12.692 0.045 19.038 0.056 3.946 9e-3 7.893 0.027 11.84 0.046 1.831 8e-3 3.662 0.012 5.494 0.012 2.498 1e-3 4.997 0.016 7.495 0.031 0.7 2e-3 0.7 2e-3 4.239 0.013 3.365 0.243 5.627 0.677 8.587 2.259 1.555 3.11 1.144 6.106 1.161 9.567 9e-3 1.602 0.019 3.204 0.029 4.855 5e-3 1.76 9e-3 3.521 0.013 5.281 6e-3 1.799 0.011 3.597 0.017 5.396 0.011 3.776 0.016 7.553 0.02 11.329 5e-3 4.833 0.029 9.666 0.058 14.499 0.019 3.718 0.024 7.436 0.025 11.155 3e-3 1.781 0.011 3.562 0.024 5.344 0.018 2.496 0.014 4.992 9e-3 7.489 4e-3 1.419 7e-3 2.839 0.011 4.302-0.393 4.047-1.077 6.431-3.367 9.783-4.588 2.618-9.486 2.282-14.614 2.26-0.487 2e-3 -0.487 2e-3 -2.952 0.012-3.266 0.01-6.532 6e-3 -9.799 2e-3 -2.34 5e-3 -4.681 0.01-7.022 0.016-6.362 0.013-12.723 0.014-19.085 0.011-5.311-1e-3 -10.621 4e-3 -15.932 9e-3 -12.53 0.011-25.06 0.011-37.591 5e-3 -12.924-6e-3 -25.849 7e-3 -38.773 0.028-11.097 0.018-22.193 0.024-33.29 0.02-6.627-1e-3 -13.254 1e-3 -19.882 0.015-6.235 0.013-12.469 0.011-18.704-2e-3 -2.286-3e-3 -4.572 0-6.858 8e-3 -3.126 0.011-6.251 3e-3 -9.376-0.01-0.901 7e-3 -1.801 0.015-2.729 0.022-9.291-0.079-16.195-3.232-24.393-7.396-0.671-0.227-0.671-0.227-4.063-1.375-4.501-1.858-7.344-4.377-10.937-7.625l-4-2c-12.542-11.652-21.653-24.623-25.5-41.25-0.107-0.452-0.107-0.452-0.645-2.739-0.423-1.802-0.842-3.606-1.256-5.411-0.56-2.431-1.138-4.857-1.717-7.284-4.601-22.5-2.175-47.473-0.945-70.254 0.087-1.613 0.174-3.226 0.263-4.888 0.691-11.963 0.691-11.963 1.8-17.174 3.932-33.52 3.932-33.52 3e-3 -44.955-2.066-6.633-2.573-12.563-2.521-19.473-7e-3 -1.166-0.014-2.332-0.021-3.533-0.018-3.807-6e-3 -7.612 7e-3 -11.418-2e-3 -2.662-6e-3 -5.325-0.011-7.987-6e-3 -5.555 2e-3 -11.11 0.021-16.665 0.023-7.125 0.01-14.251-0.014-21.376-0.015-5.486-0.01-10.972 0-16.458 3e-3 -2.629 0-5.258-0.01-7.886-0.01-3.662 6e-3 -7.324 0.028-10.986-8e-3 -1.087-0.016-2.174-0.024-3.295 0.044-3.935 0.089-7.142 2.005-10.641 3.799-1.988 7.464-1.876 11.648-1.829z" fill="#C8964B"/>
<path transform="translate(2014 180.34)" d="m0 0c2.22 6e-3 4.44 0.01 6.66 0.011 4.628 0.01 9.256 0.038 13.883 0.083 5.941 0.057 11.882 0.078 17.823 0.087 4.572 8e-3 9.144 0.028 13.717 0.052 2.192 0.011 4.384 0.021 6.576 0.028 3.05 0.014 6.099 0.041 9.148 0.073 0.455 1e-3 0.455 1e-3 2.755 7e-3 6.232 0.086 6.232 0.086 8.461 2.315 1.239 4.956 1.156 9.707 1.162 14.78 2e-3 0.549 2e-3 0.549 0.015 3.327 0.014 3.632 0.021 7.265 0.027 10.897 5e-3 2.521 0.011 5.041 0.017 7.562 0.01 5.283 0.016 10.567 0.02 15.85 5e-3 6.782 0.029 13.563 0.058 20.345 0.018 5.205 0.023 10.409 0.025 15.614 3e-3 2.501 0.011 5.002 0.024 7.503 0.017 3.491 0.015 6.981 9e-3 10.472 9e-3 1.04 0.018 2.079 0.028 3.15-0.042 7.158-0.042 7.158-3.385 10.5-3.046 0.373-3.046 0.373-6.75 0.364-1.33-1e-3 -2.66-2e-3 -4.031-2e-3 -0.696-8e-3 -0.696-8e-3 -4.219-0.049-1.392 3e-3 -2.784 6e-3 -4.218 0.01-10.381-0.056-10.381-0.056-13.782-2.323-0.4-2.275-0.4-2.275-0.441-5.086-0.013-0.506-0.013-0.506-0.08-3.07-0.014-1.062-0.027-2.124-0.041-3.219-0.035-2.091-0.077-4.182-0.129-6.273-6e-3 -0.465-6e-3 -0.465-0.037-2.818-0.272-2.534-0.272-2.534-2.272-6.534-3.59-1.795-7.864-1.119-11.82-1.097-0.487 0-0.487 0-2.951 4e-3 -3.118 5e-3 -6.236 0.018-9.354 0.031-2.11 5e-3 -4.221 9e-3 -6.332 0.013-5.181 0.011-10.362 0.029-15.543 0.049-0.839 3.357-1.157 5.91-1.246 9.317-0.033 1.011-0.065 2.022-0.099 3.064-0.062 2.125-0.119 4.25-0.172 6.375-0.034 1.01-0.068 2.02-0.104 3.061-0.012 0.461-0.012 0.461-0.076 2.795-0.303 2.388-0.303 2.388-2.303 5.388-3.117 0.388-3.117 0.388-7.089 0.399-1.424 4e-3 -2.848 7e-3 -4.315 0.011-1.496-0.011-2.992-0.023-4.533-0.035-1.492 0.012-2.984 0.023-4.522 0.035-1.425-3e-3 -2.85-7e-3 -4.318-0.011-1.312-4e-3 -2.624-7e-3 -3.976-0.011-3.247-0.388-3.247-0.388-6.247-3.388-0.302-3.301-0.419-6.413-0.404-9.716-6e-3 -0.997-0.013-1.994-0.02-3.021-0.019-3.304-0.015-6.607-9e-3 -9.911-5e-3 -2.293-0.01-4.586-0.016-6.879-9e-3 -4.81-7e-3 -9.621 3e-3 -14.431 0.012-6.166-8e-3 -12.332-0.038-18.498-0.018-4.737-0.018-9.474-0.012-14.211 0-2.274-6e-3 -4.547-0.018-6.821-0.015-3.179-4e-3 -6.357 0.013-9.537-0.01-0.94-0.02-1.881-0.03-2.849 0.046-4.042 0.228-6.653 2.438-10.097 0.691-0.669 1.382-1.339 2.093-2.029 0.66-0.804 1.32-1.608 2-2.437 11.499-9.822 23.618-9.392 37.977-9.219zm-6.977 36.656c-0.372 2.329-0.372 2.329-0.363 5.035 1e-3 0.974 1e-3 1.948 2e-3 2.952 0.016 1.015 0.032 2.03 0.049 3.076-3e-3 1.019-7e-3 2.038-0.01 3.088 0.055 7.582 0.055 7.582 2.322 9.849 3.412 0.213 6.74 0.304 10.153 0.301 0.505 2e-3 0.505 2e-3 3.064 0.013 2.141 6e-3 4.282 6e-3 6.423 2e-3 3.281-3e-3 6.562 0.02 9.843 0.046 2.077 2e-3 4.155 3e-3 6.232 2e-3 0.985 9e-3 1.969 0.018 2.983 0.027 6.959-0.047 6.959-0.047 10.302-3.391 0.325-3.392 0.464-6.548 0.438-9.937 0.02-0.907 0.04-1.814 0.06-2.748-4e-3 -6.525-4e-3 -6.525-1.909-9.575-3.934-2.644-7.921-2.291-12.499-2.236-0.964-1e-3 -1.927-3e-3 -2.92-4e-3 -2.035 1e-3 -4.07 0.013-6.105 0.034-3.119 0.029-6.237 0.02-9.356 7e-3 -1.977 7e-3 -3.954 0.015-5.931 0.026-0.935-3e-3 -1.869-6e-3 -2.832-9e-3 -6.6 0.096-6.6 0.096-9.946 3.442z" fill="#000019"/>
<path transform="translate(1716.2 179.88)" d="m0 0c0.523 3e-3 0.523 3e-3 3.167 0.015 1.094 2e-3 2.189 4e-3 3.316 5e-3 3.639 8e-3 7.278 0.024 10.918 0.042 1.239 6e-3 2.479 0.011 3.756 0.017 6.561 0.032 13.122 0.071 19.683 0.115 6.787 0.043 13.574 0.059 20.361 0.069 5.209 0.013 10.418 0.047 15.627 0.088 2.502 0.016 5.004 0.023 7.507 0.021 3.501 0 7 0.031 10.5 0.069 1.037-7e-3 2.074-0.014 3.143-0.021 4.552 0.079 7.23 0.282 10.925 3.056 2.228 3.168 2.489 4.898 2.486 8.746 2e-3 1.148 4e-3 2.296 6e-3 3.478-0.024 1.19-0.048 2.379-0.073 3.604 0.011 1.201 0.022 2.402 0.034 3.639-0.056 6.609-0.056 6.609-0.596 9.174-4.385 2.192-6.502 2.233-11.335 2.195-1.502-7e-3 -3.004-0.013-4.552-0.02-1.623-0.017-3.246-0.033-4.918-0.05-1.684-9e-3 -3.367-0.017-5.051-0.023-6.245-0.027-12.49-0.076-18.734-0.123-5.277-0.04-10.554-0.071-15.831-0.091-2.471-0.013-4.943-0.038-7.414-0.064-0.755-3e-3 -0.755-3e-3 -4.571-0.02-1.325-0.01-2.649-0.021-4.014-0.032-3.541 0.225-6.289 0.94-9.58 2.228v9c4.118 1.546 7.474 2.239 11.866 2.179 1.131-0.01 2.262-0.02 3.427-0.03 1.207-0.02 2.413-0.039 3.656-0.06 2.565-0.02 5.129-0.04 7.694-0.06 4.036-0.044 8.071-0.092 12.107-0.146 3.9-0.048 7.799-0.078 11.699-0.106 1.213-0.022 2.425-0.044 3.674-0.066 1.122-7e-3 2.244-0.013 3.399-0.02 0.988-0.013 1.976-0.026 2.994-0.039 2.484 0.348 2.484 0.348 5.484 3.348 1.16 4.652 1.228 9.345 1.312 14.125 0.019 0.692 0.019 0.692 0.114 4.195-0.426 3.68-0.426 3.68-2.088 5.876-2.932 2.261-4.501 2.313-8.176 2.334-1.175 0.016-2.349 0.033-3.559 0.05-1.264-2e-3 -2.528-4e-3 -3.83-6e-3 -1.299 0.014-2.598 0.028-3.936 0.043-4.154 0.042-8.308 0.057-12.462 0.07-4.161 0.029-8.322 0.064-12.483 0.102-2.591 0.023-5.182 0.039-7.773 0.047-1.168 7e-3 -2.336 0.014-3.539 0.022-1.032 3e-3 -2.064 7e-3 -3.127 0.01-2.453 0.132-2.453 0.132-4.453 1.132-0.302 5.204-0.355 8.289 2 13 2.945 1.472 5.546 1.103 8.833 1.081 1.442-6e-3 2.884-0.013 4.37-0.02 1.567-0.011 3.135-0.022 4.75-0.034 2.45-0.01 4.899-0.019 7.349-0.028 6.055-0.023 12.111-0.056 18.166-0.095 3.393-0.022 6.785-0.038 10.178-0.049 3.198-0.01 6.397-0.029 9.596-0.056 0.727-2e-3 0.727-2e-3 4.407-0.011 0.639-3e-3 0.639-3e-3 3.872-0.022 3.569 0.24 6.234 0.728 9.479 2.234 2.454 4.907 2.405 9.142 2.437 14.5 0.033 0.95 0.066 1.9 0.1 2.878 0.054 6.927 0.054 6.927-2.469 9.892-4.2 2.368-8.026 2.289-12.72 2.247-0.967 7e-3 -1.933 0.014-2.929 0.021-3.191 0.018-6.381 6e-3 -9.571-7e-3 -2.221 2e-3 -4.441 6e-3 -6.662 0.011-4.653 6e-3 -9.305-2e-3 -13.958-0.021-5.96-0.023-11.919-0.01-17.879 0.014-4.586 0.015-9.171 0.01-13.756 0-2.197-3e-3 -4.395 0-6.592 0.01-3.073 0.01-6.146-6e-3 -9.22-0.028-0.905 8e-3 -1.811 0.016-2.744 0.025-8.487-0.114-12.568-3.79-18.287-9.605-0.425-0.429-0.425-0.429-2.578-2.598-4.48-4.826-4.464-8.475-4.447-14.78-5e-3 -0.968-0.01-1.936-0.015-2.933-0.014-3.206-0.013-6.412-0.011-9.619-4e-3 -2.225-8e-3 -4.451-0.013-6.677-7e-3 -4.669-7e-3 -9.338-2e-3 -14.007 6e-3 -5.984-0.011-11.969-0.034-17.953-0.015-4.598-0.016-9.196-0.013-13.795 0-2.206-5e-3 -4.413-0.015-6.619-0.013-3.086-6e-3 -6.171 6e-3 -9.257-8e-3 -0.912-0.016-1.825-0.023-2.765 0.081-9.794 2.105-13.049 11.635-13.051z" fill="#000019"/>
<path transform="translate(2267.9 180.69)" d="m0 0c0.458-4e-3 0.458-4e-3 2.775-0.025 3.038-0.024 6.076-0.033 9.114-0.04 2.117-9e-3 4.234-0.018 6.351-0.027 4.447-0.017 8.894-0.024 13.341-0.027 5.67-6e-3 11.34-0.043 17.009-0.089 4.379-0.03 8.758-0.037 13.137-0.038 2.088-4e-3 4.177-0.016 6.265-0.037 25.254-0.234 25.254-0.234 34.13 7.359 8.675 9.573 6.091 25.743 6.099 37.746 3e-3 1.668 7e-3 3.335 0.01 5.003 6e-3 3.473 8e-3 6.945 8e-3 10.418-1e-3 4.434 0.013 8.867 0.03 13.301 0.014 4.259 0.014 8.519 0.015 12.778 7e-3 1.583 0.014 3.167 0.021 4.798-3e-3 1.483-6e-3 2.965-9e-3 4.492 2e-3 1.296 3e-3 2.592 4e-3 3.928-0.36 5.486-0.915 10.218-4.559 14.454-0.444 0.381-0.444 0.381-2.688 2.312-0.443 0.454-0.443 0.454-2.687 2.75-4.255 4.14-8.376 3.405-14.023 3.412-0.504 2e-3 -0.504 2e-3 -3.055 0.015-3.347 0.014-6.693 0.021-10.039 0.027-2.32 5e-3 -4.639 0.011-6.958 0.017-4.868 0.01-9.735 0.016-14.603 0.02-6.243 5e-3 -12.487 0.029-18.73 0.058-4.792 0.018-9.584 0.023-14.376 0.025-2.302 3e-3 -4.605 0.011-6.907 0.024-3.217 0.017-6.435 0.015-9.653 9e-3 -0.954 9e-3 -1.909 0.018-2.893 0.028-5.113-0.033-6.84-0.208-11.076-3.385-0.39-3.545-0.525-6.779-0.486-10.327-3e-3 -1.062-7e-3 -2.124-0.011-3.218-8e-3 -3.522 0.014-7.042 0.036-10.564 3e-3 -2.445 4e-3 -4.89 3e-3 -7.335 3e-3 -5.132 0.02-10.263 0.047-15.394 0.034-6.572 0.041-13.144 0.04-19.715 0-5.053 0.011-10.106 0.026-15.159 6e-3 -2.423 0.01-4.845 0.012-7.268 4e-3 -3.392 0.021-6.783 0.043-10.175-1e-3 -0.999-2e-3 -1.997-3e-3 -3.026 0.048-5.247 0.33-9.869 2.293-14.819 3.95-2.633 7.36-2.302 11.947-2.306zm20.053 36.306c-1.49 4.47-1.163 8.986-1.168 13.653-3e-3 1.051-6e-3 2.103-0.01 3.187-5e-3 2.225-7e-3 4.45-7e-3 6.675-2e-3 3.406-0.02 6.812-0.039 10.218-3e-3 2.161-5e-3 4.321-6e-3 6.482-7e-3 1.02-0.015 2.04-0.022 3.091 0.015 4.63 0.15 7.489 2.252 11.694 3.603 1.802 7.891 1.208 11.864 1.239 0.984 8e-3 1.968 0.016 2.982 0.024 2.085 0.014 4.171 0.025 6.257 0.033 3.187 0.017 6.373 0.061 9.559 0.105 2.026 0.01 4.051 0.018 6.077 0.025 0.476 9e-3 0.476 9e-3 2.885 0.053 3.979-0.013 6.871-0.202 10.393-2.13 4.308-5.101 4.239-10.311 4.249-16.782 2e-3 -1.619 5e-3 -3.237 8e-3 -4.904-5e-3 -0.838-9e-3 -1.676-0.013-2.539-0.011-2.55 0-5.099 0.013-7.649-2e-3 -0.81-2e-3 -0.81-8e-3 -4.908-2e-3 -1.475-5e-3 -2.951-7e-3 -4.471-0.365-5.775-0.921-9.539-4.752-13.996-4.555-2.728-8.457-2.785-13.612-2.693h-2.912c-2.024 5e-3 -4.047 0.022-6.069 0.051-3.102 0.042-6.201 0.041-9.302 0.035-1.969 0.01-3.937 0.023-5.905 0.039h-2.812c-6.548 0.121-6.548 0.121-9.895 3.468z" fill="#000019"/>
<path transform="translate(1550,182)" d="m0 0c3.85 5.082 3.425 10.805 3.388 16.915 5e-3 1.088 0.011 2.177 0.016 3.298 0.013 3.589 5e-3 7.178-6e-3 10.767 2e-3 2.496 5e-3 4.991 9e-3 7.486 5e-3 5.225-2e-3 10.449-0.016 15.673-0.017 6.706-7e-3 13.411 0.011 20.117 0.011 5.149 7e-3 10.299-1e-3 15.449-2e-3 2.473 1e-3 4.946 8e-3 7.419 7e-3 3.45-4e-3 6.9-0.021 10.349 6e-3 1.027 0.012 2.055 0.019 3.113-0.064 7.071-0.064 7.071-3.407 10.414-2.787 0.372-2.787 0.372-6.129 0.363-1.199 0-2.399-1e-3 -3.635-2e-3 -1.253-0.016-2.507-0.032-3.798-0.049-0.629 2e-3 -0.629 2e-3 -3.811 0.01-9.36-0.055-9.36-0.055-11.627-2.322-1.84-6.023-0.967-12.634-0.84-18.848-0.16-4.152-0.16-4.152-2.16-8.152-3.49-1.745-7.547-1.185-11.391-1.203-0.937-6e-3 -1.874-0.012-2.84-0.017-1.987-0.01-3.975-0.016-5.962-0.02-3.031-0.01-6.061-0.041-9.092-0.072-1.931-7e-3 -3.862-0.012-5.793-0.016-0.452-6e-3 -0.452-6e-3 -2.737-0.038-5.157 0.019-8.834 0.522-13.185 3.366-3.52 5.415-1.984 12.684-1.777 18.848-0.223 4.152-0.223 4.152-3.223 8.152-2.863 0.502-2.863 0.502-6.312 0.496-1.241 1e-3 -2.481 1e-3 -3.758 2e-3 -0.649-0.01-0.649-0.01-3.93-0.06-1.297 7e-3 -2.594 0.014-3.93 0.021-9.676-0.065-9.676-0.065-13.07-3.459-0.241-3.465-0.289-6.745-0.207-10.207 0.013-1.085 0.026-2.171 0.04-3.289 0.03-2.461 0.066-4.922 0.107-7.383 0.065-4.432 0.094-8.862 0.117-13.294 0.04-7.562 0.1-15.124 0.179-22.686 0.045-4.388 0.084-8.776 0.11-13.164 0.031-5.142 0.086-10.284 0.142-15.426 7e-3 -1.575 0.013-3.15 0.02-4.773 0.019-1.46 0.039-2.921 0.06-4.425 0.011-1.279 0.022-2.559 0.033-3.876 0.54-4.707 2.018-8.074 5.344-11.454 0.72-0.544 1.439-1.088 2.18-1.648 0.704-0.549 1.408-1.098 2.133-1.664 7.088-4.422 12.649-6.21 21.022-6.289 0.879-0.013 1.759-0.027 2.664-0.041 2.877-0.039 5.753-0.051 8.63-0.061 2.013-0.02 4.026-0.041 6.039-0.064 4.205-0.044 8.41-0.074 12.616-0.095 5.383-0.026 10.766-0.079 16.15-0.141 4.151-0.046 8.302-0.082 12.454-0.113 1.985-0.016 3.97-0.035 5.955-0.056 2.773-0.027 5.547-0.04 8.32-0.05 1.576-0.01 3.152-0.02 4.776-0.03 3.914 0.218 6.641 0.43 10.116 2.229zm-83 35c-3.781 5.998-3.951 13.103-3 20 4.786 4.786 8.599 4.189 15.082 4.238 0.503 4e-3 0.503 4e-3 3.05 0.025 2.132 0.014 4.265 0.024 6.398 0.032 3.259 0.017 6.517 0.061 9.777 0.105 2.071 0.011 4.142 0.019 6.213 0.026 0.974 0.017 1.948 0.035 2.951 0.053 4.117-0.013 7.018-0.188 10.633-2.244 2.968-3.498 2.721-6.735 2.896-11.235 0.031-0.794 0.031-0.794 0.188-4.812-0.188-4.188-0.188-4.188-2.188-8.188-3.602-1.801-7.892-1.186-11.863-1.203-0.984-6e-3 -1.969-0.012-2.983-0.017-2.085-0.01-4.171-0.016-6.256-0.02-3.187-0.01-6.373-0.041-9.56-0.072-2.025-7e-3 -4.051-0.012-6.076-0.016-0.953-0.012-1.905-0.025-2.886-0.038-4.934 0.017-8.516 0.118-12.376 3.366z" fill="#000019"/>
<path transform="translate(2124.2 180.69)" d="m0 0c0.475-4e-3 0.475-4e-3 2.878-0.025 3.155-0.024 6.31-0.033 9.466-0.04 2.193-9e-3 4.385-0.018 6.578-0.027 4.607-0.017 9.214-0.024 13.821-0.027 5.886-6e-3 11.773-0.043 17.659-0.089 4.535-0.03 9.07-0.037 13.605-0.038 2.169-4e-3 4.337-0.016 6.506-0.037 3.047-0.027 6.092-0.022 9.139-0.01 0.444-7e-3 0.444-7e-3 2.687-0.045 8.027 0.093 14.185 2.978 20.345 7.926 0.346 0.366 0.346 0.366 2.097 2.218 0.711 0.733 1.421 1.465 2.153 2.219 5.428 6.483 6.06 12.253 6.071 20.5 2e-3 0.466 2e-3 0.466 0.015 2.825 0.015 3.08 0.021 6.161 0.027 9.242 6e-3 2.139 0.011 4.278 0.017 6.418 0.011 4.483 0.016 8.966 0.02 13.449 5e-3 5.753 0.03 11.505 0.058 17.258 0.019 4.417 0.024 8.834 0.025 13.251 3e-3 2.122 0.011 4.243 0.025 6.365 0.016 2.961 0.015 5.922 8e-3 8.884 9e-3 0.88 0.019 1.761 0.028 2.668-0.042 6.079-0.042 6.079-3.384 9.421-3.155 0.389-3.155 0.389-7.004 0.399-1.38 4e-3 -2.76 8e-3 -4.182 0.012-0.722-6e-3 -0.722-6e-3 -4.377-0.036-1.448 0.012-2.896 0.024-4.388 0.036-0.69-2e-3 -0.69-2e-3 -4.178-0.012-1.269-4e-3 -2.538-7e-3 -3.846-0.01-0.499-0.064-0.499-0.064-3.025-0.389-2.587-3.88-2.252-6.168-2.256-10.82-7e-3 -1.632-0.014-3.264-0.021-4.945 1e-3 -0.873 2e-3 -1.746 2e-3 -2.646 1e-3 -2.732-0.012-5.463-0.029-8.195-0.046-7.766-0.071-15.532-0.077-23.298-5e-3 -4.75-0.029-9.499-0.065-14.249-0.01-1.812-0.013-3.623-7e-3 -5.435 7e-3 -2.53-0.013-5.061-0.033-7.591-3e-3 -1.441-6e-3 -2.882-9e-3 -4.367-0.505-3.454-0.505-3.454-4.505-6.454-3.499-0.282-6.815-0.396-10.313-0.363-0.503 0-0.503 0-3.048-1e-3 -2.125 2e-3 -4.25 0.012-6.375 0.028-3.252 0.024-6.504 0.021-9.756 0.014-2.066 6e-3 -4.131 0.013-6.196 0.022-0.973-1e-3 -1.946-2e-3 -2.948-3e-3 -4.523 0.047-7.254 0.248-11.364 2.303-1.552 3.103-1.094 6.055-1.066 9.508 0.01 1.588 0.019 3.177 0.029 4.814 4e-3 0.426 4e-3 0.426 0.023 2.583 0.022 2.665 0.036 5.329 0.047 7.994 0.034 7.576 0.076 15.153 0.138 22.73 0.038 4.632 0.061 9.263 0.074 13.895 9e-3 1.766 0.022 3.533 0.041 5.299 0.027 2.47 0.033 4.941 0.038 7.411 0.01 1.407 0.02 2.813 0.03 4.262-0.354 3.504-0.354 3.504-3.354 7.504-2.864 0.502-2.864 0.502-6.313 0.496-1.24 1e-3 -2.48 2e-3 -3.758 2e-3 -0.648-0.01-0.648-0.01-3.929-0.06-1.297 7e-3 -2.594 0.014-3.93 0.021-9.677-0.065-9.677-0.065-13.07-3.459-0.292-3.572-0.399-6.969-0.373-10.542-3e-3 -1.085-7e-3 -2.17-0.011-3.287-8e-3 -3.596 6e-3 -7.192 0.02-10.788 1e-3 -2.495 0-4.989-1e-3 -7.484 0-5.234 0.01-10.468 0.029-15.702 0.022-6.711 0.023-13.421 0.016-20.132-3e-3 -5.155 3e-3 -10.309 0.013-15.463 4e-3 -2.474 5e-3 -4.948 4e-3 -7.423-1e-3 -3.459 0.012-6.918 0.028-10.377-2e-3 -1.025-5e-3 -2.05-7e-3 -3.105 0.085-11.444 2.028-14.995 13.438-15.003z" fill="#000019"/>
<path transform="translate(1692,181)" d="m0 0c-0.267 6.534-2.429 9.429-7 14-2.61 2.085-5.3 4.029-8 6-1.69 1.643-3.354 3.313-5 5l-30 30c-1.811 3.623-1.328 7.06-1 11 1.658 0.687 3.327 1.35 5 2 2.535 2.68 2.535 2.68 5.062 5.875 2.843 3.566 5.646 6.967 8.938 10.125l12 12c0.825 0.804 1.65 1.609 2.5 2.438 2.037 2.088 3.881 4.204 5.75 6.437 3.24 3.79 6.822 6.581 10.93 9.387 2.268 2.166 2.585 3.651 2.82 6.738-2.979 2.979-12.65 1.231-17.036 1.24-2.689 0.01-5.377 0.041-8.066 0.072-1.71 7e-3 -3.421 0.012-5.132 0.016-1.56 9e-3 -3.119 0.019-4.726 0.028-4.068-0.358-5.918-0.804-9.04-3.356-1.432-2.15-2.86-4.303-4.242-6.486-3.226-4.613-7.302-8.408-11.32-12.326-0.838-0.833-1.675-1.665-2.538-2.522-6.216-6.137-6.216-6.137-9.533-8.7-2.367-1.966-2.367-1.966-4.679-5.654-2.688-3.312-2.688-3.312-6.856-4.019-1.265-0.097-2.529-0.193-3.832-0.293-0.015 1.232-0.029 2.463-0.044 3.732-0.058 4.559-0.135 9.117-0.218 13.675-0.034 1.975-0.062 3.95-0.084 5.925-0.034 2.835-0.086 5.669-0.142 8.504-7e-3 0.886-0.013 1.773-0.02 2.686-0.052 2.165-0.259 4.325-0.492 6.478-5.265 3.51-11.824 2.327-18 2.312-1.392 0.017-2.784 0.033-4.219 0.049-0.665 1e-3 -0.665 1e-3 -4.031 2e-3 -1.222 3e-3 -2.444 6e-3 -3.703 9e-3 -3.047-0.372-3.047-0.372-6.047-3.372-0.297-3.572-0.409-6.969-0.388-10.542-5e-3 -1.085-0.011-2.17-0.016-3.288-0.013-3.596-5e-3 -7.191 6e-3 -10.787-2e-3 -2.495-5e-3 -4.99-9e-3 -7.485-5e-3 -5.234 2e-3 -10.467 0.016-15.701 0.017-6.711 7e-3 -13.422-0.011-20.133-0.011-5.154-7e-3 -10.308 1e-3 -15.462 2e-3 -2.474-1e-3 -4.949-8e-3 -7.423-8e-3 -3.46 4e-3 -6.918 0.021-10.378-6e-3 -1.024-0.012-2.049-0.019-3.105 0.079-8.785 0.079-8.785 3.407-12.696 5.357-2.973 11.061-2.208 17-2 0.588 9e-3 0.588 9e-3 3.566 0.055 1.154 0.044 2.308 0.087 3.496 0.133 1.064 0.034 2.127 0.069 3.223 0.105 2.715 0.707 2.715 0.707 4.353 2.701 1.829 4.036 1.8 7.381 1.874 11.807 0.018 0.836 0.036 1.673 0.054 2.534 0.054 2.659 0.088 5.318 0.122 7.977 0.033 1.808 0.067 3.616 0.103 5.424 0.085 4.421 0.152 8.842 0.209 13.264 4.297-0.266 4.297-0.266 9-1 2.328-2.686 4.104-5.066 6-8 1.645-1.688 3.313-3.354 5-5 1.342-1.492 2.674-2.993 4-4.5 2.9-3.285 5.86-6.441 9-9.5 6.697-6.579 6.697-6.579 8.938-9.688 4.711-5.283 9.966-6.544 16.792-6.957 2.486-0.075 4.971-0.13 7.458-0.167 1.257-0.039 2.514-0.077 3.81-0.116 10.03-0.251 10.03-0.251 15.002 0.928z" fill="#000019"/>
<path transform="translate(1877,183)" d="m0 0c2.239 4.478 2.262 6.88 2.287 11.842 0.014 1.612 0.027 3.223 0.041 4.884 2e-3 0.86 5e-3 1.72 8e-3 2.606 8e-3 2.694 0.028 5.388 0.052 8.081 0.056 6.689 0.092 13.377 0.128 20.066 0.031 5.655 0.07 11.31 0.12 16.965 0.02 2.657 0.028 5.313 0.036 7.969 0.014 1.609 0.027 3.217 0.041 4.874 7e-3 1.421 0.014 2.841 0.022 4.304 0.265 3.409 0.265 3.409 2.265 6.409 3.271 1.09 5.619 1.108 9.06 1.082 1.248-7e-3 2.497-0.013 3.783-0.02 1.35-0.011 2.7-0.023 4.091-0.035 2.843-0.012 5.686-0.025 8.529-0.037 4.494-0.025 8.989-0.053 13.484-0.086 4.329-0.03 8.657-0.048 12.987-0.064 1.348-0.014 2.696-0.027 4.084-0.041 1.252-3e-3 2.503-7e-3 3.792-0.01 1.102-8e-3 2.203-0.015 3.337-0.023 2.853 0.234 2.853 0.234 6.853 2.234 2.056 4.112 1.229 9.418 1.25 13.938 0.021 1.11 0.041 2.221 0.062 3.365 3e-3 0.532 3e-3 0.532 0.016 3.224 9e-3 0.977 0.019 1.954 0.028 2.961-0.356 2.512-0.356 2.512-3.356 5.512-3.762 0.408-3.762 0.408-8.567 0.452-0.875 0.011-1.75 0.023-2.652 0.035-2.9 0.034-5.799 0.044-8.699 0.052-2.017 0.012-4.034 0.025-6.05 0.038-4.233 0.022-8.466 0.032-12.698 0.034-5.413 5e-3 -10.825 0.056-16.238 0.119-4.168 0.041-8.336 0.05-12.505 0.051-1.995 5e-3 -3.99 0.022-5.984 0.051-17.565 0.231-17.565 0.231-22.737-4.181-5.274-6.709-5.274-6.709-7.308-9.901-0.329-0.508-0.329-0.508-1.996-3.078-6.833-11.657-3.723-30.559-3.691-43.672 2e-3 -1.153 4e-3 -2.307 6e-3 -3.495 0.026-13.669 0.065-27.34 0.431-41.005 0.023-1.147 0.045-2.295 0.068-3.477 0.185-5.33 0.334-7.642 3.62-12.023 9.661-2.611 22.874-4.563 32 0z" fill="#000019"/>
<path transform="translate(1319.8 180.31)" d="m0 0c0.96-0.028 1.919-0.055 2.908-0.084 7.3 0.025 11.063 1.604 16.28 6.772 1.16 4.494 1.1 8.895 1.05 13.518-0.013 1.491-0.026 2.983-0.04 4.519-0.018 1.6-0.035 3.201-0.053 4.849-0.017 2.519-0.034 5.039-0.049 7.558-0.038 6.205-0.085 12.41-0.155 18.615-0.039 3.488-0.068 6.976-0.085 10.464-0.016 3.285-0.047 6.57-0.096 9.856-2e-3 0.741-2e-3 0.741-0.011 4.49-6e-3 0.654-6e-3 0.654-0.036 3.963 0.475 3.168 0.475 3.168 4.475 6.168 3.707 0.926 6.406 1.099 10.189 1.05 1.252-0.013 2.503-0.026 3.792-0.04 1.348-0.018 2.696-0.035 4.085-0.053 2.844-0.023 5.689-0.044 8.533-0.065 4.493-0.037 8.985-0.08 13.477-0.139 4.33-0.055 8.66-0.084 12.99-0.109 0.675-0.012 0.675-0.012 4.091-0.072 1.248-4e-3 2.496-7e-3 3.782-0.011 1.101-0.012 2.201-0.024 3.335-0.036 2.726 0.475 2.726 0.475 5.726 4.475 0.388 2.609 0.388 2.609 0.398 5.535 4e-3 1.056 8e-3 2.112 0.012 3.201-0.012 1.097-0.024 2.195-0.036 3.326 0.012 1.102 0.024 2.203 0.036 3.338-4e-3 1.055-8e-3 2.11-0.012 3.197-3e-3 0.964-7e-3 1.929-0.01 2.922-0.388 2.481-0.388 2.481-3.388 5.481-3.738 0.38-3.738 0.38-8.508 0.388-0.434 2e-3 -0.434 2e-3 -2.632 0.016-2.877 0.013-5.753 4e-3 -8.63-6e-3 -1.999 2e-3 -3.998 5e-3 -5.998 9e-3 -4.194 4e-3 -8.387-2e-3 -12.581-0.016-5.371-0.017-10.74-8e-3 -16.111 0.01-4.13 0.011-8.261 8e-3 -12.392 0-1.979-2e-3 -3.959 0-5.938 7e-3 -2.772 8e-3 -5.543-4e-3 -8.315-0.02-1.577-3e-3 -3.153-5e-3 -4.777-8e-3 -6.236-0.576-10.064-2.903-14.368-7.318-0.333-0.335-0.333-0.335-2.016-2.027-5.34-6.267-4.889-13.654-4.927-21.45-9e-3 -0.929-0.017-1.858-0.025-2.816-0.025-3.06-0.041-6.12-0.056-9.18-5e-3 -1.047-0.011-2.094-0.016-3.174-0.027-5.536-0.046-11.073-0.061-16.609-0.013-4.581-0.041-9.162-0.082-13.743-0.049-5.538-0.074-11.075-0.081-16.613-7e-3 -2.109-0.022-4.218-0.046-6.326-0.031-2.947-0.031-5.893-0.024-8.84-0.016-0.87-0.033-1.74-0.05-2.637 0.044-4.23 0.372-6.314 3.016-9.686 4.299-3.222 8.229-2.728 13.43-2.649z" fill="#000019"/>
<path transform="translate(2113.6 833.74)" d="m0 0c1.525-6e-3 3.05-0.013 4.621-0.019 0.822 2e-3 0.822 2e-3 4.979 0.012 1.707-1e-3 3.414-3e-3 5.121-6e-3 3.575-3e-3 7.149 2e-3 10.723 0.011 4.576 0.011 9.153 5e-3 13.729-7e-3 3.524-7e-3 7.048-5e-3 10.573 0 2.506 2e-3 5.013-4e-3 7.519-0.01 1.525 6e-3 3.05 0.013 4.622 0.019 1.341 2e-3 2.683 3e-3 4.066 5e-3 3.365 0.245 5.572 0.581 8.49 2.254 2.795 5.589 2.567 9.136 0.758 15.086-0.539 1.415-1.077 2.831-1.633 4.289-3.393 9.158-3.393 9.158-4.25 13.812-1.281 5.585-3.356 8.642-7.875 12.125-4.848 2.728-8.937 2.805-14.383 2.773-1.511-7e-3 -3.023-0.014-4.58-0.022-1.633-0.014-3.265-0.029-4.947-0.044-0.831-7e-3 -1.662-0.014-2.518-0.021-4.393-0.037-8.786-0.081-13.179-0.13-4.542-0.05-9.084-0.076-13.626-0.097-3.491-0.02-6.981-0.058-10.472-0.101-2.49-0.025-4.98-0.032-7.47-0.039-0.754-0.011-0.754-0.011-4.571-0.069-1.331-0.012-2.663-0.024-4.035-0.036-3.219-0.526-3.219-0.526-6.219-4.526-0.132-7.794 2.908-14.524 5.578-21.754 1.536-4.586 2.389-8.935 2.903-13.731 0.638-3.088 1.599-5.012 3.519-7.515 4.184-2.206 7.879-2.253 12.557-2.259z" fill="#C8964B"/>
<path transform="translate(2405,182)" d="m0 0c7.243 4.486 7.243 4.486 9 8 0.576 5.874-0.587 9.204-4 14-3.722 3.394-7.541 3.521-12.496 3.344-3.961-0.544-6.394-1.869-9.504-4.344-2.488-4.334-3.759-8.013-3-13 3.921-7.16 12.308-10.517 20-8z" fill="#000019"/>
</svg>
