<?xml version="1.0" encoding="UTF-8"?>
<svg version="1.1" viewBox="0 0 2744 1144" xmlns="http://www.w3.org/2000/svg">
<path transform="translate(339.15 205.87)" d="m0 0c1.169-2e-3 2.338-4e-3 3.542-5e-3 3.959-5e-3 7.917-2e-3 11.875 0 2.85-2e-3 5.7-4e-3 8.55-7e-3 7.864-6e-3 15.728-6e-3 23.592-5e-3 7.6 0 15.2-4e-3 22.799-8e-3 17.472-0.01 34.943-0.013 52.415-0.013 13.488-1e-3 26.976-3e-3 40.464-6e-3 3.878-1e-3 7.757-2e-3 11.635-3e-3h2.921c27.128-7e-3 54.255-0.011 81.382-0.01h3.101 15.562 3.122 6.25c32.425 1e-3 64.851-7e-3 97.276-0.02 36.403-0.016 72.806-0.024 109.21-0.023h11.636 2.894c15.396 0 30.792-6e-3 46.189-0.015 15.461-8e-3 30.923-9e-3 46.385-3e-3 8.383 3e-3 16.766 3e-3 25.15-5e-3 7.664-8e-3 15.327-7e-3 22.991 2e-3 2.783 2e-3 5.566 0 8.348-6e-3 3.763-7e-3 7.525-2e-3 11.288 7e-3 1.097-5e-3 2.194-0.01 3.325-0.015 4.703 0.022 7.681 0.129 11.95 2.264 2.275 7.092 2.28 14.005 2.244 21.4 1e-3 0.616 1e-3 0.616 6e-3 3.731 4e-3 4.135-6e-3 8.269-0.016 12.403 0 2.991 1e-3 5.981 3e-3 8.972 2e-3 6.506-2e-3 13.013-0.012 19.519-0.014 9.675-0.017 19.35-0.017 29.025-1e-3 16.277-0.011 32.554-0.027 48.83-0.015 16.12-0.025 32.239-0.03 48.359 0 1.002 0 2.004-1e-3 3.037-1e-3 5.091-2e-3 10.181-4e-3 15.272-9e-3 36.061-0.026 72.121-0.05 108.18-1e-3 2.181-2e-3 4.361-4e-3 6.542-1e-3 1.08-1e-3 2.161-2e-3 3.274-3e-3 5.466-7e-3 10.933-0.011 16.399 0 0.542 0 0.542-2e-3 3.285-0.016 25.187-0.029 50.374-0.042 75.561-1e-3 1.079-1e-3 2.158-2e-3 3.27-0.012 24.627-0.023 49.255-0.032 73.883-1e-3 0.517-1e-3 0.517-2e-3 3.134-3e-3 9.305-6e-3 18.61-9e-3 27.914-8e-3 23.223-0.019 46.446-0.036 69.668-0.013 16.178-0.022 32.357-0.028 48.535-4e-3 9.619-0.01 19.238-0.021 28.858-7e-3 7.169-0.01 14.338-0.01 21.507-1e-3 2.91-4e-3 5.821-8e-3 8.731-6e-3 3.937-6e-3 7.874-4e-3 11.812-3e-3 1.145-6e-3 2.291-0.01 3.472 2e-3 1.047 4e-3 2.093 6e-3 3.172-1e-3 0.45-1e-3 0.45-2e-3 2.729 0.127 2.598 0.599 4.979 1.123 7.524 0.039 2.333 0.046 4.667 0 7-5.123 1.281-10.071 1.139-15.316 1.131-0.588 1e-3 -0.588 1e-3 -3.56 6e-3 -3.973 6e-3 -7.945 4e-3 -11.918 3e-3 -2.862 3e-3 -5.725 6e-3 -8.587 9e-3 -7.894 8e-3 -15.788 0.01-23.682 0.011-7.631 1e-3 -15.261 8e-3 -22.891 0.014-20.445 0.016-40.891 0.022-61.336 0.027-9.668 2e-3 -19.335 5e-3 -29.003 9e-3 -33.078 0.013-66.157 0.024-99.235 0.027-2.077 0-4.154 1e-3 -6.231 1e-3 -2.082 0-4.164 0-6.246 1e-3 -4.177 0-8.354 0-12.53 1e-3h-3.139c-33.598 4e-3 -67.197 0.02-100.8 0.043-35.505 0.025-71.009 0.038-106.51 0.04h-11.684-2.906c-15.456 2e-3 -30.912 0.013-46.369 0.027-15.523 0.014-31.047 0.018-46.57 0.01-8.416-4e-3 -16.831-3e-3 -25.247 0.011-7.695 0.012-15.389 0.011-23.084-1e-3 -2.793-2e-3 -5.586 1e-3 -8.378 0.01-3.779 0.011-7.557 4e-3 -11.336-8e-3 -1.099 7e-3 -2.198 0.015-3.331 0.023-9.271-0.065-9.271-0.065-13.112-3.395-2.015-4.031-1.138-9.299-1.131-13.761-2e-3 -1.247-4e-3 -2.494-6e-3 -3.779-6e-3 -4.23-4e-3 -8.461-3e-3 -12.691-3e-3 -3.043-6e-3 -6.086-9e-3 -9.129-7e-3 -7.519-0.01-15.038-0.01-22.557-1e-3 -9.001-8e-3 -18.003-0.015-27.004-0.016-21.758-0.022-43.515-0.026-65.273-3e-3 -10.286-6e-3 -20.573-0.01-30.86-0.013-35.191-0.024-70.382-0.027-105.57 0-2.21-1e-3 -4.42-1e-3 -6.63v-6.647c-1e-3 -4.445-1e-3 -8.89-2e-3 -13.335v-3.34c-4e-3 -35.753-0.02-71.506-0.043-107.26-0.025-37.774-0.038-75.547-0.04-113.32v-12.429-3.092c-1e-3 -16.448-0.013-32.896-0.027-49.343-0.014-16.519-0.018-33.037-0.01-49.556 5e-3 -9.824 1e-3 -19.647-0.015-29.471-0.011-7.32-6e-3 -14.64 5e-3 -21.96 2e-3 -2.973-1e-3 -5.946-0.01-8.92-0.011-4.019-4e-3 -8.038 8e-3 -12.058-7e-3 -1.173-0.015-2.346-0.023-3.554 7e-3 -1.067 0.014-2.133 0.022-3.232-1e-3 -0.92-1e-3 -1.839-1e-3 -2.787 0.374-2.439 0.374-2.439 3.374-6.439 4.614-1.538 9.331-1.138 14.15-1.129zm108.62 61.013c-2.516 4.428-2.323 8.598-2.279 13.554-6e-3 1.062-0.012 2.125-0.018 3.219-0.016 3.567-4e-3 7.132 9e-3 10.698-6e-3 2.554-0.013 5.108-0.021 7.663-0.019 6.942-0.012 13.883 1e-3 20.826 0.01 7.258 1e-3 14.516-5e-3 21.774-8e-3 12.189 2e-3 24.379 0.021 36.568 0.022 14.102 0.015 28.203-7e-3 42.305-0.019 12.098-0.021 24.195-0.011 36.293 7e-3 7.23 7e-3 14.459-6e-3 21.689-0.011 6.796-3e-3 13.592 0.02 20.388 5e-3 2.498 4e-3 4.995-5e-3 7.492-0.011 3.403 3e-3 6.805 0.022 10.208-8e-3 0.994-0.017 1.988-0.027 3.012 0.046 4.015 0.289 6.962 2.185 10.539 3.007 2.415 4.625 2.516 8.461 2.523 1.254 0.014 2.507 0.028 3.798 0.042 1.373-0.01 2.746-0.02 4.16-0.03 1.447 8e-3 2.895 0.017 4.386 0.026 4.797 0.022 9.592 8e-3 14.389-9e-3 3.326 3e-3 6.651 8e-3 9.976 0.014 6.974 9e-3 13.948-3e-3 20.922-0.027 8.064-0.027 16.128-0.018 24.192 0.01 6.922 0.022 13.844 0.026 20.767 0.012 4.135-7e-3 8.27-6e-3 12.405 8e-3 4.609 0.013 9.217-6e-3 13.826-0.034 1.373 0.01 2.745 0.02 4.159 0.03 1.254-0.014 2.507-0.028 3.799-0.042 0.545-1e-3 0.545-1e-3 3.302-6e-3 2.808-0.629 2.808-0.629 5.128-2.919 4.059-6.546 2.903-14.571 2.921-22.008 9e-3 -2.496 0.041-4.991 0.072-7.486 5e-3 -1.583 0.01-3.167 0.016-4.798 4e-3 -0.723 4e-3 -0.723 0.028-4.382-0.455-5.152-1.646-9.326-5.357-13.036-3.123-0.203-6.158-0.28-9.283-0.272-0.962-5e-3 -1.925-0.01-2.917-0.015-2.095-0.011-4.19-0.016-6.284-0.018-3.311-4e-3 -6.622-0.021-9.933-0.041-9.414-0.056-18.829-0.086-28.244-0.111-5.754-0.015-11.507-0.046-17.261-0.084-2.197-0.012-4.395-0.018-6.593-0.018-3.067 0-6.134-0.018-9.201-0.041-0.916 5e-3 -1.831 9e-3 -2.774 0.014-2.524-0.029-2.524-0.029-6.51-0.414-2.635-3.953-2.25-6.402-2.251-11.148-3e-3 -0.84-6e-3 -1.681-9e-3 -2.546-8e-3 -2.826-1e-3 -5.652 5e-3 -8.478-3e-3 -2.022-6e-3 -4.043-0.011-6.065-8e-3 -4.36-0.01-8.719-8e-3 -13.078 3e-3 -6.891-0.011-13.781-0.029-20.672-0.047-19.596-0.071-39.192-0.077-58.788-4e-3 -10.819-0.022-21.638-0.056-32.456-0.02-6.852-0.022-13.704-0.011-20.556 2e-3 -4.262-0.012-8.523-0.03-12.784-6e-3 -1.978-4e-3 -3.956 5e-3 -5.934 0.011-2.699-3e-3 -5.396-0.022-8.094-1e-3 -1.51-2e-3 -3.021-3e-3 -4.577-0.557-4.237-1.476-5.879-4.503-8.824-5.234-2.618-13.617-1.314-19.448-1.35-1.948-0.017-3.895-0.044-5.843-0.082-2.807-0.055-5.612-0.077-8.42-0.092-0.434-0.011-0.434-0.011-2.636-0.068-3.67 0.012-6.022 0.059-8.882 2.476zm361.23 139.12c-3.433 4.188-6.718 7.706-11 11-3.645 3.54-7.084 7.239-10.5 11-2.678 2.949-5.354 5.855-8.187 8.656-2.313 2.344-2.313 2.344-4.813 5.844-2.294 3.212-4.683 5.755-7.5 8.5l-2 2.5c-2.845 3.557-5.898 6.646-9.5 9.437-2.923 2.412-5.106 5.13-7.5 8.063-2.737 2.809-5.549 5.528-8.375 8.25-3.95 3.95-7.271 8.293-10.625 12.75-3.767 4.964-7.463 9.702-12 14-2.668 2.602-5.14 5.172-7.5 8.062-2.34 2.75-4.659 4.736-7.5 6.938-2.951 2.73-5.208 5.302-7.5 8.625-2.452 3.31-4.063 4.348-7.5 6.375-1.384 1.965-2.712 3.97-4 6-1.072 1.237-2.145 2.475-3.25 3.75-2.75 3.25-2.75 3.25-2.75 5.25l-4 2c-1.705 1.967-3.368 3.971-5 6-2.516 2.645-5.029 5.023-7.875 7.312-3.013 2.592-5.566 5.361-8.136 8.387-2.285 2.644-4.668 5.183-7.051 7.738-3.61 3.949-6.648 7.922-9.508 12.43-3.708 5.532-8.147 10.101-13.43 14.133-2.875 2.727-5.444 5.527-8 8.562-2.546 2.918-4.986 5.059-8 7.438-1.358 1.646-2.692 3.313-4 5-0.614 0.607-1.229 1.214-1.863 1.839-2.268 2.294-4.25 4.703-6.262 7.223-14.277 17.599-14.277 17.599-22.375 23.875-2.923 2.412-5.106 5.13-7.5 8.063-0.782 0.776-1.564 1.552-2.371 2.351-5.155 5.194-9.82 10.936-13.879 17.024-1.972 2.959-4.176 5.171-6.75 7.625l-3.5 3.5c-2.01 2.01-4.027 4.014-6.062 6-1.895 1.943-3.689 3.986-5.438 6.062-3 3.438-3 3.438-5.437 5.375-3.015 2.427-5.354 5.172-7.863 8.106-2.766 3.185-5.647 6.16-9.012 8.707-2.714 3.618-2.047 6.876-1.688 11.25 0.864 3.609 1.482 4.624 4.5 6.812 2.5 1.188 2.5 1.188 4.5 1.188l2 4c3.287 4.14 6.256 7.524 11.438 8.937 6.052-1.593 10.899-5.383 14.312-10.625 0.413-0.763 0.825-1.526 1.25-2.312 1.667-1.334 3.334-2.667 5-4 1.019-1.656 2.019-3.323 3-5l5-5 2-4 4-2c1.866-1.908 3.674-3.874 5.438-5.875 3.332-3.773 6.604-7.028 10.562-10.125 1.676-1.873 3.348-3.751 4.977-5.664 2.298-2.654 4.691-5.207 7.086-7.774 3.056-3.339 5.795-6.634 8.25-10.437 2.351-3.61 4.548-6.228 7.687-9.125 2.669-2.603 5.141-5.173 7.5-8.063 2.341-2.75 4.66-4.736 7.5-6.937 2.973-2.75 5.243-5.349 7.563-8.688 2.437-3.312 2.437-3.312 6.437-5.312 1.387-1.827 2.766-3.66 4.102-5.524 3.148-4.106 6.721-7.816 10.242-11.601 2.085-2.256 4.105-4.536 6.094-6.875 5.656-6.533 11.969-12.488 18.144-18.524 5.05-5.171 9.66-10.839 13.668-16.851 1.973-2.959 4.177-5.172 6.75-7.625l3.5-3.5c2.011-2.011 4.028-4.015 6.063-6 1.895-1.944 3.689-3.986 5.437-6.063 3-3.437 3-3.437 5.438-5.375 4.521-3.639 8.098-8.21 11.687-12.75 2.812-3.467 6.013-6.495 9.25-9.562 2.625-2.75 2.625-2.75 5.563-6.688 5.315-6.981 11.806-12.939 18.062-19.062 9.163-9.056 17.349-18.887 25.356-28.965 3.921-4.894 7.656-9.181 12.644-13.035 2.857-2.714 5.434-5.506 8-8.5 3.308-3.86 6.818-7.377 10.5-10.875 2.5-2.625 2.5-2.625 5-6.125 2.318-3.245 4.658-5.722 7.5-8.5 1.445-1.598 2.882-3.203 4.313-4.813 5.848-6.518 11.352-12.357 18.687-17.187 1.273-3.818 1.185-6.992 1-11-2.202-4.405-3.838-5.573-8-8h-2l-2-4c-5.641-6.771-5.641-6.771-11.062-7.688-8.521 1.488-12.061 7.156-16.938 13.688zm-68 195c-1.062 2.269-1.062 2.269-2 4.812-1.469 3.862-3.151 7.491-5 11.188-0.495 1.382-0.99 2.763-1.5 4.187-1.5 3.813-1.5 3.813-4.5 6.813-2.369 6.494-3.752 12.009-3 19 4.765 3.573 7.869 3.407 13.542 3.34 0.967 1e-3 1.933 1e-3 2.928 2e-3 3.193-3e-3 6.385-0.026 9.577-0.049 2.214-6e-3 4.428-0.01 6.642-0.013 5.826-0.012 11.652-0.041 17.479-0.074 5.945-0.031 11.891-0.045 17.836-0.06 11.666-0.032 23.331-0.083 34.996-0.146-1.38 4.535-2.672 6.685-6 10-1.16 2.839-1.16 2.839-2.062 5.937-0.927 3.148-1.772 5.789-3.473 8.602-1.58 2.654-2.183 4.892-2.84 7.898-1.271 5.026-3.302 7.576-6.625 11.563-0.86 2.639-1.478 5.296-2.121 7.996-1.276 4.363-3.355 8.195-5.465 12.207-1.414 2.797-1.414 2.797-3.039 7.234-1.375 3.563-1.375 3.563-3.304 5.828-2.456 3.243-3.396 6.162-4.571 10.047-1.754 5.539-3.749 10.553-6.5 15.688-0.495 1.175-0.99 2.351-1.5 3.562-1.5 3.438-1.5 3.438-3.5 6.563-1.883 3.649-2.594 6.331-3.375 10.312-0.903 4.349-1.791 7.316-4.625 10.75-2.726 3.465-3.55 5.008-4.625 9.063-1.375 4.75-1.375 4.75-3.371 6.617-2.686 2.859-2.842 5.166-3.441 9.008-1.11 5.889-2.566 8.629-6.563 13.125-0.777 2.406-0.777 2.406-1.437 5.187-1.26 5.305-3.422 9.467-6.141 14.164-2.016 3.755-3.152 7.587-4.422 11.649l-2 3c-0.375 4.062-0.375 4.062 0 8 4.605 2.302 8.211 2.289 13.219 2.265 0.895 2e-3 1.79 4e-3 2.712 6e-3 1.889 1e-3 3.779-2e-3 5.669-0.011 2.89-0.01 5.78 0 8.67 0.013 1.837-1e-3 3.674-4e-3 5.512-8e-3 0.431 2e-3 0.431 2e-3 2.617 0.013 4.308-0.034 6.669-0.312 10.601-2.278 2.036-3.668 2.036-3.668 4.063-8.188 0.672-1.478 1.343-2.957 2.035-4.48 1.193-2.717 2.37-5.442 3.524-8.176 1.378-3.156 1.378-3.156 3.378-6.469 1.95-3.595 3.002-7.023 4.086-10.949 1.386-4.151 3.472-7.894 5.5-11.762 1.357-2.856 2.239-5.549 3.039-8.601 0.454-1.444 0.908-2.888 1.375-4.375l4-2c0.872-3.266 0.872-3.266 1.438-7.25 1.078-6.194 2.309-9.082 6.562-13.75 1.131-2.984 2.039-6.003 2.965-9.055 1.035-2.945 1.035-2.945 3.598-6.945 2.252-3.697 3.039-5.996 3.937-10.125 1.156-5.259 3.001-7.763 6.5-11.875 0.909-2.777 1.578-5.565 2.254-8.407 0.961-3.339 2.826-5.713 4.746-8.593 0.524-1.821 0.999-3.657 1.438-5.5 1.234-5.018 3.25-7.525 6.562-11.5 0.861-2.639 1.479-5.297 2.122-7.996 1.276-4.364 3.355-8.196 5.464-12.207 1.414-2.797 1.414-2.797 3.039-7.235 1.375-3.562 1.375-3.562 3.305-5.828 2.455-3.243 3.396-6.162 4.57-10.047 1.754-5.546 3.825-10.515 6.5-15.687 3.932-8.858 3.48-17.751 3.438-27.313 0.02-1.643 0.04-3.286 0.06-4.978 0-1.571-1e-3 -3.142-1e-3 -4.76 1e-3 -1.43 3e-3 -2.86 5e-3 -4.333-0.581-4.189-1.231-5.074-4.502-7.616-2.623-0.501-2.623-0.501-5.661-0.502-1.154-9e-3 -2.308-0.019-3.497-0.029-0.631 4e-3 -0.631 4e-3 -3.824 0.029-0.666-3e-3 -0.666-3e-3 -4.037-0.016-4.411-0.013-8.823 4e-3 -13.234 0.022-3.059-1e-3 -6.118-2e-3 -9.176-5e-3 -6.414-1e-3 -12.827 0.011-19.24 0.034-8.235 0.028-16.469 0.026-24.704 0.013-6.316-7e-3 -12.632 1e-3 -18.949 0.013-3.037 5e-3 -6.074 5e-3 -9.111 1e-3 -4.238-3e-3 -8.475 0.014-12.713 0.036-1.264-5e-3 -2.528-9e-3 -3.831-0.014-1.151 0.01-2.302 0.02-3.488 0.03-1.002 2e-3 -2.004 5e-3 -3.037 7e-3 -2.498 0.381-2.498 0.381-5.498 3.381z" fill="#007D7D"/>
<path transform="translate(2421,650)" d="m0 0c1.985 3.971 1.144 9.096 1.14 13.489 3e-3 1.212 6e-3 2.423 9e-3 3.672 9e-3 4.089 0.011 8.177 0.012 12.266l0.015 8.76c0.013 7.952 0.02 15.905 0.024 23.857 3e-3 4.963 7e-3 9.925 0.012 14.888 0.012 13.732 0.022 27.465 0.026 41.197v2.665c0 0.881 1e-3 1.762 1e-3 2.671 0 1.786 1e-3 3.572 1e-3 5.358 0 0.443 0 0.443 1e-3 2.685 4e-3 14.363 0.021 28.725 0.045 43.088 0.023 14.735 0.036 29.471 0.037 44.206 1e-3 8.278 7e-3 16.555 0.025 24.833 0.016 7.783 0.018 15.565 0.01 23.348-1e-3 2.862 3e-3 5.724 0.013 8.587 0.013 3.896 7e-3 7.791-4e-3 11.687 5e-3 0.571 5e-3 0.571 0.025 3.463-7e-3 1.041-0.013 2.082-0.02 3.155 1e-3 0.9 1e-3 1.799 2e-3 2.726-0.374 2.399-0.374 2.399-3.374 6.399-6.491 1.623-13.016 1.056-19.67 0.825-1.712-0.05-3.425-0.079-5.138-0.086-14.134-0.071-14.134-0.071-19.09-4.088-4.212-5.579-5.978-11.021-7.332-17.811-1.034-3.813-2.977-6.407-5.29-9.559-2.168-3.341-3.289-6.901-4.55-10.66-0.93-2.621-0.93-2.621-2.93-6.621-2.044-4.088-3.532-8.157-4.973-12.484-1.027-2.516-1.027-2.516-4.027-6.516-0.773-2.332-0.773-2.332-1.375-4.812-1.008-3.646-1.805-5.431-4.125-8.563-2.432-3.526-3.068-5.425-3.938-9.5-1.142-5.226-2.947-8.572-6.082-12.844-2.168-3.341-3.289-6.901-4.55-10.66-0.93-2.621-0.93-2.621-2.93-6.621-1.614-3.227-2.83-6.233-4-9.625-1.511-4.302-3.429-7.599-6-11.375-1.093-2.541-2.08-5.11-3.062-7.695-0.938-2.305-0.938-2.305-2.5-4.743-1.496-2.665-2.087-4.915-2.813-7.874-1.341-5.278-3.701-9.083-6.625-13.688-0.572-1.713-1.092-3.444-1.562-5.188-1.101-4.063-2.402-6.776-5.438-9.812l-2-1v-2h-7c0.162 1.159 0.324 2.318 0.491 3.512 0.47 4.147 0.643 8.124 0.656 12.295 7e-3 1.528 0.014 3.056 0.022 4.63 3e-3 1.675 5e-3 3.349 8e-3 5.023 6e-3 1.778 0.013 3.556 0.02 5.334 0.021 5.813 0.031 11.627 0.041 17.44 4e-3 2.005 8e-3 4.01 0.013 6.014 0.019 9.409 0.033 18.818 0.041 28.227 0.01 10.86 0.036 21.719 0.077 32.579 0.03 8.4 0.045 16.8 0.048 25.2 2e-3 5.016 0.011 10.031 0.036 15.047 0.024 4.712 0.028 9.423 0.018 14.134-1e-3 1.73 6e-3 3.461 0.019 5.191 0.018 2.358 9e-3 4.717-2e-3 7.075 2e-3 1.321 5e-3 2.642 7e-3 4.002-0.495 3.297-0.495 3.297-2.316 5.722-3.162 2.286-5.596 2.077-9.464 2.071-0.709 0-0.709 0-4.295 2e-3 -1.479-0.02-2.958-0.04-4.482-0.06-1.484 7e-3 -2.967 0.014-4.495 0.021-11.049-0.065-11.049-0.065-14.443-3.459-1.983-3.965-1.14-9.078-1.134-13.464-2e-3 -1.209-4e-3 -2.418-7e-3 -3.664-6e-3 -4.08-5e-3 -8.159-4e-3 -12.239-3e-3 -2.913-7e-3 -5.827-0.01-8.74-9e-3 -7.934-0.012-15.867-0.012-23.801-1e-3 -6.611-5e-3 -13.222-8e-3 -19.833-8e-3 -14.697-0.011-29.394-0.01-44.091v-2.674-2.677c0-14.329-9e-3 -28.657-0.023-42.985-0.015-14.697-0.022-29.394-0.021-44.091 0-8.258-2e-3 -16.515-0.013-24.773-0.01-7.761-0.01-15.522-3e-3 -23.284 2e-3 -2.856-1e-3 -5.713-7e-3 -8.569-8e-3 -3.884-3e-3 -7.767 5e-3 -11.651-5e-3 -1.144-0.011-2.289-0.016-3.468 0.035-7.768 0.035-7.768 2.263-9.996 8.794-0.668 17.508 1.027 26.188 2.312 1.53 0.214 3.061 0.427 4.638 0.647 0.737 0.108 0.737 0.108 4.467 0.654 1.336 0.194 2.671 0.388 4.048 0.587 3.678 0.804 6.446 1.851 9.659 3.8 1.574 2.777 1.574 2.777 2.688 5.938 1.476 4.094 2.635 6.492 5.312 10.062 0.773 2.988 0.773 2.988 1.375 6.312 1.21 5.689 3.042 9.057 6.625 13.688 1.113 2.526 2.071 5.086 3.035 7.672 0.965 2.328 0.965 2.328 2.965 5.14 2.611 4.161 3.643 8.452 5 13.149 1.151 3.497 2.905 6.027 5 9.039 1.076 2.781 2.032 5.593 3 8.414 1 2.586 1 2.586 3 5.461 2.035 3.18 2.891 5.768 3.938 9.375 1.748 6.017 4.113 11.245 7.062 16.75 0.879 1.769 1.754 3.54 2.625 5.312 1.214 2.464 2.453 4.814 3.902 7.149 1.496 2.579 2.459 5.03 3.411 7.851 1.209 3.449 2.481 6.527 4.124 9.813 1.938 3.875 1.938 3.875 3.438 8.5 1.5 4.375 1.5 4.375 3.5 7.313 1.879 2.877 2.577 4.801 3.438 8.062 1.274 4.677 3.332 7.356 6.562 11 1.312 3.375 1.312 3.375 2 6 2.31-0.33 4.62-0.66 7-1 0.021-1.506 0.041-3.011 0.062-4.562 0.012-0.847 0.024-1.694 0.036-2.567-0.098-2.871-0.098-2.871-0.595-6.119-0.483-3.603-0.637-7.02-0.65-10.652-4e-3 -0.677-4e-3 -0.677-0.022-4.099-3e-3 -1.468-5e-3 -2.936-8e-3 -4.448-7e-3 -1.559-0.013-3.117-0.02-4.723-0.02-5.15-0.031-10.301-0.041-15.451-4e-3 -1.778-8e-3 -3.555-0.013-5.333-0.019-8.349-0.033-16.697-0.041-25.046-0.01-9.623-0.036-19.245-0.077-28.868-0.03-7.45-0.045-14.9-0.048-22.35-2e-3 -4.444-0.011-8.889-0.036-13.334-0.028-4.957-0.024-9.914-0.017-14.872-6e-3 -0.732-6e-3 -0.732-0.039-4.441 0.038-7.471 0.202-12.901 4.509-19.135 7.867-5.901 25.738-6.087 35-3z"/>
<path transform="translate(1699,217)" d="m0 0c3.279-0.292 6.365-0.396 9.645-0.363 0.961-1e-3 1.923-1e-3 2.914-2e-3 2.039 3e-3 4.078 0.012 6.116 0.029 3.114 0.023 6.228 0.02 9.343 0.014 1.979 5e-3 3.959 0.012 5.939 0.021 0.93-1e-3 1.861-2e-3 2.819-3e-3 4.459 0.049 8.274 0.098 12.224 2.304 2.649 3.158 3.442 6.519 4.438 10.438 1.177 4.604 2.861 7.633 5.562 11.562 1.076 2.781 2.032 5.592 2.996 8.414 1.004 2.586 1.004 2.586 3.066 5.461 2.051 3.307 2.564 5.65 3.313 9.437 1.134 5.482 2.823 8.868 6.141 13.293 2.398 3.869 3.382 8.102 4.527 12.477 0.957 2.918 0.957 2.918 3.957 6.918 0.703 1.77 1.347 3.564 1.938 5.375 1.14 3.309 2.07 5.636 4.124 8.5 2.051 3.307 2.564 5.65 3.313 9.437 1.134 5.482 2.823 8.868 6.141 13.293 2.398 3.869 3.382 8.102 4.527 12.477 0.957 2.918 0.957 2.918 3.957 6.918 0.703 1.77 1.347 3.564 1.938 5.375 1.143 3.312 2.097 5.675 4.124 8.563 1.984 3.135 2.578 5.35 3.376 8.937 0.92 4.085 1.694 6.332 4 9.937 3.168 5.179 4.355 10.223 5.765 16.09 0.797 3.098 0.797 3.098 1.797 4.098 2.662 0.369 5.329 0.703 8 1-4e-3 -0.961-7e-3 -1.922-0.011-2.912-0.088-23.359-0.155-46.719-0.196-70.078-0.021-11.296-0.049-22.592-0.095-33.889-0.04-9.843-0.065-19.686-0.074-29.53-6e-3 -5.214-0.018-10.428-0.047-15.642-0.027-4.904-0.035-9.808-0.029-14.713-2e-3 -1.803-0.01-3.606-0.025-5.409-0.02-2.456-0.013-4.911-4e-3 -7.367-4e-3 -1.376-7e-3 -2.752-0.011-4.17 0.492-3.29 0.492-3.29 4.492-6.29 3.236-0.388 3.236-0.388 7.031-0.398 0.684-2e-3 0.684-2e-3 4.145-0.012 1.427 0.011 2.854 0.023 4.324 0.035 1.427-0.012 2.854-0.023 4.324-0.035 1.368 4e-3 2.736 8e-3 4.145 0.012 0.626 1e-3 0.626 1e-3 3.795 0.01 3.236 0.388 3.236 0.388 7.236 3.388 0.395 3.897 0.53 7.512 0.494 11.413 5e-3 1.191 0.01 2.382 0.015 3.61 0.011 4.015-6e-3 8.028-0.023 12.043 2e-3 2.869 6e-3 5.738 0.011 8.607 0.01 7.81-5e-3 15.62-0.026 23.43-0.017 8.16-0.014 16.32-0.013 24.481-2e-3 13.708-0.019 27.416-0.046 41.124-0.029 14.108-0.043 28.216-0.041 42.324v2.632 2.627c1e-3 15.238-9e-3 30.476-0.025 45.714-8e-3 6.494-0.011 12.987-0.012 19.481-2e-3 7.645-0.014 15.289-0.035 22.934-5e-3 2.81-8e-3 5.621-7e-3 8.431 1e-3 3.827-0.01 7.655-0.025 11.482 4e-3 1.12 7e-3 2.24 0.01 3.393-3e-3 0.513-3e-3 0.513-0.02 3.107-1e-3 0.883-3e-3 1.767-4e-3 2.677-0.29 2.852-0.941 4.942-2.253 7.49-12.378 6.82-27.279 6.391-40.609 2.949-2.391-0.949-2.391-0.949-5.391-3.949-0.773-2.453-0.773-2.453-1.375-5.25-0.97-3.906-1.7-5.853-4.125-9.188-2.941-4.19-3.613-7.722-4.688-12.656-0.812-2.906-0.812-2.906-3.312-6.844-2.389-3.881-3.123-6.252-4-10.624-1.138-5.64-3.106-8.771-6.5-13.438-0.872-3.009-1.521-6.033-2.188-9.094-0.812-2.906-0.812-2.906-3.312-6.844-2.389-3.881-3.123-6.252-4-10.624-1.138-5.64-3.106-8.771-6.5-13.438-0.872-3.009-1.521-6.033-2.188-9.094-0.812-2.906-0.812-2.906-3.312-6.844-2.389-3.881-3.123-6.252-4-10.624-1.138-5.64-3.106-8.771-6.5-13.438-0.872-3.009-1.521-6.033-2.188-9.094-0.812-2.906-0.812-2.906-3.312-6.844-2.389-3.881-3.123-6.252-4-10.624-1.138-5.64-3.106-8.771-6.5-13.438-0.546-1.92-1.019-3.861-1.438-5.812-1.365-6.248-3.988-10.941-7.562-16.188l-2-3c-3.375-0.75-3.375-0.75-7 0-5.548 8.509-4.554 18.056-4.498 27.875-4e-3 1.917-0.01 3.835-0.017 5.752-0.012 4.116-0.012 8.231-1e-3 12.346 0.015 6.504 1e-3 13.008-0.016 19.512-0.031 12.623-0.033 25.246-0.031 37.869 2e-3 16.089-9e-3 32.179-0.048 48.268-0.015 6.47-0.015 12.939-3e-3 19.409 5e-3 4.015-3e-3 8.031-0.013 12.046-3e-3 1.866 0 3.732 8e-3 5.598 0.011 2.541 1e-3 5.081-9e-3 7.622 0 0.712 0 0.712 2e-3 4.314-0.374 3.389-0.374 3.389-3.374 6.389-8.251 2.75-18.793 1.599-27-1-4.513-4.513-4.119-7.817-4.138-14.042 1e-3 -1.129 3e-3 -2.259 4e-3 -3.422-2e-3 -1.197-4e-3 -2.394-7e-3 -3.627-6e-3 -4.033-5e-3 -8.066-4e-3 -12.098-3e-3 -2.883-7e-3 -5.765-0.01-8.647-9e-3 -7.845-0.012-15.69-0.012-23.535-1e-3 -6.538-5e-3 -13.077-8e-3 -19.616-8e-3 -14.538-0.011-29.075-0.01-43.613v-2.645-2.647c0-14.17-9e-3 -28.339-0.023-42.508-0.015-14.538-0.022-29.075-0.021-43.613 0-8.166-2e-3 -16.333-0.013-24.499-0.01-7.676-0.01-15.352-3e-3 -23.028 2e-3 -2.824-1e-3 -5.648-7e-3 -8.472-8e-3 -3.841-3e-3 -7.683 5e-3 -11.524-5e-3 -1.129-0.011-2.259-0.016-3.422 0.035-7.7 0.035-7.7 2.263-11.042z"/>
<path transform="translate(1507,218)" d="m0 0c3.643 4.858 4.125 7.808 4.75 13.688 0.894 6.998 2.728 13.253 4.957 19.925 1.482 5.029 2.447 10.042 3.355 15.199 1.127 6.393 2.537 12.257 5.008 18.262 1.286 4.047 1.793 8.171 2.368 12.364 0.756 5.495 1.661 10.453 4.062 15.5 2.446 5.189 3.279 10.294 4 15.937 0.924 7.226 2.558 13.523 5.242 20.289 1.91 5.825 2.823 11.795 3.738 17.847 0.9 5.635 2.406 10.453 4.639 15.698 1.199 3.118 1.543 6.098 1.819 9.416 0.785 6.978 2.623 13.174 4.832 19.82 1.635 5.389 2.584 10.815 3.55 16.356 1.169 6.363 2.781 12.448 5.18 18.457 1.557 4.403 2.328 8.501 3 13.117 1.29 8.214 2.758 15.642 6.5 23.125 0.656 4.338 1.201 8.667 1.68 13.027 0.762 6.074 2.362 10.525 5.32 15.973 0.375 3.375 0.375 3.375 0 6-2 2-2 2-5.711 2.012-4.763-0.331-9.527-0.665-14.289-1.012-0.614-0.026-0.614-0.026-3.719-0.156-1.041-0.052-2.083-0.103-3.156-0.156-0.905-0.038-1.81-0.075-2.742-0.114-3.214-0.774-4.389-1.959-6.383-4.574-0.871-2.707-0.871-2.707-1.438-5.812-1.02-5.024-2.379-9.682-4.124-14.5-2.343-6.749-3.342-13.225-3.981-20.325-0.457-3.363-0.457-3.363-2.457-7.363-4.628-2.314-7.318-2.265-12.469-2.291-0.852-6e-3 -1.705-0.013-2.583-0.02-2.816-0.019-5.632-0.023-8.448-0.025-1.958-6e-3 -3.915-0.013-5.873-0.02-4.102-0.012-8.204-0.016-12.307-0.015-5.259 1e-3 -10.518-0.027-15.777-0.061-4.043-0.022-8.085-0.026-12.127-0.025-1.94-3e-3 -3.879-0.012-5.818-0.027-2.71-0.02-5.419-0.014-8.129-2e-3 -1.543-3e-3 -3.085-6e-3 -4.674-8e-3 -3.795 0.494-3.795 0.494-6.19 2.266-4.723 6.555-6.22 13.271-7.105 21.166-0.951 7.301-2.476 13.352-5.5 20.062-0.834 2.903-1.58 5.814-2.289 8.75-0.711 2.25-0.711 2.25-2.711 4.25-3.025 0.335-3.025 0.335-6.871 0.449-1.379 0.043-2.757 0.087-4.178 0.131-0.724 0.018-0.724 0.018-4.389 0.108-0.722 0.023-0.722 0.023-4.376 0.142-10.775 0.307-10.775 0.307-14.186-0.83-1.684-3.367-1.265-6.289-1-10 1.299-2.684 2.635-5.35 4-8 1.046-4.357 1.821-8.596 2.387-13.035 0.789-5.957 1.95-11.22 4.113-16.84 1.84-4.838 2.901-9.166 3.438-14.313 0.734-6.783 2.554-12.804 4.745-19.252 2.358-7.166 3.728-14.371 4.848-21.824 0.875-5.52 2.377-10.223 4.559-15.362 1.341-3.498 1.802-6.982 2.285-10.686 1.189-7.87 3.125-15.234 5.429-22.843 2.135-7.211 3.395-14.299 4.36-21.767 0.809-3.947 2.193-7.134 3.904-10.761 1.563-3.887 1.893-7.864 2.37-12.005 0.779-6.098 1.777-11.561 4.062-17.312 2.239-5.638 3.238-11.136 4-17.125 0.87-6.819 2.361-12.43 5.312-18.633 1.57-4.285 2.113-8.615 2.688-13.117 0.946-7.389 2.564-13.986 5.301-20.922 1.577-4.213 2.567-8.485 3.523-12.875 0.676-2.328 0.676-2.328 2.676-4.328 2.72-0.325 5.456-0.525 8.191-0.668 0.82-0.044 1.639-0.088 2.483-0.133 1.739-0.091 3.478-0.177 5.218-0.259 2.636-0.126 5.271-0.269 7.907-0.415 1.693-0.086 3.386-0.171 5.08-0.255 1.532-0.077 3.064-0.153 4.643-0.232 4.636-0.039 8.916 0.112 13.478 0.962zm-29 57c-4.244 11.148-6.599 21.946-8.223 33.727-0.694 3.817-1.606 6.624-3.277 10.085-3.059 6.465-3.534 13.045-4.336 20.067-0.639 5.224-1.481 9.655-3.664 14.496-3.099 7.021-3.597 14.194-4.402 21.747-0.758 6.862-2.143 13.101-4.235 19.69-1.509 5.574-2.282 11.418-1.863 17.188 3 4 3 4 6 5 1.829 0.103 3.662 0.149 5.494 0.161 1.124 0.01 2.249 0.019 3.408 0.029 1.216 4e-3 2.431 9e-3 3.684 0.013 0.624 3e-3 0.624 3e-3 3.785 0.017 2.645 0.01 5.289 0.016 7.934 0.02 4.047 0.01 8.093 0.041 12.14 0.072 2.568 7e-3 5.136 0.012 7.703 0.016 0.606 6e-3 0.606 6e-3 3.672 0.038 0.565-2e-3 0.565-2e-3 3.428-0.01 0.992 4e-3 1.984 8e-3 3.007 0.011 3.265-0.437 5.149-1.354 7.745-3.367 0.519-3.857 0.118-6.611-1.012-10.328-0.962-3.575-1.186-6.487-1.238-10.172-0.364-6.839-1.784-12.947-3.625-19.5-2.488-8.873-3.992-17.507-5.011-26.656-0.719-6.12-1.918-11.838-3.614-17.782-2.036-7.16-3.156-14.041-3.938-21.437-0.884-8.236-2.322-16.037-4.624-24-0.258-0.892-0.516-1.784-0.782-2.703-1.867-6.133-1.867-6.133-4.156-8.422-7.529-0.471-7.529-0.471-10 2z"/>
<path transform="translate(1992.2 648.61)" d="m0 0c1.028-0.01 2.055-0.02 3.114-0.03 1.117 4e-3 2.233 9e-3 3.383 0.014 0.593-4e-3 0.593-4e-3 3.589-0.021 3.915-0.018 7.829-0.015 11.743-9e-3 2.719-4e-3 5.437-0.01 8.156-0.016 5.697-9e-3 11.394-6e-3 17.091 4e-3 7.309 0.011 14.618-9e-3 21.928-0.038 5.613-0.019 11.226-0.018 16.839-0.013 2.696 1e-3 5.391-6e-3 8.087-0.018 3.764-0.015 7.526-4e-3 11.29 0.013 1.119-0.01 2.237-0.019 3.39-0.029 0.512 5e-3 0.512 5e-3 3.105 0.029 0.89 1e-3 1.779 1e-3 2.696 1e-3 3.203 0.673 4.398 1.941 6.383 4.501 0.518 3.879 0.518 3.879 0.531 8.562 4e-3 0.828 8e-3 1.657 0.012 2.51 3e-3 1.748-5e-3 3.497-0.021 5.245-0.022 2.674-1e-3 5.345 0.025 8.019-3e-3 1.7-8e-3 3.401-0.016 5.101-4e-3 1.546-9e-3 3.091-0.013 4.684-0.518 3.879-0.518 3.879-2.021 6.088-3.651 2.618-6.503 2.304-10.966 2.321-0.426 4e-3 -0.426 4e-3 -2.583 0.026-2.816 0.025-5.632 0.021-8.448 0.018-1.958 0.012-3.915 0.027-5.873 0.043-5.154 0.038-10.308 0.053-15.462 0.063-8.25 0.019-16.499 0.076-24.749 0.128-2.883 0.016-5.766 0.023-8.648 0.029-1.767 7e-3 -3.533 0.014-5.299 0.021-1.543 3e-3 -3.085 7e-3 -4.674 0.01-3.795 0.132-3.795 0.132-7.795 1.132-0.046 9.84-0.082 19.68-0.104 29.52-0.01 4.569-0.024 9.138-0.047 13.707-0.022 4.409-0.034 8.818-0.039 13.227-5e-3 2.502-0.021 5.004-0.037 7.505v4.61c-2e-3 0.671-2e-3 0.671-0.013 4.064 0.24 3.367 0.24 3.367 2.24 7.367 2.821 1.41 5.349 1.272 8.5 1.437 21.467 1.304 21.467 1.304 30.5 3.563 3.53 0.151 7.058 0.252 10.59 0.328 3.41 0.672 3.41 0.672 6.324 2.469 3.194 4.903 2.698 9.484 2.524 15.203-3e-3 0.54-3e-3 0.54-0.018 3.273-0.177 11.484-0.177 11.484-4.42 15.727-3.686 0.222-7.303 0.325-10.992 0.343-1.098 0.015-2.195 0.03-3.326 0.045-3.519 0.046-7.038 0.08-10.557 0.112-4.623 0.041-9.245 0.094-13.867 0.156-1.067 5e-3 -2.134 0.01-3.233 0.016-0.994 0.013-1.988 0.027-3.013 0.041-0.436 3e-3 -0.436 3e-3 -2.646 0.022-2.366 0.265-2.366 0.265-6.366 2.265-2.263 4.526-2.259 7.003-2.275 12.025-5e-3 0.806-0.01 1.611-0.015 2.441-0.014 2.658-0.013 5.317-0.011 7.975-4e-3 1.848-8e-3 3.696-0.013 5.544-7e-3 3.871-7e-3 7.742-2e-3 11.613 6e-3 4.966-0.011 9.931-0.034 14.897-0.015 3.815-0.016 7.63-0.012 11.445-1e-3 1.831-6e-3 3.662-0.016 5.493-0.013 2.557-4e-3 5.114 6e-3 7.67-1e-3 1.456-2e-3 2.912-2e-3 4.412 0.374 3.485 0.374 3.485 3.374 6.485 3.249 1.624 6.562 1.142 10.166 1.157 0.844 5e-3 1.688 0.011 2.558 0.016 1.836 0.011 3.672 0.019 5.508 0.026 2.904 0.012 5.807 0.031 8.711 0.053 8.256 0.062 16.513 0.116 24.77 0.149 5.047 0.021 10.094 0.056 15.14 0.101 1.927 0.014 3.853 0.023 5.779 0.026 2.691 5e-3 5.382 0.028 8.073 0.055 1.533 8e-3 3.066 0.016 4.645 0.025 3.65 0.392 3.65 0.392 6.65 3.392 0.781 4.706 0.745 9.486 0.875 14.25 0.059 1.311 0.119 2.622 0.18 3.972 0.428 13.198 0.428 13.198-3.055 17.778-6.503 1.254-13.063 1.154-19.661 1.161-0.572 2e-3 -0.572 2e-3 -3.467 0.015-3.763 0.014-7.526 0.021-11.29 0.027-2.622 6e-3 -5.244 0.011-7.866 0.017-5.487 0.011-10.973 0.016-16.46 0.02-7.035 5e-3 -14.069 0.029-21.104 0.058-5.41 0.018-10.821 0.024-16.232 0.025-2.594 3e-3 -5.188 0.011-7.783 0.024-3.621 0.017-7.243 0.016-10.864 9e-3 -1.073 9e-3 -2.146 0.019-3.251 0.028-9.158-0.052-9.158-0.052-13.022-3.384-1.953-3.907-1.148-8.884-1.147-13.203-4e-3 -1.181-7e-3 -2.362-0.011-3.579-0.011-3.985-0.015-7.97-0.019-11.955-6e-3 -2.846-0.013-5.692-0.02-8.539-0.017-7.752-0.028-15.504-0.036-23.256-5e-3 -4.839-0.011-9.679-0.018-14.518-0.016-13.395-0.031-26.791-0.038-40.186-2e-3 -3.477-4e-3 -6.955-6e-3 -10.432-1e-3 -0.864-1e-3 -1.729-2e-3 -2.619-8e-3 -14.002-0.033-28.003-0.066-42.005-0.033-14.371-0.05-28.741-0.054-43.111-2e-3 -8.071-0.011-16.141-0.036-24.212-0.024-7.591-0.028-15.182-0.018-22.774 1e-3 -2.788-6e-3 -5.577-0.019-8.365-0.018-3.803-0.011-7.605 2e-3 -11.408-0.011-1.107-0.022-2.214-0.033-3.354 0.052-6.209 0.579-10.392 4.521-15.484 3.408-2.689 5.91-3.376 10.206-3.388z"/>
<path transform="translate(1684.4 648.69)" d="m0 0c1.423-0.016 2.846-0.032 4.312-0.049 1.369 0 2.738-1e-3 4.149-2e-3 0.627-1e-3 0.627-1e-3 3.798-9e-3 5.23 0.579 7.615 2.553 11.116 6.372 3.393 4.525 3.493 8.214 4 13.75 0.644 5.75 1.595 10.776 3.625 16.188 2.986 8.14 4.079 16.406 5.193 24.965 0.803 5.938 2.056 10.578 4.432 16.097 0.989 4.492 1.703 9.024 2.437 13.563 1.447 8.56 3.051 16.816 5.668 25.105 1.129 4.204 1.716 8.4 2.332 12.708 0.875 5.99 2.024 11.468 4 17.187 2.775 8.208 3.955 16.474 5.043 25.039 0.852 6.335 2.286 11.818 4.608 17.765 1.447 4.179 1.881 8.38 2.349 12.759 1.329 10.74 4.14 20.604 7.563 30.874 6.32 0.427 6.32 0.427 10-1 5.692-7.018 6.963-16.607 8.601-25.264 0.774-4.044 1.57-7.692 3.462-11.36 2.474-5.587 3.246-11.058 4.218-17.067 1.126-6.747 2.367-13.606 4.719-20.047 1.335-4.354 1.862-8.76 2.437-13.262 0.985-7.285 2.19-14.432 3.805-21.609 1.907-8.53 3.737-17.018 4.133-25.765 0.313-5.228 1.436-9.798 2.938-14.813 2.24-7.553 3.554-14.95 4.624-22.75 1.351-9.735 3.546-18.567 6.754-27.84 1.261-4.067 1.909-7.812 2.372-12.035 0.662-5.467 1.423-8.634 5.937-12.188 6.796-3.119 13.736-3.715 21.133-4.472 3.779-0.515 7.21-1.474 10.867-2.528 5.408 0.409 5.408 0.409 8 3-0.247 5.68-2.198 10.78-4.023 16.106-2.031 6.017-3.189 12.092-4.29 18.332-1.055 5.792-2.442 11.316-4.187 16.938-2.287 7.414-3.612 14.72-4.629 22.406-0.871 4.218-0.871 4.218-2.871 8.644-2.138 4.89-2.83 8.977-3.437 14.262-0.78 6.098-1.778 11.561-4.063 17.312-2.239 5.639-3.238 11.137-4 17.126-0.87 6.818-2.361 12.43-5.313 18.632-1.866 5.096-2.341 10.393-3.021 15.747-0.878 6.511-2.659 12.092-5.053 18.171-1.173 3.502-1.624 6.654-1.988 10.324-0.818 7.703-3.128 14.57-5.593 21.865-2.178 6.597-3.325 12.856-4.012 19.78-0.546 3.525-1.564 6.33-2.957 9.605-2.26 5.359-3.332 10.58-4.126 16.313-0.929 6.629-2.229 12.594-4.527 18.867-1.338 3.78-2.102 7.648-2.91 11.57-1.745 7.746-1.745 7.746-4 10-5.504 0.406-11.022 0.329-16.539 0.316-2.752-3e-3 -5.504 0.02-8.256 0.046-1.752 2e-3 -3.504 3e-3 -5.256 2e-3 -1.595 3e-3 -3.19 6e-3 -4.833 9e-3 -5.789-0.524-8.017-2.125-11.796-6.415-2.796-4.769-3.63-8.866-4.445-14.27-1.389-8.604-2.94-16.818-6.875-24.688-0.537-2.864-1.009-5.742-1.437-8.624-1.321-8.294-2.785-15.819-6.563-23.376-0.537-2.864-1.009-5.742-1.437-8.624-1.321-8.294-2.785-15.819-6.563-23.376-0.537-2.864-1.009-5.742-1.437-8.624-1.313-8.238-3.174-15.613-6.063-23.438-1.954-5.691-2.678-11.624-3.559-17.559-0.739-3.44-1.557-6.044-2.914-9.226-2.584-6.153-3.456-12.38-4.449-18.942-0.764-4.674-1.715-8.844-3.578-13.211-2.598-6.09-3.437-12.28-4.422-18.789-0.764-4.674-1.715-8.844-3.578-13.211-2.598-6.09-3.437-12.28-4.422-18.789-0.762-4.664-1.707-8.813-3.578-13.164-2.73-6.394-3.471-12.989-4.422-19.832-0.893-5.811-2.093-9.364-5.578-14.215v-5c5.339-3.559 12.115-2.326 18.375-2.312z"/>
<path transform="translate(2015.3 216.62)" d="m0 0c0.534-4e-3 0.534-4e-3 3.237-0.026 1.167 6e-3 2.334 0.013 3.536 0.019 1.233-5e-3 2.466-0.011 3.736-0.016 4.083-0.013 8.164-5e-3 12.247 6e-3 2.832-3e-3 5.664-5e-3 8.496-9e-3 5.938-5e-3 11.876 2e-3 17.815 0.016 7.62 0.017 15.24 7e-3 22.86-0.011 5.849-0.011 11.698-7e-3 17.547 1e-3 2.81 2e-3 5.62-1e-3 8.43-8e-3 3.924-8e-3 7.848 4e-3 11.772 0.021 1.167-6e-3 2.333-0.012 3.536-0.019 1.068 9e-3 2.136 0.017 3.237 0.026 0.464 1e-3 0.464 1e-3 2.811 3e-3 2.464 0.378 2.464 0.378 6.464 3.378 0.502 3.23 0.502 3.23 0.497 7.187 0 1.421 1e-3 2.842 2e-3 4.305-0.02 1.488-0.04 2.975-0.061 4.508 7e-3 1.488 0.014 2.975 0.021 4.508-0.065 11.098-0.065 11.098-3.459 14.492-9.327 2.059-19.697 1.098-29.183 1.027-2.465-9e-3 -4.931-0.019-7.396-0.027-6.029-0.023-12.057-0.057-18.086-0.096-3.404-0.022-6.807-0.038-10.211-0.048-3.194-0.011-6.388-0.029-9.582-0.057-0.722-2e-3 -0.722-2e-3 -4.371-0.01-1.268-8e-3 -2.535-0.015-3.841-0.023-3.253 0.229-5.455 0.723-8.33 2.234-1.452 2.906-1.189 5.496-1.252 8.741-0.03 1.422-0.06 2.844-0.09 4.309-0.013 0.773-0.013 0.773-0.079 4.684-0.028 1.581-0.056 3.162-0.085 4.791-0.056 3.353-0.11 6.705-0.161 10.058-0.066 4.289-0.15 8.577-0.24 12.865-0.081 4.095-0.14 8.191-0.202 12.286-0.034 1.538-0.068 3.076-0.104 4.66-0.017 1.435-0.034 2.869-0.051 4.347-0.022 1.26-0.043 2.52-0.065 3.817 0.455 4.748 1.958 8.07 5.329 11.442 3.629 0.139 7.183 0.158 10.809 0.09 2.213-0.021 4.426-0.041 6.639-0.061 3.5-0.043 7.001-0.092 10.501-0.146 3.37-0.048 6.74-0.078 10.11-0.106 1.05-0.021 2.1-0.043 3.182-0.066 2.588-0.017 5.177 0.123 7.759 0.289 6.086 6.085 4.185 15.464 4.188 23.562 0.012 1.531 0.024 3.062 0.037 4.639 2e-3 1.461 4e-3 2.922 6e-3 4.428 4e-3 1.341 8e-3 2.683 0.012 4.065-0.243 3.306-0.243 3.306-2.243 6.306-3.388 0.372-6.613 0.559-10.011 0.625-1.002 0.033-2.003 0.066-3.035 0.1-3.214 0.106-6.427 0.192-9.641 0.275-4.213 0.109-8.425 0.237-12.637 0.375-0.482 9e-3 -0.482 9e-3 -2.92 0.057-5.535 0.183-9.808 0.811-14.756 3.568-3.241 4.863-3.129 9.332-3.161 15.082-9e-3 1.421-0.019 2.843-0.029 4.308-2e-3 0.765-2e-3 0.765-0.013 4.637-2e-3 0.789-2e-3 0.789-0.017 4.779-9e-3 3.334-0.016 6.669-0.02 10.003-5e-3 4.265-0.029 8.53-0.058 12.794-0.023 4.079-0.025 8.158-0.03 12.237-0.012 1.528-0.024 3.056-0.037 4.631 3e-3 1.425 6e-3 2.85 9e-3 4.318-4e-3 1.25-7e-3 2.501-0.011 3.79 0.507 4.719 2.01 8.064 5.367 11.421 3.282 0.207 3.282 0.207 7.584 0.148 1.605-0.017 3.211-0.033 4.865-0.05 0.861-0.013 1.723-0.026 2.611-0.039 2.694-0.04 5.388-0.064 8.082-0.084 7.662-0.058 15.323-0.135 22.984-0.242 4.684-0.065 9.367-0.105 14.051-0.13 1.785-0.014 3.57-0.037 5.355-0.071 2.499-0.045 4.998-0.057 7.497-0.068 1.422-0.017 2.844-0.034 4.309-0.052 4.483 0.72 5.856 2.106 8.662 5.588 5.571 7.774 5.494 18.751 5 28-1.258 7.443-1.258 7.443-6 11-2.435 0.375-2.435 0.375-5.206 0.374-1.053 7e-3 -2.106 0.014-3.191 0.021-1.149-7e-3 -2.299-0.015-3.484-0.023-1.215 4e-3 -2.43 8e-3 -3.681 0.011-4.022 8e-3 -8.044-5e-3 -12.066-0.02-2.79 0-5.58 0-8.369 2e-3 -5.849 0-11.697-0.011-17.545-0.029-7.508-0.023-15.016-0.023-22.524-0.016-5.761 3e-3 -11.521-4e-3 -17.282-0.013-2.769-4e-3 -5.538-5e-3 -8.307-4e-3 -3.864 0-7.729-0.012-11.593-0.028-0.576 1e-3 -0.576 1e-3 -3.49 7e-3 -1.05-7e-3 -2.1-0.014-3.182-0.021-0.914-2e-3 -1.828-4e-3 -2.769-7e-3 -2.311-0.254-2.311-0.254-5.311-2.254-1.221-6.973-1.148-13.971-1.147-21.034-3e-3 -1.185-7e-3 -2.371-0.011-3.593-0.011-3.959-0.015-7.918-0.019-11.876-6e-3 -2.844-0.012-5.688-0.019-8.532-0.021-9.319-0.032-18.638-0.042-27.957-4e-3 -3.209-8e-3 -6.417-0.012-9.626-0.017-13.336-0.032-26.672-0.039-40.009-2e-3 -3.453-4e-3 -6.907-6e-3 -10.361 0-0.859-1e-3 -1.717-1e-3 -2.602-8e-3 -13.936-0.034-27.872-0.066-41.808-0.033-14.311-0.051-28.623-0.055-42.935-2e-3 -8.035-0.011-16.069-0.036-24.103-0.023-7.547-0.028-15.093-0.017-22.639 0-2.776-6e-3 -5.552-0.02-8.327-0.017-3.776-0.01-7.551 3e-3 -11.326-0.011-1.11-0.022-2.22-0.034-3.363 0.027-3.052 0.027-3.052 0.521-7.909 4.076-3.057 4.587-3.375 9.276-3.381z"/>
<path transform="translate(1230,648)" d="m0 0c1.296 0.018 2.591 0.036 3.926 0.055 8.129 0.287 14.999 1.891 22.629 4.695 2.956 1.073 5.834 1.879 8.883 2.625 5.149 1.834 9.439 4.018 12.562 8.625 1.69 6.665 0.173 11.445-2.312 17.625-2.797 7.331-4.564 14.028-5.106 21.918-0.192 0.811-0.384 1.622-0.582 2.457-4 1-4 1-7.375-0.75-1.196-0.742-2.392-1.485-3.625-2.25-1.991-1.017-3.992-2.016-6-3-1.093-0.66-2.186-1.32-3.312-2-5.563-2.83-11.76-3.422-17.86-4.387-3.828-0.613-3.828-0.613-7.828-1.613-13.486-0.942-24.192 0.957-37 5h-2l-2 4c-2 2.25-2 2.25-4 4h-2c-3.69 10.608-4.594 19.433 0 30 1.853 2.823 3.877 5.357 6 8 0.567 0.904 1.134 1.807 1.719 2.738 2.912 4.165 6.263 7.668 9.843 11.262 0.709 0.713 1.417 1.425 2.146 2.159 4.682 4.585 9.198 7.968 15.171 10.755 2.849 1.459 4.231 3.544 6.121 6.086 1.829 1.164 3.663 2.32 5.531 3.418 3.13 2.005 5.988 4.281 8.907 6.582 5.016 3.918 9.955 7.021 15.562 10 1.703 1.287 3.371 2.621 5 4 4.107 3.149 8.179 6.127 12.562 8.875 7.848 5.2 12.063 11.967 16.438 20.125 0.621 0.695 1.243 1.39 1.883 2.105 3.043 4.161 4.555 8.7 6.305 13.52 0.355 0.954 0.71 1.908 1.076 2.891 5.628 15.164 8.343 37.769 1.627 53-1.243 2.193-2.566 4.339-3.891 6.484-0.703 1.904-1.369 3.821-2 5.75-1.571 4.555-3.33 7.039-7 10.25l-2 3c-3.767 5.65-8.509 9.107-14 13l-2.062 2.062c-2.417 2.417-5.062 4.097-7.938 5.938-0.846 0.66-1.691 1.32-2.562 2-4.297 2.5-8.634 3.675-13.415 4.973-3.023 1.027-3.023 1.027-7.023 4.027-19.755 4.906-50.983 5.607-69-4-1.971-0.812-3.949-1.606-5.938-2.375-5.594-2.299-10.186-5.044-15.062-8.625-0.866-0.619-1.733-1.237-2.625-1.875-1.375-2.125-1.375-2.125-1.313-5.875 1.225-5.55 3.153-10.523 5.5-15.688 1.438-3.562 1.438-3.562 2.188-7.937 1.487-5.503 3.852-9.897 8.25-13.625h5c1.333 1.667 2.667 3.333 4 5 2.17 1.402 4.39 2.601 6.684 3.789 2.316 1.211 2.316 1.211 4.539 2.723 16.421 8.799 40.483 7.127 57.929 2.761 5.184-1.715 8.618-3.832 12.848-7.273 0.887-0.619 1.774-1.237 2.688-1.875 5.461-5.019 9.104-10.089 9.621-17.625 0.34-10.687 0.304-18.626-6.309-27.5-0.825-1.361-1.65-2.722-2.5-4.125-0.825-1.279-1.65-2.558-2.5-3.875-0.231-0.376-0.231-0.376-1.398-2.281-3.276-5.2-6.746-8.852-11.602-12.719-0.633-0.637-1.266-1.274-1.918-1.93-2.15-2.138-4.392-4.002-6.77-5.882-0.875-0.693-1.75-1.385-2.652-2.098-0.878-0.69-1.756-1.379-2.66-2.09-0.806-0.638-1.611-1.276-2.441-1.934-4.084-3.212-8.219-6.205-12.559-9.066-0.392-0.32-0.392-0.32-2.375-1.938-2.625-2.062-2.625-2.062-6.125-4.187-5.061-3.083-9.62-6.791-14.254-10.473-3.246-2.402-3.246-2.402-6.984-4.527-3.73-2.144-5.64-4.494-8.262-7.875-2.536-2.666-4.983-4.987-7.938-7.188-7.143-6.56-11.571-16.376-14.062-25.624-1.066-3.931-2.193-7.711-3.605-11.536-4.021-13.412-2.729-33.198 3.605-45.652 0.423-1.886 0.798-3.783 1.125-5.688 2.378-10.076 9.928-17.099 17.875-23.312 1.176-1.011 2.351-2.021 3.562-3.062 4.553-3.397 9.616-5.009 14.973-6.762 3.465-1.176 3.465-1.176 6.785-2.746 4.465-1.735 8.762-2.238 13.492-2.618 0.92-0.079 1.839-0.159 2.786-0.241 8.809-0.706 17.568-0.817 26.402-0.571z"/>
<path transform="translate(1432.2 648.62)" d="m0 0c0.51-4e-3 0.51-4e-3 3.093-0.026 1.109 6e-3 2.217 0.013 3.36 0.019 1.176-5e-3 2.352-0.011 3.564-0.016 3.887-0.013 7.773-5e-3 11.66 6e-3 2.698-3e-3 5.397-5e-3 8.095-9e-3 5.654-5e-3 11.308 2e-3 16.962 0.016 7.259 0.017 14.516 7e-3 21.775-0.011 5.571-0.011 11.141-7e-3 16.712 1e-3 2.677 2e-3 5.354-1e-3 8.031-8e-3 3.735-8e-3 7.47 4e-3 11.205 0.021 1.112-6e-3 2.225-0.012 3.372-0.019 7.653 0.064 7.653 0.064 10.996 3.407 0.388 3.965 0.388 3.965 0.399 8.937 1e-3 0.439 1e-3 0.439 8e-3 2.656 2e-3 1.853-3e-3 3.706-0.016 5.558-0.016 2.838 0 5.675 0.019 8.513-2e-3 1.799-5e-3 3.599-0.011 5.398-4e-3 1.641-7e-3 3.282-0.011 4.973-0.388 3.965-0.388 3.965-3.388 6.965-3.764 0.385-3.764 0.385-8.57 0.401-0.875 7e-3 -1.75 0.014-2.652 0.021-2.896 0.02-5.792 0.019-8.688 0.019-2.009 0.012-4.017 0.025-6.026 0.04-5.291 0.037-10.582 0.057-15.874 0.072-8.473 0.025-16.947 0.064-25.42 0.122-2.966 0.016-5.932 0.02-8.898 0.023-1.81 0.01-3.62 0.02-5.431 0.031-1.585 4e-3 -3.17 8e-3 -4.804 0.013-3.637 0.258-3.637 0.258-5.637 2.258-0.186 2.891-0.238 5.791-0.23 8.687v2.674c3e-3 2.88 0.022 5.759 0.043 8.639 9e-3 1.968 0.017 3.935 0.026 5.903 0.059 10.804 0.155 21.61 0.474 32.409 0.011 0.511 0.011 0.511 0.067 3.096 0.199 5.198 0.612 9.262 3.62 13.592 10.75 5.375 25.745 3.279 37.474 3.401 2.456 0.028 4.911 0.075 7.366 0.122 1.448 0.02 2.895 0.04 4.387 0.06 3.829 0.423 5.783 1.037 8.773 3.417 1.658 4.532 0.658 8.403-0.406 13.008-0.954 4.809-1.308 9.693-1.738 14.574-1.06 4.236-2.365 5.827-5.856 8.418-2.988 0.637-2.988 0.637-6.312 0.687-6.717 0.247-13.254 0.963-19.914 1.852-3.287 0.401-6.533 0.646-9.836 0.836-6.072 0.768-9.466 2.755-14.25 6.375-5.108 6.811-3.994 16.514-3.988 24.602-3e-3 0.686-3e-3 0.686-0.013 4.16-6e-3 2.892-7e-3 5.785-2e-3 8.678 3e-3 4.427-0.021 8.852-0.046 13.279-2e-3 2.815-3e-3 5.63-2e-3 8.445-9e-3 1.322-0.018 2.644-0.028 4.006 3e-3 0.618 3e-3 0.618 0.019 3.743-1e-3 1.081-1e-3 2.163-2e-3 3.278 0.771 6.305 4.594 11.116 8.374 16.059 3.144 1.572 6.227 1.159 9.723 1.189 1.635 0.017 3.27 0.034 4.955 0.051 0.877 7e-3 1.755 0.013 2.659 0.02 2.739 0.021 5.479 0.048 8.218 0.077 5.815 0.06 11.63 0.112 17.445 0.163 6.737 0.059 13.473 0.121 20.209 0.192 2.705 0.026 5.409 0.047 8.114 0.068 1.635 0.017 3.27 0.033 4.955 0.05 0.723 7e-3 0.723 7e-3 4.382 0.038 3.34 0.152 3.34 0.152 5.34 1.152 1.941 5.823 1.228 12.284 1.25 18.375 0.021 1.423 0.042 2.846 0.063 4.312 2e-3 0.685 2e-3 0.685 0.015 4.149 0.01 1.253 0.019 2.507 0.029 3.798-0.416 3.93-0.648 5.463-3.357 8.366-3.845 0.492-7.245 0.652-11.093 0.599-1.143 4e-3 -2.287 8e-3 -3.465 0.012-3.791 7e-3 -7.58-0.022-11.371-0.052-2.63-5e-3 -5.259-7e-3 -7.888-8e-3 -5.517-6e-3 -11.033-0.028-16.549-0.064-7.075-0.045-14.148-0.06-21.223-0.064-5.432-4e-3 -10.864-0.019-16.296-0.039-2.608-8e-3 -5.216-0.015-7.825-0.02-3.646-9e-3 -7.292-0.031-10.938-0.058-1.08 0-2.161-1e-3 -3.275-2e-3 -0.497-5e-3 -0.497-5e-3 -3.016-0.03-0.862-5e-3 -1.723-9e-3 -2.611-0.014-2.893-0.307-4.889-0.861-7.45-2.26-2.515-3.492-3.375-5.934-3.383-10.214-9e-3 -1.036-0.018-2.071-0.027-3.139 5e-3 -1.131 0.01-2.262 0.016-3.427-6e-3 -1.207-0.012-2.414-0.019-3.657-0.016-4.055-0.011-8.109-7e-3 -12.163-7e-3 -2.902-0.016-5.805-0.025-8.707-0.023-7.89-0.025-15.78-0.024-23.67 1e-3 -6.579-8e-3 -13.158-0.016-19.736-0.021-16.4-0.022-32.8-0.015-49.2 6e-3 -14.253-0.015-28.506-0.048-42.759-0.034-14.628-0.048-29.256-0.044-43.884 2e-3 -8.216-4e-3 -16.431-0.028-24.647-0.022-7.72-0.021-15.44 0-23.161 3e-3 -2.84-2e-3 -5.68-0.016-8.52-0.018-3.864-6e-3 -7.726 0.015-11.59-0.013-1.135-0.025-2.271-0.038-3.441 0.086-7.517 0.086-7.517 2.875-10.282 2.8-0.807 5.048-1.18 7.959-1.184z"/>
<path transform="translate(1158.9 216.56)" d="m0 0c0.733-0.01 0.733-0.01 4.443-0.061 1.41 1e-3 2.82 2e-3 4.272 2e-3 1.289-1e-3 2.578-3e-3 3.906-5e-3 4.219 0.615 5.593 1.326 8.441 4.502 0.48 3.466 0.638 6.434 0.575 9.9 1e-3 0.508 1e-3 0.508 4e-3 3.081-1e-3 3.417-0.038 6.833-0.074 10.251-8e-3 2.445-0.014 4.891-0.018 7.337-0.012 5.271-0.04 10.543-0.08 15.814-0.063 8.332-0.089 16.663-0.109 24.995-0.045 16.181-0.125 32.362-0.211 48.544-0.109 20.593-0.205 41.187-0.26 61.781-0.023 8.286-0.067 16.572-0.126 24.858-0.033 5.151-0.049 10.301-0.061 15.452-0.01 2.393-0.026 4.785-0.049 7.178-0.031 3.261-0.038 6.52-0.038 9.781-0.015 0.952-0.03 1.903-0.046 2.884 0.023 4.08 0.219 6.701 2.396 10.208 3.956 3.651 6.98 3.035 12.292 2.986 0.847-7e-3 1.694-0.013 2.567-0.019 1.845-0.014 3.689-0.03 5.533-0.048 2.922-0.027 5.843-0.045 8.765-0.06 8.308-0.042 16.616-0.09 24.925-0.17 5.079-0.049 10.158-0.078 15.237-0.094 1.934-0.01 3.868-0.027 5.802-0.052 2.712-0.034 5.423-0.042 8.135-0.046 0.771-6e-3 0.771-6e-3 4.672-0.036 6.04 0.687 9.697 3.078 14.048 7.205 4.525 6.975 3.94 17.432 2.434 25.457-1.802 5.234-3.675 8.721-8.313 11.813-2.398 0.265-2.398 0.265-5.293 0.287-1.098 0.013-2.196 0.026-3.327 0.039-1.204 4e-3 -2.409 8e-3 -3.65 0.012-1.269 0.011-2.537 0.023-3.844 0.035-4.208 0.034-8.416 0.052-12.624 0.068-1.435 7e-3 -2.87 0.014-4.348 0.021-7.593 0.036-15.186 0.059-22.779 0.073-7.853 0.016-15.704 0.075-23.556 0.143-6.03 0.045-12.06 0.058-18.09 0.064-2.895 7e-3 -5.79 0.027-8.685 0.059-4.049 0.041-8.096 0.038-12.145 0.025-1.198 0.022-2.397 0.044-3.632 0.067-5.85-0.067-8.173-0.139-12.693-4.133-2.947-4.75-4.582-8.259-4.591-13.865-6e-3 -1.011-0.013-2.023-0.019-3.065 3e-3 -1.104 6e-3 -2.208 9e-3 -3.345-4e-3 -1.178-9e-3 -2.357-0.014-3.571-0.012-3.957-0.011-7.914-9e-3 -11.872-6e-3 -2.833-0.013-5.667-0.02-8.5-0.018-7.702-0.023-15.404-0.024-23.106-2e-3 -6.422-9e-3 -12.844-0.016-19.266-0.016-14.278-0.022-28.556-0.02-42.834v-2.596-2.599c1e-3 -13.913-0.018-27.827-0.046-41.741-0.029-14.28-0.043-28.56-0.041-42.84 0-8.02-5e-3 -16.04-0.027-24.06-0.019-7.536-0.019-15.073-5e-3 -22.609 3e-3 -2.772-2e-3 -5.545-0.014-8.317-0.016-3.772-6e-3 -7.542 9e-3 -11.314-0.01-1.108-0.021-2.217-0.031-3.359 0.028-3.049 0.028-3.049 0.525-7.901 6.158-4.619 12.439-3.474 19.938-3.438z"/>
<path transform="translate(753.01 602.87)" d="m0 0c1.085-3e-3 2.171-6e-3 3.289-9e-3 1.201 2e-3 2.402 5e-3 3.64 7e-3 1.256-2e-3 2.513-4e-3 3.808-6e-3 4.178-4e-3 8.356-1e-3 12.533 2e-3 2.889-1e-3 5.777-1e-3 8.666-3e-3 6.062-1e-3 12.125 1e-3 18.188 6e-3 7.792 5e-3 15.584 2e-3 23.376-4e-3 5.967-4e-3 11.935-2e-3 17.902 0 2.874 1e-3 5.748 0 8.622-2e-3 4.008-3e-3 8.017 1e-3 12.026 7e-3 0.6-1e-3 0.6-1e-3 3.639-7e-3 0.543 2e-3 0.543 2e-3 3.289 9e-3 0.475 0 0.475 0 2.876 1e-3 2.135 0.126 2.135 0.126 3.135 1.126 0.178 5.433 0.072 10.864-0.022 16.299-0.027 1.83-0.041 3.66-0.043 5.49-0.021 18.042-0.021 18.042-6.935 25.211-1.285 3.492-1.285 3.492-2.062 6.875-1.384 5.403-3.127 10.049-5.789 14.941-1.149 2.184-1.149 2.184-2.145 4.743-1.004 2.441-1.004 2.441-3.441 5.941-2.356 3.612-3.222 6.907-4.063 11.125-1.114 5.512-2.742 8.147-6.5 12.375-0.88 2.491-1.539 4.961-2.129 7.535-0.871 2.465-0.871 2.465-2.867 4.867-2.363 3.064-2.832 5.314-3.504 9.098-0.897 5.053-2.227 7.591-5.5 11.5-1.125 2.613-1.125 2.613-2 5.312-2.003 5.844-4.664 11.176-7.562 16.625-1.438 3.063-1.438 3.063-2.813 7.438-1.625 4.625-1.625 4.625-4.125 8.5-2.547 4.203-3.54 7.609-4.683 12.312-1.095 3.771-2.781 7.074-4.633 10.524-1.184 2.289-1.184 2.289-2.219 4.918-0.965 2.371-0.965 2.371-2.84 4.933-2.478 4.01-3.653 7.942-5.055 12.418-1.26 3.558-2.99 6.57-4.918 9.797-1.263 2.436-1.953 4.76-2.652 7.41-1.25 4.61-3.353 7.195-6.5 10.813-0.99 2.64-1.98 5.28-3 8-10.89-0.33-21.78-0.66-33-1-1.157-5.784-1.157-5.784 1-10 0.805-1.155 1.609-2.31 2.438-3.5 2.355-3.612 3.221-6.907 4.062-11.125 1.126-5.558 2.808-8.053 6.5-12.375 1.165-3.261 2.095-6.553 3.031-9.887 1.16-3.726 2.976-6.77 4.969-10.113 0.475-1.464 0.949-2.929 1.438-4.438 1.562-4.562 1.562-4.562 4-8.375 2.694-4.403 4.075-8.477 5.593-13.371 1.221-3.549 3.104-6.566 4.969-9.816 0.512-1.678 0.989-3.367 1.438-5.063 0.963-3.501 1.521-4.89 4-7.687 3.368-4.272 4.169-8.487 5.523-13.699 1.197-4.09 2.86-7.636 4.891-11.367 1.148-2.184 1.148-2.184 2.047-4.586 1.101-2.598 1.101-2.598 3.105-5.442 2.248-3.555 3.031-6.562 3.934-10.656 1.444-5.842 2.999-9.02 7.062-13.5 0.879-2.491 1.54-4.962 2.129-7.535 0.871-2.465 0.871-2.465 2.84-4.809 2.514-3.287 3.089-6.067 3.969-10.094 1.399-5.698 2.696-9.432 7.062-13.562 1.671-3.342 1.278-6.338 1-10-1.434-2.229-1.434-2.229-4-4-3.236-0.374-6.125-0.506-9.358-0.454-0.947-1e-3 -1.894-1e-3 -2.869-2e-3 -3.128 3e-3 -6.255 0.034-9.382 0.065-2.169 8e-3 -4.338 0.014-6.507 0.018-5.708 0.015-11.416 0.054-17.124 0.098-5.825 0.041-11.65 0.06-17.475 0.08-11.428 0.043-22.857 0.111-34.285 0.195-1.209-4.837-0.417-5.895 1.75-10.25 1.823-3.746 3.458-7.324 4.875-11.25 1.375-3.5 1.375-3.5 3.438-5.938 2.703-3.575 3.106-7.214 3.937-11.562 1.674-1.674 3.712-1.126 6.011-1.127z" fill="#FAFAFA"/>
<path transform="translate(464.43 273.81)" d="m0 0h2.488c2.504-2e-3 5.008-0.02 7.512-0.039 1.568-2e-3 3.136-4e-3 4.752-6e-3 1.449-4e-3 2.899-8e-3 4.392-0.012 3.424 0.243 3.424 0.243 5.424 2.243 0.186 2.64 0.235 5.29 0.227 7.938 1e-3 0.414 1e-3 0.414 1e-3 2.514-1e-3 2.797-0.017 5.593-0.032 8.39-4e-3 1.999-7e-3 3.998-9e-3 5.996-7e-3 4.313-0.019 8.626-0.036 12.939-0.027 6.82-0.039 13.639-0.049 20.459-0.024 15.715-0.068 31.43-0.112 47.144-0.04 14.387-0.077 28.773-0.096 43.16-0.01 6.778-0.03 13.557-0.057 20.336-0.015 4.221-0.022 8.442-0.026 12.662-4e-3 1.957-0.011 3.913-0.022 5.869-0.015 2.674-0.017 5.346-0.016 8.02-2e-3 0.747-2e-3 0.747-0.013 4.531 0.239 4.01 0.833 7.283 2.24 11.042 4.848 2.739 10.42 2.306 15.861 2.318 0.976 0.01 1.953 0.02 2.958 0.031 3.214 0.031 6.428 0.048 9.642 0.065 2.234 0.018 4.467 0.038 6.701 0.058 5.869 0.052 11.738 0.091 17.607 0.128 5.992 0.04 11.985 0.092 17.977 0.142 11.752 0.096 23.503 0.181 35.254 0.258 0.025 4.966 0.043 9.932 0.055 14.898 5e-3 1.691 0.012 3.382 0.021 5.072 0.012 2.426 0.017 4.851 0.022 7.276 5e-3 1.461 0.01 2.922 0.016 4.427-0.114 3.327-0.114 3.327-1.114 4.327-1.858 0.098-3.719 0.126-5.58 0.127-1.212 2e-3 -2.423 5e-3 -3.671 8e-3 -0.671-1e-3 -0.671-1e-3 -4.065-6e-3 -1.403 2e-3 -2.806 3e-3 -4.252 5e-3 -4.665 5e-3 -9.329 2e-3 -13.994-2e-3 -3.225 1e-3 -6.45 2e-3 -9.674 3e-3 -6.769 2e-3 -13.538 0-20.308-5e-3 -7.837-6e-3 -15.674-4e-3 -23.511 2e-3 -7.525 5e-3 -15.05 4e-3 -22.574 1e-3 -3.209 0-6.418 1e-3 -9.627 3e-3 -4.476 2e-3 -8.952-1e-3 -13.427-7e-3 -1.342 2e-3 -2.683 4e-3 -4.065 6e-3 -1.211-3e-3 -2.423-6e-3 -3.671-8e-3 -1.06-1e-3 -2.12-1e-3 -3.211-2e-3 -2.37-0.125-2.37-0.125-3.37-1.125-0.1-3.209-0.134-6.396-0.127-9.605-1e-3 -1.021-3e-3 -2.042-4e-3 -3.094-4e-3 -3.449-1e-3 -6.899 2e-3 -10.348-1e-3 -2.462-3e-3 -4.923-5e-3 -7.385-5e-3 -6.706-3e-3 -13.413 0-20.119 3e-3 -7.001 0-14.002-1e-3 -21.003-2e-3 -11.76 0-23.519 5e-3 -35.278 5e-3 -13.618 4e-3 -27.236-2e-3 -40.853-4e-3 -11.668-5e-3 -23.336-2e-3 -35.004 1e-3 -6.979 1e-3 -13.958-2e-3 -20.937-3e-3 -6.56-1e-3 -13.12 5e-3 -19.679 1e-3 -2.415 1e-3 -4.831-1e-3 -7.246-3e-3 -3.282 0-6.563 5e-3 -9.845-2e-3 -0.969-4e-3 -1.938-6e-3 -2.937 0.03-10.297 4.219-7.818 13.565-7.853z" fill="#FAFAFA"/>
<path transform="translate(825,401.25)" d="m0 0c5.109 0.958 6.025 2.6 9 6.75 0.547 0.413 0.547 0.413 3.312 2.5 2.688 2.5 2.688 2.5 3.329 5.168-0.982 5.105-4.525 7.756-8.203 11.144-1.482 1.42-2.96 2.843-4.434 4.27-0.702 0.678-1.405 1.355-2.129 2.053-3.379 3.361-6.097 7-8.875 10.865-4.879 6.723-10.051 13.18-16 19h-2l-2 4c-2 2.25-2 2.25-4 4h-2l-2 4c-1.996 1.671-3.997 3.337-6 5-3.43 3.773-6.704 7.645-9.973 11.559-1.061 1.259-2.121 2.518-3.215 3.816-1.004 1.204-2.008 2.408-3.042 3.648-2.77 2.977-2.77 2.977-6.77 4.977-0.683 1.66-1.348 3.328-2 5-2.135 2.444-2.135 2.444-4.762 4.984-0.954 0.936-1.909 1.872-2.892 2.836-1.001 0.967-2.002 1.934-3.034 2.93-6.027 5.841-11.822 11.57-16.847 18.307-1.955 2.593-4.121 4.949-6.34 7.318-4.207 4.559-8.158 9.263-12.02 14.117-2.242 2.671-4.541 5.143-7.105 7.508h-2l-2 4c-0.846 0.681-1.691 1.361-2.562 2.062-3.122 2.668-5.394 5.242-7.938 8.438-3.219 4.042-6.487 7.234-10.5 10.5-0.701 1.052-1.403 2.104-2.125 3.188-1.875 2.812-1.875 2.812-5.875 4.812-0.679 1.662-1.344 3.329-2 5-2.227 2.552-2.227 2.552-4.98 5.238-1 0.986-2 1.971-3.03 2.987-1.048 1.019-2.097 2.038-3.178 3.087-8.967 8.778-17.287 17.704-25.124 27.5-11.418 14.142-11.418 14.142-16.688 19.188h-2l-2 4c-2 2.25-2 2.25-4 4h-2l-2 4c-1.746 2.04-3.544 4.036-5.375 6-0.478 0.516-0.478 0.516-2.898 3.125-1.576 1.661-3.167 3.307-4.801 4.91-3.127 3.19-5.822 6.725-8.61 10.211-2.317 2.755-4.739 5.24-7.316 7.754-2.796 2.766-5.585 5.54-8.375 8.312-0.73 0.722-1.459 1.443-2.211 2.186-6.375 6.347-12.261 12.999-17.914 20.002-3.218 3.955-6.478 7.852-9.891 11.641-1.618 1.869-3.083 3.866-4.547 5.859-3.062 3-3.062 3-6.874 4-5.345-1.276-7.513-3.72-11.11-7.738-2.078-2.262-2.078-2.262-6.078-5.262 0-6.025 1.001-6.641 5.062-10.812 1.001-1.043 2.001-2.086 3.032-3.161 0.959-0.999 1.918-1.998 2.906-3.027 1.365-1.574 2.721-3.156 4.062-4.75 0.485-0.536 0.485-0.536 2.938-3.25h2l2-4c0.846-0.681 1.691-1.361 2.562-2.062 3.122-2.668 5.394-5.242 7.938-8.438 3.219-4.042 6.487-7.234 10.5-10.5 0.585-0.892 1.17-1.784 1.773-2.703 2.548-3.773 5.419-6.92 8.539-10.235 0.606-0.644 1.212-1.289 1.837-1.953 4.51-4.769 9.13-9.422 13.789-14.047 6.682-6.639 12.75-13.434 18.666-20.76 13.162-16.291 13.162-16.291 18.396-21.302h2l2-4c2-2.25 2-2.25 4-4h2l2-4c1.767-2.06 3.586-4.078 5.438-6.062 0.968-1.043 1.936-2.086 2.933-3.161 1.848-1.952 3.728-3.876 5.629-5.777 2.242-2.75 4.446-5.527 6.648-8.309 2.278-2.606 4.63-4.57 7.352-6.691 1.648-1.878 3.293-3.759 4.914-5.66 2.428-2.724 4.99-5.276 7.586-7.84 3.764-3.728 7.377-7.501 10.812-11.531 2.534-2.956 5.169-5.82 7.793-8.696 1.895-2.273 1.895-2.273 3.782-5.148 2.334-3.451 4.925-6.429 7.738-9.5 0.962-1.06 1.923-2.119 2.914-3.211 2.461-2.414 2.461-2.414 4.461-2.414l2-4c2-2.25 2-2.25 4-4h2l2-4c1.725-2.019 3.502-3.995 5.312-5.938 0.945-1.019 1.89-2.039 2.864-3.089 1.805-1.901 3.633-3.781 5.488-5.633 3.745-3.751 7.125-7.799 10.398-11.965 3.63-4.449 7.905-8.333 11.993-12.359l5.82-5.766c0.484-0.476 0.484-0.476 2.934-2.883 6.71-6.665 12.476-13.541 17.941-21.242 3.404-4.581 7.48-8.446 11.555-12.426 2.378-2.382 4.585-4.818 6.757-7.387 0.485-0.546 0.485-0.546 2.938-3.312h2l2-4c1.996-1.671 3.997-3.337 6-5 3.429-3.648 6.575-7.39 9.438-11.5 2.562-2.5 2.562-2.5 6.562-3.25z" fill="#FAFAFA"/>
</svg>
