<?xml version="1.0" encoding="UTF-8"?>
<svg version="1.1" viewBox="0 0 2448 1112" xmlns="http://www.w3.org/2000/svg">
<path transform="translate(232.79 64.869)" d="m0 0c0.626-1e-3 0.626-1e-3 3.795-6e-3 4.257-6e-3 8.513-4e-3 12.77-3e-3 3.072-2e-3 6.143-5e-3 9.215-9e-3 6.731-6e-3 13.462-9e-3 20.192-0.01 10.076-1e-3 20.153-7e-3 30.229-0.015 17.169-0.013 34.339-0.021 51.508-0.026 17.41-5e-3 34.82-0.013 52.23-0.023 1.098 0 2.195-1e-3 3.327-2e-3 4.471-2e-3 8.942-5e-3 13.413-7e-3 58.035-0.034 116.07-0.055 174.1-0.073l37.647-0.012c93.335-0.031 186.67-0.058 280-0.075 21.646-4e-3 43.291-8e-3 64.937-0.012 2.717-1e-3 5.434-1e-3 8.151-2e-3 87.291-0.016 174.58-0.053 261.87-0.104 62.708-0.036 125.42-0.07 188.12-0.082 1.289-1e-3 2.578-1e-3 3.906-1e-3 28.29-6e-3 56.581-0.01 84.872-0.012 11.382-1e-3 22.764-2e-3 34.147-3e-3h3.775c40.171-5e-3 80.342-0.028 120.51-0.06 40.447-0.032 80.895-0.046 121.34-0.033 5.584 1e-3 11.167 3e-3 16.75 4e-3 1.095 0 2.19 1e-3 3.317 1e-3 17.365 4e-3 34.729-0.012 52.094-0.037 17.055-0.024 34.11-0.027 51.165-6e-3 10.012 0.011 20.023 6e-3 30.035-0.024 7.414-0.02 14.828-9e-3 22.242 0.015 2.995 5e-3 5.989-1e-3 8.984-0.018 4.045-0.021 8.088-5e-3 12.132 0.02 1.17-0.015 2.339-0.03 3.544-0.045 7.373 0.097 10.495 1.393 15.872 6.791 3.425 0.864 6.346 1.412 9.812 1.75 0.919 0.112 1.837 0.223 2.784 0.338 4.423 0.527 8.853 0.956 13.286 1.393 9.479 0.951 18.085 2.493 27.118 5.519 0.776 0.255 1.553 0.509 2.353 0.771 9.314 3.064 18.256 6.268 26.924 10.901 2.882 1.406 5.717 2.341 8.785 3.266 9.478 2.985 17.162 9.032 24.938 15.062 1.023 0.776 2.047 1.552 3.101 2.352 8.534 6.494 16.582 13.162 24.098 20.824 1.397 1.415 2.84 2.786 4.301 4.137 3.956 4.253 7.217 8.901 10.5 13.687 0.453 0.658 0.906 1.316 1.373 1.993 11.013 16.157 19.917 33.544 23.81 52.827 0.848 3.303 1.758 5.469 3.817 8.18 0.847 0.419 1.695 0.838 2.568 1.269 2.432 1.731 2.432 1.731 3.056 4.395 0 1.085-1e-3 2.171-1e-3 3.289 0.012 1.254 0.023 2.508 0.035 3.801-0.012 1.388-0.025 2.776-0.038 4.207 4e-3 0.736 4e-3 0.736 0.02 4.463 0.012 4.117 2e-3 8.233-0.017 12.35-0.015 4.468-1e-3 8.936 9e-3 13.404 0.013 7.84 8e-3 15.68-9e-3 23.52-0.026 11.658-0.023 23.316-0.014 34.974 0.013 19.61 4e-3 39.219-0.02 58.829-0.023 19.426-0.036 38.852-0.037 58.279v3.656c0 4.898-1e-3 9.796-1e-3 14.694 0 45.983-0.027 91.966-0.068 137.95-0.036 40.885-0.055 81.769-0.058 122.65v3.939c0 3.932-1e-3 7.864-1e-3 11.796 0 5.222-1e-3 10.445-1e-3 15.667v3.905c-3e-3 40.232-0.021 80.464-0.041 120.7-6e-3 13.36-0.012 26.719-0.015 40.078 0 1.204 0 2.409-1e-3 3.65 0 1.202 0 2.403-1e-3 3.642-5e-3 23.118-0.016 46.236-0.041 69.354-0.012 11.594-0.019 23.189-0.018 34.784-1e-3 7.733-8e-3 15.467-0.021 23.201-8e-3 4.413-0.012 8.827-7e-3 13.241 4e-3 4.743-6e-3 9.486-0.018 14.229 3e-3 1.386 7e-3 2.772 0.011 4.2-6e-3 1.256-0.011 2.513-0.017 3.808-1e-3 0.543-1e-3 0.543-3e-3 3.29-0.251 2.788-0.251 2.788-2.251 6.788-4.044 2.022-9.345 1.137-13.822 1.13-1.256 2e-3 -2.512 4e-3 -3.806 6e-3 -4.269 5e-3 -8.538 3e-3 -12.807 1e-3 -3.08 2e-3 -6.161 5e-3 -9.241 8e-3 -6.75 6e-3 -13.5 8e-3 -20.251 8e-3 -10.105 0-20.21 6e-3 -30.315 0.012-17.219 0.012-34.437 0.018-51.656 0.022-17.46 3e-3 -34.92 9e-3 -52.38 0.018-1.101 0-2.202 1e-3 -3.336 1e-3 -4.484 2e-3 -8.968 5e-3 -13.452 7e-3 -54.404 0.026-108.81 0.042-163.21 0.055-17.637 4e-3 -35.275 9e-3 -52.912 0.014-92.344 0.024-184.69 0.047-277.03 0.059-6.762 1e-3 -13.524 2e-3 -20.285 2e-3 -1.342 1e-3 -2.683 1e-3 -4.065 1e-3 -13.59 2e-3 -27.18 4e-3 -40.77 6e-3 -2.725 0-5.45 0-8.175 1e-3 -87.54 0.012-175.08 0.041-262.62 0.083-62.887 0.03-125.78 0.058-188.66 0.067-0.646 1e-3 -0.646 1e-3 -3.916 1e-3 -28.371 4e-3 -56.741 7e-3 -85.111 9e-3 -11.414 1e-3 -22.828 2e-3 -34.242 2e-3 -1.25 1e-3 -2.499 1e-3 -3.786 1e-3 -40.286 3e-3 -80.573 0.021-120.86 0.048-40.563 0.026-81.125 0.037-121.69 0.026-5.599-1e-3 -11.198-3e-3 -16.796-4e-3 -1.098 0-2.195-1e-3 -3.326-1e-3 -17.415-3e-3 -34.831 0.01-52.246 0.03-17.103 0.02-34.206 0.022-51.309 5e-3 -10.041-0.01-20.082-6e-3 -30.123 0.019-7.434 0.016-14.867 7e-3 -22.301-0.013-3.004-4e-3 -6.008 1e-3 -9.012 0.015-4.055 0.017-8.109 4e-3 -12.163-0.017-0.588 6e-3 -0.588 6e-3 -3.562 0.038-7.931-0.088-7.931-0.088-12.345-3.131-0.798-0.835-1.595-1.669-2.416-2.529-2.982-1.085-2.982-1.085-6.079-1.707-1.137-0.23-2.275-0.46-3.447-0.698-4.304-0.737-8.611-1.339-12.945-1.872-28.276-3.535-56.234-13.849-80.529-28.723-0.866-0.527-1.732-1.055-2.625-1.598-10.686-6.592-20.579-13.359-29.375-22.402-0.602-0.618-1.204-1.236-1.824-1.873-10.245-10.58-19.727-20.789-26.524-33.967-1.474-2.819-3.043-5.517-4.715-8.222l-2.937-4.938c-0.253-0.397-0.253-0.397-1.532-2.406-4.717-8.184-6.168-16.842-7.732-26.049-0.185-1.058-0.37-2.115-0.561-3.205-0.077-0.478-0.077-0.478-0.471-2.895-1.204-4.179-4.309-5.898-7.704-8.445-0.501-2.661-0.501-2.661-0.501-5.948-5e-3 -0.626-5e-3 -0.626-0.029-3.797 5e-3 -0.693 5e-3 -0.693 0.029-4.203-5e-3 -1.471-0.011-2.943-0.017-4.459-0.011-4.113-4e-3 -8.225 0.01-12.338 0.011-4.464-1e-3 -8.927-0.01-13.391-0.013-7.833-0.011-15.665 0-23.498 0.018-11.647 0.012-23.294 2e-3 -34.941-0.017-20.797-0.011-41.594 4e-3 -62.392 0.013-18.2 0.018-36.399 0.015-54.599v-3.653c-1e-3 -4.893-2e-3 -9.786-2e-3 -14.679-7e-3 -45.935 8e-3 -91.87 0.034-137.8 0.023-40.844 0.029-81.687 0.019-122.53-3e-3 -10.458-6e-3 -20.916-8e-3 -31.373 0-1.288-1e-3 -2.575-1e-3 -3.901-8e-3 -34.091-1e-3 -68.182 0.01-102.27 1e-3 -3.667 2e-3 -7.333 3e-3 -11 1e-3 -2.432 2e-3 -4.865 2e-3 -7.297 6e-3 -18.192 5e-3 -36.384 0-54.576-5e-3 -20.677 1e-3 -41.354 0.021-62.032 0.011-11.583 0.014-23.167 5e-3 -34.751-5e-3 -7.725 0-15.45 0.015-23.175 8e-3 -4.41 0.011-8.82 1e-3 -13.23-0.01-4.736 2e-3 -9.473 0.017-14.21-6e-3 -1.387-0.013-2.774-0.02-4.203 8e-3 -1.253 0.015-2.506 0.023-3.797 1e-3 -0.543 1e-3 -0.543 2e-3 -3.287 0.376-2.661 0.376-2.661 3.376-5.661 4.036-2.018 9.319-1.138 13.788-1.131zm834.21 281.13c-2.859 2.022-5.722 4.036-8.59 6.043-2.578 2.094-4.34 4.368-6.41 6.957-0.963 0.799-1.926 1.599-2.918 2.422-15.398 12.88-25.036 32.865-27.082 52.578-0.145 4.248-0.14 8.494-0.134 12.744-2e-3 1.274-5e-3 2.549-7e-3 3.862-6e-3 4.265-5e-3 8.531-5e-3 12.797-3e-3 3.06-6e-3 6.121-0.01 9.181-8e-3 7.449-0.011 14.898-0.011 22.347-1e-3 6.059-3e-3 12.118-6e-3 18.177-9e-3 17.197-0.014 34.395-0.013 51.592v2.808 2.811c1e-3 15.02-9e-3 30.041-0.023 45.062-0.014 15.442-0.021 30.884-0.02 46.326 0 8.662-3e-3 17.324-0.013 25.985-0.011 8.152-0.01 16.303-3e-3 24.454 1e-3 2.985-1e-3 5.97-7e-3 8.955-8e-3 4.089-3e-3 8.178 4e-3 12.266-5e-3 1.169-0.01 2.338-0.015 3.542 0.047 11.554 0.674 23.115 5.7 33.654 0.299 0.64 0.299 0.64 1.809 3.879 0.578 1.174 1.157 2.348 1.754 3.558 0.473 1.015 0.946 2.029 1.433 3.074 5.155 9.629 13.106 18.018 20.567 25.926 0.303 0.324 0.303 0.324 1.836 1.961 3.403 3.527 6.996 6.603 10.98 9.457 1.498 1.085 2.963 2.216 4.398 3.383 17.91 14.118 41.805 22.97 64.425 23.751 1.213 0.042 2.426 0.084 3.676 0.127 17.791 0.549 35.594 0.486 53.392 0.488 3.087 1e-3 6.174 3e-3 9.261 6e-3 10.8 9e-3 21.599 0.013 32.399 0.012 10.029 0 20.057 0.01 30.086 0.026 8.664 0.013 17.327 0.019 25.991 0.018 5.153 0 10.305 3e-3 15.458 0.013 4.827 0.01 9.655 0.01 14.482 3e-3 1.765-1e-3 3.53 1e-3 5.296 7e-3 21.8 0.07 21.8 0.07 27.507-5.189 2.785-4.024 5.163-8.078 7.418-12.414 0.898-1.705 1.842-3.387 2.84-5.036 6.172-10.374 10.95-21.573 15.695-32.652 1.695-3.611 3.632-6.667 5.86-9.961 0.866-1.893 1.68-3.811 2.437-5.75 2.254-5.579 4.819-10.9 7.563-16.25 1.527-3.083 3.052-6.168 4.574-9.254 1.426-2.746 1.426-2.746 3.801-6.371 2.356-4.893 2.25-7.957 1.625-13.375-1.959-2.767-1.959-2.767-5-5-3.255-0.482-5.978-0.658-9.228-0.605-0.932-5e-3 -1.865-0.01-2.825-0.015-3.127-0.01-6.252 0.015-9.378 0.04-2.24 0-4.481-3e-3 -6.722-7e-3 -4.827-6e-3 -9.653 4e-3 -14.48 0.026-7.636 0.034-15.271 0.03-22.907 0.02-17.594-0.017-35.188 0.016-52.781 0.049-16.111 0.03-32.222 0.049-48.333 0.028-7.587-8e-3 -15.173 8e-3 -22.76 0.042-4.727 0.016-9.454 0.012-14.181 3e-3 -2.187-1e-3 -4.374 8e-3 -6.562 0.025-22.86 0.175-22.86 0.175-31.738-8.403-12.173-18.519-12.254-39.458-12.267-60.772-4e-3 -1.849-9e-3 -3.698-0.015-5.548-0.013-4.989-0.019-9.978-0.024-14.968-3e-3 -3.122-7e-3 -6.244-0.011-9.365-0.014-9.783-0.023-19.565-0.027-29.347-5e-3 -11.268-0.022-22.535-0.051-33.802-0.022-8.732-0.032-17.463-0.033-26.195-1e-3 -5.206-7e-3 -10.413-0.025-15.619-0.017-4.893-0.019-9.786-0.01-14.679 1e-3 -1.791-4e-3 -3.582-0.013-5.373-0.077-14.687 1.214-23.899 11.496-34.785 15.7-9.557 36.18-9.191 53.961-9.027 2.047 7e-3 4.094 0.013 6.141 0.018 4.369 0.013 8.738 0.035 13.107 0.064 6.914 0.046 13.827 0.067 20.741 0.084 17.157 0.047 34.314 0.125 51.471 0.211 13.371 0.067 26.741 0.124 40.111 0.154 6.869 0.017 13.737 0.052 20.605 0.102 4.271 0.026 8.541 0.036 12.811 0.042 1.975 6e-3 3.95 0.018 5.925 0.039 2.702 0.026 5.403 0.028 8.106 0.024 0.755 4e-3 0.755 4e-3 4.574 0.023 6.643-0.744 11.593-2.888 16.572-7.484 2.89-4.204 4.631-8.22 6.468-12.949 1.592-3.79 3.631-7.136 5.805-10.613 2.43-4.012 4.426-8.225 6.477-12.438 0.68-1.32 1.361-2.64 2.062-4 1.453-2.999 2.693-5.898 3.875-9 1.84-4.716 4.329-8.732 7.063-13 2.427-4.558 4.628-9.234 6.882-13.879 5.953-12.121 5.953-12.121 9.618-17.058 2.993-4.864 3.49-7.453 2.5-13.063-2.608-3.358-4.783-4.811-9.009-5.468-3.985-0.21-7.941-0.245-11.931-0.232-1.543-0.015-3.085-0.03-4.674-0.045-4.294-0.035-8.587-0.048-12.881-0.051-4.649-8e-3 -9.298-0.045-13.947-0.077-9.231-0.059-18.462-0.088-27.694-0.106-7.774-0.015-15.549-0.039-23.324-0.068-29.925-0.108-59.85-0.14-89.776-0.138-10.029 0-20.058-0.012-30.087-0.026-9.856-0.013-19.712-0.018-29.567-0.018-5.808 1e-3 -11.616-2e-3 -17.424-0.013-5.406-0.01-10.813-0.01-16.22-2e-3 -1.958 1e-3 -3.916-2e-3 -5.874-8e-3 -36.591-0.107-71.772 5.193-101.59 28.252zm578.62-12.248c-2.603 3.602-4.348 7.414-6.062 11.498-0.374 0.86-0.748 1.72-1.134 2.605-3.033 7.033-5.878 14.142-8.688 21.266-2.017 5.112-4.141 10.138-6.463 15.117-5.161 11.158-9.904 22.509-14.555 33.887-2.367 5.756-4.938 11.306-7.722 16.875-2.046 4.648-4.023 9.323-6 14-0.529 1.202-1.057 2.403-1.602 3.641-1.398 3.359-1.398 3.359-2.711 8.047-1.47 5.087-3.719 9.559-6.148 14.25-1.963 3.905-3.616 7.9-5.266 11.945-5.13 12.558-10.62 24.986-16.18 37.359-4.182 9.31-8.16 18.671-11.948 28.147-2.151 5.343-4.553 10.463-7.145 15.611-0.845 2.091-1.66 4.195-2.438 6.313-1.916 5.085-4.027 10.017-6.312 14.945-2.621 5.749-4.976 11.615-7.36 17.465-2.586 6.297-5.332 12.514-8.14 18.715-7.214 15.935-13.984 32.061-20.753 48.189-1.031 2.454-2.065 4.908-3.099 7.361-0.346 0.822-0.692 1.643-1.049 2.489-0.686 1.628-1.372 3.255-2.058 4.882-1.808 4.288-3.59 8.585-5.354 12.891-1.755 4.23-3.658 8.365-5.625 12.5-3.625 7.685-6.876 15.505-10.122 23.355-3.453 8.349-7.032 16.634-10.69 24.895-1.815 4.103-3.627 8.208-5.438 12.313-0.472 1.071-0.945 2.142-1.432 3.246-3.562 8.097-7.023 16.231-10.404 24.406-1.458 3.407-3.046 6.673-4.726 9.973-2.509 5.442-3.27 11.169-2 17.062 2.058 2.589 3.253 3.851 6.537 4.506 0.961 3e-3 1.923 6e-3 2.914 9e-3 1.108 0.012 2.215 0.025 3.357 0.038 1.21-6e-3 2.42-0.013 3.668-0.019 1.278 8e-3 2.557 0.017 3.874 0.026 4.235 0.022 8.469 0.016 12.704 7e-3 2.94 5e-3 5.879 0.011 8.818 0.018 6.166 0.011 12.331 6e-3 18.496-8e-3 7.905-0.018 15.809 6e-3 23.714 0.041 6.072 0.022 12.144 0.021 18.216 0.012 2.915-1e-3 5.829 6e-3 8.744 0.021 4.074 0.017 8.148 3e-3 12.223-0.02 1.206 0.012 2.413 0.024 3.656 0.036 5.229-0.06 8.206-0.111 12.69-2.97 7.486-8.452 11.159-17.851 15.264-28.259 4.047-10.209 8.31-20.135 13.363-29.892 2.666-5.366 4.685-10.932 6.762-16.546 3.352-8.509 7.195-16.769 11.132-25.019 1.868-3.981 1.868-3.981 3.297-7.868 1.571-3.113 1.571-3.113 3.667-4.291 3.731-1.056 7.055-1.08 10.937-1.089 0.402-3e-3 0.402-3e-3 2.435-0.014 2.691-0.013 5.381-0.011 8.072-9e-3 1.93-6e-3 3.861-0.013 5.791-0.021 5.242-0.017 10.483-0.022 15.725-0.023 4.376-2e-3 8.753-0.01 13.129-0.017 10.325-0.016 20.65-0.021 30.975-0.02 10.65 2e-3 21.3-0.019 31.95-0.051 9.145-0.026 18.29-0.037 27.435-0.036 5.461 1e-3 10.922-5e-3 16.384-0.026 5.136-0.019 10.273-0.019 15.409-5e-3 1.884 2e-3 3.768-3e-3 5.651-0.015 2.575-0.015 5.149-6e-3 7.724 0.01 1.439-1e-3 2.879-3e-3 4.363-4e-3 4.555 0.578 7.197 1.845 10.924 4.498 1.972 3.354 3.494 6.442 5 10 0.522 1.169 1.044 2.338 1.582 3.543 2.923 6.58 5.736 13.205 8.507 19.85 3.064 7.344 6.27 14.529 9.911 21.607 1.376 2.983 2.685 5.989 4 9 0.68 1.464 1.361 2.929 2.062 4.438 1.391 3.275 2.408 6.114 3.313 9.5 1.337 4.703 3.465 8.438 6.082 12.546 1.55 2.528 2.834 5.088 4.105 7.766 2.369 4.813 4.773 9.448 9.769 11.889 2.781 0.897 4.947 1.12 7.861 1.135 0.512 5e-3 0.512 5e-3 3.105 0.03 1.114 1e-3 2.227 2e-3 3.374 2e-3 1.181 9e-3 2.362 0.017 3.579 0.026 3.905 0.024 7.81 0.033 11.714 0.039 2.714 9e-3 5.428 0.018 8.142 0.028 5.688 0.016 11.377 0.024 17.065 0.027 7.292 5e-3 14.583 0.043 21.874 0.088 5.605 0.03 11.209 0.037 16.814 0.038 2.688 5e-3 5.377 0.017 8.065 0.038 3.759 0.027 7.516 0.022 11.275 9e-3 0.555 8e-3 0.555 8e-3 3.367 0.045 5.122-0.048 7.727-0.187 12.124-3.027 3.284-3.721 3.102-5.818 2.833-10.593-0.935-5.4-3.2-10.097-5.523-15.024-3.375-7.703-6.212-15.471-8.813-23.469-0.989-2.942-2.06-5.792-3.25-8.656-1.977-4.765-3.412-9.639-4.812-14.601-1.361-3.959-3.251-7.533-5.125-11.274-1.026-2.691-2.005-5.4-2.938-8.125-0.519-1.495-1.039-2.991-1.574-4.531-0.884-2.581-1.764-5.164-2.633-7.75-2.942-8.565-6.528-16.775-10.191-25.049-2.92-6.658-5.41-13.336-7.59-20.275-1.043-3.176-2.253-6.201-3.574-9.27-1.91-4.439-3.506-8.904-5-13.5-1.852-5.687-3.956-11.17-6.313-16.664-1.545-3.689-2.885-7.437-4.226-11.203-0.909-2.489-1.889-4.934-2.899-7.383-1.724-4.233-3.155-8.527-4.562-12.875-1.31-3.999-2.615-7.605-4.5-11.375-2.443-4.886-4.034-9.881-5.719-15.07-4.333-13.289-9.441-26.258-14.906-39.117-2.046-4.867-3.723-9.792-5.344-14.813-1.054-3.065-2.259-6.02-3.531-9-1.691-3.957-3.178-7.905-4.5-12-1.303-4.034-2.764-7.918-4.438-11.812-2.483-5.805-4.427-11.73-6.379-17.731-1.183-3.457-1.183-3.457-3.183-7.957-1.606-3.612-2.824-6.996-4-10.75-2.984-9.204-6.778-18.062-10.547-26.968-2.999-7.12-5.777-14.271-8.32-21.568-2.543-7.213-5.355-14.326-8.258-21.401-1.302-3.216-2.373-6.411-3.313-9.75-1.044-3.644-2.373-6.952-4-10.375-1.832-3.887-3.24-7.687-4.437-11.813-7.088-23.823-7.088-23.823-16.125-31.875-4.456-1.889-8.284-2.253-13.097-2.261-1.422-7e-3 -2.844-0.014-4.308-0.021-0.775 1e-3 -0.775 1e-3 -4.695 7e-3 -0.82-2e-3 -0.82-2e-3 -4.968-0.015-4.49-0.013-8.98-0.014-13.469-0.011-3.75 1e-3 -7.5-4e-3 -11.25-9e-3 -8.847-0.011-17.694-0.012-26.541-6e-3 -9.124 6e-3 -18.248-6e-3 -27.372-0.027-7.837-0.018-15.675-0.024-23.513-0.021-4.68 2e-3 -9.359 0-14.038-0.014-5.217-0.015-10.433-6e-3 -15.65 6e-3 -1.549-8e-3 -3.098-0.015-4.695-0.023-1.421 7e-3 -2.843 0.014-4.307 0.021-0.617 0-0.617 0-3.737-1e-3 -6.757 0.754-10.567 4.103-14.736 9.127zm297.16 27.236c-22.18 24.94-26.67 52.69-24.789 85.012 2.276 26.189 16.682 48.955 36.421 65.945 3.467 2.778 6.987 5.441 10.579 8.055 0.88 0.659 1.76 1.318 2.668 1.996 16.109 11.215 34.675 14.349 53.832 14.254 1.553 8e-3 3.106 0.016 4.707 0.024 24.883-0.043 45.973-9.964 63.793-27.274 0.825-0.784 1.65-1.567 2.5-2.375 0.825-0.866 1.65-1.732 2.5-2.625 0.643-0.637 1.286-1.273 1.949-1.93 6.149-6.374 10.461-13.451 14.789-21.117 2.262-3.953 2.262-3.953 4.387-6.875 2.425-3.981 3.478-8.094 4.562-12.578 0.212-0.829 0.424-1.658 0.643-2.512 6.779-26.903 3.895-56.269-10.065-80.375-0.747-1.192-1.495-2.384-2.265-3.613-0.604-0.976-1.207-1.952-1.829-2.957-8.247-12.245-19.848-23.023-32.171-31.043-0.945-0.674-1.89-1.348-2.864-2.043-42.427-28.734-96.101-11.746-129.35 22.031zm-1528.9-32.238c-2.993 5.187-2.998 9.495-2.991 15.365-1e-3 0.829-1e-3 1.658-1e-3 2.512 0 2.795 7e-3 5.59 0.014 8.385 2e-3 2.017 3e-3 4.034 3e-3 6.051 4e-3 5.556 0.013 11.113 0.024 16.67 0.011 5.987 0.015 11.974 0.021 17.961 0.013 13.097 0.034 26.194 0.056 39.29 0.014 8.173 0.027 16.345 0.039 24.518 0.034 22.613 0.07 45.227 0.113 67.841 3e-3 1.447 6e-3 2.895 9e-3 4.387 2e-3 1.451 5e-3 2.902 8e-3 4.398 5e-3 2.941 0.011 5.882 0.017 8.823 2e-3 1.458 5e-3 2.917 8e-3 4.42 0.045 23.654 0.076 47.309 0.101 70.963 0.026 24.267 0.063 48.534 0.112 72.801 0.027 13.633 0.049 27.265 0.059 40.898 8e-3 11.605 0.027 23.21 0.059 34.815 0.016 5.924 0.027 11.849 0.025 17.773-1e-3 5.419 0.011 10.838 0.034 16.257 6e-3 1.965 7e-3 3.93 2e-3 5.894-5e-3 2.663 8e-3 5.325 0.025 7.987 2e-3 1.482 5e-3 2.963 7e-3 4.489 0.395 3.892 0.972 5.72 3.381 8.752 4.265 3.199 5.004 3.375 10.022 3.378 0.621 4e-3 0.621 4e-3 3.762 0.023 0.683-3e-3 0.683-3e-3 4.14-0.02 1.45 5e-3 2.899 9e-3 4.393 0.014 4.029 0.01 8.057 7e-3 12.086-3e-3 4.343-6e-3 8.686 4e-3 13.029 0.012 8.51 0.014 17.021 0.011 25.531 2e-3 6.915-7e-3 13.831-8e-3 20.746-4e-3 0.983 0 1.967 0 2.98 1e-3 1.997 1e-3 3.994 2e-3 5.992 3e-3 18.741 8e-3 37.483-1e-3 56.224-0.018 16.089-0.013 32.177-0.011 48.265 3e-3 18.672 0.016 37.343 0.023 56.015 0.013 1.991-1e-3 3.981-2e-3 5.971-2e-3 0.98-1e-3 1.959-1e-3 2.968-2e-3 6.908-2e-3 13.816 2e-3 20.725 9e-3 8.417 8e-3 16.834 6e-3 25.251-0.01 4.297-8e-3 8.593-0.011 12.889-1e-3 4.653 8e-3 9.306-2e-3 13.959-0.017 0.682 3e-3 0.682 3e-3 4.133 0.02 1.244-7e-3 2.489-0.015 3.77-0.023 1.075-1e-3 2.149-1e-3 3.256-2e-3 4.91-0.638 7.451-2.934 10.893-6.376 1.434-4.302 1.156-8.577 1.161-13.068 5e-3 -1.034 0.01-2.068 0.015-3.134 0.014-3.429 0.021-6.857 0.027-10.286 5e-3 -2.38 0.011-4.761 0.017-7.141 0.011-4.994 0.016-9.989 0.02-14.983 5e-3 -6.399 0.029-12.798 0.058-19.197 0.018-4.919 0.024-9.837 0.025-14.755 3e-3 -2.359 0.011-4.718 0.024-7.077 0.017-3.301 0.016-6.602 9e-3 -9.903 9e-3 -0.974 0.018-1.949 0.028-2.952-0.032-5.256-0.391-9.113-3.384-13.504-5.654-4.24-8.874-4.126-15.838-4.131-0.915-2e-3 -1.829-4e-3 -2.771-7e-3 -3.077-6e-3 -6.154-5e-3 -9.231-4e-3 -2.201-3e-3 -4.402-6e-3 -6.602-0.01-4.746-8e-3 -9.492-0.013-14.237-0.017-7.5-5e-3 -14.999-0.022-22.499-0.041-2.565-6e-3 -5.13-0.013-7.696-0.019-1.284-3e-3 -2.569-6e-3 -3.893-9e-3 -17.464-0.043-34.929-0.076-52.393-0.088-11.774-8e-3 -23.549-0.031-35.323-0.069-6.234-0.02-12.468-0.032-18.702-0.027-5.862 4e-3 -11.723-9e-3 -17.584-0.037-2.154-7e-3 -4.309-7e-3 -6.463 0-2.935 9e-3 -5.869-7e-3 -8.804-0.029-0.822-1e-3 -0.822-1e-3 -4.982-7e-3 -3.982-0.505-3.982-0.505-6.512-1.889-2.326-4.138-2.014-8.36-1.969-12.98-3e-3 -0.534-3e-3 -0.534-0.017-3.233-0.013-3.588 2e-3 -7.174 0.017-10.762-4e-3 -2.567-9e-3 -5.134-0.016-7.702-0.012-5.536-0.012-11.073-2e-3 -16.61 0.016-8.763 2e-3 -17.525-0.016-26.288-0.031-17.035-0.032-34.07-0.03-51.106 1e-3 -21.643-9e-3 -43.287-0.049-64.931-0.015-8.701-0.014-17.403-2e-3 -26.104 4e-3 -5.431-3e-3 -10.862-0.014-16.293-2e-3 -2.508 0-5.015 9e-3 -7.523 0.039-12.693-0.057-24.728-3.381-37.084-0.114-0.448-0.114-0.448-0.687-2.717-5.772-21.495-16.565-39.721-32.313-55.283-1.032-1.208-2.063-2.416-3.125-3.66-6.109-7.096-13.857-11.719-21.832-16.5-2.309-1.396-4.566-2.88-6.793-4.402-12.48-7.158-49.511-24.009-62.375-12.688zm409.19 0.035c-3.272 5.091-3.193 9.371-3.198 15.278-2e-3 0.823-4e-3 1.646-6e-3 2.494-6e-3 2.776-4e-3 5.552-3e-3 8.327-2e-3 2.004-5e-3 4.007-9e-3 6.01-8e-3 5.518-0.01 11.037-0.01 16.556-2e-3 5.946-0.01 11.892-0.017 17.838-0.013 13.009-0.019 26.017-0.024 39.025-2e-3 8.118-7e-3 16.236-0.011 24.354-0.012 22.467-0.023 44.933-0.026 67.399 0 1.438 0 2.876-1e-3 4.358v4.369c-1e-3 2.922-1e-3 5.844-2e-3 8.766v4.392c-4e-3 23.494-0.022 46.989-0.045 70.483-0.024 24.107-0.036 48.213-0.037 72.32-1e-3 13.541-7e-3 27.082-0.025 40.623-0.016 11.528-0.021 23.057-0.012 34.585 3e-3 5.884 3e-3 11.769-0.011 17.653-0.013 5.384-0.012 10.769 0 16.153 2e-3 1.95-1e-3 3.9-0.01 5.851-0.011 2.647-3e-3 5.294 9e-3 7.941-1e-3 1.471-2e-3 2.943-2e-3 4.459 0.497 5.291 1.97 9.279 5.356 13.384 4.663 2.468 9.106 2.17 14.306 2.146 0.57 6e-3 0.57 6e-3 3.456 0.031 3.77 0.028 7.54 0.026 11.31 0.022 2.622 7e-3 5.244 0.016 7.865 0.026 5.496 0.015 10.992 0.014 16.488 3e-3 7.041-0.011 14.08 0.023 21.121 0.069 5.415 0.03 10.83 0.031 16.245 0.025 2.595 1e-3 5.191 0.012 7.786 0.032 3.632 0.024 7.262 0.011 10.893-0.012 1.071 0.015 2.141 0.03 3.244 0.046 5.085-0.072 8.448-0.359 12.463-3.65 3.85-4.257 3.966-6.809 3.978-12.354 5e-3 -1.309 0.01-2.619 0.015-3.968 0-0.724 0-0.724 1e-3 -4.386 5e-3 -1.531 9e-3 -3.063 0.014-4.64 0.011-4.263 0.017-8.525 0.022-12.787 6e-3 -4.594 0.018-9.187 0.028-13.781 0.025-11.107 0.039-22.215 0.052-33.323 4e-3 -3.141 8e-3 -6.281 0.012-9.422 0.025-19.525 0.047-39.049 0.06-58.574 3e-3 -4.525 6e-3 -9.05 9e-3 -13.575 0-1.125 1e-3 -2.25 2e-3 -3.408 0.013-18.169 0.046-36.338 0.087-54.506 0.043-18.679 0.066-37.357 0.072-56.035 3e-3 -10.477 0.015-20.953 0.048-31.43 0.028-8.935 0.039-17.869 0.028-26.804-6e-3 -4.548-3e-3 -9.096 0.022-13.644 0.133-25.444-0.213-51.177-11.609-74.504-0.316-0.665-0.316-0.665-1.914-4.031-1.962-4.029-3.998-8.005-6.086-11.969-0.555-1.062-1.109-2.124-1.68-3.219-4.465-8.117-10.128-14.919-16.32-21.781-0.646-0.741-1.292-1.482-1.957-2.246-6.033-6.532-13.596-11.001-21.043-15.754-1.32-0.907-2.64-1.815-4-2.75-10.302-5.795-21.589-9.346-33-12.25-1.119-0.3-2.238-0.601-3.391-0.91-23.687-5.814-23.687-5.814-30.543 0.695z" fill="#E1C819"/>
<path transform="translate(1665.7 334.87)" d="m0 0c1.404-4e-3 2.807-9e-3 4.253-0.013 1.545 1e-3 3.089 1e-3 4.68 1e-3 0.812-1e-3 0.812-1e-3 4.918-0.01 4.457-9e-3 8.913-0.011 13.37-0.012 3.718 0 7.435-4e-3 11.153-8e-3 8.77-8e-3 17.539-0.01 26.309-0.01 9.053 1e-3 18.105-0.01 27.158-0.025 7.768-0.013 15.535-0.019 23.302-0.018 4.642 0 9.283-3e-3 13.924-0.013 5.174-0.012 10.348-7e-3 15.523-1e-3 1.542-6e-3 3.085-0.011 4.674-0.017 1.406 4e-3 2.812 8e-3 4.261 0.012 1.224 0 2.448-1e-3 3.709-1e-3 3.092 0.249 3.092 0.249 7.092 2.249 1.986 3.813 3.214 7.694 4.375 11.812 1.035 3.593 2.326 6.753 4.063 10.063 2.354 4.505 3.934 9.029 5.468 13.867 1.205 3.589 2.598 7.066 4.032 10.57 2.102 5.158 3.975 10.326 5.687 15.625 1.275 3.939 2.535 7.373 4.438 11.063 1.856 3.833 2.806 7.191 3.812 11.312 1.489 5.919 3.516 10.522 6.613 15.735 2.453 4.79 3.786 9.892 5.239 15.058 1.273 3.895 1.273 3.895 3.207 7.742 2.339 4.702 3.924 9.409 5.504 14.403 2.228 6.881 4.624 13.569 7.519 20.203 1.013 2.474 1.771 4.909 2.481 7.484 1.465 5.204 3.767 9.898 6.086 14.77 1.807 4.03 3.148 8.122 4.48 12.328 1.029 3.061 2.226 5.996 3.496 8.965 1.701 3.977 3.182 7.943 4.5 12.062 1.25 3.882 2.674 7.512 4.438 11.188 2.733 5.784 4.469 11.772 6.304 17.89 1.394 4.276 3.194 8.182 5.145 12.223 1.198 2.838 1.886 5.569 2.551 8.574 1.246 5.477 3.4 9.918 6.019 14.86 2.272 4.716 3.745 9.632 5.328 14.613 1.07 3.16 2.281 6.083 3.715 9.09 2.605 5.47 4.392 11.115 6.25 16.875 1.403 4.068 3.147 7.859 4.996 11.738 2.042 4.7 3.499 9.587 5.067 14.461 1.187 3.426 1.187 3.426 3.25 7.426 2.363 4.878 3.502 9.754 4.715 15.023 0.993 3.232 2.057 5.764 3.597 8.731 2.816 5.43 4.77 11.01 6.688 16.808 1.839 5.518 3.661 10.978 6.062 16.281 1.518 3.364 2.742 6.575 3.813 10.094 1.248 3.877 2.653 7.404 4.562 11 2.495 4.747 3.915 9.565 5.399 14.703 1.139 3.475 2.567 6.635 4.164 9.922 2.508 5.2 3.978 10.156 5.215 15.778 0.973 3.582 2.841 6.481 4.722 9.66v5c-2.892 2.892-5.585 2.253-9.491 2.282-1.06-3e-3 -2.121-5e-3 -3.213-8e-3 -1.114 5e-3 -2.228 0.011-3.376 0.016-3.698 0.014-7.397 0.013-11.096 0.01-2.563 4e-3 -5.127 9e-3 -7.69 0.013-5.381 8e-3 -10.762 8e-3 -16.143 2e-3 -6.901-5e-3 -13.801 0.012-20.701 0.035-5.298 0.014-10.595 0.015-15.892 0.012-2.545 1e-3 -5.089 6e-3 -7.633 0.016-3.557 0.012-7.115 6e-3 -10.672-6e-3 -1.055 8e-3 -2.109 0.015-3.195 0.023-9.244-0.067-9.244-0.067-12.898-3.395-1.051-2.382-2.088-4.774-2.972-7.223-1.692-4.573-3.893-8.898-6.028-13.277-2.548-5.229-5.023-10.44-7.16-15.852-1.309-3.306-2.621-6.394-4.277-9.523-2.408-4.69-4.39-9.501-6.371-14.383-1.192-2.742-1.192-2.742-3.317-6.305-1.697-3.112-2.441-5.414-3.25-8.812-0.981-3.947-2.159-6.724-4.562-10-2.665-3.643-3.914-6.966-5.125-11.313-1.858-6.55-3.996-10.571-10-14.125-5.083-2.055-9.369-2.315-14.799-2.321-1.642-4e-3 -3.284-9e-3 -4.975-0.013-1.822 0-3.645 1e-3 -5.467 1e-3 -1.917-3e-3 -3.834-6e-3 -5.751-0.01-5.211-9e-3 -10.422-0.011-15.633-0.012-4.351 0-8.702-4e-3 -13.054-8e-3 -10.269-8e-3 -20.537-0.01-30.806-0.01-10.587 1e-3 -21.174-0.01-31.761-0.025-9.093-0.013-18.185-0.019-27.277-0.018-5.429 0-10.858-3e-3 -16.287-0.013-5.11-0.01-10.219-0.01-15.328-3e-3 -1.872 1e-3 -3.744-1e-3 -5.615-7e-3 -2.563-8e-3 -5.126-3e-3 -7.689 4e-3 -1.431 0-2.863-1e-3 -4.339-1e-3 -11.383 0.681-11.383 0.681-15.844 4.624-3.2 5.015-5.752 10.262-8.313 15.625-0.701 1.361-1.402 2.722-2.125 4.125-1.419 2.932-2.644 5.783-3.812 8.812-1.294 3.334-2.743 6.361-4.563 9.438-2.545 4.381-4 8.877-5.41 13.73-1.09 2.895-1.09 2.895-3.059 5.77-2.325 3.577-3.323 6.835-4.468 10.937-1.359 4.563-2.631 8.774-5.063 12.875-2.113 3.646-3.475 6.816-4.875 10.75-2.565 6.882-5.831 13.35-11.518 18.166-4.799 2.158-9.456 1.805-14.658 1.769-1.168 4e-3 -2.336 7e-3 -3.54 0.011-3.859 8e-3 -7.718-5e-3 -11.577-0.02-2.678-1e-3 -5.357 0-8.035 2e-3 -5.611-1e-3 -11.223-0.011-16.834-0.029-7.206-0.023-14.413-0.023-21.619-0.017-5.529 4e-3 -11.058-3e-3 -16.587-0.013-2.658-4e-3 -5.316-5e-3 -7.975-3e-3 -3.706 0-7.412-0.012-11.118-0.029-1.108 3e-3 -2.215 5e-3 -3.355 8e-3 -7.58-0.054-7.58-0.054-9.809-2.282 0.091-4.014 0.733-5.696 3.403-8.742 2.824-3.542 3.848-6.307 5.097-10.633 1.838-5.916 4.215-10.369 7.5-15.625 1.347-3.767 2.541-7.568 3.742-11.383 1.072-3.082 2.225-5.64 3.883-8.43 1.868-3.292 2.859-5.474 3.813-9 1.083-3.981 2.591-7.403 4.5-11.062 2.592-4.981 4.39-9.912 6.07-15.258 1.257-3.631 2.935-6.923 4.715-10.32 1.364-2.72 2.514-5.476 3.652-8.297 1.84-4.518 3.899-8.847 6.125-13.188 2.867-5.622 5.233-11.283 7.36-17.222 1.14-2.84 1.14-2.84 2.636-5.27 1.821-3.112 2.762-6.186 3.817-9.633 1.949-6.042 4.33-11.49 7.281-17.097 1.387-2.802 2.453-5.574 3.469-8.528 1.203-3.494 2.556-6.57 4.437-9.75 2.546-4.347 3.967-8.803 5.473-13.594 1.261-3.643 2.949-6.924 4.738-10.332 2.001-4.092 3.513-8.357 5.109-12.621 1.487-3.8 3.355-7.366 5.18-11.015 0.973-2.411 1.93-4.829 2.875-7.25 1.868-4.753 3.847-9.337 6.188-13.875 2.66-5.16 4.762-10.416 6.789-15.852 1.551-4.084 3.353-8.041 5.148-12.023 0.838-2.019 1.671-4.04 2.5-6.063 1.408-3.414 2.867-6.649 4.563-9.937 1.608-3.321 2.762-6.379 3.875-9.875 1.519-4.737 3.403-8.969 5.711-13.364 1.642-3.355 2.991-6.783 4.351-10.261 2.036-5.2 4.267-10.148 6.848-15.094 1.668-3.484 2.87-7.096 4.062-10.766 1.09-2.64 1.09-2.64 3.063-5.519 2.204-3.394 3.252-6.438 4.402-10.309 1.871-5.902 4.189-10.939 7.289-16.273 1.696-3.223 2.561-6.441 3.492-9.946 0.989-3.038 2.358-5.703 3.844-8.531 2-3.838 3.484-7.357 4.5-11.562 1.277-5.242 3.458-9.631 5.961-14.391 1.579-3.19 2.823-6.391 4.039-9.734 1.496-4.039 3.105-7.571 5.438-11.188 3.493-5.454 5.42-11.337 7.472-17.453 1.695-3.981 3.584-6.639 6.59-9.734 3.428-1.143 6.058-1.129 9.674-1.134zm64.326 99.134c-2.96 3.946-3.724 6.084-4.875 10.75-1.587 5.869-3.779 10.147-7.125 15.25-1.06 2.665-1.975 5.362-2.898 8.078-1.176 3.118-2.614 5.973-4.164 8.922-1.999 3.858-3.432 7.399-4.438 11.625-0.943 3.894-2.191 6.766-4.375 10.125-3.374 5.227-4.996 10.673-6.84 16.582-1.51 4.31-3.583 7.985-5.879 11.914-2.085 4.084-3.166 8.375-4.414 12.773-0.992 2.981-0.992 2.981-3.429 6.856-3.104 4.996-4.615 10.009-6.379 15.593-1.363 4.066-3.268 7.7-5.184 11.532-0.79 2.431-1.559 4.869-2.312 7.312-1.971 6.156-4.478 11.078-8.235 16.321-2.749 4.478-2.808 9.21-2.453 14.367 1.169 3.896 1.973 6.247 5.288 8.677 5.622 2.004 11.056 1.756 16.982 1.743 0.669 4e-3 0.669 4e-3 4.057 0.025 4.424 0.024 8.847 0.025 13.271 0.023 3.073 8e-3 6.147 0.015 9.22 0.024 6.44 0.013 12.88 0.015 19.32 9e-3 8.261-6e-3 16.522 0.024 24.784 0.065 6.345 0.026 12.691 0.029 19.036 0.025 3.047 2e-3 6.093 0.011 9.14 0.029 4.254 0.022 8.507 0.013 12.762-5e-3 0.631 7e-3 0.631 7e-3 3.827 0.04 8.519-0.082 8.519-0.082 12.572-3.006 3.607-5.488 3.334-11.281 2.741-17.649-1.75-4.188-1.75-4.188-4-8-2.86-6.182-5.364-12.446-7.781-18.813-1.041-2.723-2.118-5.426-3.219-8.125-1.627-4.022-3.072-8.091-4.5-12.187-1.348-3.83-2.72-7.309-4.562-10.938-1.674-3.401-2.714-6.381-3.75-10-1.474-5.029-3.343-9.595-5.625-14.312-3.002-6.221-5.289-12.445-7.395-19.016-2.795-8.636-6.222-16.779-10.23-24.922-3.33-6.934-5.385-13.602-7.09-21.082-2.032-8.641-4.566-14.346-11.848-19.605-3.336-1.668-6.348-1.281-10-1z"/>
<path transform="translate(1167.8 326.76)" d="m0 0c2.231-1e-3 4.461-3e-3 6.692-6e-3 6.021-5e-3 12.043 3e-3 18.065 0.013 6.387 9e-3 12.774 7e-3 19.162 7e-3 10.773 1e-3 21.546 9e-3 32.319 0.023 10.921 0.014 21.842 0.021 32.762 0.021 102.74-5e-3 102.74-5e-3 145.72 0.634 0.682 0.01 0.682 0.01 4.137 0.059 3.678 0.054 7.355 0.116 11.033 0.182 1.047 0.016 2.094 0.032 3.173 0.049 6.954 0.144 6.954 0.144 9.188 1.261 0 5.759-1.856 9.064-4.562 13.937-0.927 1.713-1.853 3.427-2.778 5.141-0.456 0.84-0.912 1.68-1.382 2.545-1.698 3.157-3.309 6.354-4.903 9.564-0.274 0.551-0.274 0.551-1.66 3.34-1.24 2.512-2.477 5.025-3.711 7.539-3.327 6.735-6.735 13.267-10.707 19.641-1.356 2.398-2.333 4.776-3.297 7.355-1.626 4.338-3.82 7.74-6.492 11.5-2.298 3.715-3.688 7.728-5.137 11.836-1.698 3.222-3.064 4.131-6.371 5.602-4.868 1.05-9.546 1.118-14.517 1.107-0.844-1e-3 -1.688-1e-3 -2.557-2e-3 -2.821-3e-3 -5.642-0.013-8.463-0.023-2.026-4e-3 -4.051-7e-3 -6.077-0.01-4.361-6e-3 -8.722-0.016-13.083-0.027-6.906-0.019-13.812-0.028-20.718-0.036-19.639-0.025-39.277-0.06-58.916-0.105-10.847-0.025-21.695-0.042-32.543-0.052-6.853-6e-3 -13.707-0.022-20.56-0.044-4.283-0.012-8.565-0.015-12.848-0.016-1.972-2e-3 -3.944-8e-3 -5.917-0.017-19.186-0.088-36.586 0.636-52.801 12.037-9.015 9.579-13.252 16.142-13.247 29.769-3e-3 0.827-5e-3 1.653-8e-3 2.505-5e-3 2.75 3e-3 5.5 0.012 8.251-1e-3 1.98-3e-3 3.96-6e-3 5.94-4e-3 5.366 3e-3 10.732 0.013 16.098 9e-3 5.627 7e-3 11.254 7e-3 16.882 1e-3 9.454 0.01 18.909 0.023 28.363 0.016 10.908 0.021 21.815 0.021 32.722-1e-3 11.638 6e-3 23.275 0.015 34.913 2e-3 3.34 3e-3 6.68 3e-3 10.02 1e-3 5.267 7e-3 10.534 0.017 15.801 3e-3 1.925 5e-3 3.85 4e-3 5.775-6e-3 33.733-6e-3 33.733 10.146 49.149 0.453 0.714 0.905 1.428 1.371 2.164 5.532 8.118 12.279 12.592 21.922 14.427 4.081 0.616 8.073 0.641 12.197 0.623 0.9-2e-3 1.8-3e-3 2.727-4e-3 2.986-6e-3 5.972-0.026 8.958-0.047 2.153-7e-3 4.306-0.013 6.458-0.018 4.62-0.013 9.24-0.032 13.86-0.056 7.303-0.037 14.605-0.056 21.908-0.072 20.76-0.048 41.52-0.12 62.28-0.209 11.477-0.049 22.954-0.084 34.431-0.103 7.263-0.013 14.526-0.044 21.789-0.089 4.509-0.023 9.018-0.03 13.528-0.032 2.094-4e-3 4.189-0.015 6.284-0.034 2.853-0.024 5.706-0.024 8.559-0.018 1.599-6e-3 3.197-0.012 4.844-0.019 3.884 0.487 3.884 0.487 6.43 2.516 0.48 0.65 0.96 1.301 1.454 1.971-1.381 2.828-2.742 5.596-4.437 8.25-1.406 2.473-2.374 4.786-3.375 7.437-1.77 4.556-4.024 8.523-6.606 12.661-2.297 3.85-4.233 7.858-6.187 11.89-1.395 2.762-1.395 2.762-2.903 5.223-1.685 2.868-2.917 5.774-4.179 8.851-3.412 8.085-7.333 15.871-11.313 23.688-1.085 2.166-2.169 4.332-3.25 6.5-0.477 0.946-0.954 1.892-1.445 2.867-0.833 1.68-1.643 3.372-2.422 5.078-1.942 4.201-2.57 5.399-6.883 7.555-2.754 0.194-5.517 0.266-8.278 0.274-0.843 5e-3 -1.686 0.011-2.554 0.016-2.829 0.015-5.658 0.016-8.487 0.016-2.027 8e-3 -4.054 0.016-6.082 0.026-5.518 0.022-11.036 0.03-16.553 0.035-3.457 4e-3 -6.914 0.01-10.371 0.017-12.09 0.025-24.18 0.038-36.27 0.041-11.215 4e-3 -22.43 0.034-33.645 0.076-9.66 0.035-19.319 0.05-28.979 0.051-5.755 0-11.509 9e-3 -17.263 0.038-60.081 0.281-60.081 0.281-83.518-13.59-2.06-1.087-4.123-2.171-6.187-3.25-3.586-1.977-6.638-4.16-9.813-6.75-1.377-0.718-2.753-1.436-4.172-2.176-4.885-2.687-8.586-5.967-12.453-9.949-0.325-0.33-0.325-0.33-1.968-1.998-4.992-5.187-8.885-10.599-12.407-16.877-0.398-0.592-0.398-0.592-2.414-3.586-3.171-5.047-4.963-10.471-6.836-16.102-0.351-1.019-0.701-2.038-1.062-3.087-2.122-6.239-3.811-11.857-3.817-18.494-3e-3 -1.048-6e-3 -2.096-9e-3 -3.175 0-0.573 0-0.573 4e-3 -3.47-2e-3 -1.222-4e-3 -2.443-7e-3 -3.701-6e-3 -4.105-5e-3 -8.209-4e-3 -12.314-3e-3 -2.938-7e-3 -5.877-0.01-8.816-9e-3 -7.994-0.012-15.988-0.012-23.983-1e-3 -4.997-3e-3 -9.994-6e-3 -14.991-9e-3 -16.541-0.013-33.082-0.012-49.623v-2.703-2.705c0-14.444-9e-3 -28.888-0.023-43.333-0.015-14.847-0.022-29.695-0.021-44.542 1e-3 -8.329-2e-3 -16.658-0.013-24.987-0.01-7.843-0.01-15.686-2e-3 -23.53 1e-3 -2.87-2e-3 -5.739-8e-3 -8.609-0.074-37.54-0.074-37.54 5.127-52.749 0.149-0.438 0.149-0.438 0.902-2.652 3.459-9.451 8.846-17.143 15.223-24.848 0.504-0.61 0.504-0.61 3.055-3.695 6.008-6.851 12.015-11.875 19.945-16.305 1.563-0.978 3.126-1.957 4.688-2.938 11.403-6.716 22.477-11.776 35.339-15.039 3.973-1.023 3.973-1.023 8.473-2.711 14.532-4.238 30.246-3.598 45.252-3.555z"/>
<path transform="translate(425.75 335.69)" d="m0 0c1.752 0.074 3.502 0.182 5.25 0.312 1.11 0.07 2.22 0.14 3.363 0.211 10.245 0.974 18.402 4.43 27.637 8.789 1.681 0.642 3.368 1.27 5.062 1.876 15.691 6.244 31.559 17.78 41.938 31.124 0.629 0.783 1.258 1.565 1.906 2.372 8.53 11.039 16.109 24.861 18.532 38.691 0.632 3.601 1.248 7.084 2.512 10.522 4.265 12.164 3.594 24.523 3.532 37.236 3e-3 2.603 7e-3 5.206 0.012 7.809 9e-3 5.582 5e-3 11.163-8e-3 16.744-0.021 8.824-0.01 17.648 4e-3 26.472 0.027 18.718 0.02 37.436 0.01 56.154-0.011 20.238-0.016 40.475 0.017 60.712 0.014 8.774 8e-3 17.548-0.013 26.323-9e-3 5.449-2e-3 10.898 0.01 16.347 2e-3 2.529-2e-3 5.058-0.014 7.587-0.016 3.448-7e-3 6.896 8e-3 10.344-5e-3 0.502-5e-3 0.502-0.032 3.042 0.056 5.716 0.574 9.392 4.524 13.645 4.35 2.707 9.029 2.248 14.034 2.245 0.911 3e-3 1.822 5e-3 2.761 7e-3 3.055 5e-3 6.109-3e-3 9.164-0.012 2.19 1e-3 4.379 3e-3 6.569 6e-3 4.715 5e-3 9.431 4e-3 14.147-2e-3 7.453-7e-3 14.907 3e-3 22.361 0.018 21.195 0.037 42.39 0.055 63.586 0.044 11.705-6e-3 23.411 5e-3 35.117 0.036 7.412 0.019 14.824 0.016 22.237-4e-3 4.607-7e-3 9.215 7e-3 13.822 0.027 2.14 5e-3 4.279 2e-3 6.419-0.011 2.917-0.016 5.832-2e-3 8.749 0.021h4.95c4.084 0.625 4.084 0.625 7.109 2.897 2.83 3.91 2.667 7.566 2.606 12.213 4e-3 0.474 4e-3 0.474 0.022 2.874 0.017 3.131-3e-3 6.261-0.024 9.391 1e-3 2.179 3e-3 4.357 7e-3 6.535 3e-3 4.563-0.012 9.125-0.039 13.688-0.034 5.848-0.028 11.695-9e-3 17.543 0.01 4.497 1e-3 8.994-0.014 13.491-5e-3 2.156-4e-3 4.312 2e-3 6.468 5e-3 3.014-0.015 6.027-0.043 9.041 4e-3 0.445 4e-3 0.445 0.02 2.699-0.06 3.918-0.341 6.437-2.399 9.816-3.451 3.156-6.361 3.096-10.853 3.101-0.598 2e-3 -0.598 2e-3 -3.621 0.012-1.319-1e-3 -2.638-2e-3 -3.997-3e-3 -1.397 3e-3 -2.793 6e-3 -4.232 9e-3 -4.707 9e-3 -9.415 0.01-14.123 0.012-3.363 4e-3 -6.726 9e-3 -10.09 0.015-9.157 0.013-18.313 0.019-27.47 0.024-5.715 2e-3 -11.429 7e-3 -17.143 0.011-15.813 0.012-31.625 0.023-47.438 0.026-0.506 0-0.506 0-3.068 1e-3h-3.075c-2.056 1e-3 -4.112 1e-3 -6.169 2e-3h-3.091c-16.538 4e-3 -33.077 0.022-49.615 0.045-16.969 0.024-33.937 0.036-50.905 0.037-9.532 1e-3 -19.064 7e-3 -28.596 0.025-8.114 0.016-16.228 0.021-24.343 0.013-4.142-4e-3 -8.284-2e-3 -12.426 0.011-4.485 0.012-8.97 6e-3 -13.455-4e-3 -1.317 8e-3 -2.634 0.016-3.99 0.024-1.198-6e-3 -2.395-0.013-3.629-0.02-1.036 1e-3 -2.072 2e-3 -3.139 2e-3 -2.686-0.374-2.686-0.374-6.686-3.374-1.251-3.753-1.128-6.875-1.131-10.841-1e-3 -0.406-1e-3 -0.406-7e-3 -2.458-5e-3 -2.742-4e-3 -5.484-2e-3 -8.226l-9e-3 -5.928c-9e-3 -5.449-0.01-10.898-0.011-16.347-2e-3 -5.869-9e-3 -11.738-0.016-17.607-0.014-12.841-0.02-25.681-0.024-38.522-3e-3 -8.011-7e-3 -16.022-0.012-24.033-0.012-22.164-0.022-44.327-0.026-66.49v-4.3c0-1.423-1e-3 -2.846-1e-3 -4.311 0-2.883-1e-3 -5.766-1e-3 -8.649 0-1.43-1e-3 -2.86-1e-3 -4.333-4e-3 -23.19-0.021-46.38-0.045-69.57-0.023-23.786-0.036-47.572-0.037-71.357-1e-3 -13.365-7e-3 -26.729-0.025-40.093-0.015-11.376-0.02-22.752-0.012-34.128 4e-3 -5.809 3e-3 -11.618-0.011-17.426-0.013-5.311-0.012-10.622 1e-3 -15.933 1e-3 -1.928-2e-3 -3.856-0.01-5.784-0.011-2.607-4e-3 -5.214 8e-3 -7.822 0-0.726 0-0.726-2e-3 -4.401 0.551-5.074 2.088-6.333 7.124-6.753z"/>
<path transform="translate(833.64 335.64)" d="m0 0c12.923 0.207 23.899 1.74 35.844 6.871 2.946 1.252 5.841 2.275 8.886 3.242 13.864 5.042 24.869 13.314 34.625 24.25 0.698 0.757 1.395 1.514 2.114 2.293 5.804 6.426 10.075 12.961 13.886 20.707 0.649 0.903 1.297 1.805 1.965 2.735 2.34 3.754 3.381 7.188 4.535 11.453 1.375 4.939 2.783 9.74 4.688 14.5 4.211 11.304 4.106 23.493 4.08 35.402 4e-3 1.562 9e-3 3.123 0.014 4.732 0.012 4.295 0.012 8.59 9e-3 12.886 0 4.646 0.011 9.293 0.02 13.94 0.017 9.084 0.022 18.169 0.024 27.253 1e-3 7.38 5e-3 14.76 0.011 22.14 0.018 20.93 0.027 41.861 0.025 62.791v3.413 3.418c-1e-3 18.316 0.018 36.633 0.046 54.95 0.029 18.814 0.043 37.628 0.041 56.442-1e-3 10.56 5e-3 21.121 0.027 31.682 0.018 8.98 0.022 17.96 9e-3 26.94-7e-3 4.584-7e-3 9.168 0.01 13.751 0.019 4.96 6e-3 9.92-9e-3 14.879 0.01 1.461 0.021 2.921 0.031 4.426-4e-3 0.66-4e-3 0.66-0.028 4.003 1e-3 1.145 1e-3 2.291 2e-3 3.471-0.5 2.793-0.5 2.793-4.5 5.793-3.412 0.368-3.412 0.368-7.553 0.357-0.777 1e-3 -0.777 1e-3 -4.709 9e-3 -1.706-0.012-3.411-0.025-5.116-0.038-1.768-3e-3 -3.537-5e-3 -5.305-5e-3 -3.723-5e-3 -7.446-0.019-11.169-0.041-4.689-0.028-9.377-0.04-14.066-0.044-9.763-0.011-19.525-0.071-29.288-0.184-3.077-0.034-6.154-0.063-9.231-0.084-3.844-0.032-7.685-0.096-11.527-0.173-1.1-5e-3 -2.199-9e-3 -3.332-0.014-2.996-0.084-2.996-0.084-7.704-0.783-3.516-4.047-3.375-7.886-3.377-13.087-4e-3 -0.814-9e-3 -1.628-0.013-2.466-0.011-2.738-1e-3 -5.475 0.01-8.212-4e-3 -1.978-9e-3 -3.956-0.015-5.934-0.012-5.445-6e-3 -10.889 3e-3 -16.333 7e-3 -5.868-3e-3 -11.736-0.012-17.604-0.013-11.498-0.01-22.995-1e-3 -34.493 6e-3 -9.341 7e-3 -18.682 4e-3 -28.023 0-0.664 0-0.664-1e-3 -4.024-1e-3 -2.697-2e-3 -5.395-3e-3 -8.092-9e-3 -25.308 1e-3 -50.617 0.017-75.925 0.014-21.735 0.011-43.469-3e-3 -65.204-0.016-25.219-0.022-50.438-0.013-75.657l3e-3 -8.061c0-1.322 1e-3 -2.644 1e-3 -4.006 3e-3 -9.335-1e-3 -18.67-8e-3 -28.006-9e-3 -11.368-7e-3 -22.737 9e-3 -34.105 8e-3 -5.805 0.011-11.61 1e-3 -17.415-8e-3 -5.307-4e-3 -10.613 0.012-15.92 4e-3 -1.927 2e-3 -3.854-5e-3 -5.78-9e-3 -2.606 0-5.211 0.014-7.817 0-1.451 1e-3 -2.902 1e-3 -4.398 0.468-4.271 1.586-6.192 6.021-6.801z"/>
<path transform="translate(2027,352)" d="m0 0c0.627 0.029 0.627 0.029 3.801 0.176 10.798 0.872 18.857 4.506 28.199 9.824 0.902 0.451 1.805 0.902 2.734 1.367 16.763 8.82 26.02 24.363 32.266 41.633 6.191 21.323 4.819 42.741-4.871 62.891-10.711 19.102-27.359 31.588-48.129 38.109-17.855 5-38.887 2.732-55.133-6.246-20.246-12.385-34.265-29.042-40.051-52.566-4.313-23.687 1.541-45.669 14.746-65.5 11.5-15.586 30.628-26.424 49.637-29.293 5.67-0.589 11.112-0.748 16.801-0.395zm-48 34c-2.237 4.475-2.275 6.91-2.322 11.87-0.019 1.619-0.039 3.238-0.058 4.906-0.01 1.769-0.019 3.537-0.026 5.306-0.012 1.816-0.023 3.632-0.035 5.448-0.021 3.807-0.032 7.614-0.039 11.421-0.011 4.87-0.059 9.738-0.116 14.607-0.038 3.752-0.048 7.503-0.051 11.255-6e-3 1.794-0.022 3.589-0.049 5.383-0.034 2.515-0.026 5.03-0.017 7.545-7e-3 1.43-0.014 2.859-0.022 4.331 0.953 5.094 3.032 7.383 6.735 10.928 4.75 1.176 9.192 0.825 14 0 3.312-2.125 3.312-2.125 5-5 0.849-3.985 1.12-7.769 1.098-11.836-2e-3 -0.532-2e-3 -0.532-0.01-3.223-8e-3 -1.094-0.017-2.188-0.026-3.316-4e-3 -1.118-9e-3 -2.235-0.013-3.387-0.012-2.746-0.028-5.492-0.049-8.238 4.76-0.105 7.203-0.037 11 3 3.07 3.713 5.693 7.52 8.289 11.578 10.498 16.315 10.498 16.315 18.711 20.422 2.643 0.15 5.291 0.221 7.938 0.25 1.432 0.026 2.864 0.052 4.339 0.078 3.723-0.328 3.723-0.328 6.723-3.328 0.654-7.195 0.296-10.096-4-16-0.33-0.501-0.33-0.501-2-3.035-0.33-0.5-0.33-0.5-2-3.027-0.33-0.501-0.33-0.501-2-3.036-2-2.902-2-2.902-4.184-5.617-2.067-2.601-2.899-3.947-2.816-7.285 2.062-2.375 2.062-2.375 5-5 7.544-8.299 9.709-13.76 9.473-24.945-0.917-7.861-4.571-13.53-10.161-18.993-8-6.176-16.834-7.675-26.71-7.593-1.038-4e-3 -2.076-8e-3 -3.146-0.012-2.173-3e-3 -4.346 5e-3 -6.519 0.022-3.325 0.021-6.647 0-9.972-0.026-2.121 3e-3 -4.242 8e-3 -6.363 0.016-0.99-8e-3 -1.98-0.016-2.999-0.025-5.478 0.075-8.883 0.354-12.603 4.556z" fill="#E1C819"/>
<path transform="translate(1734,446)" d="m0 0c2.406 0.391 2.406 0.391 5 2 1.844 3.422 1.844 3.422 3.5 7.75 0.299 0.768 0.598 1.536 0.906 2.327 2.19 5.672 4.216 11.403 6.223 17.142 3.474 9.58 7.375 19.014 11.301 28.418 2.97 7.119 5.763 14.191 8.109 21.539 1.37 4.027 3.065 7.899 4.738 11.808 1.6 3.946 2.886 7.963 4.133 12.032 1.09 2.984 1.09 2.984 3 6.785 2.144 4.308 3.828 8.613 5.465 13.137 0.149 0.409 0.149 0.409 0.906 2.479 1.488 4.091 2.935 8.193 4.328 12.317 4.243 12.465 4.243 12.465 7.329 16.954 2.062 3.312 2.062 3.312 2.124 6.687-1.062 2.625-1.062 2.625-5.062 4.625-2.449 0.257-2.449 0.257-5.238 0.267-1.059 9e-3 -2.119 0.017-3.211 0.026-1.158-1e-3 -2.315-2e-3 -3.508-2e-3 -1.223 6e-3 -2.446 0.013-3.706 0.02-4.05 0.019-8.1 0.023-12.149 0.025-2.81 6e-3 -5.62 0.013-8.429 0.02-5.892 0.012-11.783 0.016-17.674 0.015-7.56-1e-3 -15.119 0.027-22.679 0.061-5.802 0.022-11.605 0.026-17.407 0.025-2.788 3e-3 -5.576 0.012-8.364 0.027-3.893 0.02-7.785 0.014-11.678 2e-3 -1.157 0.011-2.315 0.022-3.508 0.034-1.06-8e-3 -2.119-0.017-3.211-0.026-0.461 1e-3 -0.461 1e-3 -2.789 4e-3 -3.226-0.656-4.444-1.937-6.449-4.498-0.11-4.841 2.077-7.763 4.684-11.691 1.467-2.573 2.314-5.044 3.191-7.871 1.945-6.255 4.64-12.006 7.465-17.907 1.706-3.628 3.194-7.291 4.64-11.027 1.201-2.947 2.541-5.812 3.895-8.692 2.795-5.984 5.274-12.06 7.699-18.203 2.963-7.5 6.1-14.903 9.424-22.251 3.052-6.758 5.92-13.457 8.018-20.585 1.336-3.763 3.185-7.208 4.984-10.773 1.362-3.075 2.699-6.15 4-9.25 0.174-0.413 0.174-0.413 1.057-2.506 2.341-5.616 4.404-11.26 6.154-17.092 0.789-2.152 0.789-2.152 2.789-4.152z" fill="#E1C819"/>
<path transform="translate(2085,358)" d="m0 0c3.509 3.531 6.799 7.189 10 11 0.303 0.356 0.303 0.356 1.836 2.156 4.41 5.715 7.419 12.153 10.476 18.656 0.434 0.901 0.867 1.802 1.313 2.73 5.753 12.671 5.716 25.613 5.687 39.333 0.017 1.533 0.033 3.065 0.049 4.645 6e-3 13.84-1.076 25.954-8.67 37.765-1.544 2.479-2.635 4.815-3.691 7.527-1.911 4.001-3.914 6.459-7.152 9.45-1.888 1.775-3.545 3.64-5.223 5.613-1.207 1.376-2.415 2.751-3.625 4.125-0.304 0.356-0.304 0.356-1.844 2.156-8.796 9.608-21.375 17.138-34.156 19.844-1.365 0.335-2.73 0.67-4.137 1.016-24.855 6.059-48.891 4.941-71.738-7.766-23.929-14.578-40.395-36.958-47.125-64.25-1.076-7.606-1.217-15.138-1.25-22.812-0.01-0.598-0.01-0.598-0.062-3.62-0.108-24.645 11.697-47.721 28.5-65.256 4.283-4.056 8.82-7.182 13.812-10.312 0.776-0.641 1.552-1.281 2.352-1.941 31.612-24.572 86.692-16.492 114.65 9.941zm-87-11c-1.076 0.266-2.153 0.531-3.262 0.805-12.14 3.478-23.326 10.848-31.738 20.195-0.793 0.601-1.586 1.201-2.402 1.82-12.422 10.423-21.513 29.502-23.246 45.325-1.858 25.66 0.431 49.119 17.648 69.48 1.978 2.145 3.976 4.272 6 6.375 0.762 0.851 1.524 1.702 2.309 2.578 8.665 9.35 19.814 15.138 31.691 19.422 0.487 0.197 0.487 0.197 2.949 1.191 17.313 6.112 36.683 4.524 53.051-3.191 1.952-0.666 3.91-1.313 5.875-1.938 5.74-2.071 10.336-5.334 15.125-9.062 0.557-0.433 0.557-0.433 3.375-2.625 2.625-2.375 2.625-2.375 4.625-4.875s2-2.5 4.812-4.562c3.873-3.57 5.979-7.402 8.477-12 1.711-2.938 1.711-2.938 3.691-5.141 2.999-4.152 4.219-8.683 5.708-13.547 0.153-0.476 0.153-0.476 0.931-2.883 6.596-21.07 3.666-42.598-5.619-62.367-1.307-1.687-2.642-3.354-4-5-0.598-1.423-1.196-2.846-1.812-4.312-7.515-15.327-23.426-28.015-39.258-33.555-19.634-6.348-34.898-7.271-54.93-2.133z"/>
<path transform="translate(2005 390.9)" d="m0 0c27.678-0.831 27.678-0.831 38.04 4.099 4.97 6.626 5.81 13.914 5 22-1.623 6.223-3.651 9.397-9 13l-4 1c-1.329 5.316-1.994 10.486 0.063 15.687 1.937 2.313 1.937 2.313 5.312 5.063 4.345 3.895 6.174 6.975 8.625 12.25v5c-1 1-1 1-4.125 1.062-7.017-1.924-10.306-7.932-13.75-13.937-4.14-7.174-10.345-15.834-18.125-19.125-4.38-0.462-8.636-0.647-13 0-2.997 2.997-3.95 4.208-4.066 8.372 0.024 0.916 0.049 1.832 0.074 2.776 0.017 1.006 0.033 2.011 0.051 3.047 0.044 2.112 0.096 4.224 0.156 6.336 0.06 4.268 0.083 7.666-1.41 11.695-1.805 1.774-1.805 1.774-6.805 1.774-3.73-3.731-3.379-4.852-3.388-9.995-0.01-1.451-0.019-2.903-0.029-4.398 6e-3 -1.572 0.012-3.144 0.019-4.764-3e-3 -1.609-6e-3 -3.218-9e-3 -4.875-5e-3 -3.407 2e-3 -6.813 0.016-10.219 0.017-4.368 7e-3 -8.736-0.011-13.104-0.013-4.163-4e-3 -8.326 4e-3 -12.489-6e-3 -1.572-0.013-3.144-0.019-4.763 0.01-1.452 0.019-2.904 0.029-4.399 2e-3 -1.281 5e-3 -2.562 7e-3 -3.882 0.381-3.112 0.381-3.112 3.381-6.112 5.527-1.159 11.333-0.911 16.96-1.099zm-6.96 10.099c-3.042 5.004-3.534 9.218-3 15 1.566 5.604 3.008 8.88 8 12 7.197 2.399 16.83 1.973 24.125-0.063 5.039-2.519 8.342-5.871 10.875-10.937 0.695-8.806 0.695-8.806-2-13.438-6.271-5.357-13.074-6.046-21.062-5.937-0.86-0.012-1.719-0.024-2.604-0.036-5.443 0.025-9.569 0.749-14.334 3.411z"/>
<path transform="translate(2024.1 406.19)" d="m0 0c2.875 1.812 2.875 1.812 4.438 4.25 0.437 2.562 0.437 2.562-1.563 6.562-6.653 3.881-13.069 3.843-20.5 2.25-2.5-1.25-2.5-1.25-4.5-5.25 0.303-4.146 0.923-4.923 4-8 5.261-2.63 12.705-1.372 18.125 0.188z" fill="#E1C819"/>
</svg>
