<?xml version="1.0" encoding="UTF-8"?>
<svg version="1.1" viewBox="0 0 2448 1112" xmlns="http://www.w3.org/2000/svg">
<path transform="translate(55.475 173.75)" d="m0 0c1.692-2e-3 3.383-6e-3 5.075-0.01 4.663-8e-3 9.326-4e-3 13.989 2e-3 5.086 4e-3 10.173-4e-3 15.259-9e-3 8.954-9e-3 17.907-0.011 26.861-7e-3 13.404 5e-3 26.808-1e-3 40.212-0.01 22.842-0.014 45.684-0.018 68.526-0.018 23.156 1e-3 46.311-3e-3 69.467-0.012 0.731 0 0.731 0 4.428-1e-3 5.951-3e-3 11.902-5e-3 17.853-7e-3 62.119-0.025 124.24-0.035 186.36-0.04 5.851 0 11.703-1e-3 17.554-1e-3h5.027c36.757-3e-3 73.515-9e-3 110.27-0.016 15.964-3e-3 31.927-6e-3 47.89-8e-3 0.836-1e-3 1.671-1e-3 2.532-1e-3 40.21-7e-3 80.42-0.013 120.63-0.018 0.858-1e-3 1.715-1e-3 2.599-1e-3 54.661-7e-3 109.32-0.011 163.98-0.012h13.445c15.289-1e-3 30.577-1e-3 45.866-2e-3h21.654c4.517 0 9.034 0 13.551-1e-3 85.326-2e-3 170.65-8e-3 255.98-0.034 0.899 0 1.798 0 2.723-1e-3 28.076-8e-3 56.151-0.017 84.226-0.026 28.807-9e-3 57.614-0.018 86.422-0.027 0.887 0 1.773-1e-3 2.687-1e-3 55.532-0.017 111.06-0.028 166.6-0.032h2.598c37.653-3e-3 75.305-5e-3 112.96-5e-3h45.44 7.534c38.433-1e-3 76.865-5e-3 115.3-0.021 0.829 0 1.659 0 2.513-1e-3 14.171-6e-3 28.341-0.012 42.511-0.018 53.799-0.023 107.6-0.03 161.4-0.016l22.272 6e-3c1.455 0 2.911 1e-3 4.41 1e-3 23.101 5e-3 46.203-7e-3 69.304-0.025 22.682-0.018 45.364-0.019 68.046 0 13.319 0.011 26.639 8e-3 39.958-0.016 8.826-0.014 17.653-0.01 26.479 9e-3 5.016 0.01 10.032 0.012 15.047-8e-3 4.544-0.017 9.088-0.013 13.631 0.011 2.412 7e-3 4.824-0.011 7.235-0.03 1.421 0.012 2.842 0.024 4.307 0.036 1.225 0 2.451 0 3.714-1e-3 4.122 0.803 5.606 2.401 8.208 5.625 1.687 5.462 1.131 11.599 1.11 17.277 0 1.147-1e-3 2.293-1e-3 3.474-2e-3 3.863-0.011 7.726-0.02 11.59-3e-3 2.788-6e-3 5.577-8e-3 8.366-7e-3 7.68-0.021 15.361-0.035 23.041-0.013 7.427-0.021 14.854-0.03 22.28-0.019 16.13-0.043 32.26-0.07 48.389-0.023 14.112-0.045 28.224-0.065 42.336-1e-3 0.936-2e-3 1.871-4e-3 2.834-5e-3 3.796-0.01 7.593-0.016 11.389-0.049 35.621-0.105 71.243-0.163 106.86-0.052 31.674-0.098 63.348-0.141 95.022-0.047 35.563-0.098 71.127-0.153 106.69-6e-3 3.788-0.012 7.575-0.018 11.363-2e-3 0.933-3e-3 1.865-5e-3 2.826-0.022 14.11-0.041 28.219-0.06 42.329-0.021 16.032-0.045 32.065-0.074 48.097-0.015 8.189-0.028 16.377-0.037 24.565-8e-3 7.483-0.021 14.965-0.038 22.447-5e-3 2.72-8e-3 5.44-0.01 8.16-2e-3 3.671-0.011 7.341-0.021 11.012 1e-3 1.079 2e-3 2.157 2e-3 3.269-0.029 7.265-0.029 7.265-1.143 8.379-1.993 0.101-3.989 0.131-5.985 0.134-0.65 2e-3 -0.65 2e-3 -3.943 0.013-1.441-1e-3 -2.882-1e-3 -4.367-2e-3 -1.507 4e-3 -3.014 7e-3 -4.567 0.011-4.146 7e-3 -8.293 0.011-12.44 0.011-3.457 1e-3 -6.914 5e-3 -10.37 9e-3 -8.154 8e-3 -16.308 0.01-24.462 9e-3 -8.421 0-16.842 0.01-25.263 0.026-7.221 0.013-14.441 0.019-21.662 0.018-4.316 0-8.633 3e-3 -12.949 0.013-4.813 0.012-9.626 7e-3 -14.439 1e-3 -1.437 6e-3 -2.874 0.011-4.355 0.017-1.306-4e-3 -2.613-8e-3 -3.96-0.013-1.139 1e-3 -2.278 1e-3 -3.451 2e-3 -2.787-0.249-2.787-0.249-5.787-2.249 0.156-6.269 3.169-13.254 6.625-18.437 1.481-2.76 1.794-4.793 2.25-7.875 0.646-4.055 1.23-5.855 3.5-9.438 3.126-5.061 4.234-9.803 5.535-15.566 1.09-3.684 1.09-3.684 3.09-7.164 2.152-3.787 3.027-7.024 3.937-11.27 1.391-5.94 3.154-11.077 5.84-16.531 1.85-4.114 2.993-8.404 4.254-12.727 0.969-2.992 0.969-2.992 3.031-7.054 1.703-3.461 2.542-6.16 3.375-9.875 0.906-3.98 1.955-7.048 4.125-10.5 2.867-4.675 3.253-9.23 3.91-14.602 0.664-3.728 2.142-6.054 4.528-8.961 1.855-3.711 2.375-5.866 2.875-9.875 0.764-4.987 1.925-8.125 5.125-12.125 1.779-3.558 2.287-5.342 2.75-9.125 0.706-4.303 1.838-7.188 4.25-10.812 3.062-4.659 3.711-8.531 4.367-14 0.714-3.456 2.011-5.883 3.758-8.938 3.59-6.595 3.706-12.751 2.875-20.125-1.983-1.983-5.077-1.131-7.718-1.143-0.977 1e-3 -1.954 2e-3 -2.96 3e-3 -1.029-3e-3 -2.058-6e-3 -3.119-9e-3 -3.477-9e-3 -6.953-0.01-10.43-0.012-2.482-5e-3 -4.963-0.01-7.444-0.015-6.763-0.013-13.526-0.02-20.288-0.024-4.222-3e-3 -8.444-7e-3 -12.666-0.012-13.199-0.013-26.398-0.023-39.598-0.027-15.254-4e-3 -30.508-0.022-45.761-0.051-11.778-0.021-23.555-0.031-35.333-0.033-7.04-1e-3 -14.079-7e-3 -21.119-0.025-6.624-0.016-13.247-0.018-19.871-9e-3 -2.432 0-4.864-4e-3 -7.296-0.014-3.319-0.013-6.638-7e-3 -9.957 4e-3 -0.964-8e-3 -1.927-0.016-2.92-0.025-5.561 0.041-9.576 0.861-14.52 3.392-9 4-9 4-12.563 5.438-14.213 6.46-28.143 18.353-36.437 31.562-0.805 0.784-1.609 1.568-2.438 2.375-3.157 3.234-5.259 6.746-7.562 10.625-0.258 0.413-0.258 0.413-1.563 2.5-1.24 2.157-2.352 4.386-3.437 6.625-2 3.875-2 3.875-5 6.875-0.774 2.383-0.774 2.383-1.375 5.125-0.963 3.883-2.092 6.971-4.188 10.375-2.055 3.403-2.875 6.192-3.437 10.125-0.575 3.935-0.945 5.299-3.375 8.625-3.362 4.803-4.22 9.45-5.586 15.098-0.92 3.232-1.93 5.62-3.664 8.465-2.051 3.615-2.749 5.35-3.375 9.25-0.695 4.295-2.212 6.889-4.711 10.484-2.377 4.524-3.123 9.598-4.254 14.551-1.131 4.263-2.768 7.71-4.883 11.547-1.671 3.416-2.432 6.962-3.34 10.64-0.832 2.782-1.939 5.099-3.312 7.653-1.962 3.678-3.094 7.056-4 11.125-0.882 3.956-1.928 6.995-4.063 10.437-2.722 4.448-3.222 8.649-3.918 13.758-1.085 5.729-3.993 8.348-8.519 11.742-3.637 0.277-7.1 0.379-10.736 0.341-0.546 0-0.546 0-3.312 1e-3 -3.614-2e-3 -7.228-0.025-10.843-0.049-2.505-5e-3 -5.011-0.01-7.516-0.013-6.596-0.011-13.191-0.041-19.787-0.074-6.73-0.031-13.459-0.044-20.189-0.059-13.206-0.033-26.412-0.084-39.617-0.147l-1-4c1.231-1.896 2.467-3.79 3.738-5.66 1.436-2.664 1.843-4.852 2.262-7.84 0.662-4.58 2.018-7.263 4.711-11.082 2.399-4.5 3.127-9.582 4.254-14.523 1.125-4.235 2.778-7.601 4.882-11.407 1.37-2.958 1.995-5.797 2.653-8.988 1.068-5.179 2.722-9.151 5.242-13.762 2.103-4.578 3.08-9.456 4.289-14.332 1.107-3.893 2.932-6.924 4.969-10.406 0.524-1.926 0.999-3.865 1.437-5.812 0.928-4.111 2.076-7.447 4.125-11.125 2.682-4.941 3.23-9.617 3.91-15.145 0.669-3.698 2.235-5.98 4.528-8.918 1.125-3 1.125-3 2-6 0.609-2.018 1.265-4.024 2-6 2.756-1.378 4.938-1.097 8.022-1.066 1.265 0.01 2.531 0.02 3.834 0.03 1.374 0.014 2.748 0.029 4.163 0.044 2.888 0.017 5.775 0.034 8.662 0.051 4.57 0.031 9.139 0.066 13.708 0.113 4.397 0.042 8.795 0.065 13.193 0.086 1.368 0.019 2.735 0.037 4.145 0.056 1.274 4e-3 2.549 7e-3 3.862 0.011 1.12 0.01 2.239 0.019 3.393 0.029 3.434-0.403 5.265-1.293 8.018-3.354 4.897-7.416 7.563-15.267 9.258-23.918 0.753-3.128 1.831-5.697 3.242-8.582 2.474-5.06 3.61-10.014 4.754-15.508 0.993-3.984 2.89-7.339 4.746-10.992 2.488-7.37 4.839-16.267 3-24-4.6-4.063-10.043-3.33-15.813-3.187-1.046 0.011-2.093 0.022-3.171 0.034-3.339 0.037-6.677 0.093-10.016 0.153-4.396 0.08-8.791 0.14-13.188 0.188-0.504 0.012-0.504 0.012-3.056 0.075-9.111 0.096-9.111 0.096-12.756-3.263-0.526-6.963 3.156-12.316 6.297-18.265 2.186-4.794 3.033-9.472 3.961-14.629 1.023-4.283 3.394-7.408 5.742-11.106 0.866-3.258 1.519-6.531 2.187-9.836 0.971-3.779 2.596-6.563 4.625-9.855 1.405-2.73 2.023-5.314 2.688-8.309 0.877-3.949 1.897-7.045 4-10.5 4.926-8.231 5.915-17.076 5.5-26.5-4.281-1.427-8.524-1.147-12.992-1.145-1.026-3e-3 -2.053-7e-3 -3.11-0.01-3.401-0.01-6.802-0.012-10.203-0.013-2.36-3e-3 -4.721-6e-3 -7.081-0.01-4.951-6e-3 -9.903-8e-3 -14.854-7e-3 -6.348 0-12.695-0.014-19.043-0.031-4.876-0.011-9.752-0.013-14.628-0.013-2.341-1e-3 -4.681-5e-3 -7.022-0.013-3.272-0.01-6.544-7e-3 -9.817-1e-3 -0.968-5e-3 -1.937-0.011-2.935-0.017-8.427 0.04-8.427 0.04-12.315 2.26-4.383 5.205-6.495 11.753-9 18-0.516 1.176-1.032 2.351-1.563 3.563-1.622 3.878-3.008 7.814-4.375 11.789-1.062 2.648-1.062 2.648-2.566 5.121-1.619 2.734-2.507 5.305-3.434 8.34-1.17 3.663-2.373 6.8-4.125 10.25-1.626 3.304-2.514 5.914-3.375 9.437-0.97 3.863-1.862 5.972-4.062 9.438-2.735 4.444-3.666 8.16-4.629 13.23-0.871 2.832-0.871 2.832-2.832 5.25-2.484 3.145-3.152 5.832-4.102 9.707-1.613 6.551-1.613 6.551-4.937 9.875-2.699 1.35-4.817 1.14-7.839 1.158-0.613 5e-3 -0.613 5e-3 -3.712 0.031-0.666 4e-3 -0.666 4e-3 -4.031 0.022-2.797 0.028-5.593 0.057-8.389 0.086-4.424 0.041-8.848 0.078-13.273 0.105-4.259 0.027-8.517 0.073-12.776 0.122-0.662 1e-3 -0.662 1e-3 -4.012 9e-3 -0.617 9e-3 -0.617 9e-3 -3.741 0.051-1.084 8e-3 -2.169 0.016-3.286 0.024-4.369 0.582-6.972 2.478-10.129 5.455-2.06 3.339-2.607 6.405-3.254 10.242-1.102 5.319-3.127 10.501-6.097 15.055-2.291 4.139-2.72 8.546-3.52 13.167-1.038 3.831-2.744 6.195-4.941 9.473-1.16 3.692-1.16 3.692-2.063 7.563-1.624 6.921-1.624 6.921-3.539 10.074-2.41 4.074-1.704 7.721-1.398 12.363 2.752 1.376 4.989 1.148 8.07 1.174 0.637 6e-3 0.637 6e-3 3.863 0.041 1.383 0.01 2.767 0.02 4.192 0.031 2.901 0.033 5.802 0.066 8.703 0.1 4.596 0.047 9.191 0.092 13.787 0.131 4.42 0.04 8.84 0.091 13.26 0.144 1.383 9e-3 2.766 0.017 4.192 0.026 1.274 0.016 2.549 0.033 3.862 0.05 1.127 0.01 2.253 0.021 3.414 0.031 2.657 0.272 2.657 0.272 4.657 2.272-0.125 2.875-0.125 2.875-1 6-0.638 0.578-1.276 1.155-1.934 1.75-2.717 2.959-3.135 5.474-4.004 9.375-1.385 5.668-3.127 10.322-5.91 15.414-1.315 2.809-1.978 5.499-2.652 8.524-1.089 4.85-2.752 8.442-5.313 12.664-1.753 3.356-2.479 6.857-3.371 10.519-0.839 2.832-1.971 5.164-3.379 7.754-1.901 3.555-2.826 6.51-3.375 10.5-0.761 5.259-2.796 8.58-5.687 12.965-1.509 2.781-1.958 4.975-2.375 8.098-0.557 4.141-1.492 6.534-4 9.875-3.3 4.434-3.721 8.26-4.375 13.656-0.852 3.958-2.833 6.359-5.239 9.539-2.174 3.712-2.457 7.536-2.867 11.766-0.519 2.601-0.519 2.601-3.519 5.601-3.547 0.302-6.918 0.42-10.467 0.404-0.538 4e-3 -0.538 4e-3 -3.262 0.021-3.569 0.018-7.137 0.014-10.705 9e-3 -2.475 4e-3 -4.949 0.01-7.424 0.016-5.191 9e-3 -10.382 6e-3 -15.573-4e-3 -6.66-0.011-13.319 9e-3 -19.978 0.038-5.112 0.018-10.224 0.018-15.336 0.012-2.456 0-4.912 6e-3 -7.367 0.019-3.431 0.015-6.861 4e-3 -10.292-0.013-1.019 0.01-2.038 0.019-3.088 0.029-4.031-0.042-6.836-0.081-10.241-2.359-0.418-0.717-0.836-1.433-1.267-2.172 1.125-3.25 1.125-3.25 3-7 0.288-1.279 0.577-2.557 0.875-3.875 1.099-4.032 2.79-7.006 4.902-10.578 1.895-3.947 2.539-8.083 3.41-12.352 1.001-3.936 2.691-7.118 4.625-10.664 1.332-2.837 2.008-5.536 2.688-8.593 0.885-3.965 1.941-7.038 4.062-10.5 2.005-3.298 2.84-5.929 3.375-9.75 0.806-5.561 2.975-9.716 5.614-14.629 1.889-3.989 2.792-7.95 3.613-12.27 0.836-2.789 0.836-2.789 2.797-5.613 2.461-3.834 3.148-7.158 4.039-11.613 1.203-6.012 2.924-10.291 6-15.563 0.728-2.414 1.374-4.854 1.937-7.312 1.394-5.586 3.167-10.203 5.91-15.231 1.735-3.698 2.451-7.551 3.336-11.523 0.815-2.926 1.908-5.225 3.379-7.871 2.117-3.901 2.87-7.157 3.375-11.563 0.698-5.787 2.471-9.261 5.688-14.039 1.943-3.478 2.226-6.833 2.742-10.738 0.727-3.129 1.971-5.129 3.758-7.785 3.426-5.244 3.638-8.743 2.875-14.938-3.531-3.53-5.107-3.357-9.918-3.395-0.954 7e-3 -1.908 0.015-2.89 0.023-1.007-4e-3 -2.014-7e-3 -3.051-0.011-3.336-8e-3 -6.672 5e-3 -10.008 0.02-2.316 0-4.631 0-6.947-2e-3 -4.857 0-9.714 0.011-14.572 0.029-6.226 0.023-12.453 0.023-18.679 0.016-4.784-3e-3 -9.567 4e-3 -14.351 0.014-2.295 3e-3 -4.591 5e-3 -6.887 3e-3 -3.21 0-6.42 0.012-9.63 0.028-0.475-1e-3 -0.475-1e-3 -2.879-7e-3 -8.286 0.067-8.286 0.067-12.188 2.282-1.59 2.172-1.59 2.172-3 5-0.579 1.14-1.158 2.279-1.754 3.453-5.474 11.491-5.474 11.491-6.371 16.485-0.869 4.033-2.288 6.284-4.586 9.636-2.292 4.313-3.103 9.102-4.258 13.821-1.118 3.91-2.687 6.867-4.809 10.293-2.055 3.887-3.046 8.104-4.254 12.316-0.968 2.996-0.968 2.996-3.031 6.559-1.858 3.297-2.564 5.722-3.375 9.375-0.943 4.175-1.778 6.405-4.125 10.125-2.282 3.686-2.814 5.218-3.375 9.312-0.756 5.288-2.704 8.599-5.613 13.008-2.092 3.778-2.836 7.635-3.613 11.855-0.836 2.762-0.836 2.762-2.801 5.161-2.523 3.224-3.09 5.933-3.973 9.914-1.505 6.135-3.696 10.335-7.062 15.687-0.873 3.302-1.545 6.585-2.129 9.949-0.996 3.486-2.606 5.263-4.871 8.051-0.836 2.727-0.836 2.727-1.375 5.625-0.992 4.459-2.309 7.939-4.625 11.875-2.832 4.822-4.044 9.298-5.223 14.731-1.137 4.052-3.556 7.215-5.777 10.769-0.899 3.104-1.602 6.193-2.227 9.363-0.773 2.637-0.773 2.637-3.773 5.637-3.246 1.623-6.55 1.145-10.15 1.161-0.843 5e-3 -1.685 0.01-2.553 0.015-2.794 0.015-5.589 0.022-8.383 0.027-1.938 6e-3 -3.876 0.012-5.815 0.018-4.067 0.01-8.134 0.016-12.201 0.019-5.214 6e-3 -10.429 0.03-15.643 0.058-4.005 0.019-8.009 0.024-12.014 0.026-1.922 3e-3 -3.845 0.011-5.767 0.024-2.689 0.017-5.377 0.015-8.066 9e-3 -1.53 3e-3 -3.061 7e-3 -4.638 0.011-3.77-0.368-3.77-0.368-7.77-3.368-0.758-2.531-0.758-2.531-1.125-5.5-0.15-1.067-0.299-2.135-0.453-3.234-0.14-1.078-0.279-2.156-0.422-3.266-0.274-1.919-0.565-3.836-0.875-5.75-0.121-0.82-0.243-1.64-0.367-2.484-0.758-2.766-0.758-2.766-2.711-6.348-2.525-5.449-3.175-10.444-3.922-16.355-1.33-9.461-3.349-17.761-6.953-26.637-1.177-3.438-1.524-5.828-1.172-9.426 4.175-7.828 11.003-14.307 17.726-19.98 3.969-3.526 7.632-7.362 11.344-11.153 2.86-2.798 5.853-5.312 8.93-7.867 1.678-1.654 3.344-3.323 5-5 0.872-0.878 1.745-1.755 2.644-2.66 0.928-0.934 1.856-1.869 2.813-2.832 2.118-2.128 4.237-4.255 6.355-6.383 1.055-1.063 2.11-2.127 3.198-3.223 5.505-5.522 11.077-10.82 16.99-15.902 5.07-4.841 10.032-9.772 14.562-15.125 3.396-3.985 7.226-7.381 11.145-10.844 3.544-3.139 6.745-6.356 9.73-10.031 2.63-3.079 5.425-5.451 8.563-8l2.25-2.25c2.514-2.514 5.099-4.881 7.75-7.25 4.632-4.152 8.987-8.297 13-13.062 3-3.438 3-3.438 5.875-5.438 2.125-2 2.125-2 2.5-5.687-0.375-3.313-0.375-3.313-1.375-4.313-1.665-0.111-3.334-0.153-5.002-0.167-1.084-0.012-2.167-0.023-3.284-0.035-0.599-4e-3 -0.599-4e-3 -3.634-0.022-1.256-0.012-2.511-0.023-3.804-0.035-13.151-0.111-26.303-0.158-39.454-0.201-6.244-0.022-12.488-0.064-18.732-0.123-7.529-0.071-15.057-0.108-22.587-0.12-2.871-0.01-5.742-0.033-8.613-0.068-4.022-0.046-8.042-0.048-12.064-0.039-1.186-0.024-2.371-0.048-3.592-0.072-5.774 0.058-9.395 0.402-13.854 4.257-1.116 1.196-2.231 2.393-3.38 3.625-0.96 0.928-1.92 1.855-2.909 2.811-0.877 0.889-1.754 1.777-2.658 2.693-0.98 0.988-1.96 1.976-2.97 2.994-0.999 1.011-1.997 2.023-3.026 3.065-5.977 6.053-11.919 11.971-18.437 17.437-1.689 1.644-3.356 3.312-5 5-13.79 13.939-13.79 13.939-18.438 17.875-3.286 2.883-5.975 5.843-8.789 9.16-2.363 2.618-4.981 4.837-7.668 7.114-2.327 2.046-4.493 4.206-6.668 6.414-3.647 3.697-7.471 7.081-11.437 10.437-2.576 2.525-5.089 5.094-7.571 7.711-0.421 0.44-0.421 0.44-2.554 2.664-0.848 0.895-1.697 1.789-2.571 2.711-0.76 0.632-1.521 1.263-2.304 1.914-0.99-0.33-1.98-0.66-3-1 0.398-0.727 0.796-1.454 1.207-2.203 3.287-6.239 5.622-11.977 6.957-18.91 0.836-2.887 0.836-2.887 2.797-6.238 2.827-5.059 3.712-10.182 4.914-15.809 1.125-3.84 1.125-3.84 3.129-6.785 2.535-3.88 3.097-7.322 3.933-11.867 1.242-6.054 2.506-10.642 5.84-15.782 2.304-4.533 3.087-9.591 4.133-14.539 1.158-4.109 2.962-7.185 5.09-10.867 0.871-3.211 0.871-3.211 1.437-6.375 0.872-4.185 1.815-7.488 4.063-11.125 2.808-4.555 3.627-9.108 4.687-14.308 0.998-3.92 2.698-7.066 4.625-10.594 1.382-3.023 2.024-5.907 2.688-9.16 0.845-4.122 1.771-7.307 4-10.875 2.97-4.788 3.732-9.722 4.629-15.231 0.987-3.775 2.707-6.109 4.871-9.332 1.125-3.551 1.125-3.551 2-7.312 1.089-4.427 2.188-8.434 4.25-12.5 2.188-5.236 2.212-8.562 1.75-14.188-2.798-2.798-5.205-2.252-8.995-2.282-0.987 2e-3 -1.974 5e-3 -2.991 7e-3 -0.519-2e-3 -0.519-2e-3 -3.144-0.015-3.444-0.014-6.887-0.013-10.331-0.011-2.387-4e-3 -4.773-8e-3 -7.16-0.013-5.008-7e-3 -10.017-7e-3 -15.026-2e-3 -6.425 6e-3 -12.85-0.011-19.275-0.034-4.931-0.015-9.862-0.015-14.793-0.012-2.369-1e-3 -4.738-6e-3 -7.108-0.016-3.311-0.012-6.621-6e-3 -9.933 6e-3 -0.983-8e-3 -1.966-0.015-2.978-0.023-5.167 0.04-6.995 0.191-11.266 3.395-1.379 2.961-1.379 2.961-2.563 6.375-1.147 3.271-2.19 6.222-4.004 9.18-1.608 2.744-2.175 5.087-2.808 8.195-1.149 4.951-2.821 8.663-5.438 12.977-1.753 3.356-2.479 6.858-3.375 10.519-0.83 2.815-1.935 5.167-3.312 7.754-2.293 4.319-3.516 8.482-4.688 13.211-1.137 3.902-2.874 7.433-4.621 11.094-1.497 3.386-2.458 6.824-3.453 10.383-0.738 2.312-0.738 2.312-2.613 6-2.514 5.1-4.155 10.297-5.903 15.699-0.975 2.882-2.017 5.603-3.285 8.363-1.876 4.116-3.425 8.241-4.933 12.5-0.949 2.6-1.992 5.138-3.067 7.688-1.513 3.688-2.506 7.297-3.375 11.187-0.94 4.044-1.777 6.214-4.062 9.813-2.871 4.665-3.617 8.662-4.688 13.968-1.111 4.233-3.502 7.398-5.812 11.094-0.565 2.151-1.06 4.32-1.5 6.5-1.166 5.771-3.335 9.514-6.5 14.5-0.859 2.999-1.517 6.013-2.188 9.059-1.002 3.629-2.679 6.402-4.625 9.593-1.398 2.765-2.021 5.388-2.687 8.411-1.209 5.464-3.515 9.191-6.5 13.937-0.48 2.429-0.955 4.86-1.344 7.305-0.772 3.171-2.061 5.692-3.594 8.57-2.702 5.079-4.062 9.803-5.285 15.395-0.777 2.73-0.777 2.73-3.277 6.668-2.86 4.648-3.618 8.611-4.688 13.898-0.97 3.78-2.598 6.565-4.625 9.859-1.852 3.594-2.499 7.4-3.375 11.325-1.045 3.835-2.753 7.063-4.625 10.55-1.201 2.458-1.965 4.796-2.687 7.43-1.76 6.32-3.898 13.265-9.5 17-3.105 0.268-3.105 0.268-6.979 0.291-0.724 6e-3 -0.724 6e-3 -4.389 0.038-0.784 1e-3 -0.784 1e-3 -4.753 7e-3 -0.804 3e-3 -0.804 3e-3 -4.869 0.02-3.402 0.012-6.804 0.016-10.206 0.015-4.359 0-8.718 0.027-13.077 0.061-4.158 0.028-8.316 0.027-12.473 0.029-1.567 0.014-3.134 0.029-4.748 0.044-1.452-7e-3 -2.903-0.013-4.399-0.019-1.278 3e-3 -2.557 6e-3 -3.875 9e-3 -3.232-0.495-3.232-0.495-5.747-2.326-0.245-0.358-0.245-0.358-1.485-2.169 1.125-3.187 1.125-3.187 3-7 0.288-1.464 0.577-2.929 0.875-4.437 1.125-4.563 1.125-4.563 3.625-8.375 2.354-3.943 2.892-5.641 3.437-10 0.591-4.542 1.642-7.639 4-11.563 3.206-5.343 4.175-10.4 5.281-16.48 0.782-3.145 0.782-3.145 3.344-6.707 2.605-3.673 2.871-5.27 3.375-9.625 0.728-6.167 2.727-10.498 5.684-15.899 1.782-3.767 2.253-7.324 2.828-11.418 0.705-3.196 2.393-5.43 4.262-8.074 2.403-4.516 3.122-9.625 4.25-14.582 0.907-3.351 1.875-5.78 3.664-8.715 2.392-4.155 3.094-7.082 3.847-11.703 0.83-3.812 2.679-7.013 4.528-10.422 1.734-3.845 2.556-7.544 3.312-11.687 1.136-5.543 2.784-9.894 5.5-14.817 1.344-2.824 2.011-5.508 2.688-8.558 0.874-3.908 1.883-6.917 4-10.313 2.98-4.866 3.706-9.904 4.742-15.457 0.883-3.69 2.621-6.073 4.758-9.168 0.375-4.25 0.375-4.25 0-8-2.806-2.806-5.23-2.248-9.031-2.272-0.5 2e-3 -0.5 2e-3 -3.033 0.011-1.059-3e-3 -2.117-7e-3 -3.208-0.011-3.57-0.011-7.141-6e-3 -10.711-3e-3 -2.551-4e-3 -5.101-9e-3 -7.652-0.015-6.946-0.013-13.893-0.014-20.839-0.011-5.793 1e-3 -11.586-4e-3 -17.378-9e-3 -13.666-0.011-27.332-0.012-40.999-6e-3 -14.107 7e-3 -28.215-6e-3 -42.323-0.027-12.1-0.018-24.2-0.024-36.3-0.02-7.232 1e-3 -14.464-1e-3 -21.696-0.015-6.804-0.013-13.607-0.011-20.411 2e-3 -2.498 3e-3 -4.996 0-7.494-8e-3 -3.409-0.011-6.817-3e-3 -10.226 0.01-0.99-7e-3 -1.98-0.015-3-0.022-5.623 0.044-9.702 0.825-14.699 3.396-9 4-9 4-12.75 5.5-3.259 1.504-5.523 3.192-8.25 5.5-0.453 0.285-0.453 0.285-2.742 1.727-3.703 2.583-6.663 5.486-9.821 8.711-1.094 1.112-2.189 2.225-3.316 3.371-1.03 1.053-2.06 2.106-3.121 3.191-0.874 0.861-1.748 1.722-2.649 2.61-6.072 6.173-10.657 12.591-14.351 20.39l-3 3c-0.883 1.843-1.689 3.724-2.438 5.625-1.484 3.698-2.979 7.372-4.625 11-1.406 3.174-2.73 6.335-4 9.563-1.047 2.661-2.112 5.148-3.437 7.687-1.43 2.979-2.429 5.859-3.438 9-1.172 3.638-2.384 6.759-4.125 10.188-1.615 3.282-2.512 5.877-3.375 9.375-0.932 3.694-2.036 6.674-4 9.937-2.802 4.656-4.105 9.497-5.594 14.695-0.968 2.93-0.968 2.93-3.031 5.993-2.033 3.082-2.583 5.239-3.375 8.812-1.247 5.541-3.51 9.318-6.562 14.125-0.85 2.737-1.513 5.489-2.188 8.274-1.048 3.516-2.752 6.351-4.625 9.484-1.649 3.115-2.455 6.323-3.375 9.711-0.859 2.678-1.993 4.987-3.312 7.469-1.882 3.566-3.094 6.898-4.063 10.812-1.11 4.464-2.712 7.503-5.437 11.25-0.475 1.238-0.949 2.475-1.438 3.75-1.562 3.25-1.562 3.25-3.702 4.442-3.51 0.992-6.539 1.028-10.189 0.991-1.475-0.01-2.95-0.021-4.469-0.032-1.586-0.023-3.173-0.045-4.808-0.069-1.63-0.018-3.261-0.036-4.941-0.054-3.446-0.04-6.891-0.087-10.337-0.139-4.422-0.067-8.844-0.11-13.266-0.148-4.215-0.039-8.429-0.1-12.643-0.159-1.593-0.012-3.186-0.025-4.826-0.038-1.466-0.026-2.931-0.053-4.441-0.08-1.295-0.017-2.59-0.034-3.924-0.052-0.995-0.136-1.991-0.272-3.016-0.412l-2-3c0.722-0.969 1.443-1.939 2.187-2.937 3.087-4.459 3.864-7.821 5-13.02 0.796-2.981 1.849-5.338 3.313-8.043 2.477-4.585 3.63-9.042 4.629-14.14 0.871-2.86 0.871-2.86 2.839-5.731 2.363-3.64 3.081-6.707 3.969-10.941 1.314-5.684 2.834-9.965 5.91-14.856 2.005-4.057 2.506-8.491 3.34-12.91 0.972-4.092 2.612-7.335 4.625-10.996 1.282-2.618 1.992-5.098 2.688-7.926 0.936-3.796 2.133-6.941 4-10.375 2.076-3.88 3.125-7.438 4-11.75 1.171-5.712 3.402-9.419 6.5-14.375 0.868-3.232 1.52-6.477 2.183-9.758 1.012-4.018 2.725-7.29 4.696-10.91 1.121-2.332 1.121-2.332 2.121-6.894 0.959-4.255 2.49-7.028 4.711-10.723 1.656-3.488 2.426-6.954 3.289-10.715 1.28-5.572 2.75-9.787 5.773-14.582 2.225-4.385 3.126-9.198 4.235-13.965 0.992-3.453 0.992-3.453 2.589-6.113 2.225-3.711 1.708-7.13 1.403-11.34-2.891-2.891-4.959-2.256-9.009-2.265-1.503-8e-3 -3.007-0.016-4.555-0.025l-5.031 3e-3c-1.758-6e-3 -3.515-0.013-5.272-0.021-3.791-0.015-7.582-0.023-11.373-0.027-5.991-7e-3 -11.982-0.029-17.974-0.053-12.72-0.049-25.441-0.081-38.161-0.112-13.725-0.033-27.449-0.069-41.173-0.124-5.959-0.023-11.917-0.037-17.875-0.043-3.705-6e-3 -7.41-0.02-11.116-0.037-1.72-6e-3 -3.441-8e-3 -5.161-7e-3 -2.346 1e-3 -4.692-0.011-7.037-0.024-1.314-3e-3 -2.628-6e-3 -3.981-9e-3 -3.282-0.256-3.282-0.256-7.282-2.256 0.587-3.521 1.356-5.713 3-9 0.268-1.382 0.536-2.764 0.812-4.187 0.972-3.938 1.674-5.898 3.688-9.188 2.569-4.279 3.204-8.104 3.898-12.996 0.602-2.629 0.602-2.629 3.227-6.754 2.884-4.706 3.014-7.445 2.375-12.875-3-4-3-4-6.091-4.484-0.642 4e-3 -0.642 4e-3 -3.887 0.023-1.471-1e-3 -2.941-2e-3 -4.457-3e-3 -1.619 0.019-3.238 0.038-4.907 0.058-1.718 6e-3 -3.436 0.01-5.154 0.012-3.703 0.01-7.406 0.032-11.108 0.063-5.853 0.049-11.706 0.069-17.559 0.085-11.368 0.034-22.735 0.098-34.103 0.165-14.466 0.085-28.933 0.158-43.399 0.201-5.821 0.018-11.641 0.052-17.461 0.098-3.619 0.025-7.238 0.038-10.856 0.048-2.483 0.011-4.966 0.037-7.448 0.063-1.474 2e-3 -2.947 3e-3 -4.466 5e-3 -1.283 8e-3 -2.566 0.016-3.887 0.024-3.217-0.358-3.217-0.358-7.217-3.358-1.209-7.252 2.144-14.585 5.562-20.875 1.942-4.221 2.708-8.551 3.676-13.082 0.762-3.043 0.762-3.043 2.449-6.23 2.055-4.403 1.694-7.985 1.313-12.813-3.436-2.291-4.68-2.252-8.723-2.259-1.201-7e-3 -2.401-0.013-3.637-0.021-1.325 3e-3 -2.651 6e-3 -4.016 8e-3 -1.402-5e-3 -2.805-0.01-4.25-0.015-4.728-0.015-9.457-0.015-14.185-0.016-3.378-6e-3 -6.756-0.016-10.135-0.025-7.287-0.019-14.575-0.031-21.863-0.038-10.538-0.01-21.076-0.032-31.615-0.057-17.097-0.041-34.195-0.073-51.293-0.1-1.024-2e-3 -2.048-3e-3 -3.103-5e-3 -0.512-1e-3 -0.512-1e-3 -3.106-5e-3 -14.539-0.022-29.079-0.047-43.618-0.074-1.023-2e-3 -2.047-4e-3 -3.101-6e-3 -17.035-0.032-34.07-0.067-51.105-0.105-10.517-0.023-21.035-0.042-31.552-0.056-7.2-9e-3 -14.4-0.022-21.6-0.038-4.16-8e-3 -8.32-0.015-12.48-0.018-4.499-4e-3 -8.998-0.014-13.497-0.025-0.664 0-0.664 0-4.029 1e-3 -1.195-4e-3 -2.39-8e-3 -3.621-0.013-0.52-1e-3 -0.52-1e-3 -3.151-5e-3 -2.32-0.128-2.32-0.128-3.32-1.128-0.105-1.693-0.14-3.391-0.147-5.088-8e-3 -1.11-0.015-2.219-0.022-3.362-4e-3 -1.234-7e-3 -2.469-0.01-3.74-7e-3 -1.299-0.014-2.599-0.021-3.937-0.023-4.392-0.038-8.783-0.053-13.174-0.015-3.134-0.03-6.267-0.045-9.4-0.04-8.539-0.073-17.079-0.104-25.618-0.02-5.329-0.041-10.659-0.062-15.988-0.059-14.747-0.115-29.494-0.165-44.241-3e-3 -0.945-6e-3 -1.89-0.01-2.863-3e-3 -0.947-6e-3 -1.894-9e-3 -2.869-7e-3 -1.919-0.013-3.838-0.02-5.757-3e-3 -0.952-6e-3 -1.904-9e-3 -2.885-0.053-15.421-0.119-30.843-0.191-46.265-0.073-15.822-0.135-31.645-0.186-47.467-0.029-8.889-0.063-17.777-0.109-26.665-0.043-8.359-0.071-16.719-0.088-25.078-9e-3 -3.073-0.023-6.146-0.043-9.218-0.026-4.187-0.033-8.373-0.036-12.56-0.012-1.223-0.024-2.446-0.036-3.706 0.031-11.325 0.031-11.325 3.366-15.119 8.359-2.624 16.784-2.279 25.475-2.254zm2246.5 239.25c-0.784 0.052-0.784 0.052-4.75 0.313-5.042 0.815-5.935 1.957-9.25 5.687-1.521 1.031-3.065 2.029-4.625 3-3.489 2.253-5.732 4.057-7.375 8v2l-4 2c-2.375 3.562-2.791 6.363-3.563 10.563-1.344 7.251-1.344 7.251-2.437 9.437-0.123 1.935-0.176 3.874-0.188 5.813-0.014 1.037-0.028 2.075-0.043 3.144 0.238 3.133 1.053 5.158 2.231 8.043 0.515 3.569 0.882 7.136 1.242 10.723 0.849 3.67 1.793 5.017 4.758 7.277h2c0.247 0.722 0.495 1.444 0.75 2.188 2.248 5.057 6.434 7.404 11.25 9.812 0.563 0.829 1.126 1.658 1.707 2.512 3.3 3.581 6.223 3.621 10.98 4.301 0.765 0.116 0.765 0.116 4.637 0.707 6.915 0.71 13.498 0.703 20.363-0.395 1.056-0.162 2.112-0.325 3.199-0.492 6.51-1.323 10.048-3.377 15.114-7.633 1.32-0.536 2.64-1.072 4-1.625 4.885-2.901 6.226-5.683 8.578-10.719 1.422-2.656 1.422-2.656 3.475-4.25 2.884-3.564 2.539-7.164 2.513-11.554 6e-3 -0.89 0.013-1.781 0.019-2.698 7e-3 -1.881 4e-3 -3.762-9e-3 -5.643-0.014-2.869 0.02-5.736 0.059-8.605 0-1.83-1e-3 -3.661-6e-3 -5.492 0.013-0.853 0.026-1.706 0.04-2.586-0.092-5.939-1.532-8.656-5.669-12.828-0.578-0.949-1.155-1.897-1.75-2.875-3.182-4.419-7.098-7.64-11.25-11.125-0.588-0.546-0.588-0.546-3.563-3.312-10.482-7.726-26.563-6.492-38.437-3.688zm-679 93c-1.285 3.356-1.285 3.356-2.063 7.188-1.056 4.58-2.001 8.444-4.5 12.437-2.802 4.514-3.574 9.09-4.625 14.25-0.972 3.74-2.605 6.483-4.621 9.738-1.939 3.886-2.567 8.022-3.32 12.274-0.871 3.113-0.871 3.113-2.82 6.027-5.628 8.468-6.858 20.133-6.051 30.086 4.15 4.15 10.148 3.161 15.646 3.177 0.489 3e-3 0.489 3e-3 2.963 0.02 3.233 0.02 6.466 0.031 9.699 0.041 1.105 5e-3 2.209 9e-3 3.347 0.013 5.841 0.021 11.682 0.035 17.524 0.044 6.037 0.011 12.074 0.046 18.111 0.085 4.64 0.027 9.28 0.035 13.921 0.039 2.226 4e-3 4.452 0.016 6.678 0.035 3.112 0.024 6.223 0.023 9.335 0.016 0.92 0.013 1.84 0.026 2.788 0.039 3.951-0.032 6.54-0.231 9.933-2.339 5.356-5.656 7.795-10.672 9.617-18.232 1.434-5.92 3.066-9.927 6.438-14.938 1.09-3.734 1.09-3.734 1.937-7.75 1.363-5.892 3.075-10.702 5.981-15.969 1.47-3.099 1.884-6.297 2.414-9.664 0.801-3.141 2.191-5.552 3.793-8.367 3.512-6.597 3.929-12.891 2.875-20.25-2.793-2.792-5.189-2.257-8.973-2.293-0.492 0-0.492 0-2.981 3e-3 -1.035-7e-3 -2.069-0.014-3.135-0.021-3.434-0.019-6.868-0.023-10.302-0.025-2.382-6e-3 -4.763-0.013-7.145-0.02-5-0.012-10.001-0.016-15.001-0.014-6.407 0-12.814-0.028-19.221-0.062-4.922-0.022-9.845-0.026-14.767-0.025-2.362-3e-3 -4.724-0.011-7.086-0.027-3.306-0.02-6.611-0.014-9.918-2e-3 -0.487-5e-3 -0.487-5e-3 -2.957-0.034-5.677 0.053-9.238 0.679-13.514 4.52z" fill="#E11919"/>
<path transform="translate(28,510)" d="m0 0c42.915-0.022 85.83-0.04 128.74-0.051 5.061-1e-3 10.122-3e-3 15.183-4e-3 0.504 0 0.504 0 3.053-1e-3 16.337-4e-3 32.674-0.012 49.011-0.021 16.75-9e-3 33.501-0.015 50.251-0.017 10.344-1e-3 20.689-6e-3 31.033-0.014 7.084-5e-3 14.167-7e-3 21.251-6e-3 4.093 1e-3 8.186 0 12.279-5e-3 4.427-5e-3 8.854-4e-3 13.281-1e-3 1.308-3e-3 2.617-6e-3 3.965-9e-3 1.175 2e-3 2.351 4e-3 3.563 6e-3 0.512 0 0.512 0 3.101-1e-3 2.285 0.124 2.285 0.124 3.285 1.124 1.099 9.668-3.746 19.47-7.062 28.371-0.93 2.606-1.731 5.222-2.5 7.879-1.438 4.75-1.438 4.75-3.188 8.312-1.622 4.461-1.032 7.816-0.25 12.438 4.139 0.993 8.026 1.135 12.276 1.151 1.487 9e-3 2.973 0.017 4.504 0.026 1.626 4e-3 3.253 8e-3 4.928 0.012 1.733 8e-3 3.466 0.017 5.199 0.026 3.729 0.018 7.457 0.033 11.186 0.045 5.89 0.021 11.779 0.048 17.669 0.077 13.561 0.065 27.121 0.121 40.682 0.176 12.438 0.051 24.877 0.104 37.315 0.165 5.862 0.028 11.723 0.052 17.584 0.071 3.636 0.014 7.273 0.031 10.909 0.05 2.503 0.011 5.007 0.018 7.51 0.024 0.737 4e-3 0.737 4e-3 4.47 0.026 0.645 2e-3 0.645 2e-3 3.91 0.015 2.858 0.136 2.858 0.136 3.858 1.136-0.545 7.488-2.042 14.818-6 21.25-2.508 4.702-3.224 9.218-4.094 14.445-0.998 3.64-2.41 5.522-4.906 8.305-1.42 2.841-1.315 4.855-1 8 1.438 2.312 1.438 2.312 4 4 8.412 1.387 16.892 1.126 25.396 1.098 2.51-3e-3 5.019-5e-3 7.529-7e-3 2.683-3e-3 5.365-9e-3 8.048-0.016 5.597-0.013 11.193-0.019 16.79-0.024 11.871-0.011 23.741-0.031 35.612-0.051 12.837-0.022 25.674-0.043 38.511-0.053 5.567-5e-3 11.133-0.015 16.699-0.029 2.624-6e-3 5.248-9e-3 7.872-0.011 3.203-3e-3 6.406-0.01 9.608-0.02 0.703 0 0.703 0 4.257-1e-3 1.224-2e-3 2.449-4e-3 3.71-6e-3 2.968 0.12 2.968 0.12 5.968 1.12-0.879 10.55-3.197 19.54-8 29-0.699 2.156-1.363 4.324-2 6.5-1.106 3.772-2.21 6.914-4 10.438-2.371 4.815-3.6 9.64-4.992 14.808-1.008 3.254-1.008 3.254-3.133 6.879-1.88 3.384-2.268 5.355-2.75 9.125-0.784 5.689-2.756 9.504-5.676 14.383-2.082 4.119-2.837 8.299-3.613 12.824-0.836 3.043-0.836 3.043-2.797 5.926-3.106 4.748-3.759 9.847-4.914 15.34-1.125 3.777-1.125 3.777-3.094 6.187-2.835 3.615-3.545 7.572-4.531 11.965-1.394 6.153-3.269 11.174-6.5 16.625-0.871 2.957-0.871 2.957-1.438 5.812-0.93 4.092-2.071 7.496-4.062 11.188-1.973 3.659-3.097 7.004-4 11.062-0.877 3.916-1.898 6.96-4 10.376-2.801 4.593-3.624 9.191-4.676 14.421-0.805 3.069-1.842 5.216-3.512 7.891-2.656 4.883-2.976 7.772-2.312 13.25 4.42 4.42 6.39 4.129 12.567 4.145 1.603 7e-3 3.205 0.013 4.855 0.02 1.761 1e-3 3.521 2e-3 5.281 3e-3 1.799 3e-3 3.598 7e-3 5.397 0.01 3.776 6e-3 7.552 8e-3 11.328 7e-3 4.833 0 9.666 0.014 14.5 0.031 3.718 0.011 7.436 0.013 11.154 0.013 1.781 1e-3 3.563 5e-3 5.344 0.013 2.496 0.01 4.993 6e-3 7.489 1e-3 1.42 1e-3 2.839 3e-3 4.302 4e-3 3.661-0.239 6.431-0.776 9.783-2.247 1.223-2.297 1.223-2.297 2-5 0.805-1.753 1.618-3.503 2.438-5.25 1.591-3.461 2.991-6.864 4.124-10.5 1.438-4.25 1.438-4.25 3.438-7.625 1.762-3.194 2.582-5.519 3.438-9 0.935-3.759 2.051-6.754 4.062-10.063 2.104-3.494 3.122-6.641 4-10.624 1.221-5.479 3.496-9.175 6.5-13.938 1.103-3.227 2.031-6.482 2.965-9.762 1.236-3.866 2.97-7.249 4.875-10.82 1.229-2.562 2.022-5.058 2.785-7.793 1.375-4.625 1.375-4.625 4.375-8.625 0.695-2.019 1.314-4.065 1.875-6.125 1.514-5.193 3.431-9.706 5.969-14.465 1.21-2.523 1.979-4.964 2.718-7.66 1.438-4.75 1.438-4.75 3.407-7.621 2.17-3.343 3.029-6.086 3.969-9.941 1.158-4.342 2.345-8.124 4.624-12 2.438-4.188 2.438-4.188 3.876-8.688 1.537-4.427 3.376-7.582 6.062-11.359 1.624-2.317 3.055-4.709 4.5-7.141 8.689-13.836 21.053-26.16 36-33 0.71-0.465 1.419-0.93 2.15-1.409 14.775-8.247 31.885-8.464 48.309-8.38 2.373-0.01 4.746-0.022 7.118-0.037 6.373-0.032 12.745-0.028 19.118-0.017 6.689 5e-3 13.378-0.022 20.067-0.046 11.208-0.034 22.416-0.048 33.624-0.046 15.821 3e-3 31.642-0.034 47.464-0.079 12.292-0.033 24.584-0.055 36.877-0.076 1.318-2e-3 2.637-5e-3 3.995-7e-3 7.56-0.013 15.12-0.021 22.68-0.019 2.292-1e-3 4.584-3e-3 6.876-7e-3 3.117-4e-3 6.235-3e-3 9.353 0 0.915-2e-3 1.83-5e-3 2.772-8e-3 3.443 9e-3 6.308 0.035 9.597 1.131-0.488 4.393-1.067 8.768-1.812 13.125-0.131 0.786-0.261 1.573-0.395 2.383-0.793 2.492-0.793 2.492-2.742 5.262-3.19 5.024-3.788 10.457-4.926 16.234-1.154 4.101-2.518 5.752-5.125 8.996-1.09 3.855-1.09 3.855-1.938 8.188-1.317 6.087-2.89 11.018-5.91 16.425-1.332 2.761-1.982 5.398-2.652 8.387-0.905 4.033-2.041 7.361-4 11-2.45 4.558-3.558 8.969-4.688 13.996-1.079 3.993-2.83 7.506-4.624 11.219-1.25 2.931-1.99 5.741-2.688 8.847-0.893 3.94-1.989 7.153-3.938 10.688-3.012 5.574-4.172 11.426-5.597 17.562-1.114 4.258-2.95 7.784-4.965 11.688-0.703 2.323-1.366 4.658-2 7-1.466 5.417-3.489 9.978-6 15-0.517 1.949-0.993 3.908-1.438 5.875-0.928 4.056-2.073 7.41-4.062 11.063-2.647 4.89-3.64 9.734-4.742 15.152-0.917 3.522-2.738 5.916-4.758 8.91-0.522 4.31-0.82 6.815 1.688 10.438 4.459 3.013 9.358 2.703 14.606 2.755 1.469 0.016 2.938 0.032 4.451 0.049 6.709 0.044 13.417 0.085 20.126 0.108 3.536 0.013 7.071 0.041 10.606 0.082 5.105 0.059 10.21 0.077 15.316 0.091 1.573 0.023 3.146 0.046 4.767 0.069 8.906-0.017 14.912-0.687 22.44-5.592 1.746-2.578 1.746-2.578 2.438-5.25 0.138-0.48 0.138-0.48 0.839-2.906 0.239-0.939 0.477-1.877 0.723-2.844 2.669-8.452 2.669-8.452 5-12.312 1.825-3.366 2.607-5.82 3.438-9.5 0.913-3.993 1.988-7.338 3.937-10.938 2.997-5.572 4.627-11.443 6.437-17.484 1.411-4.472 3.22-8.513 5.188-12.766 1.014-2.666 1.973-5.348 2.93-8.035 1.569-4.348 3.246-8.654 4.914-12.965 0.921-2.39 1.823-4.788 2.718-7.188 1.075-2.848 2.177-5.675 3.313-8.5 4.207-10.478 8.157-20.961 11.5-31.75 1.229-3.45 2.486-6.305 4.187-9.5 1.792-3.428 2.824-6.371 3.438-10.187 1-4.875 1-4.875 3.438-8.75 2.775-4.467 3.633-8.117 4.75-13.18 1.005-3.646 2.677-6.46 4.624-9.672 1.754-3.357 2.48-6.86 3.376-10.523 0.827-2.802 1.929-5.12 3.312-7.688 1.976-3.698 3.096-7.093 4-11.187 1.218-5.44 3.539-9.137 6.5-13.875 0.862-2.975 1.52-5.964 2.188-8.988 1.033-3.833 2.745-7.023 4.621-10.5 1.662-3.506 2.499-7.091 3.32-10.871 0.871-2.641 0.871-2.641 2.84-5.481 2.349-3.655 3.079-6.732 3.969-10.972 1.308-5.639 2.782-9.982 5.839-14.844 2.152-4.125 3.068-8.652 4.258-13.129 1.137-3.788 2.98-6.804 4.965-10.215 1.084-3.24 2.038-6.506 2.996-9.785 1.333-4.269 3.126-8.157 5.004-12.215 0.536-1.464 1.072-2.929 1.625-4.438 1.375-3.562 1.375-3.562 3.375-5.562 3.008-0.194 5.923-0.262 8.932-0.243 0.463-1e-3 0.463-1e-3 2.804-6e-3 3.068-3e-3 6.137 7e-3 9.205 0.019 2.125 1e-3 4.25 1e-3 6.374 1e-3 4.457 1e-3 8.913 0.01 13.369 0.023 5.726 0.017 11.452 0.021 17.178 0.02 4.388 1e-3 8.776 6e-3 13.164 0.013 2.112 3e-3 4.224 5e-3 6.336 6e-3 2.945 2e-3 5.89 0.011 8.836 0.022 0.881-1e-3 1.763-1e-3 2.671-2e-3 6.017 0.033 6.017 0.033 7.131 1.147 0.497 8.822-0.815 15.842-4.938 23.688-2.458 5.14-3.672 10.267-5.062 15.777-1.175 4.155-3.047 7.69-5 11.535-1.071 3.542-2.029 7.107-2.992 10.68-1.008 3.32-1.008 3.32-3.133 7.445-1.752 3.621-2.291 5.964-2.813 9.875-0.792 5.673-2.831 9.234-6.062 14-1.098 3.122-1.857 6.114-2.383 9.379-0.78 4.649-1.501 7.442-4.117 11.496-2.383 3.932-2.896 5.626-3.438 10-0.579 4.488-1.551 7.362-4.062 11.125-3.063 4.617-3.704 8.431-4.379 13.863-0.929 4.69-3.062 8.634-5.172 12.895-1.809 4.048-2.769 8.05-3.613 12.39-0.836 2.852-0.836 2.852-2.797 6.204-2.185 3.909-3.099 7.283-4.039 11.648-1.24 5.757-3.058 9.925-6 15-0.84 2.514-1.591 5.058-2.25 7.625-0.168 0.636-0.168 0.636-1.016 3.852-0.734 3.523-0.734 3.523-0.734 8.523 1 1 1 1 3.688 1.188 3.554-0.202 6.095-0.653 9.312-2.188 0.69-1.657 1.353-3.326 2-5 2.278-2.063 4.616-4.061 7-6 2.667-2.54 5.033-5.042 7.312-7.938 2.563-2.92 5.229-4.972 8.372-7.226 4.838-3.835 9.016-8.42 13.316-12.836 3.524-3.58 7.153-7.001 10.875-10.375 3.509-3.193 6.948-6.406 10.25-9.813 2.875-2.812 2.875-2.812 4.875-2.812l2-4c2.5-2.508 5.016-4.924 7.625-7.312 0.344-0.32 0.344-0.32 2.082-1.936 3.388-3.137 6.816-6.214 10.316-9.225 4.944-4.299 9.45-9.012 13.977-13.742 0.66-0.674 1.32-1.348 2-2.043 0.578-0.599 1.155-1.199 1.75-1.817 7.284-6.232 12.203-7.656 21.623-7.493 1.113 0 2.226-1e-3 3.373-2e-3 3.658 4e-3 7.315 0.042 10.973 0.082 2.544 9e-3 5.089 0.016 7.633 0.021 6.681 0.019 13.362 0.068 20.043 0.124 6.824 0.051 13.648 0.074 20.472 0.099 13.378 0.053 26.755 0.139 40.133 0.244l1 4c-1.917 1.785-3.85 3.558-5.883 5.211-2.117 1.789-2.117 1.789-4.617 4.789-2.495 2.994-5.226 5.42-8.184 7.945-5.69 5.048-11.155 10.442-16.004 16.305-2.423 2.882-5.134 5.195-7.974 7.654-4.347 3.897-8.418 8.074-12.526 12.221-0.875 0.88-1.751 1.761-2.654 2.668-3.342 3.359-6.68 6.723-10.01 10.094-2.051 2.018-4.164 3.913-6.336 5.801-5.984 5.336-11.593 11.039-17.215 16.752-3.371 3.409-6.743 6.743-10.39 9.857-5.768 4.959-11.041 10.432-16.395 15.828-0.533 0.536-0.533 0.536-3.232 3.246-1.98 1.989-3.959 3.978-5.936 5.969-0.873 0.878-1.745 1.756-2.644 2.66-0.865 0.88-1.731 1.761-2.622 2.667-2.378 2.333-2.378 2.333-5.878 5.145-4.327 3.941-8.271 8.026-8.711 14.094 0.207 3.041 0.72 5.659 1.523 8.594 1.509 5.688 2.717 11.401 3.844 17.176 0.844 3.324 0.844 3.324 2.352 6.703 1.695 4.113 2.273 7.842 2.867 12.246 1.061 6.881 2.713 12.697 5.437 19.07 1.841 5.123 2.499 10.393 3.219 15.774 1.158 4.221 2.565 5.831 5.969 8.531 3.99 1.985 7.244 2.246 11.676 2.23 1.363 0 2.725-1e-3 4.129-2e-3 1.488-0.014 2.975-0.027 4.507-0.04 0.776-5e-3 0.776-5e-3 4.701-0.029 3.434-0.026 6.867-0.057 10.3-0.097 3.979-0.046 7.957-0.079 11.936-0.104 5.412-0.037 10.822-0.095 16.234-0.169 2.125-0.026 4.25-0.046 6.375-0.059 3.01-0.022 6.019-0.068 9.029-0.121 0.889-1e-3 1.778-2e-3 2.695-3e-3 6.471-0.151 10.724-1.808 16.418-4.606h2c0.371-1.567 0.743-3.135 1.125-4.75 1.176-4.358 2.71-8.134 4.813-12.125 2.766-5.26 4.496-10.468 6.132-16.168 1.221-3.882 3.089-7.333 4.93-10.957 0.692-2.012 1.357-4.034 2-6.062 1.12-3.52 2.174-6.233 4.062-9.438 1.807-3.264 2.519-5.596 3.313-9.188 1.284-5.658 3.497-10.255 6.211-15.355 1.801-3.765 2.726-7.537 3.703-11.578 0.711-2.379 0.711-2.379 2.711-5.317 2.058-3.151 2.634-5.302 3.438-8.937 0.922-4.091 1.717-6.371 4-10 3.003-4.834 4.153-9.399 5.593-14.863 1.132-3.811 2.939-6.857 4.969-10.262 0.517-1.592 0.993-3.198 1.438-4.812 0.997-3.6 2.244-6.704 4-10 2.585-4.909 4.057-9.918 5.597-15.231 1.186-3.634 3.071-6.643 4.965-9.957 1.062-3.179 1.995-6.385 2.938-9.602 1.654-5.292 3.86-10.315 6.062-15.398 0.878-2.103 1.753-4.207 2.625-6.312 1.322-3.184 2.667-6.348 4.063-9.5 1.312-3.188 1.312-3.188 2.25-6.938 1.062-3.25 1.062-3.25 5.062-6.25 3.146-0.281 6.09-0.389 9.235-0.356 0.934-2e-3 1.867-5e-3 2.829-7e-3 3.086-3e-3 6.171 0.016 9.256 0.035 2.142 3e-3 4.284 5e-3 6.426 6e-3 4.487 4e-3 8.974 0.019 13.462 0.041 5.761 0.028 11.523 0.039 17.284 0.043 4.422 5e-3 8.843 0.014 13.265 0.026 2.125 6e-3 4.25 0.011 6.375 0.015 2.964 6e-3 5.928 0.02 8.892 0.036 0.884 1e-3 1.768 2e-3 2.679 3e-3 6.068 0.043 6.068 0.043 8.297 1.158-0.43 2.926-1.033 5.062-2.438 7.688-1.677 3.555-2.222 6.914-2.906 10.761-0.854 3.32-2.593 5.956-4.363 8.863-2.255 4.688-3.131 9.754-4.203 14.821-1.158 4.109-2.945 7.195-5.09 10.867-0.871 2.957-0.871 2.957-1.438 5.812-0.93 4.092-2.071 7.496-4.062 11.188-1.959 3.639-3.095 6.967-4 11-0.894 3.975-1.987 7.238-3.938 10.812-2.828 5.26-4.092 10.672-5.527 16.442-1.25 4.524-2.993 8.684-4.879 12.973-1.422 3.411-2.41 6.87-3.414 10.421-0.973 3.083-2.35 5.956-3.711 8.883-1.203 2.881-2.085 5.788-2.969 8.781-1.607 5.423-3.606 10.529-5.839 15.719-1.626 3.948-2.943 7.97-4.254 12.031-0.944 2.863-1.973 5.679-3.031 8.5-1.371 3.696-2.474 7.367-3.438 11.188-0.876 3.382-1.69 5.57-3.5 8.625-1.955 3.543-2.64 6.139-3.438 10.063-0.874 4.263-1.795 7.38-4.312 10.937-2.25 3.625-2.25 3.625-2.25 7.437 1 3.188 1 3.188 4 6.188 4.426 1.475 8.874 1.147 13.495 1.145 1.08 4e-3 2.16 7e-3 3.273 0.01 3.581 0.01 7.162 0.012 10.744 0.013 2.487 3e-3 4.975 7e-3 7.463 0.01 5.221 6e-3 10.442 8e-3 15.663 7e-3 6.684 0 13.368 0.014 20.051 0.031 5.142 0.011 10.283 0.013 15.424 0.013 2.464 1e-3 4.927 5e-3 7.391 0.013 3.451 0.01 6.903 7e-3 10.354 1e-3 1.014 6e-3 2.028 0.011 3.072 0.017 13.871-0.061 13.871-0.061 19.07-5.26 1.12-3.19 1.964-6.411 2.84-9.676 1.16-3.324 1.16-3.324 3.168-6.32 2.166-3.266 2.999-5.964 3.93-9.754 1.445-5.435 3.317-10.022 5.976-14.953 1.086-2.297 1.086-2.297 2.086-6.859 0.968-4.296 2.535-7.242 4.777-10.989 1.393-2.789 2.049-5.408 2.723-8.449 1.083-4.874 2.736-8.424 5.312-12.656 1.391-2.745 2.021-5.343 2.688-8.344 1.086-4.881 2.737-8.481 5.312-12.727 1.755-3.359 2.481-6.866 3.379-10.531 0.814-2.758 1.884-5.028 3.247-7.554 2.654-5.002 4.008-10.076 5.449-15.532 1.163-3.821 2.682-7.285 4.363-10.906 2.69-5.988 3.342-10.24 2.75-16.75-4.076-1.525-7.413-2.242-11.758-2.195-1.108 6e-3 -2.216 0.013-3.357 0.02-0.591 8e-3 -0.591 8e-3 -3.58 0.05-1.225 8e-3 -2.45 0.015-3.712 0.023-3.906 0.024-7.812 0.062-11.718 0.102-5.148 0.053-10.297 0.093-15.445 0.125-0.593 8e-3 -0.593 8e-3 -3.593 0.05-1.101 7e-3 -2.203 0.014-3.337 0.02-0.968 0.011-1.936 0.021-2.933 0.032-2.567-0.227-2.567-0.227-6.567-2.227 0.673-6.548 1.776-12.055 4.938-17.875 2.992-5.522 4.148-10.685 5.289-16.824 0.931-3.974 2.555-7.059 4.523-10.602 2.062-4.453 2.95-9.203 3.965-13.988 1.64-4.736 3.325-8.579 7.285-11.711 4.724-1.165 9.348-1.023 14.191-0.93 1.378-6e-3 2.756-0.012 4.176-0.018 4.4-0.013 8.796 0.028 13.195 0.073 4.403 0.013 8.804 0.016 13.207 9e-3 2.737-1e-3 5.475 0.012 8.213 0.04 1.242 6e-3 2.483 0.012 3.762 0.018 1.09 0.011 2.18 0.022 3.303 0.033 3.097-0.236 5.217-0.765 7.953-2.225 1.988-3.748 3.162-7.516 4.438-11.562 1.562-4.438 1.562-4.438 3.562-7.313 1.903-2.973 2.558-4.884 3.375-8.25 1.343-5.415 3.557-9.959 6.141-14.883 1.871-3.772 3.245-7.631 4.617-11.605 0.867-2.387 0.867-2.387 2.429-5.449 1.287-2.63 2.042-4.944 2.813-7.75 1.255-4.419 3.11-7.972 5.437-11.907 1.64-3.15 2.448-6.393 3.372-9.808 1.114-3.374 2.88-6.201 4.695-9.239 1.121-2.234 1.121-2.234 2.121-7.046 1-4.188 1-4.188 3.438-6.688 4.868-2.85 9.311-2.642 14.791-2.629 0.945-2e-3 1.89-4e-3 2.863-6e-3 3.128-4e-3 6.256-1e-3 9.385 2e-3 2.168 0 4.336-1e-3 6.504-3e-3 4.544-1e-3 9.089 1e-3 13.633 6e-3 5.839 5e-3 11.678 2e-3 17.518-4e-3 4.476-4e-3 8.952-2e-3 13.428 0 2.154 1e-3 4.308 0 6.462-2e-3 3.003-3e-3 6.005 1e-3 9.008 7e-3 0.449-1e-3 0.449-1e-3 2.723-7e-3 6.133 0.022 6.133 0.022 7.247 1.136 0.764 5.021-0.315 7.896-2.812 12.125-3.068 5.21-4.241 9.999-5.411 15.887-1.088 4.185-3.495 7.336-5.777 10.988-0.565 2.151-1.06 4.32-1.5 6.5-1.166 5.778-3.368 9.489-6.5 14.5-0.869 3.235-1.522 6.483-2.188 9.766-0.997 3.97-2.673 7.186-4.621 10.761-1.697 3.522-2.508 7.157-3.433 10.942-0.758 2.531-0.758 2.531-2.946 6.219-2.251 4.115-2.419 6.686-1.812 11.312 2.057 2.696 3.25 3.851 6.607 4.519 0.493 4e-3 0.493 4e-3 2.988 0.027 1.121 0.02 2.241 0.039 3.396 0.06 0.602 0 0.602 0 3.65 3e-3 0.618 9e-3 0.618 9e-3 3.749 0.05 3.953 0.049 7.906 0.07 11.86 0.091 2.68 0.028 5.359 0.058 8.039 0.09 6.57 0.074 13.14 0.125 19.711 0.16 0.995 4.975 0.917 6.973-1.688 11.375-3.312 6.142-4.833 12.173-6.382 18.945-1.136 4.496-3.027 8.458-4.93 12.68-0.937 3.542-1.791 7.09-2.582 10.668-4.28 13.077-4.28 13.077-8.418 18.332-4.856 1.938-9.379 1.62-14.543 1.332-0.701-0.011-0.701-0.011-4.246-0.067-4.471-0.085-8.931-0.267-13.399-0.453-3.017-0.078-6.035-0.151-9.052-0.216-4.245-0.094-8.486-0.197-12.729-0.35-1.258-0.045-2.516-0.091-3.813-0.137-0.553-0.023-0.553-0.023-3.354-0.135-2.864 0.026-2.864 0.026-6.864 1.026-1.035 2.121-1.035 2.121-2 5-1.141 2.356-2.287 4.71-3.438 7.062-2.692 5.708-4.492 11.045-5.824 17.188-0.752 2.803-1.791 5.019-3.176 7.562-2.891 5.35-4.137 10.909-5.593 16.782-1.107 3.893-2.932 6.924-4.969 10.406-0.524 1.926-0.999 3.865-1.438 5.812-0.918 4.033-2.017 7.374-4 11-2.862 5.313-4.142 10.811-5.593 16.641-0.812 2.973-1.73 5.579-3.031 8.359-1.439 3.11-2.461 5.753-3.376 9-1.081 3.808-2.431 7.367-4 11-2.242 5.229-3.921 10.493-5.515 15.95-1.067 3.301-2.38 6.385-3.797 9.55-2.036 4.751-3.011 8.454-2.25 13.688 4.917 4.917 9.005 4.154 15.657 4.161 1.109 5e-3 2.218 0.01 3.361 0.015 3.684 0.015 7.368 0.022 11.052 0.027 2.557 6e-3 5.113 0.012 7.669 0.017 5.369 0.011 10.737 0.017 16.106 0.02 6.873 6e-3 13.746 0.03 20.619 0.058 5.285 0.019 10.569 0.024 15.854 0.026 2.533 3e-3 5.067 0.011 7.6 0.024 3.55 0.017 7.099 0.015 10.649 8e-3 1.043 0.01 2.087 0.019 3.162 0.028 6.03-0.034 10.72-0.741 16.271-3.384 2.875-3.449 3.565-6.892 4.375-11.25 1.106-5.187 2.678-8.965 5.437-13.441 1.405-2.731 2.023-5.315 2.688-8.309 1.082-4.87 2.73-8.418 5.309-12.645 1.843-3.644 2.545-7.47 3.32-11.46 0.871-2.895 0.871-2.895 2.84-5.809 2.264-3.44 3.054-6.273 3.969-10.274 1.428-5.742 3.255-10.755 5.839-16.058 1.799-4.052 2.956-8.248 4.133-12.516 1.332-3.956 3.224-7.506 5.09-11.238 1.066-2.838 2.087-5.693 3.062-8.562 1.793-5.254 3.753-10.339 5.938-15.438 0.511-1.636 0.994-3.282 1.438-4.938 0.948-3.302 1.962-5.837 3.562-8.937 1.746-3.601 2.634-6.457 3.5-10.313 1.079-4.673 2.338-7.171 5.5-10.812 0.686-1.629 1.328-3.278 1.938-4.938 1.682-4.472 3.876-7.468 7.062-11.062l1.5-3c1.752-3.503 3.918-6.058 6.5-9 0.866-1.093 1.733-2.186 2.625-3.312 3.654-3.992 7.552-7.262 11.781-10.622 1.914-1.524 3.771-3.121 5.594-4.754 3.627-2.795 7.462-4.857 11.512-6.98 2.488-1.332 2.488-1.332 5.488-3.332 1.944-0.554 3.905-1.048 5.875-1.5 2.991-0.69 5.793-1.363 8.633-2.531 5.895-2.292 12.009-2.121 18.249-2.127 0.977-5e-3 1.954-0.01 2.961-0.015 3.27-0.016 6.54-0.024 9.811-0.032 2.345-0.01 4.691-0.02 7.037-0.03 6.367-0.027 12.734-0.048 19.101-0.068 6.655-0.022 13.309-0.05 19.964-0.076 12.601-0.05 25.201-0.095 37.802-0.138 14.346-0.05 28.692-0.105 43.037-0.16 29.51-0.114 59.02-0.221 88.53-0.323 0.614 2.325 0.614 2.325 1 5-1.309 2.016-2.645 4.014-4 6-1.055 3.883-1.055 3.883-1.875 8.125-1.453 6.689-3.465 12.05-6.742 18.02-1.917 3.957-2.796 7.964-3.645 12.261-0.738 2.594-0.738 2.594-3.738 6.594-0.888 2.727-1.691 5.481-2.438 8.25-1.695 6.015-3.731 11.18-6.562 16.75-0.7 2.344-1.364 4.7-2 7.062-1.414 5.229-3.303 9.24-6 13.938-0.524 1.905-0.999 3.824-1.438 5.75-1.186 5.192-2.994 9.607-5.304 14.387-1.812 4.124-2.985 8.382-4.168 12.722-1.09 3.141-1.09 3.141-3.086 6.536-2.151 3.869-3.068 7.228-4.004 11.543-1.383 5.901-3.179 10.684-6 16.062-1.053 3.172-1.991 6.369-2.938 9.574-1.732 5.587-3.909 10.99-6.062 16.426-3.418 8.719-6.61 17.495-9.668 26.348-1.332 3.652-1.332 3.652-3.332 7.652-0.062 3.562-0.062 3.562 1 7 6.652 4.285 14.368 3.391 21.976 3.325 0.754-1e-3 0.754-1e-3 4.569-4e-3 4.122-6e-3 8.243-0.025 12.365-0.05 4.316-0.022 8.632-0.027 12.948-0.033 8.17-0.015 16.341-0.044 24.511-0.078 14.644-0.062 29.289-0.1 43.933-0.132 5.14-0.012 10.28-0.03 15.42-0.054 3.94-0.017 7.88-0.028 11.82-0.04 1.428-8e-3 2.855-0.017 4.326-0.025 0.649-2e-3 0.649-2e-3 3.934-9e-3 1.131-5e-3 2.262-0.01 3.428-0.015 2.77 0.115 2.77 0.115 5.77 1.115 0.01 0.872 0.021 1.743 0.031 2.642 0.098 8.238 0.201 16.477 0.308 24.715 0.055 4.235 0.109 8.47 0.158 12.705 0.058 4.875 0.122 9.75 0.187 14.626 0.016 1.511 0.033 3.023 0.05 4.581 0.01 0.71 0.01 0.71 0.061 4.305 0.015 1.244 0.031 2.487 0.047 3.769 0.158 3.657 0.158 3.657 0.921 7.934 0.078 1.228 0.156 2.457 0.237 3.723-4.896 3.672-6.926 3.383-12.969 3.401-0.917 7e-3 -1.833 0.014-2.778 0.021-3.078 0.019-6.156 0.016-9.234 0.014-2.205 9e-3 -4.409 0.019-6.613 0.03-5.994 0.027-11.988 0.034-17.982 0.036-5.003 3e-3 -10.005 0.014-15.007 0.024-11.804 0.025-23.607 0.032-35.41 0.03-12.176-2e-3 -24.352 0.03-36.529 0.077-10.452 0.039-20.904 0.055-31.356 0.054-6.243-1e-3 -12.486 7e-3 -18.729 0.039-5.874 0.029-11.747 0.029-17.621 8e-3 -2.154-4e-3 -4.309 3e-3 -6.463 0.022-2.945 0.023-5.887 9e-3 -8.832-0.014-0.823 1e-3 -0.823 1e-3 -4.99 5e-3 -5.782-0.963-8.033-3.015-12.487-6.747-3.449-1.32-3.449-1.32-6.688-2.125-4.774-1.201-7.589-2.658-11.312-5.875-1.32-0.804-2.64-1.609-4-2.438-11.153-7.144-17.937-18.189-21.062-30.874-0.938-3.688-0.938-3.688-1.938-4.688-6.486-0.794-9.856 1.142-15 5-1.697 1.921-3.391 3.844-5.06 5.789-3.265 3.721-6.755 7.21-10.252 10.711-0.358 0.364-0.358 0.364-2.167 2.203-1.8 1.806-3.656 3.557-5.521 5.297h-2l-2 4c-2 2.25-2 2.25-4 4h-2l-2 4-7 7-2 4c-3.293 0.521-3.293 0.521-7.612 0.549-1.612 0.019-3.225 0.038-4.886 0.058-1.773 0-3.546-2e-3 -5.318-5e-3 -1.814 7e-3 -3.628 0.016-5.443 0.026-3.81 0.014-7.621 0.014-11.432 3e-3 -4.867-0.011-9.732 0.022-14.599 0.069-3.752 0.03-7.503 0.031-11.255 0.025-1.793 1e-3 -3.586 0.011-5.378 0.032-10.277 0.101-17.14 0.081-25.077-6.757-2.855-1.066-2.855-1.066-5.188-1.562-4.622-1.215-7.283-3.149-10.812-6.438-1.011-0.66-2.021-1.32-3.062-2-8.307-5.656-12.708-13.151-16.938-22l-2-4c-0.431-1.905-0.804-3.824-1.125-5.75-0.168-0.985-0.335-1.97-0.508-2.984-0.121-0.748-0.242-1.496-0.367-2.266-3.563-0.531-6.097-0.525-9.258 1.312-4.911 3.73-8.841 7.901-12.742 12.688-3.458 3.63-7.152 6.793-11 10-1.687 1.646-3.355 3.312-5 5-2.561 2.627-5.082 5.066-7.938 7.375-3.423 2.935-6.178 6.165-9.062 9.625l-3 3-2 4c-2.359 0.506-2.359 0.506-5.377 0.515-1.141 0.012-2.282 0.025-3.458 0.038-1.258-6e-3 -2.517-0.013-3.813-0.02-1.32 9e-3 -2.641 0.018-4.001 0.027-4.385 0.022-8.77 0.015-13.156 6e-3 -3.036 6e-3 -6.073 0.012-9.11 0.019-6.374 0.011-12.748 6e-3 -19.122-9e-3 -8.181-0.017-16.361 7e-3 -24.542 0.042-6.274 0.022-12.548 0.02-18.823 0.012-3.016-1e-3 -6.033 6e-3 -9.05 0.021-4.214 0.017-8.427 3e-3 -12.641-0.02-1.254 0.012-2.509 0.023-3.801 0.036-1.147-0.013-2.294-0.026-3.475-0.039-0.997 0-1.994-1e-3 -3.02-2e-3 -3.574-0.857-4.535-2.688-6.611-5.626-2.621-1.66-2.621-1.66-5.438-3.062-3.9-2.033-7.264-3.997-10.562-6.938-0.614-0.513-1.227-1.026-1.859-1.555-8.8-7.443-13.121-13.984-17.528-24.703-1.356-3.146-2.605-5.972-4.613-8.742-3.375-1.062-3.375-1.062-7-1-3.348 1.96-5.297 4.35-7.812 7.312-2.877 3.328-5.778 6.036-9.114 8.864-2.153 1.894-4.14 3.891-6.136 5.949-3.373 3.432-6.989 6.118-10.938 8.875-1.707 1.626-3.377 3.291-5 5-2.801 2.874-5.594 5.493-8.688 8.062-3.312 2.938-3.312 2.938-5.312 6.938-2.419 0.506-2.419 0.506-5.522 0.515-1.173 0.012-2.347 0.025-3.556 0.038-1.294-6e-3 -2.588-0.013-3.921-0.02-1.358 9e-3 -2.716 0.018-4.115 0.027-4.51 0.022-9.02 0.015-13.531 6e-3 -3.124 6e-3 -6.248 0.012-9.372 0.019-6.558 0.011-13.116 6e-3 -19.674-9e-3 -7.58-0.016-15.159-1e-3 -22.739 0.032-7.29 0.03-14.579 0.032-21.868 0.022-3.102-1e-3 -6.205 6e-3 -9.307 0.021-4.336 0.017-8.671 3e-3 -13.008-0.02-1.288 0.012-2.576 0.023-3.903 0.036-8.742-0.094-8.742-0.094-12.658-3.116-0.301-0.421-0.301-0.421-1.826-2.551-2.547-1.409-5.124-2.535-7.793-3.691-2.207-1.309-2.207-1.309-4.207-5.309l-4-2c-5.651-5.174-9.689-10.372-12.168-17.629-0.832-2.371-0.832-2.371-2.957-6.433-2.085-4.378-2.985-8.191-3.875-12.938-3.549-0.518-6.042-0.629-9.105 1.383-3.739 3.24-6.858 6.712-9.895 10.617-4 3-4 3-6 3l-2 4c-1.721 1.86-3.499 3.668-5.312 5.438-0.473 0.463-0.473 0.463-2.864 2.808-0.932 0.909-1.864 1.818-2.824 2.754-0.86 0.868-1.72 1.735-2.605 2.629-2.072 2.051-4.18 3.978-6.395 5.871-8.468 7.37-8.468 7.37-10.458 11.598-2.542 2.902-2.542 2.902-7.348 3.704-2.036 0.054-4.073 0.075-6.11 0.07-1.112 0.02-2.225 0.04-3.371 0.061-3.683 0.057-7.365 0.068-11.049 0.075-2.558 0.019-5.116 0.039-7.675 0.06-5.365 0.036-10.729 0.047-16.094 0.044-6.878-1e-3 -13.751 0.081-20.627 0.184-5.285 0.067-10.569 0.079-15.854 0.076-2.535 7e-3 -5.07 0.034-7.604 0.08-19.832 0.329-19.832 0.329-24.675-4.03-1.67-3.212-2.513-5.868-3.135-9.422-0.239-0.951-0.479-1.903-0.726-2.883-0.607-2.47-1.024-4.915-1.399-7.429-0.986-6.368-2.617-11.099-5.875-16.688-0.745-2.872-1.387-5.772-1.938-8.688-1.362-6.596-3.136-12.344-5.91-18.457-1.657-4.107-2.435-8.316-3.34-12.64-0.821-3.249-1.948-6.095-3.312-9.153-2.456-5.535-3.611-10.971-4.754-16.898-0.746-3.164-0.746-3.164-2.746-7.039-2.033-4.194-2.687-7.488-3.438-12.063-0.798-4.765-1.483-8.561-4.124-12.624-3.216-4.983-3.487-10.282-4.079-16.083-0.359-3.355-0.359-3.355-1.359-7.355-3.813-0.188-3.813-0.188-8 0-3.584 3.584-5.064 7.421-7 12-0.681 1.464-1.361 2.929-2.062 4.438-1.403 3.301-2.482 6.27-3.438 9.687-0.904 3.204-1.771 5.332-3.5 8.25-1.845 3.345-2.609 5.764-3.438 9.437-1.149 5.029-2.875 9.093-5.304 13.618-1.855 3.789-3.022 7.749-4.289 11.765-0.969 2.805-0.969 2.805-3.031 6.805-1.676 3.46-2.538 6.176-3.376 9.875-1.148 4.989-2.891 9.001-5.304 13.488-1.933 4.052-3.043 8.308-4.293 12.61-1.244 3.903-3.112 7.379-4.965 11.027-1.054 3.026-2.023 6.073-2.996 9.125-1.004 2.875-1.004 2.875-3.066 6.875-2.11 4.355-3.135 8.455-4.129 13.168-0.951 3.33-1.495 5.207-3.809 7.832-3.519 0.482-6.551 0.632-10.071 0.568-0.517 0-0.517 0-3.134 2e-3 -3.426-4e-3 -6.85-0.043-10.275-0.082-2.373-9e-3 -4.745-0.016-7.117-0.021-6.249-0.019-12.498-0.068-18.747-0.124-6.374-0.051-12.748-0.074-19.123-0.099-12.511-0.054-25.022-0.139-37.533-0.244-0.141-4.918 0.492-6.82 3-11 0.808-2.777 1.5-5.563 2.156-8.379 0.844-2.621 0.844-2.621 3.844-6.621 0.923-2.475 1.771-4.979 2.562-7.5 1.283-4.06 2.53-7.684 4.438-11.5v-5l-1-1c-6.188 0.253-10.035 2.396-15 6-1.694 1.977-3.363 3.976-5 6-1.999 1.335-3.999 2.668-6 4-1.822 1.591-3.614 3.217-5.375 4.875-3.634 3.361-7.293 6.392-11.313 9.289-7.449 5.914-16.044 12.933-21.312 20.836-3.112 0.318-6.027 0.44-9.144 0.436-0.948 0.01-1.896 0.02-2.873 0.03-3.147 0.029-6.293 0.035-9.44 0.038-2.182 0.01-4.365 0.02-6.547 0.03-4.581 0.018-9.162 0.024-13.742 0.022-5.872 0-11.743 0.041-17.614 0.092-4.51 0.034-9.02 0.04-13.53 0.038-2.164 4e-3 -4.329 0.017-6.493 0.04-3.029 0.029-6.056 0.021-9.085 3e-3 -0.448 8e-3 -0.448 8e-3 -2.713 0.051-4.639-0.071-6.436-0.399-9.781-3.731-0.673-1.006-1.345-2.012-2.038-3.049-2.141-1.512-2.141-1.512-4.25-2.688-9.814-6.186-16.184-16.615-19.75-27.312-0.99-1.32-1.98-2.64-3-4-0.949-3.453-0.949-3.453-1.688-7.25-0.251-1.263-0.502-2.527-0.761-3.828-0.091-0.482-0.091-0.482-0.551-2.922-4.028-0.318-6.322-0.423-9.801 1.75-0.414 0.371-0.414 0.371-2.511 2.25-4.535 4-4.535 4-6.688 4l-2 4c-1.961 1.535-1.961 1.535-4.375 3.062-5.429 3.635-10.049 7.881-14.766 12.387-2.859 2.551-2.859 2.551-5.777 4.481-3.741 2.513-6.864 5.42-10.144 8.508-0.594 0.556-0.594 0.556-3.598 3.371-8.127 7.765-8.127 7.765-9.34 10.191-2.677 0.216-5.366 0.288-8.052 0.306-0.844 9e-3 -1.688 0.017-2.557 0.026-2.805 0.024-5.61 0.033-8.414 0.039l-5.826 0.027c-4.078 0.017-8.155 0.025-12.232 0.028-5.232 5e-3 -10.463 0.043-15.694 0.088-4.013 0.03-8.026 0.037-12.039 0.038-1.929 4e-3 -3.858 0.017-5.787 0.038-2.697 0.027-5.391 0.022-8.088 9e-3 -0.768 3e-3 -0.768 3e-3 -4.654 0.016-3.657-0.615-3.657-0.615-5.43-2.996-0.405-0.864-0.81-1.729-1.227-2.619-2.655-1.686-5.322-3.352-8-5-2.187-2.5-2.187-2.5-4-5-0.784-0.763-1.567-1.526-2.375-2.312-5.909-6.05-9.382-11.904-12.625-19.688-1.317-2.675-2.65-5.342-4-8-0.751-1.499-1.501-2.999-2.25-4.5-0.577-1.155-1.155-2.31-1.75-3.5-6.511 0.271-10.151 2.998-15 7-5.15 3.995-10.468 7.554-16 11-1.692 1.301-3.357 2.638-5 4-4.882 3.88-9.793 7.564-15 11-9.247 6.59-9.247 6.59-13.641 10.125-2.359 1.875-2.359 1.875-5.547 3.875-2.812 2-2.812 2-4.812 6-2.589 0.492-2.589 0.492-5.935 0.481-1.265 6e-3 -2.53 0.011-3.833 0.017-1.395-0.015-2.791-0.029-4.229-0.044-0.731 0-0.731 0-4.434 2e-3 -4.021-2e-3 -8.041-0.023-12.061-0.05-4.199-0.025-8.398-0.028-12.596-0.033-7.955-0.012-15.909-0.045-23.863-0.085-9.055-0.045-18.109-0.067-27.163-0.087-18.629-0.042-37.257-0.112-55.886-0.201-0.227-5.664-0.227-5.664 1.812-8.688 2.047-3.098 2.756-4.98 3.626-8.5 1.248-5.015 3.097-9.411 5.308-14.07 1.622-3.546 2.919-7.17 4.219-10.844 2.762-7.733 5.766-15.365 9.035-22.898 2.148-5.207 4.173-10.443 6.062-15.75 1.032-2.888 2.057-5.475 3.5-8.188 1.421-3.026 2.086-5.684 2.813-8.937 1.288-5.52 3.616-9.311 6.625-14.125 0.866-3.008 1.538-5.998 2.129-9.07 0.871-2.93 0.871-2.93 2.84-5.871 2.199-3.312 3.032-6.026 3.969-9.871 1.146-4.312 2.298-8.003 4.624-11.813 2.618-4.288 3.539-8.524 4.626-13.395 1.045-3.834 2.751-7.061 4.624-10.546 1.21-2.479 1.967-4.839 2.688-7.496 0.949-3.466 2.14-6.241 4-9.313 2.617-4.399 3.658-8.731 4.629-13.73 0.871-2.895 0.871-2.895 2.82-5.79 2.312-3.5 3.263-6.551 4.301-10.605 0.335-1.268 0.67-2.537 1.016-3.844 0.678-3.378 1.019-6.228 0.734-9.656-2.232-2.848-3.55-3.85-7-5-2.186-0.105-4.375-0.149-6.563-0.161-1.359-0.01-2.718-0.019-4.117-0.029-1.472-4e-3 -2.944-9e-3 -4.461-0.013-1.51-6e-3 -3.021-0.012-4.577-0.017-3.202-0.01-6.403-0.016-9.604-0.02-4.894-0.01-9.788-0.041-14.682-0.072-3.108-7e-3 -6.216-0.012-9.324-0.016-1.464-0.012-2.928-0.025-4.436-0.038-1.371 3e-3 -2.742 6e-3 -4.155 0.01-1.201-4e-3 -2.402-8e-3 -3.64-0.011-4.014 0.428-6.893 1.452-10.441 3.367-2.062 3.875-2.062 3.875-2.973 6.289-1.169 3.085-2.586 5.993-4.027 8.961-2.574 5.523-4.383 11.048-6.066 16.895-0.934 2.855-0.934 2.855-2.996 6.417-1.838 3.261-2.561 5.644-3.376 9.25-1.145 5.019-2.878 9.04-5.304 13.551-1.934 4.053-3.045 8.309-4.289 12.614-0.969 3.023-0.969 3.023-3.031 7.023-1.778 3.67-2.568 6.546-3.376 10.5-1.206 5.751-3.441 9.507-6.562 14.5-0.862 3.284-1.517 6.582-2.188 9.91-0.812 3.09-0.812 3.09-3.312 7.028-2.986 4.852-3.729 9.122-4.629 14.695-0.985 3.806-2.699 6.111-4.871 9.367-0.922 2.785-1.751 5.601-2.5 8.438-1.537 5.81-3.467 10.39-6.5 15.562-0.871 2.738-0.871 2.738-1.438 5.312-0.964 3.867-2.173 7.118-4.062 10.626-2.462 4.608-3.627 9.091-4.629 14.203-0.871 2.859-0.871 2.859-2.805 5.625-2.576 4.033-3.527 8.127-4.566 12.734-2.524 11.192-2.524 11.192-6.5 15.5-3.593 0.58-6.502 0.761-10.093 0.681-1.024 1e-3 -2.049 2e-3 -3.105 3e-3 -3.388-4e-3 -6.774-0.051-10.161-0.098-2.349-0.011-4.697-0.02-7.046-0.026-6.181-0.023-12.362-0.082-18.544-0.148-6.307-0.061-12.615-0.089-18.922-0.119-12.377-0.064-24.753-0.167-37.129-0.293-0.305-5.281-0.317-6.577 3-11 0.718-2.039 1.358-4.105 1.938-6.188 1.164-3.996 2.382-7.509 4.124-11.312 1.647-3.824 2.545-6.968 3.376-11 1.077-5.089 2.665-8.739 5.374-13.125 1.457-2.912 2.039-5.688 2.688-8.875 1.042-5.116 2.594-8.724 5.312-13.125 1.457-2.912 2.039-5.688 2.688-8.875 0.846-4.155 1.772-7.392 4-11 2.808-4.554 3.626-9.106 4.688-14.305 1.001-3.937 2.693-7.12 4.624-10.668 1.324-2.817 2.008-5.492 2.688-8.527 1.121-4.994 2.898-8.954 5.312-13.438 1.312-2.83 2.005-5.52 2.688-8.562 0.891-3.965 1.975-7.195 3.938-10.75 3.012-5.573 4.171-11.424 5.597-17.559 1.114-4.263 2.922-7.797 4.965-11.691 0.7-2.156 1.363-4.324 2-6.5 1.12-3.825 2.247-6.986 4.062-10.562 1.694-3.441 2.541-6.122 3.376-9.813 0.932-4.066 2.085-7.454 4.062-11.125 2.464-4.576 3.556-9.013 4.684-14.062 0.816-2.938 1.914-5.273 3.378-7.938 2.016-3.721 2.851-6.803 3.376-11 0.583-4.516 1.647-7.348 4.187-11.125 3.448-5.239 3.714-8.664 2.875-14.875-1.885-2.576-3.193-3.597-6-5-1.928-0.112-3.86-0.159-5.792-0.177-1.215-0.013-2.43-0.026-3.682-0.039-0.661-4e-3 -0.661-4e-3 -4.003-0.022-1.354-8e-3 -2.708-0.016-4.104-0.025-2.873-0.014-5.746-0.024-8.62-0.032-4.385-0.017-8.769-0.061-13.154-0.105-2.791-0.011-5.581-0.019-8.372-0.026-1.308-0.017-2.617-0.035-3.965-0.053-8.523 0.02-13.74 1.022-20.62 6.229-3.277 4.369-4.502 9.659-6.126 14.812-1.562 4.438-1.562 4.438-3.562 7.688-2.374 4.452-3.193 8.63-4.094 13.566-0.906 3.184-0.906 3.184-2.879 6.125-2.304 3.477-3.057 6.378-3.965 10.434-1.506 6.086-3.635 10.352-7.062 15.625-0.883 2.763-1.572 5.538-2.258 8.355-0.742 2.645-0.742 2.645-2.68 6.457-1.872 3.803-2.926 7.114-4 11.188-1.173 4.358-2.186 7.197-4.624 11.062-2.311 3.732-3.024 5.926-3.876 10.126-1.229 6.05-3.381 11.084-6.082 16.613-1.873 4.049-3.203 8.182-4.55 12.429-1.36 4.05-3.176 7.878-4.93 11.77-1.034 2.737-2.019 5.49-3 8.246-1.248 3.437-2.619 6.817-3.996 10.203-1.43 3.633-2.706 7.317-3.977 11.008-1.027 2.543-1.027 2.543-2.558 4.93-2.329 4.143-2.732 8.596-3.528 13.238-1.035 3.71-2.558 5.408-4.941 8.375-1.09 3.488-1.09 3.488-1.938 7.312-1.505 6.135-3.696 10.336-7.062 15.688-0.908 3.332-1.607 6.65-2.227 10.047-0.773 2.953-0.773 2.953-3.773 6.953-1.057 3.079-2.031 6.128-2.938 9.25-1.836 6.307-4.088 11.861-7.062 17.75l-2 7h-106c-1-6-1-6 0.328-8.535 0.634-0.834 1.269-1.668 1.922-2.527 3.607-5.233 4.831-9.768 6.008-15.95 1.043-4.202 3.458-7.333 5.742-10.988 0.565-2.151 1.06-4.32 1.5-6.5 1.166-5.778 3.368-9.489 6.5-14.5 0.865-3.257 1.519-6.529 2.188-9.832 0.971-3.79 2.584-6.612 4.621-9.914 1.777-3.363 2.525-6.876 3.32-10.578 0.871-2.676 0.871-2.676 2.84-5.524 2.342-3.635 3.078-6.683 3.969-10.902 1.348-5.801 2.987-10.575 5.843-15.766 1.924-3.921 2.973-8.073 4.188-12.257 1.279-4.004 3.005-7.684 4.808-11.473 1.722-3.878 2.964-7.873 4.254-11.91 0.879-2.581 1.884-4.999 3.031-7.469 1.441-3.253 2.495-6.114 3.438-9.5 0.902-3.199 1.749-5.288 3.5-8.187 1.924-3.548 2.636-6.153 3.438-10.063 1.072-5.144 2.626-8.811 5.371-13.234 1.95-3.915 2.57-8.092 3.32-12.375 0.871-3.016 0.871-3.016 2.84-5.45 2.535-3.203 3.088-5.907 3.969-9.878 1.505-6.135 3.696-10.336 7.062-15.688 0.868-3.236 1.523-6.486 2.188-9.77 0.995-3.956 2.68-7.136 4.624-10.695 1.339-2.858 2.01-5.581 2.688-8.66 1.218-5.44 3.539-9.137 6.5-13.875 0.862-2.976 1.52-5.967 2.188-8.992 1.031-3.818 2.754-6.975 4.624-10.438 1.327-2.872 2.007-5.609 2.688-8.695 0.875-3.954 1.865-6.807 4.188-10.125 2.692-4.367 2.816-6.711 2.312-11.75l-1-4c-4.132-1.033-7.516-1.139-11.77-1.158-1.621-0.01-3.242-0.02-4.912-0.03-1.799-6e-3 -3.598-0.012-5.397-0.017-1.892-0.01-3.784-0.02-5.677-0.03-5.14-0.027-10.28-0.048-15.42-0.068-5.371-0.022-10.741-0.05-16.112-0.076-10.171-0.05-20.342-0.095-30.514-0.138-13.743-0.059-27.487-0.125-41.23-0.191-21.656-0.104-43.312-0.197-64.968-0.292v-92zm861 204c-2.312 3.75-2.312 3.75-4 8-1.511 3.588-2.928 6.885-5 10.188-1.807 3.444-2.605 6.007-3.438 9.75-1.25 5.513-3.56 9.259-6.562 14.062-0.858 3-1.517 6.016-2.191 9.062-0.991 3.6-2.622 6.351-4.551 9.516-2.056 3.958-3.066 8.219-4.289 12.492-0.969 2.93-0.969 2.93-3.031 5.992-2.046 3.102-2.624 5.343-3.438 8.938-1.104 4.877-2.703 7.846-5.5 12-0.691 2.09-1.332 4.197-1.938 6.312-1.173 4.09-2.39 7.569-4.624 11.188-2.791 4.597-3.567 9.274-4.614 14.5-0.824 3-0.824 3-3.512 6.625-2.841 4.148-2.906 6.82-2.976 11.727 0.941 3.754 2.705 5.201 5.664 7.648 3.091 0.628 3.091 0.628 6.591 0.631 0.658 6e-3 0.658 6e-3 3.985 0.038 1.415-0.013 2.83-0.026 4.287-0.04 0.731 1e-3 0.731 1e-3 4.428 7e-3 3.091-1e-3 6.181-0.014 9.272-0.039 4.721-0.034 9.44-0.021 14.162-1e-3 3.004-7e-3 6.009-0.017 9.013-0.03 1.409 5e-3 2.817 0.01 4.269 0.015 7.435-0.088 12.735-0.416 18.993-4.581 3.968-4.409 5.26-9.631 6.996-15.188 1.004-2.812 1.004-2.812 3.066-5.812 1.987-3.077 2.577-5.213 3.376-8.75 1.147-5.062 2.867-9.138 5.308-13.691 1.823-3.72 2.97-7.601 4.219-11.543 1.355-3.947 3.102-7.652 4.879-11.422 1.156-2.594 1.156-2.594 2.718-7.282 1.438-4.312 1.438-4.312 3.25-7.874 3.259-6.611 5.656-13.523 8.188-20.438 0.269-0.707 0.269-0.707 1.629-4.285 1.371-3.715 1.371-3.715 2.246-7.153 1.174-3.716 2.939-6.746 4.898-10.097 1.753-3.523 2.55-7.159 3.469-10.969 0.758-2.496 0.758-2.496 2.946-5.621 2.614-4.147 2.42-7.078 1.812-11.875-2.522-3.253-4.012-4.801-8.091-5.621-1.155 2e-3 -2.31 4e-3 -3.5 6e-3 -1.315-0.01-2.63-0.019-3.985-0.028-1.415 0.016-2.83 0.032-4.287 0.049h-4.428c-3.091 5e-3 -6.182 0.023-9.272 0.052-4.721 0.042-9.441 0.041-14.162 0.034-3.004 0.011-6.009 0.024-9.013 0.039-1.409 0-2.817 1e-3 -4.269 1e-3 -6.866 0.082-12.791 0.154-18.993 3.468zm1248 2c-2.819 3.758-3.681 5.741-4.875 10.125-1.516 5.197-3.437 9.713-5.973 14.477-1.183 2.463-1.935 4.827-2.652 7.46-0.962 3.519-2.196 6.367-4.062 9.5-1.922 3.239-2.596 5.158-3.438 9-1 4.438-1 4.438-3.438 8.25-2.743 4.484-3.71 8.159-4.691 13.258-0.871 2.93-0.871 2.93-2.84 5.868-2.209 3.33-3.034 6.069-3.969 9.937-1.552 5.842-3.839 10.001-7.062 15.125-0.881 3.067-1.567 6.147-2.258 9.262-0.934 3.447-2.753 5.785-4.742 8.738-1.095 3.272-2.038 6.573-2.984 9.891-1.016 3.109-1.016 3.109-3.266 6.797-2.56 4.845-2.38 7.855-1.75 13.312 2.515 3.277 4 4.799 8.091 5.621 1.155-2e-3 2.31-4e-3 3.5-6e-3 1.315 0.01 2.63 0.019 3.985 0.028 1.415-0.016 2.83-0.032 4.287-0.049h4.428c3.091-5e-3 6.182-0.023 9.272-0.052 4.721-0.042 9.441-0.041 14.162-0.034 3.004-0.011 6.009-0.024 9.013-0.039 1.409 0 2.817-1e-3 4.269-1e-3 6.886-0.083 12.749-0.2 18.993-3.468 3.353-4.622 5.033-9.673 7-15 0.639-1.196 1.279-2.393 1.938-3.625 2.315-4.911 3.626-9.752 4.937-15.008 1.214-3.633 3.005-6.197 5.125-9.367 0.871-2.93 0.871-2.93 1.438-5.875 1.246-5.546 3.543-9.295 6.562-14.125 0.561-1.984 1.057-3.987 1.5-6 1.212-5.501 3.472-9.231 6.5-14 0.855-2.716 1.518-5.448 2.191-8.215 1.066-3.669 2.763-6.814 4.551-10.176 1.845-3.827 3.014-7.825 4.289-11.871 0.969-2.738 0.969-2.738 3.031-6.238 1.859-3.358 2.604-5.918 3.438-9.625 1.039-4.566 2.115-7.49 5.5-10.875 1.817-3.634 1.366-8.015 1-12-2-4-2-4-4.232-5.231-3.123-0.868-5.81-1.044-9.052-1.075-1.249-0.016-2.497-0.032-3.784-0.049-1.343-5e-3 -2.685-0.011-4.069-0.016-1.389-9e-3 -2.779-0.018-4.211-0.027-2.941-0.015-5.882-0.024-8.824-0.028-4.481-0.011-8.962-0.061-13.443-0.111-2.862-0.01-5.723-0.017-8.584-0.022-1.333-0.019-2.665-0.039-4.038-0.059-7.869 0.038-14.313 0.798-20.763 5.618z" fill="#FAFAFA"/>
<path transform="translate(36.206 609.87)" d="m0 0c1.572-3e-3 3.144-6e-3 4.763-9e-3 1.76 2e-3 3.519 4e-3 5.279 7e-3 1.839-2e-3 3.678-4e-3 5.517-6e-3 5.011-4e-3 10.021-3e-3 15.031 1e-3 5.232 2e-3 10.465 0 15.697-2e-3 8.789-2e-3 17.578 1e-3 26.368 6e-3 10.174 5e-3 20.348 3e-3 30.522-2e-3 8.72-5e-3 17.44-5e-3 26.16-3e-3 5.215 2e-3 10.43 2e-3 15.644-1e-3 4.903-3e-3 9.805-1e-3 14.708 5e-3 1.804 1e-3 3.607 1e-3 5.411-2e-3 2.454-2e-3 4.907 2e-3 7.361 6e-3 0.688 0 0.688 0 4.169 1e-3 3.164 0.126 3.164 0.126 5.164 1.126-0.75 5.75-0.75 5.75-3 8-0.799 2.932-1.403 5.885-2.023 8.859-0.977 3.141-0.977 3.141-2.958 6.075-2.28 3.463-3.048 6.347-3.957 10.378-1.132 4.581-2.252 8.515-4.687 12.563-2.375 4.125-2.375 4.125-3.313 8.437-0.941 4.153-2.024 6.753-4 10.438-2.817 5.342-4.101 10.333-5.285 16.223-0.956 3.726-2.589 6.534-4.59 9.785-1.349 2.547-2.005 4.945-2.687 7.742-0.91 3.726-2.009 6.661-4 9.937-2.636 4.387-3.585 8.695-4.688 13.657-1.008 3.608-2.69 6.384-4.625 9.562-1.842 3.638-2.496 7.481-3.375 11.442-0.79 2.822-1.782 4.858-3.312 7.339-2.228 3.648-3.153 6.938-4 11.125-1.169 5.738-3.352 9.479-6.5 14.438-0.859 2.999-1.517 6.013-2.188 9.059-1.001 3.626-2.675 6.397-4.621 9.586-1.871 3.699-2.549 7.622-3.445 11.648-0.941 3.414-2.789 5.772-4.746 8.707-0.511 1.819-0.963 3.656-1.375 5.5-1.369 6.045-3.623 11.396-6.145 17.043-1.787 4.173-3.171 8.414-4.554 12.734-1.082 3.183-2.451 6.205-3.86 9.254-1.832 4.242-3.309 8.61-4.836 12.969-1.103 3.14-2.253 6.258-3.418 9.375-1.148 3.118-2.009 5.99-2.75 9.25-1.075 3.923-2.781 6.909-4.839 10.391-1.825 3.707-2.519 7.566-3.411 11.582-0.79 2.822-1.782 4.858-3.312 7.339-2.88 4.712-3.852 9.563-4.922 14.938-0.578 2.625-0.578 2.625-1.578 3.625-1.814 0.12-3.633 0.17-5.45 0.193-0.583 8e-3 -0.583 8e-3 -3.531 0.049-5.342 0.044-10.685 0.085-16.027 0.108-2.821 0.017-5.642 0.044-8.462 0.082-4.057 0.055-8.113 0.077-12.171 0.091-0.63 0.012-0.63 0.012-3.823 0.069-1.177-3e-3 -2.355-6e-3 -3.568-9e-3 -1.034 9e-3 -2.068 0.017-3.134 0.025-4.183-0.897-5.32-2.099-7.834-5.608-0.75-4.418-0.632-8.803-0.57-13.274-1e-3 -1.368-2e-3 -2.735-3e-3 -4.144 3e-3 -4.599 0.042-9.196 0.081-13.794 0.01-3.29 0.017-6.579 0.023-9.869 0.017-8.016 0.061-16.032 0.113-24.048 0.06-9.328 0.092-18.656 0.123-27.984 0.056-16.637 0.135-33.273 0.228-49.909 0.09-16.159 0.167-32.318 0.228-48.477 1e-3 -0.498 1e-3 -0.498 0.011-3.018l0.045-12.006c0.064-17.236 0.14-34.472 0.216-51.708 0.013-2.796 0.025-5.592 0.037-8.388 0.046-10.607 0.097-21.214 0.157-31.821 0.017-3.222 0.033-6.443 0.047-9.665 0.019-4.376 0.045-8.752 0.072-13.128 4e-3 -1.294 9e-3 -2.587 0.013-3.919 9e-3 -1.163 0.018-2.325 0.026-3.523 6e-3 -1.011 0.011-2.023 0.017-3.065 0.294-4.883 4.273-3.386 8.342-3.387z" fill="#E11919"/>
<path transform="translate(330.02 665.71)" d="m0 0c1.215-0.013 2.429-0.026 3.68-0.039 0.654-1e-3 0.654-1e-3 3.962-6e-3 1.344-7e-3 2.687-0.014 4.071-0.021 2.84-0.01 5.679-0.014 8.519-0.014 4.361-4e-3 8.721-0.041 13.082-0.079 2.755-6e-3 5.51-0.01 8.266-0.011 1.311-0.015 2.622-0.029 3.974-0.044 0.604 3e-3 0.604 3e-3 3.661 0.019 1.067-3e-3 2.134-6e-3 3.234-9e-3 0.834 0.163 1.669 0.326 2.529 0.495l2 4c-0.557 0.825-1.114 1.65-1.687 2.5-2.237 3.384-2.896 5.376-3.75 9.25-0.928 4.116-2.057 7.538-4.063 11.25-2.499 4.631-3.606 9.162-4.758 14.273-0.742 2.727-0.742 2.727-2.679 6.039-2.092 3.74-2.973 6.858-4 11-1.394 5.585-3.167 10.203-5.911 15.23-1.734 3.699-2.449 7.553-3.339 11.524-0.806 2.907-1.874 5.229-3.313 7.871-2.59 4.811-3.59 9.518-4.691 14.84-1.027 4.091-2.711 7.623-4.551 11.402-1.846 4.139-3.023 8.432-4.297 12.774-1.043 3.307-2.415 6.395-3.891 9.531-1.919 4.511-3.332 9.201-4.824 13.867-1.246 3.649-1.246 3.649-2.812 7.211-1.379 3.307-2.142 6.303-2.809 9.813-1.109 5.123-2.708 8.831-5.437 13.25-1.457 2.912-2.039 5.687-2.688 8.875-1.042 5.116-2.594 8.724-5.312 13.125-1.457 2.912-2.039 5.687-2.688 8.875-0.846 4.154-1.772 7.392-4 11-2.808 4.554-3.626 9.106-4.687 14.304-1.001 3.936-2.69 7.117-4.625 10.66-1.339 2.859-2.01 5.581-2.688 8.661-1.207 5.422-3.523 9.174-6.5 13.875-0.75 4.437-0.75 4.437-1 8-1 1-1 1-3.854 1.12-1.276-2e-3 -2.553-5e-3 -3.869-7e-3h-4.368c-1.57-5e-3 -3.139-0.01-4.757-0.016-1.596-1e-3 -3.193-3e-3 -4.838-4e-3 -4.253-5e-3 -8.506-0.014-12.759-0.025-4.337-0.01-8.673-0.015-13.01-0.02-8.515-0.011-17.03-0.027-25.545-0.048l-1-3c1.202-2.171 2.412-4.339 3.672-6.477 1.703-3.236 2.564-6.485 3.516-10 0.852-2.649 1.984-4.894 3.312-7.336 2.05-3.881 3.12-7.452 4-11.75 1.046-5.089 2.604-8.74 5.313-13.125 1.412-2.75 2.024-5.359 2.687-8.375 1.215-5.474 3.522-9.172 6.5-13.937 0.863-2.978 1.521-5.97 2.191-8.997 1.02-3.787 2.7-6.926 4.551-10.363 1.94-4.072 3.04-8.356 4.289-12.68 0.969-2.96 0.969-2.96 3.032-6.523 1.858-3.297 2.564-5.722 3.375-9.375 1.25-5.513 3.56-9.259 6.562-14.062 0.863-2.978 1.521-5.97 2.191-8.997 1.02-3.789 2.703-6.929 4.551-10.371 1.926-4.031 3.048-8.258 4.293-12.539 1.308-4.193 3.161-8.092 4.965-12.093 1.039-3.055 2.022-6.12 2.973-9.204 1.027-2.796 1.027-2.796 2.461-5.097 2.15-3.707 3.27-7.557 4.566-11.637 1.681-5.282 3.48-10.134 6-15.062 0.778-2.431 1.42-4.87 2.059-7.34 0.941-2.66 0.941-2.66 2.918-5.981 2.15-3.91 3.046-7.263 3.961-11.617 1.47-6.321 3.562-10.587 7.062-16.062 0.89-3.29 1.569-6.593 2.258-9.93 0.939-3.887 2.38-6.85 4.742-10.07 4.032-2.016 5.661-2.26 10.022-2.291z" fill="#E11919"/>
<path transform="translate(564,721)" d="m0 0c0.812 3.062 0.812 3.062 1 7-1.657 2.34-3.326 4.672-5 7-1.417 3.747-2.612 7.534-3.812 11.355-0.945 2.9-1.962 5.579-3.25 8.333-1.559 3.468-2.782 6.768-3.938 10.374-1.148 3.572-2.331 6.581-4.062 9.938-1.686 3.48-2.54 6.214-3.376 9.938-1.117 4.878-2.792 8.476-5.374 12.718-1.391 2.745-2.021 5.343-2.688 8.344-1.086 4.88-2.734 8.48-5.312 12.723-1.336 2.561-2.004 4.974-2.688 7.777-1.13 4.622-2.871 8.123-5.309 12.176-1.773 3.459-2.526 7.08-3.445 10.84-0.746 2.484-0.746 2.484-2.746 5.422-2.036 3.118-2.592 5.158-3.375 8.75-1.245 5.565-3.42 9.774-6.285 14.664-1.337 2.642-1.895 4.738-2.34 7.648-0.617 4.034-1.874 6.854-3.938 10.375-2.856 4.878-4.097 9.381-5.289 14.871-0.773 2.754-0.773 2.754-3.211 6.504-3.214 5.331-4.221 10.485-5.472 16.543-1.139 3.875-2.575 5.633-5.09 8.707l-2 7h-67c-1.894-5.682-0.018-11.767 2.402-17.074 1.063-2.03 2.136-4.055 3.219-6.074 1.841-3.808 2.471-7.735 3.379-11.852 1.228-1.842 2.458-3.683 3.711-5.508 2.362-4.566 3.115-9.664 4.25-14.648 0.908-3.359 1.886-5.829 3.664-8.782 2.375-4.062 2.375-4.062 3.313-8.374 0.941-4.153 2.024-6.753 4-10.438 2.818-5.343 4.102-10.335 5.285-16.227 0.954-3.711 2.595-6.479 4.589-9.714 1.405-2.731 2.023-5.315 2.688-8.309 1.083-4.874 2.736-8.424 5.312-12.656 1.391-2.745 2.021-5.343 2.688-8.344 0.878-3.949 1.897-7.045 4-10.5 2.639-4.343 3.59-8.596 4.688-13.523 1.041-3.818 2.759-7.011 4.624-10.481 1.259-2.645 1.987-5.156 2.688-7.996 1.175-4.755 3.022-8.661 5.312-12.969 1.639-3.493 2.451-7.07 3.372-10.804 1.108-3.701 2.873-6.906 4.687-10.301 1.15-2.472 1.741-4.694 2.254-7.364 0.875-4.062 0.875-4.062 3.875-7.062 2.795-0.405 2.795-0.405 6.228-0.448 1.285-0.023 2.57-0.046 3.894-0.07 1.391-0.01 2.781-0.019 4.214-0.029 1.427-0.02 2.853-0.041 4.323-0.061 3.021-0.041 6.042-0.074 9.064-0.1 4.626-0.042 9.252-0.104 13.879-0.171 2.932-0.036 5.864-0.072 8.796-0.105 0.694-9e-3 0.694-9e-3 4.202-0.054 1.291-0.01 2.583-0.021 3.913-0.031 0.567-6e-3 0.567-6e-3 3.438-0.033 2.809 0.094 5.32 0.456 8.049 1.102z" fill="#E11919"/>
<path transform="translate(2151 720.82)" d="m0 0c1.255-0.013 2.509-0.026 3.802-0.039 1.362-7e-3 2.723-0.015 4.126-0.022 1.391-8e-3 2.781-0.016 4.214-0.025 2.946-0.014 5.891-0.024 8.837-0.032 4.524-0.017 9.046-0.061 13.57-0.105 2.855-0.011 5.711-0.019 8.566-0.026 1.362-0.017 2.723-0.035 4.126-0.053 0.627 2e-3 0.627 2e-3 3.802 9e-3 1.109-6e-3 2.217-0.012 3.36-0.018 0.432 0.081 0.432 0.081 2.618 0.488l2 4c-1.276 2.365-2.622 4.692-4 7-0.544 1.653-1.043 3.321-1.5 5-1.237 4.465-3.197 7.971-5.5 12-0.516 1.593-0.993 3.198-1.437 4.813-1.003 3.635-2.277 6.742-4.063 10.062-1.964 3.718-3.092 7.145-4 11.25-1.218 5.44-3.539 9.137-6.5 13.875-0.559 2.005-1.056 4.029-1.5 6.063-0.9 4.114-1.536 5.988-4.062 9.5-2.871 4.049-3.217 7.033-3.91 11.847-0.714 3.504-2.314 5.823-4.528 8.59-2.079 3.119-2.313 4.453-2.75 8.063-0.881 5.405-2.88 8.924-5.863 13.445-1.495 2.687-2.062 4.909-2.574 7.93-0.813 4.562-0.813 4.562-3.813 7.562-2.638 1.319-4.624 1.134-7.579 1.145-1.168 7e-3 -2.336 0.013-3.54 0.02-0.634 0-0.634 0-3.841 3e-3 -1.298 3e-3 -2.595 7e-3 -3.932 0.01-2.748 5e-3 -5.497 7e-3 -8.246 7e-3 -4.212 2e-3 -8.423 0.021-12.635 0.04-2.667 3e-3 -5.333 5e-3 -8 5e-3 -0.632 4e-3 -0.632 4e-3 -3.829 0.022-1.175-3e-3 -2.349-6e-3 -3.559-9e-3 -1.033 1e-3 -2.067 3e-3 -3.131 4e-3 -2.708-0.247-2.708-0.247-6.708-2.247-1.439-4.317 0.123-6.616 1.75-10.812 0.532-1.389 1.063-2.777 1.61-4.208 1.64-3.98 1.64-3.98 3.223-7.089 1.505-3.069 2.435-6.04 3.355-9.328 1.49-5.019 3.427-9.033 6.062-13.563 1.073-3.009 2.034-6.044 2.997-9.09 1.003-2.91 1.003-2.91 3.066-6.91 1.705-3.52 2.543-6.291 3.375-10.062 0.93-4.089 1.614-6.009 4.125-9.5 2.871-4.05 3.217-7.034 3.91-11.848 0.714-3.504 2.314-5.823 4.527-8.59 2.089-3.133 2.316-4.495 2.75-8.125 0.861-5.285 2.713-8.315 5.868-12.543 2.062-3.479 2.348-6.981 2.89-10.937 0.646-3.143 1.869-4.591 4.492-6.395 2.731-1.365 4.923-1.15 7.979-1.177z" fill="#E11919"/>
<path transform="translate(896.69 720.63)" d="m0 0c1.086 1e-3 2.171 1e-3 3.29 2e-3 1.231-6e-3 2.463-0.013 3.731-0.019 1.332 9e-3 2.663 0.018 4.035 0.028 1.364-1e-3 2.729-1e-3 4.135-2e-3 2.889 3e-3 5.777 0.013 8.665 0.029 4.432 0.024 8.862 0.021 13.293 0.014 2.803 6e-3 5.605 0.013 8.407 0.021 0.665 0 0.665 0 4.034-2e-3 0.616 4e-3 0.616 4e-3 3.731 0.029 0.543 2e-3 0.543 2e-3 3.29 0.014 2.695 0.26 2.695 0.26 5.695 2.26-0.142 6.79-2.921 13.726-6.543 19.43-1.624 2.864-2.234 5.354-2.895 8.57-1.111 4.794-2.5 7.172-5.562 11-0.516 1.839-0.966 3.697-1.375 5.563-1.28 5.73-3.467 10.383-6.211 15.547-1.344 2.746-2.237 5.322-3.039 8.265-1.375 4.625-1.375 4.625-3.375 7.5-2.013 3.144-2.59 5.214-3.375 8.813-0.995 4.432-2.325 7.897-4.625 11.812-2.817 4.802-4.047 9.252-5.223 14.66-0.985 3.598-2.656 6.387-4.59 9.547-1.368 2.642-2.008 5.151-2.687 8.043-1.161 4.683-2.489 7.315-6.5 10.25-3.579 0.895-6.281 1.143-9.931 1.177-1.194 0.013-2.388 0.026-3.619 0.039-1.286 8e-3 -2.571 0.015-3.896 0.023-0.66 4e-3 -0.66 4e-3 -4.004 0.024-2.792 0.014-5.585 0.025-8.377 0.032-4.289 0.018-8.576 0.062-12.865 0.106-2.709 0.01-5.419 0.018-8.129 0.025-1.289 0.018-2.579 0.035-3.907 0.053-0.594-1e-3 -0.594-1e-3 -3.601-9e-3 -0.525 3e-3 -0.525 3e-3 -3.18 0.018-0.822-0.161-1.644-0.322-2.491-0.488l-2-4c1.322-2.007 2.658-4.005 4-6 0.534-1.755 1.009-3.529 1.437-5.312 0.937-3.794 2.049-6.84 4.063-10.188 1.977-3.296 3.087-6.266 4-10 1.131-4.626 2.877-8.128 5.312-12.187 1.323-2.576 2.001-5.003 2.688-7.813 1.134-4.633 2.874-8.183 5.312-12.254 1.659-3.137 2.453-6.377 3.375-9.789 1.08-3.264 2.873-6.031 4.625-8.972 1.423-2.977 2.033-5.816 2.688-9.047 1.168-5.731 3.317-9.504 6.5-14.438 0.85-2.735 1.511-5.486 2.183-8.269 1.058-3.537 2.793-6.383 4.688-9.528 1.214-2.37 1.753-4.468 2.254-7.078 0.952-4.491 1.737-6.828 6.569-7.499z" fill="#E11919"/>
<path transform="translate(1644.2 508.89)" d="m0 0h2.839c3.1 0 6.2 8e-3 9.301 0.016 2.148 2e-3 4.296 3e-3 6.444 4e-3 5.657 4e-3 11.314 0.014 16.971 0.025 5.771 0.01 11.542 0.015 17.313 0.02 11.327 0.01 22.653 0.027 33.979 0.049-0.625 3.972-1.425 7.496-2.875 11.25-1.365 3.618-2.581 7.213-3.625 10.937-0.93 3.22-1.936 5.656-3.5 8.688-1.706 3.519-2.589 6.242-3.438 10-1.153 5.03-2.942 9.046-5.378 13.566-1.302 2.814-1.963 5.469-2.622 8.496-1.563 6.946-4.459 13.96-9.562 19.063-3.038 0.193-5.985 0.262-9.024 0.242-0.467 1e-3 -0.467 1e-3 -2.833 6e-3 -3.101 4e-3 -6.202-7e-3 -9.303-0.018-2.147-1e-3 -4.294-2e-3 -6.442-1e-3 -4.503-2e-3 -9.006-0.01-13.51-0.024-5.786-0.017-11.573-0.02-17.359-0.02-4.434 0-8.868-5e-3 -13.303-0.013-2.134-3e-3 -4.268-5e-3 -6.403-6e-3 -2.976-2e-3 -5.952-0.01-8.929-0.021-0.445 0-0.445 0-2.7 1e-3 -6.08-0.032-6.08-0.032-7.194-1.146-0.884-6.817 1.141-10.372 4.484-16.004 2.113-4.176 2.831-8.379 3.739-12.942 0.946-3.719 2.591-6.444 4.589-9.679 1.457-2.913 2.039-5.688 2.688-8.875 1.041-5.109 2.581-8.717 5.309-13.106 1.961-3.943 2.572-8.162 3.32-12.477 1.005-3.365 2.149-4.743 4.871-6.917 4.042-1.348 7.939-1.131 12.153-1.114z" fill="#FAFAFA"/>
<path transform="translate(1258,799)" d="m0 0c3 1 3 1 4 3 0.161 3.409 0.254 6.815 0.328 10.227 0.672 3.773 0.672 3.773 3.094 7.585 3.036 4.932 3.763 8.925 4.578 14.563 1.113 6.739 2.34 12.182 5.848 18.109 1.579 3.447 2.042 6.843 2.652 10.578 0.769 4.691 1.416 8.431 4 12.438 2.551 3.966 3.192 7.607 3.938 12.25 1.099 6.778 3.14 12 6.218 18.09 1.844 4.335 2.248 8.547 2.789 13.195 0.673 3.597 2.366 6.165 4.309 9.227 2.872 6.31 3.541 13.894 4.246 20.738-1.943 1.943-4.885 1.12-7.471 1.124-0.931-3e-3 -1.863-7e-3 -2.822-0.01h-2.956c-3.241-1e-3 -6.483-9e-3 -9.724-0.016-2.24-2e-3 -4.481-4e-3 -6.721-5e-3 -5.911-3e-3 -11.821-0.013-17.731-0.024-6.026-0.011-12.051-0.015-18.077-0.02-11.833-0.011-23.665-0.028-35.498-0.049-1.26-5.04 0.055-8.364 2-13 0.66-1.093 1.32-2.186 2-3.312 1.846-3.404 2.611-5.898 3.438-9.626 1.244-5.503 3.553-9.278 6.562-14.062 0.59-2.43 0.59-2.43 1-5 0.693-4.326 2.19-6.924 4.711-10.543 2.384-4.544 3.12-9.652 4.254-14.625 0.894-3.312 1.826-5.689 3.597-8.582 2.147-3.743 3.026-6.146 3.938-10.25 1.079-4.835 2.69-8.383 5.242-12.586 2.043-3.92 3.075-8.12 4.289-12.355 0.969-3.059 0.969-3.059 3.031-7.059 1.741-3.593 2.524-6.326 3.313-10.188 1.496-7.136 4.347-13.331 7.625-19.812z" fill="#E11919"/>
<path transform="translate(705,905)" d="m0 0c4.394 2.197 4.537 2.439 6 6.75 1.544 4.207 3.365 7.596 6 11.25 0.227 0.402 0.227 0.402 1.375 2.438 2.218 3.497 4.888 6.456 7.625 9.562 0.584 0.688 1.168 1.377 1.77 2.086 3.178 3.726 6.278 6.978 10.23 9.914l2 2c-1.875 1.875-4.583 1.133-7.079 1.147-0.873-1e-3 -1.747-1e-3 -2.648-2e-3 -0.915 4e-3 -1.83 7e-3 -2.773 0.01-3.042 0.01-6.083 0.012-9.125 0.013-2.104 3e-3 -4.207 7e-3 -6.311 0.01-4.415 6e-3 -8.83 8e-3 -13.246 7e-3 -5.673 0-11.346 0.014-17.019 0.031-4.346 0.011-8.692 0.013-13.038 0.013-2.092 1e-3 -4.185 5e-3 -6.277 0.013-2.92 0.01-5.838 7e-3 -8.757 1e-3 -0.874 6e-3 -1.748 0.011-2.648 0.017-2.028-0.011-4.055-0.124-6.079-0.26l-1-2c1.382-0.557 2.764-1.114 4.188-1.688 4.192-1.868 6.662-3.932 9.812-7.312 5.09-4.385 9.96-8.044 16-11 3.075-2.239 6.029-4.626 9-7 3.968-3.087 7.967-5.979 12.25-8.625 3.095-1.96 5.289-3.725 7.75-6.375l2-1z" fill="#E11919"/>
<path transform="translate(900,905)" d="m0 0c0.115 0.423 0.115 0.423 0.699 2.562 2.002 6.963 4.143 12.513 8.301 18.438 0.311 0.469 0.311 0.469 1.887 2.84 10.398 15.548 10.398 15.548 18.113 19.16v2h-84v-3c2.09-2.016 2.09-2.016 4.938-4.25 1.005-0.797 2.01-1.593 3.046-2.414 3.302-2.557 6.604-5.113 9.911-7.664 2.733-2.17 5.333-4.472 7.941-6.789 2.511-2.185 5.081-4.284 7.664-6.383 3.366-2.736 6.685-5.504 9.938-8.375 6.982-6.125 6.982-6.125 11.562-6.125z" fill="#E11919"/>
<path transform="translate(2151,906)" d="m0 0 4 1c1.168 2.336 1.168 2.336 2.188 5.375 4.225 10.975 12.675 19.446 21.812 26.625 1.073 1.011 2.145 2.021 3.25 3.062 4.302 3.371 7.536 4.494 12.75 5.938v2h-86c0-4.904 3.702-7.612 7-11 1.64-1.366 3.303-2.705 5-4 1.682-1.652 3.345-3.322 5-5 2.497-2.524 4.998-5.043 7.5-7.562 0.651-0.66 1.302-1.319 1.973-1.999 3.367-3.383 6.759-6.497 10.527-9.439 0.846-0.928 1.691-1.856 2.562-2.812 0.403-0.361 0.403-0.361 2.438-2.188z" fill="#E11919"/>
<path transform="translate(1961,905)" d="m0 0 4 2c0.46 2.463 0.914 4.928 1.312 7.402 1.094 4.132 3.776 6.57 6.688 9.598 0.34 0.516 0.34 0.516 2.062 3.125 3.052 4.528 6.688 7.74 11.063 10.937 3.875 2.938 3.875 2.938 6.875 6.938 2.655 1.03 5.321 2.034 8 3v2h-84v-3c1.951-1.724 3.96-3.383 6-5 2.541-2.42 4.821-4.763 6.938-7.562 2.062-2.438 2.062-2.438 4.847-4.25 3.338-2.271 5.915-4.725 8.715-7.626 2.907-2.973 5.716-5.739 8.938-8.374 2.85-2.434 4.559-5.041 6.562-8.188l2-1z" fill="#E11919"/>
<path transform="translate(1723,906)" d="m0 0c0.99 0.33 1.98 0.66 3 1 0.975 2.387 1.942 4.778 2.859 7.188 5.352 13.196 17.712 27.269 30.93 33.027 0.73 0.259 1.459 0.518 2.211 0.785l-1 2c-3.233 0.241-3.233 0.241-7.641 0.227h-4.974c-1.807-0.011-3.614-0.021-5.42-0.032-1.837-3e-3 -3.674-6e-3 -5.511-8e-3 -4.845-8e-3 -9.69-0.028-14.535-0.05-4.94-0.02-9.879-0.029-14.819-0.039-9.7-0.022-19.4-0.056-29.1-0.098 0-3 0-3 1.875-5.125 1.031-0.949 2.063-1.898 3.125-2.875 0.74-0.686 1.48-1.372 2.242-2.078 3.896-3.568 7.816-6.979 12.031-10.164 4.928-3.803 9.257-8.062 13.602-12.508 0.745-0.754 1.49-1.508 2.258-2.285 1.372-1.389 2.742-2.781 4.109-4.175 1.577-1.606 3.167-3.199 4.758-4.79z" fill="#E11919"/>
<path transform="translate(1482,905)" d="m0 0c0.99 0.33 1.98 0.66 3 1 0.809 2.547 0.809 2.547 1.438 5.75 1.094 4.809 2.133 7.619 5.562 11.25 0.763 1.258 1.526 2.516 2.312 3.812 2.884 4.493 6.067 8.29 9.688 12.188 0.825 0.908 1.65 1.815 2.5 2.75 2.918 2.626 6.098 4.315 9.5 6.25v2h-77c0-3 0-3 3-6.328 1.325-1.316 2.659-2.623 4-3.922 0.69-0.679 1.381-1.359 2.092-2.059 3.352-3.279 6.729-6.505 10.283-9.566 3.726-3.212 7.14-6.62 10.586-10.125 2.039-2 2.039-2 4.851-4.188 2.714-2.248 4.289-4.865 6.188-7.812l2-1z" fill="#E11919"/>
<path transform="translate(2336.4 429.62)" d="m0 0c13.275 11.869 13.275 11.869 13.916 18.282 0.049 3.803 0.08 7.603 0.084 11.406 0.024 1.319 0.049 2.638 0.074 3.998 2e-3 0.637 2e-3 0.637 0.012 3.865 8e-3 1.164 0.016 2.329 0.025 3.528-0.593 4.019-1.949 6.156-4.486 9.296-3.25 1.875-3.25 1.875-6 3-2.487-2.487-1.488-8.955-1.625-12.313-0.052-1.058-0.103-2.117-0.156-3.208-0.044-1.021-0.088-2.041-0.133-3.092-0.041-0.937-0.082-1.873-0.124-2.837 0.038-2.55 0.038-2.55 1.038-6.55 0.375-4.845 0.651-9.389-1.187-13.937-4.311-4.906-9.446-8.71-16.064-9.404-0.571 8e-3 -0.571 8e-3 -3.46 0.048-0.622 5e-3 -0.622 5e-3 -3.769 0.029-0.643 0.013-0.643 0.013-3.895 0.077-1.308 0.013-2.617 0.027-3.965 0.041-3.22 0.035-6.44 0.084-9.66 0.146v-4c10.671-6.86 29.389-6.127 39.375 1.625z" fill="#E11919"/>
<path transform="translate(1091,910)" d="m0 0 2 1c-0.501 5.262-2.21 9.21-6 13-0.297 1.892-0.563 3.789-0.812 5.688-0.967 6.112-2.789 9.913-7.188 14.312l-2 6h-28c0-3 0-3 1.941-5.016 0.865-0.737 1.73-1.474 2.621-2.234 3.139-2.724 6.185-5.44 9.063-8.438 2.861-2.808 5.752-5.099 8.992-7.437 4.384-3.449 8.372-7.346 12.43-11.168 2.953-2.707 2.953-2.707 6.953-5.707z" fill="#E11919"/>
<path transform="translate(2311.8 465.6)" d="m0 0c0.521 4e-3 0.521 4e-3 3.16 0.023 1.04-7e-3 2.081-0.015 3.152-0.023 2.911 0.398 2.911 0.398 6.911 3.398 0.433 2.961 0.433 2.961 0.437 6.375 0.292 6.253 0.292 6.253 2.875 9.813 2.688 1.812 2.688 1.812 6.688 3.812-2 4-2 4-4 5-26.135 2.933-26.135 2.933-36-2l-1-4c1-1 1-1 4.937-1.437 4.063-0.563 4.063-0.563 6.063-2.563 0.351-3.833 0.443-7.648 0.558-11.496 0.553-4.386 1.689-6.252 6.219-6.902z" fill="#E11919"/>
<path transform="translate(2288,438)" d="m0 0 2 1c0.164 2.729 0.19 5.466 0.16 8.199-5e-3 0.828-0.01 1.656-0.016 2.509-0.017 2.66-0.049 5.32-0.082 7.98-0.027 2.642-0.052 5.284-0.071 7.926-0.018 2.411-0.045 4.822-0.073 7.232 0.07 3.524 0.38 6.71 1.082 10.154-2.812-0.188-2.812-0.188-6-1-6.906-9.32-5.424-23.153-4-34 0.691-3.126 1.46-5.149 3-8l4-2z" fill="#E11919"/>
<path transform="translate(2314.9 443.69)" d="m0 0c0.525-0.019 0.525-0.019 3.18-0.113 2.945 0.425 2.945 0.425 5.34 2.277 1.605 2.148 1.605 2.148 1.418 4.836-0.813 2.312-0.813 2.312-1.813 3.312-2.288 0.153-4.582 0.222-6.875 0.25-0.628 0.013-0.628 0.013-3.805 0.079-3.32-0.329-3.32-0.329-6.32-3.329 0.187-3.124 0.187-3.124 1-6 2.686-1.342 4.877-1.242 7.875-1.312z" fill="#E11919"/>
<path transform="translate(2330,464)" d="m0 0c2 1.562 2 1.562 4 4 0.25 3.75 0.25 3.75 0 7-0.99 0.33-1.98 0.66-3 1-1.041-4.165-1.071-7.727-1-12z" fill="#FAFAFA"/>
<path transform="translate(2330,443)" d="m0 0 4 1v8h-3c-1.478-2.957-1.06-5.742-1-9z" fill="#FAFAFA"/>
<path transform="translate(2299,457)" d="m0 0 4 1 1 4-5 1v-6z" fill="#FAFAFA"/>
<path transform="translate(2324,460)" d="m0 0h4v2l-4-2z" fill="#FAFAFA"/>
</svg>
