<?xml version="1.0" encoding="UTF-8"?>
<svg version="1.1" viewBox="0 0 2448 1112" xmlns="http://www.w3.org/2000/svg">
<path transform="translate(795.75 32.438)" d="m0 0c7.7 0.069 7.7 0.069 11.938 3.875 0.763 1.217 1.526 2.434 2.312 3.687 1.663 1.006 3.329 2.007 5 3 1.019 1.656 2.018 3.323 3 5 0.866 0.66 1.732 1.321 2.625 2 2.946 2.482 2.92 3.229 3.375 7 0.094 3.218 0.14 6.409 0.125 9.626 4e-3 0.858 8e-3 1.717 0.012 2.601-6e-3 3.492-0.025 6.439-1.137 9.773-1.982 1.036-3.985 2.032-6 3-0.717 0.663-1.433 1.326-2.172 2.008-4.732 3.334-10.161 3.284-15.797 3.989-4.548 1.132-6.039 2.502-9.031 6.003-1.011 0.66-2.021 1.32-3.062 2-2.938 2.001-2.938 2.001-5.063 4.688-1.875 2.312-1.875 2.312-5.875 3.312-1.039 2.987-2.036 5.989-3 9-2.125 2.313-2.125 2.313-4 4-1.374 5.496-1.224 10.794-1.25 16.438-0.021 1.132-0.041 2.265-0.062 3.432-3e-3 0.547-3e-3 0.547-0.016 3.314-9e-3 0.996-0.019 1.992-0.028 3.017 0.419 3.298 1.374 5.15 3.356 7.799 6.264 2.875 12.967 2.084 19.688 1.75 0.563-0.019 0.563-0.019 3.416-0.121 10.818-0.476 10.818-0.476 14.646-4.441 3.168-3.08 7.661-7.188 12.25-7.188 0.676-1.663 1.339-3.33 2-5 2.727-4.736 4.595-7.696 9-11 0.758-2.41 0.758-2.41 1.125-5.062 0.683-4.745 0.683-4.745 2.875-6.938 4.336-0.315 6.327-0.448 10 2 1.027 3.563 1.027 3.563 1.938 8 1.112 5.128 2.244 9.89 4.374 14.688 1.782 4.551 1.902 5.764 0.688 10.312-5.098 9.65-11.657 16.445-21 22-0.722 0.846-1.444 1.692-2.188 2.563-3.019 2.616-4.188 2.887-8 3.5-1.588 0.309-3.176 0.619-4.812 0.937l-2 4c-4 2-4 2-8.438 2.813-4.562 1.187-4.562 1.187-7 3.625-2.755 2.756-3.963 3.128-7.624 4.062-4.589 1.193-6.185 2.568-8.938 6.5-1.031 0.434-2.062 0.867-3.125 1.313-2.875 1.687-2.875 1.687-4.125 5.375-0.247 1.423-0.495 2.846-0.75 4.312-1.667 7.667-1.667 7.667-5 11-2.266 9.587-2.615 19.244-3.035 29.057-0.377 6.587-0.794 10.618-4.965 15.943-2.714 10.617-2.293 22.252-2.604 33.145-0.238 7.86-0.731 15.651-1.458 23.481-2.414 26.644-2.414 26.644 1.062 38.374 19.668 0.652 19.668 0.652 27.219-4.519 3.651-1.944 7.004-2.295 11.093-2.855 6.831-1.096 10.861-2.9 16.688-6.626 3.584-0.664 7.156-1.065 10.777-1.472 3.884-0.636 6.258-1.963 9.223-4.528 3.503-2.335 5.658-2.441 9.812-2.874 6.605-0.859 10.455-2.393 15.188-7.126 2.071-0.386 4.158-0.686 6.25-0.937 6.697-0.946 10.897-2.209 15.75-7.063 2.934-0.414 2.934-0.414 6.438-0.624 8.435-0.998 13.283-4.956 19.562-10.376 0.99-0.66 1.98-1.319 3-2 0.432-3.297 0.432-3.297 0.512-7.535 0.035-1.532 0.071-3.064 0.107-4.642 0.023-1.612 0.045-3.224 0.069-4.885 0.034-1.585 0.068-3.17 0.103-4.803 0.151-7.378 0.252-14.754 0.209-22.135 2.813 0.25 2.813 0.25 6 1 3 4 3 4 3 6 0.75 0.272 1.5 0.544 2.273 0.825 3.35 1.444 4.367 2.965 6.352 5.988 0.57 0.852 1.14 1.704 1.727 2.582 4.382 6.926 4.382 6.926 5.898 10.793 1.75 2.812 1.75 2.812 4.609 3.957 5.398 1.115 10.643 1.241 16.141 1.355 7.558 0.158 14.307 0.322 21.295 3.565 3.204 1.108 5.668 1.1 9.053 0.99 1.235-0.028 2.47-0.057 3.743-0.086 1.311-0.031 2.621-0.062 3.971-0.093 32.177-0.168 32.177-0.168 43.163 10.291 2.801 2.873 5.484 5.821 8.078 8.882 0.56 0.644 1.12 1.288 1.697 1.951 0.535 0.688 1.07 1.376 1.622 2.085 3.375 2.718 5.827 2.458 10.128 2.521 1.592 0.034 3.184 0.067 4.824 0.101l5.211 0.051c1.781 0.033 3.562 0.067 5.342 0.103 4.686 0.092 9.372 0.161 14.058 0.225 7.504 0.103 15.008 0.234 22.512 0.376 2.622 0.046 5.245 0.078 7.868 0.11 0.795 0.013 0.795 0.013 4.814 0.081 1.403 0.019 2.805 0.038 4.25 0.058 3.371 0.289 3.371 0.289 6.371 2.289 1.521 4.564 0.952 9.13 0.75 13.876-0.014 0.496-0.014 0.496-0.082 3.011-0.383 9.227-0.383 9.227-3.668 13.113l-2 1c-0.666 1.897-1.259 3.819-1.812 5.75-1.62 5.027-2.977 7.901-7.188 11.25-4.784 3.992-8.807 7.546-12 13-1.32-0.329-2.64-0.66-4-1-0.447-0.956-0.895-1.912-1.355-2.898-2.112-3.983-3.736-4.373-7.957-5.726-3.637-1.192-6.436-2.194-9.551-4.442-10.131-6.245-26.822-4.006-38.137-2.934-1.138 0.064-2.276 0.127-3.449 0.192-5.471 0.316-9.895 0.623-14.551 3.808-0.66 0.991-1.32 1.981-2 3-1.568 0.248-3.135 0.496-4.75 0.75-5.751 0.952-7.685 3.69-11.25 8.25-2.875 0.938-2.875 0.938-5 1v2h-2c0.202 1.941 0.437 3.878 0.688 5.813 0.127 1.079 0.255 2.158 0.386 3.27 0.926 2.917 0.926 2.917 3.344 4.71 0.852 0.399 1.704 0.797 2.582 1.207 3.227 1.844 5.329 3.33 8 6 8.38 1.671 17.213 1.335 25.734 1.518 8.401 0.239 15.813 0.827 23.266 5.045 4.41 2.285 7.979 3.202 13 3.437 0.828 0.051 1.655 0.101 2.508 0.153 5.461 0.204 8.747-0.614 13.492-3.153 3.545 0 4.639 0.649 7.188 3.126 3.774 5.987 4.473 11.887 3.812 18.874-1.731 4.883-3.446 8.067-7.953 10.774-5.412 1.64-10.137 1.348-15.735 0.976-1.066-0.058-2.133-0.117-3.233-0.177-3.028-0.172-6.053-0.368-9.079-0.573-0.682-0.043-0.682-0.043-4.133-0.265-9.859-0.727-9.859-0.727-13.867-4.735-19.371-4.678-41.454-3.083-61.188-3.124-1.536-5e-3 -3.073-0.01-4.656-0.015-33.063 0.047-33.063 0.047-40.156 7.139-3.18 0.661-3.18 0.661-6.875 1.063-8.364 0.932-8.364 0.932-12.125 2.937-0.33 0.991-0.66 1.981-1 3-2.441 0.958-2.441 0.958-5.562 1.813-5.949 1.83-9.626 4.304-14.438 8.187-0.887 0.33-1.774 0.661-2.688 1-2.312 1-2.312 1-4.75 3.938-2.562 3.062-2.562 3.062-5.339 4.422-3.695 1.881-6.307 4.142-9.348 6.953-0.507 0.462-0.507 0.462-3.07 2.801-2.727 2.806-4.733 5.58-6.805 8.886-3.324 4.701-6.806 9.039-11 13-2 2-2 2-3.312 6.25-1.058 3.389-1.755 4.826-4.188 7.563-3.169 4.04-3.783 7.695-4.727 12.676-0.255 0.829-0.51 1.658-0.773 2.511-0.99 0.33-1.98 0.661-3 1-2.339 5.069-2.659 10.495-3 16-0.054 0.865-0.108 1.73-0.164 2.622-0.186 5.54 0.375 9.57 3.164 14.378 1.626 1.383 3.293 2.72 5 4 1 1.667 2 3.334 3 5 0.846 0.66 1.691 1.321 2.562 2 2.724 2.235 3.176 3.803 4.438 7 1.32 0.66 2.64 1.321 4 2 1.083 2.296 2.078 4.635 3 7 1.801 3.302 3.3 5.301 6 8 1.686 2.655 3.352 5.322 5 8 0.99 1.321 1.98 2.64 3 4 0.796 2.436 1.375 4.874 1.961 7.368 1.039 2.632 1.039 2.632 3.535 5.449 2.996 3.81 3.488 6.486 4.192 11.246 1.4 9.149 1.4 9.149 3.312 12.937 0.66 0.331 1.32 0.66 2 1 2.725 10.156 2.35 21.015 2.5 31.438 0.069 3.462 0.148 6.925 0.23 10.387 0.011 0.43 0.011 0.43 0.062 2.607 0.204 8.115 0.543 16.215 1.02 24.318 0.03 0.594 0.03 0.594 0.176 3.596 0.072 1.118 0.145 2.237 0.219 3.389 0.057 0.951 0.113 1.902 0.171 2.882 0.576 3.131 1.455 5.606 2.624 8.55 2.213 5.881 2.651 11.191 2.756 17.431 0.034 1.074 0.068 2.148 0.103 3.254 0.105 3.403 0.186 6.807 0.264 10.211 1.115 42.338 1.115 42.338 6.875 48.937 0.723 3.813 0.723 3.813 1.062 8 0.631 7.595 2.425 10.984 6.938 17 0.52 2.516 0.52 2.516 0.812 5.25 0.645 4.122 1.487 6.639 4.126 9.876 3.336 4.222 4.417 7.798 6.062 12.874 1.647 2.348 3.313 4.681 5 7 0.495 1.382 0.99 2.764 1.5 4.188 1.665 4.232 2.981 5.131 6.5 7.812 1.211 1.867 2.417 3.739 3.551 5.653 4.793 7.764 10.433 15.331 16.887 21.785 3.039 3.04 5.765 6.299 8.562 9.562 0.908 0.908 1.815 1.816 2.75 2.75 2.25 2.25 2.25 2.25 4.25 5.25 1.32 0.66 2.64 1.321 4 2 1.333 2 2.667 4 4 6 1.32 0.66 2.64 1.321 4 2 0.701 1.197 1.403 2.393 2.125 3.626 2.875 3.374 2.875 3.374 5.277 3.902 4.529 0.06 7.536-0.497 11.598-2.528 0.598-0.845 1.196-1.691 1.812-2.562 2.188-2.437 2.188-2.437 5.438-3.625 4.535 0.227 6.292 1.97 9.707 4.797 3.441 2.342 6.052 2.099 10.043 1.39 3.312-2.437 3.312-2.437 6-5 4.602-1.534 8.424-1.681 12.918 0.262 7.979 4.5 13.433 10.621 17.777 18.586 1.651 2.724 3.785 4.246 6.305 6.152 1.05 1.975 2.05 3.976 3 6 0.673 0.762 1.346 1.524 2.039 2.309 2.958 4.06 2.814 7.345 2.68 12.25-1.277 6.113-5.09 10.401-9.719 14.441-1.649 0.709-3.313 1.386-5 2-0.33 0.66-0.66 1.321-1 2h-3c-0.309-1.464-0.619-2.928-0.938-4.437-1.062-4.563-1.062-4.563-2.062-5.563-3-0.041-6-0.042-9 0l-4 11c-8.625-0.75-8.625-0.75-12-3-4.023-0.255-8.011-0.366-12.041-0.39-6.388-0.179-6.388-0.179-9.494-2.524-1.465-2.085-1.465-2.085-2.465-4.086-4.188-0.75-4.188-0.75-9 0-3.725 4.061-5.627 9.055-7.625 14.126-0.227 0.474-0.227 0.474-1.375 2.874h-4c-0.289-1.443-0.577-2.887-0.875-4.374-1.125-4.625-1.125-4.625-3.125-6.626-2.206-0.124-4.416-0.175-6.625-0.187-7.467-0.42-10.462-2.463-15.375-7.813-1.072-0.783-2.145-1.567-3.25-2.374-2.824-2.696-3.302-3.884-4.5-7.438-0.742-1.382-1.485-2.764-2.25-4.188-4.75-0.374-4.75-0.374-7.398-0.132-5.105 0.26-9.24-1.744-13.102-4.93-1.5-1.938-1.5-1.938-1.5-3.938-1.654-0.696-3.323-1.36-5-2-3.511-3.51-3.134-9.435-3.68-14.255-0.343-2.561-0.343-2.561-1.32-6.745-1.32-0.33-2.64-0.659-4-1-1.01-3.501-1.462-6.979-1.996-10.582-1.204-4.097-2.625-4.961-6.004-7.418-1.441-2.437-1.441-2.437-2.562-5-1.749-3.748-3.4-6.164-6.438-9-0.474-0.969-0.949-1.938-1.438-2.937-1.744-3.42-3.793-5.428-6.562-8.063-1.333-1.666-2.667-3.333-4-5-1.646-1.687-3.312-3.354-5-5-2.333-2.333-4.667-4.666-7-7-0.371-0.36-0.371-0.36-2.25-2.187-2.793-2.856-5.405-5.817-8.004-8.848-1.189-1.337-2.423-2.635-3.695-3.894-6.417-6.478-11.768-13.974-17.074-21.363-3.928-5.379-7.951-10.681-12.665-15.395-2.846-2.847-4.986-6.032-7.312-9.313-0.681-0.618-1.361-1.237-2.062-1.874-2.4-2.632-3.478-5.499-4.715-8.809-1.223-2.316-1.223-2.316-3.832-4.262-4.403-5.625-2.814-13.296-2.577-20.174 0.025-8.876 0.025-8.876-2.574-11.988-2.166-1.603-2.166-1.603-6.24-3.893-0.619-0.721-1.237-1.443-1.875-2.187-2.4-2.047-4.039-2.448-7.063-3.25-4.712-1.25-6.615-3.115-10.062-6.563-1.464-0.309-2.929-0.618-4.438-0.937-5.388-1.255-6.769-3.191-10.562-7.063-2.987-1.037-5.988-2.037-9-3-0.919-0.84-1.838-1.68-2.785-2.546-4.988-3.806-9.359-3.193-15.434-3.016-5.081 0.756-7.272 2.91-10.781 6.562-2.992 1.025-5.992 2.026-9 3-0.949 0.826-1.898 1.65-2.875 2.5-4.332 3.466-8.805 4.264-14.125 5.5-3 1-3 1-4.828 2.997-2.688 2.479-4.326 2.661-7.922 3.066-6.716 0.935-12.328 2.016-17.25 6.937-3.355 0.731-3.355 0.731-7.188 1.188-0.636 0.079-0.636 0.079-3.855 0.48-0.976 0.11-1.952 0.22-2.957 0.332 0.758 6.711 0.758 6.711 2.938 9.313 2.198 2.865 2.46 4.152 3 7.625 0.624 3.827 0.945 4.925 3.562 8 2.669 3.27 2.902 4.411 3.438 8.438 0.698 4.988 2.308 7.576 5.617 11.46 2.324 3.481 2.815 7.312 3.668 11.36 0.777 2.804 0.777 2.804 3.277 6.242 3.088 4.4 3.645 8.283 4.684 13.488 1.076 4.052 3.35 6.723 5.816 10.074 0.59 2.571 0.59 2.571 1 5.313 0.33 1.547 0.66 3.094 1 4.687 2.375 1.25 2.375 1.25 5 2 0.32 0.485 0.32 0.485 1.938 2.938 2.392 3.553 4.249 4.273 8.062 6.062 0.846 0.867 1.691 1.733 2.562 2.626 3.313 3.227 5.818 3.349 10.357 3.421 1.054-0.027 2.108-0.054 3.194-0.082 1.166-3e-3 2.332-6e-3 3.533-9e-3 2.433-0.012 4.866-0.059 7.297-0.141 8.715 0.062 8.715 0.062 12.601 3.314 3.223 3.966 5.695 8.211 8.144 12.684 2.312 4.188 2.312 4.188 5.124 6.937 2.188 2.25 2.188 2.25 2.188 7.25-2 2-2 2-4.312 2.055-1.793-0.12-3.584-0.245-5.376-0.375-0.381 0.053-0.381 0.053-2.312 0.32-0.66 1.321-1.32 2.64-2 4-2.32 1.032-4.654 2.03-7 3-2.438 2.188-2.438 2.188-4 4-4-2-4-2-5-3-3.813-0.5-3.813-0.5-8 0-1.377 2.309-2.713 4.641-4 7-6.729 0.47-13.809-4.107-19-8-0.732-0.237-0.732-0.237-4.438-1.437-4.562-1.562-4.562-1.562-7-3.75-3.377-2.389-6.112-1.985-10.136-1.848-3.32 0.048-5.473-0.421-8.426-1.965-3.063-3.312-3.063-3.312-6-7-2.515-2.576-5.082-5.077-7.688-7.562-3.499-3.688-4.291-6.036-4.562-11.125-0.313-4.128-1.122-6.16-3.727-9.352-3.932-5.624-3.982-10.949-4.148-17.648-0.415-13.125-0.415-13.125-4.875-18.313-2.857-3.809-3.332-4.654-3.875-9-0.822-4.767-0.822-4.767-3.563-6.874-3.157-2.619-3.18-3.993-4-7.938-1.237-5.875-3.566-8.682-7.562-13.188-0.679-2.997-1.347-5.996-2-9-0.784-0.618-1.567-1.237-2.375-1.874-3.61-2.923-4.17-6.115-5.59-10.442-1.362-3.532-3.509-5.898-6.035-8.684l-3-6c-1.8-3.093-3.553-5.275-6-8-4.375-1-4.375-1-8-1-0.17 0.881-0.34 1.761-0.516 2.668-0.242 1.162-0.484 2.323-0.734 3.52-0.232 1.149-0.464 2.297-0.703 3.48-1.13 3.596-2.62 5.497-5.047 8.332-0.66 1.486-1.32 2.971-2 4.5-1.732 3.898-3.361 6.266-6 9.5-0.474 1.176-0.949 2.352-1.438 3.563-1.73 3.808-3.328 4.913-6.562 7.437-1.351 2.323-2.684 4.657-4 7-1.664 1.67-3.331 3.336-5 5-1.863 2.289-3.695 4.603-5.5 6.938-2.697 3.481-5.388 6.931-8.246 10.281-2.51 3.097-3.722 6.119-5.254 9.781-0.647 0.697-1.294 1.393-1.961 2.11-2.758 3.91-3.325 7.956-4.101 12.578-0.538 3.16-1.17 6.192-1.938 9.312-0.99 0.66-1.98 1.321-3 2-2.179 6.93-2.726 13.977-3.438 21.172-0.562 3.828-0.562 3.828-2.562 7.828h-2c-2.169 10.37-2.656 20.631-3.123 31.196-0.376 7.137-1.024 13.674-3.191 20.503-1.008 3.383-1.355 6.798-1.686 10.301 1.32 0.66 2.64 1.321 4 2 2.734 5.485 4.114 11.48 4.625 17.563 0.375 4.437 0.375 4.437 2.375 7.437v5c-0.804 0.784-1.609 1.568-2.438 2.376-3.308 3.388-3.487 4.906-3.562 9.624 0.613 6.994 1.435 11.579 6 17 2.351 8.787 2.367 17.446 2.375 26.5 0.024 1.465 0.049 2.929 0.074 4.438 4e-3 1.392 8e-3 2.784 0.012 4.219 8e-3 1.266 0.016 2.533 0.025 3.838-0.16 0.992-0.321 1.984-0.486 3.005-1.32 0.661-2.64 1.32-4 2-0.795-1.143-1.591-2.286-2.41-3.464-2.854-3.328-3.426-3.51-8.086-4.227-1.631 0.043-3.261 0.085-4.942 0.129-7.989 0.196-10.783-0.977-16.562-6.438-4.688-0.75-4.688-0.75-9 0-0.577 0.929-1.155 1.857-1.75 2.813-2.25 3.187-2.25 3.187-5.27 3.797-1.169 0.149-2.338 0.299-3.542 0.453-3.485 0.617-3.485 0.617-6.438 1.937-2.086 4.226-2.66 8.329-3 13-2.312-0.25-2.312-0.25-5-1-3-4-3-4-3.375-7.5-1.625-3.5-1.625-3.5-4.57-4.699-2.347-0.652-4.71-1.247-7.086-1.781-2.969-1.02-2.969-1.02-4.969-5.02-6.998 0-11.074 1.191-17 5-1.724 0.824-3.454 1.636-5.188 2.438-4.023 1.957-6.141 3.931-8.812 7.562-0.99-0.329-1.98-0.66-3-1-0.695-2.582-0.695-2.582-1.125-5.812-0.485-3.491-1.018-6.76-1.875-10.188-11.878-0.793-11.878-0.793-16.625 2.563-0.784 0.804-1.567 1.609-2.375 2.437-0.99-0.329-1.98-0.66-3-1 1.552-14.224 1.552-14.224 4.5-19.874 1.868-3.893 2.277-7.569 2.777-11.833 0.239-0.756 0.477-1.513 0.723-2.293 1.32-0.329 2.64-0.659 4-1 0.103-0.515 0.103-0.515 0.625-3.124 2.583-7.281 10.041-10.304 16.687-13.563 0.414-0.197 0.414-0.197 2.504-1.191 2.695-1.384 4.863-3.187 7.184-5.122 4.809-2.992 8.374-3.29 14-3-0.103-0.969-0.206-1.938-0.312-2.937 0.51-6.637 3.665-11.416 8.312-16.063 0.866-2.778 1.451-5.561 2.059-8.406 0.941-2.594 0.941-2.594 4.941-5.594 1.012-2.968 1.012-2.968 1.688-6.5 0.241-1.241 0.482-2.482 0.73-3.761 0.523-3.362 0.855-6.658 1.082-10.051 0.165-1.547 0.33-3.094 0.5-4.688 0.99-0.33 1.98-0.659 3-1 3.682-9.052 3.675-19.196 4.084-28.816 0.064-1.099 0.128-2.199 0.193-3.332 0.044-0.981 0.088-1.963 0.133-2.974 0.59-2.878 0.59-2.878 2.561-5.815 2.307-3.482 2.759-5.782 3.217-9.906 0.146-1.318 0.293-2.635 0.445-3.992 0.731-8.292 1.165-16.594 1.578-24.907 0.075-1.353 0.149-2.707 0.227-4.101 0.06-1.209 0.121-2.417 0.183-3.662 0.551-5.076 1.536-9.229 4.379-13.495 2.241-13.461 2.387-27.157 2.555-40.769l0.087-6.063c0.058-4.193 0.109-8.385 0.156-12.578 0.061-5.365 0.149-10.73 0.243-16.095 0.069-4.155 0.119-8.309 0.164-12.464 0.025-1.98 0.056-3.959 0.094-5.939 0.051-2.756 0.076-5.51 0.095-8.267 0.021-1.563 0.041-3.127 0.063-4.738-0.505-4.516-1.565-6.633-4.457-10.087-5.632-3.257-12.737-2.986-19-2-3.625 3.313-3.625 3.313-6 7-1.32 0.991-2.64 1.981-4 3-0.954 3.818-1.074 6.622-0.992 10.524 0.017 1.268 0.033 2.537 0.051 3.844 0.044 2.664 0.096 5.328 0.156 7.992 0.014 1.271 0.028 2.542 0.043 3.851 0.022 1.158 0.044 2.317 0.067 3.51-0.368 3.717-1.353 6.122-3.325 9.279h-2c-0.413 1.547-0.825 3.094-1.25 4.688-1.749 5.842-4.469 9.032-8.75 13.312-1.364 1.98-2.694 3.982-4 6-0.681 0.991-1.361 1.981-2.062 3-1.938 3-1.938 3-3.376 6.063-1.753 3.297-3.933 5.308-6.562 7.937-0.516 1.032-1.031 2.063-1.562 3.126-1.438 2.874-1.438 2.874-5.438 5.874-0.871 2.34-0.871 2.34-1.438 4.938-1.271 4.845-1.271 4.845-4.062 6.938-3.657 3.108-3.718 6.662-4.684 11.242-0.816 2.882-0.816 2.882-3.378 5.882-4.332 5.332-4.179 12.276-4.813 18.938-0.625 3.062-0.625 3.062-2.687 5.25-3.134 4.548-2.705 9.464-1.938 14.812 1.937 2.875 1.937 2.875 4 5 1.479 4.859 0.671 8.265-1 13-0.33 0.331-0.66 0.66-1 1-0.368 2.329-0.702 4.662-1 7h2c1.971 7.515 4.12 15.923 0.375 23.126-0.784 0.948-1.567 1.897-2.375 2.874-1.097 1.616-2.18 3.242-3.25 4.876-0.908 1.361-1.815 2.722-2.75 4.124-6.865-2.775-13.716-5.716-19-11-2.875-1-2.875-1-6-1-2.312 2.126-2.312 2.126-5 5-6.386 4.52-10.324 5.618-18.078 4.594-4.107-0.834-7.974-2.2-11.922-3.594-2.657-0.4-5.324-0.756-8-1-0.227 0.805-0.454 1.609-0.688 2.438-0.433 0.846-0.866 1.691-1.312 2.562-2.582 0.661-2.582 0.661-5 1-0.066-0.77-0.131-1.541-0.199-2.335-0.537-3.341-1.067-5.743-2.801-8.665-3.469-1.253-6.488-1.555-10.164-1.753-0.936-0.082-1.872-0.163-2.836-0.247-1.494-2.987-0.995-5.563-0.812-8.874 0.055-1.235 0.11-2.47 0.167-3.743 0.737-3.867 1.748-4.859 4.645-7.383 0.206-0.556 0.206-0.556 1.25-3.374 2.386-4.943 5.246-6.507 9.75-9.626 0.66-0.701 1.32-1.402 2-2.124 2.931-2.748 6.403-4.133 10-5.876l4-3c1.444-0.453 2.887-0.907 4.375-1.374 4.673-1.642 6.982-3.378 10.625-6.626 0.598-0.268 0.598-0.268 3.625-1.624 4.349-3.061 4.888-5.757 6.406-10.704 0.969-2.672 0.969-2.672 3.594-5.796 2.375-2.876 2.375-2.876 3.313-7.25 1.079-4.701 2.653-6.805 5.679-10.446 2.141-3.375 2.365-6.865 2.891-10.769 0.644-3.154 2.073-4.37 4.492-6.411 2.471-5.978 2.693-12.132 3.242-18.515 0.25-1.15 0.5-2.3 0.758-3.485 1.32-0.659 2.64-1.32 4-2 3.74-12.649 3.11-27.55-1-40-0.508-0.719-1.016-1.438-1.539-2.179-2.295-4.43-2.224-9.021-2.523-13.945-1.164-17.553-1.164-17.553-3.938-25.876h-2c-1.409-7.306-1.184-14.584-1.188-22-0.012-1.448-0.024-2.897-0.037-4.39-2e-3 -1.397-3e-3 -2.795-5e-3 -4.234-5e-3 -1.272-9e-3 -2.543-0.013-3.852 0.362-5.252 2.044-9.108 4.305-13.836 2.07-4.513 2.43-8.754 2.938-13.688 1.685-3.599 2.663-4.775 6-7 0.692-2.472 1.384-4.944 2.07-7.417 1.441-4.003 4.028-6.516 6.93-9.583 1.413-1.672 2.808-3.361 4.188-5.062 0.653-0.795 1.307-1.591 1.98-2.41 1.832-2.528 1.832-2.528 3.266-5.481 1.761-3.426 3.84-5.899 6.441-8.734 0.843-0.932 1.686-1.864 2.555-2.824 5.669-5.489 5.669-5.489 9.57-5.489v-7c-2.312-0.026-4.625-0.046-6.938-0.062-0.643-6e-3 -0.643-6e-3 -3.902-0.035-3.16 0.097-3.16 0.097-4.16 1.097-1.403 0.289-2.805 0.578-4.25 0.876-4.75 1.124-4.75 1.124-7.157 2.653-8.881 5.041-23.909 2.655-33.843 2.659-1.475 0.012-2.949 0.024-4.469 0.037-18.85 0.025-18.85 0.025-26.093-4.725-4.113-2.455-6.022-2.919-10.626-3.437-5.686-0.681-8.811-2.185-13.304-5.617-2.634-1.686-4.97-2.303-8.008-3.008-4.828-1.133-6.897-2.712-10.25-6.438-1.217-0.515-2.434-1.031-3.688-1.562-3.312-1.438-3.312-1.438-5.312-5.438-2.242-0.871-2.242-0.871-4.875-1.437-4.747-1.246-6.155-2.634-9.125-6.563-2.242-1.024-4.488-2.045-6.777-2.96-2.223-1.04-2.223-1.04-5.161-3.664-3.651-2.833-6.273-3.09-10.734-3.778-3.405-0.874-5.029-3.036-7.328-5.598-6.735-1.978-14.243-1.225-21.188-1.25-1.467-0.02-2.935-0.041-4.447-0.062-9.975-0.036-18.132 0.137-26.365 6.312-2.516 0.739-2.516 0.739-5.25 1.313-3.943 0.994-6.697 2.085-9.875 4.625-4.302 3.4-7.723 5.244-12.875 7.062-1.32-0.659-2.64-1.32-4-2h2c0.186-0.886 0.371-1.773 0.562-2.687 1.897-4.37 4.501-5.733 8.438-8.313 0.598-0.659 1.196-1.32 1.812-2 2.922-2.671 6.179-4.08 9.739-5.769 2.449-1.231 2.449-1.231 5.511-3.418 3.81-2.351 7.587-2.846 11.938-3.813 0.928-0.659 1.856-1.32 2.812-2 15.342-9.626 43.735-5.718 61.063-4.25 0.851 0.062 1.701 0.124 2.577 0.187 3.695 0.36 6.066 0.663 8.962 3.071 0.523 0.658 1.047 1.315 1.586 1.992 3.959 1.782 7.862 2.248 12.125 2.813 5.593 0.864 5.593 0.864 8 3.625 0.619 0.846 1.238 1.691 1.875 2.562 2.234 0.782 2.234 0.782 4.875 1.438 5.172 1.323 7.423 3.699 11.125 7.562 2.65 1.044 5.316 2.048 8 3 2.313 2.126 2.313 2.126 4 4 20.447 6.816 57.392 4.888 78-1l3-3c5.106-1.458 9.832-2.082 15.125-2.374 5.202-0.365 8.543-1.584 12.875-4.626 4.571-3.047 9.643-3.142 15.02-3.925 4.489-1.212 6.496-3.084 9.98-6.075 3.254-0.968 3.254-0.968 6.562-1.5 5.476-1.088 7.671-2.314 11.438-6.5 1.506-0.495 3.011-0.99 4.562-1.5 4.762-1.609 5.574-2.648 8.438-6.5 1.031-0.268 2.062-0.536 3.125-0.812 0.949-0.392 1.897-0.784 2.875-1.188 0.696-2.659 1.363-5.326 2-8 2.625-1 2.625-1 5-1-0.25-4.374-0.25-4.374-1-9-1.32-0.66-2.64-1.319-4-2-1.018-1.991-2.016-3.992-3-6-2.834-3.4-5.055-5.027-9.062-7-3.938-1.999-3.938-1.999-5.876-4.562-3.007-3.555-6.701-4.004-11.062-5.438-1.687-1.645-3.355-3.312-5-5-2.661-1.013-5.328-2.013-8-3-0.969-0.845-1.939-1.691-2.938-2.562-3.062-2.437-3.062-2.437-7.437-3.375-5.446-1.251-8.194-3.739-12.625-7.063-2.995-0.688-5.995-1.356-9-2-0.928-0.783-1.856-1.567-2.812-2.374-3.948-3.252-7.706-4.264-12.579-5.633-2.609-0.993-2.609-0.993-4.609-3.993-5.212-1.974-9.959-2.269-15.5-2.25-1.433-5e-3 -2.867-0.01-4.344-0.015-4.087 0.261-7.345 0.775-11.156 2.265-0.99 1.32-1.98 2.64-3 4-1.464 0.475-2.929 0.949-4.438 1.438-4.844 1.659-5.695 2.607-8.562 6.562-1.982 1.035-3.984 2.033-6 3-0.969 0.825-1.939 1.65-2.938 2.5-3.062 2.5-3.062 2.5-6.687 4-3.375 1.5-3.375 1.5-5.063 4-3.799 4.108-8.987 4.392-14.312 5.5-0.99 0.33-1.98 0.661-3 1v2c-6.919 3.46-15.456 3.733-23.062 2.376-4.277-1.494-5.991-3.019-8.938-6.376-0.887-0.515-1.774-1.031-2.688-1.562-2.312-1.438-2.312-1.438-4.312-5.438 0.444-6.444 0.444-6.444 3-9 2.481-0.522 4.964-1.039 7.457-1.503 5.019-0.98 7.89-1.844 11.543-5.497 0.732-0.144 0.732-0.144 4.438-0.874 5.073-1.252 5.725-2.016 8.562-6.126 2-1.333 4-2.666 6-4 1.386-1.623 2.726-3.287 4-5l3-3 2.5-3c2.5-3 2.5-3 5.5-6 0.681-0.866 1.361-1.732 2.062-2.624 1.938-2.376 1.938-2.376 3.938-3.376 0.25-3 0.25-3 0-6-5.106-2.553-12.606-1.227-18.319-1.24-2.709-9e-3 -5.416-0.04-8.124-0.072-1.739-7e-3 -3.478-0.012-5.217-0.016-1.574-9e-3 -3.148-0.018-4.77-0.028-5.152 0.402-8.804 1.391-13.57 3.356-0.66 0.991-1.32 1.981-2 3-1.279 0.454-2.558 0.908-3.875 1.376-4.41 1.737-5.344 3.009-8.125 6.624-0.505 0.124-0.505 0.124-3.062 0.75-2.938 1.25-2.938 1.25-4.813 5.876-0.371 1.443-0.743 2.887-1.125 4.374-1.176-0.144-2.351-0.288-3.562-0.437-3.083-0.368-6.094-0.582-9.2-0.676-0.658-0.022-0.658-0.022-3.988-0.137-1.253-0.025-2.506-0.051-3.797-0.078-4.293-0.835-5.625-2.426-8.453-5.672-1.196-0.824-2.392-1.649-3.625-2.5-3.305-2.448-4.447-3.995-6.375-7.5-0.464-0.402-0.464-0.402-2.812-2.437-2.188-2.563-2.188-2.563-2-5.563 2.036-3.37 4.194-4.74 7.589-6.644 3.136-1.912 5.696-4.331 8.407-6.793 1.816-1.563 1.816-1.563 4.566-3.187 2.25-1.376 2.25-1.376 4.125-3.938 2.749-3.153 5.153-3.323 9.125-4.438 0.379-0.407 0.379-0.407 2.297-2.472 3.242-3.032 5.173-3.347 9.515-3.965 6.677-1.24 10.292-2.855 15.188-7.563 1.707-2.948 2.069-5.376 2.688-8.75 1.702-5.512 4.594-8.927 8.312-13.25 0.286-0.358 0.286-0.358 1.734-2.171 3.959-4.83 7.901-7.662 13.266-10.829 0.304-0.338 0.304-0.338 1.84-2.05 2.771-2.501 4.881-2.77 8.535-3.387 5.599-1.141 8.366-2.69 12.625-6.563 3-1 6-2 9-3 2.017-1.646 4.017-3.312 6-5 1.341-0.453 2.681-0.907 4.062-1.374 4.857-2.005 6.151-4.257 8.938-8.626 0.866-0.804 1.732-1.608 2.625-2.437 2.375-2.563 2.375-2.563 3.875-6.563 1.598-4.261 3.172-5.996 6.5-9 0.33-0.412 0.33-0.412 2-2.5 4.743-5.928 10.307-10.882 17-14.5h2c1.401 2.802 1.208 5.189 1.25 8.313 0.013 0.565 0.013 0.565 0.078 3.426-0.36 3.582-1.406 5.281-3.328 8.261-0.188 3.813-0.188 3.813 0 7 4.633 0.909 7.867 1.526 12-1 1.019-1.655 2.018-3.322 3-5 1.667-1 3.333-2 5-3 0.237-0.412 0.237-0.412 1.438-2.5 2.012-3.219 4.194-3.85 7.562-5.5 0.577-0.824 1.155-1.649 1.75-2.5 2.975-3.305 5.733-3.612 9.945-4.687 2.305-0.813 2.305-0.813 4.18-3.313 3.103-3.65 6.651-3.795 11.25-4.628 2.875-0.872 2.875-0.872 4.937-2.961 1.938-1.911 1.938-1.911 6.938-1.911 1.375 2.251 1.375 2.251 2 5l-1 4c-0.229 3.79-0.38 7.578-0.523 11.372-0.488 3.71-1.234 5.673-3.477 8.628-0.66 0.33-1.32 0.661-2 1-0.683 8.76-0.683 8.76 1.375 12.5 3.957 2.262 8.189 2.778 12.625 3.5 4.563 0.938 4.563 0.938 8 2 0.33 0.991 0.66 1.981 1 3 6.554 2.274 13.417 2.628 20.293 3.243 4.073 0.832 5.645 2.051 8.707 4.757 5.361 2.772 11.27 2.724 17.188 3.243 4.153 0.825 5.705 1.997 8.812 4.757 4.987 2.506 10.242 2.738 15.723 3.34 3.277 0.66 3.277 0.66 7.277 3.66 3.687 0.313 3.687 0.313 7 0 1.628-3.255 1.391-6.687 1.613-10.296 0.115-1.698 0.23-3.396 0.346-5.094 0.179-2.677 0.353-5.353 0.512-8.031 0.156-2.585 0.335-5.167 0.517-7.75 0.099-1.548 0.197-3.096 0.298-4.691 0.762-4.418 2.081-6.583 4.714-10.138 1.331-4.955 1.966-9.614 2.422-14.73 0.076-0.845 0.152-1.689 0.23-2.56 0.216-2.503 0.404-5.009 0.59-7.514 0.798-4.419 1.417-5.448 4.758-8.196 1.93-5.898 2.632-12.009 3.438-18.144 0.562-2.856 0.562-2.856 2.562-5.856h2c1.291-4.15 2.164-8.144 2.75-12.437 0.687-4.061 1.635-6.508 4.25-9.687 3.37-4.354 3.833-7.584 5-12.876 2.5-2.187 2.5-2.187 5-4 1.871-4.21 2.453-8.443 3-13-7.277 0.502-7.277 0.502-10.812 2.938-3.836 2.482-7.035 2.949-11.504 3.57-2.816 0.517-5.119 1.221-7.684 2.492-0.66 0.991-1.32 1.98-2 3-4.5 0-4.5 0-9-1-1.75-2.187-1.75-2.187-2-5 1.676-4.928 3.655-6.456 8-9 0.681-1.031 1.361-2.062 2.062-3.124 1.938-2.875 1.938-2.875 5.938-3.876 0.695-1.655 1.355-3.324 2-5 1.701-2.059 3.48-4.056 5.312-6 0.945-1.01 1.89-2.021 2.864-3.062 7.393-7.69 7.393-7.69 10.324-9.375 2.5-1.562 2.5-1.562 5-4.563 2.429-2.914 4.272-4.144 7.5-6 0.371-0.412 0.371-0.412 2.25-2.5 3.567-3.242 7.201-4.026 11.75-5.5 0.597-0.656 1.194-1.312 1.809-1.988 3.028-2.78 5.67-2.98 9.691-3.636 6.106-1.022 9.992-1.868 14.5-6.376 1.134-0.433 2.269-0.866 3.438-1.312 4.196-1.988 5.21-3.768 7.562-7.688 2.698-2.916 5.52-5.437 8.562-8 3.438-2.999 3.438-2.999 5.626-5.812 1.812-2.188 1.812-2.188 5.812-3.188 0.309-0.783 0.619-1.567 0.938-2.374 1.353-3.344 2.861-4.105 6.062-5.626h2c0.12-0.375 0.12-0.375 0.727-2.273 1.762-3.773 3.956-4.534 7.648-6.351 3.903-1.948 7.112-3.741 10.625-6.376 9.113-2.727 18.006-4.597 27-1 4 0.626 4 0.626 8 0 2.75-3.812 2.75-3.812 5-8 1.32-0.99 2.64-1.979 4-3 1.09-2.339 1.09-2.339 1.938-4.937 1.634-4.411 3.121-6.371 7.062-9.063 0.804-0.989 1.609-1.98 2.438-3 2.651-3.103 5.182-4.746 8.562-7 2.149-2.044 4.214-4.15 6.266-6.292 1.734-1.707 1.734-1.707 3.734-2.708 0.885-1.449 1.711-2.934 2.5-4.437 3.284-6.237 5.068-6.921 12.25-7.125zm-92.75 68.562c-1.237 0.64-2.475 1.279-3.75 1.938-2.25 2.062-2.25 2.062-2.75 5.75 0.165 1.093 0.33 2.186 0.5 3.312 4.937 2.469 11.661 1.597 17 1 3.337-1.61 5.226-3.428 8-6 0.577-0.237 0.577-0.237 3.5-1.437 0.825-0.516 1.65-1.031 2.5-1.563 0.5-3.562 0.5-3.562 0-7-2-2-2-2-6.875-2.5-7.038 0.111-12.168 3.006-18.125 6.5zm303 213c-0.371 4.383-0.298 7.33 1.5 11.376 3.978 4.176 7.97 4.477 13.582 4.804 8.375 0.182 8.375 0.182 11.918-2.18 0.375-3.437 0.375-3.437 0-7-3.379-3.378-5.492-3.77-10-5-0.66-0.66-1.32-1.319-2-2-3.644-0.91-12.121-2.879-15 0zm-707 60c-0.454 0.341-0.454 0.341-2.75 2.063-4.455 3.836-7.1 6.213-7.625 12.25 0.375 3.687 0.375 3.687 1.375 4.687 4.309 0.288 6.01-4e-3 10-2 0.619-0.639 1.238-1.278 1.875-1.937 2.125-2.063 2.125-2.063 5-3.313 4.23-2.368 6.931-5.483 9.125-9.75 0.5-4.437 0.5-4.437 0-8-7.206-3.602-11.748 1.509-17 6z" fill="#C70019"/>
<path transform="translate(1170.1 408.72)" d="m0 0c0.642-6e-3 0.642-6e-3 3.892-0.035 1.412-2e-3 2.824-4e-3 4.279-6e-3 1.484-0.01 2.969-0.02 4.499-0.03 4.076-0.025 8.153-0.04 12.229-0.048 2.546-6e-3 5.093-0.015 7.639-0.024 7.966-0.027 15.932-0.046 23.898-0.054 9.198-9e-3 18.395-0.044 27.593-0.102 7.108-0.043 14.216-0.063 21.325-0.066 4.246-2e-3 8.492-0.014 12.738-0.05 4.737-0.034 9.471-0.03 14.207-0.017 1.408-0.018 2.816-0.037 4.267-0.056 9.508 0.082 9.508 0.082 13.568 3.609 0.571 1.043 1.142 2.085 1.73 3.16 0.745 1.08 1.491 2.16 2.258 3.273 2.09 4.471 2.396 8.51 2.617 13.352 0.538 7.709 2.071 13.104 5.75 19.969 1.756 4.349 2.023 8.3 2.375 12.968 0.452 5.949 0.988 10.274 4 15.438 3.804 6.52 4.025 13.12 4.481 20.484 0.661 5.745 2.341 10.404 5.152 15.442 1.823 4.099 1.946 7.796 2.242 12.261 0.637 7.831 2.337 13.949 6.125 20.813 1.179 3.535 1.296 6.653 1.5 10.375 0.238 4.306 0.526 8.419 1.5 12.625l8 1c0.159-1.004 0.318-2.008 0.481-3.043 1.155-6.768 2.368-13.067 5.082-19.395 2.139-5.109 2.926-9.673 3.437-15.187 0.689-7.405 2.53-12.87 6-19.375 1.228-3.684 1.405-7.13 1.75-11 0.587-5.271 1.174-9.57 3.688-14.25 2.794-5.303 3.368-10.442 4.062-16.313 0.93-7.818 2.325-13.625 6.5-20.437 1.285-3.853 1.413-7.514 1.75-11.563 0.693-6.564 1.666-11.348 5.016-16.984 2.044-4.062 2.714-8.422 3.559-12.863 0.223-0.855 0.446-1.71 0.675-2.59 2.712-1.356 4.833-1.129 7.871-1.134 1.25-4e-3 2.501-8e-3 3.79-0.013 1.379 1e-3 2.759 1e-3 4.181 2e-3 0.723-2e-3 0.723-2e-3 4.385-0.011 4.807-9e-3 9.615-0.011 14.422-0.012 2.488-2e-3 4.975-5e-3 7.463-8e-3 7.826-8e-3 15.653-0.01 23.479-9e-3 8.079 0 16.157-0.01 24.236-0.026 6.931-0.013 13.862-0.019 20.792-0.018 4.142 0 8.284-3e-3 12.425-0.013 4.619-0.01 9.238-7e-3 13.856-1e-3 1.376-6e-3 2.752-0.011 4.169-0.017 1.257 4e-3 2.513 8e-3 3.807 0.013 0.546-1e-3 0.546-1e-3 3.311-2e-3 2.813 0.249 2.813 0.249 6.813 2.249 2.45 9.478 1.179 20.481 1.088 30.203-0.017 2.517-0.017 5.034-2e-3 7.551 0.088 15.05 0.066 26.703-9.086 39.246-8.603 12.501-6.146 29.072-6.129 43.745-1e-3 1.94-3e-3 3.88-5e-3 5.82-5e-3 5.228-3e-3 10.455 0 15.683 3e-3 5.503 0 11.005-1e-3 16.508-2e-3 9.242 0 18.484 5e-3 27.726 5e-3 10.636 4e-3 21.273-2e-3 31.909-4e-3 9.177-5e-3 18.354-2e-3 27.531 1e-3 5.461 1e-3 10.922-2e-3 16.383-3e-3 5.142-1e-3 10.284 5e-3 15.427 1e-3 1.87 1e-3 3.74-1e-3 5.611-7e-3 5.887 0.043 11.77 0.132 17.657 8e-3 0.904 0.016 1.808 0.024 2.739 0.031 2.742 0.097 5.482 0.172 8.223 0.017 0.807 0.017 0.807 0.102 4.892 0.817 4.823 2.067 6.038 5.702 9.146 1.057 2.209 2.108 4.424 3.024 6.695 0.976 2.305 0.976 2.305 3.164 5.992 4.748 11.297 3.029 25.805 3.053 37.948 0.01 3.019 0.041 6.037 0.072 9.056 6e-3 1.929 0.012 3.857 0.016 5.785 6e-3 0.449 6e-3 0.449 0.037 2.721-0.018 5.036-0.229 6.62-3.366 10.803-2.489 0.513-2.489 0.513-5.514 0.532-1.147 0.017-2.294 0.034-3.475 0.051-1.26-2e-3 -2.519-4e-3 -3.816-5e-3 -1.326 0.013-2.651 0.027-4.017 0.041-4.398 0.039-8.795 0.05-13.193 0.061-3.051 0.02-6.101 0.041-9.152 0.064-6.402 0.044-12.805 0.074-19.207 0.095-8.206 0.026-16.412 0.079-24.618 0.141-6.304 0.046-12.608 0.081-18.911 0.113-3.026 0.016-6.051 0.034-9.076 0.055-4.233 0.027-8.465 0.041-12.697 0.051-1.252 0.01-2.503 0.02-3.792 0.031-11.236-1e-3 -11.236-1e-3 -16.532-2.23-2.318-3.478-2.257-4.847-2.274-8.953-0.01-1.225-0.019-2.45-0.029-3.712 0-0.662 0-0.662 3e-3 -4.015-5e-3 -1.36-9e-3 -2.72-0.013-4.121-6e-3 -2.88-7e-3 -5.76-2e-3 -8.64 3e-3 -4.409-0.021-8.818-0.046-13.227-2e-3 -2.796-3e-3 -5.591-2e-3 -8.387-9e-3 -1.321-0.018-2.642-0.028-4.003 6e-3 -1.231 0.013-2.462 0.019-3.731-1e-3 -1.081-1e-3 -2.162-2e-3 -3.276 0.535-4.195 2.143-6.862 5.312-9.623 2.685-3.01 3.722-6.166 5.117-9.918 0.945-2.394 0.945-2.394 2.633-5.144 3.321-5.693 2.454-12.961 2.442-19.349 2e-3 -1.107 3e-3 -2.215 5e-3 -3.357 5e-3 -3.654 2e-3 -7.308-2e-3 -10.962 1e-3 -2.54 2e-3 -5.08 3e-3 -7.621 2e-3 -5.318-1e-3 -10.637-5e-3 -15.955-6e-3 -6.826-3e-3 -13.653 3e-3 -20.479 4e-3 -5.243 3e-3 -10.485 0-15.727 0-2.518 0-5.036 3e-3 -7.554 2e-3 -3.512-2e-3 -7.024-7e-3 -10.536 1e-3 -0.523 1e-3 -0.523 6e-3 -3.169-0.021-7.198-0.021-7.198-1.136-10.541h-6c-0.288 1.567-0.577 3.135-0.875 4.75-0.187 1.004-0.373 2.008-0.566 3.043-0.362 2.079-0.685 4.165-0.961 6.258-0.69 5.069-1.454 9.038-4.098 13.449-2.734 4.914-3.061 9.741-3.437 15.25-0.542 7.843-2.196 13.565-5.684 20.683-2.176 5.63-2.327 11.357-2.816 17.333-0.765 5.755-2.825 10.189-5.563 15.234-1.284 3.852-1.412 7.513-1.75 11.562-0.692 6.623-1.742 11.216-5.082 16.887-2.488 5.434-2.544 11.667-3.168 17.551-0.715 5.293-1.787 9.808-4.5 14.437-3.037 5.582-3.168 11.139-3.618 17.392-0.575 6.585-2.499 11.208-5.565 16.964-2.022 4.925-1.951 9.721-1.918 14.992-0.399 3.215-0.399 3.215-2.047 5.586-5.663 3.922-13.522 2.846-20.164 2.879-1.042 0.021-2.085 0.041-3.158 0.062-6.672 0.034-11.853-0.739-18.03-3.312-3.769-3.769-3.085-8.48-3.187-13.5-0.302-5.603-0.925-9.465-3.75-14.313-3.035-5.259-3.61-9.645-4.063-15.687-0.558-7.396-1.926-12.008-5.613-18.328-2.371-5.424-2.485-11.12-2.867-16.973-0.665-5.377-2.506-9.402-5.148-14.086-1.764-4.004-1.98-7.571-2.309-11.926-0.676-6.994-1.683-12.062-5.063-18.187-2.169-4.338-2.382-7.139-2.75-11.938-0.611-5.842-1.518-10.302-4.25-15.5-3.477-6.669-3.834-12.947-4.437-20.363-0.758-5.661-2.677-9.316-5.563-14.199-0.931-3.727-1.268-6.992-1.5-10.813-0.313-4.772-0.712-9.465-1.5-14.187h-8c-0.976 6.499-1.127 12.788-1.085 19.338 3e-3 1.11 7e-3 2.22 0.01 3.363 0.012 3.652 0.033 7.304 0.056 10.955 7e-3 1.252 0.014 2.503 0.021 3.792 0.037 6.617 0.081 13.233 0.13 19.849 0.05 6.826 0.076 13.652 0.097 20.478 0.02 5.259 0.058 10.518 0.101 15.776 0.017 2.517 0.028 5.033 0.032 7.55 7e-3 3.521 0.039 7.04 0.077 10.561-4e-3 1.034-7e-3 2.068-0.011 3.133 0.132 8.275 2.57 13.535 7.572 20.205 0.475 0.99 0.949 1.98 1.438 3 1.562 3 1.562 3 3.624 4.802 2.55 2.891 2.464 4.552 2.516 8.372 0.026 1.248 0.052 2.496 0.079 3.782 8e-3 1.345 0.015 2.69 0.023 4.075 0.021 1.383 0.043 2.767 0.065 4.192 0.04 2.925 0.072 5.85 0.094 8.775 0.036 4.485 0.104 8.967 0.177 13.451 0.036 2.84 0.07 5.68 0.102 8.52 0.019 1.344 0.039 2.689 0.059 4.075 7e-3 1.248 0.015 2.496 0.022 3.782 0.01 1.098 0.02 2.197 0.031 3.328-0.23 2.846-0.23 2.846-2.23 6.846-3.861 1.931-8.727 1.166-12.995 1.177-1.145 6e-3 -2.29 0.013-3.469 0.02-3.801 0.02-7.602 0.031-11.403 0.041-1.295 4e-3 -2.59 8e-3 -3.924 0.013-6.852 0.02-13.703 0.035-20.555 0.044-7.091 0.011-14.182 0.046-21.273 0.085-5.44 0.026-10.881 0.035-16.321 0.038-2.615 5e-3 -5.23 0.017-7.845 0.035-3.653 0.025-7.306 0.024-10.96 0.017-1.086 0.013-2.172 0.025-3.291 0.039-7.216-0.051-7.216-0.051-10.635-2.148-1.713-3.045-1.836-5.117-1.846-8.611-0.013-1.265-0.025-2.53-0.038-3.833 8e-3 -1.363 0.016-2.727 0.024-4.132-4e-3 -1.403-7e-3 -2.806-0.011-4.252-3e-3 -2.968 4e-3 -5.936 0.021-8.904 0.021-4.546 0-9.089-0.025-13.635 2e-3 -2.882 7e-3 -5.764 0.015-8.646-8e-3 -1.362-0.016-2.724-0.024-4.126 0.012-1.268 0.025-2.537 0.038-3.843 3e-3 -1.114 6e-3 -2.228 9e-3 -3.375 0.845-4.997 4.022-7.518 7.508-11.004 1.011-2.329 2.01-4.663 3-7 1.316-2.012 2.646-4.014 4-6 1.328-3.982 1.13-7.46 1.134-11.666 2e-3 -0.896 5e-3 -1.792 7e-3 -2.715 6e-3 -3.015 5e-3 -6.029 5e-3 -9.044 3e-3 -2.156 6e-3 -4.313 0.01-6.47 9e-3 -5.867 0.011-11.735 0.012-17.603 1e-3 -4.896 4e-3 -9.791 8e-3 -14.687 8e-3 -11.55 0.01-23.101 0.01-34.651-1e-3 -11.919 0.01-23.838 0.025-35.757 0.014-10.228 0.019-20.456 0.018-30.683 0-6.111 3e-3 -12.222 0.013-18.333 0.01-5.748 0.01-11.497 3e-3 -17.246-1e-3 -2.109 1e-3 -4.219 7e-3 -6.328 8e-3 -2.882 3e-3 -5.762-4e-3 -8.643 0-1.612 1e-3 -3.224 1e-3 -4.885-0.404-6.969-1.922-10.973-6.249-16.289-1.323-2.536-2.551-5.101-3.753-7.695-1.247-2.305-1.247-2.305-4.247-5.305-1.111-3.333-1.14-5.855-1.161-9.368-9e-3 -1.314-0.019-2.629-0.029-3.983-4e-3 -1.422-8e-3 -2.844-0.013-4.309-5e-3 -1.456-0.011-2.912-0.017-4.412-9e-3 -3.081-0.016-6.162-0.02-9.243-0.01-4.732-0.041-9.463-0.072-14.195-7e-3 -2.988-0.012-5.975-0.016-8.963-0.012-1.424-0.024-2.848-0.037-4.315 3e-3 -1.311 6e-3 -2.623 9e-3 -3.974-4e-3 -1.159-7e-3 -2.318-0.011-3.512 0.121-0.9 0.242-1.799 0.367-2.726 3.52-2.346 4.969-2.259 9.136-2.281z"/>
<path transform="translate(1950.6 408.63)" d="m0 0c0.766 1e-3 0.766 1e-3 4.644 4e-3 0.853-3e-3 1.706-6e-3 2.584-9e-3 2.87-8e-3 5.739 6e-3 8.608 0.02 2.053 0 4.107-2e-3 6.16-6e-3 5.59-5e-3 11.179 9e-3 16.769 0.026 5.855 0.015 11.711 0.014 17.566 0.014 9.849 4e-3 19.697 0.019 29.546 0.042 12.604 0.028 25.208 0.039 37.812 0.043 10.863 4e-3 21.726 0.017 32.589 0.031 3.475 4e-3 6.951 7e-3 10.426 0.01 5.49 4e-3 10.98 0.015 16.471 0.029 2.004 4e-3 4.008 7e-3 6.012 8e-3 32.822 0.022 32.822 0.022 43.256 4.097 5.814 2.121 11.028 3.51 17.187 4.125 5.874 0.611 8.455 1.745 12.75 5.938 1.506 0.474 3.012 0.949 4.563 1.437 5.005 1.763 6.31 3.421 9.437 7.563 0.949 0.619 1.898 1.237 2.875 1.875 3.48 2.366 5.786 4.985 8.469 8.191 1.656 1.934 1.656 1.934 4.219 4.309 2.916 3.141 4.891 6.51 7.008 10.223 1.429 2.402 1.429 2.402 4.429 6.402 0.729 2.561 1.366 5.149 1.938 7.75 2.068 8.804 2.068 8.804 4.25 12.812 3.43 6.507 2.972 13.586 2.98 20.797 4e-3 0.985 7e-3 1.97 0.01 2.985 5e-3 2.078 8e-3 4.155 8e-3 6.233 2e-3 3.149 0.02 6.298 0.039 9.446 3e-3 2.029 5e-3 4.058 6e-3 6.086 7e-3 0.928 0.014 1.855 0.022 2.811-0.029 8.411-0.652 16.543-4.753 24.017-2.603 4.75-3.373 9.142-3.945 14.497-0.555 2.566-0.555 2.566-3.555 5.566h-2c-0.247 0.866-0.495 1.732-0.75 2.625-3.42 9.235-11.049 17.094-19.625 21.75-1.196 0.536-2.392 1.072-3.625 1.625-0.598 0.722-1.196 1.444-1.812 2.187-3.245 2.689-6.514 2.394-10.629 2.539-2.559 0.274-2.559 0.274-5.559 2.274-0.437 3-0.437 3 0 6 4 2 4 2 7.813 2.812 4.638 1.316 7.299 3.391 11.187 6.188 1.527 0.474 3.053 0.949 4.625 1.437 4.934 1.763 6.333 3.423 9.375 7.563 0.846 0.557 1.692 1.114 2.563 1.687 3.22 3.056 4.004 6.164 5.25 10.364 1.187 2.949 1.187 2.949 3.72 6.003 2.99 4.781 3.182 8.568 3.139 14.032 0.012 0.967 0.025 1.933 0.037 2.929 0.024 2.059 0.036 4.117 0.038 6.176 3e-3 3.201 0.036 6.4 0.078 9.6 0.053 4.187 0.096 8.373 0.128 12.56 0.054 6.864 0.159 13.725 0.36 20.586 0.01 0.943 0.021 1.885 0.032 2.855 0.245 7.88 3 13.001 7.655 19.208 0.454 0.804 0.908 1.609 1.375 2.437 1.625 2.563 1.625 2.563 4.192 4.34 3.976 5.266 3.085 10.938 2.992 17.352-2e-3 1.382-5e-3 2.763-7e-3 4.187-0.01 2.919-0.032 5.839-0.065 8.758-0.049 4.475-0.061 8.949-0.067 13.424-0.014 2.835-0.03 5.671-0.049 8.506-5e-3 1.342-0.01 2.683-0.016 4.066-0.016 1.245-0.032 2.489-0.048 3.772-0.011 1.095-0.022 2.19-0.033 3.319-0.274 2.839-0.274 2.839-2.274 6.839-6.13 1.586-12.723 1.13-19.022 1.101-0.597-1e-3 -0.597-1e-3 -3.619-5e-3 -3.936-7e-3 -7.872-0.023-11.808-0.041-1.346-6e-3 -2.691-0.012-4.077-0.018-7.111-0.031-14.222-0.07-21.333-0.114-7.355-0.044-14.709-0.06-22.063-0.069-5.651-0.013-11.302-0.048-16.952-0.089-2.713-0.015-5.425-0.022-8.138-0.021-3.785 1e-3 -7.569-0.03-11.354-0.069-1.124 7e-3 -2.249 0.014-3.408 0.022-7.581-0.124-7.581-0.124-10.876-3.056-1.455-2.847-2.583-5.587-3.537-8.641-0.324-1.011-0.647-2.021-0.981-3.063-3.915-13.823-2.953-28.819-2.909-43.071 0.012-5.287-9e-3 -10.574-0.024-15.86-0.019-6.68-0.027-13.36 2e-3 -20.04 0.022-5.445 0.011-10.89-0.023-16.336-7e-3 -2.059-2e-3 -4.118 0.017-6.177 0.098-11.582-0.211-20.161-7.895-29.453-0.254-0.587-0.254-0.587-1.543-3.555-1.457-2.445-1.457-2.445-4.382-3.765-1.118-0.266-2.236-0.531-3.387-0.805-3.975-1.044-6.491-1.736-9.875-4.125-4.382-2.727-7.708-2.214-12.813-1.75-4.971 4.971-6.367 8.206-6.511 15.258-0.018 0.711-0.018 0.711-0.109 4.308-0.022 1.504-0.044 3.009-0.067 4.559-0.031 1.534-0.061 3.068-0.093 4.649-0.057 3.041-0.108 6.081-0.152 9.122-0.056 3.386-0.146 6.767-0.263 10.151-0.195 8.051 0.111 14.724 3.125 22.238 1.126 2.857 1.817 5.663 2.508 8.652 1.196 4.587 2.823 7.012 6.562 10.063 1.342 2.684 1.177 4.818 1.237 7.823 0.027 1.222 0.053 2.444 0.08 3.703 0.023 1.327 0.046 2.654 0.07 4.021 0.013 0.679 0.013 0.679 0.077 4.118 0.052 2.882 0.102 5.764 0.149 8.645 0.074 4.408 0.165 8.814 0.256 13.221 0.049 2.797 0.097 5.594 0.143 8.391 0.015 0.659 0.015 0.659 0.088 3.997 0.017 1.234 0.034 2.468 0.051 3.74 0.02 1.082 0.039 2.164 0.059 3.279-0.229 3.341-0.919 5.977-2.21 9.062-2.657 1.329-4.665 1.129-7.642 1.134-1.2 4e-3 -2.401 8e-3 -3.637 0.013-1.324-1e-3 -2.647-1e-3 -4.011-2e-3 -0.695 2e-3 -0.695 2e-3 -4.208 0.01-4.613 0.01-9.225 0.012-13.838 0.013-3.193 3e-3 -6.387 6e-3 -9.581 0.01-6.703 6e-3 -13.407 8e-3 -20.11 7e-3 -7.751 0-15.503 0.01-23.254 0.026-7.452 0.015-14.903 0.018-22.355 0.018-3.173 1e-3 -6.346 5e-3 -9.519 0.013-4.432 0.01-8.864 7e-3 -13.295 1e-3 -0.66 3e-3 -0.66 3e-3 -3.999 0.017-1.206-4e-3 -2.412-9e-3 -3.654-0.013-1.049 1e-3 -2.097 1e-3 -3.177 2e-3 -2.72-0.249-2.72-0.249-6.72-2.249-1.345-2.691-1.142-4.794-1.161-7.807-9e-3 -1.219-0.019-2.438-0.029-3.693-4e-3 -1.324-8e-3 -2.648-0.013-4.012-6e-3 -1.357-0.011-2.713-0.017-4.111-0.01-2.878-0.016-5.755-0.02-8.633-0.01-4.396-0.041-8.791-0.072-13.187-7e-3 -2.794-0.012-5.588-0.016-8.381-0.012-1.314-0.025-2.628-0.037-3.981 0.015-6.384 0.042-11.53 3.365-17.195 0.68-0.673 1.359-1.346 2.059-2.039 2.545-2.57 3.069-4.865 4.004-8.336 0.924-3.386 1.756-6.302 3.479-9.368 1.708-3.816 1.831-6.488 1.826-10.659 5e-3 -1.491 0.011-2.981 0.017-4.517-0.01-1.627-0.019-3.254-0.028-4.93 1e-3 -1.738 3e-3 -3.477 6e-3 -5.216 5e-3 -4.725-8e-3 -9.45-0.026-14.175-0.015-4.978-0.013-9.956-0.014-14.935-4e-3 -8.389-0.019-16.779-0.041-25.169-0.029-10.662-0.04-21.323-0.044-31.985-4e-3 -9.261-0.017-18.522-0.03-27.783-5e-3 -2.924-7e-3 -5.847-0.01-8.771-0.022-18.81-0.109-37.619-0.523-56.425-0.022-1.406-0.043-2.813-0.066-4.262-0.034-1.292-0.069-2.584-0.104-3.916-0.025-1.119-0.05-2.239-0.076-3.393-0.488-3.551-1.73-5.989-3.429-9.121-0.579-2.868-0.932-5.705-1.277-8.609-0.239-0.789-0.477-1.578-0.723-2.391l-4-2c-4.21-5.614-4.118-10.688-4.161-17.53-9e-3 -1.251-0.019-2.503-0.029-3.792-4e-3 -1.332-8e-3 -2.665-0.013-4.037-6e-3 -1.382-0.011-2.763-0.017-4.186-0.01-2.912-0.016-5.823-0.02-8.735-0.01-4.468-0.041-8.936-0.072-13.404-7e-3 -2.829-0.012-5.659-0.016-8.488-0.012-1.341-0.025-2.681-0.037-4.062 3e-3 -1.239 6e-3 -2.477 9e-3 -3.753-4e-3 -1.092-7e-3 -2.183-0.011-3.308 0.623-4.588 2.579-5.624 6.987-6.077zm131.38 88.372c-1.525 8.021-1.12 16.258-1.054 24.394 0.011 1.465 0.023 2.93 0.035 4.44 0.029 3.083 0.061 6.167 0.096 9.251 0.032 3.16 0.054 6.321 0.064 9.482 0.015 4.568 0.062 9.135 0.117 13.702-1e-3 1.417-1e-3 2.834-2e-3 4.293 0.023 1.312 0.045 2.624 0.069 3.976 0.01 1.154 0.019 2.309 0.029 3.498 0.646 2.964 0.646 2.964 2.938 5.305 5.561 3.407 11.418 2.819 17.708 2.659 1.207-0.017 2.413-0.034 3.657-0.051 9.558-0.351 9.558-0.351 13.218-3.137 0.702-0.928 1.403-1.856 2.125-2.812 0.671-0.413 0.671-0.413 4.063-2.5 4.813-3.483 5.712-7.825 7.133-13.402 0.804-3.098 0.804-3.098 2.492-6.598 3.856-10.283 3.447-23.28-1.063-33.25-0.874-1.751-1.749-3.501-2.625-5.25-0.495-1.299-0.99-2.599-1.5-3.938-1.701-3.474-3.411-4.802-6.5-7.062-0.513-0.816-1.026-1.632-1.554-2.473-3.489-3.606-7.371-4.034-12.133-4.84-0.861-0.168-1.721-0.336-2.608-0.509-10.012-1.849-17.248-2.768-24.705 4.822z"/>
<path transform="translate(1752.1 400.87)" d="m0 0c2.783 5e-3 5.566-0 8.35-6e-3 28.013-0.016 28.013-0.016 36.414 3.511 7.773 2.861 15.442 3.715 23.65 4.373 6.806 0.65 10.679 2.424 16.475 6.252 4.065 0.968 8.055 1.491 12.195 2.032 4.415 1.124 6.387 3.037 9.805 5.968 3.183 0.934 3.183 0.934 6.437 1.438 6.071 1.198 8.983 3.342 13.563 7.562 2.659 0.696 5.326 1.364 8 2 2.037 1.622 4.038 3.289 6 5 1.217 0.516 2.433 1.032 3.687 1.563 3.313 1.437 3.313 1.437 6.313 5.437 0.292 3.46 0.409 6.738 0.388 10.197 2e-3 0.518 2e-3 0.518 0.016 3.14 0.013 3.429 4e-3 6.856-6e-3 10.284 2e-3 2.382 5e-3 4.763 9e-3 7.144 4e-3 4.993-2e-3 9.985-0.016 14.978-0.017 6.4-7e-3 12.8 0.011 19.201 0.01 4.918 7e-3 9.836-1e-3 14.754-2e-3 2.36 1e-3 4.72 8e-3 7.08 7e-3 3.299-4e-3 6.597-0.021 9.896 6e-3 0.976 0.012 1.952 0.018 2.958-0.083 8.876-0.083 8.876-3.406 12.368-2.34 0.595-2.34 0.595-5.147 0.552-1.061-3e-3 -2.123-7e-3 -3.216-0.011-1.161-0.029-2.321-0.058-3.516-0.088-1.216-9e-3 -2.431-0.019-3.684-0.029-4-0.035-8-0.105-12-0.174-5.552-0.061-11.104-0.107-16.656-0.152-1.404-0.014-2.807-0.028-4.253-0.042-9.193-0.077-18.369 9e-3 -27.56 0.253-1.159 0.03-2.319 0.06-3.514 0.092-4.421 0.12-8.842 0.246-13.262 0.4-3.003 0.103-6.006 0.19-9.009 0.274-0.879 0.037-1.759 0.074-2.665 0.113-5 0.125-6.338-0.052-10.518-3.188-1.454-4.228-1.068-8.656-0.993-13.082 9e-3 -0.786 9e-3 -0.786 0.051-4.763 0.044-3.3 0.096-6.599 0.157-9.899 0.014-1.576 0.028-3.152 0.042-4.775 0.023-1.435 0.045-2.869 0.067-4.347-0.509-6.487-2.44-10.954-6.324-16.134-0.207-0.546-0.207-0.546-1.25-3.312-2.322-4.893-5.786-9.205-10.75-11.688-2.933-0.202-5.873-0.313-8.813-0.375-0.797-0.024-0.797-0.024-4.832-0.148-5.053 0.607-6.204 1.688-9.355 5.523-1.052 0.578-2.104 1.155-3.188 1.75-3.937 3.15-4.271 6.48-4.812 11.25-0.914 8.895-1.287 17.795-1.552 26.729-0.042 1.393-0.084 2.785-0.128 4.22-0.425 15.129-0.484 30.253-0.488 45.387-4e-3 2.99-7e-3 5.979-0.01 8.968-6e-3 6.21-8e-3 12.42-8e-3 18.63 0 7.854-0.013 15.708-0.03 23.562-0.012 6.157-0.014 12.314-0.013 18.471-1e-3 2.892-5e-3 5.783-0.013 8.674-0.039 15.724 0.259 31.383 1.131 47.084 0.039 0.727 0.039 0.727 0.235 4.406 0.083 1.35 0.166 2.699 0.251 4.09 0.072 1.19 0.144 2.381 0.218 3.608 0.845 6.59 3.674 10.524 8.407 15.171 9.231 5.28 17.328 4.36 27.363 2.047 2.637-1.047 2.637-1.047 5.637-5.047 0.725-1.789 1.39-3.605 2-5.437 0.987-2.958 1.952-5.483 3.562-8.16 2.406-4.02 2.554-7.655 2.504-12.209-0.01-1.168-0.02-2.336-0.03-3.54-7e-3 -0.628-7e-3 -0.628-0.044-3.81-0.018-2.657-0.035-5.315-0.051-7.973-0.031-4.193-0.067-8.387-0.113-12.581-0.042-4.045-0.065-8.089-0.086-12.133-9e-3 -0.629-9e-3 -0.629-0.057-3.811-3e-3 -1.168-6e-3 -2.336-0.01-3.539-5e-3 -0.514-5e-3 -0.514-0.029-3.113 0.354-2.694 0.354-2.694 3.354-6.694 3.69-0.39 7.081-0.525 10.773-0.485 1.109-4e-3 2.219-8e-3 3.361-0.012 3.676-7e-3 7.35 0.014 11.026 0.036 2.547 3e-3 5.093 4e-3 7.64 3e-3 5.341 3e-3 10.682 0.02 16.022 0.047 6.859 0.034 13.718 0.041 20.578 0.04 5.259 0 10.519 0.011 15.778 0.026 2.53 6e-3 5.06 0.01 7.59 0.012 3.529 4e-3 7.058 0.021 10.587 0.043 0.527-1e-3 0.527-1e-3 3.195-3e-3 7.221 0.064 7.221 0.064 9.45 2.293 0.265 2.254 0.265 2.254 0.287 5.122 0.013 1.085 0.026 2.17 0.039 3.288 4e-3 1.196 8e-3 2.392 0.012 3.624 0.011 1.255 0.023 2.511 0.035 3.804 0.034 4.172 0.053 8.343 0.068 12.514 7e-3 1.422 0.014 2.845 0.021 4.31 0.036 7.531 0.059 15.061 0.073 22.592 0.017 7.781 0.075 15.562 0.143 23.343 0.045 5.98 0.059 11.959 0.064 17.939 8e-3 2.868 0.027 5.736 0.059 8.604 0.041 4.018 0.039 8.033 0.025 12.05 0.022 1.184 0.044 2.368 0.067 3.587-0.078 6.893-1.053 10.715-5.976 15.655-3.109 2.543-6.475 4.503-9.917 6.568-0.495 0.66-0.495 0.66-3 4-2.778 0.871-2.778 0.871-5.938 1.438-5.83 1.265-5.83 1.265-8.062 4.125-3.015 3.673-6.524 3.327-11.082 3.91-3.703 0.669-6.03 2.158-8.918 4.527-3.631 2.421-5.859 2.391-10.188 2.75-7.679 0.855-14.174 2.959-21.289 5.911-5.359 2.037-10.442 2.468-16.144 2.621-1.259 0.036-2.517 0.073-3.813 0.111-1.321 0.036-2.643 0.071-4.004 0.107-16.363 0.483-16.363 0.483-24.125 1.063-12.613 0.938-25.199 0.259-37.813-0.362-2.817-0.138-5.634-0.27-8.451-0.402-1.822-0.087-3.644-0.175-5.466-0.263-1.625-0.079-3.249-0.158-4.923-0.239-14.468-0.898-14.468-0.898-21.105-5.043-3.504-1.64-6.861-2.097-10.679-2.691-7.282-1.182-11.123-3.247-17-7.563-1.423-0.35-2.847-0.701-4.313-1.062-4.444-1.13-4.937-2.438-7.687-5.938-2.195-0.968-4.393-1.932-6.618-2.832-11.097-5.439-18.493-16.979-23.89-27.652-1.553-2.618-3.3-4.423-5.492-6.516-1.352-2.703-1.446-5.25-1.813-8.25-0.922-6.361-0.922-6.361-3.187-9.687-5.991-9.173-4.41-23.968-4.617-34.538-0.038-1.671-0.076-3.343-0.114-5.014-0.371-17.118-0.417-34.238-0.404-51.36 3e-3 -4.388 1e-3 -8.777-1e-3 -13.165-2e-3 -7.351 0-14.702 5e-3 -22.053 6e-3 -8.392 4e-3 -16.785-2e-3 -25.177-4e-3 -7.327-5e-3 -14.654-2e-3 -21.981 1e-3 -4.323 2e-3 -8.646-2e-3 -12.969-9e-3 -17.124 0.083-34.24 0.52-51.359 0.03-1.367 0.061-2.735 0.092-4.143 0.333-11.338 0.698-21.416 6.525-31.304 0.503-2.156 0.957-4.325 1.375-6.5 1.245-5.975 3.306-9.091 7.625-13.5 0.474-0.969 0.948-1.938 1.437-2.937 2.195-4.303 5.283-7.549 8.563-11.063 0.804-0.866 1.608-1.732 2.437-2.625 3.336-3.092 6.887-5.691 10.563-8.375l4-3c1.01-0.474 2.021-0.948 3.062-1.437 2.938-1.563 2.938-1.563 5.938-5.563 3.172-0.956 6.313-1.448 9.578-1.996 3.422-1.004 3.422-1.004 6.672-3.508 4.85-3.228 8.803-3.505 14.5-3.996 11.757-1.263 11.757-1.263 16.875-4.125 4.767-2.578 8.962-2.799 14.343-3.015 0.874-0.036 1.749-0.072 2.649-0.109 9.162-0.343 18.326-0.402 27.494-0.381z"/>
<path transform="translate(1208 873.85)" d="m0 0c0.882-3e-3 1.764-7e-3 2.673-0.01 2.906-0.01 5.812-0.012 8.719-0.013 2.03-3e-3 4.06-6e-3 6.09-0.01 4.253-6e-3 8.507-8e-3 12.76-7e-3 5.431 0 10.863-0.014 16.294-0.031 4.193-0.011 8.387-0.013 12.58-0.012 2.002-2e-3 4.003-6e-3 6.004-0.014 2.809-0.01 5.618-7e-3 8.427-1e-3 1.594-1e-3 3.188-3e-3 4.83-4e-3 7.064 0.375 12.851 0.894 18.655 5.247 2.656 0.555 2.656 0.555 5.5 0.875 5.208 0.849 5.208 0.849 7.813 3.313 0.557 0.928 1.113 1.856 1.687 2.812 0.526 0.598 0.526 0.598 3.188 3.625 4.486 5.384 4.026 10.207 4.062 16.938 0.011 0.485 0.011 0.485 0.063 2.943 0.014 2.5-0.138 5-0.313 7.494-5.352 3.568-12.118 2.121-18.375 1.938-1.423-0.015-2.846-0.03-4.312-0.045-0.685-0.019-0.685-0.019-4.149-0.115-1.253-0.029-2.507-0.057-3.798-0.087-4.202-0.862-5.637-2.461-8.366-5.691-1.395-1.417-2.79-2.834-4.187-4.25-0.674-0.686-1.349-1.371-2.043-2.078-3.865-3.652-8.476-3.029-13.52-3.234-0.502-0.021-0.502-0.021-3.045-0.127-13.399-0.497-26.799-0.481-40.205-0.311-0.45 4e-3 -0.45 4e-3 -2.727 0.022-2.133 0.026-4.266 0.093-6.398 0.166-0.537 0.017-0.537 0.017-3.258 0.105-3.529 0.954-4.537 2.789-6.617 5.707-0.907 0.433-1.815 0.867-2.75 1.313-2.25 1.687-2.25 1.687-2.937 5.625 0.687 4.062 0.687 4.062 3.437 6.312 1.073 0.578 2.145 1.155 3.25 1.75 0.579 0.685 1.158 1.371 1.755 2.077 3.151 2.699 5.31 2.435 9.422 2.453 1.47 0.017 2.939 0.033 4.453 0.05 1.592-2e-3 3.184-4e-3 4.823-6e-3l7.536 0.066c3.528 0.025 7.056 0.032 10.584 0.04 6.122 0.018 12.244 0.065 18.366 0.11 3.255 0.024 6.509 0.038 9.764 0.047 29.569 0.138 29.569 0.138 40.297 5.726 3 1.437 3 1.437 7.188 2.187 3.812 1.25 3.812 1.25 5.5 4.313 0.433 1.299 0.866 2.599 1.312 3.937 0.848 1.578 1.724 3.14 2.625 4.688 3.942 7.156 3.591 13.478 3.625 21.437 0.011 0.593 0.011 0.593 0.063 3.594 0.048 11.008-1.941 22.619-9.313 31.281-2.827 1.296-5.386 1.906-8.441 2.457-3.293 0.699-5.133 2.269-7.559 4.543-3.175 1.059-5.506 1.157-8.844 1.206-1.209 0.02-2.418 0.039-3.664 0.06-1.317 0.017-2.635 0.033-3.992 0.051-0.683 0.01-0.683 0.01-4.143 0.063-4.452 0.066-8.904 0.125-13.357 0.183-3.04 0.042-6.081 0.084-9.121 0.126-40.702 0.549-40.702 0.549-57.651 0.348-2.1-0.024-4.199-0.039-6.299-0.043-8.979-0.03-16.513-0.062-23.995-5.599-1.934-1.395-1.934-1.395-5.184-2.145-4.698-2.135-6.381-6.847-8.75-11.25l-2-3c-1.025-4.556-1.194-9.027-1.25-13.687-0.026-1.303-0.051-2.607-0.078-3.949 0.328-3.364 0.328-3.364 3.328-6.364 5.443-0.543 10.913-0.18 16.375 0 0.759 0.01 0.759 0.01 4.602 0.059 1.459 0.042 2.918 0.085 4.422 0.129 0.668 0.017 0.668 0.017 4.052 0.105 6.813 1.357 9.852 7.374 13.51 12.817 4.023 3.73 10.344 3.017 15.598 3.036 1.258 6e-3 2.516 0.012 3.813 0.019 1.341 1e-3 2.683 2e-3 4.066 3e-3 0.697 2e-3 0.697 2e-3 4.224 0.01 2.942 5e-3 5.884 8e-3 8.826 8e-3 4.496 2e-3 8.992 0.02 13.489 0.039 2.862 3e-3 5.724 5e-3 8.586 6e-3 1.342 7e-3 2.683 0.014 4.066 0.022 14.528-0.036 14.528-0.036 19.551-3.952 3.718-4.361 5.696-7.331 5.82-13.301-0.742-0.227-1.485-0.453-2.25-0.687-3.272-1.562-4.61-3.435-6.75-6.313-2.991-1.495-5.736-1.158-9.073-1.189-1.496-0.017-2.993-0.034-4.534-0.051-0.815-7e-3 -0.815-7e-3 -4.94-0.041-1.69-0.018-3.38-0.037-5.07-0.056-5.377-0.06-10.755-0.111-16.133-0.163-6.194-0.059-12.388-0.122-18.581-0.192-2.465-0.026-4.929-0.047-7.394-0.068-27.123-0.295-27.123-0.295-39.9-5.802-3.375-1.438-3.375-1.438-7-2.125-4.822-1.875-5.975-4.847-8.375-9.313-0.289-0.412-0.289-0.412-1.75-2.5-3.247-6.495-2.433-14.807-2.437-21.937-0.013-0.986-0.025-1.971-0.037-2.987-0.018-8.934 0.89-16.47 6.162-23.951 0.689-0.997 1.379-1.995 2.09-3.023 3.333-4.396 5.404-5.953 10.722-7.039 5.046-1.149 8.797-2.891 13.25-5.563 4.983-1.15 9.869-1.133 14.968-1.145z"/>
<path transform="translate(1881.2 873.81)" d="m0 0c2.832 0.189 2.832 0.189 5.832 3.189 1.183 4.731 1.184 9.224 1.187 14.063 0.013 0.911 0.025 1.821 0.038 2.76 0.015 6.818 0.015 6.818-2.225 10.177-4.527 1.513-9.325 1.066-14.041 0.99-0.902-0.012-1.803-0.025-2.732-0.038-1.952-0.029-3.904-0.059-5.857-0.092-3.089-0.051-6.177-0.095-9.266-0.137-8.781-0.119-17.562-0.251-26.343-0.391-5.374-0.086-10.749-0.161-16.123-0.23-2.048-0.029-4.097-0.061-6.145-0.097-2.86-0.051-5.72-0.089-8.581-0.124-1.628-0.025-3.256-0.05-4.934-0.076-3.978 0.195-3.978 0.195-7.978 2.195-2.665 6.188-3.508 11.192-3 18 2 4 2 4 4 5 2.999 0.108 5.976 0.155 8.976 0.158 0.93 5e-3 1.86 0.01 2.819 0.016 2.024 0.01 4.049 0.019 6.073 0.026 3.202 0.011 6.404 0.031 9.606 0.053 9.106 0.062 18.212 0.115 27.318 0.149 5.566 0.021 11.131 0.056 16.697 0.101 2.123 0.014 4.247 0.022 6.37 0.026 2.969 5e-3 5.937 0.028 8.906 0.055 0.88-3e-3 1.76-6e-3 2.667-9e-3 4.946 0.068 6.449 0.336 10.568 3.425 1.274 3.822 0.971 6.855 0.75 10.875-0.067 1.4-0.134 2.8-0.203 4.243-0.54 3.831-1.153 5.884-3.547 8.882-4.031 1.344-7.558 1.096-11.814 1.066-0.451-2e-3 -0.451-2e-3 -2.731-0.014-1.958-0.01-3.915-0.023-5.873-0.038-3.097-0.021-6.194-0.036-9.292-0.047-8.806-0.034-17.613-0.075-26.419-0.138-5.385-0.038-10.77-0.061-16.155-0.074-2.054-8e-3 -4.108-0.022-6.162-0.041-2.87-0.027-5.74-0.035-8.61-0.038-1.635-0.01-3.269-0.02-4.953-0.03-3.991 0.354-3.991 0.354-7.991 3.354-2.461 7.384-0.513 13.945 2 21 3.444 1.723 7.415 1.11 11.204 1.082 0.477-1e-3 0.477-1e-3 2.893-9e-3 2.078-7e-3 4.157-0.017 6.235-0.028 3.291-0.017 6.582-0.028 9.873-0.036 9.36-0.024 18.72-0.06 28.079-0.104 5.722-0.027 11.443-0.044 17.164-0.055 2.179-7e-3 4.359-0.017 6.539-0.03 3.054-0.02 6.108-0.027 9.162-0.031 0.898-8e-3 1.795-0.017 2.72-0.026 5.039 8e-3 9.417 0.398 14.131 2.237 2.881 4.321 2.117 8.446 1.875 13.438-0.023 0.955-0.046 1.909-0.07 2.893-0.312 6.96-0.312 6.96-2.61 10.267-4.835 3.089-10.19 2.531-15.704 2.5-0.965-1e-3 -1.93-3e-3 -2.925-4e-3 -2.1-4e-3 -4.201-0.01-6.302-0.018-3.357-0.013-6.713-0.02-10.07-0.025-8.363-0.013-16.725-0.037-25.088-0.061-8.156-0.023-16.313-0.04-24.469-0.052-1.129-2e-3 -2.259-4e-3 -3.422-7e-3 -14.847-0.023-29.656 0.114-44.487 0.89-1.104 0.051-2.208 0.103-3.346 0.156-0.931 0.052-1.862 0.105-2.821 0.159-2.945-0.156-4.948-0.778-7.561-2.136-6.554-10.767-4.875-28.373-3.5-40.359 0.55-5.101 0.65-10.078 0.625-15.203-2e-3 -0.973-4e-3 -1.947-6e-3 -2.949-0.032-5.352-0.21-10.651-0.619-15.989-3.638-51.2-3.638-51.2 4.5-62.5 1.679-1.679 3.748-1.142 6.053-1.158 0.548-5e-3 0.548-5e-3 3.318-0.029 1.212-6e-3 2.424-0.012 3.673-0.018 1.268-0.01 2.536-0.02 3.843-0.03 4.219-0.032 8.437-0.056 12.656-0.081 2.921-0.021 5.842-0.042 8.764-0.063 7.713-0.055 15.426-0.105 23.139-0.153 7.836-0.05 15.673-0.106 23.509-0.161 11.451-0.08 22.903-0.158 34.354-0.231 1.202-7e-3 2.404-0.015 3.642-0.023 0.555-4e-3 0.555-4e-3 3.361-0.021 0.959-6e-3 1.918-0.012 2.907-0.019 1.984-9e-3 3.968-0.084 5.949-0.202z"/>
<path transform="translate(1435.6 874.12)" d="m0 0c1.136 0.048 2.272 0.096 3.443 0.146 1.211 0.056 2.422 0.112 3.67 0.17 8.853 0.388 17.632 0.661 26.492 0.305 3.41 0.312 5.111 1.186 7.821 3.258 1.66 2.086 1.66 2.086 3.062 4.375 1.617 2.578 3.115 4.828 5.125 7.125 1.813 2.5 1.813 2.5 3.313 7.062 1.494 4.421 2.338 5.372 5.5 8.438 1.026 2.246 2.05 4.494 3 6.773 1 2.227 1 2.227 3 5.227s2 3 4 7.562c2 4.438 2 4.438 4.062 6.938 1.938 2.5 1.938 2.5 3.375 7 1.563 4.5 1.563 4.5 4.063 6.875 2.77 2.909 3.11 4.361 4 8.187 1.218 5.212 1.218 5.212 4 7.438 3.057 2.446 3.133 3.757 4 7.5 1.173 5.038 2.428 6.322 6.5 9.5 1.159 2.742 2.06 5.491 2.91 8.344 1.232 3.002 2.797 4.403 5.09 6.656 1.09 2.402 1.09 2.402 1.937 4.937 1.63 4.43 3.67 6.764 7.063 10.063v5c-5.464 3.642-12.825 2.077-19.242 1.888-2.682-0.075-5.363-0.124-8.045-0.171-1.705-0.044-3.411-0.088-5.116-0.135-1.552-0.039-3.103-0.078-4.702-0.118-3.895-0.464-3.895-0.464-7.895-3.464-1.001-2.228-1.998-4.459-2.926-6.719-1.513-3.212-3.735-5.634-6.074-8.281l-2-4c-4.933-1.933-9.475-2.264-14.736-2.306-0.758-8e-3 -0.758-8e-3 -4.592-0.049-1.623-5e-3 -3.246-0.011-4.918-0.016-1.698-9e-3 -3.395-0.018-5.092-0.028-3.55-0.016-7.099-0.024-10.649-0.027-4.534-5e-3 -9.067-0.043-13.6-0.088-3.503-0.03-7.006-0.037-10.509-0.038-2.479-7e-3 -4.958-0.036-7.438-0.066-14.046 0.056-14.046 0.056-20.466 5.618-1.586 2.316-1.586 2.316-2.375 4.562-2.279 6.222-4.402 11.532-10.625 14.438-6.117 0.8-12.155 0.654-18.313 0.5-1.685-0.013-3.371-0.023-5.056-0.031-12.323-0.161-12.323-0.161-14.631-2.469 0.198-5.247 1.274-8.274 5-12h2c0.147-0.785 0.294-1.57 0.445-2.379 1.546-7.241 3.518-11.059 8.555-16.621 1.024-2.992 2.025-5.992 3-9 0.825-0.969 1.65-1.939 2.5-2.938 2.444-2.994 3.052-4.449 4-8.062 1.247-4.728 3.267-7.294 6.5-11 1.368-2.985 2.702-5.985 4-9 1.324-2.006 2.656-4.007 4-6 0.495-1.176 0.99-2.351 1.5-3.563 1.5-3.437 1.5-3.437 3.5-5.812 2-2.625 2-2.625 3.437-7.125 1.563-4.5 1.563-4.5 4.063-6.938 2.656-2.723 3.031-3.87 3.937-7.437 1.045-4.066 1.732-5.322 4.625-8.688 2.938-3.437 2.938-3.437 3.875-8.062 1.063-4.375 1.063-4.375 4.5-7.25 1.176-0.701 2.352-1.403 3.563-2.125l3-3c2.679-1.34 4.581-1.017 7.574-0.879zm6.207 43.875c-2.353 3.968-3.584 7.972-4.848 12.387-1.216 3.409-3.37 5.121-5.933 7.617-0.33 1.506-0.66 3.011-1 4.562-1 4.438-1 4.438-3.625 6.438-0.784 0.66-1.568 1.32-2.375 2-0.375 4.687-0.375 4.687 0 9 2.115 2.115 5.682 1.13 8.507 1.139 1.057-2e-3 2.114-4e-3 3.204-6e-3 0.539 0 0.539 0 3.27 3e-3 2.288 0 4.576-2e-3 6.864-6e-3 3.508-5e-3 7.015 0 10.522 7e-3 2.219-1e-3 4.437-2e-3 6.656-4e-3 0.527 1e-3 0.527 1e-3 3.192 6e-3 7.44-0.024 7.44-0.024 10.785-1.139 1.207-7.588-3.004-12.932-7-19-0.99-1.32-1.98-2.64-3-4-0.454-1.444-0.908-2.888-1.375-4.375-1.625-4.625-1.625-4.625-4.188-7.625-3.098-3.814-3.526-7.232-4.437-12-2-2-2-2-5.125-2.75-5.318 1.029-6.948 3.493-10.094 7.746z"/>
<path transform="translate(1708,875)" d="m0 0c3.099 4.132 3.378 4.74 3.363 9.535 0 0.528 0 0.528-2e-3 3.201-0.016 1.098-0.032 2.196-0.049 3.326 4e-3 1.102 7e-3 2.204 0.01 3.338-0.055 8.199-0.055 8.199-2.322 11.6-4.674 1.266-9.048 0.939-13.841 0.58-13.19-0.88-26.377-0.879-39.592-0.93-3.189-0.017-6.379-0.044-9.568-0.082-4.639-0.055-9.278-0.077-13.917-0.091-0.712-0.012-0.712-0.012-4.318-0.069-9.845 0.021-9.845 0.021-14.621 2.988-4.542 5.519-4.658 10.584-4.143 17.604 1.093 6.258 1.093 6.258 4.04 8.667 4.002 1.802 7.248 1.712 11.634 1.718 0.862 5e-3 1.725 0.011 2.613 0.016 1.867 0.01 3.735 0.013 5.602 0.01 2.955-5e-3 5.909 9e-3 8.863 0.028 7.336 0.043 14.672 0.054 22.008 0.066 6.204 0.012 12.407 0.035 18.611 0.075 2.912 0.014 5.823 9e-3 8.735 5e-3 1.783 9e-3 3.566 0.019 5.349 0.03 1.557 2e-3 3.115 4e-3 4.719 6e-3 3.826 0.379 3.826 0.379 7.826 3.379 0.266 3.608 0.283 6.795 0.062 10.375-0.023 0.946-0.047 1.892-0.072 2.867-0.047 0.918-0.094 1.836-0.142 2.781-0.021 0.418-0.021 0.418-0.125 2.529-1.075 3.639-2.764 5.092-5.723 7.448-3.953 0.626-3.953 0.626-8.674 0.628-0.431 3e-3 -0.431 3e-3 -2.613 0.022-2.844 0.018-5.686 2e-3 -8.529-0.013-1.979 8e-3 -3.958 0.018-5.936 0.031-5.205 0.029-10.41 0.029-15.615 0.022-8.335-7e-3 -16.669 0.024-25.004 0.063-2.912 9e-3 -5.823 3e-3 -8.735-4e-3 -1.783 4e-3 -3.566 7e-3 -5.349 0.011-1.557-1e-3 -3.115-3e-3 -4.719-5e-3 -3.826 0.245-3.826 0.245-7.826 2.245-1.703 3.405-1.027 7.084-0.957 10.84 0.022 1.803 0.044 3.605 0.064 5.408 0.038 2.849 0.081 5.697 0.14 8.546 0.054 2.744 0.083 5.488 0.108 8.233 0.014 0.824 0.014 0.824 0.083 4.992-0.072 0.657-0.072 0.657-0.438 3.981-5.985 4.488-11.711 3.475-19 3.438-1.379 0.019-2.759 0.039-4.18 0.06-1.322-1e-3 -2.645-1e-3 -4.008-2e-3 -0.605 1e-3 -0.605 1e-3 -3.667 6e-3 -3.74-0.597-4.884-1.523-7.145-4.502-1.545-4.635-1.147-9.387-1.145-14.229-4e-3 -1.158-7e-3 -2.316-0.01-3.509-0.01-3.842-0.012-7.683-0.013-11.524-3e-3 -2.667-7e-3 -5.334-0.01-8.001-6e-3 -5.598-8e-3 -11.195-7e-3 -16.793 0-7.168-0.014-14.336-0.031-21.504-0.011-5.512-0.013-11.024-0.013-16.536-1e-3 -2.642-5e-3 -5.284-0.013-7.926-0.01-3.701-7e-3 -7.401-1e-3 -11.102-6e-3 -1.088-0.011-2.177-0.017-3.299 0.056-13.675 0.056-13.675 4.132-19.042 4.939-2.424 9.751-2.113 15.183-2.097 1.221-0.012 2.443-0.024 3.702-0.036 4.039-0.035 8.078-0.041 12.118-0.047 2.806-0.017 5.612-0.036 8.417-0.057 5.882-0.039 11.762-0.066 17.644-0.082 7.542-0.021 15.085-0.063 22.627-0.114 7.188-0.048 14.375-0.085 21.562-0.122 1.374-7e-3 2.749-0.015 4.164-0.023 3.886-0.02 7.771-0.032 11.656-0.042 0.576-4e-3 0.576-4e-3 3.492-0.02 1.06-2e-3 2.12-3e-3 3.212-4e-3 0.918-3e-3 1.836-6e-3 2.782-0.01 2.699 0.125 4.987 0.303 7.569 1.119z"/>
<path transform="translate(2099.4 873.59)" d="m0 0c1.837-0.022 3.674-0.056 5.511-0.103 2.652-0.067 5.303-0.094 7.956-0.113 1.591-0.025 3.182-0.05 4.821-0.076 5.392 0.862 7.531 2.91 11.358 6.697 0.438 0.26 0.438 0.26 2.653 1.574 7.856 4.771 13.17 13.797 17.785 21.489 2.562 3.937 2.562 3.937 5.125 6.5 2.437 2.437 2.437 2.437 4.437 6.062 2 3.375 2 3.375 4.5 4.875s2.5 1.5 4.375 5.188c0.702 1.093 1.403 2.186 2.125 3.312 4.406 0.721 8.146 0.313 12-2 0.725-1.642 1.378-3.316 2-5 1.953-2.724 3.939-5.363 6-8 0.621-0.83 1.241-1.66 1.879-2.516 0.618-0.819 1.235-1.639 1.871-2.484 0.573-0.763 1.145-1.526 1.735-2.312 0.5-0.557 1-1.114 1.515-1.688h2c0.124-0.361 0.124-0.361 0.75-2.187 1.646-3.704 4.137-5.26 7.25-7.813 1.362-1.981 2.696-3.981 4-6 1.625-1.708 3.293-3.375 5-5 0.825-0.846 1.65-1.691 2.5-2.562 0.825-0.805 1.65-1.609 2.5-2.438 0.696-0.702 1.391-1.404 2.107-2.128 4.014-2.597 6.942-2.326 11.694-2.263 0.837 6e-3 1.673 0.012 2.535 0.018 2.659 0.022 5.318 0.072 7.977 0.123 1.808 0.02 3.616 0.038 5.424 0.055 4.421 0.044 8.842 0.113 13.263 0.195 1.012 3.836 1.131 4.718-0.625 8.5-2.237 3.297-4.559 5.706-7.375 8.5-4.698 5.416-9.081 11.043-13.25 16.875-2.674 3.737-5.453 6.916-8.75 10.125-0.99 1.32-1.98 2.64-3 4-2.507 3.344-4.979 6.139-8 9-0.701 0.701-1.402 1.403-2.125 2.125l-4.875 4.875c-2.261 2.673-4.463 5.39-6.664 8.113-1.392 1.721-2.799 3.432-4.234 5.117-10.461 12.615-13.106 24.384-12.852 40.458 0.025 3.4 0.024 6.798 0.016 10.199 9e-3 0.743 9e-3 0.743 0.056 4.506-0.322 3.607-0.322 3.607-3.322 6.607-5.471 0.666-10.992 0.463-16.5 0.438-0.767 0.01-0.767 0.01-4.652 0.06-1.466-1e-3 -2.931-1e-3 -4.441-2e-3 -0.674 1e-3 -0.674 1e-3 -4.084 6e-3 -3.323-0.502-3.323-0.502-6.323-4.502-0.243-3.616-0.321-7.067-0.265-10.68-3e-3 -2.147-7e-3 -4.294-0.012-6.441 8e-3 -3.38 0.028-6.759 0.068-10.138 0.033-3.266 0.022-6.53 6e-3 -9.796 0.024-1.006 0.048-2.013 0.072-3.049-0.058-5.589-0.231-7.245-4.317-11.42-1.172-0.817-2.344-1.634-3.552-2.476-1.04-1.641-2.045-3.307-3-5l-2.312-2.312c-4.491-4.491-7.949-9.482-11.25-14.875-2.242-3.508-4.401-6.004-7.438-8.813-3.004-2.85-5.577-5.717-8-9.062-3-3.938-3-3.938-5.812-6.188-2.188-1.75-2.188-1.75-3.188-5.75l-4-2c-1.812-2.062-1.812-2.062-4-5-1.187-1.5-2.374-3-3.562-4.5-2.388-3.066-4.466-6.149-6.438-9.5l-3-3c-0.75-2.625-0.75-2.625-1-5 3.048-3.048 12.879-1.366 17.354-1.405z"/>
<path transform="translate(1926.3 874.12)" d="m0 0c2.062 0.049 4.125 0.098 6.187 0.146 1.12 0.028 2.239 0.056 3.393 0.084 20.489 0.502 40.962 0.685 61.455 0.614 2.12-7e-3 4.239-0.013 6.359-0.019 9.571-0.029 19.141-0.069 28.712-0.139 4.029-0.026 8.057-0.041 12.086-0.052 1.9-9e-3 3.8-0.022 5.7-0.042 2.615-0.026 5.23-0.034 7.846-0.038 1.476-9e-3 2.953-0.019 4.474-0.029 3.515 0.354 3.515 0.354 6.515 3.354 1.62 4.861 1.226 9.847 1.25 14.937 0.01 0.549 0.01 0.549 0.062 3.327 3e-3 0.528 3e-3 0.528 0.016 3.201 9e-3 0.965 0.018 1.931 0.028 2.925-0.356 2.61-0.356 2.61-3.356 6.61-3.763 0.317-7.229 0.392-10.985 0.285-1.089-0.013-2.178-0.025-3.3-0.039-3.489-0.042-6.977-0.11-10.465-0.184-3.475-0.068-6.949-0.13-10.423-0.173-2.163-0.027-4.326-0.069-6.488-0.126-5.811-0.077-10.163 0.247-15.339 3.237-2.651 3.976-2.243 7.387-2.18 11.998 2e-3 0.46 2e-3 0.46 0.014 2.789 0.011 2.001 0.026 4.001 0.046 6.001 0.03 3.165 0.047 6.329 0.06 9.494 0.04 8.997 0.105 17.995 0.176 26.993 0.043 5.501 0.071 11.003 0.09 16.505 0.011 2.098 0.027 4.197 0.05 6.295 0.031 2.933 0.044 5.865 0.052 8.798 0.014 0.869 0.028 1.738 0.043 2.634-8e-3 4.945-0.257 6.367-3.351 10.493-3.231 0.502-3.231 0.502-7.188 0.496-0.71 0-0.71 0-4.305 2e-3 -1.487-0.02-2.975-0.04-4.507-0.061-1.488 7e-3 -2.976 0.015-4.508 0.022-11.099-0.066-11.099-0.066-14.492-3.459-0.305-3.125-0.428-6.054-0.417-9.181-4e-3 -0.471-4e-3 -0.471-0.026-2.849-0.025-3.114-0.029-6.227-0.034-9.341-0.014-2.161-0.03-4.322-0.047-6.483-0.042-5.695-0.067-11.389-0.088-17.084-0.035-9.113-0.096-18.225-0.158-27.338-0.019-3.186-0.031-6.372-0.042-9.559-0.01-1.951-0.02-3.903-0.031-5.854-1e-3 -0.888-2e-3 -1.776-3e-3 -2.691-0.025-3.765-0.236-6.947-1.154-10.62-5.656-0.169-11.312-0.329-16.968-0.482-1.921-0.053-3.841-0.109-5.761-0.166-2.775-0.083-5.551-0.158-8.326-0.231-0.845-0.027-1.691-0.054-2.561-0.082-4.338-0.106-8.516 0.045-12.815 0.563-4.569 0.398-4.569 0.398-7.632-1.352-4.206-4.885-3.159-11.078-3.187-17.188-0.021-1.097-0.042-2.195-0.063-3.326-5e-3 -1.056-0.01-2.113-0.016-3.201-9e-3 -0.965-0.018-1.931-0.028-2.925 0.357-2.61 0.357-2.61 3.357-6.61 4.098-1.366 8.008-1.005 12.273-0.879z"/>
<path transform="translate(570,1033)" d="m0 0c3.63 0.66 7.26 1.32 11 2l-1 4-10-1v-5z" fill="#C30019"/>
<path transform="translate(584,1025)" d="m0 0h6l1 4-2 2h-5v-6z" fill="#C30019"/>
</svg>
