<?xml version="1.0" encoding="UTF-8"?>
<svg version="1.1" viewBox="0 0 2744 1112" xmlns="http://www.w3.org/2000/svg">
<path transform="translate(1298,240)" d="m0 0c4 1 4 1 5.562 2.969 0.475 0.835 0.949 1.67 1.438 2.531 0.517 0.905 1.034 1.81 1.566 2.742 1.264 2.431 2.342 4.847 3.372 7.383 2.044 4.336 4.172 6.893 7.39 10.324 2.719 3.335 4.019 7.097 5.672 11.051l3 3c0.619 1.258 1.237 2.516 1.875 3.812 2.125 4.188 2.125 4.188 4.687 7.188 2.827 3.478 3.872 6.823 5.438 11 1.616 2.041 3.286 4.041 5 6 1.707 2.641 3.376 5.307 5 8 0.557 0.866 1.114 1.733 1.688 2.625 1.312 2.375 1.312 2.375 2.187 5.437 1.125 2.938 1.125 2.938 3.5 4.75 3.82 3.184 4.842 6.564 6.625 11.188v2c0.99 0.33 1.98 0.66 3 1 1.43 2.293 1.43 2.293 2.875 5.188 4.551 8.586 4.551 8.586 8.125 11.812 3.812 0.375 3.812 0.375 7 0 0.392-1.361 0.784-2.722 1.188-4.125 1.489-4.505 3.683-7.288 6.812-10.875 0.681-1.382 1.361-2.764 2.062-4.188 1.938-3.812 1.938-3.812 5.938-6.812 1.09-2.523 1.09-2.523 1.938-5.375 1.597-4.779 3.337-7.179 7.062-10.625 1.349-2.659 2.685-5.324 4-8h2c0.206-0.691 0.206-0.691 1.25-4.188 1.83-5.498 4.677-8.739 8.75-12.812 0.474-1.279 0.949-2.558 1.438-3.875 1.489-3.933 2.886-5.977 5.562-9.125 0.846-1.361 1.691-2.722 2.562-4.125 2.438-3.875 2.438-3.875 5.438-6.875 0.992-2.305 0.992-2.305 1.875-4.875 1.697-4.477 3.687-6.771 7.125-10.125 1.383-2.521 2.603-5.077 3.789-7.695 1.211-2.305 1.211-2.305 4.211-5.305h5c1.651 3.302 1.491 6.912 1.812 10.562 0.756 7.131 1.935 12.13 5.188 18.438 1.992 5.745 3.169 10.965 3.875 17 0.571 4.479 1.286 7.793 3.563 11.688 2.691 4.732 3.362 9.488 4.062 14.812 1.311 9.954 1.311 9.954 4 14.5 3.143 5.312 3.546 11.049 4.336 17.051 0.631 4.454 1.369 8.069 3.664 11.949 3.143 5.312 3.546 11.049 4.336 17.051 0.631 4.454 1.369 8.069 3.664 11.949 3.143 5.312 3.546 11.049 4.336 17.051 0.631 4.454 1.369 8.069 3.664 11.949 3.143 5.312 3.546 11.049 4.336 17.051 0.786 5.548 2.16 9.408 4.973 14.16 2.301 5.388 2.636 11.423 3.32 17.203 0.916 4.825 2.497 8.311 4.871 12.586 2.164 4.328 2.201 5.497 1 10-3.196 1.598-6.397 1.172-9.938 1.188-0.716 7e-3 -0.716 7e-3 -4.339 0.042-3.723-0.23-3.723-0.23-6.723-2.23-1.062-2.609-1.062-2.609-2-5.75-0.976-3.237-1.913-6.091-3.539-9.062-1.887-4.119-2.28-7.949-2.836-12.438-1.384-10.121-1.384-10.121-4.125-14.75-3.143-5.312-3.546-11.049-4.336-17.051-0.631-4.454-1.369-8.069-3.664-11.949-3.137-5.303-3.543-11.026-4.332-17.018-0.939-6.622-2.82-11.255-6.168-16.982-1.042-4.167-1.321-7.965-1.562-12.25-0.084-1.449-0.168-2.898-0.254-4.391-0.061-1.108-0.122-2.217-0.184-3.359-7.312-0.558-7.312-0.558-10.391 1.941-0.306 0.433-0.306 0.433-1.859 2.621-0.659 0.911-1.317 1.821-1.996 2.758-2.063 3.152-3.937 6.382-5.754 9.68l-3 3c-0.975 2.242-1.948 4.484-2.902 6.734-1.547 3.194-3.773 5.601-6.098 8.266-1.707 2.641-3.376 5.307-5 8-0.536 0.866-1.072 1.732-1.625 2.625-1.375 2.375-1.375 2.375-2.75 5.375-1.625 3-1.625 3-4.063 5.375-3.141 3.218-4.632 6.579-6.562 10.625-1.306 2.018-2.636 4.021-4 6-0.474 0.825-0.949 1.65-1.438 2.5-1.562 2.5-1.562 2.5-4 5.25-2.159 2.738-3.304 4.678-4.624 7.812-1.697 3.886-3.214 6.289-5.938 9.438-0.681 1.052-1.361 2.104-2.062 3.188-1.938 2.812-1.938 2.812-4.938 4.812-1.133 2.714-1.966 5.467-2.84 8.273-1.285 3.02-2.785 4.504-5.16 6.727-1.383 2.304-2.726 4.634-4 7-2.125 0-2.125 0-5-1-4.225-5.017-7.532-10.434-11-16-0.701-0.846-1.402-1.691-2.125-2.562-1.875-2.438-1.875-2.438-3.313-5.876-1.69-3.854-3.847-6.372-6.562-9.562l-3-6c-0.66-0.577-1.32-1.155-2-1.75-2.695-3.031-3.213-6.101-4.094-10.008-0.906-2.242-0.906-2.242-4.906-4.242-1.598-2.023-1.598-2.023-3.062-4.375-1.891-2.999-3.8-5.775-5.938-8.625-0.619-1.464-1.237-2.929-1.875-4.438-1.75-4.1-3.923-6.44-7.125-9.562-1.383-2.641-2.717-5.309-4-8-0.701-1.052-1.402-2.104-2.125-3.188-1.875-2.812-1.875-2.812-2.813-5.437-1.062-2.375-1.062-2.375-3.374-4.063-3.373-2.901-4.696-5.933-6.563-9.917-1.212-2.581-2.639-4.964-4.125-7.395-0.412-1.093-0.825-2.186-1.25-3.312-0.289-0.444-0.289-0.444-1.75-2.688-3.562-0.688-3.562-0.688-7 0-1.25 1.875-1.25 1.875-2 5-0.47 1.628-0.95 3.252-1.438 4.875-0.127 0.44-0.127 0.44-0.773 2.668-0.789 2.457-0.789 2.457-2.351 5.645-1.457 3.862-1.875 7.035-2.313 11.124-0.55 4.734-1.143 8.328-3.563 12.438-3.511 6.106-3.932 12.893-4.789 19.762-0.739 4.293-1.891 7.583-3.773 11.488-2.309 5.172-3.274 9.789-3.875 15.375-0.686 5.86-1.983 9.762-4.895 14.809-2.235 5.116-2.705 10.658-3.457 16.156-0.773 3.66-0.773 3.66-3.773 6.66-3.18 0.582-3.18 0.582-6.875 0.812-1.214 0.089-2.429 0.178-3.68 0.27-3.425-0.082-5.508-0.332-8.445-2.082-1.178-4.712-0.406-6.411 1-11 0.446-2.422 0.86-4.845 1.242-7.277 0.758-2.723 0.758-2.723 2.738-6.453 2.214-4.68 2.851-8.521 3.458-13.645 1.329-10.007 1.329-10.007 4.062-14.625 3.127-5.296 3.545-10.997 4.336-16.978 0.811-5.729 2.32-10.021 4.976-15.088 1.587-3.92 2.08-7.755 2.688-11.934 1.091-7.479 3.008-13.355 6.5-20 1.183-3.55 1.397-6.835 1.75-10.562 0.588-4.97 1.137-8.93 3.688-13.25 2.725-4.68 3.368-9.396 4.062-14.688 1.31-9.953 1.31-9.953 4-14.5 3.125-5.293 3.545-10.99 4.334-16.967 0.82-5.803 2.356-10.266 5.033-15.42 1.766-4.074 2.184-8.235 2.746-12.613 0.852-6.608 2.901-12.426 5.438-18.527 1.31-3.413 2.109-6.92 2.949-10.473l1-1zm6 55c-2.965 4.447-2.756 9.087-3.242 14.336-0.832 4.021-2.135 5.604-4.758 8.664-0.625 4.375-0.625 4.375 0 9 2.812 3.625 2.812 3.625 6 7 1.02 2.325 2.021 4.658 3 7 1.646 2.017 3.313 4.017 5 6l3 6c0.66 0.598 1.32 1.196 2 1.812 2 2.188 2 2.188 3.438 6.688 1.708 4.921 2.674 5.445 6.562 8.5 1.412 2.5 2.615 5.04 3.789 7.66 1.211 2.34 1.211 2.34 4.211 5.34 0.971 2.266 1.941 4.533 2.898 6.805 1.102 2.195 1.102 2.195 3.602 4.695 3.366 3.366 4.629 7.155 6.5 11.5 1.294 1.698 2.625 3.367 4 5 0.681 1.196 1.361 2.392 2.062 3.625 1.938 3.375 1.938 3.375 4.938 6.375 0.992 2.305 0.992 2.305 1.875 4.875 1.692 4.452 3.607 6.864 7.125 10.125 1.686 2.655 3.352 5.322 5 8 2.687 3.96 3.874 5.678 8.5 7 3.5-1 3.5-1 4.918-3.109 0.862-1.793 1.682-3.606 2.465-5.434 1.274-2.803 2.957-4.297 5.117-6.457 0.995-2.246 1.987-4.494 2.93-6.762 1.52-3.18 3.772-5.586 6.07-8.238 1.016-1.992 2.017-3.992 3-6 0.32-0.392 0.32-0.392 1.938-2.375 2.062-2.625 2.062-2.625 4-6.563 2.062-4.062 2.062-4.062 4.562-7 2.175-2.664 3.26-4.528 4.562-7.624 1.692-3.874 3.331-6.223 5.938-9.438 0.33-1.052 0.66-2.104 1-3.188 1-2.812 1-2.812 5-4.812 1.055-2.137 1.055-2.137 1.875-4.688 1.854-5.067 4.482-8.297 8.125-12.312 2.955-4.433 5.523-8.979 8-13.688 2.221-4.156 4.615-7.021 8-10.312 3.295-7.06 2.14-13.871 0.508-21.262-0.76-4.098-1.002-8.211-1.262-12.367-0.246-2.371-0.246-2.371-1.246-3.371-8.931-0.705-8.931-0.705-12.938 1.938-2.062 3.062-2.062 3.062-3.562 7.624-1.5 4.438-1.5 4.438-3.938 6.376-3.397 2.734-4.068 5.577-5.531 9.601-1.419 3.386-3.575 5.76-6.031 8.461-1.343 1.994-2.677 3.993-4 6-0.681 0.784-1.361 1.567-2.062 2.375-1.938 2.625-1.938 2.625-3.376 6.625-1.648 4.219-3.335 5.934-6.562 9-1.033 1.983-2.034 3.983-3 6-0.66 0.763-1.32 1.526-2 2.312-2 2.688-2 2.688-3.5 7.376-1.5 4.312-1.5 4.312-5.5 6.312-1.294 2.232-2.582 4.471-3.77 6.762-1.23 2.238-1.23 2.238-3.418 4.863-1.812 2.375-1.812 2.375-2.75 6.125-0.35 1.072-0.701 2.145-1.062 3.25-2.344 0.988-2.344 0.988-5 1-1.879-1.879-1.879-1.879-3.562-4.562-0.595-0.922-1.189-1.844-1.801-2.793-0.54-0.873-1.081-1.746-1.637-2.645-0.743-1.114-1.485-2.228-2.25-3.375-0.577-0.866-1.155-1.733-1.75-2.625-0.495-0.66-0.495-0.66-3-4-0.619-1.464-1.237-2.929-1.875-4.438-1.75-4.1-3.923-6.44-7.125-9.562-1.383-2.641-2.717-5.309-4-8-1.324-2.006-2.657-4.007-4-6-0.474-1.011-0.949-2.021-1.438-3.062-1.562-2.938-1.562-2.938-4-5.313-3.141-3.218-4.632-6.579-6.562-10.625-1.306-2.018-2.636-4.021-4-6-0.474-0.825-0.949-1.65-1.438-2.5-1.562-2.5-1.562-2.5-4-5.25-2.178-2.763-3.347-4.769-4.687-7.938-1.875-4.312-1.875-4.312-4.875-7.312-1.032-1.984-2.035-3.983-3-6-1-1-1-1-4.438-1.25-1.175 0.082-2.351 0.165-3.562 0.25z"/>
<path transform="translate(195,664)" d="m0 0c5.319 1.33 6.416 3.622 9.398 8.02 2.172 4.04 3.042 8.012 3.801 12.511 0.264 0.815 0.529 1.63 0.801 2.469l4 2c1.344 2.68 1.344 2.68 2.5 5.875 1.61 4.428 3.161 6.859 6.5 10.125 1.125 2.402 1.125 2.402 2 4.938 1.506 4.036 3.26 6.723 6 10.062 1.333 3 2.667 6 4 9 0.681 0.825 1.361 1.65 2.062 2.5 1.938 2.5 1.938 2.5 3.376 6.938 1.562 4.562 1.562 4.562 4.062 7.5 2.458 3.01 3.056 4.486 4 8.124 0.932 3.564 1.316 4.754 4 7.438 2.697 2.697 3.072 3.913 4 7.5 0.919 3.536 1.285 4.785 3.938 7.438 3.295 3.295 4.147 6.537 5.472 10.941 1.236 2.972 2.814 4.385 5.09 6.621 1.125 2.402 1.125 2.402 2 4.938 1.153 3.113 1.983 5.041 4.125 7.624 2.698 3.508 3.106 7.145 3.875 11.438 4.375 0.312 4.375 0.312 9 0 1.25-2.062 1.25-2.062 2-5 0.784-1.072 1.567-2.145 2.375-3.25 2.022-2.889 3.339-5.141 4.687-8.312 1.695-3.882 3.588-6.951 5.938-10.438 0.248-0.588 0.248-0.588 1.5-3.562 1.5-3.438 1.5-3.438 3.438-5.75 2.013-2.624 2.918-4.681 4.062-7.75 1.763-4.708 1.763-4.708 4.062-6.938 2.246-2.318 2.521-3.723 3.313-6.812 1.396-5.246 4.054-8.096 7.625-12.188 1.025-2.992 2.025-5.992 3-9 1.667-2 3.333-4 5-6 0.248-0.743 0.248-0.743 1.5-4.5 1.556-4.667 3.353-6.816 6.5-10.5 1.368-2.984 2.702-5.985 4-9 0.681-1.011 1.361-2.021 2.062-3.062 1.938-2.938 1.938-2.938 3.438-7.063 1.5-3.875 1.5-3.875 3.5-5.813 2-2.062 2-2.062 3.5-6.562s1.5-4.5 3.492-6.398c2.526-2.645 2.908-4.673 3.633-8.227 1.181-5.681 1.181-5.681 3.375-7.875l4 1c1.686 2.998 2.205 5.941 2.938 9.312 1.062 4.688 1.062 4.688 2.542 8.34 1.716 4.908 2.325 9.461 2.895 14.598 0.895 7.171 2.281 12.93 5.437 19.469 1.942 5.366 2.348 10.941 3.024 16.584 0.638 4.961 1.449 9.092 3.664 13.635 3.117 6.438 3.538 13.049 4.334 20.069 0.749 6.12 2.09 10.719 5.041 16.165 2.087 5.245 2.107 10.915 2.598 16.496 0.772 6.342 2.817 11.785 5.574 17.504 1.401 4.156 1.71 8.429 2.203 12.766 1.01 8.087 2.81 14.822 6.543 22.152 1.343 3.238 1.587 5.438 1.207 8.91-2.814 2.814-5.282 2.262-9.09 2.273-0.919-7e-3 -1.838-0.015-2.785-0.023-0.911 8e-3 -1.823 0.015-2.762 0.023-4.525-0.013-7.255-0.219-11.363-2.273-2.064-3.097-2.449-4.649-3-8.25-0.169-1.067-0.338-2.135-0.512-3.234-0.333-2.402-0.626-4.809-0.883-7.219-0.671-6.095-1.395-11.357-4.043-16.922-2.574-5.546-3.34-10.806-4.062-16.813-0.729-6.065-1.526-11.415-4-17.062-2.84-6.482-3.499-12.875-4.332-19.834-0.8-6.208-2.376-11.218-5.098-16.881-1.647-4.286-1.775-8.515-1.929-13.07-0.141-2.715-0.141-2.715-1.141-5.715-3.188-0.625-3.188-0.625-7 0-2.002 3.353-3.475 6.438-5 10-1.162 2.305-2.35 4.597-3.562 6.875-0.559 1.07-1.117 2.14-1.692 3.242-1.746 2.883-1.746 2.883-3.871 4.953-2.217 2.282-2.633 3.855-3.313 6.93-1.274 4.778-1.274 4.778-4 6.875-3.711 3.078-4.175 6.766-5.527 11.293-1.294 3.539-3.294 5.302-6.035 7.832-1.036 2.653-2.037 5.32-3 8-1.328 1.671-2.662 3.337-4 5l-2 4.5c-2 4.5-2 4.5-4 6.938-2.49 3.19-3.578 6.448-4.875 10.257-1.125 2.305-1.125 2.305-5.125 5.305-0.717 2.476-1.429 4.953-2.086 7.445-1.396 3.903-4.186 6.486-6.914 9.555-1.014 2.661-2.014 5.328-3 8-2.519 3.968-5.047 7.364-9 10-3-3-3-3-3.875-7.438-1.125-4.562-1.125-4.562-3.563-6.374-3.729-3.184-3.856-6.799-4.691-11.508-0.287-0.885-0.575-1.769-0.871-2.68l-4-2c-1.484-2.531-1.484-2.531-2.75-5.5-0.428-0.98-0.856-1.959-1.297-2.969-0.953-2.531-0.953-2.531-0.953-4.531-0.99-0.33-1.98-0.66-3-1-1.5-2.582-1.5-2.582-3-5.812-1.793-3.834-3.433-6.765-6-10.188-0.227-0.639-0.227-0.639-1.375-3.875-1.625-4.125-1.625-4.125-4.125-7.063-2.5-3.062-2.5-3.062-3.938-7.5-1.562-4.562-1.562-4.562-4.562-8.062-3.443-4.017-4.383-7.509-6-12.5-1.642-2.021-3.309-4.02-5-6-1.368-2.984-2.702-5.985-4-9-0.681-0.99-1.361-1.98-2.062-3-1.938-3-1.938-3-3.438-7.688-1.5-4.312-1.5-4.312-5.5-7.312-4.187-0.25-4.187-0.25-8 0-2.311 2.311-1.626 8.041-1.875 11.312-0.848 10.081-2.297 19.215-6.125 28.626-2.412 6.257-3.079 12.733-3.785 19.363-0.631 5.343-1.885 9.374-4.252 14.274-2.286 5.756-2.602 12.171-3.385 18.275-0.922 6.546-2.31 11.399-5.578 17.15-1.267 3.801-1.369 7.423-1.621 11.406-0.379 2.594-0.379 2.594-2.379 5.594-3.534 0.33-6.842 0.463-10.375 0.438-0.959 0.019-1.918 0.039-2.906 0.06-7.071-5e-3 -7.071-5e-3 -10.383-2.525-0.22-0.326-0.22-0.326-1.336-1.973 0.32-0.499 0.32-0.499 1.941-3.023 2.164-4.18 2.656-6.951 2.997-11.602 0.538-5.239 1.297-9.505 3.437-14.313 3.178-7.409 4.079-15.102 5.105-23.042 0.674-4.901 1.396-9.181 3.555-13.657 2.169-4.816 2.822-9.241 3.34-14.425 0.98-8.227 3.017-15.072 6.211-22.75 1.975-5.848 2.694-11.706 3.301-17.833 0.646-5.928 2.394-10.1 5.113-15.355 0.758-3.711 0.758-3.711 1.125-7.375 0.15-1.298 0.299-2.596 0.453-3.934 0.139-1.218 0.279-2.436 0.422-3.691 0.964-6.647 2.82-12.051 6-18 1.395-5.579 1.353-11.186 1.518-16.91 0.267-6.875 0.267-6.875 2.482-9.09z"/>
<path transform="translate(1492,667)" d="m0 0c3.68 0.102 4.93 0.934 7.625 3.5 2.821 4.158 3.979 7.683 5.375 12.5l1 3c0.99 0.33 1.98 0.66 3 1 0.993 2.449 1.978 4.902 2.898 7.379 1.513 3.598 3.812 6.473 6.102 9.621 0.722 1.526 1.409 3.069 2.062 4.625 1.938 4.375 1.938 4.375 4 6.875 1.938 2.5 1.938 2.5 3.376 6.938 1.562 4.562 1.562 4.562 4.062 7.562s2.5 3 4 7.562c1.5 4.438 1.5 4.438 4 6.813 2.77 2.909 3.11 4.361 4 8.187 1.166 4.983 2.458 6.306 6.5 9.438 0.902 2.485 1.53 4.992 2.191 7.551 1.154 3.493 3.41 5.699 5.809 8.449 0.734 1.499 1.419 3.022 2.062 4.562 1.938 4.438 1.938 4.438 3.938 6.876 2.488 3.187 3.587 6.459 4.996 10.222 1.004 2.34 1.004 2.34 3.066 4.778 2.629 3.475 3.32 7.035 4.325 11.234 0.613 2.328 0.613 2.328 1.613 3.328 4.911 0.242 7.539 0.231 12-2 0.906-2.391 0.906-2.391 1.5-5.25 1.514-6.288 3.916-10.166 8.5-14.75 0.773-2.27 0.773-2.27 1.375-4.812 1.313-4.775 3.362-7.436 6.625-11.188 1.014-2.661 2.014-5.328 3-8 1.659-2.339 3.326-4.672 5-7 0.723-1.504 1.41-3.026 2.062-4.562 1.695-3.882 3.588-6.951 5.938-10.438 0.247-0.588 0.247-0.588 1.5-3.562 1.5-3.438 1.5-3.438 3.438-5.75 2.013-2.624 2.918-4.681 4.062-7.75 1.763-4.708 1.763-4.708 4.062-6.938 2.258-2.331 2.524-3.766 3.313-6.875 1.363-5.157 3.859-7.359 7.625-11.125 0.676-2.998 1.342-5.998 2-9 1.976-2.354 3.976-4.687 6-7 1.025-2.992 2.025-5.992 3-9 0.846-0.99 1.691-1.98 2.562-3 3.099-3.814 3.526-7.232 4.438-12 2-2 2-2 4.438-2.125 2.562 1.125 2.562 1.125 4.187 4.5 0.454 1.526 0.908 3.053 1.375 4.625 0.128 0.398 0.128 0.398 0.777 2.414 1.67 5.499 2.515 10.806 3.098 16.524 0.566 5.081 1.357 9.141 3.563 13.75 2.6 5.541 3.343 10.8 4.062 16.812 0.708 5.905 1.385 11.084 4 16.5 2.995 6.213 3.521 12.461 4.336 19.228 0.811 6.305 2.426 11.501 4.976 17.338 1.808 5.228 2.329 10.613 3.024 16.073 0.674 4.952 1.665 9.224 3.664 13.799 2.823 6.496 3.616 12.974 4.336 19.966 0.709 6.244 2.425 10.934 5.164 16.596 1.808 5.784 2.459 10.938 2 17-3.852 2.568-6.271 2.333-10.875 2.375-1.4 0.028-2.8 0.057-4.242 0.086-4.38-0.52-5.894-1.283-8.883-4.461-5.021-7.915-5.666-16.574-6.473-25.703-0.774-6.306-2.795-11.755-5.57-17.43-1.457-4.366-1.763-8.877-2.269-13.429-0.903-7.412-2.204-13.437-5.497-20.18-1.958-5.356-2.447-10.958-3.027-16.612-0.709-6.28-2.479-10.926-5.164-16.646-0.793-3.215-0.793-3.215-1.188-5.938-0.74-4.917-0.74-4.917-1.812-7.062-3.438-0.438-3.438-0.438-7 0-1.865 2.843-2.135 5.663-2.812 9-1.337 4.502-2.938 5.75-6.188 9-1.013 2.996-2.012 5.996-3 9-1.642 2.021-3.309 4.02-5 6-1.368 2.984-2.702 5.985-4 9-1.324 2.006-2.657 4.007-4 6-0.247 0.598-0.247 0.598-1.5 3.625-1.5 3.375-1.5 3.375-3.5 5.25-2 2.125-2 2.125-3.375 6.437-1.771 5.108-4.144 7.627-7.625 11.688-1.025 2.992-2.025 5.992-3 9-1.646 2.017-3.313 4.017-5 6-1.014 2.661-2.014 5.328-3 8-1.639 2.353-3.306 4.686-5 7-1.35 2.658-2.684 5.325-4 8-0.66 0.969-1.32 1.939-2 2.938-1.702 2.606-2.822 4.898-4 7.75-2 4.312-2 4.312-6 7.312-2.562 0.25-2.562 0.25-5-1-0.761-2.184-1.507-4.376-2.121-6.605-0.879-2.395-0.879-2.395-3.879-5.833-3.278-3.892-4.008-6.56-5.223-11.355-0.777-2.207-0.777-2.207-3.277-4.207-2.908-2.327-3.048-3.303-3.938-6.812-1.357-5.276-3.929-8.11-7.562-12.188-1.137-2.219-1.137-2.219-2.125-4.562-1.659-3.927-3.494-6.941-5.875-10.438-1.333-2.667-2.667-5.333-4-8-0.495-0.66-0.495-0.66-3-4-0.639-1.485-1.279-2.97-1.938-4.5-2.062-4.5-2.062-4.5-4.124-6.438-2.216-2.357-2.518-3.779-3.313-6.874-1.396-5.246-4.054-8.096-7.625-12.188-1.036-2.988-2.039-5.987-3-9-0.652-0.62-1.305-1.24-1.977-1.879-2.549-2.673-2.994-4.789-3.773-8.371-0.242-1.078-0.485-2.155-0.734-3.266-0.171-0.819-0.341-1.639-0.516-2.484h-9c-0.266 0.941-0.531 1.882-0.805 2.852-0.353 1.245-0.706 2.49-1.07 3.773-0.174 0.615-0.174 0.615-1.055 3.727-0.656 2.236-1.363 4.46-2.156 6.652-1.057 3.463-1.355 6.702-1.664 10.308-0.695 6.136-2.047 11.361-4.25 17.126-2.21 5.812-3.456 10.931-4 17.124-0.529 6.007-1.704 10.801-4 16.376-2.993 7.299-3.785 13.967-4.445 21.785-0.813 6.264-3.045 11.534-5.555 17.277-0.474 1.567-0.949 3.135-1.438 4.75-0.515 1.072-1.031 2.145-1.562 3.25-4.457 1.218-8.672 1.014-13.25 0.688-1.222-0.079-2.444-0.158-3.703-0.239-3.047-0.449-3.047-0.449-5.047-2.449 0.189-3.735 0.507-7.303 1-11 0.125-0.954 0.25-1.908 0.379-2.891 0.687-4.432 1.38-7.67 3.57-11.664 2.578-5.587 3.273-10.821 4.051-16.883 1.555-12.072 1.555-12.072 4.035-17.203 2.252-4.995 2.85-9.282 3.403-14.671 0.875-7.267 2.264-13.216 5.429-19.868 2.156-5.366 2.483-11.112 3.133-16.82 0.269-1.962 0.559-3.92 0.875-5.875 0.121-0.802 0.242-1.604 0.367-2.43 0.758-2.695 0.758-2.695 2.738-6.343 2.383-5.134 2.92-9.532 3.458-15.102 0.846-7.395 2.109-13.384 5.359-20.129 3.387-8.786 3.945-18.937 4.828-28.246 0.375-3.875 0.375-3.875 1.375-4.875z"/>
<path transform="translate(630.06 671.63)" d="m0 0c1.103 0.012 2.206 0.025 3.342 0.037 0.574 1e-3 0.574 1e-3 3.476 6e-3 2.44 7e-3 4.881 0.021 7.321 0.041 3.665 0.031 7.329 0.041 10.994 0.047 45.633 0.148 45.633 0.148 54.307 5.672 3.161 1.894 5.495 2.872 9.125 4 4.925 1.759 7.627 3.958 11.375 7.563 0.443 0.391 0.443 0.391 2.687 2.375 2.867 3.254 4.454 6.721 6.313 10.625 0.99 1.32 1.98 2.64 3 4 1.37 5.479 1.184 10.748 1.187 16.375 0.013 1.124 0.025 2.248 0.038 3.406 0.015 8.489-0.805 13.559-6.225 20.219-0.681 1.402-1.361 2.805-2.063 4.25-3.245 6.065-8.504 9.717-13.937 13.75l-4 3c-1.073 0.288-2.145 0.577-3.25 0.875-3.75 1.125-3.75 1.125-7.375 3.687-4.615 3.098-9.178 3.12-14.617 3.297-2.758 0.141-2.758 0.141-4.758 1.141-0.625 3.625-0.625 3.625 0 8 3.562 3.437 3.562 3.437 5.769 5.148 4.68 3.884 8.049 9.043 11.356 14.102 2.029 2.976 4.268 5.27 6.875 7.75 3.582 3.492 6.925 7.046 10 11v2c0.742 0.247 1.485 0.495 2.25 0.75 3.64 1.654 4.619 3.919 6.75 7.25 1.646 1.358 3.313 2.692 5 4 1.358 1.646 2.692 3.312 4 5l2 2c2 2 2 2 3.797 4.375 2.95 3.515 6.444 5.901 10.156 8.562 2.047 2.063 2.047 2.063 2.047 7.063-5.563 1.286-10.829 0.983-16.5 0.75-0.516-0.014-0.516-0.014-3.129-0.082-9.554-0.383-9.554-0.383-13.371-3.668-1.957-2.129-1.957-2.129-3.813-4.563-0.685-0.886-1.371-1.771-2.078-2.684-0.348-0.454-0.348-0.454-2.109-2.753-6.312-8.01-12.681-15.874-20-23-11.309-11.178-21.03-23.399-30.664-36.012-1.881-2.407-3.803-4.712-5.836-6.988-2.24-2.688-3.495-4.683-4.5-8-2.343 0.255-4.678 0.592-7 1-1.552 3.103-1.094 6.055-1.066 9.507 0.01 1.588 0.02 3.177 0.03 4.814 3e-3 0.426 3e-3 0.426 0.022 2.583 0.022 2.665 0.036 5.329 0.048 7.994 0.033 7.577 0.075 15.153 0.137 22.73 0.038 4.632 0.061 9.263 0.075 13.895 8e-3 1.767 0.021 3.533 0.041 5.299 0.026 2.47 0.032 4.941 0.038 7.411 9e-3 1.407 0.019 2.813 0.029 4.262-0.354 3.505-0.354 3.505-3.354 7.505-2.313 0.485-2.313 0.485-5 0.46-0.969-3e-3 -1.939-7e-3 -2.938-0.011-1.01-0.025-2.021-0.049-3.062-0.074-1.011-2e-3 -2.021-3e-3 -3.063-4e-3 -7.515-0.09-7.515-0.09-10.937-2.371-0.378-3.143-0.378-3.143-0.381-7.282-8e-3 -1.564-0.017-3.127-0.026-4.738 6e-3 -1.745 0.012-3.489 0.019-5.234-4e-3 -1.828-0.01-3.656-0.016-5.484-0.014-4.975-9e-3 -9.95 1e-3 -14.925 8e-3 -5.199 1e-3 -10.397-4e-3 -15.595-6e-3 -8.732 2e-3 -17.464 0.016-26.196 0.016-10.105 0.011-20.209-6e-3 -30.313-0.013-8.664-0.015-17.328-7e-3 -25.992 4e-3 -5.18 5e-3 -10.359-5e-3 -15.539-9e-3 -4.87-3e-3 -9.739 0.015-14.609 4e-3 -1.79 3e-3 -3.581-4e-3 -5.371-8e-3 -2.438 4e-3 -4.876 0.017-7.314 1e-3 -1.366 2e-3 -2.732 3e-3 -4.14 0.821-7.108 5.355-6.616 11.438-6.634zm15.94 18.366c-0.381 2.922-0.381 2.922-0.388 6.535-0.01 1.351-0.019 2.703-0.029 4.095 6e-3 1.463 0.012 2.925 0.019 4.432-3e-3 1.498-6e-3 2.996-9e-3 4.539-2e-3 3.171 3e-3 6.342 0.016 9.513 0.016 4.866 0 9.731-0.019 14.596 2e-3 3.076 6e-3 6.152 0.012 9.227-7e-3 1.463-0.013 2.925-0.019 4.432 0.01 1.351 0.019 2.703 0.029 4.095 2e-3 1.193 5e-3 2.385 7e-3 3.613 0.381 2.923 0.381 2.923 3.381 5.923 3.243 0.372 3.243 0.372 7.23 0.363 0.722-1e-3 0.722-1e-3 4.373-2e-3 0.757-8e-3 0.757-8e-3 4.584-0.049 1.494 3e-3 2.987 6e-3 4.526 0.01 11.563-0.057 20.146-1.855 30.287-7.322 0.866-0.434 1.732-0.867 2.625-1.313 8.538-6.066 15.914-14.685 18.09-25.113 0.618-9.743-2.97-15.965-8.715-23.574-0.562-0.809-1.124-1.617-1.703-2.45-3.829-5.027-7.668-6.836-13.649-8.679-3.5-1.152-6.47-3.028-9.648-4.871-6.962-1.884-14.477-1.226-21.625-1.25-0.763-0.011-0.763-0.011-4.625-0.063-0.728-3e-3 -0.728-3e-3 -4.414-0.016-1.335-9e-3 -2.67-0.018-4.046-0.028-3.29 0.357-3.29 0.357-6.29 3.357z"/>
<path transform="translate(1180,671)" d="m0 0c3.833-0.297 7.361-0.346 11.184-0.207 0.562 0.013 0.562 0.013 3.408 0.077 3.616 0.087 7.23 0.202 10.846 0.318 2.37 0.059 4.74 0.117 7.111 0.173 6.819 0.17 13.635 0.394 20.451 0.639 0.497 0.017 0.497 0.017 3.012 0.104 2.716 0.097 5.432 0.206 8.148 0.322 0.752 0.031 0.752 0.031 4.555 0.189 6.34 0.57 12.466 1.438 17.91 4.885 3.702 2.213 7.214 3.335 11.375 4.5l3 3v2c0.732 0.286 1.464 0.572 2.219 0.867 6.496 2.646 10.605 8.59 13.472 14.789 4.267 12.35 5.573 24.803 0.313 37.008-1.004 2.336-1.004 2.336-1.942 6.274-1.302 3.755-2.909 4.735-6.062 7.062-0.66 1.011-1.32 2.021-2 3.062-2.143 3.149-3.737 4.108-7 5.938-0.743 0.846-1.485 1.691-2.25 2.562-3.652 3.238-7.023 3.416-11.75 4.438-0.516 0.423-0.516 0.423-3.125 2.562-5.195 3.268-9.605 3.13-15.645 3.297-3.23 0.141-3.23 0.141-5.23 1.141-0.409 2.656-0.745 5.325-1 8 0.743 0.227 1.485 0.454 2.25 0.688 3.309 1.579 4.545 3.417 6.75 6.312 0.846 0.66 1.691 1.32 2.562 2 2.608 2.139 3.719 4.135 5.438 7 1.633 1.375 3.302 2.706 5 4 2.927 2.707 5.202 5.288 7.5 8.562 2.5 3.438 2.5 3.438 4.891 5.336 2.714 2.186 4.693 4.441 6.859 7.164 0.779 0.971 1.557 1.942 2.359 2.942 0.395 0.494 0.395 0.494 2.391 2.996 2.24 2.746 4.488 5.485 6.738 8.223 1.556 1.91 3.094 3.836 4.617 5.773 3.917 4.94 7.255 8.635 12.645 12.004 1 4 1 4 0 6-4.436 0.479-8.916 0.324-13.375 0.312-0.629 9e-3 -0.629 9e-3 -3.813 0.049-0.601 1e-3 -0.601 1e-3 -3.648 2e-3 -1.109 3e-3 -2.218 6e-3 -3.361 9e-3 -2.803-0.372-2.803-0.372-5.803-3.372-0.804-0.784-1.609-1.567-2.438-2.375-2.378-2.436-4.438-4.97-6.562-7.625-0.382-0.371-0.382-0.371-2.312-2.25-2.872-2.939-5.312-6.037-7.805-9.297-2.566-3.343-5.205-6.624-7.844-9.91-1.364-1.702-2.724-3.407-4.078-5.117-6.329-7.978-12.904-15.509-20.211-22.614-5.804-5.936-11.179-11.87-15.75-18.812-4.611-3.459-6.407-3.458-12-3-1.547 3.094-1.038 5.99-0.958 9.431 0.033 1.572 0.066 3.144 0.1 4.763 0.02 0.844 0.039 1.687 0.06 2.556 0.06 2.635 0.112 5.27 0.16 7.905 0.138 7.492 0.282 14.984 0.458 22.476 0.107 4.58 0.194 9.16 0.268 13.74 0.033 1.748 0.072 3.495 0.119 5.242 0.065 2.442 0.103 4.884 0.139 7.326 0.03 1.391 0.06 2.782 0.09 4.215-0.144 1.104-0.288 2.208-0.436 3.346-4.764 3.573-7.954 3.418-13.625 3.312-0.436 2e-3 -0.436 2e-3 -2.641 0.01-6.467-0.055-6.467-0.055-8.734-2.322-0.254-3.14-0.254-3.14-0.261-7.275-7e-3 -1.562-0.014-3.124-0.021-4.733 2e-3 -1.743 5e-3 -3.487 7e-3 -5.23-4e-3 -1.826-9e-3 -3.652-0.015-5.479-0.014-4.971-0.014-9.942-0.012-14.913 1e-3 -4.145-3e-3 -8.29-8e-3 -12.436-0.011-9.777-0.012-19.555-6e-3 -29.333 6e-3 -10.096-6e-3 -20.192-0.027-30.289-0.018-8.659-0.024-17.318-0.021-25.977 2e-3 -5.176 0-10.351-0.014-15.527-0.013-4.867-0.011-9.734 2e-3 -14.601 2e-3 -1.789 0-3.577-9e-3 -5.365-0.01-2.438 0-4.876 0.011-7.313 0-1.366-1e-3 -2.731-1e-3 -4.138 0.375-3.391 0.375-3.391 3.375-7.391zm22 18c-1.408 2.815-1.151 5.181-1.177 8.33-0.013 1.331-0.026 2.663-0.039 4.035-7e-3 1.446-0.015 2.891-0.022 4.381-8e-3 1.477-0.016 2.954-0.025 4.476-0.014 3.13-0.024 6.26-0.032 9.39-0.017 4.802-0.061 9.603-0.105 14.406-0.011 3.034-0.019 6.069-0.026 9.103-0.017 1.444-0.035 2.888-0.053 4.375 3e-3 1.335 6e-3 2.67 9e-3 4.045-6e-3 1.177-0.012 2.355-0.018 3.568 0.488 2.891 0.488 2.891 4.488 5.891 3.54 0.388 3.54 0.388 7.766 0.398 0.765 2e-3 0.765 2e-3 4.636 0.012 1.6-0.011 3.2-0.023 4.848-0.035 0.792 6e-3 0.792 6e-3 4.801 0.035 1.535-4e-3 3.07-8e-3 4.652-0.012 1.399-3e-3 2.798-6e-3 4.239-0.01 5.363-0.513 9.906-2.064 14.496-4.888 2.562-1.5 2.562-1.5 7.062-2.812 5.001-1.876 6.388-3.483 9.5-7.688 1.052-0.701 2.104-1.403 3.188-2.125 5.113-5.228 4.667-12.302 5.062-19.313-0.875-15.966-0.875-15.966-4.168-19.789-0.344-0.292-0.344-0.292-2.082-1.773l-8-8c-2.471-0.748-4.944-1.491-7.434-2.176-3.483-1.118-6.423-2.975-9.566-4.824-6.935-1.89-14.441-1.184-21.562-1.188-1.518-0.012-3.036-0.024-4.6-0.037-0.727-1e-3 -0.727-1e-3 -4.404-5e-3 -1.33-5e-3 -2.66-9e-3 -4.03-0.013-3.404 0.243-3.404 0.243-7.404 2.243z"/>
<path transform="translate(927.29 669.49)" d="m0 0c4.384 1.783 8.388 2.265 13.082 2.82 7.73 1.04 12.491 2.883 18.625 7.688 1.258 0.33 2.516 0.66 3.813 1 3.187 1 3.187 1 5.562 3.625 3.262 6.775 2.727 14.016 2.625 21.375-6.535-1.054-12.364-2.546-17.375-7-4.089-3.384-7.048-4.118-12.102-5.281-3.173-0.904-5.135-2.481-7.523-4.719-18.099-6.033-41.807-3.786-60.562-2.25-0.851 0.061-1.701 0.123-2.577 0.186-5.519 0.535-9.232 2.071-13.861 5.064-3.516 1.632-6.722 2.935-10.5 3.812-4.458 1.513-7.035 4.044-10.5 7.188-0.751 0.43-1.503 0.861-2.277 1.304-8.987 5.597-16.664 14.112-22.723 22.696h-2c-0.247 0.866-0.495 1.732-0.75 2.625-1.327 3.583-3.091 6.235-5.25 9.375-7.788 13.581-6.357 35.146-3 50 1.977 3.289 1.977 3.289 4 6 1.666 3.076 2.948 5.81 3.875 9.187 1.414 3.536 2.884 3.961 6.125 5.813 1.353 1.987 2.686 3.987 4 6 1.629 1.378 3.298 2.713 5 4 2.549 2.485 5.015 5.016 7.438 7.625 3.347 3.102 6.779 4.751 11.062 6.25 2.5 1.125 2.5 1.125 5 3.562 4.361 3.193 8.202 3.767 13.434 4.809 3.639 0.895 6.112 2.482 9.066 4.754 14.08 3.52 30.024 2.261 44.438 1.687 1.463-0.058 2.926-0.116 4.433-0.175 5.233-0.649 9.213-2.418 13.754-5.012 3.35-1.489 6.293-2.152 9.875-2.875 5.468-1.178 8.402-2.722 12.5-6.625 1.176-0.495 2.351-0.99 3.563-1.5 3.437-1.5 3.437-1.5 6.062-4.188 2.375-2.312 2.375-2.312 7.375-2.312 2.032 2.032 1.356 5.891 1.438 8.562-0.035 9.731-2.73 12.73-9.438 19.438-3.138 0.85-6.28 1.391-9.48 1.961-3.52 1.039-3.52 1.039-7.352 3.566-4.84 2.871-8.081 3.287-13.668 3.66-1.893 0.131-3.787 0.262-5.68 0.395-0.97 0.063-1.94 0.125-2.94 0.19-2.714 0.215-5.38 0.544-8.075 0.927-13.988 1.835-27.507 0.902-41.492-0.387-0.967-0.086-1.933-0.172-2.929-0.261-2.78-0.254-5.556-0.529-8.333-0.813-1.623-0.165-3.245-0.329-4.917-0.499-3.885-0.695-5.986-1.467-9.134-3.739-3.554-2.02-6.256-3.048-10.312-3.813-4.847-1.228-7.581-2.876-11.555-5.742-2.133-1.445-2.133-1.445-5.883-3.008-3.658-1.618-5.512-3.559-8.25-6.437-0.446-0.285-0.446-0.285-2.703-1.727-3.906-2.693-7.165-5.848-10.484-9.211-0.308-0.304-0.308-0.304-1.866-1.841-3.189-3.203-5.756-6.275-7.947-10.221-0.763-0.722-1.526-1.444-2.312-2.188-6.689-6.999-10.313-15.363-12.188-24.75-0.686-3.428-1.35-6.659-2.57-9.937-3.049-10.249-1.545-22.267 2.07-32.133 1.046-3.13 1.483-6.033 1.875-9.305 0.898-6.092 3.168-9.018 7.125-13.687 0.743-1.32 1.485-2.64 2.25-4 0.578-0.99 1.155-1.98 1.75-3h2c0.683-1.66 1.346-3.329 2-5 5.24-9.27 14.524-14.946 23-21l4-3c0.99-0.475 1.98-0.949 3-1.438 3-1.562 3-1.562 4.855-3.57 3.085-2.866 6.161-3.165 10.196-3.988 2.949-1.004 2.949-1.004 6.23-3.504 4.433-2.98 7.629-3.445 12.907-4.063 6.613-0.859 12.674-2.073 18.878-4.57 14.302-4.228 38.657-4.524 52.227 1.625z"/>
<path transform="translate(1029.9 670.69)" d="m0 0c1.095-8e-3 2.19-0.017 3.318-0.025 3.617-0.024 7.234-0.033 10.852-0.04 2.514-9e-3 5.029-0.018 7.543-0.027 5.269-0.017 10.538-0.024 15.807-0.027 6.756-6e-3 13.511-0.043 20.267-0.089 5.192-0.03 10.383-0.037 15.575-0.038 2.492-4e-3 4.983-0.017 7.474-0.037 3.481-0.027 6.96-0.023 10.441-0.01 1.031-0.015 2.062-0.03 3.124-0.045 4.533 0.047 7.175 0.219 10.846 2.994 2.221 3.112 3.052 4.812 2.892 8.65-1.947 2.65-1.947 2.65-5 5-4.081 0.619-4.081 0.619-8.982 0.612-0.894 6e-3 -1.789 0.012-2.711 0.017-2.951 0.014-5.9-7e-3 -8.85-0.027-2.051 5e-3 -4.102 0.014-6.152 0.024-5.394 0.023-10.787 0.019-16.18 6e-3 -8.643-0.018-17.286-8e-3 -25.93 0.026-3.023 6e-3 -6.046-7e-3 -9.07-0.022-1.844 3e-3 -3.688 7e-3 -5.532 0.011-1.615-4e-3 -3.23-8e-3 -4.894-0.012-0.61 0.061-0.61 0.061-3.699 0.365-2.182 3.273-2.256 4.24-2.275 8.035-0.01 1.025-0.019 2.049-0.029 3.105 1e-3 0.553 1e-3 0.553 3e-3 3.353-4e-3 1.138-9e-3 2.276-0.013 3.448-6e-3 2.41-6e-3 4.819-2e-3 7.228 3e-3 3.685-0.02 7.369-0.046 11.054-2e-3 2.34-3e-3 4.68-2e-3 7.02-9e-3 1.102-0.018 2.204-0.028 3.34 4e-3 0.515 4e-3 0.515 0.019 3.124 0 0.904-1e-3 1.807-2e-3 2.738 0.486 3.313 1.135 5.037 3.375 7.555 3.426 0.608 3.426 0.608 7.757 0.584 1.618 3e-3 3.237 6e-3 4.905 9e-3l5.322-0.069c1.817-7e-3 3.635-0.012 5.452-0.014 4.792-0.014 9.582-0.058 14.374-0.108 3.898-0.035 7.797-0.048 11.696-0.06 4.659-0.015 9.319-0.04 13.978-0.068 0.885-5e-3 1.77-0.01 2.681-0.015 2.52-0.016 5.04-0.041 7.56-0.066 1.432-0.013 2.865-0.025 4.34-0.039 3.935-0.154 3.935-0.154 7.764-0.791 3.171-0.363 3.171-0.363 6.171 1.637 1.636 4.76 1.254 10.05 1 15-3 3-3 3-6.713 3.354-1.562-9e-3 -3.125-0.019-4.734-0.029-0.862-1e-3 -1.725-2e-3 -2.613-3e-3 -2.854-8e-3 -5.707-0.036-8.561-0.064-1.982-8e-3 -3.963-0.015-5.945-0.02-5.222-0.017-10.443-0.051-15.664-0.09-8.355-0.059-16.709-0.093-25.063-0.126-2.921-0.014-5.841-0.035-8.762-0.058-1.789-0.01-3.579-0.02-5.369-0.03-0.781-5e-3 -0.781-5e-3 -4.737-0.034-3.839 0.1-3.839 0.1-7.839 1.1-0.047 9.432-0.082 18.864-0.104 28.295-0.01 4.38-0.025 8.76-0.047 13.139-0.026 5.037-0.036 10.073-0.045 15.109-0.01 1.571-0.02 3.142-0.031 4.761v4.428c-3e-3 0.642-3e-3 0.642-0.014 3.896 0.248 3.469 0.681 6.812 3.241 9.372 2.805 0.079 5.613 0.086 8.419 0.066 0.883-4e-3 1.766-9e-3 2.676-0.014 1.924-0.01 3.848-0.023 5.772-0.038 3.042-0.021 6.084-0.036 9.126-0.047 8.652-0.034 17.304-0.076 25.956-0.138 5.285-0.038 10.571-0.061 15.856-0.074 2.019-8e-3 4.037-0.022 6.055-0.041 2.821-0.027 5.641-0.035 8.461-0.038 1.607-0.01 3.214-0.02 4.87-0.03 3.809 0.354 3.809 0.354 6.809 3.354 1.455 2.766 2.024 4.492 1.875 7.625-0.875 2.375-0.875 2.375-4.875 5.375-3.731 0.293-7.293 0.41-11.024 0.389-0.562 2e-3 -0.562 2e-3 -3.405 0.016-3.721 0.013-7.441 4e-3 -11.161-6e-3 -2.583 2e-3 -5.166 5e-3 -7.749 9e-3 -5.417 4e-3 -10.833-2e-3 -16.249-0.016-6.945-0.018-13.89-8e-3 -20.835 0.01-5.335 0.011-10.67 8e-3 -16.006 0-2.56-2e-3 -5.121 0-7.682 7e-3 -3.579 8e-3 -7.158-4e-3 -10.737-0.02-0.53 3e-3 -0.53 3e-3 -3.213 0.018-3.951-0.034-7.436-0.239-11.199-1.493-0.574-0.632-1.149-1.263-1.74-1.914 0.283-2.34 0.625-4.672 1-7 0.087-2.417 0.126-4.836 0.127-7.255 2e-3 -1.431 5e-3 -2.863 8e-3 -4.337-2e-3 -1.555-4e-3 -3.11-6e-3 -4.713 2e-3 -1.649 4e-3 -3.299 5e-3 -4.998 5e-3 -4.512 3e-3 -9.024 0-13.537-3e-3 -4.727 0-9.454 1e-3 -14.181 2e-3 -7.936 0-15.873-5e-3 -23.809-5e-3 -9.171-4e-3 -18.342 2e-3 -27.513 4e-3 -7.88 5e-3 -15.761 2e-3 -23.641-1e-3 -4.704-1e-3 -9.408 2e-3 -14.112 3e-3 -5.243-1e-3 -10.485-7e-3 -15.728 1e-3 -0.779 1e-3 -0.779 6e-3 -4.718-3e-3 -1.429-5e-3 -2.857-8e-3 -4.329-1e-3 -1.239-1e-3 -2.478-1e-3 -3.755-0.126-3.374-0.126-3.374-0.759-6.569-0.367-2.805-0.367-2.805 1.633-6.805 5.034-2.673 10.297-2.302 15.861-2.306z"/>
<path transform="translate(467.89 670.66)" d="m0 0c1.097 0.015 2.194 0.031 3.325 0.047 0.578 2e-3 0.578 2e-3 3.504 0.013 3.833 0.019 7.665 0.061 11.498 0.103 2.656 0.021 5.313 0.04 7.97 0.059 5.571 0.043 11.143 0.096 16.715 0.157 7.153 0.078 14.305 0.129 21.458 0.171 5.487 0.036 10.974 0.085 16.461 0.139 2.638 0.025 5.275 0.045 7.913 0.06 3.683 0.024 7.365 0.066 11.047 0.114 1.098 3e-3 2.195 7e-3 3.325 0.01 7.549 0.127 7.549 0.127 10.892 3.47 1.147 4.852 1.282 6.436-1 11-3.371 1.686-7.191 1.163-10.9 1.174-0.922 6e-3 -1.844 0.013-2.794 0.02-2.006 0.014-4.013 0.026-6.019 0.036-3.173 0.016-6.345 0.04-9.518 0.065-9.021 0.071-18.042 0.131-27.064 0.182-5.514 0.032-11.027 0.073-16.541 0.12-2.105 0.016-4.209 0.028-6.314 0.037-2.94 0.012-5.88 0.036-8.82 0.063-0.875 1e-3 -1.749 1e-3 -2.65 2e-3 -6.038 0.073-6.038 0.073-9.38 2.301-1.511 4.532-1.163 9.138-1.168 13.871-3e-3 1.074-6e-3 2.148-0.01 3.254-5e-3 2.273-7e-3 4.545-7e-3 6.817-2e-3 3.478-0.02 6.957-0.039 10.435-3e-3 2.206-5e-3 4.413-6e-3 6.619-7e-3 1.042-0.015 2.084-0.022 3.157 0.015 4.674 0.131 7.604 2.252 11.847 4.068 2.33 7.896 2.248 12.509 2.243 1.516 3e-3 3.031 6e-3 4.592 9e-3 1.634-7e-3 3.267-0.014 4.95-0.021 1.7-2e-3 3.4-2e-3 5.1-2e-3 3.562-1e-3 7.123-0.01 10.685-0.023 4.549-0.017 9.098-0.021 13.648-0.02 3.511 0 7.022-6e-3 10.534-0.013 2.488-5e-3 4.976-7e-3 7.464-8e-3 1.525-7e-3 3.05-0.013 4.621-0.02 1.335-3e-3 2.67-7e-3 4.046-0.011 3.851-0.134 3.851-0.134 8.196-0.721 3.655-0.413 3.655-0.413 6.03 0.837 2.484 4.203 3.966 8.843 3.625 13.75-2.773 3.692-4.251 4.886-8.87 5.588-1.52-0.017-3.039-0.034-4.604-0.052-0.842-2e-3 -1.683-5e-3 -2.55-8e-3 -2.774-0.013-5.546-0.062-8.32-0.11-1.931-0.014-3.862-0.026-5.794-0.036-5.081-0.03-10.162-0.089-15.244-0.155-8.132-0.102-16.265-0.166-24.398-0.222-2.839-0.024-5.678-0.063-8.517-0.103-1.743-0.017-3.486-0.034-5.228-0.05-0.76-9e-3 -0.76-9e-3 -4.604-0.059-3.531 0.189-5.795 0.519-8.871 2.207-1.414 2.828-1.143 5.212-1.161 8.374-0.01 1.342-0.019 2.684-0.029 4.066-4e-3 1.459-9e-3 2.917-0.013 4.419-3e-3 0.747-3e-3 0.747-0.017 4.523-0.01 3.164-0.016 6.328-0.02 9.492-0.01 4.842-0.041 9.683-0.072 14.525-7e-3 3.07-0.012 6.14-0.016 9.21-0.012 1.451-0.025 2.901-0.037 4.395 3e-3 1.354 6e-3 2.709 9e-3 4.105-4e-3 1.188-8e-3 2.377-0.011 3.602 0.422 3.781 1.262 6.121 3.367 9.289 4.252 2.712 8.853 2.215 13.766 2.164 0.872-6e-3 1.744-0.013 2.643-0.019 1.888-0.014 3.777-0.033 5.665-0.056 2.988-0.035 5.976-0.055 8.965-0.072 8.494-0.048 16.988-0.12 25.482-0.209 5.199-0.053 10.398-0.087 15.598-0.11 1.981-0.012 3.962-0.032 5.943-0.06 2.768-0.038 5.534-0.052 8.302-0.06 1.575-0.015 3.149-0.03 4.772-0.045 3.864 0.467 3.864 0.467 6.349 2.275 2.114 3.059 2.384 5.507 2.515 9.192-2 4-2 4-4 5-3.743 0.105-7.467 0.147-11.211 0.145-1.167 4e-3 -2.335 7e-3 -3.538 0.011-3.875 9e-3 -7.75 0.011-11.626 0.012-2.683 3e-3 -5.365 7e-3 -8.048 0.01-5.629 6e-3 -11.258 8e-3 -16.887 7e-3 -7.231 0-14.461 0.014-21.691 0.031-5.542 0.011-11.083 0.013-16.625 0.013-2.667 1e-3 -5.333 5e-3 -8 0.013-3.721 0.01-7.442 7e-3 -11.163 1e-3 -0.556 3e-3 -0.556 3e-3 -3.369 0.017-7.614-0.032-7.614-0.032-9.842-2.26-0.254-3.158-0.254-3.158-0.261-7.319-7e-3 -1.572-0.014-3.144-0.021-4.764 2e-3 -1.754 5e-3 -3.508 8e-3 -5.262-5e-3 -1.838-0.01-3.676-0.016-5.514-0.013-5.002-0.014-10.004-0.011-15.006 1e-3 -4.17-4e-3 -8.34-9e-3 -12.51-0.011-9.835-0.012-19.671-6e-3 -29.506 7e-3 -10.159-6e-3 -20.317-0.027-30.476-0.018-8.711-0.024-17.422-0.02-26.133 1e-3 -5.207-1e-3 -10.415-0.015-15.622-0.013-4.896-0.011-9.792 2e-3 -14.688 3e-3 -1.8 0-3.6-8e-3 -5.4-0.011-2.451-1e-3 -4.902 0.01-7.353 0-1.374 0-2.748-1e-3 -4.163 0.805-7.051 5.216-6.627 11.267-6.627z"/>
<path transform="translate(1756,672)" d="m0 0c3.829-0.396 7.37-0.536 11.201-0.502 0.577-2e-3 0.577-2e-3 3.499-0.016 3.828-0.013 7.655 4e-3 11.484 0.022 2.654 0 5.308-2e-3 7.962-5e-3 5.568-1e-3 11.135 0.012 16.703 0.034 7.144 0.029 14.287 0.026 21.431 0.013 5.483-7e-3 10.965 1e-3 16.448 0.014 2.634 4e-3 5.268 4e-3 7.902 1e-3 3.68-3e-3 7.36 0.013 11.04 0.035 0.546-2e-3 0.546-2e-3 3.314-0.014 5.374 0.053 7.595 0.102 12.016 3.418 0.496 2.375 0.496 2.375 0.438 5-2e-3 0.866-3e-3 1.732-4e-3 2.625-0.434 2.375-0.434 2.375-3.434 5.375-3.789 0.347-3.789 0.347-8.631 0.309-0.881-3e-3 -1.763-6e-3 -2.671-9e-3 -2.919-0.012-5.838-0.045-8.757-0.077-2.026-0.011-4.052-0.02-6.079-0.028-5.34-0.022-10.679-0.061-16.019-0.106-8.544-0.07-17.088-0.125-25.632-0.162-2.987-0.017-5.973-0.046-8.96-0.077-1.831-0.01-3.661-0.02-5.491-0.029-0.799-7e-3 -0.799-7e-3 -4.844-0.041-3.916 0.22-3.916 0.22-7.916 2.22-1.892 3.784-2.256 5.056-2.291 9.056-0.012 1.005-0.025 2.01-0.038 3.045-2e-3 1.079-5e-3 2.158-7e-3 3.27-7e-3 1.115-0.013 2.229-0.02 3.377-0.01 2.356-0.015 4.713-0.015 7.069-4e-3 3.604-0.04 7.206-0.078 10.81-6e-3 2.29-0.01 4.579-0.012 6.869-0.014 1.077-0.029 2.155-0.043 3.264 0.045 7.479 0.045 7.479 2.408 11.396 3.963 3.486 6.915 2.949 12.138 2.91 0.831-5e-3 1.662-9e-3 2.519-0.014 1.808-0.011 3.616-0.023 5.424-0.038 2.863-0.022 5.725-0.036 8.587-0.048 8.139-0.033 16.278-0.075 24.418-0.137 4.975-0.038 9.95-0.061 14.926-0.075 1.896-8e-3 3.793-0.021 5.69-0.041 2.654-0.026 5.309-0.034 7.964-0.038 1.51-9e-3 3.021-0.019 4.577-0.029 3.933 0.361 5.794 0.923 8.853 3.354 2.33 3.496 2.588 4.887 2 9-2.933 3.201-4.646 3.956-8.991 4.499-1.576 0-3.151-1e-3 -4.775-1e-3 -0.872 6e-3 -1.744 0.011-2.643 0.017-1.888 9e-3 -3.777 9e-3 -5.665 1e-3 -2.988-0.012-5.976-1e-3 -8.964 0.016-5.265 0.027-10.529 0.033-15.793 0.031-8.429-2e-3 -16.858 0.012-25.288 0.056-2.945 0.01-5.889 1e-3 -8.834-9e-3 -1.804 6e-3 -3.607 0.013-5.411 0.021-0.787 0-0.787 0-4.772-3e-3 -3.864 0.372-3.864 0.372-7.864 3.372-0.515 3.061-0.515 3.061-0.533 6.871-0.016 1.425-0.032 2.85-0.048 4.318 5e-3 1.544 9e-3 3.088 0.015 4.678-7e-3 1.582-0.013 3.164-0.019 4.794-7e-3 3.351-6e-3 6.701 9e-3 10.052 0.017 4.29-7e-3 8.579-0.042 12.869-0.027 4.095-0.017 8.19-0.011 12.285-0.013 1.54-0.026 3.08-0.04 4.666 0.012 1.431 0.025 2.863 0.038 4.338 1e-3 1.259 2e-3 2.517 3e-3 3.815 0.829 4.375 1.97 5.786 5.628 8.314 4.118 0.619 4.118 0.619 9.073 0.612 0.905 5e-3 1.809 0.011 2.741 0.017 2.983 0.013 5.965-7e-3 8.948-0.027 2.073 5e-3 4.146 0.013 6.219 0.024 5.453 0.023 10.905 0.018 16.357 6e-3 8.738-0.018 17.476-8e-3 26.214 0.026 3.057 6e-3 6.113-7e-3 9.17-0.022 1.865 3e-3 3.729 6e-3 5.593 0.011 0.816-2e-3 0.816-2e-3 4.947-0.012 0.617 0.06 0.617 0.06 3.738 0.365 2.602 3.904 2.289 6.382 2 11l-2 3c-3.851 0.302-7.541 0.409-11.395 0.388-1.187 5e-3 -2.374 0.011-3.597 0.016-3.94 0.013-7.88 5e-3 -11.82-6e-3 -2.728 2e-3 -5.456 5e-3 -8.183 9e-3 -5.724 5e-3 -11.447-2e-3 -17.17-0.016-7.351-0.017-14.703-7e-3 -22.054 0.011-5.634 0.011-11.269 7e-3 -16.903-1e-3 -2.711-2e-3 -5.422 1e-3 -8.134 8e-3 -3.783 7e-3 -7.566-4e-3 -11.349-0.021-1.131 6e-3 -2.261 0.012-3.426 0.019-2.66-0.022-5.317-0.199-7.969-0.407-2.518-3.777-2.254-5.798-2.261-10.319-7e-3 -1.547-0.014-3.093-0.021-4.687 2e-3 -1.72 5e-3 -3.441 7e-3 -5.162-4e-3 -1.806-9e-3 -3.613-0.015-5.42-0.014-4.913-0.014-9.826-0.012-14.739 1e-3 -4.098-3e-3 -8.197-8e-3 -12.295-0.011-9.666-0.012-19.332-6e-3 -28.998 6e-3 -9.98-6e-3 -19.96-0.027-29.939-0.018-8.562-0.024-17.123-0.021-25.685 2e-3 -5.116 0-10.232-0.014-15.349-0.013-4.81-0.011-9.621 2e-3 -14.432 2e-3 -1.767 0-3.534-9e-3 -5.301-0.01-2.41 0-4.819 0.011-7.228 0-1.349-1e-3 -2.698-1e-3 -4.089 0.375-3.357 0.375-3.357 3.375-7.357z"/>
<path transform="translate(2397.7 671.85)" d="m0 0c0.542-2e-3 0.542-2e-3 3.288-0.01 3.59-0.01 7.18-0.012 10.771-0.013 2.493-3e-3 4.987-6e-3 7.48-0.01 5.228-6e-3 10.456-8e-3 15.684-7e-3 6.703 0 13.406-0.014 20.109-0.031 5.149-0.011 10.299-0.013 15.449-0.012 2.472-2e-3 4.943-6e-3 7.415-0.014 3.454-0.01 6.908-7e-3 10.363-1e-3 1.023-5e-3 2.046-0.011 3.1-0.017 10.472 0.047 10.472 0.047 14.685 4.26 0.437 3.875 0.437 3.875 0 8-2.906 3.278-4.619 3.956-8.998 4.468-1.579-0.015-3.157-0.03-4.784-0.045-0.873-3e-3 -1.747-6e-3 -2.647-8e-3 -2.881-0.013-5.761-0.054-8.641-0.094-2.004-0.013-4.007-0.023-6.011-0.032-5.269-0.027-10.539-0.075-15.808-0.131-8.441-0.086-16.883-0.145-25.325-0.192-2.951-0.02-5.901-0.054-8.852-0.09-1.804-0.013-3.608-0.027-5.411-0.039-0.789-9e-3 -0.789-9e-3 -4.779-0.05-3.744 0.213-3.744 0.213-6.744 2.213-0.99 2.97-1.132 4.935-1.145 8.035-7e-3 1.025-0.013 2.049-0.02 3.105-1e-3 1.106-2e-3 2.213-3e-3 3.352-3e-3 1.139-7e-3 2.277-0.01 3.449-5e-3 2.409-7e-3 4.819-7e-3 7.228-2e-3 3.685-0.021 7.369-0.04 11.054-3e-3 2.34-5e-3 4.68-5e-3 7.019-8e-3 1.103-0.015 2.205-0.022 3.341 3e-3 1.031 6e-3 2.062 9e-3 3.124-1e-3 0.903-3e-3 1.807-4e-3 2.738 0.301 3.111 0.969 6.277 3.247 8.555 2.775 0.074 5.552 0.075 8.328 0.05 0.436-3e-3 0.436-3e-3 2.646-0.019 1.902-0.014 3.805-0.03 5.708-0.047 3.008-0.027 6.017-0.045 9.025-0.06 8.557-0.043 17.113-0.09 25.669-0.171 5.228-0.048 10.455-0.077 15.682-0.093 1.996-0.01 3.992-0.027 5.988-0.052 2.789-0.034 5.578-0.043 8.368-0.046 0.794-6e-3 0.794-6e-3 4.815-0.036 1.245 0.156 2.489 0.313 3.771 0.474 3.972 5.297 3.415 7.522 3 14-3.145 3.145-6.275 2.26-10.641 2.272-0.894 5e-3 -1.788 0.01-2.71 0.015-1.946 0.011-3.892 0.016-5.837 0.018-3.076 4e-3 -6.151 0.021-9.227 0.041-8.746 0.056-17.492 0.086-26.237 0.111-5.345 0.015-10.69 0.046-16.035 0.084-2.042 0.012-4.083 0.018-6.125 0.018-2.849 0-5.698 0.018-8.547 0.041-1.624 5e-3 -3.248 0.01-4.921 0.015-1.228 0.127-2.455 0.254-3.72 0.385-2.472 3.709-2.248 5.567-2.243 9.994-3e-3 1.452-6e-3 2.904-9e-3 4.399 7e-3 1.572 0.014 3.144 0.022 4.764 0 1.608 0 3.217 1e-3 4.875 1e-3 3.406 0.01 6.813 0.023 10.219 0.017 4.368 0.021 8.736 0.02 13.104 1e-3 4.163 9e-3 8.326 0.018 12.489 1e-3 1.572 2e-3 3.144 3e-3 4.763 7e-3 1.452 0.013 2.904 0.02 4.399 4e-3 1.281 7e-3 2.562 0.011 3.882 0.134 3.112 0.134 3.112 1.134 6.112 3.35 1.675 6.902 1.143 10.609 1.158 0.445 3e-3 0.445 3e-3 2.7 0.015 1.94 0.011 3.879 0.02 5.818 0.026 3.068 0.012 6.136 0.032 9.203 0.054 8.724 0.061 17.448 0.115 26.171 0.149 5.333 0.021 10.665 0.056 15.997 0.1 2.034 0.015 4.068 0.023 6.102 0.026 2.845 5e-3 5.688 0.028 8.532 0.056 0.81 4e-3 0.81 4e-3 4.908 0.024 3.96 0.392 3.96 0.392 7.96 3.392 0.937 2.375 0.937 2.375 1 5-2.194 4.597-2.194 4.597-5 6-3.707 0.11-7.396 0.158-11.103 0.161-1.156 5e-3 -2.313 0.01-3.504 0.015-3.838 0.015-7.676 0.022-11.514 0.027l-7.974 0.018c-5.578 0.01-11.156 0.016-16.733 0.019-7.161 6e-3 -14.322 0.03-21.482 0.058-5.491 0.019-10.982 0.024-16.474 0.026-2.64 3e-3 -5.281 0.011-7.922 0.024-3.687 0.017-7.374 0.015-11.061 9e-3 -0.55 4e-3 -0.55 4e-3 -3.33 0.028-7.561-0.042-7.561-0.042-10.903-3.385 0.305-2.739 0.305-2.739 1-6 0.089-2.389 0.126-4.781 0.127-7.173 3e-3 -1.438 6e-3 -2.877 9e-3 -4.358-3e-3 -1.568-5e-3 -3.136-7e-3 -4.752l6e-3 -5.028c4e-3 -4.543 2e-3 -9.086-1e-3 -13.629-2e-3 -4.758 0-9.516 2e-3 -14.274 2e-3 -7.989-1e-3 -15.978-6e-3 -23.968-5e-3 -9.233-3e-3 -18.466 2e-3 -27.699 5e-3 -7.931 5e-3 -15.862 3e-3 -23.794-2e-3 -4.735-2e-3 -9.47 1e-3 -14.205 3e-3 -4.452 1e-3 -8.904-5e-3 -13.356-2e-3 -2.411 1e-3 -4.821 5e-3 -7.232-3e-3 -1.438-6e-3 -2.877-9e-3 -4.359 0-1.247-1e-3 -2.495-1e-3 -3.781-0.126-3.392-0.126-3.392-0.821-6.59-0.305-2.802-0.305-2.802 2.695-6.802 4.919-1.23 9.621-1.147 14.656-1.145z"/>
<path transform="translate(1913.5 671.73)" d="m0 0c1.144-9e-3 2.288-0.017 3.467-0.026 0.628 1e-3 0.628 1e-3 3.807 3e-3 1.322-7e-3 2.644-0.014 4.006-0.02 4.385-0.02 8.769-0.023 13.154-0.026 3.038-6e-3 6.075-0.013 9.113-0.02 6.372-0.012 12.744-0.015 19.116-0.014 8.182 0 16.364-0.027 24.546-0.062 6.274-0.022 12.548-0.026 18.823-0.025 3.017-2e-3 6.035-0.011 9.052-0.027 4.212-0.019 8.423-0.014 12.635-1e-3 1.256-0.012 2.512-0.023 3.807-0.034 1.144 8e-3 2.288 0.016 3.467 0.025 0.996-1e-3 1.992-2e-3 3.019-3e-3 2.484 0.497 2.484 0.497 5.484 4.497 0.39 4.988 0.261 7.48-2 12-3.833 0.335-7.381 0.415-11.211 0.321-1.119-0.011-2.239-0.021-3.393-0.032-3.59-0.036-7.18-0.098-10.771-0.164-3.583-0.055-7.166-0.104-10.749-0.142-2.233-0.024-4.466-0.06-6.698-0.107-0.507-6e-3 -0.507-6e-3 -3.074-0.039-0.891-0.017-1.782-0.033-2.7-0.05-2.404 0.213-2.404 0.213-6.404 2.213-2.088 4.177-2.249 5.966-2.247 10.522-4e-3 1.345-8e-3 2.689-0.013 4.074 6e-3 1.474 0.012 2.948 0.017 4.467-1e-3 0.776-1e-3 0.776-5e-3 4.706-3e-3 4.26 2e-3 8.521 0.013 12.781 8e-3 4.458 7e-3 8.916 6e-3 13.374 1e-3 7.488 0.01 14.975 0.024 22.463 0.015 8.656 0.021 17.311 0.02 25.967-1e-3 8.326 4e-3 16.652 0.013 24.979 3e-3 3.543 5e-3 7.086 5e-3 10.63 2e-3 4.948 0.011 9.897 0.022 14.846 0 0.736 0 0.736-1e-3 4.46 2e-3 0.674 2e-3 0.674 0.013 4.083 1e-3 1.17 3e-3 2.34 5e-3 3.546 0.128 3.102 0.128 3.102 0.824 5.768 0.304 2.334 0.304 2.334-2.696 6.334-2.42 0.502-2.42 0.502-5.254 0.497-0.509 0-0.509 0-3.087 1e-3 -1.063-0.02-2.126-0.039-3.221-0.06-1.067 7e-3 -2.134 0.014-3.233 0.021-5.877-0.048-5.877-0.048-8.205-0.459-2.431-3.647-2.242-5.329-2.227-9.673 0-1.404 1e-3 -2.807 1e-3 -4.253 0.01-1.545 0.02-3.089 0.031-4.681 5e-3 -2.491 9e-3 -4.982 0.013-7.473 7e-3 -2.681 0.019-5.361 0.032-8.042 0.027-5.584 0.039-11.168 0.048-16.752 0.024-12.863 0.068-25.726 0.113-38.588 0.04-11.785 0.076-23.57 0.096-35.355 0.01-5.552 0.03-11.105 0.057-16.658 0.011-2.622 0.018-5.243 0.023-7.865 6e-3 -3.199 0.019-6.398 0.04-9.597v-4.262c3e-3 -0.612 3e-3 -0.612 0.014-3.709-0.241-3.092-0.241-3.092-2.241-7.092-3.865-1.932-8.758-1.05-13.027-0.992-2.258 0.018-4.517 0.035-6.775 0.051-3.573 0.031-7.146 0.067-10.719 0.113-3.439 0.042-6.879 0.066-10.319 0.086-1.071 0.019-2.143 0.037-3.248 0.057-2.639 9e-3 -5.278-0.14-7.912-0.315-3.344-3.344-3.725-4.418-4-9 1.643-6.022 4.529-7.247 10.504-7.267z"/>
<path transform="translate(2080.9 671.38)" d="m0 0c0.656-3e-3 0.656-3e-3 3.973-0.017 4.337-0.012 8.672 0.013 13.009 0.038 3.01 2e-3 6.02 2e-3 9.03 0 6.309 2e-3 12.618 0.021 18.927 0.052 8.097 0.04 16.193 0.044 24.289 0.037 6.216-3e-3 12.431 9e-3 18.646 0.026 2.986 7e-3 5.972 0.01 8.958 9e-3 4.168 2e-3 8.336 0.023 12.504 0.05 0.62-1e-3 0.62-1e-3 3.758-9e-3 1.134 0.012 2.268 0.023 3.437 0.035 0.985 4e-3 1.97 7e-3 2.986 0.011 2.586 0.383 2.586 0.383 6.586 3.383 0.496 2.375 0.496 2.375 0.438 5-1e-3 0.433-1e-3 0.433-4e-3 2.625-0.434 2.375-0.434 2.375-3.434 5.375-3.814 0.214-7.464 0.251-11.273 0.153-2.292-0.029-4.583-0.057-6.875-0.084-3.617-0.063-7.233-0.131-10.85-0.206-3.487-0.066-6.975-0.108-10.463-0.148-0.54-0.015-0.54-0.015-3.273-0.091-7.489-0.074-7.489-0.074-11.424 2.207-3.122 3.677-2.967 6.829-2.969 11.481-3e-3 1.324-5e-3 2.647-8e-3 4.011 2e-3 1.455 4e-3 2.911 6e-3 4.411-2e-3 1.53-4e-3 3.06-5e-3 4.637-4e-3 4.202-3e-3 8.405 0 12.608 2e-3 4.398 0 8.796-1e-3 13.195-2e-3 7.391 0 14.782 5e-3 22.173 5e-3 8.538 4e-3 17.076-2e-3 25.614-4e-3 7.332-5e-3 14.664-2e-3 21.995 1e-3 4.379 1e-3 8.757-2e-3 13.135-3e-3 4.886 1e-3 9.772 7e-3 14.658-1e-3 0.724-1e-3 0.724-6e-3 4.387 1e-3 0.667 1e-3 0.667 8e-3 4.044 1e-3 1.155 1e-3 2.31 1e-3 3.5 0.126 3.32 0.126 3.32 0.822 7.059 0.1 1.076 0.201 2.152 0.304 3.261-3.326 3.327-3.644 3.382-8.035 3.399-0.974 4e-3 -1.948 7e-3 -2.951 0.011-1.015-0.011-2.03-0.023-3.076-0.035-1.019 0.012-2.038 0.023-3.088 0.035-2.62-0.01-5.238-0.198-7.85-0.41-2.425-3.638-2.243-5.298-2.227-9.629 0-1.394 1e-3 -2.787 1e-3 -4.223 0.01-1.534 0.02-3.067 0.031-4.647 4e-3 -2.474 9e-3 -4.948 0.013-7.421 7e-3 -2.662 0.019-5.325 0.032-7.987 0.027-5.546 0.039-11.092 0.048-16.639 0.024-12.778 0.068-25.555 0.113-38.333 0.04-11.704 0.076-23.409 0.096-35.113 0.01-5.514 0.03-11.028 0.057-16.542 0.011-2.604 0.018-5.209 0.023-7.814 5e-3 -3.176 0.018-6.352 0.04-9.528v-4.241c3e-3 -0.607 3e-3 -0.607 0.014-3.683-0.24-3.185-0.77-5.377-2.241-8.2-3.854-1.927-8.736-1.004-12.992-0.922-2.254 0.028-4.508 0.054-6.762 0.078-3.564 0.044-7.128 0.094-10.692 0.167-3.432 0.066-6.863 0.101-10.296 0.13-1.067 0.029-2.133 0.058-3.233 0.088-7.378 0.027-7.378 0.027-10.693-2.882-1.648-3.29-2.012-5.028-1.332-8.659 4.408-6.752 10.621-5.693 17.897-5.615z"/>
<path transform="translate(2244.4 671.56)" d="m0 0c0.752-0.01 0.752-0.01 4.559-0.059 4.003 0.497 4.003 0.497 6.224 2.103 2.384 3.207 2.27 5.21 2.254 9.188 4e-3 1.404 8e-3 2.809 0.012 4.257-0.016 1.541-0.032 3.082-0.048 4.669-1e-3 1.623-2e-3 3.246-3e-3 4.918-3e-3 4.453-0.031 8.905-0.063 13.358-0.029 4.657-0.034 9.314-0.041 13.971-0.018 8.825-0.055 17.649-0.1 26.473-0.065 12.954-0.105 25.907-0.14 38.861-3e-3 0.95-5e-3 1.899-8e-3 2.877l-0.015 5.679c-0.015 5.549-0.038 11.097-0.066 16.646-0.013 2.619-0.024 5.238-0.034 7.858-0.012 3.195-0.028 6.391-0.048 9.587-5e-3 1.405-9e-3 2.81-0.014 4.257-3e-3 0.612-3e-3 0.612-0.018 3.705 0.111 3.09 0.111 3.09 1.111 7.09 4.48 1.119 8.323 1.139 12.944 1.157 0.903 5e-3 1.806 0.01 2.736 0.016 1.958 0.01 3.917 0.019 5.875 0.026 3.097 0.012 6.194 0.031 9.291 0.053 8.805 0.061 17.609 0.116 26.414 0.149 5.386 0.021 10.772 0.056 16.159 0.101 2.054 0.014 4.109 0.023 6.163 0.026 2.869 5e-3 5.736 0.028 8.604 0.055 1.634 8e-3 3.267 0.016 4.95 0.025 3.864 0.392 3.864 0.392 6.864 3.392 0.376 4 0.376 4 0 8-4.275 4.275-8.488 3.462-14.216 3.479-1.157 0.015-2.313 0.031-3.504 0.046-3.833 0.046-7.665 0.069-11.498 0.092-2.657 0.024-5.313 0.049-7.97 0.076-5.572 0.051-11.143 0.092-16.715 0.125-7.153 0.043-14.306 0.114-21.459 0.192-5.486 0.057-10.973 0.1-16.46 0.139-2.638 0.02-5.276 0.045-7.914 0.074-3.682 0.039-7.364 0.059-11.047 0.073-1.097 0.015-2.194 0.031-3.325 0.047-7.549-1e-3 -7.549-1e-3 -10.892-3.343-0.377-3.266-0.377-3.266-0.38-7.402-9e-3 -1.565-0.017-3.13-0.026-4.742 6e-3 -1.741 0.012-3.483 0.018-5.224-4e-3 -1.828-9e-3 -3.656-0.016-5.484-0.013-4.971-8e-3 -9.942 2e-3 -14.913 7e-3 -5.195 0-10.391-5e-3 -15.587-5e-3 -8.726 2e-3 -17.452 0.016-26.178 0.017-10.097 0.011-20.193-5e-3 -30.29-0.014-8.66-0.016-17.32-8e-3 -25.98 5e-3 -5.176 6e-3 -10.352-4e-3 -15.529-9e-3 -4.865-3e-3 -9.731 0.014-14.596 4e-3 -1.789 3e-3 -3.578-3e-3 -5.366-9e-3 -2.436 3e-3 -4.872 0.017-7.308 1e-3 -1.365 2e-3 -2.73 3e-3 -4.136 0.839-7.255 5.701-6.698 11.815-6.703z"/>
<path transform="translate(1382,721)" d="m0 0 3 2c0.293 3.301 0.293 3.301 0.188 7.527-0.024 1.514-0.047 3.028-0.071 4.588-0.078 3.211-0.156 6.422-0.234 9.633-0.023 1.515-0.047 3.031-0.071 4.592-0.034 1.396-0.069 2.792-0.105 4.23 0.293 3.43 0.293 3.43 3.293 6.43 4.269 1.343 8.565 1.069 13.004 0.992 0.772-8e-3 0.772-8e-3 4.682-0.051 3.255-0.044 6.51-0.096 9.765-0.156 1.544-0.014 3.087-0.028 4.678-0.043 1.413-0.022 2.827-0.044 4.283-0.067 3.588 0.325 3.588 0.325 7.588 3.325 0.5 4 0.5 4 0 8-4.673 3.505-6.086 3.339-11.766 3.223-1.53-0.019-3.06-0.038-4.636-0.057-1.6-0.034-3.2-0.068-4.848-0.104-3.151-0.06-6.302-0.111-9.453-0.152-0.7-0.015-0.7-0.015-4.239-0.089-4.259 0.188-7.968 1.011-12.058 2.179-0.029 4.562-0.047 9.125-0.062 13.688-5e-3 0.646-5e-3 0.646-0.026 3.919-3e-3 1.248-6e-3 2.495-0.01 3.78-5e-3 1.147-0.01 2.293-0.016 3.475 0.114 3.138 0.114 3.138 0.745 5.801 0.369 2.337 0.369 2.337-1.631 6.337-4.328 2.673-8.17 2.109-13 1-2.216-4.432-2.221-6.648-2.16-11.539 0.011-1.467 0.022-2.934 0.033-4.445 0.021-1.532 0.043-3.063 0.065-4.641 0.034-3.034 0.064-6.068 0.089-9.102 0.018-1.346 0.036-2.693 0.055-4.08-0.082-3.193-0.082-3.193-1.082-5.193-3.735-1.245-6.795-1.078-10.738-1.027-0.771 6e-3 -0.771 6e-3 -4.674 0.037-3.255 0.035-6.511 0.074-9.766 0.117-1.546 0.011-3.092 0.022-4.685 0.033-0.708 9e-3 -0.708 9e-3 -4.291 0.051-3.727-0.204-6.451-0.683-9.846-2.211-2-3-2-3-2-8 3.636-3.636 5.651-3.964 10.711-4.098 1.468 0.012 2.937 0.024 4.449 0.036 1.598 7e-3 3.196 0.015 4.842 0.023 1.687 0.012 3.374 0.025 5.06 0.039 3.304 0.027 6.607 0.046 9.911 0.062 0.733 6e-3 0.733 6e-3 4.445 0.036 3.582-0.098 3.582-0.098 6.582-1.098 1.524-3.049 1.073-5.882 1.027-9.273-0.012-1.465-0.024-2.929-0.037-4.438-0.035-3.102-0.074-6.203-0.117-9.305-0.011-1.467-0.022-2.934-0.033-4.445-0.017-1.349-0.034-2.698-0.051-4.087 0.211-3.452 0.211-3.452 2.211-7.452 4.253-1.063 6.746-0.851 11 0z"/>
<path transform="translate(2547,683)" d="m0 0 5 1v16l-4 1c-3.252-3.252-2.966-7.603-3-12 0.938-3.625 0.938-3.625 2-6z"/>
<path transform="translate(2536,705)" d="m0 0c2.438 0.25 2.438 0.25 5 1l1 4c-0.99 0.33-1.98 0.66-3 1l-3-2v-4z"/>
<path transform="translate(2561,705)" d="m0 0 4 1-1 4-5-1 2-4z"/>
<path transform="translate(2540,673)" d="m0 0c0.99 0.33 1.98 0.66 3 1v4h-6l1-4 2-1z"/>
<path transform="translate(2531,681)" d="m0 0h3l-1 6-4-1c0.812-2.5 0.812-2.5 2-5z"/>
<path transform="translate(2530,697)" d="m0 0c0.99 0.33 1.98 0.66 3 1 0.688 2.562 0.688 2.562 1 5l-4-1v-5z"/>
<path transform="translate(2561,675)" d="m0 0 4 1-1 3-4-2 1-2z"/>
</svg>
