<?xml version="1.0" encoding="UTF-8"?>
<svg version="1.1" viewBox="0 0 2448 1112" xmlns="http://www.w3.org/2000/svg">
<path transform="translate(2348,394)" d="m0 0v3c-1.906 1.211-1.906 1.211-4.5 2.375-3.384 1.585-6.382 3.181-9.562 5.187-4.186 2.592-8.42 4.493-12.938 6.438-2.675 1.317-5.342 2.65-8 4-1.403 0.681-2.805 1.361-4.25 2.062-3.75 1.938-3.75 1.938-7.75 4.938-2.161 0.982-4.324 1.96-6.504 2.898-4.245 1.874-8.359 4.004-12.496 6.102-2.667 1.333-5.333 2.667-8 4-1.341 0.681-2.681 1.361-4.062 2.062-2.485 1.223-5.004 2.379-7.563 3.438-3.375 1.5-3.375 1.5-6.313 3.5-3.062 2-3.062 2-6.937 3.438-4.125 1.562-4.125 1.562-8 4-3.905 2.425-7.555 3.983-11.82 5.597-2.305 0.965-2.305 0.965-5.305 2.965-3.408 2.272-6.815 3.548-10.625 5-2.375 1-2.375 1-5.375 3-2.675 1.783-4.898 2.811-7.875 3.938-4.774 1.82-8.835 4.273-13.125 7.062-0.526 0.258-0.526 0.258-3.188 1.562-2.812 1.438-2.812 1.438-5 3.376-3.479 2.551-6.978 3.609-11.039 4.992-3.917 1.512-7.244 3.813-10.773 6.07-0.691 0.258-0.691 0.258-4.188 1.562-3.77 1.422-5.723 2.938-8.812 5.438-3.275 1.788-6.636 3.388-10 5-1.361 0.681-2.722 1.361-4.125 2.062-91.875 45.938-91.875 45.938-96.063 48-4.021 2.044-7.684 3.936-11.062 6.938-3.636 2.645-7.501 3.584-11.75 5-0.392 0.32-0.392 0.32-2.375 1.938-2.735 2.148-4.856 2.95-8.125 4.062-4.29 1.462-6.992 3.121-10.5 6-2.472 1.056-4.963 1.987-7.5 2.875-2.5 1.125-2.5 1.125-4.941 3.094-2.752 2.184-5.223 3.284-8.497 4.531-4.452 1.773-8.086 3.82-12.062 6.5-2.521 1.061-5.07 2.026-7.625 3-2.375 1-2.375 1-5.375 3-3.408 2.272-6.815 3.548-10.625 5-2.375 1-2.375 1-5.375 3-3.408 2.272-6.815 3.548-10.625 5-2.375 1-2.375 1-5.375 3-3.408 2.272-6.815 3.548-10.625 5-2.375 1-2.375 1-5.375 3-3.408 2.272-6.815 3.548-10.625 5-2.375 1-2.375 1-5.375 3-2.723 1.815-5.026 2.855-8.062 4-3.968 1.511-6.648 3.3-9.938 6-2.216 0.995-4.433 1.988-6.672 2.93-2.328 1.07-2.328 1.07-6.39 3.632-3.912 2.422-7.645 3.828-11.938 5.438l-4 2.5c-4 2.5-4 2.5-8.188 4.062-3.77 1.422-5.723 2.938-8.812 5.438-3.275 1.788-6.636 3.388-10 5-1.361 0.681-2.723 1.361-4.125 2.062-91.875 45.938-91.875 45.938-96.063 48-4.021 2.044-7.684 3.936-11.062 6.938-3.636 2.645-7.501 3.584-11.75 5-0.784 0.639-1.568 1.279-2.375 1.938-2.735 2.148-4.856 2.95-8.125 4.062-4.29 1.462-6.992 3.121-10.5 6-2.472 1.056-4.963 1.987-7.5 2.875-2.5 1.125-2.5 1.125-4.941 3.094-2.752 2.184-5.223 3.284-8.497 4.531-4.452 1.773-8.086 3.82-12.062 6.5-2.518 1.06-5.064 2.024-7.617 2.996-3.068 1.293-5.628 3.147-8.383 5.004-1.279 0.474-2.557 0.949-3.875 1.438-4.125 1.562-4.125 1.562-8.125 4.062-3.917 2.448-7.639 4.02-12 5.5l-2-4c0.977-2.516 0.977-2.516 2.625-5.25 0.284-0.485 0.284-0.485 1.719-2.938 0.546-0.928 1.093-1.856 1.656-2.812 0.701-1.402 1.402-2.805 2.125-4.25 2.314-4.628 4.863-9.078 7.543-13.504 2.861-4.776 5.531-9.41 7.52-14.621 1.606-4.099 3.397-7.003 5.812-10.625 1.067-2.521 2.039-5.06 2.973-7.633 1.027-2.367 1.027-2.367 4.027-6.367 4.163-7.643 6.74-14.276 7-23-5.952 1.209-11.317 2.814-17 5-1.706 0.488-3.414 0.967-5.125 1.438-3.143 0.906-4.938 1.608-7.625 3.562-3.506 2.158-6.042 2.676-10.062 3.438-5.38 1.035-9.244 2.441-13.856 5.308-3.81 2.049-7.924 3.029-12.066 4.219-4.048 1.283-7.744 3.048-11.567 4.879-2.81 1.204-5.546 1.982-8.511 2.718-3.346 0.833-5.189 1.439-8.063 3.438-4.112 2.632-8.139 3.231-12.906 4.094-3.672 1.034-6.072 2.78-9.219 4.906-3.051 1.02-3.051 1.02-6.312 1.812-7.192 1.915-13.862 4.639-20.68 7.602-3.965 1.569-7.877 2.56-12.008 3.586-0.908 0.639-1.815 1.279-2.75 1.938-3.245 2.059-5.422 2.683-9.125 3.5-4.201 0.94-6.449 1.767-10.187 4.124-3.624 2.244-4.957 2.775-8.938 3.313-6.578 0.941-12.118 3.698-18.117 6.453-4.172 1.796-8.246 2.934-12.645 3.996-2.238 0.676-2.238 0.676-5.176 2.676-3.151 2.058-5.302 2.634-8.937 3.438-4.08 0.917-6.293 1.671-9.875 4-5.268 3.176-10.321 4.163-16.277 5.527-4.464 1.163-8.325 2.846-12.446 4.879-2.584 1.182-5.1 1.97-7.839 2.718-4.688 1.438-4.688 1.438-7.5 3.438-3.352 2.103-5.718 2.656-9.563 3.438-5.809 1.201-9.603 3.374-14.625 6.562-2.792 0.823-5.603 1.426-8.445 2.055-5.937 1.578-11.563 3.948-17.258 6.226-2.826 1.13-5.67 2.215-8.531 3.25-3.766 1.469-3.766 1.469-6.371 3.071-2.883 1.683-5.432 2.169-8.707 2.773-5.815 1.239-9.657 3.431-14.688 6.625-2.956 0.868-5.926 1.525-8.934 2.191-3.977 1.049-7.442 2.762-11.132 4.551-4.422 1.896-9.01 3.015-13.672 4.168-3.262 1.09-3.262 1.09-6.282 3.121-3.227 2.132-5.574 2.743-9.355 3.407-5.809 1.201-9.603 3.374-14.625 6.562-2.956 0.868-5.926 1.525-8.934 2.191-3.977 1.049-7.442 2.762-11.132 4.551-4.422 1.896-9.01 3.015-13.672 4.168-3.262 1.09-3.262 1.09-6.246 3.086-3.316 2.203-6.104 3.051-9.954 4.004-5.286 1.409-9.317 3.276-14.062 6-1.947 0.523-3.907 0.998-5.875 1.438-4.775 1.084-8.304 2.73-12.504 5.304-4.688 2.25-9.785 3.106-14.851 4.168-3.95 1.142-6.405 2.78-9.77 5.09-2.388 0.913-4.808 1.744-7.25 2.5-4.471 1.423-8.856 2.881-13.188 4.688-4.562 1.812-4.562 1.812-8.687 2.75-3.875 1.062-3.875 1.062-7.437 3.5-3.827 2.598-7.402 3.275-11.938 4.062-6.301 1.104-10.125 2.973-15.5 6.5-3.735 1.396-7.506 2.604-11.309 3.805-3.116 1.009-6.108 2.122-9.129 3.383-4.562 1.812-4.562 1.812-8.687 2.75-3.827 1.049-6.233 2.642-9.48 4.839-4.084 2.085-8.537 2.574-13.012 3.414-3.903 0.933-6.681 2.462-10.055 4.555-3.788 2.04-7.865 3.031-11.984 4.215-4.351 1.352-8.453 3.142-12.629 4.953-2.715 1.086-2.715 1.086-6.965 2.086-3.778 1.007-6.206 2.604-9.41 4.773-3.839 2.013-7.951 2.612-12.192 3.356-3.645 1.009-6.024 2.766-9.148 4.871-3.156 1.055-3.156 1.055-6.5 1.875-6.37 1.698-12.161 4.056-18.168 6.746-3.943 1.632-7.89 2.648-12.023 3.668-2.309 0.711-2.309 0.711-5.247 2.711-3.151 2.058-5.302 2.634-8.937 3.438-4.201 0.94-6.449 1.767-10.187 4.124-3.624 2.244-4.957 2.775-8.938 3.313-6.578 0.941-12.118 3.698-18.117 6.453-4.172 1.796-8.246 2.934-12.645 3.996-2.238 0.676-2.238 0.676-5.176 2.676-3.151 2.058-5.302 2.634-8.937 3.438-4.201 0.94-6.449 1.767-10.187 4.124-3.624 2.244-4.957 2.775-8.938 3.313-6.593 0.945-12.168 3.693-18.184 6.453-3.153 1.381-6.13 2.461-9.441 3.36-4.203 1.26-6.798 2.873-10.375 5.312-3.188 0.875-3.188 0.875-6 1l-3-2c1.594-4.237 3.745-7.887 6.102-11.75 7.897-13.519 14.742-27.717 21.621-41.77 0.524-1.066 1.049-2.132 1.589-3.23 0.45-0.923 0.9-1.846 1.364-2.797 1.324-2.453 1.324-2.453 4.324-6.453 0.227-0.712 0.227-0.712 1.375-4.312 1.625-4.688 1.625-4.688 4.063-8.063 2.785-3.941 4.011-7.527 5.515-12.063 1.047-2.562 1.047-2.562 3.797-5.624 3.351-4.375 2.683-7.523 2.25-12.938-1-1-1-1-4.688-1.25-8.166 0.104-16.249 1.82-23.636 5.27-4.702 2.165-9.376 2.863-14.488 3.418-5.667 0.723-10.864 1.517-16.063 4-6.458 3.077-13.14 3.955-20.138 5.113-5.651 0.956-10.656 2.249-15.96 4.449-4.424 1.461-8.945 2.188-13.527 3-6.581 1.166-12.588 2.546-18.797 5.074-3.385 1.16-6.737 1.709-10.265 2.301-6.111 1.048-11.715 2.632-17.563 4.687-6.499 2.273-12.437 3.556-19.25 4.313-5.969 1.029-11.53 3.24-17.23 5.246-5.051 1.585-9.878 2.236-15.118 2.824-3.465 0.587-6.294 1.628-9.527 2.993-6.661 2.782-13.245 3.7-20.355 4.753-3.995 0.735-7.38 1.763-11.145 3.247-6.995 2.735-14.038 3.943-21.437 5.042-5.975 0.947-10.369 2.779-15.813 5.52-4.551 0.906-4.551 0.906-9.312 1.5-6.367 0.87-12.232 2.017-18.168 4.535-7.444 2.85-15.369 3.792-23.204 4.988-3.986 0.902-7.249 2.286-10.93 4.019-4.285 1.721-8.777 2.277-13.324 2.958-6.635 0.999-12.364 2.42-18.537 5.055-5.237 1.96-10.809 2.534-16.314 3.367-5.647 0.923-10.489 2.39-15.746 4.633-4.047 1.552-8.206 2.219-12.465 2.945-10.436 1.914-10.436 1.914-15.125 4.062-5.896 2.686-12.234 3.249-18.59 4.223-6.495 1.084-12.407 3.034-18.597 5.277-3.784 1.161-6.993 1.81-10.876 2.313-4.737 0.655-8.801 1.754-13.25 3.5-7.061 2.703-14.126 3.979-21.572 5.105-5.595 0.894-10.347 2.39-15.552 4.608-3.87 1.448-7.789 1.856-11.876 2.35-5.341 0.718-10.136 1.489-14.937 4.062-6.002 3.166-12.352 3.662-19.015 4.336-6.033 0.674-10.133 2.42-15.61 5.164-4.064 1.063-8.176 1.781-12.312 2.5-7.27 1.277-13.964 2.852-20.855 5.505-5.236 1.839-10.664 2.897-16.083 4.057-6.935 1.489-13.244 3.053-19.75 5.938-8.153 0.424-8.153 0.424-11-1l1-3c2.293-1.098 2.293-1.098 5.188-2.062 0.999-0.342 1.998-0.684 3.027-1.036 2.006-0.65 4.019-1.282 6.035-1.902 2.75-1 2.75-1 5.816-2.844 4.398-2.41 8.886-4.066 13.622-5.656 0.881-0.303 1.763-0.607 2.672-0.919 4.8-1.645 9.62-3.221 14.452-4.769 3.32-1.08 5.71-2.124 8.75-3.937 3.299-1.799 5.181-2.248 8.813-2.75 4.181-0.627 6.732-1.607 10.125-4.125 4.203-3.117 7.644-3.691 12.754-4.379 3.069-0.694 5.008-1.826 7.621-3.559 4.849-3.191 9.392-4.169 15.035-5.289 3.73-0.933 6.474-2.526 9.723-4.519 3.831-2.029 7.946-3.025 12.097-4.219 4.067-1.287 7.795-3.042 11.637-4.879 2.623-1.152 5.186-1.961 7.945-2.718 4.688-1.438 4.688-1.438 7.559-3.407 3.326-2.159 6.045-3.027 9.879-3.969 5.434-1.445 10.021-3.314 14.949-5.976 2.301-1.086 2.301-1.086 6.926-2.086 4.375-1 4.375-1 8.187-3.438 3.771-2.307 5.998-3.142 10.188-4.062 4.127-0.908 6.318-1.699 10-4 4.402-2.752 8.059-3.587 13.062-4.688 2.845-0.786 4.879-1.77 7.376-3.312 3.629-2.213 6.898-3.151 11.062-4 5.084-1.041 8.745-2.554 13.133-5.246 3.831-2.029 7.946-3.025 12.097-4.219 4.067-1.287 7.795-3.042 11.637-4.879 2.623-1.152 5.186-1.961 7.945-2.718 4.688-1.438 4.688-1.438 7.547-3.403 3.376-2.187 6.19-3.073 10.079-4.035 5.286-1.409 9.317-3.276 14.062-6 1.968-0.522 3.949-0.997 5.938-1.438 4.123-0.935 6.386-1.764 10.062-4.062 4.418-2.761 8.104-3.583 13.125-4.688 2.875-0.812 2.875-0.812 6.875-3.312 4.37-2.732 7.968-3.591 12.934-4.691 3.977-1.049 7.442-2.762 11.132-4.551 4.422-1.896 9.01-3.015 13.672-4.168 3.593-1.201 6.126-2.986 9.262-5.09 2.347-0.891 4.725-1.701 7.125-2.438 5.885-1.877 11.547-3.997 17.219-6.437 2.335-0.989 4.712-1.878 7.094-2.75 3.562-1.375 3.562-1.375 5.89-2.875 3.02-1.695 5.588-2.248 8.984-2.875 5.815-1.239 9.657-3.431 14.688-6.625 1.984-0.561 3.986-1.058 6-1.5 4.127-0.908 6.318-1.699 10-4 4.418-2.761 8.104-3.583 13.125-4.688 2.875-0.812 2.875-0.812 6.875-3.312 4.37-2.732 7.968-3.591 12.934-4.691 3.977-1.049 7.442-2.762 11.132-4.551 4.422-1.896 9.01-3.015 13.672-4.168 3.593-1.201 6.126-2.986 9.262-5.09 2.347-0.891 4.725-1.701 7.125-2.438 5.885-1.877 11.547-3.997 17.219-6.437 2.335-0.989 4.712-1.878 7.094-2.75 3.562-1.375 3.562-1.375 5.89-2.875 3.02-1.695 5.588-2.248 8.984-2.875 5.815-1.239 9.657-3.431 14.688-6.625 1.984-0.561 3.986-1.058 6-1.5 4.127-0.908 6.318-1.699 10-4 4.418-2.761 8.104-3.583 13.125-4.688 2.875-0.812 2.875-0.812 6.875-3.312 4.37-2.732 7.968-3.591 12.934-4.691 3.977-1.049 7.442-2.762 11.132-4.551 4.422-1.896 9.01-3.015 13.672-4.168 3.593-1.201 6.126-2.986 9.262-5.09 2.347-0.891 4.725-1.701 7.125-2.438 5.885-1.877 11.547-3.997 17.219-6.437 2.335-0.989 4.712-1.878 7.094-2.75 3.562-1.375 3.562-1.375 5.89-2.875 3.02-1.695 5.588-2.248 8.984-2.875 5.815-1.239 9.657-3.431 14.688-6.625 1.984-0.561 3.986-1.058 6-1.5 4.127-0.908 6.318-1.699 10-4 4.418-2.761 8.104-3.583 13.125-4.688 2.875-0.812 2.875-0.812 6.875-3.312 4.37-2.732 7.968-3.591 12.934-4.691 3.977-1.049 7.442-2.762 11.132-4.551 4.422-1.896 9.01-3.015 13.672-4.168 3.593-1.201 6.126-2.986 9.262-5.09 2.347-0.891 4.725-1.701 7.125-2.438 5.885-1.877 11.547-3.997 17.219-6.437 2.335-0.989 4.712-1.878 7.094-2.75 3.562-1.375 3.562-1.375 5.89-2.875 3.02-1.695 5.588-2.248 8.984-2.875 5.811-1.233 9.652-3.457 14.688-6.625 3.637-0.95 7.271-1.541 11-2 1.172 4.689 0.137 6.399-1.891 10.629-1.109 2.371-1.109 2.371-2.609 6.559-1.5 3.812-1.5 3.812-3.375 6.562-2.568 3.928-4.168 7.99-5.879 12.348-1.246 2.902-1.246 2.902-2.812 5.468-1.452 2.465-2.129 4.545-2.809 7.309-1.362 4.843-3.681 8.032-6.625 12.125-1.109 2.796-2.062 5.623-3.023 8.473-1.167 3.019-2.774 5.172-4.977 7.527-1.262 2.525-1.099 4.312-1.062 7.125 0.01 0.804 0.01 0.804 0.062 4.875 8.76 0.381 16.653-0.384 24.297-4.984 5.313-2.893 10.754-3.714 16.644-4.891 4.122-1.142 6.547-2.77 10.059-5.125 3.551-0.871 3.551-0.871 7.312-1.438 5.635-1.003 9.589-2.331 14.372-5.371 3.841-1.976 7.976-2.572 12.203-3.32 3.62-1.013 5.998-2.793 9.113-4.871 3.34-1.055 3.34-1.055 6.938-1.875 5.468-1.357 10.548-3.02 15.75-5.187 5.438-2.266 10.684-3.864 16.417-5.161 4.153-1.115 7.963-2.869 11.895-4.589 2.987-1.183 5.872-1.971 9-2.688 5.277-1.215 9.984-3.085 14.938-5.246 4.172-1.708 8.442-2.941 12.761-4.219 4.521-1.418 8.898-3.144 13.305-4.879 3.953-1.525 7.977-2.816 11.996-4.156 1.607-0.659 3.211-1.326 4.812-2 4.681-1.928 9.377-3.077 14.329-4.094 2.859-0.906 2.859-0.906 5.656-2.875 5.183-3.287 10.926-3.793 16.891-4.906 4.312-1.125 4.312-1.125 7.312-3.125 5.033-3.355 10.819-3.78 16.688-4.875 4.306-1.123 6.684-2.662 10.312-5.125 3.551-0.871 3.551-0.871 7.312-1.438 4.618-0.823 8.368-1.603 12.376-4.062 4.529-2.626 8.296-3.565 13.339-4.688 2.941-0.803 5.297-1.869 7.973-3.312 4.488-2.404 8.784-3.51 13.73-4.621 3.742-1.006 7.193-2.392 10.77-3.879 5.502-2.283 10.809-3.911 16.605-5.223 4.153-1.115 7.963-2.869 11.895-4.589 2.987-1.183 5.872-1.971 9-2.688 5.277-1.215 9.984-3.085 14.938-5.246 4.172-1.708 8.442-2.941 12.761-4.219 4.521-1.418 8.898-3.144 13.305-4.879 3.953-1.525 7.977-2.816 11.996-4.156 1.607-0.659 3.211-1.326 4.812-2 4.681-1.928 9.377-3.077 14.329-4.094 2.859-0.906 2.859-0.906 5.656-2.875 5.183-3.287 10.926-3.793 16.891-4.906 4.312-1.125 4.312-1.125 7.312-3.125 5.033-3.355 10.819-3.78 16.688-4.875 4.306-1.123 6.684-2.662 10.312-5.125 3.551-0.871 3.551-0.871 7.312-1.438 4.618-0.823 8.368-1.603 12.376-4.062 4.529-2.626 8.296-3.565 13.339-4.688 2.941-0.803 5.297-1.869 7.973-3.312 4.488-2.404 8.784-3.51 13.73-4.621 3.742-1.006 7.193-2.392 10.77-3.879 5.497-2.281 10.798-3.909 16.59-5.219 4.164-1.118 8.005-2.82 11.926-4.597 3.594-1.426 7.234-2.248 10.984-3.184 2.639-0.942 5.264-1.922 7.875-2.938 4.429-1.694 8.81-3.339 13.375-4.624 3.734-1.13 7.067-2.389 10.625-3.938 5.008-2.159 9.898-3.549 15.238-4.629 2.887-0.871 2.887-0.871 6.239-2.836 5.059-2.822 10.182-3.709 15.808-4.91 3.84-1.125 3.84-1.125 6.774-3.125 5.088-3.319 10.856-3.774 16.754-4.875 4.306-1.123 6.684-2.662 10.312-5.125 3.551-0.871 3.551-0.871 7.312-1.438 5.639-1.004 9.593-2.334 14.379-5.374 2.901-1.493 5.678-2.044 8.871-2.688 4.308-0.874 6.539-1.565 10.313-4 5.103-3.093 9.71-3.677 15.531-4.691 3.236-0.729 5.27-1.5 8.032-3.247 5.126-3.24 10.7-4.177 16.554-5.523 4.691-1.216 8.919-2.985 13.336-4.949 3.778-1.541 7.693-2.225 11.672-3.09 1.597-0.698 3.181-1.428 4.75-2.188 5.4-2.302 5.4-2.302 9.25-0.812-1.564 5.521-3.499 10.034-6.5 14.938-2.273 3.742-3.994 7.081-5.125 11.312-1.375 4.75-1.375 4.75-3.875 8.688-2.18 3.542-3.02 5.591-3.938 9.5-0.956 4.007-2.135 6.66-4.624 9.937-3.926 5.347-4.358 11.158-4.938 17.625 19.793-3.167 19.793-3.167 27.062-8.062 3.083-2.034 5.24-2.584 8.813-3.376 4.149-0.932 6.43-1.753 10.125-4.062 4.37-2.732 7.968-3.591 12.934-4.691 3.977-1.049 7.442-2.762 11.132-4.551 4.422-1.896 9.01-3.015 13.672-4.168 3.594-1.201 6.125-2.987 9.262-5.09 2.388-0.913 4.808-1.744 7.25-2.5 5.246-1.672 10.33-3.488 15.41-5.602 2.5-0.96 5.009-1.685 7.59-2.398 4.75-1.5 4.75-1.5 7.625-3.5 3.178-2.034 5.358-2.632 9-3.438 4.149-0.932 6.43-1.753 10.125-4.062 4.27-2.669 7.604-3.483 12.445-4.555 5.937-1.578 11.563-3.948 17.258-6.226 2.826-1.13 5.67-2.215 8.531-3.25 3.766-1.469 3.766-1.469 6.336-3.035 3.013-1.778 5.92-2.509 9.305-3.372 5.294-1.438 9.368-3.331 14.125-6.062 1.968-0.522 3.949-0.997 5.938-1.438 4.118-0.932 6.346-1.742 10-4.062 4.638-2.855 8.603-3.697 13.914-4.629 3.645-1.008 6.027-2.763 9.148-4.871 3.051-1.02 3.051-1.02 6.312-1.812 7.171-1.917 13.858-4.598 20.68-7.504 2.707-1.138 5.444-2.207 8.203-3.211 3.805-1.473 3.805-1.473 6.41-3.075 2.883-1.683 5.432-2.169 8.707-2.773 5.815-1.239 9.657-3.431 14.688-6.625 3.023-0.855 6.061-1.513 9.129-2.188 2.871-0.812 2.871-0.812 6.809-3.312 4.638-2.855 8.603-3.697 13.914-4.629 3.645-1.008 6.027-2.763 9.148-4.871 3.051-1.02 3.051-1.02 6.312-1.812 7.171-1.917 13.858-4.598 20.68-7.504 2.707-1.138 5.444-2.207 8.203-3.211 3.805-1.473 3.805-1.473 6.41-3.075 2.883-1.683 5.432-2.169 8.707-2.773 5.815-1.239 9.657-3.431 14.688-6.625 3.025-0.856 6.066-1.514 9.137-2.188 2.863-0.812 2.863-0.812 6.675-3.312 4.17-2.489 6.732-3.13 11.438-3.938 6.369-1.112 11.27-3.019 16.926-6.085 3.554-1.858 7.182-3.165 10.965-4.477 4.319-1.511 8.573-3.185 12.839-4.84 2.496-0.959 5.006-1.877 7.52-2.785 3.5-1.375 3.5-1.375 5.832-2.844 2.919-1.675 5.615-2.514 8.856-3.406 5.172-1.52 9.677-3.457 14.425-5.973 3.154-1.522 6.36-2.407 9.731-3.324 4.147-1.293 8.048-3.127 11.992-4.937 2.664-0.891 2.664-0.891 6.664 0.109z" fill="#C81919"/>
<path transform="translate(1805.9 32.805)" d="m0 0c2.695-0.117 2.695-0.117 7.133 0.195 3.376 4.502 3.376 4.502 2.926 9.114-0.09 0.993-0.179 1.987-0.272 3.01-0.056 0.526-0.056 0.526-0.342 3.189-0.104 1.079-0.209 2.158-0.316 3.27-0.312 3.142-0.649 6.28-0.996 9.417-0.16 1.484-0.32 2.968-0.485 4.496-0.653 5.412-1.522 10.532-2.984 15.782-2.101 8.233-2.517 16.582-3.094 25.035-2.149 30.202-2.149 30.202-5.437 39.687-1.644 9.904-2.201 19.875-2.604 29.889-0.247 5.576-0.936 10.879-1.982 16.35-0.732 4.882-0.773 9.84-0.414 14.761 1 1 1 1 4.687 1.5 4.313-0.5 4.313-0.5 7.313-3.562 0.495-0.65 0.495-0.65 3-3.938 3.605-3.438 7.481-6.569 11.312-9.75 2.688-2.25 2.688-2.25 5.688-5.25 0.567-0.412 0.567-0.412 3.437-2.5 3.708-2.735 7.063-5.739 10.438-8.875 5.188-4.817 10.555-9.262 16.125-13.625 6.735-5.346 12.976-10.872 19-17 13.353-13.086 28.598-14.822 46.363-15.781 3.92-0.236 7.753-0.652 11.637-1.219 1 3 1 3 0.062 5.313-2.302 3-4.945 5.021-8.007 7.215-4.774 3.421-8.933 7.311-13.055 11.472-2.768 2.795-5.54 5.586-8.313 8.375-0.721 0.73-1.442 1.46-2.185 2.211-3.532 3.548-7.099 6.986-10.889 10.258-3.613 3.156-3.613 3.156-6.113 6.281-2.511 2.888-4.987 4.424-8.262 6.336-3.715 2.554-6.676 5.833-9.801 9.063-2.077 2.11-4.184 4.06-6.437 5.976-3.171 2.705-6.087 5.583-9 8.563-4.087 4.143-8.304 7.515-13 10.937-1.688 1.646-3.354 3.313-5 5-1.325 1.176-2.659 2.342-4 3.5-0.681 0.602-1.361 1.204-2.063 1.825-1.6 1.384-3.262 2.696-4.937 3.988-3.021 4.059-2.601 7.799-2 12.687 0.904 3.453 2.417 5.649 4.375 8.688 2.444 3.794 4 7.658 5.59 11.867 1.581 3.736 3.878 7.017 6.035 10.445 1 2.667 2 5.334 3 8 1.135 1.881 2.275 3.76 3.472 5.602 4.992 7.838 9.362 15.654 12.528 24.398l2.5 4c2.462 3.94 3.875 7.667 5.5 12l2.5 4c2.45 3.92 3.933 7.672 5.5 12 2 2 2 2 5.687 2.5 6.376-0.739 9.116-4.287 13.485-8.687 2.28-2.267 4.58-4.507 6.894-6.738 1.499-1.462 2.998-2.925 4.496-4.387 0.755-0.721 1.51-1.443 2.287-2.186 10.672-10.483 12.345-21.374 13.088-35.752 1.631-27.638 1.631-27.638 5.094-37.765 3.115-9.596 2.962-20.64 3.668-30.677 0.797-11.26 1.724-22.287 4.301-33.308 0.218-0.946 0.436-1.892 0.66-2.867 2.527-8.153 9.055-12.756 15.34-18.133 0.857-0.869 1.714-1.737 2.597-2.633 2.21-2.177 4.304-3.76 6.903-5.429 5.613-3.826 10.399-8.368 15.336-13.016 4.208-3.886 8.648-7.404 13.164-10.922 7.037-5.527 13.445-11.296 19.59-17.812 2.41-2.188 2.41-2.188 6.41-3.188 6.794 5.067 11.804 11.359 17 18 0.925 1.18 1.851 2.359 2.805 3.575 1.9 2.423 3.8 4.848 5.699 7.273 2.744 3.465 5.599 6.814 8.496 10.152 1.462 1.789 2.92 3.581 4.375 5.375 2.777 3.413 5.601 6.746 8.562 10 4.203 4.665 7.962 9.636 11.758 14.633 1.705 2.214 3.486 4.37 5.305 6.492 3.694 4.31 7.087 8.82 10.523 13.336 2.096 2.678 4.252 5.214 6.539 7.727 2.938 3.437 2.938 3.437 3.938 7.437-3.183 2.388-6.048 4.043-9.586 5.766-6.039 3.088-11.931 6.546-17.539 10.359-4.104 2.677-8.472 4.738-12.875 6.875-6.222 3.065-12.304 6.184-18.063 10.063-2.899 1.912-5.834 3.385-8.937 4.937-1.3 0.825-2.599 1.65-3.938 2.5-3.663 2.255-7.118 3.819-11.062 5.5-6.877 3.447-13.252 6.827-19 12-0.854 0.433-1.707 0.867-2.586 1.313-2.414 1.687-2.414 1.687-3.235 4.078-0.1 0.944-0.201 1.887-0.304 2.859-0.61 4.848-1.447 9.54-2.5 14.313-3.059 15.501-3.059 15.501 1.062 22.687 3.091 3.575 6.661 6.438 10.477 9.207 2.086 1.543 2.086 1.543 4.523 3.981 4.185 2.552 7.921 2.6 12.563 1.562 3.696-1.778 7.131-3.777 10.605-5.957 3.374-2.03 6.78-3.498 10.395-5.043 0.474-0.402 0.474-0.402 2.875-2.437 3.118-2.557 6.121-3.991 9.828-5.528 3.647-1.643 6.915-3.908 10.297-6.035 2.331-1.005 4.664-2.005 7-3 2.006-1.323 4.006-2.657 6-4 2.666-1.333 5.333-2.666 8-4l4-2.5c3.915-2.446 7.86-4.46 12-6.5 2.318-1.197 4.63-2.406 6.937-3.625 1.123-0.59 2.246-1.18 3.403-1.789 2.66-1.586 2.66-1.586 3.66-3.586 0.258-2.192 0.465-4.39 0.648-6.59 0.119-1.342 0.237-2.685 0.36-4.068 0.241-2.817 0.478-5.635 0.711-8.453 0.63-7.051 1.56-13.562 3.599-20.339 1.165-4.355 1.474-8.754 1.807-13.237 0.079-0.954 0.158-1.907 0.24-2.889 0.456-5.616 0.815-11.235 1.135-16.861 0.571-9.745 1.36-19.29 4.5-28.563 1.293-6.53 1.961-13.145 2.429-19.781 0.075-1.015 0.15-2.029 0.227-3.074 0.143-2.019 0.272-4.039 0.383-6.06 0.569-8.015 2.565-12.854 8.586-18.46 0.693-0.573 1.387-1.147 2.101-1.738 2.5-2.074 4.882-4.252 7.274-6.449 3.03-2.742 6.084-5.328 9.375-7.75 3.625-2.688 3.625-2.688 5.547-4.613 2.195-2.191 4.509-4.041 6.953-5.95 4.693-3.79 8.971-7.882 13.187-12.187 13.606-13.818 13.606-13.818 19.914-15.938 3.024 0 3.024 0 5.516 1.957 0.786 0.943 1.573 1.885 2.383 2.856 0.428 0.505 0.428 0.505 2.594 3.062 0.417 0.516 0.417 0.516 2.531 3.125 0.753 0.908 1.505 1.815 2.281 2.75 3.496 4.28 6.654 8.653 9.719 13.25 1.993 2.34 3.993 4.673 6 7 1.484 1.99 2.969 3.981 4.445 5.977 2.088 2.717 4.351 5.255 6.625 7.816 5.372 6.144 10.438 12.393 14.93 19.207 1.993 2.34 3.993 4.673 6 7 1.476 1.979 2.952 3.958 4.418 5.946 1.696 2.203 3.49 4.284 5.332 6.367 5.207 5.908 5.207 5.908 5.437 10.125-1.187 3.562-1.187 3.562-5.312 5.687-0.817 0.302-1.635 0.604-2.477 0.914-2.398 0.961-2.398 0.961-5.898 3.461-2.814 2.01-5.003 3.249-8.125 4.563-3.879 1.717-6.139 3.332-9.375 5.937-2.363 1.257-4.767 2.412-7.176 3.578-6.196 3.12-12.213 6.647-17.949 10.547-3.371 2.199-6.876 3.904-10.508 5.629-2.367 1.246-2.367 1.246-6.367 4.246-2.274 0.993-4.548 1.985-6.828 2.961-2.739 1.31-4.852 3.096-7.172 5.039l-6 3c-4.975 4.975-5.258 11.026-6.063 17.813-0.833 6.98-0.833 6.98-1.937 9.187-0.653 5.955-0.812 9.645 2.875 14.5 1.353 1.52 2.73 3.018 4.125 4.5 0.76 0.919 1.521 1.839 2.305 2.785 5.991 6.806 5.991 6.806 10.605 7.915 8.56 0.149 13.955-3.227 21.09-7.7 1.382-0.68 2.764-1.361 4.187-2.062 3.813-1.938 3.813-1.938 6.188-3.875 3.865-3.037 8.206-4.947 12.625-7.063 11.369-5.602 11.369-5.602 15.187-8.875 3.973-3.001 8.334-4.981 12.813-7.125 8.868-4.367 17.303-9.237 25.555-14.687 0.868-0.557 1.737-1.114 2.632-1.688 0.798-0.523 1.596-1.046 2.418-1.586 2.988-1.296 4.377-1.225 7.395-0.039 2.349 4.698 1.979 5.449 0.437 10.25-2.525 7.46-4.735 13.535-11.937 17.5-0.392 0.193-0.392 0.193-2.375 1.168-2.125 1.082-2.125 1.082-4.625 3.145-2.844 2.204-5.84 3.427-9.137 4.824-3.102 1.462-5.837 3.392-8.648 5.344-3.48 2.268-7.083 4.255-10.715 6.269-4.407 2.446-8.727 4.887-12.875 7.75-3.78 2.521-7.499 4.493-11.57 6.465-5.313 2.673-10.533 5.609-15.118 9.41-2.867 2.206-5.933 3.416-9.25 4.813-3.137 1.524-5.519 3.83-8.187 6.062-2.369 1.294-4.785 2.452-7.219 3.617-6.59 3.277-12.909 7.09-18.969 11.258-4.521 2.52-7.644 3.199-12.812 3.125-5.066-2.841-9.093-6.747-13.25-10.75-17.818-16.885-17.818-16.885-28.438-16.871-5.645 1.059-9.998 4.231-14.734 7.36-3.44 2.174-6.838 3.685-10.578 5.261-0.475 0.402-0.475 0.402-2.875 2.438-3.119 2.557-6.123 3.992-9.832 5.527-2.293 1.035-2.293 1.035-6.356 3.598-3.937 2.437-3.937 2.437-8.125 4-3.751 1.414-5.735 2.961-8.812 5.437-3 1.334-6 2.667-9 4-1.671 1.328-3.337 2.662-5 4-3.276 1.787-6.635 3.39-10 5-11.299 5.568-11.299 5.568-15.375 9-2.625 2-2.625 2-6 3.438-3.625 1.562-3.625 1.562-7 4.062-4.069 2.806-7.95 3.964-12.625 5.5-1.703 1.288-3.371 2.622-5 4-2.667 1.334-5.334 2.667-8 4-0.846 0.763-1.691 1.527-2.563 2.313-2.437 1.687-2.437 1.687-5.875 1.75-4.289-1.279-6.303-3.003-9.562-6.063-1.269-1.085-2.54-2.168-3.813-3.25-3.077-2.689-5.956-5.514-8.812-8.437-3.259-3.298-6.447-5.828-10.375-8.313-9.374-7.161-9.374-7.161-11.68-10.25-3.09-2.331-5.819-2.388-9.617-2.308-5.209 1.076-8.205 4.885-11.711 8.66-0.405 0.414-0.405 0.414-2.456 2.513-2.578 2.647-5.12 5.327-7.661 8.01-2.555 2.655-5.117 5.303-7.683 7.947-1.592 1.643-3.175 3.295-4.749 4.955-4.524 4.725-9.149 8.634-14.443 12.473-1.386 1.624-2.727 3.288-4 5-2.812 2.968-5.766 5.666-8.875 8.313-2.895 2.485-5.374 5.067-7.813 8-4.217 4.695-4.217 4.695-8.312 5.687-3-4-3-4-3.313-7.687-0.775-4.862-2.332-7.127-5.14-11.031-2.388-3.522-3.888-7.374-5.547-11.282-1.625-3.354-3.314-6.676-5-10-6.667-13.333-13.334-26.666-20-40-0.66-1.278-1.32-2.557-2-3.875-1.896-3.91-3.493-7.839-5.059-11.886-0.941-2.239-0.941-2.239-2.566-4.739-2.17-3.945-2.609-8.078-3.375-12.5h-8c-1.834 4.83-2.491 9.37-3 14.5-0.514 5.171-1.315 9.604-3 14.5-1.362 7.869-1.959 15.835-2.395 23.801-0.772 14.023-2.144 27.52-4.852 41.308-1.678 8.751-2.375 17.209-2.515 26.11-0.238 3.781-0.238 3.781-2.238 7.781-4.906-0.42-6.785-2.392-10-6-0.928-1.155-1.856-2.31-2.813-3.5-2.811-3.087-5.207-4.862-8.781-6.918-4.392-2.887-8.225-6.488-12.16-9.961-3.246-2.621-3.246-2.621-7.043-4.789-3.203-1.832-3.203-1.832-4.891-4.582-2.778-2.703-4.068-2.906-7.875-3.312-4.366 0.149-6.082 0.77-9.492 3.578-2.789 3.069-5.367 6.238-7.945 9.484-1.661 1.673-3.327 3.34-5 5-1.254 1.522-2.484 3.064-3.688 4.625-3.782 4.796-7.811 9.304-11.949 13.793-1.959 2.141-3.858 4.311-5.738 6.52-3.002 3.469-6.228 6.661-9.5 9.875-4.746 4.686-9.015 9.536-13.09 14.812-2.958 3.452-5.698 5.93-10.035 7.375-5.607-3.084-10.218-6.73-15-11-0.627-0.535-1.253-1.07-1.899-1.621-6.216-5.319-11.961-11.082-17.601-17.004-5.334-5.066-11.42-10.831-18.75-12.125-4.75 0.75-4.75 0.75-6.578 2.598-1.163 1.714-2.279 3.461-3.356 5.23-1.909 3.072-4.044 5.725-6.379 8.485-3.327 4-6.286 8.074-9.101 12.445-1.904 2.839-4.133 5.383-6.336 7.992-0.578 0.908-1.155 1.815-1.75 2.75-2.061 2.977-4.221 5.425-6.688 8.063-2.877 3.131-5.226 6.039-7.187 9.812-2.899 5.341-6.363 11.371-12.375 13.375-1.717-1.615-3.369-3.298-5-5-1.339-1.061-2.695-2.101-4.063-3.125-8.277-6.332-15.751-13.609-23.058-21.023-10.801-10.644-10.801-10.644-17.254-11.289-4.625 0.437-4.625 0.437-7.313 2.375-2.306 3.054-4.435 6.191-6.515 9.402-4.708 6.969-9.92 13.66-15.547 19.91-2.36 2.723-4.216 5.132-6.125 8.125-2.275 3.549-4.806 6.549-7.688 9.625-2.847 3.071-5.129 5.911-7.062 9.625-2.791 5.14-6.087 11.103-11.797 13.313-3.548 0.086-4.686-1.124-7.328-3.438-0.435-0.37-0.435-0.37-2.633-2.246-0.432-0.372-0.432-0.372-2.617-2.254-1.534-1.197-3.075-2.385-4.625-3.562-6.041-4.695-11.648-9.657-17-15.125-3.245-3.289-6.44-5.864-10.375-8.313-0.928-0.907-1.856-1.815-2.813-2.75-3.187-2.25-3.187-2.25-7.562-3.062-8.912 1.565-12.681 8.779-17.688 15.812-0.84 1.209-1.681 2.419-2.547 3.664-1.958 2.733-3.946 5.229-6.203 7.711-2.653 3.018-4.634 5.915-6.672 9.352-2.699 4.048-5.942 7.66-9.113 11.344-2.352 2.868-4.368 5.831-6.402 8.929-1.395 1.655-2.794 3.307-4.231 4.926-1.366 1.601-2.669 3.256-3.945 4.93-0.383 0.498-0.383 0.498-2.324 3.019-0.712 0.946-1.423 1.893-2.156 2.868-2.344 2.257-2.344 2.257-5.125 3.328-6.083-0.133-10.161-3.114-14.563-7.094-1.042-1.106-2.083-2.212-3.156-3.352-4.63-4.779-9.064-8.819-14.5-12.625-6.697-4.82-12.395-10.274-18.106-16.23-2.809-2.688-5.621-4.69-8.894-6.77-6.667-5.333-6.667-5.333-9-10 0.172-3.851 0.172-3.851 0.75-8.625 0.676-5.827 1.298-11.636 1.66-17.492 0.7-11.265 1.861-22.174 4.027-33.258 2.13-10.896 3.27-21.678 4.063-32.75 0.838-11.703 2.229-22.92 4.732-34.378 2.01-9.604 2.621-19.187 2.959-28.983 0.475-10.632 0.475-10.632 4.809-15.514 0.444-0.531 0.444-0.531 2.691-3.218 1.915-2.189 3.832-4.377 5.75-6.563 2.38-2.994 3.895-5.801 5.559-9.219 1.68-1.712 3.363-3.421 5.097-5.078 4.115-4.157 7.588-8.905 10.778-13.797 2.722-4.003 5.801-7.656 8.887-11.382 1.871-2.294 3.669-4.611 5.425-6.993 1.894-2.525 3.877-4.984 5.938-7.375 2.875-3.375 2.875-3.375 4.687-6.125 2.106-3.128 4.336-6.053 6.688-9 0.753-0.943 1.505-1.887 2.281-2.859 2.219-2.391 2.219-2.391 6.219-4.391 5.731 0.374 10.078 2.615 14.687 5.938 3.675 2.288 7.239 3.531 11.321 4.914 3.178 1.22 6.015 2.751 8.992 4.398 5.967 3.109 10.343 3.276 17 2.75 0.231-0.759 0.461-1.518 0.699-2.3 0.326-0.994 0.652-1.988 0.988-3.012 0.314-0.986 0.627-1.972 0.95-2.988 1.684-3.336 2.973-4.186 6.363-5.7 3.137-0.843 3.137-0.843 6.687-1.5 1.319-0.248 2.638-0.497 3.996-0.754 4.515-0.78 9.039-1.48 13.567-2.183 6.181-1 11.704-2.4 17.508-4.711 3.09-1.174 5.949-1.612 9.242-1.852 0.419-0.031 0.419-0.031 2.543-0.191 2.707-0.121 2.707-0.121 7.457 0.191 3.831 5.109 3.105 8.539 2.5 14.563-0.097 1.066-0.194 2.133-0.293 3.232-0.888 8.866-2.551 17.495-4.319 26.219-1.88 9.79-2.696 19.549-3.388 29.486-0.756 10.839-1.778 21.361-4 32-2.541 12.177-3.467 24.295-4.332 36.691-0.903 12.198-2.698 24.021-5.082 36.009-1.676 8.51-2.672 17.132-2.086 25.8 1.625 2.375 1.625 2.375 4 4 0.526 0.361 0.526 0.361 3.187 2.188 0.928 0.598 1.857 1.196 2.813 1.812l1 1c3.855 0.84 7.165 0.976 11 0 3.415-3.237 5.674-6.935 8-11 2.313-4.007 4.961-7.306 8.039-10.773 12.892-14.638 17.079-25.542 18.34-45.051 0.142-2.142 0.287-4.284 0.433-6.426 0.038-0.556 0.038-0.556 0.23-3.37 0.615-8.049 1.844-15.837 3.395-23.755 2.119-10.855 3.269-21.596 4.063-32.625 0.862-11.955 2.3-23.484 4.662-35.229 2.238-11.687 3-23.475 3.674-35.337 1.051-16.3 1.051-16.3 7.527-22.809 5.72-2.556 11.635-2.953 17.824-3.625 8.281-0.912 15.839-1.97 23.592-5.122 6.367-2.516 14.46-2.708 21.221-1.878l3 3c-0.25 3.75-0.25 3.75-1 8-0.779 4.701-1.139 9.307-1.291 14.068-0.433 13.455-1.411 27.108-5.709 39.932-1.739 10.265-2.265 20.688-2.938 31.063-0.769 11.68-2.33 22.707-5.06 34.102-0.948 4.575-1.473 8.941-1.819 13.597-0.124 1.613-0.248 3.227-0.377 4.889-0.123 1.679-0.246 3.358-0.369 5.037-0.247 3.317-0.5 6.633-0.754 9.949-0.107 1.461-0.215 2.923-0.326 4.428-0.305 3.362-0.784 6.612-1.357 9.935-0.19 3.039-0.31 6.082-0.375 9.125-0.049 1.57-0.098 3.14-0.149 4.758 0.524 4.117 0.524 4.117 2.903 6.563 0.865 0.513 1.73 1.026 2.621 1.554 0.763 0.578 1.526 1.155 2.312 1.75 4.056 1.887 6.257 2.11 10.688 1.25 4.456-4.113 7.548-9.273 10.75-14.375 2.607-4.087 5.783-7.124 9.312-10.437 12.355-12.079 12.935-27.506 13.875-43.938 0.761-11.869 2.394-23.031 5.075-34.625 1.473-7.419 1.772-14.968 2.3-22.5 0.949-12.551 2.489-24.725 4.915-37.068 2.163-11.332 2.862-22.663 3.576-34.161 1.147-16.846 1.147-16.846 5.197-20.896 3.348-0.764 6.617-1.393 10-1.937 11.473-1.987 11.473-1.987 16.5-4.125 6.098-2.522 12.556-3.076 19.066-3.811 5.098-0.614 8.958-1.633 13.434-4.127 3.25-0.312 3.25-0.312 6 0 2 2 2 2 2.009 4.587-0.053 0.533-0.053 0.533-0.326 3.234-0.054 0.586-0.054 0.586-0.332 3.551-0.058 0.599-0.058 0.599-0.351 3.628-0.162 2.143-0.317 4.286-0.465 6.43-2.151 29.611-2.151 29.611-4.215 37.006-2.564 9.212-3.233 18.36-3.883 27.877-2.065 29.02-2.065 29.02-4.968 39.48-2.14 8.035-2.429 16.253-2.969 24.52-0.682 10.345-1.575 20.353-3.848 30.483-1.359 6.674-1.85 12.712 1.348 18.892 3 3.312 3 3.312 6.871 3.836 5.039-0.639 6.044-1.702 9.191-5.586 4.414-5.198 8.965-10.089 13.813-14.875 0.63-0.626 1.261-1.252 1.91-1.897 2.647-2.627 5.298-5.247 7.965-7.853 1.988-2.043 3.701-4.074 5.375-6.375 1.941-2.659 3.9-5.304 5.875-7.938 0.676-3.204 0.676-3.204 1.097-6.961 0.162-1.358 0.324-2.717 0.491-4.117 0.078-0.709 0.078-0.709 0.474-4.297 0.319-2.8 0.643-5.599 0.973-8.398 0.069-0.621 0.069-0.621 0.418-3.763 0.529-3.348 1.425-6.275 2.547-9.464 1.458-9.265 2.064-18.646 2.699-27.997 0.807-11.856 2.08-23.318 4.301-35.003 1.773-9.378 3.146-18.514 3.437-28.062 0.352-11.145 2.178-21.916 4.053-32.89 2.288-13.678 3.779-27.358 4.811-41.184 1.502-19.922 1.502-19.922 3.695-27.145 1.215-4.502 1.672-8.964 2.066-13.594 0.084-0.922 0.168-1.843 0.254-2.793 0.506-5.731 0.883-11.461 1.184-17.207 0.601-10.959 1.905-21.529 4.781-32.129 1.051-4.38 1.574-8.81 2.094-13.281 0.625-2.715 0.625-2.715 3.625-5.715 3.641-0.795 7.197-1.446 10.875-2 2.098-0.337 4.196-0.676 6.293-1.019 1.01-0.165 2.019-0.329 3.06-0.499 3.358-0.584 6.653-1.342 9.959-2.169 6.882-1.666 13.645-2.029 20.68-2.508zm385.13 106.2c-0.164 3.773-0.281 7.538-0.375 11.313-0.255 8.276-0.818 16.331-2.188 24.5-1.205 7.214-1.725 13.885-1.437 21.187 7.745 0.564 13.374-1.099 19.5-6 2.5-2 2.5-2 6.75-3.75 5.489-2.361 9.992-5.57 13.75-10.25 1.062-4 1.062-4 0-8-1.791-2.231-3.723-4.088-5.848-6.004-3.195-2.963-5.618-6.475-8.152-9.996-7.967-10.815-7.967-10.815-13-14-7.36-0.64-7.36-0.64-9 1zm-188 43c-4.158 12.713-4.003 26.873-4.751 40.1-0.232 2.705-0.713 5.243-1.249 7.9-0.079 2.666-0.089 5.335 0 8 1 1 1 1 4.75 1.313 4.862-0.358 5.703-1.198 9.25-4.313 2.993-1.349 5.993-2.682 9-4 2.006-1.323 4.006-2.657 6-4 1.68-0.826 3.369-1.638 5.062-2.437 4.072-2.027 7.277-3.749 9.938-7.563 0.488-3.812 0.488-3.812 0-8-2.528-2.949-2.528-2.949-5.938-5.687-5.777-4.96-9.961-9.913-14.062-16.305-2.154-3.239-4.328-6.177-7-9.008-6.044-0.915-7.224-1.035-11 4zm-682 103c-2.104 4.208-2.497 6.981-2.965 11.625-0.161 1.512-0.321 3.024-0.486 4.582-0.321 3.164-0.642 6.328-0.961 9.493-1.392 13.099-1.392 13.099-3.119 19.281-2.175 7.961-2.472 16.128-3.032 24.332-2.064 29.009-2.064 29.009-4.965 39.48-2.138 8.036-2.471 16.252-3.035 24.52-2.162 30.382-2.162 30.382-5.437 39.687-0.625 3-0.625 3-1 7-0.159 1.035-0.317 2.071-0.481 3.137-0.554 5.928-0.555 9.451 3.051 14.367 10.245 10.257 10.245 10.257 16.43 10.934 4-0.438 4-0.438 5.687-2.438 0.433-0.99 0.867-1.98 1.313-3 3.476-6.215 7.512-10.597 12.629-15.539 3.123-3.242 5.149-6.556 7.371-10.461 0.99-1.32 1.98-2.64 3-4 2.408-7.513 3.44-15.426 4.465-23.226 0.586-4.137 1.345-8.227 2.097-12.336 1.112-6.518 1.679-12.9 1.875-19.5 0.432-13.661 2.86-27.03 5.422-40.434 2.103-11.342 2.866-22.621 3.495-34.133 0.036-0.648 0.036-0.648 0.216-3.929 0.06-1.169 0.119-2.337 0.18-3.541 0.25-2.901 0.25-2.901 1.25-5.901 0.663-4.375 0.927-7.545-1.516-11.379-5.249-5.744-11.017-8.558-18.25-11.234-3.295-1.413-5.506-3.093-8.234-5.387-3.847-1.923-5.484-2.319-9.625-2.375-0.481-0.014-0.481-0.014-2.914-0.086-0.812 0.152-1.624 0.305-2.461 0.461z" fill="#C81919"/>
<path transform="translate(340,177)" d="m0 0 4 2c0.41 2.983 0.41 2.983 0.277 6.824-0.042 1.41-0.084 2.82-0.128 4.273-0.035 0.757-0.035 0.757-0.211 4.591-0.03 0.771-0.03 0.771-0.181 4.678-0.503 11.434-1.564 22.669-3.341 33.969-0.586 3.755-1.116 7.517-1.649 11.279-0.251 1.768-0.505 3.535-0.765 5.301-1.404 9.6-2.162 18.894-2.127 28.585-4e-3 1.096-8e-3 2.191-0.012 3.32 2e-3 1.039 3e-3 2.078 4e-3 3.149 1e-3 0.943 2e-3 1.886 4e-3 2.857 0.129 2.174 0.129 2.174 1.129 3.174 3 0.688 3 0.688 7 0 2.448-2.258 4.493-4.717 6.621-7.277 3.659-4.188 7.978-7.357 12.379-10.723 6.042-4.784 11.793-9.639 17.172-15.16 3.876-3.901 8.077-7.293 12.516-10.528 4.749-3.5 8.963-7.548 13.277-11.562 3.514-3.184 7.178-6.114 10.914-9.031 2.121-1.719 2.121-1.719 4.996-4.594 2.125-2.125 2.125-2.125 6.125-4.125 0.695 0.697 1.39 1.395 2.105 2.113 1.972 1.966 3.954 3.922 5.946 5.867 7.173 7.053 13.635 14.228 19.637 22.286 11.668 15.449 11.668 15.449 17.894 17.644 3.872 0.327 6.335-0.099 9.473-2.449 1.342-1.353 2.638-2.751 3.894-4.184 2.132-2.367 4.357-4.252 6.863-6.215 0.42-0.329 0.42-0.329 2.543-1.996 0.437-0.341 0.437-0.341 2.645-2.066 6.037-4.791 11.792-9.638 17.172-15.16 4.513-4.542 9.518-8.351 14.66-12.141 3.395-2.661 6.522-5.608 9.703-8.519 3.339-2.953 6.878-5.537 10.465-8.18l3-3c1.89-1.658 3.782-3.315 5.68-4.965 3.345-2.934 6.634-5.928 9.925-8.922 1.633-1.441 3.305-2.838 5.008-4.195 2.387-1.918 2.387-1.918 5.387-4.918l3-1c3.996 1.998 5.863 3.986 8.691 7.344 2.359 2.713 4.815 5.318 7.294 7.922 6.07 6.383 11.647 12.883 16.831 20.027 2.187 2.711 4.432 4.595 7.184 6.707 2.407 2.63 4.71 5.275 7 8 0.673 0.727 1.346 1.454 2.039 2.203 3.29 3.749 4.927 5.7 5.086 10.797-0.341 1.674-0.722 3.34-1.125 5-2.397 11.915-3.69 23.695-4.5 35.812-1.009 14.086-2.367 27.947-5.002 41.832-1.487 8.209-2.017 16.344-2.436 24.668-0.563 9.982-1.264 19.898-2.562 29.813-0.119 0.922-0.237 1.844-0.359 2.794-0.636 4.579-1.655 8.719-3.141 13.081-1.502 8.964-2.099 17.99-2.438 27.062-0.56 14.452-2.294 28.818-5.124 43-2.001 10.699-2.339 21.549-2.973 32.395-0.368 6.216-0.829 12.411-1.465 18.605-0.144 1.415-0.289 2.829-0.438 4.286-0.562 3.652-0.562 3.652-1.531 6.449-1.518 4.715-1.97 9.481-2.531 14.391-0.129 1.092-0.258 2.184-0.391 3.309-0.921 8.093-1.562 16.189-2.109 24.315-0.817 12.106-2.279 23.966-4.506 35.9-1.444 8.003-2.008 15.925-2.432 24.038-0.583 9.977-1.326 19.894-2.562 29.812-0.119 0.974-0.237 1.948-0.359 2.951-0.62 4.727-1.591 8.993-3.141 13.487-1.495 8.922-2.097 17.907-2.438 26.938-0.332 8.412-1.027 16.755-1.937 25.124-0.114 1.125-0.228 2.25-0.345 3.408-0.121 1.053-0.242 2.106-0.366 3.19-0.104 0.935-0.207 1.869-0.314 2.832-0.6 2.508-0.6 2.508-3.6 6.508-3.375 0.125-3.375 0.125-7-1-1.727-1.948-3.388-3.956-5-6-1.903-1.226-3.811-2.447-5.766-3.59-2.556-1.613-4.833-3.434-7.172-5.348-3.872-3.164-7.842-5.972-12.035-8.691-2.845-1.924-5.405-4.157-8.027-6.371-0.887-0.577-1.774-1.155-2.688-1.75-14.2-9.646-14.2-9.646-18.312-16.25-0.242-3.258-0.242-3.258 0.125-7.125 0.129-1.499 0.258-2.998 0.391-4.543 0.079-0.84 0.158-1.679 0.24-2.544 0.27-3.09 0.472-6.181 0.666-9.276 0.892-13.947 2.461-27.427 5.084-41.162 1.447-8.021 2.007-15.968 2.432-24.1 0.583-9.977 1.326-19.894 2.562-29.812 0.119-0.974 0.237-1.948 0.359-2.951 0.62-4.727 1.591-8.993 3.141-13.487 1.667-9.948 2.198-19.966 2.608-30.026 0.986-22.836 0.986-22.836 3.365-29.836 3.7-11.301 3.63-23.998 4.465-35.763 1.046-14.15 2.429-28.088 5.066-42.041 1.446-8.001 1.971-15.909 2.371-24.022 0.84-14.876 2.804-29.378 5.647-43.996 1.599-8.672 2.124-17.39 2.683-26.177 0.856-13.29 1.816-26.323 5.025-39.291 1.159-5.792 1.851-10.712-0.875-16.098-0.715-0.908-1.43-1.815-2.167-2.75-0.354-0.464-0.354-0.464-2.145-2.812-2.928-3.136-4.966-3.179-9.231-3.688-6.14 0.638-8.679 3.298-12.812 7.5-1.594 1.469-3.199 2.927-4.812 4.375-0.844 0.761-1.687 1.521-2.555 2.305-5.349 4.713-10.924 9.155-16.492 13.605-5.02 4.042-9.736 8.167-14.223 12.793-3.149 3.156-6.542 6.012-9.918 8.922-3.005 3.005-2.851 6.091-3.5 10.25-0.257 1.627-0.513 3.254-0.777 4.93-0.76 5.069-1.507 10.139-2.196 15.218-0.301 2.058-0.621 4.113-0.997 6.158-1.476 8.139-2.042 16.19-2.468 24.444-0.793 13.701-2.044 27.114-5.089 40.523-2.351 10.817-3.022 21.879-3.473 32.915-1.034 25.287-1.034 25.287-3.473 32.398-1.525 4.698-1.967 9.456-2.527 14.352-0.129 1.092-0.258 2.184-0.391 3.309-0.921 8.093-1.562 16.189-2.109 24.315-0.817 12.106-2.274 23.97-4.508 35.903-1.445 7.984-1.967 15.876-2.367 23.973-0.737 12.998-2.381 25.597-4.627 38.408-2.178 12.7-3.678 25.312-4.157 38.188-0.233 6.076-0.66 12.104-1.279 18.154-0.153 1.504-0.306 3.008-0.464 4.558-0.598 4.004-0.598 4.004-1.571 6.84-1.525 4.698-1.967 9.456-2.527 14.352-0.064 0.546-0.064 0.546-0.391 3.309-0.921 8.093-1.562 16.189-2.109 24.315-0.829 12.284-2.344 24.305-4.602 36.415-1.445 7.832-1.798 15.603-2.054 23.55-0.52 6.381-0.52 6.381-2.344 9.223-2.387 1.035-2.387 1.035-5 1-1.957-1.441-1.957-1.441-3.812-3.562-4.518-4.867-9.132-8.974-15.188-11.876-3.347-1.743-5.874-4.005-8.656-6.531-3.695-3.202-7.647-6.049-11.578-8.953-2.103-1.58-4.139-3.248-6.141-4.953-2.625-2.125-2.625-2.125-5.5-3.5-5.766-2.998-10.215-6.804-13.125-12.625 0.285-3.672 0.285-3.672 1-8 0.226-1.49 0.451-2.98 0.684-4.516 0.248-1.562 0.497-3.124 0.754-4.734 0.378-2.388 0.757-4.776 1.135-7.165 0.295-1.787 0.61-3.571 0.94-5.352 1.444-7.967 1.963-15.841 2.362-23.921 0.841-14.892 2.842-29.388 5.645-44.027 1.975-10.837 2.504-21.805 3.248-32.781 0.88-12.093 2.629-23.864 4.84-35.779 1.396-7.793 1.877-15.511 2.267-23.413 0.841-14.892 2.842-29.388 5.645-44.027 1.975-10.837 2.504-21.805 3.248-32.781 0.88-12.093 2.629-23.864 4.84-35.779 1.396-7.793 1.877-15.511 2.267-23.413 0.844-14.937 2.893-29.454 5.658-44.143 1.465-8.136 2.059-16.234 2.529-24.481 0.156-2.622 0.313-5.243 0.473-7.864 0.066-1.144 0.132-2.287 0.2-3.466 0.275-3.483 0.758-6.902 1.265-10.358 0.135-2.373 0.219-4.749 0.25-7.125 0.026-1.178 0.052-2.356 0.078-3.57-0.36-3.627-1.244-5.364-3.328-8.305-0.681-1.093-1.361-2.186-2.062-3.312-3.154-2.885-3.872-3.17-7.938-3.376-3.634 0.231-4.719 0.461-7.625 2.813-0.784 0.949-1.567 1.898-2.375 2.875-1.877 1.383-3.754 2.765-5.637 4.141-2.887 2.272-5.547 4.733-8.238 7.234-5.188 4.817-10.556 9.262-16.125 13.625-6.348 5.056-12.373 10.148-18 16-0.908 0.804-1.815 1.609-2.75 2.438-8.715 9.925-7.74 27.14-8.562 39.562-0.873 12.436-2.29 24.511-4.851 36.727-1.909 9.546-2.661 19.07-3.337 28.773-0.755 10.839-1.778 21.36-4 32-2.89 13.862-3.842 27.784-4.824 41.891-0.728 9.922-1.539 19.788-4.203 29.402-2.139 8.036-2.471 16.252-3.035 24.519-2.153 30.25-2.153 30.25-5.438 39.688-1.739 10.264-2.265 20.687-2.938 31.062-0.669 10.185-1.936 19.947-4.062 29.938-0.722 4.325-1.371 8.66-2 13-0.177 1.084-0.353 2.168-0.535 3.285-0.547 4.374-0.656 8.684-0.777 13.09-0.533 14.015-3.042 27.704-5.583 41.473-1.399 7.768-2.297 15.326-2.543 23.214-0.438 13.826-3 27.306-5.457 40.891-1.634 9.244-2.502 18.067-2.699 27.449-0.406 3.598-0.406 3.598-3.406 6.598-2.375 0.062-2.375 0.062-5-1-0.382-0.464-0.382-0.464-2.312-2.812-3.173-3.763-6.31-5.034-10.688-7.188-1.333-1.667-2.667-3.333-4-5-2.649-1.367-5.317-2.699-8-4-2.041-1.616-4.041-3.286-6-5-1.953-1.473-3.907-2.945-5.871-4.402-2.959-2.221-5.853-4.522-8.758-6.813-2.495-1.878-5.073-3.572-7.683-5.285-4.302-3.035-6.924-5.377-8.688-10.5-0.058-4.063 0.459-7.979 1-12 0.153-1.958 0.299-3.916 0.438-5.875 0.206-2.874 0.576-5.165 1.521-7.899 3.694-11.451 3.683-24.255 4.541-36.164 2.209-30.573 2.209-30.573 5.5-40.062 1.667-9.948 2.198-19.966 2.608-30.026 0.986-22.836 0.986-22.836 3.365-29.837 3.729-11.389 3.672-24.219 4.527-36.075 2.209-30.573 2.209-30.573 5.5-40.062 1.519-9.065 2.125-18.203 2.5-27.375 1.057-25.546 1.057-25.546 4-35 3.172-10.41 3.218-21.969 3.891-32.781 0.733-11.359 1.925-22.353 4.109-33.532 2.206-11.318 3.174-22.424 3.764-33.931 0.621-11.342 2.247-22.347 4.234-33.519 0.809-4.612 1.539-9.235 2.252-13.862 0.121-0.763 0.121-0.763 0.734-4.625 0.534-4.525 0.744-8.824 0.516-13.375-2-2-2-2-5.75-2.562-5.982 0.096-10.661 2.947-15.82 5.738-3.413 1.815-6.869 3.325-10.43 4.824-1.654 0.796-3.301 1.607-4.938 2.438-0.852 0.43-1.704 0.861-2.582 1.304-0.818 0.415-1.637 0.83-2.48 1.258l-72 36c-1.299 0.681-2.599 1.361-3.938 2.062-4.062 1.938-4.062 1.938-8.562 3.376-4.5 1.562-4.5 1.562-8.5 4.062-4.24 2.65-8.268 3.945-13 5.5l-3 2c-3 2-3 2-7.375 3.438-4.805 1.623-8.369 3.835-12.625 6.562-3 1.333-6 2.667-9 4-1.43 0.895-2.848 1.812-4.25 2.75-3.75 2.25-3.75 2.25-8.75 2.25l-1-2c2.081-4.162 4.086-5.743 7.793-8.407 3.491-2.52 6.808-5.249 10.145-7.968 0.695-0.566 1.39-1.132 2.106-1.715 5.838-4.773 11.678-9.568 16.964-14.957 2.383-2.336 5.033-4.212 7.719-6.183 2.541-1.978 4.898-4.096 7.273-6.27 4.157-3.804 8.467-7.16 13-10.5l3-3c1.897-1.664 3.794-3.326 5.699-4.98 2.419-2.124 4.797-4.289 7.176-6.458 4.881-4.403 9.967-8.49 15.125-12.562 10.506-8.373 10.506-8.373 14.688-12.688 3.517-3.517 7.303-6.4 11.312-9.312 1.568-1.18 3.131-2.367 4.688-3.562 0.705-0.538 1.41-1.076 2.136-1.629 2.558-2.127 4.838-4.443 7.176-6.809 2.301-2.199 4.615-4.386 6.938-6.562 1.184-1.116 2.369-2.231 3.589-3.379 3.054-2.69 6.078-4.84 9.473-7.059 2.127-1.743 4.231-3.515 6.312-5.312 3.667-3.141 7.327-6.228 11.188-9.126 7.171-5.484 13.811-11.779 20.109-18.238 2.206-2.144 4.313-3.731 6.891-5.386 5.613-3.826 10.399-8.368 15.336-13.016 4.209-3.887 8.651-7.4 13.164-10.922 6.355-5.059 12.315-10.202 18-16 1.652-1.352 3.315-2.69 5-4l3-3c1.176-0.866 2.351-1.733 3.562-2.625 3.352-2.47 6.431-5.125 9.5-7.937 3.795-3.475 7.72-6.485 11.938-9.438 1.351-1.315 2.691-2.643 4-4l2-1z" fill="#C81919"/>
<path transform="translate(885,192)" d="m0 0c3.759 5.013 3.224 6.911 2.812 13.062-0.057 0.881-0.115 1.761-0.174 2.668-0.19 2.759-0.409 5.514-0.638 8.27-0.069 0.864-0.138 1.727-0.208 2.617-1.257 15.232-1.257 15.232-3.292 21.758-2.287 7.537-2.572 15.44-3.219 23.252-0.564 6.773-1.171 13.542-1.781 20.311-0.059 0.696-0.059 0.696-0.359 4.221-0.06 0.659-0.06 0.659-0.36 3.993-0.051 0.588-0.051 0.588-0.31 3.563-0.474 3.303-1.393 6.136-2.471 9.285-0.327 1.883-0.599 3.777-0.816 5.676-0.124 1.066-0.248 2.132-0.375 3.23-0.123 1.124-0.245 2.248-0.371 3.406-0.067 0.585-0.067 0.585-0.401 3.541-0.685 6.238-1.214 12.438-1.475 18.709-0.605 12.749-2.797 25.627-5.609 38.071-1.562 7.662-1.753 15.519-2.265 23.305-0.794 11.345-1.849 22.473-4.188 33.624-2.897 13.841-3.844 27.742-4.824 41.829-0.727 9.902-1.52 19.756-4.207 29.343-2.219 8.335-2.444 16.944-2.969 25.516-1.685 27.306-1.685 27.306-5.5 38.75-2.262 14.472-2.262 14.472 1.346 20.099 5.089 5.804 11.029 11.581 18.904 12.276 5.569-0.44 7.027-1.314 10.75-5.375 1.179-1.833 2.351-3.672 3.449-5.555 2.742-4.324 5.988-8.274 9.149-12.297 2.402-3.148 2.402-3.148 4.461-6.296 1.941-2.852 1.941-2.852 4.089-4.735 2.704-3.091 2.864-5.967 3.477-9.992 0.119-0.759 0.119-0.759 0.723-4.598 0.107-0.747 0.107-0.747 0.652-4.527 0.092-0.628 0.092-0.628 0.559-3.809 0.314-2.183 0.62-4.368 0.914-6.554 0.3-2.075 0.621-4.147 1-6.208 1.457-8.036 2-15.967 2.402-24.117 0.738-13.006 2.383-25.612 4.631-38.43 2.369-13.828 3.795-27.67 4.795-41.658 1.496-20.69 1.496-20.69 3.695-27.15 3.608-11.049 3.313-23.777 3.487-35.318 0.25-9.361 0.25-9.361 3.517-12.756 3.109-1.258 3.109-1.258 6.75-2.125 3.728-0.912 7.078-1.796 10.57-3.402 4.534-1.815 8.995-2.358 13.805-2.911 8.29-1.057 15.99-2.711 23.875-5.562 4.089-1.363 7.717-1.181 12-1 2 2 2 2 2.091 4.847-0.075 1.203-0.15 2.406-0.228 3.645-0.04 0.668-0.04 0.668-0.246 4.047-0.1 1.431-0.201 2.862-0.305 4.336-0.097 1.455-0.194 2.91-0.295 4.408-0.879 12.308-2.403 24.304-4.728 36.424-1.952 10.458-3.085 20.812-3.851 31.418-2.201 29.556-2.201 29.556-5.438 38.875-1.5 8.95-2.078 17.941-2.375 27-0.429 12.174-2.521 24.023-4.625 36-1.514 8.685-2.589 17.186-3 26-0.033 0.631-0.033 0.631-0.199 3.824-0.038 1.234-0.075 2.467-0.113 3.738-0.038 1.116-0.075 2.231-0.114 3.379 0.807 5.797 4.992 8.722 9.426 12.121 2.543 1.958 4.862 3.788 7.035 6.153 1.965 1.785 1.965 1.785 6.403 2.285 4.943-0.542 6.341-0.831 9.562-4.5 1.206-2.151 2.407-4.307 3.543-6.496 2.14-3.677 4.836-6.816 7.59-10.047 3.825-5.034 5.25-9.373 5.711-15.656 0.112-1.375 0.224-2.75 0.34-4.166 0.104-1.427 0.208-2.853 0.316-4.323 0.635-8.561 1.331-16.638 3.822-24.872 1.067-3.839 1.358-7.665 1.678-11.628 0.157-1.813 0.315-3.627 0.473-5.441 0.176-2.124 0.352-4.247 0.527-6.371 0.465-5.543 0.948-11.084 1.438-16.625 0.055-0.676 0.055-0.676 0.333-4.094 0.609-6.871 1.579-13.202 3.553-19.808 1.053-3.853 1.355-7.688 1.676-11.661 0.157-1.813 0.315-3.627 0.473-5.441 0.176-2.124 0.352-4.247 0.527-6.371 0.465-5.543 0.948-11.084 1.438-16.625 0.11-1.351 0.22-2.702 0.333-4.094 0.609-6.871 1.579-13.202 3.553-19.808 1.053-3.853 1.355-7.688 1.676-11.661 0.075-0.856 0.15-1.712 0.227-2.595 0.386-4.417 0.742-8.836 1.101-13.256 0.358-4.363 0.734-8.724 1.11-13.086 0.11-1.418 0.22-2.836 0.333-4.298 0.058-0.663 0.058-0.663 0.35-4.022 0.049-0.596 0.049-0.596 0.295-3.61 0.584-2.945 0.584-2.945 3.584-5.945 3.555-1.629 7.289-2.777 11-4 1.076-0.358 2.151-0.716 3.26-1.085 8.12-2.608 15.93-4.098 24.388-5.2 5.646-0.928 10.79-2.716 16.164-4.633 3.759-1.276 7.214-2.007 11.188-2.082l4 2 1 3c-0.226 0.441-0.226 0.441-1.371 2.672-1.946 3.976-2.291 7.172-2.691 11.578-0.079 0.818-0.158 1.636-0.24 2.479-0.445 4.778-0.789 9.559-1.089 14.349-0.903 13.994-2.739 27.492-5.488 41.246-1.321 6.617-2.195 12.986-2.412 19.744-0.433 13.459-1.42 27.1-5.709 39.932-1.651 9.954-2.26 20.071-3 30.125-1.785 24.092-1.785 24.092-4.625 33.625-1.786 6.105-3.003 12.885-0.145 18.793 5.119 7.107 12.782 12.308 19.77 17.457l3 3c5.016 0.752 7.269 0.496 11.5-2.375 1.196-1.179 2.361-2.391 3.5-3.625 0.332-0.336 0.332-0.336 2.01-2.036 6.3-6.997 7.487-13.129 8.302-22.339 0.261-2.488 0.528-4.975 0.801-7.461 0.131-1.21 0.262-2.421 0.397-3.668 0.462-3.298 1.162-6.375 2.037-9.586 1.702-6.351 2.075-12.551 2.391-19.098 0.895-15.066 2.879-29.907 6.128-44.652 1.281-6.312 1.52-12.679 1.872-19.098 1.599-25.891 1.599-25.891 5.097-37.496 1.155-4.267 1.533-8.347 1.903-12.754 0.166-1.868 0.334-3.737 0.503-5.605 0.045-0.499 0.045-0.499 0.27-3.025 1.307-14.412 2.637-28.82 5.289-43.057 0.154-0.843 0.308-1.686 0.466-2.555 0.912-4.594 2.023-8.594 4.534-12.57 7.095-3.941 14.501-4.789 22.441-5.852 7.734-1.067 15.522-2.629 22.559-6.148 3-0.188 3-0.188 6 0 2 2 2 2 2.203 6.453-0.114 5.488-0.706 10.863-1.453 16.297-0.066 0.499-0.066 0.499-0.4 3.022-0.921 6.73-2.108 13.377-3.412 20.04-1.555 7.978-2.377 15.829-2.876 23.938-0.547 8.884-1.712 17.358-3.562 26.062-2.243 10.604-3.225 21.001-3.832 31.813-1.295 22.482-1.295 22.482-4.695 32.359-2.979 9.235-2.954 19.754-3.411 29.391-1.592 28.445-10.504 41.858-30.5 61.5-4.773 4.701-8.875 9.906-13.062 15.125-1.987 2.345-3.986 4.679-6 7-0.969 1.155-1.939 2.31-2.938 3.5-4.322 4.956-9.041 9.529-13.732 14.133-3.354 3.309-6.418 6.67-9.33 10.367-0.387 0.381-0.387 0.381-2.344 2.309-3.96 4.012-7.361 8.469-10.84 12.896-2.979 3.733-5.799 7.165-9.816 9.795-4.076-0.166-6.301-1.15-10-3-1.333-1.667-2.667-3.333-4-5-3.435-3.225-7.022-6.245-10.75-9.125-2.25-1.875-2.25-1.875-4.062-4.25-2.343-2.811-4.949-4.81-7.899-6.953-2.552-1.864-5.052-3.783-7.539-5.734-0.81-0.631-1.619-1.261-2.453-1.911-2.297-2.027-2.297-2.027-4.363-4.715-1.934-2.312-1.934-2.312-5.622-3.25-6.58 1.431-9.322 5.756-13.312 10.938-0.581 0.737-1.163 1.475-1.762 2.234-2.204 2.866-4.262 5.802-6.238 8.828-2 2.938-2 2.938-4.938 6.313-2.556 3.027-4.55 5.999-6.578 9.383-2.514 3.797-5.498 7.21-8.414 10.703-2.227 2.731-4.132 5.598-6.07 8.539-0.969 1.114-1.939 2.227-2.938 3.375-2.554 3.024-4.547 5.991-6.57 9.375-2.532 3.818-5.54 7.247-8.504 10.734-1.988 2.516-1.988 2.516-3.988 6.516l-4 1c-2.819-2.255-5.392-4.522-8-7-1.264-1.132-2.535-2.258-3.812-3.375-0.667-0.585-1.333-1.17-2.02-1.773-2.348-2.006-4.755-3.926-7.168-5.852-4.903-3.976-9.488-8.219-14.062-12.562-5.764-5.467-11.633-10.598-17.938-15.438-1.835-1.477-3.669-2.956-5.5-4.438-3.954-3.197-5.695-4.458-10.875-5.124-1.526 0.185-3.053 0.371-4.625 0.562-2.188 3.562-2.188 3.562-4 8-1.976 2.354-3.976 4.687-6 7-1.157 1.896-2.313 3.793-3.453 5.699-1.984 2.951-4.244 5.593-6.547 8.301-3.823 4.498-6.982 8.941-10 14-1.307 1.687-2.642 3.354-4 5-3.292 4.222-6.266 8.362-8.938 13-2.423 4.143-5.149 7.595-8.406 11.109-1.656 1.891-1.656 1.891-4.218 5.829-2.438 3.062-2.438 3.062-5.438 4.312-4.2-0.35-5.134-2.189-8-5.25-1.641-1.041-3.311-2.038-5-3-3.937-2.281-6.939-4.59-10-8-2.957-3.21-5.955-5.705-9.562-8.125-5.35-3.625-9.872-7.907-14.481-12.422-3.169-2.629-6.181-3.877-9.957-5.453-0.784-1.052-1.567-2.104-2.375-3.188-2.625-2.812-2.625-2.812-7.063-3.624-5.94 1.057-7.137 2.941-10.562 7.812-1.011 1.299-2.021 2.599-3.062 3.938-1.989 2.676-3.733 5.342-5.5 8.187-2.257 3.588-4.731 6.626-7.438 9.875-0.722 1.196-1.444 2.392-2.188 3.625-2.273 3.768-4.963 7.023-7.812 10.375-3.823 4.498-6.982 8.941-10 14-1.307 1.687-2.642 3.354-4 5-3.287 4.196-6.06 8.019-8.375 12.812-2.625 4.188-2.625 4.188-6.437 6.626-4.555 0.611-5.023 0.488-8.5-2.063-2.272-2.079-4.51-4.197-6.688-6.375-0.454-0.206-0.454-0.206-2.75-1.25-3.408-1.835-5.67-4.066-8.328-6.848-4.181-4.138-8.941-7.664-13.922-10.777-2.834-2.008-4.924-4.058-7.312-6.563-3.01-3.116-5.691-5.31-9.563-7.25-4.482-2.512-5.746-3.441-7.125-8.312-0.245-7.855 0.399-15.508 1.25-23.312 0.131-1.221 0.263-2.442 0.398-3.7 1.055-9.338 2.59-18.494 4.485-27.695 1.245-6.166 1.956-12.069 2.158-18.361 0.433-13.459 1.42-27.1 5.709-39.932 1.257-7.578 1.907-15.247 2.395-22.91 0.821-12.735 2.36-24.996 4.781-37.528 2.153-11.514 2.9-23.005 3.622-34.679 1.022-14.607 1.022-14.607 3.181-20.602 1.121-3.603 1.547-6.937 1.916-10.691 0.151-1.402 0.302-2.804 0.459-4.248 0.306-2.939 0.6-5.879 0.882-8.821 0.156-1.4 0.311-2.801 0.471-4.244 0.129-1.276 0.257-2.552 0.39-3.867 1.102-4.161 2.524-5.79 5.903-8.41 3.528-0.721 6.751-1.192 10.312-1.5 6.829-0.745 13.049-1.698 19.563-4 6.914-2.36 13.72-3.547 20.937-4.5 1.058-0.149 2.116-0.298 3.205-0.451 2.648-0.319 5.318-0.449 7.983-0.549 3 3 3 3 4 7-0.098 2.416-0.098 2.416-0.418 5.121-0.118 1.008-0.236 2.017-0.358 3.055-0.068 0.538-0.068 0.538-0.412 3.262-0.067 0.553-0.067 0.553-0.411 3.354-1.151 9.014-2.723 17.907-4.534 26.81-1.314 6.663-2.004 13.167-2.412 19.934-0.644 10.288-1.811 20.192-3.955 30.276-2.244 10.61-3.223 21.011-3.834 31.828-0.777 13.414-2.738 26.454-6.018 39.501-2.016 8.894-2.247 18.031-2.81 27.105-0.469 7.035-1.22 13.929-2.383 20.885-0.726 4.577-1.027 8.226-0.455 12.869 3.25 3.312 3.25 3.312 7 6 0.598 0.949 1.196 1.898 1.812 2.875 2.188 2.125 2.188 2.125 6.938 3 3.367-0.159 4.877-0.579 7.539-2.687 3.689-4.09 6.727-8.567 9.711-13.188 1.031-1.341 2.074-2.674 3.125-4 4.061-5.16 7.845-10.506 11.641-15.863 1.711-2.403 3.464-4.777 5.234-7.137 1.35-2.658 2.684-5.325 4-8l2-3c0.362-2.583 0.617-5.181 0.816-7.781 0.125-1.565 0.249-3.13 0.377-4.742 0.122-1.643 0.244-3.285 0.369-4.977 0.252-3.219 0.503-6.438 0.754-9.656 0.648-8.331 0.648-8.331 0.926-12.242 0.377-4.879 1.22-8.989 2.758-13.602 2.11-10.847 2.707-21.935 3.5-32.938 2.207-30.544 2.207-30.544 5.5-40.062 1.458-9.265 2.064-18.648 2.699-27.999 0.869-12.768 2.399-25.075 4.809-37.653 1.448-8.004 1.966-15.92 2.367-24.036 0.738-13.006 2.383-25.612 4.631-38.43 2.369-13.828 3.795-27.67 4.795-41.658 1.494-20.66 1.494-20.66 3.699-27.181 2.896-8.813 2.947-18.7 3.465-27.91 0.079-1.389 0.158-2.777 0.24-4.207 0.154-2.804 0.295-5.608 0.422-8.412 0.035-0.65 0.035-0.65 0.213-3.94 0.055-1.169 0.111-2.339 0.168-3.544 0.492-3.03 0.492-3.03 3.492-7.03 2.609-0.758 2.609-0.758 5.75-1.125 1.158-0.15 2.315-0.299 3.508-0.453 2.515-0.284 5.031-0.565 7.547-0.844 5.761-0.683 11.016-1.31 16.383-3.578 9.351-3.792 20.811-4 30.812-4z" fill="#C81919"/>
<path transform="translate(758,274)" d="m0 0c1.52 6.188 0.524 10.905-1 17-0.734 3.989-1.361 7.995-2 12-0.165 0.951-0.33 1.903-0.5 2.883-0.873 5.225-1.546 10.408-1.93 15.691-0.074 0.986-0.149 1.972-0.226 2.987-0.144 1.974-0.272 3.949-0.383 5.925-0.507 6.91-0.507 6.91-2.906 10.104-3.589 2.463-6.401 2.64-10.732 2.955-10.055 0.747-19.083 2.518-28.792 5.279-6.765 1.756-13.569 2.643-20.531 3.176-1.076 0.117-2.153 0.235-3.262 0.355-0.903-0.117-1.807-0.234-2.738-0.355-2.739-3.581-3.356-6.039-3.066-10.488 0.069-1.084 0.138-2.168 0.209-3.285 0.097-1.168 0.194-2.336 0.295-3.539 0.093-1.214 0.186-2.427 0.283-3.676 3.141-35.736 3.141-35.736 9.279-48.012 5.253-2.568 11.015-2.464 16.75-2.812 9.159-0.661 17.148-2.321 25.938-5.004 17.87-4.905 17.87-4.905 25.312-1.184z" fill="#C81919"/>
<path transform="translate(2269,73)" d="m0 0 7 2v3c-2.812 2.25-2.812 2.25-6 4-0.99-0.33-1.98-0.66-3-1l-1-3c1.438-2.688 1.438-2.688 3-5z" fill="#C81919"/>
<path transform="translate(2300,79)" d="m0 0c0.99 0.33 1.98 0.66 3 1-0.312 3.375-0.312 3.375-1 7l-3 2c-1-1-1-1-1.188-3.875 0.188-3.125 0.188-3.125 2.188-6.125z" fill="#C81919"/>
<path transform="translate(2264,98)" d="m0 0h2l-1 3-2-2 1-1z" fill="#C81919"/>
<path transform="translate(2291,51)" d="m0 0 2 2h-3l1-2z" fill="#C81919"/>
<path transform="translate(2283,63)" d="m0 0 2 3h-2v-3z" fill="#C81919"/>
<path transform="translate(2299,62)" d="m0 0 2 1z" fill="#C81919"/>
</svg>
