<?xml version="1.0" encoding="UTF-8"?>
<svg version="1.1" viewBox="0 0 2448 1112" xmlns="http://www.w3.org/2000/svg">
<path transform="translate(838.48 279.29)" d="m0 0c4.186 0.842 8.324 1.167 12.578 1.52 7.109 0.701 12.111 2.276 18.266 5.812 2.731 1.406 4.899 1.935 7.922 2.375 4.773 1.005 6.987 2.452 10.664 5.551 2.434 1.691 4.6 2.332 7.461 3.074 1.526 0.454 3.052 0.908 4.625 1.375l2 4c1.031 0.268 2.062 0.536 3.125 0.813 4.46 1.366 6.495 3.271 9.839 6.39 3.067 2.708 6.549 4.672 10.036 6.797 5.097 3.461 9.179 7.147 13 12 2.771 2.844 5.615 5.583 8.5 8.313 3.528 3.528 5.977 7.372 8.5 11.687 2.978 4.989 5.85 8.96 10 13 1.922 2.81 3.193 5.468 4.5 8.625 1.5 3.375 1.5 3.375 4.5 6.375 1.118 3.223 1.964 6.477 2.839 9.773 1.233 3.428 2.795 5.493 5.161 8.227 0.453 0.928 0.907 1.856 1.375 2.813 0.268 0.36 0.268 0.36 1.625 2.187 3.125 0.375 3.125 0.375 6 0 1-1 1-1 1.055-5.466-0.027-2.052-0.06-4.104-0.097-6.157-8e-3 -0.558-8e-3 -0.558-0.049-3.384-0.035-2.435-0.072-4.87-0.111-7.305-0.06-3.848-0.112-7.697-0.16-11.546-0.139-10.946-0.282-21.892-0.458-32.837-0.107-6.686-0.194-13.372-0.269-20.058-0.032-2.555-0.072-5.109-0.119-7.663-0.064-3.567-0.104-7.135-0.139-10.703-0.012-0.531-0.012-0.531-0.076-3.221-0.014-2.94-0.014-2.94 0.423-7.66 4.866-3.65 6.823-3.375 12.82-3.372 0.445-2e-3 0.445-2e-3 2.696-0.011 2.942-8e-3 5.882 5e-3 8.823 0.02 2.045 0 4.09 0 6.135-2e-3 4.287 0 8.573 0.011 12.859 0.029 5.493 0.023 10.985 0.023 16.477 0.016 4.224-3e-3 8.447 4e-3 12.67 0.013 2.025 4e-3 4.05 5e-3 6.075 4e-3 2.832 0 5.663 0.012 8.495 0.028 0.806 3e-3 0.806 3e-3 4.883 0.014 6.33 0.406 6.33 0.406 9.067 2.261 1.266 5.099 1.129 10.257 1.1 15.477-1e-3 0.474-1e-3 0.474-4e-3 2.871-6e-3 3.171-0.018 6.341-0.03 9.512-6e-3 2.276-0.01 4.551-0.015 6.826-0.01 4.902-0.022 9.803-0.037 14.704-0.023 7.764-0.037 15.528-0.048 23.292-0.033 22.08-0.075 44.159-0.138 66.239-0.034 12.194-0.058 24.388-0.07 36.582-7e-3 6.445-0.019 12.89-0.045 19.336-0.024 6.074-0.035 12.149-0.034 18.224-3e-3 2.216-0.01 4.431-0.024 6.647-0.059 10.349 0.078 20.612 1.427 30.886 0.195 1.482 0.389 2.963 0.589 4.49 1.692 4.984 4.199 6.76 8.329 9.914 0.99 1.32 1.98 2.64 3 4 2.269 0.941 2.269 0.941 4.812 1.563 3.067 0.811 5.425 1.563 8.25 3.062 7.497 3.509 17.093 2.564 25.215 2.656 1.248 0.019 2.495 0.037 3.781 0.056 5.311 0.078 10.621 0.147 15.932 0.215 3.887 0.052 7.775 0.109 11.662 0.167 0.604 7e-3 0.604 7e-3 3.661 0.041 1.112 0.017 2.224 0.033 3.37 0.051 0.981 0.012 1.962 0.025 2.973 0.038 2.344 0.151 2.344 0.151 4.344 1.151 1.493 8.545 1.179 17.278 1.203 25.926 5e-3 1.62 0.011 3.24 0.017 4.91 0.01 3.413 0.016 6.826 0.02 10.239 5e-3 4.373 0.029 8.745 0.058 13.118 0.023 4.182 0.025 8.363 0.03 12.545 0.012 1.57 0.024 3.14 0.037 4.757-3e-3 1.452-6e-3 2.905-9e-3 4.401 4e-3 1.278 7e-3 2.557 0.011 3.874-0.367 3.23-0.367 3.23-3.367 7.23-3.401 0.386-6.476 0.515-9.878 0.47-0.507 1e-3 -0.507 1e-3 -3.076 7e-3 -3.371 2e-3 -6.742-0.024-10.113-0.051-2.351-5e-3 -4.703-8e-3 -7.054-0.01-4.945-8e-3 -9.888-0.028-14.832-0.059-6.291-0.04-12.581-0.058-18.871-0.068-6.039-0.01-12.079-0.029-18.118-0.051-1.132-3e-3 -2.264-6e-3 -3.431-0.01-44.979-0.162-44.979-0.162-50.952-5.181-3.041-2.327-5.482-3.048-9.175-3.984-5.176-1.481-8.02-2.822-11.5-7.063-0.846-0.495-1.692-0.99-2.563-1.5-2.863-1.762-4.359-3.885-6.437-6.5l-4-2c-1.364-1.979-2.695-3.982-4-6-0.846-0.763-1.692-1.526-2.563-2.312-3.307-3.647-4.1-6.972-5.437-11.688h-2c-2.593-4.283-3.841-8.747-5.18-13.519-0.82-2.481-0.82-2.481-2.883-6.043-4.978-11.403-4.141-24.796-3.952-37.034 0.036-2.468 0.03-4.936 0.015-7.404-1-1-1-1-4.125-1.687-4.469 0.792-4.943 1.377-7.563 4.875-3.224 5.045-4.877 10.14-6.293 15.929-1.145 3.238-2.578 4.538-5.019 6.883-0.238 0.743-0.238 0.743-1.438 4.5-1.685 4.854-2.617 5.588-6.562 8.5-1.716 2.636-3.382 5.304-5 8-1.308 1.687-2.642 3.354-4 5-0.464 0.629-0.464 0.629-2.813 3.813-7.682 10.204-16.4 18.253-27.187 25.187-0.846 0.681-1.692 1.361-2.563 2.063-2.437 1.937-2.437 1.937-5 3.437-2.437 1.5-2.437 1.5-4.187 3.5-2.25 2-2.25 2-6.688 3.438-4.562 1.562-4.562 1.562-6.875 4.062-3.559 3.311-6.847 3.695-11.555 4.531-3.132 0.969-3.132 0.969-6.503 3.469-4.125 2.841-6.886 3.377-11.817 4-5.453 0.819-10.064 1.795-15.062 4.125-9.623 4.43-20.814 3.528-31.227 3.508-1.132 1e-3 -2.264 2e-3 -3.43 3e-3 -2.371 0-4.743-1e-3 -7.114-6e-3 -3.602-5e-3 -7.205 0-10.807 7e-3 -2.321-1e-3 -4.641-2e-3 -6.961-4e-3 -1.062 2e-3 -2.124 4e-3 -3.218 6e-3 -9.785-0.03-18.757-0.203-27.868-4.076-5.13-2.056-9.7-3.481-15.188-4.125-5.62-0.675-8.373-2.535-12.937-5.938-2.003-0.569-4.027-1.063-6.063-1.5-5.257-1.154-7.923-2.842-11.937-6.5-1.506-0.66-3.012-1.32-4.563-2-4.341-1.957-6.192-3.672-9.437-7-2.65-1.366-5.317-2.7-8-4-1.694-1.299-3.364-2.629-5-4-0.846-0.474-1.692-0.949-2.563-1.437-2.848-1.826-4.353-3.91-6.437-6.563-1.983-1.687-3.984-3.354-6-5-1.713-1.62-3.372-3.296-5-5-0.705-0.733-1.411-1.467-2.137-2.223-4.971-5.316-8.468-10.363-11.863-16.777-1.632-2.029-3.295-4.033-5-6-1.352-1.988-2.687-3.987-4-6-0.99-1.32-1.98-2.64-3-4-0.227-1.567-0.454-3.135-0.688-4.75-0.949-5.328-3.176-8.214-7.137-11.82-3.12-2.051-5.557-2.033-9.175-1.43-0.375 7.5-0.375 7.5 3 12 3.568 12.021 2.621 25.938 3 38.375 1.127 36.88 1.127 36.88 5 44.625v5c-4.149 3.906-9.239 3.424-14.608 3.388-0.962 5e-3 -1.923 0.011-2.914 0.016-3.173 0.013-6.345 5e-3 -9.517-6e-3 -2.206 2e-3 -4.411 5e-3 -6.616 9e-3 -4.619 5e-3 -9.237-2e-3 -13.855-0.016-5.927-0.017-11.853-7e-3 -17.779 0.011-4.552 0.011-9.104 7e-3 -13.655-1e-3 -2.186-2e-3 -4.372 1e-3 -6.558 8e-3 -3.05 8e-3 -6.099-4e-3 -9.149-0.021-0.907 6e-3 -1.814 0.012-2.749 0.019-6.258-0.064-6.258-0.064-9.6-3.407-0.493-3.119-0.493-3.119-0.661-6.941-0.071-1.389-0.143-2.778-0.216-4.209-0.062-1.456-0.123-2.912-0.186-4.412-0.955-20.966-0.955-20.966-3.996-29.36-1.438-4.701-1.653-9.44-2.004-14.328-0.042-0.546-0.042-0.546-0.254-3.311-0.582-7.975-0.922-15.947-1.183-23.939-0.421-12.423-1.485-24.476-3.942-36.684-3.192-16.451-3.646-32.983-4.246-49.691-0.172-4.472-0.349-8.943-0.53-13.415-0.111-2.758-0.216-5.517-0.314-8.276-0.047-1.227-0.094-2.454-0.143-3.719-0.039-1.083-0.078-2.166-0.118-3.282-0.207-2.433-0.207-2.433-1.207-3.433-7.145-0.586-7.145-0.586-10.375 1.625-4.599 6.722-4.24 14.764-4.661 22.613-0.485 6.95-2.113 12.434-4.964 18.762-1.986 5.058-2.412 9.709-2.813 15.125-0.489 5.603-1.135 10.581-3.625 15.688-2.725 5.633-3.364 11.041-4.062 17.187-1.317 11.499-1.317 11.499-3.938 16.813-3.406 6.954-4.064 14.516-5.043 22.118-0.682 4.987-1.437 8.884-3.515 13.522-2.995 6.794-3.527 13.722-4.426 21.041-0.906 6.704-2.262 11.615-5.578 17.506-1.342 5.365-1.33 10.638-1.524 16.152-0.478 3.863-1.004 5.874-3.476 8.848-4.468 1.117-8.319 1.157-12.928 1.193-0.901 8e-3 -1.803 0.016-2.731 0.025-2.978 0.024-5.957 0.041-8.935 0.055-1.017 6e-3 -2.035 0.011-3.083 0.017-5.38 0.026-10.76 0.046-16.139 0.06-4.457 0.013-8.912 0.041-13.368 0.082-5.38 0.049-10.76 0.074-16.14 0.081-2.051 7e-3 -4.102 0.022-6.152 0.046-2.866 0.032-5.731 0.032-8.597 0.025-1.631 8e-3 -3.262 0.016-4.943 0.024-3.984-0.608-3.984-0.608-6.456-2.985-5.513-9.462-7.138-18.895-8.362-29.606-0.772-6.29-2.261-11.248-5.041-16.966-1.99-5.396-2.097-11.087-2.602-16.781-0.569-4.643-1.757-8.42-3.512-12.719-2.903-7.321-4.09-14.816-4.886-22.613-0.557-4.997-1.288-8.864-3.625-13.313-3.203-6.181-3.371-12.444-3.973-19.293-0.778-6.393-2.878-11.836-5.605-17.617-1.226-3.61-1.387-7.04-1.672-10.84-0.687-6.926-2.03-12.942-4.313-19.5-2.547-7.339-3.637-14.081-3.734-21.859-0.217-3.757-1.05-6.945-2.203-10.516h-7c-2.156 5.377-2.531 10.722-2.938 16.438-0.629 7.871-1.617 15.462-3.379 23.175-1.444 7.154-1.825 14.337-2.043 21.618-0.7 20.543-1.966 40.472-6.1 60.676-1.239 7.091-1.704 14.194-2.005 21.378-0.079 1.766-0.158 3.533-0.237 5.299-0.118 2.729-0.235 5.457-0.348 8.186-1.229 29.35-1.229 29.35-4.95 40.23-0.28 3.623-0.376 7.223-0.461 10.855-0.539 3.145-0.539 3.145-4.539 6.145-3.2 0.297-6.203 0.42-9.403 0.404-0.476 4e-3 -0.476 4e-3 -2.884 0.021-3.145 0.018-6.29 0.014-9.436 9e-3 -2.184 4e-3 -4.369 9e-3 -6.553 0.016-4.577 8e-3 -9.154 6e-3 -13.731-4e-3 -5.874-0.011-11.748 9e-3 -17.621 0.038-4.51 0.018-9.02 0.018-13.53 0.012-2.166 0-4.332 6e-3 -6.498 0.019-3.024 0.014-6.047 4e-3 -9.071-0.013-0.899 9e-3 -1.799 0.019-2.725 0.029-2.494-0.03-2.494-0.03-6.548-0.531-3.511-4.681-3.292-5.806-2.926-11.449 0.091-1.49 0.182-2.979 0.275-4.514 0.112-1.559 0.223-3.118 0.338-4.724 0.092-1.509 0.184-3.018 0.279-4.573 1.791-27.714 1.791-27.714 4.592-35.603 2.338-6.966 2.146-14.395 2.408-21.674 0.163-4.483 0.373-8.965 0.577-13.447 0.019-0.439 0.019-0.439 0.117-2.656 0.301-6.775 0.672-13.537 1.215-20.297 0.06-0.789 0.06-0.789 0.367-4.778 0.497-4.419 1.605-8.564 2.742-12.859 2.488-10.253 2.85-20.417 3.257-30.927 0.649-16.351 1.602-32.305 4.821-48.374 2.916-14.578 3.652-28.807 4.088-43.618 0.425-14.04 1.644-27.394 4.729-41.144 2.01-9.003 2.269-18.202 2.585-27.394l0.237-6.141c0.12-3.184 0.238-6.368 0.348-9.553 0.109-3.102 0.23-6.204 0.353-9.306 0.03-0.956 0.061-1.913 0.092-2.898 0.279-6.73 0.279-6.73 2.506-10.071 3.172-1.057 5.416-1.128 8.749-1.134 0.599-2e-3 0.599-2e-3 3.632-0.013 1.317 1e-3 2.634 1e-3 3.991 2e-3 1.386-4e-3 2.771-7e-3 4.199-0.01 4.597-0.01 9.194-0.012 13.792-0.013 3.187-3e-3 6.375-7e-3 9.562-0.01 6.689-6e-3 13.378-8e-3 20.068-7e-3 7.728 0 15.456-0.01 23.184-0.026 7.436-0.015 14.872-0.018 22.308-0.018 3.163-1e-3 6.326-5e-3 9.489-0.013 4.422-0.01 8.843-7e-3 13.265-1e-3 0.656-3e-3 0.656-3e-3 3.972-0.017 1.208 4e-3 2.415 8e-3 3.658 0.013 1.046-1e-3 2.091-1e-3 3.167-2e-3 3.328 0.28 5.915 0.876 8.964 2.249 1.818 3.636 2.321 5.368 2.675 9.254 0.054 0.51 0.054 0.51 0.323 3.092 0.207 2.116 0.405 4.233 0.593 6.351 0.714 6.665 2.325 11.704 5.288 17.697 1.709 3.974 1.928 7.818 2.183 12.106 0.545 6.542 1.432 11.94 3.926 17.984 2.923 7.27 4.09 14.762 4.887 22.516 0.565 5.048 1.357 9.056 3.562 13.625 2.669 5.688 3.357 11.139 4.063 17.313 0.858 7.505 2.252 13.65 5.308 20.601 1.865 5.418 2.387 10.965 3.096 16.63 2.47 19.205 2.47 19.205 7.096 23.831 4 0.438 4 0.438 8 0 2.419-4.035 2.292-8.206 2.437-12.812 0.311-6.005 1.005-10.68 3.563-16.188 2.276-5.189 3.273-9.782 3.875-15.375 0.549-4.702 1.14-8.242 3.562-12.312 2.789-4.847 3.38-9.786 4.063-15.25 0.838-6.708 2.134-12.059 5.312-18.028 1.663-4.25 2.125-8.599 2.688-13.097 0.812-6.49 1.946-11.509 5.312-17.129 2.067-4.888 2.369-10.202 3.024-15.432 0.788-5.874 2.222-10.229 4.972-15.4 2.213-5.528 2.621-11.548 3.321-17.426 0.93-4.863 2.241-8.36 4.871-12.551 3.655-1.938 6.739-2.251 10.838-2.254 1.167-6e-3 2.335-0.011 3.538-0.017 1.273 4e-3 2.545 8e-3 3.856 0.012 1.347-3e-3 2.693-7e-3 4.081-0.01 4.457-9e-3 8.913-3e-3 13.37 3e-3 3.095-1e-3 6.19-3e-3 9.285-5e-3 6.489-3e-3 12.978 1e-3 19.466 0.01 8.321 0.012 16.641 5e-3 24.962-7e-3 6.392-7e-3 12.784-5e-3 19.176 0 3.068 2e-3 6.136 0 9.204-5e-3 4.287-5e-3 8.575 3e-3 12.862 0.014 0.635-2e-3 0.635-2e-3 3.85-0.012 1.17 6e-3 2.341 0.011 3.547 0.017 1.013 1e-3 2.026 2e-3 3.069 2e-3 3.245 0.282 5.888 1.012 8.896 2.252 1.409 2.819 1.311 5.353 1.5 8.5 0.041 0.675 0.041 0.675 0.247 4.089 0.084 1.455 0.167 2.911 0.253 4.411 0.089 1.49 0.178 2.98 0.269 4.515 0.465 7.994 0.838 15.981 1.074 23.984 0.425 14.385 2.141 28.33 4.485 42.517 1.887 11.775 2.617 23.374 2.881 35.301 0.026 1.184 0.053 2.369 0.08 3.589 0.017 1.055 0.035 2.11 0.053 3.198 0.149 2.729 0.547 5.236 1.158 7.896 3.375-0.187 3.375-0.187 7-1 2.056-3.035 2.192-6.124 2.812-9.75 0.864-4.663 2.585-8.001 5.031-12.019 1.157-2.231 1.157-2.231 2.157-6.981 1.142-4.853 2.577-5.827 6-9.25 0.781-2.277 0.781-2.277 1.437-4.875 1.355-5.219 3.895-8.151 7.563-12.125 1.034-1.982 2.032-3.984 3-6 5.587-8.913 11.667-17.487 20-24 1.687-1.983 3.353-3.983 5-6 1.647-1.686 3.311-3.356 5-5l3-3 4-2c0.556-0.763 1.113-1.526 1.687-2.312 2.733-3.176 5.487-4.615 9.192-6.477 2.121-1.211 2.121-1.211 5.121-4.211 1.299-0.639 2.598-1.279 3.937-1.937 4.063-2.063 4.063-2.063 5.938-4.125 2.398-2.187 3.898-2.554 7-3.375 3.626-0.964 5.051-1.498 7.937-4.063 4.06-3.184 7.653-3.691 12.676-4.531 3.512-0.969 3.512-0.969 7.547-3.426 5.987-3.481 12.307-3.958 19.09-4.73 14.445-1.77 14.445-1.77 20.875-3.813 16.796-2.333 33.1-0.803 49.484 3.293zm-49.797 100.21c-3.585 1.458-6.249 1.844-10.062 2.25-5.993 0.804-9.172 2.622-13.641 6.586-2.703 2.267-5.754 3.288-8.984 4.664-2.388 1.935-4.724 3.935-7 6-0.908 0.701-1.815 1.403-2.75 2.125-2.25 1.875-2.25 1.875-5.25 5.875v2l-4 2c-1.309 2.172-1.309 2.172-2.438 4.75-1.533 3.307-2.724 5.431-5.187 8.188-2.865 3.693-3.555 6.887-4.621 11.375-1.009 3.594-2.814 6.518-4.754 9.687-1.732 6.926-1.227 14.078-1.25 21.188-0.021 1.575-0.042 3.151-0.063 4.775-0.034 10.086 0.799 17.01 5.313 26.037 2 4 2 4 3.437 8.625 1.602 4.485 3.395 6.89 6.563 10.375 0.495 0.846 0.99 1.691 1.5 2.563 2.624 4.264 6.255 7.231 10.062 10.437 3.438 3 3.438 3 5.563 5.75 1.875 2.25 1.875 2.25 4.375 3.25s2.5 1 4.062 3.375c3.344 3.601 6.887 4.261 11.52 5.648 3.416 1.144 6.037 2.835 8.918 4.977 13.285 4.428 39.252 4.862 52.312-0.312 0.887-0.557 1.774-1.114 2.688-1.688 3.863-1.962 7.673-3.867 11.687-5.5 3.293-1.491 5.535-3.221 8.313-5.5 0.948-0.433 1.897-0.866 2.875-1.312 4.151-2.242 6.889-5.276 10.125-8.688 0.825-0.804 1.65-1.609 2.5-2.437 9.253-9.486 9.253-9.486 11.625-15.188 1.875-4.375 1.875-4.375 4.437-7.062 3.222-4.379 3.721-8.46 4.68-13.75 0.682-3.207 1.616-5.775 2.945-8.75 4.402-11.569 2.768-24.425-1.894-35.59-1.297-3.232-2.071-6.322-2.793-9.723-1.173-5.014-3.004-7.662-6.5-11.5-0.712-1.522-1.376-3.066-2-4.625-1.987-4.345-3.239-5.702-7-8.375l-2-4c-4-3-4-3-6-3-0.248-0.742-0.495-1.485-0.75-2.25-1.662-3.656-3.881-4.636-7.25-6.75-0.763-0.825-1.527-1.65-2.313-2.5-3.511-3.266-7.293-4.634-11.687-6.5-0.935-0.669-1.87-1.338-2.832-2.027-3.566-2.22-6.289-2.816-10.418-3.473-4.642-0.82-8.713-1.729-13-3.687-9.023-3.899-20.289-2.286-29.063 1.687z" fill="#003195"/>
<path transform="translate(1233.4 280.87)" d="m0 0c0.772-2e-3 0.772-2e-3 4.679-0.013 1.713 0 3.427 1e-3 5.14 1e-3 1.805-3e-3 3.609-6e-3 5.413-0.01 4.911-9e-3 9.821-0.011 14.732-0.012 3.08 0 6.161-2e-3 9.241-5e-3 10.785-9e-3 21.57-0.013 32.355-0.013 9.983 1e-3 19.966-9e-3 29.95-0.025 8.612-0.014 17.224-0.019 25.835-0.018 5.124 0 10.248-3e-3 15.372-0.013 18.361-0.036 36.712-0.061 55.049 1.006 1.187 0.061 2.375 0.122 3.598 0.184 6.96 0.485 11.997 1.895 18.22 5.052 2.746 0.65 2.746 0.65 5.007 0.871 0.421 0.05 0.421 0.05 2.551 0.303 1.719 0.176 3.437 0.348 5.156 0.515 6.123 0.738 9.449 2.611 14.286 6.311 3.062 0.933 3.062 0.933 6 1.437 5.75 1.252 8.65 3.548 13 7.563 2.658 1.022 5.324 2.023 8 3 2.048 1.606 4.054 3.27 6 5 0.907 0.495 1.815 0.99 2.75 1.5 2.25 1.5 2.25 1.5 3.25 4.062 0.33 0.805 0.66 1.609 1 2.438 1.663 0.674 3.33 1.34 5 2 1.708 1.964 3.373 3.967 5 6 0.866 0.68 1.732 1.361 2.625 2.062 2.58 2.105 3.728 4.074 5.375 6.938 0.639 0.577 1.278 1.155 1.937 1.75 3.005 3.277 4.266 7.208 6.063 11.25l1.937 1.937c2.812 2.812 4.151 6.043 5.817 9.625 1.246 2.438 1.246 2.438 4.246 6.438 0.773 2.988 0.773 2.988 1.375 6.312 1.188 5.643 3.015 9.128 6.625 13.688 1.542 5.836 1.377 11.957 1.605 17.959 0.293 6.837 0.293 6.837 1.395 9.041 2.285 0.195 2.285 0.195 5.062 0.125 1.63-0.042 3.259-0.083 4.938-0.125 0.268-0.805 0.536-1.609 0.812-2.438 0.865-2.594 1.766-5.176 2.688-7.75 1.182-3.46 1.816-6.756 2.312-10.375 0.656-3.994 1.582-6.412 4.125-9.562 3.326-4.209 4.448-7.81 6.063-12.875 1.875-2.563 1.875-2.563 4-5 0.845-1.362 1.691-2.723 2.562-4.125 2.438-3.875 2.438-3.875 5.438-6.875 0.783-1.258 1.567-2.517 2.375-3.813 3.617-5.77 7.832-10.394 12.625-15.187 0.928-1.135 1.856-2.269 2.812-3.438 3.394-3.793 7.036-6.677 11.188-9.562 0.844-0.591 1.688-1.181 2.558-1.789 1.726-1.205 3.454-2.407 5.184-3.606 1.741-1.238 3.42-2.561 5.07-3.918 2.188-1.687 2.188-1.687 4.75-2.625 2.438-1.062 2.438-1.062 4.125-3.5 3.002-3.326 5.632-3.664 9.875-4.75 2.438-0.812 2.438-0.812 5.313-3.312 3.953-3.163 7.487-3.695 12.363-4.75 3.328-0.904 5.173-2.521 7.762-4.75 5.77-1.855 11.656-2.545 17.656-3.242 3.344-0.758 3.344-0.758 6.985-2.729 13.531-6.3 32.219-4.328 46.945-4.32 2.183-6e-3 4.367-0.013 6.55-0.02 5.863-0.018 11.725-0.023 17.588-0.024 3.667-1e-3 7.335-6e-3 11.002-0.011 12.804-0.018 25.607-0.026 38.411-0.025 11.927 1e-3 23.854-0.02 35.781-0.051 10.264-0.026 20.529-0.037 30.793-0.036 6.122 1e-3 12.242-5e-3 18.364-0.026 5.739-0.02 11.478-0.02 17.217-5e-3 2.108 2e-3 4.215-3e-3 6.323-0.015 2.87-0.015 5.74-6e-3 8.61 9e-3 1.608-1e-3 3.215-2e-3 4.871-3e-3 3.904 0.498 3.904 0.498 6.304 2.392 0.528 0.695 1.056 1.39 1.6 2.106 0.783 0.722 1.567 1.443 2.375 2.187 5.871 6.291 9.949 13.927 14.062 21.438 1.563 2.375 1.563 2.375 4 4.812 2.667 2.667 4.521 5.402 6.563 8.563 0.68 0.804 1.361 1.608 2.062 2.437 1.938 2.563 1.938 2.563 3.375 6.063 1.687 3.779 3.591 5.676 6.563 8.5 1.018 1.655 2.018 3.322 3 5 0.783 0.928 1.567 1.856 2.375 2.812 3.548 4.308 6.372 8.951 9.097 13.817 0.252 0.442 0.252 0.442 1.528 2.683 0.453 0.821 0.907 1.642 1.375 2.488 3.014 4.081 6.003 5.101 10.937 5.887 1.217 0.103 2.434 0.206 3.688 0.313 0.196-0.702 0.196-0.702 1.187-4.25 1.45-4.396 3.111-5.952 6.813-8.75 1.383-2.641 2.716-5.309 4-8 1.307-1.687 2.641-3.354 4-5l2.5-4c2.018-3.23 4.112-6.055 6.5-9 0.247-0.433 0.247-0.433 1.5-2.625 1.5-2.375 1.5-2.375 5.5-5.375 1.002-2.232 2-4.466 2.933-6.727 1.512-3.222 3.713-5.625 6.067-8.273 0.68-1.032 1.361-2.063 2.062-3.125 1.938-2.875 1.938-2.875 3.938-4.75 2.806-2.982 4.198-6.465 6-10.125 1.299-1.694 2.629-3.364 4-5 0.268-0.454 0.268-0.454 1.625-2.75 1.375-2.25 1.375-2.25 3.375-3.25 3.54-0.094 7.06-0.126 10.6-0.114h3.34c3.658 0 7.316 8e-3 10.974 0.016 2.53 2e-3 5.061 3e-3 7.592 4e-3 6.671 4e-3 13.342 0.014 20.013 0.025 6.804 0.01 13.607 0.015 20.41 0.02 13.357 0.011 26.714 0.028 40.071 0.049l1 4c-2.25 2.5-2.25 2.5-5 5-3 4-3 4-4.375 6.75-2.481 4.96-5.013 9.72-9.063 13.562-3.202 3.359-5.011 7.015-7.152 11.106-1.537 2.813-3.327 5.151-5.41 7.582-0.66 1.01-1.32 2.021-2 3.062-2 2.938-2 2.938-4 4.813-2.819 2.995-4.209 6.434-6 10.125-3.534 5.919-7.129 11.128-12 16-1.357 2.319-2.688 4.654-4 7-0.681 1.01-1.362 2.021-2.063 3.062-1.937 2.938-1.937 2.938-3.375 6-1.758 3.305-3.925 5.3-6.562 7.938-1.338 2.331-2.672 4.664-4 7h-2c-0.248 0.866-0.495 1.732-0.75 2.625-2.06 5.562-5.581 9.788-9.25 14.375-0.681 1.031-1.362 2.062-2.063 3.125-1.937 2.875-1.937 2.875-4.937 5.875-0.971 2.264-1.94 4.528-2.899 6.797-1.498 2.997-3.686 4.908-6.101 7.203-1.359 2.318-2.695 4.65-4 7l-3 3c-0.968 2.29-1.935 4.581-2.883 6.879-1.117 2.121-1.117 2.121-3.867 3.996-2.814 2.657-2.704 3.773-2.875 7.562 0.183 3.846 0.28 5.137 2.75 8.188 0.948 0.783 1.897 1.567 2.875 2.375 1.615 2.239 3.092 4.545 4.586 6.867 1.414 2.133 1.414 2.133 3.601 4.758 1.813 2.375 1.813 2.375 3.25 5.875 1.687 3.779 3.591 5.676 6.563 8.5 1.018 1.655 2.018 3.322 3 5 0.825 0.969 1.65 1.938 2.5 2.937 5.5 6.738 5.5 6.738 5.5 11.063 0.99 0.33 1.98 0.66 3 1 0.598 1.237 1.196 2.475 1.812 3.75 2.281 4.432 4.382 6.173 8.188 9.25 1.065 1.966 2.068 3.967 3 6 0.319 0.392 0.319 0.392 1.937 2.375 2.063 2.625 2.063 2.625 4 6.625 2.009 3.895 3.927 6.021 7.063 9 1.381 1.967 2.715 3.968 4 6 0.68 0.99 1.361 1.98 2.062 3 1.938 3 1.938 3 3.375 6.062 1.756 3.301 3.897 5.339 6.563 7.938 1.018 1.655 2.018 3.322 3 5 0.825 0.969 1.65 1.938 2.5 2.937 2.398 2.939 3.842 5.676 5.5 9.063 1.328 1.671 2.661 3.337 4 5 0.319 0.577 0.319 0.577 1.937 3.5 2.063 3.5 2.063 3.5 4.438 5.875 5.578 5.578 9.37 12.49 12.625 19.625v2l4 2c2.044 2.294 4.045 4.629 6 7l3 3-1 4c-3.267 1.117-4.687 1.104-8 0-3.425-0.082-6.828-0.105-10.252-0.082-1.054 3e-3 -2.107 6e-3 -3.193 9e-3 -2.292 7e-3 -4.584 0.017-6.876 0.028-3.627 0.017-7.254 0.028-10.881 0.036-10.313 0.025-20.627 0.06-30.941 0.105-6.305 0.026-12.611 0.043-18.917 0.055-2.404 6e-3 -4.808 0.016-7.211 0.03-3.364 0.019-6.727 0.026-10.09 0.03-0.496 4e-3 -0.496 4e-3 -3.009 0.026-4.898-6e-3 -9.169-0.099-13.63-2.237-2.625-3.375-2.625-3.375-5-7-0.681-0.64-1.362-1.279-2.063-1.938-2.786-2.966-4.166-6.412-5.937-10.062-4.234-7.273-4.234-7.273-7.438-10.313-3.212-3.368-5.039-7.032-7.133-11.164-1.429-2.523-1.429-2.523-4.429-5.523-0.454-1.135-0.908-2.269-1.375-3.438-1.625-3.562-1.625-3.562-3.938-5.375-4.062-3.306-6.141-7.671-8.687-12.187-0.538-0.878-1.075-1.756-1.629-2.66-1.371-2.34-1.371-2.34-2.184-4.84-1.187-2.5-1.187-2.5-4.125-4.813-3.062-2.687-3.062-2.687-4.562-7-0.495-1.217-0.99-2.434-1.5-3.687-2.75-0.813-2.75-0.813-6 0-6.052 3.339-8.194 6.807-11 13-1.334 1.666-2.667 3.333-4 5-0.64 1.32-1.279 2.64-1.938 4-2.019 3.916-3.952 5.965-7.062 9-1.726 2.629-3.395 5.296-5 8-0.537 0.866-1.073 1.732-1.625 2.625-1.375 2.375-1.375 2.375-2.75 5.375-1.8 3.323-3.93 5.37-6.625 8-1.382 1.967-2.715 3.968-4 6-0.681 0.99-1.362 1.98-2.063 3-1.937 3-1.937 3-3.375 6-1.793 3.442-4.045 6.053-6.562 9-0.66 1.01-1.32 2.021-2 3.062-2.805 4.119-5.859 7.177-10 9.938-2.876 0.189-5.76 0.248-8.641 0.247-0.894 2e-3 -1.787 5e-3 -2.708 7e-3 -3.007 6e-3 -6.014-3e-3 -9.022-0.011-2.152 1e-3 -4.304 3e-3 -6.455 5e-3 -5.861 5e-3 -11.722-2e-3 -17.582-0.013-6.145-8e-3 -12.29-7e-3 -18.435-6e-3 -10.341-1e-3 -20.683-0.01-31.024-0.023-11.908-0.016-23.817-0.021-35.725-0.021-12.714 1e-3 -25.428-6e-3 -38.141-0.015-3.64-2e-3 -7.28-3e-3 -10.919-3e-3 -5.765-1e-3 -11.529-8e-3 -17.294-0.018-2.098-2e-3 -4.196-4e-3 -6.295-3e-3 -10.527 2e-3 -21.041-0.114-31.561-0.53-0.878-0.031-1.756-0.061-2.66-0.092-7.956-0.359-15.833-1.276-22.976-5.024-4.706-2.287-8.97-3.203-14.113-3.973-3.422-0.737-5.743-2.362-8.449-4.527-3-2-3-2-7.25-2.75-5.403-1.422-7.665-3.543-11.75-7.25-2.323-1.024-4.656-2.027-7-3-0.31-0.32-0.31-0.32-1.875-1.938-2.125-2.062-2.125-2.062-6.625-4-4.458-2.043-5.752-3.234-8.5-7.062-0.413-0.248-0.413-0.248-2.5-1.5-2.927-1.756-4.381-3.851-6.5-6.5-0.846-0.495-1.692-0.99-2.563-1.5-2.894-1.781-3.735-3.613-5.437-6.5l-4-2c-1.364-1.98-2.695-3.982-4-6l-2.5-2.5c-2.649-2.649-4.501-5.339-6.5-8.5-0.681-0.99-1.362-1.98-2.063-3-1.937-3-1.937-3-3.375-6-1.562-3-1.562-3-4.062-5.813-3.016-3.845-4.002-7.563-5.5-12.187-0.66-0.77-1.32-1.539-2-2.332-2.464-3.286-2.826-5.753-3.438-9.793-2.544-13.791-2.544-13.791-6.562-18.875-4.188-0.938-4.188-0.938-8 0-2.85 5.7-2.396 11.12-2.559 17.422-0.596 6.185-2.612 10.972-5.441 16.453-1.568 3.233-2.57 5.899-3.5 9.312-1.161 4.122-2.672 6.555-5.5 9.813l-2 4c-1.764 3.527-3.556 5.963-6 9-0.831 1.49-1.642 2.991-2.438 4.5-2.071 3.825-4.306 6.569-7.562 9.5-0.887 0.928-1.774 1.856-2.688 2.812-2.312 2.188-2.312 2.188-4.312 2.188-0.114 0.361-0.114 0.361-0.688 2.187-1.85 3.964-4.729 5.383-8.312 7.813-0.825 0.866-1.65 1.732-2.5 2.625-2.943 2.795-5.778 3.807-9.5 5.375-0.495 0.412-0.495 0.412-3 2.5-3.204 2.669-6.175 3.9-10 5.5-0.743 0.66-1.485 1.32-2.25 2-3.505 2.548-6.841 3.141-11.012 4.152-2.738 0.848-2.738 0.848-6.363 3.348-5.097 3.509-11 3.773-16.993 4.679-5.198 0.973-9.798 2.661-14.648 4.735-25.161 7.316-56.282 3.26-82.342 3.286-2.828 3e-3 -5.655 7e-3 -8.482 0.011-8.878 0.014-17.757 0.024-26.636 0.028-10.196 4e-3 -20.393 0.022-30.589 0.051-7.937 0.021-15.874 0.031-23.811 0.033-4.721 1e-3 -9.442 7e-3 -14.163 0.024-5.236 0.02-10.471 0.016-15.707 9e-3 -1.556 9e-3 -3.112 0.019-4.714 0.028-0.712-3e-3 -0.712-3e-3 -4.31-0.017-1.235 2e-3 -2.469 3e-3 -3.742 5e-3 -3.571-0.411-5.455-1.112-8.238-3.372-1-4-1-4 0-8 0.063-2.425 0.066-4.851 0.034-7.276-0.016-1.488-0.033-2.976-0.049-4.51-0.021-1.607-0.042-3.214-0.063-4.871-0.021-2.52-0.041-5.04-0.059-7.56-0.046-6.219-0.099-12.439-0.186-18.658-0.047-3.49-0.082-6.98-0.102-10.47-0.019-3.29-0.057-6.58-0.116-9.87-4e-3 -1.488-7e-3 -2.976-0.011-4.51-0.014-1.311-0.028-2.623-0.043-3.974 0.595-3.301 0.595-3.301 2.692-5.693 5.204-2.883 10.903-2.733 16.745-2.708 1.34 3e-3 2.68 6e-3 4.06 9e-3 1.454 8e-3 2.908 0.016 4.405 0.025 0.772 2e-3 0.772 2e-3 4.679 0.014 3.35 0.01 6.699 0.023 10.049 0.038 5.305 0.023 10.609 0.036 15.914 0.047 15.082 0.034 30.164 0.075 45.246 0.138 8.336 0.035 16.673 0.058 25.009 0.07 5.265 8e-3 10.53 0.03 15.794 0.061 4.059 0.019 8.118 0.019 12.176 0.022 1.446 0.013 2.892 0.025 4.381 0.038 7.106-0.014 13.364-0.451 20.144-2.656 4.991-1.532 10.304-1.63 15.48-2.081 5.539-0.906 8.369-3.286 12.821-6.625 0.742-0.227 0.742-0.227 4.5-1.375 4.751-1.716 5.624-2.758 8.5-6.625 1.031-0.33 2.062-0.66 3.125-1 0.948-0.33 1.897-0.66 2.875-1 0.712-1.648 1.374-3.318 2-5 0.969-0.805 1.938-1.609 2.937-2.438 3.247-2.716 4.297-4.79 6.063-8.562 0.648-0.595 1.296-1.189 1.964-1.801 2.485-2.685 3.052-4.801 3.973-8.324 1.213-4.316 2.549-8.036 4.75-11.938 5.456-10.51 3.499-25.152 3.498-36.782 2e-3 -3.082 0.02-6.165 0.039-9.247 0.08-26.863 0.08-26.863-7.224-37.908-0.558-1.88-1.055-3.778-1.5-5.688-1.174-4.813-2.674-7.046-6.5-10.312-1.334-2-2.667-4-4-6l-2.688-2.688c-2.312-2.312-2.312-2.312-3.312-5.312-0.743-0.268-1.485-0.537-2.25-0.813-2.75-1.187-2.75-1.187-5.063-4.062-3.178-3.696-6.309-5.077-10.687-7.125l-3-3c-2.391-0.738-4.814-1.372-7.25-1.938-5.527-1.38-9.928-2.955-14.75-6.062-14.987-3.747-32.25-2.187-47.603-2.186-3.749-2e-3 -7.498-0.02-11.247-0.039-2.4-3e-3 -4.801-5e-3 -7.201-6e-3 -1.113-7e-3 -2.225-0.014-3.371-0.022-9.944 0.03-9.944 0.03-14.578 2.253-1.378 2.755-1.111 4.943-1.094 8.029 5e-3 1.285 9e-3 2.571 0.014 3.896 5e-3 0.709 5e-3 0.709 0.03 4.299 3e-3 0.744 3e-3 0.744 0.019 4.508 0.014 3.241 0.029 6.482 0.047 9.722 0.028 5.122 0.045 10.243 0.06 15.365l0.015 5.256c3e-3 0.877 5e-3 1.755 8e-3 2.659 0.036 11.927 0.081 23.854 0.147 35.781 0.045 8.04 0.075 16.081 0.089 24.122 8e-3 4.257 0.024 8.514 0.057 12.772 0.034 4.746 0.043 9.491 0.046 14.237 0.016 1.417 0.032 2.833 0.048 4.293-4e-3 1.289-8e-3 2.577-0.012 3.905 2e-3 0.561 2e-3 0.561 0.015 3.403-0.489 2.753-0.489 2.753-4.489 5.753-3.947 0.349-3.947 0.349-8.836 0.312-0.892-3e-3 -1.783-6e-3 -2.702-9e-3 -2.946-0.014-5.891-0.05-8.837-0.088-2.048-0.018-4.095-0.035-6.142-0.052-4.291-0.038-8.582-0.087-12.872-0.144-5.501-0.073-11.002-0.113-16.504-0.144-4.228-0.028-8.455-0.075-12.683-0.127-2.028-0.022-4.057-0.038-6.086-0.048-2.835-0.017-5.668-0.059-8.502-0.107-1.614-0.018-3.227-0.036-4.89-0.054-3.946-0.539-3.946-0.539-6.162-1.998-2.619-3.73-2.33-7.347-2.279-11.741-5e-3 -0.941-9e-3 -1.882-0.014-2.852-0.012-3.161 6e-3 -6.322 0.023-9.484-2e-3 -2.263-6e-3 -4.527-0.012-6.79-9e-3 -6.153 6e-3 -12.305 0.026-18.458 0.018-6.429 0.014-12.858 0.013-19.288 2e-3 -10.795 0.02-21.591 0.047-32.387 0.031-12.497 0.042-24.993 0.041-37.49-2e-3 -12.005 9e-3 -24.01 0.025-36.015 7e-3 -5.118 0.011-10.235 0.012-15.352 2e-3 -6.02 0.014-12.039 0.034-18.059 6e-3 -2.215 9e-3 -4.43 7e-3 -6.644-1e-3 -3.012 0.011-6.024 0.025-9.036-3e-3 -0.886-6e-3 -1.773-9e-3 -2.686 0.048-6.031 0.048-6.031 2.277-8.259 4.034-1.009 7.267-1.129 11.416-1.134zm576.28 81.226c-6.46 0.072-12.919 0.167-19.379 0.283-0.914 0.015-1.827 0.029-2.769 0.045-8.489 0.15-16.317 0.499-24.543 2.58-4.41 0.501-8.842 0.773-13.272 1.035-6.082 0.471-10.326 1.924-15.728 4.965-2.659 1.022-5.325 2.023-8 3-4.729 1.813-7.514 3.408-11 7-1.197 0.701-2.393 1.402-3.625 2.125-8.892 5.457-14.882 12.597-19.024 22.113-1.351 2.762-1.351 2.762-3.488 5.203-2.365 3.248-2.369 5.206-2.301 9.184 1e-3 1.126 3e-3 2.253 4e-3 3.414 0.434 2.961 0.434 2.961 3.434 5.961 3.827 0.242 7.484 0.297 11.308 0.217 0.583-7e-3 0.583-7e-3 3.534-0.038 3.865-0.045 7.73-0.11 11.595-0.175 2.679-0.033 5.358-0.065 8.037-0.095 7.062-0.082 14.123-0.18 21.184-0.283 11.304-0.165 22.608-0.316 33.912-0.447 3.957-0.05 7.914-0.113 11.871-0.176 2.417-0.031 4.833-0.061 7.25-0.091 1.107-0.021 2.213-0.042 3.353-0.064 7.614-0.076 7.614-0.076 10.956 2.152 0.374 2.77 0.374 2.77 0.372 6.345 3e-3 0.668 3e-3 0.668 0.019 4.045-9e-3 1.449-0.019 2.898-0.028 4.391 0 0.74 0 0.74 1e-3 4.483-2e-3 3.134-0.012 6.268-0.028 9.402-0.024 4.813-0.021 9.626-0.014 14.439-6e-3 3.038-0.013 6.076-0.022 9.113 1e-3 1.449 2e-3 2.898 3e-3 4.391-9e-3 1.335-0.019 2.67-0.029 4.045-2e-3 0.59-2e-3 0.59-0.014 3.575-0.26 2.771-0.26 2.771-2.26 4.771-3.818 0.162-7.562 0.198-11.379 0.147-1.185-7e-3 -2.371-0.015-3.592-0.023-2.581-0.018-5.162-0.04-7.743-0.066-4.08-0.039-8.159-0.063-12.239-0.083-11.603-0.058-23.205-0.136-34.807-0.243-7.089-0.064-14.178-0.104-21.267-0.129-2.708-0.014-5.416-0.038-8.123-0.071-3.781-0.045-7.561-0.06-11.342-0.068-1.127-0.021-2.254-0.042-3.415-0.064-2.788 0.011-5.359 0.055-8.093 0.6-2.741 2.899-2.937 4.431-3.375 8.375 0.526 5.086 2.018 8.952 5.25 12.937 1.981 2.506 3.149 4.692 4.5 7.563 2.277 4.7 5.027 8.303 8.625 12.125 0.402 0.443 0.402 0.443 2.437 2.687 2.953 2.665 6.105 4.364 9.563 6.313 0.618 0.68 1.237 1.361 1.875 2.062 3.205 2.923 7.036 3.612 11.125 4.938 0.99 0.68 1.98 1.361 3 2.062 6.234 4.026 13.486 4.175 20.714 4.399 3.286 0.539 3.286 0.539 7.779 2.527 5.706 2.305 10.787 2.67 16.893 2.746 0.586 0.014 0.586 0.014 3.552 0.085 4.354 0.09 8.707 0.139 13.062 0.181 0.894 9e-3 1.789 0.019 2.71 0.028 14.057 0.147 28.112 0.2 42.169 0.212 5.83 6e-3 11.66 0.03 17.49 0.058 4.529 0.019 9.058 0.024 13.586 0.025 2.152 3e-3 4.304 0.011 6.456 0.024 2.989 0.018 5.978 0.016 8.967 9e-3 0.437 5e-3 0.437 5e-3 2.652 0.028 5.329-0.036 9.26-0.879 13.97-3.384 2.483-2.757 5-6.188 5-10l4-2c1.694-2.65 3.358-5.318 5-8 0.845-0.825 1.691-1.65 2.562-2.5 3.069-3.148 4.529-6.559 6.438-10.5 1.293-1.698 2.625-3.368 4-5 0.66-1.011 1.32-2.022 2-3.063 2-2.937 2-2.937 3.937-4.812 3.578-3.687 5.963-8.241 8.539-12.657 2.863-4.874 5.886-9.124 9.524-13.468 0.35-0.908 0.701-1.815 1.062-2.75 0.938-2.25 0.938-2.25 4.938-4.25 1.273-2.137 1.273-2.137 2.375-4.688 1.633-3.516 3.269-6.314 5.875-9.187 3.25-3.694 3.625-6.06 4.187-10.875-0.597-5.802-2.679-7.829-6.437-12.25-3-4-3-4-4.375-6.375-1.625-2.625-1.625-2.625-4.063-5.438-2.833-3.524-4.57-7.139-6.562-11.187-1.294-1.698-2.626-3.368-4-5-0.681-1.073-1.362-2.145-2.063-3.25-1.937-2.75-1.937-2.75-4.937-3.75-0.695-1.991-1.356-3.993-2-6-1.285-2.032-2.619-4.033-4-6-1.511-2.477-2.977-4.959-4.375-7.5-1.625-2.5-1.625-2.5-4-4.813-3.874-3.966-6.554-8.476-8.957-13.437-0.468-0.949-0.936-1.898-1.418-2.875-0.204-0.44-0.204-0.44-1.235-2.664-3.063-4.121-6.331-6.721-11.015-8.711-5.885-0.838-11.703-0.722-17.637-0.621-1.747 8e-3 -3.494 0.014-5.241 0.017-4.647 0.016-9.292 0.07-13.939 0.131-4.788 0.058-9.576 0.084-14.364 0.114-9.294 0.064-18.586 0.17-27.879 0.294-4.416 0.058-8.833 0.109-13.249 0.157z" fill="#003195"/>
<path transform="translate(1971,778)" d="m0 0c4.326 4.326 4.406 9.425 5.373 15.246 0.809 4.514 1.759 8.044 3.678 12.274 2.175 5 2.799 9.169 3.199 14.542 0.077 0.866 0.155 1.732 0.234 2.624 0.186 2.103 0.353 4.208 0.516 6.314h8c0.227-1.547 0.454-3.094 0.688-4.688 0.796-4.456 2.028-8.378 3.75-12.562 1.957-4.801 3.162-9.332 4.062-14.438 1.376-7.473 3.137-14.36 9.062-19.562 2.438-0.75 2.438-0.75 6.438 1.25 1.379 2.504 1.379 2.504 2.562 5.562 0.211 0.544 0.211 0.544 1.278 3.297 0.191 0.519 0.191 0.519 1.16 3.141 0.536 1.423 1.072 2.846 1.625 4.312 1.186 4.045 1.998 7.925 2.75 12.063 1.134 6.019 2.873 11.097 5.637 16.551 0.988 2.074 0.988 2.074 0.988 4.074 3.438-0.25 3.438-0.25 7-1 0.914-3.656 1.096-6.515 1.188-10.25 0.459-7.255 2.596-13.132 5.32-19.824 1.805-4.749 2.888-9.472 3.851-14.449 0.641-2.477 0.641-2.477 2.641-4.477 3.625-0.125 3.625-0.125 7 0 0.688 2.188 0.688 2.188 1 5-0.459 0.744-0.918 1.488-1.391 2.254-1.867 3.187-2.398 5.868-3.047 9.496-0.989 5.007-2.31 9.107-4.593 13.699-1.798 4.735-2.33 9.789-3.063 14.781-0.974 4.051-2.499 6.413-4.906 9.77-1.048 2.983-2.052 5.983-3 9-2 4-2 4-4 5-3.429 0.373-5.278 0.53-8.105-1.547-2.528-3.272-2.763-5.938-3.333-10.015-0.826-5.07-1.692-9.227-4.124-13.75-3.863-7.563-3.859-16.35-4.438-24.688-3.363 0.066-3.363 0.066-7 1-1.418 3.027-1.418 3.027-2.188 6.938-1.928 8.74-1.928 8.74-3.812 12.937-2.512 5.829-3.613 11.973-4.875 18.172-1.151 4.044-2.494 6.693-5.125 9.953-3.519 1.273-5.132 1.406-8.531-0.184-7.501-5.518-8.632-18.289-10.5-26.781-0.81-3.374-1.765-6.441-3.031-9.66-1.701-4.326-2.61-8.551-3.438-13.125-1.008-5.548-2.588-9.396-5.5-14.25 2.599-5.199 3.637-5.57 9-4z" fill="#003195"/>
<path transform="translate(1633,778)" d="m0 0c5.243 5.243 6.186 11.534 7.375 18.625 0.901 5.015 1.956 9.71 3.687 14.5 2.332 6.486 3.171 13.05 3.938 19.875h8c0.086-1.172 0.173-2.344 0.262-3.551 0.731-8.176 1.554-15.124 5.445-22.461 2.32-5.361 3.138-11.131 4.203-16.851 1.101-4.177 2.395-6.791 5.09-10.137 2.5-1.125 2.5-1.125 5-1 2.188 1.312 2.188 1.312 4 4 0.599 2.524 1.018 5.05 1.438 7.609 0.748 3.181 2.448 4.946 4.562 7.391 2.386 6.861 2.733 13.823 3.34 21.016 0.66 3.984 0.66 3.984 3.66 6.984 4.625 0.312 4.625 0.312 9 0 1.643-3.287 1.491-6.865 1.812-10.5 0.658-6.18 1.475-11.316 4.114-16.918 1.93-4.639 2.9-9.576 4.047-14.457 1.027-3.125 1.027-3.125 4.027-5.125 2.625 0 2.625 0 5 1 1.803 5.512 0.132 9.559-1.75 14.875-0.531 1.524-1.062 3.047-1.609 4.617-1.057 2.903-2.149 5.792-3.286 8.664-1.266 3.592-1.884 6.699-2.293 10.469-0.709 5.12-1.712 8.314-5.062 12.375-2.532 3.469-3.016 5.15-3.5 9.562-0.5 4.438-0.5 4.438-3.5 8.438-4 0.5-4 0.5-8 0-3.108-4.144-3.399-5.347-3.875-10.25-0.816-6.208-2.489-9.715-6.125-14.75-1.487-4.461-1.375-9.024-1.562-13.688-0.044-0.988-0.087-1.976-0.131-2.994-0.106-2.439-0.207-4.878-0.307-7.318-3.328 0.223-3.328 0.223-7 1-1.672 1.934-1.672 1.934-2.75 4.438-0.197 0.454-0.197 0.454-1.191 2.753-2.328 6.176-3.983 12.001-4.809 18.559-1.129 7.368-4.186 14.026-8.25 20.25-4.364 2.182-5.466 2.254-10 1-3.909-3.909-4.347-7.898-5.438-13.125-1.129-5.387-2.241-10.469-4.601-15.465-2.067-4.648-3.007-8.85-3.899-13.848-1.03-5.478-2.165-10.449-4.874-15.374-2.188-4.188-2.188-4.188-2.126-7.75 1.636-4.252 4.02-3.744 7.938-2.438z" fill="#003195"/>
<path transform="translate(1078.6 745.19)" d="m0 0c2.438 0.812 2.438 0.812 4.438 3.812 0.119 3.355 0.119 3.355-0.059 7.618-0.028 0.807-0.028 0.807-0.171 4.894-0.034 0.872-0.068 1.744-0.103 2.642-0.53 13.783-0.74 27.528-0.414 41.319 0.029 1.205 0.057 2.41 0.086 3.652 0.148 5.965 0.322 11.929 0.518 17.893 0.061 2.191 0.121 4.381 0.182 6.572 0.04 1.011 0.081 2.022 0.122 3.063 0.062 2.449-0.036 4.901-0.161 7.347l-3 3c-4.536-0.188-5.705-0.704-9-4-3.563-0.437-3.563-0.437-7 0-0.661 1.32-1.32 2.64-2 4-3.377 1.689-6.959 1.214-10.688 1.25-1.571 0.026-3.143 0.052-4.762 0.079-6.292-0.454-10.09-1.868-14.55-6.329v-2c-0.779-0.26-1.558-0.52-2.36-0.789-2.64-1.211-2.64-1.211-3.969-3.671-0.304-0.962-0.608-1.924-0.921-2.914-0.158-0.479-0.158-0.479-0.954-2.899-3.629-12.417-3.478-27.925 2.204-39.727 2.682-3.846 5.654-6.5 9.437-9.25 0.927-0.685 1.854-1.371 2.809-2.078 4.782-2.903 9.302-2.851 14.816-2.922 0.604-0.012 0.604-0.012 3.66-0.078 3.278 0.328 3.278 0.328 7.278 3.328v2c2.343-0.255 4.678-0.592 7-1 1.472-2.944 1.165-5.622 1.21-8.906 0.015-0.691 0.015-0.691 0.086-4.191 0.052-2.935 0.097-5.87 0.133-8.805 0.031-1.383 0.062-2.766 0.094-4.191 0.02-1.276 0.04-2.551 0.06-3.865 0.137-1.004 0.275-2.008 0.417-3.042 3-2 3-2 5.562-1.812zm-38.25 42c-0.382 0.464-0.382 0.464-2.312 2.812-0.537 0.578-0.537 0.578-3.25 3.5-4.648 5.916-3.962 12.123-4 19.376-0.021 0.968-0.042 1.936-0.063 2.933-0.042 7.776 1.409 13.545 6.687 19.504 0.565 0.656 1.13 1.312 1.711 1.988 4.07 3.613 8.049 3.974 13.352 3.949 1.092 6e-3 2.184 0.011 3.309 0.016 3.421-0.279 6.103-0.906 9.254-2.266 1.562-2.812 1.562-2.812 3-6 0.84-0.735 1.681-1.47 2.548-2.228 3.177-3.591 3.095-5.56 3.116-10.303 6e-3 -1.45 0.012-2.9 0.019-4.394-0.019-1.51-0.039-3.019-0.059-4.575 0.02-1.509 0.039-3.018 0.059-4.574-3e-3 -0.725-3e-3 -0.725-0.019-4.394-6e-3 -1.325-0.012-2.649-0.018-4.014-0.801-4.356-2.329-5.689-5.646-8.518-0.423-0.536-0.423-0.536-2.563-3.25-2.437-2.75-2.437-2.75-6.437-3.75-6.618-0.389-13.392-0.122-18.688 4.188z" fill="#003195"/>
<path transform="translate(1221,779)" d="m0 0c5.074 5.24 9.069 9.755 9.237 17.152 0.013 0.538 0.013 0.538 0.08 3.256 0.023 1.165 0.046 2.33 0.07 3.53 0.025 1.191 0.051 2.382 0.077 3.609 0.052 2.521 0.102 5.043 0.149 7.565 0.074 3.872 0.165 7.743 0.256 11.615 0.049 2.445 0.096 4.89 0.143 7.335 0.029 1.165 0.058 2.33 0.088 3.53 0.017 1.074 0.034 2.149 0.051 3.256 0.01 0.474 0.01 0.474 0.058 2.875-0.209 2.277-0.209 2.277-2.209 4.277-5.455-0.455-5.455-0.455-8-3-4.402-0.528-6.568-0.251-10.438 2-7.613 3.338-16.437 3.415-24.32 0.711-5.475-2.889-8.899-7.137-11.742-12.586-1.064-6.653-0.71-12.03 3.25-17.5 5.407-6.031 9.19-8.426 17.25-9.625 4.908-0.02 9.77 0.188 14.672 0.418 4.328-0.418 4.328-0.418 7.371-2.652 2.879-4.068 2.557-6.9 1.957-11.766-2.256-4.512-4.511-6.79-9-9-3.156-0.398-3.156-0.398-6.5-0.375-1.103-8e-3 -2.207-0.015-3.344-0.023-6.586 0.831-10.417 5.398-14.972 9.851-0.721 0.511-1.442 1.021-2.184 1.547-4-1-4-1-5-2v-5c2.75-2.5 2.75-2.5 6-5 0.619-0.887 1.237-1.774 1.875-2.688 7.21-7.846 26.352-5.973 35.125-1.312zm-35.188 39.562c-3.179 4.276-3.206 7.081-2.812 12.438 2.621 4.962 5.53 8.177 11 10 14.527 1.021 14.527 1.021 20-3 4.826-6.949 7.424-13.575 6-22-3.494-3.394-7.46-3.218-12.125-3.375-7.9 0.208-15.758 0.87-22.063 5.937z" fill="#003195"/>
<path transform="translate(1852,779)" d="m0 0c4.486 4.042 8.215 8.163 10 14 0.156 3.32 0.209 6.551 0.16 9.867-5e-3 0.953-0.01 1.906-0.016 2.888-0.017 3.04-0.049 6.08-0.082 9.12-0.027 3.033-0.052 6.066-0.071 9.099-0.012 1.884-0.029 3.768-0.053 5.653-0.029 3.88 0.082 7.489 0.751 11.319 0.051 0.504 0.051 0.504 0.311 3.054l-3 3c-2.675-0.261-4.601-0.8-7-2-4.622-0.276-8.043-0.431-12.305 1.488-7.665 3.136-16.518 2.499-24.32 0.074-4.838-3.673-7.681-8.174-10.375-13.562-0.628-7.745 0.046-11.675 5-18 5.106-5.407 9.677-7.502 17-8 4.682 0.069 9.347 0.186 14.023 0.418 3.977-0.418 3.977-0.418 6.454-2.805 2.3-3.946 3.038-5.976 2.523-10.613-3.79-7.364-3.79-7.364-7.281-9.199-5.23-1.541-10.348-1.665-15.719-0.801-3.225 1.877-5.524 4.235-8 7-4.3 4-4.3 4-7.75 4-0.743-0.33-1.485-0.66-2.25-1-1-4-1-4 0.137-6.484 2.006-2.708 4.052-4.654 6.675-6.766 0.832-0.686 1.663-1.372 2.52-2.078 8.605-5.392 23.891-4.128 32.668 0.328zm-34.309 38.922c-3.302 4.058-2.993 8.026-2.691 13.078 1.757 4.655 2.903 5.927 7 9 3.711 0.928 6.64 1.166 10.438 1.188 1.112 0.014 2.224 0.028 3.371 0.042 4.404-0.318 7.164-1.172 10.253-4.355 4.505-6.684 6.794-11.677 5.938-19.875-3.973-3.973-6.463-4.171-11.875-4.25-7.399 0.066-16.524 0.252-22.434 5.172z" fill="#003195"/>
<path transform="translate(1778,779)" d="m0 0c6.561 4.419 12.072 11.287 14 19 0.142 2.184 0.22 4.374 0.25 6.562 0.026 1.136 0.052 2.272 0.078 3.442-0.328 2.996-0.328 2.996-3.328 5.996-4.424 1.106-8.255 1.161-12.816 1.211-1.751 0.028-3.502 0.057-5.252 0.086-2.755 0.041-5.508 0.078-8.263 0.104-2.662 0.028-5.323 0.074-7.985 0.122-0.797 0.01-0.797 0.01-4.827 0.06-3.857 0.417-3.857 0.417-6.857 3.417-0.17 5.704 0.674 9.133 4.375 13.375 1.188 1.228 2.395 2.438 3.625 3.625l3 3c3.316 1.105 5.885 1.168 9.375 1.188 1.121 0.014 2.243 0.028 3.398 0.042 3.222-0.23 5.37-0.754 8.227-2.23 0.32-0.402 0.32-0.402 1.938-2.438 2.431-3.02 4.449-4.207 8.062-5.562l4 1c0.32 2.703 0.32 2.703 0 6-2.195 2.484-2.195 2.484-5.125 4.75-0.476 0.379-0.476 0.379-2.883 2.297-5.905 3.855-10.936 4.248-17.93 4.265-0.767 9e-3 -0.767 9e-3 -4.652 0.051-7.406-0.61-12.886-3.618-18.254-8.609-6.266-8.003-9.206-19.256-8.683-29.348 1.801-11.636 4.4-21.676 13.902-29.094 0.73-0.581 1.459-1.162 2.211-1.761 8.785-5.644 21.335-5.253 30.414-0.551zm-34 15c-1.773 3.547-1.212 7.128-1 11 3.79 3.79 5.128 3.385 10.371 3.398 1.461 4e-3 2.922 8e-3 4.428 0.012 0.765-6e-3 0.765-6e-3 4.639-0.035 1.526 0.012 3.053 0.023 4.626 0.035 1.463-4e-3 2.925-8e-3 4.432-0.012 1.343-3e-3 2.685-6e-3 4.068-0.01 3.436-0.388 3.436-0.388 7.436-3.388 1.064-4.501 0.501-7.118-1.773-11.121-4.235-6.019-6.756-9.458-14.227-10.879-11.067-1.235-15.927 3.217-23 11z" fill="#003195"/>
<path transform="translate(1147,779)" d="m0 0c6.705 5.301 11.393 10.392 13 19 0.347 4.368 0.614 8.652 0 13-4.766 4.766-9.384 4.159-15.852 4.281-0.855 0.019-1.71 0.037-2.591 0.056-3.654 0.079-7.309 0.147-10.963 0.215-2.67 0.052-5.339 0.109-8.008 0.167-0.799 0.015-0.799 0.015-4.842 0.092-3.744 0.189-3.744 0.189-5.744 1.189-1.262 4.416-1.125 6.668 0.5 11 3.163 5.061 6.633 10.044 12.5 12 12.101 0.917 12.101 0.917 17.625-1.75 1.519-1.439 3.021-2.896 4.5-4.375 1.875-1.875 1.875-1.875 5.875-3.875h4c0.75 2.188 0.75 2.188 1 5-2.927 5.056-8.159 8.829-13 12-4.494 1.124-8.716 1.222-13.312 1.25-1.647 0.026-3.293 0.052-4.989 0.078-6.377-0.445-10.179-1.808-14.699-6.328v-2l-4-2c-6.517-6.517-7.303-15.997-7.562-24.875 0.24-9.78 1.731-20.665 8.75-28.063 2.812-2.062 2.812-2.062 4.812-2.062v-2c9.195-7.056 22.769-7.041 33-2zm-29.125 9.438c-0.619 0.845-1.237 1.691-1.875 2.562-0.743 0.536-1.485 1.072-2.25 1.625-2.888 3.919-2.393 8.668-1.75 13.375 4.232 4.232 13.187 2.37 18.875 2.375 0.79 0.012 0.79 0.012 4.785 0.074 1.512 4e-3 3.024 8e-3 4.582 0.012 0.696 4e-3 0.696 4e-3 4.215 0.025 3.543-0.486 3.543-0.486 6.008-2.292 1.535-2.194 1.535-2.194 1.847-5.756-1.868-6.316-5.479-10.988-10.312-15.438-8.271-3.6-17.874-3.732-24.125 3.438z" fill="#003195"/>
<path transform="translate(2116,779)" d="m0 0c7.158 5.271 10.874 10.122 12.75 18.938 0.131 0.592 0.131 0.592 0.797 3.589 0.465 3.563 0.489 6.036-0.547 9.473-5.926 4.445-10.406 4.133-17.73 4.246-1.707 0.033-3.413 0.066-5.12 0.1-2.679 0.047-5.359 0.092-8.038 0.131-2.594 0.039-5.187 0.091-7.78 0.144-1.55 0.025-3.099 0.05-4.696 0.076-3.636 0.303-3.636 0.303-5.636 2.303-0.452 4.516-0.42 7.219 1.75 11.25 2.25 2.75 2.25 2.75 4.5 5l1.75 1.75v2c4.482 1.718 8.268 2.297 13.062 2.312 0.594 9e-3 0.594 9e-3 3.598 0.051 6.116-0.665 9.19-4.104 13.34-8.363 3-2 3-2 8-2 0.812 2.188 0.812 2.188 1 5-1.938 2.375-1.938 2.375-5 5-0.652 0.606-1.305 1.212-1.977 1.836-6.223 5.711-10.928 6.362-19.335 6.414-1.647 0.026-3.293 0.052-4.989 0.078-8.529-0.595-13.673-4.165-19.453-10.191-7.014-9.796-7.425-23.234-5.703-34.778 2.149-11.348 6.426-17.317 15.457-24.359 8.322-5.326 21.507-4.619 30 0zm-29.125 9.438c-0.619 0.845-1.238 1.691-1.875 2.562l-4 4c-1.772 3.544-1.215 7.133-1 11 5.653 3.769 13.38 2.326 20 2.312 1.583 0.017 3.166 0.033 4.797 0.049 0.755 1e-3 0.755 1e-3 4.578 2e-3 1.39 3e-3 2.779 6e-3 4.211 9e-3 3.414-0.372 3.414-0.372 6.414-3.372 0.956-5.101 0.919-7.519-1.84-11.965-6.74-8.534-6.74-8.534-12.16-10.035-7.52-0.843-13.892-0.565-19.125 5.438z" fill="#003195"/>
<path transform="translate(1517,778)" d="m0 0c2.188 2.375 2.188 2.375 4 5 0.866 0.639 1.733 1.279 2.625 1.938 3.484 3.025 4.227 6.014 4.558 10.595 0.082 3.121 0.094 6.236 0.083 9.358 1e-3 0.57 1e-3 0.57 5e-3 3.457 2e-3 2.404-2e-3 4.808-0.01 7.212-0.011 3.691 0 7.382 0.012 11.073-1e-3 2.336-3e-3 4.672-7e-3 7.008 4e-3 1.108 8e-3 2.216 0.012 3.358-0.048 7.771-0.048 7.771-2.278 10.001-2.5-0.125-2.5-0.125-5-1l-2-4c-3.312 0.25-3.312 0.25-7 1-0.99 1.32-1.98 2.64-3 4-3.985 1.328-7.549 1.209-11.75 1.25-1.562 0.026-3.125 0.052-4.734 0.078-7.307-0.531-11.724-2.87-16.516-8.328-4.475-5.967-4.586-10.751-4-18 2.346-5.68 7.177-9.383 12-13 8.17-2.07 15.776-2.09 24.18-1.777 3.958-0.231 5.743-0.795 8.82-3.223 1.847-3.694 1.367-6.963 1-11-3.062-4.385-5.212-6.606-10-9-6.043-0.629-12.44-0.558-18 2-1.674 2.328-3.341 4.661-5 7-3.188 1.062-3.188 1.062-6 1l-2-2c0.107-3.727 0.534-5.491 3.074-8.266 0.863-0.654 1.725-1.309 2.614-1.984 0.849-0.665 1.698-1.33 2.574-2.016 8.836-5.597 22.164-5.527 31.738-1.734zm-34 42c-2.208 4.415-2.726 6.161-2 11 2.762 4.084 5.905 7.27 10 10 4.67 0.346 9.323 0.137 14 0 0.681 0.01 0.681 0.01 4.125 0.062 2.875-1.062 2.875-1.062 5.125-5.437 0.578-1.526 1.155-3.053 1.75-4.625l3-3c0.434-2.559 0.434-2.559 0.438-5.438 0.019-0.947 0.038-1.894 0.058-2.871-0.496-2.691-0.496-2.691-2.051-5.011-8.508-5.845-27.45-2.126-34.445 5.32z" fill="#003195"/>
<path transform="translate(1273 775.81)" d="m0 0c0.588-7e-3 0.588-7e-3 3.562-0.043 7.557 0.507 13.246 3.821 18.438 9.231 1.188 3.812 1.188 3.812 1 7-2 2-2 2-4.25 2.062-2.75-1.062-2.75-1.062-5.688-4.5-3.201-3.724-4.344-4.73-9.062-5.562-5.897-0.41-10.017-0.323-15 3-3 4-3 4-4 7.812 1 4.188 1 4.188 3.344 6.121 6.131 3.528 12.077 5.542 18.968 7.067 7.247 1.627 10.694 3.534 15.688 9 0.99 0.948 1.98 1.897 3 2.874 2.767 4.324 2.622 7.078 2 12.126-2.691 6.242-7.301 12.339-13.637 15.183-4.336 1.053-8.341 1.081-12.801 1.067-0.814 2e-3 -0.814 2e-3 -4.933 0.015-10.122-0.581-10.122-0.581-13.754-4.641-0.619-0.866-1.237-1.732-1.875-2.624-1.655-1.348-3.32-2.684-5-4-1.354-2.709-1.065-5.01-1-8 2.148-0.836 2.148-0.836 5-1 2.789 2.273 2.789 2.273 5.625 5.374 6.014 6.509 6.014 6.509 11.773 6.793 1.313 7e-3 2.625 0.013 3.977 0.02 0.654 7e-3 0.654 7e-3 3.961 0.043 3.465-0.218 5.672-0.506 8.664-2.23 2.388-4.777 2.362-7.711 2-13-1.772-4.292-3.925-5.92-8-8-2.279-0.445-4.574-0.814-6.875-1.126-9.041-1.705-19.222-5.383-24.766-13.183-1.864-4.891-1.765-9.73-0.359-14.691 2.75-2.626 2.75-2.626 6-5 0.412-0.537 0.412-0.537 2.5-3.25 4.176-4.594 9.559-3.905 15.5-3.938z" fill="#003195"/>
<path transform="translate(1555,756)" d="m0 0c2.312 0.25 2.312 0.25 5 1 3.401 4.535 3.339 5.791 3.188 11.25-0.028 1.263-0.055 2.527-0.083 3.828-0.034 0.964-0.069 1.929-0.105 2.922 0.452 0.055 0.452 0.055 2.738 0.332 1.18 0.159 2.359 0.317 3.574 0.48 1.172 0.151 2.344 0.302 3.551 0.458 3.137 0.73 3.137 0.73 6.137 3.73-3.529 4.603-7.51 4.902-13 6-5.099 5.099-3.225 14.968-3.24 21.67-0.01 2.557-0.041 5.113-0.072 7.67-6e-3 1.625-0.011 3.251-0.016 4.926-9e-3 1.482-0.019 2.965-0.028 4.493 0.385 4.588 1.456 8.06 3.356 12.241 2.227 1.734 2.227 1.734 4.625 2.75 1.444 0.743 2.888 1.485 4.375 2.25l1 4c-3.7 2.467-6.106 2.144-10.426 1.602-5.037-1.178-8.389-3.854-11.255-8.082-1.854-4.949-1.607-9.414-1.479-14.649 0.012-2.191 0.021-4.381 0.029-6.572 0.027-3.44 0.069-6.877 0.148-10.316 0.069-3.33 0.076-6.656 0.073-9.987 0.039-1.027 0.078-2.054 0.118-3.113-0.029-2.952-0.115-5.136-1.208-7.883-2.543-1.825-4.897-2.878-7.851-3.902-0.709-0.362-1.418-0.725-2.149-1.098v-4c1.464-0.474 2.929-0.949 4.438-1.438 4.562-1.562 4.562-1.562 5.562-2.562 0.287-3.525 0.449-7.05 0.621-10.582 0.379-3.418 0.379-3.418 2.379-7.418z" fill="#003195"/>
<path transform="translate(2185.1 745.19)" d="m0 0c2.875 0.812 2.875 0.812 4.875 2.812 0.204 3.028 0.283 5.964 0.275 8.992 5e-3 0.932 0.01 1.864 0.015 2.824 0.014 3.092 0.013 6.183 0.011 9.274 4e-3 2.143 8e-3 4.285 0.013 6.427 7e-3 4.495 7e-3 8.99 2e-3 13.485-6e-3 5.769 0.011 11.537 0.034 17.305 0.015 4.426 0.016 8.852 0.013 13.277 0 2.127 5e-3 4.255 0.015 6.382 0.013 2.971 6e-3 5.942-6e-3 8.913 8e-3 0.884 0.016 1.768 0.023 2.678-0.052 6.101-0.052 6.101-3.395 9.443-3 0.376-3 0.376-6 0-3.436-3.436-3.36-4.761-3.418-9.432 5e-3 -0.882 9e-3 -1.764 0.014-2.673-7e-3 -0.932-0.014-1.864-0.021-2.824-0.018-3.086-0.014-6.172-9e-3 -9.258-4e-3 -2.141-9e-3 -4.282-0.015-6.423-9e-3 -4.489-7e-3 -8.978 3e-3 -13.467 0.011-5.76-9e-3 -11.52-0.038-17.281-0.018-4.421-0.018-8.843-0.012-13.264 0-2.125-6e-3 -4.249-0.019-6.373-0.014-2.967-4e-3 -5.932 0.013-8.899-9e-3 -0.882-0.019-1.764-0.029-2.673 0.03-2.447 0.03-2.447 0.531-6.433 4-3 4-3 7.125-2.812z" fill="#003195"/>
<path transform="translate(1363,755)" d="m0 0 4 2c0.812 3.994 1.005 7.679 0.938 11.75 0.062 3.25 0.062 3.25 2.062 7.25 2.531 0.539 2.531 0.539 5.5 0.625 5.307 0.182 5.307 0.182 7.5 2.375l-1 5-13 1c-0.193 6.28-0.372 12.561-0.537 18.842-0.058 2.134-0.12 4.269-0.187 6.404-0.094 3.075-0.175 6.151-0.253 9.227-0.032 0.948-0.064 1.896-0.097 2.873-0.118 5.248 0.11 9.753 2.074 14.654 3 2 3 2 7.062 2.875 1.3 0.371 2.599 0.743 3.938 1.125l2 4c-3 3-3 3-6.688 3.312-4.39-0.318-8.142-0.898-12.312-2.312-5.26-7.013-5.285-14.641-5.125-23.145 8e-3 -0.932 0.015-1.864 0.023-2.824 0.024-2.948 0.061-5.896 0.102-8.843 0.053-3.903 0.093-7.805 0.125-11.708 0.017-0.891 0.033-1.783 0.05-2.702 0.035-4.391-0.171-6.77-2.175-10.778-2.981-0.745-5.983-1.413-9-2l-2-2v-4c2-1 2-1 6.5-1.438 4.5-0.562 4.5-0.562 6.5-2.562 0.142-3.262-6e-3 -6.476-0.125-9.738 0.126-3.28 0.608-5.37 2.125-8.262l2-1z" fill="#003094"/>
<path transform="translate(2154.1 745.12)" d="m0 0c2.875 0.875 2.875 0.875 4.875 3.875 0.193 2.933 0.256 5.875 0.259 8.814 3e-3 0.901 7e-3 1.802 0.01 2.731 9e-3 2.984 3e-3 5.967-3e-3 8.951 1e-3 2.071 3e-3 4.143 5e-3 6.214 3e-3 4.343-1e-3 8.687-0.01 13.03-0.012 5.57-5e-3 11.14 7e-3 16.71 7e-3 4.278 5e-3 8.556 0 12.834-2e-3 2.054 0 4.108 5e-3 6.162 5e-3 2.87-3e-3 5.74-0.014 8.61-1e-3 0.817-1e-3 0.817-5e-3 4.953-0.254 3.991-0.254 3.991-2.254 7.991-2.875 0.937-2.875 0.937-6 1l-4-3c-0.401-3.15-0.547-5.953-0.518-9.105-7e-3 -0.932-0.014-1.864-0.021-2.825-0.017-3.086-6e-3 -6.171 8e-3 -9.257-3e-3 -2.141-7e-3 -4.282-0.012-6.423-6e-3 -4.489 3e-3 -8.978 0.022-13.467 0.022-5.761 9e-3 -11.521-0.015-17.282-0.014-4.421-0.01-8.842 1e-3 -13.264 2e-3 -2.124-1e-3 -4.248-0.01-6.373-0.01-2.966 5e-3 -5.932 0.027-8.899-8e-3 -0.882-0.016-1.764-0.024-2.673 0.034-2.447 0.034-2.447 0.542-6.432 4-3 4-3 7.125-2.875z" fill="#003296"/>
<path transform="translate(1912.6 776.88)" d="m0 0c1.444 0.041 2.888 0.082 4.375 0.125 0.687 2.313 0.687 2.313 1 5-2.721 2.721-4.256 3.756-7.625 5.313-0.88 0.442-1.761 0.884-2.668 1.339-1.734 0.864-3.486 1.693-5.258 2.477-3.911 2.042-6.034 3.679-7.517 7.937-1.87 9.567-2.09 18.413-1.495 28.121 0.155 2.723 0.3 5.445 0.434 8.168 0.036 0.592 0.036 0.592 0.217 3.583-0.088 3.062-0.088 3.062-2.088 7.062-2.875 0.937-2.875 0.937-6 1-4-3-4-3-4.494-5.777 2e-3 -1.124 5e-3 -2.249 8e-3 -3.407-6e-3 -1.274-0.012-2.549-0.018-3.862 0.014-1.379 0.028-2.757 0.043-4.177 1e-3 -1.411 2e-3 -2.823 3e-3 -4.277 6e-3 -2.987 0.022-5.974 0.046-8.96 0.037-4.587 0.041-9.174 0.041-13.761 0.01-2.896 0.021-5.793 0.035-8.689 2e-3 -1.38 5e-3 -2.761 7e-3 -4.183 0.013-1.271 0.025-2.543 0.038-3.853 8e-3 -1.123 0.016-2.246 0.024-3.404 0.267-2.65 0.267-2.65 2.267-4.65h5c2.187 2.437 2.187 2.437 4 5 2.889 1.444 4.796 1.377 8 1 2.75-2.375 2.75-2.375 5-5 2-2 2-2 6.625-2.125z" fill="#003195"/>
<path transform="translate(1402,745)" d="m0 0c2.625 0.188 2.625 0.188 5 1 1.614 3.228 1.11 6.491 1.098 10.07-4e-3 1.618-7e-3 3.236-0.01 4.903-8e-3 1.717-0.017 3.435-0.026 5.152-5e-3 1.725-9e-3 3.451-0.013 5.176-0.012 4.233-0.028 8.466-0.049 12.699l8 1c-0.496 4.468-0.69 5.69-4 9h-2c-1.204 4.816-1.174 9.418-1.211 14.348-0.028 2.069-0.057 4.139-0.086 6.209-0.041 3.261-0.078 6.522-0.104 9.783-0.028 3.149-0.074 6.297-0.122 9.445-4e-3 0.978-7e-3 1.956-0.01 2.964-0.126 6.91-0.126 6.91-3.467 10.251-2.625-0.188-2.625-0.188-5-1-1.309-2.619-1.074-4.462-1.006-7.393 0.023-1.128 0.047-2.257 0.071-3.42 0.03-1.227 0.06-2.454 0.091-3.718 0.054-2.591 0.107-5.183 0.16-7.774 0.091-4.09 0.184-8.18 0.277-12.27 0.089-3.944 0.17-7.887 0.251-11.831 0.03-1.211 0.06-2.422 0.091-3.669 0.137-6.756-0.171-13.214-0.935-19.925-0.212-4.812-0.23-9.621-0.25-14.438-0.021-1.265-0.041-2.53-0.062-3.833-3e-3 -0.605-3e-3 -0.605-0.016-3.663-9e-3 -1.093-0.019-2.187-0.028-3.314 0.356-2.752 0.356-2.752 3.356-5.752z" fill="#003094"/>
<path transform="translate(998,753)" d="m0 0c3.101 3.101 2.262 6.036 2.275 10.349 5e-3 0.864 0.01 1.727 0.015 2.617 0.014 2.864 0.013 5.728 0.011 8.593 4e-3 1.985 8e-3 3.97 0.013 5.956 7e-3 4.165 7e-3 8.331 2e-3 12.496-6e-3 5.345 0.011 10.689 0.034 16.034 0.015 4.101 0.016 8.203 0.013 12.304 0 1.971 5e-3 3.942 0.015 5.913 0.013 2.753 6e-3 5.506-6e-3 8.259 1e-3 1.569 2e-3 3.137 2e-3 4.753-0.374 3.726-0.374 3.726-3.374 6.726-2.562-0.125-2.562-0.125-5-1-2.636-3.954-2.254-6.427-2.259-11.172-3e-3 -0.832-7e-3 -1.665-0.01-2.523-9e-3 -2.757-3e-3 -5.513 3e-3 -8.27-1e-3 -1.914-3e-3 -3.828-5e-3 -5.743-3e-3 -4.014 1e-3 -8.028 0.01-12.042 0.012-5.146 5e-3 -10.292-7e-3 -15.438-7e-3 -3.954-5e-3 -7.908 0-11.862 2e-3 -1.897 0-3.795-5e-3 -5.692-5e-3 -2.652 3e-3 -5.305 0.014-7.957 2e-3 -1.51 3e-3 -3.02 5e-3 -4.575 0.254-3.726 0.254-3.726 2.254-7.726 2-1 2-1 6 0z" fill="#003195"/>
<path transform="translate(1445,779)" d="m0 0c8.185 8.134 10.123 14.103 10.387 25.496 0.025 1.026 0.051 2.051 0.077 3.108 0.052 2.168 0.101 4.336 0.149 6.504 0.074 3.314 0.165 6.627 0.256 9.941 0.049 2.107 0.096 4.215 0.143 6.322 0.029 0.99 0.058 1.98 0.088 2.999 0.157 8.595 0.157 8.595-2.1 12.63l-1 1h-5c-3-3-3-3-3.277-7.436 0.027-1.88 0.07-3.759 0.125-5.638 0.028-2.05 0.056-4.1 0.084-6.151 0.062-3.228 0.13-6.455 0.205-9.683 0.067-3.118 0.108-6.235 0.148-9.354 0.03-0.955 0.06-1.911 0.091-2.895 0.083-7.587-2.056-12.607-6.513-18.823-4.085-2.882-7.88-2.565-12.675-2.332-0.884 0.022-1.768 0.045-2.678 0.068-2.171 0.059-4.341 0.148-6.51 0.244 0.75-5.75 0.75-5.75 3-8 8.305-2.203 17.324-1.838 25 2z" fill="#003195"/>
<path transform="translate(2215.4 828.69)" d="m0 0c2.562 1.312 2.562 1.312 5.562 5.312 1.06 4.451 1.58 6.888-0.562 11-2.438 2-2.438 2-5.5 2.5-2.938-0.5-2.938-0.5-5.938-3.5-0.449-5.397 0.133-9.916 2-15 2-1 2-1 4.438-0.312z" fill="#003195"/>
</svg>
