<?xml version="1.0" encoding="UTF-8"?>
<svg version="1.1" viewBox="0 0 2448 1112" xmlns="http://www.w3.org/2000/svg">
<path transform="translate(201.01 223.87)" d="m0 0c0.609-1e-3 0.609-1e-3 3.689-8e-3 1.337 2e-3 2.675 4e-3 4.053 6e-3 1.429-2e-3 2.858-4e-3 4.329-6e-3 3.991-4e-3 7.981-3e-3 11.971-1e-3 4.348 2e-3 8.696-2e-3 13.044-6e-3 7.658-5e-3 15.316-7e-3 22.974-6e-3 11.465 1e-3 22.929-3e-3 34.393-9e-3 19.536-0.01 39.071-0.014 58.607-0.016 19.806-3e-3 39.613-7e-3 59.419-0.014 1.25 0 2.499-1e-3 3.786-1e-3 5.089-2e-3 10.177-4e-3 15.266-5e-3 61.72-0.022 123.44-0.033 185.16-0.042 20.009-3e-3 40.018-6e-3 60.026-0.01 1.411 0 2.822 0 4.276-1e-3 5.708-1e-3 11.416-2e-3 17.125-3e-3 97.631-0.018 195.26-0.033 292.9-0.04 7.67-1e-3 15.341-2e-3 23.011-2e-3 1.521 0 3.043 0 4.611-1e-3 15.416-1e-3 30.832-2e-3 46.248-3e-3 3.091 0 6.182-1e-3 9.273-1e-3 99.313-8e-3 198.63-0.03 297.94-0.063 71.35-0.023 142.7-0.045 214.05-0.052h4.443c32.185-3e-3 64.37-5e-3 96.555-6e-3 12.949-1e-3 25.897-1e-3 38.846-2e-3h4.295c45.706-2e-3 91.412-0.016 137.12-0.037 46.015-0.02 92.031-0.028 138.05-0.019 6.35 2e-3 12.701 3e-3 19.051 4e-3 1.245 0 2.49 0 3.773 1e-3 19.758 3e-3 39.516-8e-3 59.274-0.024 19.401-0.015 38.802-0.016 58.203-2e-3 11.392 8e-3 22.784 5e-3 34.176-0.015 7.55-0.011 15.1-9e-3 22.65 6e-3 4.29 8e-3 8.58 9e-3 12.87-7e-3 4.597-0.014 9.194-3e-3 13.791 0.014 1.338-0.01 2.676-0.02 4.054-0.03 1.217 9e-3 2.434 0.019 3.688 0.028h3.178c3.636 0.641 5.297 1.842 7.834 4.5 0.495 3.772 0.667 7.091 0.623 10.866 7e-3 1.126 0.014 2.253 0.021 3.413 0.016 3.807-4e-3 7.613-0.023 11.421 5e-3 2.743 0.011 5.487 0.02 8.23 0.017 7.566 2e-3 15.131-0.017 22.696-0.015 8.149-2e-3 16.298 8e-3 24.446 0.014 15.05 5e-3 30.099-0.016 45.148-0.018 13.902-0.027 27.803-0.025 41.704v2.791c1e-3 3.739 1e-3 7.478 2e-3 11.216 4e-3 35.092-0.018 70.184-0.054 105.28-0.032 31.197-0.044 62.394-0.038 93.591 0 2.003 0 4.006 1e-3 6.009v3.001c1e-3 4.984 2e-3 9.969 3e-3 14.954 0 0.983 1e-3 1.966 1e-3 2.979 4e-3 26.046-6e-3 52.091-0.021 78.137 0 0.926-1e-3 1.852-1e-3 2.807-1e-3 0.924-1e-3 1.849-2e-3 2.801 0 0.923-1e-3 1.846-1e-3 2.797-1e-3 1.858-2e-3 3.717-4e-3 5.575-7e-3 12.974-9e-3 25.947-8e-3 38.92 2e-3 16.716-6e-3 33.432-0.031 50.148-0.012 8.065-0.019 16.13-0.013 24.195 5e-3 7.373-4e-3 14.747-0.024 22.12-4e-3 2.677-4e-3 5.354 2e-3 8.031 7e-3 3.62-4e-3 7.24-0.02 10.86 6e-3 1.055 0.013 2.11 0.019 3.198-0.044 5.281-0.136 7.314-3.402 11.669-6.702 1.768-14.106 1.136-20.997 1.123-1.431 1e-3 -2.861 3e-3 -4.335 4e-3 -3.987 2e-3 -7.973 0-11.96-4e-3 -4.347-3e-3 -8.694-1e-3 -13.042 1e-3 -7.654 2e-3 -15.307 1e-3 -22.961-3e-3 -11.458-6e-3 -22.916-6e-3 -34.374-5e-3 -19.526 2e-3 -39.051-1e-3 -58.577-7e-3 -19.794-6e-3 -39.589-0.01-59.383-0.011-1.249 0-2.498 0-3.785-1e-3h-15.259c-61.686-4e-3 -123.37-0.019-185.06-0.036l-59.991-0.015c-104.71-0.027-209.42-0.056-314.13-0.095-7.666-3e-3 -15.331-5e-3 -22.997-8e-3 -1.52-1e-3 -3.041-1e-3 -4.608-2e-3 -15.406-6e-3 -30.812-0.011-46.219-0.017-3.089-1e-3 -6.178-2e-3 -9.267-3e-3 -99.258-0.037-198.52-0.056-297.77-0.062-71.314-5e-3 -142.63-0.012-213.94-0.038-1.466 0-2.931-1e-3 -4.441-1e-3 -32.167-0.012-64.334-0.024-96.501-0.038-12.942-6e-3 -25.883-0.012-38.825-0.017-0.708 0-0.708 0-4.292-2e-3 -45.682-0.019-91.364-0.023-137.04-0.019-45.989 4e-3 -91.977-7e-3 -137.96-0.041-6.347-4e-3 -12.693-9e-3 -19.039-0.013-0.622-1e-3 -0.622-1e-3 -3.77-3e-3 -19.747-0.013-39.495-9e-3 -59.243 1e-3 -19.389 0.01-38.778 3e-3 -58.167-0.024-11.386-0.015-22.771-0.016-34.157 3e-3 -7.545 0.011-15.09 4e-3 -22.634-0.018-4.288-0.012-8.576-0.016-12.864 2e-3 -4.593 0.015-9.185 0-13.779-0.023-1.339 0.012-2.678 0.024-4.058 0.036-1.214-0.013-2.428-0.025-3.679-0.038-1.048 0-2.096-1e-3 -3.175-1e-3 -2.708-0.625-2.708-0.625-5.045-2.86-2.61-4.339-2.209-8.826-2.164-13.742-5e-3 -1.126-0.011-2.252-0.017-3.412-0.013-3.801 2e-3 -7.6 0.017-11.401-4e-3 -2.741-0.01-5.482-0.017-8.223-0.015-7.553-5e-3 -15.107 0.01-22.66 0.011-8.138-1e-3 -16.276-0.01-24.414-0.014-15.027-8e-3 -30.054 6e-3 -45.081 0.013-13.879 0.018-27.759 0.015-41.639v-2.787c-1e-3 -3.733-1e-3 -7.467-2e-3 -11.2-7e-3 -35.038 8e-3 -70.075 0.034-105.11 0.024-31.15 0.029-62.3 0.019-93.45-3e-3 -7.977-5e-3 -15.954-8e-3 -23.932 0-0.982 0-1.964-1e-3 -2.975-7e-3 -26.007-1e-3 -52.013 0.01-78.02l3e-3 -8.391c1e-3 -1.856 2e-3 -3.711 3e-3 -5.567 5e-3 -13.875 4e-3 -27.749-1e-3 -41.624-5e-3 -15.769 1e-3 -31.539 0.021-47.308 0.01-8.053 0.015-16.106 7e-3 -24.159-7e-3 -7.361 0-14.722 0.018-22.083 4e-3 -2.673 3e-3 -5.347-4e-3 -8.02-8e-3 -3.613 2e-3 -7.226 0.017-10.839-6e-3 -1.056-0.013-2.112-0.02-3.2 0.058-7.183 0.058-7.183 3.401-10.525 3.667-1.078 7.206-1.126 11.011-1.127zm142.99 89.127c-3.884 5.183-4.089 11.87-4.875 18.125-0.166 1.258-0.332 2.517-0.503 3.814-1.936 14.986-3.587 30.008-5.267 45.025-1.426 12.747-2.916 25.485-4.418 38.223-0.064 0.546-0.064 0.546-0.389 3.31-1.632 13.857-3.303 27.709-5.009 41.557-1.053 8.652-2.029 17.312-2.977 25.977-0.127 1.159-0.254 2.319-0.384 3.514-0.261 2.385-0.522 4.771-0.783 7.157-0.131 1.192-0.261 2.383-0.395 3.61-0.13 1.187-0.26 2.375-0.394 3.598-1.511 13.775-3.115 27.509-5.208 41.21-1.676 11.207-2.757 22.473-3.897 33.745-0.994 9.704-2.159 19.357-3.564 29.01-1.456 10.023-2.55 20.035-3.437 30.125-0.865 9.794-1.899 19.519-3.313 29.25-2.117 14.602-3.781 29.247-5.441 43.907-1.419 12.516-2.872 25.024-4.465 37.518-0.14 1.098-0.279 2.195-0.423 3.326-0.668 5.232-1.343 10.463-2.03 15.693-0.242 1.886-0.485 3.771-0.727 5.657-0.213 1.628-0.426 3.255-0.646 4.932-1.265 13.097-1.265 13.097 1.545 18.717 4.102 2.735 7.856 2.287 12.624 2.274 0.988 5e-3 1.975 0.01 2.992 0.016 3.271 0.014 6.542 0.013 9.813 0.01 2.271 4e-3 4.542 9e-3 6.812 0.013 4.763 8e-3 9.526 7e-3 14.29 2e-3 6.105-6e-3 12.21 0.011 18.316 0.035 4.691 0.014 9.382 0.015 14.073 0.012 2.251 1e-3 4.502 6e-3 6.753 0.016 3.148 0.012 6.295 5e-3 9.443-6e-3 0.932 8e-3 1.863 0.015 2.822 0.023 4.828-0.039 8.293-0.219 12.062-3.395 2.549-4.694 3.437-8.811 3.808-14.102 0.053-0.681 0.053-0.681 0.318-4.125 0.103-1.451 0.206-2.903 0.311-4.398 0.856-10.854 1.893-21.608 3.5-32.375 1.727-11.72 2.93-23.457 4-35.25 1.291-14.201 2.787-28.353 4.563-42.5 1.58-12.614 3.073-25.229 4.375-37.875 1.772-17.197 3.652-34.381 5.562-51.563 0.152-1.366 0.304-2.732 0.46-4.14 1.972-17.737 3.998-35.467 6.096-53.19 1.604-13.587 2.996-27.188 4.312-40.805 1.202-12.4 2.65-24.744 4.388-37.081 0.157-1.111 0.313-2.222 0.475-3.366 0.148-1.046 0.297-2.092 0.45-3.17 0.38-3.045 0.604-6.074 0.808-9.135 0.574-4.925 0.574-4.925 3.574-8.925 8.424-0.973 8.424-0.973 12.937 1.812 2.923 4.518 3.905 8.969 5.063 14.188 0.623 2.667 1.248 5.333 1.875 8 0.341 1.467 0.683 2.933 1.035 4.445 1.463 6.114 3.071 12.187 4.687 18.262 1.581 5.944 3.115 11.9 4.653 17.855 2.755 10.656 5.555 21.299 8.375 31.938 0.387 1.462 0.775 2.925 1.174 4.432 1.543 5.823 3.088 11.645 4.638 17.466 2.782 10.486 5.421 21.004 8.041 31.531 2.089 8.381 4.255 16.736 6.522 25.071 2.854 10.597 5.62 21.216 8.362 31.842 1.503 5.815 3.025 11.622 4.579 17.423 2.223 8.314 4.362 16.648 6.496 24.985 2.39 9.319 4.783 18.637 7.25 27.937 2.137 8.062 4.144 16.154 6.149 24.249 1.607 6.45 3.359 12.838 5.234 19.216 1.09 3.926 2.014 7.877 2.93 11.848 1.457 6.316 3.099 12.533 4.933 18.75 1.724 6.061 3.211 12.186 4.723 18.304 2.002 6.625 3.741 11.244 9.344 15.446 3.571 1.014 6.955 1.121 10.655 1.109 1.127-1e-3 2.254-3e-3 3.415-4e-3 1.227-7e-3 2.454-0.013 3.719-0.02 1.299-3e-3 2.599-7e-3 3.938-0.01 4.299-0.012 8.599-0.033 12.898-0.056 1.467-7e-3 2.935-0.014 4.447-0.021 7.76-0.037 15.521-0.081 23.281-0.131 8.027-0.049 16.054-0.075 24.081-0.096 6.165-0.02 12.329-0.058 18.494-0.101 2.96-0.017 5.92-0.028 8.88-0.032 4.134-7e-3 8.268-0.039 12.403-0.077 0.613 2e-3 0.613 2e-3 3.718 0.011 8.256-0.113 8.256-0.113 12.237-2.358 5.494-6.635 7.005-15.208 8.834-23.402 0.517-2.236 1.037-4.472 1.558-6.707 0.248-1.062 0.495-2.123 0.75-3.217 1.087-4.539 2.384-9.007 3.703-13.482 3.601-12.412 6.646-24.986 9.764-37.526 1.854-7.441 3.785-14.859 5.752-22.271 1.59-6.023 3.13-12.06 4.676-18.095 3.911-15.273 7.918-30.515 12.044-45.732 3.346-12.372 6.507-24.784 9.591-37.223 1.591-6.382 3.313-12.706 5.166-19.016 1.694-6.029 3.161-12.115 4.652-18.196 0.997-4.021 2.054-8.023 3.129-12.023 2.813-10.5 5.474-21.039 8.152-31.574 4.745-18.661 9.562-37.298 14.625-55.875 2.035-7.473 3.947-14.94 5.625-22.5 1.299-5.674 2.723-10.431 5.813-15.375 3.619-1.81 8.063-1.696 12-1 3.626 4.835 3.891 8.873 4.5 14.687 0.251 2.202 0.502 4.404 0.754 6.606 0.124 1.124 0.247 2.249 0.375 3.407 0.339 3.016 0.704 6.027 1.086 9.038 1.215 9.641 2.304 19.29 3.257 28.961 0.043 0.43 0.043 0.43 0.258 2.606 0.419 4.269 0.832 8.538 1.236 12.808 0.831 8.58 1.802 17.106 3.006 25.64 1.494 10.609 2.619 21.236 3.662 31.897 0.528 5.392 1.071 10.783 1.616 16.174 0.107 1.064 0.215 2.127 0.325 3.224 0.867 8.515 1.832 17.017 2.862 25.514 2.137 17.638 4.001 35.303 5.869 52.971l0.729 6.873c0.06 0.562 0.06 0.562 0.361 3.407 0.972 9.098 2.026 18.186 3.091 27.274 0.791 6.807 1.461 13.614 2.036 20.443 2.671 30.354 11.92 53.367 34.742 73.966 14.158 11.776 31.473 19.699 50.072 19.794 0.832 7e-3 1.664 0.014 2.521 0.02 2.719 0.019 5.438 0.023 8.157 0.025 1.904 7e-3 3.807 0.014 5.71 0.021 3.974 0.012 7.948 0.015 11.922 0.014 5.09 0 10.18 0.027 15.269 0.062 3.924 0.022 7.848 0.026 11.772 0.025 1.877 2e-3 3.754 0.011 5.631 0.027 2.621 0.019 5.241 0.013 7.861 1e-3 0.745 2e-3 0.745 2e-3 4.514 9e-3 4.229-0.549 5.863-1.477 8.806-4.494 1.673-3.347 1.145-6.89 1.161-10.593 5e-3 -0.89 0.01-1.78 0.015-2.696 0.015-2.952 0.021-5.904 0.027-8.856 6e-3 -2.048 0.011-4.096 0.017-6.143 0.011-4.299 0.016-8.597 0.02-12.895 5e-3 -5.508 0.029-11.016 0.058-16.524 0.019-4.232 0.024-8.464 0.025-12.696 3e-3 -2.031 0.011-4.061 0.024-6.092 0.018-2.842 0.016-5.683 9e-3 -8.524 2e-3 -0.809 2e-3 -0.809 0.011-4.901-0.365-4.05-0.825-5.967-3.367-9.08-5.273-3.013-9.565-3.33-15.567-3.188-0.81 0.012-0.81 0.012-4.908 0.07-1.696 0.038-3.392 0.077-5.088 0.118-3.335 0.08-6.668 0.139-10.004 0.187-1.474 0.035-2.948 0.07-4.467 0.106-4.144-0.307-6.499-1.047-9.966-3.293-3.448-5.746-3.835-11.967-4.5-18.5-0.249-2.257-0.499-4.514-0.75-6.77-0.062-0.566-0.062-0.566-0.375-3.432-0.55-4.839-1.215-9.661-1.875-14.486-1.156-8.609-2.053-17.228-2.875-25.875-1.26-13.174-2.942-26.27-4.714-39.383-1.702-12.697-3.157-25.41-4.532-38.146-0.844-7.76-1.757-15.495-2.879-23.221-1.423-9.845-2.394-19.728-3.375-29.625-1.475-14.863-3.24-29.665-5.195-44.474-1.922-14.691-3.567-29.406-5.143-44.138-0.974-9.041-2.046-18.054-3.307-27.06-1.651-11.802-2.855-23.631-4.029-35.49-2.549-25.09-2.549-25.09-7.451-30.4-4.527-1.917-8.438-2.253-13.325-2.261-0.736-4e-3 -0.736-4e-3 -4.461-0.022-0.803 2e-3 -0.803 2e-3 -4.865 8e-3 -1.715-4e-3 -3.43-0.01-5.145-0.016-4.651-0.013-9.302-0.014-13.953-0.011-3.884 1e-3 -7.768-4e-3 -11.653-9e-3 -9.163-0.011-18.326-0.011-27.489-5e-3 -9.451 6e-3 -18.902-6e-3 -28.353-0.028-8.119-0.017-16.237-0.023-24.355-0.02-4.847 2e-3 -9.694-1e-3 -14.541-0.015-4.557-0.012-9.114-0.01-13.671 3e-3 -2.468 3e-3 -4.936-8e-3 -7.404-0.02-0.736 4e-3 -0.736 4e-3 -4.46 0.021h-3.871c-4.825 0.523-8.123 2.12-11.642 5.437-4.983 8.076-6.424 19.004-8.75 28.125-2.009 7.857-4.027 15.71-6.129 23.543-1.726 6.446-3.346 12.913-4.933 19.395-1.812 7.338-3.764 14.57-6.074 21.769-1.531 5.133-2.663 10.356-3.86 15.574-2.12 9.01-4.565 17.938-6.964 26.876-2.508 9.371-4.945 18.759-7.352 28.156-0.79 3.079-1.581 6.158-2.371 9.238-0.198 0.77-0.198 0.77-1.199 4.67-2.16 8.405-4.335 16.806-6.509 25.207-1.613 6.245-3.201 12.494-4.734 18.76-1.941 7.853-4.166 15.623-6.365 23.407-1.991 7.073-3.878 14.159-5.617 21.299-3.319 13.615-6.832 27.177-10.393 40.731-0.469 1.79-0.939 3.579-1.408 5.369-0.232 0.883-0.463 1.766-0.702 2.675-0.464 1.769-0.927 3.538-1.391 5.307-1.14 4.351-2.291 8.698-3.461 13.041-2.122 7.898-4.148 15.701-5.35 23.796-1.179 7.787-1.179 7.787-2.25 11-2.403-0.696-2.403-0.696-5-2-1.004-2.118-1.004-2.118-1.563-4.875-0.232-1.083-0.464-2.166-0.703-3.282-0.242-1.268-0.485-2.537-0.734-3.843-0.601-3.126-1.206-6.251-1.813-9.375-0.164-0.849-0.329-1.698-0.498-2.572-1.847-9.272-4.394-18.327-6.954-27.422-3.433-12.291-6.501-24.677-9.571-37.063-1.613-6.472-3.357-12.89-5.235-19.291-1.436-5.064-2.673-10.175-3.933-15.285-1.585-6.352-3.299-12.669-4.996-18.992-2.912-10.894-5.715-21.809-8.438-32.75-2.844-11.432-5.78-22.837-8.772-34.231-1.484-5.67-2.948-11.345-4.415-17.019-2.127-8.22-4.283-16.43-6.489-24.629-0.961-3.656-1.863-7.325-2.761-10.996-1.563-6.319-3.308-12.565-5.125-18.813-2.25-7.749-4.223-15.519-6.024-23.387-1.357-5.803-2.881-11.555-4.422-17.312-1.279-4.786-2.508-9.583-3.734-14.383-0.794-3.077-1.588-6.154-2.383-9.23-0.376-1.489-0.752-2.977-1.139-4.51-0.368-1.415-0.736-2.83-1.115-4.287-0.324-1.267-0.648-2.534-0.982-3.839-1.794-5.399-3.181-9.548-8.38-12.292-4.019-1.391-7.021-1.7-11.26-1.703-1.472-9e-3 -2.944-0.017-4.46-0.026-0.8 3e-3 -0.8 3e-3 -4.849 0.018-1.714-4e-3 -3.428-9e-3 -5.142-0.016-4.642-0.013-9.285-8e-3 -13.927 2e-3 -4.864 7e-3 -9.728 0-14.592-5e-3 -8.168-5e-3 -16.335 2e-3 -24.503 0.016-9.436 0.017-18.871 0.011-28.307-5e-3 -8.109-0.014-16.218-0.016-24.327-8e-3 -4.839 5e-3 -9.679 6e-3 -14.519-4e-3 -4.55-9e-3 -9.101-3e-3 -13.651 0.014-2.462 6e-3 -4.924-3e-3 -7.385-0.012-1.472 8e-3 -2.944 0.017-4.461 0.026-1.275 1e-3 -2.55 2e-3 -3.863 3e-3 -4.042 0.427-6.975 1.516-10.575 3.378zm1193.1 2.135c-1.512 3.984-1.477 7.43-1.491 11.69-4e-3 0.44-4e-3 0.44-0.021 2.663-0.018 2.899-0.015 5.797-9e-3 8.695-4e-3 2.019-0.01 4.038-0.016 6.056-9e-3 4.229-6e-3 8.458 4e-3 12.688 0.011 5.415-9e-3 10.829-0.038 16.244-0.019 4.169-0.018 8.337-0.013 12.505 1e-3 1.997-5e-3 3.993-0.018 5.989-0.015 2.794-4e-3 5.586 0.013 8.379 0 1.588 0 3.177 1e-3 4.813 0.557 4.604 1.385 6.732 4.501 10.143 4.876 2.476 9.703 2.236 15.094 2.211 0.895-2e-3 1.79-3e-3 2.713-4e-3 2.944-7e-3 5.889-0.027 8.833-0.047 2.05-7e-3 4.099-0.012 6.148-0.016 5.385-0.013 10.77-0.038 16.155-0.065 8.633-0.044 17.266-0.073 25.9-0.096 3.019-0.011 6.038-0.028 9.057-0.045 1.841-7e-3 3.682-0.014 5.523-0.02 1.611-8e-3 3.223-0.017 4.884-0.025 3.693 0.107 3.693 0.107 5.693 1.107 0.656 5.308-1.044 9.204-3.063 14.062-2.682 6.623-5.144 13.274-7.375 20.063-0.286 0.871-0.572 1.742-0.867 2.639-0.594 1.811-1.186 3.622-1.777 5.433-1.598 4.879-3.229 9.746-4.856 14.615-0.68 2.039-1.359 4.078-2.039 6.117l-4.873 14.619c-0.647 1.942-1.294 3.885-1.941 5.827-1.943 5.831-3.89 11.66-5.842 17.488-4.833 14.445-9.598 28.906-14.223 43.419-2.481 7.748-5.1 15.435-7.826 23.099-1.924 5.426-3.689 10.877-5.299 16.404-0.86 2.712-1.8 5.356-2.789 8.023-2.807 7.655-5.243 15.428-7.73 23.192-4.632 14.402-9.434 28.735-14.403 43.025-3.74 10.79-7.169 21.659-10.504 32.58-2.182 7.149-4.601 14.112-7.343 21.063-2.835 7.555-5.06 15.33-7.36 23.062-1.871 6.186-3.862 12.274-6.207 18.297-0.41 1.058-0.82 2.117-1.243 3.207-0.817 2.09-1.648 4.175-2.494 6.254-2.405 6.142-3.576 10.905-2.946 17.512 2.198 3.032 3.449 3.816 7 5 3.119 0.088 6.214 0.118 9.333 0.101 0.956-2e-3 1.913-4e-3 2.898-5e-3 3.169-8e-3 6.338-0.024 9.507-0.042 1.082-5e-3 2.164-0.011 3.279-0.017 5.726-0.032 11.451-0.071 17.177-0.115 5.915-0.043 11.829-0.059 17.744-0.069 4.548-0.013 9.096-0.047 13.643-0.088 2.181-0.015 4.361-0.023 6.542-0.021 3.052 0 6.103-0.031 9.155-0.069 0.9 7e-3 1.799 0.014 2.726 0.021 4.362-0.087 6.795-0.564 10.471-2.989 5.528-5.928 7.268-13.858 9.529-21.457 1.158-3.78 2.502-7.467 3.881-11.17 1.199-3.312 2.319-6.643 3.427-9.987 1.735-5.223 3.474-10.445 5.223-15.664 0.417-1.246 0.834-2.493 1.264-3.777 0.845-2.527 1.691-5.053 2.539-7.578 0.415-1.244 0.831-2.488 1.259-3.77 0.409-1.212 0.818-2.424 1.239-3.673 0.779-2.431 1.496-4.882 2.152-7.349 0.312-1.163 0.624-2.326 0.945-3.525 0.129-0.518 0.129-0.518 0.779-3.144 1.85-3.756 3.322-4.172 7.288-5.613 4.392-0.444 8.766-0.405 13.178-0.381 1.345-5e-3 2.69-0.01 4.076-0.015 4.516-0.012 9.032-2e-3 13.549 7e-3 3.234-4e-3 6.468-9e-3 9.702-0.016 7.878-0.013 15.755-0.01 23.633-1e-3 6.401 6e-3 12.803 7e-3 19.204 4e-3 0.911 0 1.822-1e-3 2.76-1e-3 1.851-1e-3 3.701-2e-3 5.551-3e-3 17.352-9e-3 34.704 1e-3 52.056 0.017 14.893 0.014 29.786 0.011 44.679-3e-3 17.291-0.016 34.582-0.022 51.873-0.013 1.844 1e-3 3.687 2e-3 5.53 3e-3 0.454 0 0.454 0 2.748 2e-3 6.396 2e-3 12.791-2e-3 19.186-9e-3 8.604-0.01 17.209-3e-3 25.813 0.014 3.163 4e-3 6.327 3e-3 9.49-3e-3 4.307-9e-3 8.614 2e-3 12.921 0.017 1.261-7e-3 2.523-0.014 3.822-0.021 1.153 8e-3 2.305 0.016 3.492 0.024 0.994 1e-3 1.989 1e-3 3.013 2e-3 3.262 0.45 5.097 1.408 7.724 3.376 3.081 5.241 4.878 10.476 6.5 16.312 4.12 14.358 9.183 28.409 14.069 42.519 1.802 5.251 3.556 10.518 5.295 15.79 5.698 16.957 5.698 16.957 10.136 20.379 5.498 1.959 10.406 2.258 16.22 2.274 0.897 5e-3 1.794 0.01 2.718 0.016 2.948 0.014 5.895 0.013 8.843 0.01 2.058 4e-3 4.117 9e-3 6.175 0.013 4.307 8e-3 8.614 8e-3 12.921 2e-3 5.511-6e-3 11.022 0.011 16.533 0.035 4.249 0.014 8.497 0.015 12.745 0.012 2.032 1e-3 4.064 6e-3 6.095 0.016 2.843 0.012 5.686 5e-3 8.529-6e-3 0.808 0 0.808 0 4.895 2e-3 4.391-0.38 9.057-1.106 12.326-4.374 0.578-7.519-0.143-12.074-3.508-18.739-1.851-4.046-3.184-8.204-4.492-12.449-0.127-0.411-0.127-0.411-0.771-2.492-0.748-2.439-1.49-4.879-2.229-7.32-3.224-10.55-6.7-20.976-10.371-31.375-2.867-8.139-5.537-16.315-8.067-24.563-1.528-4.932-3.164-9.761-5.062-14.562-2.268-5.758-4.119-11.581-5.93-17.497-2.026-6.534-4.213-13.015-6.383-19.503-0.434-1.3-0.869-2.599-1.316-3.937-0.874-2.611-1.748-5.222-2.622-7.832-1.818-5.43-3.627-10.862-5.437-16.294-0.649-1.949-1.299-3.898-1.949-5.848l-19.617-58.851c-0.488-1.463-0.976-2.926-1.478-4.433-1.016-3.047-2.031-6.095-3.046-9.142-2.395-7.187-4.791-14.373-7.195-21.557-0.817-2.442-1.634-4.884-2.45-7.326-1.022-3.056-2.044-6.111-3.068-9.166-2.486-7.44-4.886-14.896-7.169-22.4-0.962-3.107-2.025-6.164-3.153-9.214-3.024-8.362-5.809-16.798-8.604-25.238-1.203-3.622-2.414-7.241-3.626-10.86-5.103-15.245-10.12-30.512-15.025-45.821-2.597-8.076-5.322-16.085-8.198-24.066-1.573-4.481-2.944-9.011-4.312-13.558-1.139-3.654-2.453-7.225-3.793-10.809-1.449-4.041-2.747-8.126-4.067-12.211-4.517-13.451-4.517-13.451-8.062-18.937-5.345-2.51-9.796-3.376-15.665-3.378-1.506-8e-3 -3.012-0.016-4.564-0.024-1.641 7e-3 -3.282 0.014-4.973 0.021-1.771-4e-3 -3.543-9e-3 -5.314-0.015-4.86-0.012-9.719-6e-3 -14.579 3e-3 -5.244 7e-3 -10.488-3e-3 -15.732-0.012-10.27-0.013-20.54-0.01-30.809-1e-3 -8.346 6e-3 -16.691 7e-3 -25.037 4e-3 -1.187 0-2.375-1e-3 -3.598-1e-3 -2.413-1e-3 -4.825-2e-3 -7.237-3e-3 -22.623-9e-3 -45.246 1e-3 -67.868 0.017-19.416 0.014-38.831 0.011-58.247-3e-3 -22.543-0.016-45.086-0.022-67.629-0.013-2.403 1e-3 -4.806 2e-3 -7.21 3e-3 -1.182 1e-3 -2.364 1e-3 -3.583 2e-3 -8.337 2e-3 -16.674-2e-3 -25.011-9e-3 -10.157-9e-3 -20.315-6e-3 -30.473 0.01-5.183 7e-3 -10.367 0.01-15.55 1e-3 -4.744-9e-3 -9.488-4e-3 -14.232 0.012-2.532 4e-3 -5.063-5e-3 -7.595-0.016-0.751 4e-3 -0.751 4e-3 -4.555 0.024-1.297 1e-3 -2.593 1e-3 -3.928 2e-3 -4.952 0.515-9.145 1.738-12.524 5.511zm-487.1 17.091c-1.583 1.415-3.224 2.764-4.883 4.09-15.143 13.102-25.615 34.003-27.391 53.934-0.487 9.217-0.437 18.441-0.409 27.668-6e-3 2.99-0.014 5.981-0.022 8.972-0.012 6.246-5e-3 12.491 0.014 18.737 0.023 7.943-4e-3 15.885-0.045 23.828-0.026 6.172-0.023 12.343-0.012 18.514 1e-3 2.926-6e-3 5.852-0.023 8.777-0.155 31.326 4.813 57.014 27.634 80.125 1.981 1.821 4.026 3.479 6.153 5.129 1.007 0.792 2.013 1.585 3.051 2.402 15.792 11.893 32.691 18.108 52.443 17.969 1.187 4e-3 2.374 8e-3 3.597 0.012 3.94 9e-3 7.879-3e-3 11.819-0.015 2.839 3e-3 5.679 7e-3 8.518 0.012 6.095 8e-3 12.19 7e-3 18.284 0 9.635-0.012 19.27 0 28.905 0.016 13.502 0.021 27.005 0.034 40.508 0.037 0.428 1e-3 0.428 1e-3 2.592 1e-3 9.553 3e-3 19.106 3e-3 28.659 2e-3 3.47 0 6.941 0 10.411-1e-3h2.595c14.277 0 28.554 0.015 42.831 0.041 9.582 0.017 19.163 0.015 28.745-1e-3 5.95-5e-3 11.9 5e-3 17.851 0.021 2.763 3e-3 5.526 0 8.289-0.01 3.766-0.014 7.53-2e-3 11.296 0.015 1.098-0.01 2.196-0.02 3.328-0.03 5.887 0.056 9.75 0.342 14.278 4.529 2.192 4.385 2.258 6.601 2.274 11.443 0.01 1.525 0.019 3.05 0.029 4.621 0 0.824 0 0.824-2e-3 4.994 3e-3 1.709 8e-3 3.417 0.013 5.126 7e-3 3.58 7e-3 7.16 1e-3 10.741-5e-3 4.584 0.012 9.168 0.035 13.752 0.015 3.529 0.015 7.057 0.012 10.586 1e-3 2.511 0.015 5.022 0.029 7.533-3e-3 0.764-3e-3 0.764-0.019 4.631 1e-3 1.345 1e-3 2.69 2e-3 4.075-0.409 3.821-0.867 5.597-3.374 8.498-6.409 3.656-12.403 3.406-19.564 3.34-0.633 0-0.633 0-3.839 1e-3 -4.246-2e-3 -8.492-0.025-12.738-0.048-3.044-6e-3 -6.088-0.011-9.131-0.014-6.555-9e-3 -13.11-0.028-19.665-0.054-9.485-0.038-18.97-0.056-28.455-0.069-15.399-0.021-30.799-0.053-46.198-0.095-0.461-1e-3 -0.461-1e-3 -2.792-7e-3 -7.475-0.021-14.95-0.041-22.425-0.062-6.535-0.018-13.069-0.036-19.603-0.054-0.921-2e-3 -1.841-5e-3 -2.789-7e-3 -15.342-0.042-30.685-0.071-46.027-0.092-9.461-0.013-18.923-0.037-28.384-0.075-7.247-0.028-14.495-0.041-21.742-0.049-2.974-6e-3 -5.948-0.016-8.922-0.033-4.054-0.021-8.108-0.024-12.163-0.023-1.181-0.011-2.362-0.022-3.579-0.033-5.981 0.023-10.688 0.243-15.984 3.374-3.138 5.159-3.379 9.717-3.388 15.669-6e-3 0.839-0.011 1.677-0.016 2.541-0.014 2.753-5e-3 5.505 5e-3 8.258-2e-3 1.924-5e-3 3.848-8e-3 5.772-5e-3 4.024 2e-3 8.049 0.016 12.074 0.017 5.148 7e-3 10.295-0.011 15.443-0.011 3.971-7e-3 7.941 0 11.911 2e-3 1.898 0 3.796-7e-3 5.693-8e-3 2.657 4e-3 5.312 0.021 7.969 1e-3 0.754 1e-3 0.754 7e-3 4.572 0.404 4.345 1.253 7.296 3.381 11.098 4.056 2.028 5.647 2.251 10.034 2.254 1.244 6e-3 2.488 0.012 3.77 0.018 1.369-4e-3 2.738-8e-3 4.149-0.012 1.453 4e-3 2.906 8e-3 4.402 0.012 4.039 8e-3 8.077 8e-3 12.115 4e-3 4.353-3e-3 8.707 6e-3 13.06 0.014 8.532 0.012 17.065 0.014 25.598 0.012 6.938-2e-3 13.875 0 20.813 4e-3 0.987 1e-3 1.974 1e-3 2.99 2e-3 2.005 1e-3 4.01 2e-3 6.014 4e-3 18.815 0.01 37.629 8e-3 56.443 2e-3 17.202-5e-3 34.405 6e-3 51.607 0.025 17.665 0.02 35.329 0.028 52.994 0.024 9.916-2e-3 19.833 1e-3 29.749 0.015 8.447 0.012 16.894 0.013 25.34 1e-3 4.308-6e-3 8.615-7e-3 12.922 5e-3 4.677 0.011 9.354 2e-3 14.031-0.01 1.351 7e-3 2.702 0.015 4.095 0.022 11.592-0.066 21.394-2.313 31.811-7.334 1.412-0.669 2.823-1.338 4.278-2.027 3.308-1.779 5.946-3.607 8.785-6.035 0.887-0.557 1.773-1.114 2.687-1.688 13.277-9.269 21.799-21.156 29.313-35.312 0.497-0.905 0.995-1.81 1.508-2.743 8.899-17.533 6.934-38.549 6.89-57.601 2e-3 -3.141 5e-3 -6.282 9e-3 -9.423 5e-3 -7.396-6e-3 -14.791-0.022-22.186-0.011-5.868-7e-3 -11.735 6e-3 -17.603 0.017-8.144 0.02-16.287 0.01-24.431-2e-3 -3.085 1e-3 -6.169 8e-3 -9.253 0.07-39.299 0.07-39.299-7.409-54.76-0.506-1.11-1.011-2.22-1.532-3.364-7.84-16.589-20.195-29.54-35.468-39.636-0.601-0.412-0.601-0.412-3.641-2.493-4.847-3.006-9.989-4.615-15.422-6.257-0.954-0.303-1.909-0.606-2.892-0.918-8.981-2.789-17.315-3.481-26.68-3.477-1.167-4e-3 -2.334-7e-3 -3.536-0.011-3.908-0.011-7.815-0.014-11.723-0.018-2.802-6e-3 -5.604-0.013-8.407-0.02-6.032-0.015-12.065-0.027-18.098-0.036-9.533-0.016-19.066-0.04-28.599-0.065-13.358-0.035-26.717-0.068-40.076-0.098-0.847-2e-3 -1.694-4e-3 -2.567-6e-3 -12.036-0.027-24.071-0.051-36.106-0.073-0.849-2e-3 -1.697-4e-3 -2.571-5e-3 -0.847-2e-3 -1.694-3e-3 -2.567-5e-3 -14.117-0.027-28.233-0.061-42.349-0.102-9.483-0.027-18.967-0.045-28.45-0.056-5.889-9e-3 -11.778-0.026-17.667-0.046-2.739-8e-3 -5.477-0.012-8.215-0.012-3.727-1e-3 -7.454-0.014-11.181-0.031-1.092 3e-3 -2.185 6e-3 -3.31 8e-3 -4.697-0.032-7.68-0.148-11.943-2.279-4.557-6.814-4.587-12.936-4.532-20.969-1e-3 -0.618-1e-3 -0.618-0.011-3.742-3e-3 -2.602 5e-3 -5.204 0.021-7.807 0.022-3.97 0-7.938-0.025-11.908 3e-3 -2.535 8e-3 -5.071 0.015-7.606-8e-3 -1.18-0.016-2.361-0.024-3.577 0.077-6.774 0.727-11.559 4.556-17.391 4.268-3.201 4.996-3.374 10.017-3.364 1.24-5e-3 2.48-9e-3 3.758-0.014 0.682 5e-3 0.682 5e-3 4.136 0.03 0.724 0 0.724 0 4.388-3e-3 4.025 0 8.05 0.013 12.075 0.032 4.339 0.017 8.678 0.016 13.017 0.018 7.521 5e-3 15.041 0.021 22.562 0.045 10.882 0.033 21.763 0.047 32.645 0.057 17.664 0.017 35.327 0.045 52.991 0.082 1.058 2e-3 2.115 5e-3 3.205 7e-3l12.855 0.027c11.79 0.025 23.58 0.047 35.37 0.069 1.055 2e-3 2.111 3e-3 3.198 5e-3 17.593 0.032 35.187 0.056 52.78 0.075 10.855 0.012 21.709 0.032 32.564 0.061 7.437 0.02 14.875 0.033 22.313 0.041 4.292 5e-3 8.584 0.013 12.877 0.03 4.652 0.016 9.304 0.021 13.957 0.022 1.358 8e-3 2.716 0.016 4.115 0.024 11.829-0.02 11.829-0.02 17.177-2.244 4.386-4.677 4.501-8.705 4.501-14.956 6e-3 -0.88 0.011-1.761 0.017-2.668 0.012-2.898-4e-3 -5.795-0.022-8.693 0-2.02 1e-3 -4.039 4e-3 -6.059 2e-3 -4.227-0.011-8.454-0.034-12.682-0.028-5.416-0.025-10.832-0.013-16.248 7e-3 -4.168 0-8.337-0.013-12.505-4e-3 -1.997-5e-3 -3.994-1e-3 -5.991 3e-3 -2.791-0.013-5.582-0.035-8.373-3e-3 -0.793-3e-3 -0.793-0.017-4.81-0.395-4.092-0.666-5.975-3.387-9.015-4.765-2.402-8.469-3.375-13.786-3.372-0.667-4e-3 -0.667-4e-3 -4.046-0.02-0.728 4e-3 -0.728 4e-3 -4.411 0.024-1.556-3e-3 -3.111-6e-3 -4.713-0.01-4.311-6e-3 -8.622 2e-3 -12.932 0.015-4.652 0.011-9.304 4e-3 -13.956 0-9.113-6e-3 -18.225 5e-3 -27.338 0.02-10.619 0.018-21.239 0.019-31.858 0.02-18.957 2e-3 -37.915 0.017-56.872 0.041-18.378 0.024-36.756 0.038-55.133 0.041-0.566 0-0.566 0-3.427 1e-3 -2.278 0-4.556 1e-3 -6.834 1e-3 -1.123 1e-3 -2.247 1e-3 -3.405 1e-3 -1.121 0-2.242 0-3.397 1e-3 -17.532 3e-3 -35.064 0.015-52.595 0.027-6.344 5e-3 -12.689 8e-3 -19.033 0.011-10.072 4e-3 -20.143 0.012-30.215 0.027-4.599 6e-3 -9.199 0.011-13.798 0.012-4.997 1e-3 -9.995 0.01-14.992 0.019-1.438-1e-3 -2.876-2e-3 -4.358-3e-3 -26.419 0.075-48.774 4.099-68.917 22.37z" fill="#18954A"/>
<path transform="translate(359.13 313.61)" d="m0 0c1.454-0.01 2.908-0.02 4.406-0.03 1.59 4e-3 3.18 9e-3 4.819 0.014 1.695-6e-3 3.39-0.013 5.086-0.021 4.601-0.018 9.202-0.017 13.803-0.011 3.842 3e-3 7.684-3e-3 11.526-9e-3 9.065-0.014 18.128-0.013 27.193-1e-3 9.349 0.011 18.698-3e-3 28.047-0.03 8.029-0.022 16.058-0.029 24.087-0.023 4.795 4e-3 9.589 1e-3 14.384-0.016 4.509-0.015 9.017-0.011 13.526 7e-3 2.441 6e-3 4.883-8e-3 7.325-0.023 1.456 0.01 2.913 0.019 4.414 0.029 0.632 1e-3 0.632 1e-3 3.829 1e-3 4.116 0.601 6.243 1.855 9.426 4.501 3.751 7.279 5.184 14.929 6.875 22.902 3.036 14.077 7.069 27.955 10.877 41.838 2.57 9.389 5.024 18.808 7.464 28.232 0.799 3.084 1.6 6.167 2.402 9.25 3.313 12.754 6.603 25.515 9.882 38.278 4.994 19.433 10.006 38.861 15.129 58.261 1.425 5.422 2.817 10.851 4.213 16.28 2.764 10.753 5.554 21.496 8.471 32.209 3.567 13.127 6.921 26.308 10.271 39.493 2.514 9.886 5.068 19.76 7.686 29.62 0.545 2.059 1.089 4.118 1.634 6.177 0.785 2.968 1.573 5.935 2.37 8.899 2.949 10.967 5.442 21.716 6.97 32.986 0.756 3.575 0.756 3.575 3.756 7.575 3.5 0.5 3.5 0.5 7 0 3.474-4.631 4.013-8.517 4.875-14.063 1.62-9.565 3.775-18.845 6.369-28.2 1.488-5.384 2.935-10.779 4.381-16.175 0.331-1.231 0.662-2.462 1.002-3.73 2.136-8.013 4.191-16.043 6.194-24.09 0.242-0.974 0.484-1.948 0.734-2.951 1.203-4.84 2.399-9.682 3.588-14.525 2.124-8.61 4.34-17.149 7.031-25.603 1.104-3.559 1.954-7.152 2.764-10.788 2.957-12.863 6.379-25.58 10.062-38.25 2.271-7.83 4.265-15.692 6.112-23.631 2.169-9.295 4.606-18.514 7.036-27.743 1.594-6.079 3.159-12.166 4.727-18.251 0.336-1.302 0.672-2.604 1.019-3.945 1.736-6.727 3.465-13.456 5.184-20.188 3.15-12.309 6.353-24.583 9.913-36.779 1.901-6.566 3.493-13.176 5.013-19.838 1.465-6.251 3.114-12.448 4.774-18.649 0.786-2.957 1.55-5.921 2.289-8.89 3.188-12.679 3.188-12.679 6.933-17.711 4.292-2.146 6.301-2.253 11.015-2.261 1.454-7e-3 2.908-0.014 4.406-0.021 1.596 2e-3 3.191 4e-3 4.835 7e-3 1.697-4e-3 3.394-0.01 5.091-0.015 4.609-0.014 9.219-0.014 13.828-0.012 3.847 1e-3 7.694-4e-3 11.541-9e-3 9.075-0.011 18.15-0.011 27.225-5e-3 9.365 6e-3 18.729-6e-3 28.094-0.028 8.038-0.017 16.077-0.023 24.115-0.02 4.802 2e-3 9.603-1e-3 14.405-0.015 4.515-0.012 9.03-0.01 13.546 3e-3 2.447 3e-3 4.895-8e-3 7.343-0.02 1.457 7e-3 2.913 0.014 4.414 0.021h3.836c3.616 0.41 5.474 1.114 8.306 3.375 2.894 6.664 3.697 13.19 4.375 20.375 0.251 2.433 0.504 4.867 0.758 7.3 0.137 1.333 0.274 2.665 0.415 4.038 0.839 7.957 1.774 15.902 2.702 23.849 0.104 0.888 0.207 1.776 0.313 2.691 2.076 17.846 4.234 35.683 6.394 53.519 1.881 15.53 3.744 31.063 5.543 46.603 0.048 0.414 0.048 0.414 0.291 2.513 0.507 4.375 1.012 8.75 1.517 13.125 1.413 12.225 2.832 24.45 4.255 36.674 0.076 0.652 0.076 0.652 0.46 3.952 1.808 15.528 3.651 31.048 5.628 46.555 1.41 11.116 2.667 22.249 3.92 33.385 0.996 8.789 2.08 17.557 3.285 26.32 0.83 6.212 1.496 12.435 2.113 18.671 0.085 0.85 0.17 1.7 0.258 2.575 0.427 4.269 0.843 8.539 1.24 12.811 0.155 1.57 0.311 3.141 0.471 4.759 0.133 1.403 0.265 2.807 0.402 4.253 1.033 6.307 2.533 11.837 7.598 15.969 0.669 0.566 1.338 1.132 2.027 1.715 4.356 2.885 8.85 2.414 13.871 2.305 1.539-0.022 3.079-0.043 4.664-0.065 3.243-0.053 6.485-0.118 9.727-0.195 1.542-0.017 3.083-0.035 4.672-0.053 1.409-0.027 2.819-0.054 4.271-0.083 4.358 0.499 6.471 1.675 9.83 4.439 1.6 3.199 1.145 6.397 1.161 9.95 5e-3 0.821 0.01 1.643 0.016 2.489 0.014 2.725 0.021 5.449 0.026 8.174l0.018 5.673c0.01 3.968 0.016 7.937 0.02 11.906 5e-3 5.084 0.029 10.168 0.058 15.253 0.018 3.907 0.023 7.815 0.025 11.723 3e-3 1.874 0.011 3.748 0.024 5.623 0.017 2.623 0.015 5.246 9e-3 7.87 3e-3 1.493 7e-3 2.986 0.011 4.524-0.377 3.916-0.891 5.799-3.368 8.815-4.387 2.193-6.548 2.245-11.388 2.23-1.517-1e-3 -3.034-1e-3 -4.597-2e-3 -1.644-0.014-3.289-0.027-4.983-0.041-1.718-0.011-3.436-0.022-5.153-0.033-3.612-0.026-7.223-0.061-10.834-0.101-3.668-0.039-7.335-0.06-11.003-0.064-28.263-0.03-53.183-1.252-76.042-19.989-0.4-0.328-0.4-0.328-2.425-1.989-9.155-7.821-15.124-16.587-20.387-27.324-0.373-0.745-0.747-1.491-1.131-2.259-7.151-15.231-7.551-33.005-9.369-49.491-0.307-2.733-0.614-5.467-0.922-8.2-0.626-5.57-1.249-11.141-1.869-16.712-0.812-7.286-1.64-14.57-2.475-21.853-2.719-23.756-5.332-47.521-7.863-71.297-1.66-15.589-3.349-31.174-5.121-46.75-0.051-0.446-0.051-0.446-0.308-2.704-1.091-9.577-2.211-19.15-3.376-28.718-0.313-2.584-0.627-5.168-0.94-7.752-0.208-1.706-0.416-3.413-0.625-5.119-1.318-10.778-2.473-21.56-3.474-32.371-0.107-1.143-0.214-2.285-0.325-3.462-0.526-5.609-1.035-11.217-1.515-16.83-0.188-2.041-0.377-4.082-0.566-6.122-0.073-0.93-0.146-1.859-0.221-2.817-0.526-5.434-1.481-9.076-5.088-13.23-4.776-2.389-8.787-2.543-14-2-4.23 1.747-6.472 4.225-9 8-1.208 3.479-2.001 7.035-2.812 10.625-0.514 2.163-1.03 4.326-1.547 6.488-0.266 1.127-0.532 2.255-0.807 3.416-1.389 5.781-2.894 11.531-4.396 17.283-0.298 1.147-0.597 2.294-0.904 3.476-1.645 6.324-3.304 12.644-4.971 18.962-2.115 8.013-4.185 16.036-6.25 24.062-3.022 11.74-6.093 23.467-9.188 35.188-3.946 14.948-7.817 29.914-11.638 44.894-3.696 14.482-7.449 28.948-11.424 43.356-4.486 16.374-8.721 32.808-12.817 49.284-1.9 7.626-3.863 15.234-5.857 22.836-1.788 6.816-3.55 13.638-5.304 20.463-3.118 12.134-6.283 24.253-9.574 36.341-1.426 5.247-2.817 10.498-4.14 15.771-0.262 1.04-0.525 2.079-0.796 3.15-0.49 1.948-0.973 3.897-1.446 5.848-1.412 5.591-3.147 10.559-6.129 15.557-3.898 1.949-5.262 2.251-9.42 2.26-0.551 4e-3 -0.551 4e-3 -3.335 0.022-1.203-3e-3 -2.406-5e-3 -3.645-8e-3 -1.27 5e-3 -2.54 0.011-3.849 0.016-4.207 0.014-8.414 0.013-12.622 0.01-2.919 4e-3 -5.838 9e-3 -8.758 0.013-6.122 8e-3 -12.245 8e-3 -18.367 2e-3 -7.853-5e-3 -15.706 0.011-23.559 0.035-6.03 0.014-12.06 0.015-18.09 0.012-2.896 1e-3 -5.792 6e-3 -8.688 0.016-4.046 0.012-8.091 6e-3 -12.137-6e-3 -1.201 8e-3 -2.401 0.015-3.639 0.023-0.551-3e-3 -0.551-3e-3 -3.343-0.021h-2.898c-3.18-0.449-5.063-1.498-7.65-3.374-1.246-2.26-1.246-2.26-2.105-4.907-0.322-0.982-0.643-1.964-0.974-2.976-1.529-5.179-2.921-10.379-4.233-15.617-0.613-2.407-1.227-4.813-1.84-7.219-0.308-1.216-0.616-2.431-0.933-3.684-1.408-5.538-2.85-11.067-4.29-16.597-2.702-10.413-5.384-20.831-8.062-31.25-0.379-1.475-0.759-2.949-1.149-4.468-1.857-7.22-3.71-14.441-5.554-21.665-3.128-12.226-6.315-24.416-9.85-36.53-1.909-6.591-3.503-13.225-5.033-19.912-1.817-7.769-3.919-15.467-5.977-23.175-5.483-20.56-10.859-41.144-16.106-61.766-2.528-9.934-5.101-19.856-7.719-29.767-1.409-5.358-2.783-10.725-4.154-16.094-2.847-11.14-5.785-22.236-9.008-33.274-1.927-6.65-3.537-13.347-5.079-20.095-1.487-6.379-3.2-12.689-4.934-19.004-0.245-0.984-0.489-1.967-0.742-2.981-1.395-5.307-2.877-8.624-7.258-12.019-4.368-1.456-8.481-1.671-13-1-4 2.187-4 2.187-7 6-0.682 2.774-0.682 2.774-1.102 5.952-0.156 1.158-0.312 2.316-0.473 3.509-0.644 5.369-1.25 10.737-1.792 16.117-0.246 2.384-0.492 4.769-0.738 7.153-0.126 1.228-0.251 2.455-0.381 3.72-3.474 33.936-3.474 33.936-5.576 50.736-1.581 12.655-3.006 25.321-4.375 38-0.106 0.982-0.212 1.963-0.321 2.974-0.54 4.998-1.077 9.996-1.614 14.993-5.411 50.399-10.858 100.8-16.828 151.14-1.198 10.213-2.306 20.432-3.366 30.66-0.135 1.297-0.269 2.594-0.408 3.93-0.665 6.417-1.324 12.836-1.971 19.255-0.241 2.343-0.482 4.687-0.723 7.03-0.105 1.063-0.21 2.127-0.318 3.223-1.649 15.907-1.649 15.907-5.014 20.113-4.149 3.112-7.425 2.633-12.593 2.645-0.444 2e-3 -0.444 2e-3 -2.695 0.01-2.952 0.01-5.904 0.012-8.856 0.013-2.048 3e-3 -4.096 6e-3 -6.144 0.01-4.298 6e-3 -8.596 8e-3 -12.895 7e-3 -5.508 0-11.016 0.014-16.524 0.031-4.232 0.011-8.463 0.013-12.695 0.012-2.031 2e-3 -4.062 6e-3 -6.092 0.014-2.842 0.01-5.683 7e-3 -8.524 1e-3 -0.809 0-0.809 0-4.901 4e-3 -3.639-0.221-5.976-0.389-9.081-2.247-3.662-7.326-0.832-16.174 0.336-24.051 1.82-12.541 3.237-25.124 4.653-37.716 0.765-6.788 1.539-13.575 2.312-20.362 0.15-1.318 0.3-2.635 0.454-3.992 1.086-9.527 2.204-19.049 3.37-28.567 0.151-1.231 0.302-2.462 0.457-3.73 0.306-2.499 0.613-4.997 0.919-7.495 1.014-8.299 2.008-16.599 2.999-24.9 0.054-0.448 0.054-0.448 0.325-2.714 1.435-12.026 2.802-24.058 4.113-36.098 1.659-15.207 3.539-30.381 5.457-45.557 1.806-14.3 3.528-28.606 5.137-42.93 1.257-11.158 2.6-22.305 3.968-33.451 2.725-22.214 5.354-44.438 7.907-66.672 0.381-3.317 0.762-6.635 1.143-9.953 0.258-2.244 0.516-4.488 0.773-6.733 1.343-11.695 2.701-23.388 4.138-35.072 0.116-0.938 0.231-1.876 0.35-2.843 0.538-4.363 1.08-8.725 1.629-13.086 0.97-7.803 1.832-15.568 2.296-23.418 0.393-3.96 1.438-7.139 3.264-10.66 4.002-3.12 7.132-3.378 12.129-3.388z" fill="#F8F9F8"/>
<path transform="translate(1554.2 313.74)" d="m0 0c1.495-6e-3 2.99-0.013 4.531-0.02 1.649 4e-3 3.299 7e-3 4.999 0.01 1.764-4e-3 3.529-8e-3 5.293-0.014 4.86-0.012 9.719-0.012 14.578-9e-3 5.237 0 10.473-0.011 15.71-0.021 10.263-0.016 20.526-0.022 30.79-0.023 8.339-1e-3 16.679-5e-3 25.019-0.011 23.631-0.018 47.261-0.027 70.891-0.026 0.638 0 0.638 0 3.863 1e-3h3.867c20.689 1e-3 41.377-0.018 62.066-0.047 21.228-0.028 42.457-0.042 63.685-0.04 11.924 0 23.848-5e-3 35.772-0.027 10.152-0.018 20.303-0.022 30.454-9e-3 5.182 7e-3 10.363 7e-3 15.544-0.01 4.741-0.016 9.482-0.013 14.223 4e-3 2.533 5e-3 5.065-0.011 7.597-0.026 1.501 9e-3 3.001 0.018 4.547 0.027 1.296 0 2.591 0 3.926-1e-3 4.122 0.591 6.273 1.894 9.485 4.499 2.494 4.075 3.93 8.426 5.426 12.949 0.23 0.693 0.23 0.693 1.394 4.196 0.246 0.749 0.246 0.749 1.493 4.543 0.524 1.584 1.048 3.168 1.573 4.752 4.761 14.399 9.453 28.821 14.129 43.249 3.932 12.125 7.941 24.223 11.985 36.311 0.692 2.074 1.384 4.149 2.075 6.223 0.137 0.413 0.137 0.413 0.834 2.502 27.556 82.67 55.113 165.34 82.669 248.01 0.262 0.786 0.524 1.571 0.794 2.381 0.555 1.663 1.109 3.326 1.663 4.989 1.879 5.642 3.764 11.283 5.653 16.923 8.551 25.565 8.551 25.565 12.508 37.851 0.13 0.404 0.13 0.404 0.789 2.45 0.776 2.411 1.552 4.823 2.328 7.234 3.583 11.133 7.266 22.183 11.48 33.094 2.047 5.67 2.047 5.67 2.207 8.343-3 4-3 4-6 5-2.895 0.112-5.793 0.16-8.69 0.177-0.888 7e-3 -1.777 0.013-2.692 0.02-2.941 0.02-5.883 0.032-8.825 0.042-0.502 2e-3 -0.502 2e-3 -3.044 0.012-5.318 0.021-10.635 0.035-15.952 0.044-5.491 0.012-10.982 0.046-16.473 0.086-4.224 0.026-8.447 0.034-12.67 0.038-2.025 5e-3 -4.049 0.016-6.073 0.035-2.834 0.024-5.667 0.023-8.502 0.016-1.612 6e-3 -3.224 0.012-4.885 0.018-4.601-0.535-6.715-1.482-10.194-4.488-2.583-4.787-4.198-9.539-5.757-14.734-2.517-8.243-5.254-16.408-7.993-24.578-0.532-1.592-1.065-3.184-1.597-4.777-1.057-3.162-2.115-6.324-3.174-9.485-1.317-3.941-2.628-7.884-3.936-11.828-0.36-1.087-0.721-2.174-1.092-3.294-0.652-1.964-1.302-3.929-1.952-5.895-0.565-1.703-1.138-3.404-1.718-5.102-0.738-2.181-1.431-4.376-2.121-6.572-2.052-4.618-3.59-6.672-7.66-9.735-4.488-0.897-8.917-0.805-13.481-0.755-1.378-9e-3 -2.756-0.017-4.175-0.026-4.628-0.022-9.254 0-13.881 0.021-3.313-7e-3 -6.626-0.016-9.939-0.027-8.07-0.023-16.14-0.014-24.21 7e-3 -6.558 0.017-13.116 0.021-19.674 0.016-0.933 0-1.866-1e-3 -2.827-2e-3 -1.895-1e-3 -3.791-2e-3 -5.686-4e-3 -17.776-0.012-35.551 0.012-53.326 0.049-15.257 0.031-30.514 0.034-45.771 0.014-17.713-0.022-35.426-0.028-53.139-7e-3 -1.888 2e-3 -3.776 4e-3 -5.665 6e-3 -0.929 1e-3 -1.858 2e-3 -2.815 3e-3 -6.551 7e-3 -13.103 2e-3 -19.654-7e-3 -7.982-0.01-15.964-3e-3 -23.945 0.028-4.074 0.015-8.147 0.019-12.221 7e-3 -4.412-0.011-8.824 8e-3 -13.236 0.036-1.293-0.011-2.585-0.021-3.917-0.032-8.656 0.1-8.656 0.1-12.686 3.055-6.15 9.191-8.9 20.703-12.314 31.118-0.785 2.37-1.571 4.74-2.356 7.11-2.198 6.641-4.377 13.289-6.542 19.941-0.804 2.464-1.612 4.928-2.42 7.391-1.016 3.095-2.023 6.192-3.022 9.293-2.427 7.381-4.773 14.275-9.098 20.765-4.747 2.374-7.633 2.254-12.927 2.259-0.451 2e-3 -0.451 2e-3 -2.731 0.011-2.979 8e-3 -5.957 3e-3 -8.935-4e-3 -2.07 1e-3 -4.14 3e-3 -6.21 6e-3 -4.337 3e-3 -8.675-2e-3 -13.013-0.011-5.562-0.011-11.123-5e-3 -16.685 7e-3 -4.274 7e-3 -8.548 5e-3 -12.822 0-2.051-1e-3 -4.102 0-6.153 5e-3 -2.865 5e-3 -5.73-3e-3 -8.596-0.014-0.816-1e-3 -0.816-1e-3 -4.943-5e-3 -3.985-0.254-3.985-0.254-7.985-2.254-1.496-5.317-0.834-8.375 1.559-13.25 3.972-8.671 6.721-17.649 9.504-26.75 3.415-11.09 6.964-22.095 10.937-33 0.803-2.35 1.598-4.703 2.375-7.062 1.433-4.334 2.868-8.666 4.321-12.992 2.698-8.044 5.372-16.086 7.867-24.196 1.626-5.269 3.379-10.47 5.242-15.66 3.089-8.708 5.944-17.478 8.758-26.277 5.34-16.614 10.94-33.131 16.625-49.629 1.975-5.733 3.925-11.474 5.833-17.23 1.087-3.28 2.185-6.556 3.284-9.833 5.285-15.787 10.492-31.598 15.633-47.433 7.888-24.288 15.876-48.541 24.187-72.688 0.367-1.068 0.733-2.137 1.111-3.238 0.337-0.973 0.675-1.947 1.022-2.949 0.29-0.839 0.581-1.679 0.88-2.543 0.862-2.27 0.862-2.27 2.862-6.27 0.371-2.691 0.371-2.691 0.438-5.562 0.04-0.95 0.08-1.9 0.121-2.879-0.559-2.559-0.559-2.559-2.548-4.206-4.076-1.831-7.281-1.649-11.745-1.554-0.869 0.014-1.738 0.028-2.633 0.043-1.882 0.032-3.764 0.072-5.646 0.118-2.98 0.072-5.96 0.125-8.94 0.173-7.403 0.123-14.804 0.28-22.206 0.435-6.256 0.13-12.513 0.247-18.77 0.348-2.933 0.052-5.865 0.123-8.797 0.195-1.804 0.031-3.607 0.061-5.41 0.09-0.785 0.017-0.785 0.017-4.759 0.102-4.247-0.313-6.573-0.973-10.105-3.303-3.548-4.73-3.379-6.386-3.388-12.177-5e-3 -0.822-0.01-1.643-0.016-2.49-0.013-2.714-4e-3 -5.427 6e-3 -8.141-2e-3 -1.888-5e-3 -3.776-9e-3 -5.664-4e-3 -3.957 2e-3 -7.914 0.016-11.871 0.017-5.068 7e-3 -10.137-0.01-15.205-0.011-3.9-8e-3 -7.799 0-11.698 2e-3 -1.868-1e-3 -3.737-8e-3 -5.606-7e-3 -2.614 4e-3 -5.227 0.021-7.841 3e-3 -1.487 5e-3 -2.974 7e-3 -4.505 0.391-3.902 0.916-5.793 3.381-8.802 4.329-2.164 6.395-2.252 11.16-2.257zm196.84 103.26c-3.88 7.145-6.111 15.173-8.336 22.965-2.53 8.692-5.334 17.271-8.226 25.848-0.787 2.345-1.573 4.691-2.359 7.037-0.812 2.422-1.626 4.843-2.44 7.265-2.685 7.999-5.348 16.005-8.014 24.01-0.945 2.836-1.89 5.672-2.836 8.508-0.454 1.362-0.908 2.724-1.375 4.128-0.992 2.976-1.985 5.952-2.977 8.928-4.416 13.243-4.416 13.243-6.308 18.96-2.897 8.743-5.838 17.469-8.879 26.164-0.281 0.805-0.563 1.611-0.853 2.441-1.298 3.691-2.636 7.35-4.076 10.988-1.772 5.044-1.746 8.447-1.321 13.758 3.622 3.622 5.472 3.36 10.414 3.401 0.518-3e-3 0.518-3e-3 3.139-0.02 0.55 3e-3 0.55 3e-3 3.33 0.014 3.702 0.012 7.402 3e-3 11.104-7e-3 2.645 5e-3 5.291 0.01 7.937 0.016 7.2 0.014 14.4 9e-3 21.601-1e-3 7.522-7e-3 15.043 0 22.565 4e-3 12.634 6e-3 25.267-1e-3 37.901-0.016 14.623-0.016 29.246-0.011 43.869 6e-3 12.537 0.013 25.073 0.015 37.61 8e-3 7.496-5e-3 14.991-6e-3 22.487 4e-3 7.046 9e-3 14.091 3e-3 21.137-0.015 2.592-4e-3 5.183-2e-3 7.775 4e-3 3.526 8e-3 7.052-2e-3 10.578-0.017 1.036 7e-3 2.072 0.014 3.14 0.02 7.071-0.058 7.071-0.058 10.413-3.401 0.98-8.382-0.838-13.706-4.351-21.269-2.82-6.381-4.647-13.059-6.649-19.731-3.655-12.048-7.67-23.958-11.757-35.864-9.513-27.715-9.513-27.715-13.618-40.761-2.83-8.938-5.711-17.858-8.687-26.75-0.388-1.195-0.776-2.391-1.175-3.623-5.051-14.915-13.642-27.453-27.763-35.002-7.848-2.935-15.413-3.441-23.72-3.42-1.221-8e-3 -2.441-0.017-3.699-0.025-4.003-0.024-8.004-0.025-12.006-0.023-2.795-8e-3 -5.59-0.015-8.385-0.024-5.841-0.013-11.682-0.015-17.523-9e-3 -7.486 6e-3 -14.972-0.024-22.459-0.065-5.764-0.026-11.528-0.029-17.292-0.025-2.761-2e-3 -5.522-0.011-8.283-0.029-3.854-0.022-7.706-0.013-11.56 5e-3 -1.139-0.013-2.278-0.026-3.452-0.04-6.479 0.069-10.095 0.539-14.621 5.655z" fill="#F9F9F9"/>
<path transform="translate(1481.1 313.93)" d="m0 0c5.626-0.107 8.607 0.286 12.942 4.066 1.62 3.24 1.163 6.538 1.193 10.134 8e-3 0.841 0.016 1.681 0.025 2.548 0.025 2.789 0.041 5.579 0.056 8.369 5e-3 0.951 0.01 1.903 0.016 2.884 0.026 5.037 0.046 10.074 0.06 15.111 0.017 5.206 0.062 10.411 0.113 15.617 0.033 4 0.045 8 0.051 12 6e-3 1.919 0.021 3.838 0.045 5.757 0.032 2.687 0.032 5.371 0.025 8.058 8e-3 1.528 0.016 3.056 0.024 4.631-0.73 4.674-1.825 6.125-5.608 8.891-3.73 1.009-7.255 1.119-11.106 1.106-1.234-2e-3 -2.469-3e-3 -3.741-5e-3 -1.354-7e-3 -2.707-0.014-4.102-0.021-1.44-4e-3 -2.88-7e-3 -4.364-0.011-3.998-0.01-7.996-0.025-11.994-0.041-4.311-0.017-8.623-0.027-12.934-0.039-6.504-0.017-13.007-0.036-19.511-0.057-12.779-0.042-25.558-0.07-38.338-0.093-2.012-4e-3 -4.023-7e-3 -6.035-0.011-3.049-6e-3 -6.098-0.011-9.147-0.017-11.494-0.02-22.989-0.042-34.483-0.065-1.051-3e-3 -2.102-5e-3 -3.185-7e-3 -17.03-0.035-34.06-0.089-51.091-0.148-17.483-0.06-34.967-0.098-52.451-0.115-10.785-0.011-21.569-0.041-32.354-0.094-7.39-0.035-14.781-0.048-22.171-0.044-4.265 2e-3 -8.529-6e-3 -12.793-0.04-4.624-0.032-9.246-0.027-13.87-0.013-1.347-0.018-2.694-0.036-4.081-0.055-8.155 0.074-12.341 1.02-18.249 6.77-2.77 4.176-3.379 7.404-3.404 12.369-0.013 1.241-0.025 2.483-0.038 3.762 3e-3 1.328 6e-3 2.657 9e-3 4.025-6e-3 1.376-0.011 2.751-0.016 4.169-7e-3 2.904-5e-3 5.809 3e-3 8.714 9e-3 4.445-0.02 8.888-0.052 13.332-1e-3 2.824-1e-3 5.648 2e-3 8.473-0.011 1.328-0.022 2.656-0.034 4.025 0.086 11.418 0.086 11.418 4.53 16.131 6.642 6.1 11.356 6.145 20.104 6.131 1.159 2e-3 2.317 4e-3 3.511 6e-3 3.903 6e-3 7.806 5e-3 11.71 5e-3 2.79 3e-3 5.581 6e-3 8.372 0.01 6.022 8e-3 12.044 0.013 18.067 0.016 9.532 6e-3 19.064 0.023 28.596 0.042 3.262 6e-3 6.525 0.012 9.788 0.019 0.818 1e-3 0.818 1e-3 4.953 9e-3 8.462 0.016 16.923 0.031 25.384 0.045 0.425 0 0.425 0 2.573 4e-3 13.73 0.022 27.46 0.033 41.189 0.04 14.111 8e-3 28.222 0.032 42.332 0.068 7.917 0.02 15.833 0.032 23.749 0.027 7.458-4e-3 14.916 9e-3 22.373 0.037 2.728 7e-3 5.456 7e-3 8.184 0 26.537-0.063 51.026 3.457 71.115 22.541 0.381 0.33 0.381 0.33 2.309 2.004 10.033 9.163 16.368 20.841 20.691 33.558 0.279 0.813 0.557 1.626 0.844 2.464 5.415 17.181 4.451 35.216 4.422 53.005 1e-3 2.925 3e-3 5.849 6e-3 8.774 3e-3 6.108-2e-3 12.217-0.011 18.326-0.011 7.797-5e-3 15.594 7e-3 23.391 7e-3 6.033 5e-3 12.066 0 18.098-2e-3 2.874 0 5.748 5e-3 8.621 0.038 29.88-1.887 58.82-24.046 81.665-3.568 3.355-7.184 6.327-11.227 9.094-0.516 0.36-0.516 0.36-3.129 2.183-21.679 14.112-43.296 14.844-68.51 14.751-3.453 9e-3 -6.906 0.028-10.359 0.047-8.352 0.04-16.703 0.042-25.054 0.032-9.736-0.01-19.471 0.017-29.206 0.045-17.364 0.049-34.727 0.065-52.09 0.062-16.84-3e-3 -33.68 0.017-50.52 0.063-1.04 3e-3 -2.079 6e-3 -3.151 9e-3 -1.038 3e-3 -2.076 6e-3 -3.145 9e-3 -19.207 0.052-38.414 0.085-57.62 0.107-5.821 7e-3 -11.642 0.018-17.463 0.031-9.22 0.021-18.44 0.033-27.66 0.024-4.212-4e-3 -8.423-1e-3 -12.634 0.011-4.56 0.013-9.12 7e-3 -13.68-4e-3 -1.336 8e-3 -2.673 0.015-4.049 0.023-1.219-6e-3 -2.438-0.013-3.694-0.02-1.053 0-2.105 1e-3 -3.19 1e-3 -3.345-0.44-5.177-1.324-7.846-3.374-2.285-4.571-2.253-7.116-2.259-12.194-3e-3 -0.823-7e-3 -1.646-0.01-2.494-9e-3 -2.719-3e-3 -5.437 4e-3 -8.156-2e-3 -1.89-4e-3 -3.781-6e-3 -5.671-3e-3 -3.961 1e-3 -7.922 0.01-11.883 0.012-5.078 5e-3 -10.155-7e-3 -15.233-7e-3 -3.903-5e-3 -7.807 1e-3 -11.71 1e-3 -1.872-1e-3 -3.745-5e-3 -5.617-5e-3 -2.616 2e-3 -5.232 0.013-7.849 2e-3 -1.489 4e-3 -2.978 5e-3 -4.512 0.254-3.681 0.254-3.681 2.254-7.681 3.884-1.942 5.185-2.248 9.314-2.238 1.084-2e-3 2.167-4e-3 3.284-6e-3 1.189 7e-3 2.379 0.015 3.605 0.023 1.264 1e-3 2.529 1e-3 3.831 2e-3 4.256 3e-3 8.511 0.021 12.766 0.039 3.044 6e-3 6.087 0.01 9.13 0.014 6.564 0.01 13.127 0.025 19.69 0.046 9.497 0.03 18.994 0.045 28.491 0.057 15.417 0.019 30.835 0.045 46.253 0.077 0.923 2e-3 1.846 4e-3 2.797 5e-3 10.296 0.022 20.592 0.045 30.887 0.07 3.733 9e-3 7.465 0.018 11.198 0.027 0.46 1e-3 0.46 1e-3 2.79 7e-3 15.356 0.037 30.712 0.062 46.068 0.078 9.473 0.01 18.945 0.03 28.418 0.064 7.258 0.025 14.517 0.034 21.775 0.037 2.979 5e-3 5.958 0.014 8.936 0.028 4.061 0.02 8.122 0.021 12.184 0.017 1.183 0.01 2.366 0.02 3.585 0.031 8.279-0.036 14.92-1.3 20.998-7.378 2.564-5.028 3.381-8.949 3.404-14.569 0.013-1.478 0.026-2.956 0.039-4.48-3e-3 -1.582-6e-3 -3.165-9e-3 -4.795 5e-3 -1.638 0.01-3.276 0.016-4.964 9e-3 -3.46 6e-3 -6.919-4e-3 -10.379-0.011-4.422 9e-3 -8.843 0.038-13.265 0.023-4.235 0.016-8.469 0.012-12.704 6e-3 -0.792 6e-3 -0.792 0.034-4.796-4e-3 -0.739-4e-3 -0.739-0.028-4.48 0-1.296 0-2.591-1e-3 -3.926-0.803-5.837-3.321-9.535-7.563-13.517-5.402-3.908-10.696-3.27-17.113-3.263-0.584-2e-3 -0.584-2e-3 -3.534-9e-3 -3.929-8e-3 -7.858-0.01-11.787-0.011-2.808-5e-3 -5.617-0.01-8.425-0.015-6.06-0.012-12.12-0.02-18.18-0.026-9.586-0.011-19.171-0.031-28.756-0.054-13.443-0.03-26.886-0.059-40.33-0.085-0.853-2e-3 -1.707-3e-3 -2.586-5e-3 -13.814-0.026-27.628-0.045-41.442-0.062-14.188-0.017-28.377-0.046-42.565-0.085-7.964-0.021-15.928-0.036-23.892-0.038-7.496-3e-3 -14.992-0.018-22.488-0.045-2.748-7e-3 -5.495-9e-3 -8.243-6e-3 -3.76 4e-3 -7.519-0.01-11.278-0.029-1.08 5e-3 -2.16 0.011-3.272 0.017-21.682-0.188-42.525-9.907-57.984-24.784-5.251-5.499-9.451-10.95-13.063-17.625-0.345-0.613-0.345-0.613-2.09-3.715-7.176-13.405-9.37-26.294-9.314-41.402-7e-3 -1.323-0.014-2.645-0.021-4.008-0.018-4.322-0.014-8.643-8e-3 -12.965-5e-3 -3.034-0.01-6.069-0.016-9.103-9e-3 -6.34-7e-3 -12.68 3e-3 -19.02 0.012-8.091-9e-3 -16.181-0.038-24.271-0.018-6.261-0.018-12.521-0.012-18.781 0-2.982-6e-3 -5.963-0.018-8.945-0.108-29.963-0.108-29.963 4.514-42.79 0.311-0.863 0.622-1.727 0.942-2.616 3.641-9.182 8.47-17.078 15.058-24.384 0.97-1.217 1.939-2.434 2.938-3.688 14.565-15.754 35.82-24.777 57.055-25.864 8.892-0.274 17.783-0.268 26.678-0.229 4.664 0.014 9.329-8e-3 13.993-0.024 8.061-0.025 16.121-0.027 24.181-0.015 11.664 0.018 23.328 3e-3 34.992-0.02 18.945-0.037 37.889-0.047 56.833-0.04 18.365 6e-3 36.729 0 55.094-0.023 1.133-1e-3 2.266-2e-3 3.433-4e-3 5.685-7e-3 11.371-0.014 17.056-0.022 104.81-0.138 104.81-0.138 139.34-0.064 2.155-5e-3 4.311-0.027 6.466-0.073z" fill="#F8F9F8"/>
<path transform="translate(1770.2 415.85)" d="m0 0c1.164-3e-3 2.329-7e-3 3.529-0.01 3.869-0.01 7.738-0.012 11.608-0.013 2.686-3e-3 5.372-6e-3 8.058-0.01 5.642-6e-3 11.285-8e-3 16.928-7e-3 7.218 0 14.436-0.014 21.654-0.031 5.554-0.011 11.108-0.013 16.662-0.012 2.66-2e-3 5.32-6e-3 7.98-0.014 3.732-0.01 7.463-7e-3 11.194-1e-3 1.093-5e-3 2.185-0.011 3.31-0.017 14.339 0.059 25.133 3.759 35.624 13.733 8.847 9.819 11.563 24.262 15.37 36.609 1.169 3.761 2.404 7.497 3.657 11.231 0.194 0.576 0.194 0.576 1.172 3.492 0.698 2.068 1.396 4.135 2.094 6.203 1.867 5.559 3.645 11.134 5.359 16.742 1.703 5.495 3.571 10.878 5.625 16.25 2.454 6.428 4.579 12.895 6.59 19.473 12.149 39.006 12.149 39.006 17.41 49.527 0.375 3.063 0.375 3.063 0 6-4.917 3.689-8.412 3.421-14.287 3.381-0.529 3e-3 -0.529 3e-3 -3.206 0.014-3.558 0.012-7.115 3e-3 -10.673-7e-3 -2.546 5e-3 -5.091 0.01-7.637 0.016-6.924 0.014-13.847 9e-3 -20.77-1e-3 -7.236-7e-3 -14.472 0-21.708 4e-3 -12.152 6e-3 -24.305-1e-3 -36.458-0.016-14.062-0.016-28.124-0.011-42.187 6e-3 -12.06 0.013-24.12 0.015-36.181 8e-3 -7.209-5e-3 -14.417-6e-3 -21.626 4e-3 -6.777 9e-3 -13.553 3e-3 -20.33-0.015-2.491-4e-3 -4.982-2e-3 -7.474 4e-3 -3.392 8e-3 -6.784-2e-3 -10.176-0.017-0.497 4e-3 -0.497 4e-3 -3.01 0.02-5.169-0.044-7.003-0.196-11.277-3.401-0.102-6.528 1.8-11.071 4.61-16.867 2.734-6.16 4.465-12.684 6.39-19.133 3.21-10.553 6.7-20.976 10.371-31.375 2.744-7.791 5.322-15.615 7.746-23.511 3.421-10.962 7.162-21.813 10.883-32.676 12.824-37.502 12.824-37.502 16.008-48.828 3.106-8.168 9.812-6.758 17.168-6.755z" fill="#18954A"/>
</svg>
