<?xml version="1.0" encoding="UTF-8"?>
<svg id="Capa_1" xmlns="http://www.w3.org/2000/svg" version="1.1" viewBox="0 0 2500 1503.4">
  <!-- Generator: Adobe Illustrator 29.2.1, SVG Export Plug-In . SVG Version: 2.1.0 Build 116)  -->
  <defs>
    <style>
      .st0 {
        fill-rule: evenodd;
      }
    </style>
  </defs>
  <path class="st0" d="M503.2,890c-18.7,0-33.4,13.1-33.4,32.2s14.7,32.2,33.4,32.2,33.4-13.1,33.4-32.2-14.7-32.2-33.4-32.2ZM503.2,945.2c-13.4,0-23.3-9.8-23.3-23s9.8-23,23.3-23,23.3,10,23.3,23-10.1,23-23.3,23ZM828.3,777.2h-162.6l18.5-282.7-105.6,282.7h-151l239.6-638.9h160.7l-18.5,286.5,107.6-286.5h151l-239.6,638.9ZM847.9,777.2l239.6-638.9h151l-239.6,638.9h-151Z"/>
  <path class="st0" d="M410.1,557C199.1,804.8,0,1134.6,175.8,1286.4c170.4,147.1,383.3,60,528.5,1.9s1750.2-755.1,1750.2-755.1c15.5-7.7,12.6-17.4-6.8-12.6-7.8,2-1747.3,473.4-1747.3,473.4-220.7,62-472.4-73.1-290.4-437h0Z"/>
  <path class="st0" d="M508.9,924.5c4.7-.2,8.3-2.6,8.3-9.1s-5.5-10.5-14.6-10.5h-13.1v34.7h8.8v-14.8h1.5l8,14.8h10.1l-8.9-15.1ZM503.3,918.9h-5v-8h4.2c2.6,0,5.5.3,5.5,3.7s-1.7,4.4-4.8,4.4ZM2021.2,136.4c-18.7,0-33.4,13.1-33.4,32.2s14.8,32.2,33.4,32.2,33.4-13.1,33.4-32.2c0-19.1-14.7-32.2-33.4-32.2ZM2021.2,191.6c-13.4,0-23.3-9.8-23.3-23s9.8-23,23.3-23,23.3,10,23.3,23-10.1,23-23.3,23h0Z"/>
  <path class="st0" d="M2026.9,170.9c4.7-.2,8.4-2.6,8.4-9.1s-5.5-10.5-14.6-10.5h-13.1v34.7h8.7v-14.7h1.5l8,14.7h10.1l-8.9-15.1ZM2021.3,165.3h-5v-8h4.2c2.6,0,5.5.3,5.5,3.7s-1.7,4.4-4.8,4.4h0ZM1921.7,244.8l40.6-106.5h-460.8l-158.2,191.7,73-191.7h-153l-237.7,638.9h151l101.5-267.2,7,267.2,463.4-1,44.1-122.9h-176.2l57.9-154.9h145.2l44.7-119.1h-145.2l49.8-134.6h152.9ZM1435,734.6l-9.7-333,228.3-250.7-218.6,583.7Z"/>
</svg>