<?xml version="1.0" encoding="UTF-8"?>
<svg version="1.1" viewBox="0 0 2744 1144" xmlns="http://www.w3.org/2000/svg">
<path transform="translate(533.7 335.49)" d="m0 0c0.973 6e-3 1.947 0.012 2.95 0.018 3.229 0.025 6.455 0.087 9.684 0.15 2.27 0.026 4.54 0.051 6.811 0.074 4.779 0.053 9.558 0.123 14.337 0.206 6.027 0.104 12.055 0.18 18.083 0.245 33.374 0.366 66.447 1.527 99.624 5.377 12.243 1.415 24.402 2.615 36.721 3.111 6.055 0.25 11.917 0.77 17.904 1.702 1.574 0.234 3.148 0.469 4.77 0.711 4.418 0.914 4.418 0.914 8.339 2.429 5.649 2.056 11.258 2.539 17.213 3.125 4.777 0.572 8.405 1.428 12.584 3.871 4.067 2.364 6.765 3.248 11.344 3.926 6.621 1.252 9.834 3.251 14.938 7.563 1.237 0.577 2.475 1.155 3.75 1.75 6.077 3.217 11.284 7.499 16.25 12.25v2l4 2c6.699 6.857 12.603 14.059 16.816 22.695 1.184 2.305 1.184 2.305 4.184 6.305 1.089 3.207 1.955 6.441 2.839 9.711 1.161 3.289 1.161 3.289 3.161 6.05 2.714 4.396 3.273 8.624 4.062 13.676 1.566 9.715 1.566 9.715 3.434 13.973 4.124 9.844 3.933 21.025 4.32 31.539 0.061 1.493 0.123 2.986 0.186 4.525 0.194 4.737 0.377 9.475 0.56 14.213 0.188 4.749 0.377 9.497 0.571 14.246 0.119 2.944 0.235 5.889 0.347 8.835 0.271 6.795 0.708 13.481 1.52 20.232 0.08 1.837 0.13 3.676 0.132 5.515 2e-3 0.941 3e-3 1.882 4e-3 2.852-4e-3 0.951-8e-3 1.902-0.011 2.883 3e-3 0.966 7e-3 1.933 0.011 2.929-0.01 7.204-0.01 7.204-0.623 10.188-0.637 3.264-0.743 6.415-0.855 9.739-0.05 1.43-0.1 2.859-0.152 4.332-0.051 1.543-0.102 3.085-0.155 4.675-0.089 2.442-0.177 4.884-0.267 7.326-0.22 6.003-0.432 12.007-0.631 18.012-0.113 3.367-0.232 6.735-0.358 10.102-0.118 3.159-0.226 6.319-0.324 9.48-0.467 12.07-1.184 24.093-6.771 34.967-0.817 4.55-1.388 9.1-1.961 13.687-1.152 4.778-2.854 6.679-6.039 10.313-1.004 3.253-1.004 3.253-1.563 6.562-0.856 5.014-2.104 7.608-5.437 11.438-0.361 0.67-0.361 0.67-2.188 4.062-7.561 13.778-18.603 25.435-31.812 33.938-0.764 0.66-1.527 1.32-2.313 2-2.434 1.811-4.488 2.875-7.25 4.062-4.437 1.938-4.437 1.938-8.437 4.938-2.686 0.734-5.4 1.369-8.125 1.937-4.785 0.999-9.183 2.127-13.657 4.066-5.74 2.384-11.461 3.191-17.593 3.997-9.912 1.406-19.685 3.11-29.481 5.168-7.032 1.411-13.914 2.038-21.074 2.296-1.951 0.079-3.901 0.158-5.852 0.237-3.031 0.118-6.063 0.235-9.094 0.348-11.009 0.417-21.857 1.042-32.793 2.444-8.728 1.02-17.501 1.52-26.269 2.069-0.508 0.032-0.508 0.032-3.082 0.195-20.407 1.277-40.795 1.974-61.24 2.21-2.893 0.034-5.786 0.075-8.679 0.115-5.013 0.067-10.026 0.114-15.039 0.147-1.917 0.014-3.833 0.032-5.75 0.055-2.651 0.029-5.301 0.039-7.952 0.044-1.513 9e-3 -3.027 0.018-4.586 0.028-3.734-0.356-3.734-0.356-7.734-3.356-0.391-3.462-0.526-6.605-0.486-10.068-4e-3 -1.034-8e-3 -2.069-0.012-3.135-7e-3 -3.429 0.014-6.857 0.037-10.286 2e-3 -2.38 3e-3 -4.76 2e-3 -7.141 3e-3 -4.994 0.02-9.988 0.047-14.982 0.034-6.4 0.042-12.799 0.04-19.198 1e-3 -4.918 0.012-9.836 0.026-14.755 6e-3 -2.359 0.01-4.718 0.012-7.077 4e-3 -3.301 0.022-6.602 0.043-9.903-1e-3 -0.974-2e-3 -1.948-3e-3 -2.952 0.046-4.828 0.115-9.132 2.294-13.503 4.121-2.061 5.791-2.246 10.266-2.232 1.289-1e-3 2.577-2e-3 3.904-3e-3 1.412 9e-3 2.823 0.018 4.278 0.027 1.488 1e-3 2.976 2e-3 4.509 3e-3 3.237 4e-3 6.474 0.011 9.711 0.022 5.123 0.017 10.246 0.014 15.37 6e-3 14.569-0.019 29.137-0.026 43.706 0.022 8.047 0.026 16.094 0.027 24.14 1e-3 4.256-0.013 8.511-0.013 12.766 0.018 4.752 0.029 9.502 0.014 14.255-0.01 1.401 0.019 2.802 0.038 4.246 0.058 8.818-0.103 13.636-1.604 19.849-7.912 0.969-0.846 1.938-1.692 2.937-2.563 4.072-4.813 4.314-9.852 4.33-15.977 8e-3 -1.519 0.017-3.039 0.026-4.605l-3e-3 -5.025c6e-3 -1.771 0.013-3.542 0.02-5.313 0.018-4.804 0.023-9.608 0.024-14.412 1e-3 -3.002 6e-3 -6.005 0.011-9.008 0.019-10.481 0.027-20.961 0.025-31.442-1e-3 -9.763 0.02-19.525 0.052-29.287 0.026-8.388 0.036-16.776 0.035-25.165 0-5.007 5e-3 -10.014 0.027-15.021 0.019-4.709 0.019-9.419 5e-3 -14.129-3e-3 -1.725 2e-3 -3.45 0.014-5.176 0.106-16.042 0.106-16.042-4.503-22.877-0.495-0.789-0.99-1.578-1.5-2.391-6.048-7.496-14.284-9.269-23.5-10.609-2.025-0.086-4.053-0.125-6.079-0.125-0.598-1e-3 -0.598-1e-3 -3.624-8e-3 -1.298 2e-3 -2.597 4e-3 -3.934 7e-3 -0.689-1e-3 -0.689-1e-3 -4.176-6e-3 -2.989-4e-3 -5.978-6e-3 -8.967-7e-3 -6.348-3e-3 -12.696-0.024-19.044-0.045-11.82-0.038-23.64-0.07-35.46-0.067-8.222 2e-3 -16.444-0.022-24.666-0.062-3.136-0.01-6.272-0.012-9.407-4e-3 -4.379 9e-3 -8.757-0.012-13.136-0.04-1.3 0.01-2.601 0.021-3.941 0.031-8.643-0.1-8.643-0.1-12.848-2.715-3.633-6.257-2.877-13.639-2.911-20.693-9e-3 -0.939-0.017-1.878-0.025-2.846-0.025-3.081-0.041-6.163-0.056-9.245-5e-3 -1.056-0.011-2.113-0.016-3.201-0.027-5.582-0.046-11.164-0.061-16.746-0.013-4.616-0.041-9.232-0.082-13.848-0.049-5.585-0.074-11.17-0.081-16.756-7e-3 -2.125-0.022-4.251-0.046-6.376-0.031-2.968-0.031-5.935-0.024-8.903-0.016-0.877-0.033-1.753-0.05-2.656 0.041-3.939 0.444-6.39 2.564-9.742 4.218-2.676 7.935-2.583 12.768-2.455z"/>
<path transform="translate(428.33 336.7)" d="m0 0c2.858-8e-3 5.715-0.022 8.573-0.037 4.545-0.022 9.09-0.029 13.635-0.022 2.518 0 5.036-0.014 7.554-0.028 0.756 3e-3 0.756 3e-3 4.58 0.019 0.662 0 0.662 0 4.011-2e-3 3.316 0.374 3.316 0.374 7.316 3.374 0.396 3.343 0.536 6.356 0.502 9.701 2e-3 0.497 2e-3 0.497 0.016 3.016 0.013 3.299-4e-3 6.597-0.022 9.896 0 2.291 2e-3 4.582 5e-3 6.872 1e-3 4.806-0.012 9.612-0.034 14.418-0.029 6.157-0.026 12.314-0.013 18.471 7e-3 4.733-1e-3 9.466-0.014 14.199-4e-3 2.27-4e-3 4.54 0 6.809 2e-3 3.177-0.014 6.353-0.036 9.53 2e-3 0.468 2e-3 0.468 0.014 2.838-0.059 5.177-0.474 8.935-3.418 13.25-3.682 3.511-5.932 4.5-11.001 4.506-1.204 0.011-2.408 0.022-3.648 0.033-1.313-8e-3 -2.626-0.016-3.979-0.025-1.389 7e-3 -2.778 0.015-4.209 0.022-4.6 0.019-9.2 0.011-13.8 3e-3 -3.197 0.01-6.394 0.022-9.592 0.036-7.567 0.029-15.134 0.042-22.701 0.046-14.334 7e-3 -28.668 0.042-43.002 0.093-4.703 0.013-9.405 0.012-14.108 0.01-2.895 6e-3 -5.79 0.013-8.685 0.021-1.303-4e-3 -2.606-8e-3 -3.948-0.013-19.217 0.085-19.217 0.085-26.327 6.268-6.787 7.454-10.24 13.065-10.267 23.356-9e-3 1.479-0.017 2.958-0.026 4.482 1e-3 1.613 2e-3 3.226 3e-3 4.888-6e-3 1.724-0.013 3.447-0.021 5.171-0.017 4.673-0.022 9.347-0.023 14.021-2e-3 2.921-6e-3 5.842-0.011 8.763-0.019 10.194-0.027 20.388-0.026 30.583 2e-3 9.497-0.019 18.995-0.051 28.492-0.026 8.16-0.037 16.32-0.036 24.48 1e-3 4.871-5e-3 9.742-0.026 14.613-0.019 4.581-0.019 9.162-5e-3 13.743 3e-3 2.478-0.014 4.956-0.031 7.435 9e-3 1.482 0.017 2.963 0.026 4.49-1e-3 1.284-3e-3 2.567-4e-3 3.89 0.898 6.478 4.638 11.106 8.936 15.843 0.741 0.83 1.482 1.66 2.246 2.516 5.27 5.084 10.208 6.359 17.42 6.359 1.252 2e-3 2.504 5e-3 3.794 8e-3 1.371-3e-3 2.742-5e-3 4.155-7e-3 0.722 1e-3 0.722 1e-3 4.381 6e-3 3.143 4e-3 6.287 6e-3 9.43 6e-3 4.971 3e-3 9.942 0.014 14.913 0.03 0.84 2e-3 1.679 5e-3 2.543 8e-3l5.148 0.015c11.571 0.036 23.143 0.062 34.715 0.06 7.808-2e-3 15.616 0.014 23.423 0.05 4.132 0.019 8.262 0.025 12.393 0.016 4.607-0.01 9.213 0.011 13.819 0.04 1.369-0.011 2.738-0.021 4.149-0.031 1.254 0.014 2.509 0.027 3.802 0.042 0.545 0 0.545 0 3.3 4e-3 3.91 0.838 5.407 2.601 7.931 5.628 2.489 5.158 2.296 10.472 2.291 16.089 6e-3 1 0.013 2.001 0.02 3.032 0.019 3.297 0.023 6.594 0.025 9.891 6e-3 2.293 0.013 4.587 0.02 6.88 0.012 4.801 0.016 9.602 0.015 14.402-1e-3 6.161 0.027 12.321 0.061 18.482 0.022 4.733 0.027 9.466 0.025 14.198 3e-3 2.273 0.012 4.545 0.027 6.817 0.02 3.17 0.014 6.339 2e-3 9.509 0.011 0.943 0.022 1.886 0.034 2.857-0.025 2.612-0.025 2.612-0.52 6.843-4.602 3.452-5.955 3.375-11.543 3.372-0.778 4e-3 -0.778 4e-3 -4.72 0.019-1.713-9e-3 -3.426-0.018-5.139-0.028-1.779 1e-3 -3.558 2e-3 -5.337 4e-3 -4.752 2e-3 -9.504-0.016-14.256-0.041-2.936-0.013-5.873-0.022-8.809-0.028-21.968-0.053-43.936-0.147-65.883-1.173-0.85-0.039-1.699-0.078-2.574-0.118-26.891-1.295-26.891-1.295-37.739-4.007-1.777-0.199-3.557-0.362-5.34-0.5-0.526-0.041-0.526-0.041-3.189-0.248-1.125-0.083-2.249-0.166-3.408-0.252-1.164-0.089-2.328-0.178-3.526-0.27-7.136-0.53-14.262-0.904-21.412-1.167-12.874-0.516-25.699-2.039-38.047-5.825-3.478-0.834-6.961-1.274-10.509-1.71-9.285-1.145-17.382-3.015-26.096-6.614-3.063-1.247-6.032-2.194-9.223-3.039-4.25-1.375-4.25-1.375-6.172-3.34-2.439-2.388-4.33-3.004-7.578-3.972-4.669-1.571-6.66-2.96-9.5-7.063-0.887-0.412-1.774-0.825-2.687-1.25-7.436-3.928-13.044-11.336-18.313-17.75-0.588-0.71-1.176-1.42-1.781-2.152-3.807-4.719-6.603-9.346-9.219-14.848-0.681-0.907-1.361-1.815-2.062-2.75-2.37-3.975-3.139-7.738-4.032-12.25-0.906-3-0.906-3-2.902-5.91-2.324-3.583-2.894-6.326-3.566-10.527-0.239-1.405-0.477-2.81-0.723-4.258-0.236-1.421-0.472-2.841-0.715-4.305-1.467-7.849-3.007-15.602-5.351-23.242-2.109-8.968-1.962-18.344-2.204-27.504-0.042-1.566-0.084-3.132-0.127-4.745-0.445-18.254-0.47-36.508-0.448-54.766 5e-3 -4.861 2e-3 -9.721-4e-3 -14.581-0.068-67.942-0.068-67.942 6.319-92.061 1.188-4.486 2.158-8.874 2.753-13.476 0.871-5.917 3.146-10.999 5.613-16.418 1.449-3.207 1.449-3.207 3.074-7.769 1.375-3.438 1.375-3.438 3.313-5.75 2.141-2.791 2.912-4.935 4-8.25 1.576-4.624 2.951-6.663 7.062-9.438 1.344-1.993 2.675-3.994 4-6 4.471-5.594 9.227-10.196 14.984-14.445 2.016-1.555 2.016-1.555 4.454-4.18 3.08-2.855 6.257-4.348 10.062-6.066 2.5-1.309 2.5-1.309 4.859-3.371 3.298-2.42 5.865-2.775 9.891-3.375 5.585-0.982 9.203-2.346 14.027-5.375 5.209-2.272 11.011-2.578 16.614-3.219 4.372-0.575 8.521-1.598 12.776-2.746 14.961-3.946 29.999-4.644 45.396-5.473 4.097-0.237 8.195-0.479 12.292-0.724 2.527-0.15 5.055-0.293 7.583-0.431 1.133-0.064 2.266-0.128 3.433-0.193 0.994-0.054 1.988-0.108 3.012-0.163 2.617-0.239 2.617-0.239 6.617-1.239 12.437-1.691 24.903-2.582 37.438-3.125 0.467-0.021 0.467-0.021 2.834-0.125 22.008-0.93 44.035-1.003 66.059-1.054z"/>
<path transform="translate(2295 434.87)" d="m0 0c0.587-1e-3 0.587-1e-3 3.556-5e-3 3.855-5e-3 7.711-2e-3 11.566 2e-3 2.688-1e-3 5.376-2e-3 8.064-3e-3 5.622-2e-3 11.244 0 16.865 5e-3 7.209 6e-3 14.417 2e-3 21.626-4e-3 5.545-3e-3 11.09-2e-3 16.635 1e-3 2.659 0 5.317-1e-3 7.976-3e-3 3.71-2e-3 7.42 1e-3 11.13 7e-3 0.55-1e-3 0.55-1e-3 3.331-6e-3 1.012 3e-3 2.024 6e-3 3.067 8e-3 0.876 1e-3 1.752 1e-3 2.654 2e-3 2.583 0.131 4.95 0.607 7.48 1.125 4.476 0.255 8.948 0.441 13.428 0.606 4.02 0.165 7.656 0.415 11.572 1.394 3.663 0.257 7.318 0.47 10.985 0.649 2.238 0.119 4.476 0.239 6.714 0.359 3.508 0.184 7.016 0.366 10.524 0.539 33.328 1.667 33.328 1.667 46.48 7.559 2.486 0.968 4.788 1.374 7.422 1.769 5.572 0.979 8.555 3.525 12.875 7.125 0.526 0.341 0.526 0.341 3.188 2.063 2.985 2.057 5.319 4.313 7.812 6.937 0.636 0.604 1.271 1.207 1.926 1.829 5.775 6.047 9.299 13.373 12.074 21.171 0.322 0.41 0.322 0.41 1.949 2.485 2.897 4.965 3.41 9.81 4.176 15.453 0.083 0.569 0.083 0.569 0.501 3.45 1.353 9.641 2.257 19.301 2.98 29.007 0.394 4.605 0.394 4.605 0.906 6.861 1.266 7.119 0.733 14.644 0.738 21.869 1e-3 0.924 2e-3 1.847 3e-3 2.799-0.01 14.449-0.693 28.594-2.795 42.908-0.489 3.385-0.914 6.775-1.337 10.168-1.493 11.414-3.075 21.028-9.121 31-0.433 1.32-0.866 2.64-1.312 4-4.685 11.105-12.879 18.461-22.688 25l-3 3c-2.431 0.76-4.896 1.416-7.375 2-7.138 1.69-7.138 1.69-9.976 3.5-7.715 4.37-18.184 4.134-26.836 4.875-9.151 0.811-18.291 1.659-27.422 2.672-1.636 0.179-3.271 0.358-4.956 0.542-3.098 0.341-6.194 0.691-9.289 1.053-30.643 3.33-61.729 2.52-92.512 2.489-5.634-6e-3 -11.269-3e-3 -16.903 3e-3 -39.561 0.034-39.561 0.034-59.035-0.579-1.234-0.039-2.467-0.077-3.737-0.117-5.095-0.189-9.929-0.598-14.959-1.438-3.786 9e-3 -7.56 0.127-11.344 0.258-3.964-0.219-7.229-0.779-11.066-1.676-9.943-2.258-20.007-2.672-30.158-3.31-9.916-0.714-18.927-2.387-28.432-5.272-1.557-0.42-3.114-0.84-4.719-1.273-7.567-2.205-12.759-4.085-18.281-9.727-1.031-0.66-2.062-1.32-3.125-2-5.243-3.647-8.404-8.737-11.875-14-0.647-0.755-1.294-1.51-1.961-2.289-2.207-2.935-3.351-5.578-4.601-9.023-0.393-1.069-0.787-2.137-1.192-3.238-0.411-1.139-0.822-2.277-1.246-3.45-0.503-1.184-1.005-2.369-1.523-3.589-1.95-5.823-2.746-11.585-3.539-17.661-0.169-1.272-0.339-2.545-0.513-3.856-3.883-30.337-4.632-60.472-1.425-90.894 0.134-1.293 0.269-2.586 0.407-3.919 0.442-4.134 0.918-8.264 1.406-12.393 0.141-1.281 0.281-2.562 0.426-3.882 1.046-8.34 3.26-15.195 6.761-22.806 1.229-3.354 2.423-6.715 3.594-10.089 1.656-3.428 3.616-5.333 6.406-7.911 0.935-0.981 1.869-1.962 2.832-2.972 5.431-5.63 9.92-10.051 17.168-13.028l4-3c3.087-0.927 6.122-1.752 9.25-2.5 4.739-1.153 9.356-2.349 13.922-4.093 7.33-2.693 15.017-2.718 22.746-3.125 2.329-0.129 4.658-0.258 6.986-0.387 3.654-0.199 7.308-0.396 10.962-0.592 3.539-0.192 7.077-0.388 10.615-0.584 1.094-0.057 2.189-0.115 3.317-0.174 0.509-0.028 0.509-0.028 3.086-0.172 0.894-0.048 1.787-0.096 2.708-0.145 2.408-0.228 2.408-0.228 6.408-1.228 1.772-0.133 3.548-0.223 5.324-0.281 1.03-0.037 2.059-0.075 3.12-0.113 1.07-0.035 2.141-0.07 3.244-0.106 2.108-0.069 4.216-0.142 6.324-0.218 0.933-0.031 1.866-0.061 2.827-0.092 2.375-0.143 4.745-0.392 7.106-0.693 5.703-0.64 11.371-0.637 17.105-0.626zm-69.8 72.942c-8.358 11.84-5.382 30.117-5.269 43.996 7e-3 0.971 0.014 1.943 0.021 2.943 0.037 5.124 0.081 10.248 0.13 15.372 0.05 5.275 0.076 10.549 0.097 15.823 0.02 4.08 0.058 8.159 0.101 12.238 0.017 1.945 0.028 3.89 0.032 5.836 7e-3 2.715 0.039 5.43 0.076 8.145 0.012 1.541 0.024 3.082 0.036 4.67 0.778 6.162 3.107 9.833 7.589 14.039 4.823 3.49 8.452 3.255 14.306 3.266 0.864 3e-3 1.728 6e-3 2.618 9e-3 2.907 9e-3 5.813 0.01 8.719 0.012 2.08 4e-3 4.159 9e-3 6.239 0.015 5.657 0.013 11.314 0.019 16.971 0.024 3.532 3e-3 7.065 7e-3 10.598 0.011 11.048 0.014 22.096 0.023 33.144 0.027 12.763 5e-3 25.525 0.022 38.287 0.051 9.859 0.022 19.719 0.032 29.578 0.033 5.891 1e-3 11.782 7e-3 17.673 0.025 5.541 0.017 11.082 0.019 16.623 0.01 2.034-1e-3 4.069 4e-3 6.103 0.013 2.776 0.013 5.552 7e-3 8.329-3e-3 1.553 1e-3 3.107 3e-3 4.708 4e-3 6.043-0.556 9.016-2.326 13.229-6.622 4.968-6.624 6.261-12.18 6.248-20.35 5e-3 -0.469 5e-3 -0.469 0.031-2.841 0.028-3.086 0.034-6.172 0.037-9.258 0.01-2.158 0.02-4.317 0.03-6.475 0.018-4.522 0.024-9.043 0.022-13.565 0-5.768 0.041-11.536 0.092-17.305 0.034-4.459 0.04-8.917 0.038-13.376 4e-3 -2.125 0.017-4.25 0.04-6.376 0.224-22.482 0.224-22.482-6.726-31.204-5.539-5.057-10.176-5.126-17.489-5.14-0.865-3e-3 -1.73-6e-3 -2.621-9e-3 -2.903-9e-3 -5.806-0.01-8.71-0.012-2.079-4e-3 -4.159-9e-3 -6.238-0.015-5.653-0.013-11.306-0.019-16.959-0.024-3.53-3e-3 -7.061-7e-3 -10.591-0.011-11.043-0.014-22.086-0.024-33.129-0.028-12.754-4e-3 -25.508-0.022-38.261-0.051-9.855-0.021-19.71-0.031-29.565-0.033-5.888-1e-3 -11.775-7e-3 -17.663-0.024-5.537-0.017-11.074-0.019-16.611-0.01-2.033 1e-3 -4.065-4e-3 -6.098-0.014-2.774-0.012-5.548-7e-3 -8.322 4e-3 -1.552-2e-3 -3.105-3e-3 -4.705-5e-3 -5.704 0.526-8.812 2.119-12.788 6.185z"/>
<path transform="translate(1723 432.76)" d="m0 0c2.661-4e-3 5.322-8e-3 7.984-0.012 12.467-0.019 24.934-0.034 37.402-0.042 14.341-0.01 28.682-0.036 43.023-0.076 11.144-0.031 22.287-0.045 33.431-0.049 6.637-2e-3 13.273-0.011 19.909-0.036 6.211-0.023 12.422-0.028 18.634-0.017 2.28 0 4.56-6e-3 6.84-0.02 3.104-0.018 6.207-0.011 9.311 3e-3 0.908-0.011 1.815-0.022 2.75-0.034 3.772 0.039 6.154 0.128 9.258 2.376 1.936 2.887 1.905 4.78 1.848 8.243-0.01 1.231-0.021 2.463-0.032 3.731-0.033 1.327-0.066 2.653-0.1 4.019-0.021 1.363-0.042 2.727-0.063 4.131-0.049 2.883-0.107 5.765-0.175 8.648-0.102 4.422-0.166 8.843-0.225 13.266-0.052 2.797-0.106 5.595-0.162 8.392-0.019 1.329-0.038 2.657-0.058 4.025-0.032 1.228-0.065 2.456-0.099 3.722-0.023 1.082-0.046 2.165-0.07 3.281-0.426 2.687-0.426 2.687-3.426 5.687-2.316 0.377-2.316 0.377-5.102 0.379-1.062 9e-3 -2.124 0.017-3.218 0.025-1.171-6e-3 -2.341-0.012-3.548-0.018-1.24 5e-3 -2.481 0.01-3.759 0.015-4.18 0.014-8.36 7e-3 -12.54 0-2.987 6e-3 -5.975 0.013-8.962 0.021-7.287 0.017-14.573 0.021-21.86 0.019-8.481-1e-3 -16.963 0.016-25.445 0.035-15.133 0.034-30.267 0.055-45.4 0.068-0.906 1e-3 -1.812 2e-3 -2.746 2e-3 -3.671 3e-3 -7.343 6e-3 -11.015 0.01-10.103 8e-3 -20.206 0.019-30.309 0.031-0.905 1e-3 -1.809 2e-3 -2.741 3e-3 -15.073 0.018-30.147 0.044-45.22 0.075-8.466 0.017-16.932 0.029-25.398 0.03-7.96 1e-3 -15.92 0.011-23.88 0.028-2.926 4e-3 -5.852 5e-3 -8.779 2e-3 -3.985-4e-3 -7.97 5e-3 -11.955 0.017-1.167-4e-3 -2.333-8e-3 -3.534-0.012-0.534 3e-3 -0.534 3e-3 -3.234 0.017-0.46 0-0.46 0-2.788 2e-3 -5.142 0.503-8.062 2.334-11.317 6.251-0.592 0.702-1.185 1.403-1.796 2.125-3.266 4.214-2.639 8.585-2.678 13.706-0.012 1.021-0.023 2.042-0.035 3.095-0.11 10.691-0.158 21.382-0.2 32.074-0.023 5.073-0.065 10.146-0.124 15.219-0.071 6.123-0.107 12.245-0.12 18.369-0.01 2.332-0.032 4.665-0.067 6.997-0.046 3.27-0.048 6.538-0.04 9.808-0.024 0.96-0.047 1.919-0.072 2.907 0.093 7.507 2.636 10.435 7.882 15.7v2c5.309 1.759 9.902 2.253 15.484 2.261 0.414 2e-3 0.414 2e-3 2.509 0.012 2.761 0.01 5.521 6e-3 8.282 2e-3 1.984 4e-3 3.969 9e-3 5.954 0.015 5.38 0.014 10.759 0.014 16.139 0.012 4.491-1e-3 8.982 4e-3 13.473 8e-3 10.591 0.012 21.181 0.012 31.772 6e-3 10.932-6e-3 21.863 6e-3 32.795 0.028 9.386 0.017 18.771 0.023 28.156 0.02 5.606-2e-3 11.212 1e-3 16.818 0.015 5.267 0.012 10.534 0.01 15.801-3e-3 1.935-2e-3 3.87 1e-3 5.805 9e-3 2.637 0.01 5.273 2e-3 7.91-0.01h4.475c3.627-0.375 3.627-0.375 7.627-3.375 0.47-3.306 0.47-3.306 0.426-7.371-8e-3 -1.461-0.017-2.922-0.025-4.428-0.029-1.53-0.058-3.061-0.088-4.638-0.01-1.527-0.019-3.054-0.029-4.627-0.114-11.259-0.114-11.259-1.284-15.936-4.318-1.079-7.988-1.16-12.44-1.205-0.849-0.01-1.698-0.02-2.573-0.03-2.803-0.032-5.606-0.056-8.408-0.081-1.945-0.021-3.89-0.042-5.835-0.063-5.116-0.055-10.232-0.105-15.348-0.153-5.222-0.05-10.443-0.106-15.665-0.161-10.244-0.108-20.487-0.209-30.731-0.307-0.681-2.291-0.681-2.291-1-5 2.247-2.585 4.377-4.707 6.938-6.937 0.653-0.595 1.306-1.19 1.978-1.803 3.347-3.01 6.775-5.816 10.401-8.482 3.683-2.778 3.683-2.778 6.683-6.278 4.253-4.962 8.523-8.88 15-10.5 2.051-0.099 4.103-0.143 6.156-0.154 1.263-8e-3 2.526-0.017 3.828-0.026 0.692-2e-3 0.692-2e-3 4.192-0.013 1.459-8e-3 2.918-0.016 4.421-0.024 4.834-0.025 9.667-0.042 14.501-0.056 1.648-5e-3 3.295-0.011 4.992-0.016 6.919-0.022 13.838-0.041 20.756-0.052 9.92-0.016 19.838-0.049 29.757-0.106 6.975-0.039 13.949-0.059 20.923-0.064 4.167-3e-3 8.333-0.018 12.5-0.048 4.643-0.031 9.285-0.032 13.928-0.024 0.693-8e-3 0.693-8e-3 4.198-0.05 0.631 4e-3 0.631 4e-3 3.82 0.025 1.098-3e-3 2.196-6e-3 3.328-0.01 2.7 0.618 2.7 0.618 4.553 2.783 1.277 3.155 1.527 5.403 1.535 8.801 5e-3 0.597 5e-3 0.597 0.03 3.623-4e-3 1.304-9e-3 2.608-0.013 3.951 3e-3 0.689 3e-3 0.689 0.02 4.179 0.019 4.564 0.015 9.128 9e-3 13.691 5e-3 3.167 0.01 6.334 0.016 9.501 9e-3 6.639 7e-3 13.277-3e-3 19.916-0.012 7.675 2e-3 15.349 0.029 23.024 0.025 7.385 0.027 14.77 0.021 22.155 0 3.142 6e-3 6.284 0.018 9.426 0.015 4.387 4e-3 8.772-0.013 13.158 0.01 1.306 0.02 2.612 0.029 3.957-9e-3 1.193-0.019 2.386-0.029 3.615-1e-3 1.037-1e-3 2.074-1e-3 3.142-0.501 2.696-0.501 2.696-1.929 5.03-3.883 2.516-7.744 2.21-12.221 2.161-0.99 5e-3 -1.98 9e-3 -3.001 0.014-3.331 0.012-6.66-6e-3 -9.991-0.023-2.386 2e-3 -4.772 6e-3 -7.157 0.012-6.503 9e-3 -13.006-6e-3 -19.509-0.026-6.845-0.018-13.691-0.014-20.536-0.014-11.545-1e-3 -23.089-0.019-34.633-0.046-13.221-0.031-26.442-0.042-39.662-0.041-14.183 2e-3 -28.365-0.012-42.547-0.031-4.021-4e-3 -8.042-5e-3 -12.063-6e-3 -26.01-0.01-51.99-0.169-77.981-1.234-0.983-0.039-1.966-0.078-2.978-0.118-13.637-0.556-27.044-1.796-40.523-3.986-6.327-0.998-12.652-1.533-19.035-2.041-12.47-1-22.429-2.439-33.735-7.955-1.402-0.309-2.805-0.618-4.25-0.937-7.764-2.2-14.327-7.176-19.75-13.063-0.969-0.68-1.938-1.361-2.937-2.062-4.454-4.272-6.513-9.388-9.063-14.938-0.5-0.95-1-1.9-1.515-2.879-1.727-3.632-2.884-7.272-4.047-11.121-2.399-7.89-2.399-7.89-3.527-11.062-2.119-6.837-2.196-13.959-2.465-21.059-0.042-1.089-0.084-2.177-0.128-3.299-0.423-11.975-0.468-23.946-0.448-35.928 5e-3 -3.715 0-7.43-6e-3 -11.146-0.022-45.522-0.022-45.522 4.574-57.943 0.627-1.831 1.25-3.663 1.871-5.496 0.296-0.849 0.593-1.699 0.898-2.574 0.793-2.493 0.793-2.493 1.825-7.348 0.896-3.834 1.706-5.931 4.031-9.02 0.619-0.826 1.237-1.652 1.875-2.504 0.681-0.865 1.361-1.73 2.062-2.621 0.743-0.957 1.485-1.915 2.25-2.902 5.572-7.012 11.243-12.202 18.75-17.098l4-3c2.686-0.734 5.4-1.369 8.125-1.937 4.812-1.056 9.25-2.044 13.688-4.188 7.012-3.037 14.923-3.059 22.456-3.653 4.583-0.372 9.156-0.829 13.731-1.284 1.63-0.156 3.259-0.312 4.938-0.473 4.062-0.465 4.062-0.465 8.062-1.465 2.31-0.198 4.624-0.361 6.938-0.5 6.549-0.392 6.549-0.392 9.373-0.984 33.686-6.456 71.516-2.709 105.71-2.754z"/>
<path transform="translate(1165.2 436.87)" d="m0 0c1.3-2e-3 2.601-4e-3 3.94-5e-3 4.278-5e-3 8.555-2e-3 12.832 2e-3 2.98-1e-3 5.959-2e-3 8.939-3e-3 6.234-2e-3 12.467 0 18.701 5e-3 7.995 6e-3 15.991 2e-3 23.986-4e-3 6.148-3e-3 12.295-2e-3 18.443 1e-3 2.948 0 5.897-1e-3 8.846-3e-3 4.115-2e-3 8.229 1e-3 12.344 7e-3 0.611-1e-3 0.611-1e-3 3.7-6e-3 1.121 3e-3 2.243 6e-3 3.398 8e-3 0.972 1e-3 1.944 1e-3 2.945 2e-3 2.662 0.124 5.083 0.563 7.683 1.125 2.122 0.152 4.247 0.261 6.372 0.342 0.635 0.025 0.635 0.025 3.847 0.152 1.367 0.051 2.735 0.102 4.144 0.155 2.919 0.119 5.837 0.239 8.756 0.359 4.583 0.185 9.167 0.366 13.75 0.539 4.436 0.169 8.871 0.353 13.307 0.539 1.345 0.047 2.69 0.094 4.077 0.143 12.447 0.54 24.074 2.394 35.747 6.771 4.057 0.722 8.116 1.374 12.195 1.961 4.37 1.194 6.457 3.058 9.805 6.039 2.527 1.047 2.527 1.047 4.937 1.75 5.972 2.195 8.638 6.09 12.063 11.25 0.99 1.32 1.98 2.64 3 4 1.333 2.334 2.667 4.667 4 7 0.99 1.32 1.98 2.64 3 4 0.754 2.538 1.411 5.106 2 7.688 1.044 4.434 2.113 8.635 3.625 12.937 3.988 12.689 3.687 25.924 3.676 39.086 4e-3 1.982 8e-3 3.964 0.013 5.946 7e-3 4.133 7e-3 8.267 2e-3 12.4-6e-3 5.253 0.011 10.507 0.034 15.76 0.015 4.087 0.015 8.175 0.012 12.262 1e-3 1.935 6e-3 3.87 0.016 5.805 0.071 15.388-1.652 29.561-6.491 44.241-0.887 2.875-0.887 2.875-1.637 7.313-3.303 12.056-11.804 24.327-21.25 32.562-1.983 1.033-3.984 2.034-6 3-0.64 0.604-1.279 1.207-1.938 1.829-4.61 3.269-9.709 4.657-15.062 6.359-1.08 0.355-2.161 0.71-3.274 1.076-7.613 2.477-14.53 3.877-22.531 4.604-0.863 0.079-1.726 0.158-2.615 0.24-2.818 0.258-5.637 0.513-8.455 0.767-3.933 0.357-7.865 0.715-11.797 1.075-0.977 0.089-1.954 0.178-2.961 0.27-6.782 0.622-13.555 1.303-20.325 2.045-11.179 1.134-22.305 1.99-33.538 2.31-1.396 0.04-2.792 0.081-4.231 0.123-18.349 0.477-36.702 0.453-55.056 0.433-5.123-6e-3 -10.247-3e-3 -15.37 3e-3 -80.4 0.077-80.4 0.077-95.357-3.088-5.732-1.168-11.446-1.689-17.271-2.159-2.247-0.198-4.493-0.396-6.739-0.596-3.494-0.305-6.989-0.604-10.486-0.887-3.406-0.279-6.809-0.583-10.213-0.892-1.032-0.077-2.065-0.154-3.129-0.234-6.284-0.593-11.002-2.034-16.508-5.146-3.013-1.59-5.982-2.072-9.332-2.569-6.157-1.174-9.355-3.013-13.812-7.563-0.505-0.309-0.505-0.309-3.063-1.875-8.225-5.95-12.676-16.161-16.937-25.125-0.247-0.504-0.247-0.504-1.496-3.058-2.013-5.276-3.019-10.592-4.067-16.129-0.208-1.06-0.416-2.121-0.631-3.213-0.621-3.197-1.229-6.394-1.806-9.6-0.168-0.805-0.337-1.611-0.51-2.441-1.767-9.159-1.779-18.18-1.756-27.484-1e-3 -1.719-3e-3 -3.437-6e-3 -5.155-3e-3 -3.584 2e-3 -7.169 0.011-10.753 0.011-4.552 5e-3 -9.104-7e-3 -13.655-7e-3 -3.545-5e-3 -7.089 0-10.633 2e-3 -2.481-4e-3 -4.962-0.01-7.442 0.052-12.708 0.693-24.517 5.278-36.437 0.485-2.662 0.94-5.329 1.375-8 1.176-6.656 2.719-10.57 6.625-16 0.598-1.443 1.196-2.887 1.812-4.375 5.057-11.732 14.804-18.863 25.188-25.625l4-3c2.467-0.752 2.467-0.752 5.219-1.281 1.009-0.201 2.018-0.401 3.058-0.608 1.064-0.202 2.127-0.403 3.223-0.611 2.176-0.43 4.352-0.862 6.527-1.296 1.038-0.206 2.075-0.412 3.144-0.624 4.162-0.853 8.265-1.888 12.364-3.001 7.696-1.806 15.531-1.948 23.395-2.297 1.344-0.063 2.689-0.126 4.075-0.191 4.29-0.2 8.58-0.396 12.87-0.591 4.283-0.195 8.566-0.391 12.848-0.591 2.661-0.124 5.323-0.245 7.984-0.364 0.609-0.028 0.609-0.028 3.691-0.172 1.06-0.048 2.12-0.096 3.213-0.145 2.498-0.168 4.99-0.43 7.474-0.743 6.072-0.599 12.061-0.624 18.158-0.614zm-64.325 70.321c-0.286 0.391-0.286 0.391-1.731 2.371-0.584 0.785-1.168 1.57-1.769 2.379-3.04 4.413-2.573 8.553-2.579 13.753-5e-3 1.007-0.01 2.013-0.015 3.05-0.015 3.342-0.022 6.683-0.027 10.025l-0.018 6.951c-0.01 4.863-0.016 9.726-0.019 14.589-6e-3 6.235-0.03 12.469-0.058 18.704-0.019 4.787-0.024 9.575-0.026 14.363-3e-3 2.298-0.011 4.597-0.024 6.895-0.017 3.216-0.015 6.43-9e-3 9.646-9e-3 0.951-0.018 1.902-0.028 2.883 0.032 4.938 0.292 8.271 3.385 12.199 0.464 0.609 0.464 0.609 2.812 3.688 4.24 4.406 7.168 5.186 13.223 5.564 1.551 1e-3 3.103 2e-3 4.701 2e-3 0.867 3e-3 1.735 7e-3 2.628 0.01 2.9 8e-3 5.799 1e-3 8.699-5e-3 2.081 3e-3 4.162 6e-3 6.244 0.011 5.648 9e-3 11.297 5e-3 16.946-1e-3 5.91-5e-3 11.82 0 17.73 3e-3 9.923 3e-3 19.847-1e-3 29.771-0.011 11.477-0.011 22.953-7e-3 34.43 4e-3 9.851 9e-3 19.703 0.01 29.554 5e-3 5.885-3e-3 11.77-4e-3 17.655 3e-3 5.531 6e-3 11.063 2e-3 16.594-0.01 2.031-2e-3 4.063-2e-3 6.094 3e-3 2.77 5e-3 5.54-2e-3 8.31-0.012 1.551 0 3.102-1e-3 4.699-2e-3 5.919-0.381 8.026-1.28 12.035-5.689 0.949-1.176 1.897-2.351 2.875-3.563l3-3c1.791-3.581 1.169-7.835 1.18-11.783 7e-3 -1.016 0.013-2.033 0.02-3.08 0.05-9.397 0.038-18.795 9e-3 -28.193-0.019-6.312-0.02-12.623 0.027-18.936 0.046-6.104 0.042-12.206 4e-3 -18.311-7e-3 -2.321 4e-3 -4.643 0.033-6.964 0.23-20.436 0.23-20.436-6.1-27.682-5.603-5.091-10.318-5.177-17.7-5.191-0.869-3e-3 -1.738-6e-3 -2.633-9e-3 -2.918-9e-3 -5.835-0.01-8.752-0.012-2.089-4e-3 -4.178-9e-3 -6.268-0.015-5.68-0.013-11.359-0.019-17.039-0.024-3.547-3e-3 -7.095-7e-3 -10.642-0.011-11.095-0.014-22.19-0.024-33.285-0.028-12.815-4e-3 -25.629-0.022-38.444-0.051-9.901-0.021-19.803-0.031-29.704-0.033-5.916-1e-3 -11.832-7e-3 -17.747-0.024-5.564-0.017-11.127-0.019-16.69-0.01-2.042 1e-3 -4.085-4e-3 -6.127-0.014-2.787-0.012-5.574-7e-3 -8.361 4e-3 -1.56-2e-3 -3.12-3e-3 -4.728-5e-3 -5.195 0.477-8.536 1.775-12.135 5.564z"/>
<path transform="translate(1978.9 433.61)" d="m0 0c0.442-3e-3 0.442-3e-3 2.677-0.016 2.913-0.013 5.826-4e-3 8.739 6e-3 2.025-2e-3 4.051-5e-3 6.077-9e-3 4.242-4e-3 8.484 2e-3 12.725 0.016 5.442 0.017 10.884 7e-3 16.326-0.011 4.182-0.01 8.363-7e-3 12.544 1e-3 2.007 2e-3 4.014-1e-3 6.021-8e-3 2.801-7e-3 5.602 4e-3 8.403 0.021 1.595 2e-3 3.189 5e-3 4.833 7e-3 3.781 0.381 3.781 0.381 6.781 3.381 0.311 3.485 0.433 6.793 0.426 10.281 0.01 1.069 0.019 2.139 0.029 3.241 0.028 3.602 0.035 7.204 0.041 10.806 0.016 2.575 0.033 5.15 0.051 7.726 0.044 7.008 0.07 14.016 0.091 21.024 0.02 5.843 0.048 11.686 0.076 17.528 0.067 13.78 0.118 27.56 0.16 41.339 0.043 14.234 0.111 28.467 0.193 42.7 0.069 12.205 0.122 24.409 0.163 36.614 0.024 7.296 0.055 14.593 0.1 21.889 0.042 6.859 0.064 13.718 0.071 20.577 6e-3 2.522 0.019 5.044 0.039 7.566 0.027 3.434 0.028 6.868 0.024 10.302 6e-3 0.503 6e-3 0.503 0.041 3.047-0.046 6.689-0.046 6.689-2.292 9.98-3.539 2.208-6.722 1.873-10.849 1.866-0.87 4e-3 -1.741 8e-3 -2.638 0.012-2.876 7e-3 -5.751-0.014-8.628-0.037-2-2e-3 -4-3e-3 -6-3e-3 -4.193-3e-3 -8.385-0.019-12.577-0.046-5.371-0.034-10.742-0.042-16.113-0.04-4.131-1e-3 -8.262-0.012-12.393-0.026-1.98-7e-3 -3.96-0.011-5.941-0.012-2.769-4e-3 -5.538-0.022-8.308-0.043-0.788-4e-3 -0.788-4e-3 -4.774-0.023-4.733-0.318-7.626-0.902-10.992-4.268-0.192-3.416-0.257-6.75-0.236-10.167-1e-3 -1.069-2e-3 -2.139-3e-3 -3.241-2e-3 -3.607 0.012-7.214 0.025-10.822 2e-3 -2.577 4e-3 -5.153 4e-3 -7.73 5e-3 -7.016 0.023-14.033 0.045-21.049 0.013-4.379 0.024-8.757 0.033-13.135 0.034-15.26 0.079-30.52 0.134-45.78 0.051-14.249 0.076-28.498 0.088-42.746 0.012-12.214 0.044-24.428 0.09-36.642 0.027-7.304 0.046-14.607 0.045-21.91 1e-3 -6.866 0.025-13.732 0.067-20.598 0.011-2.525 0.014-5.051 8e-3 -7.577-7e-3 -3.437 0.016-6.872 0.048-10.309-0.01-1.009-0.019-2.019-0.028-3.059 0.044-2.78 0.044-2.78 0.68-7.235 4.125-3.82 8.417-3.38 13.874-3.388z"/>
<path transform="translate(2597,392)" d="m0 0c2.625 0.875 2.625 0.875 5 2-0.75 4.75-0.75 4.75-3 7-0.102 3.328 0.07 6.608 0.223 9.934-0.223 3.066-0.223 3.066-3.223 6.066-2.359-2.359-1.185-8.592-1.188-11.938-0.012-1.028-0.024-2.056-0.037-3.115-5e-3 -2.65 0.102-5.3 0.225-7.947l2-2z"/>
<path transform="translate(2616,421)" d="m0 0c0.99 0.33 1.98 0.66 3 1l-1 4c-0.99 0.33-1.98 0.66-3 1l-1-3 2-3z"/>
<path transform="translate(2587,426)" d="m0 0 4 1-1 2h-3v-3z"/>
</svg>
