<?xml version="1.0" encoding="UTF-8"?>
<svg version="1.1" viewBox="0 0 2744 1144" xmlns="http://www.w3.org/2000/svg">
<path transform="translate(341,457)" d="m0 0c3.386 4.107 3.323 7.627 3.188 12.812-0.014 0.674-0.014 0.674-0.083 4.083-0.034 1.024-0.069 2.049-0.105 3.105 4.852-0.5 8.439-1.419 12.688-3.812 0.911-0.502 1.822-1.003 2.761-1.52 2.551-1.668 2.551-1.668 4.52-3.777 2.552-2.376 4.442-2.695 7.843-3.329 5.425-1.193 8.742-3.183 13.188-6.562 7.475-1.806 15.399-1.224 23.048-1.24 2.745-0.01 5.49-0.041 8.235-0.072 1.766-7e-3 3.533-0.012 5.299-0.016 1.59-9e-3 3.181-0.019 4.82-0.028 6.923 0.536 11.955 2.123 17.598 6.356 2.516 0.738 2.516 0.738 5.25 1.312 5.823 1.464 9.09 3.96 13.75 7.688 1.279 0.516 2.558 1.031 3.875 1.562 3.803 1.75 3.696 2.722 5.125 6.438 0.949 0.309 1.898 0.619 2.875 0.938 4.119 1.4 4.873 3.43 7.125 7.062 1.663 1.338 3.329 2.672 5 4 3 4.345 3 4.345 3 7 0.99 0.33 1.98 0.66 3 1 0.992 2.328 0.992 2.328 1.875 5.25 1.82 5.474 1.82 5.474 4.75 8.125 3.4 3.758 3.207 7.433 3.781 12.359 0.583 3.203 1.366 5.053 3.094 7.766 6.11 9.794 4.788 23.158 4.688 34.25-8e-3 1.498-0.016 2.996-0.024 4.54-0.238 30.757-0.238 30.757-5.223 37.491-2.416 4.006-2.645 7.076-3.003 11.719-0.534 6.759-1.842 11.181-5.438 16.875-1.5 2.625-1.5 2.625-2.875 6.437-1.742 4.488-3.99 8.169-6.625 12.188-0.248 0.443-0.248 0.443-1.5 2.688-1.84 2.836-4.083 4.954-6.5 7.312l-2 2.5c-3.018 3.772-6.322 6.946-10.062 10-2.938 2.5-2.938 2.5-5 5.125-2.112 2.588-4.076 3.7-6.938 5.375-0.743 0.825-1.485 1.65-2.25 2.5-3.567 3.243-7.201 4.026-11.75 5.5-0.593 0.659-1.186 1.317-1.797 1.996-3.092 2.813-5.79 2.912-9.891 3.504-6.459 1.066-11.486 2.587-17.312 5.5-6.492 1.623-13.084 1.185-19.75 1.188-0.721 6e-3 -0.721 6e-3 -4.367 0.037-9.277 0.012-16.939-0.983-25.633-4.287-5.907-2.237-10.879-3.246-17.25-2.938-2.717 2.717-2.239 4.865-2.252 8.553 7e-3 0.899 0.014 1.798 0.022 2.724 0 0.923 0 1.845 1e-3 2.795 3e-3 1.953 0.011 3.906 0.023 5.858 0.018 2.992 0.021 5.983 0.02 8.974 5e-3 1.895 0.011 3.791 0.018 5.686 1e-3 0.897 2e-3 1.794 3e-3 2.718 0.027 3.465 0.062 6.383 1.165 9.692 6.089 3.034 12.877 2.044 19.477 1.746 6.798-0.164 6.798-0.164 10.144 1.766 1.972 3.558 1.873 6.379 1.817 10.426-1e-3 0.695-1e-3 0.695-4e-3 4.214-0.44 3.904-0.872 5.893-3.434 8.848-3.478 0.951-6.759 1.12-10.351 1.102-0.53-1e-3 -0.53-1e-3 -3.212-8e-3 -0.576-4e-3 -0.576-4e-3 -3.492-0.025-0.611-2e-3 -0.611-2e-3 -3.702-0.014-4.039-0.018-8.079-0.044-12.118-0.071-2.806-0.016-5.612-0.033-8.417-0.05-5.882-0.036-11.763-0.077-17.644-0.121-7.542-0.055-15.085-0.092-22.627-0.124-5.794-0.027-11.588-0.069-17.382-0.113-2.782-0.019-5.563-0.034-8.344-0.043-3.886-0.014-7.771-0.047-11.656-0.085h-3.492c-1.06-0.014-2.12-0.028-3.212-0.043-0.918-5e-3 -1.836-0.011-2.782-0.017-3.128-0.472-5.03-1.524-7.569-3.388-1.837-5.512-1.294-12.227-1-18l1-2c2.983-0.821 5.988-1.41 9.02-2.023 3.371-1.105 4.811-2.197 6.98-4.977 1.126-4.505 1.135-8.685 1.12-13.289 1e-3 -0.95 2e-3 -1.901 3e-3 -2.881 1e-3 -3.194-4e-3 -6.387-9e-3 -9.581-1e-3 -2.286-1e-3 -4.573 0-6.859 0-6.214-6e-3 -12.429-0.013-18.643-6e-3 -6.492-6e-3 -12.983-8e-3 -19.475-3e-3 -12.296-0.011-24.593-0.021-36.889-0.011-13.997-0.017-27.995-0.022-41.992-0.01-28.797-0.028-57.594-0.05-86.391-1.048-0.049-2.096-0.098-3.176-0.148-1.365-0.075-2.73-0.15-4.136-0.227-1.358-0.07-2.715-0.139-4.114-0.211-3.574-0.414-3.574-0.414-6.574-2.414-0.164-3.709-0.137-7.184 0.062-10.875 0.028-1.007 0.056-2.014 0.084-3.051 0.348-7.361 0.348-7.361 2.725-10.707 3.548-2.278 6.4-2.439 10.504-2.555 4.949-0.355 8.364-1.456 12.75-3.75 6.817-3.457 13.199-3.944 20.742-4.57 5.173-0.616 8.603-1.993 13.133-4.492 5.639-2.82 11.191-2.803 17.422-3.34 6.194-0.893 11.155-2.894 16.64-5.848 4.128-1.899 6.469-2.601 10.938-1.812zm4 53c-2.249 3.373-2.252 4.498-2.261 8.446-7e-3 1.131-0.014 2.262-0.021 3.428 2e-3 1.242 5e-3 2.484 7e-3 3.764-5e-3 1.307-0.01 2.615-0.015 3.962-0.014 4.338-0.013 8.676-0.011 13.013-4e-3 3.008-8e-3 6.016-0.013 9.024-7e-3 6.313-7e-3 12.625-2e-3 18.938 6e-3 8.094-0.011 16.188-0.034 24.282-0.015 6.215-0.016 12.431-0.013 18.646 0 2.984-5e-3 5.969-0.015 8.953-0.013 4.173-6e-3 8.345 6e-3 12.518-8e-3 1.236-0.016 2.472-0.023 3.746 0.063 10.278 0.063 10.278 3.395 15.28 0.784 1.341 1.567 2.681 2.375 4.062 2.329 3.493 4.601 6.07 7.625 8.938 0.309 0.443 0.309 0.443 1.875 2.688 3.73 4.059 8.275 4.268 13.613 4.542 4.84-0.043 9.674-0.108 14.512-0.23 1.084-0.018 2.168-0.036 3.285-0.055 3.962-0.203 6.254-0.561 9.34-3.133 0.392-0.464 0.392-0.464 2.375-2.812 1.341-0.928 2.681-1.856 4.062-2.812 4.201-3.066 5.849-6.413 7.938-11.188 0.664-0.852 1.328-1.704 2.012-2.582 2.691-4.627 3.021-8.842 3.55-14.106 0.235-2.062 0.472-4.125 0.711-6.187 0.117-1.029 0.234-2.057 0.355-3.117 0.725-5.864 1.789-11.672 2.821-17.488 1.174-9.631 0.475-18.527-1.324-28.02-1.711-9.488-2.838-18.867-3.535-28.48-0.84-5.726-3.155-8.439-6.59-13.02-0.773-2.656-0.773-2.656-1.375-5.5-1.223-4.834-2.386-6.708-6.625-9.5-0.639-0.99-1.279-1.98-1.938-3-2.33-3.389-4.612-4.817-8.062-7-0.722-0.846-1.444-1.691-2.188-2.562-3.538-3.067-6.633-3.641-11.128-4.68-2.684-0.758-2.684-0.758-5.996-2.946-9.836-4.834-20.252-2.232-28.688 4.188z"/>
<path transform="translate(1422,418)" d="m0 0c2 2 2 2 2.047 5.125-1.51 19.704-1.51 19.704-7.047 28.875-0.33 1.258-0.66 2.516-1 3.812-0.33 1.052-0.66 2.104-1 3.188l-4 2c-0.908-0.784-1.815-1.567-2.75-2.375-3.25-2.625-3.25-2.625-7.312-3.25-4.696 0.745-6.033 1.951-8.938 5.625-2.628 3.941-2.354 6.327-2 11 1.5 2.875 1.5 2.875 3 5v2c0.712 0.282 1.423 0.565 2.156 0.855 3.345 1.346 5.581 3.149 8.344 5.457 0.918 0.76 1.836 1.519 2.781 2.301 7.645 6.712 14.078 14.29 18.719 23.387v2l4 2c1.83 4.151 2.405 8.269 2.938 12.75 0.562 4.299 1.26 8.22 2.687 12.312 3.324 10.276 1.432 21.283-1.687 31.376-0.84 3.19-1.123 5.854-1.313 9.124-0.372 4.855-1.459 7.621-4.625 11.438-3 4-3 4-4.312 7.812-2.521 6.254-6.905 10.559-11.688 15.188-0.804 0.846-1.609 1.691-2.438 2.562-3.485 3.316-6.721 5.104-11.187 6.876-3.375 1.562-3.375 1.562-6.375 5.562-2.27 0.871-2.27 0.871-4.812 1.438-3.651 0.959-5.099 1.483-8 4.062-4.142 3.249-7.945 3.754-13.067 4.629-3.532 0.986-5.376 2.492-8.121 4.871-5.383 2.018-10.941 2.587-16.621 3.242-3.379 0.758-3.379 0.758-7.141 2.719-4.924 2.369-9.244 3.119-14.613 3.789-0.901 0.125-1.802 0.25-2.73 0.379-6.385 0.871-6.385 0.871-8.895 0.871v8c4.669 0.744 9.168 1.13 13.895 1.176 1.285 0.024 2.571 0.047 3.896 0.072 2.669 0.043 5.338 0.074 8.008 0.094 8.09 0.174 13.88 1.214 21.201 4.658 5.957 2.278 11.805 2.68 18.125 3.242 4.215 0.825 6.492 2.172 9.875 4.758 3 2 3 2 7.75 2.75 5.438 0.989 8.255 3.412 12.25 7.25 0.798 0.468 1.596 0.936 2.418 1.418 2.795 1.713 4.804 3.607 7.082 5.957 2.416 2.488 4.812 4.91 7.375 7.25 4.445 4.968 5.593 11.041 7.125 17.375 0.371 0.825 0.743 1.65 1.125 2.5 2.434 6.955 0.269 12.882-2.125 19.473-0.929 2.812-1.448 5.417-1.875 8.339-1.303 5.429-3.258 7.744-7.125 11.688-0.681 0.908-1.361 1.815-2.062 2.75-2.117 2.458-4.154 3.62-6.938 5.25-0.763 0.846-1.526 1.691-2.312 2.562-3.377 3.063-6.313 3.344-10.688 4.438-2.875 2.562-2.875 2.562-5 5-2.567 1.284-4.904 1.434-7.75 1.812-5.121 0.809-7.986 2.222-12.25 5.188-14.364 3.955-29.957 3.166-44.756 3.13-2.61-5e-3 -5.22 0-7.83 7e-3 -39.885 0.017-39.885 0.017-52.414-8.137-1.506-0.474-3.011-0.949-4.562-1.438-4.955-1.744-7.642-3.985-11.438-7.562-0.838-0.601-1.676-1.201-2.539-1.82-2.868-2.54-3.763-4.549-5.086-8.118-1.155-3.066-2.184-5.772-3.992-8.511-2.743-5.06-2.086-10.978-1.383-16.551 2.312-3.875 2.312-3.875 5-7 0.371-1.279 0.743-2.558 1.125-3.875 3.177-6.989 9.604-10.945 15.875-15.125 3.337-0.85 6.693-1.527 10.066-2.219 2.934-0.781 2.934-0.781 4.934-2.781 0.081-2.665 0.086-5.335 0-8-5.141-0.287-10.282-0.572-15.424-0.854-1.746-0.097-3.493-0.194-5.24-0.292-2.519-0.14-5.039-0.278-7.559-0.416-1.513-0.084-3.027-0.168-4.586-0.254-10.759-0.472-10.759-0.472-14.191 1.816-3 0.375-3 0.375-6 0-2.505-3.34-4.154-6.308-6-10-0.495-0.66-0.495-0.66-3-4-1.535-4.362-2.879-8.411-2-13 7.574-7.723 14.487-8.489 24.871-9.926 4.609-1.199 6.58-3.001 10.129-6.074 3.289-1.004 3.289-1.004 6.625-1.562 5.943-1.005 5.943-1.005 8.352-3.418 2.714-2.71 5.049-3.025 8.773-3.77 1.17-0.242 2.341-0.485 3.547-0.734 0.892-0.171 1.784-0.341 2.703-0.516v-8c-3.08-1.027-5.337-1.099-8.562-1.188-5.804-0.425-9.175-2.108-13.922-5.332-2.767-1.627-5.21-2.321-8.328-3.042-4.792-1.136-6.859-2.739-10.188-6.438-1.217-0.516-2.434-1.031-3.688-1.562-3.312-1.438-3.312-1.438-5.312-5.438-1.993-1.343-3.994-2.676-6-4-1.379-1.629-2.713-3.297-4-5-0.763-0.743-1.526-1.485-2.312-2.25-6.511-6.661-9.83-11.458-11.688-20.75-1.655-2.341-3.321-4.675-5-7-1.518-7.666-1.184-15.469-1.188-23.25-0.012-1.45-0.024-2.9-0.037-4.395-0.027-20.014-0.027-20.014 4.163-26.23 2.221-3.367 2.682-5.638 3.437-9.563 1.291-6.079 3.165-9.102 7.625-13.562 1.472-1.802 2.929-3.615 4.375-5.438 5.621-6.876 11.136-12.736 18.625-17.562 0.402-0.423 0.402-0.423 2.438-2.562 2.975-2.831 5.785-3.887 9.562-5.438 0.758-0.66 1.516-1.32 2.297-2 3.206-2.372 5.538-2.807 9.453-3.438 4.551-0.859 8.163-1.778 12.125-4.187 7.596-4.373 16.22-3.523 24.77-3.508 1.205-1e-3 2.411-2e-3 3.653-3e-3 2.542 0 5.085 1e-3 7.627 6e-3 3.864 5e-3 7.728 0 11.593-7e-3 2.479 1e-3 4.959 2e-3 7.439 4e-3 1.143-2e-3 2.286-4e-3 3.464-6e-3 19.009 0.055 19.009 0.055 25.579 4.139 3.938 0.938 3.938 0.938 8 0 1.974-2.881 3.32-5.769 4.676-8.984 1.324-3.016 1.324-3.016 4.324-7.016 0.062-0.732 0.062-0.732 0.375-4.438 0.721-5.262 1.674-6.239 5.625-9.562 0.804-1.031 1.609-2.062 2.438-3.125 2.702-3.032 4.912-4.209 8.562-5.875l3-3c3.905-1.953 8.742-1.443 13.062-1.625 1.013-0.052 2.026-0.103 3.069-0.156 6.086-0.267 11.85-0.225 17.869 0.781zm-141.38 71c-1.91 3.526-3.749 7.076-5.477 10.695-1.148 2.305-1.148 2.305-3.148 5.305-3.228 11.844-1.556 26.963 3 38.25 1.918 4.78 2.434 9.187 2.875 14.312 0.648 6.616 1.878 10.608 5.684 15.973 1.761 3.013 2.293 5.731 2.941 9.153 1.175 5.921 3.173 8.985 7.5 13.312 0.639 0.969 1.279 1.939 1.938 2.938 2.696 4.003 5.816 7.499 9.062 11.062 0.825 0.928 1.65 1.856 2.5 2.812 6.991 6.118 16.487 7.789 25.5 7.188 6.456-1.232 10.694-2.833 15-8 0.842-0.737 1.684-1.475 2.551-2.234 7.54-8.514 4.445-25.412 3.797-36.172-0.031-0.473-0.031-0.473-0.183-2.867-0.151-2.501-0.256-5.005-0.356-7.508-0.061-1.392-0.122-2.785-0.184-4.219-0.024-0.598-0.024-0.598-0.148-3.625-0.701-4.96-2.717-8.966-5.079-13.344-1.621-3.515-2.175-6.712-2.773-10.531-1.112-6.012-2.429-8.989-6.625-13.5-0.777-2.32-0.777-2.32-1.438-4.938-1.36-5.176-3.881-8.151-7.562-12.062-0.495-0.887-0.99-1.774-1.5-2.688-1.981-3.054-4.45-4.36-7.5-6.312-0.743-0.866-1.485-1.733-2.25-2.625-7.88-6.805-29.994-7.222-38.125-0.375zm31.375 224c-1.312 1.875-1.312 1.875-2 5-0.467 1.649-0.947 3.295-1.438 4.938-0.253 0.87-0.507 1.74-0.769 2.636-0.971 2.971-2.397 5.634-3.793 8.426-1.894 7.232-2.31 16.194 1 23 1.328 1.671 2.662 3.337 4 5 0.419 0.973 0.838 1.946 1.27 2.949 2.996 5.284 8.227 6.959 13.73 9.051 6.065 1.011 9.731-1.026 15-4 0.474-0.247 0.474-0.247 2.875-1.5 2.125-1.5 2.125-1.5 4.125-5.5 0.221-3.639 0.324-7.175 0.312-10.812 0.017-0.973 0.033-1.946 0.049-2.948 8e-3 -11.425-4.563-17.181-12.275-25.342-3.593-3.374-6.589-5.018-11.086-6.898-0.99-1.32-1.98-2.64-3-4-4.062-0.562-4.062-0.562-8 0z"/>
<path transform="translate(1837,457)" d="m0 0 4 3c0.362 3.278 0.362 3.278 0.172 7.293-0.058 1.434-0.116 2.868-0.176 4.346-0.041 0.75-0.041 0.75-0.246 4.549-0.066 1.512-0.131 3.025-0.199 4.583-0.166 3.745-0.35 7.487-0.551 11.229 6.668-0.642 10.541-1.997 16-6 0.681-0.866 1.361-1.733 2.062-2.625 2.539-3.111 5.262-3.865 8.938-5.375 0.32-0.33 0.32-0.33 1.938-2 2.062-2 2.062-2 6-3.438 4.062-1.562 4.062-1.562 6.312-4.062 3.656-3.324 7.065-3.668 11.816-4.68 3.955-1.106 6.668-3.387 9.934-5.82 5.487-1.128 10.974-1.161 16.555-1.168 0.901-3e-3 1.802-7e-3 2.73-0.01 1.898-5e-3 3.795-7e-3 5.693-7e-3 2.881-2e-3 5.762-0.021 8.643-0.04 1.853-3e-3 3.706-5e-3 5.559-5e-3 0.425-4e-3 0.425-4e-3 2.576-0.022 9.449 0.035 15.698 1.663 23.244 7.252 0.577 0.144 0.577 0.144 3.5 0.875 4.828 1.552 7.11 4.421 10.5 8.125 0.887 0.866 1.774 1.733 2.688 2.625 15.906 16.336 15.501 32.567 15.394 54.486-3e-3 1.509-6e-3 3.019-0.01 4.574-8e-3 4.08-0.022 8.159-0.036 12.239-0.014 4.289-0.021 8.579-0.027 12.868-0.024 14.564-0.061 29.128-0.105 43.692-0.024 8.075-0.042 16.15-0.052 24.225-5e-3 4.263-0.014 8.525-0.033 12.788-0.019 4.735-0.026 9.469-0.03 14.204-9e-3 1.412-0.018 2.823-0.027 4.278 2e-3 1.284 3e-3 2.568 4e-3 3.89-1e-3 0.559-1e-3 0.559-9e-3 3.389 0.243 2.742 0.243 2.742 2.243 5.742 3.271 0.666 6.515 0.951 9.836 1.277 3.164 0.723 3.164 0.723 5.551 2.129 2.568 4.129 2.149 8.451 2.051 13.156 7e-3 0.959 0.014 1.917 0.021 2.905-0.065 7.139-0.065 7.139-3.459 10.533-6.401 1.257-12.83 1.121-19.325 1.069-1.109-4e-3 -2.217-9e-3 -3.359-0.014-3.643-0.018-7.286-0.044-10.929-0.071-2.538-0.016-5.075-0.033-7.612-0.05-5.307-0.036-10.613-0.077-15.92-0.121-6.81-0.055-13.621-0.092-20.432-0.124-5.234-0.027-10.467-0.068-15.701-0.113-2.512-0.019-5.025-0.034-7.537-0.043-3.502-0.014-7.004-0.047-10.507-0.085h-3.159c-7.177-0.106-7.177-0.106-10.519-3.448-0.635-3.636-0.463-7.315-0.438-11-0.019-1.011-0.039-2.021-0.06-3.062 0-0.485 0-0.485 2e-3 -2.938-2e-3 -0.887-4e-3 -1.774-6e-3 -2.688 0.502-2.312 0.502-2.312 4.502-5.312 3.609-0.438 7.153-0.502 10.785-0.594 3.215-0.406 3.215-0.406 6.215-3.406 0.394-2.509 0.394-2.509 0.421-5.564 9e-3 -0.579 9e-3 -0.579 0.052-3.508 4e-3 -1.272 7e-3 -2.544 0.01-3.854 0.015-1.338 0.03-2.677 0.046-4.056 0.043-4.443 0.064-8.887 0.08-13.33 0.018-3.086 0.035-6.172 0.052-9.258 0.032-6.48 0.049-12.959 0.06-19.439 0.016-8.292 0.088-16.582 0.174-24.873 0.056-6.379 0.071-12.758 0.076-19.138 9e-3 -3.055 0.033-6.111 0.072-9.166 0.052-4.286 0.046-8.568 0.026-12.853 0.028-1.256 0.056-2.511 0.084-3.805-0.118-8.334-2.194-12.723-7.795-18.893-6.949-6.668-12.367-10.552-22.17-10.575-0.787-9e-3 -0.787-9e-3 -4.77-0.051-4.379 0.36-6.715 1.113-10.418 3.363-6.771 3.92-6.771 3.92-9.688 4.938-2.312 1.062-2.312 1.062-4.062 3.374-2.688 3.212-5.365 4.464-9.129 6.184-3.097 2.196-3.77 3.903-5.121 7.504-0.445 4.28-0.41 8.542-0.388 12.843-5e-3 1.293-0.011 2.586-0.016 3.919-0.013 4.271-5e-3 8.541 6e-3 12.812-2e-3 2.966-5e-3 5.932-9e-3 8.899-5e-3 6.213 2e-3 12.426 0.016 18.639 0.017 7.976 7e-3 15.953-0.011 23.929-0.011 6.123-7e-3 12.245 1e-3 18.368 2e-3 2.942-1e-3 5.884-8e-3 8.826-7e-3 4.104 4e-3 8.207 0.021 12.311-6e-3 1.223-0.012 2.447-0.019 3.707 9e-3 1.115 0.017 2.229 0.026 3.377 1e-3 0.971 2e-3 1.941 3e-3 2.941 0.378 2.429 0.378 2.429 3.378 5.429 3.469 0.406 3.469 0.406 7.5 0.5 7.167 0.167 7.167 0.167 10.5 3.5 0.46 3.539 0.741 6.887 0.875 10.438 0.059 0.954 0.119 1.909 0.18 2.892 0.24 5.357 0.261 7.248-3.055 11.67-2.295 0.503-2.295 0.503-5.041 0.508-1.042 0.011-2.084 0.022-3.157 0.034-1.142-8e-3 -2.285-0.016-3.462-0.024-1.203 7e-3 -2.407 0.014-3.647 0.021-3.99 0.017-7.98 6e-3 -11.97-8e-3 -2.767 3e-3 -5.533 7e-3 -8.299 0.012-5.803 6e-3 -11.606-3e-3 -17.409-0.022-7.447-0.022-14.893-9e-3 -22.339 0.015-5.714 0.014-11.428 0.01-17.143-1e-3 -2.746-2e-3 -5.492 1e-3 -8.237 0.01-3.836 0.01-7.671-5e-3 -11.507-0.027-1.14 8e-3 -2.28 0.016-3.455 0.024-1.045-0.011-2.089-0.022-3.166-0.034-0.906-2e-3 -1.813-3e-3 -2.748-5e-3 -3.193-0.664-4.404-1.993-6.42-4.503-0.426-2.442-0.426-2.442-0.312-5.133 0.019-0.485 0.019-0.485 0.121-2.941 0.063-1.007 0.126-2.014 0.191-3.051 0.032-1.014 0.064-2.029 0.098-3.074 0.152-2.934 0.152-2.934 0.902-7.801 4.741-2.371 8.891-2.782 14.102-3.438 2.898-0.562 2.898-0.562 4.898-2.562 0.249-2.692 0.249-2.692 0.247-6.187 4e-3 -1.321 9e-3 -2.642 0.013-4.003-6e-3 -1.458-0.011-2.916-0.017-4.417 2e-3 -1.529 4e-3 -3.057 6e-3 -4.632 3e-3 -4.2-3e-3 -8.4-0.013-12.601-9e-3 -4.388-7e-3 -8.777-7e-3 -13.166-1e-3 -7.371-0.01-14.742-0.023-22.113-0.016-8.53-0.021-17.061-0.02-25.592 0-8.195-5e-3 -16.39-0.013-24.585-4e-3 -3.492-6e-3 -6.985-6e-3 -10.478-1e-3 -4.873-0.011-9.746-0.022-14.619 1e-3 -1.457 1e-3 -2.915 2e-3 -4.417-5e-3 -1.321-9e-3 -2.642-0.013-4.003-2e-3 -1.153-4e-3 -2.306-5e-3 -3.495-0.129-2.692-0.129-2.692-1.129-4.692-2.806-0.257-5.622-0.406-8.438-0.5-8.34-0.278-8.34-0.278-10.562-2.5-0.117-3.922-0.117-3.922 0.125-8.75 0.064-1.583 0.129-3.166 0.195-4.797 0.846-5.539 2.778-8.551 6.68-12.453 3.602-0.901 6.628-1.193 10.312-1.375 6.284-0.45 10.811-1.913 16.235-5.141 5.282-2.27 10.821-2.572 16.49-3.125 5.863-0.695 9.776-2.192 14.799-5.249 3.494-1.792 6.912-1.81 10.789-1.985 8.118-0.673 14.019-2.787 21.141-6.664 3.477-1.571 5.473-1.991 9.234-1.461z"/>
<path transform="translate(995,444)" d="m0 0c4 1 4 1 8 4 3.383 0.66 3.383 0.66 7.125 1.062 6.665 0.728 6.665 0.728 8.875 2.938 0.383 2.856 0.507 5.689 0.656 8.566 0.114 0.803 0.227 1.607 0.344 2.434 3.739 1.87 7.952 1.564 12 1 3.938-2.438 3.938-2.438 7-5 8.231-2.744 17.714-2.149 26.316-2.133 1.138-1e-3 2.275-2e-3 3.446-3e-3 2.388 0 4.775 1e-3 7.163 6e-3 3.631 5e-3 7.262 0 10.893-7e-3 2.333 1e-3 4.666 2e-3 6.998 4e-3 0.537-1e-3 0.537-1e-3 3.252-6e-3 18.22 0.056 18.22 0.056 24.432 4.077 3.66 2.186 6.529 3.454 10.75 4.062 5.521 1.162 7.702 3.19 11.75 7 1.661 0.68 3.327 1.349 5 2 3 4 3 4 3 6 0.722 0.186 1.444 0.371 2.188 0.562 3.76 1.923 4.684 4.342 6.503 8.051 1.309 2.387 1.309 2.387 3.368 4.731 2.401 3.286 2.81 5.84 3.441 9.844 0.832 4.692 1.752 8.927 3.625 13.312 3.423 8.214 3.003 16.32 2.957 25.083-3e-3 1.36-6e-3 2.72-0.01 4.121-7e-3 2.947-0.016 5.894-0.027 8.841-0.018 4.66-0.028 9.321-0.036 13.981-0.025 13.247-0.06 26.495-0.105 39.742-0.027 8.107-0.044 16.213-0.055 24.32-6e-3 3.092-0.016 6.184-0.03 9.276-0.019 4.314-0.026 8.627-0.03 12.941-9e-3 1.284-0.018 2.568-0.027 3.89 2e-3 1.174 3e-3 2.347 4e-3 3.556-3e-3 1.02-6e-3 2.039-9e-3 3.09 0.243 2.659 0.243 2.659 2.243 6.659 3.069 1.534 6.296 1.389 9.688 1.621 2.312 0.379 2.312 0.379 4.312 2.379 0.483 3.959 0.37 7.952 0.375 11.938 0.024 1.11 0.049 2.221 0.074 3.365 4e-3 1.064 8e-3 2.128 0.012 3.224 8e-3 0.977 0.016 1.954 0.025 2.961-0.486 2.512-0.486 2.512-4.486 5.512-3.08 0.291-5.956 0.41-9.035 0.388-0.457 3e-3 -0.457 3e-3 -2.766 0.016-3.016 0.013-6.031 5e-3 -9.047-6e-3 -2.094 2e-3 -4.189 5e-3 -6.283 9e-3 -4.389 5e-3 -8.778-2e-3 -13.167-0.016-5.632-0.017-11.263-7e-3 -16.895 0.011-4.324 0.011-8.649 7e-3 -12.973-1e-3 -2.077-2e-3 -4.154 1e-3 -6.231 8e-3 -2.899 7e-3 -5.798-4e-3 -8.697-0.021-0.862 6e-3 -1.724 0.012-2.612 0.019-5.951-0.064-5.951-0.064-9.294-3.407-1.206-3.618-1.335-6.881-1.562-10.688-0.084-1.365-0.168-2.73-0.254-4.136-0.061-1.048-0.122-2.096-0.184-3.176-9.379 1.34-15.948 4.583-23.188 10.688-3.103 2.551-6.134 3.746-9.812 5.312-0.58 0.659-1.16 1.317-1.758 1.996-3.026 2.705-5.51 2.891-9.492 3.504-6.046 1.064-10.426 2.542-15.75 5.5-5.355 1.356-10.697 1.222-16.188 1.25-0.495 0.01-0.495 0.01-3.001 0.062-7.853 0.042-14.678-1.066-21.686-4.874-3.201-1.473-5.589-1.82-9.063-2.25-5.952-0.874-8.692-2.986-13.062-7.188-1.423-0.701-2.846-1.403-4.312-2.125-3.688-1.875-3.688-1.875-5.688-5.875l-4-2c-3.504-3.76-5.719-7.438-8-12-0.324-0.279-0.324-0.279-1.961-1.691-2.786-3.155-3.216-6.031-4.101-10.121-0.899-4.092-1.705-7.706-3.528-11.485-1.94-5.095-1.942-9.731-1.91-15.141 2e-3 -1.063 4e-3 -2.127 6e-3 -3.223 0.155-7.805 1.529-14.433 4.267-21.777 1.251-3.632 1.793-6.941 2.227-10.75 0.69-5.358 1.953-7.16 6-10.812 0.781-2.332 0.781-2.332 1.438-5 1.293-5.012 3.331-6.939 7.562-10l2-4c1.993-1.343 3.994-2.676 6-4 0.309-0.423 0.309-0.423 1.875-2.562 2.884-3.308 6.042-3.971 10.125-5.438 0.596-0.659 1.191-1.317 1.805-1.996 2.965-2.707 5.382-2.889 9.32-3.504 4.701-0.827 8.929-1.73 13.313-3.625 8.926-3.668 18.313-3.037 27.824-3.086 3.004-0.028 6.009-0.057 9.013-0.086 4.721-0.041 9.441-0.078 14.162-0.104 4.567-0.028 9.133-0.074 13.7-0.122 1.414-4e-3 2.829-7e-3 4.287-0.01 1.315-0.017 2.63-0.033 3.985-0.05 1.155-9e-3 2.31-0.017 3.5-0.025 3.466-0.44 5.374-1.205 8.091-3.392 0.559-3.766 0.559-3.766 0.438-8.25-0.022-1.47-0.044-2.939-0.067-4.453-0.458-5.303-1.052-9.658-4.433-13.859-3.785-3.141-7.774-5.828-11.938-8.438-0.75-0.517-1.5-1.034-2.272-1.567-3.152-1.656-5.118-1.807-8.658-1.796-1.125 0-2.25 1e-3 -3.41 2e-3 -1.166 0.016-2.333 0.032-3.535 0.049-1.159-4e-3 -2.318-7e-3 -3.512-0.01-13.437 0.084-13.437 0.084-19.363 4.26-3.161 2.005-5.287 2.662-8.875 3.5-4.766 1.178-6.645 2.361-9.375 6.562-0.825 0.474-1.65 0.949-2.5 1.438-3.173 1.983-4.458 4.466-6.5 7.562l-4 2c-1.371 1.295-2.713 2.622-4 4-4-2-4-2-8-5-3.25-0.859-6.504-1.45-9.809-2.059-3.59-1.059-5.552-2.302-8.191-4.941-1-4-1-4 1-8 0.66-0.516 1.32-1.031 2-1.562 2.299-2.802 2.431-4.221 2.938-7.75 0.596-4.018 0.97-5.562 3.437-8.938 3.379-4.827 4.279-9.521 5.535-15.227 1.153-3.727 2.669-5.531 5.09-8.523 1.125-3.375 1.125-3.375 2-7 1.222-5.062 2.607-8.065 6-12 1.042-2.315 2.049-4.646 3-7l1-1zm48 137c-1.402 0.681-2.805 1.361-4.25 2.062-6.461 3.339-8.994 8.871-12.75 14.938-0.99 1.32-1.98 2.64-3 4-2.105 11.48-3.913 29.733 1.75 40.25 0.743 0.908 1.485 1.815 2.25 2.75 0.846 1.382 1.691 2.764 2.562 4.188 3.673 5.744 6.453 7.578 13.067 9.238 9.458 1.611 19.659 1.93 28.371-2.426 2.25-3 2.25-3 4-6 2.688-1.75 2.688-1.75 5-3 3.498-6.997 2.176-17.676 2.203-25.34 3e-3 -0.622 3e-3 -0.622 0.017-3.769 0.01-2.611 0.016-5.223 0.02-7.834 0.01-4.007 0.041-8.013 0.072-12.02 7e-3 -2.542 0.012-5.085 0.016-7.627 0.012-1.2 0.025-2.4 0.038-3.636-3e-3 -1.109-6e-3 -2.217-0.01-3.36 4e-3 -0.975 8e-3 -1.951 0.011-2.957-0.367-2.457-0.367-2.457-3.367-5.457-4.529-0.709-9.109-0.556-13.688-0.562-1.254-0.037-2.509-0.074-3.802-0.112-8.381-0.04-12.33 1.003-18.51 6.674z"/>
<path transform="translate(580.75 444.94)" d="m0 0c2.25 1.062 2.25 1.062 5.25 3.062 3.084 0.61 6.171 1.015 9.285 1.438 2.715 0.562 2.715 0.562 4.715 2.562 0.379 2.567 0.379 2.567 0.562 5.563 0.341 5.34 0.341 5.34 1.438 6.437 7.743 0.686 12.889-0.11 19.312-4.624 6.989-3.576 16.46-2.536 24.141-2.543 1.177-4e-3 2.355-7e-3 3.567-0.011 2.481-5e-3 4.962-7e-3 7.443-7e-3 3.761-2e-3 7.522-0.02 11.283-0.039 2.423-3e-3 4.846-5e-3 7.27-6e-3 0.553-4e-3 0.553-4e-3 3.356-0.022 20.354 0.059 20.354 0.059 27.628 6.252 3.156 0.872 3.156 0.872 6.5 1.438 5.439 1.123 7.841 2.277 11.5 6.562 1.299 0.619 2.599 1.238 3.938 1.876 4.609 2.411 6.871 5.064 10.062 9.124 0.701 0.619 1.403 1.238 2.125 1.876 2.868 3.25 4.144 7.176 5.875 11.124 1.292 1.699 2.615 3.377 4 5 1.659 4.977 1.846 10.21 2.402 15.411 0.598 4.589 0.598 4.589 1.628 9.005 1.314 6.509 1.181 12.908 1.086 19.524-0.011 1.362-0.022 2.724-0.033 4.127-0.024 2.942-0.053 5.885-0.085 8.827-0.049 4.651-0.081 9.303-0.108 13.955-0.076 13.22-0.165 26.44-0.308 39.66-0.088 8.097-0.138 16.194-0.168 24.291-0.018 3.087-0.049 6.174-0.093 9.262-0.06 4.302-0.077 8.602-0.084 12.905-0.028 1.283-0.057 2.565-0.086 3.887 0.019 3.202 0.069 6.041 0.849 9.146 3.278 2.249 3.278 2.249 7 3 7.962 1.962 7.962 1.962 10 4 0.454 3.815 0.324 7.662 0.312 11.5 0.017 1.072 0.033 2.143 0.049 3.247 1e-3 1.022 2e-3 2.044 2e-3 3.097 2e-3 0.47 2e-3 0.47 9e-3 2.85-0.123 0.761-0.245 1.522-0.372 2.306-4.073 2.716-6.923 2.3-11.814 2.367-0.901 0.015-1.802 0.03-2.731 0.045-2.984 0.046-5.967 0.078-8.951 0.108-2.071 0.026-4.143 0.053-6.214 0.08-4.343 0.055-8.687 0.102-13.03 0.143-5.571 0.055-11.14 0.133-16.71 0.216-4.278 0.062-8.556 0.109-12.834 0.152-2.054 0.023-4.108 0.05-6.162 0.083-2.87 0.043-5.74 0.068-8.61 0.087-1.635 0.018-3.269 0.037-4.953 0.056-3.991-0.337-3.991-0.337-7.991-3.337-1.668-3.757-1.668-3.757-3.188-8.124-2.75-7.814-2.75-7.814-3.812-8.876-3.87-0.543-6.762-0.804-10.133 1.387-2.995 2.625-5.689 5.417-8.367 8.363-3.19 2.872-6.495 3.788-10.5 5.25-0.592 0.659-1.183 1.318-1.793 1.997-2.999 2.723-5.485 2.892-9.457 3.503-6.046 1.065-10.426 2.543-15.75 5.5-5.504 1.397-11.043 1.261-16.688 1.313-1.038 0.029-2.076 0.058-3.146 0.088-7.281 0.059-12.619-1.308-19.166-4.401-3.721-1.578-6.852-2.311-10.875-2.75-5.95-0.91-8.755-3.051-13.125-7.25-1.217-0.515-2.434-1.031-3.688-1.562-3.735-1.621-4.91-3.235-7.312-6.438-0.804-0.433-1.609-0.866-2.438-1.312-3.745-2.466-5.324-5.859-7.562-9.688-0.99-1.319-1.98-2.639-3-4-0.809-2.585-0.809-2.585-1.438-5.374-1.154-4.586-2.75-7.782-5.562-11.626-1.745-6.981-1.227-14.207-1.25-21.374-0.021-1.602-0.041-3.203-0.062-4.852-3e-3 -0.771-3e-3 -0.771-0.016-4.672-9e-3 -1.409-0.019-2.819-0.028-4.271 0.463-4.981 2.227-8.16 4.985-12.241 2.305-4.354 2.223-9.054 2.648-13.898 0.808-4.125 2.221-6.355 4.723-9.692 0.804-1.34 1.609-2.681 2.438-4.062 3.973-6.106 9.062-10.223 14.562-14.938 0.433-0.453 0.433-0.453 2.625-2.75 2.465-2.334 4.276-3.01 7.375-4.25 0.371-0.406 0.371-0.406 2.246-2.464 3.206-2.952 5.064-3.406 9.316-4.098 5.732-1.049 10.978-2.518 16.426-4.57 8.842-2.546 18.292-2.046 27.407-2.114 3.005-0.033 6.011-0.066 9.017-0.099 4.718-0.048 9.437-0.092 14.155-0.131 4.568-0.04 9.135-0.091 13.703-0.145 0.708-4e-3 0.708-4e-3 4.292-0.025 1.312-0.017 2.625-0.033 3.976-0.051 0.577-5e-3 0.577-5e-3 3.498-0.031 2.964-0.272 2.964-0.272 6.964-2.272 1.272-7.984 2.007-17.147-1.809-24.472-2.25-2.516-4.468-4.54-7.191-6.528-1.093-0.804-2.186-1.608-3.312-2.437-0.887-0.516-1.774-1.031-2.688-1.563l-4-3c-5.072-1.69-10.377-1.226-15.688-1.25-1.159-0.02-2.319-0.041-3.513-0.062-7.601-0.035-13.672 0.667-20.237 4.875-2.562 1.437-2.562 1.437-7 2.187-5.564 1.525-7.079 3.796-10.562 8.25-1.32 0.331-2.64 0.66-4 1-0.704 1.652-1.366 3.321-2 5-2.023 2.274-2.023 2.274-4.375 4.376-0.385 0.354-0.385 0.354-2.336 2.148-0.755 0.487-1.511 0.974-2.289 1.476-4-1-4-1-5.816-3-2.96-2.71-5.168-2.662-9.122-3-5.319-0.455-8.23-1.174-12.062-5-1.314-3.778-1.215-5.45 0.25-9.187 1.75-2.813 1.75-2.813 4.75-5.813 1.102-3.977 1.909-7.978 2.742-12.019 1.377-4.357 3.313-6.556 6.258-9.981 0.715-2.675 0.715-2.675 0.938-5.312 0.585-4.183 1.463-6.687 4-10.062 2.764-3.696 3.671-6.717 4.5-11.25 1.236-6.233 3.849-13.268 11.312-13.438zm44.25 136.06c-0.608 0.238-0.608 0.238-3.688 1.438-4.279 2.019-5.717 4.67-8.312 8.562-0.837 0.597-1.673 1.194-2.535 1.809-4.824 4.289-4.757 11.056-5.465 17.191-1.687 29.868-1.687 29.868 4.426 36.719 0.849 0.753 1.699 1.506 2.574 2.281 0.413 0.609 0.413 0.609 2.5 3.688 3.826 5.07 7.455 5.436 13.5 6.312 19.07 1.125 19.07 1.125 27-3 2.655-3.081 4.255-6.355 6-10 0.99-1.319 1.98-2.639 3-4 1.079-3.235 1.133-5.596 1.145-9 7e-3 -1.234 0.013-2.469 0.02-3.741 1e-3 -1.334 2e-3 -2.669 3e-3 -4.044 3e-3 -1.367 7e-3 -2.734 0.01-4.143 5e-3 -2.892 7e-3 -5.785 7e-3 -8.677 2e-3 -4.442 0.021-8.884 0.04-13.326 3e-3 -2.805 5e-3 -5.611 5e-3 -8.416 8e-3 -1.337 0.015-2.673 0.022-4.05-1e-3 -0.616-1e-3 -0.616-9e-3 -3.732 1e-3 -1.088 3e-3 -2.176 4e-3 -3.296-0.247-2.575-0.247-2.575-2.247-4.575-4.855-0.548-9.743-0.463-14.625-0.5-1.355-0.041-2.71-0.082-4.105-0.124-8.653-0.068-12.924 0.688-19.27 6.624z"/>
<path transform="translate(2228,446)" d="m0 0c6.087 0.543 6.087 0.543 9 2 3.277 0.238 6.553 0.383 9.836 0.523 3.164 0.477 3.164 0.477 7.164 3.477 0.415 2.99 0.749 5.992 1 9l2 3c7.268 1.055 11.566-0.92 17.812-4.59 7.608-3.365 16.753-2.57 24.93-2.578 1.204-3e-3 2.408-7e-3 3.649-0.01 2.537-5e-3 5.073-7e-3 7.609-7e-3 3.856-2e-3 7.711-0.021 11.566-0.04 2.476-3e-3 4.951-5e-3 7.426-5e-3 1.14-8e-3 2.28-0.015 3.455-0.022 11.222 0.031 19.004 1.189 28.553 7.252 2.539 0.594 2.539 0.594 5.188 1 5.244 1.09 6.438 2.064 9.812 6 1.993 1.343 3.994 2.676 6 4 4.957 3.914 8.44 7.805 12 13 0.701 0.598 1.403 1.196 2.125 1.812 2.539 2.963 3.091 6 4.086 9.727 1.035 3.229 2.889 5.674 4.789 8.461 0.937 4.249 1.132 8.333 1.151 12.675 9e-3 1.328 0.017 2.656 0.026 4.024 4e-3 1.445 8e-3 2.89 0.012 4.378 5e-3 0.766 5e-3 0.766 0.026 4.639 0.017 3.321 0.033 6.642 0.045 9.964 0.021 5.247 0.048 10.494 0.077 15.742 0.065 12.078 0.121 24.157 0.176 36.235 0.051 11.085 0.104 22.17 0.165 33.255 0.028 5.221 0.052 10.443 0.071 15.664 0.017 3.998 0.04 7.996 0.062 11.994 4e-3 1.455 8e-3 2.91 0.012 4.409 9e-3 1.314 0.017 2.627 0.026 3.981 5e-3 1.149 0.01 2.298 0.015 3.482 0.136 2.558 0.136 2.558 1.136 3.558 2.776 0.285 5.551 0.448 8.336 0.621 2.664 0.379 2.664 0.379 5.664 2.379 0.464 2.275 0.464 2.275 0.582 5.086 0.045 1.013 0.089 2.026 0.135 3.07 0.016 0.531 0.016 0.531 0.095 3.219 0.051 1.054 0.102 2.109 0.155 3.195 0.296 7.905 0.296 7.905-1.967 12.43-3.347 1.673-7.113 1.123-10.792 1.101-0.911-2e-3 -1.822-3e-3 -2.76-5e-3 -3.022-7e-3 -6.044-0.023-9.065-0.041-1.03-6e-3 -2.061-0.012-3.122-0.018-5.451-0.031-10.902-0.07-16.353-0.114-5.639-0.044-11.276-0.06-16.915-0.069-4.329-0.013-8.657-0.048-12.986-0.088-2.079-0.016-4.158-0.023-6.237-0.022-2.907 1e-3 -5.812-0.03-8.719-0.069-0.861 7e-3 -1.723 0.014-2.61 0.022-4.003-0.085-5.98-0.271-8.971-3.038-1.791-3.24-2.035-5.596-2.158-9.284-0.247-6.18-0.247-6.18-1.312-9.375-3.188-0.375-3.188-0.375-7 0-2.625 2.812-2.625 2.812-5 6-1.653 1.023-3.318 2.026-5 3-0.99 1.32-1.98 2.64-3 4-2.481 0.718-4.965 1.431-7.465 2.082-2.535 0.918-2.535 0.918-5.847 3.98-4.571 3.641-7.848 3.809-13.524 4.442-4.358 0.683-7.341 2.341-11.164 4.496-5.231 1.308-10.19 1.264-15.562 1.312-1.035 0.03-2.069 0.059-3.135 0.088-7.538 0.062-13.405-1.43-20.303-4.4-2.879-1.08-5.511-1.933-8.559-2.352-6.941-0.96-10.256-2.667-15.441-7.648-1.052-0.516-2.104-1.031-3.188-1.562-3.293-1.684-4.631-3.483-6.812-6.438l-2.312-2.312c-5.847-5.847-10.153-11.112-13.688-18.688-0.99-1.32-1.98-2.64-3-4-3.566-14.265-2.208-30.258-1.625-44.875 0.015-0.446 0.015-0.446 0.093-2.704 0.546-12.05 0.546-12.05 4.47-16.733 2.092-2.727 2.606-4.301 3.437-7.563 1.402-5.191 3.969-8.164 7.625-12.125 0.438-0.94 0.877-1.879 1.328-2.848 1.981-3.734 4.301-6 7.422-8.84 1.005-0.931 2.011-1.863 3.047-2.824 3.289-2.555 6.372-3.912 10.203-5.488 1.031-1.011 2.062-2.021 3.125-3.062 4.68-3.548 7.902-3.81 13.609-4.442 3.131-0.475 5.461-1.259 8.328-2.558 9.521-4.171 20.966-3.099 31.172-3.184 2.705-0.033 5.409-0.066 8.114-0.1 4.215-0.047 8.43-0.092 12.646-0.131 4.101-0.04 8.202-0.091 12.303-0.144 1.255-9e-3 2.511-0.017 3.804-0.026 15.768-0.222 15.768-0.222 18.899-3.353 0.551-7.306 0.533-13.439-3-20-0.536-1.526-1.073-3.053-1.625-4.625-3.101-5.713-5.577-6.637-11.375-9.375l-4-3c-5.072-1.691-10.377-1.227-15.688-1.25-1.159-0.021-2.319-0.041-3.513-0.062-10.04-0.046-16.897 2.79-25.799 7.312-1.176 0.454-2.351 0.908-3.562 1.375-4.147 1.96-7.05 4.551-10.438 7.625-0.866 0.639-1.733 1.279-2.625 1.938-2.375 2.062-2.375 2.062-4.813 5.812-2.562 3.25-2.562 3.25-5.5 3.875-3.062-0.625-3.062-0.625-5.687-2-4.155-2.001-8.02-2.444-12.57-3-2.805-0.625-2.805-0.625-6.805-3.625-1.612-5.644-1.078-11.534 1-17 0.812-0.927 1.624-1.854 2.461-2.809 2.983-3.749 3.619-6.521 4.539-11.191 1.22-6.193 2.922-9.249 7-14 0.75-2.746 0.75-2.746 1-5.438 0.761-5.394 2.809-8.125 6-12.562 0.952-3.122 1.67-6.229 2.324-9.426 0.676-2.574 0.676-2.574 2.676-4.574zm53 132-1 3c-0.547 0.134-0.547 0.134-3.312 0.812-4.585 1.477-5.235 3.181-7.688 7.188-0.81 0.437-1.619 0.874-2.453 1.324-3.247 2.137-3.847 3.938-5.172 7.551-1.493 3.999-3.133 7.495-5.375 11.125-2.807 9.185-1.014 19.648 2.938 28.188 0.68 1.258 1.361 2.516 2.062 3.812 0.474 1.237 0.949 2.475 1.438 3.75 1.736 3.612 3.37 4.915 6.562 7.25 0.577 0.866 1.155 1.733 1.75 2.625 4.012 4.235 9.066 4.232 14.598 4.594 9.41 0.245 17.01-0.063 24.402-6.469 10.252-13.58 10.17-27.907 9.977-44.215-0.04-3.819-0.02-7.634 5e-3 -11.453-7e-3 -2.428-0.018-4.857-0.033-7.285 7e-3 -1.141 0.014-2.281 0.021-3.456-0.019-1.053-0.038-2.105-0.057-3.19-7e-3 -0.925-0.014-1.85-0.021-2.803-0.642-2.348-0.642-2.348-2.992-4.146-3.207-1.455-5.572-1.59-9.088-1.6-1.224-4e-3 -2.449-8e-3 -3.71-0.012-1.271 0.011-2.542 0.023-3.852 0.035-1.271-0.012-2.542-0.023-3.852-0.035-0.612 2e-3 -0.612 2e-3 -3.71 0.012-1.116 3e-3 -2.231 6e-3 -3.379 0.01-3.436 0.436-5.325 1.284-8.059 3.388z"/>
<path transform="translate(1572.8 456.83)" d="m0 0c1.221-3e-3 2.441-7e-3 3.699-0.01 2.577-5e-3 5.154-7e-3 7.731-7e-3 3.903-3e-3 7.807-0.021 11.711-0.04 2.515-3e-3 5.031-5e-3 7.547-5e-3 1.149-8e-3 2.298-0.015 3.483-0.022 11.166 0.031 21.663 0.504 31.497 6.096 3.12 1.401 5.933 1.757 9.324 2.156 5.652 0.692 8.005 2.132 12.25 6 2.328 0.781 2.328 0.781 4.938 1.437 5.191 1.359 8.048 3.995 12.062 7.563 1.382 0.516 2.764 1.031 4.188 1.562 4.199 1.584 5.247 2.9 7.812 6.438l2.5 1.5c2.939 1.763 4.401 3.811 6.5 6.5 0.866 0.681 1.733 1.361 2.625 2.062 2.375 1.938 2.375 1.938 4.375 5.938 0.784 0.536 1.568 1.072 2.375 1.625 3.324 3.007 4.161 5.913 5.656 10.062 0.969 2.313 0.969 2.313 3.032 4.313 2.248 2.321 2.558 3.784 3.375 6.875 1.259 4.732 3.256 7.471 6.562 11.125 1.045 4.181 1.457 8.149 1.875 12.437 0.577 5.489 1.296 10.679 2.75 16 3.199 13.041 1.753 25.739-1.679 38.543-0.929 3.95-1.312 7.599-1.508 11.645-0.317 6.277-1.281 10.891-5.5 15.75-1.938 2.625-1.938 2.625-2.813 7-1.311 5.388-3.361 7.636-7.125 11.625-0.598 0.907-1.196 1.815-1.812 2.75-7.697 11.436-16.974 21.654-29.188 28.25-0.825 0.846-1.65 1.691-2.5 2.562-2.929 2.856-5.752 3.871-9.5 5.438-0.611 0.66-1.222 1.32-1.851 2-2.631 2.449-4.457 2.785-7.961 3.437-5.403 1.192-8.813 3.1-13.188 6.563-4.227 1.057-8.224 1.42-12.562 1.812-6.458 0.685-12.038 1.674-17.981 4.286-8.086 2.969-17.298 2.086-25.769 2.089-1.459 0.013-2.917 0.025-4.42 0.038-9.847 0.013-18.527-0.574-27.768-4.225-5.264-1.868-10.189-2.428-15.75-2.875-7.81-0.718-10.924-2.132-16.75-7.125-2.441-0.625-2.441-0.625-5.062-1-5.383-0.796-7.883-3.387-11.938-7-1.547-0.516-3.094-1.031-4.687-1.563-4.675-1.558-5.535-2.605-8.313-6.437-1.01-0.495-2.021-0.99-3.062-1.5-3.43-1.751-4.061-3.237-5.938-6.5-0.412-0.248-0.412-0.248-2.5-1.5-2.959-1.776-3.773-3.571-5.5-6.5l-4-2c-3-4.286-3-4.286-3-7l-4-2c-0.698-2.161-1.387-4.325-2.012-6.508-1.129-2.847-2.604-4.63-4.613-6.93-2.756-3.295-3.789-5.326-4-9.625-0.436-5.744-2.31-8.154-5.375-12.937-2.53-8.864-2.271-17.818-2.206-26.965 0.019-2.633 0.021-5.266 0.021-7.898 0.056-30.225 0.056-30.225 5.775-41.176 1.354-2.844 1.958-5.117 2.41-8.211 1.055-5.009 2.604-7.67 5.555-11.719 1.445-2.031 1.445-2.031 3.008-5.281 1.689-3.231 3.836-5.212 6.437-7.75 0.582-0.905 1.163-1.81 1.762-2.742 2.552-3.714 5.42-6.705 8.613-9.883 1.101-1.106 2.202-2.212 3.336-3.352 2.966-2.726 5.905-4.861 9.289-7.023 0.681-0.701 1.361-1.403 2.063-2.125 1.937-1.875 1.937-1.875 4.437-2.813 2.5-1.062 2.5-1.062 4.063-3.5 3.373-3.546 6.737-3.78 11.465-4.593 2.972-0.969 2.972-0.969 5.375-3.469 3.347-3.222 5.66-3.398 10.222-4 6.232-0.988 11.214-2.41 16.75-5.414 7.216-2.985 15.697-2.247 23.383-2.254zm-9.52 35.102c-2.238 1.066-2.238 1.066-6.55 2.441-4.324 1.905-5.294 3.663-7.688 7.625-0.866 0.454-1.732 0.907-2.625 1.375-2.375 1.625-2.375 1.625-3.562 5.25-0.268 1.444-0.537 2.887-0.813 4.375-0.949 4.494-1.881 8.692-3.539 12.98-1.991 5.917-1.952 11.703-1.898 17.895 4e-3 1.196 9e-3 2.392 0.014 3.624 0.142 8.636 1.32 16.291 3.423 24.673 1.194 5.765 1.537 11.399 1.875 17.265 0.5 7.953 1.439 13.836 5.668 20.75 2.395 4.622 2.996 9.561 3.817 14.661 0.64 3.152 0.64 3.152 2.64 6.152h2c0.217 0.763 0.217 0.763 1.313 4.625 1.898 6.28 3.947 10.783 8.687 15.375 0.475 0.825 0.949 1.65 1.438 2.5 1.812 2.9 3.878 4.405 6.562 6.5 0.64 0.846 1.279 1.691 1.938 2.562 2.407 2.845 4.745 3.815 8.062 5.438 0.99 1.32 1.98 2.64 3 4 10.998 2.894 24.14 3.853 35 0 2.75-2.938 2.75-2.938 5-6 0.829-0.437 1.658-0.874 2.512-1.324 3.231-2.176 3.555-3.838 4.551-7.551 1.35-4.549 2.649-7.61 5.937-11.125 1.018-3.054 1.133-5.141 1.145-8.338 7e-3 -1.092 0.013-2.184 0.02-3.309 1e-3 -1.181 2e-3 -2.363 3e-3 -3.58 3e-3 -1.217 7e-3 -2.434 0.01-3.689 5e-3 -2.58 8e-3 -5.161 7e-3 -7.742 3e-3 -3.93 0.021-7.861 0.04-11.791 3e-3 -2.509 5e-3 -5.018 6e-3 -7.528 3e-3 -0.584 3e-3 -0.584 0.021-3.542-0.022-8.141-0.553-15.084-4.252-22.481-2.736-5.706-2.909-11.78-3.41-18.012-0.867-5.861-3.061-9.283-6.59-13.988-0.538-2.127-0.99-4.277-1.375-6.438-1.169-5.507-2.417-7.765-6.625-11.562-0.707-1.599-1.347-3.229-1.937-4.875-1.826-4.966-4.375-8.283-8.063-12.125-0.68-0.722-1.361-1.444-2.062-2.188-1.938-1.812-1.938-1.812-4.438-3.812s-2.5-2-4.289-4.027c-2.673-2.385-4.598-2.83-8.086-3.536-3.518-0.775-6.159-1.455-9.375-3.125-6.289-3.001-11.513-1.352-17.512 1.622z"/>
<path transform="translate(865 401.19)" d="m0 0c1.011 0.032 2.021 0.063 3.062 0.096 0.485 0.022 0.485 0.022 2.938 0.134 0.443 0.02 0.443 0.02 2.688 0.118 2.312 0.464 2.312 0.464 5.312 3.464 0.347 2.295 0.347 2.295 0.309 5.019-4e-3 0.511-4e-3 0.511-0.02 3.096-0.022 1.103-0.044 2.206-0.066 3.343-9e-3 1.135-0.018 2.271-0.028 3.441-0.03 3.638-0.079 7.276-0.133 10.914-0.047 3.627-0.091 7.254-0.122 10.882-0.019 2.258-0.049 4.516-0.09 6.774-0.094 9.878-0.094 9.878 2.15 14.531 3.253 1.627 6.612 1.19 10.219 1.247 1.67 0.033 3.341 0.066 5.011 0.099 2.641 0.048 5.281 0.092 7.921 0.131 2.544 0.04 5.087 0.091 7.63 0.145 0.764 0.012 0.764 0.012 4.627 0.076 3.592 0.302 3.592 0.302 5.592 2.302-0.307 2.943-0.673 5.346-2 8-0.242 3.994-0.383 7.987-0.523 11.985-0.483 4.063-1.263 6.595-3.477 10.015-3.493 1.165-6.319 1.16-10.004 1.211-1.38 0.029-2.76 0.057-4.182 0.086-2.921 0.053-5.843 0.097-8.765 0.133-1.379 0.031-2.757 0.062-4.178 0.094-0.634 0.01-0.634 0.01-3.846 0.06-0.998 0.137-1.996 0.275-3.025 0.416-2.992 4.488-3.125 8.471-3.134 13.773-4e-3 1.154-8e-3 2.308-0.013 3.496 1e-3 1.257 1e-3 2.514 2e-3 3.808-4e-3 1.331-7e-3 2.662-0.01 4.033-0.01 4.405-0.012 8.81-0.013 13.215-3e-3 3.063-7e-3 6.126-0.01 9.188-6e-3 6.425-8e-3 12.85-7e-3 19.275 0 8.224-0.014 16.448-0.031 24.671-0.011 6.329-0.013 12.658-0.013 18.986-1e-3 3.032-5e-3 6.063-0.013 9.094-0.01 4.246-7e-3 8.492-1e-3 12.738-6e-3 1.246-0.011 2.493-0.017 3.777 0.025 6.921 0.456 13.245 2.26 19.946 2.438 1.313 2.438 1.313 6 2 1.76 0.854 3.509 1.732 5.25 2.626 5.63 2.588 9.589 3.134 15.75 2.374 2.312-2 2.312-2 4-4h5c2 2 2 2 2.75 6.626 0.71 4.045 1.747 6.41 4.375 9.562 2.875 3.812 2.875 3.812 3.563 7.625-0.688 3.187-0.688 3.187-3.063 5.125-2.625 1.062-2.625 1.062-4.625 1.062-0.113 0.382-0.113 0.382-0.688 2.313-1.884 3.859-4.377 4.22-8.312 5.687-2.712 1.485-4.84 2.846-7.062 5-3.832 2.609-7.574 3.271-12.059 4.278-3.245 0.814-5.954 2.114-8.879 3.722-6.964 1.742-14.229 1.186-21.379 1.186-2.847 2e-3 -5.693 0.02-8.539 0.039-1.824 3e-3 -3.648 5e-3 -5.473 6e-3 -0.843 7e-3 -1.686 0.014-2.554 0.022-6.999-0.027-12.781-1.061-18.993-4.315-4.062-1.938-4.062-1.938-8.75-2.375-4.312-0.563-4.312-0.563-7.374-3-1.938-2.563-1.938-2.563-1.938-4.563-0.866-0.164-1.732-0.329-2.625-0.5-4.583-2.036-6.743-5.407-9.375-9.5-0.532-0.773-1.065-1.546-1.613-2.343-1.66-3.179-2.005-5.786-2.387-9.344-0.454-4.179-1.112-7.631-2.516-11.617-2.075-6.845-1.893-13.589-1.853-20.689-4e-3 -1.474-7e-3 -2.948-0.011-4.467-7e-3 -3.188-6e-3 -6.376 0-9.563 9e-3 -5.044-1e-3 -10.086-0.017-15.13-0.036-12.518-0.042-25.037-0.04-37.556 2e-3 -9.747-5e-3 -19.493-0.04-29.24-0.014-4.191-0.02-8.381-7e-3 -12.572 0.012-4.668 0-9.335-0.018-14.003 5e-3 -0.692 5e-3 -0.692 0.03-4.194-0.01-1.273-0.019-2.545-0.029-3.857v-3.34c-0.622-3.846-2.108-6.046-4.499-9.085-4.051-2.025-8.958-1.24-13.25-0.25-2.75 0.25-2.75 0.25-5.062-1.437-3.106-4.255-2.906-8.784-3-13.875-0.038-1.321-0.075-2.643-0.114-4.004 0.141-1.133 0.281-2.266 0.426-3.434 4-3 4-3 8.312-3.874 4.688-1.126 4.688-1.126 8.063-3.563 3.437-2.43 5.278-3.133 9.25-4.063 4.913-1.174 6.878-2.819 10.375-6.5 1.485-0.474 2.97-0.948 4.5-1.437 5.038-1.749 6.374-3.394 9.5-7.563 1.648-1.03 3.315-2.031 5-3 1.709-1.623 3.374-3.293 5-5l8-8h2c0.268-0.742 0.536-1.485 0.812-2.25 1.188-2.75 1.188-2.75 3.5-4.562 3.531-2.874 5.33-6.319 7.688-10.188 0.701-0.639 1.403-1.278 2.125-1.937 2.875-3.162 3.556-7.048 4.875-11.063 4.514-3.009 8.716-2.078 14-1.812z"/>
<path transform="translate(2148,459)" d="m0 0c1 4 1 4 0 8-0.103 2.74-0.146 5.483-0.158 8.226-5e-3 0.836-0.01 1.673-0.015 2.534-0.016 2.807-0.024 5.614-0.032 8.421-0.01 2.01-0.02 4.02-0.03 6.031-0.027 5.462-0.048 10.925-0.068 16.387-0.022 5.707-0.05 11.414-0.076 17.121-0.05 10.808-0.095 21.617-0.138 32.426-0.05 12.305-0.105 24.609-0.16 36.914-0.114 25.313-0.221 50.627-0.323 75.94 3.841 1.328 7.19 2.251 11.25 2.5 4.75 0.5 4.75 0.5 6.75 2.5 0.336 3.668 0.56 7.262 0.688 10.938 0.047 1.015 0.094 2.03 0.142 3.076 0.306 7.578 0.306 7.578-0.83 10.986-3.853 1.926-8.689 1.212-12.948 1.253-1.14 0.015-2.28 0.029-3.454 0.045-3.787 0.047-7.573 0.086-11.36 0.124-1.291 0.014-2.582 0.028-3.913 0.042-6.835 0.073-13.671 0.141-20.506 0.203-7.064 0.066-14.128 0.151-21.192 0.24-5.428 0.065-10.855 0.117-16.283 0.164-2.604 0.026-5.208 0.056-7.812 0.092-3.646 0.048-7.291 0.077-10.937 0.102-1.075 0.018-2.15 0.037-3.258 0.056-5.784 0.016-10.187-0.346-15.337-3.321-0.842-2.404-0.842-2.404-0.789-5.219 9e-3 -1.014 0.018-2.029 0.027-3.074 0.045-1.058 0.091-2.117 0.137-3.207 6e-3 -1.058 0.013-2.117 0.02-3.207 0.169-7.857 0.169-7.857 3.605-11.293l15-1v-162h-13c-3-2-3-2-4-6 0.011-2.46 0.103-4.92 0.25-7.375 0.067-1.286 0.134-2.573 0.203-3.898 0.568-3.871 1.494-6.414 3.547-9.727 3.904-2.603 6.767-2.419 11.438-2.75 5.86-0.579 10.336-1.224 15.437-4.188 6.03-3.486 12.128-4.126 18.913-4.946 5.745-0.745 9.765-2.071 14.677-4.999 3.427-1.51 6.626-1.709 10.347-2.055 6.966-0.67 12.164-2.452 18.321-5.722 5.683-2.656 10.045-2.737 15.867-0.34z"/>
<path transform="translate(2143.7 391.81)" d="m0 0c0.953 0.852 1.905 1.704 2.887 2.582 4.839 5.197 4.764 10.176 4.738 17.043 0.017 1.649 0.034 3.297 0.051 4.996-0.358 4.499-1.041 6.781-3.364 10.567-0.474 0.857-0.948 1.714-1.437 2.597-3.843 6.062-7.244 8.838-14.012 11.27-2.551 1.133-2.551 1.133-4.398 3.168-3.066 2.799-5.837 2.917-9.903 3.527-5.765 0.954-10.821 2.226-16.25 4.438-12.157 2.487-23.145 2.248-34.027-4.024-6.222-4.137-9.871-7.534-11.91-14.976-1.832-9.196-1.827-19.174 3.449-27.34 1.732-2.028 3.53-3.852 5.488-5.66 1.135-1.073 2.269-2.145 3.438-3.25 3.686-2.845 7.396-4.702 11.562-6.75 1.37-1.296 2.716-2.62 4-4 15.84-5.28 47.164-5.585 59.688 5.812z"/>
<path transform="translate(2432.9 416.88)" d="m0 0c4.062 0.125 4.062 0.125 5.062 1.125v5c-2.144 0.165-2.144 0.165-13 1-0.042 2.666-0.041 5.334 0 8 1.879 1.878 5.04 1.391 7.563 1.563 1.198 0.083 2.395 0.167 3.629 0.253 0.463 0.031 0.463 0.031 2.808 0.184v6h-14c-0.226 1.959-0.453 3.919-0.687 5.937-0.387 3.34-0.387 3.34-1.313 6.063-2.582 0.879-2.582 0.879-5 1-2.868-26.176-2.868-26.176 2-35 4.4-1.29 8.356-1.009 12.938-1.125z"/>
<path transform="translate(2459,424)" d="M0 0 C0.99 0.33 1.98 0.66 3 1 C4.315 5.757 4.019 10.42 3.75 15.312 C3.683 16.732 3.616 18.151 3.547 19.613 C3.457 20.172 3.457 20.172 3 23 C2.01 23.33 1.02 23.66 0 24 C-0.95 19.205 -1.134 14.634 -1.125 9.75 C-1.128 8.342 -1.13 6.935 -1.133 5.484 C-1 2 -1 2 0 0 Z "/>
<path transform="translate(2402,443)" d="m0 0 4 1 1 10h-5c-2.215-5.292-2.215-5.292-1.125-8.875 0.371-0.701 0.742-1.402 1.125-2.125z"/>
<path transform="translate(2436,466)" d="m0 0v4c-4.411 1.026-6.926 1.037-11-1l1-3c3.694-1.231 6.206-0.644 10 0z"/>
<path transform="translate(2409,456)" d="m0 0h8l-1 7h-6l-1-7z"/>
<path transform="translate(2402,419)" d="m0 0h4c0.25 4.375 0.25 4.375 0 9l-4 2c-1-1-1-1-1.125-5.5 0.125-4.5 0.125-4.5 1.125-5.5z"/>
<path transform="translate(2411,409)" d="m0 0h5c1 1 1 1 1 6h-8c0.875-4.875 0.875-4.875 2-6z"/>
<path transform="translate(2440,425)" d="m0 0h6l1 4-3 3h-4v-7z"/>
<path transform="translate(2449.6 409.62)" d="m0 0c2.438 1.375 2.438 1.375 3.25 4 0.062 0.784 0.124 1.567 0.188 2.375-3.375-0.547-5.083-1.055-8-3v-3c2-1 2-1 4.562-0.375z"/>
<path transform="translate(2447,455)" d="m0 0c2.438 0.188 2.438 0.188 5 1 0.812 2.562 0.812 2.562 1 5-4 1-4 1-6 0-1-4-1-4 0-6z"/>
<path transform="translate(2441,443)" d="m0 0 4 1c1 4 1 4 0 6l-4-2v-5z"/>
<path transform="translate(2428,402)" d="m0 0h7v3h-7v-3z"/>
</svg>
