<?xml version="1.0" encoding="UTF-8"?>
<svg version="1.1" viewBox="0 0 2448 1112" xmlns="http://www.w3.org/2000/svg">
<path transform="translate(157.75 145.87)" d="m0 0c0.618-1e-3 0.618-1e-3 3.744-8e-3 0.687 1e-3 0.687 1e-3 4.163 6e-3 1.455-2e-3 2.91-4e-3 4.408-6e-3 4.078-4e-3 8.156-3e-3 12.234-1e-3 4.438 2e-3 8.875-2e-3 13.313-6e-3 7.821-5e-3 15.643-7e-3 23.464-6e-3 11.708 1e-3 23.417-3e-3 35.126-9e-3 19.95-0.01 39.901-0.014 59.851-0.016 20.23-3e-3 40.461-7e-3 60.691-0.014 0.638 0 0.638 0 3.866-1e-3 5.195-2e-3 10.39-4e-3 15.585-5e-3 63.034-0.022 126.07-0.033 189.1-0.042 20.435-3e-3 40.869-6e-3 61.303-0.01 1.441 0 2.882 0 4.367-1e-3 5.829-1e-3 11.657-2e-3 17.486-3e-3 99.699-0.018 199.4-0.033 299.1-0.04 7.833-1e-3 15.667-2e-3 23.501-2e-3 1.554 0 3.107 0 4.709-1e-3 15.744-1e-3 31.489-2e-3 47.233-3e-3 3.157 0 6.314-1e-3 9.471-1e-3 101.43-8e-3 202.85-0.03 304.28-0.063 72.862-0.023 145.72-0.045 218.59-0.052h4.537c32.866-3e-3 65.732-5e-3 98.598-6e-3 13.223-1e-3 26.446-1e-3 39.669-2e-3h4.385c46.678-2e-3 93.357-0.016 140.04-0.037 46.994-0.02 93.989-0.028 140.98-0.019 6.485 2e-3 12.97 3e-3 19.456 4e-3 1.271 0 2.542 0 3.852 1e-3 20.18 3e-3 40.361-8e-3 60.541-0.024 19.814-0.015 39.628-0.016 59.442-2e-3 11.636 8e-3 23.271 5e-3 34.907-0.015 7.71-0.011 15.42-9e-3 23.13 6e-3 4.382 8e-3 8.764 9e-3 13.146-7e-3 4.694-0.014 9.387-3e-3 14.081 0.014 1.369-0.01 2.737-0.02 4.148-0.03 1.24 9e-3 2.481 0.019 3.759 0.028h3.245c3.449 0.625 4.632 1.763 6.756 4.5 0.5 2.63 0.5 2.63 0.5 5.693 0.01 1.171 0.02 2.342 0.03 3.548-0.01 1.289-0.019 2.579-0.029 3.908 5e-3 1.373 0.011 2.746 0.016 4.161 0.014 4.646-1e-3 9.292-0.016 13.939 4e-3 3.347 0.01 6.693 0.017 10.04 0.013 7.299 0.011 14.599-1e-3 21.898-0.017 10.855-0.012 21.709-1e-3 32.564 0.017 19.382 0.011 38.765-4e-3 58.148-0.013 16.961-0.018 33.922-0.016 50.883 1e-3 1.123 1e-3 2.247 1e-3 3.405 1e-3 4.56 1e-3 9.121 2e-3 13.682 7e-3 42.811-8e-3 85.622-0.035 128.43-0.023 38.065-0.028 76.13-0.018 114.19 3e-3 9.747 5e-3 19.494 8e-3 29.241 0 0.6 0 0.6 1e-3 3.635 7e-3 31.774 1e-3 63.548-0.01 95.322-1e-3 3.418-2e-3 6.835-3e-3 10.252-1e-3 2.268-2e-3 4.535-3e-3 6.802-5e-3 16.954-4e-3 33.908 1e-3 50.863 5e-3 19.27-1e-3 38.54-0.021 57.81-0.011 10.795-0.014 21.59-5e-3 32.385 5e-3 7.199 0 14.399-0.015 21.598-8e-3 4.109-0.01 8.219-1e-3 12.328 8e-3 4.415-3e-3 8.829-0.018 13.244 7e-3 1.292 0.014 2.584 0.021 3.915-4e-3 0.584-4e-3 0.584-0.024 3.54 0 1.011 0 2.022-1e-3 3.063-0.376 2.506-0.376 2.506-3.376 5.506-2.681 1.34-4.729 1.125-7.733 1.126-1.232 2e-3 -2.464 5e-3 -3.733 8e-3 -0.685-1e-3 -0.685-1e-3 -4.15-7e-3 -1.45 2e-3 -2.9 4e-3 -4.394 5e-3 -4.065 4e-3 -8.13 3e-3 -12.195 0-4.424-2e-3 -8.848 2e-3 -13.272 5e-3 -7.797 5e-3 -15.594 6e-3 -23.391 4e-3 -11.672-2e-3 -23.344 2e-3 -35.016 7e-3 -19.888 8e-3 -39.777 0.011-59.665 0.011-20.168 1e-3 -40.335 3e-3 -60.502 9e-3 -1.272 0-2.544 0-3.854 1e-3 -5.179 1e-3 -10.358 2e-3 -15.537 4e-3 -61.379 0.016-122.76 0.022-184.14 0.027-30.551 2e-3 -61.101 6e-3 -91.652 0.01-97.945 0.013-195.89 0.024-293.83 0.027h-14.049c-9.393 1e-3 -18.786 1e-3 -28.178 1e-3 -10.997 1e-3 -21.994 1e-3 -32.991 2e-3h-9.442c-101.11 4e-3 -202.23 0.019-303.34 0.042-72.637 0.017-145.28 0.032-217.91 0.037h-4.524c-32.769 2e-3 -65.538 3e-3 -98.307 3e-3 -11.725 1e-3 -23.449 1e-3 -35.174 1e-3h-8.75c-46.533 1e-3 -93.066 0.011-139.6 0.026-46.853 0.014-93.705 0.019-140.56 0.011-6.467-1e-3 -12.934-2e-3 -19.401-3e-3h-3.842c-20.115-3e-3 -40.231 4e-3 -60.346 0.016-19.756 0.011-39.511 0.011-59.266 0-11.598-6e-3 -23.196-4e-3 -34.794 0.011-7.689 8e-3 -15.377 6e-3 -23.066-5e-3 -4.368-6e-3 -8.735-7e-3 -13.102 5e-3 -4.684 0.01-9.367 2e-3 -14.05-0.011-1.358 8e-3 -2.715 0.015-4.114 0.023-11.637-0.067-11.637-0.067-17.129-3.396-4.13-6.148-3.417-13.292-3.377-20.425-5e-3 -1.367-9e-3 -2.733-0.014-4.141-0.011-4.606 0-9.211 0.01-13.817-3e-3 -3.324-8e-3 -6.649-0.014-9.973-0.011-7.242-0.01-14.484-3e-3 -21.726 0.012-10.768 6e-3 -21.537-3e-3 -32.306-0.016-19.229-0.015-38.459-6e-3 -57.689 7e-3 -16.826 9e-3 -33.652 6e-3 -50.477-1e-3 -1.115-1e-3 -2.23-1e-3 -3.379-1e-3 -4.527-2e-3 -9.053-3e-3 -13.579-9e-3 -42.475-1e-3 -84.949 0.015-127.42 0.015-37.763 0.013-75.526-1e-3 -113.29-0.016-42.401-0.022-84.803-0.013-127.2l3e-3 -13.551v-3.37c4e-3 -16.821 0-33.642-8e-3 -50.462-8e-3 -19.117-6e-3 -38.233 0.01-57.349 9e-3 -10.709 9e-3 -21.417-2e-3 -32.125-7e-3 -7.142-2e-3 -14.283 0.011-21.425 7e-3 -4.076 8e-3 -8.153-2e-3 -12.229-9e-3 -4.379 1e-3 -8.758 0.015-13.137-7e-3 -1.281-0.014-2.563-0.022-3.884 8e-3 -1.158 0.015-2.317 0.023-3.511 0-1.003 1e-3 -2.005 1e-3 -3.038 0.375-2.488 0.375-2.488 3.375-5.488 2.686-1.343 4.742-1.126 7.751-1.127zm301.25 76.127c-1.547 0.412-3.094 0.825-4.687 1.25-5.708 2.316-9.72 5.71-14.313 9.75-0.896 0.763-1.792 1.526-2.715 2.312-4.506 3.917-8.205 7.513-11.285 12.688l-3 3c-0.902 1.906-1.729 3.849-2.5 5.812-1.242 3.141-2.475 6.142-4.07 9.121-1.613 3.46-2.199 6.554-2.805 10.317-1.061 5.713-2.563 10.056-5.367 15.093-2.121 4.479-3.098 9.262-4.289 14.055-0.823 3.06-1.783 5.823-3.031 8.727-1.608 3.75-2.546 7.379-3.375 11.375-0.897 4.205-1.974 7.621-4.063 11.375-2.879 5.269-3.651 10.586-4.687 16.453-0.969 4.379-2.631 7.991-4.621 11.984-1.675 3.777-2.502 7.63-3.321 11.668-0.871 3.02-0.871 3.02-2.84 6.824-2.141 4.424-3.068 8.314-3.968 13.133-1.247 6.007-2.544 10.558-5.84 15.668-2.316 4.535-3.116 9.597-4.254 14.531-1.01 4.027-2.392 7.637-4.035 11.434-1.42 3.695-2.213 7.507-3.028 11.375-0.906 3.055-0.906 3.055-2.878 6.867-2.131 4.401-3.064 8.269-3.965 13.063-1.279 6.158-2.761 11.07-5.84 16.503-2.198 4.711-3.084 9.815-4.254 14.86-0.792 3.076-1.664 5.668-3.031 8.512-1.997 4.379-3.054 8.471-4.032 13.16-0.906 3.09-0.906 3.09-2.878 6.906-2.133 4.4-3.064 8.266-3.965 13.059-1.279 6.159-2.765 11.071-5.84 16.507-2.191 4.69-3.087 9.763-4.254 14.786-1.018 4.027-2.393 7.667-4.035 11.468-1.039 2.629-1.741 5.25-2.434 7.989-1.242 4.827-3.174 8.955-5.5 13.375-0.941 3.762-1.166 6.77-1.187 10.625-0.015 1.147-0.029 2.294-0.043 3.476 0.23 2.899 0.23 2.899 2.23 4.899 3.902 0.21 7.734 0.293 11.638 0.29 1.213 7e-3 2.426 0.014 3.676 0.02 4.028 0.02 8.056 0.023 12.085 0.025 2.79 7e-3 5.58 0.014 8.37 0.021 5.856 0.012 11.712 0.015 17.568 0.014 7.515 0 15.03 0.027 22.544 0.062 5.765 0.022 11.53 0.026 17.295 0.025 2.771 2e-3 5.542 0.011 8.313 0.027 3.872 0.019 7.742 0.013 11.614 1e-3 1.152 0.012 2.303 0.023 3.489 0.034 1.054-8e-3 2.109-0.016 3.195-0.025 0.916 1e-3 1.831 2e-3 2.774 3e-3 3.208-0.654 4.384-2.007 6.439-4.497 1.16-2.368 1.16-2.368 2.063-4.875 1.014-2.778 2.05-5.339 3.437-7.957 1.714-3.62 2.559-7.076 3.438-10.981 1.071-4.474 2.089-8.712 4.062-12.875 2.139-4.612 3.557-9.19 4.996-14.055 0.917-2.974 1.953-5.853 3.067-8.757 1.497-3.987 2.507-7.895 3.375-12.063 0.902-4.19 2-7.621 4.062-11.375 2.73-5.012 3.625-9.972 4.688-15.543 1.035-4.483 2.752-8.451 4.621-12.641 1.502-3.629 2.448-7.289 3.32-11.113 0.871-2.765 0.871-2.765 2.84-6.504 2.196-4.608 3.086-8.682 3.969-13.699 1.895-10.043 1.895-10.043 4.625-14.375 2.828-4.858 3.588-9.096 4.625-14.566 1.061-4.731 2.795-9.04 4.621-13.52 1.433-3.73 2.423-7.481 3.32-11.371 0.871-2.73 0.871-2.73 2.84-6.465 2.195-4.609 3.086-8.685 3.969-13.703 1.902-10.052 1.902-10.052 4.562-14.25 3.078-5.31 4.158-10.437 5.531-16.383 1.049-4.252 2.461-8.21 4.043-12.285 1.007-2.875 1.655-5.731 2.301-8.707 1.656-6.978 4.516-13.865 10.625-17.937 3.091-0.195 6.091-0.27 9.181-0.254 0.476-2e-3 0.476-2e-3 2.884-0.01 3.204-8e-3 6.407-2e-3 9.61 5e-3 2.291-3e-3 4.583-6e-3 6.874-0.011 6.238-9e-3 12.476-5e-3 18.715 1e-3 6.531 5e-3 13.062 0 19.594-3e-3 10.982-4e-3 21.965 1e-3 32.947 0.011 12.674 0.011 25.347 7e-3 38.02-4e-3 10.888-9e-3 21.775-0.01 32.663-5e-3 6.499 3e-3 12.998 4e-3 19.497-3e-3 6.123-6e-3 12.246-2e-3 18.369 0.01 2.238 2e-3 4.477 2e-3 6.715-3e-3 34.65-0.062 34.65-0.062 46.931 10.266h2c0.248 0.886 0.495 1.773 0.75 2.687 1.302 3.45 2.93 5.485 5.25 8.313 3.245 6.796 3.383 14.556 2.563 21.937-6.578 17.101-15.073 23.707-31.184 31.363-8.075 3.134-15.777 3.997-24.38 3.931-0.955 1e-3 -1.91 2e-3 -2.894 3e-3 -3.173 0-6.345-0.013-9.518-0.027-2.285-2e-3 -4.571-3e-3 -6.857-3e-3 -4.908-2e-3 -9.816-0.01-14.724-0.022-7.761-0.017-15.522-0.014-23.284-6e-3 -22.065 0.019-44.13 0.026-66.195-0.022-12.197-0.026-24.393-0.027-36.59-1e-3 -6.451 0.013-12.901 0.013-19.352-0.018-6.062-0.028-12.123-0.025-18.184 3e-3 -2.224 4e-3 -4.449-3e-3 -6.673-0.023-3.037-0.026-6.071-9e-3 -9.108 0.018-0.879-0.018-1.759-0.035-2.665-0.054-4.825 0.095-7.555 0.968-10.967 4.244-3.136 3.858-4.188 6.296-5.175 11.114-0.986 4.311-1.838 7.611-3.875 11.563-1.907 3.936-2.572 6.972-3.313 11.25-0.922 5.128-2.12 9.183-4.625 13.75-3.095 5.658-4.134 11.015-5.222 17.332-0.969 4.568-2.672 8.514-4.586 12.753-1.629 3.984-2.488 8.047-3.434 12.235-0.758 2.68-0.758 2.68-2.945 6.367-2.388 4.363-2.389 7.417-1.813 12.313 4.039 3.029 4.509 3.375 9.135 3.38 0.521 4e-3 0.521 4e-3 3.162 0.025 1.145-6e-3 2.29-0.012 3.47-0.018 1.218 6e-3 2.435 0.011 3.69 0.017 4.098 0.014 8.197 7e-3 12.295 0 2.932 5e-3 5.864 0.012 8.796 0.02 7.982 0.018 15.964 0.017 23.947 0.011 7.512-4e-3 15.025 5e-3 22.537 0.012 15.807 0.014 31.614 8e-3 47.422-3e-3 14.422-0.01 28.844 3e-3 43.266 0.027 14.829 0.024 29.659 0.034 44.488 0.027 8.317-4e-3 16.633-1e-3 24.95 0.016 7.838 0.016 15.675 0.012 23.513-7e-3 2.863-4e-3 5.727-1e-3 8.59 0.01 18.981 0.064 36.833-0.515 54.739-7.517 1.485-0.454 2.97-0.908 4.5-1.375 4.678-1.69 8.314-3.968 12.5-6.625 1.3-0.475 2.599-0.949 3.938-1.438 4.928-1.896 8.791-4.5 13.062-7.562 0.926-0.658 1.851-1.315 2.805-1.993 6.867-4.931 13.222-10.017 19.195-16.007 0.932-0.898 1.864-1.795 2.824-2.719 0.945-0.918 1.89-1.836 2.864-2.781 0.952-0.918 1.905-1.836 2.886-2.782 2.426-2.718 2.426-2.718 3.508-5.437 0.918-2.281 0.918-2.281 4.918-4.281 1.781-2.645 1.781-2.645 3.5-5.813 2.224-4.068 4.545-7.617 7.5-11.187 3.765-5.503 6.33-10.934 8.692-17.168 1.308-2.832 1.308-2.832 3.339-5.254 2.408-3.153 3.027-5.786 3.907-9.641 1.187-4.822 2.5-9.235 4.562-13.75 2.881-6.507 4.205-13.23 5.606-20.184 0.727-3.253 1.653-5.943 2.894-9.003 1.635-7.688 1.224-15.599 1.24-23.421 0.01-2.807 0.041-5.613 0.073-8.419 0.053-8.876-0.074-16.777-3.313-25.16-0.218-0.76-0.218-0.76-1.324-4.606-3.733-12.545-8.296-24.137-16.676-34.394l-2-3.5c-3.286-5.401-7.729-9.786-12.062-14.352-1.942-2.081-3.821-4.221-5.629-6.418-2.515-2.975-5.029-4.655-8.309-6.73-1-0.834-1-0.834-6-5-1.994-1.343-3.993-2.677-6-4-0.784-0.66-1.567-1.32-2.375-2-3.318-2.529-6.887-4.16-10.625-6-0.949-0.66-1.897-1.32-2.875-2-4.154-2.659-8.518-4.284-13.125-6-1.237-0.503-2.475-1.006-3.75-1.524-4.475-1.555-8.692-2.346-13.375-3.039-8.331-1.243-8.331-1.243-11.762-2.468-3.237-1.008-5.776-1.222-9.156-1.227-1.195-6e-3 -2.39-0.013-3.622-0.019-1.304 3e-3 -2.609 6e-3 -3.953 9e-3 -1.392-4e-3 -2.785-9e-3 -4.219-0.014-4.678-0.012-9.355-0.011-14.032-9e-3 -3.349-6e-3 -6.699-0.013-10.048-0.02-8.161-0.017-16.322-0.022-24.483-0.024-6.636 0-13.273-5e-3 -19.909-0.011-18.824-0.018-37.648-0.027-56.473-0.025h-3.075-3.078c-16.455 1e-3 -32.909-0.018-49.364-0.046-16.904-0.029-33.808-0.043-50.712-0.041-9.487 1e-3 -18.974-5e-3 -28.461-0.026-8.08-0.019-16.159-0.023-24.239-9e-3 -4.12 6e-3 -8.238 4e-3 -12.358-0.011-4.475-0.016-8.949-6e-3 -13.424 9e-3 -1.289-0.01-2.578-0.02-3.906-0.031-8.525 0.065-15.585 1.713-23.601 4.526zm695.96-4.972c-7.325 0.035-14.649 0.089-21.974 0.155-4.406 0.04-8.813 0.072-13.219 0.088-5.121 0.018-10.241 0.068-15.362 0.119-1.566 1e-3 -3.132 3e-3 -4.745 4e-3 -9.022 0.12-16.3 1.273-24.665 4.606-1.526 0.433-3.052 0.866-4.625 1.312-10.369 4-17.569 11.444-24.676 19.723-1.424 1.647-2.899 3.249-4.386 4.84-2.553 3.449-3.876 6.701-5.344 10.703-0.969 2.422-0.969 2.422-3.031 5.609-1.958 3.852-2.616 6.835-3.375 11.063-1.07 5.936-2.699 10.755-5.371 16.132-1.627 3.574-2.5 7.225-3.45 11.024-0.897 3.135-2.313 5.948-3.711 8.887-1.387 3.643-2.139 7.336-2.968 11.144-1.084 4.89-2.11 9.189-4.563 13.563-3.156 5.636-4.167 11.688-5.535 17.953-0.977 4.1-2.289 7.744-3.965 11.593-1.631 4.002-2.762 8.154-3.992 12.293-0.904 2.834-1.952 5.497-3.133 8.223-1.534 3.648-2.246 6.953-2.75 10.875-0.627 4.412-1.693 7.444-4 11.25-3.559 5.961-4.756 12.056-6.191 18.797-0.96 4.127-2.304 7.751-4 11.613-1.454 3.74-2.222 7.619-3.028 11.543-0.906 2.86-0.906 2.86-2.875 5.594-2.624 4.219-3.265 8.441-4.031 13.266-0.996 6.274-2.375 10.729-6 16-0.935 3.054-1.76 6.142-2.5 9.25-2.53 10.286-2.53 10.286-4.625 15.187-1.86 4.526-2.976 8.832-3.969 13.606-0.906 2.957-0.906 2.957-2.878 6.238-2.372 4.35-3.109 8.16-3.965 13.031-1.196 6.338-2.698 11.752-5.907 17.367-1.818 3.649-2.521 7.507-3.414 11.465-0.854 3.287-2.244 6.199-3.711 9.254-1.357 3.424-2.131 6.891-2.968 10.477-1.425 6.026-3.239 11.36-6.012 16.89-2.364 5.026-2.358 9.776-2.051 15.235 3.35 3.349 3.652 3.376 8.079 3.394 1.051 0.011 2.101 0.023 3.183 0.034 1.151-3e-3 2.303-5e-3 3.49-9e-3 1.213 9e-3 2.426 0.017 3.676 0.026 4.023 0.024 8.045 0.025 12.068 0.023 2.789 7e-3 5.578 0.015 8.366 0.023 5.85 0.014 11.7 0.015 17.551 0.01 7.507-6e-3 15.013 0.024 22.52 0.065 5.761 0.025 11.521 0.028 17.282 0.025 2.768 1e-3 5.536 0.011 8.304 0.029 3.867 0.022 7.733 0.012 11.6-5e-3 1.15 0.013 2.3 0.026 3.484 0.04 7.751-0.083 7.751-0.083 11.051-3.008 1.46-2.872 2.795-5.709 3.971-8.71 1.352-3.414 2.73-6.646 4.375-9.937 0.483-2.346 0.915-4.702 1.313-7.063 1.132-5.968 2.81-10.854 5.5-16.266 1.676-3.771 2.466-7.632 3.375-11.644 0.842-3.14 1.989-5.936 3.312-8.902 1.946-4.418 3.104-8.57 4-13.313 1.013-5.266 2.505-8.914 5.313-13.418 2.009-4.051 2.539-8.425 3.375-12.84 1.03-4.508 2.754-8.485 4.625-12.699 1.49-3.583 2.425-7.194 3.375-10.949 0.932-3.336 2.106-6.535 3.312-9.781 1.702-4.624 3.009-9.113 4-13.938 0.851-4.017 1.818-7.088 4-10.562 3.068-4.977 3.687-10.163 4.692-15.856 0.981-4.574 2.634-8.535 4.546-12.785 1.786-4.224 3.022-8.569 4.27-12.977 0.992-3.007 0.992-3.007 2.492-5.843 1.855-3.913 2.556-7.666 3.375-11.914 1.314-6.245 2.854-11.257 5.973-16.774 1.918-4.122 2.493-8.518 3.34-12.961 1.031-4.463 2.756-8.398 4.621-12.566 1.589-3.933 2.481-7.913 3.32-12.063 0.871-2.886 0.871-2.886 2.84-6.156 2.381-4.373 3.113-8.21 3.969-13.105 1.906-10.13 1.906-10.13 4.562-14.313 3.088-5.327 4.155-10.484 5.531-16.449 1.01-4.026 2.391-7.635 4.036-11.43 1.429-3.726 2.216-7.575 3.027-11.476 0.906-2.957 0.906-2.957 2.883-6.215 2.371-4.386 3.132-8.575 3.898-13.43 1.295-7.346 3.104-13.466 6.856-20 2.71-4.938 2.721-9.811 2.269-15.312-1.812-3.063-1.812-3.063-5-5-6.344-0.173-12.688 0.014-19.035 0.028zm131.04 4.972c-1.361 0.433-2.722 0.866-4.125 1.312-8.029 3.497-14.521 7.697-19.875 14.688-1.155 0.928-2.31 1.856-3.5 2.812-4.2 3.825-5.938 7.136-8.5 12.188-0.25 0.39-0.25 0.39-1.515 2.367-2.238 3.969-3.21 8.204-4.422 12.574-1.063 3.059-1.063 3.059-4.063 7.059-0.722 3.051-1.334 6.042-1.875 9.125-1.217 6.384-2.732 11.834-5.969 17.488-1.893 3.909-2.538 8.076-3.414 12.308-0.818 3.396-2.176 6.361-3.707 9.493-1.905 4.76-2.828 9.815-3.91 14.816-1.125 3.77-1.125 3.77-3.129 6.684-2.589 4.002-3.112 7.591-3.933 12.273-1.236 6.57-2.881 12.314-5.91 18.281-1.688 3.708-2.442 7.541-3.34 11.5-0.846 3.156-1.993 5.983-3.313 8.969-2.302 5.237-3.596 10.339-4.629 15.957-0.871 3.106-0.871 3.106-2.843 6.461-2.274 4.088-3.049 7.557-3.903 12.145-1.545 7.474-3.767 14.156-6.746 21.168-1.187 2.868-2.155 5.662-3.004 8.644-0.984 3.354-2.007 6.264-3.375 9.438-1.694 4.058-2.616 7.993-3.437 12.312-0.85 4.311-1.736 7.708-4.063 11.438-2.929 4.706-3.664 9.479-4.687 14.875-1.066 4.752-2.791 9.091-4.621 13.593-1.078 2.742-1.954 5.449-2.754 8.282-1.438 4.75-1.438 4.75-3.375 8.687-2.883 6.094-3.691 12.851-4.84 19.441-1.319 4.987-3.452 8.308-6.223 12.622-1.004 3.527-1.004 3.527-1.562 6.937-1.1 5.851-2.986 10.623-5.438 16.063-0.538 2.199-1.036 4.408-1.5 6.625-0.844 4.026-1.559 6.474-3.687 10.062-2.582 4.719-2.24 7.976-1.813 13.313 3.503 3.503 8.95 2.313 13.683 2.322 1.218 0.01 2.436 0.02 3.69 0.03 4.047 0.029 8.093 0.043 12.139 0.054 2.805 0.011 5.611 0.023 8.416 0.034 5.89 0.021 11.781 0.033 17.672 0.04 7.548 0.011 15.096 0.059 22.644 0.116 5.798 0.037 11.596 0.048 17.395 0.051 2.783 6e-3 5.565 0.022 8.347 0.048 3.896 0.034 7.789 0.03 11.685 0.017 0.575 0.01 0.575 0.01 3.484 0.056 5.199-0.054 8.883-0.207 13.027-3.546 3.51-4.013 4.142-6.93 5.006-12.16 1.073-6.296 2.573-10.59 5.812-16.062 0.75-2.456 1.417-4.938 2-7.438 1.058-4.249 2.023-7.606 4.063-11.5 1.989-4.171 2.631-7.523 3.375-12.062 0.817-4.84 1.365-7.687 4-11.875 3.51-5.65 4.285-11.389 5.597-17.86 0.749-3.31 1.489-5.943 2.965-8.953 2.369-5.108 3.591-10.196 4.875-15.664 1.125-3.648 1.125-3.648 3.129-7.023 2.38-4.322 3.086-8.15 3.934-13 1.899-10.121 1.899-10.121 4.625-14.438 2.828-4.858 3.588-9.096 4.625-14.566 1.061-4.731 2.795-9.04 4.621-13.52 1.433-3.73 2.423-7.481 3.32-11.371 0.871-2.73 0.871-2.73 2.84-6.465 2.195-4.609 3.086-8.685 3.969-13.703 1.898-10.054 1.898-10.054 4.625-14.437 2.715-4.596 3.563-8.496 4.629-13.668 1.124-4.807 2.827-9.333 4.546-13.954 1.621-4.5 2.959-9.064 4.27-13.664 0.992-2.839 0.992-2.839 2.523-5.226 2.494-4.438 2.708-9.426 3.43-14.41 0.172-0.529 0.172-0.529 1.039-3.203 4.578-1.603 9.647-1.146 14.447-1.141 0.956-3e-3 1.912-6e-3 2.896-9e-3 3.207-9e-3 6.413-0.01 9.619-0.012 2.298-4e-3 4.597-9e-3 6.895-0.015 6.248-0.013 12.497-0.019 18.746-0.024 3.908-3e-3 7.816-7e-3 11.725-0.011 12.24-0.014 24.481-0.023 36.721-0.027 14.105-5e-3 28.211-0.022 42.316-0.051 10.916-0.022 21.831-0.032 32.747-0.033 6.513-1e-3 13.025-7e-3 19.537-0.025 6.137-0.017 12.273-0.019 18.409-0.01 2.241 1e-3 4.482-4e-3 6.722-0.014 32.901-0.137 32.901-0.137 41.783 5.934 9.458 9.459 13.716 16.07 13.75 29.813 0.016 1.595 0.033 3.191 0.05 4.835-0.864 11.391-6.074 18.738-14.318 26.19-10.607 8.295-24.729 11.917-37.946 11.858-0.969 4e-3 -1.937 7e-3 -2.935 0.011-3.229 0.01-6.459 6e-3 -9.688 2e-3 -2.322 4e-3 -4.643 9e-3 -6.965 0.016-4.99 0.011-9.981 0.017-14.971 0.018-7.886 1e-3 -15.772 0.02-23.658 0.04-19.581 0.049-39.161 0.08-58.742 0.102-15.23 0.016-30.461 0.039-45.691 0.083-7.845 0.021-15.691 0.029-23.536 0.027-4.87 2e-3 -9.739 0.016-14.609 0.033-2.265 6e-3 -4.529 6e-3 -6.793 1e-3 -3.082-6e-3 -6.163 6e-3 -9.244 0.023-0.905-6e-3 -1.809-0.012-2.74-0.019-6.185 0.062-6.185 0.062-9.527 3.405-4.469 9.074-7.448 18.823-10.156 28.543-0.844 2.457-0.844 2.457-2.32 5.207-1.86 3.968-2.574 7.761-3.399 12.062-2.045 9.733-2.045 9.733-4.687 13.875-2.947 5.214-3.663 9.957-4.692 15.805-0.908 4.271-2.724 7.653-4.746 11.508-0.904 3.135-1.666 6.278-2.387 9.46-0.613 2.54-0.613 2.54-1.613 4.54-0.25 3.937-0.25 3.937 0 8 3.347 3.346 3.63 3.375 8.048 3.38 1.05 8e-3 2.1 0.017 3.181 0.025 0.579-3e-3 0.579-3e-3 3.507-0.018 1.227 6e-3 2.453 0.011 3.717 0.017 4.133 0.014 8.267 7e-3 12.401 0 2.954 5e-3 5.909 0.012 8.864 0.02 7.211 0.017 14.422 0.018 21.633 0.013 5.868-4e-3 11.737-2e-3 17.605 3e-3 0.835 1e-3 1.67 1e-3 2.531 2e-3 1.696 2e-3 3.393 3e-3 5.089 5e-3 15.929 0.014 31.859 8e-3 47.788-3e-3 14.54-0.01 29.08 3e-3 43.62 0.027 14.944 0.024 29.889 0.034 44.834 0.027 8.383-4e-3 16.767-1e-3 25.151 0.016 7.899 0.016 15.798 0.012 23.697-7e-3 2.889-4e-3 5.777-1e-3 8.665 0.01 15.427 0.052 29.734-0.39 44.669-4.517 0.494-0.133 0.494-0.133 2.993-0.805 2.251-0.646 4.476-1.384 6.695-2.133 1.406-0.463 2.812-0.925 4.261-1.402 4.378-1.794 8.085-4.096 12.051-6.66 2.229-0.974 4.458-1.947 6.695-2.899 5.537-2.646 10.415-6.434 15.305-10.101v-2c0.681-0.227 1.361-0.454 2.063-0.688 3.426-1.531 5.504-3.718 8.07-6.41 1.749-1.782 3.649-3.413 5.555-5.027 9.838-8.496 18.789-18.608 25.312-29.875 0.605-0.882 1.209-1.764 1.832-2.672 3.11-4.774 5.639-9.816 8.266-14.868 1.902-3.46 1.902-3.46 4.902-7.46 0.718-2.039 1.358-4.106 1.938-6.188 1.151-3.948 2.346-7.667 4.125-11.375 1.944-4.454 3.053-8.66 4.148-13.371 1.025-3.983 2.432-7.764 3.922-11.594 6.957-19.835 7.265-57.819-0.273-77.441-0.827-1.654-1.704-3.285-2.641-4.879-1.219-2.152-1.219-2.152-2.656-6.652-1.861-5.358-4.536-9.74-7.563-14.5-0.237-0.41-0.237-0.41-1.437-2.485-1.674-2.694-3.547-5.068-5.563-7.515-0.628-0.805-1.255-1.609-1.902-2.438-7.949-10.008-16.735-19.439-27.067-27.019-2.086-1.586-3.939-3.307-5.843-5.106-3.912-3.458-8.079-5.621-12.789-7.828-2.442-1.156-4.851-2.384-7.235-3.656-8.668-4.594-16.496-7.403-26.164-8.953-9.436-1.8-9.436-1.8-12.926-3.042-5.94-1.397-11.73-1.24-17.812-1.226-1.393-4e-3 -2.787-9e-3 -4.222-0.014-4.674-0.012-9.349-0.011-14.023-9e-3 -3.349-6e-3 -6.698-0.013-10.048-0.02-8.157-0.017-16.315-0.022-24.473-0.024-6.633 0-13.267-5e-3 -19.9-0.011-18.818-0.018-37.636-0.027-56.455-0.025h-3.073-3.077c-16.448 1e-3 -32.896-0.018-49.344-0.046-16.9-0.029-33.799-0.043-50.699-0.041-9.484 1e-3 -18.967-5e-3 -28.45-0.026-8.077-0.019-16.153-0.023-24.229-9e-3 -4.117 6e-3 -8.234 4e-3 -12.351-0.011-4.473-0.016-8.945-6e-3 -13.418 9e-3 -1.288-0.01-2.576-0.02-3.903-0.031-8.504 0.064-15.614 1.65-23.597 4.526zm-210.94 470.12c-4.653 6.47-6.614 14.381-9.063 21.875-2.215 6.493-4.659 12.63-7.851 18.71-2.12 4.226-3.448 8.303-4.461 12.915-1.259 5.181-3.059 9.719-5.36 14.515-2.4 5.169-4.332 10.525-6.328 15.86-0.258 0.68-0.258 0.68-1.562 4.125-0.801 2.158-1.596 4.319-2.368 6.488-2.114 5.926-4.513 11.633-7.07 17.387-1.032 2.737-2.018 5.489-3 8.246-1.247 3.434-2.617 6.811-3.992 10.195-1.458 3.702-2.77 7.454-4.078 11.211-0.93 2.348-0.93 2.348-2.93 5.348-0.375 3.407-0.174 6.551 0 10 2.867 2.867 5.489 2.258 9.365 2.293 0.52-1e-3 0.52-1e-3 3.156-3e-3 1.094 7e-3 2.189 0.014 3.316 0.02 3.634 0.02 7.268 0.023 10.901 0.025 2.519 7e-3 5.038 0.014 7.556 0.021 5.287 0.012 10.574 0.015 15.861 0.014 6.78 0 13.559 0.027 20.338 0.062 5.205 0.022 10.409 0.026 15.614 0.025 2.5 2e-3 4.999 0.011 7.499 0.027 3.495 0.019 6.99 0.013 10.485 1e-3 1.036 0.012 2.071 0.023 3.138 0.034 4.222-0.037 7.182-0.166 10.847-2.365 3.881-4.345 5.693-9.84 7.924-15.154 0.619-1.341 1.238-2.682 1.875-4.063 1.501-5.252 2.107-10.527 1.125-15.937-2.103-2.698-3.275-3.871-6.683-4.481-1.021 8e-3 -2.043 0.017-3.095 0.026-0.581 1e-3 -0.581 1e-3 -3.518 1e-3 -1.248 0.021-2.496 0.042-3.782 0.063-1.282 6e-3 -2.563 0.011-3.884 0.017-4.096 0.022-8.192 0.073-12.288 0.124-2.776 0.02-5.552 0.038-8.328 0.054-6.808 0.044-13.615 0.111-20.422 0.196-0.203-6.145 0.918-8.692 4-14 0.71-2.132 1.373-4.28 2-6.438 1.518-5.213 3.57-9.702 6-14.562 0.697-2.157 1.362-4.325 2-6.5 1.092-3.719 2.174-6.842 3.938-10.313 1.967-3.994 3.22-7.745 4.5-12 2.035-6.719 4.545-12.868 7.562-19.187 12.426-27.488 12.426-27.488 11-38-7.284-4.857-18.803-3.218-27.25-3.25-0.674-0.011-0.674-0.011-4.086-0.063-0.648-3e-3 -0.648-3e-3 -3.929-0.016-1.174-9e-3 -2.347-0.018-3.556-0.028-5.188 0.582-7.598 2.738-11.116 6.482zm-792.78 11.128c-7.853 9.454-11.416 20.23-15.281 31.747-2.044 5.433-4.322 10.77-6.562 16.125-2.566 6.152-4.999 12.267-6.813 18.687-1.033 3.528-2.292 6.757-3.879 10.07-3.187 6.91-5.737 14.023-8.308 21.18-0.938 2.596-1.877 5.191-2.817 7.785-0.443 1.225-0.886 2.45-1.342 3.713-1.133 3.046-2.337 6.045-3.587 9.045-2.09 5.428-2.3 8.619-1.692 14.395 1.563 3.187 1.563 3.187 4 6 0.521 0.609 1.042 1.219 1.578 1.847 5.006 5.491 9.168 6.937 16.459 7.42 1.482 8e-3 2.964 0.015 4.49 0.023 0.824 7e-3 1.648 0.014 2.497 0.02 2.709 0.019 5.419 0.023 8.129 0.025l5.706 0.021c3.987 0.012 7.974 0.015 11.961 0.014 5.066 0 10.132 0.027 15.199 0.062 3.932 0.022 7.864 0.026 11.796 0.025 1.865 2e-3 3.73 0.011 5.595 0.027 16.071 0.122 31.681-0.965 44.59-11.484 3.25-3.25 3.25-3.25 6-7 0.574-0.779 1.147-1.558 1.738-2.36 4.311-6.239 6.774-12.445 9.016-19.664 3.006-9.591 6.532-18.85 11.223-27.738 1.639-3.586 2.231-7.393 3.023-11.238 0.536-0.97 1.073-1.939 1.625-2.938 2.036-4.534 1.701-8.112 1.375-13.062-2.731-2.731-4.331-2.315-8.159-2.43-1.295-0.043-2.59-0.085-3.925-0.129-1.408-0.034-2.816-0.067-4.267-0.102-1.444-0.036-2.887-0.072-4.374-0.109-3.061-0.07-6.123-0.134-9.185-0.193-4.676-0.099-9.349-0.247-14.023-0.395-2.973-0.062-5.946-0.121-8.918-0.178-1.397-0.051-2.793-0.103-4.231-0.156-10.87-0.117-10.87-0.117-15.724 3.924-3.756 4.431-5.376 8.345-7.194 13.768-0.746 1.689-1.496 3.376-2.25 5.062-1.897 4.754-2.303 8.798-1.75 13.938 3.869 3.869 5.757 3.442 11.125 3.625 7.792 0.291 7.792 0.291 8.875 1.375-0.138 6.756-2.725 10.055-7 15-6.036 3.018-11.965 2.368-18.625 2.375-1.348 0.024-2.697 0.049-4.086 0.074-1.284 4e-3 -2.568 8e-3 -3.89 0.011-0.59 5e-3 -0.59 5e-3 -3.573 0.025-0.466-0.08-0.466-0.08-2.826-0.485-2-4-2-4-1.242-6.848 0.451-1.061 0.902-2.122 1.367-3.215 0.476-1.15 0.951-2.3 1.442-3.484 0.473-1.14 0.946-2.279 1.433-3.453 0.699-1.934 1.387-3.871 2.063-5.813 1.149-3.207 2.364-6.015 3.937-9.062 2.213-4.565 3.57-9.104 5-13.957 0.856-2.711 1.815-5.215 3-7.793 1.473-3.222 2.715-6.297 3.875-9.625 6.382-17.879 6.382-17.879 10.125-19.75 4.97-0.402 9.956-0.516 14.938-0.688 1.396-0.06 2.793-0.12 4.232-0.182 1.335-0.047 2.67-0.094 4.045-0.142 0.614-0.023 0.614-0.023 3.722-0.14 3.063 0.152 3.063 0.152 6.063 2.152 0.442 2.968 0.442 2.968 0.563 6.5 0.229 6.292 0.229 6.292 2.437 8.5 32.372 3.868 32.372 3.868 43-1 3.348-2.681 4.657-5.076 5.938-9.125 1.32-3.926 2.82-7.523 4.75-11.188 3.762-7.34 4.042-14.576 2.875-22.75-2.825-5.31-7.603-9.698-13.169-12.029-4.162-1.114-7.867-1.17-12.178-1.183-0.431-3e-3 -0.431-3e-3 -2.614-0.016-2.841-0.013-5.682-0.013-8.524-0.01-1.985-4e-3 -3.97-8e-3 -5.956-0.013-4.159-8e-3 -8.318-7e-3 -12.477-2e-3 -5.311 6e-3 -10.621-0.011-15.931-0.034-4.101-0.015-8.201-0.016-12.302-0.013-1.957 0-3.914-6e-3 -5.87-0.016-18.534-0.084-33.122 2.642-46.261 16.632zm166.7-13.494c-2.4 3.921-3.588 7.87-4.984 12.241-0.66 0.928-1.32 1.856-2 2.812-2.396 3.819-3.127 7.308-3.996 11.699-1.169 4.064-2.874 7.69-4.66 11.516-2.206 4.88-4.049 9.889-5.906 14.91-0.374 0.995-0.747 1.989-1.131 3.014-2.273 6.098-4.395 12.229-6.399 18.42-1.09 3.157-2.458 6.164-3.857 9.195-1.241 2.874-2.27 5.79-3.301 8.746-2.142 6.106-4.467 12.121-6.875 18.125-0.337 0.84-0.673 1.681-1.02 2.546-1.461 3.625-2.949 7.231-4.511 10.813-1.124 2.68-1.984 5.215-2.719 8.016-1.046 3.703-2.426 6.777-4.312 10.125-2.716 5.185-3.466 10.287-2.313 16.063 3.601 3.6 5.425 3.372 10.34 3.439 0.508 0 0.508 0 3.079-4e-3 1.072 0.01 2.144 0.021 3.248 0.031 3.554 0.028 7.107 0.034 10.661 0.037 2.468 0.01 4.935 0.02 7.403 0.031 5.179 0.018 10.357 0.023 15.535 0.021 6.633 0 13.265 0.041 19.897 0.093 5.099 0.033 10.198 0.039 15.298 0.038 2.444 3e-3 4.889 0.016 7.334 0.04 3.424 0.029 6.845 0.02 10.269 2e-3 0.504 9e-3 0.504 9e-3 3.054 0.051 5.294-0.071 7.444-0.479 11.959-3.578 3.383-3.705 4.46-6.502 5.736-11.326 1.165-4.273 2.202-7.905 4.187-11.875 0.266-2.946 0.266-2.946 0.25-6.125 5e-3 -1.055 0.01-2.109 0.016-3.196-0.266-2.679-0.266-2.679-2.266-4.679-5.753-1.501-11.74-1.073-17.637-0.993-2.291 0.018-4.582 0.035-6.873 0.051-3.601 0.031-7.202 0.067-10.804 0.113-3.482 0.042-6.965 0.066-10.448 0.086-1.081 0.019-2.162 0.038-3.276 0.057-2.656 9e-3 -5.312-0.14-7.962-0.314-3-3-3-3-3.125-6.313 1.347-5.614 3.755-10.139 6.422-15.234 1.788-3.626 2.929-7.087 3.969-10.973 1.156-3.906 2.807-7.586 4.406-11.328 2.246-5.331 4.28-10.743 6.328-16.152 0.516-1.362 1.031-2.723 1.563-4.125 0.788-2.124 1.571-4.25 2.332-6.383 1.694-4.738 3.462-9.418 5.418-14.055 0.412-0.991 0.825-1.983 1.25-3.004 1.087-2.598 2.195-5.188 3.312-7.773 6.965-16.541 6.965-16.541 5.125-25.66-3.165-3.166-7.17-2.367-11.426-2.407-0.469-5e-3 -0.469-5e-3 -2.847-0.034-1.992-0.019-3.983-0.032-5.975-0.04-3.043-0.019-6.083-0.081-9.125-0.144-1.934-0.014-3.868-0.024-5.803-0.032-0.908-0.024-1.817-0.049-2.753-0.075-4.594 0.033-6.647 0.344-10.087 3.491zm126.02 16.241c-8.971 12.99-13.83 29.845-19.101 44.625-0.895 2.365-1.901 4.642-2.961 6.937-1.395 3.195-2.447 6-3.375 9.313-1.326 4.67-3.237 8.882-5.305 13.265-1.724 3.918-2.987 7.942-4.289 12.016-0.879 2.58-1.883 4.999-3.031 7.469-1.75 3.951-2.994 7.715-4.145 11.859-0.799 2.535-1.847 4.802-2.98 7.203-2.677 6.581-2.844 13.334-1.813 20.313 4.024 6.739 9.692 9.564 17 12 2.751 0.111 5.504 0.159 8.257 0.177 0.843 6e-3 1.685 0.013 2.554 0.019 2.796 0.02 5.592 0.032 8.388 0.042 0.48 2e-3 0.48 2e-3 2.907 0.012 5.089 0.021 10.178 0.035 15.266 0.045 5.22 0.011 10.438 0.045 15.657 0.085 4.042 0.026 8.084 0.034 12.126 0.038 1.921 5e-3 3.842 0.016 5.763 0.035 16.309 0.149 32.756-0.437 45.082-12.453 2.643-3.172 4.848-6.483 7-10 0.866-1.259 1.733-2.517 2.625-3.813 2.468-4.351 4.205-8.624 5.926-13.309 1.08-2.891 2.197-5.746 3.367-8.601 3.192-7.795 6.252-15.503 8.645-23.59 1.96-6.562 4.613-12.473 7.605-18.621 2.86-6.347 5.022-12.912 7.266-19.496 4.355-12.707 4.355-12.707 7.191-17.07 4.001-7.274 4.084-16.541 2.938-24.563-2.823-5.307-7.6-9.695-13.162-12.027-4.197-1.124-7.958-1.188-12.305-1.217-0.876-8e-3 -1.752-0.016-2.654-0.025-2.887-0.024-5.774-0.033-8.661-0.04-2.02-9e-3 -4.041-0.018-6.061-0.027-4.237-0.016-8.473-0.024-12.71-0.027-5.395-5e-3 -10.79-0.043-16.185-0.089-4.176-0.03-8.353-0.037-12.529-0.038-1.987-4e-3 -3.974-0.016-5.961-0.037-20.24-0.197-34.642 4.039-48.335 19.59zm170-14c-1.722 3.601-1.722 3.601-3.062 7.625-1.692 4.871-3.404 9.595-5.625 14.25-1.974 4.193-3.326 8.345-4.571 12.8-1.16 3.633-3.038 6.918-4.742 10.325-1.067 2.953-2.037 5.928-3 8.918-3.094 9.535-6.464 19.163-11.062 28.082-1.856 3.83-3.014 7.431-4.16 11.503-0.983 3.157-2.359 6.102-3.747 9.098-1.574 3.662-2.739 7.442-3.968 11.231-1.454 4.334-3.1 8.583-4.766 12.839-0.903 2.317-1.787 4.64-2.656 6.969-0.219 0.585-0.219 0.585-1.328 3.547-0.396 1.066-0.792 2.132-1.2 3.231-1.113 2.582-1.113 2.582-3.113 4.582-0.371 2.714-0.371 2.714-0.437 5.937-0.04 1.061-0.08 2.122-0.121 3.215 0.558 2.848 0.558 2.848 2.444 4.507 4.456 1.918 8.734 1.712 13.497 1.637 0.523-2e-3 0.523-2e-3 3.166-0.014 3.454-0.019 6.907-0.06 10.361-0.103 2.408-0.02 4.816-0.04 7.224-0.058 5.052-0.043 10.103-0.096 15.154-0.158 6.45-0.077 12.9-0.128 19.35-0.17 4.977-0.036 9.954-0.086 14.93-0.14 2.377-0.024 4.753-0.044 7.13-0.059 3.338-0.024 6.675-0.067 10.013-0.114 0.484-2e-3 0.484-2e-3 2.934-0.01 8.859-0.162 18.81-1.13 25.668-7.22 0.402-0.354 0.402-0.354 2.441-2.145 0.741-0.695 1.482-1.39 2.246-2.105 0.649-0.582 1.297-1.163 1.965-1.762 6.532-6.132 10.794-12.928 13.898-21.297 1.969-5.095 4.296-10.038 6.551-15.012 4.392-10.883 4.433-19.731 1.586-30.929-0.187-3-0.187-3 1-6 2.109-2.029 4.342-3.869 6.586-5.747 7.255-6.774 10.95-16.148 14.414-25.253 0.516-1.279 1.031-2.558 1.563-3.875 7.936-22.774 7.936-22.774 3.937-32.938-3.951-5.038-8.16-8.603-14.5-10.187-3.492-0.117-6.964-0.179-10.456-0.193-1.064-8e-3 -2.128-0.017-3.224-0.025-3.521-0.025-7.041-0.041-10.562-0.056-1.202-5e-3 -2.405-0.011-3.644-0.016-6.361-0.027-12.722-0.046-19.083-0.061-5.267-0.013-10.534-0.041-15.801-0.082-6.359-0.049-12.717-0.074-19.076-0.081-2.424-6e-3 -4.847-0.022-7.27-0.046-3.39-0.031-6.779-0.031-10.169-0.024-0.5-8e-3 -0.5-8e-3 -3.032-0.05-6.222 0.056-9.472 0.99-13.683 5.634zm190 10c-3.849 5.324-7.518 10.758-11.14 16.238-1.86 2.762-1.86 2.762-3.735 5.074-1.804 2.282-3.362 4.56-4.937 7-2.023 3.084-4.135 5.844-6.625 8.563-4.182 4.632-7.297 9.828-10.563 15.125-3.484 5.445-7.196 10.6-11.203 15.671-3.802 4.927-7.309 10.072-10.734 15.266-3.824 5.678-7.819 11.264-12.102 16.606-4.297 5.384-8.11 11.144-11.898 16.894-8.661 13.061-8.661 13.061-14.063 18.688-2.815 4.047-2.495 7.068-2 11.875 3.84 3.839 8.685 3.127 13.821 3.139 1.008-5e-3 2.016-9e-3 3.054-0.014 1.031-5e-3 2.061-0.01 3.123-0.015 22.918-0.18 22.918-0.18 29.002-5.11 2.146-2.552 4.122-5.056 6.063-7.75 0.503-0.678 1.006-1.357 1.525-2.055 2.509-3.415 4.786-6.819 6.971-10.461 2.394-3.663 3.758-5.476 7.441-7.734 3.237-0.379 6.121-0.539 9.352-0.497 0.448 0 0.448 0 2.714-4e-3 1.888 2e-3 3.776 0.013 5.664 0.034 2.892 0.029 5.783 0.021 8.676 8e-3 1.836 6e-3 3.672 0.014 5.508 0.025 0.866-3e-3 1.732-6e-3 2.623-9e-3 6.117 0.097 6.117 0.097 9.463 3.443 0.293 2.679 0.293 2.679 0.188 5.875-0.024 1.149-0.047 2.299-0.071 3.484-0.078 2.427-0.156 4.854-0.234 7.281-0.023 1.15-0.046 2.3-0.07 3.485-0.035 1.054-0.07 2.108-0.106 3.195 0.293 2.68 0.293 2.68 3.293 5.68 3.383 0.311 6.577 0.444 9.961 0.433 0.491 3e-3 0.491 3e-3 2.978 0.016 2.08 6e-3 4.159 5e-3 6.239-3e-3 3.178-9e-3 6.355 0.02 9.533 0.052 2.021 1e-3 4.042 1e-3 6.063-2e-3 0.949 0.011 1.898 0.022 2.876 0.034 4.012-0.043 6.877-0.265 10.409-2.243 6.607-7.787 4.347-23.244 4.504-32.787 0.342-18.178 0.342-18.178 0.933-24.418 0.724-7.714 0.795-15.452 0.95-23.193 0.092-4.594 0.195-9.187 0.3-13.78 0.021-0.895 0.041-1.789 0.062-2.711 0.155-6.494 0.416-12.975 0.755-19.461 0.457-9.393 0.612-18.784 0.687-28.187 0.022-1.413 0.043-2.826 0.065-4.282 2e-3 -0.657 2e-3 -0.657 0.013-3.984 5e-3 -0.589 5e-3 -0.589 0.029-3.571-0.357-2.913-0.357-2.913-3.357-5.913-2.491-0.381-2.491-0.381-5.493-0.389-1.125-9e-3 -2.25-0.019-3.409-0.028-0.608 3e-3 -0.608 3e-3 -3.684 0.018-1.249-3e-3 -2.498-6e-3 -3.785-9e-3 -2.644-2e-3 -5.289 4e-3 -7.934 0.016-4.047 0.016-8.093 1e-3 -12.14-0.019-2.568 2e-3 -5.136 6e-3 -7.703 0.012-1.212-6e-3 -2.423-0.012-3.672-0.018-0.565 4e-3 -0.565 4e-3 -3.427 0.028-0.993 3e-3 -1.985 5e-3 -3.008 8e-3 -8.334 1.156-12.972 9.205-17.745 15.381zm328.11-0.961c-8.921 10.797-14.374 22.435-18.133 35.855-0.995 3.163-2.298 5.992-3.727 8.981-2.945 6.938-3.585 13.698-2.25 21.125 1.808 3.424 3.976 5.619 7 8 0.887 0.742 1.774 1.485 2.688 2.25 8.743 4.619 18.52 6.66 28.106 8.824 5.552 1.307 10.129 3.384 15.206 5.926 4.21 1.045 8.422 1.872 12.684 2.679 1.094 0.436 2.189 0.872 3.316 1.321 1.074 2.937 1.074 2.937 1 6-2.254 4.334-4.924 7.315-9 10-4.901 1.432-10.001 1.183-15.062 1.187-0.898 0.012-1.796 0.025-2.721 0.037-4.498 0.01-7.128-0.18-11.217-2.224-0.32-3.407-0.32-3.407-0.125-7.5 0.11-2.498 0.165-5 0.125-7.5-3.722-3.722-9.951-2.749-15-3-1.217-0.062-2.433-0.124-3.687-0.188-3.75-0.158-7.497-0.243-11.25-0.312-1.275-0.055-2.549-0.109-3.862-0.165-9.295-0.136-9.295-0.136-13.916 3.946-0.754 1.227-1.508 2.454-2.285 3.719-0.866 1.32-1.732 2.64-2.625 4-5.7 10.828-8.587 23.931-5.312 35.875 3.677 5.93 8.231 9.402 14.937 11.125 2.877 0.191 5.762 0.276 8.645 0.29 0.848 7e-3 1.696 0.014 2.57 0.02 2.794 0.019 5.588 0.023 8.383 0.025 1.956 7e-3 3.911 0.014 5.867 0.021 4.099 0.012 8.199 0.015 12.299 0.014 5.222 0 10.444 0.027 15.667 0.062 4.042 0.022 8.083 0.026 12.125 0.025 1.924 2e-3 3.847 0.011 5.771 0.027 15.98 0.117 28.809-1.003 40.673-12.484 8.354-8.306 13.109-16.174 17.008-27.235 0.892-2.487 1.874-4.942 2.867-7.39 0.712-1.791 1.42-3.583 2.125-5.375 0.524-1.304 1.047-2.607 1.586-3.95 6.652-17.441 6.652-17.441 4.414-26.05-3.832-6.734-9.08-10.916-16.445-13.149-2.928-0.701-5.857-1.368-8.797-2.016-0.954-0.211-1.909-0.422-2.892-0.639-1.904-0.412-3.811-0.808-5.722-1.184-4.806-1.001-8.881-2.246-13.226-4.559-4.88-2.597-9.066-3.489-14.543-4.266-1.58-0.233-3.161-0.467-4.789-0.707-0.592-0.079-0.592-0.079-3.586-0.48-0.112-5.258-0.025-8.564 3-13 5.752-4.13 12.113-3.337 18.875-3.188 0.583 7e-3 0.583 7e-3 3.531 0.041 2.865 0.035 5.73 0.085 8.594 0.147 0.019 0.529 0.019 0.529 0.113 3.21 0.066 1.375 0.132 2.749 0.2 4.165 0.058 1.369 0.116 2.738 0.175 4.148 0.169 1.147 0.338 2.295 0.512 3.477 7.571 5.047 20.169 3.111 29.125 3.187 0.9 0.013 1.801 0.026 2.728 0.04 6.759 9e-3 10.266-0.791 15.585-4.852 5.357-5.51 7.218-13.233 9.562-20.375l1-3c1.446-14.101 1.446-14.101-1.504-20.016-5.065-5.988-10.81-8.643-18.687-9.372-1.494-6e-3 -2.989-0.011-4.529-0.016-0.832-7e-3 -1.664-0.014-2.521-0.021-2.729-0.018-5.456-0.015-8.185-9e-3 -1.912-5e-3 -3.825-0.01-5.738-0.016-4.002-9e-3 -8.004-6e-3 -12.006 4e-3 -5.104 0.011-10.207-9e-3 -15.311-0.038-3.949-0.019-7.898-0.018-11.847-0.013-1.88 0-3.761-6e-3 -5.641-0.018-16.246-0.093-30.259 2.293-41.921 14.554zm193.08-8.12c-0.244 0.327-0.244 0.327-1.478 1.979-0.549 0.727-1.098 1.454-1.664 2.203-0.552 0.75-1.103 1.501-1.672 2.274-0.559 0.742-1.119 1.485-1.695 2.25-3.029 4.043-5.898 8.157-8.68 12.375-1.261 1.757-2.531 3.507-3.812 5.25-3.225 4.405-6.367 8.857-9.45 13.363-1.309 1.798-2.707 3.532-4.144 5.23-2.727 3.319-5.06 6.747-7.406 10.344-4.891 7.408-9.977 14.612-15.368 21.664-4.022 5.275-7.792 10.59-11.32 16.211-3.463 5.494-7.265 10.414-11.453 15.367-2.494 3.133-4.408 6.437-6.391 9.906-2.736 4.402-5.99 8.396-9.187 12.469-2.808 3.634-5.425 7.369-7.996 11.172-1.473 2.024-1.473 2.024-4.473 5.024-0.437 4.5-0.437 4.5 0 9 4.502 3.376 4.502 3.376 9.113 3.328 0.497-2e-3 0.497-2e-3 3.013-0.013 1.052-0.022 2.103-0.043 3.187-0.065 1.074-0.014 2.148-0.027 3.255-0.04 3.145-0.049 6.288-0.123 9.432-0.21 1.565-0.043 3.13-0.086 4.742-0.129 7.37-0.343 12.109-0.573 17.399-6.114 4.903-6.12 9.463-12.384 13.816-18.91 2.305-3.212 4.467-6.06 8.043-7.847 5.547-0.238 11.097-0.229 16.649-0.241 2.774-9e-3 5.548-0.04 8.322-0.072 1.758-6e-3 3.517-0.012 5.275-0.016 1.606-9e-3 3.211-0.018 4.865-0.028 3.889 0.357 3.889 0.357 6.889 3.357 1.071 4.728 0.786 8.287 0 13-0.136 2.226-0.219 4.457-0.25 6.687-0.026 1.118-0.051 2.235-0.078 3.387 0.328 2.926 0.328 2.926 3.328 5.926 3.383 0.311 6.577 0.444 9.961 0.433 0.491 3e-3 0.491 3e-3 2.978 0.016 2.08 6e-3 4.159 5e-3 6.239-3e-3 3.178-9e-3 6.355 0.02 9.533 0.052 2.021 1e-3 4.042 1e-3 6.063-2e-3 0.949 0.011 1.898 0.022 2.876 0.034 4.004-0.042 6.861-0.253 10.378-2.246 6.877-7.966 5.429-20.998 5.511-30.91 0.041-4.656 0.129-9.312 0.215-13.968 0.017-0.951 0.034-1.903 0.051-2.883 0.185-9.624 0.663-19.225 1.195-28.836 0.71-12.855 1.307-25.701 1.658-38.571 0.135-4.576 0.335-9.052 0.85-13.605 0.631-5.785 0.754-11.509 0.805-17.324 0.029-1.118 0.058-2.236 0.088-3.389 8e-3 -1.074 0.016-2.148 0.025-3.255 0.015-0.97 0.029-1.939 0.044-2.937-0.618-3.427-1.78-4.439-4.47-6.606-2.604-0.508-2.604-0.508-5.591-0.518-1.122-0.013-2.243-0.025-3.399-0.038-1.207 8e-3 -2.414 0.016-3.658 0.024-1.246-4e-3 -2.491-7e-3 -3.774-0.011-2.634-3e-3 -5.269 4e-3 -7.903 0.021-4.028 0.021-8.054 0-12.081-0.025-2.56 2e-3 -5.12 7e-3 -7.68 0.015-1.203-8e-3 -2.406-0.016-3.646-0.024-7.492 0.084-11.767 0.846-17.079 6.475zm131.88 0.849c-0.354 0.736-0.707 1.473-1.071 2.232-0.568 1.013-1.137 2.026-1.722 3.07-1.542 3.536-2.632 7.103-3.715 10.805-1.744 5.727-3.774 10.817-6.563 16.125-1.429 3.633-2.71 7.315-4 11-0.993 2.744-1.994 5.485-2.996 8.226-0.69 1.908-1.369 3.819-2.039 5.734-0.339 0.962-0.678 1.924-1.027 2.915-0.301 0.863-0.601 1.727-0.91 2.617-1.028 2.508-1.028 2.508-2.54 4.902-1.769 3.097-2.44 5.944-3.238 9.418-2.167 8.521-5.594 16.216-9.25 24.188-3.368 7.646-6.152 15.36-8.738 23.304-2.12 6.21-4.702 12.225-7.391 18.207-1.484 4.239-1.103 8.02-0.871 12.489 4.159 4.159 12.675 2.647 18.429 2.797 2.731 0.077 5.46 0.186 8.19 0.296 1.746 0.052 3.491 0.101 5.237 0.149 0.792 0.025 0.792 0.025 4.801 0.152 5.875-0.533 9.562-2.575 13.66-6.762 1.856-2.903 2.734-5.433 3.621-8.757 1.522-5.294 3.422-10.102 5.777-15.071 2.906-6.341 5.231-12.942 7.641-19.484 0.439-1.178 0.879-2.357 1.332-3.57 0.395-1.078 0.791-2.156 1.199-3.266 1.113-2.484 1.113-2.484 3.113-3.484 1.73-0.094 3.464-0.126 5.197-0.126 1.085-4e-3 2.169-8e-3 3.287-0.012 0.589 0 0.589 0 3.567-3e-3 2.477-0.018 4.954-0.038 7.432-0.059 3.917-0.029 7.834-0.05 11.751-0.051 3.773-3e-3 7.544-0.038 11.317-0.078 1.171 8e-3 2.342 0.015 3.548 0.022 8.136-0.122 8.136-0.122 12.073-3.063 7.202-10.364 12.543-22.803 10.828-35.63-2.54-2.54-3.477-2.268-7-2.319-0.521-0.01-0.521-0.01-3.155-0.06-0.563-6e-3 -0.563-6e-3 -3.415-0.036-1.152-0.019-2.303-0.038-3.489-0.058-3.689-0.06-7.377-0.106-11.066-0.152-2.496-0.039-4.992-0.078-7.488-0.118-6.129-0.096-12.258-0.18-18.387-0.257 0.48-4.992 0.888-6.851 4-11 0.516-1.547 1.031-3.094 1.563-4.688 0.474-1.423 0.948-2.846 1.437-4.312 11.945-5.973 33.935-2.028 47.155-1.904 3.47 0.03 6.941 0.047 10.412 0.064 0.529 6e-3 0.529 6e-3 3.21 0.041 6.144 0.02 11.444 0.029 16.442-3.983 3.364-4.19 4.906-9.232 6.781-14.218 0.199-0.518 0.199-0.518 1.207-3.137 2.247-6.202 3.432-11.264 2.793-17.863-3.426-3.426-8.524-2.341-13.147-2.37-1.161-0.015-2.322-0.03-3.519-0.045-3.856-0.045-7.712-0.073-11.568-0.097-1.315-0.01-2.629-0.019-3.984-0.029-6.957-0.047-13.915-0.081-20.873-0.105-7.194-0.027-14.387-0.107-21.582-0.197-5.524-0.06-11.049-0.08-16.574-0.089-2.652-0.012-5.304-0.039-7.956-0.081-3.712-0.056-7.42-0.055-11.132-0.041-1.097-0.029-2.195-0.058-3.325-0.088-7.14 0.107-9.818 1.592-13.269 7.91zm144.93-2.768c-1.222 2.559-2.336 5.172-3.375 7.812-0.602 1.517-1.204 3.035-1.824 4.598-0.594 1.514-1.189 3.029-1.801 4.59-0.271 0.659-0.271 0.659-1.644 3.996-2.409 5.86-4.626 11.674-6.418 17.754-1.494 5.061-3.404 9.695-5.657 14.46-4.27 9.298-7.462 19.073-10.753 28.747-1.528 4.043-1.528 4.043-3.555 8.054-1.96 3.962-3.247 7.749-4.473 11.989-1.718 5.694-3.767 10.71-6.5 16-1.062 2.975-2.031 5.973-3 8.98-1.731 5.227-3.697 10.387-6.14 15.324-2.674 5.441-3.684 9.653-2.86 15.696 4.495 4.258 10.44 3.394 16.229 3.328 1.134-2e-3 2.267-3e-3 3.436-4e-3 3.747-9e-3 7.494-0.041 11.241-0.074 2.604-0.016 5.208-0.031 7.813-0.045 5.457-0.033 10.914-0.079 16.371-0.132 6.998-0.066 13.996-0.096 20.994-0.116 5.377-0.021 10.754-0.064 16.131-0.114 2.581-0.021 5.161-0.033 7.741-0.038 3.606-9e-3 7.21-0.05 10.816-0.098 0.534 2e-3 0.534 2e-3 3.237 0.011 7.218-0.143 7.218-0.143 11.069-3.006 2.544-3.59 4.074-7.242 5.672-11.337 0.593-1.498 1.186-2.996 1.797-4.54 1.826-4.821 2.612-8.254 2.641-13.398 0.014-1.156 0.028-2.313 0.043-3.504-0.231-2.933-0.231-2.933-2.231-4.933-2.746-0.279-2.746-0.279-6.285-0.319-1.322-0.02-2.643-0.04-4.004-0.06-1.434-0.012-2.867-0.024-4.344-0.036-1.462-0.019-2.924-0.038-4.43-0.058-4.687-0.06-9.375-0.106-14.062-0.152-3.17-0.039-6.341-0.078-9.512-0.118-7.787-0.096-15.575-0.181-23.363-0.257-1.346-5.384 0.468-7.147 3-12 0.503-1.618 0.983-3.243 1.438-4.875 1.562-4.125 1.562-4.125 3.679-5.379 3.642-0.943 6.803-0.896 10.571-0.809 1.673 0.015 3.346 0.027 5.019 0.035 0.964 6e-3 1.928 0.011 2.921 0.016 7.084 0.024 14.164-0.015 21.247-0.113 1.504 2e-3 3.008 5e-3 4.558 7e-3 1.422-0.026 2.844-0.051 4.309-0.078 1.278-0.01 2.555-0.021 3.871-0.031 4.535-1.035 5.812-2.996 8.387-6.773 1.31-2.48 2.539-5.004 3.688-7.563 0.581-1.28 1.162-2.56 1.761-3.879 0.512-1.174 1.024-2.349 1.551-3.558 0.392-0.873 0.784-1.746 1.188-2.645 1.454-4.217 1.097-7.916 0.812-12.355-3.823-3.823-5.024-3.986-10.424-4.066-1.869 0.02-3.738 0.045-5.607 0.073-2.027 0.018-4.055 0.035-6.082 0.051-3.2 0.031-6.4 0.067-9.599 0.113-3.086 0.042-6.171 0.066-9.257 0.086-0.959 0.019-1.918 0.038-2.907 0.057-2.377 9e-3 -4.753-0.14-7.124-0.314l-3-3c0.555-3.067 0.555-3.067 1.875-6.563 0.41-1.156 0.82-2.313 1.242-3.504 1.883-2.933 1.883-2.933 4.608-4.111 6.206-1.194 12.261-1.006 18.564-0.912 2.826 0.02 5.651 0.04 8.477 0.06 4.442 0.044 8.883 0.092 13.325 0.146 4.295 0.048 8.59 0.078 12.886 0.106 0.665 0.011 0.665 0.011 4.031 0.066 1.238 7e-3 2.477 0.014 3.752 0.02 1.087 0.013 2.174 0.026 3.294 0.039 4.482-0.528 7.042-2.371 10.063-5.633 2.047-2.95 3.535-5.878 5.008-9.152 0.498-1.092 0.995-2.184 1.508-3.309 2.24-5.332 3.646-9.681 3.617-15.503 5e-3 -1.037 0.01-2.073 0.016-3.141-0.266-2.609-0.266-2.609-2.266-4.609-3.72-0.211-7.366-0.294-11.087-0.291-1.155-7e-3 -2.309-0.013-3.499-0.02-3.833-0.019-7.666-0.023-11.5-0.025-2.655-7e-3 -5.311-0.014-7.966-0.021-5.574-0.012-11.148-0.015-16.721-0.014-7.152 0-14.303-0.027-21.455-0.062-5.487-0.022-10.974-0.026-16.461-0.025-2.637-2e-3 -5.274-0.011-7.911-0.026-3.685-0.02-7.369-0.014-11.054-2e-3 -1.095-0.012-2.19-0.023-3.318-0.034-1.004 8e-3 -2.008 0.016-3.043 0.025-0.871-1e-3 -1.742-2e-3 -2.64-3e-3 -3.162 0.671-4.321 2.026-6.345 4.498zm138.8-1.636c-1.867 2.727-3.185 5.238-4.367 8.323-2.427 6.289-2.427 6.289-3.641 8.895-2.88 6.277-4.007 12.529-2.797 19.418 3.673 2.448 5.622 2.292 10.004 2.378 1.38 0.035 2.76 0.069 4.182 0.104 1.444 0.026 2.889 0.053 4.377 0.08 2.855 0.06 5.711 0.123 8.566 0.191 1.269 0.024 2.538 0.048 3.846 0.073 3.025 0.174 3.025 0.174 5.025 1.174-0.547 5.06-1.702 9.196-3.687 13.875-2.318 5.593-4.416 11.208-6.375 16.937-1.912 5.515-4.045 10.591-6.785 15.731-1.865 3.975-2.966 8.163-4.192 12.371-1.045 3.356-2.418 6.496-3.906 9.679-1.273 2.903-2.318 5.853-3.367 8.844-2.021 5.743-4.127 11.444-6.313 17.125-0.57 1.486-1.139 2.973-1.726 4.504-1.649 3.934-1.649 3.934-3.336 6.641-2.342 4.09-1.669 7.662-1.313 12.293 5.829 5.828 16.129 4.056 24 4.125 5.066-0.049 10.127-0.135 15.188-0.375 1.004-0.047 2.008-0.093 3.043-0.141 3.583-0.788 5.197-1.998 7.769-4.609 6.409-11.466 10.348-24.72 14.895-37.018 4.623-12.474 9.426-24.876 14.355-37.232 0.413-1.036 0.825-2.072 1.25-3.139 1.808-4.511 3.65-8.986 5.676-13.404 1.632-3.765 2.772-7.299 3.762-11.27 1.59-5.807 3.468-10.114 7.062-14.937 3.219-1.61 6.474-1.09 10.043-1.071 2.511-0.016 5.021-0.031 7.532-0.048 1.733-4e-3 3.466 2e-3 5.199 0.019 16.301 0.137 16.301 0.137 20.769-4.127 2.009-3.085 3.562-5.521 4.582-9.023 1.256-3.992 2.735-7.58 4.625-11.313 2.539-5.437 2.838-9.479 2.25-15.437-2.58-2.581-3.59-2.257-7.18-2.275-1.098-0.01-2.196-0.02-3.327-0.03-0.605 0-0.605 0-3.666-2e-3 -0.635-4e-3 -0.635-4e-3 -3.848-0.025-4.218-0.024-8.436-0.033-12.655-0.04-2.922-8e-3 -5.844-0.018-8.766-0.027-6.135-0.016-12.269-0.024-18.403-0.027-7.869-5e-3 -15.738-0.043-23.607-0.089-6.038-0.029-12.077-0.037-18.115-0.038-2.902-4e-3 -5.803-0.016-8.705-0.037-4.056-0.027-8.11-0.022-12.167-0.01-1.203-0.015-2.407-0.029-3.648-0.045-8.139 0.072-8.139 0.072-12.108 3.009zm142.2 0.636c-0.388 2.39-0.388 2.39-0.398 5.25-6e-3 1.069-0.013 2.139-0.019 3.242 7e-3 0.578 7e-3 0.578 0.042 3.508 9e-3 1.199 0.018 2.399 0.027 3.635 0.26 16.386 1.981 32.649 5.411 48.677 2.238 10.524 3.312 20.962 3.937 31.688 0.097 1.639 0.194 3.279 0.293 4.968 0.299 9.618-0.824 16.53-5.293 25.032-2.682 5.81-5.038 11.682-7.168 17.714-0.832 2.286-0.832 2.286-1.832 4.286-0.121 1.83-0.175 3.665-0.187 5.5-0.015 0.979-0.029 1.959-0.043 2.968 0.23 2.532 0.23 2.532 2.23 4.532 7.862 1.357 16.048 1.177 24 1 1.586-6e-3 3.171-0.011 4.805-0.016 1.711-0.034 3.422-0.071 5.133-0.109 1.597-0.024 3.194-0.047 4.84-0.071 4.222-0.804 4.222-0.804 7.117-3.523 6.262-9.76 9.922-20.853 13.858-31.703 5.428-14.844 13.418-24.706 24.103-36.157 6.217-6.766 12.107-13.817 18.027-20.843 7.122-8.452 14.3-16.761 22.117-24.578 4.192-4.567 8.311-9.196 12.375-13.875 2.966-3.406 6.007-6.738 9.063-10.063 0.933-1.023 1.866-2.047 2.828-3.102 1.712-1.853 3.448-3.686 5.219-5.484 5.373-5.583 5.373-5.583 6.14-10.414-0.625-3.062-0.625-3.062-2.625-5.062-3.341-0.287-6.594-0.45-9.941-0.512-0.997-0.019-1.994-0.037-3.021-0.056-2.116-0.032-4.232-0.058-6.348-0.078-2.156-0.028-4.312-0.075-6.467-0.143-17.842-0.561-17.842-0.561-23.572 2.687-2.281 2.257-3.952 4.391-5.651 7.102-1.156 1.466-2.322 2.926-3.5 4.375-0.558 0.741-1.116 1.482-1.691 2.246-2.022 2.658-4.124 5.237-6.246 7.816-6.453 7.864-12.785 15.742-18.703 24.02-7.551 10.326-7.551 10.326-13.86 12.543-0.025-0.961-0.05-1.922-0.076-2.912-0.244-9.259-0.507-18.517-0.792-27.775-0.079-2.585-0.156-5.17-0.229-7.755-0.078-2.645-0.177-5.289-0.278-7.933-0.049-1.39-0.098-2.78-0.148-4.211-0.542-3.884-1.682-6.62-4.477-9.414-3.358-0.127-6.695-0.189-10.055-0.204-1.012-5e-3 -2.024-0.011-3.068-0.017-2.147-9e-3 -4.294-0.016-6.441-0.02-3.29-9e-3 -6.579-0.04-9.869-0.072-2.082-6e-3 -4.164-0.012-6.247-0.016-0.987-0.012-1.975-0.024-2.992-0.037-6.985 0.023-6.985 0.023-10.328 3.366z" fill="#F9E1E1"/>
<path transform="translate(1313.2 224.74)" d="m0 0c1.393-4e-3 2.785-8e-3 4.22-0.012 4.648-0.01 9.295-6e-3 13.943-2e-3 3.34-4e-3 6.681-9e-3 10.021-0.015 8.121-0.013 16.243-0.015 24.365-0.013 6.607 2e-3 13.215 0 19.822-4e-3 0.943 0 1.885-1e-3 2.856-2e-3 1.914-1e-3 3.829-2e-3 5.743-3e-3 17.94-0.011 35.881-9e-3 53.821-3e-3 16.379 5e-3 32.758-6e-3 49.137-0.025 16.848-0.019 33.696-0.028 50.544-0.024 9.446 2e-3 18.893 0 28.34-0.015 8.046-0.012 16.092-0.013 24.138-1e-3 4.097 6e-3 8.195 6e-3 12.292-5e-3 40.748-0.096 40.748-0.096 57.579 7.385 1.911 0.504 3.828 0.982 5.75 1.437 4.857 1.25 7.453 3.25 11.25 6.563 1.646 0.718 3.315 1.381 5 2 4.478 1.67 7.443 3.751 11 7 1.279 0.948 2.558 1.897 3.875 2.875 7.301 5.423 13.705 11.705 20.125 18.125 0.805 0.722 1.609 1.443 2.438 2.187 2.957 3.246 4.968 6.673 7.152 10.465 1.41 2.348 1.41 2.348 3.535 4.91 1.789 2.326 2.786 4.323 3.938 7 1.937 4.438 1.937 4.438 4.937 8.438 0.754 2.559 1.411 5.148 2 7.75 0.964 4.224 1.964 8.157 3.547 12.195 7.636 21.307 3.167 47.296-2.875 68.348-0.714 2.876-1.103 5.706-1.484 8.644-0.87 5.745-3.057 10.105-5.809 15.176-1.345 2.817-1.963 5.132-2.441 8.199-1.038 5.191-2.8 7.504-5.938 11.688-0.711 1.648-1.376 3.316-2 5-1.71 4.571-4.062 8.083-7 12-0.47 0.948-0.941 1.897-1.425 2.875-6.199 12.305-16.748 23.358-27.2 32.187-3.375 2.938-3.375 2.938-6.375 6.938-1.991 1.017-3.992 2.015-6 3-0.495 0.412-0.495 0.412-3 2.5-2.92 2.433-5.591 3.866-9 5.5-0.886 0.639-1.773 1.278-2.687 1.937-3.752 2.336-7.434 3.605-11.629 4.938-2.684 1.125-2.684 1.125-4.82 3.125-4.341 3.032-8.941 3.29-14.114 4-2.007 0.279-4.012 0.571-6.015 0.875-0.885 0.121-1.769 0.242-2.681 0.367-3.054 0.758-3.054 0.758-6.976 2.772-5.765 2.582-11.139 2.554-17.377 2.518-1.214 9e-3 -2.429 0.018-3.68 0.027-4.055 0.025-8.111 0.022-12.167 0.018-2.912 0.012-5.825 0.026-8.738 0.041-7.9 0.037-15.8 0.048-23.7 0.055-7.426 0.01-14.851 0.036-22.276 0.062-14.706 0.051-29.412 0.083-44.119 0.104-14.274 0.02-28.549 0.054-42.824 0.104-0.88 3e-3 -1.76 6e-3 -2.667 9e-3 -0.878 3e-3 -1.757 6e-3 -2.662 0.01-15.429 0.053-30.858 0.095-46.288 0.131-6.573 0.015-13.146 0.034-19.719 0.055-7.731 0.025-15.461 0.039-23.191 0.045-2.843 3e-3 -5.687 0.011-8.53 0.022-3.867 0.014-7.735 0.016-11.602 0.014-1.137 7e-3 -2.274 0.014-3.445 0.021-7.75-0.022-7.75-0.022-11.093-2.25-0.104-4.823 1.533-8.096 3.813-12.188 3.388-6.38 4.613-12.714 5.718-19.782 0.89-5.345 2.384-8.642 5.469-13.03 1.125-3.551 1.125-3.551 2-7.313 1.086-4.381 2.174-8.065 4.063-12.187 1.776-4.125 2.553-7.427 3.312-11.813 1.16-6.389 3.168-11.407 6.27-17.082 1.61-3.094 2.459-6.245 3.355-9.605 3.38-1.69 7.217-1.117 10.934-1.094 0.937 2e-3 1.874 4e-3 2.84 6e-3 3.16 8e-3 6.32 0.023 9.481 0.038 2.258 6e-3 4.516 0.013 6.775 0.019 4.876 0.013 9.752 0.029 14.628 0.047 7.721 0.028 15.442 0.045 23.164 0.06 2.643 5e-3 5.287 0.01 7.931 0.015 0.662 1e-3 0.662 1e-3 4.013 8e-3 17.98 0.036 35.96 0.081 53.941 0.148 12.12 0.044 24.24 0.074 36.36 0.088 6.41 8e-3 12.821 0.024 19.232 0.057 6.043 0.031 12.086 0.044 18.13 0.042 2.207 3e-3 4.414 0.012 6.621 0.029 33.416 0.247 33.416 0.247 45.95-10.463 0.671-0.548 1.341-1.096 2.032-1.66 2.045-1.727 4.009-3.517 5.968-5.34 0.706-0.629 1.411-1.258 2.137-1.907 5-4.658 7.407-8.724 9.863-15.093 0.26-0.458 0.26-0.458 1.571-2.774 3.302-7.452 2.482-16.59 0.258-24.273-2.522-6.162-5.007-10.35-9.829-14.953-0.903-1.179-1.807-2.357-2.738-3.571-3.754-3.947-7.411-5.588-12.449-7.304-0.806-0.294-1.613-0.588-2.443-0.891-6.636-2.405-11.894-3.381-18.922-3.375-0.991-3e-3 -1.983-6e-3 -3.004-9e-3 -3.337-8e-3 -6.674-0.01-10.011-0.011-2.387-5e-3 -4.773-0.01-7.16-0.015-6.493-0.014-12.987-0.02-19.481-0.024-4.054-3e-3 -8.108-8e-3 -12.162-0.012-12.675-0.014-25.35-0.023-38.025-0.027-14.648-5e-3 -29.296-0.022-43.945-0.051-11.312-0.022-22.624-0.032-33.936-0.033-6.761-1e-3 -13.523-7e-3 -20.284-0.025-6.358-0.016-12.716-0.019-19.073-0.01-2.336 1e-3 -4.673-4e-3 -7.009-0.013-3.184-0.013-6.367-7e-3 -9.551 3e-3 -0.929-8e-3 -1.858-0.016-2.815-0.024-4.802 0.037-8.249 0.223-11.992 3.392-1.66 3.336-1.66 3.336-3.062 7.375-0.503 1.431-1.006 2.861-1.524 4.336-1.581 4.798-3.099 9.609-4.546 14.449-1.425 4.665-2.953 9.203-5.336 13.469-2.239 4.927-2.986 10.087-3.905 15.382-1.001 5.271-2.624 8.617-5.627 12.989-0.871 3.48-0.871 3.48-1.437 7.187-1.056 5.891-2.64 10.592-5.301 15.914-2.033 4.671-3.102 9.569-4.269 14.516-0.953 3.248-2.171 5.559-3.993 8.383-1.461 4.211-2.17 8.291-2.75 12.687-0.9 5.791-3.035 10.118-5.8 15.235-1.994 4.234-2.818 8.491-3.739 13.058-1.002 4.257-2.937 8.03-4.711 12.02-0.516 2.137-0.992 4.284-1.437 6.437-0.892 4.22-1.946 7.622-4.063 11.375-2.339 4.277-3.162 8.193-3.937 13-1.103 6.718-3.102 11.976-6.149 18.024-1.924 4.306-2.769 8.645-3.703 13.25-0.711 2.914-0.711 2.914-2.711 6.851-1.898 3.857-2.646 6.816-3.437 11-1.014 5.217-2.45 8.856-5.309 13.387-1.777 3.793-2.428 7.639-3.254 11.738-2.58 12.322-2.58 12.322-7 16.938-6.544 1.101-13.049 1.148-19.672 1.145-1.028 3e-3 -2.055 7e-3 -3.113 0.01-3.368 0.01-6.737 0.012-10.105 0.013-2.352 3e-3 -4.704 6e-3 -7.055 0.01-4.916 6e-3 -9.831 8e-3 -14.747 7e-3 -6.3 0-12.601 0.014-18.901 0.031-4.851 0.011-9.701 0.013-14.551 0.012-2.324 2e-3 -4.648 6e-3 -6.971 0.014-3.243 0.01-6.486 7e-3 -9.729 1e-3 -0.959 5e-3 -1.918 0.011-2.907 0.017-4.494-0.022-8.223-0.135-12.249-2.26 0.654-4.704 1.866-9 3.375-13.5 0.421-1.269 0.841-2.537 1.274-3.844 1.351-3.656 1.351-3.656 2.898-6.539 2.553-5.476 3.148-11.474 4.196-17.391 1.339-5.034 3.439-8.384 6.257-12.726 1.004-3.274 1.004-3.274 1.563-6.375 0.833-4.095 1.782-7.789 3.437-11.625 1.645-3.817 2.603-7.492 3.438-11.563 1.046-4.913 2.628-8.307 5.305-12.586 2.183-4.95 2.893-10.35 3.738-15.67 0.915-5.4 2.426-8.737 5.519-13.181 1.125-3.805 1.125-3.805 2-7.875 1.04-4.487 1.972-8.068 4.063-12.188 2.435-4.948 3.118-9.728 3.934-15.156 1.003-3.781 1.003-3.781 3.472-7.652 2.846-4.643 3.673-8.349 4.594-13.692 1.116-6.425 2.65-10.849 5.937-16.437 0.756-2.622 1.422-5.271 2-7.938 1.041-4.464 1.981-8.024 4.063-12.125 1.926-3.913 2.575-6.92 3.312-11.187 0.923-5.129 2.12-9.184 4.625-13.75 3.11-5.677 4.131-11.065 5.227-17.403 0.932-4.334 2.558-7.904 4.516-11.855 1.861-4.059 3.037-8.271 4.285-12.551 0.909-2.983 1.965-5.85 3.097-8.754 1.468-3.887 2.261-7.508 2.813-11.625 0.678-4.711 1.974-7.397 4.773-11.301 2.548-4.964 3.155-10.658 4.25-16.089 1.12-4.766 2.777-8.726 4.969-13.071 1.07-2.351 1.07-2.351 1.82-6.539 3.787-14.578 13.447-27.345 26.188-35.258 12.355-6.528 23.495-7.855 37.241-7.815z"/>
<path transform="translate(486.55 224.62)" d="m0 0c1.396-5e-3 2.792-9e-3 4.23-0.014 4.641-0.012 9.281-3e-3 13.922 7e-3 3.342-4e-3 6.685-0.01 10.027-0.016 8.115-0.013 16.23-0.011 24.345-2e-3 6.601 7e-3 13.202 8e-3 19.804 5e-3 0.942-1e-3 1.884-1e-3 2.854-2e-3 1.915-1e-3 3.829-2e-3 5.743-3e-3 17.925-8e-3 35.85 1e-3 53.776 0.018 15.348 0.013 30.697 0.011 46.046-3e-3 17.858-0.016 35.716-0.023 53.573-0.013 1.909 1e-3 3.817 2e-3 5.725 3e-3 0.939 0 1.877 0 2.844 1e-3 6.585 2e-3 13.169-2e-3 19.753-9e-3 8.037-8e-3 16.075-6e-3 24.112 0.01 4.094 8e-3 8.187 9e-3 12.28 1e-3 21.666-0.04 40.888 0.798 61.42 8.398 1.526 0.516 3.052 1.031 4.625 1.562 3.375 1.438 3.375 1.438 5.812 3.438 2.563 2 2.563 2 7.125 3.437 4.793 1.688 5.552 2.654 8.438 6.563 1.876 1.185 3.756 2.365 5.664 3.5 11.135 7.15 20.722 16.741 28.336 27.5 0.588 0.829 1.176 1.658 1.781 2.512 1.215 1.721 2.421 3.449 3.617 5.183 1.247 1.795 2.541 3.557 3.852 5.305 1.946 3.336 2.893 6.663 3.898 10.375 0.874 2.692 2.029 4.912 3.414 7.375 3.207 6.162 3.8 12.406 4.438 19.25 0.111 1.056 0.222 2.111 0.336 3.199 1.404 15.734 1.183 31.496-0.649 47.176-0.117 1.027-0.235 2.054-0.356 3.112-0.911 7.096-2.13 13.932-5.933 20.118-1.849 3.166-2.205 6.097-2.773 9.707-1.172 6.319-2.999 10.335-6.625 15.688-1.397 3.449-2.661 6.924-3.887 10.437-0.367 0.846-0.735 1.692-1.113 2.563h-2c-0.217 0.691-0.217 0.691-1.313 4.187-1.544 4.605-3.15 8.324-6.687 11.75-2 2.063-2 2.063-3.438 5-1.753 3.438-3.808 5.373-6.562 8.063-1.081 1.424-2.143 2.862-3.188 4.312-0.928 1.217-1.856 2.434-2.812 3.688h-2l-2 4c-1.77 1.746-1.77 1.746-3.813 3.437-2.396 2.017-4.582 3.978-6.75 6.25-2.878 2.731-5.99 4.37-9.437 6.313-0.639 0.66-1.279 1.32-1.938 2-2.951 2.862-6.367 4.235-10.062 6-1.155 0.681-2.31 1.361-3.5 2.062-3.5 1.938-3.5 1.938-7.625 3.438-3.875 1.5-3.875 1.5-5.918 3.469-4.393 3.017-8.935 3.313-14.145 4.031-1.995 0.28-3.988 0.572-5.98 0.875-0.879 0.121-1.759 0.242-2.665 0.367-3.167 0.758-3.167 0.758-7.585 2.775-6.065 2.441-11.587 2.531-18.06 2.464-1.221 3e-3 -2.443 7e-3 -3.701 0.01-4.074 7e-3 -8.146-0.015-12.22-0.037-2.928-1e-3 -5.855 0-8.783 2e-3 -7.935 1e-3 -15.87-0.023-23.805-0.05-7.456-0.023-14.913-0.027-22.369-0.031-14.764-9e-3 -29.527-0.035-44.291-0.073-14.336-0.037-28.673-0.065-43.01-0.082-0.885-1e-3 -1.769-2e-3 -2.681-4e-3 -4.437-5e-3 -8.875-0.01-13.312-0.015-36.784-0.041-73.567-0.112-110.35-0.201-1.169-4.747-0.495-5.842 2-10 0.458-2.451 0.913-4.903 1.344-7.359 0.674-2.714 1.645-4.661 3.031-7.079 2.61-4.815 3.622-9.728 4.625-15.062 1.181-6.269 2.662-11.56 5.844-17.109 1.899-3.928 2.535-8.123 3.41-12.375 0.746-3.016 0.746-3.016 2.746-6.891 1.966-4.055 2.631-7.155 3.375-11.563 1.252-6.924 3.207-11.111 7.625-16.562 3.341-1.67 7.096-1.117 10.768-1.093 0.46 1e-3 0.46 1e-3 2.786 6e-3 3.101 7e-3 6.201 0.022 9.301 0.037 2.216 7e-3 4.432 0.013 6.647 0.019 4.785 0.013 9.569 0.029 14.353 0.047 7.579 0.028 15.158 0.045 22.738 0.06 2.595 5e-3 5.191 0.01 7.786 0.015 1.3 3e-3 2.601 6e-3 3.94 8e-3 17.649 0.036 35.297 0.081 52.945 0.148 11.897 0.044 23.793 0.075 35.69 0.089 6.291 8e-3 12.582 0.023 18.874 0.056 5.933 0.032 11.866 0.044 17.8 0.042 2.164 3e-3 4.328 0.012 6.492 0.029 20.544 0.156 40.015-1.017 55.634-16.127 0.741-0.771 1.482-1.542 2.246-2.336 0.681-0.639 1.361-1.279 2.062-1.938 2.335-2.485 4.063-5.219 5.938-8.062l3-3c1.914-5.877 2.27-11.281 2.25-17.438 5e-3 -1.586 0.01-3.173 0.016-4.808-0.69-12.344-0.69-12.344-4.641-15.879-0.866-0.619-1.733-1.238-2.625-1.875-0.289-0.547-0.289-0.547-1.75-3.313-5.725-9.383-15.351-13.236-25.654-16.116-8.745-1.923-17.928-1.408-26.829-1.363-2.397-0.01-4.794-0.022-7.19-0.037-6.458-0.031-12.916-0.025-19.374-0.01-5.401 9e-3 -10.802-1e-3 -16.203-0.01-12.734-0.023-25.467-0.016-38.201 0.012-13.133 0.028-26.265 8e-3 -39.398-0.035-11.295-0.036-22.589-0.044-33.884-0.031-6.738 8e-3 -13.476 7e-3 -20.215-0.021-6.324-0.024-12.648-0.014-18.972 0.022-2.322 8e-3 -4.643 4e-3 -6.964-0.013-3.166-0.022-6.33 0-9.496 0.033-0.46-8e-3 -0.46-8e-3 -2.789-0.05-5.033 0.105-6.851 0.715-10.561 4.225-4.723 6.947-6.938 13.576-8.614 21.715-0.906 2.992-0.906 2.992-2.914 6.347-2.227 4.074-2.779 7.246-3.367 11.832-1.073 6.84-2.866 11.845-6.211 17.844-2.103 4.416-2.814 8.952-3.707 13.735-0.766 3.504-2.08 6.53-3.668 9.742-1.893 4.539-2.877 9.361-4.012 14.136-1.027 3.356-1.027 3.356-4.027 7.356-0.844 3.102-0.844 3.102-1.5 6.625-1.484 7.41-2.961 14.441-6.5 21.187-2.186 4.577-3.109 8.82-4.152 13.754-1.14 4.616-2.878 8.896-4.657 13.297-1.422 3.744-2.421 7.507-3.32 11.406-0.871 2.731-0.871 2.731-2.84 6.465-2.195 4.61-3.085 8.686-3.969 13.703-1.898 10.055-1.898 10.055-4.625 14.438-2.761 4.673-3.614 8.74-4.691 14.004-0.746 3.121-0.746 3.121-2.746 7.558-1.753 4-2.586 7.135-3.375 11.375-0.952 4.887-2.237 8.761-4.625 13.125-3.12 5.725-4.224 11.198-5.164 17.618-0.939 3.87-2.589 6.189-4.836 9.445-0.941 2.922-0.941 2.922-1.563 5.75-1.106 5.029-1.106 5.029-4.437 7.25-3.708 0.197-7.341 0.273-11.049 0.259-1.139 3e-3 -2.277 7e-3 -3.45 0.01-3.772 9e-3 -7.545 3e-3 -11.317-3e-3 -2.615 1e-3 -5.229 3e-3 -7.843 5e-3 -5.482 3e-3 -10.963-1e-3 -16.445-0.01-7.041-0.012-14.082-5e-3 -21.123 7e-3 -5.398 7e-3 -10.796 5e-3 -16.195 0-2.597-2e-3 -5.194 0-7.79 5e-3 -3.623 5e-3 -7.246-3e-3 -10.868-0.014-1.083 4e-3 -2.165 8e-3 -3.28 0.012-7.412-0.043-7.412-0.043-9.64-2.271 0.154-4.016 0.597-6.429 2.93-9.738 2.369-3.734 3.149-6.887 4.07-11.2 0.932-4.358 1.793-7.705 4.035-11.574 2.192-3.891 2.78-6.96 3.402-11.363 0.971-5.777 2.171-9.725 5.305-14.586 2.411-4.866 3.151-10.315 4.289-15.594 1.078-4.388 2.928-7.928 4.969-11.945 0.524-2.282 0.999-4.575 1.437-6.875 0.857-4.402 1.788-7.977 4-11.875 2.551-4.598 3.515-9.108 4.563-14.25 1.265-6.197 2.768-11.18 5.848-16.664 1.756-3.561 2.469-7.276 3.339-11.133 1.195-4.708 2.937-9.187 4.622-13.738 1.431-4.162 2.431-8.342 3.32-12.649 0.871-2.816 0.871-2.816 2.863-6.16 2.199-4.004 2.887-7.221 3.57-11.719 0.81-5.278 1.893-9.252 4.438-13.937 2.756-6.002 4.366-11.983 5.937-18.379 1.063-3.621 1.063-3.621 2.567-6.586 2.37-4.808 3.196-9.948 4.336-15.16 1.16-3.875 1.16-3.875 3.199-6.895 2.369-3.6 2.795-6.419 3.398-10.668 1.025-6.116 2.528-10.957 5.305-16.46 2.01-4.557 3.04-9.338 4.168-14.176 1.09-3.676 1.09-3.676 3.086-7.563 2.809-5.765 3.696-11.605 4.879-17.871 1.125-4.242 1.125-4.242 3.129-7.219 2.628-3.981 3.116-7.59 3.933-12.273 1.387-7.367 3.374-13.223 7.063-19.75 0.474-1.341 0.949-2.681 1.437-4.063 2.828-7.126 6.972-13.083 13-17.875 2.563-2.062 2.563-2.062 4.387-4 2.385-2.26 4.631-3.624 7.551-5.125 0.915-0.486 1.83-0.972 2.773-1.472 10.572-4.021 21.183-4.905 32.398-4.846z"/>
<path transform="translate(1174,226)" d="m0 0c0.622 5.352-0.893 7.738-4 12-2.765 4.81-3.865 9.386-4.938 14.812-2.075 9.815-2.075 9.815-4.124 14.063-2.049 4.361-3.065 8.437-4.032 13.133-0.906 2.992-0.906 2.992-2.906 6.324-2.907 5.332-3.286 10.654-4.094 16.609-0.951 4.26-2.362 6.571-4.906 10.059-1.68 3.596-2.522 7.119-3.312 11-1.318 5.942-3.288 11.371-5.567 17.004-1.121 2.996-1.121 2.996-2.121 7.684-0.85 3.665-1.659 5.697-3.438 8.874-3.021 5.644-3.847 11.422-4.789 17.704-0.77 3.719-1.939 6.43-3.773 9.734-2.105 4.463-3.365 8.61-4.344 13.438-0.772 3.015-1.87 5.799-3.031 8.687-2.409 6.019-4.057 12.06-5.535 18.367-1.09 3.508-1.09 3.508-3.125 6.977-2.145 3.854-2.739 6.809-3.34 11.156-1.135 6.779-3.136 12.106-6.211 18.211-1.925 4.307-2.77 8.648-3.703 13.254-0.711 2.91-0.711 2.91-2.711 6.785-1.958 4.038-2.666 7.175-3.438 11.563-0.984 5.446-2.308 9.218-5.308 13.929-2.431 5.104-3.101 10.818-4.219 16.328-1.079 4.488-2.627 7.904-4.879 11.879-1.882 3.949-2.532 8.146-3.41 12.41-0.746 3.016-0.746 3.016-2.746 6.891-2.468 5.09-3.222 9.977-4.094 15.539-0.993 3.931-2.603 6.283-4.906 9.586-1.734 4.339-2.529 8.654-3.312 13.25-1.11 5.786-2.695 10.347-5.559 15.461-1.203 2.44-1.75 4.622-2.254 7.289-0.875 4-0.875 4-3.875 6-3.708 0.197-7.341 0.273-11.049 0.259-1.138 3e-3 -2.277 7e-3 -3.45 0.01-3.772 9e-3 -7.545 3e-3 -11.317-3e-3 -2.614 1e-3 -5.229 3e-3 -7.843 5e-3 -5.482 3e-3 -10.963-1e-3 -16.445-0.01-7.041-0.012-14.082-5e-3 -21.122 7e-3 -5.399 7e-3 -10.797 5e-3 -16.196 0-2.597-2e-3 -5.193 0-7.79 5e-3 -3.623 5e-3 -7.246-3e-3 -10.868-0.014-1.082 4e-3 -2.165 8e-3 -3.28 0.012-7.411-0.042-7.411-0.042-9.64-2.271-0.375-2.812-0.375-2.812 0-6 0.616-0.709 1.232-1.418 1.867-2.148 2.778-3.715 3.521-7.174 4.633-11.664 1.186-4.765 2.348-8.887 4.57-13.274 1.997-4.049 2.693-7.277 3.305-11.726 1.085-6.482 2.887-10.991 6.281-16.547 1.93-3.793 2.262-7.505 2.793-11.688 0.749-4.015 2.455-7.254 4.258-10.891 2.076-4.916 3.087-10.06 4.203-15.265 1.09-3.797 1.09-3.797 3.113-7.277 2.212-3.939 2.864-7.133 3.539-11.582 0.809-5.265 1.853-9.28 4.438-13.938 2.569-4.69 3.829-9.017 4.938-14.25 1.292-5.753 2.768-11.027 5.128-16.418 1.377-3.44 2.196-6.989 3.028-10.594 0.906-2.738 0.906-2.738 2.91-6.011 2.311-4.316 2.837-7.821 3.434-12.665 1.045-7.031 2.634-11.122 6.562-17.062 1.165-4.033 2.098-8.092 3.035-12.184 1.149-4.545 3.063-8.536 4.965-12.816 1.078-4.159 2.052-8.327 2.973-12.523 1.027-3.477 1.027-3.477 4.027-6.477 1.62-4.383 2.227-8.706 2.812-13.312 0.779-5.389 2.268-9.239 4.895-13.954 2.151-4.548 3.119-9.405 4.324-14.273 0.969-3.461 0.969-3.461 3.031-7.461 2.412-4.979 3.116-9.773 3.934-15.219 1.004-3.781 1.004-3.781 3.477-7.664 2.821-4.595 3.629-8.2 4.527-13.492 1.174-6.354 2.62-11.856 5.844-17.488 1.232-2.277 1.975-4.473 2.718-6.949 1.382-4.025 2.657-6.07 5.438-9.188 0.32-0.516 0.32-0.516 1.938-3.125 2.184-3.045 3.846-4.071 7.062-5.875 0.73-0.779 1.459-1.557 2.211-2.359 3.141-2.974 6.055-4.52 9.977-6.329 1.231-0.581 2.462-1.162 3.73-1.761 10.761-4.088 21.48-3.906 32.855-4 1.815-0.022 3.63-0.043 5.444-0.066 3.784-0.045 7.568-0.084 11.352-0.118 4.849-0.044 9.697-0.101 14.546-0.162 3.739-0.046 7.477-0.087 11.216-0.126 1.789-0.019 3.577-0.039 5.366-0.061 2.493-0.029 4.987-0.05 7.48-0.071 1.418-0.014 2.836-0.028 4.296-0.043 6.611 0.18 6.611 0.18 8.527 2.096z"/>
<path transform="translate(764.77 691.35)" d="m0 0c0.98 2e-3 1.959 5e-3 2.968 7e-3 3.238 0.016 6.472 0.076 9.709 0.138 2.256 0.024 4.512 0.045 6.767 0.064 4.731 0.047 9.461 0.115 14.191 0.199 6.044 0.105 12.088 0.167 18.133 0.214 4.661 0.04 9.322 0.1 13.983 0.166 2.227 0.029 4.455 0.054 6.682 0.073 3.126 0.031 6.25 0.088 9.376 0.151 0.91 4e-3 1.82 9e-3 2.757 0.013 7.554 0.197 14.599 1.85 20.349 7.065 2.966 8.051 0.844 16.403-2.601 23.989-1.214 2.876-1.973 5.745-2.774 8.761-2.868 9.584-7.89 20.03-16.312 25.813-2.651 1.364-5.316 2.702-8 4-1 1-1 1-1.375 5.125 0.433 5.632 2.088 7.438 5.375 11.875 0.766 6.476-1.274 12.208-3.188 18.312-0.292 0.982-0.584 1.964-0.884 2.975-1.788 5.809-3.949 11.12-6.834 16.472-1.094 2.241-1.094 2.241-2.469 6.991-1.957 5.117-4.306 6.973-8.625 10.25-0.701 0.845-1.403 1.691-2.125 2.562-11.083 9.397-26.412 8.705-40.063 9-0.909 0.021-1.818 0.041-2.754 0.062-16.682 0.367-33.366 0.509-50.052 0.552-2.671 8e-3 -5.343 0.018-8.014 0.032-3.769 0.018-7.536 0.022-11.305 0.022-0.569 4e-3 -0.569 4e-3 -3.45 0.022-1.044-3e-3 -2.088-6e-3 -3.163-9e-3 -0.912 1e-3 -1.824 3e-3 -2.763 4e-3 -2.311-0.247-2.311-0.247-5.311-2.247 0.22-4.179 1.37-5.494 4-9 1.027-2.41 1.027-2.41 1.937-5.063 0.17-0.486 0.17-0.486 1.028-2.945 0.17-0.494 0.17-0.494 1.035-2.992 0.664-1.814 1.33-3.626 2-5.438 1.423-3.891 2.731-7.805 4-11.75 1.141-3.477 2.333-6.468 4-9.75 1.704-3.461 2.801-6.51 3.875-10.187 2.503-8.478 6.107-16.405 9.738-24.449 2.912-6.569 5.101-12.823 6.68-19.829 0.971-3.57 2.834-6.419 4.707-9.597 0.682-1.904 1.324-3.823 1.937-5.75 1.597-5.014 3.529-9.697 5.778-14.449 1.8-3.924 3.338-7.945 4.879-11.977 3.943-7.921 7.521-9.709 16.178-9.477zm15.228 29.653c-6.233 9.87-11.161 21.225-10 33 6.577 4.384 15.82 3.183 23.5 3.187 0.544 6e-3 0.544 6e-3 3.301 0.037 13.959 0.026 13.959 0.026 19.449-3.787 2.054-2.86 3.39-5.885 4.738-9.129 1.012-2.308 1.012-2.308 3.199-6.058 2.807-5.032 3.326-9.506 2.813-15.25-1.449-2.668-1.449-2.668-4-5-4.133-0.707-4.133-0.707-9.125-0.813-0.879-0.021-1.757-0.043-2.663-0.065-1.827-0.04-3.655-0.069-5.483-0.087-2.628-0.034-5.248-0.121-7.874-0.223-1.581-0.041-3.163-0.082-4.793-0.125-1.432-0.037-2.864-0.074-4.34-0.113-4.303 0.492-5.784 1.298-8.722 4.426zm-20 57c-5.04 5.613-7.714 11.42-10.313 18.437-3.609 9.485-3.609 9.485-4.687 10.563-0.469 7.309-0.469 7.309 0 10 7.136 5.352 14.113 4.184 22.75 4.187 1.454 0.013 2.908 0.025 4.406 0.037 1.408 2e-3 2.815 4e-3 4.266 6e-3 1.285 4e-3 2.569 9e-3 3.893 0.013 5.252-0.347 9.332-0.99 13.247-4.618 7.045-10.477 10.491-20.298 10.996-32.891-0.558-2.734-0.558-2.734-2.339-5.039-4.914-2.588-9.675-2.464-15.157-2.57-1.12-0.028-2.24-0.057-3.394-0.086-18.62-0.325-18.62-0.325-23.668 1.961z" fill="#E01919"/>
<path transform="translate(649.45 692.65)" d="m0 0c3.654-0.013 7.307-0.041 10.96-0.082 4.439-0.05 8.877-0.074 13.317-0.081 2.491-0.01 4.982-0.044 7.474-0.079 10.522 0.02 16.722 1.4 25.419 7.405 2.753 4.38 1.622 9.06 0.567 13.886-1.273 4.595-2.875 8.931-4.629 13.364-0.299 0.758-0.299 0.758-1.809 4.597-1.102 2.726-2.239 5.439-3.426 8.129-1.328 3.211-1.328 3.211-2.14 7.524-1.026 4.048-1.819 5.957-4 9.312-4.04 6.361-5.937 13.23-8.188 20.375-6.301 19.038-6.301 19.038-9.75 25.563-1.796 3.541-2.702 5.939-3.562 9.687-2.294 9.073-7.414 19.542-15.043 25.289-16.162 8.929-33.681 8.473-51.645 8.461-1.318 3e-3 -2.637 6e-3 -3.995 9e-3 -4.335 7e-3 -8.67 0-13.005-9e-3 -0.814 1e-3 -0.814 1e-3 -4.933 3e-3 -4.297-3e-3 -8.593-0.042-12.89-0.101-1.755-0.018-3.511-0.025-5.266-0.022-19.92 0.022-19.92 0.022-26.911-6.88-2.585-3.592-3.008-4.668-2.894-9.254 0.922-4.892 2.328-9.078 4.207-13.683 0.158-0.394 0.158-0.394 0.958-2.383 0.899-2.231 1.813-4.456 2.729-6.68 2.049-4.991 4.025-9.93 5.5-15.125 0.906-3.149 1.869-5.601 3.375-8.562 2.482-5.037 4.107-10.154 5.832-15.489 1.52-4.494 3.302-8.826 5.172-13.183 0.956-2.251 1.829-4.537 2.684-6.828 1.437-3.813 1.437-3.813 3.437-8.063 1.628-3.556 2.588-6.997 3.438-10.812 1.266-5.425 3.362-9.333 6.562-13.938 0.619-1.155 1.238-2.31 1.875-3.5 4.878-8.034 8.721-12.118 18.125-14.5 1.668-0.538 3.335-1.08 5-1.625 14.822-4.786 32.044-2.675 47.455-2.725zm-38.201 32.979c-2.667 3.989-3.935 7.718-5.316 12.309-2.556 8.433-2.556 8.433-4.871 12.254-1.921 3.539-2.895 6.452-3.934 10.312-2.108 7.78-5.083 15.036-8.258 22.434-1.068 2.507-2.134 5.016-3.195 7.527-0.467 1.089-0.934 2.178-1.415 3.3-2.076 5.308-3.553 10.267-3.577 15.985-0.017 0.923-0.034 1.846-0.051 2.797 0.363 2.453 0.363 2.453 3.363 5.453 3.718 0.404 3.718 0.404 8.36 0.434 0.822 5e-3 1.645 0.01 2.492 0.016 1.742 6e-3 3.484 5e-3 5.225-4e-3 2.65-8e-3 5.297 0.02 7.947 0.052 1.695 2e-3 3.39 1e-3 5.086-2e-3 1.536 2e-3 3.072 4e-3 4.655 6e-3 4.736-0.561 7.364-1.759 11.235-4.502 2.957-3.942 4.281-7.027 5.938-11.625 1.675-4.599 3.359-9.172 5.25-13.687 1.745-4.259 2.886-8.563 3.906-13.047 0.906-2.641 0.906-2.641 2.836-5.489 2.319-3.531 3.452-6.81 4.695-10.839 2.181-7.021 2.181-7.021 4.375-10.313 0.526-1.778 1.001-3.572 1.438-5.375 0.821-3.202 1.454-5.457 3.25-8.25 2.116-3.83 1.733-7.108 1.312-11.375-1.512-2.246-1.512-2.246-4-4-3.739-0.502-3.739-0.502-8.238-0.496-1.625-1e-3 -3.25-1e-3 -4.924-2e-3 -0.423 5e-3 -0.423 5e-3 -2.563 0.032-2.568 0.028-5.134 0.02-7.703 7e-3 -17.05 0.088-17.05 0.088-23.318 6.088z" fill="#E01919"/>
<path transform="translate(329.53 691.91)" d="m0 0c1.445 7e-3 2.891 0.014 4.38 0.022 1.543 0.014 3.086 0.029 4.675 0.044 1.606 0.014 3.211 0.028 4.864 0.042 3.39 0.032 6.78 0.07 10.17 0.109 4.317 0.05 8.633 0.076 12.95 0.097 4.152 0.025 8.303 0.078 12.454 0.127 1.537 4e-3 3.073 8e-3 4.657 0.013 9.923 0.156 18.524 0.939 26.573 7.131 3.436 6.871 1.525 12.969-0.648 20.071-5.204 14.818-5.204 14.818-12.602 19.429-3.716 0.572-7.208 0.303-10.937-0.062-0.951-0.067-1.901-0.133-2.881-0.201-15.595-1.151-15.595-1.151-17.182-2.737-0.235-2.517-0.414-5.039-0.562-7.562-0.084-1.383-0.168-2.767-0.254-4.192-0.061-1.071-0.121-2.142-0.184-3.246-7.267-1.392-14.499-1.223-21.875-1.25-1.432-0.02-2.864-0.041-4.339-0.062-13.706-0.051-13.706-0.051-19.786 3.312-4.319 6.891-6.743 14.55-9.519 22.172-1.228 3.176-2.561 6.086-4.168 9.078-2.35 4.454-3.398 8.86-4.508 13.75-1.06 3.952-2.709 7.458-4.476 11.137-1.962 4.228-3.567 8.575-5.192 12.941-1.137 2.922-1.137 2.922-2.949 6.422-1.798 5.299-2.319 10.993-1.188 16.5 5.836 5.429 15.645 3.233 23 3 0.778-0.015 0.778-0.015 4.715-0.094 1.476-0.051 2.952-0.103 4.473-0.156 0.667-0.023 0.667-0.023 4.043-0.14 4.506-0.729 7.123-1.855 10.769-4.61 1.996-3.609 1.996-3.609 3.438-7.75 0.494-1.356 0.987-2.712 1.496-4.109 1.099-4.266 1.413-7.757 1.066-12.141-2.929-2.929-5.425-2.344-9.5-2.5-7.277-0.278-7.277-0.278-9.5-2.5-0.965-7.88 2.619-14.222 6.875-20.562 3.125-3.438 3.125-3.438 6.375-4 2.75 0.562 2.75 0.562 4.75 1.562 3.622 0.063 7.224 0.067 10.844 0.028 2.218-0.013 4.435-0.025 6.652-0.038 3.51-0.024 7.019-0.052 10.528-0.086 3.378-0.03 6.755-0.048 10.133-0.064 0.527-7e-3 0.527-7e-3 3.197-0.041 2.55-9e-3 5.099 0.087 7.646 0.201 2 2 2 2 2.239 4.75-0.551 7.513-3.787 14.635-7.239 21.25-0.972 2.503-1.919 5.013-2.839 7.535-1.161 2.465-1.161 2.465-3.25 4.883-2.331 3.151-2.361 4.956-2.536 8.832-1.198 10.147-7.07 21.586-14.875 28.438-13.574 7.721-27.563 9.199-42.859 9.004-1.888-4e-3 -3.776-5e-3 -5.664-5e-3 -3.916-4e-3 -7.832-0.029-11.748-0.069-5.01-0.052-10.019-0.063-15.029-0.061-3.882 0-7.763-0.017-11.644-0.039-1.848-9e-3 -3.696-0.015-5.545-0.017-2.574-7e-3 -5.147-0.033-7.721-0.065-0.73-6e-3 -0.73-6e-3 -4.424-0.035-5.29-0.549-8.533-2.364-12.678-5.588-3.031-3.897-3.255-5.833-3.188-10.813 1.532-8.025 3.872-15.193 7.782-22.344 1.519-3.312 2.342-6.62 3.218-10.156 1.337-5.346 2.972-9.774 5.582-14.594 4.034-8.267 6.781-17.259 9.836-25.929 3.525-10.001 3.525-10.001 5.707-14.727 1.875-4.25 1.875-4.25 3.125-8.75 3.619-12.385 8.991-24.828 19.75-32.5 3.581-1.79 7.15-2.938 11-4 0.774-0.278 0.774-0.278 4.688-1.687 6.596-2.008 12.971-2.441 19.839-2.398z" fill="#E01919"/>
<path transform="translate(1310.2 692.5)" d="m0 0c1.735-0 3.47-2e-3 5.205-4e-3 3.614-2e-3 7.227 0.011 10.841 0.034 4.616 0.028 9.23 0.025 13.846 0.012 3.574-7e-3 7.148 1e-3 10.722 0.014 2.524 6e-3 5.047 2e-3 7.571-2e-3 1.542 0.012 3.084 0.025 4.673 0.038 0.675 3e-3 0.675 3e-3 4.09 0.016 5.686 0.569 10.276 2.159 14.818 5.638 3.403 4.538 3.225 8.574 2.461 14.09-2.24 10.06-4.021 17.282-11.399 24.66-3.139 0.388-3.139 0.388-6.969 0.399-1.375 3e-3 -2.75 7e-3 -4.168 0.011-1.439-0.011-2.879-0.023-4.363-0.035-0.72 6e-3 -0.72 6e-3 -4.363 0.035-1.376-4e-3 -2.751-7e-3 -4.168-0.011-1.264-4e-3 -2.528-7e-3 -3.83-0.011-3.139-0.388-3.139-0.388-6.139-3.388-0.223-3.32-0.223-3.32-0.062-7.125 0.091-2.29 0.13-4.584 0.062-6.875-4.857-2.428-11.858-1.231-17.187-1.25-1.411-0.021-2.822-0.041-4.276-0.062-1.367-6e-3 -2.734-0.011-4.142-0.016-1.25-9e-3 -2.499-0.019-3.786-0.028-5.373 0.53-9.358 1.862-12.859 6.044-3.938 7.455-5.096 13-4.75 21.312 1.547 0.454 3.094 0.908 4.688 1.375 2.671 0.784 5.231 1.591 7.796 2.676 2.729 1.03 5.188 1.404 8.079 1.762 5.564 0.862 10.169 2.61 15.293 4.886 7.073 2.926 14.546 4.882 22.082 6.176 4.919 1.362 7.482 3.545 11.062 7.125 2.915 5.83-0.973 14.964-2.875 20.813-0.256 0.832-0.513 1.664-0.777 2.521-1.352 4.236-2.644 7.061-5.348 10.666-0.679 2.355-1.275 4.734-1.812 7.125-1.749 6.856-4.014 12.182-8.188 17.875-0.525 0.73-1.049 1.459-1.59 2.211-6.56 8.304-16.185 12.002-26.41 13.789-12.907 1.359-25.975 1.189-38.938 1.042-3.898-0.04-7.796-0.058-11.694-0.076-3.682-0.023-7.362-0.069-11.043-0.121-1.825-0.021-3.65-0.035-5.475-0.04-18.554-0.067-18.554-0.067-26.85-5.805-4.102-8.204-1.636-16.622 1-25 3.984-10.983 3.984-10.983 8-15 3.123-0.388 3.123-0.388 6.934-0.398 1.371-4e-3 2.742-8e-3 4.154-0.012 1.435 0.012 2.871 0.023 4.35 0.035 1.431-0.012 2.863-0.023 4.338-0.035 1.372 4e-3 2.744 8e-3 4.158 0.012 1.258 3e-3 2.517 6e-3 3.814 0.01 3.252 0.388 3.252 0.388 7.252 3.388 0.25 3.285 0.25 3.285 0 7.063-0.25 3.785-0.25 3.785 0 6.937 6.201 3.101 12.473 2.328 19.313 2.313 0.701 8e-3 0.701 8e-3 4.248 0.048 1.358 1e-3 2.716 2e-3 4.115 2e-3 0.618 2e-3 0.618 2e-3 3.747 9e-3 7.352-0.765 11.628-3.785 16.132-9.329 3.554-5.024 4.118-9.991 3.445-16.043-4.167-5.817-9.984-6.878-16.562-8.625-1.022-0.286-2.044-0.572-3.096-0.867-8.034-2.23-16.12-4.272-24.233-6.192-2.813-0.667-5.617-1.364-8.421-2.066-0.937-0.214-1.873-0.428-2.838-0.648-6.848-1.754-10.276-4.195-14.85-9.602-2.063-4.127-1.036-7.871 0.172-12.172 0.521-1.511 1.042-3.021 1.578-4.578 0.274-0.797 0.547-1.594 0.829-2.415 2.347-6.771 4.722-13.505 7.984-19.897 1.437-2.938 1.437-2.938 2.812-7.438 1.672-4.629 3.296-6.944 6.625-10.5 0.527-0.661 1.055-1.322 1.598-2.004 3.964-4.903 7.449-7.58 13.402-9.996 0.397-0.17 0.397-0.17 2.407-1.028 9.213-3.548 17.986-3.535 27.765-3.468z" fill="#E01919"/>
<path transform="translate(1003,692)" d="m0 0c2 2 2 2 2.23 6.727-4e-3 1.966-0.018 3.932-0.042 5.898-1e-3 0.487-1e-3 0.487-2e-3 2.949-0.025 4.08-0.13 8.002-0.667 12.053-0.628 5.292-0.818 10.539-0.984 15.861-0.078 2.257-0.157 4.515-0.236 6.772-0.119 3.51-0.235 7.019-0.349 10.529-0.411 12.603-1.055 25.025-2.506 37.554-0.837 8.782-0.881 17.591-1.006 26.407-0.045 2.796-0.092 5.592-0.143 8.388-0.046 2.505-0.084 5.009-0.121 7.513-0.156 3.892-0.336 7.545-1.174 11.349-5.352 3.568-12.163 2.332-18.442 2.316-2.549-3e-3 -5.096 0.02-7.644 0.045-1.601 1e-3 -3.202 2e-3 -4.852 2e-3 -1.473 3e-3 -2.946 6e-3 -4.464 9e-3 -3.598-0.372-3.598-0.372-6.598-3.372-0.233-2.572-0.233-2.572-0.039-5.621 0.03-0.55 0.03-0.55 0.18-3.334 0.077-1.149 0.154-2.298 0.234-3.483 0.138-2.269 0.271-4.538 0.398-6.808 0.034-0.504 0.034-0.504 0.201-3.053 0.026-2.701 0.026-2.701-0.974-6.701-3.631-1.816-7.968-1.314-11.977-1.422-0.999-0.028-1.998-0.056-3.027-0.084-2.121-0.057-4.241-0.11-6.361-0.161-3.226-0.082-6.452-0.186-9.678-0.29-2.061-0.052-4.122-0.103-6.184-0.152-0.958-0.035-1.917-0.069-2.905-0.104-5.922-0.11-10.425 0.58-15.868 3.213-2.947 3.416-4.845 6.668-6.75 10.75-3.693 6.975-9.954 16.602-17.25 20.25-4.953 0.3-9.914 0.278-14.875 0.312-1.388 0.03-2.777 0.059-4.207 0.088-1.332 9e-3 -2.663 0.017-4.035 0.026-0.612 7e-3 -0.612 7e-3 -3.707 0.044-3.725-0.551-4.87-1.571-7.176-4.47 1.321-2.008 2.659-4.005 4-6 0.486-0.739 0.972-1.477 1.473-2.238 3.219-4.773 6.621-9.022 10.589-13.2 4.121-4.407 6.931-8.757 9.637-14.124 1.702-3.189 3.914-5.737 6.301-8.438 1.354-1.986 2.685-3.988 4-6 1.703-2.458 3.421-4.905 5.141-7.352 1.223-1.741 2.441-3.486 3.656-5.234 2.594-3.73 5.206-7.419 7.953-11.039 6.212-8.2 11.95-16.819 17.562-25.437 2.669-3.91 5.578-7.375 8.688-10.938 3.413-4.357 6.506-8.745 9.438-13.438 13.577-21.57 13.577-21.57 21.562-25.562 3.366-0.158 6.714-0.259 10.082-0.316 1.006-0.021 2.013-0.042 3.05-0.063 3.226-0.066 6.453-0.125 9.68-0.183 2.165-0.044 4.33-0.087 6.495-0.131 15.361-0.307 15.361-0.307 21.693-0.307zm-51 39c-1.153 2.976-2.05 5.981-2.949 9.043-1.486 4.181-4.025 6.753-7.051 9.957-2.429 3.268-4.713 6.631-7 10-0.552 0.802-1.103 1.604-1.672 2.43-5.284 7.769-8.215 12.944-7.328 22.57 5.753 2.877 11.089 2.408 17.438 2.438 1.227 0.032 2.455 0.065 3.72 0.099 8.966 0.054 8.966 0.054 13.127-2.752 2.999-4.87 2.849-9.344 3.09-14.973 0.593-10.388 2.1-20.712 4.625-30.812 0.091-1.894 0.13-3.791 0.125-5.688 3e-3 -0.973 5e-3 -1.946 8e-3 -2.949-0.133-2.363-0.133-2.363-1.133-3.363-6.293-0.47-10.464-0.642-15 4z" fill="#E01919"/>
<path transform="translate(1480.7 691.5)" d="m0 0c0.501-1e-3 0.501-1e-3 3.038-4e-3 2.105 1e-3 4.211 0.013 6.316 0.034 3.228 0.029 6.455 0.02 9.683 7e-3 2.05 6e-3 4.1 0.015 6.151 0.025 0.965-2e-3 1.931-5e-3 2.926-8e-3 6.802 0.096 6.802 0.096 10.148 3.442 0.257 3.31 0.324 6.416 0.25 9.723-0.013 1.016-0.026 2.033-0.039 3.08-0.051 3.421-0.13 6.84-0.211 10.26-0.012 0.588-0.012 0.588-0.071 3.566-0.473 22.892-1.863 45.721-3.429 68.559-0.057 0.829-0.114 1.659-0.172 2.514-0.38 5.552-0.773 11.103-1.172 16.654-0.101 1.423-0.202 2.847-0.306 4.314-0.097 1.305-0.194 2.611-0.294 3.956-0.083 1.14-0.167 2.279-0.253 3.454-0.303 2.92-0.303 2.92-1.303 6.92 0.084 3.568 0.257 7.124 0.453 10.688-0.453 3.312-0.453 3.312-2.493 5.49-3.814 2.348-6.319 2.31-10.781 2.283-1.504-4e-3 -3.008-8e-3 -4.558-0.012-1.566-0.024-3.133-0.049-4.746-0.074-0.787-1e-3 -0.787-1e-3 -4.77-4e-3 -11.684-0.09-11.684-0.09-15.105-2.371 0.173-2.012 0.37-4.024 0.66-6.023 0.428-3.751 0.531-7.452 0.59-11.227 0.025-1.346 0.051-2.691 0.078-4.078-0.342-3.829-0.937-5.699-3.328-8.672-6.245-2.082-13.317-1.444-19.877-1.612-2.783-0.075-5.565-0.166-8.348-0.257-1.783-0.049-3.566-0.096-5.349-0.143-0.808-0.023-0.808-0.023-4.894-0.139-7.691 0.256-13.192 1.477-18.532 7.151-2.133 3.251-4.135 6.559-6.114 9.906-2.023 3.319-4.324 6.176-6.886 9.094-0.619 1.073-1.238 2.145-1.875 3.25-2.878 3.725-4.479 3.825-9.125 4.75-4.753 0.306-9.489 0.325-14.25 0.313-1.279 0.016-2.558 0.032-3.875 0.048-1.222 1e-3 -2.444 2e-3 -3.703 2e-3 -1.113 3e-3 -2.226 6e-3 -3.372 9e-3 -2.8-0.372-2.8-0.372-5.8-3.372 1.787-3.575 3.53-5.913 6-9 0.887-1.382 1.773-2.764 2.687-4.187 2.343-3.591 4.929-6.638 7.875-9.75 2.949-3.18 5.093-5.988 6.875-9.938 2.498-5.525 6.2-9.682 10.141-14.246 2.603-3.094 4.823-6.279 7.004-9.676 3.892-6.048 8.153-11.852 12.418-17.64 2.686-3.672 5.208-7.396 7.625-11.25 2.901-4.623 6.029-9.003 9.375-13.313 0.799-1.047 1.598-2.093 2.422-3.172 6.887-9.006 6.887-9.006 10.238-12.992 2.82-3.417 5.012-7.067 7.34-10.836 3.604-5.443 7.443-10.712 11.437-15.875 0.68-0.884 1.359-1.769 2.059-2.68 6.345-6.196 12.838-7.04 21.242-6.941zm-13.176 39.969c-2.802 4.533-5.182 9.292-7.629 14.023-2.211 4.006-4.894 7.092-7.933 10.504-3.112 4.597-6.073 9.284-9 14-0.576 0.86-1.153 1.72-1.746 2.606-2.198 4.196-1.618 7.724-1.254 12.394 4.711 3.141 9.76 2.596 15.312 2.813 1.129 0.063 2.257 0.127 3.42 0.193 10.399 0.434 10.399 0.434 15.268-3.006 6.341-7.248 5.321-19.734 5.571-28.83 0.172-5.052 0.967-9.351 2.429-14.17 0.265-2.949 0.265-2.949 0.25-5.687 5e-3 -0.912 0.01-1.823 0.015-2.762-0.265-2.551-0.265-2.551-2.265-6.551-5.81-1.065-8.836-0.313-12.438 4.473z" fill="#E01919"/>
<path transform="translate(1752.3 691.83)" d="m0 0c1.06 6e-3 2.121 0.012 3.213 0.019 3.513 0.023 7.026 0.062 10.539 0.101 2.434 0.021 4.869 0.042 7.304 0.062 5.105 0.044 10.21 0.095 15.316 0.151 6.556 0.072 13.112 0.126 19.669 0.175 5.028 0.039 10.056 0.088 15.084 0.139 2.418 0.024 4.836 0.044 7.254 0.062 3.374 0.026 6.747 0.065 10.121 0.107 0.504 3e-3 0.504 3e-3 3.053 0.016 6.904 0.106 6.904 0.106 9.132 2.335-0.921 6.815-2.662 11.932-6 18-0.536 1.114-1.072 2.227-1.625 3.375-1.375 2.625-1.375 2.625-3.375 4.625-3.491 0.164-6.904 0.206-10.394 0.16-1.057-5e-3 -2.115-0.01-3.204-0.016-3.405-0.017-6.809-0.049-10.214-0.082-25.522-0.213-25.522-0.213-38.012 0.247-0.859 0.022-1.717 0.045-2.602 0.068-4.644 0.21-7.885 0.709-11.574 3.623-5.1 6.971-6.658 13.768-6.504 22.285 0.504 2.715 0.504 2.715 3.504 5.715 3.539 0.226 6.9 0.275 10.434 0.187 1.029-0.011 2.059-0.022 3.12-0.034 4.41-0.049 8.819-0.133 13.229-0.215 3.217-0.054 6.434-0.09 9.651-0.126 0.998-0.024 1.996-0.049 3.024-0.075 5.279-0.056 7.182-7e-3 11.542 3.263-0.114 4.556-1.801 8.065-3.875 12.062-0.513 1.002-1.026 2.004-1.554 3.036-4.11 7.595-4.11 7.595-7.571 9.902-3.676 0.137-7.276 0.159-10.949 0.09-2.232-0.021-4.465-0.041-6.697-0.061-3.518-0.043-7.035-0.091-10.553-0.145-3.396-0.049-6.791-0.079-10.187-0.107-1.043-0.021-2.086-0.043-3.161-0.066-6.106-0.041-10.847 0.55-16.453 3.289-1.297 2.453-1.297 2.453-1.75 5.25-0.999 4.904-2.575 8.47-5.25 12.75-1.033 3.099-1.166 5.376-1.187 8.625-0.014 0.982-0.029 1.965-0.043 2.977 0.076 0.791 0.152 1.583 0.23 2.398 2.811 1.405 5.111 1.096 8.254 1.066 1.315-0.01 2.63-0.02 3.984-0.03 1.427-0.014 2.854-0.029 4.325-0.044l8.976-0.051c4.741-0.031 9.482-0.066 14.222-0.112 4.559-0.043 9.118-0.066 13.677-0.087 1.427-0.018 2.854-0.037 4.324-0.056 0.658-2e-3 0.658-2e-3 3.984-0.011 1.162-9e-3 2.324-0.019 3.522-0.029 0.451 0.058 0.451 0.058 2.732 0.354 2 3 2 3 1.813 5.375-0.813 2.625-0.813 2.625-2.278 4.91-2.144 3.793-2.692 7.628-3.496 11.875-1.382 3.778-2.571 4.764-6.039 6.84-3.646 0.394-6.988 0.557-10.633 0.533-1.071 9e-3 -2.141 0.018-3.244 0.027-3.535 0.022-7.068 0.015-10.603 6e-3 -2.454 6e-3 -4.909 0.012-7.363 0.019-5.14 0.011-10.281 6e-3 -15.421-9e-3 -6.602-0.017-13.202 7e-3 -19.804 0.042-5.065 0.022-10.131 0.02-15.197 0.012-2.435-1e-3 -4.87 6e-3 -7.305 0.021-3.395 0.017-6.789 3e-3 -10.184-0.02-1.014 0.012-2.027 0.023-3.072 0.036-2.791-0.039-2.791-0.039-7.174-0.667-1.701-2.378-1.701-2.378-2-5 0.977-2.586 0.977-2.586 2.625-5.375 2.566-4.713 4.139-9.029 5.375-14.25 1.406-5.765 3.307-9.939 6.555-14.852 2.233-3.899 3.293-8.048 4.516-12.351 2.578-8.797 6.589-17.21 10.492-25.485 1.239-3.178 2.01-6.062 2.75-9.375 1.016-4.281 2.34-7.831 4.441-11.691 3.773-7.358 6.296-15.029 8.871-22.871 5.442-16.477 5.442-16.477 9.375-23.75 0.516-1.279 1.032-2.558 1.563-3.875 3.04-6.608 8.395-5.377 14.752-5.292z" fill="#E01919"/>
<path transform="translate(1601.4 691.79)" d="m0 0c1.966 9e-3 3.933 0.029 5.899 0.058 1.072 8e-3 2.143 0.016 3.247 0.024 3.556 0.029 7.111 0.072 10.667 0.116 2.461 0.023 4.922 0.046 7.383 0.068 5.162 0.049 10.325 0.104 15.487 0.165 6.634 0.077 13.268 0.142 19.902 0.201 5.083 0.047 10.165 0.099 15.248 0.152 2.447 0.026 4.894 0.05 7.341 0.073 3.412 0.034 6.825 0.073 10.237 0.115 0.511 5e-3 0.511 5e-3 3.096 0.027 6.969 0.096 6.969 0.096 8.083 1.21-0.397 5.071-1.753 8.506-4 13-0.144 0.753-0.144 0.753-0.875 4.563-1.29 5.089-1.838 6.475-6.125 9.437-4.401 0.681-8.748 0.532-13.191 0.418-1.296-0.012-2.593-0.023-3.928-0.036-4.149-0.041-8.295-0.116-12.443-0.194-4.123-0.063-8.246-0.119-12.368-0.163-2.564-0.029-5.127-0.069-7.691-0.123-19.913-0.274-19.913-0.274-24.38 4.023-1.641 2.272-2.823 4.533-3.999 7.075-0.41 0.79-0.82 1.581-1.242 2.395-3.013 6.431-3.465 12.567-2.758 19.605 2.245 2.245 7.615 1.437 10.75 1.563 0.501 0.021 0.501 0.021 3.034 0.128 13.067 0.495 26.142 0.4 39.216 0.309 1.072 4.486 0.694 6.527-1.25 10.75-1.682 3.748-3.137 7.36-4.25 11.313-1.682 4.414-2.362 5.028-6.5 6.937-2.58 0.289-2.58 0.289-5.353 0.17-0.523-0.018-0.523-0.018-3.166-0.111-1.118-0.053-2.235-0.106-3.387-0.16-2.376-0.079-4.753-0.157-7.129-0.235-3.74-0.14-7.479-0.289-11.218-0.449-3.613-0.148-7.226-0.265-10.841-0.379-1.117-0.057-2.235-0.114-3.387-0.173-7.758-0.223-7.758-0.223-11.659 2.652-2.077 2.998-3.543 5.87-4.922 9.248-0.252 0.615-0.252 0.615-1.528 3.73-1.64 4.312-3.083 8.665-4.484 13.059-0.926 2.648-0.926 2.648-2.863 6.398-2.564 5.284-4 10.686-5.524 16.348-1.98 5.02-3.232 7.532-7.539 10.902-5.44 0.794-10.716 0.472-16.187 0.125-1.474-0.054-2.948-0.108-4.467-0.164-10.904-0.519-10.904-0.519-14.346-3.961 0.816-3.154 1.834-5.967 3-9 0.453-1.349 0.905-2.699 1.371-4.09 4.019-11.95 4.019-11.95 7.254-17.035 3.002-4.898 4.038-9.714 5.285-15.289 1.09-3.586 1.09-3.586 2.965-6.324 3.018-4.632 4.411-9.577 6.063-14.824 0.699-2.161 1.401-4.321 2.105-6.481 0.336-1.031 0.671-2.063 1.017-3.126 2.08-6.262 4.521-12.374 7.026-18.475 1.67-4.087 3.167-8.1 4.352-12.356 1.282-4.465 3.169-8.344 5.312-12.453 1.668-3.398 2.892-6.893 4.145-10.461 1.341-3.744 2.774-7.447 4.23-11.148 0.498-1.27 0.995-2.54 1.508-3.848 2.083-4.707 2.46-5.047 7.777-5.299z" fill="#E01919"/>
<path transform="translate(2036.3 691.57)" d="m0 0c2.536-0.012 5.069-0.061 7.604-0.112 1.599-7e-3 3.198-0.014 4.846-0.021 0.735-7e-3 0.735-7e-3 4.452-0.041 3.841 0.6 3.841 0.6 6.817 2.343 3.168 5.098 2.731 10.037 2.696 15.925 0.013 1.231 0.025 2.462 0.038 3.73 0.037 3.93 0.039 7.859 0.04 11.789 0.022 3.94 0.05 7.881 0.082 11.821 0.018 2.452 0.028 4.903 0.03 7.355 2e-3 0.553 2e-3 0.553 0.012 3.348 0 0.976 1e-3 1.951 1e-3 2.956 0.125 2.333 0.125 2.333 1.125 4.333 5.449 0.66 8.171 0.543 12.812-2.5 3.345-3.673 5.031-7.052 7.188-11.5 1.647-1.938 3.3-3.873 5.019-5.747 2.274-2.587 4.308-5.296 6.356-8.066 7.629-10.271 15.834-19.89 24.625-29.187 0.809-0.921 1.619-1.841 2.453-2.79 5.546-4.814 13.139-3.153 20.047-2.773 2.031 0.104 4.062 0.207 6.094 0.309 0.941 0.047 1.882 0.095 2.851 0.144 2.854 0.122 5.699 0.154 8.555 0.11l1 3c-3.858 6.858-8.757 11.963-14.383 17.421-2.118 2.086-4.084 4.18-5.992 6.454-2.419 2.879-4.968 5.468-7.625 8.125-4.783 5.335-9.339 10.828-13.859 16.386-1.792 2.188-3.607 4.348-5.454 6.489-1.621 1.884-3.214 3.795-4.75 5.75-2.158 2.646-4.52 4.961-6.937 7.375-7.188 7.533-14.255 15.175-21.125 23-0.517 0.587-0.517 0.587-3.133 3.562-8.301 10.407-13.17 23.457-17.492 35.926-1.351 3.794-2.792 7.532-4.313 11.262-0.465 1.149-0.93 2.299-1.41 3.484-1.527 2.766-1.527 2.766-5.527 4.766-3.36 0.258-3.36 0.258-7.32 0.265-0.711 1e-3 -0.711 1e-3 -4.309 8e-3 -1.484-8e-3 -2.967-0.015-4.496-0.023-1.492 7e-3 -2.983 0.015-4.52 0.023-1.419-3e-3 -2.838-5e-3 -4.3-8e-3 -1.305-2e-3 -2.61-4e-3 -3.954-7e-3 -3.101-0.258-3.101-0.258-5.101-2.258 0.313-5.5 2.608-10.408 4.687-15.438 0.356-0.885 0.712-1.769 1.079-2.68 1.628-4.038 3.302-8.032 5.097-12 5.05-11.401 5.282-20.888 2.731-33.019-1.935-10.023-2.788-20.081-3.657-30.238-0.24-2.786-0.484-5.572-0.733-8.357-0.225-2.51-0.442-5.021-0.657-7.532-0.579-5.012-1.513-9.8-2.547-14.736-2.575-17.815-2.575-17.815-2-26 4.043-4.043 11.801-2.414 17.257-2.426z" fill="#E01919"/>
<path transform="translate(1887.2 692.37)" d="m0 0c10.85 0.65 21.649 0.748 32.515 0.704 3.27-0.013 6.54-0.019 9.81-0.024 6.91-0.011 13.82-0.031 20.731-0.051 8.085-0.024 16.169-0.044 24.254-0.056 3.225-7e-3 6.45-0.019 9.674-0.032 1.954-3e-3 3.908-7e-3 5.862-0.01 0.898-5e-3 1.797-0.01 2.722-0.015 2.08-1e-3 4.159 0.05 6.238 0.113l1 1c-0.568 8.94-2.141 17.934-8 25-4.186 3.19-7.239 3.306-12.426 3.117-0.718-0.016-0.718-0.016-4.354-0.098-3.01-0.096-6.021-0.2-9.031-0.312-8.336-0.172-13.749-0.279-20.189 5.293-2.919 4.228-3.846 9.021-5.121 13.937-1.578 5.497-3.756 10.759-5.879 16.063-0.365 0.947-0.73 1.895-1.106 2.871-2.562 6.607-2.562 6.607-4.359 9.43-1.908 3.354-2.884 6.686-3.973 10.386-1.899 6.276-4.072 12.254-6.562 18.313-0.495 1.567-0.99 3.135-1.5 4.75-1.5 4.25-1.5 4.25-3.5 7.062-2.453 3.909-3.14 7.562-4.153 12.028-1.104 4.117-2.802 7.781-4.652 11.609-1.195 2.551-1.195 2.551-2.82 7.113-1.375 3.438-1.375 3.438-4.375 5.438-5.3 0.453-10.621 0.324-15.938 0.312-1.479 0.017-2.958 0.033-4.482 0.049-0.709 1e-3 -0.709 1e-3 -4.295 2e-3 -1.301 3e-3 -2.601 6e-3 -3.941 9e-3 -3.344-0.372-3.344-0.372-7.344-3.372 1.77-5.692 4.084-11.129 6.375-16.625 2.859-6.91 5.553-13.792 7.8-20.93 0.825-2.445 0.825-2.445 2.825-6.883 1.636-3.733 2.854-7.232 4-11.125 1.533-5.153 3.499-9.664 6-14.437 3.418-7.708 6.644-15.515 8.672-23.719 1.196-4.841 2.277-8.202 5.015-12.469 2.665-4.393 2.997-6.762 2.313-11.812-3.553-3.553-4.372-3.399-9.207-3.512-0.614-0.018-0.614-0.018-3.717-0.107-1.283-0.023-2.567-0.045-3.889-0.069-0.636-0.017-0.636-0.017-3.853-0.103-4.564-0.117-9.119-0.229-13.685-0.154-2.649-0.055-2.649-0.055-3.649-1.055-0.707-5.652 0.777-8.795 3.699-13.586 1.393-2.585 2.163-5.021 2.926-7.852 2.373-7.875 6.472-6.705 13.569-6.191z" fill="#E01919"/>
<path transform="translate(1091,692)" d="m0 0c1.994 0.055 3.99 0.063 5.984 0.027 1.1-0.012 2.2-0.024 3.332-0.037 2.305-0.035 4.61-0.074 6.914-0.117 1.095-0.011 2.189-0.022 3.317-0.033 0.999-0.017 1.997-0.034 3.026-0.051 2.427 0.211 2.427 0.211 4.427 2.211-0.326 5.43-1.992 9.979-4 15-1.971 5.092-3.664 10.137-5.059 15.41-0.941 2.59-0.941 2.59-2.89 5.926-2.087 3.729-3.259 7.125-4.426 11.226-2.333 7.767-5.315 15.046-8.625 22.438-3.532 7.986-6.278 16-8.805 24.359-0.954 2.906-1.954 5.454-3.383 8.141-2.994 5.782-4.725 11.978-3.812 18.5 3.583 1.952 6.631 2.235 10.661 2.179 1.111-9e-3 2.222-0.019 3.367-0.029 0.594-0.01 0.594-0.01 3.605-0.06 2.522-0.021 5.044-0.041 7.566-0.061 3.975-0.043 7.949-0.092 11.924-0.145 3.836-0.049 7.673-0.079 11.51-0.107 0.597-0.011 0.597-0.011 3.617-0.066 1.105-6e-3 2.21-0.013 3.348-0.02 0.487-6e-3 0.487-6e-3 2.949-0.038 2.453 0.347 2.453 0.347 5.453 3.347-0.721 3.244-1.912 5.838-3.5 8.75-1.684 3.649-2.198 6.918-2.68 10.883-1.205 3.478-2.672 4.445-5.82 6.367-3.445 0.35-6.553 0.469-9.991 0.394-1.002-6e-3 -2.004-0.012-3.037-0.018-3.307-0.025-6.614-0.079-9.921-0.134-2.298-0.025-4.595-0.048-6.892-0.07-4.811-0.05-9.622-0.114-14.433-0.188-6.177-0.094-12.354-0.162-18.532-0.221-4.742-0.047-9.483-0.105-14.224-0.165-2.279-0.029-4.557-0.055-6.836-0.079-3.177-0.036-6.354-0.084-9.531-0.137-0.948-8e-3 -1.896-0.017-2.873-0.025-6.501-0.128-6.501-0.128-8.73-2.357 1.039-8.995 5.328-17.852 9-26 1.398-3.643 2.688-7.325 4-11 3.455-9.53 6.912-19.041 10.883-28.371 1.436-3.379 2.796-6.786 4.148-10.199 0.656-1.645 1.323-3.286 2-4.922 1.69-4.11 3.203-8.166 4.407-12.446 1.337-4.652 3.236-8.883 5.3-13.253 1.659-3.692 2.977-7.469 4.27-11.301 0.992-2.508 0.992-2.508 2.496-4.879 1.826-3.208 2.492-6.221 3.308-9.817 2.445-9.609 5.627-21.086 17.188-18.812z" fill="#E01919"/>
<path transform="translate(491,693)" d="m0 0c1.122 4.487 0.869 4.926-1.125 8.812-2.199 4.545-3.897 9.067-5.437 13.876-1.75 5.41-3.862 10.238-6.438 15.312-2.895 7.154-5.677 14.305-7.5 21.812-0.993 3.959-2.449 7.097-4.5 10.626-2.819 4.852-4.097 9.398-5.289 14.851-0.952 3.63-2.805 6.495-4.711 9.711-0.85 2.535-1.569 5.085-2.273 7.664-0.727 2.336-0.727 2.336-2.415 5.274-1.975 4.61-1.55 9.115-1.312 14.062 4.466 1.489 9.018 1.386 13.688 1.562 1.08 0.044 2.16 0.088 3.273 0.134 10.888 0.392 21.771 0.339 32.663 0.179 1.307-0.011 2.615-0.023 3.962-0.035 0.583-9e-3 0.583-9e-3 3.533-0.051 2.881 0.211 2.881 0.211 5.881 2.211-0.186 8.376-3.07 18.931-9 25-4.633 2.553-9.446 2.289-14.592 2.275-0.96 5e-3 -1.92 0.01-2.909 0.015-3.168 0.014-6.335 0.013-9.503 0.011-2.203 4e-3 -4.406 8e-3 -6.609 0.013-4.614 7e-3 -9.228 7e-3 -13.842 2e-3 -5.917-6e-3 -11.834 0.011-17.752 0.034-4.547 0.015-9.095 0.016-13.642 0.013-2.182 0-4.364 5e-3 -6.547 0.015-3.047 0.013-6.094 6e-3 -9.141-6e-3 -0.904 8e-3 -1.807 0.016-2.738 0.023-5.004-0.042-6.565-0.275-10.725-3.395 1.01-3.185 2.106-6.245 3.438-9.312 1.562-3.688 1.562-3.688 3-8.188 1.562-4.5 1.562-4.5 3.5-7.75 1.887-3.431 2.916-6.329 4-10.062 1.194-4.103 2.487-7.796 4.5-11.563 4.04-7.66 6.333-16.026 8.812-24.293 2.06-6.829 4.182-13.183 7.562-19.469 1.749-3.48 2.949-7.118 4.223-10.793 0.965-2.57 0.965-2.57 2.965-6.32 1.844-3.918 2.887-7.382 3.938-11.562 1.694-6.674 3.999-12.544 7.062-18.688 0.207-0.467 0.207-0.467 1.254-2.828 0.206-0.451 0.206-0.451 1.246-2.734 0.361-0.806 0.722-1.612 1.094-2.442 1.853-2.631 3.361-3.008 6.406-3.996 2.859-0.335 2.859-0.335 5.965-0.449 1.13-0.043 2.26-0.087 3.424-0.131 0.585-0.018 0.585-0.018 3.549-0.108 1.167-0.047 2.334-0.094 3.537-0.142 11.186-0.389 11.186-0.389 15.525 0.83z" fill="#E01919"/>
<path transform="translate(629.98 726.73)" d="m0 0c1.328-3e-3 2.657-5e-3 4.025-8e-3 0.69 4e-3 0.69 4e-3 4.182 0.024 1.392-8e-3 2.783-0.016 4.217-0.024 1.324 3e-3 2.649 5e-3 4.014 8e-3 1.214 2e-3 2.429 5e-3 3.68 7e-3 2.902 0.259 2.902 0.259 4.902 2.259 0.907 5.187-1.169 8.534-3.575 13.027-1.64 3.419-2.777 6.859-3.925 10.473-1.708 5.337-3.708 10.125-6.321 15.066-1.736 3.582-2.876 7.304-4.086 11.09-8.748 26.745-8.748 26.745-14.312 31.067-5.567 2.555-11.875 1.993-17.906 2.152-1.384 0.059-2.767 0.118-4.192 0.179-1.321 0.042-2.642 0.083-4.004 0.125-1.209 0.039-2.418 0.077-3.664 0.117-3.015-0.296-3.015-0.296-6.015-3.296-1.96-5.878 2.623-12.516 5-18 1.243-3.011 2.483-6.022 3.718-9.036 0.869-2.009 1.808-3.99 2.809-5.937 1.507-3.099 2.526-6.11 3.535-9.402 2.355-7.232 5.142-14.233 8.063-21.25 0.431-1.044 0.863-2.087 1.308-3.162 5.228-12.443 5.228-12.443 8.818-14.509 3.324-0.852 6.296-0.964 9.729-0.97z" fill="#F9E1E1"/>
<path transform="translate(779.88 783.75)" d="m0 0c1.293-0.021 2.586-0.041 3.918-0.062 1.241-6e-3 2.483-0.011 3.762-0.016 0.569-5e-3 0.569-5e-3 3.452-0.028 2.993 0.356 2.993 0.356 6.993 3.356 1.03 5.559-1.484 10.234-3.75 15.188-0.174 0.403-0.174 0.403-1.055 2.443-1.98 4.412-3.235 6.399-7.195 9.369-5.665 1.416-11.182 1.225-17 1.25-1.189 0.021-2.377 0.041-3.602 0.062-0.571 3e-3 -0.571 3e-3 -3.461 0.016-0.521 5e-3 -0.521 5e-3 -3.16 0.028-2.777-0.356-2.777-0.356-6.777-3.356 0.013-6.229 2.054-10.841 4.875-16.312 0.699-1.379 1.397-2.757 2.117-4.176 5.267-9.212 11.266-7.724 20.883-7.762z" fill="#F8E1E1"/>
<path transform="translate(802.38 723.31)" d="m0 0c1.15 0.035 2.3 0.071 3.484 0.107 1.106 0.044 2.212 0.087 3.352 0.131 0.507 0.019 0.507 0.019 3.072 0.115 2.717 0.335 2.717 0.335 6.717 2.335 1.293 5.172-1e-3 7.165-2.125 12-0.601 1.402-1.201 2.804-1.82 4.25-2.591 4.728-4.951 7.048-10.055 8.75-3.788 0.231-7.581 0.185-11.375 0.187-0.521 6e-3 -0.521 6e-3 -3.156 0.037-1.008 2e-3 -2.016 4e-3 -3.055 6e-3 -0.459 2e-3 -0.459 2e-3 -2.783 0.012-2.902-0.268-5.03-0.936-7.631-2.242-1.043-2.122-1.043-2.122-1-5 1.512-3.848 1.512-3.848 3.687-8.063 0.706-1.393 1.411-2.787 2.137-4.223 5.595-9.552 10.292-8.819 20.551-8.402z" fill="#F8E1E1"/>
<path transform="translate(956,738)" d="m0 0 4 1c1.327 3.673 0.894 6.615 0.125 10.375-1.118 6.027-1.519 11.963-1.781 18.082-0.37 3.809-0.909 6.987-2.344 10.543-3.872 2.556-8.088 2.299-12.625 2.312-1.312 0.017-2.625 0.034-3.977 0.051-3.398-0.363-3.398-0.363-6.398-3.363 2.065-7.079 5.402-12.174 9.84-17.988 3.182-4.437 5.767-9.168 8.398-13.946 1.762-3.066 1.762-3.066 4.762-7.066z" fill="#F7E1E1"/>
<path transform="translate(1472,738)" d="m0 0 4 1c-0.205 0.958-0.41 1.916-0.621 2.902-1.786 8.828-2.79 17.353-3.07 26.356-0.301 3.649-0.768 6.424-2.309 9.742-4.517 2.258-7.122 2.268-12.125 2.25-1.426 5e-3 -2.851 0.01-4.32 0.016-3.555-0.266-3.555-0.266-5.555-2.266 0.213-5.539 1.747-8.604 5-13 0.945-1.391 1.882-2.787 2.812-4.188 0.512-0.764 1.024-1.528 1.551-2.316 1.758-2.68 3.445-5.399 5.137-8.121 2.877-4.509 5.667-8.628 9.5-12.375z" fill="#F7E1E1"/>
</svg>
