<?xml version="1.0" encoding="UTF-8"?>
<svg version="1.1" viewBox="0 0 2744 1144" xmlns="http://www.w3.org/2000/svg">
<path transform="translate(1316.9 463.87)" d="m0 0c0.865-1e-3 1.73-2e-3 2.621-3e-3 1.833-1e-3 3.667 1e-3 5.5 5e-3 2.749 6e-3 5.499 1e-3 8.248-6e-3 5.247-4e-3 10.491 0.053 15.736 0.137 0.777 9e-3 0.777 9e-3 4.708 0.058 1.415 0.046 2.83 0.093 4.289 0.141 1.232 0.034 2.465 0.069 3.736 0.104 5.254 1.12 7.633 4.344 10.576 8.638 2.35 4.25 4.026 8.495 5.691 13.059 0.681 0.825 1.362 1.65 2.063 2.5 2 2.581 2.536 4.207 3.375 7.312 1.367 5.039 3.772 8.764 6.562 13.188 1.098 2.799 2.064 5.627 3.036 8.472 1.215 3.185 3.051 5.717 4.964 8.528 0.698 1.654 1.362 3.322 2 5 1.147 3.009 2.199 5.297 4 8 2.272 3.408 3.549 6.814 5 10.625 1 2.375 1 2.375 3 5.375 2.272 3.408 3.549 6.814 5 10.625 1 2.375 1 2.375 3 5.375 1.784 2.675 2.811 4.898 3.938 7.875 1.297 3.407 2.597 5.981 4.562 9.125 2.379 3.805 3.945 7.369 5.524 11.535 1.428 3.604 3.22 7.012 4.976 10.465l1 3c3.688 0.625 3.688 0.625 8 0 2.3-3.065 3.574-6.464 5-10 0.537-0.866 1.073-1.733 1.625-2.625 1.375-2.375 1.375-2.375 2.75-6.188 1.739-4.479 4.084-8.121 6.625-12.187l1.5-4c1.5-4 1.5-4 4-7.875 2.041-3.366 3.015-5.464 4-9.125 1.341-4.962 3.691-8.683 6.5-13 1.009-2.206 2.017-4.414 2.969-6.645 1.84-4.201 3.957-8.266 6.031-12.355 0.681-1.361 1.362-2.723 2.063-4.125 1.242-2.484 2.491-4.963 3.75-7.438 8.048-16.326 8.048-16.326 10.812-23.875 1.632-4.227 3.977-7.725 6.375-11.562 0.454-1.32 0.908-2.64 1.375-4 2.094-5.153 5.482-10.428 10.625-13 11.083-1.257 22.29-1.186 33.429-1.185 2.793-3e-3 5.585-0.021 8.378-0.04 1.787-3e-3 3.574-5e-3 5.361-6e-3 1.602-4e-3 3.203-8e-3 4.853-0.012 3.979 0.243 3.979 0.243 7.979 2.243 1.993 6.242 0.377 12.089-2 18-1.813 2.875-3.844 5.351-6 8-1.032 1.983-2.033 3.983-3 6-0.825 1.279-1.65 2.557-2.5 3.875-2.5 4.125-2.5 4.125-4 8.125-1.661 4.429-3.997 7.995-6.5 12-1.008 2.663-2.009 5.33-3 8-1.297 2.023-2.624 4.028-4 6-2.169 6.507-2.001 13.79 0.813 20 0.722 0.99 1.444 1.98 2.187 3 2.609 4.021 4.281 8.118 5.938 12.597 1.062 2.403 1.062 2.403 4.062 6.403 0.695 2.019 1.315 4.065 1.875 6.125 1.516 5.171 3.371 9.76 5.891 14.512 1.272 2.436 2.389 4.905 3.484 7.425 1.75 3.938 1.75 3.938 2.75 4.938 6.528 1.202 6.528 1.202 10 0 1.895-3.104 2.854-6.132 3.918-9.606 0.958-3.005 1.953-5.124 3.707-7.707 2.375-3.687 2.375-3.687 3.875-7.687 1.662-4.43 3.998-7.996 6.5-12l1.5-4c1.662-4.43 3.998-7.996 6.5-12l1.5-4c1.662-4.43 3.998-7.996 6.5-12l1.5-4c1.662-4.43 3.998-7.996 6.5-12 0.248-0.66 0.248-0.66 1.5-4 1.662-4.43 3.998-7.996 6.5-12 0.248-0.66 0.248-0.66 1.5-4 1.662-4.43 3.998-7.996 6.5-12 0.248-0.66 0.248-0.66 1.5-4 1.664-4.437 3.976-7.998 6.5-12 0.667-1.575 1.313-3.159 1.938-4.75 2.239-4.615 3.46-6.126 8.062-8.25 6.447-1.072 12.81-1.176 19.325-1.203 0.532-3e-3 0.532-3e-3 3.225-0.018 2.238-9e-3 4.476-0.016 6.714-0.019 3.424-0.01 6.846-0.041 10.27-0.073 2.18-6e-3 4.36-0.011 6.541-0.015 1.021-0.013 2.042-0.025 3.093-0.038 9.206 0.029 9.206 0.029 12.832 3.366 1.443 5.771-0.639 9.679-3 15-1.641 2.682-3.306 5.35-5 8-0.247 0.66-0.247 0.66-1.5 4-1.661 4.429-3.997 7.995-6.5 12-0.247 0.66-0.247 0.66-1.5 4-1.661 4.429-3.997 7.995-6.5 12-0.247 0.66-0.247 0.66-1.5 4-1.661 4.429-3.997 7.995-6.5 12-0.237 0.65-0.237 0.65-1.437 3.937-1.5 3.901-3.433 6.893-5.813 10.301-3.774 5.956-6.671 12.427-9.75 18.762-1.523 3.12-2.967 5.953-4.937 8.812-1.711 2.644-2.906 5.001-4.125 7.875-1.938 4.313-1.938 4.313-4.938 7.313-0.773 2.269-0.773 2.269-1.375 4.812-1.314 4.794-3.437 7.363-6.625 11.188-0.812 2.375-0.812 2.375-1.5 5-1.241 4.738-3.356 7.228-6.5 11-0.812 2.375-0.812 2.375-1.5 5-1.241 4.738-3.356 7.228-6.5 11-0.812 2.375-0.812 2.375-1.5 5-1.248 4.745-3.34 7.224-6.5 11-1.113 2.74-2.04 5.49-2.91 8.316-1.251 3.082-2.987 5.119-5.09 7.684-1.01 1.847-1.968 3.724-2.875 5.625-3.407 6.987-6.839 13.981-11.187 20.437-2.206 3.345-3.789 6.809-5.398 10.473-2.115 3.386-4.206 5.252-7.54 7.465-4.242 0.777-4.242 0.777-8.875 0.937-1.523 0.071-3.047 0.142-4.617 0.215-6.33-0.214-10.942-0.586-15.508-5.152-0.887-1.596-1.717-3.225-2.5-4.875-1.271-2.635-2.511-5.143-4.062-7.625-1.405-2.444-2.367-4.809-3.375-7.438-1.168-3.015-2.255-5.351-4.063-8.062-2.271-3.408-3.548-6.815-5-10.625-1-2.375-1-2.375-3-5.375-2.271-3.408-3.548-6.815-5-10.625-1-2.375-1-2.375-3-5.375-2.27-3.407-3.581-6.8-4.972-10.633-1.028-2.367-1.028-2.367-4.028-6.367-0.689-1.852-1.31-3.731-1.875-5.625-4.253-12.969-4.253-12.969-7.125-16.375-4.5-1.188-4.5-1.188-9 0-2.318 2.73-3.601 5.726-5 9-0.536 0.845-1.072 1.691-1.625 2.562-1.375 2.438-1.375 2.438-2.812 6.438-1.563 4-1.563 4-3.563 6.375-2.044 2.683-2.591 4.354-3.437 7.562-1.28 4.748-3.409 7.278-6.563 11.063-0.812 2.375-0.812 2.375-1.5 5-1.248 4.745-3.34 7.224-6.5 11-0.722 1.812-1.384 3.649-2 5.5-1.596 4.778-3.678 7.68-7 11.5-0.946 2.088-1.888 4.179-2.777 6.293-1.549 3.431-3.29 6.717-5.098 10.019-0.636 1.172-1.273 2.344-1.929 3.551-2.488 3.554-4.312 5.209-8.196 7.137-4.242 0.679-4.242 0.679-8.875 0.875-0.761 0.04-0.761 0.04-4.617 0.242-5.515-0.143-10.672-0.333-14.758-4.305-2.007-3.226-3.909-6.488-5.75-9.812-0.474-0.763-0.948-1.526-1.437-2.313-1.375-2.364-2.601-4.737-3.813-7.187-7.56-15.258-7.56-15.258-11.871-21.641-2.264-3.445-3.433-7.006-4.879-10.859-0.639-0.949-1.278-1.898-1.937-2.875-1.819-2.756-2.9-5.07-4.063-8.125-1.146-3.01-2.198-5.297-4-8-2.271-3.408-3.548-6.815-5-10.625-1-2.375-1-2.375-3-5.375-2.271-3.408-3.548-6.815-5-10.625-1-2.375-1-2.375-3-5.375-2.271-3.408-3.548-6.815-5-10.625-1-2.375-1-2.375-3-5.375-1.801-2.703-2.853-4.991-4-8-1.562-4.095-3.527-7.369-6-11-0.66-1.506-1.32-3.011-2-4.563-2-4.437-2-4.437-4-6.875-2.487-3.187-3.586-6.461-5-10.222-1-2.34-1-2.34-3-4.778-2.106-2.698-2.902-4.842-4-8.062-1.46-4.278-3.078-7.031-6-10.5-0.996-2.218-1.99-4.438-2.933-6.68-1.067-2.32-1.067-2.32-3.567-6.258-2.385-3.876-3.935-7.531-5.535-11.757-0.965-2.305-0.965-2.305-2.965-5.305-2.27-3.407-3.581-6.8-4.972-10.633-1.028-2.367-1.028-2.367-4.028-6.367-1.085-2.49-2.004-5.012-2.937-7.563-1.063-2.437-1.063-2.437-4.063-6.437 0.125-2.625 0.125-2.625 1-5 5.363-3.575 10.555-3.129 16.895-3.133z" fill="#00324B"/>
<path transform="translate(798.87 463.92)" d="m0 0c3.923-0.049 7.845-0.056 11.768-0.05 0.737-1e-3 0.737-1e-3 4.462-5e-3 4.816-5e-3 9.633-2e-3 14.45 2e-3 3.381-1e-3 6.763-2e-3 10.145-3e-3 7.071-2e-3 14.141 0 21.212 5e-3 8.121 6e-3 16.241 4e-3 24.362-2e-3 7.024-4e-3 14.048-5e-3 21.072-2e-3 4.172 1e-3 8.344 1e-3 12.516-2e-3 56.171-0.031 56.171-0.031 68.868 6.929 2.278 1.207 2.278 1.207 5.965 2.457 4.785 2.528 7.336 6.315 10.313 10.75 0.499 0.721 0.997 1.442 1.511 2.184 15.102 28.578 11.447 70.922 7.489 101.82-0.133 1.13-0.266 2.259-0.403 3.422-1.625 11.703-4.491 23.551-13.597 31.578-0.778 0.709-1.555 1.418-2.356 2.149-5.309 4.56-9.862 6.873-16.644 8.851-3.665 1.27-6.982 2.526-10 5-0.938 4.438-0.938 4.438 0 9 2.312 3.188 2.312 3.188 5 6 1.034 1.983 2.032 3.985 3 6 7.206 11.827 7.206 11.827 11.062 16.5 2.09 2.697 3.415 5.455 4.938 8.5 1.322 1.676 2.657 3.342 4 5 1.694 2.65 3.358 5.318 5 8 2.5 4.064 4.97 7.962 7.875 11.75 0.701 1.073 1.402 2.145 2.125 3.25-1 4-1 4-4 6-12.99 1.382-26.253 1.224-39.303 1.016-2.67-0.015-5.326 0.058-7.994 0.145-11.82 0.19-11.82 0.19-16.672-3.289-2.419-2.834-4.237-5.61-6.031-8.872-0.568-0.99-1.135-1.98-1.719-3-1.034-1.864-2.038-3.745-3.008-5.644-1.273-2.356-1.273-2.356-3.461-4.918-1.945-2.616-2.521-4.567-3.375-7.688-0.474-1.567-0.949-3.135-1.437-4.75-0.99-0.33-1.98-0.66-3-1-1.465-2.292-1.465-2.292-2.938-5.187-1.63-3.124-3.23-6.065-5.187-9-1.875-2.813-1.875-2.813-3.875-6.875-1.759-3.463-3.521-5.993-6-8.938-0.32-0.505-0.32-0.505-1.938-3.062-2.494-3.552-5.176-5.994-9.062-7.938-3.828-0.124-7.637-0.188-11.465-0.203-1.144-5e-3 -2.289-0.011-3.468-0.017-2.423-9e-3 -4.847-0.016-7.27-0.02-3.716-9e-3 -7.431-0.04-11.147-0.072-2.351-7e-3 -4.702-0.012-7.053-0.016-0.558-6e-3 -0.558-6e-3 -3.381-0.037-0.517 1e-3 -0.517 1e-3 -3.134 9e-3 -0.911-4e-3 -1.822-7e-3 -2.761-0.011-2.321 0.367-2.321 0.367-5.321 3.367-1.84 6.26-2.115 11.589-1.625 18.063 3.045 47.456 3.045 47.456-3.328 55.359-10.283 7.928-34.389 3.752-46.86 3.266-1.491-0.058-2.983-0.116-4.519-0.176-3.668-0.512-3.668-0.512-6.668-3.512-0.508-2.338-0.508-2.338-0.681-5.046-0.065-0.983-0.129-1.965-0.195-2.978-0.184-4.414-0.251-8.813-0.227-13.231 1e-3 -0.97 2e-3 -1.94 4e-3 -2.94 5e-3 -3.218 0.017-6.436 0.029-9.654 6e-3 -2.32 0.01-4.64 0.015-6.961 0.013-6.276 0.034-12.552 0.056-18.828 0.014-3.922 0.027-7.843 0.039-11.764 0.039-12.271 0.081-24.542 0.13-36.813 0.056-14.165 0.099-28.33 0.131-42.494 0.025-10.957 0.061-21.913 0.107-32.87 0.027-6.542 0.049-13.085 0.059-19.628 0.01-6.143 0.034-12.287 0.069-18.431 0.01-2.257 0.015-4.515 0.015-6.772 1e-3 -3.075 0.02-6.149 0.043-9.223-4e-3 -0.899-8e-3 -1.798-0.012-2.725 0.06-4.971 0.314-6.504 3.418-10.642 3.243-0.604 3.243-0.604 7.21-0.741 1.441-0.056 2.883-0.111 4.368-0.168 2.763-0.057 5.526-0.113 8.289-0.17zm39.894 54.56c-2.817 4.029-2.125 8.359-1.949 13.082 0.046 2.16 0.086 4.32 0.121 6.48 0.019 1.133 0.039 2.265 0.058 3.432 0.017 7.093-0.399 14.182-0.812 21.262-0.765 15.862-0.765 15.862 3.518 21.496 2.96 2.272 4.706 2.358 8.424 2.51 1.339 0.055 2.678 0.11 4.058 0.167 10.295 0.194 20.586 0.241 30.883 0.215 1.195-2e-3 2.389-5e-3 3.62-7e-3 7.064-0.018 14.128-0.051 21.193-0.098 2.826-0.018 5.653-0.03 8.48-0.042 4.237-0.026 8.471-0.085 12.707-0.165 1.179-6e-3 2.358-0.011 3.573-0.017 7.589-0.209 7.589-0.209 11.439-3.12 0.635-0.883 1.271-1.766 1.926-2.676 0.907-1.196 1.815-2.392 2.75-3.625 3.434-5.151 3.436-9.35 3.488-15.355 4e-3 -0.443 4e-3 -0.443 0.024-2.687 0.014-1.879 0.025-3.758 0.033-5.636 0.017-2.856 0.061-5.71 0.105-8.566 0.01-1.828 0.019-3.657 0.025-5.486 9e-3 -0.423 9e-3 -0.423 0.054-2.564-0.028-7.511-2.18-12.781-7.479-18.081-2.899-1.097-2.899-1.097-6.375-2.062-1.122-0.321-2.243-0.642-3.399-0.973-10.455-2.386-20.514-3.265-31.226-3.152-1.188 1e-3 -2.375 1e-3 -3.598 2e-3 -4.966 0.025-9.539 0.146-14.402 1.185-6.385 0.266-12.773 0.221-19.125-0.5-10.937-1.121-18.686-1.255-28.114 4.981z" fill="#00324B"/>
<path transform="translate(575.43 463.87)" d="m0 0c2.652-1e-3 5.303-2e-3 7.955-3e-3 5.51-1e-3 11.02 1e-3 16.531 5e-3 7.007 6e-3 14.013 3e-3 21.02-3e-3 5.46-4e-3 10.919-3e-3 16.378 0 2.582 1e-3 5.164 0 7.746-2e-3 58.757-0.042 58.757-0.042 72.456 12.421 1.673 2.174 3.08 4.364 4.488 6.715 0.673 0.768 1.346 1.536 2.039 2.328 13.003 17.717 11.424 57.319 9.461 78.484-0.582 6.708-0.613 13.397-0.625 20.125-4e-3 1.091-9e-3 2.182-0.013 3.306 1e-3 1.043 3e-3 2.085 5e-3 3.159 1e-3 0.467 1e-3 0.467 4e-3 2.828 0.129 2.77 0.129 2.77 0.629 5.51 0.666 4.34 0.643 8.635 0.633 13.014 1e-3 0.937 2e-3 1.874 3e-3 2.84 1e-3 1.981-1e-3 3.962-5e-3 5.943-6e-3 2.991 0 5.982 6e-3 8.973 4e-3 9.872-0.103 19.66-1.137 29.49-0.065 0.635-0.065 0.635-0.394 3.847-0.485 3.727-1.028 7.439-1.606 11.153-0.122 0.805-0.244 1.61-0.37 2.439-1.68 10.718-3.615 19.931-10.63 28.561-0.63 0.865-1.26 1.73-1.91 2.621-2.228 2.536-3.976 3.622-7.027 5.004-2.568 1.182-4.947 2.297-7.295 3.877-13.662 7.393-36.713 3.767-51.717 3.728-3.107-1e-3 -6.213-1e-3 -9.32-1e-3 -6.491-2e-3 -12.982-0.01-19.474-0.023-8.262-0.017-16.525-0.021-24.787-0.02-6.412-1e-3 -12.823-6e-3 -19.235-0.013-3.043-4e-3 -6.087-6e-3 -9.131-6e-3 -27.077-0.014-27.077-0.014-40.58-0.49-1.643-0.057-3.286-0.113-4.979-0.171-10.004-1.114-21.387-5.348-28.603-12.565-1.567-2.066-1.567-2.066-3.942-5.941-0.507-0.79-1.014-1.58-1.536-2.394-2.604-4.638-3.703-9.748-5.089-14.856-0.312-1.075-0.624-2.15-0.945-3.258-4.675-17.128-3.592-35.382-3.598-53-3e-3 -2.457-6e-3 -4.915-0.01-7.372-6e-3 -5.135-8e-3 -10.271-7e-3 -15.406 0-5.201-7e-3 -10.402-0.021-15.603-0.128-49.711-0.128-49.711 1.062-68.639 0.073-1.177 0.147-2.355 0.223-3.568 0.675-8.867 2.747-16.592 5.921-24.904 0.348-1.412 0.696-2.823 1.055-4.278 1.041-4.098 1.695-5.156 4.945-7.722 1.196-0.99 2.393-1.98 3.625-3 3.793-2.816 7.633-4.441 12.047-6.059 3.067-1.24 5.614-3.067 8.328-4.941 4.984-1.246 9.866-1.366 14.974-1.554 1.106-0.042 2.213-0.085 3.353-0.128 13.032-0.455 26.061-0.463 39.099-0.451zm-25.426 56.133c-5.828 6.309-6.365 12.129-6.617 20.5-0.038 1.083-0.075 2.166-0.114 3.282-0.443 14.445-0.418 28.897-0.399 43.347 5e-3 4.863 0 9.726-6e-3 14.59-4e-3 9.094 0.04 18.187 0.136 27.281 0.013 1.292 0.027 2.583 0.04 3.914 0.048 3.467 0.126 6.932 0.218 10.398 0.014 0.984 0.027 1.967 0.041 2.98 0.247 7.09 1.97 12.535 6.631 17.95 0.642 0.539 1.284 1.078 1.945 1.633 0.319 0.277 0.319 0.277 1.93 1.68 5.408 3.56 11.199 3.838 17.504 4.062 0.456 0.019 0.456 0.019 2.766 0.114 10.255 0.382 20.512 0.42 30.773 0.399 3.216-5e-3 6.431 0 9.646 7e-3 9.901 4e-3 19.793-0.088 29.686-0.5 1.561-0.065 3.122-0.13 4.73-0.197 5.795-0.624 9.292-2.165 14.09-5.44 2.501-3.334 4.188-6.296 6-10l2-3c1.86-12.57 1.181-25.74 1.203-38.426 3e-3 -1.099 6e-3 -2.198 9e-3 -3.331 0.015-5.801 0.024-11.603 0.028-17.405 6e-3 -5.965 0.03-11.931 0.058-17.897 0.019-4.618 0.024-9.236 0.026-13.854 3e-3 -2.199 0.011-4.399 0.024-6.598 0.017-3.077 0.015-6.152 9e-3 -9.229 4e-3 -0.447 4e-3 -0.447 0.028-2.71-0.055-8.332-1.641-17.202-7.385-23.55-2.942-1.634-5.841-2.782-9-4l-2-1c-3.22-0.146-6.422-0.235-9.644-0.281-0.962-0.019-1.924-0.037-2.915-0.056-3.085-0.059-6.169-0.112-9.253-0.163-4.049-0.068-8.097-0.142-12.145-0.219-0.93-0.014-1.861-0.027-2.819-0.041-4.194-0.08-8.136-0.292-12.224-1.24-42.226-1.749-42.226-1.749-55 7z" fill="#00324B"/>
<path transform="translate(2100.7 463.87)" d="m0 0c2.446-1e-3 4.893-2e-3 7.339-3e-3 5.102-1e-3 10.203 1e-3 15.305 5e-3 6.464 6e-3 12.928 3e-3 19.392-3e-3 5.046-4e-3 10.093-3e-3 15.14 0 2.38 1e-3 4.759 0 7.139-2e-3 12.135-0.01 24.265 0.083 36.395 0.457 0.99 0.022 1.98 0.044 3 0.066 12.503 0.458 26.515 3.492 35.642 12.671 1.578 2.067 1.578 2.067 3.953 5.942 0.49 0.713 0.979 1.426 1.484 2.16 2.066 3.871 3.075 7.925 4.141 12.152 0.216 0.817 0.433 1.634 0.656 2.475 2.665 10.322 5.083 23.03 0.719 33.213-4.336 4.456-8.919 5.85-15.043 6.29-8.144 0.081-8.144 0.081-12.206 0.08-2.612 5e-3 -5.222 0.041-7.833 0.079-1.679 6e-3 -3.357 0.01-5.035 0.012-1.512 8e-3 -3.024 0.016-4.582 0.025-4.924-0.557-8.106-1.876-12.301-4.486-1.79-3.58-2.222-5.217-2.625-9-0.828-4.371-1.018-4.756-4.938-7.438-1.464-0.515-2.929-1.031-4.437-1.562-1.331-0.521-2.661-1.041-4.032-1.577-5.629-1.861-11.024-1.82-16.906-1.751-0.56 1e-3 -0.56 1e-3 -3.394 5e-3 -2.357 7e-3 -4.713 0.021-7.07 0.042-3.587 0.031-7.175 0.041-10.762 0.046-2.3 0.01-4.599 0.02-6.899 0.032-1.063 4e-3 -2.125 8e-3 -3.22 0.013-5.976 0.056-11.776 0.476-17.717 1.19-1.791 0.058-3.584 0.087-5.375 0.07-16.975 0.104-16.975 0.104-22.438 4.305-5.697 6.479-4.371 13.295-4.375 21.562-0.012 1.384-0.024 2.768-0.037 4.194-2e-3 1.327-4e-3 2.654-6e-3 4.021-4e-3 1.217-8e-3 2.434-0.012 3.687 0.243 3.161 0.243 3.161 2.243 7.161 13.517 9.462 31.595 7.32 47.386 7.379 2.353 0.016 4.706 0.033 7.058 0.051 6.159 0.046 12.318 0.081 18.477 0.112 9.866 0.053 19.731 0.118 29.597 0.189 3.427 0.022 6.854 0.039 10.281 0.054 2.117 0.014 4.234 0.027 6.352 0.041 0.939 3e-3 1.878 5e-3 2.845 8e-3 12.469 0.096 20.495 1.16 31.004 8.166 0.495 0.216 0.495 0.216 3 1.312 7.717 4.341 12.079 13.03 16 20.688 2.583 10.333 2.158 21.437 2.168 32.035 3e-3 1.281 6e-3 2.562 0.01 3.882 5e-3 2.687 7e-3 5.373 7e-3 8.06 2e-3 4.078 0.02 8.157 0.039 12.236 3e-3 2.628 5e-3 5.256 6e-3 7.884 7e-3 1.202 0.015 2.403 0.022 3.641-0.057 21.393-0.057 21.393-7.252 30.262-0.843 1.693-1.654 3.403-2.438 5.125-3.279 6.753-7.926 9.695-14.562 12.875-1.032 0.701-2.063 1.402-3.125 2.125-4.717 3.076-9.048 3.045-14.536 3.187-1.587 0.041-3.175 0.083-4.81 0.125-1.753 0.04-3.507 0.079-5.26 0.118-0.899 0.02-1.797 0.041-2.723 0.063-20.892 0.48-41.781 0.535-62.677 0.512-5.164-6e-3 -10.327-2e-3 -15.49 4e-3 -19.602 0.018-39.2-0.046-58.797-0.517-1.458-0.03-2.917-0.061-4.419-0.092-11.046-0.312-18.787-1.223-28.163-7.525-1.032-0.433-2.063-0.866-3.125-1.313-5.78-3.392-9.29-9.646-11.875-15.687-0.926-3.573-1.575-7.174-2.188-10.813-0.171-1.014-0.343-2.029-0.519-3.074-3.765-23.724-3.765-23.724 2.707-33.113 10.291-7.719 27.991-5.874 40.222-4.688 5.05 0.853 8.964 2.246 12.778 5.688 1.758 3.452 2.936 6.778 4 10.5 3 5.25 7.568 7.983 13 10.5 4.828 0.866 9.481 1.126 14.381 1.129 1.439 3e-3 2.878 7e-3 4.361 0.01 0.771-1e-3 0.771-1e-3 4.672-6e-3 0.801 0 0.801 0 4.854 3e-3 3.387 1e-3 6.774-1e-3 10.162-6e-3 4.306-5e-3 8.613-2e-3 12.919 4e-3 4.147 4e-3 8.293 1e-3 12.44-1e-3 1.529 2e-3 3.059 4e-3 4.635 6e-3 25.715-0.056 25.715-0.056 31.263-4.389 0.788-0.583 1.575-1.166 2.387-1.766 5.801-5.978 4.256-14.765 4.238-22.484 0.016-1.414 0.032-2.828 0.049-4.285 0-0.68 0-0.68 2e-3 -4.121 3e-3 -1.241 6e-3 -2.482 9e-3 -3.76-0.542-4.852-2.246-7.349-5.872-10.522-10.992-5.692-24.623-4.051-36.668-3.972-2.166 6e-3 -4.331 0.011-6.497 0.015-5.684 0.014-11.367 0.038-17.051 0.066-9.076 0.043-18.152 0.073-27.229 0.096-3.143 0.01-6.287 0.027-9.431 0.045-34.514 0.147-34.514 0.147-48.624-8.062-1.362-0.454-2.723-0.908-4.125-1.375-4.444-1.864-6.056-3.788-8.875-7.625-0.631-0.58-1.261-1.16-1.91-1.758-2.623-2.813-4.082-5.732-5.778-9.18-0.602-1.205-1.204-2.41-1.824-3.652-8.657-19.835-7.536-63.079-1.176-83.473 0.557-1.299 1.114-2.598 1.688-3.937 0.323-0.766 0.647-1.532 0.98-2.321 0.967-2.244 1.992-4.462 3.02-6.679 0.495-1.135 0.99-2.269 1.5-3.438 1.5-2.562 1.5-2.562 5.5-4.562l2-4c2.883-2.884 4.201-3.66 7.875-5 2.858-1.083 5.308-2.11 7.937-3.688 12.481-7.488 37.693-3.459 51.883-3.445z" fill="#00324B"/>
<path transform="translate(1790.2 463.87)" d="m0 0c1.904-1e-3 3.807-3e-3 5.711-5e-3 5.134-5e-3 10.268-3e-3 15.402 0 5.393 3e-3 10.786 0 16.179-1e-3 9.052-2e-3 18.104 0 27.157 5e-3 10.442 5e-3 20.884 4e-3 31.327-2e-3 8.992-4e-3 17.984-5e-3 26.976-2e-3 5.359 1e-3 10.719 1e-3 16.078-2e-3 5.039-3e-3 10.077-1e-3 15.116 5e-3 1.842 1e-3 3.683 1e-3 5.524-1e-3 26.535-0.029 26.535-0.029 31.559 3.197 2.339 3.846 2.387 6.414 2.344 10.904-7e-3 1.541-0.014 3.081-0.022 4.668-0.016 0.803-0.016 0.803-0.099 4.863-3e-3 0.803-3e-3 0.803-0.018 4.864-0.139 13.265-0.139 13.265-2.42 17.636-6.056 5.3-15.86 4.117-23.457 3.938-2.543 0.062-2.543 0.062-4.643 0.558-3.97 0.69-7.813 0.632-11.842 0.634-0.892 2e-3 -1.784 3e-3 -2.703 5e-3 -2.948 4e-3 -5.895 2e-3 -8.843-2e-3l-6.186 3e-3c-4.329 2e-3 -8.657-1e-3 -12.985-5e-3 -5.506-6e-3 -11.012-3e-3 -16.518 3e-3 -4.264 4e-3 -8.529 3e-3 -12.794 0-2.027 0-4.054 0-6.082 3e-3 -10.611 9e-3 -21.135-0.132-31.723-0.949-4.255-0.248-8.125 0.059-12.349 0.625-1.364 0.171-2.727 0.343-4.133 0.519-3.471 0.62-6.533 1.2-9.742 2.668-1.628 6.514-1.264 13.146-1.295 19.836-0.012 1.733-0.032 3.466-0.061 5.199-0.043 2.508-0.057 5.016-0.07 7.524-0.014 1.498-0.029 2.997-0.044 4.541 0.531 4.404 1.236 5.926 4.47 8.9 5.278 3.402 10.244 3.418 16.332 3.369 1.027 4e-3 2.054 8e-3 3.112 0.012 2.223 6e-3 4.446 6e-3 6.669 0 3.517-0.01 7.035 1e-3 10.553 0.016 9.999 0.04 19.999 0.041 29.999 0.039 6.121 0 12.242 0.019 18.363 0.05 3.466 0.01 6.932-2e-3 10.398-0.014 2.124 9e-3 4.248 0.019 6.371 0.03 0.482-5e-3 0.482-5e-3 2.921-0.029 4.07 0.043 6.829 0.26 10.37 2.351 5.008 5.699 3.096 16.613 3.1 23.801 0.012 1.31 0.024 2.62 0.037 3.969 2e-3 1.261 4e-3 2.522 6e-3 3.82 4e-3 1.145 8e-3 2.289 0.012 3.468-0.247 3.17-0.758 5.316-2.243 8.118-8.97 5.98-26.147 3.128-36.647 3.076-2.642-0.013-5.285-0.02-7.927-0.025-5.6-0.011-11.201-0.03-16.801-0.051-6.521-0.023-13.043-0.044-19.564-0.056-2.583-6e-3 -5.166-0.018-7.748-0.031-24.561-0.051-24.561-0.051-29.313 4.087-3.234 6.469-2.372 13.576-2.37 20.69-5e-3 2.735-0.041 5.468-0.079 8.203-6e-3 1.743-0.01 3.486-0.012 5.228-4e-3 0.792-4e-3 0.792-0.025 4.795 0.535 4.491 1.124 6.118 4.486 9.084 5.022 2.138 9.961 2.429 15.346 2.621 0.917 0.038 1.834 0.076 2.779 0.115 10.016 0.373 20.032 0.379 30.054 0.34 3.389-0.014 6.778-0.02 10.168-0.025 8.409-0.013 16.819-0.037 25.229-0.061 7.141-0.02 14.282-0.035 21.423-0.046 3.296-6e-3 6.591-0.018 9.886-0.031 10.1-0.026 20.185 0.071 30.278 0.466 0.452 0.016 0.452 0.016 2.74 0.093 4.668 0.212 8.82 0.571 13.097 2.528 3.612 5.418 2.372 12.404 2.371 18.76 4e-3 2.599 0.04 5.196 0.078 7.795 4e-3 1.64 8e-3 3.279 0.012 4.969 8e-3 1.505 0.017 3.009 0.025 4.56-0.56 4.515-1.155 5.874-4.486 8.916-3.129 0.569-5.723 0.786-8.869 0.805-0.95 0.024-1.901 0.048-2.88 0.073-3.417 0.073-6.833 0.1-10.251 0.122-1.327 0.013-2.655 0.026-4.023 0.039-10.459 0.093-20.918 0.103-31.378 0.096-4.587-3e-3 -9.174 0-13.761 1e-3 -7.703 2e-3 -15.406 0-23.109-5e-3 -8.823-6e-3 -17.645-4e-3 -26.468 2e-3 -7.653 4e-3 -15.307 5e-3 -22.96 2e-3 -4.537-1e-3 -9.073-2e-3 -13.609 2e-3 -16.797 0.01-33.59-0.025-50.381-0.52-0.6-0.015-0.6-0.015-3.637-0.092-1.093-0.038-2.185-0.076-3.311-0.115-0.946-0.031-1.892-0.061-2.866-0.093-2.497-0.317-2.497-0.317-6.497-2.317-2.743-4.492-2.282-9.576-2.26-14.672-4e-3 -0.98-8e-3 -1.96-0.012-2.97-0.01-3.287-6e-3 -6.574-2e-3 -9.861-5e-3 -2.356-0.01-4.711-0.016-7.067-0.013-6.401-0.014-12.801-0.011-19.202 1e-3 -5.341-4e-3 -10.681-9e-3 -16.022-0.011-12.597-0.012-25.195-5e-3 -37.792 6e-3 -13.003-7e-3 -26.006-0.028-39.009-0.018-11.159-0.024-22.317-0.02-33.476 1e-3 -6.666-1e-3 -13.333-0.015-20-0.013-6.268-0.011-12.537 2e-3 -18.805 3e-3 -2.302 0-4.604-8e-3 -6.906-0.011-3.139-3e-3 -6.279 0.01-9.418-7e-3 -0.913-0.015-1.826-0.022-2.767 0.043-5.089 0.588-8.737 3.396-13.033 9.22-4.609 24.139-2.141 34.186-2.129z" fill="#00324B"/>
<path transform="translate(230.89 463.92)" d="m0 0c4.109-0.054 8.216-0.06 12.325-0.054 1.545-2e-3 3.09-3e-3 4.682-5e-3 4.192-4e-3 8.385-3e-3 12.577 0 4.419 3e-3 8.838 0 13.257-1e-3 7.418-2e-3 14.837 0 22.256 5e-3 8.533 6e-3 17.067 4e-3 25.6-2e-3 7.371-4e-3 14.741-5e-3 22.112-2e-3 4.382 1e-3 8.765 2e-3 13.148-2e-3 4.895-3e-3 9.789 2e-3 14.684 7e-3 0.711-1e-3 0.711-1e-3 4.306-6e-3 17.069 0.036 30.82 0.341 46.165 8.136 0.66 0.185 0.66 0.185 4 1.125 8.607 4.034 12.116 11.526 15.375 20.125 0.897 2.575 1.774 5.158 2.625 7.75 0.343 0.933 0.686 1.866 1.039 2.827 2.972 9.807 2.129 21.08 2.164 31.251 6e-3 1.291 0.012 2.583 0.018 3.913 9e-3 2.713 0.016 5.425 0.02 8.138 9e-3 4.096 0.04 8.192 0.072 12.289 0.187 45.847 0.187 45.847-13.063 61.582-3.25 3-3.25 3-5.25 3l-2 4c-4.633 3.065-9.276 4.971-14.562 6.625-1.26 0.404-2.519 0.809-3.817 1.226-13.786 3.426-27.376 3.408-41.492 3.362-3.829-0.01-7.657-5e-3 -11.486 5e-3 -10.875 0.028-21.75 0.041-32.625 0.012-6.675-0.017-13.35-5e-3 -20.025 0.026-2.54 6e-3 -5.081 1e-3 -7.621-0.015-3.535-0.021-7.069-6e-3 -10.605 0.017-0.526-7e-3 -0.526-7e-3 -3.187-0.046-2.909 0.042-2.909 0.042-7.58 0.788-3.217 3.937-3.376 7.691-3.384 12.66-0.011 1.305-0.021 2.61-0.031 3.954 3e-3 1.397 6e-3 2.794 9e-3 4.233-5e-3 0.723-5e-3 0.723-0.033 4.378-0.046 6.176-0.057 12.352-0.072 18.529-0.016 4.51-0.049 9.02-0.082 13.531 3e-3 1.399 6e-3 2.798 9e-3 4.239-0.01 1.302-0.02 2.603-0.031 3.945-2e-3 1.143-4e-3 2.286-6e-3 3.464-0.429 3.476-1.235 5.313-3.379 8.067-4.45 2.225-7.021 2.319-11.957 2.449-1.588 0.043-3.177 0.086-4.814 0.131-0.83 0.017-1.66 0.035-2.515 0.053-2.479 0.053-4.959 0.125-7.438 0.197-27.277 0.669-27.277 0.669-33.276-3.83-0.844-3.443-1.157-6.14-0.517-9.635 0.662-4.31 0.635-8.552 0.604-12.899-3e-3 -0.953-5e-3 -1.906-8e-3 -2.888-0.01-3.19-0.027-6.379-0.044-9.569-9e-3 -2.288-0.017-4.577-0.024-6.865-0.017-4.925-0.037-9.851-0.058-14.777-0.032-7.785-0.053-15.571-0.071-23.356-3e-3 -1.314-6e-3 -2.628-9e-3 -3.982-7e-3 -2.686-0.013-5.373-0.019-8.059-0.043-18.125-0.095-36.25-0.176-54.374-0.054-12.229-0.091-24.457-0.107-36.685-0.01-6.472-0.028-12.944-0.069-19.416-0.038-6.082-0.052-12.165-0.049-18.248-3e-3 -2.235-0.014-4.469-0.035-6.704-0.027-3.046-0.024-6.091-0.012-9.137-0.015-0.888-0.031-1.776-0.046-2.691 0.046-4.061 0.412-6.387 2.753-9.753 3.477-2.363 5.504-2.648 9.687-2.767 0.666-0.023 0.666-0.023 4.037-0.14 2.684-0.036 5.368-0.079 8.051-0.131zm41.737 54.076c-2.72 3.348-2.754 6.243-2.77 10.401-6e-3 1.105-0.013 2.21-0.019 3.348-1e-3 1.194-2e-3 2.388-4e-3 3.618-3e-3 1.227-6e-3 2.454-0.01 3.718-5e-3 2.597-7e-3 5.195-7e-3 7.792-2e-3 3.975-0.02 7.949-0.039 11.923-3e-3 2.522-5e-3 5.045-6e-3 7.567-7e-3 1.189-0.015 2.379-0.022 3.605 3e-3 1.111 6e-3 2.222 9e-3 3.367-1e-3 0.975-2e-3 1.949-4e-3 2.954 0.371 4.058 1.358 6.817 4.247 9.707 3.921 1.089 7.754 1.158 11.807 1.221 1.361 0.023 2.723 0.046 4.126 0.07 0.732 0.01 0.732 0.01 4.438 0.06 1.511 0.023 3.021 0.046 4.577 0.07 3.193 0.048 6.387 0.093 9.58 0.136 4.887 0.067 9.775 0.145 14.662 0.224 3.102 0.045 6.204 0.089 9.306 0.133 1.463 0.024 2.926 0.047 4.433 0.072 1.364 0.017 2.729 0.034 4.136 0.051 0.598 9e-3 0.598 9e-3 3.628 0.052 3.205-0.087 6.156-0.527 9.307-1.089 4.823-0.188 9.644-0.316 14.469-0.426 5.943-0.753 8.896-2.763 12.844-7.137 3.377-4.878 2.865-9.871 2.89-15.582 6e-3 -1.003 0.012-2.005 0.018-3.038 9e-3 -2.122 0.016-4.245 0.02-6.367 9e-3 -3.24 0.04-6.479 0.072-9.718 6e-3 -2.063 0.012-4.126 0.015-6.189 7e-3 -0.483 7e-3 -0.483 0.038-2.927-0.018-5.306-0.419-9.143-3.366-13.616-8.317-7.465-20.66-7.385-31.215-7.789-3.785-0.211-3.785-0.211-6.226-0.727-3.855-0.73-7.641-0.616-11.559-0.609-1.567-3e-3 -3.135-6e-3 -4.75-8e-3 -4.25 0.133-4.25 0.133-6.699 0.633-2.604 0.51-4.962 0.629-7.613 0.632-0.478 1e-3 -0.478 1e-3 -2.897 6e-3 -0.501-3e-3 -0.501-3e-3 -3.041-0.013h-3.119c-5.505-0.022-10.901-0.23-16.381-0.813-6.168-0.569-10.088 0.657-14.875 4.688z" fill="#00324B"/>
<path transform="translate(1075.7 463.85)" d="m0 0c2.089-3e-3 4.178-6e-3 6.266-0.01 5.647-9e-3 11.293-0.011 16.939-0.012 3.53-1e-3 7.06-3e-3 10.59-5e-3 12.321-0.01 24.642-0.014 36.963-0.013 11.479 1e-3 22.957-0.01 34.436-0.026 9.866-0.013 19.733-0.018 29.6-0.018 5.889 1e-3 11.777-2e-3 17.665-0.013 5.532-9e-3 11.064-0.01 16.597-2e-3 2.028 1e-3 4.057-2e-3 6.086-8e-3 2.771-7e-3 5.542-3e-3 8.314 5e-3 0.775 0 0.775 0 4.696-2e-3 6.001 0.36 9.852 0.943 14.158 5.249 1.632 6.531 1.226 13.17 1.25 19.875 0.01 0.729 0.01 0.729 0.062 4.418 3e-3 0.703 3e-3 0.703 0.016 4.262 9e-3 1.284 0.018 2.567 0.028 3.89-0.391 3.903-1.22 6.277-3.356 9.555-10.711 4.931-23.149 4.145-34.719 4.246-2.586 0.033-5.172 0.066-7.758 0.1-4.033 0.048-8.067 0.092-12.101 0.131-3.922 0.04-7.844 0.091-11.766 0.144-1.211 9e-3 -2.421 0.017-3.668 0.026-0.561 8e-3 -0.561 8e-3 -3.401 0.05-0.985 0.011-1.97 0.021-2.985 0.032-2.602 0.271-2.602 0.271-6.602 2.271-1.502 3.004-1.139 5.756-1.152 9.107-8e-3 1.526-0.017 3.051-0.025 4.622-5e-3 1.702-9e-3 3.405-0.013 5.107-8e-3 1.783-0.016 3.567-0.025 5.351-0.018 3.85-0.033 7.699-0.046 11.549-0.02 6.094-0.048 12.189-0.076 18.283-0.061 12.952-0.112 25.904-0.163 38.856-0.056 13.948-0.112 27.896-0.178 41.845-0.028 6.049-0.052 12.099-0.072 18.149-0.013 3.78-0.031 7.559-0.049 11.339-8e-3 1.743-0.014 3.486-0.018 5.229-0.019 7.484-0.058 14.971-0.445 22.446-0.045 0.904-0.09 1.808-0.136 2.739-0.799 3.152-2.05 4.404-4.602 6.378-3.272 0.466-6.221 0.699-9.5 0.75-0.464 0.014-0.464 0.014-2.807 0.086-2.898 0.079-5.795 0.126-8.693 0.164-0.901 0.015-1.803 0.031-2.731 0.046-23.596 0.357-23.596 0.357-30.269-1.046-6.162-6.162-4.046-18.171-4.1-26.49 6e-3 -3.127 0.017-6.254 0.034-9.381 5e-3 -1.738 0.01-3.476 0.014-5.214 0.01-3.709 0.022-7.418 0.038-11.128 0.023-5.866 0.036-11.733 0.047-17.599 0.034-16.671 0.076-33.341 0.138-50.012 0.034-9.232 0.058-18.464 0.07-27.697 8e-3 -5.831 0.029-11.663 0.06-17.495 0.016-3.62 0.02-7.24 0.02-10.86 3e-3 -2.478 0.022-4.957 0.041-7.436-3e-3 -1.474-6e-3 -2.949-8e-3 -4.468 4e-3 -1.281 8e-3 -2.562 0.012-3.882-0.396-3.603-1.187-5.473-3.366-8.338-2.305-1.328-2.305-1.328-4.875-2.25-0.422-0.157-0.422-0.157-2.555-0.953-4.421-1.371-8.442-1.935-13.07-1.922-0.459-1e-3 -0.459-1e-3 -2.782-8e-3 -2.718 0.133-2.718 0.133-4.883 0.629-5.996 1.066-12.178 0.73-18.252 0.744-2.481 0.01-4.963 0.041-7.445 0.073-20.153 0.065-20.153 0.065-28.138-3.313-3.559-4.041-3.387-7.962-3.399-13.187-4e-3 -1.586-8e-3 -3.171-0.012-4.805 7e-3 -0.822 0.013-1.644 0.019-2.491 0.017-2.509 1e-3 -5.016-0.019-7.525 4e-3 -1.585 8e-3 -3.171 0.012-4.804 4e-3 -1.45 7e-3 -2.901 0.01-4.395 0.426-4.156 1.419-6.823 4.389-9.793 10.52-1.364 21.101-1.148 31.69-1.145z" fill="#00324B"/>
<path transform="translate(2320.3 463.85)" d="m0 0c1.973-3e-3 3.946-6e-3 5.919-0.01 5.306-9e-3 10.611-0.011 15.917-0.012 3.322-1e-3 6.645-3e-3 9.968-5e-3 11.613-0.01 23.227-0.014 34.841-0.013 10.794 1e-3 21.589-0.01 32.383-0.026 9.302-0.013 18.605-0.018 27.907-0.018 5.541 1e-3 11.083-2e-3 16.624-0.013 5.206-9e-3 10.413-9e-3 15.619-2e-3 1.903 1e-3 3.805-2e-3 5.708-8e-3 26.461-0.079 26.461-0.079 31.553 4.928 1.439 3.742 1.766 6.509 1.739 10.516-3e-3 1.356-7e-3 2.713-0.011 4.111-0.025 1.406-0.049 2.811-0.074 4.26-1e-3 0.705-1e-3 0.705-4e-3 4.271-0.119 13.845-0.119 13.845-4.434 18.291-8.599 5.489-16.967 5.244-26.859 5.063-0.709-6e-3 -0.709-6e-3 -4.298-0.035-4.51-0.036-9.02-0.092-13.53-0.153-5.954-0.079-11.906-0.139-17.86-0.187-0.684-0.013-0.684-0.013-4.145-0.076-0.636-5e-3 -0.636-5e-3 -3.854-0.03-1.116-0.015-2.233-0.031-3.383-0.047-3.528 0.399-5.253 1.105-8.008 3.34-2.888 4.693-3.369 8.238-3.348 13.705-1e-3 1.556-2e-3 3.112-4e-3 4.715 0.014 1.717 0.028 3.433 0.043 5.149 4e-3 1.813 7e-3 3.627 8e-3 5.441 6e-3 3.901 0.022 7.802 0.044 11.702 0.036 6.169 0.05 12.338 0.061 18.506 0.024 11.981 0.071 23.961 0.12 35.942 0.061 15.249 0.11 30.499 0.142 45.749 0.013 6.131 0.037 12.263 0.069 18.395 0.018 3.814 0.028 7.629 0.036 11.443 5e-3 1.768 0.014 3.536 0.027 5.304 0.016 2.415 0.019 4.83 0.022 7.245 6e-3 1.351 0.011 2.702 0.017 4.094-0.367 5.58-1.258 8.63-5.237 12.61-3.88 1.94-8.736 1.318-13.028 1.422-1.1 0.028-2.2 0.056-3.333 0.085-2.329 0.056-4.658 0.11-6.988 0.161-3.571 0.082-7.141 0.185-10.712 0.289-2.26 0.052-4.52 0.103-6.779 0.153-1.072 0.034-2.144 0.068-3.249 0.103-2.637 0.045-5.277-0.07-7.911-0.213-6.068-6.067-5.048-14.643-5.114-22.809 0-2.572 6e-3 -5.145 0.016-7.717 1e-3 -0.708 1e-3 -0.708 4e-3 -4.288 4e-3 -3.06 0.01-6.12 0.018-9.181 0.013-4.873 0.02-9.747 0.025-14.621 0.011-11.251 0.033-22.501 0.056-33.752 0.022-11.097 0.04-22.194 0.05-33.292 7e-3 -4.746 0.019-9.493 0.032-14.24 0.017-8.7-0.021-17.4-0.087-26.1-7e-3 -1.472-0.014-2.945-0.021-4.462-0.03-4.314-0.095-8.627-0.171-12.941-3e-3 -0.65-3e-3 -0.65-0.016-3.94-0.213-8.862-0.213-8.862-3.156-12.897-6.618-4.416-11.986-5.904-19.886-5.885-1.058-2e-3 -2.115-5e-3 -3.204-8e-3 -3.546 0.133-3.546 0.133-7.449 0.625-7.11 0.836-14.261 0.733-21.41 0.758-1.433 0.021-2.866 0.042-4.342 0.063-16.769 0.061-16.769 0.061-24.345-3.313-5.276-7.034-4.184-14.353-4.188-22.812-0.012-1.354-0.024-2.709-0.037-4.104-2e-3 -1.313-4e-3 -2.626-6e-3 -3.978-4e-3 -1.195-8e-3 -2.39-0.012-3.621 0.329-4.722 0.811-9.053 4.243-12.485 12.296-1.571 24.9-1.149 37.282-1.145z" fill="#00324B"/>
<path transform="translate(1450,233)" d="m0 0c3.305 1.836 5.575 4.127 8 7 0.701 0.784 1.402 1.567 2.125 2.375 3.261 4.565 6.341 9.248 9.383 13.961 3.186 4.888 6.647 9.258 10.492 13.664 3.569 4.446 6.451 8.902 9 14 1.621 2.037 3.296 4.031 5 6 3.898 4.626 7.683 9.123 10.5 14.5 2.31 4.405 5.223 8.053 8.379 11.883 5.609 6.921 10.968 14.245 15.48 21.933 1.742 2.849 3.619 5.543 5.579 8.246 0.669 0.93 1.338 1.859 2.027 2.817 2.035 2.621 2.035 2.621 4.144 4.703 2.443 2.478 3.839 5.362 5.469 8.41 3.534 6.233 7.899 11.964 12.422 17.508 5.194 6.775 9.994 13.708 14.438 21 1.955 3.052 3.895 5.665 6.187 8.438 3.461 4.377 5.153 8.105 6.375 13.562-2 4-2 4-6 6-13.07 2.118-26.812 1.154-40 1-1.511-5e-3 -3.022-0.01-4.578-0.016-9.293-0.286-15.372-2.784-21.86-9.511-4.069-4.773-7.432-9.653-10.316-15.211-2.905-5.273-6.532-10.195-10.371-14.824-2.167-2.818-3.765-5.845-5.453-8.965-3.053-5.309-6.64-10.324-10.547-15.035-2.167-2.818-3.765-5.845-5.453-8.965-3.038-5.283-6.608-10.274-10.484-14.973-1.863-2.404-3.383-4.827-4.938-7.438-0.518-0.862-1.036-1.724-1.57-2.613-1.162-1.99-2.246-4.027-3.305-6.074-2.125-2.375-2.125-2.375-5.875-3.375-7.694 1.81-11.003 8.919-15 15.312-0.743 1.217-1.485 2.434-2.25 3.688-1.333 1.667-2.667 3.333-4 5-0.351 0.577-0.351 0.577-2.125 3.5-2.344 3.846-5.033 7.333-7.813 10.875-3.585 4.598-6.746 9.197-9.648 14.246-1.984 3.338-4.245 6.453-6.496 9.613-2.223 3.205-4.321 6.477-6.418 9.766-3.185 4.991-6.448 9.891-9.902 14.699-1.598 2.301-1.598 2.301-2.977 4.633-4.256 7.117-10.64 13.008-18.621 15.668-3.269 0.122-6.516 0.188-9.785 0.203-0.971 6e-3 -1.942 0.012-2.942 0.017-2.059 0.01-4.117 0.016-6.176 0.02-3.123 0.01-6.246 0.041-9.368 0.072-2.005 7e-3 -4.01 0.012-6.014 0.016-0.923 0.012-1.847 0.025-2.798 0.038-7.673-0.026-15.271-0.72-20.917-6.366 0.147-4.847 1.904-7.889 4.625-11.812 0.722-1.046 1.444-2.091 2.187-3.168 2.423-3.344 4.959-6.576 7.536-9.801 1.76-2.364 3.237-4.795 4.714-7.344 2.555-4.402 5.593-8.031 8.938-11.875 1.694-2.649 3.359-5.318 5-8 3.844-5.724 7.916-11.23 12.176-16.648 4.369-5.633 8.587-11.342 12.324-17.414 2.034-3.205 4.111-6.009 6.5-8.938 3.382-4.147 6.212-8.425 9-13 3.275-4.877 6.675-9.637 10.312-14.25 5.388-6.841 10.797-13.877 15.243-21.371 1.58-2.602 3.376-4.85 5.32-7.191 3.913-4.834 7.38-9.797 10.234-15.344 7.401-13.706 18.35-27.224 34.891-24.844z" fill="#E16419"/>
<path transform="translate(1545,162.5)" d="m0 0c3.361 2.801 5.322 5.66 7.633 9.336 1.612 2.552 3.453 4.831 5.367 7.164 3.199 4.083 6.073 7.981 8.5 12.562 2.326 4.334 5.217 7.761 8.5 11.438 4.147 4.984 7.522 9.87 10.562 15.621 2.333 3.86 5.282 7.185 8.18 10.629 2.679 3.263 5.06 6.667 7.442 10.148 2.056 2.945 4.209 5.803 6.378 8.664 2.693 3.564 5.296 7.144 7.75 10.876 2.688 4.062 2.688 4.062 4.688 6.562 1.756 2.195 3.277 4.4 4.812 6.75 2.095 3.192 4.3 6.209 6.688 9.188 3.099 3.904 5.602 7.995 8.109 12.296 1.851 3.016 4.09 5.581 6.391 8.266 4.17 5.557 8.146 11.22 12 17 0.32 0.382 0.32 0.382 1.938 2.312 2.062 2.688 2.062 2.688 4.25 6.813 2.623 4.867 5.984 8.884 9.535 13.102 3.353 4.083 6.325 8.395 9.277 12.773 0.743 1.093 1.485 2.186 2.25 3.312 1.123 1.725 2.21 3.474 3.25 5.25 2.169 3.525 4.82 6.621 7.465 9.797 3.788 4.592 6.99 9.078 9.754 14.344 2.938 5.268 6.566 10.166 10.343 14.859 12.299 15.472 12.299 15.472 11.688 22.188-2.698 3.469-5.715 4.565-9.75 6.25-3.537 0.375-6.746 0.563-10.273 0.531-0.964 4e-3 -1.928 8e-3 -2.921 0.012-2.029 3e-3 -4.058-5e-3 -6.086-0.022-3.08-0.021-6.156 0-9.236 0.026-1.981-3e-3 -3.963-8e-3 -5.945-0.016-0.908 8e-3 -1.815 0.016-2.75 0.025-10.288-0.149-18.025-3.996-25.789-10.556-3.615-3.925-6.178-8.485-9-13-0.701-0.866-1.402-1.732-2.125-2.625-1.875-2.375-1.875-2.375-3.313-5.313-1.797-3.523-3.971-6.068-6.562-9.062-4.496-5.335-8.474-10.533-11.727-16.711-3.924-7.054-8.991-13.22-14.273-19.289-3.569-4.448-6.451-8.902-9-14-2.654-3.751-5.068-7.14-8.438-10.25-3.284-3.524-5.367-7.429-7.73-11.609-4.295-7.364-9.448-14.043-14.867-20.606-3.579-4.364-6.574-8.394-8.965-13.535-1.307-1.687-2.642-3.354-4-5-0.639-0.969-1.279-1.939-1.938-2.938-2.062-3.062-2.062-3.062-4.437-5.874-3.193-3.878-5.888-7.982-8.625-12.188-3.166-4.832-6.332-9.53-10-14-3.661-4.775-7.115-9.61-10.426-14.633-6.873-10.335-6.873-10.335-10.824-15.055-3.422-4.521-4.75-8.05-4.75-13.75 1.143-5.213 2.922-8.213 6-12.562 0.259-0.385 0.259-0.385 1.57-2.336 3.815-5.624 7.973-10.898 12.317-16.121 1.438-1.73 2.838-3.493 4.203-5.281 4.746-5.619 10.864-4.785 16.91-1.762z" fill="#E16419"/>
</svg>
