<?xml version="1.0" encoding="UTF-8"?>
<svg version="1.1" viewBox="0 0 2744 1112" xmlns="http://www.w3.org/2000/svg">
<path transform="translate(2203.7 472.61)" d="m0 0c0.807-6e-3 0.807-6e-3 4.89-0.034 1.791 2e-3 3.582 5e-3 5.373 8e-3 1.884-7e-3 3.768-0.015 5.653-0.025 5.119-0.022 10.239-0.025 15.359-0.023 4.272 0 8.544-9e-3 12.816-0.017 10.077-0.019 20.154-0.022 30.231-0.016 10.401 7e-3 20.801-0.016 31.202-0.053 8.926-0.031 17.852-0.042 26.777-0.038 5.333 2e-3 10.666-3e-3 15.999-0.028 5.014-0.022 10.028-0.02 15.042 0 1.841 3e-3 3.682-2e-3 5.523-0.016 2.512-0.018 5.024-2e-3 7.535 0.015 1.406-1e-3 2.812-1e-3 4.261-2e-3 4.433 0.767 5.788 2.201 8.603 5.623 0.845 0.929 1.691 1.857 2.562 2.813 2.716 3.552 4.488 7.167 6.438 11.187 0.825 1.279 1.65 2.558 2.5 3.875 1.907 3.148 3.217 5.744 4.5 9.125 1.812 4.746 4.188 8.751 7 13 6.63 10.231 6.63 10.231 8.562 14.25 2.681 5.129 5.301 9.064 10.938 10.875 4.247-1.365 4.554-2.312 6.625-6.125 0.963-1.997 1.921-3.997 2.875-6 1.652-2.675 3.317-5.343 5-8 2.518-4.225 4.768-8.526 6.937-12.937 2.428-4.906 5.084-9.474 8.063-14.063 0.247-0.412 0.247-0.412 1.5-2.5 1.285-2.141 2.607-4.26 3.937-6.375 2.563-4.125 2.563-4.125 4.563-7.937 2.192-3.494 3.308-4.483 7-6.188 3.657-0.372 3.657-0.372 7.855-0.363 0.754 0 0.754 0 4.572 2e-3 0.786 8e-3 0.786 8e-3 4.76 0.049 1.582-3e-3 3.165-7e-3 4.795-0.01 11.751 0.056 11.751 0.056 14.018 2.322-0.368 4.902-2.797 7.178-6.051 10.723-2.711 3.167-4.81 6.608-6.996 10.149-3.833 6.14-7.924 12.115-11.953 18.128-1.001 1.5-2.001 3-3 4.5l-3 4.5c-0.784 1.176-1.568 2.352-2.375 3.563-0.875 1.312-0.875 1.312-5.25 7.875-0.784 1.176-1.568 2.351-2.375 3.562l-3 4.5c-0.227 0.34-0.227 0.34-1.372 2.059-1.344 2.015-2.691 4.027-4.039 6.039-2.538 3.795-5.065 7.598-7.589 11.402-0.556 0.824-1.112 1.648-1.684 2.497-7.659 11.659-8.613 28.659-6.824 42.242 0.517 4.341 0.746 8.578 0.82 12.949 0.037 1.448 0.075 2.895 0.113 4.387-0.485 4.474-1.01 6.026-4.425 8.925-6.296 2.29-12.51 2.335-19.125 2.313-0.482 8e-3 -0.482 8e-3 -2.918 0.049-5.408 3e-3 -9.317-0.275-13.957-3.362-3-3-3-3-3.265-5.572 0.026-0.503 0.026-0.503 0.155-3.049 0.05-1.1 0.101-2.2 0.153-3.334 0.068-1.149 0.136-2.298 0.207-3.482 0.052-1.145 0.105-2.291 0.16-3.471 0.229-4.546 0.482-8.662 1.59-13.092 0.492-7.759-1.105-14.502-3-22-0.134-0.701-0.134-0.701-0.813-4.25-1.561-4.928-4.186-8.588-7.187-12.75-0.702-1.072-1.403-2.145-2.125-3.25-1.875-2.75-1.875-2.75-3.875-5.187-2.363-3.027-4.127-6.213-6-9.563-1.66-2.671-3.326-5.338-5-8-1.75-2.916-3.5-5.833-5.25-8.75-2.457-3.933-5.243-7.534-8.133-11.156-1.617-2.094-1.617-2.094-3.555-5.219-4.446-6.197-9.804-10.436-17.062-12.875-3.571-0.238-6.939-0.33-10.5-0.25-0.994 0.014-1.988 0.027-3.012 0.04-3.163 0.051-6.326 0.129-9.488 0.21-1.063 0.021-2.125 0.042-3.22 0.063-3.115 0.065-6.229 0.152-9.343 0.25-0.478 0.011-0.478 0.011-2.898 0.067-5.205 0.207-9.16 0.708-13.539 3.62-2.193 3.289-2.253 4.257-2.265 8.073-9e-3 1.049-0.017 2.097-0.026 3.178 1e-3 1.15 2e-3 2.3 3e-3 3.485-6e-3 1.212-0.013 2.423-0.02 3.672-0.014 2.635-0.023 5.271-0.028 7.906-8e-3 4.169-0.029 8.337-0.052 12.506-0.049 8.852-0.082 17.704-0.112 26.555-0.036 10.249-0.078 20.497-0.136 30.745-0.02 4.111-0.029 8.222-0.037 12.333-0.013 2.517-0.026 5.035-0.04 7.553 1e-3 1.146 2e-3 2.292 3e-3 3.473-9e-3 1.054-0.017 2.109-0.025 3.195-3e-3 0.913-6e-3 1.826-9e-3 2.767-0.292 2.915-0.896 4.963-2.256 7.559-6.843 5.133-14.561 4.108-22.75 3.688-0.932-0.036-1.864-0.071-2.825-0.108-4.461-0.214-7.379-0.556-11.425-2.58-3.418-11.513-3.149-23.507-3.133-35.41-1e-3 -1.562-2e-3 -3.125-3e-3 -4.735-1e-3 -4.131 3e-3 -8.262 9e-3 -12.393 2e-3 -2.523 0-5.047-4e-3 -7.57-6e-3 -4.872-5e-3 -9.743-2e-3 -14.614-2e-3 -1.497-4e-3 -2.994-6e-3 -4.537 0.015-7.007 0.217-13.795 1.139-20.741 0.2-3.48 0.229-6.952 0.25-10.437 0.02-0.877 0.041-1.755 0.062-2.658 0.044-7.527-1.167-14.353-5.125-20.905-4.473-4.089-9.581-4.249-15.422-4.23-0.689 1e-3 -0.689 1e-3 -4.179 6e-3 -1.431 0.012-2.862 0.024-4.336 0.037-1.416 1e-3 -2.831 1e-3 -4.289 2e-3 -5.969 0.025-11.856 0.091-17.79 0.771-4.171 0.414-4.171 0.414-7.171-0.773-3.083-2.794-3.952-5.297-4.336-9.379-0.013-1.319-0.026-2.637-0.039-3.996-0.029-1.321-0.057-2.643-0.086-4.004 0.152-1.133 0.304-2.266 0.461-3.434 4.641-3.48 6.084-3.379 11.736-3.394z" fill="#004B7D"/>
<path transform="translate(1955.3 472.84)" d="m0 0c0.851-5e-3 1.702-0.01 2.579-0.015 2.828-0.015 5.655-0.021 8.483-0.027 0.486-1e-3 0.486-1e-3 2.947-9e-3 5.168-0.015 10.336-0.024 15.504-0.028 5.277-6e-3 10.553-0.029 15.83-0.058 4.104-0.019 8.209-0.024 12.314-0.025 1.94-3e-3 3.881-0.011 5.821-0.025 10.568-0.067 20.948 0.333 31.446 1.619 0.464 0.054 0.464 0.054 2.812 0.327 5.636 0.765 10.477 2.196 15.674 4.515 2.261 0.887 2.261 0.887 6.886 1.637 5.872 1.678 8.521 4.673 12.375 9.25 0.57 0.633 1.139 1.266 1.726 1.918 6.366 7.604 7.831 16.414 7.567 26.082-0.674 6.903-2.118 12.433-6.293 18h-2l-2 4c-5.919 6.796-12.483 9.783-21 12v8c0.404 0.079 0.404 0.079 2.449 0.481 10.465 2.285 10.465 2.285 14.551 7.519 0.664 0.606 1.327 1.211 2.011 1.835 2.251 2.451 2.918 4.178 3.805 7.364 0.288 1.033 0.576 2.066 0.872 3.13 0.289 1.108 0.577 2.217 0.874 3.359 0.306 1.144 0.611 2.289 0.925 3.468 2.321 9.123 3.705 18.199 4.539 27.569 0.546 5.918 1.716 10.714 3.974 16.275-0.188 2.938-0.188 2.938-1 5-6.266 3.133-15.37 2.213-22.25 2.25-0.967 0.021-1.934 0.041-2.93 0.063-5.092 0.028-8.817 0.023-12.82-3.313-3.965-4.405-5.074-7.612-5.43-13.445-0.073-1.078-0.147-2.155-0.222-3.266-0.147-2.252-0.288-4.505-0.422-6.758-0.471-6.715-1.581-12.227-3.926-18.531-0.27-1.136-0.539-2.271-0.817-3.441-1.83-7.66-4.321-11.497-10.746-16.071-9.183-5.607-18.999-4.7-29.437-4.738-1.436-0.02-2.872-0.041-4.352-0.062-1.389-6e-3 -2.779-0.011-4.211-0.016-1.259-9e-3 -2.518-0.019-3.816-0.028-5.032 0.495-8.942 1.634-12.531 5.315-1.732 4.832-1.531 9.599-1.532 14.693-0.013 1.133-0.026 2.266-0.04 3.433-0.04 3.618-0.062 7.235-0.081 10.853-0.023 3.614-0.052 7.227-0.091 10.841-0.025 2.247-0.04 4.494-0.044 6.741-0.1 10.095-0.1 10.095-2.302 14.48-4.068 3.051-4.631 3.381-9.324 3.399-1.03 3e-3 -2.059 7e-3 -3.119 0.011-1.071-0.011-2.142-0.023-3.245-0.035-0.525 6e-3 -0.525 6e-3 -3.185 0.035-6.662-0.025-12.003-0.711-18.127-3.41-3.247-4.329-3.376-5.176-3.381-10.307-9e-3 -1.297-0.017-2.594-0.026-3.93 6e-3 -1.421 0.012-2.842 0.019-4.306-3e-3 -0.749-3e-3 -0.749-0.016-4.539-0.011-4.107-9e-3 -8.214 1e-3 -12.322 8e-3 -4.296 0-8.592-4e-3 -12.888-6e-3 -7.214 2e-3 -14.427 0.016-21.641 0.016-8.344 0.011-16.689-6e-3 -25.033-0.013-7.161-0.015-14.322-7e-3 -21.483 4e-3 -4.279 5e-3 -8.557-5e-3 -12.836-8e-3 -4.767 4e-3 -9.534 0.021-14.301-6e-3 -1.423-0.012-2.846-0.019-4.312 9e-3 -1.294 0.017-2.588 0.026-3.922 1e-3 -1.127 2e-3 -2.255 3e-3 -3.417 0.378-2.763 0.378-2.763 3.378-5.763 3.882-1.294 7.228-1.143 11.329-1.161zm30.671 24.161c-3.733 4.977-4.125 8.253-4.133 14.317-2e-3 1.006-4e-3 2.013-7e-3 3.05 5e-3 1.054 0.01 2.109 0.015 3.196 4e-3 1.076 8e-3 2.152 0.012 3.26 0.143 20.207 0.143 20.207 4.113 24.177 7.718 2.451 16.954 1.122 25 1 1.078-0.012 2.156-0.025 3.266-0.038 3.35-0.048 6.697-0.126 10.046-0.212 0.528-7e-3 0.528-7e-3 3.197-0.042 10.081-0.326 16.554-4.626 23.491-11.708 4.198-5.248 6.004-9.475 5.672-16.125-1.754-7.505-7.203-13.188-13.422-17.437-11.769-6.75-24.501-5.619-37.813-5.625-1.325-0.013-2.651-0.025-4.017-0.037-1.274-2e-3 -2.549-4e-3 -3.862-6e-3 -1.141-4e-3 -2.283-9e-3 -3.459-0.013-3.192 0.25-5.29 0.719-8.099 2.243z" fill="#004B7D"/>
<path transform="translate(1867.1 478.56)" d="m0 0c2.938 1.438 2.938 1.438 7.438 2.812 4.608 1.665 6.925 3.356 10.5 6.626 1.45 1.072 2.909 2.135 4.374 3.187 1.197 0.928 2.393 1.856 3.626 2.813v2c0.66 0.329 0.66 0.329 4 2 2.186 2.624 4.098 5.177 6 8 0.594 0.857 1.188 1.714 1.8 2.597 4.552 7.086 6.592 13.865 8.289 22.082 0.876 4.157 1.978 8.179 3.161 12.258 1.621 6.028 2.154 10.838 1.75 17.063-0.021 0.919-0.042 1.838-0.063 2.785-0.306 7.248-2.142 13.28-4.754 20.027-1.183 3.188-1.183 3.188-2.059 7.438-1.626 5.42-4.684 9.312-8.124 13.75-0.743 0.97-1.486 1.941-2.25 2.941-3.877 4.918-7.276 8.876-12.75 12.059-0.619 0.68-1.238 1.361-1.876 2.062-2.988 2.725-6.346 3.563-10.124 4.938-0.452 0.319-0.452 0.319-2.735 1.933-3.802 2.406-7.305 3.45-11.641 4.629-4.354 1.196-8.568 2.416-12.789 4.027-8.813 3.24-17.932 2.667-27.211 2.723-1.555 0.029-3.111 0.058-4.714 0.088-10.568 0.057-19.801-1.376-29.91-4.4-1.958-0.545-3.916-1.087-5.876-1.626-0.429-0.121-0.429-0.121-2.601-0.734-2.581-0.655-5.146-1.089-7.773-1.516-5.137-1.216-7.607-2.943-11.75-6.124-1.554-0.708-3.118-1.394-4.688-2.063-9.049-4.351-16.009-12.585-21.312-20.937-0.661-0.908-1.32-1.816-2-2.75-11.187-18.179-12.234-41.828-8-62.25 0.983-3.846 2.088-7.643 3.25-11.438 0.275-0.924 0.55-1.847 0.834-2.799 2.033-6.313 4.795-10.581 8.916-15.763 0.511-1.041 1.023-2.081 1.55-3.153 4.199-8.251 12.516-14.41 20.45-18.847 0.948-0.681 1.897-1.362 2.874-2.063 3.441-2.133 6.872-3.516 10.661-4.91 2.465-1.027 2.465-1.027 4.765-2.543 21.791-11.983 69.248-7.899 90.762 3.078zm-63.625 14.688c-1.445 0.232-2.89 0.464-4.379 0.703-4.193 1.081-6.621 2.473-10.058 5.047-0.907 0.555-1.813 1.111-2.747 1.683-7.911 5.156-11.288 10.901-15.253 19.317-0.533 0.822-1.065 1.644-1.614 2.492-5.148 9.31-3.589 23.368-3.636 33.695-0.01 1.258-0.019 2.516-0.029 3.812 0.073 21.634 0.073 21.634 5.279 30.001 0.446 0.791 0.892 1.582 1.351 2.398 2.766 4.837 5.426 8.894 9.649 12.602 1.072 0.99 2.144 1.98 3.25 3 10.083 8.066 18.663 9.242 31.25 9.374 0.656 0.019 0.656 0.019 3.976 0.114 8.954 0.08 15.581-1.373 23.524-5.488 0.852-0.427 1.705-0.854 2.583-1.294 3.991-2.096 7.59-4.143 10.417-7.706v-2c1.319-0.66 2.639-1.32 4-2 2.868-2.869 3.619-4.107 4.937-7.75 1.229-3.258 2.457-5.915 4.25-8.938 4.451-8.134 2.999-18.445 2.998-27.491 2e-3 -2.747 0.02-5.494 0.039-8.241 3e-3 -1.765 5e-3 -3.53 6e-3 -5.295 4e-3 -1.59 8e-3 -3.179 0.012-4.817-0.717-13.193-7.85-23.546-17.242-32.468-5.881-4.639-11.602-8.88-19.176-9.852-0.994-0.129-1.987-0.258-3.01-0.391-1.032-0.126-2.064-0.252-3.127-0.383-1.02-0.134-2.041-0.268-3.092-0.406-8.359-1.059-15.803-1.122-24.158 0.282z" fill="#004B7D"/>
<path transform="translate(1554.9 472.69)" d="m0 0c0.742-0.015 0.742-0.015 4.496-0.088 0.711-4e-3 0.711-4e-3 4.309-0.025 0.653-8e-3 0.653-8e-3 3.96-0.044 4.009 0.56 4.903 1.335 7.36 4.469 0.499 2.625 0.499 2.625 0.498 5.639 5e-3 0.566 5e-3 0.566 0.031 3.428-8e-3 1.217-0.017 2.434-0.025 3.687 9e-3 1.253 0.019 2.505 0.028 3.796 0.029 4.004 0.032 8.008 0.031 12.013 3e-3 4.008 0.013 8.016 0.04 12.024 0.017 2.495 0.02 4.991 7e-3 7.486 7e-3 1.128 0.014 2.256 0.021 3.418-1e-3 0.994-2e-3 1.988-3e-3 3.012 0.372 2.497 0.372 2.497 3.372 5.497 7.259 2.182 14.238 2.307 21.777 2.301 1.207 5e-3 2.413 9e-3 3.656 0.013 2.541 6e-3 5.082 7e-3 7.622 2e-3 3.867-3e-3 7.733 0.021 11.599 0.046 2.479 2e-3 4.957 3e-3 7.436 2e-3 0.572 4e-3 0.572 4e-3 3.47 0.028 7.049-0.041 12.837-0.846 19.44-3.392 2.224-3.335 2.257-4.432 2.287-8.325 7e-3 -0.544 7e-3 -0.544 0.041-3.297 5e-3 -1.175 0.01-2.35 0.016-3.561 0.014-1.207 0.029-2.414 0.044-3.658 0.047-3.865 0.081-7.73 0.112-11.596 0.041-5.082 0.095-10.164 0.156-15.246 6e-3 -1.173 0.011-2.346 0.016-3.555 7e-3 -0.545 7e-3 -0.545 0.041-3.306 7e-3 -0.959 0.014-1.918 0.022-2.907 0.265-2.549 0.265-2.549 2.265-6.549 5.147-2.573 12.728-1.322 18.375-1.374 0.766-0.019 0.766-0.019 4.641-0.114 0.733-6e-3 0.733-6e-3 4.445-0.035 1.349-0.02 2.698-0.04 4.087-0.06 3.452 0.583 3.452 0.583 5.636 2.731 2.131 3.347 2.316 5.133 2.317 9.07 0.01 1.252 0.02 2.504 0.03 3.794-0.01 1.366-0.019 2.731-0.029 4.139 2e-3 0.722 2e-3 0.722 0.016 4.377 0.013 4.781-4e-3 9.562-0.022 14.344 0 3.319 2e-3 6.638 5e-3 9.957 2e-3 6.96-0.011 13.919-0.034 20.879-0.027 8.04-0.029 16.081-0.017 24.121 0.011 7.741 5e-3 15.481-0.01 23.222-4e-3 3.291-4e-3 6.582-1e-3 9.874 3e-3 4.599-0.013 9.197-0.035 13.796 2e-3 0.682 2e-3 0.682 0.014 4.133-0.01 1.255-0.02 2.509-0.03 3.802-2e-3 0.543-2e-3 0.543-8e-3 3.293-0.45 3.615-1.468 5.959-3.38 9.051-5.999 4.5-11.11 4.182-18.437 4.188-1.649 0.014-3.298 0.028-4.997 0.043-4.075-0.206-6.91-0.483-10.566-2.231-3.957-5.275-4.112-9.434-4.174-15.865-0.013-1.132-0.027-2.263-0.04-3.428-6e-3 -0.603-6e-3 -0.603-0.032-3.656-0.033-2.564-0.066-5.129-0.1-7.693-0.047-4.036-0.092-8.072-0.131-12.108-0.039-3.9-0.091-7.799-0.144-11.699-9e-3 -1.212-0.017-2.425-0.026-3.674-0.016-1.122-0.033-2.243-0.05-3.399-5e-3 -0.494-5e-3 -0.494-0.031-2.993-0.272-2.485-0.272-2.485-2.272-5.485-16.788-7.195-41.319-3.64-59.125-2.187-0.922 0.07-1.844 0.14-2.793 0.212-4.948 0.468-8.933 1.17-13.082 3.975-2.691 3.693-3.378 6.293-3.401 10.829-6e-3 0.574-6e-3 0.574-0.04 3.478v3.729c-0.014 1.27-0.027 2.541-0.04 3.851-0.041 4.058-0.063 8.117-0.082 12.176-0.023 4.062-0.051 8.125-0.091 12.187-0.025 2.528-0.04 5.055-0.044 7.583-0.01 1.144-0.02 2.289-0.031 3.469-4e-3 1.006-8e-3 2.012-0.013 3.049-0.258 2.649-0.258 2.649-2.258 6.649-6.14 4.094-13.42 3.252-20.563 3.313-1.136 0.029-2.272 0.058-3.443 0.088-1.092 8e-3 -2.185 0.017-3.31 0.025-0.498 8e-3 -0.498 8e-3 -3.014 0.044-3.411-0.6-4.549-1.785-6.67-4.47-1.09-3.27-1.129-5.661-1.134-9.104-4e-3 -1.277-8e-3 -2.554-0.013-3.87 1e-3 -1.405 1e-3 -2.809 2e-3 -4.256-4e-3 -1.476-7e-3 -2.953-0.01-4.474-8e-3 -4.054-0.012-8.107-0.012-12.161-1e-3 -3.382-5e-3 -6.765-8e-3 -10.147-9e-3 -7.979-0.011-15.957-0.01-23.935 0-8.235-0.01-16.47-0.026-24.705-0.013-7.067-0.018-14.133-0.018-21.2 0-4.222-2e-3 -8.444-0.013-12.666-0.01-4.708-7e-3 -9.415-1e-3 -14.122-6e-3 -1.402-0.011-2.804-0.017-4.249 4e-3 -1.28 8e-3 -2.56 0.013-3.879-1e-3 -1.113-1e-3 -2.227-2e-3 -3.374 0.249-2.858 0.249-2.858 2.249-6.858 5.023-2.511 12.364-1.276 17.875-1.312z" fill="#004B7D"/>
<path transform="translate(1165.4 472.75)" d="m0 0c0.664-0.01 0.664-0.01 4.023-0.062 1.279-6e-3 2.558-0.011 3.875-0.016 0.585-5e-3 0.585-5e-3 3.545-0.028 3.601 0.403 5.294 1.2 8.182 3.356 2.706 10.051 2.268 20.466 2.244 30.805-6e-3 3.155 4e-3 6.31 0.017 9.466 0.037 8.963 0.056 17.926 0.044 26.889-5e-3 5.506 0.013 11.012 0.046 16.517 8e-3 2.082 7e-3 4.164-4e-3 6.246-0.115 23.189-0.115 23.189 5.653 33.077 1.622 1.387 3.285 2.729 5 4 0.469 0.829 0.938 1.658 1.422 2.512 3.251 5.126 9.006 7.133 14.645 8.855 6.148 1.327 12.352 1.387 18.62 1.445 1.306 0.024 2.611 0.048 3.957 0.072 8.262-0.111 14.313-1.635 21.636-5.484 2.72-1.4 2.72-1.4 6.97-2.588 6.207-2.999 10.935-8.886 13.829-15.146 3.649-10.559 2.018-23.356 1.935-34.42-0.022-3.112-0.036-6.223-0.048-9.334-0.033-8.837-0.075-17.673-0.137-26.51-0.038-5.429-0.061-10.858-0.075-16.287-8e-3 -2.059-0.021-4.119-0.041-6.179-0.026-2.876-0.034-5.751-0.038-8.627-5e-3 -0.816-5e-3 -0.816-0.029-4.948 0.362-4.459 1.237-7.441 3.354-11.361 5.409-3.328 12.358-2.408 18.5-2.438 1.223-0.032 2.447-0.065 3.707-0.099 1.18-7e-3 2.359-0.014 3.574-0.022 0.537-6e-3 0.537-6e-3 3.252-0.04 4.124 0.833 5.399 2.282 7.967 5.599 0.474 3.243 0.645 5.95 0.583 9.186 3e-3 0.918 5e-3 1.836 8e-3 2.782 1e-3 3.036-0.033 6.07-0.068 9.106-6e-3 2.125-0.011 4.249-0.014 6.374-0.013 5.604-0.058 11.208-0.107 16.812-0.036 4.526-0.049 9.052-0.061 13.579-0.015 5.453-0.04 10.907-0.068 16.36-4e-3 1.019-9e-3 2.037-0.014 3.087-0.234 41.402-0.234 41.402-7.759 50.808-1.5 1.906-1.5 1.906-3.375 4.968-4.699 6.497-10.458 10.469-17.73 13.7-2.395 1.238-2.395 1.238-4.708 3.258-3.405 2.509-6.375 3.101-10.5 3.98-6.017 1.387-10.805 3.055-16.187 6-4.674 1.272-9.497 1.341-14.313 1.562-0.445 0.021-0.445 0.021-2.697 0.125-38.731 1.674-38.731 1.674-55.002-6.242-2.659-1.286-5.159-2.191-7.988-3.007-4.349-1.564-6.644-3.296-10-6.438-1.258-1.031-2.516-2.062-3.813-3.125-11.371-10.178-18.631-22.671-21.187-37.875-0.099-3.424-0.147-6.827-0.145-10.25-4e-3 -1.03-7e-3 -2.06-0.01-3.121-0.01-3.4-0.012-6.8-0.013-10.199-3e-3 -2.363-7e-3 -4.725-0.01-7.087-6e-3 -4.948-8e-3 -9.896-7e-3 -14.843 0-6.351-0.014-12.701-0.031-19.051-0.011-4.876-0.013-9.752-0.013-14.628-1e-3 -2.342-5e-3 -4.684-0.013-7.026-0.01-3.268-7e-3 -6.535-1e-3 -9.803-6e-3 -0.973-0.011-1.945-0.017-2.947 0.032-6.703 0.032-6.703 2.26-10.045 5.544-1.848 11.574-1.228 17.375-1.25z" fill="#004B7D"/>
<path transform="translate(1042.1 472.69)" d="m0 0c1.644-0.016 3.287-0.032 4.98-0.049 1.577 0 3.154-1e-3 4.778-2e-3 1.437-3e-3 2.875-6e-3 4.356-9e-3 5.188 0.514 7.598 2.239 11.261 5.81 2.837 4.043 4.527 8.066 6.289 12.66 1.211 2.902 1.211 2.902 2.777 5.449 1.511 2.586 2.114 4.727 2.747 7.641 1.295 5.095 3.382 8.88 6.207 13.273 2.037 3.496 3.256 7.134 4.55 10.954 0.93 2.585 0.93 2.585 2.93 6.585 2.044 4.088 3.532 8.157 4.973 12.485 1.027 2.515 1.027 2.515 4.027 6.515 0.999 2.435 1.929 4.897 2.813 7.376 7.27 19.843 7.27 19.843 11.277 25.656 1.971 3.063 2.665 5.297 3.347 8.844 1.047 4.604 2.437 7.812 5.165 11.722 3.318 5.701 5.174 12.214 7.398 18.402 0.392 0.931 0.784 1.862 1.187 2.821 1.048 2.81 0.8 4.372-0.187 7.179-4.688 3.126-9.549 2.329-15.063 2.313-0.547 8e-3 -0.547 8e-3 -3.318 0.049-8.144 5e-3 -15.523-0.747-22.556-5.236-2.665-4.037-3.127-7.844-4.04-12.551-1.513-5.287-4.334-9.456-7.378-13.992-1.645-2.583-1.645-2.583-1.645-4.583-8.39-2.024-16.338-2.306-24.949-2.3-1.412-5e-3 -2.824-9e-3 -4.279-0.013-2.971-6e-3 -5.942-7e-3 -8.913-2e-3 -4.542 3e-3 -9.084-0.021-13.627-0.046-2.893-2e-3 -5.787-3e-3 -8.681-2e-3 -1.355-9e-3 -2.709-0.018-4.104-0.028-7.943 0.039-14.082 0.194-20.111 5.923-3.516 5.221-5.556 10.9-7.766 16.769-2.856 7.131-6.246 11.636-13.41 15.055-4.28 0.873-8.356 0.947-12.723 0.957-0.837 0.016-1.674 0.032-2.537 0.049-4.824 4e-3 -8.056-0.355-11.9-3.362-1-1-1-1-1.25-4.75 0.259-4.399 0.757-5.777 3.25-9.25 2.5-3.983 4.266-7.612 5.5-12.124 0.867-3.148 1.367-4.718 3.5-7.25 2.229-2.926 2.612-4.812 3.375-8.376 1.182-5.298 3.02-8.817 6.211-13.156 2.102-3.112 3.127-6.583 4.414-10.094 0.324-0.375 0.324-0.375 1.965-2.277 2.464-3.296 3.085-6.031 3.972-10.035 1.545-6.264 3.453-10.411 7.063-15.688 0.495-1.319 0.99-2.639 1.5-4 1.5-4 1.5-4 4-7.874 2.415-3.985 3.499-7.198 4.687-11.622 1.093-3.368 2.823-6.177 4.622-9.211 1.67-3.214 2.498-6.541 3.445-10.023 1.03-3.132 2.923-5.535 4.746-8.27 0.472-1.657 0.906-3.325 1.313-5 1.504-5.399 3.973-7.857 8.687-11 8.204-2.906 16.526-2.329 25.125-2.312zm-9.125 36.312c-2.227 4.174-2.584 8.551-3.145 13.184-0.855 2.816-0.855 2.816-3.269 5.703-2.873 3.459-3.88 6.201-5.149 10.489-1.724 5.535-3.769 10.467-6.437 15.624-0.568 1.596-1.109 3.2-1.625 4.813-1.375 4.187-1.375 4.187-3.375 7.187-0.5 4-0.5 4 0 8 5.12 3.75 10.675 3.421 16.762 3.364 0.514 0 0.514 0 3.114 1e-3 2.164-2e-3 4.328-0.012 6.492-0.028 3.319-0.024 6.636-0.021 9.954-0.014 2.105-6e-3 4.21-0.013 6.315-0.022 0.993 1e-3 1.987 2e-3 3.011 3e-3 7.005-0.072 7.005-0.072 10.352-2.304 0.934-9.474-1.281-17.375-7-25-0.773-2.988-0.773-2.988-1.375-6.312-0.909-4.31-1.525-6.548-4.125-10.188-2.605-3.647-3.074-5.621-3.875-9.937-1.399-6.77-3.292-10.104-8.625-14.563-4.313-0.812-4.313-0.812-8 0z" fill="#004B7D"/>
<path transform="translate(474.25 471.22)" d="m0 0c3.936 0.82 7.814 1.25 11.812 1.656 5.936 0.738 8.562 1.948 12.938 6.125 1.853 0.727 3.731 1.389 5.625 2 4.613 1.544 6.61 2.904 9.375 7 0.464 0.31 0.464 0.31 2.812 1.875 11.116 7.411 17.115 19.099 22.188 31.125 0.557 0.928 1.114 1.857 1.688 2.813 7.68 12.801 4.581 41.207 1.312 55.187-0.83 2.559-1.776 4.981-2.871 7.438-1.319 2.994-2.396 6.047-3.504 9.125-3.117 8.118-7.281 14.418-13.625 20.437-0.722 0.99-1.444 1.98-2.188 3-3.181 3.394-6.106 4.873-10.312 6.727-2.5 1.273-2.5 1.273-4.922 3.293-2.91 2.235-5.307 3.06-8.828 4.043-3.915 1.122-7.785 2.266-11.625 3.625-7.018 2.233-13.84 2.481-21.16 2.515-0.956 6e-3 -1.912 0.012-2.896 0.018-2.018 9e-3 -4.036 0.016-6.054 0.019-3.044 0.01-6.087 0.041-9.13 0.073-13.913 0.076-26.278-1.252-39.354-6.348-2.425-0.924-4.855-1.668-7.343-2.402-4.356-1.626-6.781-3.459-10.188-6.563-0.969-0.598-1.939-1.196-2.938-1.812-4.049-2.893-6.938-6.343-10.062-10.188-1.031-1.237-2.062-2.475-3.125-3.75-3.656-4.962-5.728-10.512-7.875-16.25-0.577-1.444-1.155-2.887-1.75-4.375-2.925-10.821-2.432-22.48-2.438-33.625-0.012-1.25-0.024-2.501-0.037-3.789-0.018-12.137 0.366-23.196 6.78-33.746 1.445-2.465 1.445-2.465 3.007-6.777 1.578-4.047 3.527-6.493 6.438-9.688 0.66-0.845 1.32-1.691 2-2.562 4.422-5.389 9.402-9.35 15-13.438l4-3c2.644-1.127 5.328-2.028 8.047-2.961 1.803-0.634 3.591-1.316 5.344-2.078 9-3.803 18.638-4.524 28.258-5.662 1.859-0.236 3.709-0.539 5.554-0.865 10.15-1.574 20.114-0.488 30.047 1.785zm-58.25 21.781c-1.238 0.495-2.475 0.99-3.75 1.5-3.691 1.704-4.852 3.278-7.25 6.5-1.114 0.928-2.228 1.856-3.375 2.813-7.279 6.4-10.644 12.728-13.437 21.812-0.299 0.915-0.597 1.831-0.905 2.774-4.95 15.466-6.201 34.458 0.428 49.531 1.388 3.307 2.061 6.426 2.727 9.945 1.308 6.12 3.499 9.399 7.562 14.125 0.598 1.011 1.196 2.022 1.812 3.063 6.58 8.835 16.119 12.714 26.286 15.972 2.902 0.965 2.902 0.965 5.398 2.024 6.56 2.466 13.406 2.125 20.316 2.129 1.043 0.012 2.085 0.024 3.159 0.037 8.383 0.016 15.992-0.965 23.654-4.6 0.859-0.399 1.717-0.799 2.602-1.211 11.012-5.615 21.998-13.204 26.746-25.062 1.027-2.352 1.027-2.352 3.015-5.172 2.244-3.546 3.153-6.612 4.137-10.68 1.782-7.245 1.782-7.245 2.957-10.461 3.607-11.939 0.655-24.962-2.207-36.726-0.283-1.193-0.566-2.387-0.857-3.616-1.883-7.228-4.191-12.005-9.018-17.697-0.516-1.052-1.031-2.103-1.562-3.187-1.685-3.297-3.732-5.305-6.438-7.813-0.577-0.68-1.155-1.361-1.75-2.062-2.704-2.329-5.614-3.572-8.895-4.926-2.355-1.012-2.355-1.012-6.293-3.199-8.846-3.947-19.342-2.995-28.874-3-1.277-0.012-2.554-0.025-3.87-0.037-11.962-0.019-22.374 0.195-32.318 7.224z" fill="#004B7D"/>
<path transform="translate(603.31 473.05)" d="m0 0c0.747 9e-3 0.747 9e-3 4.525 0.057 3.132 0.042 6.265 0.086 9.398 0.134 4.752 0.071 9.504 0.125 14.257 0.178 3.065 0.043 6.13 0.086 9.195 0.131 1.398 0.015 2.797 0.029 4.238 0.045 13.214 0.226 25.969 0.778 38.075 6.404 1.258 0.495 2.516 0.99 3.812 1.5 3.21 1.511 5.463 3.253 8.188 5.5 1.154 0.495 2.309 0.99 3.5 1.5 6.822 4.873 8.463 13.255 10 21.188 0.739 5.862-0.119 9.836-2.5 15.312-0.305 0.857-0.609 1.715-0.922 2.598-1.885 5.245-3.694 8.766-8.078 12.402-0.702 0.64-1.403 1.279-2.126 1.938-3.668 2.631-7.558 4.687-11.546 6.793-2.328 1.269-2.328 1.269-3.328 2.269-0.042 2.667-0.043 5.334 0 8 0.819 0.219 1.639 0.439 2.484 0.664 1.078 0.317 2.155 0.634 3.266 0.961 1.067 0.302 2.134 0.604 3.234 0.914 3.827 1.854 4.957 3.781 7.016 7.461 0.527 0.926 1.054 1.851 1.597 2.805 4.095 8.584 5.281 16.593 6.213 25.929 0.94 8.766 3.132 16.631 5.982 24.954 1.229 4.389 1.661 7.783 1.208 12.312-3.746 3.745-5.081 3.433-10.25 3.438-7.523-0.159-11.807-1.417-17.126-6.875-2.598-4.098-2.743-8.145-2.835-12.914-0.029-1.017-0.057-2.034-0.086-3.082-0.052-2.104-0.096-4.209-0.133-6.313-0.293-9.701-2.122-18.22-6.758-26.816-2.812-5.263-2.812-5.263-2.812-7.438l-4-2c-0.6-0.799-1.199-1.598-1.817-2.422-2.727-3.219-5.23-4.25-9.121-5.828-0.603-0.25-0.603-0.25-3.652-1.515-8.324-3.013-16.859-2.457-25.603-2.475-2.798-0.01-5.595-0.041-8.393-0.072-1.784-7e-3 -3.568-0.012-5.352-0.016-0.809-5e-3 -0.809-5e-3 -4.902-0.028-6.636 0.568-9.748 3.576-14.16 8.356-1.317 2.633-1.14 4.616-1.158 7.564-5e-3 0.582-5e-3 0.582-0.031 3.53-8e-3 1.265-0.015 2.529-0.022 3.832-0.029 2.66-0.057 5.319-0.086 7.979-0.042 4.206-0.079 8.413-0.105 12.62-0.027 4.051-0.073 8.101-0.122 12.151-3e-3 1.258-6e-3 2.517-0.01 3.814-0.016 1.174-0.033 2.348-0.05 3.558-8e-3 1.031-0.016 2.062-0.025 3.125-0.585 4.226-2.415 6.85-5.391 9.827-4.772 1.193-9.107 1.578-14 1-2.563-1.625-2.563-1.625-4-4-0.874-4.138-1.128-8.084-1.134-12.306-4e-3 -1.247-9e-3 -2.493-0.013-3.777 0-1.355 1e-3 -2.709 1e-3 -4.105-3e-3 -1.436-6e-3 -2.872-0.01-4.352-9e-3 -4.748-0.011-9.497-0.012-14.245-4e-3 -3.298-7e-3 -6.595-0.011-9.893-6e-3 -6.911-7e-3 -13.821-7e-3 -20.732 1e-3 -7.987-0.01-15.973-0.026-23.96-0.014-7.689-0.018-15.377-0.017-23.066-1e-3 -3.27-6e-3 -6.54-0.014-9.81-9e-3 -4.565-6e-3 -9.13 0-13.695-6e-3 -1.357-0.012-2.713-0.017-4.111 2e-3 -0.622 2e-3 -0.622 0.012-3.768 0-1.079-1e-3 -2.158-1e-3 -3.27 0.279-3.265 0.848-6.509 3.249-8.91 10.742-1.13 21.525-1.109 32.312-0.949zm6.562 15.262c-0.774 0.029-0.774 0.029-4.695 0.176-4.17 0.51-6.676 1.24-10.179 3.511-5.352 7.136-4.187 14.699-4.186 23.298-2e-3 2.495-0.02 4.99-0.039 7.485-2e-3 1.584-4e-3 3.168-6e-3 4.799-4e-3 1.446-8e-3 2.892-0.012 4.382 0.243 4.041 0.743 7.276 2.243 11.036 7.358 3.68 15.895 3.171 24 3.125 0.929-5e-3 1.858-9e-3 2.815-0.014 3.062-0.026 6.123-0.067 9.185-0.111 1.112-0.012 2.225-0.025 3.372-0.038 3.439-0.048 6.877-0.125 10.315-0.212 1.062-0.014 2.123-0.028 3.217-0.042 11.526-0.364 22.546-4.334 31.533-11.708 4.783-6.121 4.419-13.772 4.211-21.226-0.972-7.154-4.175-11.249-9.648-15.774-11.022-7.395-23.026-8.846-36-9-1.31-0.027-2.62-0.054-3.969-0.082-7.389-0.081-14.774 0.106-22.157 0.395z" fill="#004B7D"/>
<path transform="translate(1355.3 472.51)" d="m0 0c1.294-8e-3 2.588-0.017 3.921-0.025 0.709 5e-3 0.709 5e-3 4.297 0.034 1.494-4e-3 2.989-8e-3 4.529-0.012 4.099-6e-3 8.198 6e-3 12.297 0.026 4.29 0.018 8.58 0.014 12.87 0.013 7.205 2e-3 14.41 0.02 21.615 0.047 8.329 0.031 16.657 0.042 24.986 0.04 8.867-1e-3 17.734 0.013 26.601 0.031 2.555 5e-3 5.109 6e-3 7.664 7e-3 4.762 4e-3 9.523 0.022 14.285 0.043 1.416-1e-3 2.832-2e-3 4.29-3e-3 0.649 4e-3 0.649 4e-3 3.93 0.026 1.126 3e-3 2.252 7e-3 3.412 0.01 3.107 0.266 5.255 0.807 8.009 2.257 3.56 5.34 3.357 10.666 3 17-3 4-3 4-5.535 4.739-4.635 0.35-9.257 0.417-13.902 0.437-2.05 0.023-4.099 0.048-6.149 0.073-3.212 0.035-6.425 0.064-9.637 0.077-3.114 0.016-6.226 0.056-9.339 0.1-0.957-2e-3 -1.913-4e-3 -2.899-6e-3 -5.663 0.104-9.36 0.627-13.539 4.58-2.672 5.662-2.246 11.467-2.179 17.586 2e-3 0.58 2e-3 0.58 0.013 3.516 0.011 2.514 0.027 5.028 0.046 7.542 0.031 3.981 0.047 7.961 0.06 11.942 0.04 11.315 0.105 22.631 0.177 33.946 0.042 6.926 0.07 13.851 0.09 20.776 0.011 2.638 0.027 5.275 0.049 7.912 0.031 3.689 0.044 7.377 0.053 11.065 0.014 1.088 0.028 2.175 0.042 3.296-7e-3 5.832-0.421 10.202-3.351 15.419-5.633 4.812-13.041 3.271-20 3-1.242-0.03-2.485-0.061-3.765-0.093-1.15-0.052-2.3-0.103-3.485-0.157-1.036-0.046-2.073-0.092-3.14-0.14-2.61-0.61-2.61-0.61-5.61-4.61-0.952-3.406-1.128-6.629-1.138-10.154-5e-3 -1.016-0.011-2.033-0.016-3.08-1e-3 -1.104-2e-3 -2.208-4e-3 -3.345-5e-3 -1.172-0.01-2.343-0.015-3.55-0.011-2.541-0.019-5.083-0.026-7.624-0.012-4.023-0.031-8.045-0.053-12.067-0.062-11.435-0.116-22.87-0.149-34.305-0.021-6.995-0.056-13.991-0.101-20.986-0.014-2.666-0.023-5.332-0.026-7.998-5e-3 -3.727-0.028-7.454-0.055-11.181 3e-3 -1.102 6e-3 -2.204 9e-3 -3.34-0.06-5.473-0.149-9.739-3.426-14.37-5.624-3.02-10.914-4.124-17.238-4.132-0.493-1e-3 -0.493-1e-3 -2.986-4e-3 -1.019 4e-3 -2.038 7e-3 -3.088 0.011-1.008-3e-3 -2.015-7e-3 -3.053-0.011-5.641 7e-3 -11.034 0.408-16.635 1.136-3.301-0.015-3.301-0.015-6.312-0.25-1.007-0.067-2.014-0.134-3.051-0.203-2.637-0.547-2.637-0.547-5.637-3.547-1.151-3.453-1.24-6.298-1.312-9.937-0.038-1.226-0.075-2.452-0.114-3.715 0.426-3.348 0.426-3.348 2.059-5.526 3.069-2.361 4.812-2.32 8.661-2.316z" fill="#004B7D"/>
<path transform="translate(223.86 472.92)" d="m0 0c1.106 4e-3 2.211 8e-3 3.35 0.013 3.596 0.016 7.191 0.042 10.787 0.069 1.184 8e-3 2.367 0.016 3.587 0.024 7.295 0.052 14.589 0.133 21.883 0.238 2.498 0.034 4.996 0.062 7.494 0.084 26.552 0.243 26.552 0.243 38.036 3.654 1.441 0.376 2.882 0.753 4.367 1.141 7.822 2.473 12.927 4.938 18.633 10.859 0.701 0.619 1.402 1.238 2.125 1.875 7.566 8.576 9.092 15.181 9.187 26.375 0.029 1.12 0.058 2.24 0.088 3.395 0.083 10.818-3.963 16.37-11.178 24.125-4.706 4.722-9.688 6.964-15.855 9.203-2.367 1.027-2.367 1.027-6.367 4.027-3.741 0.935-7.164 1.368-10.996 1.719-1.364 0.127-2.727 0.255-4.131 0.387-1.423 0.13-2.845 0.26-4.311 0.394-2.811 0.258-5.622 0.518-8.433 0.781-1.247 0.114-2.495 0.228-3.779 0.346-2.841 0.316-5.554 0.803-8.35 1.373-2.457 0.093-4.917 0.13-7.375 0.125-1.266 3e-3 -2.532 5e-3 -3.836 8e-3 -3.672-0.129-7.162-0.572-10.789-1.133-6.429-0.44-10.011-0.241-15 4-1.372 2.743-1.14 4.952-1.158 8.023-5e-3 0.632-5e-3 0.632-0.031 3.833-7e-3 1.374-0.015 2.748-0.022 4.164-0.028 2.887-0.057 5.774-0.086 8.662-0.041 4.569-0.078 9.138-0.105 13.707-0.027 4.398-0.073 8.795-0.122 13.193-3e-3 1.368-6e-3 2.736-0.01 4.145-0.016 1.275-0.033 2.549-0.05 3.862-8e-3 1.12-0.016 2.24-0.024 3.394-0.44 3.387-1.372 5.286-3.392 8.017-4.441 2.22-10.178 1.514-15 1-3.25-2-3.25-2-5-5-1.192-6.768-1.142-13.493-1.13-20.341-1e-3 -1.217-3e-3 -2.435-5e-3 -3.689-4e-3 -4.016-1e-3 -8.032 2e-3 -12.048-1e-3 -2.811-2e-3 -5.621-3e-3 -8.431-1e-3 -5.895 1e-3 -11.789 5e-3 -17.683 6e-3 -7.504 3e-3 -15.008-3e-3 -22.512-4e-3 -5.811-3e-3 -11.621 0-17.431 1e-3 -2.763 0-5.526-3e-3 -8.29-0.029-43.827-0.029-43.827 3.137-48.575 4.534-1.511 9.13-1.114 13.863-1.082zm8.795 20.133c-2.4 4.268-2.23 8.372-2.19 13.14-3e-3 0.983-7e-3 1.965-0.011 2.977-3e-3 2.072 4e-3 4.144 0.021 6.216 0.022 3.171 0 6.341-0.025 9.513 2e-3 2.014 8e-3 4.029 0.015 6.044-8e-3 0.948-0.016 1.896-0.024 2.873 0.093 6.543 0.093 6.543 2.401 9.752 4.992 3.323 10.487 2.596 16.252 2.602 0.552 2e-3 0.552 2e-3 3.346 0.01 2.341 5e-3 4.682 7e-3 7.023 7e-3 3.558 3e-3 7.115 0.021 10.672 0.04 2.278 3e-3 4.556 5e-3 6.834 5e-3 0.528 4e-3 0.528 4e-3 3.196 0.022 12.61-0.038 20.841-2.66 30.644-10.502 4.644-5.838 6.989-12.574 6.633-20.102-1.19-7.076-3.822-12.9-8.695-18.148-4.184-2.789-8.096-4.599-12.75-6.5-0.853-0.524-1.706-1.048-2.584-1.588-4.856-2.007-9.305-1.841-14.51-1.81-1.065-3e-3 -2.13-6e-3 -3.227-9e-3 -2.246-2e-3 -4.492 3e-3 -6.737 0.016-3.431 0.016-6.86 0-10.29-0.019-2.186 2e-3 -4.372 6e-3 -6.559 0.012-1.022-6e-3 -2.044-0.013-3.097-0.019-6.782 0.067-11.093 0.875-16.338 5.468z" fill="#004B7D"/>
<path transform="translate(2138.8 472.73)" d="m0 0c0.661-1e-3 0.661-1e-3 4.008-8e-3 1.379 8e-3 2.758 0.016 4.18 0.024 1.379-8e-3 2.758-0.016 4.179-0.024 1.323 3e-3 2.645 5e-3 4.008 8e-3 1.21 2e-3 2.421 5e-3 3.668 7e-3 3.145 0.259 3.145 0.259 7.145 2.259 1.726 3.452 1.39 7.427 1.554 11.234 0.042 0.938 0.084 1.877 0.127 2.844 0.431 10.393 0.464 20.779 0.451 31.179 1e-3 2.084 2e-3 4.167 3e-3 6.25 2e-3 4.342 0 8.683-5e-3 13.024-5e-3 4.371-5e-3 8.741 0 13.112 0.022 21.221 8e-3 42.444-0.451 63.661-0.022 1.436-0.044 2.872-0.066 4.351-0.035 1.304-0.07 2.609-0.106 3.954-0.026 1.122-0.051 2.245-0.077 3.402-0.525 3.642-1.807 6.366-4.43 8.989-5.12 0.283-10.249 0.231-15.376 0.25-0.724 0.01-0.724 0.01-4.39 0.062-0.692 3e-3 -0.692 3e-3 -4.195 0.016-1.277 9e-3 -2.554 0.018-3.869 0.028-3.17-0.356-3.17-0.356-6.17-3.356-1.092-3.274-1.142-5.702-1.165-9.149-0.012-1.288-0.023-2.575-0.034-3.901-8e-3 -1.415-0.015-2.83-0.023-4.288-0.011-1.488-0.023-2.976-0.035-4.509-0.03-4.085-0.056-8.169-0.08-12.254-0.02-3.407-0.044-6.814-0.067-10.222-0.056-8.036-0.107-16.072-0.154-24.108-0.049-8.297-0.106-16.594-0.166-24.892-0.051-7.118-0.098-14.237-0.142-21.355-0.027-4.254-0.054-8.508-0.086-12.762-0.033-4.741-0.061-9.482-0.086-14.222-0.011-1.416-0.023-2.831-0.035-4.289-5e-3 -1.287-0.011-2.574-0.017-3.9-7e-3 -1.122-0.014-2.244-0.021-3.399 0.111-2.75 0.111-2.75 1.111-5.75 4.224-2.113 6.185-2.257 10.812-2.266z" fill="#004B7D"/>
<path transform="translate(822.98 472.98)" d="m0 0c3.435 0.026 6.87 0.043 10.305 0.061 6.66 0.036 13.319 0.097 19.978 0.171 2.648 0.027 5.296 0.048 7.944 0.061 3.709 0.021 7.417 0.068 11.126 0.12 1.121 2e-3 2.242 3e-3 3.397 4e-3 1.033 0.02 2.066 0.04 3.131 0.06 0.45 4e-3 0.45 4e-3 2.73 0.027 3.193 0.686 4.409 1.989 6.414 4.519 0.437 3 0.437 3 0 6-3 4-3 4-5.358 4.745-2.664 0.257-5.244 0.361-7.92 0.337-1.028-7e-3 -2.056-0.013-3.115-0.02-0.549-6e-3 -0.549-6e-3 -3.33-0.035-2.335-0.012-4.671-0.025-7.006-0.037-3.676-0.025-7.352-0.053-11.028-0.086-3.551-0.03-7.102-0.048-10.654-0.064-0.55-7e-3 -0.55-7e-3 -3.336-0.041-1.025-3e-3 -2.05-7e-3 -3.105-0.01-0.9-8e-3 -1.8-0.015-2.727-0.023-2.421 0.234-2.421 0.234-6.421 2.234-3.986 8.248-4.574 16.943-4.483 25.947-2e-3 0.61-2e-3 0.61-0.012 3.7-6e-3 2.627-3e-3 5.253 9e-3 7.879 0.017 4.157 9e-3 8.314-5e-3 12.471-0.025 8.813-0.019 17.627-9e-3 26.44 0.011 10.242 0.01 20.483-0.024 30.725-8e-3 4.094 9e-3 8.187 0.027 12.281-6e-3 2.505-0.013 5.01-0.021 7.516 6e-3 0.568 6e-3 0.568 0.034 3.443-0.046 5.984-0.225 10.012-4.516 14.598-5.299 2.649-9.283 2.186-15 1-3.579-2.148-4.685-3.055-6-7-0.094-1.79-0.129-3.584-0.132-5.376-4e-3 -1.116-8e-3 -2.232-0.012-3.382 1e-3 -1.225 1e-3 -2.45 2e-3 -3.712-4e-3 -1.29-7e-3 -2.58-0.011-3.908-7e-3 -2.806-0.012-5.612-0.016-8.418-7e-3 -4.437-0.023-8.875-0.041-13.312-0.053-12.619-0.101-25.237-0.116-37.856-0.01-7.713-0.04-15.426-0.082-23.138-0.012-2.944-0.017-5.887-0.015-8.83 2e-3 -4.113-0.02-8.226-0.047-12.339 6e-3 -1.221 0.013-2.442 0.02-3.7-0.092-8.22-0.092-8.22-2.355-12.212-8.014-6.631-18.803-5.198-28.57-5.067-1.537 5e-3 -3.074 0.01-4.657 0.015-6.481 0.045-12.9 0.151-19.351 0.797-4.397 0.417-6.714 0.39-10.617-1.562-3-3-3-3-3.438-5.938 0.53-3.71 1.548-4.768 4.438-7.062 3.826-1.913 8.59-1.25 12.82-1.317 0.554-0.01 0.554-0.01 3.359-0.063 3.648-0.066 7.297-0.125 10.946-0.183 1.252-0.021 2.504-0.041 3.794-0.063 21.02-0.348 42.033-0.574 63.056-0.397z" fill="#004B7D"/>
</svg>
