<?xml version="1.0" encoding="UTF-8"?>
<svg version="1.1" viewBox="0 0 2752 1144" xmlns="http://www.w3.org/2000/svg">
<path transform="translate(488.67 69.872)" d="m0 0c1.24-2e-3 2.479-3e-3 3.757-5e-3 4.213-4e-3 8.426-2e-3 12.64 1e-3 3.04-1e-3 6.081-4e-3 9.121-6e-3 6.662-4e-3 13.325-6e-3 19.987-4e-3 9.974 2e-3 19.948-2e-3 29.921-6e-3 16.995-8e-3 33.989-0.011 50.984-0.012 17.232 0 34.465-3e-3 51.698-8e-3 0.543-1e-3 0.543-1e-3 3.292-1e-3 4.426-2e-3 8.852-3e-3 13.277-4e-3 52.446-0.017 104.89-0.023 157.34-0.028 26.103-2e-3 52.206-6e-3 78.309-0.01 83.682-0.013 167.36-0.023 251.05-0.027h12.003c8.025-1e-3 16.049-1e-3 24.074-1e-3 9.396-1e-3 18.791-1e-3 28.186-1e-3 2.689-1e-3 5.378-1e-3 8.067-1e-3 86.398-3e-3 172.8-0.018 259.19-0.042 62.066-0.016 124.13-0.032 186.2-0.036 0.637 0 0.637 0 3.865-1e-3 27.995-2e-3 55.991-3e-3 83.987-3e-3 10.016 0 20.033-1e-3 30.049-1e-3h7.476c39.762-1e-3 79.524-0.011 119.29-0.025 40.031-0.015 80.062-0.02 120.09-0.012l16.572 3e-3c1.083 0 2.165 0 3.281 1e-3 17.191 2e-3 34.381-5e-3 51.572-0.017 16.877-0.011 33.755-0.011 50.632 0 9.912 6e-3 19.824 4e-3 29.735-0.01 7.333-0.01 14.666-4e-3 21.999 8e-3 2.967 2e-3 5.934 0 8.901-8e-3 3.998-0.011 7.996-3e-3 11.993 0.01 0.584-4e-3 0.584-4e-3 3.537-0.023 1.055 8e-3 2.111 0.015 3.199 0.022h2.764c2.297 0.375 2.297 0.375 5.297 3.375 1.148 3.443 1.126 6.088 1.129 9.722 3e-3 1.426 6e-3 2.852 0.01 4.322-1e-3 0.79-1e-3 0.79-5e-3 4.79 2e-3 1.693 4e-3 3.385 7e-3 5.078 7e-3 4.684 7e-3 9.369 6e-3 14.054 0 5.084 6e-3 10.168 0.011 15.252 9e-3 10.098 0.013 20.197 0.016 30.295 3e-3 12.09 0.011 24.179 0.02 36.268 0.021 29.222 0.031 58.443 0.04 87.664 4e-3 13.815 0.01 27.63 0.015 41.445 0.018 47.26 0.033 94.52 0.04 141.78 1e-3 2.968 1e-3 5.936 2e-3 8.904v4.46c2e-3 7.458 3e-3 14.915 4e-3 22.373 0 1.48 0 2.96 1e-3 4.485 8e-3 48.017 0.031 96.035 0.064 144.05 0.034 50.73 0.054 101.46 0.057 152.19 0 5.563 1e-3 11.127 1e-3 16.691 0 1.37 1e-3 2.74 1e-3 4.151 2e-3 22.091 0.018 44.182 0.038 66.273 0.02 22.183 0.026 44.366 0.016 66.549-5e-3 13.195 1e-3 26.389 0.023 39.584 0.013 8.8 0.012 17.599-1e-3 26.399-6e-3 5.023-7e-3 10.046 0.01 15.069 0.015 4.562 0.012 9.124-5e-3 13.687-5e-3 2.428 0.01 4.857 0.026 7.285-9e-3 1.429-0.019 2.858-0.028 4.33 0 1.235 1e-3 2.471 1e-3 3.743-0.609 3.79-1.542 4.735-4.499 7.105-2.422 0.5-2.422 0.5-5.185 0.5-1.058 0.01-2.116 0.02-3.205 0.03-1.165-0.01-2.329-0.019-3.529-0.029-0.621 3e-3 -0.621 3e-3 -3.764 0.017-4.209 0.014-8.419-1e-3 -12.628-0.015-3.043 4e-3 -6.085 0.01-9.128 0.018-6.661 0.012-13.321 0.012-19.981 1e-3 -9.972-0.016-19.943-0.01-29.914 1e-3 -16.991 0.019-33.981 0.018-50.972 7e-3 -17.227-0.011-34.454-0.013-51.681-5e-3 -1.086 1e-3 -2.173 1e-3 -3.293 2e-3 -4.425 2e-3 -8.85 4e-3 -13.276 6e-3 -41.255 0.022-82.509 0.023-123.76 0.012-1.223 0-2.447-1e-3 -3.707-1e-3 -1.226-1e-3 -2.451-1e-3 -3.713-1e-3 -37.291-0.01-74.582-0.013-111.87-8e-3 -2.495 0-4.989 1e-3 -7.484 1e-3 -10.024 1e-3 -20.048 2e-3 -30.072 4e-3 -28.023 3e-3 -56.046 6e-3 -84.069 7e-3h-3.868c-40.683 2e-3 -81.365-3e-3 -122.05-0.012h-4c-21.439-5e-3 -42.877-0.01-64.315-0.015-85.032-0.019-170.06-0.018-255.1 1e-3 -21.427 5e-3 -42.854 0.01-64.281 0.014-1.319 1e-3 -2.639 1e-3 -3.998 1e-3 -40.639 9e-3 -81.279 0.013-121.92 0.011h-3.865c-27.991-2e-3 -55.983-4e-3 -83.975-8e-3 -10.015-1e-3 -20.03-2e-3 -30.045-4e-3 -2.492 0-4.983 0-7.475-1e-3 -37.283-4e-3 -74.567 0-111.85 0.01-1.224 0-2.447 0-3.707 1e-3 -1.222 0-2.443 0-3.701 1e-3 -41.133 0.011-82.265 7e-3 -123.4-0.014-4.411-3e-3 -8.823-5e-3 -13.235-7e-3 -1.082 0-2.165-1e-3 -3.281-1e-3 -17.184-8e-3 -34.369-3e-3 -51.554 8e-3 -16.874 0.011-33.748 7e-3 -50.622-0.012-9.908-0.01-19.816-0.01-29.724 6e-3 -7.333 0.011-14.665 1e-3 -21.997-0.017-2.966-4e-3 -5.931-1e-3 -8.896 9e-3 -3.998 0.013-7.996 1e-3 -11.994-0.017-0.582 5e-3 -0.582 5e-3 -3.528 0.029-0.529-5e-3 -0.529-5e-3 -3.206-0.03h-2.763c-3.212-0.664-4.413-1.957-6.421-4.5-0.5-3.104-0.5-3.104-0.499-6.846-5e-3 -0.714-5e-3 -0.714-0.029-4.328 5e-3 -0.789 5e-3 -0.789 0.03-4.781-4e-3 -1.694-9e-3 -3.387-0.016-5.08-0.014-4.683-3e-3 -9.365 0.012-14.048 0.012-5.083 1e-3 -10.166-7e-3 -15.25-0.012-8.918-8e-3 -17.837 5e-3 -26.756 0.02-13.262 0.016-26.524 9e-3 -39.787-0.013-22.308-7e-3 -44.616 0.011-66.924 0.017-22.099 0.027-44.198 0.026-66.298v-4.16-16.717c-2e-3 -52.312 0.018-104.62 0.049-156.94 0.027-46.51 0.04-93.02 0.038-139.53v-8.958-4.474c0-7.43-1e-3 -14.861-1e-3 -22.292v-4.442c-1e-3 -38.824 9e-3 -77.649 0.021-116.47 0-1.38 1e-3 -2.761 1e-3 -4.183l6e-3 -16.656c6e-3 -19.341 9e-3 -38.682 0.01-58.022 1e-3 -24.921 9e-3 -49.842 0.029-74.763 0.01-13.19 0.015-26.38 0.012-39.569-2e-3 -8.798 4e-3 -17.597 0.016-26.395 6e-3 -5.021 0.01-10.041 4e-3 -15.062-4e-3 -4.562 0-9.124 0.012-13.685 3e-3 -2.426-3e-3 -4.852-9e-3 -7.278 6e-3 -1.431 0.011-2.862 0.017-4.336 0-1.235 1e-3 -2.47 2e-3 -3.742 0.248-3.193 0.775-5.399 2.251-8.228 4.01-2.006 9.232-1.136 13.671-1.128zm195.42 82.444c-3.001 3.846-4.504 7.041-6.094 11.684-0.263 0.739-0.525 1.479-0.796 2.241-3.283 10.839-2.62 22.143-2.585 33.348-4e-3 2.416-8e-3 4.833-0.014 7.25-0.013 6.625-7e-3 13.25 3e-3 19.876 6e-3 7.151-4e-3 14.303-0.012 21.454-0.014 14.004-0.011 28.009-2e-3 42.013 7e-3 11.384 8e-3 22.767 4e-3 34.151 0 1.62-1e-3 3.241-1e-3 4.91l-3e-3 9.876c-8e-3 29.989 0 59.978 0.016 89.966 0.014 27.359 0.013 54.717-1e-3 82.076-0.016 30.754-0.023 61.508-0.013 92.262 0 3.281 1e-3 6.561 2e-3 9.842 1e-3 1.614 1e-3 3.228 2e-3 4.891 2e-3 11.367-2e-3 22.733-9e-3 34.1-8e-3 13.857-6e-3 27.714 0.01 41.571 8e-3 7.068 0.011 14.136 1e-3 21.204-9e-3 6.475-4e-3 12.95 0.012 19.425 3e-3 2.338 1e-3 4.675-6e-3 7.013-0.07 24.41 2.717 43.791 20.329 61.781 7.628 7.596 14.452 12.386 24.563 15.812 0.967 0.34 1.934 0.679 2.93 1.029 6.897 2.4 13.842 4.632 20.828 6.76 8.195 2.515 16.328 5.233 24.367 8.211 3.801 1.403 7.62 2.646 11.5 3.813 4.804 1.452 9.528 3.048 14.25 4.75 9.757 3.49 19.623 6.63 29.497 9.772 8.829 2.819 17.541 5.839 26.19 9.165 3.634 1.327 7.287 2.474 10.996 3.567 10.612 3.142 21.078 6.596 31.497 10.328 4.767 1.654 9.563 3.175 14.382 4.668 4.943 1.531 9.838 3.089 14.625 5.062 3.87 1.581 7.716 2.812 11.72 3.994 4.396 1.324 8.742 2.792 13.093 4.256 0.923 0.309 1.847 0.619 2.798 0.937 1.813 0.608 3.625 1.215 5.438 1.824 2.857 0.959 5.716 1.912 8.576 2.864 0.9 0.301 1.8 0.601 2.727 0.91 2.473 0.824 4.947 1.643 7.422 2.461 7.448 2.469 14.866 4.974 22.222 7.703 2.482 0.878 4.976 1.633 7.504 2.364 4.084 1.189 7.948 2.725 11.883 4.343 4.706 1.782 9.509 3.236 14.312 4.73 12.443 3.875 24.839 7.928 37.053 12.474 2.782 0.985 5.581 1.846 8.409 2.691 9.866 3.015 19.586 6.46 29.332 9.84 7.691 2.655 15.385 5.235 23.183 7.562 3.716 1.155 7.343 2.517 10.989 3.872 2.879 1.024 5.775 1.92 8.703 2.796 7.319 2.235 14.538 4.728 21.761 7.254 8.063 2.819 16.114 5.542 24.313 7.938 4.196 1.342 8.29 2.69 12.328 4.453 3.546 1.494 7.054 2.679 10.734 3.797 42.735 13.14 42.735 13.14 54.438 17.937 3.895 1.569 7.763 2.821 11.793 3.985 2.965 0.907 5.858 1.949 8.769 3.015 7.971 2.895 16.05 5.431 24.143 7.958 4.237 1.335 8.337 2.65 12.396 4.464 4.52 1.849 9.043 2.664 13.836 3.516 0.903 0.169 1.806 0.337 2.737 0.511 16.774 3.086 32.14 3.043 48.826-0.636 1.206-0.229 2.413-0.457 3.656-0.692 6.971-1.349 13.282-3.31 19.852-5.984 5.414-2.053 10.978-3.544 16.543-5.133 3.206-0.967 6.239-2.027 9.324-3.316 3.397-1.378 6.426-2.411 9.937-3.313 5.192-1.345 10.089-3.178 15.059-5.183 10.516-3.996 21.323-7.154 32.094-10.379 6.674-2.027 13.078-4.367 19.535-7 2.135-0.7 4.28-1.372 6.437-2 4.962-1.488 9.818-3.141 14.671-4.948 2.777-1.01 5.564-1.963 8.368-2.892 0.525-0.174 0.525-0.174 3.177-1.054 3.393-1.122 6.786-2.241 10.179-3.36 2.327-0.77 4.654-1.539 6.98-2.309 1.175-0.386 2.35-0.772 3.561-1.17 4.594-1.523 9.104-3.043 13.553-4.955 3.153-1.346 6.091-2.083 9.449-2.75 4.688-1.027 8.741-2.383 13.086-4.469 4.59-1.977 9.404-3.294 14.179-4.75 6.674-2.057 13.285-4.296 19.905-6.521 2.624-0.879 5.25-1.75 7.877-2.619 0.918-0.305 1.836-0.609 2.782-0.923 1.759-0.582 3.518-1.164 5.277-1.745 4.237-1.407 8.447-2.864 12.636-4.406 7.305-2.676 14.689-5.113 22.07-7.567 0.695-0.232 0.695-0.232 4.213-1.408 8.342-2.778 16.708-5.462 25.111-8.049 3.968-1.257 7.872-2.644 11.766-4.113 3.88-1.414 7.803-2.696 11.723-3.992 0.781-0.261 0.781-0.261 4.734-1.578 0.811-0.271 1.621-0.541 2.456-0.819 1.767-0.589 3.533-1.178 5.299-1.767 4.648-1.55 9.297-3.098 13.948-4.637 1.771-0.587 3.542-1.174 5.313-1.762 0.868-0.288 1.737-0.576 2.631-0.873 5.607-1.869 11.18-3.82 16.744-5.814 5.449-1.947 10.867-3.605 16.469-5.039 2.406-0.711 2.406-0.711 6.906-2.711 3.331-1.481 6.075-2.497 9.543-3.383 6.008-1.597 11.881-3.504 17.769-5.492 1.053-0.353 2.107-0.706 3.192-1.07 6.598-2.22 13.158-4.531 19.703-6.907 5.027-1.753 10.115-3.298 15.211-4.84 4.107-1.317 8.14-2.775 12.188-4.262 4.789-1.731 9.622-3.324 14.456-4.921 2.108-0.7 4.216-1.399 6.325-2.098 1.031-0.342 2.063-0.684 3.126-1.036 2.733-0.907 5.464-1.82 8.194-2.737 12.671-4.252 12.671-4.252 18.23-5.879 3.193-0.962 6.258-1.97 9.375-3.125 5.194-1.92 10.433-3.693 15.688-5.438 0.441-0.147 0.441-0.147 2.675-0.889 4.069-1.351 8.14-2.697 12.212-4.04 3.538-1.167 7.075-2.338 10.613-3.508 1.096-0.36 2.193-0.72 3.322-1.091 22.016-7.294 38.78-16.728 50.678-37.284 0.763-1.3 1.526-2.599 2.312-3.938 5.198-12.513 3.972-26.594 3.949-39.893 3e-3 -2.443 6e-3 -4.885 0.011-7.328 0.01-6.698 8e-3 -13.395 4e-3 -20.093-3e-3 -7.229 6e-3 -14.458 0.014-21.687 0.013-14.157 0.015-28.313 0.012-42.469-2e-3 -11.505 0-23.011 4e-3 -34.516 1e-3 -1.638 2e-3 -3.276 2e-3 -4.963 1e-3 -3.327 3e-3 -6.654 4e-3 -9.981 8e-3 -22.335 0.012-44.671 8e-3 -67.006-1e-3 -0.873-1e-3 -1.746-1e-3 -2.646-1e-3 -4.424-2e-3 -8.849-2e-3 -13.274-1e-3 -0.878-1e-3 -1.757-1e-3 -2.662 0-1.777-1e-3 -3.554-1e-3 -5.331-5e-3 -27.654 3e-3 -55.308 0.021-82.962 0.021-31.083 0.031-62.166 0.027-93.249-1e-3 -16.453 1e-3 -32.906 0.015-49.359 0.012-14.005 0.013-28.01 1e-3 -42.015-6e-3 -7.144-7e-3 -14.289 5e-3 -21.434 0.011-6.543 8e-3 -13.085-6e-3 -19.628-3e-3 -2.365 0-4.729 8e-3 -7.094 0.062-19.83-0.932-34.953-15.386-49.847-14.272-13.545-27.967-15.366-46.897-15.255-2.232-5e-3 -4.464-0.012-6.695-0.022-6.136-0.019-12.272-7e-3 -18.408 9e-3 -6.674 0.013-13.348-3e-3 -20.022-0.016-11.699-0.018-23.397-0.017-35.096-5e-3 -17.396 0.019-34.791 0.01-52.187-6e-3 -29.266-0.025-58.532-0.025-87.797-0.012-0.446 0-0.446 0-2.7 1e-3 -0.893 1e-3 -1.785 1e-3 -2.705 2e-3 -27.187 0.012-54.374 0.016-81.561 0.01-1.821-1e-3 -3.641-1e-3 -5.462-2e-3 -7.315-1e-3 -14.631-3e-3 -21.946-4e-3 -20.451-5e-3 -40.901-8e-3 -61.351-9e-3 -0.931 0-1.863 0-2.822-1e-3 -29.675-2e-3 -59.35 4e-3 -89.024 0.015-0.963 0-1.925 1e-3 -2.917 1e-3 -15.631 6e-3 -31.261 0.012-46.892 0.018-61.992 0.024-123.98 0.023-185.98-1e-3 -15.623-6e-3 -31.245-0.012-46.868-0.018-0.962 0-1.924-1e-3 -2.915-1e-3 -29.644-0.011-59.287-0.015-88.931-0.013h-2.82c-20.428 1e-3 -40.855 5e-3 -61.283 9e-3 -7.309 2e-3 -14.618 3e-3 -21.927 5e-3 -1.818 0-3.636 1e-3 -5.455 1e-3 -27.18 6e-3 -54.36 1e-3 -81.54-0.012-0.891 0-1.782 0-2.7-1e-3 -0.889 0-1.779-1e-3 -2.695-1e-3 -29.993-0.014-59.986-9e-3 -89.978 0.018-17.297 0.014-34.593 0.015-51.889-4e-3 -11.545-0.011-23.09-4e-3 -34.636 0.018-6.583 0.012-13.166 0.016-19.749-2e-3 -5.989-0.016-11.977-9e-3 -17.966 0.016-2.153 5e-3 -4.306 1e-3 -6.46-0.011-22.439-0.124-35.762 5.996-50.635 22.964z" fill="#E1AFAF"/>
<path transform="translate(758.4 184.87)" d="m0 0c0.861-2e-3 1.722-3e-3 2.609-5e-3 2.911-4e-3 5.822-2e-3 8.733 1e-3 2.106-1e-3 4.213-4e-3 6.32-6e-3 5.831-6e-3 11.662-5e-3 17.492-3e-3 6.328 1e-3 12.656-5e-3 18.984-9e-3 12.569-7e-3 25.138-0.01 37.707-0.01 15.047-1e-3 30.094-8e-3 45.142-0.014 35.508-0.016 71.016-0.022 106.52-0.027 18.06-2e-3 36.12-6e-3 54.181-0.01 57.912-0.013 115.82-0.023 173.74-0.027h8.306c5.552-1e-3 11.105-1e-3 16.657-1e-3 6.501-1e-3 13.002-1e-3 19.502-1e-3 1.861-1e-3 3.722-1e-3 5.582-1e-3 59.77-3e-3 119.54-0.018 179.31-0.042 42.942-0.016 85.883-0.032 128.82-0.036 0.883-1e-3 1.765-1e-3 2.675-1e-3 19.377-2e-3 38.754-3e-3 58.131-3e-3 6.934 0 13.867-1e-3 20.8-1e-3h5.175c27.504-1e-3 55.009-0.011 82.514-0.025 28.466-0.015 56.933-0.02 85.4-0.011 16.421 4e-3 32.843 0 49.265-0.016 10.956-9e-3 21.913-8e-3 32.869 2e-3 6.251 5e-3 12.502 6e-3 18.753-7e-3 5.682-0.011 11.363-9e-3 17.045 5e-3 2.047 2e-3 4.095 0 6.143-8e-3 2.773-0.011 5.546-3e-3 8.32 0.01 1.537 0 3.075-1e-3 4.659-1e-3 7.322 0.647 13.197 2.993 18.242 8.375 6.796 9.774 5.696 21.35 5.628 32.697 5e-3 2.224 0.012 4.447 0.022 6.671 0.019 6.096 6e-3 12.191-0.011 18.286-0.013 6.58 2e-3 13.16 0.014 19.739 0.018 12.884 0.01 25.768-8e-3 38.653-0.014 10.472-0.018 20.945-0.015 31.417 0 0.746 0 0.746 2e-3 4.517 1e-3 3.029 2e-3 6.057 3e-3 9.085 8e-3 26.779-8e-3 53.557-0.038 80.336-0.029 25.979-0.036 51.958-0.021 77.937 0.017 28.292 0.021 56.585 4e-3 84.877-2e-3 3.018-4e-3 6.036-6e-3 9.053-1e-3 1.485-2e-3 2.97-3e-3 4.5-5e-3 10.457-2e-3 20.915 5e-3 31.373 7e-3 12.748 1e-3 25.495-0.024 38.243-0.013 6.503-0.019 13.006-8e-3 19.509 0.01 5.956 2e-3 11.912-0.022 17.868-5e-3 2.151-3e-3 4.303 6e-3 6.454 0.108 28.207 0.108 28.207-8.778 37.285-12.44 12.5-30.665 16.282-47.125 21.062-4.625 1.438-4.625 1.438-8.801 3.152-6.971 2.817-14.109 5.135-21.245 7.495-2.377 0.786-4.753 1.577-7.128 2.369-7.938 2.636-15.884 5.211-23.899 7.605-2.552 0.817-2.552 0.817-6.115 2.379-4.08 1.707-8.161 2.642-12.472 3.594-3.245 0.923-5.959 2.323-8.965 3.844-2.151 0.734-4.32 1.417-6.5 2.062-8.378 2.556-16.69 5.292-25 8.063-0.65 0.216-0.65 0.216-3.939 1.308-5.074 1.694-10.123 3.402-15.131 5.281-2.93 1.098-5.773 1.972-8.805 2.723-4.457 1.174-8.622 2.666-12.848 4.5-3.284 1.257-6.633 2.234-10.005 3.228-4.811 1.448-9.57 3.052-14.335 4.647-0.522 0.175-0.522 0.175-3.168 1.058-7.6 2.546-15.157 5.198-22.707 7.891-2.965 1.031-5.925 1.984-8.937 2.864-4.282 1.273-8.421 2.728-12.594 4.312-3.393 1.189-6.828 2.206-10.274 3.228-4.823 1.46-9.602 3.053-14.382 4.647-0.524 0.175-0.524 0.175-3.178 1.058-7.337 2.459-14.565 5.122-21.791 7.891-3.897 1.417-7.812 2.506-11.828 3.528-3.613 0.996-7.085 2.305-10.582 3.648-2.427 0.861-4.89 1.622-7.359 2.352-8.547 2.531-16.929 5.576-25.344 8.508-8.257 2.86-16.542 5.564-24.905 8.099-2.838 0.925-5.447 1.952-8.138 3.229-3.32 1.464-5.906 2.339-9.375 3.125-9.335 2.171-18.292 5.648-27.313 8.845-6.132 2.165-12.296 4.213-18.515 6.112-12.16 3.713-12.16 3.713-16.797 5.918-3.403 1.501-6.118 2.384-9.688 3.187-6.176 1.432-11.896 3.702-17.771 6.063-5.794 2.303-11.603 4.103-17.615 5.726-3.951 1.118-7.756 2.522-11.598 3.965-3.267 1.183-6.582 2.144-9.917 3.114-2.611 0.804-5.156 1.708-7.716 2.659-5.985 2.194-12.018 4.223-18.07 6.223-1.02 0.339-2.039 0.677-3.09 1.026-2.003 0.664-4.006 1.326-6.011 1.985-2.463 0.823-4.911 1.69-7.356 2.563-13.627 4.205-28.325 5.211-42.418 3.364-1.208-0.142-2.416-0.284-3.66-0.43-11.003-1.661-21.126-5.545-31.5-9.418-5.411-2.018-10.866-3.765-16.406-5.391-2.434-0.761-2.434-0.761-5.997-2.324-3.962-1.657-7.894-2.578-12.082-3.496-3.554-0.997-6.876-2.365-10.288-3.762-6.563-2.524-13.306-4.55-20.005-6.679-17.76-5.661-17.76-5.661-25.798-8.684-3.094-1.116-6.255-1.989-9.412-2.906-3.609-1.152-7.126-2.498-10.665-3.848-5.991-2.278-11.991-4.309-18.132-6.14-2.914-0.88-5.797-1.823-8.68-2.797-6.946-2.347-13.952-4.498-20.957-6.661-3.924-1.301-7.628-2.826-11.418-4.464-2.574-0.77-5.158-1.415-7.766-2.059-2.748-0.8-5.379-1.705-8.062-2.695-7.497-2.764-15.086-5.241-22.672-7.746-21.998-7.267-21.998-7.267-30.128-10.567-3.523-1.386-7.163-2.119-10.849-2.957-3.848-1.066-7.524-2.413-11.267-3.799-6.538-2.364-13.155-4.497-19.756-6.677-17.065-5.638-17.065-5.638-25.186-8.672-2.417-0.865-4.849-1.608-7.314-2.328-4.271-1.249-8.419-2.752-12.597-4.283-6.321-2.261-12.695-4.364-19.064-6.481-2.401-0.799-4.801-1.6-7.2-2.402-12.902-4.297-12.902-4.297-18.955-6.08-3.148-0.944-6.063-1.937-9.059-3.254-3.668-1.518-7.261-2.591-11.125-3.5-4.647-1.099-8.874-2.562-13.27-4.407-5.802-2.324-11.792-4.149-17.73-6.093-3.147-1.04-6.293-2.081-9.438-3.125-1.442-0.477-2.884-0.954-4.371-1.446-4.097-1.397-8.143-2.897-12.191-4.429-4.954-1.701-9.927-3.289-14.938-4.813-7.526-2.303-14.982-4.804-22.443-7.31-2.835-0.95-5.672-1.891-8.51-2.83-10.314-3.419-20.595-6.901-30.832-10.547-4.951-1.737-9.923-3.407-14.902-5.063-0.889-0.296-1.777-0.593-2.693-0.898-4.004-1.332-8.011-2.644-12.034-3.918-14.499-4.635-23.995-9.748-31.23-23.563-2.518-5.432-2.548-10.084-2.561-16-3e-3 -0.918-6e-3 -1.836-9e-3 -2.782-0.01-3.099-0.013-6.199-0.015-9.298-6e-3 -2.235-0.012-4.47-0.018-6.706-0.016-6.161-0.025-12.321-0.034-18.482-8e-3 -5.28-0.019-10.56-0.031-15.84-0.042-18.911-0.069-37.823-0.094-56.736-2e-3 -1.492-4e-3 -2.984-6e-3 -4.521-0.039-29.616-0.073-59.231-0.095-88.847-5e-3 -6.513-0.01-13.026-0.015-19.538-1e-3 -1.619-3e-3 -3.238-4e-3 -4.906-0.021-26.23-0.07-52.46-0.13-78.691-0.061-26.918-0.096-53.836-0.105-80.754-6e-3 -15.119-0.024-30.237-0.072-45.355-0.04-12.874-0.057-25.748-0.043-38.622 6e-3 -6.57 2e-3 -13.139-0.034-19.708-0.032-6.015-0.032-12.03-6e-3 -18.045 4e-3 -2.175-5e-3 -4.35-0.026-6.525-0.18-19.606-0.18-19.606 5.97-27.761 6.562-6.668 13.145-8.066 22.31-8.069zm82.6 103.13c-2.328 3.492-2.252 4.853-2.257 8.98-7e-3 1.257-0.013 2.515-0.02 3.811 3e-3 1.389 6e-3 2.778 0.01 4.209-5e-3 1.47-0.01 2.94-0.014 4.454-0.011 4.091-0.012 8.181-0.01 12.271 1e-3 4.407-0.01 8.814-0.02 13.221-0.017 8.637-0.022 17.275-0.023 25.913-1e-3 7.018-5e-3 14.037-0.012 21.055-0.017 19.884-0.026 39.767-0.025 59.651v3.25c0 1.074 1e-3 2.148 1e-3 3.254 0 17.412-0.019 34.823-0.047 52.234-0.029 17.864-0.042 35.727-0.041 53.59 1e-3 10.035-5e-3 20.07-0.026 30.105-0.018 8.542-0.023 17.085-9e-3 25.627 6e-3 4.361 7e-3 8.722-0.011 13.083-0.015 4.722-6e-3 9.442 9e-3 14.164-0.01 1.387-0.02 2.774-0.031 4.203 0.01 1.26 0.019 2.52 0.028 3.819 0 1.09-1e-3 2.18-1e-3 3.304 0.619 3.476 1.764 4.641 4.499 6.802 6.592 2.194 14.327 1.224 21.228 1.24 2.631 0.01 5.262 0.041 7.893 0.072 1.686 7e-3 3.372 0.012 5.059 0.016 1.523 9e-3 3.047 0.018 4.616 0.028 4.438-0.376 7.36-1.116 11.204-3.356 1.993-3.769 2.248-6.962 2.24-11.182 3e-3 -1.244 6e-3 -2.488 9e-3 -3.769-7e-3 -1.357-0.015-2.713-0.022-4.111 0-1.435 1e-3 -2.869 1e-3 -4.347-1e-3 -4.745-0.017-9.491-0.033-14.236-3e-3 -3.289-6e-3 -6.577-8e-3 -9.866-7e-3 -7.773-0.023-15.547-0.043-23.321-0.022-8.851-0.033-17.702-0.043-26.553-0.021-18.205-0.056-36.41-0.101-54.615 3.994-0.999 7.331-1.202 11.437-1.25 0.65-0.013 0.65-0.013 3.934-0.078 4.995 0.451 7.445 2.369 11.254 5.453 5.255 6.362 5.814 13.693 5.7 21.67-1e-3 0.935-3e-3 1.87-4e-3 2.833-7e-3 3.065-0.035 6.13-0.063 9.196-8e-3 2.151-0.015 4.301-0.02 6.452-0.017 5.652-0.052 11.303-0.09 16.955-0.06 9.025-0.094 18.051-0.126 27.077-0.014 3.132-0.036 6.263-0.058 9.395-0.222 37.31-0.222 37.31 13.348 52.234 8.166 6.782 16.771 6.508 26.938 6.375 0.626 2e-3 0.626 2e-3 3.797 0.01 12.705-0.075 12.705-0.075 17.953-5.322 1.969-8.93-1.487-17.427-4.492-25.703-2.692-7.672-3.799-14.555-3.763-22.67-2e-3 -0.503-2e-3 -0.503-0.011-3.053-7e-3 -2.177-0.01-4.353-8e-3 -6.53 1e-3 -3.452-0.012-6.904-0.029-10.357-0.047-9.812-0.071-19.624-0.078-29.436-5e-3 -6.014-0.029-12.027-0.065-18.04-0.01-2.282-0.012-4.565-7e-3 -6.847 7e-3 -3.202-0.01-6.402-0.033-9.604 8e-3 -0.93 0.016-1.859 0.025-2.817-0.155-12.432-5.685-22.534-13.539-31.943-2.621-2.203-2.621-2.203-5.125-4-1.279-0.99-2.558-1.98-3.875-3-0.063-2.403-0.063-2.403 1-5 2.258-2.254 2.258-2.254 5.125-4.563 9.386-8.166 14.428-18.138 15.875-30.437 0.09-2.908 0.128-5.818 0.129-8.727 2e-3 -0.845 4e-3 -1.69 6e-3 -2.561 4e-3 -2.779 1e-3 -5.558-2e-3 -8.337 0-1.95 1e-3 -3.899 3e-3 -5.849 1e-3 -4.085-1e-3 -8.17-6e-3 -12.255-5e-3 -5.197-2e-3 -10.393 4e-3 -15.59 4e-3 -4.029 2e-3 -8.058 0-12.087-1e-3 -1.913 0-3.826 2e-3 -5.74 0.032-32.731 0.032-32.731-6.136-45.854-0.371-0.811-0.743-1.622-1.125-2.457-3.235-6.413-7.877-11.443-12.875-16.543-0.297-0.315-0.297-0.315-1.797-1.907-10.714-10.429-23.899-14.199-38.452-14.239-1.601-6e-3 -3.203-0.012-4.853-0.019-1.729-1e-3 -3.458-3e-3 -5.187-3e-3 -1.79-4e-3 -3.581-7e-3 -5.371-0.01-3.74-6e-3 -7.481-8e-3 -11.221-8e-3 -4.786 0-9.572-0.013-14.357-0.03-3.693-0.012-7.385-0.014-11.078-0.013-1.764-1e-3 -3.529-6e-3 -5.293-0.013-2.467-0.01-4.934-6e-3 -7.401-1e-3 -0.701-1e-3 -0.701-1e-3 -4.247-5e-3 -3.661 0.242-6.4 0.755-9.743 2.248zm170 2c-1.021 3.713-1.127 7.256-1.131 11.093-4e-3 1.231-8e-3 2.463-0.012 3.732 1e-3 1.351 2e-3 2.701 3e-3 4.092-3e-3 1.437-6e-3 2.874-9e-3 4.354-8e-3 3.988-0.01 7.977-0.011 11.965-2e-3 4.302-9e-3 8.603-0.016 12.905-0.014 9.404-0.02 18.809-0.024 28.214-3e-3 5.872-7e-3 11.743-0.012 17.615-0.012 16.254-0.022 32.508-0.026 48.763v3.152c0 1.043-1e-3 2.085-1e-3 3.159 0 2.113-1e-3 4.226-1e-3 6.339 0 1.048-1e-3 2.096-1e-3 3.176-4e-3 16.989-0.021 33.978-0.045 50.967-0.023 17.439-0.036 34.879-0.037 52.319-1e-3 9.793-7e-3 19.586-0.025 29.378-0.015 8.337-0.02 16.674-0.012 25.011 4e-3 4.254 3e-3 8.508-0.011 12.762-0.013 4.611-7e-3 9.221 3e-3 13.832-8e-3 1.346-0.016 2.692-0.024 4.078 0.034 6.334 0.064 11.485 3.392 17.094 4.435 3.103 10.274 2.28 15.494 2.258 1.056 4e-3 2.112 7e-3 3.2 0.011 3.487 9e-3 6.975 3e-3 10.462-4e-3 2.425 2e-3 4.85 4e-3 7.274 6e-3 5.081 3e-3 10.162-1e-3 15.242-0.011 6.514-0.011 13.027-4e-3 19.541 8e-3 5.006 7e-3 10.013 4e-3 15.019-1e-3 2.402-1e-3 4.804 1e-3 7.206 5e-3 3.356 5e-3 6.712-2e-3 10.068-0.014 0.993 4e-3 1.987 9e-3 3.01 0.013 8.834-0.055 8.834-0.055 12.484-2.271 3.538-4.718 3.452-7.816 3.434-13.438 5e-3 -0.917 0.01-1.834 0.015-2.779 7e-3 -1.936 6e-3 -3.873-3e-3 -5.81-9e-3 -2.963 0.02-5.924 0.052-8.887 2e-3 -1.883 1e-3 -3.766-2e-3 -5.649 0.011-0.885 0.023-1.771 0.034-2.683-0.042-3.686-0.146-6.19-2.249-9.282-4.097-2.645-8.266-2.587-13.033-2.462-0.566 0.013-0.566 0.013-3.428 0.08-0.606 0.017-0.606 0.017-3.672 0.101-2.567 0.058-5.135 0.116-7.703 0.174-4.047 0.097-8.094 0.198-12.14 0.303-3.906 0.1-7.813 0.187-11.719 0.273-0.608 0.018-0.608 0.018-3.684 0.107-1.125 0.024-2.249 0.047-3.408 0.071-0.991 0.025-1.982 0.05-3.003 0.076-2.491-0.195-2.491-0.195-5.491-2.195-0.321-3.422-0.448-6.667-0.448-10.094-0.012-1.049-0.024-2.098-0.036-3.178-0.035-3.481-0.049-6.962-0.063-10.443-0.019-2.412-0.04-4.823-0.061-7.234-0.043-5.06-0.076-10.12-0.101-15.18-0.032-6.495-0.081-12.99-0.137-19.484-0.043-4.982-0.079-9.963-0.114-14.945-0.016-2.395-0.034-4.79-0.052-7.185-0.025-3.345-0.042-6.69-0.057-10.034-9e-3 -0.996-0.017-1.992-0.025-3.018-0.021-6.861-0.021-6.861 1.094-10.205 3.396-1.699 7.056-1.069 10.805-1.028 1.798 0.013 3.596 0.025 5.394 0.037 2.84 0.025 5.68 0.053 8.519 0.087 2.737 0.03 5.474 0.048 8.212 0.064 1.642 0.017 3.284 0.033 4.976 0.051 4.094-0.211 4.094-0.211 8.094-2.211 3.509-6.024 2.333-13.754 2.316-20.484-4e-3 -2.508 0.02-5.016 0.045-7.524 1e-3 -0.793 1e-3 -0.793 2e-3 -4.805 3e-3 -1.45 6e-3 -2.9 9e-3 -4.394-0.382-3.891-0.978-5.754-3.372-8.793-4.077-2.718-7.749-2.25-12.481-2.196-0.927 3e-3 -1.855 6e-3 -2.812 9e-3 -2.965 0.011-5.93 0.036-8.895 0.062-2.009 0.01-4.019 0.019-6.029 0.027-4.928 0.022-9.855 0.057-14.783 0.098-0.763-6.091-1.126-11.995-1.129-18.144-2e-3 -0.865-4e-3 -1.73-6e-3 -2.62-4e-3 -2.826-1e-3 -5.652 2e-3 -8.479-1e-3 -1.975-1e-3 -3.95-3e-3 -5.926-1e-3 -4.123 1e-3 -8.247 6e-3 -12.37 5e-3 -5.29 2e-3 -10.579-4e-3 -15.869-4e-3 -4.071-2e-3 -8.143 0-12.214 1e-3 -1.951 0-3.903-2e-3 -5.854-3e-3 -2.719 1e-3 -5.438 7e-3 -8.157 0-1.547 1e-3 -3.094 2e-3 -4.688 0.127-3.679 0.127-3.679 1.127-6.679 2.666-1.333 4.655-1.099 7.64-1.066 0.59 5e-3 0.59 5e-3 3.581 0.029 0.641 8e-3 0.641 8e-3 3.888 0.044 2.701 0.018 5.401 0.035 8.102 0.051 4.271 0.031 8.541 0.067 12.811 0.113 4.113 0.042 8.225 0.066 12.337 0.086 1.276 0.019 2.551 0.038 3.865 0.057 1.194 3e-3 2.388 7e-3 3.619 0.01 0.523 5e-3 0.523 5e-3 3.171 0.03 3.566-0.423 5.946-1.462 8.986-3.354 1.341-4.025 1.183-7.923 1.203-12.121 6e-3 -0.897 0.011-1.793 0.017-2.717 0.01-1.895 0.016-3.791 0.02-5.686 0.01-2.899 0.041-5.798 0.072-8.697 7e-3 -1.842 0.012-3.684 0.016-5.525 6e-3 -0.434 6e-3 -0.434 0.038-2.627-0.019-4.982-0.256-6.481-3.366-10.627-4.863-1.216-9.496-1.148-14.472-1.146-1.066-3e-3 -2.131-6e-3 -3.229-0.01-3.526-9e-3 -7.051-0.011-10.576-0.012-2.449-4e-3 -4.897-7e-3 -7.346-0.01-5.134-6e-3 -10.267-8e-3 -15.401-8e-3 -6.582 0-13.164-0.013-19.746-0.03-5.057-0.012-10.114-0.014-15.171-0.013-2.427-1e-3 -4.854-6e-3 -7.281-0.013-3.392-0.01-6.784-7e-3 -10.176-1e-3 -1.005-6e-3 -2.009-0.012-3.044-0.017-10.345 0.047-10.345 0.047-14.558 4.26zm150-2c-1.736 4.178-2.251 7.749-2.255 12.25-5e-3 1.241-0.011 2.482-0.017 3.761 4e-3 1.356 7e-3 2.712 0.011 4.109-4e-3 1.446-7e-3 2.893-0.011 4.383-9e-3 4.011-8e-3 8.022-4e-3 12.033 2e-3 4.328-7e-3 8.655-0.014 12.982-0.013 8.476-0.015 16.951-0.012 25.427 1e-3 6.887 0 13.775-5e-3 20.663 0 0.98-1e-3 1.96-1e-3 2.969-2e-3 1.991-3e-3 3.982-4e-3 5.972-0.011 18.671-9e-3 37.341-3e-3 56.012 6e-3 17.086-6e-3 34.173-0.025 51.26-0.019 17.54-0.027 35.08-0.024 52.62 2e-3 9.85 0 19.699-0.014 29.548-0.012 8.384-0.014 16.767-2e-3 25.151 6e-3 4.278 7e-3 8.556-5e-3 12.834-0.01 4.635-2e-3 9.27 0.011 13.905-8e-3 1.356-0.015 2.712-0.023 4.109 8e-3 1.241 0.015 2.483 0.022 3.762v3.242c0.442 3.548 1.542 5.953 3.375 9.008 3.875 2.345 7.593 2.248 12.047 2.243 0.708 1e-3 0.708 1e-3 4.29 9e-3 1.527-7e-3 3.054-0.014 4.628-0.022 1.58 0 3.16-1e-3 4.788-1e-3 3.348-3e-3 6.696-0.01 10.044-0.024 4.253-0.016 8.505-0.02 12.758-0.02 4.095 0 8.19-9e-3 12.285-0.017 1.509-1e-3 3.017-3e-3 4.572-4e-3 21.761-0.096 40.466-2.07 56.588-18.164 20.301-20.547 21.314-44.96 21.259-72.217 2e-3 -2.288 6e-3 -4.577 0.01-6.866 9e-3 -6.167 6e-3 -12.334 0-18.502-5e-3 -6.484-1e-3 -12.969 2e-3 -19.453 4e-3 -10.886-1e-3 -21.773-0.01-32.659-0.011-12.546-8e-3 -25.092 3e-3 -37.639 9e-3 -10.813 0.011-21.626 5e-3 -32.439-3e-3 -6.441-3e-3 -12.881 4e-3 -19.321 5e-3 -6.058 1e-3 -12.117-0.01-18.175-3e-3 -2.21-2e-3 -4.42 2e-3 -6.629 0.051-27.578-2.415-50.302-22.14-71.413-4.273-4.073-8.919-6.948-14.125-9.687-1.002-0.551-2.003-1.101-3.035-1.668-1.061-0.543-2.122-1.086-3.215-1.645-0.954-0.491-1.908-0.982-2.891-1.488-11.195-3.479-24.07-2.359-35.675-2.367-1.672-4e-3 -3.344-7e-3 -5.016-0.01-3.474-6e-3 -6.947-8e-3 -10.42-8e-3 -4.445 0-8.89-0.013-13.335-0.03-4.264-0.014-8.528-0.014-12.792-0.015-1.593-7e-3 -3.185-0.014-4.826-0.022-0.738 2e-3 -0.738 2e-3 -4.473 0.01-1.297-2e-3 -2.594-3e-3 -3.93-5e-3 -3.374 0.246-5.526 0.45-8.392 2.248zm241 1c-1.075 3.224-1.128 5.539-1.131 8.93-4e-3 1.247-8e-3 2.493-0.012 3.777 1e-3 1.377 2e-3 2.754 3e-3 4.173-3e-3 1.457-6e-3 2.914-9e-3 4.415-8e-3 4.054-0.01 8.107-0.011 12.161-2e-3 4.369-9e-3 8.737-0.016 13.105-0.014 9.556-0.02 19.111-0.024 28.667-3e-3 5.963-7e-3 11.927-0.012 17.891-0.012 16.503-0.022 33.006-0.026 49.509v3.202c0 1.059-1e-3 2.118-1e-3 3.209 0 2.147-1e-3 4.293-1e-3 6.439 0 1.065-1e-3 2.129-1e-3 3.226-4e-3 17.259-0.021 34.518-0.045 51.777-0.023 17.708-0.036 35.417-0.037 53.125-1e-3 9.948-7e-3 19.895-0.025 29.842-0.015 8.468-0.02 16.937-0.012 25.405 4e-3 4.323 3e-3 8.645-0.011 12.968-0.013 4.682-7e-3 9.363 3e-3 14.044-8e-3 1.373-0.016 2.745-0.024 4.159 7e-3 1.252 0.013 2.504 0.02 3.793-1e-3 1.081-1e-3 2.162-2e-3 3.276 0.429 3.335 1.397 5.211 3.374 7.907 4.378 2.675 9.053 2.258 14.062 2.265 0.869 2e-3 1.738 4e-3 2.634 6e-3 1.832 1e-3 3.664-2e-3 5.496-0.011 2.798-0.01 5.596 0 8.394 0.013 1.784-1e-3 3.568-4e-3 5.351-8e-3 1.618-2e-3 3.236-4e-3 4.903-7e-3 3.694-0.229 5.996-0.419 9.16-2.258 3.509-4.679 3.43-7.62 3.401-13.184 7e-3 -0.929 0.014-1.858 0.021-2.815 0.02-3.075 0.019-6.149 0.019-9.224 0.012-2.143 0.026-4.285 0.04-6.428 0.037-5.65 0.057-11.299 0.072-16.948 0.025-9.018 0.065-18.035 0.122-27.052 0.016-3.139 0.02-6.278 0.023-9.417 0.079-21.839 0.079-21.839 3.802-30.37 1.796-4.267 2.364-8.321 2.973-12.89 0.527-2.672 0.527-2.672 2.527-5.672h2c2.113 5.29 2.482 10.504 2.875 16.125 0.91 11.213 0.91 11.213 3.062 16.687 2.323 5.939 2.874 11.894 3.563 18.188 0.81 7.361 1.823 13.891 4.527 20.82 1.65 5.392 2.175 10.964 2.899 16.543 0.721 5.458 1.71 10.576 3.324 15.828 1.375 5.149 2.084 10.435 2.906 15.695 1.364 6.648 2.309 10.962 7.844 15.114 6.886 1.721 14.047 1.225 21.117 1.24 2.807 0.01 5.613 0.041 8.42 0.072 1.788 7e-3 3.577 0.012 5.365 0.016 1.624 9e-3 3.249 0.018 4.922 0.028 4.414-0.377 7.041-1.221 10.176-4.356 0.455-7.407-0.903-13.791-2.75-20.938-0.555-2.221-1.108-4.442-1.66-6.664-0.272-1.086-0.544-2.171-0.825-3.29-1.057-4.293-2.01-8.602-2.953-12.921-1.061-4.86-2.177-9.687-3.437-14.5-1.045-4.052-1.748-8.042-2.313-12.187-0.619-4.375-1.566-8.282-3.062-12.438-1.567-4.373-2.433-8.451-3-13.062-0.557-4.514-1.375-8.482-2.938-12.75-2.348-6.505-3.292-13.094-4.343-19.911-0.767-4.63-1.834-9.093-3.039-13.625-0.673-2.688-1.165-5.356-1.618-8.089-0.727-4.262-1.812-8.3-3.062-12.438-1.437-4.823-2.393-9.443-3-14.437-0.661-5.326-1.973-9.634-4.113-14.528-4.61-11.554-1.728-24.002 2.613-35.035 1.636-4.568 2.67-9.099 3.656-13.844 0.988-3.915 2.422-7.564 3.844-11.343 1.087-3.461 2.078-6.947 3.062-10.438 0.256-0.89 0.512-1.78 0.776-2.697 1.209-4.256 2.329-8.5 3.256-12.826 0.906-4.039 0.906-4.039 2.343-7.227 1.487-3.627 2.245-6.854 3-10.687 1.175-5.836 3.113-10.69 5.563-16.125 0.787-3.026 1.43-6.069 2.086-9.125 1.129-4.787 2.498-9.479 3.914-14.188 0.125-0.418 0.125-0.418 0.755-2.532 1.18-3.891 2.452-7.699 3.901-11.499 1.559-4.242 1.932-7.173 1.344-11.656-1.967-2.702-1.967-2.702-5-5-4.144-0.616-4.144-0.616-9.027-0.594h-2.626c-1.828 5e-3 -3.657 0.023-5.484 0.052-2.788 0.041-5.573 0.041-8.361 0.034-15.406 0.091-15.406 0.091-20.502 3.508-3.557 6.538-5.532 13.549-7.563 20.687-0.152 0.529-0.152 0.529-0.927 3.208-1.9 6.671-3.497 13.339-4.83 20.148-0.898 3.903-2.326 7.513-3.778 11.238-0.979 2.95-1.463 5.769-1.902 8.844-0.66 4.54-1.919 8.032-3.934 12.179-2.296 5.806-3.242 12.061-4.519 18.154-1.135 5.272-2.42 10.509-3.687 15.751-1.029 4.268-2.033 8.538-2.962 12.83-0.337 1.534-0.675 3.068-1.023 4.648-0.291 1.365-0.583 2.73-0.883 4.137-0.992 3.176-0.992 3.176-3.992 5.176-0.971-7.765-0.937-15.205-0.54-22.994 0.562-12.208 0.72-24.393 0.743-36.612 3e-3 -1.053 6e-3 -2.106 9e-3 -3.191 0.014-5.536 0.024-11.073 0.028-16.609 6e-3 -5.698 0.03-11.396 0.058-17.094 0.019-4.416 0.024-8.831 0.026-13.247 3e-3 -2.103 0.011-4.206 0.024-6.309 0.017-2.921 0.015-5.841 8e-3 -8.761 0.01-0.861 0.019-1.722 0.028-2.609-0.032-4.653-0.267-7.987-3.384-11.574-4.593-1.149-8.922-1.181-13.621-1.203-0.937-6e-3 -1.874-0.012-2.839-0.018-1.98-9e-3 -3.959-0.016-5.939-0.02-3.024-9e-3 -6.048-0.04-9.072-0.072-1.925-6e-3 -3.85-0.012-5.775-0.015-0.902-0.013-1.805-0.025-2.734-0.038-4.806 0.017-8.282 0.175-12.02 3.366zm220-1c-5.157 7.831-5.319 17.616-5.875 26.687-0.636 9.087-1.81 17.848-3.591 26.775-1.708 8.822-2.577 17.687-3.455 26.624-0.735 7.274-1.863 14.284-3.462 21.421-0.998 5.649-1.068 11.332-1.308 17.055-0.57 8.195-2.549 16.069-4.352 24.063-1.208 6.089-1.487 12.188-1.832 18.375-0.495 7.732-1.139 15.092-3.063 22.625-2.509 9.953-3.176 20.021-3.935 30.238-0.628 8.054-1.761 15.749-3.447 23.647-1.15 5.902-1.479 11.825-1.852 17.816-0.382 5.272-1.116 10.255-2.297 15.412-2.003 8.884-2.628 17.81-3.347 26.871-0.62 7.169-1.626 13.884-3.504 20.832-2.097 7.892-2.042 16.048-2.399 24.16-0.211 3.31-0.619 6.184-1.281 9.399-0.115 2.227-0.175 4.457-0.188 6.687-0.014 1.138-0.028 2.277-0.043 3.449 0.231 2.864 0.231 2.864 2.231 4.864 7.132 2.051 15.094 1.226 22.437 1.25 1.597 0.02 3.193 0.041 4.838 0.062 1.538 5e-3 3.075 0.01 4.659 0.016 0.701 4e-3 0.701 4e-3 4.251 0.028 4.058-0.379 6.405-1.159 9.815-3.356 3.792-5.056 4.145-7.897 4.43-14.055 0.073-1.421 0.147-2.841 0.222-4.305 0.147-2.971 0.288-5.942 0.422-8.914 0.418-7.872 1.21-15.218 3.273-22.838 0.935-4.138 1.017-8.199 1.051-12.427 0.602-2.461 0.602-2.461 2.792-4.092 3.078-1.5 4.973-1.743 8.372-1.733 1.045 1e-3 2.089 2e-3 3.165 2e-3 1.08 0.016 2.16 0.033 3.273 0.049 1.08-3e-3 2.16-6e-3 3.273-0.01 9.202 0.063 9.202 0.063 13.727 2.323 1.888 3.776 1.415 8.355 1.621 12.519 0.301 3.553 0.766 6.923 1.359 10.43 1.511 9.441 1.713 18.973 2.055 28.515 0.068 1.415 0.137 2.829 0.207 4.286 0.05 1.273 0.1 2.547 0.152 3.859 0.706 3.952 1.68 5.665 4.606 8.391 4.481 1.651 9.544 1.179 14.281 1.203 0.891 5e-3 1.782 0.011 2.701 0.017 1.879 9e-3 3.758 0.016 5.638 0.02 2.87 0.01 5.74 0.041 8.61 0.072 1.83 7e-3 3.659 0.012 5.489 0.016 0.855 0.012 1.71 0.024 2.592 0.037 4.74-0.017 7.961-0.326 11.689-3.365 5.185-7.778 1.576-21.303 0-30-0.499-1.87-1.003-3.739-1.512-5.606-1.719-6.717-2.144-13.302-2.488-20.207-0.528-8.764-1.209-17.243-3.219-25.816-2.012-8.684-3.119-17.235-3.719-26.121-0.594-7.973-1.595-15.565-3.347-23.375-0.89-4.822-1.274-9.617-1.653-14.5-0.575-7.362-1.545-14.462-3.062-21.688-1.625-7.768-2.481-15.395-3-23.312-0.614-9.36-1.941-18.192-4.098-27.317-1.605-7.222-2.01-14.24-2.215-21.621-0.232-6.117-0.773-11.56-2.625-17.437-2.185-7.192-2.637-14.166-3.062-21.625-0.538-9.354-1.517-18.272-3.469-27.43-1.481-7.134-2.3-14.262-3.031-21.508-2.887-28.211-2.887-28.211-7.5-37.437-5.162-2.563-10.617-2.29-16.254-2.266-0.978-2e-3 -1.957-4e-3 -2.965-6e-3 -2.062-1e-3 -4.123 3e-3 -6.185 0.011-3.151 0.011-6.302 0-9.453-0.013-2.008 2e-3 -4.015 4e-3 -6.022 8e-3 -0.47-2e-3 -0.47-2e-3 -2.847-0.012-8.448 0.06-8.448 0.06-12.274 2.278zm134 0c-1.926 3.787-2.251 6.928-2.255 11.142-5e-3 1.243-0.011 2.486-0.017 3.767 4e-3 1.362 7e-3 2.725 0.011 4.129-4e-3 1.449-7e-3 2.899-0.011 4.393-9e-3 4.024-8e-3 8.049-4e-3 12.074 2e-3 4.34-7e-3 8.68-0.014 13.02-0.013 8.504-0.015 17.007-0.012 25.51 1e-3 6.91 0 13.82-5e-3 20.73 0 0.983-1e-3 1.966-1e-3 2.978-2e-3 1.997-3e-3 3.993-4e-3 5.99-0.011 18.73-9e-3 37.46-3e-3 56.19 6e-3 17.142-6e-3 34.284-0.025 51.425-0.019 17.595-0.027 35.189-0.024 52.784 2e-3 9.88 0 19.761-0.014 29.642-0.012 8.411-0.014 16.821-2e-3 25.232 6e-3 4.293 7e-3 8.585-5e-3 12.877-0.01 4.651-2e-3 9.301 0.011 13.952-8e-3 1.36-0.015 2.72-0.023 4.122 8e-3 1.245 0.015 2.491 0.022 3.774v3.253c0.441 3.55 1.546 5.957 3.375 9.016 4.24 2.692 8.875 2.258 13.773 2.265 0.421 1e-3 0.421 1e-3 2.552 6e-3 1.777 1e-3 3.553-2e-3 5.33-0.011 2.704-0.01 5.407 0 8.111 0.013 1.731-1e-3 3.463-4e-3 5.195-8e-3 0.783-1e-3 0.783-1e-3 4.744-7e-3 4.124-0.248 7.442-0.784 11.295-2.258 2.962-4.443 3.128-8.33 3.076-13.579-9e-3 -1.111-0.017-2.221-0.026-3.365-0.015-1.208-0.029-2.417-0.044-3.662-0.011-1.28-0.023-2.56-0.034-3.879-0.025-2.779-0.053-5.558-0.082-8.337-0.047-4.396-0.087-8.791-0.125-13.187-0.083-9.33-0.173-18.661-0.265-27.991-0.106-10.811-0.209-21.622-0.304-32.433-0.039-4.334-0.085-8.669-0.131-13.004-0.024-2.652-0.048-5.305-0.071-7.958-0.014-1.208-0.029-2.417-0.044-3.662-8e-3 -1.11-0.017-2.221-0.026-3.364-4e-3 -0.482-4e-3 -0.482-0.029-2.917 0.105-2.656 0.51-5.076 1.105-7.662 0.713 0.021 1.426 0.042 2.161 0.063 23.248 0.59 43.449 0.546 61.776-15.661 6.676-6.433 11.153-12.99 15.063-21.402 0.418-0.761 0.837-1.521 1.268-2.304 5.736-11.987 4.513-25.417 4.501-38.388 0.012-2.713 0.024-5.427 0.037-8.141 0.02-5.676 0.022-11.352 0.011-17.028-0.012-7.223 0.035-14.445 0.099-21.668 0.041-5.603 0.044-11.206 0.038-16.809 2e-3 -2.661 0.017-5.321 0.045-7.981 0.189-20.253-1.83-37.829-15.823-53.588-2.283-2.197-4.701-4.116-7.176-6.093-0.758-0.82-1.516-1.64-2.297-2.485-3.37-3.136-6.79-4.811-10.953-6.765-1.428-0.686-2.857-1.372-4.328-2.078-7.11-2.689-14.259-2.797-21.8-2.818-0.802-3e-3 -0.802-3e-3 -4.863-0.019-1.727-1e-3 -3.454-3e-3 -5.181-3e-3 -1.791-4e-3 -3.582-7e-3 -5.374-0.01-3.738-6e-3 -7.477-8e-3 -11.215-8e-3 -4.787 0-9.574-0.013-14.361-0.03-3.693-0.012-7.385-0.014-11.077-0.013-1.766-1e-3 -3.531-6e-3 -5.297-0.013-2.464-0.01-4.929-6e-3 -7.394-1e-3 -1.4-2e-3 -2.801-3e-3 -4.244-5e-3 -3.448 0.236-5.671 0.457-8.616 2.248zm69 333c-0.502 2.853-0.502 2.853-0.496 6.121-1e-3 1.182-1e-3 2.365-2e-3 3.584 0.02 1.231 0.04 2.463 0.06 3.732-7e-3 1.228-0.014 2.456-0.021 3.721 0.072 10.239 0.072 10.239 3.459 14.842 7.221 3.61 20.687 2.862 28.437 1.312 3.369-1.725 4.002-2.836 5.563-6.312 0.581-3.659 0.739-7.301 0.875-11 0.03-0.493 0.03-0.493 0.18-2.985 0.398-9.209 0.398-9.209-3.055-13.015-4.222-2.111-5.917-2.169-10.5-2-4.583 0.168-6.278 0.111-10.5-2-2.438-0.336-2.438-0.336-5-0.375-0.846-0.029-1.691-0.057-2.563-0.086-3.316 0.627-4.346 1.84-6.437 4.461zm-582.62 157.75c-3.509 4.802-3.585 8.207-3.688 14.062-0.037 1.388-0.074 2.777-0.113 4.207 0.593 5.544 2.593 8.428 6.801 11.992 0.866 0.553 1.732 1.106 2.625 1.676 0.846 0.561 1.691 1.122 2.562 1.699 10.811 5.074 21.963 5.114 33.683 5.06 2.816-9e-3 5.629 0.02 8.444 0.052 9.581 0.033 17.389-0.679 26.311-4.498l2 2c-3.142 6.011-6.711 7.736-13 10-16.313 3.04-37.852 2.746-53.336-3.141-4.395-1.418-9.419-1.982-13.664 0.141-0.792 5.435-1.047 10.397 2 15.062 17.601 11.367 43.933 11.047 63.883 8.254 7.87-1.98 15.116-5.237 22.117-9.316 0.75-0.417 1.5-0.833 2.273-1.262 7.447-4.751 11.631-13.355 13.727-21.738 0.782-12.938 0.47-24.594-8-35-10.195-9.987-19.831-13.137-33.789-13.203-0.94-6e-3 -1.879-0.012-2.848-0.018-1.985-9e-3 -3.97-0.016-5.955-0.02-3.002-9e-3 -6.004-0.04-9.006-0.072-16.43-0.093-31.371 0.963-43.027 14.063zm125.5-8.375c-0.822 0.291-1.645 0.582-2.492 0.882-4.613 1.719-6.341 2.687-9.383 6.743-0.398 2.91-0.398 2.91-0.375 6.062-8e-3 1.043-0.016 2.086-0.023 3.16 0.398 2.778 0.398 2.778 3.398 5.778 4.714 0.769 7.475-0.124 11.484-2.418 5.806-2.978 11.26-3.786 17.703-4.395 1.121-0.116 2.241-0.232 3.396-0.352 7.737-0.739 15.458-1.137 23.229-1.21 0.477-7e-3 0.477-7e-3 2.89-0.043 4.916 0.035 8.376 0.309 12.298 3.418-0.688 2.375-0.688 2.375-2 5-3.805 1.994-7.004 2.19-11.25 2.25-21.451 1.181-42.676 6.874-57.598 22.711-4.802 5.404-7.585 9.322-7.652 16.664-0.031 1.126-0.062 2.253-0.094 3.414 0.594 2.961 0.594 2.961 2.584 4.619 4.046 1.803 7.333 1.738 11.76 1.762 0.87 8e-3 1.741 0.017 2.638 0.025 2.871 0.024 5.741 0.025 8.612 0.023 1.999 8e-3 3.997 0.015 5.996 0.023 4.186 0.014 8.372 0.015 12.559 0.01 5.363-6e-3 10.726 0.024 16.09 0.065 4.126 0.026 8.252 0.029 12.379 0.025 1.977 2e-3 3.955 0.011 5.933 0.029 2.765 0.022 5.528 0.013 8.293-5e-3 1.573 2e-3 3.145 4e-3 4.766 6e-3 4.696-0.732 6.184-1.845 8.984-5.621 0.752-5.168-0.161-8.64-3-13-4.549-2.275-6.969-2.224-12.012-2.161-0.804 9e-3 -0.804 9e-3 -4.876 0.055-9.165 0.176-18.327 0.448-27.488 0.754-2.485 0.082-4.971 0.156-7.456 0.231-1.451 0.047-2.903 0.094-4.398 0.142-3.132-0.018-5.752-0.251-8.77-1.021l1-3c6.521-2.685 12.779-3.643 19.75-4.375 8.045-0.954 15.921-2.224 23.812-4.063 0.862-0.193 1.723-0.386 2.611-0.585 7.106-1.731 11.947-4.53 16.639-10.102 0.584-0.684 1.168-1.367 1.77-2.071 3.652-4.647 2.895-10.148 2.418-15.804-2.46-7.716-7.269-11.072-14-15-9.575-4.869-19.629-4.183-30.125-4.188-0.717-6e-3 -0.717-6e-3 -4.344-0.037-12.52-0.017-23.922 1.122-35.656 5.6zm106.94-1c-1.21 0.399-2.42 0.799-3.668 1.211-3.254 1.463-5.042 2.54-7.144 5.414-0.461 2.691-0.461 2.691-0.375 5.562 0.013 0.95 0.026 1.9 0.039 2.879 0.336 2.559 0.336 2.559 2.336 5.559 5.895 0.599 9.71-0.505 15-3 16.262-4.073 40.832-4.588 57 0 1.039 2.394 1.039 2.394 1 5-4.061 3.045-4.572 3.374-9.24 3.384-0.522 5e-3 -0.522 5e-3 -3.166 0.031-1.123-3e-3 -2.246-6e-3 -3.403-9e-3 -1.158 0.011-2.317 0.022-3.511 0.033-3.706 0.034-7.412 0.05-11.118 0.061-4.874 0.014-9.747 0.048-14.621 0.093-1.121-3e-3 -2.242-6e-3 -3.396-9e-3 -0.524 5e-3 -0.524 5e-3 -3.176 0.031-0.918 2e-3 -1.836 4e-3 -2.783 6e-3 -3.422 0.501-6.125 1.918-8.586 4.379-0.277 3.555-0.5 6.514 0 10 2.926 3.332 4.673 3.918 9 5 3.302 0.061 6.582 0.067 9.883 0.027 1.992-0.013 3.984-0.025 5.976-0.037 3.127-0.025 6.254-0.053 9.38-0.086 3.027-0.031 6.054-0.048 9.081-0.065 0.46-6e-3 0.46-6e-3 2.789-0.04 6.224-0.024 11.819 0.813 17.891 2.201v5c-4.069 3.719-8.335 3.36-13.633 3.328-0.832-2e-3 -1.665-4e-3 -2.523-6e-3 -1.76-7e-3 -3.52-0.021-5.28-0.041-2.659-0.031-5.318-0.041-7.978-0.047-23.646-0.105-23.646-0.105-31.836-3.297-4.419-1.57-8.006-2.644-12.75-1.937-3 3-3 3-3.375 6.25 0.418 4.185 1.384 7.052 3.375 10.75 3.699 2.774 5.021 3.483 9.289 4.351 1.025 0.212 2.05 0.423 3.105 0.641 1.067 0.209 2.133 0.417 3.231 0.633 1.043 0.216 2.086 0.433 3.16 0.656 21.352 4.318 47.915 6.65 67.215-5.281 5.494-4.029 8.544-7.616 11-14 0.827-5.89-0.676-9.149-4-14-0.949-0.867-1.898-1.733-2.875-2.625-0.701-0.784-1.403-1.568-2.125-2.375 0.706-4.134 3.075-6.17 6-9 1.779-5.339 1.6-10.816 0.125-16.188-5.144-6.808-13.232-10.962-21.125-13.812-8.388-1.142-16.732-1.184-25.188-1.188-0.653-6e-3 -0.653-6e-3 -3.962-0.037-11.885-0.018-23.716 0.723-35.038 4.6zm-298.81 10.625c-1.953 3.905-2.273 5.433-2.25 9.625-5e-3 0.961-0.01 1.923-0.016 2.914 0.266 2.461 0.266 2.461 2.266 4.461 8.108 1.329 12.467-1.698 19.082-6.25 2.918-1.75 2.918-1.75 6.918-1.75-0.072 1.309-0.144 2.619-0.219 3.968-0.539 10.319-0.922 20.637-1.031 30.969-0.021 0.999-0.043 1.998-0.064 3.027-0.028 5.692 0.421 9.96 3.314 15.036 4.157 2.771 7.08 2.332 12 2 4.273-1.765 5.961-3.916 8-8 0.374-3.004 0.374-3.004 0.372-6.379 7e-3 -1.269 0.013-2.537 0.019-3.843-9e-3 -1.362-0.018-2.723-0.028-4.126 1e-3 -1.404 1e-3 -2.808 2e-3 -4.255-3e-3 -2.966-0.012-5.932-0.029-8.899-0.023-4.547-0.02-9.094-0.014-13.641-5e-3 -2.881-0.012-5.762-0.021-8.643 1e-3 -1.363 2e-3 -2.727 3e-3 -4.132-5e-3 -0.632-5e-3 -0.632-0.029-3.833-5e-3 -1.113-0.01-2.226-0.014-3.372-0.261-2.877-0.261-2.877-2.261-6.877-14.48-7.241-34.899 1.395-46 12zm-82 13c-3.987 5.351-4.745 9.387-4 16 2.365 4.821 5.141 7.703 10 10 4.865 0.931 9.088 1.161 13.418-1.469 7.193-6.185 7.193-6.185 7.988-10.984 0.186-5.531 0.039-7.905-3.219-12.61-5.332-4.914-8.194-5.39-15.238-5.246-4.028 0.422-6.053 1.485-8.949 4.309zm520.12 3.25c-2.553 4.505-2.988 6.649-2.125 11.75 2.555 4.721 5.863 9.132 11 11 7.002 0.628 11.207 0.374 17-4 3.938-5.38 3.785-10.561 3-17-2.11-4.455-4.368-7.226-9-9-9.002-1.115-13.782 0.362-19.875 7.25z" fill="#AE1818"/>
<path transform="translate(732.85 154.74)" d="m0 0c0.898-3e-3 1.796-7e-3 2.721-0.01 3.03-9e-3 6.06-4e-3 9.09 1e-3 2.195-4e-3 4.39-8e-3 6.585-0.014 6.072-0.012 12.143-0.011 18.215-8e-3 6.59 0 13.181-0.011 19.771-0.02 13.089-0.017 26.178-0.023 39.268-0.026 15.67-4e-3 31.341-0.019 47.012-0.035 36.981-0.036 73.962-0.053 110.94-0.066 18.812-7e-3 37.623-0.016 56.435-0.025 60.328-0.03 120.66-0.056 180.98-0.067 4.809-1e-3 9.619-2e-3 14.429-3e-3 1.928 0 3.856 0 5.784-1e-3 8.702-1e-3 17.404-3e-3 26.106-4e-3 1.938-1e-3 3.876-1e-3 5.814-1e-3 62.251-0.012 124.5-0.049 186.75-0.105 44.724-0.04 89.449-0.077 134.17-0.089 0.92 0 1.84 0 2.787-1e-3 20.188-5e-3 40.377-8e-3 60.565-9e-3 7.224-1e-3 14.447-2e-3 21.671-2e-3 1.797 0 3.594-1e-3 5.391-1e-3 28.644-3e-3 57.288-0.027 85.932-0.062 29.652-0.036 59.304-0.047 88.955-0.029 17.101 0.01 34.202 0 51.302-0.038 11.416-0.023 22.831-0.021 34.246 2e-3 6.509 0.012 13.018 0.013 19.527-0.016 5.922-0.027 11.843-0.021 17.764 0.01 2.129 6e-3 4.258-1e-3 6.387-0.02 13.075-0.111 23.639 0.842 33.844 9.955 6.16 6.149 8.018 13.824 8.093 22.358-7e-3 0.907-0.014 1.814-0.021 2.748 2e-3 0.495 2e-3 0.495 0.013 3 0.011 3.312 0 6.625-0.01 9.938 4e-3 2.4 8e-3 4.801 0.014 7.201 0.013 6.595 7e-3 13.189-3e-3 19.783-7e-3 7.112 4e-3 14.225 0.012 21.338 0.014 13.933 0.011 27.866 2e-3 41.799-7e-3 11.324-8e-3 22.647-4e-3 33.971 0 1.611 0 3.222 1e-3 4.881 1e-3 3.273 2e-3 6.545 3e-3 9.817 8e-3 29.821 0 59.642-0.016 89.463-0.014 27.217-0.013 54.434 1e-3 81.651 0.016 30.582 0.023 61.164 0.013 91.746-1e-3 3.261-2e-3 6.522-2e-3 9.783-1e-3 1.605-1e-3 3.209-2e-3 4.862-2e-3 11.31 2e-3 22.62 9e-3 33.929 8e-3 13.784 6e-3 27.567-0.01 41.35-8e-3 7.034-0.011 14.067-1e-3 21.1 9e-3 6.438 4e-3 12.877-0.012 19.315-3e-3 2.329-1e-3 4.658 6e-3 6.987 9e-3 3.168 0 6.335-0.014 9.503 7e-3 0.902 0.014 1.804 0.021 2.734-0.078 8.94-1.951 17.46-7.024 24.933-0.611 0.934-1.222 1.867-1.851 2.829-6.541 7.572-13.939 11.356-23.274 14.609-1.061 0.384-2.122 0.767-3.215 1.163-6.378 2.285-12.788 4.423-19.293 6.321-3.77 1.139-7.436 2.521-11.125 3.895-2.54 0.906-5.088 1.687-7.679 2.433-4.155 1.21-8.094 2.773-12.098 4.415-5.34 2.041-10.832 3.621-16.295 5.298-5.128 1.587-10.243 3.219-15.357 4.85-1.038 0.328-2.075 0.657-3.143 0.995-5.912 1.886-11.759 3.888-17.573 6.059-2.49 0.89-4.993 1.655-7.534 2.383-4.142 1.206-8.069 2.761-12.059 4.403-4.827 1.84-9.773 3.292-14.711 4.804-5.285 1.64-10.522 3.406-15.766 5.172-2.892 0.954-5.789 1.84-8.714 2.684-3.299 1.012-6.332 2.065-9.5 3.375-3.563 1.468-7.119 2.688-10.813 3.781-8.933 2.716-17.74 5.794-26.562 8.844-9.561 3.304-19.104 6.591-28.813 9.437-1.778 0.625-3.551 1.266-5.312 1.938-3.764 1.4-7.537 2.644-11.387 3.785-8.695 2.654-17.24 5.728-25.801 8.777-9.565 3.407-19.118 6.793-28.849 9.701-2.46 0.742-4.901 1.549-7.338 2.362-3.079 1.026-6.136 1.976-9.25 2.875-4.179 1.235-8.153 2.806-12.184 4.465-4.827 1.84-9.773 3.292-14.711 4.804-5.285 1.64-10.522 3.406-15.766 5.172-2.892 0.954-5.789 1.84-8.714 2.684-3.299 1.012-6.332 2.065-9.5 3.375-3.566 1.47-7.127 2.69-10.825 3.785-8.865 2.695-17.607 5.75-26.363 8.777-9.767 3.378-19.524 6.748-29.427 9.707-3.586 1.106-7.067 2.458-10.573 3.793-1.763 0.601-3.529 1.193-5.297 1.778-0.531 0.176-0.531 0.176-3.219 1.068-1.15 0.381-2.299 0.762-3.484 1.154-2.473 0.824-4.945 1.648-7.418 2.473-15.562 5.188-15.562 5.188-19.246 6.415-2.012 0.671-4.023 1.343-6.033 2.018-5.303 1.78-10.637 3.427-15.994 5.032-2.357 0.757-4.692 1.584-7.008 2.457-4.119 1.538-8.257 2.962-12.43 4.348-1.531 0.509-3.061 1.018-4.638 1.543-1.599 0.53-3.197 1.06-4.795 1.589-1.556 0.517-3.111 1.034-4.713 1.567-3.088 1.026-6.175 2.051-9.263 3.076-5.432 1.805-10.859 3.623-16.286 5.445-2.899 0.947-5.808 1.819-8.738 2.662-4.438 1.375-4.438 1.375-7.176 2.825-18.748 8.913-41.879 7.03-61.262 1.55-3.119-1.148-6.124-2.414-9.148-3.789-4.16-1.766-8.452-2.857-12.805-4.046-11.197-3.221-22.251-7.068-33.168-11.133-5.507-1.973-11.083-3.753-16.645-5.567-4.234-1.465-4.234-1.465-7.824-3.027-3.544-1.494-6.99-2.457-10.722-3.375-5.139-1.329-9.914-2.868-14.789-4.934-3.951-1.538-7.98-2.801-12.024-4.066-0.41-0.129-0.41-0.129-2.487-0.779-3.913-1.218-7.829-2.417-11.751-3.604-7.04-2.146-13.786-4.516-20.539-7.433-6.222-2.503-12.685-4.304-19.098-6.247-3.274-1.011-6.544-2.034-9.812-3.062-0.816-0.256-1.631-0.513-2.471-0.777-4.961-1.572-9.846-3.272-14.717-5.098-4.132-1.464-8.315-2.758-12.5-4.063-5.921-1.847-11.785-3.778-17.598-5.945-10.994-3.995-22.172-7.463-33.339-10.938-4.092-1.288-8.102-2.656-12.063-4.304-4.252-1.713-8.382-2.893-12.805-4.039-3.386-0.972-6.579-2.34-9.828-3.692-3.411-1.287-6.859-2.274-10.367-3.269-7.797-2.239-15.46-4.784-23.125-7.438-1.114-0.384-2.229-0.768-3.377-1.164-4.365-1.522-8.66-3.065-12.908-4.894-3.843-1.637-7.668-2.483-11.734-3.375-3.585-1.006-6.941-2.384-10.383-3.793-6.038-2.332-12.241-4.197-18.41-6.149-8.149-2.584-16.26-5.198-24.277-8.168-2.794-1.016-5.618-1.879-8.473-2.707-4.649-1.403-9.162-2.992-13.688-4.75-10.762-4.111-21.761-7.508-32.734-11.007-16.486-5.261-16.486-5.261-23.328-7.868-3.226-1.19-6.411-2.233-9.7-3.222-8.463-2.588-16.847-5.403-25.238-8.215-1.533-0.512-3.065-1.025-4.644-1.553-3.036-1.015-6.071-2.031-9.105-3.048-2.865-0.957-5.733-1.907-8.603-2.849-1.31-0.43-2.619-0.861-3.968-1.304-1.148-0.375-2.295-0.749-3.477-1.135-3.518-1.241-6.905-2.694-10.328-4.174-2.301-0.705-4.614-1.372-6.937-2-5.155-1.394-10.068-3.113-15.063-5-2.514-0.851-5.037-1.675-7.561-2.497-4.492-1.466-8.965-2.983-13.439-4.503-0.613-0.206-0.613-0.206-3.719-1.25-10.586-3.928-18.054-11.825-23.281-21.75-2.568-7.117-3.437-13.873-3.38-21.393-5e-3 -0.99-0.01-1.98-0.014-3-0.012-3.302-3e-3 -6.604 6e-3 -9.906-4e-3 -2.397-9e-3 -4.795-0.016-7.192-0.014-6.576-0.01-13.152-3e-3 -19.729 5e-3 -7.097-8e-3 -14.194-0.018-21.291-0.017-13.898-0.018-27.797-0.013-41.695 4e-3 -11.296 3e-3 -22.592-2e-3 -33.888-1e-3 -1.607-2e-3 -3.215-3e-3 -4.871-1e-3 -3.266-3e-3 -6.531-4e-3 -9.797-0.01-21.926-0.014-43.852-7e-3 -65.778 1e-3 -0.857 1e-3 -1.714 1e-3 -2.598 3e-3 -6.96 5e-3 -13.92 8e-3 -20.88 0.01-27.15 2e-3 -54.3-0.021-81.451-0.027-30.513-0.039-61.027-0.032-91.541 3e-3 -16.153 1e-3 -32.305-0.017-48.458-0.014-13.75-0.015-27.499 3e-3 -41.249 8e-3 -7.015 0.01-14.03-5e-3 -21.045-0.014-6.423-9e-3 -12.846 0.01-19.269 4e-3 -2.322 1e-3 -4.644-9e-3 -6.967-0.1-23.835-0.1-23.835 6.141-34.877 7.832-7.007 15.783-10.373 26.227-10.381zm2.836 35.069c-0.411 0.416-0.411 0.416-2.489 2.519-4.73 5.739-5.636 10.616-5.576 17.914-5e-3 0.927-9e-3 1.854-0.014 2.808-0.011 3.117 0 6.233 0.01 9.349-3e-3 2.252-8e-3 4.505-0.014 6.757-0.013 6.198-6e-3 12.396 3e-3 18.595 7e-3 6.681-4e-3 13.362-0.012 20.043-0.013 13.092-0.01 26.184-2e-3 39.276 7e-3 10.638 8e-3 21.276 5e-3 31.915-1e-3 1.512-1e-3 3.025-2e-3 4.583-1e-3 3.072-2e-3 6.145-3e-3 9.217-8e-3 28.829 2e-3 57.659 0.018 86.488 0.013 24.75 0.011 49.499-3e-3 74.249-0.016 28.722-0.022 57.445-0.013 86.168 1e-3 3.061 2e-3 6.123 3e-3 9.185 0 1.506 1e-3 3.012 1e-3 4.565 3e-3 10.627-2e-3 21.255-9e-3 31.883-8e-3 12.948-6e-3 25.896 0.01 38.845 8e-3 6.609 0.011 13.218 1e-3 19.828-9e-3 6.047-4e-3 12.093 0.012 18.14 3e-3 2.191 2e-3 4.382-6e-3 6.573-9e-3 2.972 1e-3 5.944 0.015 8.916-4e-3 0.428-4e-3 0.428-0.022 2.593 0.1 10.551 5.734 19.188 12.899 26.591 5.668 5.162 11.139 8.033 18.375 10.437 0.433 0.148 0.433 0.148 2.623 0.895 2.831 0.962 5.666 1.91 8.502 2.855 1.97 0.662 3.94 1.323 5.91 1.985 7.019 2.35 14.045 4.676 21.071 7.002 1.928 0.639 3.856 1.278 5.783 1.918 1.762 0.585 3.524 1.168 5.287 1.75 3.612 1.199 7.196 2.439 10.756 3.786 3.913 1.455 7.838 2.778 11.814 4.048 1.423 0.456 2.845 0.912 4.311 1.383 1.487 0.475 2.974 0.951 4.506 1.441 10.507 3.376 20.97 6.809 31.351 10.555 2.846 1.003 5.691 1.911 8.586 2.757 3.302 0.982 6.463 2.02 9.684 3.215 5.842 2.141 11.724 4.138 17.629 6.098 1.043 0.348 2.087 0.695 3.162 1.054 5.989 1.987 11.992 3.908 18.025 5.758 4.997 1.539 9.809 3.266 14.629 5.282 4.086 1.586 8.288 2.781 12.484 4.039 2.301 0.71 4.572 1.518 6.825 2.367 5.255 1.961 10.595 3.58 15.953 5.238 9.335 2.92 18.586 6.051 27.765 9.426 6.973 2.538 14.055 4.707 21.161 6.836 2.336 0.75 4.649 1.571 6.943 2.442 4.471 1.66 8.97 3.155 13.51 4.617 0.85 0.274 1.7 0.549 2.577 0.832 3.598 1.163 7.198 2.322 10.798 3.48 17.786 5.729 17.786 5.729 26.007 8.787 4.785 1.75 9.635 3.309 14.473 4.904 2.586 0.862 5.172 1.724 7.758 2.586 2.789 0.93 5.578 1.86 8.367 2.789 26.625 8.875 26.625 8.875 30.664 10.223 3.223 1.073 6.447 2.143 9.672 3.211 0.471 0.156 0.471 0.156 2.853 0.946 1.811 0.601 3.623 1.201 5.435 1.799 3.829 1.271 7.619 2.585 11.396 4.005 3.775 1.412 7.563 2.638 11.418 3.816 12.149 3.763 24.162 7.871 36.155 12.103 5.648 1.982 11.319 3.829 17.067 5.503 2.682 0.85 5.294 1.779 7.93 2.758 8.178 3.001 16.491 5.601 24.785 8.261 9.896 3.174 19.749 6.401 29.5 10 1.663 0.513 3.329 1.014 5 1.5 3.369 0.983 6.651 2.082 9.938 3.313 5.147 1.896 10.342 3.631 15.562 5.312 1.537 0.498 3.073 0.996 4.656 1.508 9.169 2.72 18.051 3.711 27.594 3.68 0.485 8e-3 0.485 8e-3 2.938 0.049 14.914 0.01 28.583-4.501 42.562-9.299 0.779-0.263 0.779-0.263 4.719-1.592 6.196-2.097 12.382-4.211 18.519-6.474 7.753-2.851 15.61-5.398 23.45-7.997 1.582-0.525 3.165-1.051 4.748-1.578 3.052-1.014 6.104-2.028 9.157-3.04 3.599-1.196 7.195-2.399 10.79-3.604 5.642-1.883 11.325-3.618 17.019-5.336 3.528-1.17 6.956-2.434 10.415-3.785 7.234-2.813 14.563-5.286 21.933-7.719 0.632-0.21 0.632-0.21 3.828-1.275 7.128-2.365 14.275-4.645 21.465-6.815 2.26-0.708 4.489-1.516 6.707-2.348 4.404-1.651 8.854-3.006 13.363-4.339 2.788-0.89 5.548-1.866 8.293-2.879 8.753-3.214 17.658-5.988 26.532-8.844 3.556-1.145 7.112-2.293 10.668-3.441 0.782-0.252 0.782-0.252 4.739-1.526 4.177-1.394 8.288-2.909 12.405-4.471 3.111-0.986 6.234-1.914 9.363-2.839 2.838-0.906 5.605-1.877 8.395-2.914 8.994-3.303 18.157-6.126 27.284-9.038 8.776-2.803 17.431-5.712 25.958-9.209 2.646-0.791 5.285-1.448 7.969-2.093 3.031-0.907 3.031-0.907 7.355-2.668 7.191-2.927 14.595-5.196 21.989-7.551 3.047-0.979 6.094-1.958 9.14-2.938 1.469-0.471 2.938-0.943 4.451-1.429 10.98-3.54 21.927-7.168 32.784-11.071 10.293-3.672 20.711-6.964 31.119-10.292 6.995-2.242 13.941-4.547 20.828-7.1 4.666-1.692 9.43-3.074 14.178-4.514 3.02-0.969 5.965-1.988 8.933-3.094 5.201-1.912 10.454-3.643 15.727-5.343 0.854-0.276 1.709-0.552 2.59-0.836 3.565-1.147 7.13-2.292 10.697-3.434 9.2-2.949 18.305-5.944 27.24-9.637 2.198-0.72 4.405-1.413 6.625-2.062 3.429-1.006 6.758-2.082 10.102-3.346 3.948-1.471 7.908-2.801 11.922-4.08 1.418-0.459 2.835-0.919 4.296-1.392 2.943-0.951 5.888-1.894 8.836-2.829 14.536-4.742 26.112-10.544 33.902-24.175 4.774-9.858 4.286-19.785 4.199-30.467 8e-3 -2.258 0.018-4.515 0.031-6.773 0.027-6.177 0.011-12.353-0.012-18.529-0.018-6.671 4e-3 -13.343 0.021-20.014 0.028-13.057 0.017-26.114-7e-3 -39.171-0.018-10.61-0.023-21.22-0.017-31.831 1e-3 -1.511 1e-3 -3.021 2e-3 -4.578 2e-3 -3.069 4e-3 -6.139 5e-3 -9.208 0.015-28.767-0.012-57.533-0.054-86.3-0.036-24.686-0.037-49.372-0.014-74.058 0.028-28.673 0.036-57.345 0.012-86.017-2e-3 -3.057-5e-3 -6.113-7e-3 -9.169-1e-3 -1.504-3e-3 -3.008-4e-3 -4.557-7e-3 -10.601-1e-3 -21.202 0.01-31.803 0.014-12.914 6e-3 -25.827-0.03-38.741-0.018-6.589-0.026-13.179-8e-3 -19.768 0.016-6.031 4e-3 -12.061-0.03-18.091-7e-3 -2.183-5e-3 -4.366 9e-3 -6.549 0.017-2.966-2e-3 -5.93-0.031-8.896-1e-3 -0.824-1e-3 -0.824-5e-3 -4.993-1.415-8.648-7.258-15.004-13.753-20.603-5.817-2.649-10.547-3.375-16.91-3.376-0.867-4e-3 -1.735-8e-3 -2.628-0.012-2.909-0.011-5.818 0-8.727 0.011-2.115-3e-3 -4.23-8e-3 -6.344-0.013-5.835-0.012-11.67-5e-3 -17.504 5e-3 -6.339 8e-3 -12.678-2e-3 -19.017-0.01-11.117-0.011-22.235-0.01-33.352-3e-3 -16.532 0.012-33.063 6e-3 -49.595-3e-3 -27.809-0.015-55.617-0.016-83.426-7e-3h-2.567c-0.849 1e-3 -1.697 1e-3 -2.571 1e-3 -25.835 8e-3 -51.669 0.01-77.503 6e-3 -1.729 0-3.459 0-5.188-1e-3 -6.948-1e-3 -13.896-2e-3 -20.845-3e-3 -19.424-2e-3 -38.848-4e-3 -58.272-5e-3h-2.681c-28.192-1e-3 -56.384 2e-3 -84.576 9e-3h-2.771c-14.852 4e-3 -29.705 7e-3 -44.557 0.011-58.909 0.015-117.82 0.014-176.73-1e-3 -14.845-3e-3 -29.689-7e-3 -44.534-0.01-0.914-1e-3 -1.828-1e-3 -2.77-1e-3 -28.162-6e-3 -56.324-9e-3 -84.487-8e-3h-2.678c-19.403 1e-3 -38.805 3e-3 -58.208 6e-3l-20.826 3e-3h-5.181c-25.829 4e-3 -51.657 1e-3 -77.486-7e-3h-2.566c-0.846-1e-3 -1.691-1e-3 -2.563-1e-3 -28.498-8e-3 -56.996-5e-3 -85.495 0.01-16.439 9e-3 -32.879 0.01-49.319-2e-3 -10.968-6e-3 -21.936-2e-3 -32.904 0.011-6.258 7e-3 -12.515 9e-3 -18.773-1e-3 -5.688-0.01-11.375-6e-3 -17.062 9e-3 -2.05 3e-3 -4.1 1e-3 -6.15-6e-3 -2.776-0.01-5.552-1e-3 -8.328 0.012-1.54 1e-3 -3.079 1e-3 -4.665 1e-3 -7.341 0.649-12.467 2.903-17.557 8.188z" fill="#E1AFAF"/>
<path transform="translate(749.41 134.87)" d="m0 0c2.19-1e-3 4.381-3e-3 6.571-5e-3 6.026-5e-3 12.052-4e-3 18.078-1e-3 6.553 2e-3 13.106-3e-3 19.659-6e-3 11.488-5e-3 22.976-7e-3 34.464-5e-3 17.083 1e-3 34.165-3e-3 51.248-8e-3 32.283-0.01 64.567-0.013 96.85-0.013 3.56 0 7.12-1e-3 10.681-1e-3h2.677c19.582 0 39.163-2e-3 58.745-5e-3 8.064-1e-3 16.128-2e-3 24.192-3e-3h2.7c51.056-6e-3 102.11-0.011 153.17-0.01h5.731 25.877 11.539 5.776c60.88 1e-3 121.76-6e-3 182.64-0.02 15.34-4e-3 30.68-7e-3 46.02-0.01 0.473-1e-3 0.473-1e-3 2.863-1e-3 29.112-6e-3 58.225-0.01 87.337-0.011h2.77c20.065-1e-3 40.13-2e-3 60.194-1e-3h21.539 5.358c28.457 0 56.913-6e-3 85.37-0.014 29.458-9e-3 58.916-0.011 88.374-4e-3 16.984 4e-3 33.969 2e-3 50.953-8e-3 11.342-6e-3 22.683-5e-3 34.024 3e-3 6.465 4e-3 12.929 4e-3 19.393-4e-3 5.885-7e-3 11.769-5e-3 17.653 4e-3 2.112 2e-3 4.224 0 6.336-5e-3 37.999-0.091 37.999-0.091 52.882 14.19 3.419 3.579 5.663 6.681 7.93 11.067 0.742 1.34 1.485 2.681 2.25 4.062 1.68 3.782 2.408 6.836 2.75 10.938h1v585h-1c0.02 0.741 0.041 1.482 0.062 2.246-0.317 16.194-8.428 28.548-19.57 39.547-11.115 10.207-11.115 10.207-15.492 10.207l-1 2-2-1-1 2c-0.599 0.041-0.599 0.041-3.625 0.25-5.997 0.514-11.075 2.945-16.575 5.261-4.349 1.703-8.648 2.81-13.215 3.75-2.886 0.824-5.045 2.165-7.585 3.739h-2l-1 2c-0.99-0.33-1.98-0.66-3-1l-1 2c-0.671 0.062-0.671 0.062-4.063 0.375-5.151 0.652-8.402 2.201-12.937 4.625h-3l-1 2c-2.196 0.422-2.196 0.422-5.125 0.75-6.542 0.971-12.115 3.231-18.18 5.797-4.31 1.694-8.582 2.782-13.11 3.714-2.886 0.824-5.045 2.165-7.585 3.739h-2l-1 2c-0.99-0.33-1.98-0.66-3-1l-1 2c-0.578 0.062-0.578 0.062-3.5 0.375-3.79 0.526-5.957 1.122-9.313 2.687-4.187 1.938-4.187 1.938-7.187 1.938l-1 2c-2.524 0.414-5.047 0.828-7.571 1.238-5.373 1.193-10.357 3.303-15.472 5.309-4.45 1.634-8.867 2.762-13.504 3.714-2.453 0.739-2.453 0.739-6.453 3.739h-2l-1 2c-0.99-0.33-1.98-0.66-3-1l-1 2c-0.671 0.062-0.671 0.062-4.063 0.375-5.151 0.652-8.402 2.201-12.937 4.625h-3l-1 2c-0.99-0.33-1.98-0.66-3-1l-1 2c-2.613 0.441-5.225 0.879-7.84 1.304-4.284 0.943-8.034 2.687-12.028 4.465-4.341 1.705-8.746 2.594-13.32 3.457-2.812 0.774-2.812 0.774-6.812 3.774h-2l-1 2c-0.99-0.33-1.98-0.66-3-1l-1 2c-0.671 0.062-0.671 0.062-4.063 0.375-4.937 0.625-4.937 0.625-8.594 2.476-4.853 2.401-9.567 3.78-14.781 5.149-5.277 1.391-10.343 2.801-15.309 5.093-4.682 2.099-9.035 3.061-14.043 4-3.21 0.907-3.21 0.907-6.617 2.875-3.849 2.176-7.162 3.091-11.468 4.032-6.162 1.436-11.432 3.297-17.125 6h-3l-1 2c-2.96 0.612-5.924 0.959-8.922 1.339-3.243 0.696-5.31 1.885-8.078 3.661h-2l-1 2c-1.968 0.347-3.952 0.601-5.938 0.812-5.56 0.767-9.469 2.189-14.324 4.891-4.507 2.134-9.29 3.151-14.125 4.304-3.613 0.993-3.613 0.993-7.383 2.61-3.23 1.383-3.23 1.383-6.23 1.383l-1 2c-2.223 0.492-2.223 0.492-5.063 0.875-5.353 0.864-9.202 2.542-13.937 5.125h-2l-1 2-2-1v2c-0.99-0.062-1.98-0.124-3-0.188-4.561 0.214-7.796 1.453-12 3.188-1.135 0.35-2.269 0.701-3.438 1.062-2.562 0.938-2.562 0.938-3.562 2.938-0.99-0.33-1.98-0.66-3-1l-1 2c-1.341 0.123-2.682 0.247-4.063 0.375-4.937 0.625-4.937 0.625-8.594 2.476-4.853 2.401-9.567 3.78-14.781 5.149-5.274 1.39-10.339 2.799-15.301 5.089-3.76 1.686-6.993 2.694-11.011 3.473-4.405 0.857-7.464 2.048-11.25 4.438h-2l-1 2c-0.99-0.33-1.98-0.66-3-1l-1 2c-1.052 0.144-2.104 0.288-3.188 0.437-3.888 0.574-6.454 1.564-9.812 3.563l-1 2-5-1v2c-0.526 0.041-0.526 0.041-3.188 0.25-7.182 1.119-13.932 3.456-20.812 5.75l-1 2c-3.222 0.614-6.447 0.96-9.704 1.339-5.052 1.012-7.683 3.047-11.296 6.661-3.188-0.313-3.188-0.313-6-1v2c-0.907-0.012-1.813-0.024-2.747-0.036-6.849-0.05-13.467 0.1-20.253 1.036v1h-9v-1c-7.04-0.939-13.903-1.108-21-1v-2c-2.31 0.33-4.62 0.66-7 1v-2c-1.648-0.713-3.318-1.374-5-2l-3-2c-2.7-0.414-2.7-0.414-5.688-0.625-0.994-0.075-1.988-0.15-3.012-0.227-0.759-0.049-1.518-0.098-2.3-0.148v-2c-2.996-1.016-5.995-2.015-9-3-0.548-0.18-0.548-0.18-3.317-1.09-1.133-0.362-2.266-0.725-3.433-1.098-1.068-0.344-2.135-0.688-3.235-1.043-3.015-0.769-3.015-0.769-8.015-0.769v-2l-4 1v-2c-0.805-0.268-1.609-0.537-2.438-0.813-2.719-0.906-5.425-1.851-8.125-2.812-4.437-1.375-4.437-1.375-9.437-1.375v-2c-0.929-0.289-1.857-0.578-2.813-0.875-3.187-1.125-3.187-1.125-6.187-3.125-2.87-0.371-5.714-0.505-8.602-0.657-0.792-0.113-1.583-0.226-2.398-0.343l-1-2c-1.973-0.745-3.981-1.395-6-2-1.21-0.379-2.419-0.758-3.665-1.149-1.307-0.405-2.614-0.809-3.96-1.226-16.951-5.288-16.951-5.288-24.375-8.188-3.377-1.213-6.578-2.072-10.063-2.875-3.757-0.887-6.137-1.682-9.5-3.687-4.712-2.571-9.143-2.684-14.437-2.875v-2c-0.764-0.248-1.527-0.495-2.313-0.75-2.086-0.708-4.167-1.437-6.219-2.239-5.925-2.288-11.126-3.595-17.468-4.011v-2c-0.731-0.127-1.462-0.253-2.215-0.383-3.504-0.777-6.66-2.207-9.965-3.578-2.977-1.097-5.916-1.834-9.008-2.539-3.734-0.865-6.03-1.63-9.375-3.625-4.712-2.571-9.143-2.684-14.437-2.875v-2c-0.99 0.33-1.98 0.66-3 1v-2c-6.183-3.092-13.135-5-20-5v-2l-4 1v-2c-0.702-0.103-1.403-0.207-2.125-0.313-2.875-0.687-2.875-0.687-5.594-2.109-3.528-1.697-6.854-2.603-10.656-3.516-5.687-1.449-10.376-3.438-15.625-6.062-3.168-0.808-6.353-1.472-9.551-2.145-4.702-1.166-9.063-2.971-13.547-4.781-3.285-1.216-6.409-1.831-9.902-2.074v-2l-5 1v-2c-0.825-0.268-1.65-0.537-2.5-0.813-2.529-0.858-5.027-1.807-7.5-2.812-3.688-1.268-6.159-1.663-10-1.375v-2l-4 1v-2c-2-0.938-2-0.938-5-2-1.279-0.537-2.558-1.073-3.875-1.625-4.022-1.341-6.93-1.638-11.125-1.375v-2c-0.32-0.042-0.32-0.042-1.938-0.25-3.459-0.847-6.497-2.287-9.727-3.762-5.37-2.272-10.526-3.279-16.335-2.988v-2c-0.825-0.268-1.65-0.537-2.5-0.813-2.529-0.858-5.027-1.807-7.5-2.812-3.688-1.268-6.159-1.663-10-1.375v-2c-0.66-0.083-1.32-0.165-2-0.25-3-0.75-3-0.75-6.375-2.563-5.049-2.649-10.434-3.792-15.934-5.18-3.172-0.866-6.1-1.868-9.129-3.132-6.019-2.474-11.05-3.875-17.562-3.875v-2c-0.361-0.062-0.361-0.062-2.188-0.371-3.66-0.819-6.888-2.286-10.312-3.79-2.5-0.839-2.5-0.839-7.5-0.839v-2c-0.413-0.042-0.413-0.042-2.5-0.25-3.5-0.75-3.5-0.75-7.125-2.688-5.761-2.716-11.969-4.062-18.375-4.062l-3-3c-2.59-0.993-5.223-1.877-7.875-2.688-1.4-0.437-2.8-0.874-4.243-1.324-3.882-0.988-3.882-0.988-8.882-0.988v-2c-0.825-0.268-1.65-0.537-2.5-0.813-2.529-0.858-5.027-1.807-7.5-2.812-3.688-1.268-6.159-1.663-10-1.375v-2l-4 1v-2c-7.057-3.529-15.211-5.279-23-6v-2c-7.967-2.726-15.572-5.22-24-6v-2c-1.656-0.694-3.325-1.356-5-2-10.112-6.604-18.723-15.134-24-26-0.743-1.341-1.485-2.682-2.25-4.063-3.161-7.112-2.896-14.548-2.879-22.22-2e-3 -1.015-4e-3 -2.029-5e-3 -3.074-5e-3 -3.403-3e-3 -6.806 0-10.209-2e-3 -2.463-4e-3 -4.926-7e-3 -7.389-6e-3 -6.772-6e-3 -13.543-5e-3 -20.314 0-7.302-5e-3 -14.603-0.01-21.904-8e-3 -14.305-0.011-28.61-0.012-42.915 0-11.625-2e-3 -23.249-5e-3 -34.874l-3e-3 -10.038c0-0.832 0-1.663-1e-3 -2.52-6e-3 -23.396-0.01-46.792-9e-3 -70.189v-2.672-13.412-2.69-5.386c1e-3 -27.942-7e-3 -55.884-0.02-83.826-0.016-31.39-0.024-62.781-0.023-94.171 0-16.622-3e-3 -33.244-0.014-49.865-9e-3 -14.149-0.011-28.298-4e-3 -42.447 3e-3 -7.222 3e-3 -14.443-5e-3 -21.664-8e-3 -6.608-7e-3 -13.216 2e-3 -19.824 1e-3 -2.393 0-4.786-6e-3 -7.179-7e-3 -3.249-2e-3 -6.498 7e-3 -9.747-5e-3 -0.932-0.01-1.863-0.015-2.824 0.063-11.653 3.083-19.442 10.264-28.584 3.5-3.375 3.5-3.375 7-6 0.307-0.267 0.307-0.267 1.863-1.618 4.98-4.171 9.681-5.661 16.137-6.382 0.787-0.093 1.574-0.186 2.385-0.282 10.321-1.004 20.664-0.858 31.021-0.847zm-44.406 26.129c-2.451 3.161-4.265 6.406-6 10-0.676 1.167-1.352 2.334-2.049 3.537-2.193 5.015-2.512 9.157-2.46 14.521-7e-3 0.99-0.013 1.981-0.02 3.001-0.016 3.321-5e-3 6.641 7e-3 9.962-6e-3 2.403-0.014 4.807-0.023 7.211-0.021 6.608-0.016 13.216-8e-3 19.823 5e-3 7.126-0.013 14.252-0.028 21.377-0.025 13.961-0.029 27.922-0.024 41.882 3e-3 11.346 0 22.692-9e-3 34.038-1e-3 1.614-2e-3 3.228-3e-3 4.891-3e-3 3.278-5e-3 6.556-8e-3 9.834-0.015 22.017-0.023 44.034-0.015 66.051 0 0.861 1e-3 1.722 1e-3 2.609 2e-3 4.364 3e-3 8.728 5e-3 13.092 0 0.866 1e-3 1.733 1e-3 2.626 1e-3 1.753 2e-3 3.505 2e-3 5.258 0.011 27.271-5e-3 54.541-0.042 81.812-0.041 30.639-0.063 61.279-0.055 91.919 4e-3 16.223-1e-3 32.445-0.029 48.668-0.024 13.811-0.027 27.621-3e-3 41.432 0.012 7.048 0.014 14.095-0.01 21.142-0.021 6.452-0.015 12.903 0.013 19.355 5e-3 2.333 0 4.667-0.016 7.001-0.136 21.49-0.136 21.49 6.773 30.958 0.666 2 1.333 4 2 6 7.214 10.2 18.489 19.589 30.773 22.703 5.474 0.673 5.474 0.673 8.227-0.703v2c2.311 1.094 4.677 2.074 7.062 3 1.311 0.515 2.622 1.031 3.973 1.562 5.572 2.02 10.001 3.438 15.965 3.438 2.105 1.277 2.105 1.277 4.187 2.937 4.095 2.909 6.97 3.399 12.035 3.602 3.588 0.595 6.204 2.052 9.403 3.773 6.304 3.353 12.256 5.1 19.203 6.641 5.967 1.497 11.613 3.721 17.332 5.972 4.108 1.15 6.713 0.992 10.84 0.075l1 2 2-1 2 4c3 2 3 2 7.312 2.187 4.787 0.374 8.095 1.86 12.313 4.125 6.377 3.4 12.446 5.144 19.472 6.715 3.803 0.948 7.274 2.188 10.903 3.66 5.66 2.283 10.982 4.318 17 2.313l1 2 2-1 2 4c3.968 2.645 7.293 2.668 12 3l2-1v2c5.499 3.204 11.022 5.802 17.375 6.437 6.041 0.735 10.604 3.26 16.039 5.906 7.169 3.312 13.762 3.905 21.586 3.657l1 3c3.231 2.71 5.168 3.009 9.437 3.25 4.764 0.331 8.048 1.823 12.25 4.062 6.114 3.256 11.922 5.104 18.637 6.715 3.665 0.97 7.044 2.227 10.551 3.66 5.178 2.075 9.548 3.13 15.125 3.313l2-1v2c4.642 3.021 7.646 4.878 13.187 5.375 4.785 0.621 7.193 1.694 11.375 3.937 6.398 3.386 12.497 5.141 19.535 6.715 4.899 1.221 9.416 3.054 14.082 4.957 2.821 1.016 2.821 1.016 6.946 1.453 3.912 0.568 5.717 1.469 9.062 3.438 5.124 2.983 9.841 4.197 15.621 5.343 3.197 0.783 5.811 1.887 8.754 3.344 5.592 2.722 11.231 4.019 17.438 4.438l2-1v2c6.684 3.833 13.889 6.179 21.48 7.398 2.52 0.602 2.52 0.602 6.457 2.977 4.989 2.905 9.948 3.751 15.574 4.808 4.286 1.003 7.877 2.741 11.809 4.672 4.482 1.915 8.854 2.534 13.68 3.145l2-1v2c5.531 3.012 11.331 5.064 17.562 5.937 4.16 0.622 7.019 1.779 10.625 3.938 5.784 3.424 11.637 4.716 18.152 6.187 4.241 1.086 7.756 2.985 11.661 4.938 1.887 0.34 3.785 0.627 5.687 0.875 6.037 0.833 10.823 2.994 16.207 5.785 3.413 1.472 6.428 1.905 10.106 2.34 3.978 1.265 7.905 2.575 11.796 4.086 14.639 5.238 29.136 4.339 43.204-2.086v-2c0.907 0.185 1.815 0.371 2.75 0.562 4.539 0.611 8.005-0.796 12.187-2.375 7.176-2.64 14.468-4.896 21.828-6.965 3.926-1.114 7.425-2.322 11.047-4.222 4.671-2.231 9.065-3.157 14.102-4.223 3.086-0.777 3.086-0.777 6.961-2.715 4.954-2.477 9.868-3.636 15.222-4.984 4.853-1.341 9.446-3.116 14.098-5.028 2.623-0.982 5.062-1.525 7.805-2.05 1.803-0.591 3.595-1.217 5.375-1.875 0.969-0.357 1.938-0.715 2.937-1.082 2.051-0.796 4.066-1.682 6.063-2.606 3.4-1.348 6.49-2.078 10.062-2.812 4.169-0.897 7.358-1.831 10.875-4.25 3.688-2.375 3.688-2.375 7.344-2.813 4.85-0.628 9.024-2.143 13.531-3.937 5.571-2.152 10.934-4.026 16.813-5.188 5.514-1.111 9.576-3.311 14.382-6.16 2.745-1.339 4.653-1.684 7.68-1.84 4.439-0.393 5.954-0.738 9.625-2.75 5.296-2.897 10.677-4.204 16.512-5.652 3.608-0.983 6.962-2.195 10.426-3.598 4.319-1.747 8.432-2.959 13-3.875 5.655-1.179 9.873-3.35 14.808-6.281 3.724-1.859 7.461-1.914 11.567-2.281 3.375-2 3.375-2 6-4 0.99-0.33 1.98-0.66 3-1v-2c0.886 0.185 1.773 0.371 2.687 0.562 6.342 0.838 11.509-1.716 17.313-4.062 9.426-3.811 9.426-3.811 14-4.5 4.648-0.915 7.736-1.822 11.687-4.5 4.156-2.409 6.195-2.947 10.813-3.5 6.094-0.738 9.674-2.215 14.5-6v-2c0.969 0.185 1.938 0.371 2.937 0.562 1.011 0.145 2.021 0.289 3.063 0.438l1-1c0.596-0.064 0.596-0.064 3.613-0.383 4.354-0.613 7.566-1.735 11.574-3.492 4.909-2.059 9.533-3.638 14.75-4.688 4.258-0.87 6.337-1.611 10.125-4 4.524-2.8 7.966-3.221 13.148-3.91 3.635-0.687 6.037-2.081 8.79-4.527v-2c0.99 0.33 1.98 0.66 3 1v-2l5 1v-2c0.801 0.232 1.603 0.464 2.429 0.703 4.766 0.396 8.37-1.186 12.696-2.953 5.483-2.149 10.79-4.122 16.562-5.375 3.95-0.879 5.714-1.637 9.25-3.938 4.756-2.853 8.435-3.187 13.852-3.844 4.858-0.898 8.137-2.832 12.211-5.593v-2l4 1v-2c0.978 0.232 1.956 0.464 2.964 0.703 5.059 0.372 7.961-0.943 12.598-2.953 5.645-2.374 11.08-4.275 17.125-5.375 4.356-0.803 6.194-1.29 9.875-3.938 4.378-3.104 7.954-3.214 13.191-3.844 4.881-0.892 8.157-2.821 12.247-5.593v-2l4 1v-2c0.801 0.232 1.603 0.464 2.429 0.703 4.765 0.396 8.37-1.186 12.696-2.953 5.366-2.106 10.517-4.048 16.187-5.188 14.8-3.404 24.946-13.258 33.34-25.265 1.348-2.297 1.348-2.297 2.348-6.297 0.315-0.797 0.63-1.594 0.955-2.416 4.128-11.043 3.598-22.286 3.546-33.885 4e-3 -2.373 9e-3 -4.746 0.016-7.12 0.015-6.499 5e-3 -12.999-9e-3 -19.499-0.011-7.017 1e-3 -14.035 0.01-21.053 0.014-13.738 6e-3 -27.475-9e-3 -41.213-0.017-15.996-0.014-31.992-0.01-47.988 6e-3 -29.397-0.01-58.795-0.035-88.193-0.023-26.835-0.029-53.67-0.018-80.505 2e-3 -6.874 5e-3 -13.749 7e-3 -20.624 0-0.846 1e-3 -1.693 1e-3 -2.565 8e-3 -22.43 1e-3 -44.86-0.01-67.29-1e-3 -3.215-3e-3 -6.43-4e-3 -9.644-1e-3 -1.582-2e-3 -3.163-2e-3 -4.793-5e-3 -11.154-3e-3 -22.308 1e-3 -33.461 5e-3 -13.586-1e-3 -27.172-0.021-40.758-0.01-6.934-0.015-13.868-7e-3 -20.801 7e-3 -6.344 0-12.688-0.018-19.031-4e-3 -2.298-3e-3 -4.596 4e-3 -6.894 8e-3 -3.119-2e-3 -6.236-0.017-9.355 7e-3 -0.896 0.013-1.792 0.02-2.716-0.052-5.673-1.154-10.008-3.4-15.196-0.578-1.485-1.155-2.97-1.75-4.5-4.235-9.231-11.39-14.819-20.25-19.5-4.428-1.107-8.167-1.126-12.735-1.127-0.897-1e-3 -1.795-3e-3 -2.719-4e-3 -3.034-4e-3 -6.069-1e-3 -9.103 2e-3 -2.196-1e-3 -4.392-3e-3 -6.587-5e-3 -6.078-5e-3 -12.156-4e-3 -18.234-1e-3 -6.596 2e-3 -13.191-3e-3 -19.787-6e-3 -11.574-5e-3 -23.149-7e-3 -34.723-5e-3 -17.211 1e-3 -34.422-3e-3 -51.633-8e-3 -32.523-0.01-65.046-0.013-97.568-0.013-3.589 0-7.178-1e-3 -10.767-1e-3h-2.699c-19.721 0-39.443-2e-3 -59.164-5e-3 -8.117-1e-3 -16.233-2e-3 -24.35-3e-3h-2.717c-51.4-6e-3 -102.8-0.011-154.2-0.01h-5.773-26.064-11.624-5.817c-61.33 1e-3 -122.66-6e-3 -183.99-0.02-15.452-4e-3 -30.905-7e-3 -46.358-0.01-0.952-1e-3 -1.903-1e-3 -2.883-1e-3 -29.314-6e-3 -58.628-0.01-87.942-0.011h-2.788c-20.195-1e-3 -40.39-2e-3 -60.585-1e-3h-21.678-5.393c-28.669 0-57.338-6e-3 -86.008-0.014-29.67-9e-3 -59.339-0.011-89.009-4e-3 -17.118 4e-3 -34.235 2e-3 -51.353-8e-3 -11.418-6e-3 -22.837-5e-3 -34.256 3e-3 -6.516 4e-3 -13.032 4e-3 -19.548-4e-3 -5.921-7e-3 -11.841-5e-3 -17.762 4e-3 -2.136 2e-3 -4.271 0-6.406-5e-3 -2.889-7e-3 -5.778-2e-3 -8.667 7e-3h-4.857c-9.805 0.576-16.136 4.745-23.253 11.25z" fill="#940000"/>
<path transform="translate(855.64 288.73)" d="m0 0c1.569-0.01 3.138-0.019 4.755-0.029 1.715 0 3.43 1e-3 5.145 3e-3 1.764-4e-3 3.528-8e-3 5.292-0.013 3.7-8e-3 7.401-7e-3 11.101-2e-3 4.721 6e-3 9.441-0.011 14.162-0.034 3.646-0.015 7.292-0.016 10.938-0.013 1.739 0 3.478-6e-3 5.217-0.016 9.166-0.046 17.141 0.097 25.751 3.379 1.072 0.364 2.145 0.729 3.25 1.105 15.936 6.271 24.246 16.96 31.269 32.149 5.402 13.668 4.643 28.233 4.649 42.683 3e-3 1.931 6e-3 3.862 0.01 5.793 6e-3 4.031 8e-3 8.062 7e-3 12.093 0 5.141 0.014 10.281 0.031 15.422 0.011 3.982 0.013 7.965 0.013 11.947 1e-3 1.895 5e-3 3.789 0.013 5.684 0.064 17.124-1.541 30.565-11.242 45.124-2.573 2.362-5.202 4.308-8.051 6.316-1.949 1.684-1.949 1.684-3.199 5.684 1.63 5.217 4.181 6.555 8.504 9.675 7.954 6.732 12.918 17.595 14.021 27.89 0.101 2.702 0.116 5.39 0.094 8.094 2e-3 0.507 2e-3 0.507 0.011 3.074 7e-3 2.186 6e-3 4.372 0 6.557-9e-3 3.47 1e-3 6.94 0.017 10.41 0.04 9.86 0.041 19.72 0.039 29.58 0 6.048 0.019 12.096 0.049 18.144 0.011 3.4-1e-3 6.799-0.014 10.198 0.018 10.78 0.346 20.265 4.529 30.378 4.893 13.321 4.893 13.321 3 19-1.891 2.318-3.338 3.669-6 5-4.16 0.326-8.329 0.324-12.5 0.375-1.147 0.037-2.295 0.074-3.477 0.113-9.214 0.094-16.014-1.746-22.836-8.113-2.965-4.575-5.118-9.341-7.187-14.375-0.413-0.99-0.825-1.98-1.25-3-1.995-7.981-1.899-16.424-1.908-24.609-5e-3 -0.997-0.01-1.993-0.015-3.02-0.011-2.142-0.02-4.284-0.026-6.426-0.012-3.393-0.032-6.785-0.054-10.177-0.061-9.638-0.115-19.276-0.149-28.914-0.02-5.913-0.056-11.826-0.1-17.739-0.014-2.247-0.023-4.495-0.026-6.742-5e-3 -3.137-0.028-6.274-0.056-9.412 3e-3 -0.924 6e-3 -1.848 9e-3 -2.8-0.094-7.313-2.019-12.109-6.878-17.489-4.198-4.029-7.518-4.615-13.231-4.571-1.012 0.049-2.024 0.098-3.066 0.149-1.028 2e-3 -2.055 5e-3 -3.113 7e-3 -7.413 0.174-7.413 0.174-10.261 2.409-2.38 2.96-2.364 4.481-2.337 8.248-1e-3 1.21-2e-3 2.42-4e-3 3.666 0.02 1.324 0.039 2.649 0.058 4.013 5e-3 1.397 9e-3 2.794 0.013 4.234 0.012 3.037 0.033 6.074 0.063 9.111 0.046 4.803 0.068 9.606 0.084 14.409 0.036 9.33 0.098 18.659 0.166 27.989 0.09 12.677 0.162 25.354 0.21 38.031 0.023 4.738 0.065 9.476 0.108 14.214 0.014 2.898 0.028 5.797 0.04 8.696 0.017 1.322 0.034 2.644 0.052 4.007 1e-3 1.212 3e-3 2.425 5e-3 3.675 8e-3 1.052 0.016 2.104 0.024 3.188-0.416 3.313-1.392 5.176-3.358 7.853-6.118 3.538-13.986 2.327-20.813 2.312-0.718 8e-3 -0.718 8e-3 -4.353 0.049-13.986 6e-3 -13.986 6e-3 -19.834-3.361-1.962-3.721-2.251-6.868-2.255-11.034-5e-3 -1.218-0.011-2.437-0.017-3.692 3e-3 -1.335 7e-3 -2.671 0.011-4.047-4e-3 -1.421-8e-3 -2.842-0.011-4.306-0.011-4.78-7e-3 -9.559-3e-3 -14.339-3e-3 -3.42-9e-3 -6.839-0.015-10.259-0.013-8.334-0.015-16.669-0.013-25.004 2e-3 -6.773 1e-3 -13.546-4e-3 -20.319 0-0.964-1e-3 -1.927-2e-3 -2.92l-3e-3 -5.871c-0.011-18.36-9e-3 -36.719-3e-3 -55.079 5e-3 -16.802-6e-3 -33.604-0.025-50.406-0.019-17.247-0.028-34.493-0.024-51.74 2e-3 -9.685 0-19.37-0.014-29.055-0.012-8.244-0.014-16.488-2e-3 -24.733 6e-3 -4.207 6e-3 -8.414-5e-3 -12.622-0.01-4.558-2e-3 -9.116 0.011-13.675-8e-3 -1.333-0.015-2.666-0.023-4.04 7e-3 -1.221 0.015-2.442 0.022-3.7v-3.189c0.451-3.573 1.458-5.928 3.375-8.97 4.433-2.217 6.736-2.259 11.639-2.275zm34.361 50.275c-0.21 3.471-0.294 6.863-0.291 10.337-6e-3 1.075-0.013 2.15-0.02 3.257-0.019 3.569-0.023 7.138-0.025 10.706-7e-3 2.474-0.013 4.948-0.02 7.422-0.012 5.193-0.016 10.385-0.015 15.578 0 6.659-0.027 13.317-0.061 19.975-0.023 5.112-0.027 10.224-0.026 15.336-2e-3 2.455-0.011 4.91-0.026 7.364-0.02 3.434-0.014 6.866-2e-3 10.299-0.011 1.017-0.022 2.034-0.034 3.082 0.038 4.228 0.193 7.105 2.413 10.763 4.538 4.051 10.303 3.033 16.107 2.881 0.753-0.011 0.753-0.011 4.562-0.063 5.597-1.182 8.898-3.468 12.438-7.937 2.887-5.546 3.431-10.369 3.388-16.512 5e-3 -0.928 0.011-1.856 0.016-2.812 0.013-3.05 4e-3 -6.099-6e-3 -9.149 2e-3 -2.128 5e-3 -4.256 9e-3 -6.384 4e-3 -4.452-2e-3 -8.905-0.016-13.357-0.017-5.702-7e-3 -11.404 0.011-17.106 0.011-4.391 7e-3 -8.783-1e-3 -13.174-2e-3 -2.102 1e-3 -4.205 8e-3 -6.307 7e-3 -2.939-4e-3 -5.878-0.021-8.817 6e-3 -0.865 0.012-1.73 0.018-2.621-0.052-5.014-0.698-8.516-3.406-12.761-5.621-5.2-10.489-5.208-17.875-5.25-0.899-0.021-1.797-0.042-2.723-0.063-6.446-0.038-9.888 0.799-14.402 5.313z" fill="#E1AFAF"/>
<path transform="translate(1175.4 288.74)" d="m0 0c1.552-6e-3 3.105-0.013 4.704-0.019 1.701 3e-3 3.403 8e-3 5.104 0.012 1.745-1e-3 3.491-3e-3 5.236-6e-3 3.664-3e-3 7.327 2e-3 10.991 0.011 4.677 0.011 9.354 5e-3 14.031-7e-3 3.608-7e-3 7.216-5e-3 10.825 0 1.723 1e-3 3.446 0 5.169-5e-3 18.153-0.038 35.008 3.199 49.115 15.46 20.572 20.685 21.69 47.318 21.634 74.694 3e-3 2.252 6e-3 4.505 0.011 6.757 9e-3 6.068 5e-3 12.136-1e-3 18.204-5e-3 6.379 0 12.757 3e-3 19.136 3e-3 10.706-1e-3 21.413-0.011 32.119-0.011 12.344-7e-3 24.688 4e-3 37.032 9e-3 10.637 0.01 21.274 5e-3 31.91-3e-3 6.336-4e-3 12.672 3e-3 19.008 6e-3 5.959 2e-3 11.917-0.01 17.875-3e-3 2.175-2e-3 4.35 3e-3 6.526 0.047 25.736-2.145 47.94-19.453 68.302-12.078 11.201-27.244 16.204-43.467 16.503-1.522 0.029-3.044 0.059-4.611 0.09-0.818 0.013-0.818 0.013-4.953 0.079-0.419 7e-3 -0.419 7e-3 -2.535 0.042-4.423 0.073-8.845 0.14-13.268 0.203-4.559 0.066-9.119 0.151-13.678 0.24-3.516 0.065-7.031 0.116-10.547 0.164-2.496 0.038-4.992 0.09-7.488 0.142-1.522 0.017-3.044 0.034-4.611 0.051-0.669 0.011-0.669 0.011-4.05 0.065-3.973-0.363-6.307-1.092-9.605-3.329-1.925-3.744-2.251-6.859-2.254-11.034-6e-3 -1.218-0.012-2.436-0.018-3.692 4e-3 -1.335 8e-3 -2.671 0.012-4.047-4e-3 -1.421-8e-3 -2.842-0.012-4.306-0.01-4.78-6e-3 -9.559-2e-3 -14.339-4e-3 -3.419-0.01-6.839-0.016-10.259-0.013-8.334-0.014-16.669-0.012-25.003 2e-3 -6.774 0-13.547-4e-3 -20.32-1e-3 -0.964-1e-3 -1.927-2e-3 -2.92-1e-3 -1.957-3e-3 -3.914-4e-3 -5.871-0.011-18.36-8e-3 -36.719-2e-3 -55.079 5e-3 -16.802-6e-3 -33.604-0.025-50.406-0.02-17.247-0.028-34.493-0.024-51.74 2e-3 -9.685-1e-3 -19.369-0.015-29.054-0.012-8.245-0.013-16.489-1e-3 -24.734 6e-3 -4.207 5e-3 -8.414-5e-3 -12.622-0.011-4.558-3e-3 -9.116 0.01-13.675-7e-3 -1.333-0.015-2.666-0.022-4.04 7e-3 -1.221 0.014-2.442 0.022-3.7 0-1.052-1e-3 -2.104-1e-3 -3.188 0.448-3.546 1.526-5.926 3.375-8.971 3.802-2.535 5.898-2.254 10.45-2.259zm34.55 52.259c-0.483 3.676-0.676 6.88-0.635 10.552-7e-3 1.062-0.015 2.125-0.023 3.22-0.02 3.56-4e-3 7.12 0.011 10.681-6e-3 2.553-0.015 5.105-0.026 7.658-0.023 6.934-0.014 13.867 2e-3 20.801 0.012 7.252 1e-3 14.505-7e-3 21.757-9e-3 12.179 3e-3 24.358 0.026 36.538 0.028 14.086 0.019 28.172-9e-3 42.258-0.022 12.089-0.026 24.177-0.013 36.266 8e-3 7.222 9e-3 14.444-7e-3 21.667-0.015 6.79-5e-3 13.579 0.024 20.369 7e-3 2.493 5e-3 4.987-6e-3 7.481-0.014 3.4 3e-3 6.799 0.028 10.2-0.011 0.99-0.022 1.98-0.033 3 0.066 4.623 0.475 7.257 3.037 11.162 4.508 4.094 9.115 3.3 14.944 3.202 1.103 0.032 2.205 0.063 3.342 0.096 5.367-0.022 9.45-0.333 13.763-3.709 10.579-11.665 10.448-24.025 10.359-38.959 8e-3 -2.299 0.018-4.599 0.032-6.898 0.027-6.217 0.016-12.433-3e-3 -18.65-0.015-6.52-1e-3 -13.04 9e-3 -19.559 0.01-10.946-4e-3 -21.891-0.032-32.837-0.033-12.639-0.023-25.278 0.01-37.917 0.028-10.87 0.032-21.74 0.016-32.61-9e-3 -6.484-0.011-12.968 9e-3 -19.452 0.017-6.096 5e-3 -12.192-0.029-18.288-8e-3 -2.232-6e-3 -4.464 7e-3 -6.696 0.074-13.695-0.701-23.263-9.921-33.958-5.334-4.407-11.704-3.694-18.312-3.813-1.037-0.045-2.074-0.091-3.143-0.138-1.003-0.015-2.007-0.03-3.041-0.045-0.912-0.025-1.824-0.05-2.763-0.076-4.105 1.094-5.307 3.184-7.616 6.697z" fill="#E1AFAF"/>
<path transform="translate(1426.2 288.57)" d="m0 0c2.672-0.012 5.341-0.061 8.012-0.112 1.702-9e-3 3.404-0.016 5.106-0.021 1.546-0.014 3.093-0.027 4.687-0.041 4.727 0.707 6.152 1.847 9.008 5.6 1.043 3.128 1.109 5.244 1.082 8.523-7e-3 1.149-0.014 2.297-0.021 3.481-0.013 1.26-0.026 2.521-0.039 3.82-0.01 1.327-0.019 2.654-0.029 4.021-0.033 4.4-0.074 8.799-0.114 13.198-0.024 3.044-0.048 6.089-0.072 9.134-0.063 8.024-0.132 16.049-0.202 24.073-0.071 8.184-0.135 16.368-0.201 24.552-0.129 16.066-0.264 32.132-0.404 48.198 2.676-0.242 5.346-0.581 8-1 1.341-2.334 1.341-2.334 1.828-5.372 0.102-0.545 0.102-0.545 0.615-3.308 0.184-1.096 0.368-2.191 0.557-3.32 0.435-1.829 0.887-3.654 1.359-5.473 0.225-0.906 0.451-1.811 0.682-2.744 2.764-11.101 5.599-22.181 8.489-33.25 1.586-6.082 3.121-12.172 4.595-18.283 1.232-4.995 2.698-9.825 4.375-14.688 2.315-6.726 3.967-13.492 5.535-20.426 1.427-6.116 3.177-12.118 4.965-18.136 0.33-1.194 0.66-2.388 1-3.618 0.33-1.157 0.66-2.315 1-3.507 0.289-1.034 0.577-2.068 0.875-3.133 1.516-3.696 3.548-5.954 7.125-7.742 5.262-0.238 10.527-0.229 15.794-0.241 2.63-9e-3 5.258-0.04 7.888-0.072 1.667-6e-3 3.334-0.012 5.002-0.016 1.521-9e-3 3.043-0.018 4.611-0.028 3.705 0.357 3.705 0.357 6.705 3.357 1.267 4.466 1.001 6.841-1.063 10.937-2.697 5.993-4.349 12.022-5.937 18.375-1.988 7.935-4.223 15.667-6.914 23.398-1.05 3.181-1.881 6.343-2.649 9.602-0.872 3.701-1.933 7.072-3.437 10.563-1.552 3.693-2.496 7.191-3.25 11.125-1.654 8.353-4.236 16.387-6.794 24.498-1.889 5.994-3.67 11.994-5.295 18.066-0.854 3.148-1.809 6.261-2.786 9.373-4.747 15.143-2.458 27.793 1.312 43 0.419 1.739 0.836 3.478 1.251 5.217 0.815 3.411 1.635 6.82 2.459 10.229 1.389 5.814 2.675 11.645 3.915 17.492 1.374 6.438 2.827 12.85 4.375 19.25 1.175 4.889 2.135 9.705 2.813 14.687 0.587 4.205 1.501 7.943 2.937 11.938 2.166 6.063 3.196 12.133 4.157 18.488 0.763 4.013 1.706 7.842 2.781 11.777 2.2 8.08 3.942 16.221 5.625 24.422 2.248 10.927 4.725 21.757 7.5 32.563 1.005 4.018 1.433 6.888 1 11-2.711 3.586-4.188 4.863-8.669 5.615-1.396-7e-3 -2.792-0.014-4.229-0.022-1.532-2e-3 -3.063-5e-3 -4.641-8e-3 -1.596-0.028-3.192-0.056-4.836-0.085-1.588 2e-3 -3.176 5e-3 -4.813 7e-3 -13.321-0.112-13.321-0.112-19.812-3.507-3.816-5.137-4.079-11.696-4.938-17.875-1.287-8.685-2.918-17.083-5.195-25.571-0.864-3.541-1.408-7.003-1.867-10.617-0.62-4.863-1.599-9.408-2.938-14.125-2.072-7.377-3.229-14.767-4.351-22.34-0.576-3.621-1.268-7.106-2.149-10.66-1.856-7.535-3-15.192-4.204-22.852-1.256-7.858-1.256-7.858-2.358-8.96-2.333-0.041-4.667-0.043-7 0-0.242 1.004-0.485 2.008-0.734 3.043-1.877 7.656-3.868 15.211-6.336 22.699-2.18 7.637-3.178 14.648-3.125 22.591 1e-3 0.436 1e-3 0.436 9e-3 2.645 7e-3 1.875 0.019 3.75 0.036 5.624 0.025 2.968 0.038 5.935 0.048 8.903 0.023 6.29 0.061 12.58 0.102 18.87 0.047 7.312 0.088 14.625 0.112 21.938 0.013 2.923 0.038 5.845 0.063 8.768 8e-3 1.787 0.014 3.574 0.02 5.361 6e-3 0.78 6e-3 0.78 0.032 4.727-0.227 3.831-0.227 3.831-2.227 7.831-7.565 4.145-15.16 3.477-23.563 3.437-1.492 0.02-2.984 0.04-4.521 0.061-1.438-1e-3 -2.876-2e-3 -4.357-2e-3 -0.654 1e-3 -0.654 1e-3 -3.96 5e-3 -4.222-0.588-6.347-1.781-9.599-4.501-2.013-4.026-2.251-5.568-2.254-9.911-6e-3 -1.216-0.012-2.433-0.018-3.686 4e-3 -1.338 7e-3 -2.677 0.011-4.056-4e-3 -1.42-7e-3 -2.84-0.011-4.303-0.011-4.783-7e-3 -9.566-3e-3 -14.349-3e-3 -3.419-9e-3 -6.838-0.015-10.258-0.013-8.338-0.015-16.676-0.012-25.014 1e-3 -6.776 0-13.553-5e-3 -20.329 0-0.481 0-0.481-1e-3 -2.92-2e-3 -1.957-3e-3 -3.914-4e-3 -5.871-0.011-18.367-9e-3 -36.733-3e-3 -55.099 6e-3 -16.809-6e-3 -33.618-0.025-50.426-0.019-17.251-0.027-34.502-0.024-51.753 2e-3 -9.689 0-19.377-0.014-29.065-0.012-8.248-0.014-16.496-2e-3 -24.745 6e-3 -4.209 6e-3 -8.418-5e-3 -12.627-0.01-4.561-2e-3 -9.122 0.011-13.682-8e-3 -1.334-0.015-2.668-0.023-4.042 8e-3 -1.222 0.015-2.444 0.022-3.703v-3.189c0.447-3.547 1.525-5.926 3.375-8.972 5.463-3.642 12.757-2.412 19.187-2.426z" fill="#E1AFAF"/>
<path transform="translate(1637.4 288.8)" d="m0 0c0.47-3e-3 0.47-3e-3 2.848-0.017 1.991-0.01 3.983-0.016 5.974-0.02 3.042-0.01 6.083-0.041 9.125-0.072 1.935-7e-3 3.869-0.012 5.803-0.016 0.908-0.012 1.817-0.025 2.753-0.037 8.685 0.03 8.685 0.03 12.071 3.365 2.665 6.241 3.633 12.342 4.281 19.082 0.1 0.936 0.2 1.871 0.302 2.835 0.316 2.964 0.618 5.93 0.917 8.896 2.239 22.055 2.239 22.055 4.831 31.299 1.433 6.184 1.643 12.573 2.107 18.888 0.886 10.888 2.223 21.227 4.593 31.887 1.556 7.55 2.095 15.244 2.825 22.907 1.143 11.79 2.877 23.454 4.68 35.157 1.756 11.532 3.231 23.102 4.656 34.678 0.107 0.867 0.214 1.734 0.324 2.627 0.537 4.352 1.07 8.704 1.595 13.057 0.996 8.119 2.104 16.187 3.487 24.25 1.101 6.416 1.884 12.695 2.34 19.187 0.584 7.402 1.568 14.591 3 21.875 1.897 9.674 3.002 19.342 3.983 29.147 2.472 24.407 2.472 24.407 5.079 32.228 0.375 3.375 0.375 3.375 0 7-2.173 2.63-3.947 4.473-7 6-5.724 0.277-11.457 0.232-17.187 0.25-1.602 0.021-3.204 0.041-4.854 0.063-1.547 5e-3 -3.095 0.01-4.689 0.015-1.417 0.01-2.834 0.019-4.294 0.029-4.297-0.386-7.212-1.262-10.976-3.357-2.819-5.639-3.127-10.829-3.465-17.066-0.038-0.682-0.038-0.682-0.232-4.133-0.079-1.44-0.158-2.88-0.24-4.363-1.282-21.62-1.282-21.62-1.938-29.813-0.06-0.808-0.06-0.808-0.367-4.898-0.758-3.727-0.758-3.727-4.758-6.727-5.642-0.675-11.321-0.509-17-0.5-1.57-0.028-3.14-0.057-4.758-0.086-1.503-2e-3 -3.006-5e-3 -4.554-8e-3 -1.378-7e-3 -2.756-0.014-4.176-0.021-3.512 0.615-3.512 0.615-5.918 2.596-2.12 4.016-2.408 7.39-2.789 11.914-0.078 0.865-0.157 1.73-0.238 2.621-0.247 2.764-0.47 5.53-0.692 8.297-0.156 1.817-0.313 3.634-0.472 5.451-0.078 0.891-0.157 1.782-0.237 2.7-0.383 4.346-0.77 8.691-1.166 13.036-0.139 1.545-0.278 3.09-0.421 4.681-0.147 1.409-0.294 2.817-0.446 4.268-0.122 1.225-0.245 2.449-0.371 3.71-0.895 3.927-2.184 6.254-4.762 9.341-5.901 3.45-13.39 2.328-20 2.313-1.366 0.016-2.733 0.032-4.14 0.048-1.315 1e-3 -2.63 2e-3 -3.985 2e-3 -1.199 3e-3 -2.397 6e-3 -3.633 9e-3 -3.535-0.406-5.416-1.249-8.242-3.372-3.476-6.952-0.174-18.188 0.875-25.5 0.174-1.267 0.348-2.534 0.528-3.84 0.714-5.088 1.459-10.075 2.64-15.078 1.691-8.093 2.077-16.359 2.725-24.592 0.619-7.24 1.613-13.951 3.525-20.953 1.379-5.924 1.712-11.987 2.207-18.037 0.931-10.452 2.091-20.758 3.75-31.121 0.863-5.615 1.567-11.24 2.25-16.879 0.889-7.313 1.868-14.595 3-21.875 1.367-8.835 2.41-17.686 3.322-26.579 0.616-5.704 1.489-11.249 2.678-16.862 1.874-9.029 2.581-18.076 3.317-27.254 0.528-6.074 1.187-11.905 2.656-17.828 1.93-7.786 2.665-15.633 3.465-23.602 1.578-14.954 3.426-29.845 5.594-44.725 0.335-2.342 0.653-4.686 0.959-7.032 0.166-1.242 0.331-2.483 0.501-3.762 0.146-1.126 0.291-2.251 0.441-3.41 0.796-4.311 2.243-7.367 4.567-11.071 3.499-1.749 7.573-1.185 11.426-1.203zm9.574 127.2c-5.047 18.027-6.241 35.974-7.046 54.586-0.495 11.125-1.54 21.587-4.067 32.418-1.328 5.986-1.704 11.882-1.887 17.996-0.063 1.202-0.126 2.403-0.191 3.641-0.04 1.17-0.08 2.341-0.121 3.547-0.038 1.045-0.075 2.09-0.114 3.168 0.426 2.644 0.426 2.644 4.426 5.644 3.574 0.294 6.932 0.419 10.5 0.375 0.95 0.012 1.9 0.023 2.879 0.035 5.258-0.022 7.298-0.168 11.621-3.41 0.439-3.213 0.439-3.213 0.336-7.156-0.036-1.437-0.073-2.875-0.11-4.356-0.353-7.017-0.915-13.996-1.601-20.988-0.063-0.684-0.063-0.684-0.383-4.144-0.622-6.591-1.34-13.146-2.246-19.704-1.512-11.807-1.943-23.709-2.558-35.589-0.187-3.592-0.376-7.183-0.571-10.774-0.12-2.219-0.236-4.438-0.347-6.658-0.407-7.518-0.407-7.518-1.52-8.631-2.333-0.041-4.667-0.042-7 0z" fill="#E1AFAF"/>
<path transform="translate(1770.8 288.38)" d="m0 0c1.589-9e-3 3.178-0.019 4.815-0.028 1.732 0.015 3.464 0.032 5.196 0.049 1.785 2e-3 3.57 2e-3 5.355 0 3.742 2e-3 7.483 0.021 11.224 0.052 4.774 0.04 9.546 0.044 14.32 0.037 3.688-3e-3 7.376 9e-3 11.065 0.026 1.758 7e-3 3.517 0.01 5.275 9e-3 17.193 0.013 33.801 3.422 46.906 15.595 12.62 14.044 17.125 30.976 17.177 49.422 6e-3 1.038 0.013 2.077 0.019 3.147 0.02 3.424 0.032 6.847 0.042 10.271 4e-3 1.176 8e-3 2.352 0.012 3.564 0.021 6.23 0.035 12.46 0.045 18.69 0.011 6.398 0.045 12.796 0.085 19.194 0.026 4.952 0.034 9.903 0.038 14.854 5e-3 2.356 0.016 4.713 0.035 7.069 0.098 13.224-0.342 24.978-4.453 37.664-0.413 1.403-0.825 2.805-1.25 4.25-6.745 14.453-17.68 25.106-32.75 30.75-11.181 2.321-22.473 2.382-33.844 2.567-1.284 0.029-2.568 0.059-3.891 0.089-1.157 0.019-2.314 0.038-3.507 0.057-2.758 0.287-2.758 0.287-4.758 2.287-0.238 2.335-0.238 2.335-0.221 5.319 2e-3 1.128 3e-3 2.257 5e-3 3.42 0.012 1.244 0.024 2.488 0.036 3.77 2e-3 0.653 2e-3 0.653 0.014 3.957 0.011 2.844 0.026 5.689 0.046 8.533 0.03 4.501 0.047 9.002 0.06 13.503 0.04 12.801 0.105 25.601 0.176 38.402 0.043 7.822 0.071 15.643 0.09 23.465 0.011 2.984 0.027 5.967 0.05 8.951 0.031 4.175 0.044 8.35 0.052 12.525 0.014 1.234 0.028 2.468 0.043 3.739-7e-3 6.113-0.108 11.02-3.351 16.416-7.318 4.36-15.31 3.477-23.563 3.438-1.492 0.02-2.984 0.04-4.521 0.06-1.438 0-2.876-1e-3 -4.358-2e-3 -0.653 1e-3 -0.653 1e-3 -3.959 6e-3 -4.375-0.61-6.395-1.443-9.599-4.502-2.349-7.696-2.275-15.188-2.237-23.184-1e-3 -1.417-2e-3 -2.834-3e-3 -4.294-1e-3 -4.742 0.012-9.484 0.025-14.226 3e-3 -3.402 4e-3 -6.804 4e-3 -10.206 4e-3 -9.235 0.023-18.47 0.045-27.705 0.014-5.766 0.024-11.533 0.033-17.299 0.027-15.968 0.057-31.936 0.1-47.904 3e-3 -1.021 6e-3 -2.042 9e-3 -3.093 5e-3 -2.07 0.011-4.139 0.017-6.208 3e-3 -1.027 5e-3 -2.054 8e-3 -3.112 2e-3 -0.514 2e-3 -0.514 9e-3 -3.116 0.045-16.687 0.066-33.373 0.077-50.059 0.012-17.135 0.042-34.269 0.092-51.404 0.027-9.619 0.046-19.239 0.046-28.858-1e-3 -8.185 0.015-16.37 0.054-24.555 0.019-4.177 0.028-8.353 0.02-12.53-7e-3 -4.524 0.017-9.047 0.048-13.571-9e-3 -1.325-0.019-2.651-0.028-4.016 0.107-8.838 0.107-8.838 2.996-12.976 3.656-2.293 6.224-2.305 10.529-2.299zm36.156 49.615c-0.514 3.88-0.711 7.323-0.692 11.207-0.013 1.143-0.027 2.287-0.041 3.465-0.039 3.785-0.043 7.57-0.045 11.356-0.018 2.627-0.038 5.255-0.06 7.883-0.041 5.511-0.065 11.021-0.077 16.531-0.015 7.067-0.061 14.133-0.118 21.199-0.042 5.428-0.073 10.855-0.1 16.283-0.013 2.606-0.029 5.211-0.047 7.817-0.022 3.641-0.031 7.282-0.035 10.923-9e-3 1.079-0.017 2.158-0.026 3.27 1e-3 0.994 3e-3 1.988 4e-3 3.012-2e-3 0.861-5e-3 1.721-8e-3 2.607 0.392 3.926 1.453 6.655 4.245 9.447 4.291 1.073 7.955 1.168 12.375 1.188 1.472 0.014 2.944 0.028 4.46 0.043 5.49-0.304 8.847-0.974 12.852-4.793 4.763-7.08 5.759-13.946 5.701-22.329 5e-3 -0.944 0.01-1.888 0.016-2.861 0.013-3.095 4e-3 -6.189-6e-3 -9.283 2e-3 -2.165 5e-3 -4.33 9e-3 -6.495 4e-3 -4.527-2e-3 -9.053-0.016-13.579-0.017-5.789-8e-3 -11.578 0.01-17.367 0.011-4.467 8e-3 -8.934 0-13.401-2e-3 -2.135 0-4.269 7e-3 -6.403 8e-3 -2.986-4e-3 -5.972-0.02-8.958 6e-3 -0.874 0.012-1.747 0.018-2.647-0.07-6.81-1.589-12.231-5.219-17.99-5.028-4.884-11.609-4.49-18.25-4.5-0.885-0.024-1.77-0.049-2.682-0.074-5.501-0.025-8.658 0.182-12.255 4.449z" fill="#E1AFAF"/>
<path transform="translate(1029 288.81)" d="m0 0c0.518-4e-3 0.518-4e-3 3.139-0.025 3.439-0.025 6.878-0.041 10.317-0.056 0.586-2e-3 0.586-2e-3 3.553-0.016 6.204-0.026 12.408-0.046 18.613-0.06 6.416-0.017 12.832-0.062 19.248-0.113 4.927-0.033 9.853-0.045 14.78-0.05 2.366-7e-3 4.731-0.022 7.097-0.046 3.308-0.032 6.616-0.032 9.925-0.025 0.979-0.016 1.959-0.032 2.968-0.049 4.439 0.04 6.904 0.263 10.487 2.99 4.735 6.576 2.969 15.98 2.778 23.705-0.01 1.362-0.021 2.724-0.031 4.127-0.034 1.311-0.067 2.621-0.102 3.971-0.022 1.192-0.044 2.385-0.067 3.614-0.675 3.226-0.675 3.226-2.361 6.114-5.364 3.419-10.849 2.797-17.076 2.749-0.671 5e-3 -0.671 5e-3 -4.067 0.031-4.286 0.03-8.572 0.026-12.858 0.019-4.298 9e-3 -8.594 0.025-12.891 0.052-2.675 0.015-5.349 0.019-8.023 0.01-0.603 2e-3 -0.603 2e-3 -3.652 0.011-1.064-1e-3 -2.128-3e-3 -3.224-5e-3 -2.523 0.245-2.523 0.245-4.523 2.245-0.204 3.209-0.283 6.332-0.275 9.543-5e-3 0.99-0.01 1.98-0.015 3.001-0.014 3.286-0.013 6.572-0.011 9.858-4e-3 2.277-8e-3 4.554-0.013 6.831-7e-3 4.777-7e-3 9.555-2e-3 14.332 6e-3 6.132-0.011 12.263-0.034 18.395-0.015 4.703-0.016 9.407-0.012 14.111-1e-3 2.261-6e-3 4.522-0.016 6.783-0.013 3.158-6e-3 6.316 6e-3 9.474-8e-3 0.94-0.016 1.879-0.023 2.848 0.052 6.481 0.052 6.481 3.395 9.824 3.642 0.293 3.642 0.293 8.176 0.187 1.632-0.023 3.265-0.046 4.947-0.07 2.594-0.056 5.187-0.117 7.781-0.179 2.507-0.054 5.014-0.09 7.522-0.126 1.499-0.034 2.999-0.069 4.544-0.105 4.183 0.304 6.532 1.029 10.03 3.293 2.45 3.675 2.258 5.517 2.266 9.898 1e-3 0.684 1e-3 0.684 7e-3 4.141-7e-3 1.431-0.015 2.862-0.023 4.336 4e-3 0.711 4e-3 0.711 0.023 4.312-2e-3 1.369-5e-3 2.738-7e-3 4.149-3e-3 1.253-5e-3 2.507-7e-3 3.798-0.431 5.606-0.431 5.606-2.259 8.366-5.627 2.82-10.354 3.344-16.586 3.223-1.589-0.019-3.179-0.038-4.816-0.057-1.641-0.034-3.282-0.068-4.973-0.104-3.279-0.063-6.557-0.111-9.836-0.152-1.447-0.03-2.894-0.059-4.384-0.09-3.405 0.18-3.405 0.18-5.405 2.18-0.205 3.543-0.283 7.008-0.275 10.552-5e-3 1.098-0.01 2.196-0.015 3.327-0.014 3.643-0.013 7.286-0.011 10.929-4e-3 2.524-8e-3 5.047-0.013 7.571-7e-3 5.295-7e-3 10.59-2e-3 15.886 6e-3 6.797-0.011 13.595-0.034 20.392-0.015 5.213-0.016 10.426-0.012 15.64-1e-3 2.506-6e-3 5.013-0.016 7.52-0.013 3.5-6e-3 7 6e-3 10.501-8e-3 1.043-0.016 2.085-0.023 3.16 0.052 7.179 0.052 7.179 3.395 10.522 2.478 0.34 2.478 0.34 5.462 0.293 1.118-0.01 2.237-0.02 3.389-0.03 1.209-0.025 2.419-0.05 3.665-0.076 1.244-0.011 2.488-0.022 3.77-0.034 5.333-0.049 10.665-0.133 15.998-0.215 3.889-0.054 7.779-0.09 11.669-0.126 0.601-0.012 0.601-0.012 3.64-0.075 11.164-0.098 11.164-0.098 16.407 3.263 3.569 5.686 2.328 13.473 2.313 19.937 0.016 1.358 0.032 2.716 0.048 4.116 1e-3 1.311 2e-3 2.623 2e-3 3.974 3e-3 1.194 6e-3 2.387 9e-3 3.617-0.516 4.658-1.694 7.966-5.362 11.004-4.269 1.917-8.361 1.77-12.953 1.74-0.499 3e-3 -0.499 3e-3 -3.023 0.016-3.292 0.013-6.585 4e-3 -9.878-6e-3 -2.29 2e-3 -4.58 5e-3 -6.87 9e-3 -4.798 4e-3 -9.597-2e-3 -14.395-0.016-6.15-0.017-12.3-7e-3 -18.451 0.011-4.728 0.011-9.457 7e-3 -14.186-1e-3 -2.267-2e-3 -4.535 1e-3 -6.803 8e-3 -3.169 7e-3 -6.338-4e-3 -9.508-0.021-0.937 6e-3 -1.874 0.012-2.84 0.018-4.83-0.047-8.361-0.183-12.103-3.406-2.019-4.038-2.251-5.599-2.254-9.96-6e-3 -1.228-0.012-2.455-0.018-3.72 4e-3 -1.351 7e-3 -2.701 0.011-4.093-3e-3 -1.433-7e-3 -2.866-0.011-4.343-9e-3 -3.983-8e-3 -7.966-4e-3 -11.95 2e-3 -4.294-7e-3 -8.587-0.014-12.881-0.013-8.414-0.015-16.828-0.012-25.242 1e-3 -6.837 0-13.675-5e-3 -20.512 0-0.972-1e-3 -1.944-1e-3 -2.946-2e-3 -1.975-3e-3 -3.949-4e-3 -5.924-0.011-18.53-9e-3 -37.06-3e-3 -55.59 6e-3 -16.961-6e-3 -33.922-0.025-50.884-0.019-17.405-0.027-34.811-0.024-52.217 2e-3 -9.776 0-19.552-0.014-29.328-0.012-8.322-0.014-16.644-2e-3 -24.966 6e-3 -4.248 7e-3 -8.495-5e-3 -12.743-0.01-4.601-2e-3 -9.201 0.011-13.801-8e-3 -1.349-0.015-2.697-0.023-4.087 8e-3 -1.23 0.015-2.46 0.022-3.727v-3.219c0.432-3.306 1.413-5.194 3.375-7.867 3.625-1.813 7.973-1.176 11.97-1.193z" fill="#E1AFAF"/>
<path transform="translate(1228.8 337.06)" d="m0 0c0.882 2e-3 1.763 4e-3 2.672 6e-3 5.084 0.178 7.25 0.703 11.57 3.705 7.16 7.68 8.157 16.233 8.155 26.372 4e-3 0.923 8e-3 1.847 0.011 2.798 0.011 3.096 0.015 6.192 0.019 9.287 6e-3 2.22 0.013 4.439 0.02 6.658 0.021 7.29 0.031 14.58 0.041 21.869 4e-3 2.512 8e-3 5.023 0.013 7.534 0.019 11.798 0.033 23.597 0.041 35.395 0.01 13.611 0.036 27.223 0.077 40.834 0.03 10.526 0.045 21.051 0.048 31.577 2e-3 6.285 0.011 12.569 0.036 18.853 0.024 5.915 0.028 11.829 0.018 17.744-1e-3 2.166 6e-3 4.331 0.019 6.497 0.136 22.646 0.136 22.646-6.428 32.809-5.174 5.017-10.098 5.618-17.124 5.937-0.449 0.034-0.449 0.034-2.721 0.205-3.735 0.192-6.497 0.278-9.776-1.639-3.503-6.086-2.588-14.071-2.581-20.923-3e-3 -1.024-6e-3 -2.048-9e-3 -3.103-9e-3 -3.419-0.011-6.837-0.012-10.256l-0.015-7.368c-0.013-6.661-0.02-13.321-0.024-19.982-3e-3 -4.161-7e-3 -8.321-0.012-12.481-0.013-13.015-0.023-26.03-0.027-39.044-4e-3 -15.03-0.022-30.06-0.051-45.089-0.021-11.618-0.032-23.236-0.033-34.854-1e-3 -6.94-7e-3 -13.88-0.025-20.82-0.016-6.522-0.018-13.043-0.01-19.564 1e-3 -2.396-3e-3 -4.792-0.013-7.187-0.013-3.265-7e-3 -6.529 4e-3 -9.794-9e-3 -0.953-0.017-1.906-0.025-2.887 0.036-4.833 0.162-8.397 3.392-12.151 4.242-1.414 8.339-1.081 12.75-0.938z" fill="#AF1919"/>
<path transform="translate(1292.2 767.75)" d="m0 0c1.384-8e-3 2.768-0.015 4.193-0.023 13.698 0.026 25.5 1.881 36.557 10.585 8.031 10.466 8.746 19.658 8.062 32.688-1.415 9.174-5.832 15.214-12.624 21.188-12.562 8.831-26.409 10.174-41.313 10.187-1.491 0.024-2.982 0.049-4.518 0.074-11.499 0.03-25.949-0.225-35.545-7.449-2-4-2-4-1.937-6.625 0.937-2.375 0.937-2.375 3-3.875 2.937-0.5 2.937-0.5 6.574 0.895 15.854 5.833 41.185 6.071 57.363 1.605 5.118-2.472 8.564-5.418 12-10 0.188-3.75 0.188-3.75 0-7-4.702-0.336-7.462-0.282-11.687 1.938-13.875 6.635-39.856 5.153-54.25 0.374-6.083-2.511-11.129-5.654-15.063-11.062-1.973-6.415-1.695-11.405 0.626-17.562 5.127-7.962 13.097-12.249 22.229-14.343 8.806-1.39 17.428-1.645 26.333-1.595zm-35.188 20.25c-0.562 3.875-0.562 3.875 0 8 4.163 4.909 8.841 6.143 15 7 5.045 0.305 10.073 0.325 15.126 0.312 1.312 0.017 2.624 0.033 3.976 0.049 10.425 5e-3 21.557-0.394 30.836-5.549 2.062-2.812 2.062-2.812 2.75-6.874-0.688-3.938-0.688-3.938-2.832-6.075-14.063-9.176-52.701-9.017-64.856 3.137z" fill="#E1AFAF"/>
<path transform="translate(1822.9 336.56)" d="m0 0c0.894-7e-3 1.788-0.014 2.709-0.021 8.833 0.085 8.833 0.085 12.353 3.459 2.789 6.074 3.433 11.463 3.389 18.052 5e-3 0.974 0.01 1.947 0.016 2.95 0.013 3.197 4e-3 6.394-6e-3 9.591 2e-3 2.234 5e-3 4.468 9e-3 6.702 4e-3 4.673-2e-3 9.347-0.016 14.02-0.017 5.979-8e-3 11.957 0.01 17.936 0.011 4.61 8e-3 9.22 0 13.831-2e-3 2.204 0 4.407 7e-3 6.611 8e-3 3.085-4e-3 6.169-0.02 9.254 3e-3 0.451 3e-3 0.451 0.018 2.736-0.057 5.695-1.005 10.152-3.407 15.317-4.671 4.393-8.795 4.567-15.062 4.562-1.558 0.022-3.117 0.044-4.723 0.066-4.215-0.628-4.215-0.628-6.938-2.477-3.274-4.533-2.967-8.829-2.908-14.212-7e-3 -1.116-0.014-2.232-0.021-3.382-0.017-3.688 2e-3 -7.374 0.024-11.061-1e-3 -2.562-4e-3 -5.124-8e-3 -7.685-3e-3 -5.368 0.012-10.735 0.04-16.102 0.034-6.886 0.028-13.772 9e-3 -20.658-0.011-5.288-2e-3 -10.577 0.013-15.866 5e-3 -2.539 5e-3 -5.079-1e-3 -7.618-6e-3 -3.546 0.015-7.09 0.042-10.636-6e-3 -1.053-0.013-2.106-0.02-3.191 0.093-7.041 0.093-7.041 2.3-10.393 3.802-2.274 7.898-1.881 12.191-1.785z" fill="#AF1919"/>
<path transform="translate(1555,779)" d="m0 0c2.817 3.976 3.773 7.172 3 12-2.068 3.701-3.995 6.995-7 10-0.5 3.312-0.5 3.312 0 7 1.967 1.705 3.971 3.369 6 5 2.412 4.532 3.374 6.701 1.938 11.688-3.45 5.897-6.435 8.969-12.626 12-1.158 0.581-2.317 1.162-3.511 1.761-8.736 3.564-17.012 3.873-26.301 3.801-0.62-3e-3 -0.62-3e-3 -3.756-0.018-14.597-0.157-30.454-0.587-43.744-7.232-2.164-4.328-2.201-5.497-1-10 2.855-1.428 4.808-1.236 8-1 1.237 0.474 2.475 0.949 3.75 1.438 7.763 2.853 16.037 2.724 24.238 2.765 0.453 3e-3 0.453 3e-3 2.746 0.017 1.897 0.01 3.794 0.016 5.69 0.02 2.899 0.01 5.797 0.041 8.695 0.072 1.852 7e-3 3.705 0.012 5.557 0.016 0.861 0.012 1.723 0.025 2.61 0.038 5.251-0.02 8.921-0.573 12.714-4.366 0.25-4.438 0.25-4.438 0-9-5.792-3.861-12.06-3.104-18.812-3.027-2.149 0.012-4.297 0.025-6.446 0.037-3.377 0.025-6.754 0.053-10.132 0.086-3.266 0.03-6.531 0.048-9.798 0.064-1.008 0.014-2.016 0.027-3.055 0.041-4.729 0.017-8.515-0.053-12.757-2.201-1.625-2.812-1.625-2.812-2-6 1.76-2.662 1.76-2.662 5-5 3.822-0.723 7.589-0.65 11.469-0.602 1.113-8e-3 2.226-0.016 3.373-0.024 3.553-0.023 7.105-0.013 10.658 1e-3 3.553 4e-3 7.105 0 10.658-0.021 2.21-0.012 4.419-9e-3 6.628 0.01 5.752-0.021 9.928-0.078 14.214-4.364 0.375-3.875 0.375-3.875 0-8-6.584-6.003-18.118-4.192-26.375-4.188-1.439 1e-3 -2.878 2e-3 -4.361 3e-3 -11.787 0.068-23.017 0.373-34.264 4.185-3.188 0.312-3.188 0.312-6 0l-3-3c0.206-4.118 0.971-4.971 4-8 23.053-11.4 63.028-12.151 84 4z" fill="#E1AFAF"/>
<path transform="translate(1444,777)" d="m0 0c3.667 4.386 4.873 6.959 5.562 12.625-0.834 6.488-3.129 9.024-7.812 13.437-10.901 7.7-26.03 9.098-38.875 11.063-3.067 0.473-6.132 0.954-9.195 1.445-0.667 0.102-0.667 0.102-4.04 0.618-6.535 1.458-6.535 1.458-9.64 3.812-0.375 4.188-0.375 4.188 0 8 0.368-0.01 0.368-0.01 2.231-0.058 7.673-0.197 15.346-0.372 23.019-0.534 2.863-0.063 5.725-0.132 8.587-0.207 4.118-0.107 8.236-0.193 12.354-0.275 1.277-0.038 2.553-0.075 3.868-0.113 11.598-0.196 11.598-0.196 16.941 3.187 1.125 3.5 1.125 3.5 1 7-3.974 3.974-5.35 4.125-10.801 4.129-1.219 4e-3 -2.439 7e-3 -3.696 0.01-1.33-2e-3 -2.66-4e-3 -4.03-6e-3 -1.373 1e-3 -2.746 2e-3 -4.16 3e-3 -2.921 0-5.843-1e-3 -8.764-6e-3 -4.409-5e-3 -8.818 0-13.227 7e-3 -8.108 4e-3 -16.214-0.048-24.322-0.137-1.061-8e-3 -2.121-0.016-3.214-0.024-2.682-0.029-5.359-0.092-8.04-0.171-1.407-0.034-2.814-0.068-4.264-0.102-4.28-0.864-5.836-2.287-8.482-5.703-0.414-5.936 3.512-11.45 7-16 9.866-9.913 21.187-14.248 34.625-17.188 1.131-0.257 2.263-0.514 3.428-0.778 7.878-1.735 15.598-2.884 23.654-3.417 3.853-0.722 5.603-1.791 8.293-4.617 0.688-4.062 0.688-4.062 0-8-4.384-3.485-9.571-3.745-15-4-1.16-0.064-2.32-0.129-3.516-0.195-8.824-0.256-17.161 0.531-25.859 1.945-0.986 0.157-1.971 0.314-2.987 0.475-6.081 1.063-11.488 2.704-17.152 5.174-3.187 0.77-4.659 0.179-7.486-1.399-1.289-2.982-1.165-4.479-0.188-7.562 16.242-18.099 65.915-15.81 84.188-2.438z" fill="#E1AFAF"/>
<path transform="translate(907.44 336.62)" d="m0 0c0.423-6e-3 0.423-6e-3 2.564-0.035 4.799 0.022 8.384 0.1 11.998 3.41 2.939 5.524 3.416 10.36 3.329 16.496-2e-3 0.926-3e-3 1.852-4e-3 2.807-9e-3 3.045-0.041 6.089-0.075 9.134-0.015 2.126-0.03 4.252-0.044 6.377-0.033 4.449-0.079 8.897-0.132 13.345-0.066 5.693-0.096 11.385-0.116 17.078-0.021 4.388-0.064 8.775-0.114 13.162-0.021 2.099-0.033 4.197-0.038 6.296-9e-3 2.937-0.05 5.872-0.098 8.809 3e-3 0.861 7e-3 1.723 0.011 2.611-0.147 6.056-1.766 9.352-5.719 13.885-3.776 2.517-6.364 2.502-10.874 2.813-0.7 0.054-0.7 0.054-4.243 0.332-4.336-0.162-6.813-1.076-9.883-4.145-0.116-3.364-0.168-6.707-0.177-10.072-6e-3 -1.058-0.013-2.117-0.019-3.207-0.02-3.519-0.032-7.038-0.042-10.557-4e-3 -1.198-8e-3 -2.396-0.012-3.63-0.021-6.338-0.035-12.676-0.045-19.014-0.011-6.564-0.045-13.127-0.085-19.69-0.026-5.032-0.034-10.064-0.038-15.096-5e-3 -2.421-0.017-4.841-0.035-7.261-0.024-3.381-0.023-6.761-0.016-10.142-0.013-1.007-0.026-2.014-0.039-3.052 0.021-2.787 0.021-2.787 0.508-7.279 4.717-3.538 7.822-3.452 13.438-3.375z" fill="#AF1919"/>
<path transform="translate(1650,427)" d="m0 0c6.098 9.147 4.472 25.268 5 36 0.999 18.742 2.32 37.398 4.633 56.027 0.405 4.382 0.625 8.577 0.367 12.973-5.382 3.588-11.852 3.43-18.062 2.188-2.938-1.188-2.938-1.188-4.938-3.188 0.206-3.71 0.565-7.314 1-11 0.074-0.734 0.074-0.734 0.449-4.449 1.313-12.744 1.313-12.744 2.59-17.082 1.48-6.882 1.306-13.761 1.399-20.781 0.266-12.514 0.953-24.418 3.562-36.688 0.273-1.316 0.547-2.632 0.828-3.988 1.919-8.759 1.919-8.759 3.172-10.012z" fill="#AE1818"/>
<path transform="translate(1215.3 770.19)" d="m0 0c3.168 2.137 3.578 3.227 4.688 6.812 0.26 2.732 0.26 2.732 0.274 5.721 5e-3 0.563 5e-3 0.563 0.029 3.408-1e-3 1.206-2e-3 2.411-3e-3 3.653 5e-3 1.246 9e-3 2.492 0.013 3.776 6e-3 2.633 7e-3 5.265 2e-3 7.898-3e-3 4.029 0.02 8.058 0.046 12.087 2e-3 2.559 3e-3 5.118 2e-3 7.676 9e-3 1.206 0.018 2.411 0.028 3.653-7e-3 1.124-0.013 2.249-0.019 3.408 0 0.986 1e-3 1.973 2e-3 2.989-0.442 3.224-1.472 5.113-3.374 7.731-2.799 1.4-4.905 1.253-8 1-3.978-3.977-3.978-3.977-4.098-9.525 7e-3 -1.972 0.019-3.944 0.035-5.916 4e-3 -1.038 8e-3 -2.076 0.011-3.145 0.013-3.326 0.031-6.651 0.052-9.976 0.026-4.376 0.046-8.753 0.062-13.129 8e-3 -1.017 0.017-2.033 0.025-3.081 9e-3 -2.409-0.034-4.819-0.087-7.228-2.123-2.122-5.428-1.437-8.239-1.437-4.032 0.639-6.452 2.743-9.644 5.168-2.117 1.269-2.117 1.269-6.18 1.145-0.969-0.289-1.939-0.578-2.937-0.876-0.841-3.285-1.305-5.28 0.039-8.453 6.931-9.002 26.326-17.284 37.273-13.359z" fill="#E1AFAF"/>
<path transform="translate(1279.4 784.83)" d="m0 0c1.002-3e-3 2.004-7e-3 3.037-0.01 2.114-5e-3 4.229-7e-3 6.344-7e-3 3.232-3e-3 6.465-0.021 9.697-0.04 2.057-3e-3 4.115-5e-3 6.172-5e-3 0.965-8e-3 1.929-0.015 2.923-0.022 8.902 0.03 8.902 0.03 12.452 2.252 1.063 3.437 1.063 3.437 1 7-8.767 6.575-19.892 5.341-30.384 5.316-2.741-4e-3 -5.481 0.02-8.221 0.045-1.76 3e-3 -3.519 3e-3 -5.278 2e-3 -0.791 2e-3 -0.791 2e-3 -4.793 9e-3 -4.435-0.382-7.416-1.282-11.324-3.372-1.75-2.375-1.75-2.375-2-5 2.195-2.926 3.801-4.683 7.389-5.632 4.311-0.608 8.641-0.531 12.986-0.536z" fill="#AE1818"/>
<path transform="translate(1835.6 622.31)" d="m0 0c2.438 0.688 2.438 0.688 4.438 1.688 3.924 0.13 7.414 0.135 11.25-0.75 2.75-0.25 2.75-0.25 5.062 1.562 3.792 4.915 3.122 10.186 2.688 16.188-1.376 4.687-1.376 4.687-3 8-5.993 2.996-12.607 0.083-18.524-1.833-0.817-0.385-1.634-0.77-2.476-1.167-1-3-1-3-0.75-6.876-0.308-5.078-1.747-5.711-5.25-9.124 0-3.188 0-3.188 1-6 3-2 3-2 5.562-1.688z" fill="#E1AFAF"/>
<path transform="translate(1109,792)" d="m0 0c4.344 2.256 7.058 4.468 9 9 0.562 2.875 0.562 2.875 0 6-3.101 4.229-5.291 6.645-10 9-4.34-0.08-6.642-0.77-10.312-3.125-3.173-3.394-4.218-5.249-4.688-9.875 1.545-4.202 2.909-7.057 6.312-10 3.519-1.309 5.955-1.458 9.688-1z" fill="#E1AFAF"/>
<path transform="translate(1634.2 793.19)" d="m0 0c3.186 2.053 4.382 3.316 5.812 6.812 0.543 4.261 0.301 6.421-1.687 10.25-2.38 2.831-3.879 4.393-7.313 5.75-4.77-0.17-8.218-1.058-12-4-2.127-2.714-2.929-4.523-3.437-7.937 0.702-4.912 2.96-7.896 6.813-10.937 4.391-1.883 7.373-1.592 11.812 0.062z" fill="#E1AFAF"/>
</svg>
