<?xml version="1.0" encoding="UTF-8"?>
<svg version="1.1" viewBox="0 0 2448 1112" xmlns="http://www.w3.org/2000/svg">
<path transform="translate(222.5 271.31)" d="m0 0c0.675 0.059 0.675 0.059 4.09 0.357 9.135 0.869 17.169 2.144 25.41 6.393 3.384 1.639 5.358 2.267 8.938 2.812 4.901 0.825 7.882 2.847 11.839 5.75 2.223 1.376 2.223 1.376 6.848 2.376 5.269 1.204 7.385 3.437 11.375 7 2.258 1.14 2.258 1.14 4.625 2.124 3.877 1.662 6.241 3.165 9.375 5.876 1.031 0.659 2.062 1.319 3.125 2 2.875 2 2.875 2 5.875 6 0.804 0.474 1.609 0.948 2.438 1.437 2.973 1.813 4.459 3.803 6.562 6.563 0.763 0.742 1.526 1.485 2.312 2.25 6.489 6.639 9.972 11.599 11.688 20.75 0.99 0.329 1.98 0.659 3 1 2.165 3.464 3.07 6.349 3.875 10.374 1.125 4.625 1.125 4.625 3.578 8.309 2.849 4.419 3.788 8.836 4.422 14.004 0.119 0.911 0.239 1.821 0.362 2.76 1.151 9.935 0.621 19.619-0.237 29.553-0.139 1.839-0.279 3.679-0.418 5.519-1.219 14.575-1.219 14.575-4.582 21.481-1.914 4.058-3.169 7.657-3.875 12.062-0.874 4.894-2.931 7.121-6.125 10.938-0.816 2.597-0.816 2.597-1.5 5.5-1.191 5.02-3.097 7.586-6.5 11.5-0.474 1.464-0.949 2.928-1.438 4.437-1.731 5.056-4.038 7.607-7.562 11.563-1.35 2.658-2.684 5.324-4 8-1.607 2.048-3.27 4.054-5 6-0.681 0.866-1.361 1.732-2.062 2.624-1.868 2.289-3.819 4.321-5.938 6.376-0.866 0.907-1.732 1.815-2.625 2.75-2.375 2.25-2.375 2.25-4.375 2.25-0.289 0.763-0.577 1.526-0.875 2.312-1.125 2.688-1.125 2.688-5.125 5.688h-2c-0.206 0.701-0.413 1.402-0.625 2.124-2.017 4.217-5.668 6.231-9.375 8.876-4.133 3.185-4.893 4.232-5.625 9.5 0.736 5.3 1.887 5.935 5.625 9.5 0.824 2.277 0.824 2.277 1.5 4.874 1.278 4.89 3.466 8.055 6.5 12.126 0.33 0.752 0.33 0.752 2 4.562 1.917 4.253 4.016 6.918 7 10.438 1 2.333 2 4.666 3 7 1.621 2.036 3.289 4.038 5 6 0.681 1.031 1.361 2.062 2.062 3.124 1.938 2.876 1.938 2.876 3.793 4.723 2.345 2.353 4.342 4.854 6.395 7.465 7.54 9.202 15.415 15.483 26.75 19.688 6.089 0.498 8.812-0.87 14-4 1.464-0.434 2.929-0.867 4.438-1.313 6.527-2.414 13.355-7.622 16.75-13.875 1.248-4.323 1.304-8.634 0.311-13.031-0.678-3.781-0.648-7.441-0.667-11.281-4e-3 -0.825-8e-3 -1.649-0.013-2.499-0.01-2.667-0.01-5.334-7e-3 -8.001 1e-3 -0.906 2e-3 -1.812 2e-3 -2.745 0.031-17.094 0.229-33.529 5.182-50.033 1.581-6.65 2.18-13.416 2.789-20.218 0.697-6.969 2.37-12.628 5.215-19.004 2.314-6.151 3.07-12.428 4.023-18.907 1.012-4.241 2.507-6.565 4.977-10.093 0.941-3.071 0.941-3.071 1.562-6.126 0.918-4.481 1.562-6.04 4.438-9.874h2c0.135-0.702 0.271-1.403 0.41-2.126 1.702-7.501 4.216-11.403 9.59-16.874 0.66-0.991 1.32-1.981 2-3 1.658-1.014 3.327-2.012 5-3 0.872-0.847 1.743-1.694 2.642-2.567 4.245-3.076 6.64-3.039 11.842-2.992 0.815 2e-3 1.629 5e-3 2.468 7e-3 1.725 0.01 3.45 0.031 5.174 0.064 2.575 0.049 5.147 0.062 7.722 0.068 28.736 0.194 28.736 0.194 41.293 5.478 4.948 1.629 10.089 1.905 15.257 2.352 6.179 1.012 9.386 4.151 13.602 8.59l3 3c0.372 3.777 0.372 3.777 0.363 8.507 1e-3 0.84 1e-3 1.68 2e-3 2.546-3e-3 1.78-0.012 3.561-0.029 5.341-0.023 2.7-0.02 5.398-0.014 8.098-0.065 20.231-0.065 20.231-4.26 26.32-2.083 3.22-2.685 5.366-3.5 9.062-1.253 5.541-3.45 9.344-6.562 14.126-0.73 1.88-1.416 3.777-2.062 5.687-1.438 4.214-3.108 6.863-5.938 10.313-0.704 1.672-1.367 3.361-2 5.062-1.486 3.962-3.015 5.953-6 8.938-0.237 0.742-0.237 0.742-1.438 4.5-1.562 4.5-1.562 4.5-4 6.437-3.365 2.708-4.016 5.432-5.476 9.414-2.502 6.101-6.678 11.168-10.774 16.273-2.869 3.616-4.527 7.107-6.312 11.376-2.506 3.531-5.109 6.904-7.84 10.261-3.576 4.454-5.957 8.431-8.16 13.739-1.655 2.009-3.32 4.01-5 6-1.692 6.769-1.875 14.5 1.488 20.777 1.733 2.23 3.506 4.237 5.512 6.223 0.673 0.696 1.346 1.392 2.039 2.109 2.439 2.351 5.11 4.071 7.961 5.891 0.99 0.66 1.98 1.319 3 2 9.575 0.982 15.579-1.689 24-6 0.904-0.347 1.807-0.694 2.738-1.051 2.262-0.949 2.262-0.949 4.574-3.262 3.23-3.23 6.822-5.271 10.688-7.687 2.688-2.5 2.688-2.5 5-5 0.763-0.722 1.526-1.444 2.312-2.188 4.654-4.87 8.916-10.126 12.626-15.75 4.11-6.103 8.86-11.861 14.062-17.062 0.433-1.032 0.866-2.063 1.312-3.126 3.02-6.934 7.102-12.754 12.688-17.874 3.826-3.827 3.223-8.999 3.43-14.122 0.035-0.821 0.035-0.821 0.216-4.977 0.037-0.87 0.074-1.741 0.113-2.637 0.608-14.123 1.505-28.123 3.109-42.173 1.014-9.213 1.665-18.419 2.159-27.674 0.085-1.587 0.171-3.175 0.258-4.811 0.99-19.227 1.347-38.472 1.721-57.719 0.151-7.719 0.309-15.437 0.473-23.155 0.054-2.648 0.104-5.296 0.154-7.944 0.095-4.598 0.22-9.192 0.367-13.788 0.032-1.288 0.065-2.576 0.098-3.902 0.052-1.153 0.104-2.305 0.158-3.493 0.037-0.981 0.075-1.962 0.114-2.972 1.074-4.489 4.065-6.692 7.782-9.18 4.629-2.363 8.689-3.093 13.848-3.453 1.45-0.107 2.9-0.214 4.395-0.325 4.868-0.301 9.731-0.506 14.605-0.675 1.446-0.066 2.893-0.132 4.383-0.2 1.317-0.037 2.635-0.074 3.992-0.113 1.163-0.037 2.325-0.075 3.523-0.113 3.838 0.527 5.388 1.707 8.102 4.426 2.125 3.874 2.125 3.874 4 8 0.278 0.495 0.278 0.495 1.688 3 2.816 6.437 2.448 13.615 2.48 20.535 4e-3 0.903 8e-3 1.807 0.013 2.738 0.01 2.93 0.01 5.859 7e-3 8.789-1e-3 0.502-1e-3 0.502-2e-3 3.04-0.039 23.546-0.693 46.821-5.284 69.98-1.596 8.252-2.053 16.579-2.367 24.964-0.078 1.918-0.157 3.836-0.236 5.754-0.118 2.954-0.235 5.909-0.349 8.863-0.421 10.85-0.976 21.662-1.954 32.477-0.083 0.918-0.166 1.835-0.251 2.78-0.389 4.084-0.885 8.07-1.745 12.08-0.197 2.664-0.361 5.331-0.5 8-0.232 4.443-0.546 8.655-1.5 13-0.312 3.562-0.312 3.562 0 7 7.821 9.292 19.476 10.903 30.875 12.164 4.307 0.872 5.512 1.456 8.125 4.836 1.667 1.666 3.344 3.323 5.062 4.937 1.938 2.062 1.938 2.062 3.938 6.063 3.389 1.694 6.285 1.332 10 1 5.433-3.662 5.657-7.872 7-14 0.784-0.908 1.567-1.816 2.375-2.75 3.324-4.116 4.239-8.056 5.535-13.129 1.09-3.121 1.09-3.121 3.086-5.446 2.818-3.762 3.186-7.324 4.004-11.925 0.902-5.041 1.75-9.237 3.996-13.852 3.116-6.598 3.346-13.851 4.066-21.024 1.011-9.634 2.221-19.059 4.301-28.527 1.996-10.488 0.713-18.052-4.363-27.347-0.258-0.568-0.258-0.568-1.562-3.438-1.438-2.562-1.438-2.562-3.45-4.367-4.381-4.838-3.914-12.771-4.238-19.008 0.411-6.886 1.513-11.656 6.723-16.547 9.19-5.966 23.627-9.138 34.527-7.64 11.793 3.491 17.714 10.451 24.25 20.437 2.333 3.416 5.055 5.715 8.75 7.563 8.652 0.467 14.312-1.071 22.062-5.126 9.355-4.454 20.87-3.5 30.938-1.874 4.316 1.648 6.869 3.667 10 7 0.887 0.701 1.774 1.402 2.688 2.124 2.312 1.876 2.312 1.876 3.312 3.876 0.649 15.779 0.795 32.764-4 47.937-2.875 9.148-3.304 18.557-4 28.063-0.265 3.467-0.531 6.935-0.798 10.403-0.173 2.267-0.341 4.535-0.505 6.803-0.077 1.043-0.153 2.086-0.232 3.161-0.066 0.919-0.132 1.838-0.2 2.784-0.19 2.044-0.458 4.081-0.776 6.108-0.578 4.424-0.688 8.756-0.77 13.217-0.019 0.888-0.037 1.777-0.056 2.692-0.078 3.774-0.146 7.548-0.215 11.322-0.052 2.766-0.109 5.532-0.167 8.299-0.015 0.823-0.015 0.823-0.092 4.99-0.146 3.257-0.445 6.072-1.189 9.221-0.68 10.442 1.054 20.688 6 30 4.111 2.74 7.136 2.199 12 2 1.32-0.33 2.64-0.661 4-1l2-4c1.996-1.672 3.997-3.338 6-5 3.429-3.577 6.491-7.215 9.188-11.376 1.812-2.624 1.812-2.624 5.812-4.624 0.753-2.225 1.497-4.454 2.16-6.708 1.23-3.356 3.527-5.594 5.84-8.292 1.389-2.639 2.657-5.308 3.887-8.024 0.367-0.652 0.734-1.304 1.113-1.976h2c0.693-2.358 1.387-4.716 2.078-7.075 0.922-2.925 0.922-2.925 1.909-5.38 3.837-9.822 4.12-19.958 4.701-30.358 0.12-1.97 0.242-3.94 0.364-5.909 3.692-60.938 3.692-60.938 0.874-83.571 0.094-3.45 1.032-4.947 3.074-7.707 2.286-1.119 2.286-1.119 4.988-1.801 0.503-0.128 0.503-0.128 3.045-0.774 1.082-0.244 2.164-0.487 3.279-0.738 1.123-0.256 2.246-0.511 3.403-0.775 19.525-4.131 39.117-2.442 58.285 3.088 3 2 3 2 3.762 4.703 0.262 3.632-0.158 6.495-0.95 10.047-0.241 1.129-0.482 2.258-0.73 3.421-1.082 3.829-1.082 3.829-3.07 8.395-2.614 6.357-3.237 12.835-4.012 19.621-1.14 9.142-2.392 17.87-5.168 26.672-1.936 7.308-2.01 14.889-2.148 22.41-0.011 0.489-0.011 0.489-0.064 2.966-0.066 3.192-0.125 6.384-0.182 9.577-0.021 1.093-0.042 2.187-0.064 3.313-0.304 16.146-0.478 32.289-0.499 48.437-3e-3 0.926-5e-3 1.852-8e-3 2.807-6e-3 2.628-4e-3 5.256 0 7.884 1e-3 1.478 2e-3 2.956 4e-3 4.479 0.372 12.283 0.372 12.283 3.004 15.705 4.759 3.499 7.152 4.082 13.125 3.563 5.552-2.173 8.206-3.812 11-9 0.804-0.454 1.609-0.908 2.438-1.376 3.477-2.205 4.59-5.062 6.562-8.624 1.32-0.991 2.64-1.981 4-3 0.69-2.134 1.38-4.272 1.898-6.454 1.102-2.546 1.102-2.546 4.036-5.437 4.662-5.231 4.853-11.903 5.754-18.609 0.404-2.717 0.81-5.433 1.218-8.149 0.094-0.643 0.094-0.643 0.567-3.897 0.594-3.896 1.361-7.732 2.215-11.58 1.204-5.641 1.722-11.259 2.187-17 0.593-7.112 2.014-13.001 4.902-19.527 1.514-4.146 2.094-8.17 2.723-12.535 0.925-6.257 2.152-10.889 5.312-16.316 1.509-3.172 2.051-6.235 2.688-9.684 1.104-5.821 2.912-9.059 6.5-13.812 0.563-1.836 1.059-3.694 1.5-5.563 1.201-4.993 3.104-7.545 6.5-11.437 0.718-1.646 1.382-3.315 2-5 2.519-6.749 6.982-10.983 12-16 0.464-0.557 0.464-0.557 2.812-3.376 5.467-6.216 9.88-10.875 18.188-12.624 1.444-0.557 2.888-1.114 4.375-1.688 7.974-2.263 15.514-0.062 23.375 2 0.824 0.2 1.647 0.401 2.496 0.607 4.874 1.268 7.94 2.878 11.754 6.081 2.867 0.871 2.867 0.871 5.875 1.437 5.359 1.193 8.813 3.076 13.125 6.563 8.898 2.965 19.112 2.066 28.375 1.937 25.12-0.128 25.12-0.128 36.625 7.063 1.134 0.371 2.269 0.742 3.438 1.124 2.562 0.876 2.562 0.876 4.562 3.876 0.27 8.085-1.955 14.508-6.012 21.433-2.478 5.692-2.965 10.806-3.488 16.941-0.927 9.387-2.287 18.283-4.633 27.43-2.148 10.395-2.124 21.157-2.418 31.735-0.042 1.476-0.083 2.953-0.127 4.475-0.394 14.972-0.508 29.942-0.507 44.92-3e-3 4.46-0.021 8.921-0.04 13.382-0.027 13.767 0.151 27.47 1.112 41.207 0.077 1.116 0.155 2.232 0.235 3.383 0.651 8.238 2.164 16.07 3.925 24.144 2.992 14.589 3.136 29.738 3.265 44.574 0.018 1.24 0.036 2.479 0.054 3.756-9e-3 10.648-9e-3 10.648-3.366 15.62-0.804 1.34-1.609 2.681-2.438 4.062-3.414 5.247-7.084 9.574-11.562 13.938l-3 3c-1.663 1.006-3.33 2.005-5 3-0.743 0.66-1.485 1.319-2.25 2-2.75 2-2.75 2-7.188 3.437-4.562 1.563-4.562 1.563-7.324 4.048-3.938 3.058-6.696 3.565-11.605 4.315-0.816 0.127-1.631 0.253-2.471 0.384-2.676 0.402-5.355 0.769-8.037 1.128-0.461 0.064-0.461 0.064-2.792 0.39-13.924 1.913-27.717 2.869-41.771 2.86-1.583 2e-3 -3.166 5e-3 -4.798 7e-3 -9.604-0.136-18.766-1.215-28.227-2.841-5.381-0.864-10.735-1.333-16.165-1.754-10.642-0.829-20.198-1.608-29.806-6.639-2.566-1.335-2.566-1.335-7.004-2.273-5.054-1.508-7.107-4.113-10.562-8.062-1.569-3.139-1.352-5.539-1-9 1.938-2.5 1.938-2.5 5-5 0.597-0.615 1.194-1.23 1.809-1.864 4.537-4.28 8.123-5.689 14.379-5.949 6.932 0.319 12.188 2.294 18.382 5.293 4.405 1.952 8.765 2.851 13.492 3.684 2.938 0.836 2.938 0.836 5.711 2.781 4.088 2.603 8.158 3.447 12.852 4.305 0.893 0.166 1.786 0.333 2.706 0.505 13.433 2.388 27.742 2.403 39.607-5.318 1.01-0.804 2.021-1.609 3.062-2.437 1.586-0.573 3.193-1.093 4.812-1.563 4.188-1.437 4.188-1.437 6.188-5.437 0.928-0.661 1.856-1.32 2.812-2 3.891-3.663 5.177-7.12 7.012-12.063 1.176-2.938 1.176-2.938 2.758-5.563 7.355-12.318 2.603-36.17-0.582-49.374-0.725-2.845-1.484-5.671-2.309-8.489-0.742-2.695-1.293-5.39-1.816-8.137-0.875-4.374-0.875-4.374-1.875-5.374-4.629-0.716-9.166-1.172-13.227 1.421-1.315 1.227-2.603 2.483-3.863 3.766-2.889 2.741-6.329 4.141-9.91 5.813l-4 3c-7.205 1.75-14.822 1.184-22.188 1.187-1.454 0.012-2.909 0.024-4.408 0.037-11.71 0.016-20.849-0.866-31.404-6.224-1.973-0.448-3.953-0.862-5.938-1.25-7.99-1.847-12.908-6.576-17.437-13.25-3.008-2.865-4.03-3.036-8.063-3.313-4.689 0.238-5.283 0.516-8.687 4.125-0.474 0.608-0.474 0.608-2.875 3.688-2.938 1.339-5.884 2.096-9 3l-3 3c-15.599 5.849-39.938 4.729-56 1-3.102-1.899-3.102-1.899-6-4-1.964-0.989-3.944-1.948-5.938-2.876-5.138-2.521-8.938-5.172-13.062-9.124-0.701-0.619-1.403-1.238-2.125-1.876-1.875-2.124-1.875-2.124-4.313-6.124-3.768-5.883-3.768-5.883-7.562-8-4.68-0.669-7.093-0.534-11.188 1.874-2.543 2.826-3.582 4.617-5.062 8-2.788 6.074-7.122 8.811-12.75 12.126-0.842 0.538-1.684 1.077-2.551 1.632-3.598 2.009-7.435 2.481-11.449 3.368-0.746 0.335-0.746 0.335-4.523 2.031-5.988 2.434-11.51 2.616-17.915 2.531-0.567-3e-3 -0.567-3e-3 -3.439-0.02-8.863-0.199-16.662-1.714-25.103-4.32-3.478-1.058-6.678-1.698-10.27-2.16-5.507-1.232-7.803-3.116-11.75-7.062-0.846-0.64-1.691-1.279-2.562-1.938-9.205-7.788-12.818-16.855-13.852-28.875-0.354-11.771 0.94-23.429 2.198-35.115 2.356-22.202 3.37-44.5 3.528-66.822 9e-3 -0.708 9e-3 -0.708 0.054-4.289-6e-3 -8.409-0.233-15.294-5.928-21.961-4.91-2.857-7.785-2.573-13.438-2-3.503 1.505-4.743 2.491-6.477 5.925-0.379 1.118-0.758 2.236-1.148 3.387-2.225 6.43-2.225 6.43-3.937 9.379-2.107 4.848-2.321 9.706-2.813 14.933-0.842 7.81-1.912 14.361-5.437 21.454-1.551 3.815-2.069 7.542-2.688 11.609-0.92 5.876-2.022 9.947-5.246 14.875-1.738 3.379-2.414 6.801-3.254 10.5-1.054 4.601-1.942 8.468-4.625 12.375-2.375 3.563-2.375 3.563-3.313 8.063-1.068 4.523-2.626 6.964-5.546 10.523-2.343 3.055-3.822 6.532-5.516 9.977-1.294 1.697-2.625 3.367-4 5-0.66 1.01-1.32 2.021-2 3.062-1.826 2.682-3.72 4.657-6 6.938-1.362 1.98-2.696 3.98-4 6-0.495 0.659-0.495 0.659-3 4-2.199 6.595-0.827 12.292 1.375 18.687 6.243 20.539 4.942 42.5 4.886 63.751-0.012 4.324-5e-3 8.647 7e-3 12.97 9e-3 4.21 3e-3 8.42-2e-3 12.631 4e-3 1.52 8e-3 3.04 0.012 4.607-0.121 28.285-0.121 28.285-5.282 40.346-1.367 4.129-1.816 8.337-2.371 12.632-1.023 7.644-2.87 12.305-7.625 18.376-0.33 1.196-0.66 2.392-1 3.624-1.328 4.483-3.854 6.972-7 10.376-0.99 1.32-1.98 2.639-3 4-1.655 1.018-3.323 2.018-5 3-0.559 0.647-1.119 1.294-1.695 1.96-3.058 2.705-5.789 3.232-9.743 4.164-7.214 1.734-7.214 1.734-10.16 2.93-7.954 3.13-17.138 2.244-25.527 2.32-1.542 0.038-3.083 0.075-4.672 0.114-8.509 0.065-15.145-0.508-22.822-4.316-2.381-1.172-2.381-1.172-6.319-2.11-4.067-1.411-5.489-3.677-8.062-7.062-0.846-0.578-1.691-1.155-2.562-1.75-3.12-2.88-4.016-5.742-5.348-9.715-1.09-2.535-1.09-2.535-3.082-4.715-2.85-4.003-3.324-8.258-4.07-13.008-1.031-6.249-2.221-12.214-4.252-18.224-1.807-6.82-1.835-13.786-1.831-20.795-2e-3 -0.496-2e-3 -0.496-0.01-3.006-0.01-3.271-0.012-6.543-0.013-9.815-3e-3 -2.308-7e-3 -4.617-0.01-6.925-6e-3 -4.851-8e-3 -9.702-7e-3 -14.554 0-4.909-7e-3 -9.819-0.021-14.728-0.197-71.155-0.197-71.155 3.206-84.765 0.847-8.358 0.265-14.279-5-21-3.438-1-3.438-1-7 0-3.312 3.5-3.312 3.5-6 7h-2c-0.247 0.742-0.495 1.485-0.75 2.25-1.658 3.646-3.917 4.593-7.25 6.75-0.825 1.01-1.65 2.021-2.5 3.062-2.676 3.144-4.812 4.211-8.5 5.938-0.577 0.66-1.155 1.319-1.75 2-2.981 2.649-5.918 3.133-9.723 4.144-3.668 1.242-6.42 3.585-9.527 5.856-5.65 1.444-11.527 1.161-17.32 1.167-1.095 4e-3 -2.19 7e-3 -3.319 0.011-2.314 5e-3 -4.629 7e-3 -6.944 7e-3 -3.509 2e-3 -7.018 0.02-10.526 0.039-2.258 3e-3 -4.516 5e-3 -6.774 6e-3 -0.517 4e-3 -0.517 4e-3 -3.136 0.022-10.377-0.032-19.568-1.046-28.739-6.1-2.242-1.152-2.242-1.152-5.93-2.09-4.451-1.428-6.9-3.89-10.312-7.062-1.391-1.235-2.787-2.464-4.188-3.688-0.316-0.28-0.316-0.28-1.917-1.699-3.555-3.027-5.429-4.559-10.145-5.113-7.08 0.745-11.182 4.324-16.75 8.5-3.087 0.828-6.177 1.384-9.32 1.96-3.196 0.903-5.324 1.896-8.176 3.489-6.52 3.371-13.221 4.134-20.442 4.988-1.372 0.169-2.744 0.338-4.157 0.512-10.728 1.191-20.249 0.892-30.905-0.949-0.633-0.064-0.633-0.064-3.836-0.383-7.429-0.758-12.893-2.641-19.422-6.243-2.742-1.374-2.742-1.374-7.43-2.374-4.694-1.089-7.345-2.793-11.191-5.559-2.121-1.441-2.121-1.441-5.683-2.941-4.319-1.885-7.797-4.566-11.438-7.5-1.052-0.846-2.104-1.692-3.188-2.563-2.736-2.372-5.286-4.843-7.812-7.437-0.99-0.991-1.98-1.981-3-3v-2c-1.32-0.661-2.64-1.32-4-2-2.25-2-2.25-2-4-4v-2c-1.32-0.661-2.64-1.32-4-2-1.68-1.99-3.345-3.991-5-6-1.011-0.784-2.021-1.568-3.062-2.376-3.545-3.167-4.933-6.346-6.938-10.624-1.313-1.683-2.646-3.35-4-5-0.66-1.176-1.32-2.352-2-3.563-2-3.437-2-3.437-3.875-5.313-2.125-2.124-2.125-2.124-4.563-6.437-3.956-6.201-10.124-8.593-16.562-11.687-0.33-0.33-0.66-0.661-1-1-5.938-0.57-9.604-0.818-14.438 2.874-1.175 1.032-2.351 2.063-3.562 3.126-0.99 0.66-1.98 1.319-3 2-0.942 3.769-1.127 6.653-1.129 10.511-2e-3 0.664-2e-3 0.664-0.01 4.023 2e-3 1.441 4e-3 2.883 6e-3 4.368 0 0.751 0 0.751-3e-3 4.55 0 3.197 1e-3 6.394 6e-3 9.591 5e-3 4.788 0 9.576-7e-3 14.365 0 3.123 2e-3 6.246 4e-3 9.369v4.654c0.024 7.406 0.153 14.781 0.54 22.178 0.067 1.337 0.135 2.673 0.204 4.05 0.136 2.493 0.294 4.986 0.479 7.476 0.443 8.037 0.443 8.037-2.18 12.111-3.41 2.055-5.322 2.36-9.285 2.312-1.234-7e-3 -2.467-0.014-3.738-0.021-1.283-0.033-2.566-0.066-3.887-0.1-0.626-3e-3 -0.626-3e-3 -3.793-0.018-11.318-0.146-21.805-0.676-31.805-6.267-2.56-1.228-4.728-1.677-7.527-2.09-5.906-1.287-8.274-3.255-12.875-7.062-1.32-0.661-2.64-1.32-4-2-2.398-4.796-2.651-9.189-3.062-14.438-0.435-5.246-0.894-10.399-1.938-15.562-0.297-3.801-0.506-7.601-0.719-11.407-0.281-3.593-0.281-3.593-0.79-5.863-0.607-3.373-0.621-6.581-0.624-10.008-1e-3 -1.4-2e-3 -2.801-4e-3 -4.244 4e-3 -1.457 8e-3 -2.915 0.012-4.416-4e-3 -1.453-8e-3 -2.907-0.012-4.404 2e-3 -1.402 3e-3 -2.804 4e-3 -4.248 1e-3 -0.639 1e-3 -0.639 4e-3 -3.871 0.12-3.289 0.574-6.302 1.129-9.539 0.199-2.748 0.362-5.499 0.5-8.25 0.083-1.578 0.165-3.156 0.25-4.782 0.083-1.639 0.165-3.279 0.25-4.968 0.164-3.251 0.33-6.501 0.5-9.75 0.036-0.72 0.036-0.72 0.219-4.36 0.281-3.89 0.281-3.89 0.791-6.708 0.521-3.386 0.61-6.573 0.604-9.999-1e-3 -1.361-1e-3 -2.723-1e-3 -4.125-5e-3 -1.483-0.01-2.967-0.015-4.495-3e-3 -2.414-5e-3 -4.828-7e-3 -7.242-3e-3 -2.595-9e-3 -5.19-0.016-7.785-0.013-5.456-0.019-10.912-0.024-16.368-0.012-12.615-0.034-25.229-0.056-37.844-0.021-11.473-0.039-22.946-0.048-34.419-4e-3 -4.512-0.011-9.024-0.022-13.535-0.062-24.351 0.288-48.667 0.957-73.008 0.159-5.892 0.297-11.783 0.43-17.675 0.184-7.867 0.184-7.867 2.481-11.605 2.207-2.082 2.207-2.082 6.207-4.082 13.221 0.528 21.176 8.176 30 17 0.949 0.721 1.898 1.443 2.875 2.187 3.529 3.176 5.905 6.565 8.512 10.508 1.613 2.305 1.613 2.305 4.613 5.305 4.273 0.621 4.273 0.621 9 0 2.718-2.318 4.514-4.162 6.625-6.938 0.558-0.689 1.117-1.379 1.692-2.089 1.588-1.97 3.137-3.971 4.683-5.973 0.683-0.863 1.366-1.725 2.07-2.614 1.097-1.395 2.185-2.797 3.262-4.207 5.727-7.483 11.422-14.141 18.668-20.179 0.866-0.887 1.733-1.774 2.625-2.688 2.586-2.518 5.378-4.315 8.375-6.312 0.66-0.991 1.32-1.981 2-3 3.025-0.884 5.919-1.584 9-2.188 0.813-0.177 1.627-0.354 2.465-0.537 11.067-2.264 21.885-1.033 33.035 0.037zm-17.5 46.688c-0.66 0.329-0.66 0.329-4 2-0.619 0.928-1.238 1.856-1.875 2.812-2.324 3.485-4.922 5.518-8.125 8.188-2.125 2.937-2.125 2.937-4 6-0.34 0.495-0.34 0.495-2.062 3-1.938 3-1.938 3-3.376 6-1.562 3-1.562 3-4.062 5.812-3.016 3.845-4.002 7.564-5.5 12.188-0.648 0.783-1.297 1.567-1.965 2.374-2.319 2.992-3.074 5.42-4.035 9.063-0.977 3.693-1.801 6.285-4.035 9.406-2.534 4.071-2.84 7.473-3.403 12.219-0.751 5.694-1.684 10.857-4.062 16.125-3.075 7.141-3.589 14.429-4.404 22.083-0.703 6.333-1.899 11.807-4.178 17.772-4.03 12.982-5.858 32.631-1.16 45.672 3.058 5.627 7.276 11.042 13.262 13.551 11.741 2.893 26.26 0.252 37.253-4.265 3.146-1.154 6.255-1.786 9.539-2.438 5.331-1.152 8.191-2.756 12.188-6.562 1.176-0.496 2.351-0.991 3.562-1.5 3.876-1.692 5.557-3.419 8.438-6.5 1.64-1.445 3.287-2.881 4.938-4.313 4.383-3.908 7.664-7.914 11.062-12.687 0.351-0.33 0.351-0.33 2.125-2 2.748-2.931 4.133-6.403 5.875-10 0.99-1.32 1.98-2.64 3-4 0.729-2.562 1.366-5.15 1.938-7.75 1.415-6.012 3.07-10.885 6.062-16.25 1.672-6.688 1.845-13.598 2.357-20.458 0.201-2.676 0.413-5.35 0.625-8.025 4.089-53.127 4.089-53.127-7.982-68.517-0.474-1.197-0.949-2.393-1.438-3.626-1.858-4.013-4.128-5.656-7.562-8.374-0.227-0.413-0.227-0.413-1.375-2.5-2.41-3.709-5.868-5.27-9.625-7.5-0.99-0.991-1.98-1.981-3-3-11.352-3.719-22.697-3.253-31 6zm268 130c-1.727 2.288-3.391 4.626-5 7-0.866 0.763-1.733 1.526-2.625 2.312-2.857 3.233-3.551 5.945-4.504 10.09-0.871 2.598-0.871 2.598-2.84 5.293-2.603 4.236-3.223 8.414-3.969 13.242-1.092 6.423-2.356 12.429-4.624 18.563-2.498 6.92-3.535 13.729-4.362 21.005-0.696 5.864-2.108 10.925-4.076 16.495-1.527 6.207-2.481 13.478 0.047 19.488 1.725 2.775 3.643 5.202 5.953 7.512 3.75 0.624 3.75 0.624 8 0 3.25-3.75 3.25-3.75 4.691-5.989 1.309-2.011 1.309-2.011 3.497-3.949 1.812-2.062 1.812-2.062 3.25-6.438 1.595-4.721 3.429-6.865 6.562-10.624 1.026-2.992 2.024-5.992 3-9 0.825-1.279 1.65-2.558 2.5-3.876 2.556-4.217 3.552-7.635 4.688-12.359 0.81-2.76 1.889-4.9 3.312-7.391 3.09-5.773 3.812-11.801 4.727-18.226 0.804-4.314 2.173-8.072 3.773-12.148 0.688-3.75 0.688-3.75 1-8 0.099-0.92 0.199-1.839 0.301-2.786 0.492-7.481-1.193-11.862-5.379-18.035-2.791-3.165-5.187-4.126-9.36-4.429-3.546 0.248-5.538 0.419-8.562 2.25zm657.12 27.687c-2.286 2.978-4.207 6.087-6.125 9.313-0.825 0.783-1.65 1.567-2.5 2.374-2.858 3.002-3.912 5.828-5.5 9.626-0.66 0.598-1.32 1.196-2 1.812-2.22 2.428-2.602 3.865-3.438 7-0.969 3.626-1.709 5.387-4 8.5-3.027 4.356-4.145 8.411-5.472 13.504-1.09 3.184-1.09 3.184-3.086 6.094-2.354 3.629-3.097 6.747-4.004 10.964-1.048 4.538-1.985 8.096-4.125 12.25-1.797 3.715-2.337 6.13-2.859 10.161-0.166 1.247-0.332 2.493-0.503 3.778-0.169 1.299-0.339 2.598-0.513 3.937-0.355 2.517-0.712 5.034-1.07 7.55-2.554 18.503-4.188 35.174-0.68 53.637 0.204 1.077 0.408 2.154 0.619 3.263 1.451 6.938 3.479 11.586 8.256 16.924 4.252 2.404 8.1 2.271 12.875 1.626 3.422-1.384 4.608-2.346 6.5-5.5 1.5-2.5 1.5-2.5 3.902-3.821 3.115-2.014 4.036-3.752 5.66-7.055 1.553-3.034 2.914-5.595 5.063-8.25 1.817-2.302 2.788-4.26 3.937-6.937 1.938-4.437 1.938-4.437 4.938-8.437 0.844-3.583 0.844-3.583 1.5-7.813 0.905-5.597 1.88-11.143 3.062-16.687 4.42-21.843 4.621-44.072 4.99-66.263 0.364-21.331 0.364-21.331 1.229-30.654 0.667-7.857 0.39-14.984-1.781-22.583-2-2-2-2-6.188-2.626-5.012 0.652-5.58 0.795-8.687 4.313zm-506.86 164.49c-7.51 16.809-9.111 42.405-5.765 60.515 0.561 3.694 0.657 7.228 0.692 10.964 0.017 1.522 0.034 3.043 0.051 4.611 0.014 1.635 0.027 3.269 0.041 4.953 0.018 1.704 0.037 3.407 0.056 5.11 0.07 6.305 0.129 12.61 0.189 18.915 0.051 5.334 0.106 10.669 0.166 16.003 0.026 2.496 0.047 4.992 0.068 7.488 0.017 1.522 0.033 3.043 0.051 4.611 0.012 1.337 0.025 2.673 0.038 4.05 0.138 3.298 0.553 6.364 1.151 9.605 0.196 2.42 0.36 4.844 0.5 7.269 0.082 1.384 0.165 2.768 0.25 4.193 0.041 0.718 0.041 0.718 0.25 4.35 0.313 5.397 0.645 10.793 1 16.188 0.047 0.919 0.094 1.839 0.142 2.786 0.559 7.786 4.376 12.888 9.858 18.214 4 1.374 4 1.374 8 0 5.829-4.749 9.72-10.255 12.051-17.383 0.949-2.617 0.949-2.617 2.961-6.293 2.203-4.793 2.933-9.21 3.488-14.387 0.933-7.594 2.295-14.714 4.633-22.027 2.406-10.852 2.026-22.308 2.035-33.371 3e-3 -1.43 7e-3 -2.859 0.01-4.332 5e-3 -3.003 7e-3 -6.007 7e-3 -9.01 2e-3 -4.553 0.021-9.106 0.04-13.658 3e-3 -2.938 5e-3 -5.875 5e-3 -8.813 8e-3 -1.339 0.015-2.678 0.022-4.058-0.059-24.783-0.059-24.783-6.252-35.668-0.491-1.658-0.947-3.326-1.375-5-1.51-5.381-4.099-8.683-7.625-13-0.681-1.052-1.361-2.104-2.062-3.188-2.066-2.998-4.27-5.34-6.938-7.812-0.701-0.764-1.403-1.527-2.125-2.313-4.63-2.718-11.923-4.131-15.613 0.488z" fill="#00327D"/>
<path transform="translate(1698.4 264.75)" d="m0 0c1.484-0.026 2.967-0.052 4.496-0.078 9.483 0.765 15.843 7.644 22.066 14.328 1.854 2.8 3.383 5.558 4.817 8.59 1.183 2.41 1.183 2.41 4.183 6.41 0.576 2.543 1.044 5.111 1.438 7.688 1.497 8.767 1.497 8.767 3.625 12.937 5.434 12.27 4.219 26.609 4.168 39.785-1e-3 2.06-2e-3 4.119-1e-3 6.179-2e-3 4.301-0.01 8.601-0.024 12.902-0.017 5.45-0.021 10.9-0.02 16.35 0 4.252-6e-3 8.503-0.013 12.754-3e-3 2.007-5e-3 4.013-6e-3 6.019-8e-3 10.298-0.142 20.574-0.609 30.862-0.038 0.86-0.076 1.719-0.115 2.604-0.335 6.648-1.33 12.947-2.817 19.42-2.017 9.468-3.24 18.796-4.063 28.438-0.902 10.27-2.757 19.209-6.219 28.898-1.329 4.12-1.958 7.867-2.406 12.164-0.606 5.744-2.026 9.808-4.645 14.906-2.266 5.423-3.13 11.199-4.203 16.957-1.108 4.207-2.662 6.59-5.09 10.137-1.089 3.621-1.089 3.621-1.937 7.438-1.466 5.939-3.345 9.67-7.063 14.562-0.329 1.506-0.66 3.011-1 4.562-1.116 4.954-2.803 6.618-6 10.438-0.781 2.344-0.781 2.344-1.437 4.938-1.366 5.193-3.944 8.075-7.563 12.062-1.365 2.65-2.701 5.316-4 8-1.293 1.698-2.625 3.367-4 5-0.618 1.011-1.237 2.021-1.874 3.062-2.373 3.281-4.716 4.807-8.126 6.938-0.618 0.66-1.237 1.32-1.874 2-2.978 2.802-6.479 4.177-10.126 6-0.969 0.846-1.938 1.691-2.937 2.562-3.776 3.006-7.497 3.959-12.063 5.438-0.718 0.643-1.436 1.286-2.175 1.949-3.853 2.798-7.858 3.473-12.449 4.301-0.451 0.084-0.451 0.084-2.728 0.51-11.931 2.128-22.679 0.981-34.648-0.76-0.99-0.121-1.98-0.242-3-0.367-6.278-0.938-9.483-3.294-14-7.633-0.928-0.516-1.856-1.031-2.812-1.562-2.188-1.438-2.188-1.438-3.188-4-0.329-0.805-0.66-1.609-1-2.438-1.66-0.681-3.327-1.347-5-2-1.026-1.651-2.023-3.32-3-5-1.996-1.671-3.996-3.338-6-5-0.66-1.32-1.319-2.64-2-4-4.193-2.097-9.662-1.446-14 0-0.268 0.743-0.536 1.485-0.812 2.25-1.601 3.708-4.059 5.223-7.188 7.75-1.106 1.25-2.19 2.522-3.25 3.812-0.907 1.052-1.815 2.104-2.75 3.188h-2c-0.66 1.32-1.319 2.64-2 4-1.984 1.544-3.972 3.087-6.027 4.535-1.973 1.465-1.973 1.465-4.973 4.465-2.488 0.809-2.488 0.809-5.312 1.438-4.617 1.151-7.819 2.732-11.688 5.562-11.948 2.987-22.042-0.062-33-5-1.258-0.309-2.516-0.619-3.812-0.938-3.872-1.29-4.802-2.831-7.188-6.062l-3-2c-3.091-2.061-4.787-4.05-7-7-0.66-0.639-1.319-1.279-2-1.938-2.393-2.468-4.109-5.196-6-8.062l-3-3c-1.085-2.472-1.951-4.979-2.839-7.527-1.161-2.473-1.161-2.473-3.203-4.457-2.357-2.428-2.691-4.042-3.332-7.328-1.372-5.701-3.558-8.532-7.626-12.688-0.329-0.66-0.66-1.32-1-2-3.25-0.688-3.25-0.688-7 0-1.677 2.243-2.804 4.481-3.957 7.031-0.344 0.65-0.688 1.3-1.043 1.969h-2c-0.724 1.642-1.377 3.316-2 5-2.684 6.174-6.703 10.761-11.5 15.438-2.5 2.562-2.5 2.562-5.062 6.062-5.478 7.46-12.009 16.337-20.438 20.5h-2c-0.66 1.32-1.319 2.64-2 4-3.062 1.5-3.062 1.5-7 3-1.347 0.681-2.694 1.361-4.082 2.062-5.221 2.325-9.887 2.551-15.542 2.438-0.96-9e-3 -1.92-0.018-2.909-0.028-8.258-0.208-15.623-1.917-23.467-4.472-1.484-0.289-2.97-0.577-4.5-0.875-4.569-1.469-7.025-3.837-10.5-7.125-0.649-0.516-1.299-1.031-1.968-1.562-8.697-6.958-15.036-17.068-16.762-28.114-0.171-1.877-0.322-3.756-0.457-5.636-0.039-0.534-0.039-0.534-0.239-3.232-1.641-25.592-0.858-51.321 0.574-76.902 0.676-12.251 0.906-24.448 0.81-36.718-0.01-1.388-0.019-2.775-0.029-4.205-0.053-6.914-0.138-13.825-0.266-20.738-0.028-2.536-0.055-5.072-0.08-7.608-0.033-1.169-0.065-2.337-0.098-3.542-0.05-7.994-0.05-7.994 2.878-11.87 0.87-0.618 1.741-1.236 2.637-1.873 0.867-0.743 1.733-1.485 2.626-2.25 12.36-9.108 40.919-4 55.687-3.438 0.782 0.03 0.782 0.03 4.738 0.176 3.901 0.506 5.896 1.1 8.949 3.512 3.616 5.424 2.31 11.276 1.208 17.414-2.662 12.461-2.662 12.461-4.723 16.711-2.315 6.043-2.71 12.284-3.422 18.687-1.213 10.218-2.631 20.106-5.23 30.071-2.247 11.116-1.981 22.555-1.965 33.847-1e-3 0.777-1e-3 0.777-3e-3 4.706-1e-3 3.256 1e-3 6.513 5e-3 9.769 4e-3 3.342 5e-3 6.683 0 10.024-6e-3 4.834-5e-3 9.668-2e-3 14.501-1e-3 0.751-1e-3 0.751-6e-3 4.552 3e-3 1.379 6e-3 2.759 9e-3 4.18 1e-3 1.217 2e-3 2.435 3e-3 3.69 0.126 2.848 0.126 2.848 1.126 4.848 2.583 0.23 2.583 0.23 5.813 0.188 1.058-7e-3 2.117-0.013 3.207-0.02 2.98-0.168 2.98-0.168 6.98-1.168 0.661-1.32 1.32-2.64 2-4 2.3-2.039 4.636-4.037 7-6 2.749-2.557 4.916-4.873 7-8 2.06-3.09 4.382-5.381 7-8 1.352-1.988 2.687-3.987 4-6 0.991-0.99 1.981-1.98 3-3 0.993-3.004 0.993-3.004 1.876-6.562 1.204-4.516 2.489-8.474 4.75-12.563 1.965-3.634 2.787-6.653 3.312-10.75 0.767-5.819 2.903-10.05 5.68-15.168 1.758-3.76 2.351-7.28 2.765-11.387 0.617-2.57 0.617-2.57 2.653-5.316 2.62-4.339 2.395-7.407 2.277-12.442-0.024-1.581-0.049-3.163-0.074-4.792-0.115-3.24-0.396-6.325-0.786-9.556-0.822-8.95-0.248-17.936 0.071-26.902 0.067-2.021 0.133-4.042 0.198-6.063 0.139-4.281 0.282-8.563 0.428-12.844 0.38-11.154 0.736-22.309 1.089-33.464 0.035-1.101 0.07-2.202 0.106-3.337 0.542-17.127 0.946-34.249 1.171-51.383 0.131-9.824 0.299-19.648 0.484-29.471 0.019-1.018 0.038-2.037 0.058-3.086 0.115-5.862 0.268-11.721 0.479-17.58 0.084-2.513 0.137-5.026 0.188-7.539 0.421-10.07 2.285-18.488 8.275-26.795 2.585-1.685 2.585-1.685 5-3 0.784-1.031 1.568-2.062 2.376-3.125 3.809-4.172 7.544-3.729 12.992-4.112 13.989-0.597 27.914-1.181 41.882 0.049 0.939 0.083 1.877 0.165 2.844 0.25 7.271 0.753 10.926 2.709 15.906 7.938 0.392 0.289 0.392 0.289 2.376 1.75 2.637 3.652 1.293 6.932 0.624 11.25-0.76 2.744-1.575 5.474-2.437 8.188-2.786 9.693-3.663 19.153-4.37 29.183-0.845 11.52-2.436 22.811-4.784 34.112-1.961 9.614-2.522 19.275-2.873 29.064-0.079 2.001-0.158 4.002-0.237 6.004-0.118 3.079-0.234 6.158-0.348 9.238-0.423 11.348-0.982 22.661-1.954 33.977-0.083 0.969-0.166 1.939-0.251 2.938-0.352 3.876-0.8 7.513-1.746 11.296-1.457 14.068-1.216 28.294-1.273 42.418-3e-3 0.625-3e-3 0.625-0.016 3.788-0.027 6.611-0.046 13.223-0.061 19.835-0.013 5.422-0.041 10.844-0.082 16.266-0.049 6.606-0.074 13.212-0.081 19.818-6e-3 2.492-0.022 4.984-0.046 7.476-0.343 37.417-0.343 37.417 8.559 49.399 5.444 4.152 9.138 5.9 16 5 2.5-1.312 2.5-1.312 5-3 1.3-0.413 2.599-0.825 3.938-1.25 4.844-2.087 6.882-4.608 10.062-8.75l3-3c1.063-2.488 1.063-2.488 2-5.312 1.406-4.083 3.03-7.841 5-11.688 0.982-3.927 1.287-7.639 1.546-11.667 0.82-12.596 2.504-24.916 4.69-37.346 0.212-1.227 0.425-2.454 0.643-3.717 0.192-1.067 0.383-2.133 0.581-3.232 1.386-10.349 1.706-20.801 2.005-31.229 0.078-2.501 0.155-5.002 0.233-7.503 0.039-1.286 0.078-2.573 0.118-3.899 0.587-19.164 1.217-38.323 2.247-57.469 0.079-1.506 0.158-3.012 0.24-4.563 0.567-9.983 0.567-9.983 1.697-13.375 0.227-3.694 0.39-7.372 0.508-11.07 0.041-1.208 0.082-2.415 0.125-3.659 0.355-11.276 0.554-22.554 0.744-33.834 0.053-3.194 0.108-6.389 0.164-9.584 0.037-2.167 0.075-4.334 0.112-6.501 0.018-1.083 0.037-2.165 0.056-3.28 0.095-5.571 0.185-11.143 0.266-16.715 0.079-5.472 0.173-10.944 0.275-16.416 0.037-2.066 0.068-4.132 0.093-6.198 0.037-2.868 0.091-5.735 0.149-8.602 0.026-1.625 0.052-3.251 0.079-4.925 0.429-4.207 1.145-6.692 3.429-10.216 3-2 3-2 7.313-3.375 4.687-1.625 4.687-1.625 7.309-3.586 4.558-2.751 8.924-3.431 14.128-4.289 0.939-0.173 1.877-0.345 2.844-0.523 11.163-1.943 20.813-1.653 31.406 2.773 2.938 2.25 2.938 2.25 5 5 0.273 0.294 0.273 0.294 1.653 1.781 3.156 3.607 4.34 5.709 4.41 10.531-0.719 3.174-1.557 6.323-2.5 9.438-1.778 6.175-2.25 12.409-2.795 18.781-1.22 14.109-3.042 28.153-6.119 41.985-1.722 9.254-1.887 18.596-2.244 27.98-0.745 19.392-2.192 38.454-4.956 57.681-3.299 28.09-2.614 56.667-2.579 84.909 6e-3 4.662 2e-3 9.325-3e-3 13.987-4e-3 3.656-3e-3 7.313 0 10.97 0 1.719 0 3.439-3e-3 5.159-0.029 26.83-0.029 26.83 4.074 38.236 0.262 0.741 0.262 0.741 1.59 4.496 0.486 1.342 0.972 2.683 1.472 4.066 0.336 1.123 0.671 2.246 1.016 3.402 1.396 3.684 3.646 4.634 6.984 6.598 0.392 0.371 0.392 0.371 2.376 2.25 3.837 2.558 6.085 2.418 10.624 1.75 5.485-2.756 9.795-6.568 14-11 0.506-0.402 0.506-0.402 3.063-2.438 3.017-2.631 4.795-5.206 6.937-8.562 0.681-0.619 1.362-1.237 2.063-1.875 2.726-2.99 3.547-6.342 4.937-10.125 0.826-1.176 1.651-2.351 2.5-3.562 3.168-4.785 3.77-9.968 4.629-15.559 0.871-3.879 0.871-3.879 2.836-7.973 2.826-6.054 3.287-12.393 4.035-18.968 1.173-9.419 2.529-18.449 5.168-27.579 8.923-36.023 4.532-79.718 3.02-116.42-0.035-0.912-0.07-1.824-0.106-2.763-0.561-14.209-1.314-28.911-5.644-42.55-1.609-5.29-1.944-10.641-2.375-16.125-0.703-8.787-2.429-15.701-6.105-23.797-1.22-3.444-1.707-6.844-2.27-10.453-0.854-4.789-1.615-8.789-4.188-12.938-3.656-6.307-5.715-13.231-5.328-20.574 0.274-0.903 0.547-1.807 0.828-2.738 4.126-2.125 4.126-2.125 6.583-3.059 2.417-0.941 2.417-0.941 6.23-3.129 8.553-4.863 20.065-3.898 29.625-4.062z" fill="#00327D"/>
<path transform="translate(1877.1 421.84)" d="m0 0c4.687 1.87 9.512 2.171 14.508 2.609 4.599 0.748 8.009 2.07 11.238 5.493 6.345 9.203 7.353 14.412 7.359 25.375 0.013 1.007 0.025 2.014 0.038 3.052 0.015 7.652-1.048 14.331-4.163 21.385-1.586 3.794-2.654 7.49-3.562 11.5-1.107 4.733-2.758 7.723-5.5 11.75-0.502 1.78-0.956 3.574-1.375 5.375-0.967 3.91-2.048 6.599-4.563 9.75-3.366 4.26-4.958 7.896-7.062 12.875-1.298 2.353-2.63 4.688-4 7-0.681 1.238-1.361 2.475-2.063 3.75-1.937 3.25-1.937 3.25-4.937 6.25-0.992 2.305-0.992 2.305-1.875 4.875-1.68 4.447-3.66 6.838-7.125 10.125-1.031 2.32-2.029 4.654-3 7-1.647 2.347-3.313 4.681-5 7-0.495 1.031-0.99 2.063-1.5 3.125-1.5 2.875-1.5 2.875-3.938 5.25-3.132 3.209-4.615 6.604-6.562 10.625-1.319 1.678-2.651 3.346-4 5-0.474 0.99-0.949 1.98-1.438 3-1.562 3-1.562 3-4 5.25-4.437 4.762-6.384 10.134-6.824 16.594 0.441 7.001 2.925 13.028 6.262 19.156 3.875 3.125 3.875 3.125 8 5 1.279 0.928 2.557 1.856 3.875 2.813 4.995 2.649 8.586 3.314 14.125 2.187 2.722-1.574 5.39-3.246 8-5 1.734-0.554 3.486-1.054 5.25-1.5 5.023-1.586 5.834-2.438 8.75-6.5 1.031-0.33 2.062-0.66 3.125-1 0.949-0.33 1.897-0.66 2.875-1 0.697-1.654 1.361-3.322 2-5 1.993-1.344 3.994-2.675 6-4 2.483-2.543 4.743-5.255 7-8 4.788-5.79 4.788-5.79 6.891-7.871 5.711-5.764 10.066-11.593 13.109-19.129 1.662-2.003 3.329-4.003 5-6 1.397-2.634 2.737-5.299 4-8l2-4c0.385-2.42 0.684-4.855 0.93-7.293 0.078-0.718 0.078-0.718 0.472-4.35 0.313-3.009 0.621-6.02 0.922-9.031 0.871-7.916 1.946-14.273 5.676-21.326 1.302-3.977 2.156-7.889 2.875-12 1.118-5.828 3.863-10.107 7.125-15 0.247-1.382 0.495-2.764 0.75-4.187 1.104-4.249 1.625-5.673 4.187-8.875 3.08-3.96 4.337-7.284 6.063-11.938 1.626-2.033 3.292-4.035 5-6 0.516-1.031 1.031-2.062 1.562-3.125 1.5-2.999 3.086-4.523 5.438-6.875 0.722-1.196 1.444-2.392 2.187-3.625 5.008-8.152 10.326-14.601 19.586-17.641 2.667-0.879 4.847-2.264 7.227-3.734 9.406-2.352 17.925-0.922 27 2 1.1 0.325 2.199 0.65 3.332 0.984 14.718 4.374 14.718 4.374 19.043 8.016 3.578 2.726 7.356 3.655 11.625 5l6 3c3.761 0.923 7.436 1.219 11.297 1.43 1.206 0.073 2.413 0.147 3.656 0.222 2.515 0.148 5.031 0.289 7.547 0.422 9.926 0.623 17.216 2.163 25.5 7.926 0.629 0.268 0.629 0.268 3.812 1.625 3.188 1.375 3.188 1.375 4.188 3.375 0.595 8.872-0.082 16.976-3.953 25.098-2.307 5.106-3.202 10.142-4.047 15.652-0.996 6.046-2.005 11.791-4.125 17.563-3.052 9.131-3.043 18.935-3.657 28.471-0.334 4.933-0.768 9.855-1.218 14.779-0.081 0.904-0.161 1.808-0.244 2.739-0.499 5.447-1.173 10.844-1.944 16.261-0.891 7.051-0.828 13.41 0.188 20.437 0.107 0.809 0.107 0.809 0.648 4.902 1.394 9.174 2.96 16.984 10.043 23.555 2.309 1.543 2.309 1.543 6.059 2.481 4.124-1.19 5.42-2.704 8.25-5.938 1.493-1.258 2.994-2.507 4.5-3.75 4.537-3.973 6.725-7.932 9.5-13.25 0.866-0.825 1.732-1.65 2.625-2.5 3.239-3.409 3.957-7.061 5.375-11.5 0.639-0.763 1.279-1.526 1.937-2.312 2.772-3.612 3.696-7.405 4.938-11.75 1.125-2.938 1.125-2.938 3.125-5.356 2.485-3.209 3.098-5.952 4-9.894 1.064-4.345 2.017-7.72 4.125-11.688 2.346-5.006 2.765-9.599 3.383-15.059 1.143-9.158 3.457-18.123 5.844-27.027 1.815-8.157 1.99-16.405 2.148-24.726 0.054-1.208 0.108-2.415 0.164-3.659 0.121-7.995-1.219-12.782-5.986-19.243-2.119-2.887-3.297-5.997-4.678-9.286-0.677-0.726-1.354-1.451-2.051-2.199-2.59-3.722-2.483-6.24-2.449-10.738-5e-3 -0.686-5e-3 -0.686-0.031-4.153 0.921-6.784 4.912-10.625 9.781-15.16 0.446-0.425 0.446-0.425 2.703-2.578 6.952-4.956 15.033-4.509 23.234-4.484 1.067-0.017 2.134-0.033 3.233-0.049 1.03-1e-3 2.061-2e-3 3.123-2e-3 0.928-3e-3 1.857-6e-3 2.813-9e-3 5.126 0.722 8.166 3.785 11.644 7.372 0.412 0.289 0.412 0.289 2.5 1.75 2.5 2.25 2.5 2.25 4.375 6.125 2.767 5.371 6.301 9.184 12.125 11.125 9.952 0.468 20.429-1.58 29.25-6.25 5.567-2.598 10.711-2.625 16.75-1.75 3.34 1.338 5.935 3.033 9 5 1.423 0.454 2.846 0.908 4.312 1.375 4.611 2.032 5.64 4.119 7.688 8.625l1 2c0.473 11.279-0.193 22.519-1.188 33.75-0.128 1.471-0.257 2.943-0.39 4.458-0.975 10.186-2.648 19.846-5.336 29.71-2.056 7.728-2.366 15.362-2.633 23.313-0.042 1.216-0.083 2.432-0.126 3.685-0.449 14.286-0.549 28.572-0.567 42.865-0.01 4.6-0.041 9.199-0.073 13.799-6e-3 2.949-0.011 5.897-0.015 8.846-0.013 1.363-0.025 2.727-0.038 4.132 0.02 8.098 0.556 13.774 5.616 20.38 2.75 2.062 2.75 2.062 6.062 2.812 5.283-1.074 7.974-3.997 11.688-7.75 0.866-0.825 1.732-1.65 2.625-2.5 1.849-1.947 3.627-3.961 5.375-6 3-3.5 3-3.5 5.562-5.875 2.629-2.83 4.319-5.828 6.125-9.227 2.936-5.363 6.197-10.238 10.438-14.648 3.368-4.392 4.353-8.241 5.812-13.508 1.597-4.871 3.863-8.242 7.063-12.242l4-1c5.639 5.639 7.952 14.571 8.062 22.438-1.242 4.165-3.049 7.709-5.062 11.562-0.69 1.867-1.355 3.742-2 5.625-1.506 4.283-3.332 7.675-6 11.375-0.237 0.505-0.237 0.505-1.438 3.063-1.78 3.347-3.821 5.321-6.562 7.937-1.09 1.286-2.173 2.578-3.25 3.875-3.224 3.74-6.766 6.661-10.734 9.582-2.016 1.543-2.016 1.543-5.016 4.543-1.114 0.474-2.228 0.949-3.375 1.438-3.625 1.562-3.625 1.562-5.863 3.582-12.617 9.047-41.21 4.355-55.879 2.609-5.14-0.862-7.977-2.309-11.883-5.629-1.613-0.615-3.24-1.195-4.875-1.75-5.691-2.148-8.524-5.494-12.125-10.25-0.949-1.093-1.898-2.186-2.875-3.312-3.41-4.313-3.375-8.001-3.688-13.375-0.041-0.683-0.041-0.683-0.253-4.137-1.284-29.175-1.117-60.418 4.441-89.176 2.909-15.704 2.388-27.334-6.625-41l-3-2v-2c-6.525-0.617-6.525-0.617-10 0-3.5 3.5-3.5 3.5-6 7h-2c-0.242 1.316-0.485 2.632-0.734 3.988-3.024 15.986-3.024 15.986-5.329 21.45-2.103 5.149-2.653 10.394-3.312 15.875-0.959 7.847-2.739 14.169-6.211 21.335-2.049 4.856-2.806 9.785-3.578 14.977-0.948 3.828-2.649 6.12-4.836 9.375-1.154 3.786-2.004 7.582-2.875 11.441-1.178 3.726-2.663 5.592-5.125 8.559-1.125 2.938-1.125 2.938-2 6-1.415 4.537-2.877 7.389-6 11-0.96 2.241-1.92 4.482-2.871 6.727-2.792 5.622-7.68 9.938-12.129 14.273-0.825 0.846-1.65 1.691-2.5 2.563-2.391 2.331-4.888 4.361-7.5 6.437-0.59 0.667-1.181 1.333-1.789 2.02-2.652 2.375-4.563 2.868-8.024 3.605-3.369 0.747-6.585 1.503-9.875 2.563-9.697 2.378-19.732-0.159-29.375-1.813-1.514-0.236-3.028-0.472-4.587-0.715-8.462-1.449-13.981-2.853-20.35-8.66-5.855-2.788-10.533-3.475-17-3-4.998 2.499-6.14 5.282-9 10-2.063 2.25-2.063 2.25-4 4-0.639 0.681-1.279 1.361-1.938 2.063-2.2 2.067-4.48 3.388-7.062 4.937-1.353 1.314-2.689 2.644-4 4-13.955 6.978-46.056 3.302-61-1-2.019-1.304-4.019-2.638-6-4-1.614-0.476-3.241-0.91-4.875-1.312-5.676-1.562-9.044-4.571-13.125-8.688-0.928-0.866-1.856-1.732-2.813-2.625-5.187-5.632-5.187-5.632-5.187-9.375h-2c-1.254-2.59-1.254-2.59-2.563-5.937-2.358-5.984-2.358-5.984-3.437-7.063-5.247-0.411-8.576 0.115-13 3-1.732 1.944-3.399 3.947-5 6-1.647 1.686-3.311 3.356-5 5l-3 3c-0.969 0.474-1.939 0.949-2.938 1.438-3.062 1.562-3.062 1.562-4.812 3.562-3.007 2.673-6.024 3.189-9.859 4.215-3.039 0.998-4.958 2.746-7.391 4.785-22.494 7.425-50.072 5.174-73.25 2.688-1.118-0.118-2.235-0.236-3.387-0.357-5.291-0.646-8.857-1.348-13.363-4.331-2.938-1.905-5.306-3.093-8.688-4.125-8.885-3.863-14.482-10.037-18.312-18.875-0.651-0.722-1.302-1.444-1.973-2.187-2.684-3.724-3.216-7.072-4.09-11.563-2.01-9.868-2.01-9.868-3.625-14.062-3.403-10.86-2.528-22.928-2.312-34.188 0.017-1.183 0.033-2.367 0.051-3.586 0.398-10.502 2.264-20.717 4.081-31.047 1.32-7.624 2.311-15.152 2.868-22.867 0.54-7.174 2.052-13.178 4.777-19.836 1.519-4.552 2.127-9.111 2.723-13.851 0.851-6.665 2.158-12.154 5.316-18.106 1.487-3.399 2.01-6.677 2.621-10.332 1.231-6.932 3.368-10.782 7.563-16.375 0.536-1.258 1.072-2.516 1.625-3.812 1.429-3.314 2.866-4.679 5.375-7.188 0.598-1.299 1.196-2.599 1.812-3.937 2.482-4.609 4.838-6.266 9.188-9.063 1.351-1.315 2.691-2.643 4-4 16.13-8.065 55.469-3.529 71.082 3.836zm-28.445 33.102c-2.049 2.581-3.84 5.302-5.637 8.062l-3 3c-0.746 2.683-1.377 5.398-1.938 8.125-0.977 4.745-2.005 8.754-4.066 13.152-2.577 5.517-3.218 11.167-3.996 17.161-0.944 7.245-2.194 13.529-5.1 20.245-4.117 10.593-5.41 29.27-2.009 40.173 1.109 2.144 1.109 2.144 3.109 4.144 4.411 0.384 7.735 0.633 11.75-1.375 2.719-3.172 4.303-6.471 6.062-10.242 1.188-2.383 1.188-2.383 3.25-4.945 1.856-2.335 2.835-4.281 4-7 1.938-4.438 1.938-4.438 4.938-8.438 0.688-1.895 1.309-3.815 1.875-5.75 1.251-3.974 2.381-6.643 4.687-10.187 2.793-4.655 3.627-8.709 4.688-13.977 0.75-3.086 0.75-3.086 2.812-6.961 2.891-6.154 3.284-12.408 3.938-19.125 0.112-1.072 0.224-2.145 0.34-3.25 1.877-19.753 1.877-19.753-2.34-28.75-9.476-7.107-16.917-1.669-23.363 5.938zm182.36 43.062c-0.339 0.904-0.678 1.807-1.027 2.738-0.973 2.262-0.973 2.262-4.973 4.262-2 2-2 2-3.313 6.75-1.019 3.629-1.681 5.243-4.187 8.188-2.993 3.665-3.678 6.714-4.629 11.281-0.871 2.781-0.871 2.781-2.836 5.57-2.521 3.977-3.163 7.471-4.035 12.086-1.213 6.399-3.061 11.336-6 17.125-0.723 3.176-0.723 3.176-1.063 6.313-0.461 3.949-0.963 7.821-1.722 11.726-3.529 18.48-6.73 44.475 1.785 61.961 2.864 4.04 5.722 7.454 10 10 3.957 0.549 6.037 0.657 9.371-1.617 2.235-2.442 4.46-4.882 6.629-7.383 0.73-0.793 1.459-1.585 2.211-2.402 4.602-5.278 6.996-10.087 8.922-16.801 0.867-2.797 0.867-2.797 2.992-6.672 1.794-3.947 2.315-6.629 2.812-10.875 0.567-4.822 1.461-8.568 3.563-12.937 2.26-4.986 3.047-9.446 3.57-14.887 0.081-0.826 0.161-1.651 0.244-2.501 0.822-8.757 1.352-17.533 1.891-26.311 0.877-14.128 1.877-28.099 4.525-42.03 1.526-8.08 3.075-16.377-1.73-23.584-10.453-5.227-17.271 1.693-23 10z" fill="#00327D"/>
<path transform="translate(1301.9 353.81)" d="m0 0c1.146-0.012 2.292-0.024 3.473-0.037 9.023-0.016 16.118 1.346 24.351 5.228 2.301 0.997 2.301 0.997 7.051 2.371 4.761 1.821 6.298 3.577 9.25 7.626l4 3c2.122 8.034 1.093 18.219-2.937 25.5-0.681 0.824-1.362 1.649-2.063 2.5-0.454 1.031-0.908 2.062-1.375 3.124-2.005 3.548-4.189 4.745-7.625 6.876-0.379 0.415-0.379 0.415-2.297 2.519-3.121 2.864-4.948 3.383-9.078 4.105-1.227 0.225-2.454 0.449-3.719 0.68-0.644 0.115-0.644 0.115-3.906 0.696-1.31 0.291-2.619 0.582-3.969 0.882-11.133 2.472-18.672 1.338-29.492-1.918-3.181-0.867-6.215-1.404-9.476-1.84-5.368-0.868-8.174-3.315-12.063-7.124l-4-2c-2.118-2.637-4.073-5.237-6-8-0.619-0.764-1.237-1.527-1.875-2.313-2.312-5.523-1.71-11.505-0.188-17.187 5.159-8.755 10.834-16.289 20.938-19 3.123-0.881 5.879-1.827 8.875-3.126 7.108-3.007 14.537-2.558 22.125-2.562z" fill="#00327D"/>
<path transform="translate(938.31 352.81)" d="m0 0c1.459-0.012 2.917-0.024 4.42-0.037 10.598-0.014 19.37-0.023 28.268 6.225 0.711 0.175 0.711 0.175 4.312 1.062 5.531 1.746 8.69 5.365 12.117 9.914 2.188 4.212 1.896 6.65 0.586 11.113-0.335 0.961-0.67 1.921-1.015 2.911-0.158 0.567-0.158 0.567-0.954 3.441-1.502 5.336-2.679 9.069-6.046 13.559h-2c-0.66 1.319-1.32 2.639-2 4-2.217 1.042-4.44 2.076-6.711 2.992-2.289 1.008-2.289 1.008-5.165 3.132-7.593 4.556-16.65 4.088-25.25 4.188-0.93 0.018-1.86 0.035-2.818 0.054-9.272-0.01-16.06-2.628-24.056-7.366-1.094-0.392-2.187-0.784-3.313-1.188-5.436-2.672-9.382-6.606-13.687-10.812-1.197-1.135-2.393-2.269-3.626-3.438-3.135-4.704-3.268-8.07-2.374-13.562 1.576-4.81 3.693-8.208 7-12 0.763-1.032 1.526-2.063 2.312-3.126 3.069-3.282 5.518-4.293 9.688-5.874 1.154-0.702 2.309-1.403 3.5-2.126 8.038-4.306 17.927-3.058 26.812-3.062z" fill="#00327D"/>
<path transform="translate(2352,449)" d="m0 0h5c1 1 1 1 1.25 4.438-0.082 1.175-0.165 2.351-0.25 3.562l-3 2c-3.3-3.3-3.61-4.512-4-9l1-1z" fill="#00327D"/>
</svg>
