<?xml version="1.0" encoding="UTF-8"?>
<svg version="1.1" viewBox="0 0 2904 1352" xmlns="http://www.w3.org/2000/svg">
<path transform="translate(2547.1 520.04)" d="m0 0c0.904-7e-3 1.807-0.014 2.738-0.021 3.023-0.013 6.042 0.031 9.065 0.075 2.168 2e-3 4.337 1e-3 6.505-4e-3 5.884-2e-3 11.767 0.045 17.651 0.101 6.15 0.05 12.3 0.055 18.45 0.064 11.645 0.025 23.289 0.091 34.934 0.171 13.257 0.089 26.514 0.133 39.772 0.173 27.271 0.084 54.541 0.225 81.811 0.403 1.213 6.553-0.037 10.646-2.687 16.625-0.753 1.778-1.502 3.558-2.246 5.34-0.361 0.861-0.722 1.722-1.093 2.609-1.663 4.145-2.873 8.403-4.114 12.688-1.275 4.06-3.132 7.852-4.86 11.738-1.048 3.276-2.02 6.569-2.996 9.867-0.868 2.71-1.855 5.189-3.066 7.758-1.496 3.378-2.487 6.218-3.375 9.75-1.006 3.947-2.309 7.449-4.063 11.125-2.143 4.498-3.48 8.862-4.687 13.684-1.183 4.101-2.924 7.921-4.621 11.832-1.501 3.76-2.461 7.567-3.445 11.488-0.747 2.496-0.747 2.496-2.747 6.184-1.977 4.263-2.679 7.641-3.437 12.25-0.975 5.752-2.183 9.796-5.305 14.656-2.273 4.349-3.123 9.17-4.293 13.91-1.144 4.148-3.043 7.652-4.965 11.496-0.704 2.511-1.367 5.033-2 7.563-1.38 5.482-3.198 9.534-6 14.437-1.067 3.717-1.989 7.459-2.925 11.211-1.24 4.372-3.004 8.236-4.989 12.309-1.086 2.48-1.086 2.48-2.086 7.043-0.835 3.706-1.618 5.831-3.375 9.062-2.847 5.354-4.136 10.842-5.589 16.703-1.203 4.265-2.94 8.013-4.879 11.981-1.67 3.885-2.48 7.888-3.414 12-0.743 2.691-0.743 2.691-2.68 6.004-2.703 4.831-3.722 9.761-5.059 15.109-1.17 4.172-3.044 7.723-5.004 11.578-0.517 1.949-0.993 3.908-1.437 5.875-0.921 4.007-2.032 7.331-4 10.938-2.842 5.276-4.09 10.716-5.524 16.507-1.218 4.316-2.99 8.114-4.953 12.129-1.103 2.592-1.634 4.903-2.086 7.676-0.93 4.535-2.337 7.353-4.707 11.258-2.208 4.471-3.138 9.299-4.328 14.121-1.144 4.148-3.043 7.652-4.965 11.496-0.704 2.511-1.367 5.033-2 7.563-1.38 5.482-3.198 9.534-6 14.437-1.091 3.782-2.038 7.589-2.996 11.406-1.171 4.192-2.928 7.778-5.004 11.594-0.536 1.464-1.072 2.929-1.625 4.438-1.375 3.562-1.375 3.562-3.375 4.562-2.871 0.1-5.744 0.131-8.617 0.134-0.902 2e-3 -1.805 4e-3 -2.735 7e-3 -3.044 6e-3 -6.087 5e-3 -9.13 4e-3 -2.174 3e-3 -4.349 7e-3 -6.523 0.01-5.919 9e-3 -11.839 0.012-17.758 0.012-4.933 1e-3 -9.866 5e-3 -14.8 8e-3 -11.633 9e-3 -23.266 0.011-34.899 0.01-12.021 0-24.042 0.01-36.062 0.026-10.304 0.013-20.608 0.019-30.912 0.018-6.162 0-12.323 3e-3 -18.485 0.013-5.791 0.01-11.583 0.01-17.374 3e-3 -2.131-2e-3 -4.262 1e-3 -6.393 7e-3 -2.898 8e-3 -5.796 3e-3 -8.695-5e-3 -0.812 1e-3 -0.812 1e-3 -4.925 2e-3 -3.692-0.249-3.692-0.249-5.692-2.249 0.303-4.646 1.097-6.129 4-10 0.705-2.332 1.321-4.691 1.875-7.062 1.472-5.866 3.393-10.973 6.039-16.387 1.104-2.592 1.635-4.903 2.086-7.676 0.931-4.535 2.338-7.353 4.707-11.258 2.209-4.471 3.139-9.299 4.329-14.121 1.144-4.148 3.043-7.652 4.964-11.496 0.704-2.511 1.367-5.033 2-7.562 1.38-5.483 3.199-9.535 6-14.438 1.094-3.79 2.043-7.607 3-11.434 1.169-4.169 3.067-7.698 5-11.566 0.704-2.511 1.367-5.033 2-7.562 1.38-5.483 3.199-9.535 6-14.438 0.691-2.404 1.331-4.823 1.938-7.25 1.441-5.764 3.311-10.804 5.906-16.129 1.587-3.597 2.462-7.281 3.414-11.086 0.742-2.535 0.742-2.535 2.68-6.285 2.482-5.115 3.678-10.222 5.062-15.719 1.176-4.15 3.074-7.678 5-11.531 0.704-2.511 1.367-5.033 2-7.562 1.38-5.483 3.199-9.535 6-14.438 1.094-3.789 2.042-7.604 3-11.43 1.17-4.174 3.04-7.711 5-11.57 0.681-2.261 1.324-4.533 1.938-6.812 1.218-4.505 2.595-8.613 4.625-12.813 2.308-4.777 3.521-9.459 4.695-14.617 0.742-2.758 0.742-2.758 2.68-6.57 1.96-3.981 2.991-7.465 4.062-11.75 1.38-5.483 3.199-9.535 6-14.438 1.094-3.789 2.042-7.604 3-11.43 1.17-4.174 3.04-7.711 5-11.57 1.071-3.542 2.03-7.108 2.997-10.68 1.219-4.032 3.122-7.557 5.003-11.32 0.518-1.927 0.994-3.866 1.438-5.812 1.193-5.198 3.053-9.605 5.371-14.387 1.654-3.888 2.503-7.843 3.32-11.977 0.871-2.824 0.871-2.824 2.805-5.621 2.54-3.938 3.44-7.6 4.566-12.14 1.505-6.056 3.42-10.675 6.5-16.063 1.072-3.966 1.875-7.937 2.68-11.965 3.067-9.373 6.473-13.042 16.394-12.997z" fill="#FA7D00"/>
<path transform="translate(2360.4 519.87)" d="m0 0c2.571 0.126 2.571 0.126 4.571 2.126-0.155 4.025-0.613 6.444-2.93 9.774-2.279 3.551-3.124 6.504-4.07 10.601-1.42 5.713-3.367 10.359-6 15.625-0.683 2.449-1.324 4.908-1.937 7.375-1.4 5.567-3.18 10.218-5.911 15.238-1.648 3.414-2.433 6.938-3.339 10.606-0.853 2.916-1.993 5.484-3.313 8.219-2.332 4.866-3.565 9.626-4.758 14.871-0.742 2.691-0.742 2.691-2.679 6.004-2.703 4.831-3.722 9.761-5.059 15.109-1.171 4.172-3.045 7.723-5.004 11.578-0.518 1.949-0.994 3.908-1.437 5.875-0.921 4.007-2.032 7.331-4 10.938-2.842 5.276-4.091 10.716-5.524 16.507-1.218 4.316-2.99 8.114-4.953 12.129-1.103 2.592-1.634 4.903-2.086 7.676-0.93 4.535-2.337 7.353-4.707 11.258-2.209 4.471-3.138 9.299-4.328 14.121-1.145 4.148-3.043 7.653-4.965 11.496-0.704 2.511-1.367 5.033-2 7.563-1.38 5.482-3.198 9.534-6 14.437-1.095 3.793-2.043 7.612-3 11.442-1 3.558-1 3.558-3 7.433-2.039 4.206-2.94 7.883-3.937 12.438-1.358 6.136-3.057 11.402-5.84 17.011-1.854 4.056-3.005 8.283-4.258 12.555-0.861 2.786-1.844 5.431-2.965 8.121-1.581 3.799-2.83 7.617-4 11.563-1.142 3.829-2.362 7.447-4.062 11.062-1.517 3.424-2.528 6.353-3.438 9.938-0.88 3.45-1.78 5.979-3.437 9.187-1.932 3.981-2.987 7.479-4.063 11.75-1.43 5.658-3.355 10.291-6 15.5-1.333 4.015-2.555 8.056-3.777 12.106-1.226 3.904-2.673 7.622-4.254 11.39-1.572 4.062-2.741 8.242-3.942 12.426-1.027 3.078-1.027 3.078-2.562 6.113-1.447 2.929-2.171 5.468-2.84 8.653-1.217 5.18-3.047 9.596-5.363 14.367-1.936 4.518-3.08 9.216-4.27 13.976-0.992 2.969-0.992 2.969-3.992 5.969-4.417 1.104-8.148 1.126-12.706 1.127-0.888 2e-3 -1.776 3e-3 -2.691 5e-3 -2.982 4e-3 -5.963 1e-3 -8.945-2e-3 -2.136 1e-3 -4.271 3e-3 -6.406 5e-3 -5.803 4e-3 -11.607 3e-3 -17.41-1e-3 -6.065-2e-3 -12.13 0-18.195 2e-3 -10.184 2e-3 -20.368-1e-3 -30.551-6e-3 -11.788-5e-3 -23.576-3e-3 -35.364 2e-3 -10.109 5e-3 -20.218 5e-3 -30.326 3e-3 -6.043-2e-3 -12.086-2e-3 -18.129 1e-3 -5.678 3e-3 -11.357 1e-3 -17.035-4e-3 -2.089-2e-3 -4.178-1e-3 -6.267 1e-3 -2.841 2e-3 -5.682-1e-3 -8.523-6e-3 -0.797 0-0.797 0-4.828-1e-3 -3.624-0.126-3.624-0.126-5.624-1.126-1.066-6.927 1.442-11.479 4.418-17.5 2.079-4.6 3.288-9.285 4.582-14.152 1.232-4.124 2.986-7.838 4.848-11.707 1.537-3.522 2.408-7.105 3.34-10.824 1.184-4.106 2.927-7.929 4.625-11.844 1.13-2.831 1.948-5.582 2.687-8.535 1.233-4.884 3.149-9.154 5.313-13.688 1.548-3.586 2.431-7.223 3.375-11.004 0.857-2.898 2-5.463 3.312-8.183 2.319-4.847 3.569-9.582 4.758-14.805 0.742-2.758 0.742-2.758 2.68-6.57 1.937-3.933 2.949-7.33 4-11.563 1.396-5.558 3.182-10.164 5.91-15.172 1.726-3.676 2.451-7.498 3.34-11.445 1.083-4.009 2.82-7.552 4.621-11.281 1.59-3.64 2.486-7.348 3.449-11.192 0.742-2.535 0.742-2.535 2.68-6.285 1.908-3.933 2.944-7.344 4-11.562 1.44-5.729 3.327-10.718 5.91-16.008 1.243-2.891 1.961-5.675 2.652-8.742 1.124-4.961 2.909-8.912 5.309-13.368 1.757-3.791 2.532-7.715 3.449-11.777 0.742-2.793 0.742-2.793 2.68-6.605 1.96-3.98 2.991-7.465 4.062-11.75 1.38-5.483 3.198-9.535 6-14.438 1.069-3.72 1.992-7.467 2.93-11.223 1.22-4.307 2.961-8.088 4.918-12.097 1.243-2.891 1.961-5.675 2.652-8.742 1.124-4.961 2.909-8.912 5.309-13.368 1.757-3.791 2.532-7.715 3.449-11.777 0.742-2.793 0.742-2.793 2.68-6.605 1.96-3.98 2.991-7.465 4.062-11.75 1.38-5.483 3.198-9.535 6-14.438 0.689-2.425 1.33-4.865 1.938-7.312 1.396-5.591 3.161-10.252 5.906-15.289 1.678-3.482 2.487-7.09 3.414-10.829 0.742-2.57 0.742-2.57 2.68-6.32 1.931-3.981 2.986-7.479 4.062-11.75 1.422-5.642 3.325-10.322 6-15.5 0.821-2.846 1.536-5.694 2.191-8.582 0.809-2.418 0.809-2.418 3.809-5.418 3.71-0.385 3.71-0.385 8.483-0.399 0.876-6e-3 1.752-0.013 2.655-0.02 2.948-0.018 5.896-0.016 8.844-0.013 2.109-9e-3 4.218-0.02 6.326-0.031 5.738-0.028 11.476-0.037 17.213-0.043 5.999-9e-3 11.998-0.036 17.997-0.06 11.372-0.044 22.744-0.072 34.116-0.095 12.92-0.027 25.839-0.071 38.759-0.117 20.079-0.07 40.158-0.131 60.237-0.178 1.01-2e-3 2.019-4e-3 3.059-7e-3 17.405-0.04 17.405-0.04 20.74-0.163z" fill="#FA7D00"/>
<path transform="translate(1767.7 519.85)" d="m0 0c2.167 1e-3 4.333-2e-3 6.5-9e-3 5.884-7e-3 11.767 0.047 17.651 0.113 6.15 0.059 12.299 0.062 18.449 0.071 10.323 0.023 20.646 0.082 30.969 0.167 14.579 0.119 29.158 0.177 43.737 0.221 19.506 0.061 39.012 0.142 58.517 0.292 2.118 0.016 4.237 0.03 6.355 0.042 2.879 0.018 5.758 0.041 8.636 0.067 1.615 0.012 3.23 0.024 4.894 0.036 3.545 0.151 3.545 0.151 4.545 1.151 0.409 5.497-0.626 9.364-2.688 14.438-2.171 5.517-4.117 11.005-5.812 16.687-1.963 6.458-4.412 12.527-7.156 18.688-1.197 2.839-2.138 5.599-2.969 8.562-1.375 4.625-1.375 4.625-3.313 8.375-2.358 4.861-3.652 9.68-5.066 14.879-1.017 3.442-2.386 6.598-3.93 9.836-1.999 4.752-3.342 9.736-4.84 14.664-1 3.158-2.086 6.189-3.351 9.246-1.307 3.223-2.374 6.186-3.313 9.5-1.096 3.828-2.482 7.408-4.062 11.063-2.061 4.793-3.481 9.513-4.758 14.562-0.742 2.5-0.742 2.5-2.68 6.25-1.931 3.981-2.986 7.479-4.062 11.75-1.43 5.658-3.355 10.291-6 15.5-1.332 4.012-2.553 8.051-3.774 12.098-1.243 3.956-2.723 7.72-4.328 11.539-0.999 2.63-1.704 5.262-2.398 7.988-0.874 3.377-1.775 5.915-3.375 9.063-2.619 5.315-4.19 10.746-5.899 16.41-1.243 3.956-2.723 7.72-4.328 11.539-0.999 2.63-1.704 5.262-2.398 7.988-0.886 3.432-1.809 5.983-3.438 9.188-2.389 4.852-3.652 9.674-5.062 14.879-1 3.308-1 3.308-3 7.246-1.923 3.905-2.94 7.357-4 11.562-1.43 5.658-3.355 10.291-6 15.5-1.327 4.037-2.549 8.099-3.774 12.168-0.963 3.009-1.991 5.744-3.351 8.582-1.568 3.553-2.507 6.567-3.375 10.313-1.191 5.117-3.146 9.229-5.5 13.937-0.702 2.323-1.366 4.658-2 7-1.079 3.983-2.123 7.242-4 10.938-2.48 5.036-3.635 10.11-5 15.539-1 3.523-1 3.523-3 7.398-2.039 4.206-2.94 7.883-3.938 12.438-1.366 6.191-3.082 11.504-5.929 17.148-1.197 2.682-1.746 5.165-2.321 8.039-1.724 7.041-6.623 11.676-11.812 16.5-8.798 4.399-22.156 2.14-31.83 2.13-2.008 1e-3 -4.016 3e-3 -6.024 5e-3 -5.429 4e-3 -10.859 3e-3 -16.288-1e-3 -5.684-2e-3 -11.369 0-17.053 2e-3 -9.536 2e-3 -19.072-1e-3 -28.608-6e-3 -11.035-5e-3 -22.07-3e-3 -33.104 2e-3 -9.477 5e-3 -18.953 6e-3 -28.429 3e-3 -5.659-2e-3 -11.319-2e-3 -16.978 1e-3 -5.313 3e-3 -10.625 1e-3 -15.937-4e-3 -1.953-2e-3 -3.907-1e-3 -5.861 1e-3 -2.657 3e-3 -5.313-1e-3 -7.97-6e-3 -0.745 0-0.745 0-4.514-1e-3 -3.404-0.126-3.404-0.126-5.404-1.126 1.237-6.635 3.286-12.597 5.773-18.867 1.565-3.996 2.888-8.057 4.227-12.133 1.309-3.675 2.656-7.337 4-11 0.667-1.833 1.334-3.666 2-5.5 0.329-0.902 0.657-1.805 0.996-2.734 0.684-1.884 1.363-3.77 2.039-5.657 1.39-3.867 2.769-7.676 4.465-11.421 1.402-3.447 2.394-6.79 3.375-10.375 1.586-5.731 3.597-11.06 5.969-16.504 1.405-3.415 2.402-6.873 3.402-10.422 0.796-2.519 1.785-4.859 2.879-7.262 2.68-5.896 2.896-10.082 2.519-16.371 0.463-3.58 2.071-5.009 4.356-7.754 1.125-2.98 1.125-2.98 2-6.187 1.143-3.977 2.329-7.813 3.937-11.625 1.767-4.241 3.115-8.539 4.438-12.938 1.991-6.523 4.446-12.646 7.215-18.871 1.824-4.371 3.153-8.822 4.48-13.363 1.102-3.574 2.494-6.969 3.93-10.418 1.16-3.015 2.081-6.064 3-9.16 1.142-3.83 2.361-7.448 4.062-11.063 1.486-3.355 2.485-6.182 3.375-9.687 1.306-5.103 3.217-9.752 5.305-14.579 1.723-4.259 2.99-8.617 4.293-13.019 1.129-3.615 2.515-7.068 3.965-10.563 1.112-2.811 2.062-5.652 3-8.527 1.21-3.71 2.504-7.333 4-10.937 1.572-3.821 2.824-7.665 4-11.625 1.605-5.372 3.722-10.312 6-15.438 1.053-3.255 2.027-6.529 3-9.808 1.137-3.63 2.54-7.086 4-10.594 1.16-3.015 2.081-6.064 3-9.16 1.605-5.372 3.722-10.312 6-15.438 1.052-3.251 2.025-6.521 2.996-9.797 1.16-3.701 2.585-7.234 4.074-10.812 0.941-2.418 1.668-4.831 2.367-7.328 1.045-3.644 2.373-6.952 4-10.375 2.394-5.074 4.023-10.2 5.602-15.575 1.1-3.563 2.465-6.948 3.898-10.386 1.766-4.531 3.174-9.18 4.622-13.821 0.475-1.289 0.951-2.578 1.441-3.906 0.167-0.834 0.333-1.669 0.505-2.528 3.396-11.388 15.5-8.792 25.242-8.623z" fill="#FA7D00"/>
<path transform="translate(419.29 520.82)" d="m0 0c1.323 0.07 2.646 0.14 4.009 0.211 8.156 0.531 15.799 1.919 23.704 3.971 1.446 0.339 2.893 0.678 4.383 1.028 7.75 1.885 15.223 3.978 22.617 6.972 0.596 0.239 0.596 0.239 3.61 1.446 5.764 2.38 10.6 4.517 15.39 8.554 1.196 0.722 2.393 1.444 3.625 2.188 5.548 3.398 10.41 7.629 15.375 11.812 1.238 1.011 2.475 2.022 3.75 3.063 3.752 3.391 7.021 7.06 10.25 10.937 0.736 0.872 1.472 1.743 2.231 2.641 7.017 8.416 12.608 16.166 16.496 26.465 1.273 2.894 1.273 2.894 3.297 5.715 2.431 3.912 3.108 7.352 3.976 11.867 1.277 6.217 2.73 11.998 5.168 17.855 2.147 6.34 2.113 13.138 2.395 19.77 0.041 0.967 0.083 1.934 0.126 2.93 0.877 21.781 1.127 42.517-6.72 63.085-0.964 2.659-1.727 5.32-2.469 8.047-1.432 4.418-2.689 6.133-5.5 9.625-0.688 1.797-1.329 3.612-1.937 5.438-1.628 4.768-3.648 7.806-7.063 11.562-0.577 1.052-1.155 2.104-1.75 3.188-9.998 16.941-25.188 30.913-41.754 41.183-2.496 1.629-2.496 1.629-5.621 4.317-3.721 2.993-7.484 4.43-11.875 6.312l-4 3c-0.454 0.114-0.454 0.114-2.75 0.688-0.742 0.433-1.485 0.866-2.25 1.312-0.625 3.813-0.625 3.813 0 8 1.638 1.695 3.309 3.358 5 5 1.493 2.172 2.928 4.383 4.313 6.625 2.863 4.558 5.794 8.989 9 13.313 2.877 3.889 5.362 7.813 7.687 12.062 2.891 4.793 5.933 9.345 9.324 13.797 4.973 6.538 9.658 13.029 13.676 20.203 1.313 1.683 2.646 3.35 4 5 1.333 2 2.667 4 4 6 0.681 0.825 1.361 1.65 2.063 2.5 1.937 2.5 1.937 2.5 3.312 5.313 2.085 4.09 4.819 7.578 7.625 11.187 3.979 5.164 7.582 10.446 11 16 2.86 4.435 5.801 8.738 9 12.938 8.636 11.515 8.636 11.515 9.688 18.875-0.8 4.872-1.751 6.301-5.688 9.187-4.547 2.38-8.688 2.248-13.762 2.243-0.873 2e-3 -1.745 4e-3 -2.643 6e-3 -2.88 4e-3 -5.759-7e-3 -8.638-0.018-2.009-1e-3 -4.018-2e-3 -6.027-2e-3 -4.213-1e-3 -8.425-9e-3 -12.637-0.023-5.379-0.017-10.757-0.021-16.136-0.02-4.151 0-8.303-6e-3 -12.454-0.013-1.982-3e-3 -3.964-5e-3 -5.946-6e-3 -2.782-2e-3 -5.565-0.011-8.347-0.021-1.58-4e-3 -3.159-8e-3 -4.786-0.012-13.45-0.389-13.45-0.389-17.874-3.196-4.448-4.752-8.076-9.884-11.625-15.313-2.76-4.193-5.82-8.062-8.984-11.957-5.146-6.413-10.035-13.024-14.703-19.793-2.34-3.38-4.789-6.617-7.375-9.812-6.179-7.636-11.811-15.442-16.766-23.926-1.56-2.57-3.391-4.814-5.297-7.137-3.236-4.604-6.218-9.332-9.062-14.187-2.336-3.944-4.963-7.317-7.938-10.813-3.841-5.39-7.272-11.025-10.617-16.734-1.383-2.266-1.383-2.266-3.633-5.203-5.536-9.689-4.06-22.44-4.051-33.266-4e-3 -1.851-8e-3 -3.701-0.013-5.552-7e-3 -3.86-7e-3 -7.719-2e-3 -11.579 6e-3 -4.935-0.011-9.869-0.034-14.804-0.015-3.814-0.015-7.628-0.012-11.443-1e-3 -1.819-6e-3 -3.639-0.016-5.458-0.013-2.543-4e-3 -5.086 6e-3 -7.63-1e-3 -1.443-1e-3 -2.887-2e-3 -4.374 0.563-5.95 2.152-9.734 6.374-13.957 3.594-1.198 6.586-1.178 10.379-1.246 0.74-0.016 0.74-0.016 4.482-0.099 3.107-0.061 6.214-0.118 9.321-0.172 11.528-0.265 20.478-1.074 30.818-6.483 1.868-0.665 3.744-1.31 5.625-1.937 4.674-1.659 7.751-3.6 11.375-7.063 1.373-1.169 2.748-2.335 4.125-3.5 3.036-2.584 5.449-5.335 7.875-8.5 0.588-0.758 1.176-1.516 1.781-2.297 7.502-10.707 10.67-24.211 8.873-37.204-0.478-2.647-1.039-5.255-1.654-7.874-0.107-0.459-0.107-0.459-0.649-2.784-1.715-6.699-4.216-11.691-8.777-16.977-1.574-1.864-1.574-1.864-1.574-3.864l-4-2c-2.664-2.591-5.242-5.253-7.812-7.937-5.656-4.853-13.264-6.663-20.188-9.063-0.7-0.349-1.4-0.699-2.122-1.059-4.179-1.366-8.313-1.266-12.666-1.291-0.981-0.013-1.962-0.027-2.973-0.04-3.241-0.041-6.482-0.068-9.723-0.094-2.258-0.024-4.517-0.048-6.775-0.073-4.734-0.05-9.468-0.093-14.203-0.131-6.053-0.049-12.107-0.116-18.16-0.188-4.666-0.054-9.331-0.098-13.996-0.139-2.231-0.021-4.462-0.045-6.693-0.072-3.128-0.037-6.255-0.06-9.383-0.08-0.457-6e-3 -0.457-6e-3 -2.769-0.04-5.872-0.019-10.975 0.388-16.537 2.207-1.958 3.541-2.245 6.596-2.227 10.593 0 1.113 0 2.226 1e-3 3.373 0.01 1.212 0.02 2.423 0.031 3.672 3e-3 1.283 6e-3 2.566 9e-3 3.889 7e-3 2.785 0.02 5.571 0.036 8.356 0.025 4.404 0.038 8.807 0.048 13.211 0.023 9.344 0.061 18.687 0.102 28.031 0.047 10.833 0.088 21.665 0.112 32.497 0.013 4.347 0.038 8.694 0.063 13.041 8e-3 2.653 0.014 5.306 0.02 7.959 0.011 1.216 0.021 2.431 0.032 3.684v3.356c5e-3 0.964 9e-3 1.928 0.014 2.922-0.241 2.416-0.241 2.416-2.241 5.416-2.436-0.057-2.436-0.057-5-1-1.618-1.775-1.618-1.775-3.015-4.086-0.525-0.843-1.049-1.686-1.589-2.554-0.543-0.903-1.086-1.805-1.646-2.735-4.204-6.733-8.466-13.074-13.633-19.121-5.275-6.239-10.041-12.907-14.679-19.629-2.935-4.236-6.089-8.239-9.332-12.242-5.126-6.409-10.01-13.002-14.668-19.758-2.951-4.263-6.135-8.282-9.399-12.308-5.447-6.856-10.432-14.07-15.398-21.278-2.402-3.35-4.999-6.52-7.641-9.683-0.33-0.399-0.33-0.399-2-2.418-0.33-0.395-0.33-0.395-2-2.395-4.577-6.391-6.501-11.601-6.517-19.468-7e-3 -0.828-0.014-1.655-0.022-2.507-0.017-2.71-6e-3 -5.42 8e-3 -8.13-3e-3 -1.898-7e-3 -3.795-0.012-5.693-6e-3 -3.967 3e-3 -7.934 0.022-11.902 0.022-5.071 9e-3 -10.14-0.015-15.211-0.014-3.916-9e-3 -7.831 1e-3 -11.746 3e-3 -1.869-1e-3 -3.738-0.01-5.607-0.01-2.618 5e-3 -5.235 0.028-7.853 3e-3 -1.486 6e-3 -2.972 9e-3 -4.503 0.769-6.312 3.032-10.697 7.508-15.173 3.585-0.39 3.585-0.39 8.18-0.412 0.845-8e-3 1.689-0.016 2.559-0.024 2.841-0.024 5.682-0.026 8.523-0.028 2.034-0.012 4.068-0.026 6.102-0.04 5.543-0.037 11.086-0.054 16.63-0.068 5.827-0.016 11.654-0.049 17.481-0.078 9.82-0.048 19.64-0.084 29.46-0.113 11.268-0.033 22.535-0.084 33.803-0.145 10.897-0.059 21.794-0.105 32.691-0.146 4.602-0.017 9.204-0.039 13.806-0.064 20.7-0.107 41.376-0.203 62.052 0.936z" fill="#4B4B4B"/>
<path transform="translate(977.26 519.84)" d="m0 0c0.961-5e-3 1.922-0.01 2.913-0.015 3.192-0.015 6.385-0.021 9.577-0.027 2.218-6e-3 4.435-0.012 6.653-0.017 4.658-0.011 9.316-0.017 13.974-0.02 5.956-6e-3 11.912-0.03 17.868-0.058 4.586-0.019 9.171-0.024 13.757-0.025 2.195-3e-3 4.389-0.011 6.584-0.025 3.08-0.017 6.16-0.015 9.24-8e-3 0.45-5e-3 0.45-5e-3 2.726-0.028 7.112 0.046 13.826 0.869 19.116 5.951 0.686 0.988 1.372 1.977 2.078 2.996 0.74 1.063 1.48 2.127 2.242 3.222 2.676 4.284 4.852 8.649 7.008 13.215 0.99 1.32 1.98 2.64 3 4 0.974 2.209 1.947 4.418 2.899 6.637 1.703 3.655 3.942 6.962 6.101 10.363 1.35 2.659 2.684 5.325 4 8 2.327 4.252 4.854 8.318 7.5 12.375 2.189 3.402 4.1 6.717 5.688 10.438 1.645 3.802 3.51 6.769 5.812 10.187 1.181 2.329 2.359 4.659 3.508 7.004 1.819 3.653 3.71 7.263 5.617 10.871 0.663 1.256 1.325 2.511 2.008 3.805 1.867 3.32 1.867 3.32 4.867 7.32 1 2.258 1.998 4.516 2.973 6.785 1.027 2.215 1.027 2.215 2.902 5.028 2.541 3.811 4.468 7.794 6.484 11.902 2.22 4.445 4.59 8.8 6.993 13.148 1.648 3.137 1.648 3.137 2.922 6.18 1.164 2.77 1.164 2.77 3.726 6.957 3.895 0.699 3.895 0.699 8 0 2.391-3 2.391-3 4.25-7 0.331-0.688 0.331-0.688 2.004-4.168 0.576-1.264 1.152-2.529 1.746-3.832 0.722-1.423 1.444-2.846 2.188-4.312 0.598-1.217 1.196-2.434 1.812-3.688 2.842-5.775 5.795-11.416 9-17l2-4c1.222-2.444 2.495-4.866 3.852-7.238 5.001-8.757 9.674-17.725 14.148-26.762 2.497-5.035 5.074-10.025 7.688-15 0.746-1.423 1.492-2.846 2.261-4.312 2.051-3.688 2.051-3.688 5.051-7.688 1.157-2.28 2.309-4.563 3.434-6.859 2.599-5.211 5.359-10.336 8.093-15.477 1.716-3.227 3.414-6.462 5.102-9.703 0.437-0.838 0.875-1.676 1.325-2.539 0.839-1.607 1.675-3.216 2.508-4.826 4.241-8.116 8.057-15.019 15.538-20.596 4.46-1.115 8.611-1.163 13.171-1.177 0.928-6e-3 1.855-0.013 2.81-0.02 3.067-0.019 6.133-0.031 9.199-0.041 0.524-2e-3 0.524-2e-3 3.175-0.012 5.545-0.021 11.089-0.036 16.633-0.045 5.725-0.011 11.451-0.046 17.176-0.085 4.404-0.026 8.809-0.035 13.213-0.038 2.111-5e-3 4.222-0.017 6.332-0.035 2.954-0.025 5.907-0.024 8.861-0.017 0.87-0.013 1.74-0.025 2.636-0.039 5.434 0.047 8.651 0.956 12.794 4.509 1.889 4.731 0.942 9.685-0.943 14.319-3.243 6.903-6.968 13.556-11.205 19.896-1.829 2.751-3.291 5.5-4.727 8.473-6.925 14.076-6.925 14.076-11.25 20.437-1.875 2.875-1.875 2.875-3.875 7.375-1.737 3.908-3.628 6.979-6 10.5-1.188 2.343-2.372 4.688-3.527 7.047-3.02 6.056-6.275 11.99-9.473 17.953-1.355 2.542-2.709 5.083-4.062 7.625-2.448 4.59-4.905 9.173-7.375 13.75-2.713 5.029-5.393 10.074-8.063 15.125-1.5 2.834-3 5.667-4.5 8.5-0.328 0.621-0.328 0.621-1.988 3.762-0.602 1.13-1.204 2.261-1.824 3.426-0.522 0.983-1.045 1.967-1.582 2.98-1.606 2.832-1.606 2.832-3.68 5.914-1.926 2.918-1.926 2.918-3.926 7.418-1.732 3.898-3.651 6.977-6 10.5l-2 4.5c-1.737 3.908-3.628 6.979-6 10.5-1.187 2.34-2.37 4.682-3.523 7.039-4.098 8.217-8.556 16.256-12.914 24.336-2.713 5.029-5.393 10.074-8.063 15.125-1.5 2.834-3 5.667-4.5 8.5-0.656 1.241-1.312 2.483-1.988 3.762-0.602 1.13-1.204 2.261-1.824 3.426-0.522 0.983-1.045 1.967-1.582 2.98-1.606 2.832-1.606 2.832-3.672 5.875-1.754 2.682-2.944 5.095-4.059 8.082-1.165 3.092-2.388 5.902-3.875 8.875-0.253 2.95-0.253 2.95-0.258 6.457-4e-3 0.665-4e-3 0.665-0.021 4.031 3e-3 1.458 5e-3 2.917 8e-3 4.419-5e-3 1.537-0.011 3.074-0.016 4.658-0.01 3.343-0.017 6.686-0.018 10.029-2e-3 5.292-0.02 10.583-0.041 15.874-0.049 13.147-0.08 26.294-0.101 39.441-0.016 10.21-0.039 20.421-0.083 30.631-0.022 5.254-0.03 10.509-0.028 15.763-2e-3 4.048-0.023 8.095-0.041 12.143 4e-3 1.448 9e-3 2.896 0.014 4.388-0.053 7.335-0.302 13.461-3.415 20.166-6.002 4.502-12.079 4.125-19.387 4.13-1.416 3e-3 -2.832 6e-3 -4.29 9e-3 -0.756-1e-3 -0.756-1e-3 -4.581-6e-3 -0.788 0-0.788 0-4.775 3e-3 -3.33 1e-3 -6.66-1e-3 -9.99-5e-3 -4.229-6e-3 -8.458-3e-3 -12.688 3e-3 -4.078 5e-3 -8.156 1e-3 -12.234-1e-3 -1.5 2e-3 -2.999 4e-3 -4.544 6e-3 -25.23-0.055-25.23-0.055-29.761-3.889-2.812-5.222-4-8.903-3.995-14.883-4e-3 -1.344-8e-3 -2.688-0.012-4.073 3e-3 -0.734 3e-3 -0.734 0.018-4.45-2e-3 -1.552-4e-3 -3.104-7e-3 -4.703-3e-3 -3.373-3e-3 -6.746 2e-3 -10.119 8e-3 -5.343-3e-3 -10.686-0.017-16.028-0.038-15.192-0.056-30.384-0.044-45.577 6e-3 -8.392-6e-3 -16.784-0.037-25.177-0.018-5.301-0.015-10.602 4e-3 -15.904 9e-3 -4.091-0.015-8.182-0.034-12.274 0.012-1.454 0.023-2.909 0.035-4.407-0.111-12.314-3.298-20.836-10.663-30.655-1.366-2.65-2.7-5.317-4-8l-2-3.5c-1.415-2.476-2.74-5.004-4-7.562-2-3.938-2-3.938-4-6.938-2.347-3.52-4.109-7.218-6-11-0.639-0.949-1.279-1.897-1.937-2.875-2.218-3.36-3.942-6.8-5.711-10.41-3.052-6.131-6.34-12.1-9.977-17.902-2.391-3.838-4.354-7.771-6.375-11.813l-2-3c-2.35-3.525-4.107-7.21-6-11-1.421-2.572-2.859-5.134-4.312-7.687-3.457-6.101-6.818-12.24-10.082-18.446-1.606-2.867-1.606-2.867-3.555-5.734-2.345-3.582-4.162-7.293-6.051-11.133-1.421-2.572-2.859-5.134-4.312-7.687-3.494-6.164-6.885-12.369-10.18-18.641-1.508-2.672-1.508-2.672-4.508-6.672-0.847-1.586-1.659-3.191-2.437-4.812-2.012-4.176-4.241-8.177-6.563-12.188-7.981-13.827-7.981-13.827-10.25-18.562-1.75-3.438-1.75-3.438-3.75-5.938-2.6-3.249-4.187-6.76-6-10.5-1.323-2.339-2.658-4.672-4-7-2.259-3.992-4.508-7.988-6.738-11.996-1.351-2.392-2.734-4.766-4.18-7.102-3.779-6.238-5.56-11.575-4.082-18.902 4.079-5.711 8.751-5.153 15.264-5.161z" fill="#4B4B4B"/>
<path transform="translate(587.81 519.87)" d="m0 0c0.609-2e-3 0.609-2e-3 3.693-0.012 0.673 1e-3 0.673 1e-3 4.078 3e-3 1.424-3e-3 2.848-6e-3 4.316-9e-3 3.962-7e-3 7.925-0.01 11.888-0.011 4.27-1e-3 8.54-9e-3 12.81-0.016 9.341-0.013 18.681-0.019 28.022-0.024 5.83-3e-3 11.659-7e-3 17.489-0.011 16.132-0.012 32.265-0.023 48.398-0.026 1.032 0 2.065-1e-3 3.129-1e-3h3.138c2.098-1e-3 4.196-1e-3 6.294-2e-3h3.154c16.87-4e-3 33.741-0.022 50.612-0.045 17.311-0.024 34.622-0.036 51.932-0.038 9.724 0 19.447-6e-3 29.171-0.024 8.278-0.016 16.556-0.021 24.835-0.013 4.225 4e-3 8.45 2e-3 12.676-0.011 4.576-0.012 9.152-7e-3 13.729 4e-3 0.671-4e-3 0.671-4e-3 4.065-0.024 1.223 6e-3 2.447 0.013 3.708 0.019 1.057 0 2.113-1e-3 3.202-1e-3 3.304 0.432 5.174 1.428 7.855 3.373 1.547 2.122 1.547 2.122 2.75 4.438 0.408 0.762 0.815 1.524 1.235 2.309 1.813 4.023 2.144 7.628 2.161 11.965 3e-3 0.574 3e-3 0.574 0.019 3.481 1e-3 0.619 1e-3 0.619 3e-3 3.753 4e-3 1.28 7e-3 2.56 0.01 3.879 5e-3 2.712 8e-3 5.424 8e-3 8.135 2e-3 4.128 0.02 8.256 0.039 12.384 3e-3 2.638 5e-3 5.276 6e-3 7.914 7e-3 1.227 0.014 2.453 0.022 3.717-0.03 11.404-1.224 19.801-8.253 29.025-3.777 1.889-8.456 1.173-12.628 1.19-1.106 8e-3 -2.212 0.016-3.351 0.025-2.407 0.017-4.815 0.033-7.222 0.046-3.807 0.021-7.614 0.048-11.421 0.076-8.084 0.06-16.168 0.112-24.253 0.163-9.358 0.06-18.716 0.122-28.074 0.192-3.756 0.027-7.512 0.048-11.268 0.068-2.298 0.017-4.597 0.034-6.895 0.051-1.049 4e-3 -2.097 8e-3 -3.178 0.013-4.103 0.035-7.711 0.177-11.71 1.176 0 0.368 0 0.368-3e-3 2.227-0.058 43.548-0.132 87.096-0.226 130.64-0.011 5.23-0.022 10.459-0.033 15.689-2e-3 1.041-4e-3 2.082-7e-3 3.155-0.035 16.855-0.06 33.709-0.081 50.564-0.022 17.296-0.055 34.592-0.098 51.888-0.027 10.672-0.045 21.343-0.051 32.015-5e-3 7.319-0.021 14.638-0.046 21.957-0.014 4.222-0.022 8.443-0.02 12.665 2e-3 4.582-0.015 9.163-0.036 13.744 3e-3 0.665 3e-3 0.665 0.015 4.027-0.076 9.92-0.973 19.985-8.414 27.425-10.282 1.252-20.68 1.147-31.019 1.133-0.79 1e-3 -0.79 1e-3 -4.785 3e-3 -3.316 1e-3 -6.631 0-9.946-5e-3 -4.228-6e-3 -8.455-3e-3 -12.682 3e-3 -4.071 5e-3 -8.141 2e-3 -12.212-1e-3 -1.507 2e-3 -3.013 4e-3 -4.565 6e-3 -19.329-0.043-19.329-0.043-23.291-3.014-2.583-3.66-2.627-6.673-2.636-11.03-4e-3 -1.24-9e-3 -2.481-0.014-3.759-1e-3 -1.371-1e-3 -2.741-1e-3 -4.153-2e-3 -0.725-2e-3 -0.725-0.013-4.395-0.011-4.035-0.017-8.07-0.022-12.105-6e-3 -4.347-0.017-8.695-0.028-13.043-0.019-7.536-0.033-15.073-0.046-22.61-0.018-10.9-0.043-21.8-0.069-32.7-0.043-17.688-0.082-35.376-0.118-53.063-1e-3 -0.53-1e-3 -0.53-7e-3 -3.21-0.017-8.595-0.035-17.19-0.052-25.784-0.015-7.513-0.031-15.026-0.046-22.539-1e-3 -0.529-1e-3 -0.529-6e-3 -3.205-0.037-17.621-0.076-35.241-0.119-52.862-0.026-10.876-0.049-21.753-0.067-32.63-0.013-7.448-0.029-14.897-0.048-22.345-0.011-4.302-0.02-8.604-0.025-12.906-6e-3 -4.656-0.018-9.312-0.031-13.968 0-1.37-1e-3 -2.741-1e-3 -4.153-5e-3 -1.241-0.01-2.481-0.015-3.76-1e-3 -0.537-1e-3 -0.537-6e-3 -3.259-0.13-2.646-0.13-2.646-1.13-5.646-5.146-2.676-10.489-2.292-16.152-2.287-1.126-7e-3 -2.252-0.013-3.411-0.02-2.442-0.014-4.884-0.023-7.326-0.028-3.862-8e-3 -7.723-0.029-11.585-0.053-9.59-0.056-19.18-0.091-28.769-0.127-8.106-0.031-16.213-0.071-24.319-0.121-3.809-0.02-7.618-0.028-11.427-0.036-2.329-0.013-4.658-0.026-6.987-0.04-1.063 1e-3 -2.125 2e-3 -3.22 3e-3 -4.654-0.04-7.578-0.178-11.804-2.291-1.449-2.023-1.449-2.023-2.687-4.375-0.417-0.77-0.833-1.541-1.262-2.336-1.933-4.21-2.187-7.999-2.228-12.551-0.012-1.269-0.025-2.537-0.039-3.845-7e-3 -1.369-0.014-2.739-0.022-4.15-8e-3 -1.414-0.016-2.827-0.024-4.283-0.014-2.995-0.025-5.989-0.033-8.983-0.017-4.563-0.061-9.125-0.105-13.688-0.01-2.911-0.019-5.822-0.025-8.734-0.018-1.358-0.035-2.715-0.053-4.114 0.02-8.877 0.772-16.335 6.541-23.503 3.493-2.592 6.535-2.564 10.743-2.569z" fill="#4B4B4B"/>
<path transform="translate(1413.9 519.84)" d="m0 0c0.924-5e-3 1.848-0.01 2.799-0.015 3.068-0.015 6.135-0.021 9.202-0.027 2.131-6e-3 4.261-0.012 6.391-0.017 4.474-0.011 8.948-0.017 13.422-0.02 5.724-6e-3 11.446-0.03 17.169-0.058 4.405-0.019 8.809-0.024 13.214-0.025 2.109-3e-3 4.218-0.011 6.327-0.025 2.958-0.017 5.916-0.015 8.874-8e-3 0.433-5e-3 0.433-5e-3 2.624-0.028 5.607 0.038 9.977 1.036 15.065 3.384 7.012 7.454 9.49 17.218 11.914 26.899 0.857 3.236 1.764 5.984 3.211 8.976 1.579 3.474 2.474 6.324 3.313 10 0.947 4.089 2.147 7.612 4 11.375 2.812 5.81 4.133 11.773 5.598 18.035 1.168 4.498 3.057 8.483 4.964 12.715 0.7 2.491 1.364 4.992 2 7.5 1.086 4.275 2.202 7.953 4 12 2.273 5.114 3.556 10.187 4.934 15.598 1.35 4.939 3.074 9.691 4.844 14.492 1.198 3.342 2.262 6.698 3.285 10.098 1.201 3.988 2.485 7.908 3.937 11.812 1.868 5.027 3.449 10.114 5 15.246 0.954 3.103 1.963 6.179 3 9.254 1.406 4.168 2.728 8.352 4 12.563 1.504 4.94 3.193 9.772 4.996 14.609 1.485 4.182 2.731 8.43 3.977 12.688 1.027 3.14 1.027 3.14 2.527 6.539 1.583 3.8 2.527 7.465 3.438 11.476 1.469 6.104 3.481 11.398 6.062 17.125 1.068 3.798 2.03 7.617 3 11.442 1 3.558 1 3.558 3 7.996 2.404 5.482 3.624 10.973 5 16.785 1 3.777 1 3.777 3 8.215 2.559 5.836 3.703 11.735 4.973 17.964 1.027 3.598 1.027 3.598 4.027 5.598 0.636 6.539-0.011 10.888-2.722 16.957-2.292 5.46-3.988 11.144-5.813 16.774-1.323 3.855-2.858 7.527-4.465 11.269-0.676 2.115-1.323 4.241-1.937 6.375-1.161 3.88-2.392 7.355-4.063 11.063-1.714 3.912-2.884 7.521-4 11.625-1.08 3.959-2.133 7.199-4 10.875-1.932 3.924-2.941 7.397-4 11.625-1.374 5.465-3.153 9.571-6 14.437-0.846 3.06-1.548 6.121-2.191 9.231-0.809 2.769-0.809 2.769-3.809 6.769-1.041 2.315-2.049 4.646-3 7-11.084-0.978-11.084-0.978-14.964-5.074-4.882-6.467-7.614-12.605-9.95-20.348-0.928-3.058-1.979-5.945-3.211-8.89-1.33-3.215-2.42-6.404-3.375-9.75-1.151-4.007-2.703-7.673-4.464-11.457-1.676-4.016-2.802-8.192-4.036-12.36-1-3.121-1-3.121-3-7.558-1.714-3.912-2.884-7.522-4-11.625-1.07-3.913-2.116-7.171-3.937-10.813-2.619-5.237-4.147-10.623-5.836-16.219-0.997-3.174-2.079-6.212-3.352-9.281-1.328-3.276-2.414-6.315-3.375-9.687-1.151-4.007-2.703-7.673-4.464-11.457-1.229-2.944-2.13-5.922-3.036-8.981-1.337-4.512-2.926-8.664-4.933-12.93-1.98-4.772-3.339-9.76-4.84-14.699-1.001-3.158-2.086-6.188-3.352-9.246-1.306-3.222-2.373-6.186-3.312-9.5-1.407-4.906-3.361-9.49-5.371-14.176-1.405-3.478-2.431-6.991-3.449-10.597-0.972-3.079-2.347-5.948-3.707-8.871-1.676-4.016-2.802-8.192-4.036-12.36-1-3.121-1-3.121-3-7.558-1.682-3.839-2.841-7.353-3.937-11.375-1.558-5.699-3.556-10.981-5.91-16.391-1.064-2.582-1.896-5.112-2.653-7.797-1.057-3.745-2.396-7.239-3.937-10.812-2.276-5.297-4-10.636-5.57-16.18-0.993-3.008-0.993-3.008-2.457-5.906-1.755-3.544-2.849-7.062-3.973-10.852-1.407-4.623-2.838-9.16-4.688-13.625-1.328-3.276-2.414-6.315-3.375-9.687-1.151-4.007-2.703-7.673-4.464-11.457-1.229-2.944-2.13-5.922-3.036-8.981-1.142-3.857-2.358-7.306-4-11-1.651-3.715-2.859-7.18-4-11.062-1.107-3.748-2.22-6.872-4-10.375-2.362-4.799-3.603-9.598-4.996-14.746-1.004-3.317-1.004-3.317-3.066-7.379-4.112-8.356-5.838-17.677-4.938-26.938 3.986-6.51 7.808-6.152 14.913-6.161z" fill="#4B4B4B"/>
<path transform="translate(2653.1 271.61)" d="m0 0c0.408 3e-3 0.408 3e-3 2.47 0.018 2.695 0.025 5.389 0.079 8.084 0.134 1.878 0.025 3.757 0.048 5.635 0.07 3.941 0.05 7.88 0.114 11.82 0.188 5.032 0.094 10.065 0.162 15.097 0.221 3.882 0.048 7.764 0.105 11.646 0.165 1.855 0.029 3.709 0.055 5.563 0.079 2.604 0.036 5.207 0.085 7.81 0.137 0.739 0.012 0.739 0.012 4.479 0.077 12.258 0.874 22.337 5.639 30.719 14.68 1.223 1.514 2.411 3.056 3.563 4.625 0.576 0.771 1.152 1.542 1.746 2.336 8.281 12.272 7.491 29.232 5.754 43.414-2.455 11.235-10.735 21.158-19.5 28.25-2.414 1.223-2.414 1.223-4.625 2.125-1.114 0.619-2.228 1.238-3.375 1.875-1.582 6.443 1.158 11.017 4.348 16.457 1.993 3.069 4.23 5.803 6.652 8.543 1.364 1.98 2.694 3.982 4 6 0.955 1.461 1.913 2.919 2.875 4.375 0.507 0.771 1.013 1.542 1.535 2.336 1.532 2.205 3.188 4.225 4.902 6.289 3.071 4.57 3.688 7.536 3.688 13-3.452 3.452-8.096 2.958-12.806 3.062-3.11-7e-3 -6.211-0.088-9.319-0.187-1.058-0.01-2.117-0.021-3.207-0.031-5.009-0.164-7.907-0.35-12.184-3.125-5.327-5.83-9.693-11.769-13.484-18.719-1.659-2.671-3.326-5.338-5-8-1-1.667-2-3.333-3-5-0.392-0.619-0.392-0.619-2.375-3.75-0.866-1.402-1.733-2.805-2.625-4.25-0.869-1.299-1.738-2.599-2.633-3.937-3.272-5.935-3.032-11.681-2.867-18.313-1e-3 -0.579-1e-3 -0.579-8e-3 -3.508 0.111-9.566 0.111-9.566 3.508-14.242 3.951-1.975 8.849-1.772 13.203-2.207 7.352-1.535 11.284-6.02 15.797-11.793 2.015-6.045 1.591-11.392-0.563-17.25-3.658-5.628-7.967-9.751-14.437-11.75-5.7-0.43-11.411-0.324-17.125-0.312-0.787-9e-3 -0.787-9e-3 -4.77-0.049-0.75-1e-3 -0.75-1e-3 -4.55-2e-3 -1.377-3e-3 -2.754-6e-3 -4.173-9e-3 -3.382 0.372-3.382 0.372-6.382 3.372-0.301 3.661-0.417 7.155-0.401 10.818-7e-3 1.114-0.014 2.228-0.021 3.376-0.02 3.693-0.019 7.386-0.019 11.079-0.012 2.563-0.026 5.125-0.04 7.687-0.037 6.755-0.057 13.509-0.072 20.264-0.025 10.806-0.064 21.612-0.122 32.418-0.016 3.778-0.02 7.556-0.023 11.335-0.01 2.315-0.02 4.631-0.031 6.946 3e-3 1.053 5e-3 2.106 8e-3 3.19-0.034 4.756-0.121 8.62-2.279 12.887-4.943 3.295-10.618 2.605-16.438 2.813-0.62 0.031-0.62 0.031-3.759 0.193-1.192 0.046-2.384 0.091-3.612 0.139-1.091 0.044-2.182 0.089-3.306 0.136-2.885-0.281-2.885-0.281-6.885-3.281-1.176-3.659-1.132-7.295-1.147-11.117-7e-3 -1.23-0.014-2.459-0.022-3.726-3e-3 -1.341-5e-3 -2.682-8e-3 -4.063-7e-3 -1.419-0.013-2.837-0.02-4.298-0.02-4.694-0.031-9.388-0.041-14.081-4e-3 -1.601-8e-3 -3.202-0.013-4.852-0.018-7.594-0.033-15.187-0.041-22.781-0.01-8.765-0.036-17.531-0.077-26.296-0.034-7.594-0.045-15.188-0.049-22.783-5e-3 -3.231-0.017-6.463-0.035-9.694-0.025-4.511-0.024-9.021-0.017-13.532-6e-3 -0.671-6e-3 -0.671-0.039-4.069 7e-3 -1.227 0.014-2.454 0.021-3.718-2e-3 -1.066-5e-3 -2.133-7e-3 -3.232 1.283-7.151 6.289-7.24 12.609-7.152z" fill="#4B4B4B"/>
<path transform="translate(1247 271.83)" d="m0 0c0.805 6e-3 1.611 0.012 2.441 0.019 2.662 0.023 5.324 0.062 7.986 0.101 1.856 0.021 3.712 0.042 5.568 0.062 3.893 0.044 7.786 0.095 11.679 0.151 4.972 0.072 9.943 0.126 14.915 0.175 3.836 0.039 7.672 0.088 11.507 0.139 1.832 0.024 3.664 0.044 5.496 0.062 2.572 0.027 5.144 0.066 7.717 0.107 1.46 0.02 2.92 0.039 4.424 0.059 12.674 0.872 22.577 6.14 31.245 15.292 10.733 13.507 12.502 28.846 10.57 45.762-2.144 13.088-8.283 22.862-18.57 31.238-1.665 0.897-3.353 1.754-5.063 2.562-1.299 0.805-2.598 1.609-3.937 2.438-1.353 6.349 0.771 10.562 4 16 1.927 2.731 3.952 5.354 6 8 1.333 2 2.666 4 4 6 0.619 0.763 1.237 1.526 1.875 2.312 2.957 3.74 5.546 7.682 8.125 11.688 0.784 1.217 1.567 2.434 2.375 3.687 1.715 3.496 2.16 5.48 1.625 9.313-3.869 3.868-9.709 3.069-14.906 3.09-2.199-0.044-4.396-0.095-6.594-0.153-1.102-1e-3 -2.205-3e-3 -3.34-5e-3 -5.607-0.159-8.463-0.459-13.211-3.678-2.433-2.684-4.641-5.239-6.637-8.254-0.581-0.868-1.162-1.735-1.761-2.629-0.512-0.782-1.024-1.565-1.551-2.371-0.66-0.969-1.32-1.939-2-2.938-2.437-3.731-4.819-7.496-7.203-11.261-2.024-3.154-4.115-6.256-6.243-9.34-0.513-0.812-1.026-1.624-1.554-2.461-0.872-1.292-1.743-2.583-2.641-3.914-3.327-6.061-3.094-12.068-2.984-18.836-0.02-1.205-0.039-2.411-0.059-3.652 0.048-8.583 0.048-8.583 2.727-12.86 3.735-2.196 6.581-2.513 10.894-2.801 8.1-0.556 11.908-2.579 17.375-8.562 3.948-4.957 4.154-7.945 4.094-14.195-0.88-6.884-4.881-10.939-10.094-15.18-7.353-4.44-15.452-3.184-23.812-3.188-1.631-0.012-3.262-0.024-4.942-0.037-1.556-2e-3 -3.111-3e-3 -4.714-5e-3 -1.432-5e-3 -2.863-9e-3 -4.338-0.013-3.506 0.243-3.506 0.243-6.506 2.243-0.3 3.649-0.406 7.129-0.385 10.78-5e-3 1.122-0.011 2.244-0.016 3.4-0.01 2.444-0.013 4.887-0.01 7.331 5e-3 3.866-9e-3 7.732-0.028 11.599-0.037 8.213-0.051 16.427-0.061 24.64-0.012 9.502-0.034 19.004-0.08 28.505-0.014 3.811-0.01 7.62-5e-3 11.43-9e-3 2.339-0.019 4.678-0.03 7.017 6e-3 1.06 0.012 2.12 0.018 3.212-0.045 5.419-0.252 9.449-3.403 14.086-4.582 2.291-10.907 1.275-15.938 1.312-1.301 0.029-2.602 0.059-3.943 0.088-1.245 9e-3 -2.489 0.017-3.772 0.026-1.144 0.014-2.289 0.029-3.468 0.044-2.879-0.47-2.879-0.47-5.879-4.47-0.391-2.758-0.391-2.758-0.412-5.99-0.016-1.227-0.031-2.454-0.047-3.717-2e-3 -1.343-4e-3 -2.686-5e-3 -4.07-0.014-1.417-0.027-2.833-0.041-4.293-0.04-4.694-0.059-9.388-0.077-14.082-0.022-3.256-0.045-6.512-0.069-9.767-0.048-6.829-0.084-13.657-0.113-20.486-0.033-7.892-0.084-15.785-0.145-23.677-0.058-7.594-0.104-15.187-0.146-22.781-0.018-3.231-0.039-6.461-0.063-9.692-0.032-4.513-0.05-9.026-0.065-13.539-0.012-1.34-0.024-2.681-0.036-4.063-1e-3 -1.23-3e-3 -2.459-4e-3 -3.726-5e-3 -1.067-0.011-2.134-0.016-3.233 0.255-3.081 0.746-5.176 2.239-7.884 4.556-2.278 6.968-2.223 12.022-2.167z" fill="#4B4B4B"/>
<path transform="translate(198.14 271.61)" d="m0 0c0.806 6e-3 1.611 0.012 2.441 0.018 2.657 0.025 5.313 0.079 7.97 0.134 1.855 0.025 3.709 0.048 5.564 0.07 3.887 0.05 7.774 0.114 11.661 0.188 4.963 0.094 9.927 0.162 14.891 0.221 3.832 0.048 7.663 0.105 11.495 0.165 1.829 0.029 3.658 0.055 5.487 0.079 2.568 0.036 5.135 0.085 7.702 0.137 1.457 0.025 2.914 0.05 4.416 0.077 11.858 0.854 21.438 5.529 30.112 13.618 10.024 11.828 12.486 21.993 12.375 37.25 4e-3 0.535 4e-3 0.535 0.024 3.248-0.023 9.096-0.787 16.864-6.149 24.502-0.678 0.986-1.356 1.972-2.054 2.988-1.891 2.465-3.74 4.646-6.071 6.699h-2l-2 4c-2.164 1.168-2.164 1.168-4.625 2.188-2.422 1.277-2.422 1.277-4.375 2.812-1.324 6.432 0.337 10.645 3.649 16.02 1.665 2.439 3.466 4.706 5.351 6.98 4.359 5.976 8.433 12.121 12.356 18.391 1.04 1.651 2.103 3.288 3.195 4.906 2.72 4.075 3.449 5.615 3.449 10.703-6.384 4.256-15.059 3.183-22.5 3-0.994 6e-3 -1.987 0.013-3.011 0.02-6.593-0.183-10.127-1.484-14.856-6.121-2.254-2.622-4.163-5.374-5.996-8.301-1.993-3.164-4.123-6.218-6.262-9.285-4.085-5.871-8.072-11.795-11.937-17.813-0.579-0.897-1.158-1.794-1.754-2.719-0.556-0.918-1.111-1.835-1.684-2.781-0.557-0.834-1.113-1.668-1.687-2.527-2.054-5.433-1.785-10.778-1.75-16.535-0.01-0.586-0.01-0.586-0.061-3.549 1e-3 -1.13 2e-3 -2.26 2e-3 -3.424-2e-3 -1.025-4e-3 -2.05-5e-3 -3.106 0.637-3.633 1.88-5.297 4.501-7.859 4.082-0.75 4.082-0.75 8.813-1 7.023-0.373 10.834-1.339 16.187-6 3.8-4.492 5.811-8.744 6.688-14.562-1.14-7.357-3.896-12.364-9.813-16.938-5.311-3.427-8.45-3.628-14.683-3.633-1.552-1e-3 -3.103-2e-3 -4.702-4e-3 -0.813 2e-3 -0.813 2e-3 -4.927 0.012-0.811-2e-3 -0.811-2e-3 -4.916-0.012-1.553 2e-3 -3.106 3e-3 -4.705 4e-3 -1.427 1e-3 -2.853 2e-3 -4.322 4e-3 -3.62 0.129-3.62 0.129-7.62 1.129-1.251 5.005-1.136 9.808-1.126 14.931-2e-3 1.115-3e-3 2.229-5e-3 3.377-4e-3 2.42-6e-3 4.84-7e-3 7.26-3e-3 5.14-0.025 10.281-0.045 15.421-0.038 9.573-0.069 19.147-0.067 28.72 1e-3 6.658-0.023 13.314-0.062 19.971-0.011 2.539-0.012 5.078-4e-3 7.616 9e-3 3.548-0.012 7.095-0.04 10.643 5e-3 0.526 5e-3 0.526 0.031 3.185-0.066 4.585-0.245 7.302-3.033 11.029-3.166 2.214-4.875 2.467-8.712 2.441-1.143-3e-3 -2.287-5e-3 -3.465-8e-3 -1.185-0.028-2.369-0.057-3.59-0.086-1.192 3e-3 -2.385 5e-3 -3.613 8e-3 -8.854-0.1-8.854-0.1-12.262-3.508-1.07-3.212-1.136-5.537-1.154-8.914-8e-3 -1.236-0.017-2.471-0.026-3.744-4e-3 -1.357-8e-3 -2.715-0.013-4.113-8e-3 -1.428-0.016-2.856-0.024-4.327-0.025-4.737-0.042-9.474-0.056-14.211-6e-3 -1.614-0.011-3.228-0.016-4.891-0.022-6.779-0.041-13.559-0.052-20.338-0.016-9.72-0.049-19.44-0.106-29.16-0.044-7.656-0.06-15.312-0.066-22.969-7e-3 -3.259-0.022-6.519-0.046-9.778-0.031-4.552-0.032-9.102-0.024-13.654-0.017-1.356-0.033-2.711-0.05-4.108 8e-3 -1.238 0.017-2.476 0.025-3.751-1e-3 -0.539-1e-3 -0.539-0.01-3.262 0.618-2.78 0.618-2.78 2.923-5.129 3.737-2.289 6.467-2.107 10.831-2.045z" fill="#4B4B4B"/>
<path transform="translate(2303.3 271.84)" d="m0 0c0.539-2e-3 0.539-2e-3 3.267-0.015 3.583-0.015 7.167-0.021 10.751-0.027 2.48-6e-3 4.96-0.011 7.44-0.017 5.207-0.011 10.414-0.017 15.622-0.02 6.684-6e-3 13.368-0.03 20.052-0.058 5.125-0.019 10.25-0.024 15.375-0.025 2.465-3e-3 4.929-0.012 7.394-0.025 3.443-0.017 6.886-0.015 10.329-8e-3 1.026-0.01 2.052-0.019 3.108-0.028 7.064 0.042 7.064 0.042 10.407 3.384 0.388 2.588 0.388 2.588 0.398 5.656 4e-3 1.105 8e-3 2.21 0.012 3.348-0.012 1.154-0.023 2.307-0.035 3.496 0.011 1.154 0.023 2.308 0.035 3.496-4e-3 1.105-8e-3 2.21-0.012 3.348-3e-3 1.012-7e-3 2.025-0.01 3.068-0.388 2.588-0.388 2.588-3.388 5.588-3.157 0.385-3.157 0.385-7.102 0.401-1.475 0.013-2.95 0.026-4.469 0.04-0.799 0-0.799 0-4.84 1e-3 -2.495 0.02-4.99 0.04-7.485 0.061-3.499 0.025-6.998 0.038-10.497 0.05-6.128 0.022-12.255 0.053-18.383 0.101-3.264 0.025-6.528 0.04-9.792 0.044-1.472 0.01-2.944 0.02-4.46 0.031-0.651 2e-3 -0.651 2e-3 -3.943 0.013-3.029 0.258-3.029 0.258-5.029 2.258-0.253 3.682-0.371 7.255-0.375 10.938-0.013 0.507-0.013 0.507-0.075 3.076-3e-3 0.974-7e-3 1.948-0.011 2.951-4e-3 0.447-4e-3 0.447-0.025 2.707 0.486 2.328 0.486 2.328 4.486 5.328 2.763 0.334 2.763 0.334 5.974 0.277 1.205-0.013 2.41-0.026 3.651-0.04 0.649-0.014 0.649-0.014 3.933-0.085 2.744-0.028 5.489-0.056 8.233-0.084 4.33-0.062 8.659-0.131 12.989-0.205 4.176-0.066 8.352-0.108 12.528-0.148 1.296-0.03 2.592-0.06 3.927-0.091 1.208-0.01 2.416-0.02 3.661-0.03 1.06-0.018 2.121-0.036 3.213-0.055 3.675 0.586 5.304 1.823 7.891 4.461 1.112 4.45 1.205 8.352 1.25 12.938 0.025 1.576 0.051 3.153 0.078 4.777-0.32 4.169-0.676 6.119-3.328 9.285-3.279 1.093-5.763 1.158-9.216 1.205-0.64 0.01-0.64 0.01-3.882 0.061-0.692 8e-3 -0.692 8e-3 -4.195 0.051-1.417 0.02-2.833 0.041-4.292 0.063-4.534 0.065-9.069 0.124-13.603 0.183-3.07 0.043-6.139 0.086-9.209 0.13-7.534 0.108-15.069 0.209-22.603 0.307-1.416 5.664-1.266 11.183-1.313 17-0.029 1.189-0.058 2.377-0.088 3.602-4e-3 0.571-4e-3 0.571-0.025 3.461-0.015 1.042-0.029 2.085-0.044 3.16 0.608 3.595 1.599 4.562 4.47 6.777 3.136 0.461 3.136 0.461 6.876 0.407 1.402-0.01 2.804-0.02 4.248-0.031 1.514-0.03 3.027-0.06 4.587-0.091 1.556-0.012 3.112-0.025 4.715-0.038 4.983-0.043 9.966-0.111 14.949-0.184 4.975-0.07 9.951-0.13 14.927-0.174 3.099-0.027 6.197-0.069 9.295-0.126 1.408-0.013 2.817-0.026 4.267-0.04 1.236-0.019 2.472-0.037 3.746-0.057 3.803 0.375 6.158 1.32 9.39 3.334 2.709 4.064 2.3 6.954 2.312 11.813 0.017 1.574 0.034 3.148 0.051 4.769-0.361 4.39-0.845 6.836-3.363 10.418-4.808 2.831-10.222 2.254-15.618 2.199-1.069-3e-3 -2.138-6e-3 -3.239-9e-3 -3.53-0.014-7.059-0.042-10.589-0.073-2.452-0.016-4.903-0.031-7.355-0.047-5.137-0.035-10.273-0.078-15.409-0.127-6.592-0.06-13.184-0.093-19.776-0.12-5.062-0.024-10.123-0.066-15.184-0.113-2.432-0.02-4.863-0.034-7.294-0.041-3.393-0.011-6.785-0.048-10.177-0.091-1.01 2e-3 -2.02 4e-3 -3.061 5e-3 -2.795-0.05-2.795-0.05-7.298-0.583-3.627-4.836-4.124-8.038-4.141-13.876-6e-3 -1.202-0.011-2.403-0.017-3.641-1e-3 -1.315-2e-3 -2.63-4e-3 -3.985-4e-3 -1.387-9e-3 -2.774-0.015-4.204-0.014-4.596-0.021-9.193-0.026-13.79-6e-3 -3.188-0.012-6.377-0.018-9.565-9e-3 -5.833-0.015-11.665-0.018-17.497-5e-3 -8.584-0.022-17.168-0.051-25.751-0.024-7.437-0.032-14.874-0.034-22.31-3e-3 -3.164-0.011-6.328-0.024-9.491-0.017-4.42-0.015-8.839-9e-3 -13.259-9e-3 -1.313-0.018-2.626-0.028-3.978 6e-3 -1.205 0.011-2.409 0.017-3.65-1e-3 -1.044-3e-3 -2.089-4e-3 -3.166 1.251-9.542 6.528-8.989 14.627-8.998z" fill="#4B4B4B"/>
<path transform="translate(555.31 271.58)" d="m0 0c1.012 5e-3 2.023 9e-3 3.065 0.014 1.067-7e-3 2.134-0.014 3.233-0.021 3.536-0.018 7.071-0.015 10.607-9e-3 2.453-4e-3 4.905-0.01 7.357-0.016 5.144-9e-3 10.288-6e-3 15.432 4e-3 6.599 0.011 13.198-9e-3 19.797-0.038 5.065-0.019 10.131-0.018 15.197-0.013 2.433 1e-3 4.866-6e-3 7.3-0.018 3.4-0.015 6.798-4e-3 10.198 0.013 0.505-5e-3 0.505-5e-3 3.059-0.029 6.803 0.072 6.803 0.072 10.07 2.406 1.709 2.639 1.891 4.271 1.907 7.406 2e-3 0.503 2e-3 0.503 0.015 3.051-0.015 1.045-0.031 2.091-0.047 3.168 8e-3 0.522 8e-3 0.522 0.047 3.168-5e-3 1.006-0.01 2.013-0.015 3.05-5e-3 0.918-9e-3 1.835-0.014 2.78-0.696 3.365-1.815 4.396-4.518 6.502-3.194 0.498-3.194 0.498-7.015 0.498-1.432 0.01-2.863 0.02-4.338 0.03-0.773-4e-3 -0.773-4e-3 -4.682-0.024-0.792 4e-3 -0.792 4e-3 -4.804 0.028-4.212 0.024-8.424 0.032-12.637 0.031-5.94-2e-3 -11.88 8e-3 -17.82 0.04-3.163 0.017-6.326 0.02-9.489 7e-3 -1.428 7e-3 -2.856 0.014-4.328 0.021-0.63-1e-3 -0.63-1e-3 -3.819-3e-3 -3.068 0.372-3.068 0.372-6.068 3.372-0.297 3.409-0.418 6.595-0.375 10-0.011 0.915-0.023 1.83-0.035 2.773 0.03 6.847 0.03 6.847 3.41 10.227 2.602 1.301 4.467 1.106 7.381 1.081 0.562-3e-3 0.562-3e-3 3.408-0.019 0.611-6e-3 0.611-6e-3 3.7-0.035 2.568-0.013 5.136-0.025 7.705-0.037 4.062-0.025 8.124-0.053 12.186-0.086 3.911-0.03 7.822-0.048 11.734-0.064 1.214-0.014 2.429-0.027 3.681-0.041 1.134-4e-3 2.268-7e-3 3.437-0.01 0.498-4e-3 0.498-4e-3 3.017-0.023 4.902 0.416 7.268 1.751 10.751 5.234 1.338 4.011 1.286 7.648 1.375 11.875 0.049 1.585 0.098 3.171 0.149 4.804-0.524 4.321-0.524 4.321-2.86 7.329-3.909 2.923-6.713 3.118-11.464 3.134-0.596 3e-3 -0.596 3e-3 -3.61 0.021-0.644 2e-3 -0.644 2e-3 -3.902 0.012-2.711 0.024-5.422 0.048-8.133 0.073-4.286 0.035-8.572 0.064-12.858 0.078-4.129 0.015-8.256 0.055-12.384 0.099-1.288-1e-3 -2.575-3e-3 -3.902-5e-3 -1.191 0.016-2.382 0.033-3.61 0.05-0.525 3e-3 -0.525 3e-3 -3.182 0.017-2.619 0.513-2.619 0.513-5.619 4.513-0.356 2.685-0.356 2.685-0.328 5.718 3e-3 0.549 3e-3 0.549 0.016 3.325 0.021 1.14 0.041 2.281 0.062 3.457 3e-3 0.57 3e-3 0.57 0.016 3.457 0.043 4.591 0.116 8.568 1.234 13.043 3.496 1.165 6.182 1.099 9.871 1.066 1.425-0.01 2.85-0.02 4.319-0.03 1.543-0.015 3.087-0.029 4.678-0.044 3.248-0.018 6.497-0.035 9.746-0.051 5.137-0.03 10.275-0.065 15.412-0.113 4.947-0.045 9.894-0.065 14.842-0.086 0.769-9e-3 0.769-9e-3 4.665-0.057 1.432-3e-3 2.863-6e-3 4.338-0.01 1.259-0.01 2.518-0.019 3.815-0.029 3.593 0.384 5.451 1.193 8.314 3.354 2.752 4.416 2.099 8.951 1.813 14-0.076 1.567-0.152 3.135-0.231 4.75-0.901 6.585-0.901 6.585-3.582 9.25-6.458 0.995-12.867 1.162-19.397 1.193-0.499 4e-3 -0.499 4e-3 -3.024 0.024-3.271 0.025-6.542 0.042-9.813 0.056-1.122 5e-3 -2.244 0.011-3.4 0.016-5.925 0.027-11.851 0.046-17.776 0.061-4.9 0.013-9.8 0.041-14.7 0.082-5.931 0.049-11.86 0.074-17.791 0.081-2.257 7e-3 -4.513 0.022-6.77 0.046-3.15 0.031-6.299 0.032-9.449 0.024-0.465 8e-3 -0.465 8e-3 -2.821 0.05-4.101-0.04-6.521-0.212-9.798-2.779-2.676-3.379-2.885-4.874-2.882-9.13-0.011-1.265-0.022-2.529-0.034-3.832 0.013-1.38 0.027-2.76 0.04-4.182-5e-3 -1.459-0.011-2.918-0.017-4.421-0.011-4.828 0.013-9.656 0.039-14.485 1e-3 -3.348 1e-3 -6.697 0-10.046 0-7.019 0.019-14.038 0.051-21.058 0.037-8.119 0.046-16.237 0.039-24.357-6e-3 -7.808 5e-3 -15.617 0.024-23.426 7e-3 -3.325 0.01-6.649 9e-3 -9.974 2e-3 -4.637 0.024-9.275 0.051-13.913-3e-3 -1.384-6e-3 -2.767-9e-3 -4.193 0.011-1.259 0.022-2.518 0.034-3.816 4e-3 -1.097 7e-3 -2.193 0.011-3.324 0.904-6.362 5.287-6.057 10.693-6.115z" fill="#4B4B4B"/>
<path transform="translate(1939.8 271.69)" d="m0 0c1.38-0.029 2.76-0.058 4.182-0.088 1.328-8e-3 2.656-0.017 4.025-0.025 0.609-8e-3 0.609-8e-3 3.691-0.044 3.919 0.559 5.509 1.706 8.29 4.469 4.71 8.203 6.951 17.251 9.07 26.391 1.149 4.461 3.039 8.415 4.93 12.609 0.699 2.491 1.363 4.993 2 7.5 1.485 5.846 3.519 10.996 6 16.5 1.016 3.344 1.931 6.708 2.851 10.079 1.735 5.925 3.862 11.701 5.977 17.5 1.172 3.421 1.172 3.421 1.172 5.421h8c0.121-0.597 0.121-0.597 0.734-3.621 3.074-14.579 3.074-14.579 5.266-19.066 1.849-3.987 2.925-7.569 4-11.813 1.075-4.241 2.151-8.186 4.062-12.124 1.65-3.726 2.545-6.748 3.375-10.688 1.181-5.538 3.014-10.35 5.313-15.508 1.413-3.595 2.294-7.172 3.187-10.93 1.615-6.422 3.588-10.386 8.063-15.25 4.572-2.286 10.917-1.23 15.937-1.25 1.301-0.02 2.603-0.041 3.943-0.062 1.245-5e-3 2.49-0.01 3.772-0.016 0.572-4e-3 0.572-4e-3 3.468-0.028 2.88 0.356 2.88 0.356 5.88 3.356-0.383 9.375-4.476 18.422-8 27-1.679 4.299-3.18 8.565-4.438 13-0.934 3.217-1.92 5.681-3.5 8.688-1.914 4.001-2.983 7.532-4.062 11.812-1.43 5.658-3.356 10.291-6 15.5-1.332 4.011-2.553 8.049-3.774 12.094-0.997 3.174-2.079 6.212-3.352 9.282-1.306 3.222-2.373 6.185-3.312 9.5-1.096 3.827-2.483 7.407-4.062 11.062-1.653 3.846-2.983 7.566-4 11.625-2.13 8.339-5.917 16.167-10.5 23.437-4.335 2.168-10.042 1.496-14.813 1.688-1.189 0.06-2.378 0.12-3.604 0.182-0.573 0.023-0.573 0.023-3.478 0.142-1.05 0.046-2.101 0.092-3.183 0.14-3.098-0.161-5.163-0.76-7.922-2.152-2.388-2.75-4.153-5.866-6-9-0.279-0.464-0.279-0.464-1.688-2.812-1.228-2.983-1.958-5.741-2.688-8.875-1.223-5.2-3.055-9.66-5.367-14.457-1.83-4.155-3.02-8.454-4.293-12.805-0.964-3.051-0.964-3.051-2.964-7.488-1.715-3.912-2.885-7.522-4-11.625-1.084-3.968-2.153-7.242-4-10.938-2.377-4.752-3.611-9.504-5-14.617-1.277-4.319-3.151-8.279-5-12.383-0.692-2.158-1.357-4.326-2-6.5-1.336-4.505-2.917-8.653-4.93-12.91-1.999-4.837-3.358-9.898-4.824-14.918-1.246-3.672-1.246-3.672-2.911-6.422-1.965-3.309-1.242-5.623-0.335-9.25 4.781-2.39 11.564-1.276 16.812-1.312z" fill="#4B4B4B"/>
<path transform="translate(1596.2 271.69)" d="m0 0c1.419-0.029 2.839-0.058 4.301-0.088 1.37-8e-3 2.74-0.017 4.152-0.025 1.255-0.015 2.509-0.029 3.802-0.044 5.181 0.696 8.225 3.08 11.694 6.876 1.823 2.625 3.239 5.209 4.613 8.093 3.857 7.918 7.993 15.674 12.376 23.313 1.812 3.187 1.812 3.187 3.812 7.437 2 3.75 2 3.75 6 6.75 3.555 0.59 3.555 0.59 7 0 1.82-2.746 1.82-2.746 3.125-6.437 1.806-4.952 3.833-9.472 6.452-14.052 1.591-2.807 3.105-5.648 4.614-8.499 0.553-1.036 1.105-2.071 1.674-3.138 1.141-2.141 2.276-4.284 3.406-6.43 0.276-0.515 0.276-0.515 1.67-3.119 0.492-0.928 0.984-1.855 1.491-2.81 2.347-3.764 4.32-6.099 8.568-7.515 4.641-0.288 9.288-0.277 13.938-0.312 1.288-0.029 2.576-0.058 3.904-0.088 0.618-4e-3 0.618-4e-3 3.748-0.025 0.566-8e-3 0.566-8e-3 3.433-0.044 3.608 0.569 4.827 1.561 6.977 4.469-0.886 4.211-3.642 7.463-6 11-1.345 2.662-2.676 5.329-4 8-1.429 2.734-2.867 5.463-4.312 8.188-0.393 0.74-0.785 1.48-1.19 2.242-2.896 5.454-5.818 10.894-8.752 16.328-1.925 3.576-3.837 7.158-5.746 10.742-2.467 4.632-4.944 9.258-7.438 13.876-2.824 5.243-5.637 10.493-8.437 15.75-0.38 0.712-0.38 0.712-2.305 4.32-2.139 4.178-2.945 6.986-2.978 11.605-5e-3 0.514-5e-3 0.514-0.031 3.115-7e-3 1.109-0.014 2.219-0.022 3.362-0.028 2.342-0.057 4.683-0.086 7.025-0.041 3.698-0.078 7.396-0.104 11.094-0.028 3.565-0.074 7.129-0.122 10.693-4e-3 1.108-7e-3 2.215-0.01 3.356-9e-3 0.516-9e-3 0.516-0.05 3.125-9e-3 0.905-0.017 1.811-0.025 2.745-0.392 2.434-0.392 2.434-3.392 6.434-3.645 0.727-3.645 0.727-8 1-1.427 0.091-2.854 0.181-4.324 0.274-1.44 0.033-2.88 0.067-4.364 0.102-1.447 0.048-2.895 0.097-4.386 0.148-3.926-0.524-3.926-0.524-6.645-2.35-3.387-4.712-2.862-8.816-2.707-14.474 8e-3 -2.281 0.015-4.561 0.022-6.842 0.039-3.57 0.091-7.139 0.16-10.708 0.254-15.261-0.255-26.042-8.756-39.15-1.385-2.452-2.762-4.91-4.125-7.374-2.798-4.828-5.672-9.606-8.566-14.376-1.938-3.331-3.586-6.804-5.309-10.25-0.99-1.319-1.98-2.639-3-4-0.847-1.585-1.659-3.191-2.438-4.812-2.035-4.162-4.246-8.173-6.562-12.188-0.474-0.969-0.949-1.938-1.438-2.937-1.562-3.063-1.562-3.063-4-6.937-2.453-3.951-4.511-7.956-6.562-12.126-0.598-0.907-1.196-1.814-1.812-2.75-1.188-2.25-1.188-2.25-0.188-6.25 4.882-2.44 11.894-1.276 17.25-1.312z" fill="#4B4B4B"/>
<path transform="translate(900.97 271.47)" d="m0 0c0.553-4e-3 0.553-4e-3 3.352-0.026 3.655-0.023 7.309-0.016 10.964-7e-3 2.539-5e-3 5.079-0.011 7.618-0.019 5.32-0.01 10.64-6e-3 15.961 9e-3 6.825 0.017 13.65-6e-3 20.475-0.041 5.243-0.022 10.485-0.021 15.727-0.013 2.517 1e-3 5.035-6e-3 7.552-0.02 3.514-0.018 7.028-3e-3 10.542 0.019 1.044-0.011 2.088-0.023 3.163-0.035 6.995 0.092 6.995 0.092 10.326 2.897 2.108 4.32 1.848 8.637 1.726 13.332-1e-3 0.945-3e-3 1.891-4e-3 2.865-0.058 4.561-0.305 7.439-2.371 11.572-3.142 1.572-6.254 1.188-9.746 1.247-0.78 0.016-0.78 0.016-4.725 0.099-3.307 0.061-6.614 0.119-9.922 0.172-1.56 0.034-3.12 0.068-4.728 0.104-1.438 0.025-2.876 0.05-4.357 0.075-3.522 0.303-3.522 0.303-6.522 2.303-1.469 4.409-1.104 8.82-1.066 13.419 5e-3 1.072 9e-3 2.144 0.014 3.248 0.011 2.331 0.023 4.662 0.038 6.993 0.022 3.691 0.036 7.381 0.048 11.071 0.033 10.494 0.075 20.988 0.137 31.482 0.038 6.416 0.061 12.832 0.075 19.248 8e-3 2.445 0.021 4.89 0.041 7.334 0.026 3.423 0.034 6.846 0.038 10.269 0.012 1.008 0.024 2.016 0.037 3.055-0.016 5.629-0.514 9.857-3.362 14.881-4.726 3.151-9.805 2.678-15.375 2.938-1.137 0.081-2.274 0.161-3.445 0.244-1.099 0.052-2.197 0.105-3.328 0.158-1.003 0.056-2.005 0.111-3.037 0.168-4.135-0.746-5.307-2.133-7.815-5.508-0.741-3.78-0.659-7.51-0.612-11.352-5e-3 -1.146-0.011-2.293-0.017-3.475-0.013-3.79 7e-3 -7.578 0.027-11.368-5e-3 -2.631-0.013-5.262-0.024-7.894-0.023-6.926-0.018-13.853-6e-3 -20.779 0.018-11.095 8e-3 -22.19-0.026-33.284-6e-3 -3.882 7e-3 -7.763 0.022-11.645-3e-3 -2.37-6e-3 -4.74-0.011-7.109 5e-3 -0.543 5e-3 -0.543 0.028-3.287-0.04-7.465-0.04-7.465-3.381-10.807-3.474-0.368-3.474-0.368-7.773-0.371-1.547-0.017-3.094-0.034-4.688-0.052-3.268-9e-3 -6.536-0.015-9.805-0.016-1.549-0.019-3.099-0.037-4.695-0.057-1.421-1e-3 -2.842-3e-3 -4.306-5e-3 -4.23-0.565-5.913-1.32-8.733-4.499-0.647-2.502-0.647-2.502-0.664-5.281-7e-3 -1.007-0.013-2.013-0.02-3.051 0.01-0.522 0.01-0.522 0.059-3.168-0.019-1.045-0.039-2.09-0.059-3.168 7e-3 -1.006 0.013-2.013 0.02-3.05 6e-3 -0.917 0.011-1.835 0.017-2.78 2.033-7.863 9.933-7.077 16.616-7.035z" fill="#4B4B4B"/>
<path transform="translate(2529.3 1110.7)" d="m0 0c1.355 0.039 2.71 0.077 4.106 0.117 0.751 0.02 0.751 0.02 4.551 0.125 1.577 0.059 3.153 0.118 4.778 0.179 0.765 0.018 0.765 0.018 4.636 0.11 15.635 0.505 29.003 1.427 40.614 12.765 6.916 7.976 10.248 14.38 10.265 25.067 1e-3 0.768 1e-3 0.768 8e-3 4.658-8e-3 1.597-0.015 3.193-0.023 4.838 3e-3 0.8 3e-3 0.8 0.023 4.849-3e-3 1.536-5e-3 3.072-8e-3 4.655-2e-3 1.402-4e-3 2.804-7e-3 4.248-0.622 8.868-6.619 16.491-12.946 22.435-8.891 7.343-18.264 10.41-29.637 10.383-0.902 1e-3 -1.804 2e-3 -2.733 3e-3 -1.902 1e-3 -3.804-1e-3 -5.706-5e-3 -2.923-6e-3 -5.846 0-8.77 6e-3 -1.847-1e-3 -3.694-2e-3 -5.541-4e-3 -0.879 2e-3 -1.758 4e-3 -2.664 6e-3 -6.146-0.024-6.146-0.024-7.261-1.139-0.111-2.774-0.15-5.551-0.162-8.327-5e-3 -0.873-9e-3 -1.747-0.015-2.646-0.014-2.902-0.021-5.804-0.027-8.706-5e-3 -2.01-0.011-4.019-0.017-6.028-0.01-4.218-0.016-8.437-0.02-12.655-5e-3 -5.414-0.029-10.826-0.058-16.239-0.018-4.152-0.023-8.304-0.025-12.457-3e-3 -1.995-0.011-3.991-0.024-5.987-0.017-2.79-0.015-5.579-9e-3 -8.368-4e-3 -1.589-7e-3 -3.179-0.011-4.816 0.481-4.932 1.641-6.616 6.683-7.067zm12.685 17.296c-2.708 6.3-3.448 11.935-3.399 18.786-3e-3 0.9-6e-3 1.801-9e-3 2.728-2e-3 1.89 4e-3 3.78 0.016 5.67 0.017 2.875 1e-3 5.748-0.019 8.623 2e-3 1.847 6e-3 3.694 0.012 5.541-6e-3 0.849-0.012 1.698-0.018 2.573 0.065 5.603 1.092 9.988 3.417 15.079 3.005 2.829 4.935 2.993 9.062 3.438 8.095-0.717 16.725-2.964 22.938-8.438 5.585-6.899 10.44-15.312 11.5-24.187-1.225-9.339-5.811-19.302-13.375-25.188-1.362-0.866-2.723-1.732-4.125-2.625-0.599-0.391-0.599-0.391-3.625-2.375-7.308-2.714-15.33-3.147-22.375 0.375z" fill="#FA7D00"/>
<path transform="translate(2237,1115)" d="m0 0c3.582 2.471 6.612 4.597 7.812 8.938-1.195 4.506-3.456 6.896-6.812 10.062-5.497 0-6.782-1.042-10.84-4.492-6.605-4.611-14.45-4.18-22.16-3.508-8.117 1.857-15.016 6.346-19.535 13.395-4.731 8.979-6.935 17.725-4.215 27.667 1.704 5.271 4.064 9.252 8 13.188 0.577 0.578 1.155 1.155 1.75 1.75v2c1.64 0.729 3.314 1.383 5 2 1.751 0.852 3.501 1.706 5.25 2.562 7.795 3.482 13.33 4.216 21.438 1.25 10.771-4.574 10.771-4.574 14.25-9.624 1.308-3.926 1.278-6.237 0.062-10.188-4.966-2.763-10.377-2.379-15.918-2.559-1.017-0.145-2.034-0.291-3.082-0.441-2.449-3.673-2.315-5.664-2-10 4.87-4.87 15.044-3.184 21.562-3.188 1.111-0.012 2.222-0.024 3.366-0.037 10.592-0.019 10.592-0.019 15.072 2.225 3.532 5.298 1.418 11.655 0.352 17.637-2.799 12.493-8.2 21.072-19.04 28.051-7.971 4.701-15.602 4.52-24.624 4.562-1.09 0.021-2.18 0.041-3.303 0.062-13.395 0.065-23.667-4.757-33.573-13.687-10.19-10.56-13.116-23.857-12.953-37.984 0.458-11.856 6.608-24.436 15.141-32.641 17.479-15.604 38.317-15.959 59-7z" fill="#FA7D00"/>
<path transform="translate(1135.4 1111.8)" d="m0 0c1.525-0.021 3.05-0.041 4.621-0.062 12.192-0.043 22.153 0.356 31.191 9.121 5.568 6.731 6.456 15.768 5.813 24.191-1.988 11.901-1.988 11.901-7 16h-2c-0.712 1.648-1.374 3.318-2 5l-2 3c0.135 5.955 2.088 9.031 5.813 13.562 3.285 4.043 6.322 8.089 9.187 12.438 0.743 0.846 1.485 1.691 2.25 2.562 1.75 2.438 1.75 2.438 1.75 7.438-6.508 1.033-11.662 1.33-18-1-2.563-3.438-2.563-3.438-3.695-5.598-1.521-2.799-3.329-5.231-5.242-7.777-9.936-13.541-9.936-13.541-12.063-21.625-3.313-0.188-3.313-0.188-7 0-3.767 3.767-3.368 5.023-3.371 10.223-0.017 1.425-0.035 2.85-0.053 4.318-9e-3 3.018-0.014 6.036-0.015 9.055-0.019 1.423-0.038 2.847-0.057 4.314-2e-3 1.311-4e-3 2.622-6e-3 3.973-0.082 0.514-0.082 0.514-0.498 3.117-4.089 2.045-5.281 2.216-9.625 1.812-0.962-0.076-1.923-0.152-2.914-0.23-2.461-0.582-2.461-0.582-4.461-3.582-0.192-2.652-0.256-5.313-0.259-7.972-3e-3 -0.812-7e-3 -1.624-0.01-2.46-9e-3 -2.687-3e-3 -5.373 3e-3 -8.06-1e-3 -1.867-3e-3 -3.734-5e-3 -5.601-3e-3 -3.916 1e-3 -7.832 0.01-11.747 0.012-5.016 5e-3 -10.032-7e-3 -15.048-7e-3 -3.857-5e-3 -7.714 0-11.571 2e-3 -1.849 0-3.698-5e-3 -5.548-5e-3 -2.587 3e-3 -5.174 0.014-7.762 2e-3 -1.472 3e-3 -2.944 5e-3 -4.461 0.866-12.854 8.84-9.984 19.629-10.02zm-0.375 16.25c-2.292 4.583-2.299 7.348-2.313 12.438-0.016 1.483-0.033 2.967-0.05 4.496 0.363 4.067 0.788 5.957 3.363 9.066 5.055 2.528 7.487 2.016 13 1 5.239-2.126 9.16-4.002 12-9 1.172-4.613 1.523-6.953-0.625-11.25-3.721-4.308-7.899-8.371-13.812-9.016-0.423 3e-3 -0.423 3e-3 -2.563 0.016-0.846-5e-3 -1.691-0.01-2.563-0.016-2.437 0.266-2.437 0.266-6.437 2.266z" fill="#FA7D00"/>
<path transform="translate(2000.3 1110.8)" d="m0 0c4.558 0.109 9.115 0.226 13.672 0.37 0.784 0.016 0.784 0.016 4.752 0.096 20.424 0.592 20.424 0.592 27.498 6.279 1.813 2.438 1.813 2.438 1.813 4.438 0.99 0.33 1.98 0.66 3 1 5.821 7.836 4.638 19.107 3.437 28.312-1.899 4.871-4.9 7.922-8.437 11.688-2.848 3.488-3.982 4.984-4.063 9.5 1.28 4.217 3.056 6.293 6.063 9.5 3.767 4.219 6.486 7.972 9 13 0.886 0.845 1.773 1.691 2.687 2.562 2.313 2.438 2.313 2.438 2.313 7.438-5.236 2.618-12.503 1.225-18 0-3.44-2.766-5.018-6.111-7-10-1.394-2.14-2.811-4.265-4.25-6.375-0.645-0.977-1.289-1.954-1.954-2.961-1.53-2.269-3.154-4.475-4.796-6.664-0.475-1.196-0.949-2.393-1.438-3.625-1.562-3.375-1.562-3.375-5.562-5.375-3.688-0.188-3.688-0.188-7 0-1.928 1.927-1.2 5.475-1.246 8.027-0.033 1.432-0.066 2.863-0.1 4.338-0.061 3.044-0.119 6.089-0.172 9.133-0.034 1.433-0.068 2.865-0.103 4.342-0.026 1.323-0.051 2.647-0.076 4.011-0.303 3.149-0.303 3.149-2.303 5.149-9.366 1.423-9.366 1.423-13-1-0.375-3.682-0.375-3.682-0.373-8.549-3e-3 -0.885-7e-3 -1.769-0.011-2.681-8e-3 -2.934 6e-3 -5.867 0.02-8.801 1e-3 -2.033 0-4.066-1e-3 -6.098 0-4.264 0.01-8.528 0.028-12.792 0.023-5.474 0.024-10.949 0.017-16.424-3e-3 -4.198 3e-3 -8.396 0.013-12.595 4e-3 -2.019 5e-3 -4.038 3e-3 -6.057 0-2.818 0.013-5.636 0.029-8.454 5e-3 -1.606 9e-3 -3.213 0.014-4.867 0.334-4.714 0.766-5.598 5.526-5.865zm11.735 18.183c-2.169 4.338-2.299 6.653-2.313 11.437-0.017 1.298-0.033 2.597-0.051 3.934 0.38 3.797 1.065 5.631 3.364 8.629 3.793 2.709 5.789 3.006 10.5 2.875 7.464-1.452 10.952-3.768 15.5-9.875 1.433-2.866 1.306-4.813 1-8-2.762-5.205-6.682-9.341-12-12-11.603-0.972-11.603-0.972-16 3z" fill="#FA7D00"/>
<path transform="translate(1642,1111)" d="m0 0c3.572 3.572 3.375 4.35 3.406 9.207 0.022 1.227 0.044 2.453 0.067 3.717 9e-3 1.283 0.018 2.566 0.027 3.888 0.018 2.528 0.049 5.055 0.094 7.583 7e-3 1.122 0.014 2.245 0.021 3.401 0.44 3.659 1.486 6.061 3.385 9.204 5.051 3.697 10.417 3.418 16.438 3.312 0.915 4e-3 1.831 7e-3 2.775 0.01 5.172-0.041 10.013-0.139 14.787-2.322 1.892-4.318 2.269-8.18 2.344-12.859 0.015-0.64 0.015-0.64 0.09-3.879 0.044-2.69 0.088-5.38 0.132-8.071 0.03-1.274 0.06-2.549 0.09-3.863 0.019-1.166 0.038-2.332 0.057-3.534 0.287-2.794 0.287-2.794 2.287-4.794 2.531-0.266 2.531-0.266 5.5-0.25 0.98-5e-3 1.959-0.01 2.969-0.016 2.531 0.266 2.531 0.266 4.531 2.266 0.201 2.813 0.266 5.637 0.275 8.457 5e-3 0.875 0.01 1.75 0.015 2.651 0.014 2.902 0.013 5.803 0.011 8.704 4e-3 2.011 8e-3 4.021 0.013 6.031 7e-3 4.217 7e-3 8.433 2e-3 12.65-6e-3 5.414 0.011 10.828 0.034 16.243 0.015 4.152 0.016 8.304 0.013 12.456 0 1.997 5e-3 3.993 0.015 5.99 0.013 2.787 6e-3 5.574-6e-3 8.361 1e-3 1.588 2e-3 3.177 2e-3 4.813-0.123 1.203-0.247 2.405-0.374 3.644-4.552 3.035-7.654 1.812-13 1-2.73-2.73-2.267-4.291-2.309-8.109-0.025-1.23-0.05-2.46-0.076-3.727-0.035-2.594-0.066-5.187-0.094-7.781-0.026-1.235-0.052-2.47-0.08-3.742-0.013-1.129-0.027-2.258-0.04-3.421-0.46-3.696-1.406-6.082-3.401-9.22-5.77-2.885-11.134-2.368-17.5-2.375-1.236-0.024-2.472-0.049-3.746-0.074-1.187-4e-3 -2.375-8e-3 -3.598-0.012-1.084-8e-3 -2.169-0.016-3.287-0.025-3.531 0.598-4.662 1.729-6.869 4.486-1.472 2.944-1.166 5.623-1.211 8.906-0.028 1.383-0.057 2.767-0.086 4.192-0.052 2.934-0.096 5.869-0.133 8.804-0.015 0.692-0.015 0.692-0.093 4.192-0.02 1.275-0.04 2.551-0.06 3.865-0.138 1.004-0.275 2.007-0.417 3.041-4.27 2.847-7.075 1.902-12 1-2.636-3.954-2.254-6.427-2.259-11.172-3e-3 -0.832-7e-3 -1.665-0.01-2.523-9e-3 -2.757-3e-3 -5.513 3e-3 -8.27-1e-3 -1.914-3e-3 -3.828-5e-3 -5.743-3e-3 -4.014 1e-3 -8.028 0.01-12.042 0.012-5.146 5e-3 -10.292-7e-3 -15.438-7e-3 -3.954-5e-3 -7.908 0-11.862 2e-3 -1.897 0-3.795-5e-3 -5.692-5e-3 -2.652 3e-3 -5.305 0.014-7.957 2e-3 -1.51 3e-3 -3.02 5e-3 -4.575 0.254-3.726 0.254-3.726 2.254-7.726 3.276-1.092 5.568-1.286 9-1z" fill="#FA7D00"/>
<path transform="translate(2371.1 1110.7)" d="m0 0c0.49 2e-3 0.49 2e-3 2.97 0.012 0.503-1e-3 0.503-1e-3 3.05-6e-3 2.132-1e-3 4.265 3e-3 6.398 0.011 3.259 0.011 6.518 0 9.777-0.013 2.071 2e-3 4.142 4e-3 6.213 8e-3 0.974-4e-3 1.948-8e-3 2.952-0.012 8.798 0.061 8.798 0.061 12.528 2.278 2.463 3.695 2.39 5.633 2 10-3.614 3.614-4.491 3.376-9.426 3.406-1.271 0.022-2.543 0.044-3.853 0.067-1.331 9e-3 -2.662 0.018-4.033 0.027-2.621 0.018-5.243 0.049-7.864 0.094-0.582 3e-3 -0.582 3e-3 -3.528 0.021-3.747 0.438-6.123 1.357-9.296 3.385-2.164 4.329-2.491 6.254-2 11 1.719 3.373 2.886 5.443 6.306 7.153 2.856 0.898 5.122 1.086 8.108 1.085 1.008 0.016 2.016 0.032 3.055 0.049 2.112 0.017 4.224 0.022 6.336 0.016 2.811 0.055 5.436 0.153 8.195 0.697 3.029 3.153 2.984 4.781 3.313 9.187-0.313 3.813-0.313 3.813-2.313 5.813-2.319 0.271-2.319 0.271-5.199 0.308-1.045 0.026-2.09 0.051-3.166 0.077-2.195 0.035-4.391 0.066-6.586 0.093-5.948 0.15-10.807 0.374-16.049 3.522-2.161 4.322-2.408 6.263-2 11 1.328 3.835 2.216 5.523 5.702 7.644 3.563 1.465 6.104 1.752 9.939 1.797 0.617 0.014 0.617 0.014 3.742 0.08 1.276 0.014 2.552 0.027 3.867 0.041 2.547 0.035 5.094 0.077 7.641 0.129 1.124 0.013 2.249 0.025 3.407 0.038 2.702 0.271 2.702 0.271 4.702 2.271 0.978 3.912 1.223 6.992 1 11-3.445 3.445-8.625 2.409-13.281 2.484-1.124 0.024-2.249 0.048-3.407 0.073-2.381 0.049-4.762 0.092-7.142 0.131-3.655 0.062-7.309 0.145-10.963 0.23-2.308 0.044-4.617 0.087-6.926 0.129-0.549 0.013-0.549 0.013-3.33 0.078-2.65 0.036-5.302-0.034-7.951-0.125-3.132-3.132-2.254-6.198-2.259-10.549-3e-3 -0.885-7e-3 -1.769-0.01-2.681-9e-3 -2.934-3e-3 -5.867 4e-3 -8.801-2e-3 -2.033-4e-3 -4.066-6e-3 -6.098-3e-3 -4.264 1e-3 -8.528 0.01-12.792 0.012-5.474 5e-3 -10.949-7e-3 -16.424-7e-3 -4.198-5e-3 -8.396 1e-3 -12.595 1e-3 -2.019-1e-3 -4.038-5e-3 -6.057-5e-3 -2.818 2e-3 -5.636 0.013-8.454 2e-3 -1.606 4e-3 -3.213 5e-3 -4.867 0.456-6.614 3.481-5.919 9.366-5.96z" fill="#FA7D00"/>
<path transform="translate(1845,1115)" d="m0 0c2.312 0.25 2.312 0.25 5 1 2.599 3.465 3.646 5.417 4.938 9.375 1.135 3.273 2.129 5.725 4.062 8.625 2.42 3.63 3.587 7.3 5 11.406 1 2.594 1 2.594 3 5.594 1.885 2.828 2.84 5.126 3.938 8.312 1.54 4.472 3.449 8.353 5.835 12.422 1.741 3.215 2.986 6.573 4.235 10.004 0.992 2.262 0.992 2.262 3.992 6.262 0.768 1.872 1.475 3.771 2.125 5.688 1.784 5.221 1.784 5.221 2.875 6.312v5c-2.08 0.277-4.164 0.52-6.25 0.75-0.58 0.07-0.58 0.07-3.516 0.422-3.234-0.172-3.234-0.172-5.554-1.938-1.68-2.234-1.68-2.234-3.305-5.734-3.192-4.704-7.071-6.033-12.375-7.5-3.897-0.478-7.704-0.473-11.625-0.375-0.985 1e-3 -1.97 3e-3 -2.984 4e-3 -14.19 0.17-14.19 0.17-19.391 5.371-1.35 2.658-2.684 5.325-4 8l-2 2c-2.82-0.023-2.82-0.023-6.125-0.375-1.096-0.111-2.191-0.222-3.32-0.336-0.843-0.095-1.686-0.191-2.555-0.289-1.156-4.458-0.576-6.403 1.641-10.465 1.664-3.103 3.131-6.276 4.609-9.473 1.93-4.168 3.877-8.324 5.875-12.46 6.035-12.535 6.035-12.535 7.5-17.914 1.411-4.811 3.326-8.831 5.625-13.262 2.073-4.058 4.011-8.173 5.938-12.301 2.212-4.74 4.449-9.458 6.812-14.125zm-2 40c-4.65 4.65-5.725 9.895-6.562 16.312 0.562 3.688 0.562 3.688 2.937 6.188 4.943 2.045 8.279 1.911 13.625 1.5 4-2 4-2 5-4 0.664-7.308-0.499-11.199-5-17-3.794-3.035-4.9-3-10-3z" fill="#FA7D00"/>
<path transform="translate(1299.3 1110.7)" d="m0 0c0.503 2e-3 0.503 2e-3 3.046 0.012 1.031-2e-3 2.062-4e-3 3.124-6e-3 2.184-1e-3 4.368 3e-3 6.552 0.011 3.342 0.011 6.685 0 10.027-0.013 2.12 2e-3 4.24 4e-3 6.36 8e-3 1.001-4e-3 2.002-8e-3 3.033-0.012 4.588 0.031 7.401 0.194 11.568 2.278 1.185 3.553 1.267 6.27 1 10-3.614 3.614-4.492 3.376-9.426 3.406-1.271 0.022-2.543 0.044-3.853 0.067-1.331 9e-3 -2.662 0.018-4.033 0.027-2.622 0.018-5.243 0.049-7.864 0.094-0.582 3e-3 -0.582 3e-3 -3.528 0.021-3.747 0.438-6.123 1.357-9.296 3.385-2.269 4.537-2.385 6.991-2 12 1.331 3.221 2.137 4.578 5.275 6.113 2.861 0.931 5.139 1.155 8.139 1.195 1.008 0.026 2.016 0.051 3.055 0.077 2.112 0.035 4.224 0.066 6.336 0.093 1.005 0.027 2.011 0.053 3.047 0.08 0.916 0.014 1.832 0.027 2.776 0.041 2.372 0.401 2.372 0.401 5.372 3.401 0.519 3.439 0.222 6.492 0 10-3.675 3.675-10.526 2.408-15.574 2.478-6.022 0.167-10.933 0.763-16.426 3.522-2.278 4.555-2.381 6.969-2 12 1.911 5.432 1.911 5.432 5.191 7.142 3.292 1.005 6.13 1.147 9.571 1.202 1.283 0.029 2.566 0.059 3.889 0.089 2.703 0.045 5.406 0.089 8.109 0.133 0.64 0.015 0.64 0.015 3.877 0.09 1.172 0.019 2.345 0.038 3.553 0.057 2.81 0.287 2.81 0.287 4.81 2.287 1.423 9.366 1.423 9.366-1 13-5.925 1.144-11.882 1.16-17.898 1.168-0.916 3e-3 -1.833 7e-3 -2.777 0.01-1.921 5e-3 -3.842 7e-3 -5.763 7e-3 -2.949 2e-3 -5.898 0.021-8.847 0.04-1.871 2e-3 -3.742 4e-3 -5.613 5e-3 -0.442 4e-3 -0.442 4e-3 -2.677 0.022-6.196-0.023-6.196-0.023-8.425-2.252-0.196-2.844-0.256-5.698-0.259-8.549-3e-3 -0.885-7e-3 -1.769-0.01-2.681-9e-3 -2.934-3e-3 -5.867 3e-3 -8.801-1e-3 -2.033-3e-3 -4.066-5e-3 -6.098-3e-3 -4.264 1e-3 -8.528 0.01-12.792 0.012-5.474 5e-3 -10.949-7e-3 -16.424-7e-3 -4.198-5e-3 -8.396 0-12.595 2e-3 -2.019 0-4.038-4e-3 -6.057-6e-3 -2.818 2e-3 -5.636 0.013-8.454 2e-3 -1.606 4e-3 -3.213 5e-3 -4.867 0.462-6.69 3.611-5.92 9.544-5.96z" fill="#FA7D00"/>
<path transform="translate(1519,1115)" d="m0 0c5.763 5.051 5.763 5.051 6.75 9-1.102 4.409-3.207 6.244-6.75 9-3 0.688-3 0.688-6 0-2.007-1.658-4.007-3.326-6-5-7.618-2.712-15.333-2.945-23.125-0.938-10.173 5.087-16.934 12.265-21.043 22.985-2.392 8.489-0.77 16.257 3.168 23.953 5.735 9.112 15.604 15.144 25.957 17.742 7.068 0.518 12.132-2.537 18-6.211 3.391-1.706 5.301-2.038 9.043-1.531 3.613 2.81 5.691 4.594 6.688 9.125-0.938 3.92-2.319 4.699-5.688 6.875-1.299 0.887-2.599 1.774-3.938 2.688-7.03 4.002-14.096 3.495-22 3.5-0.529 6e-3 -0.529 6e-3 -3.208 0.037-14.799 0.027-23.999-6.473-34.217-16.557-8.924-9.742-11.55-22.004-11.075-35.027 1.521-12.652 5.258-22.712 14.438-31.641 0.728-0.737 1.457-1.475 2.207-2.234 16.065-14.56 38.095-15.163 56.793-5.766z" fill="#FA7D00"/>
</svg>
