<?xml version="1.0" encoding="UTF-8"?>
<svg version="1.1" viewBox="0 0 2744 1144" xmlns="http://www.w3.org/2000/svg">
<path transform="translate(221.38 293.88)" d="m0 0c0.749-1e-3 0.749-1e-3 4.538-6e-3 1.647 3e-3 3.293 5e-3 4.99 8e-3 1.776 0 3.551-1e-3 5.327-3e-3 4.911-2e-3 9.821 2e-3 14.732 6e-3 5.351 4e-3 10.702 3e-3 16.052 2e-3 9.424-1e-3 18.849 1e-3 28.273 6e-3 14.108 8e-3 28.217 0.01 42.325 0.011 24.041 2e-3 48.082 8e-3 72.123 0.017 24.374 9e-3 48.749 0.016 73.123 0.021 0.769 0 0.769 0 4.659 1e-3 6.262 1e-3 12.524 2e-3 18.786 3e-3 68.898 0.012 137.8 0.033 206.69 0.056 0.436 0 0.436 0 2.641 1e-3 4.409 1e-3 8.817 2e-3 13.226 4e-3 36.924 0.012 73.848 0.023 110.77 0.034 17.678 5e-3 35.357 0.01 53.035 0.015 0.879 1e-3 1.758 1e-3 2.664 1e-3 42.315 0.013 84.63 0.025 126.94 0.039 0.451 0 0.451 0 2.735 1e-3 57.528 0.018 115.06 0.038 172.58 0.059 4.717 2e-3 9.434 3e-3 14.151 5e-3 7.562 3e-3 15.124 6e-3 22.687 9e-3 0.468 0 0.468 0 2.84 1e-3 1.894 0 3.788 1e-3 5.682 2e-3 13.286 5e-3 26.572 9e-3 39.857 0.014 4.755 2e-3 9.509 4e-3 14.263 6e-3 89.807 0.033 179.62 0.063 269.42 0.083h2.866c29.549 7e-3 59.098 0.013 88.646 0.019 30.319 6e-3 60.638 0.013 90.956 0.019 0.934 0 1.867 1e-3 2.829 1e-3 58.442 0.012 116.88 0.029 175.33 0.049 0.902 0 1.804 1e-3 2.734 1e-3 39.624 0.014 79.248 0.028 118.87 0.043 15.939 7e-3 31.879 0.013 47.819 0.019l7.929 3e-3c40.449 0.015 80.898 0.028 121.35 0.034 0.873 1e-3 1.746 1e-3 2.645 1e-3 14.044 2e-3 28.087 4e-3 42.131 6e-3 57.496 8e-3 114.99 0.025 172.49 0.056l23.439 0.012c1.531 1e-3 3.063 2e-3 4.641 3e-3 24.317 0.012 48.635 0.015 72.952 0.013 23.872-2e-3 47.745 7e-3 71.617 0.027 14.021 0.012 28.042 0.016 42.062 7e-3 9.289-5e-3 18.577 1e-3 27.865 0.016 5.281 8e-3 10.561 0.011 15.841 1e-3 4.781-9e-3 9.561-4e-3 14.342 0.012 1.724 4e-3 3.448 2e-3 5.173-6e-3 2.323-9e-3 4.647 2e-3 6.971 0.014 0.645 1e-3 0.645 1e-3 3.91 2e-3 3.093 0.375 3.093 0.375 6.093 3.375-0.203 2.715-0.203 2.715-1 6-0.263 1.198-0.525 2.396-0.796 3.629-1.864 7.693-4.071 14.953-7.051 22.282-1.147 3.075-1.931 6.078-2.653 9.277-1.129 4.898-2.929 8.832-5.308 13.234-1.77 3.83-2.525 7.809-3.445 11.91-0.747 2.668-0.747 2.668-2.747 5.606-2.141 3.279-2.659 5.568-3.437 9.375-0.865 4.191-1.767 7.452-4.063 11.062-3.112 5.021-3.682 10.311-4.687 16.059-0.919 4.034-2.44 6.752-4.625 10.199-1.526 3.043-2.055 5.965-2.688 9.305-1.033 5.46-2.589 9.608-5.246 14.445-2.008 4.192-3.023 8.632-4.222 13.11-0.973 3.307-2.152 6.352-3.532 9.507-2.389 5.474-3.97 11.011-5.535 16.766-0.965 3.234-0.965 3.234-2.965 7.672-1.791 4.087-2.912 7.816-4 12.125-1.424 5.619-3.371 10.265-6 15.437-0.797 3.01-1.478 6.019-2.093 9.071-0.907 2.929-0.907 2.929-2.875 5.797-2.389 3.684-3.123 6.849-4.032 11.132-0.905 4.269-1.601 7.405-4.035 11.043-2.313 3.482-2.783 6.157-3.402 10.27-1.004 5.639-2.343 9.537-5.375 14.32-1.526 3.043-2.055 5.965-2.688 9.305-1.033 5.46-2.589 9.608-5.246 14.445-2.008 4.192-3.023 8.632-4.222 13.11-0.973 3.307-2.152 6.352-3.532 9.507-2.389 5.474-3.97 11.011-5.535 16.766-0.965 3.234-0.965 3.234-2.965 7.672-1.791 4.087-2.912 7.816-4 12.125-1.424 5.619-3.371 10.265-6 15.437-0.797 3.01-1.478 6.019-2.093 9.071-0.907 2.929-0.907 2.929-2.875 5.797-2.389 3.684-3.123 6.849-4.032 11.132-0.905 4.269-1.601 7.405-4.035 11.043-2.313 3.482-2.783 6.157-3.402 10.27-1.004 5.639-2.343 9.537-5.375 14.32-1.526 3.043-2.055 5.965-2.688 9.305-1.033 5.46-2.589 9.608-5.246 14.445-2.008 4.192-3.023 8.632-4.222 13.11-0.973 3.307-2.152 6.352-3.532 9.507-2.389 5.474-3.97 11.011-5.535 16.766-0.965 3.234-0.965 3.234-2.965 7.672-1.791 4.087-2.912 7.816-4 12.125-1.424 5.619-3.371 10.265-6 15.437-0.538 2.032-1.035 4.075-1.5 6.125-0.822 3.594-1.375 5.696-3.5 8.75-2.775 4.337-3.262 8.749-4.093 13.786-1.041 3.834-1.967 5.663-4.907 8.339-5.309 1.621-10.092 2.25-15.627 2.248-0.752 2e-3 -0.752 2e-3 -4.553 0.013-1.642-5e-3 -3.283-0.011-4.974-0.016-1.779 1e-3 -3.557 3e-3 -5.335 6e-3 -4.909 6e-3 -9.817-1e-3 -14.726-0.01-5.352-8e-3 -10.704-3e-3 -16.055-1e-3 -9.423 3e-3 -18.847-1e-3 -28.27-0.01-14.106-0.014-28.213-0.016-42.32-0.016-24.039-1e-3 -48.077-0.011-72.116-0.026-24.371-0.015-48.741-0.026-73.112-0.031-1.537 0-3.075-1e-3 -4.659-1e-3 -6.262-2e-3 -12.524-3e-3 -18.786-4e-3 -58.367-0.013-116.73-0.035-175.1-0.064l-5.244-3e-3c-0.433 0-0.433 0-2.625-1e-3 -11.424-6e-3 -22.849-0.011-34.273-0.017-0.873 0-1.747-1e-3 -2.646-1e-3 -40.443-0.02-80.886-0.035-121.33-0.049-4.41-2e-3 -8.82-3e-3 -13.23-5e-3 -13.293-5e-3 -26.586-9e-3 -39.878-0.014-40.536-0.014-81.071-0.029-121.61-0.044-0.903-1e-3 -1.805-1e-3 -2.735-1e-3 -58.465-0.023-116.93-0.048-175.39-0.076-0.467 0-0.467 0-2.829-1e-3 -31.269-0.015-62.538-0.03-93.808-0.045-94.571-0.045-189.14-0.087-358.04-0.142-31.268-0.01-62.535-0.019-93.803-0.03h-2.828c-58.439-0.019-116.88-0.04-175.32-0.064-0.451-1e-3 -0.451-1e-3 -2.734-2e-3 -40.51-0.016-81.02-0.034-121.53-0.052-13.285-6e-3 -26.57-0.011-39.856-0.017l-13.221-6e-3c-40.446-0.018-80.891-0.035-121.34-0.047-0.872 0-1.745 0-2.645-1e-3 -11.42-3e-3 -22.841-7e-3 -34.262-0.01-0.865 0-1.731-1e-3 -2.623-1e-3 -1.747 0-3.494-1e-3 -5.241-2e-3 -59.061-0.017-118.12-0.043-177.18-0.077-6.24-3e-3 -12.48-7e-3 -18.72-0.01-1.531-1e-3 -3.062-2e-3 -4.64-3e-3 -24.314-0.014-48.628-0.02-72.942-0.025-23.869-4e-3 -47.739-0.015-71.608-0.034-14.019-0.011-28.037-0.016-42.056-0.014-9.287 1e-3 -18.574-5e-3 -27.862-0.017-5.279-6e-3 -10.559-0.01-15.838-4e-3 -4.78 5e-3 -9.56 0-14.34-0.011-1.724-3e-3 -3.448-2e-3 -5.172 2e-3 -2.323 6e-3 -4.647-2e-3 -6.97-0.011-1.29 0-2.58-1e-3 -3.909-1e-3 -3.094-0.252-3.094-0.252-6.094-2.252 0.613-11.105 4.603-23.365 9.036-33.546 1.226-3.118 2.081-6.285 2.964-9.516 1.108-4.027 2.264-7.794 4.063-11.563 1.589-3.587 2.521-6.535 3.375-10.312 1.159-5.003 2.944-9.051 5.371-13.551 1.663-3.505 2.5-7.09 3.32-10.871 0.871-2.641 0.871-2.641 2.871-5.512 2.285-3.574 2.809-6.267 3.438-10.441 0.815-4.585 1.552-8.253 4.062-12.188 2.477-3.891 3.209-7.464 4-12 0.977-5.582 2.312-9.457 5.313-14.199 1.477-2.861 2.042-5.587 2.687-8.738 0.856-4.165 1.831-7.586 3.875-11.313 3.154-5.786 4.669-11.958 6.438-18.277 0.914-3.056 1.865-5.746 3.25-8.598 2.286-5.161 3.548-10.34 4.934-15.8 0.828-2.949 1.749-5.513 3.066-8.262 1.604-3.57 2.524-6.482 3.375-10.25 1.159-5.003 2.944-9.051 5.371-13.551 1.663-3.505 2.5-7.09 3.32-10.871 0.871-2.641 0.871-2.641 2.871-5.512 2.285-3.574 2.809-6.267 3.438-10.441 0.815-4.585 1.552-8.253 4.062-12.188 2.477-3.891 3.209-7.464 4-12 0.977-5.582 2.312-9.457 5.313-14.199 1.477-2.861 2.042-5.587 2.687-8.738 0.856-4.165 1.831-7.586 3.875-11.313 3.154-5.786 4.669-11.958 6.438-18.277 0.914-3.056 1.865-5.746 3.25-8.598 2.286-5.161 3.548-10.34 4.934-15.8 0.828-2.949 1.749-5.513 3.066-8.262 1.604-3.57 2.524-6.482 3.375-10.25 1.159-5.003 2.944-9.051 5.371-13.551 1.663-3.505 2.5-7.09 3.32-10.871 0.871-2.641 0.871-2.641 2.871-5.512 2.285-3.574 2.809-6.267 3.438-10.441 0.815-4.585 1.552-8.253 4.062-12.188 2.477-3.891 3.209-7.464 4-12 0.977-5.582 2.312-9.457 5.313-14.199 1.477-2.861 2.042-5.587 2.687-8.738 0.856-4.165 1.831-7.586 3.875-11.313 3.154-5.786 4.669-11.958 6.438-18.277 0.914-3.056 1.865-5.746 3.25-8.598 2.286-5.161 3.548-10.34 4.934-15.8 0.828-2.949 1.749-5.513 3.066-8.262 1.604-3.57 2.524-6.482 3.375-10.25 1.159-5.002 2.936-9.05 5.375-13.543 1.305-2.769 1.993-5.417 2.687-8.395 0.892-3.526 1.356-4.961 3.813-7.75 5.106-2.612 10.423-2.499 16.066-2.498zm701.21 190.12c-3.35 1.296-6.673 1.826-10.211 2.438-6.109 1.109-9.374 2.859-14.375 6.562-2.108 0.55-4.236 1.022-6.375 1.438-6.37 1.287-10.533 3.635-15.625 7.562-3.153 2.124-6.296 4.178-9.562 6.125-11.528 7.186-24.202 16.205-31.438 27.875-1.468 1.759-2.949 3.508-4.437 5.25-4.125 5.002-6.919 9.869-9.563 15.75-0.504 0.952-1.008 1.903-1.527 2.883-4.66 9.093-6.063 18.072-7.473 28.117l-1 4c-0.407 7.7-0.093 14.557 2 22 0.308 2.332 0.598 4.665 0.875 7 0.796 5.76 2.141 9.943 5.125 15 0.41 0.838 0.82 1.676 1.243 2.54 5.645 11.322 14.832 20.714 24.757 28.46 0.846 0.784 1.692 1.568 2.563 2.375 4.783 3.653 10.022 6.045 15.437 8.625 0.97 0.514 1.939 1.027 2.938 1.555 3.312 1.563 6.523 2.514 10.062 3.445 3.557 0.936 6.652 1.814 9.899 3.551 21.748 10.162 74.13 6.91 96.871 0 2.286-0.838 4.567-1.694 6.805-2.652 3.35-1.241 6.715-1.704 10.238-2.274 6.063-1.09 10.802-2.547 16.187-5.625 1.341-0.495 2.682-0.99 4.063-1.5 3.941-1.501 7.293-3.39 10.937-5.5 3-1.333 6-2.666 9-4 7.662-4.039 14.943-8.788 21-15 0.764-0.577 1.527-1.155 2.313-1.75 3.018-2.527 5.438-5.309 7.988-8.296 2.119-2.436 4.417-4.671 6.699-6.954 2.959-3.495 5.481-7.179 8-11 0.495-0.66 0.495-0.66 3-4 1.085-2.523 2.006-5.077 2.938-7.66 1.062-2.34 1.062-2.34 4.062-5.34 0.79-3.369 1.444-6.654 2-10.062 0.924-5.492 1.889-10.795 3.629-16.094 3.116-9.962 1.355-20.962-2.664-30.429-0.965-2.415-0.965-2.415-1.84-7.04-1.39-5.405-3.909-8.903-7.125-13.375-0.402-0.66-0.402-0.66-2.437-4-5.879-9.176-12.361-17.504-22-22.937-3.563-2.063-3.563-2.063-5.938-4.063-2.432-1.853-4.46-2.879-7.25-4.062-4.375-1.938-4.375-1.938-7.375-4.938-3.003-1.027-3.003-1.027-6.562-1.937-4.211-1.085-8.115-2.336-12.086-4.082-6.015-2.453-11.983-3.123-18.414-3.731-1.226-0.121-2.452-0.242-3.715-0.367-24.738-2.266-58.838-5.076-81.637 6.117zm-503.22 1.036c-2.469 1.006-4.92 1.71-7.493 2.402-4.864 1.395-8.658 3.751-12.875 6.562-1.031 0.495-2.062 0.99-3.125 1.5-3.394 1.772-5.993 3.987-8.875 6.5-0.866 0.66-1.732 1.32-2.625 2-2.524 2.126-4.357 4.397-6.375 7-0.618 0.599-1.237 1.197-1.875 1.813-9.805 10.093-11.183 20.636-11.5 34.5 0.307 12.051 2.869 19.936 11.375 28.687 4 3 4 3 6 3l2 4c2.523 1.752 5.13 3.065 7.875 4.438 3.125 1.562 3.125 1.562 6.375 3.562 3.784 2.018 7.26 3.09 11.364 4.219 2.386 0.781 2.386 0.781 5.574 2.781 3.904 2.049 6.873 2.678 11.187 3.438 5.605 1.005 9.495 2.342 14.243 5.375 3.12 1.555 6.147 2.059 9.57 2.687 5.639 1.067 8.681 2.369 12.812 6.5 1.011 0.475 2.022 0.949 3.063 1.438 3.592 1.911 5.419 4.414 7.937 7.562h2c0.49 6.248 0.49 6.248-1.609 9.473-2.729 2.885-5.489 4.734-8.891 6.777-1.124 0.686-2.248 1.372-3.406 2.079-10.511 5.68-25.534 3.824-37.219 3.359-0.479-0.017-0.479-0.017-2.905-0.105-7.809-0.373-14.72-1.855-21.907-5.02-3.656-1.581-7.248-2.981-11.063-4.125-4.031-1.449-5.1-2.538-8-5.438-1.485-0.474-2.97-0.948-4.5-1.437-4.643-1.612-5.885-2.589-8.5-6.563-3.458-1.729-6.189-1.381-10-1-4 2.688-4 2.688-5.988 4.348-3.113 2.557-6.596 4.525-10.012 6.652-0.866 0.702-1.732 1.403-2.625 2.125-2.64 2.085-5.371 3.374-8.375 4.875-0.412 0.33-0.412 0.33-2.5 2-2.684 2.148-5.406 3.524-8.5 5-1 1-1 1-1.312 4.25 0.379 4.552 0.984 5.659 4.312 8.75 2.477 1.591 4.995 3.068 7.555 4.52 2.445 1.48 2.445 1.48 5.445 4.168 3.488 2.688 6.44 3.406 10.641 4.5 2.359 0.812 2.359 0.812 5.109 3.312 4.28 3.293 8.19 3.713 13.434 4.68 5.117 1.1 9.876 2.872 14.758 4.735 14.61 5.187 32.929 3.272 48.273 3.271 3.15 2e-3 6.3 0.02 9.45 0.039 10.057 0.028 20.023-0.191 30.042-1.119 0.432-0.039 0.432-0.039 2.613-0.239 5.169-0.537 9.512-1.528 14.165-3.804 3.436-1.451 6.939-2.132 10.578-2.938 6.93-1.656 11.329-3.783 16.937-8.125 1.052-0.68 2.104-1.361 3.188-2.062 11.928-8.217 20.855-18.35 25.812-31.938 0.99-1.32 1.98-2.64 3-4 2.704-9.438 1.809-21.316-2.492-30.019-6.619-11.577-14.901-21.205-27.508-25.981-0.969-0.825-1.938-1.65-2.937-2.5-3.399-2.774-6.505-4.046-10.598-5.507-2.465-0.993-2.465-0.993-4.808-2.528-3.352-1.848-6.312-2.226-10.094-2.777-7.024-1.209-12.888-3.304-19.332-6.289-2.935-1.271-5.622-2.075-8.731-2.774-8.029-2.016-16.65-6.075-21.882-12.593-2.237-4.193-2.092-7.358-1.618-12.032 3.259-3.258 5.799-4.219 10-6 1.052-0.701 2.104-1.402 3.188-2.125 6-3.999 12.937-3.058 19.875-3.062 1.178-0.012 2.355-0.025 3.568-0.037 9.588-0.016 18.653 0.581 27.432 4.724 3.785 1.687 7.158 2.856 11.25 3.5 5.139 1.097 7.586 2.81 11.687 6 5.615 3.298 9.478 4.89 16 4 6.703-2.48 11.718-6.206 17-11 4.015-3.122 7.93-5.993 12.313-8.562 5.15-3.404 6.269-5.41 7.5-11.375-0.813-4.063-0.813-4.063-2.875-5.77-1.776-1.043-3.581-2.037-5.41-2.984-2.528-1.309-2.528-1.309-5.153-3.496-3.186-2.431-6.627-3.429-10.375-4.813-0.859-0.638-1.719-1.276-2.605-1.933-4.432-2.698-8.731-3.575-13.77-4.629-5.095-1.097-9.962-2.188-14.851-4.027-5.777-2.159-11.367-2.535-17.496-2.572-1.296-9e-3 -2.592-0.019-3.927-0.029-1.385-4e-3 -2.771-8e-3 -4.198-0.013-0.722-3e-3 -0.722-3e-3 -4.376-0.017-3.054-9e-3 -6.107-0.016-9.161-0.02-4.637-9e-3 -9.274-0.04-13.91-0.072-2.976-7e-3 -5.952-0.012-8.928-0.016-1.372-0.012-2.743-0.024-4.156-0.037-11.703 0.027-22.487 1.723-33.254 6.401zm959.63-4.036c-2.842 3.79-3.412 5.009-4.25 9.375-1.147 5.086-2.953 9.171-5.437 13.75-3.209 6.153-4.379 9.99-3.313 16.875 1.797 2.935 2.945 4.473 6 6 1.95 0.087 3.904 0.108 5.855 0.098 1.229-3e-3 2.457-6e-3 3.722-0.01 1.334-8e-3 2.667-0.016 4.041-0.025 1.363-4e-3 2.727-8e-3 4.132-0.012 5.857-0.016 11.713-0.044 17.569-0.071 4.266-0.018 8.533-0.03 12.799-0.042 0.664-4e-3 0.664-4e-3 4.028-0.025 1.234-3e-3 2.469-7e-3 3.741-0.01 1.086-5e-3 2.173-0.011 3.292-0.016 2.821 0.113 2.821 0.113 6.821 1.113 0.599 8.985-1.884 16.245-5.515 24.407-1.501 3.632-2.49 7.154-3.422 10.968-1.103 4.291-2.21 8.316-4.125 12.313-1.604 3.57-2.524 6.482-3.375 10.25-0.94 4.079-2.129 7.448-4.125 11.125-1.928 3.564-2.858 6.552-3.438 10.562-0.664 4.514-2.045 7.125-4.707 10.879-2.468 4.766-3.175 10.144-4.203 15.375-1.128 4.268-2.875 7.33-5.09 11.121-0.871 3.211-0.871 3.211-1.437 6.375-0.88 4.236-1.858 7.565-4.125 11.25-4.411 7.254-5.099 16.041-4.438 24.375 3.303 2.202 4.305 2.253 8.143 2.259 0.524 3e-3 0.524 3e-3 3.175 0.019 1.132-4e-3 2.263-8e-3 3.429-0.012 1.162 2e-3 2.325 4e-3 3.523 6e-3 2.46 1e-3 4.921-2e-3 7.381-0.011 3.768-0.01 7.536 0 11.305 0.013 2.388-1e-3 4.777-4e-3 7.166-8e-3 0.564 2e-3 0.564 2e-3 3.422 0.012 1.051-6e-3 2.102-0.012 3.185-0.019 0.923-1e-3 1.847-3e-3 2.799-5e-3 3.465-0.355 5.814-1.474 8.07-4.144 3.803-6.125 5.335-11.673 6.629-18.735 0.924-4.032 2.54-7.155 4.52-10.753 2.015-4.214 3.02-8.684 4.222-13.184 0.947-3.154 2.09-5.922 3.531-8.875 2.661-5.507 4.051-11.142 5.532-17.059 0.81-2.929 1.724-5.462 3.031-8.191 1.604-3.57 2.524-6.482 3.375-10.25 1.159-5.003 2.944-9.051 5.371-13.551 1.663-3.505 2.5-7.09 3.32-10.871 0.871-2.641 0.871-2.641 2.871-5.512 2.285-3.574 2.809-6.267 3.438-10.441 0.83-4.673 1.646-8.441 4.125-12.5 2.852-4.9 3.525-8.635 4.437-14.188l1-2c2.921-0.296 2.921-0.296 6.888-0.363 1.479-0.03 2.957-0.06 4.481-0.091 1.614-0.024 3.227-0.048 4.889-0.073 2.516-0.053 5.032-0.105 7.548-0.159 6.226-0.129 12.452-0.236 18.678-0.343 4.326-0.074 8.652-0.163 12.978-0.259 2.445-0.051 4.891-0.084 7.336-0.118 1.498-0.033 2.996-0.067 4.539-0.101 0.657-0.012 0.657-0.012 3.981-0.069 5.779-0.665 9.573-2.314 13.682-6.424 1.028-2.89 1.028-2.89 1.938-6.25 1.121-3.892 2.127-6.859 4.187-10.375 3.612-6.5 4.793-15.031 3.875-22.375-4.193-3.558-8.137-3.374-13.475-3.374-0.851-4e-3 -1.702-8e-3 -2.58-0.012-2.852-9e-3 -5.703 2e-3 -8.555 0.014-2.045-2e-3 -4.09-6e-3 -6.136-0.011-5.556-9e-3 -11.111 0-16.667 0.013-5.816 0.012-11.632 8e-3 -17.449 6e-3 -9.771-1e-3 -19.543 0.01-29.315 0.028-11.288 0.021-22.577 0.025-33.865 0.019-10.864-6e-3 -21.728 0-32.592 0.011-4.621 5e-3 -9.241 5e-3 -13.861 3e-3 -5.447-2e-3 -10.893 7e-3 -16.34 0.022-1.996 5e-3 -3.992 5e-3 -5.988 3e-3 -2.731-4e-3 -5.462 6e-3 -8.193 0.018-0.764 1e-3 -0.764 1e-3 -4.626 6e-3 -4.694 0.274-8.85 0.907-13.358 2.254zm254.69 1.625c-2.315 3.259-3.409 6.596-4.688 10.375-2.689 7.509-2.689 7.509-4.5 10.375-3.369 5.897-5.331 12.839-4.5 19.625 3.36 3.36 5.211 3.934 9.891 4.107 1.119-8e-3 2.238-0.016 3.391-0.025 1.271-6e-3 2.543-0.013 3.852-0.02 1.37-0.011 2.74-0.022 4.152-0.034 2.89-0.013 5.78-0.025 8.67-0.037 4.564-0.025 9.129-0.053 13.694-0.086 4.399-0.031 8.799-0.048 13.198-0.065 0.686-6e-3 0.686-6e-3 4.157-0.04 1.269-4e-3 2.537-7e-3 3.843-0.011 1.119-7e-3 2.237-0.015 3.389-0.022 2.763 0.233 2.763 0.233 5.763 2.233 0.846 5.264 0.072 8.265-2.812 12.563-3.567 5.4-4.345 10.603-5.41 16.91-0.716 3.247-1.516 5.262-3.278 8.027-2.476 3.892-3.208 7.465-4 12-0.975 5.581-2.312 9.401-5.312 14.133-2.042 4.07-2.538 8.512-3.375 12.957-0.762 3.197-1.731 5.554-3.313 8.41-2.17 3.929-3.121 7.461-3.937 11.875-1.153 6.087-3.226 10.775-6.152 16.196-1.865 3.873-2.711 7.742-3.633 11.922-1.095 4.237-2.836 8.112-4.571 12.121-2.629 6.287-5.33 13.004-4.207 19.886 3.471 2.634 6.058 3.379 10.37 3.405 1.048 0.012 2.095 0.025 3.175 0.038 1.121-3e-3 2.242-6e-3 3.397-9e-3 1.16 5e-3 2.32 0.011 3.514 0.016 2.449 6e-3 4.897 5e-3 7.346-3e-3 3.751-9e-3 7.5 0.02 11.251 0.052 2.38 1e-3 4.759 1e-3 7.139-2e-3 0.561 5e-3 0.561 5e-3 3.403 0.034 1.044-0.01 2.089-0.019 3.165-0.029h2.781c3.223-0.657 4.382-2.009 6.459-4.502 4.668-7.432 7-15.203 9.067-23.668 1.083-3.865 2.941-6.861 4.933-10.332 0.526-2.114 1-4.241 1.438-6.375 0.867-4.167 1.783-7.407 4.062-11 2.442-3.939 3.203-7.568 4-12.125 0.977-5.582 2.312-9.457 5.313-14.199 1.477-2.861 2.042-5.587 2.687-8.738 0.856-4.165 1.831-7.586 3.875-11.313 3.154-5.786 4.669-11.958 6.438-18.277 0.914-3.056 1.865-5.746 3.25-8.598 1.778-4.014 2.865-7.695 3.937-11.937 1.442-5.665 3.128-10.364 6-15.438l2-4c5.127-1.533 10.568-1.067 15.875-1 10.793 0.053 21.582-0.049 32.372-0.262 1.782-0.033 3.564-0.061 5.346-0.084 2.541-0.034 5.082-0.086 7.622-0.142 0.738-0.013 0.738-0.013 4.473-0.079 6.305-0.632 13.402-2.245 18.312-6.433 2.594-5.486 3.858-11.268 5.157-17.168 0.89-2.987 2.217-5.188 3.843-7.832 1.251-5 1.327-8.836 1-14-4.776-3.582-6.5-3.374-12.361-3.374-0.851-4e-3 -1.703-8e-3 -2.58-0.012-2.857-9e-3 -5.714 2e-3 -8.571 0.014-2.047-2e-3 -4.094-6e-3 -6.14-0.011-5.565-9e-3 -11.129 0-16.693 0.013-5.822 0.012-11.644 8e-3 -17.466 6e-3 -9.781-1e-3 -19.563 0.01-29.345 0.028-11.304 0.021-22.608 0.025-33.912 0.019-10.874-6e-3 -21.748 0-32.622 0.011-4.627 5e-3 -9.253 5e-3 -13.88 3e-3 -5.453-2e-3 -10.907 7e-3 -16.36 0.022-1.999 5e-3 -3.999 5e-3 -5.998 3e-3 -2.734-4e-3 -5.468 6e-3 -8.202 0.018-0.764 1e-3 -0.764 1e-3 -4.632 6e-3 -5.209 0.313-10.206 0.827-14.55 3.879zm246.31-0.625c-1.476 2.997-1.476 2.997-2.625 6.438-1.463 4.317-2.583 6.841-5.375 10.562-0.547 2.377-0.996 4.778-1.375 7.188-0.84 4.613-1.595 8.351-4.125 12.312-2.476 3.892-3.208 7.465-4 12-0.976 5.585-2.316 9.405-5.316 14.141-1.508 3.006-2.012 5.869-2.621 9.172-1.149 6.112-3.205 10.804-6.148 16.242-1.864 3.882-2.758 7.75-3.579 11.961-0.836 2.984-0.836 2.984-2.765 6.785-2.147 4.354-3.373 8.44-4.571 13.137-2.572 9.661-2.572 9.661-4.562 13.75-1.795 3.994-2.869 7.643-3.938 11.875-1.423 5.623-3.405 10.248-6 15.437-0.52 2.116-0.996 4.242-1.437 6.375-1.111 5.269-2.8 9.433-5.363 14.137-1.728 3.584-2.618 7.279-3.524 11.141-0.676 2.347-0.676 2.347-2.676 5.347-0.375 3.563-0.375 3.563 0 7 4.493 2.247 6.872 2.254 11.851 2.261 1.639 7e-3 3.278 0.014 4.967 0.022 1.819-3e-3 3.638-5e-3 5.458-8e-3 1.913 4e-3 3.827 0.01 5.74 0.016 5.201 0.013 10.401 0.014 15.602 0.011 4.339-1e-3 8.678 4e-3 13.017 9e-3 10.235 0.011 20.47 0.011 30.706 5e-3 10.564-6e-3 21.128 6e-3 31.693 0.028 9.065 0.017 18.131 0.023 27.197 0.02 5.417-2e-3 10.833 1e-3 16.25 0.015 5.093 0.012 10.186 0.01 15.279-3e-3 1.87-2e-3 3.74 1e-3 5.61 9e-3 2.551 0.01 5.102 1e-3 7.653-0.01h4.328c4.794-0.492 7.295-2.02 10.649-5.375 0.665-2.295 1.258-4.612 1.813-6.937 1.242-4.926 2.628-9.291 4.937-13.813 2.479-5.142 3.866-10.623 2.25-16.25-3.549-2.616-6.073-3.373-10.447-3.354-1.081-2e-3 -2.162-5e-3 -3.275-8e-3 -1.176 0.013-2.352 0.025-3.563 0.038-1.246 1e-3 -2.492 2e-3 -3.776 3e-3 -4.119 7e-3 -8.238 0.036-12.357 0.064-2.857 8e-3 -5.715 0.014-8.573 0.02-7.524 0.017-15.048 0.051-22.571 0.09-12.054 0.059-24.109 0.093-36.163 0.126-4.22 0.014-8.44 0.035-12.661 0.058-2.572 0.01-5.144 0.02-7.716 0.029-1.182 9e-3 -2.364 0.017-3.581 0.026-1.073 3e-3 -2.145 5e-3 -3.25 9e-3 -0.936 4e-3 -1.871 9e-3 -2.835 0.014-2.232-0.115-2.232-0.115-4.232-1.115-0.906-7.82 0.792-12.219 4.543-19.027 1.43-2.916 2.111-5.348 2.645-8.535 0.812-4.438 0.812-4.438 3.812-7.438 3.748-0.285 7.33-0.385 11.078-0.353 1.142-2e-3 2.283-4e-3 3.46-6e-3 2.483-3e-3 4.966 0 7.449 0.01 3.93 0.014 7.859 7e-3 11.789-5e-3 11.174-0.031 22.348-0.026 33.522-6e-3 6.831 0.011 13.661-2e-3 20.493-0.03 2.604-5e-3 5.209-1e-3 7.814 0.013 3.643 0.019 7.286 7e-3 10.93-0.011 0.538 7e-3 0.538 7e-3 3.264 0.041 4.975-0.055 7.517-0.209 11.781-2.974 8.748-9.679 13.734-24.529 14.702-37.425-0.282-3.254-0.282-3.254-3.282-6.254-4.821-1.205-9.417-1.168-14.352-1.189-1.052-8e-3 -2.105-0.017-3.189-0.025-2.284-0.018-4.568-0.033-6.852-0.046-3.609-0.021-7.218-0.048-10.827-0.077-8.96-0.069-17.919-0.129-26.879-0.189-7.576-0.05-15.151-0.105-22.726-0.165-3.566-0.027-7.132-0.048-10.698-0.068-2.171-0.017-4.341-0.034-6.512-0.051-0.5-2e-3 -0.5-2e-3 -3.031-0.013-6.82-0.063-6.82-0.063-7.934-1.177-0.854-11.743 4.091-21.203 10-31 2-2 2-2 5.957-2.16 0.802 0.016 0.802 0.016 4.856 0.098 4.955 0.092 9.354 0.029 14.187-0.938 3.632-0.098 7.246-0.143 10.878-0.141 1.096-4e-3 2.193-7e-3 3.322-0.011 2.378-7e-3 4.756-0.013 7.134-0.016 3.761-7e-3 7.522-0.023 11.283-0.042 10.693-0.052 21.385-0.1 32.078-0.115 6.541-0.011 13.083-0.04 19.624-0.082 2.495-0.012 4.989-0.017 7.484-0.015 3.484 2e-3 6.966-0.02 10.45-0.048 1.034 7e-3 2.068 0.014 3.134 0.02 6.976-0.091 6.976-0.091 10.199-2.41 1.697-2.567 2.861-5.083 3.977-7.952 0.21-0.532 0.21-0.532 1.273-3.227 0.385-0.977 0.769-1.954 1.164-2.961 0.557-1.216 1.114-2.433 1.688-3.687 2.713-6.847 4.314-13.97 3.312-21.313-5.049-2.888-9.312-3.376-15.059-3.38-1.609-9e-3 -3.219-0.017-4.877-0.026-1.771 6e-3 -3.541 0.012-5.312 0.018-1.875-4e-3 -3.749-9e-3 -5.624-0.016-5.08-0.013-10.161-8e-3 -15.241 1e-3 -5.319 8e-3 -10.638 1e-3 -15.956-4e-3 -8.93-5e-3 -17.859 2e-3 -26.788 0.016-10.324 0.017-20.648 0.011-30.972-5e-3 -8.867-0.014-17.733-0.016-26.6-8e-3 -5.294 5e-3 -10.589 5e-3 -15.883-4e-3 -4.976-9e-3 -9.952-3e-3 -14.927 0.014-1.827 4e-3 -3.653 3e-3 -5.48-4e-3 -2.492-8e-3 -4.984 4e-3 -7.475 0.018-1.395 1e-3 -2.79 2e-3 -4.227 3e-3 -3.751 0.396-5.64 1.055-8.579 3.377zm231 0c-5.563 8.877-8.272 18.92-10.878 28.969-0.885 3.182-1.826 5.947-3.247 8.906-1.588 3.495-2.475 6.363-3.312 10.063-0.94 4.079-2.129 7.448-4.125 11.125-1.928 3.564-2.858 6.552-3.438 10.562-0.665 4.513-2.042 7.184-4.707 10.942-2.409 4.534-3.163 9.635-4.203 14.629-1.09 3.804-1.09 3.804-3.121 6.84-2.315 3.486-2.786 6.159-3.406 10.277-0.815 4.584-1.552 8.253-4.063 12.187-2.476 3.892-3.208 7.465-4 12-0.976 5.585-2.316 9.405-5.316 14.141-1.508 3.006-2.012 5.869-2.621 9.172-1.145 6.097-3.199 10.742-6.145 16.16-2 4.271-2.847 8.593-3.679 13.215-0.739 2.812-0.739 2.812-3.739 6.812-0.375 4.625-0.375 4.625 0 9 4.447 2.965 9.057 2.326 14.239 2.336 1.113 7e-3 2.227 0.014 3.374 0.021 2.358 0.01 4.716 0.014 7.074 0.014 3.602 4e-3 7.202 0.041 10.804 0.079 2.291 6e-3 4.582 0.01 6.873 0.011 1.075 0.015 2.15 0.029 3.258 0.044 5.955-0.036 9.75-0.343 14.378-4.505 3.21-4.585 4.685-9.096 6.157-14.406 0.863-2.655 1.97-4.944 3.281-7.406 1.985-3.77 3.289-7.398 4.437-11.5 4.226-14.396 10.54-21.897 23.125-29.688 0.867-0.701 1.733-1.402 2.625-2.125 2.641-2.084 5.372-3.373 8.375-4.875 0.784-0.639 1.568-1.278 2.375-1.937 2.625-2.063 2.625-2.063 6.5-3.938 4.125-2.125 4.125-2.125 7.75-5.437 3.375-2.688 3.375-2.688 6.438-3.063 7.427 3.477 9.98 11.456 12.785 18.625 1.348 3.218 3.207 5.863 5.152 8.75 1.061 2.521 2.027 5.07 3 7.625 1 2.375 1 2.375 3 5.375 2.272 3.408 3.549 6.815 5 10.625 1 2.375 1 2.375 3 5.375 1.802 2.703 2.854 4.991 4 8 1.563 4.096 3.528 7.369 6 11 0.599 1.527 1.197 3.053 1.813 4.625 2.61 5.22 3.867 6.132 9.187 8.375 4.271 0.548 8.493 0.514 12.793 0.461 1.224-1e-3 2.448-1e-3 3.708-2e-3 2.578-6e-3 5.156-0.022 7.734-0.047 3.95-0.037 7.899-0.041 11.849-0.04 2.508-0.01 5.015-0.022 7.522-0.036 0.591-1e-3 0.591-1e-3 3.583-6e-3 1.098-0.013 2.196-0.026 3.328-0.039 0.965-8e-3 1.929-0.015 2.924-0.023 2.559-0.268 2.559-0.268 6.559-2.268 0.683-5.268 0.279-6.628-3-11-0.453-1.237-0.907-2.475-1.375-3.75-1.625-4.25-1.625-4.25-4.062-8.125-2.426-3.904-3.984-7.554-5.598-11.82-0.965-2.305-0.965-2.305-2.965-5.305-2.288-3.433-3.587-6.861-4.972-10.73-1.028-2.27-1.028-2.27-4.028-5.27-0.973-1.761-1.883-3.558-2.75-5.375-2.216-4.543-4.492-9.04-6.875-13.5-0.549-1.028-1.098-2.057-1.664-3.117-1.711-3.008-1.711-3.008-3.828-6.14-2.265-3.449-3.436-7.011-4.883-10.868-0.639-0.948-1.278-1.897-1.937-2.875-2.285-3.461-3.626-6.875-5.035-10.757-1.028-2.368-1.028-2.368-4.028-6.368 0-5 0-5 1.5-7 3.315-2.651 6.887-4.776 10.5-7 0.846-0.701 1.692-1.402 2.563-2.125 2.437-1.875 2.437-1.875 5.875-3.312 3.854-1.69 6.372-3.848 9.562-6.563 1.992-1.016 3.992-2.017 6-3 1.676-1.322 3.342-2.657 5-4 3.821-2.464 7.674-4.814 11.625-7.062 4.191-2.405 8.146-4.923 11.875-8 2.697-2.09 5.455-3.415 8.5-4.938 1.676-1.322 3.342-2.657 5-4 2.667-1.666 5.334-3.333 8-5 0.846-0.68 1.692-1.361 2.563-2.062 2.97-2.361 6.127-4.086 9.437-5.938 5.309-3.168 10.197-6.599 15.02-10.449 1.605-1.257 3.284-2.42 4.98-3.551 0.313-4.062 0.313-4.062 0-8-2.823-1.411-5.2-1.142-8.358-1.161-0.669-4e-3 -0.669-4e-3 -4.056-0.029-1.455-4e-3 -2.911-8e-3 -4.41-0.013-0.745-3e-3 -0.745-3e-3 -4.515-0.017-3.16-9e-3 -6.32-0.016-9.48-0.02-4.83-9e-3 -9.661-0.04-14.491-0.072-3.067-7e-3 -6.134-0.012-9.201-0.016-1.445-0.012-2.89-0.024-4.379-0.037-0.677 1e-3 -0.677 1e-3 -4.104 9e-3 -1.187-4e-3 -2.373-7e-3 -3.596-0.011-9.783 1.054-17.833 7.801-25.308 13.735-2.607 2.025-5.346 3.816-8.102 5.632-0.825 0.681-1.65 1.362-2.5 2.063-2.696 2.09-5.454 3.415-8.5 4.937-1.675 1.323-3.341 2.658-5 4-2.666 1.667-5.333 3.334-8 5-0.866 0.702-1.732 1.403-2.625 2.125-2.64 2.085-5.371 3.374-8.375 4.875-1.675 1.323-3.341 2.658-5 4-2.666 1.667-5.333 3.334-8 5-0.866 0.702-1.732 1.403-2.625 2.125-2.64 2.085-5.371 3.374-8.375 4.875-1.67 1.329-3.337 2.662-5 4-1.196 0.66-2.392 1.32-3.625 2-3.375 2-3.375 2-6.375 6-2.657 1.351-5.325 2.683-8 4-2.013 1.651-4.014 3.317-6 5-1.967 1.063-3.965 2.072-6 3l-4 2c0.566-4.26 1.6-7.719 3.375-11.625 2.221-5.135 3.632-10.145 4.883-15.585 0.87-3.269 2.249-6.202 3.707-9.247 1.833-4.503 2.835-9.252 4.028-13.957 0.845-3.007 1.8-5.648 3.132-8.461 3.203-7.044 4.929-14.397 3.875-22.125-5.809-3.536-11.428-3.438-18.007-3.398-1.044-3e-3 -2.088-6e-3 -3.163-9e-3 -2.197-2e-3 -4.394 4e-3 -6.591 0.016-3.36 0.016-6.718 0-10.078-0.019-2.14 2e-3 -4.279 6e-3 -6.418 0.012-0.501-3e-3 -0.501-3e-3 -3.037-0.018-8.806 0.088-8.806 0.088-12.706 3.416zm-1455.5-2.981c-6.169 0.036-12.338 0.094-18.507 0.191-1.842 0.027-3.685 0.047-5.528 0.061-2.537 0.021-5.074 0.07-7.611 0.12-1.412 0.021-2.825 0.042-4.28 0.064-4.116 0.622-5.74 1.583-8.611 4.545-3.354 6.303-5.123 12.793-7 19.661-1 3.339-1 3.339-3 7.777-1.791 4.087-2.912 7.816-4 12.125-1.424 5.619-3.371 10.265-6 15.437-0.517 1.949-0.993 3.909-1.437 5.875-1.152 5.024-2.934 9.036-5.371 13.547-1.743 3.772-2.524 7.655-3.32 11.719-0.872 2.859-0.872 2.859-2.872 5.762-2.297 3.559-2.81 6.242-3.437 10.41-1.004 5.642-2.343 9.54-5.379 14.324-1.515 3.025-2.012 5.914-2.621 9.238-1.117 5.956-3.066 10.187-6.152 15.344-2.061 4.064-2.751 8.23-3.637 12.672-0.745 2.995-1.724 5.235-3.211 7.922-3.016 5.527-4.182 11.32-5.582 17.422-0.823 3.159-1.753 5.696-3.231 8.578-2.109 5.049-2.778 9.766-1.75 15.187 3.286 2.191 4.294 2.259 8.111 2.291 1.042 0.013 2.083 0.026 3.156 0.039 0.563 1e-3 0.563 1e-3 3.409 6e-3 1.158 7e-3 2.316 0.014 3.509 0.021 2.452 0.01 4.904 0.014 7.356 0.014 3.747 4e-3 7.492 0.041 11.239 0.079 2.382 6e-3 4.764 0.01 7.146 0.011 1.119 0.015 2.238 0.029 3.391 0.044 6.024-0.035 10.044-0.215 14.683-4.505 2.424-4.55 3.666-9.195 4.875-14.187 1.523-5.927 3.503-11.321 5.973-16.906 1.194-3.012 1.946-5.935 2.652-9.094 1.518-6.564 3.689-12.938 9.5-16.813 2.605-0.309 2.605-0.309 5.775-0.394 1.19-0.037 2.38-0.074 3.606-0.111 1.294-0.031 2.587-0.061 3.92-0.092 1.342-0.039 2.684-0.079 4.067-0.119 4.315-0.124 8.63-0.236 12.945-0.346 5.621-0.154 11.242-0.313 16.863-0.473 1.365-0.038 2.729-0.076 4.134-0.115 8.095-0.23 16.186-0.498 24.276-0.857 0.432-0.019 0.432-0.019 2.613-0.113 9.395-0.443 17.744-1.103 26.219-5.38 3.505-1.357 7.001-1.839 10.707-2.437 6.28-1.074 9.895-2.479 14.875-6.563 1.544-0.65 3.11-1.25 4.688-1.812 15.333-5.883 31.458-19.913 38.6-34.887 1.115-2.827 2.123-5.668 3.087-8.551 0.342-0.966 0.684-1.933 1.036-2.929 4.58-13.145 4.524-24.953-1.028-37.961-1.859-3.845-3.96-7.341-6.383-10.86-0.524-0.846-1.049-1.693-1.589-2.566-3.801-5.92-6.806-8.603-13.411-11.434-0.969-0.825-1.938-1.65-2.937-2.5-2.689-2.194-4.62-3.302-7.75-4.625-4.313-1.875-4.313-1.875-7.313-4.875-2.536-0.751-2.536-0.751-5.558-1.281-1.109-0.202-2.219-0.405-3.361-0.613-1.161-0.2-2.322-0.4-3.518-0.606-7.543-1.338-14.963-2.747-22.34-4.834-8.649-1.787-17.456-1.815-26.254-1.798-1.134-2e-3 -2.269-3e-3 -3.437-5e-3 -3.677-2e-3 -7.354 4e-3 -11.032 0.012-0.627 2e-3 -0.627 2e-3 -3.801 7e-3 -10.054 0.021-20.108 0.082-30.162 0.137zm543.88 0.011c-6.005 0.052-12.009 0.124-18.013 0.236-2.518 0.046-5.037 0.08-7.556 0.115-1.488 0.035-2.977 0.071-4.511 0.108-1.26 0.026-2.521 0.052-3.821 0.079-4.017 0.495-6.94 1.533-10.511 3.432-2.841 3.789-3.723 5.879-4.937 10.313-1.103 3.801-2.052 6.669-4.125 10.062-2.038 3.814-2.627 6.763-3.375 11-1.003 5.567-2.309 9.515-5.305 14.25-2.139 4.04-3.07 8.432-4.168 12.848-1.09 3.527-1.09 3.527-3.05 7.387-2.168 4.402-3.392 8.579-4.602 13.328-1.326 5.197-2.671 9.265-5.438 13.812-1.081 3.746-1.955 7.513-2.839 11.309-1.208 3.842-2.94 6.363-5.161 9.691-1.125 3.622-1.125 3.622-2 7.438-1.035 4.188-1.865 7.334-4.062 11.062-2.082 3.762-2.632 6.659-3.375 10.875-1.004 5.573-2.317 9.52-5.309 14.262-2.146 4.046-3.049 8.468-4.218 12.875-0.964 3.247-2.137 6.127-3.598 9.176-3.355 7.031-6.752 15.425-5.438 23.312 3.474 2.63 6.057 3.379 10.37 3.405 1.048 0.012 2.095 0.025 3.175 0.038 0.56-2e-3 0.56-2e-3 3.397-9e-3 1.16 5e-3 2.32 0.011 3.514 0.016 2.449 6e-3 4.897 5e-3 7.346-3e-3 3.751-9e-3 7.5 0.02 11.251 0.052 2.38 1e-3 4.759 1e-3 7.139-2e-3 0.561 5e-3 0.561 5e-3 3.403 0.034 1.044-0.01 2.089-0.019 3.165-0.029h2.781c3.228-0.658 4.393-1.991 6.459-4.502 4.259-8.335 7.095-17.465 9.438-26.5 0.948-3.579 2.022-6.519 3.562-9.937 2.007-4.577 3.198-8.911 4.29-13.766 0.708-2.786 1.365-5.25 2.71-7.797 6.963-1.74 14.163-1.514 21.313-1.75 1.593-0.068 3.185-0.136 4.826-0.207 1.539-0.05 3.077-0.1 4.662-0.152 1.404-0.051 2.809-0.102 4.255-0.155 4.289 0.288 7.155 1.274 10.944 3.264 1.637 2.086 1.637 2.086 2.688 4.375 1.791 3.623 3.74 6.491 6.312 9.625 1.667 2.667 3.334 5.334 5 8 0.702 0.867 1.403 1.733 2.125 2.625 2.085 2.641 3.374 5.372 4.875 8.375 1.323 1.676 2.657 3.342 4 5 1.686 2.655 3.352 5.322 5 8 0.702 1.032 1.403 2.063 2.125 3.125 1.875 2.875 1.875 2.875 3.313 6.063 1.852 3.334 3.159 4.167 6.562 5.812 2.897 0.368 2.897 0.368 6.12 0.357 1.211 3e-3 2.422 6e-3 3.67 9e-3 0.65-6e-3 0.65-6e-3 3.937-0.037 1.34-2e-3 2.68-4e-3 4.06-6e-3 2.829-7e-3 5.659-0.021 8.488-0.041 4.341-0.031 8.681-0.041 13.022-0.047 2.748-9e-3 5.495-0.02 8.243-0.031 1.303-5e-3 2.606-9e-3 3.948-0.013 1.205-0.01 2.41-0.02 3.652-0.029 1.062-7e-3 2.123-0.014 3.218-0.021 2.642-0.141 2.642-0.141 5.642-1.141 0.495-7.293 0.495-7.293-1.75-10.5-0.742-0.825-1.485-1.65-2.25-2.5-1.333-2.666-2.666-5.333-4-8-1.332-1.667-2.665-3.334-4-5-1.363-2.127-2.695-4.274-4-6.437-1.96-3.243-3.927-6.454-6.039-9.602-1.922-2.903-3.635-5.861-5.336-8.898-2.104-3.672-4.184-6.897-7.062-10-2.563-3.063-2.563-3.063-2.563-8.063 1.943-1.942 5.469-1.855 8.063-2.312 5.952-1.151 10.588-2.786 15.937-5.688 1.679-0.51 3.367-0.988 5.063-1.437 4.757-1.334 7.963-3.6 11.937-6.563 1.362-0.536 2.723-1.072 4.125-1.625 13.325-5.612 23.664-17.899 29.516-30.738 1.359-2.637 1.359-2.637 4.359-5.637 3.338-12.471 3.888-28.596 0-41-2.437-3.75-2.437-3.75-5-7-0.226-0.495-0.226-0.495-1.375-3-2.755-5.087-6.567-8.971-11.75-11.562-2.875-1.438-2.875-1.438-5.187-4.375-3.375-3.846-7.032-5.278-11.688-7.063-0.786-0.35-1.572-0.701-2.382-1.062-5.454-2.385-10.567-3.539-16.446-4.375-3.347-0.594-6.434-1.529-9.672-2.563-19.027-5.533-39.582-4.284-59.187-4.187-2.939 9e-3 -5.877 0.018-8.816 0.026-9.695 0.036-19.39 0.112-29.085 0.191zm322.24 97.689c-2.243 3.096-3.061 6.106-4.09 9.781-1.501 5.158-3.132 9.997-5.375 14.875-2.395 5.513-2.785 9.647-2.188 15.625 4.196 4.196 10.319 3.155 15.874 3.162 0.502 2e-3 0.502 2e-3 3.037 0.015 3.316 0.014 6.633 0.021 9.949 0.027 2.307 5e-3 4.613 0.011 6.92 0.017 4.839 0.01 9.678 0.016 14.516 0.02 6.192 5e-3 12.383 0.029 18.575 0.058 4.766 0.018 9.533 0.023 14.299 0.025 2.282 3e-3 4.564 0.011 6.846 0.024 3.198 0.017 6.395 0.015 9.593 9e-3 0.469 5e-3 0.469 5e-3 2.841 0.028 6.746-0.043 12.865-0.825 17.894-5.619 1.952-3.259 3.05-6.382 4.156-10.016 1.399-4.425 2.813-8.718 4.75-12.937 2.346-5.11 3.15-9.224 2.75-14.813-3-4-3-4-6-5-3.26-0.107-6.499-0.157-9.76-0.161-1.002-5e-3 -2.004-0.01-3.036-0.015-3.322-0.014-6.644-0.021-9.965-0.027-2.309-5e-3 -4.617-0.011-6.925-0.017-4.845-0.01-9.689-0.016-14.534-0.02-6.2-5e-3 -12.399-0.029-18.598-0.058-4.771-0.018-9.542-0.024-14.312-0.025-2.285-3e-3 -4.57-0.011-6.855-0.024-3.203-0.017-6.405-0.015-9.607-9e-3 -0.939-9e-3 -1.878-0.018-2.846-0.028-6.7 0.042-12.426 1.089-17.909 5.103zm809.35 39.281v7l25 1v-7c-2.557-1.278-4.367-1.113-7.226-1.097-0.516 1e-3 -0.516 1e-3 -3.125 0.01-1.08 8e-3 -2.161 0.016-3.274 0.025-1.088 4e-3 -2.175 9e-3 -3.296 0.014-2.693 0.011-5.386 0.029-8.079 0.048zm-18 10c-0.312 3.688-0.312 3.688 0 7 10.993 0.329 10.993 0.329 14-2 0.313-4.125 0.313-4.125 0-8-10.528-0.471-10.528-0.471-14 3zm45-3c-0.25 3.313-0.25 3.313 0 7 4 3 4 3 9 3 0.124 1.424 0.248 2.847 0.375 4.313 0.625 4.687 0.625 4.687 2.625 7.687 0.361 3.82 0.425 6.226-1.437 9.625-2.421 5.23-2.317 10.675-2.563 16.375-1.113 0.124-2.227 0.248-3.375 0.375-3.625 0.625-3.625 0.625-5.625 2.625-0.125 3.625-0.125 3.625 0 7 7.625 0.25 7.625 0.25 11-2 0.188-3.625 0.188-3.625 0-7 0.465 0.031 0.465 0.031 2.813 0.188 3.187-0.188 3.187-0.188 6.187-3.188 2.696-10.479 4.596-27.236-1-37-3.625-0.812-3.625-0.812-7-1-0.061-0.567-0.061-0.567-0.375-3.437-0.206-1.176-0.412-2.351-0.625-3.563-3.202-1.601-6.478-1.056-10-1zm-30 10c-6.147 11.225-12.193 23.87-11 37 1 1 1 1 5.25 1.5 4.75-0.5 4.75-0.5 7.813-4 0.639-1.155 1.279-2.31 1.937-3.5 4.19 0.998 5.901 1.893 8.875 5.125 3.125 2.875 3.125 2.875 7.438 3.313 3.687-0.438 3.687-0.438 4.687-1.438 0.164-3.038 0.255-6.074 0.329-9.117 0.671-2.883 0.671-2.883 3.093-4.515 0.851-0.452 1.702-0.903 2.578-1.368 2.434-4.866 2.576-7.603 2-13-3.734-5.694-7.553-8.851-14-11-15.05-0.974-15.05-0.974-19 1zm-24 3v7h7v-7h-7zm-6 11c-2.524 3.787-2.267 5.985-2.25 10.5-5e-3 1.331-0.01 2.661-0.015 4.032 0.265 3.468 0.265 3.468 2.265 6.468h7v-21h-7zm5 22c-0.481 7.229-0.481 7.229 1.563 10.5 3.258 2.005 5.685 1.789 9.437 1.5 0.177-4.602 0.109-6.783-2-11-2.956-1.478-5.742-1.06-9-1zm13 12v7c5.054 0.193 10.107 0.372 15.162 0.538 1.718 0.058 3.437 0.12 5.156 0.186 2.472 0.094 4.944 0.174 7.417 0.253 1.487 0.052 2.974 0.105 4.507 0.159 3.758-0.136 3.758-0.136 7.758-2.136 0.25-3.625 0.25-3.625 0-7-28.151-1.606-28.151-1.606-40 1z"/>
<path transform="translate(1006,528)" d="m0 0c0.712 0.237 0.712 0.237 4.312 1.438 4.098 1.736 5.122 3.034 7.688 6.562 1.956 1.777 3.965 3.471 6 5.156 5.084 4.687 6.926 8.905 8.75 15.594 0.428 1.521 0.856 3.042 1.297 4.609 1.767 8.602 0.774 16.1-1.172 24.516-0.222 0.969-0.443 1.937-0.671 2.936-1.729 7.124-4.2 13.03-8.204 19.189-0.495 1.114-0.99 2.227-1.5 3.375-1.943 3.401-4.425 5.227-7.5 7.625-2.71 2.578-5.033 5.044-7.25 8.062-3.494 3.732-7.051 5.007-11.75 6.938-0.839 0.612-1.678 1.225-2.543 1.855-4.838 3.001-9.938 4.581-15.332 6.333-1.051 0.355-2.101 0.71-3.184 1.076-18.774 6.191-41.233 6.006-59.941-0.264-1.36-0.397-2.72-0.794-4.121-1.203-6.748-2.049-11.059-3.515-15.879-8.797-1.303-1.095-2.615-2.179-3.938-3.25-7.658-6.717-11.312-13.593-12.062-23.75-0.992-20.146 0.443-34.472 14-50 7.786-8.574 16.341-17.155 27-22 0.855-0.633 1.709-1.266 2.59-1.918 4.071-2.486 8.132-3.567 12.722-4.644 4.836-1.175 9.583-2.402 14.293-4.028 17.618-5.653 39.942-3.636 56.395 4.59z"/>
<path transform="translate(1220.6 524.53)" d="m0 0c0.569-4e-3 0.569-4e-3 3.448-0.023 2.414-0.011 4.828-0.014 7.242-9e-3 3.617 1e-3 7.232-0.041 10.849-0.085 35.723-0.185 35.723-0.185 48.586 9.023 5.2 5.7 5.726 10.308 5.563 17.813-0.655 5.762-3.117 9.58-7.188 13.562-2.966 2.077-5.866 3.626-9.125 5.188-0.804 0.635-1.609 1.271-2.437 1.926-4.966 2.891-9.954 3.669-15.563 4.699-2.126 0.405-4.251 0.814-6.375 1.226-0.468 0.087-0.468 0.087-2.836 0.526-2.789 0.623-2.789 0.623-5.602 1.644-3.179 0.976-5.652 1.238-8.961 1.253-1.111 0.01-2.222 0.019-3.367 0.029-1.184-1e-3 -2.369-2e-3 -3.589-2e-3 -1.228 4e-3 -2.455 8e-3 -3.72 0.013-2.588 5e-3 -5.176 6e-3 -7.764 1e-3 -3.97-3e-3 -7.939 0.021-11.909 0.046-2.515 2e-3 -5.03 3e-3 -7.545 2e-3 -0.595 5e-3 -0.595 5e-3 -3.608 0.028-1.101-6e-3 -2.203-0.013-3.338-0.019-0.485 0-0.485 0-2.94 2e-3 -2.446-0.374-2.446-0.374-5.446-3.374 0.011-7.052 2.911-12.823 6-19 0.685-2.448 1.327-4.908 1.937-7.375 1.628-6.439 3.876-11.836 7.063-17.625 0.474-1.135 0.949-2.269 1.437-3.438 4.199-6.885 12.037-6.03 19.188-6.031z"/>
<path transform="translate(715.06 526.81)" d="m0 0c1.017 0.165 2.035 0.33 3.083 0.5 8.577 1.541 14.36 4.646 19.855 11.688 2.182 5.139 3.508 9.436 3 15-1.504 3.437-1.504 3.437-3.563 7-0.661 1.175-1.323 2.351-2.004 3.562-7.496 10.588-20.452 15.184-32.809 17.812-14.244 1.962-28.84 1.756-43.187 1.876-1.47 0.021-2.939 0.042-4.454 0.064-0.689 3e-3 -0.689 3e-3 -4.175 0.014-1.239 9e-3 -2.479 0.018-3.756 0.028-3.052-0.356-3.052-0.356-6.052-3.356 0-5.429 2.014-8.786 4.742-13.352 1.503-3.166 2.108-6.144 2.758-9.586 1.038-5.501 2.61-9.737 5.304-14.609 1.736-3.563 2.568-7.25 3.422-11.106 0.774-2.347 0.774-2.347 3.774-5.347 17.603-3.499 36.437-3.058 54.062-0.188z"/>
<path transform="translate(2340,644)" d="m0 0c0.99 0.33 1.98 0.66 3 1l-1 3h-2v-4z"/>
</svg>
