<?xml version="1.0" encoding="UTF-8"?>
<svg version="1.1" viewBox="0 0 2448 1112" xmlns="http://www.w3.org/2000/svg">
<path transform="translate(835,393)" d="m0 0c2.31-0.375 2.31-0.375 5.268-0.375 0.562-3e-3 0.562-3e-3 3.407-0.022 1.245 8e-3 2.491 0.015 3.774 0.023 1.315-4e-3 2.63-8e-3 3.985-0.012 4.439-0.01 8.878 2e-3 13.316 0.014 3.17-3e-3 6.34-6e-3 9.509-0.011 7.736-9e-3 15.472-3e-3 23.209 9e-3 9.007 0.013 18.014 0.012 27.021 0.01 16.074-3e-3 32.149 8e-3 48.223 0.028 15.598 0.019 31.196 0.026 46.794 0.02 16.975-6e-3 33.95-6e-3 50.925 6e-3l5.433 3e-3c0.891 1e-3 1.782 2e-3 2.7 2e-3 6.278 4e-3 12.555 4e-3 18.833 2e-3 8.456-3e-3 16.911 6e-3 25.367 0.022 3.106 4e-3 6.211 5e-3 9.317 2e-3 4.236-3e-3 8.472 6e-3 12.708 0.018 1.232-3e-3 2.464-7e-3 3.734-0.011 9.24 0.047 15.924 1.26 23.981 6.049 2.864 1.403 5.57 2.049 8.684 2.723 5.132 1.146 7.993 2.774 11.812 6.5 0.866 0.495 1.733 0.99 2.625 1.5 2.806 1.772 4.322 3.917 6.375 6.5l4 2c1.364 1.979 2.694 3.982 4 6 0.866 0.763 1.733 1.526 2.625 2.312 3.178 3.597 3.345 7.055 4.375 11.688 2.562 2.938 2.562 2.938 5 5 2.215 4.43 1.794 10.276 2.207 15.156 0.639 3.902 1.235 6.038 2.832 9.465 2.893 6.789 2.599 13.666 2.523 20.941-3e-3 0.713-3e-3 0.713-0.02 4.321-0.166 9.186-1.139 16.787-4.319 25.426-1.368 4.129-1.785 7.926-2.161 12.253-0.736 7.145-2.38 10.1-7.062 15.438-0.804 1.641-1.555 3.31-2.25 5-0.577 1.32-1.155 2.64-1.75 4h-2l-2 4c-2.572 4.257-5.051 7.014-9 10-0.763 0.825-1.526 1.65-2.312 2.5-3.258 3.03-6.707 4.54-10.688 6.5-0.485 0.433-0.485 0.433-2.938 2.625-3.859 2.993-7.333 3.324-12.062 4.375-3.375 2.562-3.375 2.562-6 5-3.051 1.017-5.563 1.292-8.762 1.535-1.118 0.087-2.236 0.174-3.388 0.264-1.168 0.087-2.335 0.174-3.538 0.263-0.589 0.046-0.589 0.046-3.572 0.276-2.913 0.224-5.826 0.445-8.74 0.662 0.409 6.276 1.324 10.469 4.75 15.75 0.338 0.534 0.338 0.534 2.047 3.234 2.82 3.861 6.073 6.976 9.578 10.204 3.037 3.254 5.475 6.736 7.977 10.41 1.492 2.174 3.066 4.292 4.648 6.402 0.619 1.299 1.237 2.599 1.875 3.938 2.043 3.905 3.929 6.106 7.125 9.062 1.338 1.663 2.672 3.329 4 5 0.32 0.299 0.32 0.299 1.938 1.812 3.543 3.758 5.974 8.298 8.539 12.754 2.787 4.795 5.426 8.636 9.523 12.434 5.076 5.275 8.546 10.559 12 17 1.329 1.67 2.661 3.338 4 5 0.155 0.433 0.155 0.433 0.938 2.625 1.392 3.113 3.167 3.652 6.062 5.375 1.393 1.959 2.722 3.964 4 6 0.846 0.99 1.691 1.98 2.562 3 2.367 2.913 3.769 5.661 5.438 9 0.866 1.011 1.733 2.021 2.625 3.062 2.328 2.88 3.173 4.3 3.375 7.938l-1 2c-2.756 0.281-2.756 0.281-6.52 0.326-1.42 0.021-2.841 0.042-4.304 0.064-0.787 7e-3 -0.787 7e-3 -4.768 0.04-1.645 0.021-3.291 0.043-4.986 0.064-4.529 0.058-9.059 0.102-13.588 0.141-2.829 0.025-5.659 0.052-8.488 0.08-8.852 0.085-17.703 0.161-26.555 0.225-10.219 0.075-20.438 0.179-30.656 0.309-7.896 0.099-15.791 0.171-23.687 0.222-4.717 0.031-9.433 0.074-14.149 0.145-4.442 0.066-8.882 0.099-13.324 0.106-2.401 0.012-4.802 0.059-7.202 0.108-11.791-0.034-11.791-0.034-16.66-4.181-3.339-3.914-6.041-7.738-8.551-12.211-1.562-2.438-1.562-2.438-4-4.75-3.106-3.259-4.63-6.637-6.562-10.688-1.306-2.018-2.636-4.021-4-6-0.474-0.846-0.949-1.691-1.438-2.562-1.562-2.438-1.562-2.438-3.937-4.75-4.682-4.794-7.555-10.548-10.625-16.438-2.228-4.17-4.294-6.324-8-9.25-1.031-2.19-2.055-4.385-2.973-6.625-2.126-4.915-4.823-9.2-8.652-12.937-2.836-2.911-3.897-5.677-5.375-9.438-1.641-3.133-3.167-5.167-5.688-7.688l-2.312-2.312v-2h-8c0.14 0.839 0.28 1.679 0.424 2.544 1.692 11.162 1.92 22.176 1.947 33.433 9e-3 1.984 0.018 3.968 0.027 5.953 0.017 4.126 0.025 8.253 0.028 12.379 5e-3 5.285 0.043 10.569 0.088 15.854 0.03 4.083 0.037 8.167 0.038 12.25 4e-3 1.95 0.017 3.9 0.038 5.849 0.027 2.716 0.022 5.431 9e-3 8.147 5e-3 1.542 0.011 3.085 0.016 4.674-0.615 3.917-0.615 3.917-2.287 6.916-5.435 3.268-10.956 2.669-17.174 2.6-1.412 4e-3 -2.824 8e-3 -4.279 0.012-4.671 7e-3 -9.341-0.022-14.012-0.052-3.239-5e-3 -6.478-7e-3 -9.717-7e-3 -6.788-7e-3 -13.576-0.029-20.364-0.065-7.854-0.042-15.708-0.059-23.563-0.063-7.553-3e-3 -15.105-0.018-22.658-0.04-3.216-8e-3 -6.432-0.015-9.649-0.02-4.485-9e-3 -8.969-0.031-13.454-0.058-0.67 0-0.67 0-4.063-2e-3 -0.608-5e-3 -0.608-5e-3 -3.683-0.03-1.061-4e-3 -2.122-9e-3 -3.215-0.014-2.497-0.26-2.497-0.26-4.497-2.26-1.511-6.781-1.142-13.819-1.134-20.729-2e-3 -1.393-4e-3 -2.785-7e-3 -4.219-6e-3 -4.67-5e-3 -9.34-4e-3 -14.01-3e-3 -3.346-7e-3 -6.692-0.01-10.038-9e-3 -8.146-0.011-16.292-0.012-24.438-1e-3 -6.619-3e-3 -13.237-6e-3 -19.855-9e-3 -18.758-0.013-37.517-0.012-56.275v-3.063-3.067c0-16.422-9e-3 -32.845-0.023-49.267-0.015-16.857-0.022-33.714-0.021-50.57 0-9.467-2e-3 -18.933-0.013-28.399-9e-3 -8.055-0.011-16.109-5e-3 -24.164 4e-3 -4.112 3e-3 -8.223-5e-3 -12.335-8e-3 -4.45-3e-3 -8.9 5e-3 -13.35-5e-3 -1.309-0.011-2.618-0.016-3.968 5e-3 -1.186 9e-3 -2.372 0.014-3.594 0-0.513 0-0.513-1e-3 -3.114 0.25-2.545 0.25-2.545 2.25-5.545zm151 97c-1.349 2.699-1.142 4.817-1.161 7.839-0.01 1.225-0.019 2.45-0.029 3.712-4e-3 1.33-9e-3 2.661-0.013 4.031-6e-3 1.361-0.012 2.723-0.017 4.126-0.01 2.886-0.016 5.772-0.02 8.657-0.01 4.419-0.041 8.836-0.072 13.254-7e-3 2.8-0.012 5.6-0.016 8.401-0.012 1.324-0.025 2.648-0.038 4.012 3e-3 1.234 6e-3 2.469 0.01 3.741-4e-3 1.084-8e-3 2.168-0.011 3.285 0.419 3.359 1.376 5.229 3.367 7.942 4.449 2.763 9.541 2.289 14.613 2.266 0.929 2e-3 1.857 3e-3 2.814 5e-3 1.96 2e-3 3.921-2e-3 5.882-0.01 2.983-0.011 5.964 0 8.947 0.012 1.911-1e-3 3.821-3e-3 5.732-7e-3 0.442 2e-3 0.442 2e-3 2.678 0.012 6.768-0.051 12.712-0.715 18.584-4.216 3.543-1.948 5.974-2.602 9.875-3.374 4.579-1.044 5.597-1.369 8.813-5.063 0.68-1.196 1.361-2.392 2.062-3.625 0.908-0.825 1.815-1.65 2.75-2.5 4.856-5.396 3.466-14.56 3.5-21.5 0.021-1.054 0.041-2.109 0.062-3.195 0.038-7.407-0.66-12.669-5.605-18.516-2.876-2.432-5.686-4.166-9.019-5.914-0.535-0.285-0.535-0.285-3.239-1.727-8.299-3.966-14.779-5.096-23.867-5.046-1.175-3e-3 -2.351-6e-3 -3.562-9e-3 -2.473-2e-3 -4.947 3e-3 -7.42 0.016-3.786 0.016-7.57 0-11.356-0.019-2.408 2e-3 -4.816 6e-3 -7.224 0.012-1.131-7e-3 -2.261-0.013-3.426-0.019-1.054 0.01-2.109 0.019-3.196 0.029-0.924 2e-3 -1.848 5e-3 -2.801 7e-3 -3.138 0.46-5.036 1.538-7.597 3.381z" fill="#00197D"/>
<path transform="translate(1976.8 392.75)" d="m0 0c1.228-6e-3 2.457-0.011 3.722-0.017 1.355 4e-3 2.71 8e-3 4.106 0.012 1.421-3e-3 2.842-7e-3 4.306-0.01 4.72-9e-3 9.439-3e-3 14.159 3e-3 3.265-1e-3 6.531-3e-3 9.797-5e-3 6.853-4e-3 13.706 1e-3 20.559 0.01 7.931 0.011 15.862 8e-3 23.793-3e-3 7.619-0.011 15.238-0.01 22.858-4e-3 3.247 2e-3 6.494 0 9.741-5e-3 4.531-5e-3 9.061 3e-3 13.592 0.014 1.354-4e-3 2.709-8e-3 4.105-0.012 0.614 3e-3 0.614 3e-3 3.722 0.017 1.073 1e-3 2.145 2e-3 3.25 2e-3 2.52 0.252 2.52 0.252 4.52 2.252 0.184 3.898 0.241 7.724 0.211 11.622-1e-3 1.212-2e-3 2.423-4e-3 3.671-6e-3 4.024-0.027 8.047-0.047 12.07-6e-3 2.788-0.011 5.576-0.015 8.363-0.014 7.355-0.038 14.71-0.066 22.065-0.043 11.763-0.073 23.526-0.096 35.29-0.01 4.115-0.027 8.23-0.045 12.346-7e-3 2.521-0.013 5.041-0.02 7.562-6e-3 1.148-0.013 2.296-0.02 3.478-1e-3 0.528-1e-3 0.528-5e-3 3.2-3e-3 0.914-7e-3 1.829-0.01 2.771 0.12 2.612 0.537 5.015 1.117 7.562 3.813 0.25 3.813 0.25 8-1 1.223-3 1.751-5.82 2.235-9.02 0.896-3.488 2.213-4.536 4.765-6.98 0.871-2.438 0.871-2.438 1.438-5 1.267-4.779 1.267-4.779 4.062-6.875 3.678-3.126 3.714-6.772 4.688-11.375 1.057-3.578 2.95-4.46 5.812-6.75 0.813-2.75 0.813-2.75 1.5-6 1.12-5.28 2.178-6.758 6.5-10 0.778-2.199 0.778-2.199 1.438-4.813 1.041-4.094 1.717-5.367 4.625-8.75 2.937-3.437 2.937-3.437 3.937-7.937 1.192-5.362 3.463-7.386 7-11.5 0.907-2.549 1.557-5.101 2.219-7.723 1.104-3.219 3.401-4.897 5.781-7.277 0.31-1.423 0.619-2.846 0.938-4.313 1.308-5.771 3.312-8.171 7.062-12.687 0.99-1.32 1.98-2.64 3-4 3.144-0.495 3.144-0.495 7.105-0.488 1.499-7e-3 2.998-0.014 4.542-0.021 1.668 0.013 3.335 0.026 5.002 0.039 1.751-1e-3 3.502-3e-3 5.253-7e-3 4.76-5e-3 9.52 0.014 14.28 0.038 4.974 0.022 9.949 0.021 14.924 0.023 8.353 7e-3 16.707 0.028 25.06 0.059 10.734 0.041 21.467 0.058 32.2 0.068 9.215 8e-3 18.429 0.025 27.644 0.045 2.969 6e-3 5.937 0.011 8.906 0.016 4.658 9e-3 9.315 0.023 13.973 0.042 1.714 6e-3 3.427 0.01 5.14 0.013 2.331 4e-3 4.662 0.015 6.993 0.026 1.307 4e-3 2.614 8e-3 3.961 0.013 3.017 0.134 3.017 0.134 5.017 1.134 1 4 1 4-0.187 7-1.725 2.854-3.475 4.662-5.813 7-0.66 1.196-1.32 2.392-2 3.625-2 3.375-2 3.375-6 5.375-1.385 2.64-2.715 5.31-4 8-1.333 1.667-2.666 3.333-4 5-0.639 1.341-1.279 2.681-1.937 4.062-2.069 3.949-3.63 5.297-7.063 7.938-1.017 1.991-2.016 3.992-3 6-0.825 0.804-1.65 1.609-2.5 2.437-2.903 2.976-3.896 5.754-5.5 9.563-1.626 2.033-3.291 4.035-5 6-0.495 0.866-0.99 1.732-1.5 2.625-1.5 2.375-1.5 2.375-4 4.187-3.344 2.927-4.014 6.052-5.5 10.188-1.292 1.373-2.624 2.71-4 4-0.227 0.485-0.227 0.485-1.375 2.937-1.953 3.681-4.445 5.413-7.625 8.063-1.065 1.966-2.068 3.967-3 6-0.639 0.784-1.279 1.567-1.937 2.375-2.063 2.625-2.063 2.625-4.063 6.812-2 3.813-2 3.813-6 5.813-0.674 1.664-1.34 3.331-2 5-0.763 0.722-1.526 1.444-2.312 2.187-3.096 3.24-4.602 6.442-6.5 10.457-1.402 2.781-3.192 4.974-5.188 7.356-0.66 1.217-1.32 2.434-2 3.687-2 3.313-2 3.313-6 5.313-1.368 2.649-2.698 5.318-4 8-0.907 0.949-1.815 1.897-2.75 2.875-2.558 3.554-3.08 6.159-2.883 10.531 0.97 3.974 3.188 6.507 5.907 9.488 1.861 2.27 2.652 4.398 3.726 7.106 0.784 0.454 1.568 0.907 2.375 1.375 3.543 2.193 4.631 5.022 6.625 8.625l4 3c1.09 2.305 1.09 2.305 1.938 4.875 1.639 4.446 3.5 6.928 7.062 10.125 0.495 0.846 0.99 1.691 1.5 2.562 1.5 2.438 1.5 2.438 3.938 4.375 2.967 2.389 4.56 4.834 6.562 8.063 0.681 0.969 1.361 1.939 2.063 2.937 1.937 3.063 1.937 3.063 3.375 6.625 1.708 3.759 3.521 5.686 6.562 8.438 4.245 3.927 6.973 8.081 10 13 0.846 0.99 1.691 1.98 2.563 3 2.437 3 2.437 3 4.437 7.062 2.009 3.955 3.828 5.91 7 8.938 11 12.79 11 12.79 11 18 0.99 0.33 1.98 0.66 3 1 0.619 1.279 1.238 2.557 1.875 3.875 2.266 4.399 3.114 4.777 7.125 7.125 1.726 2.629 3.395 5.296 5 8l3 3c0.969 2.259 1.935 4.519 2.879 6.789 1.121 2.211 1.121 2.211 3.934 4.961 0.722 0.742 1.443 1.485 2.187 2.25-0.19 4.19-0.19 4.19-2 6-2.04 0.118-4.084 0.165-6.127 0.185-1.333 0.016-2.666 0.031-4.04 0.047-1.477 0.012-2.954 0.024-4.475 0.037-0.772 8e-3 -0.772 8e-3 -4.681 0.049-5.141 0.052-10.282 0.097-15.423 0.139-1.769 0.015-3.539 0.03-5.308 0.046-8.319 0.071-16.638 0.138-24.957 0.198-9.596 0.071-19.192 0.157-28.788 0.259-7.418 0.077-14.837 0.138-22.255 0.188-4.43 0.03-8.859 0.067-13.288 0.12-4.95 0.059-9.9 0.086-14.851 0.11-1.458 0.022-2.917 0.044-4.42 0.067-8.135 9e-3 -14.11-0.701-21.387-4.445-1.875-2.375-1.875-2.375-3-5-0.598-0.866-1.196-1.733-1.812-2.625-1.912-2.949-3.51-5.886-5.125-9-2.247-4.195-4.23-6.525-8.063-9.375-2.856-4.11-5.16-8.226-7.125-12.813-1.803-4.027-3.528-5.975-6.75-8.875-4.329-4.711-7.168-10.374-10.125-16-2.226-4.143-4.521-7.108-8-10.312-1.351-1.988-2.687-3.987-4-6l-3-3c-0.454-1.464-0.907-2.929-1.375-4.438-1.738-4.88-2.654-5.631-6.625-8.562-1.725-2.629-3.394-5.296-5-8-0.99-1.32-1.98-2.64-3-4-0.937-3.308-1.418-6.602-2-10h-8c-1.19 5.295-1.109 10.476-1.066 15.877 5e-3 1.097 0.01 2.193 0.014 3.323 0.011 2.378 0.024 4.756 0.038 7.133 0.022 3.762 0.036 7.523 0.048 11.284 0.033 10.692 0.075 21.385 0.138 32.077 0.037 6.542 0.06 13.083 0.074 19.625 8e-3 2.494 0.022 4.989 0.041 7.484 0.026 3.483 0.034 6.966 0.038 10.449 0.012 1.035 0.025 2.069 0.037 3.135-0.015 5.275-0.098 7.261-3.362 11.613-2.594 0.498-2.594 0.498-5.769 0.494-1.203 9e-3 -2.406 0.017-3.646 0.026-1.321-0.011-2.643-0.023-4.005-0.034-0.695 2e-3 -0.695 2e-3 -4.213 0.011-4.612 8e-3 -9.224-0.014-13.836-0.036-3.194-2e-3 -6.389-3e-3 -9.583-3e-3 -6.702-3e-3 -13.404-0.019-20.105-0.046-7.753-0.032-15.504-0.042-23.257-0.041-7.452 1e-3 -14.904-9e-3 -22.356-0.026-3.174-6e-3 -6.347-0.01-9.521-0.011-4.43-5e-3 -8.859-0.022-13.289-0.044-0.661 1e-3 -0.661 1e-3 -4.005 3e-3 -1.203-8e-3 -2.406-0.017-3.645-0.026-1.048-3e-3 -2.096-6e-3 -3.176-0.01-2.594-0.257-2.594-0.257-5.594-2.257-1.06-3.18-1.126-5.426-1.128-8.767-4e-3 -1.21-7e-3 -2.42-0.01-3.667 1e-3 -1.336 3e-3 -2.672 5e-3 -4.049-3e-3 -1.414-5e-3 -2.828-7e-3 -4.285-7e-3 -4.767-6e-3 -9.535-5e-3 -14.303-2e-3 -3.406-6e-3 -6.812-0.01-10.218-9e-3 -8.308-0.011-16.616-0.012-24.924 0-6.75-2e-3 -13.499-6e-3 -20.249-8e-3 -19.119-0.013-38.238-0.012-57.357v-3.125-3.129c0-16.746-9e-3 -33.493-0.023-50.24-0.015-17.178-0.021-34.357-0.021-51.535 1e-3 -9.652-2e-3 -19.303-0.013-28.954-9e-3 -8.215-0.011-16.43-4e-3 -24.644 3e-3 -4.195 2e-3 -8.389-6e-3 -12.584-7e-3 -4.538-3e-3 -9.076 5e-3 -13.614-5e-3 -1.339-0.01-2.677-0.016-4.056 5e-3 -1.207 0.01-2.415 0.014-3.659v-3.178c0.52-5.135 3.649-4.714 8.019-4.717z" fill="#00197D"/>
<path transform="translate(1616.5 392.75)" d="m0 0c1.173-6e-3 2.345-0.012 3.553-0.018 0.65 2e-3 0.65 2e-3 3.938 0.012 1.372-4e-3 2.743-8e-3 4.157-0.012 4.63-0.01 9.26-6e-3 13.89-2e-3 3.306-5e-3 6.612-0.01 9.917-0.016 8.068-0.012 16.135-0.014 24.202-0.012 6.555 2e-3 13.109 0 19.664-4e-3 0.931-1e-3 1.863-1e-3 2.822-2e-3 1.892-1e-3 3.784-2e-3 5.676-4e-3 17.759-0.01 35.517-8e-3 53.276-2e-3 16.261 5e-3 32.522-6e-3 48.783-0.025 16.68-0.02 33.361-0.028 50.041-0.024 9.371 2e-3 18.743-1e-3 28.114-0.015 7.978-0.012 15.956-0.013 23.933-1e-3 4.074 6e-3 8.147 5e-3 12.22-5e-3 4.409-0.01 8.817-3e-3 13.226 0.01 1.297-7e-3 2.594-0.014 3.931-0.022 1.175 7e-3 2.35 0.014 3.561 0.022h3.086c2.525 0.374 2.525 0.374 5.525 3.374 0.297 3.342 0.409 6.497 0.388 9.84 3e-3 0.505 3e-3 0.505 0.016 3.061 0.013 3.346 4e-3 6.691-6e-3 10.037 2e-3 2.32 5e-3 4.64 9e-3 6.961 4e-3 4.865-2e-3 9.731-0.016 14.597-0.017 6.244-7e-3 12.489 0.011 18.734 0.011 4.792 7e-3 9.584-1e-3 14.376-2e-3 2.303 1e-3 4.606 8e-3 6.909 7e-3 3.215-4e-3 6.43-0.021 9.646 6e-3 0.957 0.012 1.914 0.018 2.9-0.063 6.597-0.063 6.597-3.406 9.939-3.166 0.38-3.166 0.38-7.161 0.386-0.755 5e-3 -0.755 5e-3 -4.58 0.029-1.681-4e-3 -3.363-9e-3 -5.044-0.014-1.766 6e-3 -3.531 0.013-5.297 0.021-3.806 0.015-7.612 0.021-11.418 0.02-6.017-2e-3 -12.034 0.017-18.05 0.04-11.688 0.041-23.376 0.059-35.065 0.076-14.87 0.022-29.74 0.056-44.611 0.107-5.982 0.02-11.964 0.03-17.947 0.031-3.721 3e-3 -7.443 0.014-11.164 0.027-1.727 4e-3 -3.453 5e-3 -5.18 2e-3 -2.356-3e-3 -4.712 7e-3 -7.069 0.017-0.659 1e-3 -0.659 1e-3 -3.996 5e-3 -3.484 0.258-6.846 0.681-9.418 3.253-0.291 2.932-0.508 5.872-0.688 8.813-0.107 1.615-0.214 3.23-0.324 4.895 0.012 4.292 0.012 4.292 2.012 8.292 4.035 2.302 7.802 2.251 12.376 2.252 0.755 3e-3 0.755 3e-3 4.572 0.016l5.004-0.012c1.759 3e-3 3.518 6e-3 5.278 0.011 3.785 8e-3 7.571 0.01 11.357 8e-3 5.983-3e-3 11.966 0.011 17.949 0.029 17.011 0.047 34.023 0.071 51.035 0.077 9.398 4e-3 18.795 0.022 28.193 0.055 5.951 0.021 11.902 0.023 17.853 0.012 3.697-2e-3 7.393 0.012 11.089 0.03 1.718 6e-3 3.436 4e-3 5.153-5e-3 2.34-0.011 4.679 5e-3 7.018 0.022 1.311 1e-3 2.622 2e-3 3.972 3e-3 3.151 0.502 3.151 0.502 6.151 4.502 0.388 3.15 0.388 3.15 0.404 6.909 6e-3 0.704 6e-3 0.704 0.038 4.267-1e-3 0.76-1e-3 0.76-9e-3 4.606 6e-3 1.56 0.011 3.121 0.016 4.729 7e-3 3.302 7e-3 6.604-3e-3 9.906-0.012 4.23 9e-3 8.46 0.038 12.69 0.023 4.038 0.016 8.075 0.012 12.112 0.011 1.52 0.022 3.04 0.034 4.606-9e-3 1.408-0.019 2.816-0.028 4.267-1e-3 0.62-1e-3 0.62-1e-3 3.759-0.616 3.872-1.402 4.802-4.501 7.149-3.277 0.503-3.277 0.503-7.25 0.506-0.753 6e-3 -0.753 6e-3 -4.563 0.033-1.67-8e-3 -3.34-0.016-5.009-0.024-1.758 5e-3 -3.516 0.012-5.273 0.021-3.786 0.016-7.571 0.018-11.356 0.011-5.983-0.01-11.966 7e-3 -17.949 0.028-9.462 0.031-18.924 0.042-28.386 0.046-16.948 6e-3 -33.896 0.035-50.844 0.085-5.95 0.016-11.899 0.022-17.849 0.018-3.699 0-7.397 7e-3 -11.096 0.017-1.717 3e-3 -3.435 2e-3 -5.152-2e-3 -2.341-6e-3 -4.682 2e-3 -7.024 0.01-0.655 0-0.655 0-3.973 1e-3 -3.276 0.25-3.276 0.25-7.276 2.25-1.947 3.895-1.272 8.701-1.313 13-0.029 1.024-0.058 2.048-0.088 3.102-0.025 2.961-0.025 2.961 0.401 7.898 4.377 2.189 6.54 2.253 11.37 2.259 0.766 3e-3 0.766 3e-3 4.644 0.02 1.7-2e-3 3.4-5e-3 5.099-7e-3 1.789 4e-3 3.578 9e-3 5.367 0.016 3.852 0.011 7.704 0.017 11.557 0.017 6.088 2e-3 12.175 0.02 18.263 0.041 15.12 0.049 30.239 0.08 45.359 0.101 11.752 0.017 23.505 0.04 35.257 0.084 6.056 0.021 12.111 0.029 18.167 0.027 3.762 2e-3 7.524 0.016 11.286 0.033 1.748 6e-3 3.496 6e-3 5.245 1e-3 2.381-6e-3 4.762 8e-3 7.143 0.023 1.334 2e-3 2.668 4e-3 4.043 6e-3 3.2 0.379 3.2 0.379 6.2 3.379 0.272 3.165 0.361 6.127 0.312 9.29-3e-3 0.951-6e-3 1.902-9e-3 2.883-0.014 3.151-0.05 6.301-0.088 9.452-0.018 2.186-0.035 4.372-0.052 6.558-0.038 4.583-0.087 9.166-0.144 13.749-0.072 5.882-0.113 11.763-0.144 17.645-0.028 4.514-0.075 9.028-0.127 13.542-0.022 2.169-0.038 4.338-0.048 6.507-0.017 3.029-0.058 6.057-0.107 9.085 1e-3 0.451 1e-3 0.451 1e-3 2.73-0.055 2.498-0.055 2.498-0.594 6.559-4.175 3.132-4.805 3.376-9.669 3.391-1.163 0.011-2.325 0.021-3.523 0.032-1.278-3e-3 -2.556-7e-3 -3.873-0.01-0.679 4e-3 -0.679 4e-3 -4.112 0.024-4.569 0.024-9.137 0.025-13.706 0.028-3.267 0.012-6.533 0.025-9.8 0.04-7.964 0.034-15.928 0.051-23.892 0.063-9.269 0.015-18.538 0.044-27.807 0.074-16.533 0.053-33.067 0.092-49.601 0.122-16.055 0.029-32.11 0.071-48.165 0.125-17.471 0.059-34.942 0.111-52.414 0.153-1.861 4e-3 -3.723 8e-3 -5.585 0.013-0.458 1e-3 -0.458 1e-3 -2.776 6e-3 -6.466 0.016-12.931 0.036-19.397 0.057-8.696 0.029-17.393 0.047-26.089 0.057-3.199 6e-3 -6.399 0.014-9.599 0.027-4.351 0.016-8.703 0.02-13.054 0.021-1.281 8e-3 -2.561 0.016-3.88 0.023-0.58-1e-3 -0.58-1e-3 -3.515-7e-3 -1.005 3e-3 -2.011 5e-3 -3.046 7e-3 -2.497-0.246-2.497-0.246-5.497-2.246-1.06-3.179-1.127-5.426-1.129-8.767-3e-3 -1.21-6e-3 -2.42-0.01-3.666 2e-3 -1.337 4e-3 -2.673 5e-3 -4.049-2e-3 -1.414-4e-3 -2.828-7e-3 -4.285-6e-3 -4.768-5e-3 -9.535-4e-3 -14.303-3e-3 -3.406-7e-3 -6.812-0.011-10.218-8e-3 -8.308-0.011-16.616-0.011-24.925-1e-3 -6.749-3e-3 -13.499-6e-3 -20.248-9e-3 -19.119-0.013-38.238-0.013-57.357 0-1.031 1e-3 -2.063 1e-3 -3.125v-3.129c0-16.747-0.01-33.494-0.024-50.24-0.014-17.179-0.021-34.357-0.02-51.536 0-9.651-2e-3 -19.303-0.013-28.954-9e-3 -8.215-0.011-16.429-5e-3 -24.644 4e-3 -4.194 3e-3 -8.389-5e-3 -12.584-8e-3 -4.538-3e-3 -9.076 5e-3 -13.614-6e-3 -1.338-0.011-2.676-0.016-4.055 5e-3 -1.208 9e-3 -2.415 0.014-3.659 0-1.049 0-2.098-1e-3 -3.178 0.508-5.014 3.44-4.714 7.735-4.718z" fill="#00197D"/>
<path transform="translate(448.04 392.49)" d="m0 0c1.238-0.013 2.476-0.025 3.752-0.039 1.355 7e-3 2.711 0.013 4.107 0.02 1.43-8e-3 2.859-0.017 4.332-0.026 4.737-0.023 9.472-0.016 14.209-7e-3 3.283-5e-3 6.566-0.011 9.849-0.019 6.884-0.011 13.768-6e-3 20.652 9e-3 7.963 0.017 15.925 1e-3 23.888-0.031 7.657-0.03 15.313-0.032 22.97-0.022 3.26 0 6.52-7e-3 9.781-0.021 4.549-0.018 9.098-3e-3 13.647 0.02 1.358-0.012 2.715-0.024 4.114-0.036 0.617 6e-3 0.617 6e-3 3.743 0.038 0.538 1e-3 0.538 1e-3 3.261 2e-3 2.653 0.627 2.653 0.627 4.501 2.633 1.53 3.975 1.515 7.256 1.5 11.518 1e-3 0.857 2e-3 1.713 3e-3 2.596 1e-3 2.87-0.021 5.74-0.042 8.61-4e-3 2.059-7e-3 4.117-8e-3 6.175-6e-3 4.434-0.022 8.868-0.044 13.302-0.036 7.019-0.05 14.038-0.061 21.057-0.024 13.645-0.071 27.29-0.12 40.934-0.06 17.339-0.11 34.677-0.142 52.016-0.013 6.969-0.037 13.937-0.069 20.905-0.018 4.351-0.028 8.701-0.036 13.051-5e-3 2.007-0.014 4.014-0.027 6.021-0.086 14.129 0.101 26.851 6.198 39.809 0.326 1.639 0.618 3.286 0.875 4.937 0.372 1.341 0.743 2.681 1.125 4.063 2.813 1.187 2.813 1.187 6 2 0.623 0.991 1.246 1.982 1.887 3.004 4.155 3.998 6.944 3.778 12.551 3.816 1.176-0.023 2.351-0.046 3.562-0.07 1.176 0.023 2.352 0.046 3.563 0.07 8.672-0.059 8.672-0.059 12.375-3.742 0.681-1.016 1.361-2.032 2.062-3.078 0.53-0.153 0.53-0.153 3.208-0.926 0.921-0.355 1.843-0.709 2.792-1.074 1.137-3.231 1.137-3.231 1.688-7.188 0.584-3.985 1.086-7.319 2.77-10.988 4.757-11.79 3.801-24.945 3.722-37.438-6e-3 -2.056-0.01-4.112-0.014-6.169-9e-3 -4.402-0.025-8.804-0.046-13.206-0.032-6.958-0.047-13.916-0.06-20.874-0.034-17.268-0.087-34.537-0.149-51.805-0.048-13.45-0.09-26.9-0.111-40.351-0.012-6.921-0.037-13.842-0.073-20.763-0.019-4.293-0.026-8.586-0.029-12.879-4e-3 -1.995-0.014-3.99-0.028-5.985-0.02-2.716-0.021-5.431-0.017-8.147-5e-3 -1.521-0.011-3.043-0.016-4.61 0.363-3.597 0.363-3.597 3.363-6.597 2.639-0.381 2.639-0.381 5.877-0.388 1.227-0.01 2.454-0.02 3.718-0.03 0.674 2e-3 0.674 2e-3 4.085 0.014 1.418-7e-3 2.836-0.014 4.297-0.021 4.705-0.019 9.409-0.015 14.113-9e-3 3.26-4e-3 6.519-0.01 9.779-0.016 6.839-0.01 13.677-7e-3 20.516 4e-3 7.908 0.011 15.815-3e-3 23.723-0.03 7.604-0.025 15.207-0.027 22.811-0.021 3.237 0 6.475-6e-3 9.712-0.018 4.52-0.015 9.04-4e-3 13.561 0.013 1.346-0.01 2.692-0.019 4.079-0.029 1.229 9e-3 2.459 0.019 3.726 0.029 0.534 1e-3 0.534 1e-3 3.24 1e-3 2.763 0.501 2.763 0.501 5.111 1.971 2.497 3.822 2.129 6.976 2.102 11.512v2.782c-4e-3 3.085-0.038 6.17-0.071 9.254-0.01 2.21-0.017 4.42-0.023 6.629-0.022 6.014-0.068 12.027-0.119 18.041-0.049 6.307-0.077 12.614-0.107 18.922-0.053 10.613-0.122 21.227-0.2 31.84-0.11 14.897-0.193 29.794-0.27 44.691-0.055 10.374-0.117 20.747-0.18 31.12-0.015 2.5-0.03 4.999-0.044 7.498-0.043 7.151-0.089 14.302-0.143 21.453-0.015 2.153-0.03 4.305-0.042 6.458-0.065 10.92-0.248 21.823-0.705 32.734-0.038 0.932-0.076 1.863-0.116 2.822-0.756 16.55-0.756 16.55-4.367 22.024-2.528 4.259-3.554 7.644-4.125 12.562-0.655 5.614-1.979 8.041-5.938 12.188-0.66 1.505-1.32 3.011-2 4.562-1.96 4.351-3.619 6.222-7 9.438l-2.5 4c-4.278 6.845-9.821 11.336-16.625 15.562-3.875 2.438-3.875 2.438-6.875 5.438-2.236 0.976-4.473 1.951-6.746 2.84-2.254 1.16-2.254 1.16-4.113 3.199-2.857 2.617-5.156 2.802-8.953 3.398-5.911 1.11-9.458 2.739-14.188 6.563-3.927 1.096-7.815 1.159-11.875 1.312-6.878 0.416-13.037 1.814-19.644 3.703-15.586 4.409-31.89 4.139-47.965 4.117-0.808 1e-3 -0.808 1e-3 -4.899 3e-3 -3.399 2e-3 -6.797 0-10.196-5e-3 -4.294-6e-3 -8.587-2e-3 -12.881 3e-3 -48.832 0.057-48.832 0.057-64.036-4.977-6.577-2.17-12.82-2.447-19.714-2.777-5.092-0.51-9.249-1.111-13.266-4.418-3.256-2.53-5.842-2.769-9.899-3.336-6.569-1.161-9.838-2.839-14.625-7.625-2.324-1.02-4.657-2.021-7-3-2.016-1.647-4.017-3.313-6-5-0.484-0.238-0.484-0.238-2.937-1.438-3.908-1.994-6.821-4.621-10.063-7.562-0.763-0.681-1.526-1.362-2.312-2.063-1.688-1.937-1.688-1.937-2.688-4.562-1-2.375-1-2.375-5-4.375-1.089-2.461-1.089-2.461-1.937-5.375-1.526-4.634-2.805-6.979-7.063-9.625-1-2-1-2-1.187-6-0.479-5.053-2.564-8.343-5.438-12.446-3.744-6.956-2.714-16.449-2.98-24.193-0.037-0.987-0.075-1.974-0.113-2.99-0.031-0.888-0.061-1.775-0.092-2.69-0.19-2.681-0.19-2.681-0.694-5.275-0.615-4.23-0.615-8.31-0.609-12.585v-2.772c0-3.061 8e-3 -6.121 0.016-9.182 2e-3 -2.196 3e-3 -4.393 4e-3 -6.589 3e-3 -4.728 0.01-9.455 0.018-14.183 0.014-7.475 0.02-14.95 0.024-22.426 0.013-17.218 0.035-34.437 0.057-51.655 0.02-15.779 0.038-31.558 0.048-47.336 5e-3 -7.431 0.015-14.862 0.028-22.293 8e-3 -4.623 0.011-9.246 0.013-13.869 2e-3 -2.144 6e-3 -4.287 0.011-6.431 7e-3 -2.926 8e-3 -5.853 8e-3 -8.78 2e-3 -1.638 4e-3 -3.275 7e-3 -4.962-0.121-4.343-0.121-4.343-0.878-8.175-0.243-3.168-0.243-3.168 1.317-5.574 3.052-1.994 4.847-2.1 8.482-2.109z" fill="#00197D"/>
<path transform="translate(245.62 378.75)" d="m0 0c1.085-5e-3 2.171-0.01 3.289-0.016 3.086 0.266 3.086 0.266 5.356 1.259 3.28 1.21 6 1.312 9.492 1.386 0.641 0.017 0.641 0.017 3.888 0.103 1.333 0.027 2.665 0.053 4.037 0.08 2.65 0.06 5.3 0.124 7.95 0.192 1.172 0.024 2.345 0.048 3.553 0.072 2.81 0.174 2.81 0.174 4.81 1.174 12.132 1.208 24.426 1.274 36.606 1.607 25.009 0.725 25.009 0.725 35.394 4.393 7.267 2.476 13.535 3.452 21.187 3.562 12.017 0.222 12.017 0.222 17.813 2.438 5.596 6.185 5.129 13.837 5.098 21.79-2e-3 0.75-2e-3 0.75-0.01 4.55-9e-3 1.602-0.017 3.204-0.025 4.855-5e-3 1.678-9e-3 3.357-0.012 5.035-0.011 5.298-0.031 10.597-0.051 15.895-0.024 6.15-0.044 12.301-0.056 18.451-6e-3 2.454-0.019 4.908-0.032 7.362-1e-3 0.748-1e-3 0.748-0.01 4.531-5e-3 1.313-0.01 2.626-0.016 3.978 0.114 3.553 0.114 3.553 0.808 6.836 0.101 0.897 0.202 1.793 0.306 2.717-3 3-3 3-5.875 3.5-5.073-0.615-9.251-2.332-13.941-4.309-5.369-2.009-10.625-2.334-16.321-2.55-27.585-1.232-27.585-1.232-40.793-5.52-10.027-2.762-20.738-2.403-31.07-2.683-1.517-0.042-3.034-0.084-4.597-0.127-16.469-0.415-32.93-0.495-49.403-0.311-1.069 7e-3 -2.137 0.015-3.238 0.022-2.609 0.026-5.217 0.093-7.825 0.166-1.331 0.034-2.663 0.069-4.035 0.105-0.957 0.233-1.915 0.467-2.902 0.707-1.309 2.363-1.309 2.363-2 5l-2 3h-2c0.406 5.894 1.502 9.26 5 14v2c6.217 1.352 12.202 2.286 18.555 2.656 2.445 0.344 2.445 0.344 6.445 2.344 2.556 0.221 5.122 0.332 7.687 0.379 1.504 0.034 3.007 0.068 4.555 0.103 1.57 0.027 3.14 0.053 4.758 0.08 3.104 0.06 6.208 0.124 9.313 0.192 0.689 0.012 0.689 0.012 4.175 0.072 3.512 0.174 3.512 0.174 7.512 1.174 2.781 0.195 5.566 0.343 8.352 0.465 1.673 0.078 3.346 0.157 5.019 0.236 2.62 0.119 5.239 0.236 7.859 0.349 24.374 1.063 24.374 1.063 31.583 5.45 4.013 2.181 7.404 2.965 11.937 3.5 5.652 0.692 8.005 2.132 12.25 6 2.434 0.816 2.434 0.816 5.125 1.5 4.589 1.216 6.086 2.595 8.875 6.5l3.5 2c9.196 5.435 16.251 14.857 21.5 24l3 3c1 2 1 2 1.187 6.375 0.376 4.456 1.584 7.33 3.813 11.187 4.026 7.658 3.982 14.952 4 23.438 0.026 2.411 0.052 4.823 0.078 7.234 0.287 36.708 0.287 36.708-4.078 44.766-2.817 5.633-3.676 10.816-4.375 17.012-0.625 2.988-0.625 2.988-3.625 6.988h-2c-0.159 0.82-0.317 1.64-0.48 2.484-1.938 8.949-1.938 8.949-4.957 11.891-0.846 0.536-1.692 1.072-2.563 1.625-1.353 1.987-2.686 3.987-4 6-3.71 4.011-7.856 7.448-12 11-0.887 0.908-1.774 1.815-2.687 2.75-2.313 2.25-2.313 2.25-6.313 4.25-0.268 0.402-0.268 0.402-1.625 2.438-3.063 3.305-5.732 3.661-10.004 4.746-2.371 0.816-2.371 0.816-4.746 3.378-3.56 3.306-6.653 3.246-11.395 3.59-3.23 0.848-3.23 0.848-6.878 3.813-4.994 3.978-9.955 4.208-16.165 4.66-6.139 0.498-11.704 1.014-17.449 3.336-14.957 5.816-32.314 4.319-48.078 4.269-2.537-1e-3 -5.074-1e-3 -7.611-1e-3 -5.294-1e-3 -10.589-0.01-15.883-0.023-6.742-0.017-13.483-0.021-20.225-0.02-5.233-1e-3 -10.465-6e-3 -15.698-0.013-2.484-3e-3 -4.968-5e-3 -7.452-6e-3 -38.868-0.025-38.868-0.025-53.213-4.151-7.864-2.18-15.206-3.365-23.328-3.641-0.45-0.015-0.45-0.015-2.729-0.093-0.876-0.03-1.752-0.06-2.654-0.091-11.018-0.433-21.698-2.022-29.867-10.191-0.194-3.063-0.262-6.036-0.243-9.1-2e-3 -0.943-4e-3 -1.886-6e-3 -2.858-3e-3 -3.128 7e-3 -6.257 0.019-9.386 1e-3 -2.167 1e-3 -4.334 1e-3 -6.501 1e-3 -4.546 0.01-9.093 0.023-13.639 0.017-5.838 0.021-11.676 0.02-17.514 1e-3 -4.476 6e-3 -8.952 0.013-13.428 3e-3 -2.154 5e-3 -4.307 6e-3 -6.46 2e-3 -3.005 0.011-6.009 0.022-9.014-1e-3 -0.897-1e-3 -1.794-2e-3 -2.718 0.033-6.153 0.033-6.153 1.147-8.382 11.61-2.648 23.824 1.62 35.133 4.352 4.881 1.103 9.606 1.772 14.609 1.913 1.105 0.034 2.21 0.067 3.348 0.102 1.178 0.032 2.356 0.065 3.57 0.098 2.51 0.078 5.02 0.157 7.529 0.236 3.946 0.12 7.892 0.237 11.838 0.349 3.815 0.109 7.63 0.23 11.446 0.352 1.18 0.031 2.36 0.061 3.576 0.092 0.551 0.018 0.551 0.018 3.338 0.111 0.966 0.028 1.931 0.056 2.926 0.085 2.867 0.331 5.037 1.202 7.687 2.31 2.543 0.185 5.095 0.261 7.645 0.266 0.74 1e-3 0.74 1e-3 4.49 7e-3 1.543-7e-3 3.087-0.015 4.678-0.023 0.766 4e-3 0.766 4e-3 4.642 0.023 0.743-1e-3 0.743-1e-3 4.502-7e-3 1.351-3e-3 2.701-5e-3 4.093-7e-3 4.192-0.275 7.892-1.202 11.95-2.259 2.019-0.204 4.046-0.349 6.074-0.422 1.08-0.057 2.159-0.113 3.272-0.172 2.239-0.104 4.478-0.193 6.718-0.265 8.255-0.475 8.255-0.475 11.956-4.094 0.653-1.006 1.307-2.011 1.98-3.047l4-2c0.818-3.952 0.801-6.596-1.234-10.164-6.006-7.096-14.009-8.178-22.766-9.836-1.015-0.253-2.03-0.506-3.075-0.767-11.556-2.714-22.765-2.542-34.55-2.358-2.986 0.035-5.972 0.066-8.959 0.091-1.842 0.017-3.684 0.04-5.526 0.07-4.122 0.049-7.875-0.12-11.89-1.036-1.916-0.12-3.835-0.2-5.754-0.246-1.103-0.033-2.205-0.066-3.342-0.1-2.283-0.06-4.567-0.118-6.851-0.172-10.693-0.328-20.025-1.086-29.463-6.318-3.887-1.747-7.813-2.159-12.024-2.609-2.566-0.555-2.566-0.555-5.566-3.555v-2c-0.351-0.068-0.351-0.068-2.125-0.41-7.346-1.667-11.668-4.21-16.875-9.59-0.743-0.701-1.485-1.403-2.25-2.125-2.049-2.195-3.882-4.525-5.75-6.875l-3-3c-0.227-0.712-0.227-0.712-1.375-4.312-1.625-4.688-1.625-4.688-4.121-7.391-3.11-4.095-3.643-7.77-4.191-12.735-0.115-0.878-0.23-1.756-0.348-2.66-0.341-2.632-0.655-5.266-0.965-7.902-0.349-2.792-0.703-5.584-1.063-8.375-0.135-1.142-0.27-2.284-0.41-3.461-0.527-3.164-0.527-3.164-1.605-6.281-1.444-4.516-1.059-9.61 1.078-13.883 0.369-2.62 0.696-5.246 1-7.875 0.483-4.156 0.985-8.065 2-12.125 0.231-3.985 0.381-7.968 0.523-11.957 0.701-5.945 2.239-9.805 6.477-14.043 1.027-2.742 1.027-2.742 1.937-5.875 1.428-4.534 2.83-7.579 6.063-11.125 0.454-0.99 0.907-1.98 1.375-3 1.962-3.622 4.446-5.429 7.625-8l2-4c1.993-1.343 3.994-2.676 6-4 1.338-1.663 2.672-3.329 4-5 1.648-1.03 3.315-2.031 5-3 0.577-0.66 1.155-1.32 1.75-2 2.25-2 2.25-2 6.75-3.438 4.5-1.562 4.5-1.562 6.313-4.062 3.173-3.627 6.711-3.716 11.316-4.684 2.871-0.816 2.871-0.816 5.684-3.378 3.734-2.856 5.634-2.914 10.25-3.376 6.831-0.685 11.902-2.508 17.937-5.722 7.604-3.396 16.647-2.645 24.844-2.858 5.973-0.2 11.575-0.861 17.432-2.025 5.562-0.933 11.2-0.892 16.826-1.023 7.404-0.239 14.155-2.719 21.523-2.684z" fill="#00197D"/>
<path transform="translate(1251,393)" d="m0 0c2.399-0.376 2.399-0.376 5.485-0.378 1.173-7e-3 2.345-0.015 3.553-0.023 1.3 6e-3 2.599 0.013 3.938 0.02 0.686-2e-3 0.686-2e-3 4.157-0.014 4.63-0.012 9.26-3e-3 13.89 7e-3 3.306-4e-3 6.612-9e-3 9.917-0.016 8.068-0.013 16.135-0.011 24.202-2e-3 6.555 7e-3 13.11 8e-3 19.664 5e-3 0.466-1e-3 0.466-1e-3 2.822-2e-3l5.676-3e-3c17.759-8e-3 35.517 2e-3 53.276 0.018 15.25 0.013 30.499 0.011 45.749-3e-3 17.692-0.016 35.383-0.022 53.075-0.013 1.885 1e-3 3.771 2e-3 5.656 3e-3 0.464 0 0.464 0 2.811 1e-3 6.549 3e-3 13.098-2e-3 19.647-9e-3 7.978-8e-3 15.956-6e-3 23.934 0.01 4.073 8e-3 8.146 9e-3 12.219 1e-3 4.409-8e-3 8.817 2e-3 13.226 0.017 0.648-3e-3 0.648-3e-3 3.931-0.02 1.175 8e-3 2.35 0.015 3.561 0.023 0.509 1e-3 0.509 1e-3 3.086 2e-3 2.525 0.376 2.525 0.376 5.525 3.376 0.297 3.342 0.409 6.497 0.388 9.84 3e-3 0.505 3e-3 0.505 0.016 3.06 0.013 3.346 5e-3 6.692-6e-3 10.038 2e-3 2.32 5e-3 4.64 9e-3 6.96 5e-3 4.866-2e-3 9.731-0.016 14.597-0.017 6.245-7e-3 12.489 0.011 18.734 0.011 4.792 7e-3 9.584-1e-3 14.376-2e-3 2.303 1e-3 4.606 8e-3 6.909 7e-3 3.216-4e-3 6.431-0.021 9.646 6e-3 0.957 0.012 1.914 0.019 2.9-0.064 6.597-0.064 6.597-3.407 9.94-3.599 0.385-3.599 0.385-8.172 0.401-0.832 7e-3 -1.665 0.014-2.523 0.021-2.757 0.02-5.513 0.019-8.27 0.019-1.914 0.012-3.828 0.026-5.743 0.04-5.043 0.037-10.087 0.057-15.131 0.072-8.07 0.025-16.141 0.064-24.211 0.122-2.82 0.016-5.641 0.02-8.462 0.023-1.729 0.01-3.458 0.02-5.187 0.031-1.51 4e-3 -3.02 8e-3 -4.575 0.013-3.726 0.258-3.726 0.258-7.726 2.258-1.709 3.418-1.139 7.336-1.131 11.097-2e-3 0.955-5e-3 1.909-7e-3 2.892-6e-3 3.219-5e-3 6.437-4e-3 9.655-3e-3 2.299-6e-3 4.598-0.01 6.898-8e-3 4.961-0.013 9.922-0.017 14.883-6e-3 7.84-0.022 15.679-0.041 23.519-6e-3 2.681-0.013 5.362-0.019 8.043-3e-3 1.342-6e-3 2.685-0.01 4.069-0.042 18.259-0.075 36.518-0.087 54.777-8e-3 12.306-0.031 24.612-0.069 36.918-0.02 6.517-0.032 13.034-0.027 19.551 4e-3 6.128-0.01 12.256-0.037 18.384-7e-3 2.253-7e-3 4.506 0 6.758 9e-3 3.069-7e-3 6.136-0.029 9.205 4e-3 0.449 4e-3 0.449 0.026 2.719-0.048 3.625-0.199 6.11-2.198 9.188-2.973 1.835-4.81 1.928-8.299 1.901-1.22-1e-3 -2.439-1e-3 -3.696-1e-3 -1.335-0.02-2.671-0.041-4.046-0.062-1.409-6e-3 -2.817-0.012-4.268-0.018-4.667-0.025-9.333-0.079-14-0.134-3.235-0.025-6.471-0.048-9.707-0.07-6.786-0.05-13.571-0.113-20.357-0.188-7.845-0.086-15.691-0.151-23.537-0.204-7.547-0.051-15.093-0.114-22.64-0.182-3.212-0.029-6.424-0.055-9.636-0.079-4.484-0.036-8.969-0.084-13.453-0.137-1.335-8e-3 -2.67-0.017-4.046-0.025-1.22-0.017-2.439-0.034-3.696-0.052-1.061-0.01-2.121-0.021-3.213-0.032-2.746-0.273-2.746-0.273-6.746-2.273-1.705-3.411-1.142-7.313-1.138-11.066-3e-3 -0.951-6e-3 -1.902-9e-3 -2.882-8e-3 -3.207-9e-3 -6.413-0.011-9.62-4e-3 -2.291-0.01-4.582-0.015-6.873-0.011-4.943-0.02-9.886-0.026-14.829-0.011-7.81-0.031-15.62-0.053-23.43-0.062-22.212-0.116-44.423-0.149-66.635-0.019-12.26-0.048-24.52-0.088-36.779-0.021-6.493-0.037-12.986-0.039-19.479-2e-3 -6.105-0.018-12.209-0.045-18.313-7e-3 -2.245-9e-3 -4.49-5e-3 -6.735 3e-3 -3.055-0.011-6.111-0.03-9.166 6e-3 -0.897 0.011-1.793 0.017-2.717-0.067-6.134-0.067-6.134-3.409-9.476-3.756-1.252-6.852-1.097-10.82-1.066-0.816 5e-3 -0.816 5e-3 -4.945 0.03-0.873 7e-3 -1.747 0.014-2.647 0.022-2.731 0.022-5.462 0.036-8.194 0.048-7.766 0.033-15.532 0.075-23.298 0.137-4.75 0.038-9.499 0.061-14.249 0.075-1.812 8e-3 -3.624 0.021-5.435 0.041-2.531 0.026-5.061 0.032-7.592 0.038-1.441 9e-3 -2.882 0.019-4.366 0.029-3.454-0.354-3.454-0.354-6.454-3.354-0.292-3.372-0.399-6.559-0.372-9.932-4e-3 -1.019-8e-3 -2.039-0.011-3.09-8e-3 -3.378 5e-3 -6.756 0.02-10.134 0-2.343 0-4.686-2e-3 -7.028 0-4.913 0.011-9.826 0.029-14.738 0.023-6.306 0.023-12.611 0.016-18.916-3e-3 -4.838 4e-3 -9.677 0.013-14.515 4e-3 -2.325 5e-3 -4.651 4e-3 -6.976-1e-3 -3.247 0.012-6.493 0.028-9.739-2e-3 -0.967-5e-3 -1.933-7e-3 -2.929 0.053-6.66 0.053-6.66 2.282-10.003z" fill="#00197D"/>
</svg>
