<?xml version="1.0" encoding="UTF-8"?>
<svg version="1.1" viewBox="0 0 2744 1144" xmlns="http://www.w3.org/2000/svg">
<path transform="translate(1754.7 89.812)" d="m0 0c0.759 0.035 0.759 0.035 4.597 0.212 8.121 0.451 15.778 1.429 23.697 3.282 3.74 0.859 7.453 1.358 11.268 1.756 0.755 0.079 0.755 0.079 4.571 0.48 3.845 0.36 7.692 0.634 11.547 0.883 11.038 0.725 21.416 1.605 32.113 4.629 6.942 1.865 14.097 2.589 21.234 3.332 6.369 0.717 11.991 1.709 17.973 4.051 5.749 2.238 11.345 3.289 17.438 4.063 6.869 0.879 12.639 2.347 18.902 5.316 3.57 1.421 6.994 2.004 10.785 2.621 7.022 1.169 12.988 3.35 19.508 6.148 4.81 1.849 9.636 2.745 14.683 3.707 3.799 0.897 6.627 2.757 9.996 4.708 2.426 0.691 4.865 1.331 7.313 1.937 5.542 1.387 10.161 3.115 15.152 5.84 4.023 1.94 8.283 3.012 12.563 4.254 3.646 1.188 6.686 3.009 9.972 4.969 1.506 0.495 3.012 0.99 4.563 1.5 4.437 1.5 4.437 1.5 7.27 3.468 4.4 2.822 8.888 3.693 13.925 4.906 3.502 1.216 4.712 2.524 7.242 5.126 2.876 1.124 2.876 1.124 6 2 4.583 1.283 6.703 2.642 10 6 2.333 0.835 2.333 0.835 4.813 1.374 5.229 1.398 8.199 3.944 12.187 7.626 1.984 1.031 3.983 2.035 6 3 0.743 0.639 1.486 1.278 2.25 1.937 2.648 1.986 4.742 2.916 7.813 4.063 3.97 1.492 5.946 3.008 8.937 6 1.607 0.691 3.235 1.331 4.876 1.937 4.507 1.685 7.539 3.803 11.124 7.063 3.523 2.481 7.165 4.69 10.876 6.874 4.612 2.75 8.873 5.853 13.124 9.126 1.87 1.403 3.745 2.799 5.626 4.187 0.879 0.654 1.758 1.307 2.664 1.98 2.71 1.832 2.71 1.832 5.929 3.422 2.781 1.411 2.781 1.411 4.657 3.785 2.286 2.825 4.678 4.223 7.785 6.04 2.893 1.96 5.301 4.247 7.839 6.648 3.218 3.02 6.04 5.48 10.063 7.312 3.437 1.626 3.437 1.626 5.437 5.626 1.321 0.659 2.64 1.319 4 2 1.69 1.643 3.353 3.314 5 5l3.5 3c3.837 3.288 7.338 6.774 10.813 10.437 2.687 2.563 2.687 2.563 6.687 5.563 4.2 3.149 7.678 6.281 10.876 10.437 2.124 2.562 2.124 2.562 5.5 5.437 3.645 3.143 6.559 6.421 9.624 10.126 1.225 1.42 2.454 2.837 3.688 4.25 0.561 0.644 1.121 1.289 1.699 1.953 1.482 1.65 3.045 3.228 4.613 4.797v2c1.321 0.659 2.64 1.319 4 2 2.042 2.296 4.041 4.632 6 7 0.649 0.644 1.297 1.289 1.965 1.953 2.034 2.045 3.81 4.159 5.598 6.421 0.69 0.872 1.379 1.743 2.09 2.641 0.775 0.985 1.549 1.97 2.347 2.985 0.455 0.574 0.455 0.574 2.754 3.484 8.033 10.185 8.033 10.185 11.622 15.078 2.624 3.438 2.624 3.438 5.124 5.75 2.401 2.58 3.652 4.707 5.25 7.812 2.793 5.363 6.239 9.713 10.145 14.305 1.827 2.231 3.37 4.419 4.855 6.883 2.25 3.688 2.25 3.688 4.813 6.625 2.978 3.741 4.5 7.704 6.437 12.063 0.846 0.99 1.692 1.98 2.563 3 2.309 2.842 3.04 4.412 4.063 7.812 0.453 1.382 0.907 2.764 1.374 4.188 0.99 0.329 1.981 0.66 3 1 1.465 2.292 1.465 2.292 2.938 5.187 1.64 3.15 3.237 6.067 5.25 9 2.211 3.431 3.382 6.997 4.812 10.813 0.64 0.948 1.279 1.897 1.938 2.874 1.819 2.756 2.9 5.07 4.062 8.126 1.147 3.009 2.199 5.297 4 8 2.272 3.407 3.549 6.814 5 10.624 1 2.376 1 2.376 3 5.376 2.274 3.41 3.553 6.816 4.997 10.632 1.003 2.367 1.003 2.367 3.066 5.242 1.96 3.162 2.575 5.406 3.375 9 0.93 4.144 1.731 6.391 4.062 10.063 2.871 4.664 3.702 8.669 4.629 14.012 0.871 3.051 0.871 3.051 2.844 5.515 2.469 3.088 3.035 5.569 3.903 9.41 1.343 5.466 2.994 10.505 5.187 15.688 2.489 5.958 4.034 11.662 5.102 18.023 0.876 3.579 2.325 6.655 3.868 9.987 1.989 4.991 2.559 10.331 3.389 15.611 0.758 4.446 1.664 8.305 3.614 12.387 2.1 4.735 2.795 8.675 3.402 13.804 0.87 6.75 2.141 13.075 4.062 19.626 2.572 9.214 3.566 18.335 4.475 27.843 0.981 10.226 2.482 20.164 5.049 30.129 1.481 6.671 1.67 13.473 2.039 20.278 0.039 0.645 0.039 0.645 0.236 3.91 0.266 4.612 0.488 9.225 0.701 13.84 0.041 0.859 0.082 1.719 0.124 2.605 1.243 27.406 1.202 54.849 1.369 82.277 8e-3 1.32 0.016 2.64 0.024 4 0.077 12.465 0.151 24.929 0.216 37.394 0.083 15.869 0.183 31.739 0.306 47.608 0.085 11.213 0.152 22.425 0.204 33.638 0.031 6.681 0.071 13.363 0.132 20.044 0.056 6.256 0.089 12.513 0.103 18.769 9e-3 2.298 0.027 4.597 0.055 6.895 0.035 3.127 0.04 6.252 0.038 9.379 0.017 0.917 0.035 1.834 0.053 2.778-0.05 5.967-0.05 5.967-2.455 8.676-4.818 1.424-9.442 1.348-14.442 1.317-0.576 3e-3 -0.576 3e-3 -3.492 0.015-3.87 0.012-7.739 2e-3 -11.609-7e-3 -2.771 4e-3 -5.542 9e-3 -8.313 0.016-7.533 0.013-15.066 8e-3 -22.599-2e-3 -7.874-7e-3 -15.749 0-23.624 5e-3 -14.073 5e-3 -28.146-4e-3 -42.219-0.019-12.761-0.014-25.523-0.011-38.285 3e-3 -14.817 0.016-29.634 0.022-44.451 0.013-7.845-5e-3 -15.689-6e-3 -23.533 4e-3 -7.374 9e-3 -14.748 3e-3 -22.122-0.014-2.71-4e-3 -5.421-3e-3 -8.131 3e-3 -3.692 9e-3 -7.383-2e-3 -11.075-0.017-0.54 4e-3 -0.54 4e-3 -3.271 0.021-9.727-0.077-9.727-0.077-13.003-3.401-0.612-2.745-0.612-2.745-0.594-6.136-5e-3 -1.284-0.011-2.569-0.016-3.892 0.019-1.412 0.039-2.824 0.059-4.279 1e-3 -1.484 1e-3 -2.969 2e-3 -4.499 8e-3 -4.077 0.037-8.153 0.075-12.229 0.035-4.265 0.041-8.529 0.05-12.794 0.021-8.083 0.066-16.165 0.121-24.248 0.079-11.858 0.124-23.717 0.166-35.575 7e-3 -1.75 0.013-3.499 0.019-5.249 3e-3 -0.854 6e-3 -1.709 9e-3 -2.589 0.022-5.898 0.056-11.796 0.095-17.694 0.016-3.084 0.032-6.168 0.049-9.252 0.011-1.408 0.023-2.816 0.034-4.266 3e-3 -0.645 3e-3 -0.645 0.018-3.909 4e-3 -0.56 4e-3 -0.56 0.023-3.393-0.102-2.797-0.536-5.266-1.11-7.996-0.102-3.527-0.154-7.034-0.157-10.56-5e-3 -1.065-0.01-2.129-0.016-3.226-0.01-2.312-0.019-4.624-0.026-6.937-0.012-3.682-0.031-7.365-0.053-11.047-0.061-10.472-0.115-20.944-0.149-31.416-0.021-6.412-0.057-12.824-0.101-19.236-0.014-2.422-0.022-4.844-0.026-7.267-0.021-14.223-0.767-28.007-2.808-42.091-0.684-4.891-0.864-9.658-0.914-14.596-0.511-13.723-3.936-27.004-6.87-40.374-1.214-5.866-2.197-11.765-3.155-17.677-0.919-4.533-2.828-8.366-4.725-12.573-0.504-2.533-0.957-5.077-1.374-7.626-1.221-7.188-3.419-13.412-6.282-20.097-1.344-3.278-1.344-3.278-2.406-7.715-0.971-3.691-2.594-6.098-4.715-9.227-1.525-2.914-2.078-5.677-2.723-8.898-1.141-5.611-2.969-8.873-6.5-13.437-1.11-2.522-2.067-5.078-3.035-7.657-1.263-3.069-3.1-5.605-4.965-8.343-0.963-2.184-1.925-4.368-2.863-6.563-2.028-4.349-4.609-8.366-7.137-12.437-1.002-1.666-2.002-3.332-3-5-3.16-5.268-6.549-10.089-10.367-14.899-2.025-2.607-3.816-5.346-5.633-8.101-0.659-0.826-1.32-1.65-2-2.5-2-2.5-2-2.5-4-5.563-1.827-2.684-3.68-4.691-6-6.937-0.639-0.805-1.278-1.609-1.937-2.438-3.029-3.764-6.314-6.954-10.063-10-3.079-2.63-5.45-5.425-8-8.562-2.556-2.688-5.119-5.098-8-7.438-3.079-2.63-5.45-5.425-8-8.562-3.646-4.064-7.7-6.922-12.183-9.969-3.128-2.256-6.017-4.705-8.941-7.219-3.342-2.843-6.381-5.299-10.376-7.125-3.5-1.687-3.5-1.687-5.437-4.187-2.459-2.981-5.032-3.966-8.559-5.407-5.611-2.451-10.858-5.591-15.378-9.719-3.881-2.949-7.658-3.997-12.321-5.285-2.805-1.09-2.805-1.09-4.715-3.054-2.843-2.769-5.619-3.41-9.402-4.535-5.378-1.686-9.826-3.641-14.688-6.5-2.497-0.822-5.013-1.522-7.546-2.223-2.454-0.777-2.454-0.777-6.141-2.715-5.039-2.41-10.014-3.65-15.434-4.938-3.714-1.077-7.032-2.566-10.537-4.179-3.878-1.566-7.928-2.245-12.029-2.945-5.668-1.015-10.968-2.196-16.445-3.961-10.444-3.055-21.263-3.676-32.055-4.665-2.136-0.204-4.272-0.41-6.408-0.617-3.157-0.305-6.314-0.608-9.472-0.903-6.171-0.577-12.326-1.235-18.483-1.94-16.079-1.698-32.22-1.943-48.375-2.125-1.261-0.015-2.522-0.029-3.821-0.044-5.188-0.057-10.377-0.113-15.565-0.147-3.851-0.027-7.701-0.073-11.552-0.122-1.178-3e-3 -2.356-6e-3 -3.569-0.01-1.084-0.016-2.167-0.033-3.284-0.05-0.475-4e-3 -0.475-4e-3 -2.882-0.025-2.402-0.391-2.402-0.391-5.402-3.391-0.291-3.827-0.395-7.491-0.367-11.319-3e-3 -1.182-7e-3 -2.363-0.01-3.58-7e-3 -3.98 7e-3 -7.96 0.021-11.94-1e-3 -2.844-3e-3 -5.689-6e-3 -8.533-5e-3 -7.741 8e-3 -15.483 0.025-23.224 0.015-8.086 0.014-16.171 0.015-24.257 4e-3 -13.579 0.019-27.159 0.041-40.738 0.024-13.983 0.038-27.966 0.041-41.949 0-0.862 1e-3 -1.723 1e-3 -2.61 0-1.735 1e-3 -3.47 1e-3 -5.206 0-0.855 1e-3 -1.711 1e-3 -2.593 0-0.854 0-1.707 1e-3 -2.587 4e-3 -14.113 0.016-28.226 0.029-42.339 4e-3 -4.828 7e-3 -9.656 0.01-14.484 5e-3 -7.573 0.015-15.147 0.03-22.72 4e-3 -2.787 7e-3 -5.575 8e-3 -8.362 2e-3 -3.789 0.01-7.578 0.019-11.368-1e-3 -1.116-2e-3 -2.233-3e-3 -3.383 0.029-7.58 0.029-7.58 1.143-9.808 15.95-5.317 39.111-1.018 55.688-0.188z"/>
<path transform="translate(1711.7 413.95)" d="m0 0c0.809 7e-3 0.809 7e-3 4.906 0.041 1.786 0.021 3.572 0.042 5.358 0.063 1.856 0.02 3.711 0.039 5.566 0.057 3.919 0.042 7.837 0.087 11.755 0.134 3.94 0.048 7.879 0.09 11.819 0.125 20.28 0.184 40.534 0.515 60.79 1.551 1.51 0.076 3.021 0.152 4.577 0.23 24.685 1.388 24.685 1.388 34.505 5.852 3.766 0.782 7.567 1.281 11.375 1.813 9.152 1.39 17.274 3.473 25.922 6.812 3.397 1.262 6.671 2.157 10.203 2.938 3.789 0.874 6.823 1.986 10.188 3.937 4.312 2.5 4.312 2.5 9 4.063 4.312 1.437 4.312 1.437 7.25 3.437 2.858 1.867 4.764 2.575 8 3.438 4.827 1.326 8.034 3.559 12.062 6.562 1.525 0.725 3.068 1.411 4.625 2.063 4.375 1.937 4.375 1.937 6.813 3.937 2.539 1.982 4.507 2.829 7.5 3.938 4.479 1.683 7.433 3.917 11.062 7.062 1.196 0.495 2.393 0.99 3.625 1.5 3.804 1.691 4.847 3.282 7.375 6.5 1.862 1.131 3.725 2.258 5.602 3.364 4.166 2.843 7.693 6.405 11.367 9.847 5.086 4.68 10.359 9.113 16.219 12.789 5.334 3.794 9.128 9.077 13.062 14.25 2.91 3.803 6.053 7.306 9.313 10.813 4.155 4.478 7.881 8.976 11.437 13.937 5.42 7.304 5.42 7.304 8.188 10.625 2.03 2.661 3.339 5.371 4.812 8.375 3.505 5.751 7.137 11.403 11.063 16.875 2.213 3.57 3.465 7.199 4.937 11.125 0.639 0.949 1.279 1.898 1.938 2.875 2.287 3.466 3.596 6.892 5.058 10.758 1.004 2.367 1.004 2.367 3.067 5.242 1.949 3.145 2.573 5.366 3.375 8.938 1.082 4.807 2.721 8.344 5.304 12.574 2.229 4.63 3.101 9.646 4.168 14.649 1.09 3.964 1.09 3.964 3.086 7.851 2.218 4.553 3.177 8.918 4.004 13.863 0.944 5.543 2.108 10.742 4 16.047 2.243 6.49 3.168 12.908 4 19.703 1.314 10.004 2.941 19.805 5.168 29.645 2.237 13.054 1.996 26.378 2.037 39.585l0.03 5.829c0.027 5.254 0.048 10.508 0.068 15.762 0.023 5.588 0.05 11.177 0.077 16.765 0.044 9.444 0.084 18.887 0.123 28.33 0.039 9.536 0.08 19.071 0.125 28.607 5e-3 1.159 0.011 2.318 0.016 3.512l0.033 6.999c0.07 14.923 0.138 29.845 0.187 44.767 3e-3 1.111 7e-3 2.221 0.011 3.366 0.014 4.414 0.028 8.829 0.042 13.244 0.039 12.245 0.093 24.489 0.188 36.733 0.061 7.879 0.106 15.759 0.144 23.638 0.019 3.163 0.045 6.325 0.078 9.488 0.044 4.257 0.065 8.513 0.079 12.77 0.019 1.238 0.039 2.475 0.058 3.75-1e-3 1.117-2e-3 2.234-3e-3 3.385 8e-3 0.964 0.015 1.928 0.023 2.921-0.484 2.404-0.484 2.404-4.484 5.404-3.09 0.288-5.976 0.401-9.065 0.375-0.927 4e-3 -1.854 8e-3 -2.809 0.012-3.113 9e-3 -6.225-2e-3 -9.339-0.014-2.228 2e-3 -4.457 6e-3 -6.686 0.011-6.06 9e-3 -12.12 0-18.18-0.013-6.335-0.012-12.671-8e-3 -19.007-6e-3 -10.642 1e-3 -21.284-0.01-31.926-0.028-12.309-0.022-24.619-0.025-36.928-0.019-11.832 6e-3 -23.664 0-35.496-0.011-5.039-5e-3 -10.079-5e-3 -15.118-3e-3 -5.934 2e-3 -11.867-7e-3 -17.8-0.022-2.18-5e-3 -4.36-6e-3 -6.539-3e-3 -2.972 3e-3 -5.943-6e-3 -8.915-0.018-0.433 2e-3 -0.433 2e-3 -2.624 0.012-9.364-0.069-9.364-0.069-12.568-3.273-0.092-2.121-0.113-4.246-0.107-6.37 1e-3 -0.694 1e-3 -0.694 5e-3 -4.204 7e-3 -1.538 0.013-3.075 0.02-4.659 5e-3 -2.469 0.01-4.938 0.014-7.408 6e-3 -2.665 0.015-5.331 0.024-7.996 0.018-5.567 0.027-11.134 0.035-16.701 0.025-15.835 0.06-31.671 0.105-47.506 0.025-8.737 0.042-17.474 0.052-26.211 6e-3 -5.515 0.022-11.03 0.044-16.545 0.015-4.279 0.016-8.558 0.019-12.837 9e-3 -1.501 0.018-3.002 0.027-4.548-0.01-10.807-0.955-21.297-2.238-32.015-0.227-2.07-0.453-4.14-0.676-6.21-1.09-9.147-2.413-17.404-6.136-25.915-1.232-2.982-1.982-5.854-2.688-9-1.415-6.04-3.743-11.336-6.5-16.875-0.415-0.844-0.83-1.688-1.258-2.558-1.696-3.42-3.424-6.823-5.168-10.219-0.457-0.898-0.915-1.797-1.386-2.723-0.419-0.814-0.838-1.629-1.27-2.468-0.918-2.032-0.918-2.032-0.918-4.032l-4-2c-1.517-1.968-3.029-3.941-4.473-5.964-1.527-2.036-1.527-2.036-4.402-4.911l-2.125-2.125v-2l-4-2c-1.688-1.644-3.353-3.313-5-5-0.846-0.66-1.691-1.32-2.562-2-2.438-2-2.438-2-4.25-4.5-2.907-3.321-6.234-4.617-10.188-6.5l-3-3c-2.053-0.885-4.142-1.69-6.25-2.437-3.598-1.28-6.742-2.558-10.023-4.527-4.571-2.497-9.095-3.809-14.102-5.161-0.894-0.251-1.789-0.502-2.711-0.761-2.633-0.731-5.264-1.447-7.914-2.114-1.274-0.35-2.549-0.7-3.862-1.061-6.776-1.48-13.663-1.276-20.568-1.317-0.733-9e-3 -0.733-9e-3 -4.446-0.052-4.666-0.053-9.332-0.093-13.999-0.132-4.688-0.044-9.375-0.091-14.063-0.143-2.913-0.032-5.825-0.059-8.738-0.08-1.312-0.014-2.624-0.027-3.976-0.041-1.156-9e-3 -2.313-0.019-3.504-0.029-2.844-0.145-2.844-0.145-5.844-1.145-1.951-3.902-1.144-8.87-1.14-13.185-3e-3 -1.179-6e-3 -2.358-9e-3 -3.573-9e-3 -3.978-0.011-7.956-0.012-11.934-5e-3 -2.841-0.01-5.683-0.015-8.524-0.013-7.737-0.02-15.475-0.024-23.212-3e-3 -4.829-7e-3 -9.657-0.012-14.486-0.012-13.362-0.022-26.724-0.025-40.085-1e-3 -0.856-1e-3 -1.711-1e-3 -2.593 0-0.858-1e-3 -1.715-1e-3 -2.599 0-1.738-1e-3 -3.476-1e-3 -5.214 0-0.862-1e-3 -1.724-1e-3 -2.612-4e-3 -13.975-0.021-27.949-0.044-41.924-0.024-14.338-0.036-28.675-0.038-43.013-1e-3 -8.054-7e-3 -16.108-0.025-24.162-0.016-7.573-0.018-15.145-9e-3 -22.718 0-2.784-4e-3 -5.569-0.014-8.354-0.013-3.791-7e-3 -7.582 4e-3 -11.372-8e-3 -1.112-0.016-2.223-0.025-3.369 7e-3 -1.013 0.013-2.026 0.02-3.071 0-0.875-1e-3 -1.75-2e-3 -2.652 0.374-2.348 0.374-2.348 3.374-6.348 3.733-1.244 6.78-1.092 10.724-1.053z"/>
<path transform="translate(1707.4 737.51)" d="m0 0c1.072-6e-3 2.145-0.012 3.25-0.019 0.578 8e-3 0.578 8e-3 3.507 0.044 0.6 0 0.6 0 3.641 3e-3 2.55 6e-3 5.099 0.022 7.649 0.046 3.856 0.036 7.711 0.041 11.567 0.041 31.919 0.09 31.919 0.09 43.689 5.437 2.539 1.013 4.894 1.451 7.59 1.871 5.18 1.159 6.844 2.645 10.75 6.063 1.625 0.697 3.274 1.339 4.938 1.937 4.973 1.865 8.143 4.419 12.062 8.063 2.804 2.267 5.625 4.512 8.45 6.754 3.788 3.336 6.528 7.216 9.55 11.246v2h2c1.391 2.181 2.688 4.423 3.938 6.687 0.689 1.242 1.379 2.483 2.09 3.762 0.651 1.172 1.302 2.344 1.972 3.551 0.538 0.842 1.075 1.683 1.629 2.551 2.167 3.87 3.117 8.041 4.309 12.293 1.062 3.156 1.062 3.156 2.549 5.505 1.607 2.816 2.211 5.045 2.795 8.221 0.202 1.062 0.404 2.125 0.613 3.219 0.2 1.101 0.399 2.202 0.605 3.336 1.321 7.124 2.717 14.107 4.834 21.042 2.196 9.337 1.849 18.958 1.903 28.488 0.013 1.68 0.026 3.359 0.04 5.039 0.036 4.539 0.065 9.078 0.092 13.617 0.018 2.836 0.037 5.673 0.056 8.51 0.068 9.899 0.13 19.798 0.188 29.697 0.054 9.227 0.119 18.454 0.189 27.68 0.06 7.929 0.112 15.858 0.158 23.787 0.028 4.733 0.059 9.466 0.097 14.199 0.036 4.444 0.063 8.889 0.081 13.333 0.013 2.411 0.036 4.822 0.059 7.233 4e-3 1.432 8e-3 2.863 0.013 4.338 8e-3 1.245 0.015 2.491 0.024 3.774-0.234 3.138-0.234 3.138-2.234 7.138-2.796 1.398-5.089 1.126-8.218 1.127-0.664 1e-3 -0.664 1e-3 -4.024 8e-3 -1.466-2e-3 -2.931-4e-3 -4.441-6e-3 -0.768 1e-3 -0.768 1e-3 -4.656 6e-3 -4.223 3e-3 -8.446 2e-3 -12.669-1e-3 -4.414-2e-3 -8.828 0-13.241 2e-3 -7.414 1e-3 -14.828-1e-3 -22.242-6e-3 -8.577-5e-3 -17.154-3e-3 -25.732 2e-3 -7.356 5e-3 -14.712 5e-3 -22.069 3e-3 -4.397-2e-3 -8.794-2e-3 -13.191 1e-3 -4.901 4e-3 -9.803-1e-3 -14.704-7e-3 -0.732 1e-3 -0.732 1e-3 -4.435 6e-3 -0.665-1e-3 -0.665-1e-3 -4.032-8e-3 -1.16-1e-3 -2.32-1e-3 -3.515-1e-3 -2.831-0.126-2.831-0.126-5.831-1.126-1.972-3.946-1.148-9.011-1.147-13.375-2e-3 -0.6-2e-3 -0.6-0.011-3.635-0.011-4.047-0.015-8.095-0.019-12.142-6e-3 -2.89-0.013-5.781-0.02-8.671-0.017-7.872-0.028-15.744-0.036-23.615-5e-3 -4.913-0.011-9.825-0.017-14.738-0.017-13.593-0.032-27.186-0.039-40.78-2e-3 -3.528-4e-3 -7.057-6e-3 -10.586 0-0.877-1e-3 -1.754-1e-3 -2.657-9e-3 -14.218-0.034-28.435-0.066-42.652-0.033-14.586-0.051-29.172-0.055-43.758-2e-3 -8.194-0.011-16.388-0.036-24.582-0.023-7.704-0.028-15.407-0.017-23.111 0-2.833-6e-3 -5.667-0.02-8.5-0.018-3.857-0.011-7.713 3e-3 -11.569-6e-3 -0.566-6e-3 -0.566-0.034-3.427 9e-3 -1.031 0.017-2.062 0.026-3.124-1e-3 -0.891-2e-3 -1.781-3e-3 -2.699 1.132-5.406 4.761-6.88 9.855-6.865z"/>
<path transform="translate(389.38 433.5)" d="m0 0c2.072 3.188 3.71 6.517 5.355 9.941 1.408 2.837 3.034 5.493 4.75 8.153 2.888 4.572 5.591 9.259 8.336 13.918 2.184 3.488 2.184 3.488 4.344 6.179 2.191 2.75 3.354 5.708 4.719 8.926 1.519 3.228 3.45 6.058 5.473 8.988 4.31 6.262 8.249 12.597 11.648 19.395 0.598 0.743 1.196 1.485 1.813 2.25 4.525 5.689 7.894 12.168 11.312 18.562 2.012 3.741 4.199 6.888 6.875 10.188 1.351 2.658 2.683 5.325 4 8 3.5 5.774 7.183 11.412 11.063 16.938 1.937 3.062 1.937 3.062 3.374 6.562 1.563 3.5 1.563 3.5 4.063 6.375 2.327 2.908 3.09 4.489 4.125 7.937 0.454 1.382 0.908 2.764 1.375 4.188 0.99 0.33 1.98 0.66 3 1 1.281 2.201 2.554 4.409 3.738 6.664 1.262 2.336 1.262 2.336 3.387 5.398 2.224 3.484 3.493 7.055 4.875 10.938 2.221 2.221 7.012 1.705 10 2 0.887-15.962 1.179-31.893 1.26-47.878 0.022-4.192 0.049-8.383 0.077-12.574 0.069-10.384 0.129-20.767 0.189-31.151 0.051-8.833 0.106-17.667 0.166-26.5 0.026-4.126 0.047-8.253 0.068-12.379 0.016-2.517 0.033-5.033 0.051-7.549 2e-3 -0.573 2e-3 -0.573 0.012-3.468 9e-3 -1.052 0.017-2.104 0.026-3.188 5e-3 -0.911 0.01-1.822 0.015-2.76 0.139-2.605 0.596-5.005 1.136-7.553 0.045-1.854 0.04-3.709-8e-3 -5.562-0.017-1.045-0.033-2.089-0.051-3.165-0.044-2.182-0.096-4.364-0.156-6.546-0.014-1.045-0.028-2.089-0.043-3.165-0.022-0.947-0.044-1.894-0.067-2.871 0.4-3.312 1.261-5.074 3.325-7.691 4.195-2.515 8.256-2.18 13.047-2.047 0.784 0.021 0.784 0.021 4.75 0.129 0.817 0.028 0.817 0.028 4.953 0.168 1.619 0.04 3.238 0.08 4.906 0.121 15.775 0.478 15.775 0.478 22.344 2.629 2.888 4.333 2.275 8.63 2.254 13.673 2e-3 0.556 2e-3 0.556 9e-3 3.37 8e-3 3.745 2e-3 7.49-4e-3 11.235 2e-3 2.677 6e-3 5.354 0.01 8.03 0.01 7.285 6e-3 14.57 0 21.855-5e-3 7.609-1e-3 15.218 2e-3 22.827 4e-3 12.779-1e-3 25.558-0.01 38.337-0.011 14.795-8e-3 29.589 3e-3 44.384 9e-3 12.682 0.011 25.364 6e-3 38.046-4e-3 7.583-4e-3 15.167 3e-3 22.75 5e-3 7.127 1e-3 14.254-0.01 21.38-3e-3 2.623-2e-3 5.246 2e-3 7.869 6e-3 3.566-1e-3 7.132-0.011 10.698 2e-3 0.525 2e-3 0.525 0.013 3.183-0.039 7.135-0.039 7.135-2.267 9.363-3.328 0.832-5.695 1.135-9.056 1.161-1.005 0.01-2.01 0.019-3.045 0.029-1.079 4e-3 -2.158 9e-3 -3.27 0.013-1.115 6e-3 -2.229 0.012-3.377 0.017-2.356 0.01-4.713 0.016-7.069 0.02-3.603 0.01-7.206 0.041-10.81 0.072-2.29 7e-3 -4.579 0.012-6.869 0.016-0.539 6e-3 -0.539 6e-3 -3.264 0.038-9.298-0.028-9.298-0.028-13.24-3.366-3.781-3.874-5.838-7.678-7.914-12.652-1.492-3.225-3.424-6.035-5.438-8.953-4.31-6.262-8.249-12.597-11.648-19.395-0.619-0.743-1.238-1.485-1.875-2.25-2.521-3.263-4.113-6.688-5.898-10.391-1.434-2.756-3.242-4.977-5.227-7.359l-3-6c-0.639-0.784-1.279-1.567-1.937-2.375-2.599-3.307-4.206-6.855-6.063-10.625-3.5-5.774-7.183-11.412-11.063-16.938-1.937-3.062-1.937-3.062-3.374-6.562-1.563-3.5-1.563-3.5-3.938-6.312-2.772-3.367-4.431-6.622-6.305-10.528-2.645-5.329-5.591-10.564-9.383-15.16-2.448-3.159-3.983-6.559-5.714-10.148-1.432-2.754-3.265-4.952-5.223-7.352-1.333-2.667-2.667-5.333-4-8-1.319-1.678-2.651-3.346-4-5-1.017-1.991-2.016-3.992-3-6-0.639-0.949-1.279-1.898-1.937-2.875-2.063-3.125-2.063-3.125-4-7.25-2.029-3.812-3.599-5.441-7.063-7.875l-1-2c-2.322-0.407-4.657-0.744-7-1 0.074 1.149 0.147 2.299 0.223 3.483 1.03 17.883 0.82 35.763 0.676 53.666-0.034 4.519-0.063 9.038-0.092 13.557-0.055 8.527-0.117 17.055-0.18 25.582-0.072 9.699-0.138 19.397-0.203 29.096-0.08 11.832-0.16 23.664-0.246 35.496-0.012 1.647-0.024 3.294-0.036 4.99-0.022 3.074-0.045 6.147-0.067 9.22-0.01 1.357-0.02 2.713-0.03 4.11-9e-3 1.176-0.018 2.351-0.027 3.562-0.012 2.172 0.016 4.345 0.081 6.516-0.099 2.722-0.099 2.722-1.734 5.07-2.966 2.072-4.614 2.129-8.213 2.078-0.577-4e-3 -0.577-4e-3 -3.498-0.023-0.613-0.015-0.613-0.015-3.717-0.091-1.251-0.018-2.502-0.036-3.791-0.055-3.716-0.064-7.43-0.159-11.146-0.257-1.978-0.033-3.956-0.065-5.934-0.098-1.688-0.047-3.377-0.097-5.066-0.152-1.464-0.046-2.929-0.093-4.437-0.141-3.563-0.609-3.563-0.609-5.754-1.975-2.846-4.144-2.355-8.531-2.31-13.383-6e-3 -1.108-0.011-2.216-0.017-3.357-0.014-3.726 1e-3 -7.452 0.016-11.177-3e-3 -2.666-9e-3 -5.332-0.016-7.997-0.014-7.25-3e-3 -14.5 0.014-21.75 0.013-7.575 7e-3 -15.15 3e-3 -22.725-2e-3 -12.722 0.011-25.444 0.034-38.166 0.027-14.724 0.029-29.449 0.017-44.174-0.011-14.145-5e-3 -28.29 0.01-42.435 5e-3 -6.029 5e-3 -12.058 1e-3 -18.087-5e-3 -7.094 5e-3 -14.188 0.027-21.282 5e-3 -2.61 6e-3 -5.219 1e-3 -7.828-6e-3 -3.551 6e-3 -7.101 0.023-10.651-6e-3 -1.043-0.012-2.086-0.018-3.16 0.064-7.12 0.064-7.12 3.406-10.462 4.78-1.195 9.389-1.271 14.285-1.387 1.012-0.025 2.023-0.051 3.065-0.077 2.143-0.052 4.285-0.101 6.428-0.149 3.248-0.074 6.496-0.165 9.743-0.256 2.088-0.049 4.176-0.096 6.264-0.143 0.959-0.029 1.918-0.058 2.905-0.088 15.536-0.284 15.536-0.284 21.685 3.6z"/>
<path transform="translate(898.51 429.91)" d="m0 0c0.573 3e-3 0.573 3e-3 3.472 0.017 0.629 6e-3 0.629 6e-3 3.815 0.034 0.663 4e-3 0.663 4e-3 4.018 0.025 4.412 0.028 8.824 0.063 13.237 0.099 3.083 0.022 6.165 0.043 9.248 0.064 6.49 0.046 12.98 0.095 19.47 0.147 8.231 0.065 16.461 0.123 24.692 0.178 6.387 0.043 12.774 0.091 19.161 0.139 3.028 0.023 6.056 0.044 9.083 0.065 15.39 0.106 30.775 0.291 46.159 0.718 1.248 0.03 2.496 0.059 3.782 0.089 11.414 0.356 20.765 0.909 30.358 7.514 1.548 0.719 3.111 1.407 4.687 2.063 3.826 1.718 6.202 3.225 9.313 5.937 1.299 0.928 2.599 1.856 3.937 2.813 3.964 2.967 6.977 6.296 10.063 10.187 1.031 1.258 2.062 2.516 3.125 3.813 2.774 3.715 4.396 7.527 5.918 11.89 0.957 2.297 0.957 2.297 3.957 6.297 0.695 2.953 0.695 2.953 1.125 6.25 0.147 1.078 0.294 2.155 0.445 3.266 0.142 1.149 0.284 2.299 0.43 3.484 0.188 1.25 0.376 2.501 0.57 3.789 1.652 16.189 0.729 35.095-9.57 48.211-0.331 0.478-0.331 0.478-2.004 2.898-5.667 8.05-12.113 14.71-20.699 19.661-2.297 1.441-2.297 1.441-4.297 4.441-0.75 3.938-0.75 3.938 0 8 4.5 2 4.5 2 7.266 2.898 8.263 3.33 12.6 11.69 16.734 19.102l2 3c2.946 14.951 2.388 30.5 2.532 45.666 0.034 3.274 0.079 6.548 0.124 9.822 5e-3 0.979 0.011 1.957 0.016 2.965 0.143 10.07 1.593 19.547 5.203 28.985 0.492 1.318 0.985 2.637 1.492 3.996 1.633 3.566 1.633 3.566 3.891 6.351 0.287 0.366 0.287 0.366 1.742 2.215l-1 3c-3.167 1.056-5.458 1.146-8.785 1.177-1.188 0.013-2.376 0.026-3.6 0.039-0.643 4e-3 -0.643 4e-3 -3.892 0.022-1.318 8e-3 -2.636 0.016-3.994 0.025-2.79 0.014-5.58 0.024-8.37 0.032-4.276 0.017-8.551 0.061-12.826 0.105-2.708 0.011-5.415 0.019-8.123 0.026-1.282 0.017-2.565 0.035-3.886 0.053-1.191-3e-3 -2.382-6e-3 -3.61-9e-3 -0.524 3e-3 -0.524 3e-3 -3.175 0.018-3.449-0.614-4.618-1.752-6.739-4.488-0.594-2.883-0.594-2.883-0.723-6.348-0.055-1.337-0.111-2.673-0.168-4.051-0.036-1.518-0.072-3.037-0.109-4.601-0.011-0.418-0.011-0.418-0.064-2.531-0.186-7.619-0.311-15.239-0.413-22.86-0.434-31.281-0.434-31.281-5.336-44.796-0.48-1.376-0.961-2.751-1.457-4.168-1.813-3.819-3.576-5.876-6.73-8.645-0.726-0.727-1.452-1.454-2.199-2.203-6.8-5.593-12.766-6.395-21.235-6.52-1.126-0.029-2.252-0.059-3.413-0.089-3.717-0.087-7.434-0.142-11.153-0.188-1.287-0.017-2.574-0.035-3.899-0.052-8.111-0.098-16.221-0.134-24.332-0.133-4.216-3e-3 -8.432-0.021-12.648-0.04-2.694-3e-3 -5.388-5e-3 -8.082-5e-3 -0.627-4e-3 -0.627-4e-3 -3.8-0.022-1.157 3e-3 -2.314 6e-3 -3.506 9e-3 -1.014-1e-3 -2.028-3e-3 -3.073-4e-3 -2.66 0.247-2.66 0.247-6.66 2.247-1.784 3.567-1.144 7.796-1.142 11.726-3e-3 1.01-7e-3 2.02-0.01 3.06-8e-3 2.198-0.013 4.396-0.017 6.594-7e-3 3.475-0.023 6.95-0.041 10.425-0.053 9.882-0.101 19.763-0.116 29.645-0.01 6.039-0.039 12.078-0.081 18.116-0.013 2.306-0.018 4.612-0.016 6.918 3e-3 3.22-0.019 6.44-0.047 9.66 3e-3 0.48 3e-3 0.48 0.02 2.905-0.038 2.655-0.038 2.655-0.55 6.951-5.05 3.787-8.925 3.434-14.969 3.398-1.072 3e-3 -2.145 6e-3 -3.25 9e-3 -2.266 2e-3 -4.532-3e-3 -6.798-0.016-3.47-0.016-6.939 0-10.409 0.019-2.202-2e-3 -4.403-6e-3 -6.605-0.012-1.039 7e-3 -2.078 0.013-3.148 0.019-5.318-0.052-7.443-0.134-11.821-3.417-0.397-3.621-0.535-6.939-0.501-10.564-6e-3 -1.1-0.011-2.2-0.017-3.334-0.014-3.706 1e-3 -7.411 0.016-11.117-4e-3 -2.649-9e-3 -5.298-0.016-7.947-0.014-7.211-3e-3 -14.422 0.014-21.632 0.013-7.538 7e-3 -15.075 3e-3 -22.613-2e-3 -12.664 0.011-25.327 0.034-37.991 0.027-14.646 0.029-29.291 0.017-43.937-0.011-14.076-5e-3 -28.152 0.01-42.229 5e-3 -5.995 5e-3 -11.99 0-17.985-4e-3 -7.062 6e-3 -14.124 0.027-21.186 6e-3 -2.593 6e-3 -5.186 1e-3 -7.78-5e-3 -3.538 7e-3 -7.075 0.024-10.613-6e-3 -1.028-0.012-2.056-0.018-3.116 0.05-5.626 0.509-9.956 3.406-14.956 3.121-1.04 5.233-1.112 8.505-1.089zm47.495 48.089c-2.045 4.09-2.292 5.987-2.414 10.449-0.039 1.308-0.078 2.616-0.118 3.964-0.031 1.411-0.062 2.821-0.093 4.275-0.036 1.45-0.072 2.901-0.108 4.395-0.105 4.639-0.189 9.278-0.267 13.917-0.029 1.552-0.057 3.104-0.087 4.704-0.075 4.515-0.124 9.03-0.163 13.546-0.021 1.402-0.043 2.804-0.065 4.249-4e-3 1.305-9e-3 2.61-0.013 3.954-0.01 1.146-0.019 2.293-0.029 3.474 0.402 3.461 1.233 5.329 3.357 8.073 3.921 1.307 7.318 1.135 11.459 1.145 0.864 4e-3 1.728 7e-3 2.618 0.01 2.862 0.01 5.725 0.012 8.587 0.013 1.992 3e-3 3.984 7e-3 5.976 0.01 4.181 6e-3 8.363 8e-3 12.544 7e-3 5.343 0 10.686 0.014 16.029 0.031 4.118 0.011 8.235 0.013 12.353 0.013 1.969 1e-3 3.938 5e-3 5.906 0.013 2.764 0.01 5.528 7e-3 8.292 1e-3 0.785 1e-3 0.785 1e-3 4.757 4e-3 12.25-0.676 19.447-5.216 27.916-13.684 2.962-4.118 4.667-7.855 6.563-12.563 0.289-0.547 0.289-0.547 1.75-3.312 3.524-10.398 0.637-18.388-3.731-28.122-2.018-3.564-3.997-5.835-7.019-8.566-0.758-0.764-1.516-1.529-2.297-2.316-12.46-11.409-28.811-11.297-44.906-11.18-1.78 0-3.56-2e-3 -5.339-4e-3 -3.691-2e-3 -7.382 0.01-11.073 0.033-4.724 0.029-9.448 0.026-14.172 0.013-3.658-7e-3 -7.316 1e-3 -10.974 0.014-1.743 4e-3 -3.486 4e-3 -5.229 1e-3 -2.426-3e-3 -4.851 0.015-7.277 0.035-1.376 5e-3 -2.753 0.011-4.171 0.016-3.762 0.41-5.633 1.029-8.562 3.388z"/>
<path transform="translate(722.53 423.81)" d="m0 0c2.962-2e-3 5.923-0.02 8.884-0.039 15.469-0.046 30.623 0.442 45.02 6.724 3.944 1.661 7.844 2.622 12.012 3.559 3.009 1.11 4.309 2.687 6.55 4.941 2.657 1.09 2.657 1.09 5.5 1.938 4.717 1.588 6.558 3.004 9.5 7.062 1.148 0.511 2.295 1.021 3.477 1.547 5.943 2.86 10.152 7.539 14.711 12.203 0.876 0.869 1.752 1.738 2.654 2.633 4.861 4.909 8.723 9.628 12.158 15.617 0.66 0.784 1.32 1.568 2 2.375 2.965 3.891 4.891 8.229 7 12.625 0.516 0.953 1.032 1.906 1.563 2.887 2.016 4.367 2.658 8.769 3.496 13.48 0.941 3.633 0.941 3.633 2.937 7.442 2.278 4.764 3.046 9.197 3.629 14.379 0.117 0.959 0.234 1.918 0.355 2.906 0.238 1.992 0.468 3.985 0.691 5.978 0.31 2.757 0.65 5.508 0.993 8.26 2.02 17.124 0.899 33.761-0.976 50.856-0.053 0.507-0.053 0.507-0.319 3.075-0.846 7.038-2.758 13.167-5.369 19.737-2.692 7.861-2.692 7.861-3.675 11.5-1.611 5.903-3.917 10.347-7.325 15.5-0.618 1.258-1.237 2.517-1.875 3.813-5.284 10.414-11.447 17.917-20.222 25.5-1.504 1.334-2.937 2.748-4.34 4.187-5.889 5.746-12.542 10.242-19.563 14.5-0.907 0.681-1.815 1.362-2.75 2.063-3.822 2.278-7.618 3.514-11.859 4.812-3.391 1.125-3.391 1.125-7.988 3.086-5.885 2.384-11.863 3.531-18.09 4.664-2.171 0.406-4.342 0.815-6.512 1.227-1.022 0.191-2.044 0.383-3.097 0.58-2.704 0.568-2.704 0.568-6.071 1.701-5.965 1.424-11.962 1.161-18.07 1.117-1.348-6e-3 -2.696-0.013-4.085-0.02-13.802-0.144-26.438-1.729-39.778-5.296-3.241-0.818-6.396-1.393-9.7-1.871-5.164-0.862-8.61-3.206-13-6.063-1.671-0.552-3.36-1.051-5.062-1.5-4.789-1.29-7.924-3.561-11.938-6.5-1.693-0.684-3.403-1.328-5.125-1.937-4.713-1.769-6.914-3.917-9.875-8.063-2.591-2.79-4.941-4.961-8.125-7.062-2.875-1.938-2.875-1.938-5.875-5.938v-2l-4-2c-4.821-5.278-8.946-11.079-11.375-17.812-1.625-4.188-1.625-4.188-4.062-7.75-3.214-4.855-4.263-10.24-5.571-15.852-0.969-3.505-2.368-6.348-3.992-9.586-0.625-2.656-0.625-2.656-1-5.5-0.537-4.054-1.099-8.081-1.789-12.113-1.891-11.437-2.501-22.668-2.523-34.262-6e-3 -1.372-0.011-2.745-0.016-4.159 0.047-6.689 0.483-12.499 2.328-18.966 0.359-3.12 0.67-6.246 0.938-9.375 1.011-10.497 3.731-19.16 7.887-28.832 0.912-2.168 1.722-4.38 2.488-6.605 6.36-15.782 15.757-27.615 27.687-39.5 0.851-0.867 1.702-1.734 2.578-2.627 4.847-4.851 9.477-8.651 15.422-12.061 0.846-0.701 1.692-1.402 2.563-2.125 2.952-2.271 6.011-3.432 9.437-4.875 0.891-0.649 1.782-1.299 2.7-1.968 3.879-2.388 7.219-3.136 11.675-4.032 6.21-1.352 11.113-2.925 16.625-6 12.613-3.17 26.601-2.186 39.534-2.185zm-51.534 63.185c-1.196 0.949-2.392 1.898-3.625 2.875-13.399 12.407-20.316 29.091-23.453 46.715-0.914 4.372-2.344 8.242-3.922 12.41-3.299 17.463-1.701 38.172 3.746 54.981 1.256 4.023 2.006 7.928 2.692 12.082 1.248 6.681 3.507 10.53 7.562 15.937 0.516 1.238 1.032 2.475 1.563 3.75 1.626 3.676 3.509 5.531 6.437 8.25 1.667 2 3.334 4 5 6 3.827 4.502 8.131 6.894 13.301 9.586 2.133 1.118 4.21 2.342 6.262 3.602 3.664 1.932 7.167 2.988 11.14 4.09 2.722 0.856 4.91 2.178 7.297 3.722 6.061 1.515 12.089 1.185 18.313 1.188 1.306 0.012 2.613 0.024 3.959 0.037 0.634 1e-3 0.634 1e-3 3.842 6e-3 1.152 4e-3 2.305 8e-3 3.493 0.012 4.588-0.328 8.738-1.185 12.643-3.68 2.8-1.591 5.072-2.193 8.188-2.938 4.986-1.273 7.728-3.132 11.562-6.625 1.341-0.66 2.682-1.32 4.063-2 3.891-1.976 6.044-3.794 8.937-7 0.805-0.763 1.609-1.526 2.438-2.312 5.617-5.891 9.232-11.584 12.289-19.074 1.273-2.614 1.273-2.614 3.328-5.043 2.305-3.045 2.788-5.265 3.445-9.008 1.193-6.239 2.783-12.235 4.633-18.309 2.306-8.653 2.086-17.364 2.117-26.254 0.021-1.416 0.042-2.833 0.063-4.293 0.045-12.24-1.811-23.613-5.574-35.25-0.84-2.793-1.432-5.607-2.051-8.457-3.36-13.405-13.781-26.805-24.688-35-1.072-0.35-2.145-0.701-3.25-1.062-2.75-0.938-2.75-0.938-4.75-4.938-2.561-1.778-5.211-3.105-8-4.5-3-1.5-3-1.5-5.34-3.019-24.001-13.358-64.118-2.766-83.66 13.519z"/>
<path transform="translate(1608.2 429.7)" d="m0 0c0.491-2e-3 0.491-2e-3 2.977-0.013 2.071-6e-3 4.143-6e-3 6.215-2e-3 3.171 3e-3 6.342-0.02 9.513-0.046 2.015-2e-3 4.03-3e-3 6.045-1e-3 0.948-0.01 1.896-0.019 2.873-0.028 5.142 0.036 6.932 0.201 11.186 3.391 1.491 4.475 1.148 8.994 1.147 13.667 3e-3 1.111 7e-3 2.222 0.011 3.367 0.011 3.742 0.015 7.485 0.019 11.227 6e-3 2.676 0.013 5.351 0.02 8.027 0.017 7.28 0.027 14.561 0.036 21.842 5e-3 4.544 0.011 9.087 0.017 13.631 0.019 14.202 0.034 28.404 0.042 42.607 0.01 16.421 0.036 32.843 0.076 49.264 0.03 12.677 0.045 25.354 0.049 38.031 2e-3 7.579 0.011 15.158 0.036 22.738 0.023 7.124 0.028 14.249 0.017 21.373 0 2.621 6e-3 5.242 0.02 7.862 0.017 3.566 0.011 7.131-3e-3 10.697 0.011 1.048 0.022 2.095 0.034 3.174-0.026 2.884-0.026 2.884-0.521 7.493-5.043 3.782-8.899 3.434-14.934 3.398-0.535 2e-3 -0.535 2e-3 -3.243 9e-3 -2.262 2e-3 -4.524-4e-3 -6.786-0.016-3.459-0.016-6.916 0-10.375 0.019-2.199-2e-3 -4.397-6e-3 -6.596-0.012-1.033 6e-3 -2.067 0.012-3.132 0.019-9.589-0.094-9.589-0.094-12.934-3.417-0.552-2.556-0.552-2.556-0.454-5.586 0.021-1.096 0.042-2.192 0.063-3.32 0.046-1.145 0.093-2.29 0.141-3.469 0.061-2.258 0.118-4.516 0.171-6.774 0.038-1.002 0.075-2.004 0.113-3.036-0.034-2.815-0.034-2.815-0.525-4.949-0.687-3.867-0.667-7.612-0.699-11.54-4e-3 -0.431-4e-3 -0.431-0.025-2.614-0.017-1.867-0.033-3.734-0.046-5.601-0.021-2.955-0.048-5.909-0.076-8.864-0.07-7.335-0.13-14.671-0.189-22.007-0.051-6.204-0.106-12.407-0.166-18.611-0.027-2.912-0.048-5.823-0.068-8.735-0.017-1.783-0.034-3.566-0.051-5.35-0.012-1.557-0.025-3.114-0.038-4.718-0.151-3.826-0.151-3.826-1.151-7.826-4.865-1.216-9.51-1.164-14.489-1.177-0.533-4e-3 -0.533-4e-3 -3.233-0.02-3.53-0.02-7.061-0.032-10.591-0.042-1.205-4e-3 -2.41-8e-3 -3.651-0.012-6.372-0.021-12.744-0.035-19.116-0.044-6.591-0.011-13.181-0.046-19.772-0.086-5.062-0.026-10.123-0.034-15.185-0.038-2.43-5e-3 -4.861-0.016-7.291-0.035-3.395-0.024-6.789-0.023-10.184-0.016-1.008-0.013-2.016-0.026-3.054-0.039-6.832 0.051-6.832 0.051-9.695 2.225-2.062 2.707-2.231 3.941-2.207 7.307-3e-3 1.012-5e-3 2.025-8e-3 3.068 0.018 1.104 0.035 2.209 0.053 3.347 3e-3 1.168 5e-3 2.335 8e-3 3.539 0.013 3.864 0.054 7.728 0.094 11.593 0.013 2.68 0.023 5.36 0.032 8.04 0.026 7.059 0.075 14.117 0.131 21.175 0.086 11.306 0.145 22.613 0.192 33.919 0.02 3.959 0.054 7.917 0.09 11.876 0.013 2.413 0.026 4.827 0.039 7.241 0.014 1.108 0.027 2.217 0.041 3.359 8e-3 2.607-0.088 5.215-0.204 7.82-3.224 3.223-6.77 3.127-11.089 3.145-0.505 3e-3 -0.505 3e-3 -3.063 0.019-0.543 1e-3 -0.543 1e-3 -3.29 4e-3 -1.119 3e-3 -2.238 6e-3 -3.391 0.01-2.365 5e-3 -4.729 7e-3 -7.094 7e-3 -3.625 2e-3 -7.251 0.02-10.876 0.039-2.296 3e-3 -4.593 5e-3 -6.889 6e-3 -1.087 7e-3 -2.175 0.015-3.295 0.022-7.67-0.023-7.67-0.023-11.013-2.252-1.53-5.482-1.126-11.271-1.096-16.921 2e-3 -1.102 3e-3 -2.204 5e-3 -3.34 8e-3 -3.694 0.022-7.388 0.037-11.082 7e-3 -2.648 0.013-5.296 0.02-7.944 0.017-7.191 0.042-14.383 0.068-21.575 0.022-5.997 0.04-11.994 0.059-17.991 0.045-14.14 0.095-28.28 0.149-42.419 0.055-14.609 0.099-29.218 0.137-43.827 0.034-12.529 0.075-25.058 0.123-37.587 0.028-7.49 0.053-14.979 0.07-22.468 0.017-7.036 0.043-14.072 0.077-21.108 0.01-2.589 0.018-5.178 0.021-7.767 6e-3 -3.519 0.024-7.039 0.044-10.559-1e-3 -1.037-2e-3 -2.073-3e-3 -3.141 0.06-7.043 0.06-7.043 2.289-9.271 10.194-1.799 20.998-1.219 31.333-1.24 2.821-0.01 5.642-0.042 8.463-0.073 1.8-6e-3 3.599-0.011 5.399-0.015 1.619-0.01 3.238-0.019 4.907-0.029 3.898 0.357 3.898 0.357 6.898 3.357 1.695 3.391 1.101 7.248 1.066 10.976-5e-3 0.93-0.01 1.86-0.015 2.819-0.01 2.024-0.023 4.048-0.037 6.073-0.022 3.202-0.036 6.404-0.048 9.606-0.034 9.106-0.075 18.212-0.138 27.318-0.037 5.566-0.06 11.131-0.074 16.697-8e-3 2.123-0.022 4.247-0.041 6.37-0.026 2.969-0.034 5.937-0.038 8.906-0.012 0.88-0.025 1.76-0.038 2.667 0.017 4.965 0.259 6.43 3.363 10.568 3.62 0.385 6.936 0.515 10.558 0.47 1.086 2e-3 2.173 4e-3 3.292 6e-3 3.601 3e-3 7.201-0.024 10.802-0.05 2.497-5e-3 4.994-9e-3 7.492-0.01 5.238-8e-3 10.476-0.029 15.714-0.06 6.72-0.039 13.439-0.057 20.16-0.067 6.399-0.01 12.797-0.03 19.196-0.051 0.613-2e-3 0.613-2e-3 3.712-0.01 3.462-0.012 6.924-0.03 10.386-0.051 1.028-3e-3 2.056-6e-3 3.116-8e-3 4.061-0.031 7.614-0.18 11.572-1.169 0.01-1.066 0.02-2.131 0.031-3.229 0.098-10.077 0.201-20.154 0.308-30.231 0.055-5.18 0.108-10.36 0.158-15.54 0.048-5.006 0.1-10.011 0.156-15.017 0.02-1.903 0.039-3.805 0.056-5.708 0.262-28.815 0.262-28.815 4.291-33.275 4.767-2.665 9.885-2.306 15.191-2.301z"/>
<path transform="translate(1435,761)" d="m0 0c3.577-0.378 3.577-0.378 8.338-0.381 0.873-5e-3 1.745-9e-3 2.645-0.014 2.942-0.012 5.883-3e-3 8.825 7e-3 2.102-4e-3 4.204-0.01 6.307-0.016 5.723-0.014 11.446-8e-3 17.169 1e-3 5.98 8e-3 11.96 1e-3 17.94-4e-3 10.046-6e-3 20.092 2e-3 30.138 0.016 11.623 0.016 23.246 0.011 34.869-6e-3 9.967-0.013 19.934-0.015 29.901-7e-3 5.958 4e-3 11.916 5e-3 17.874-5e-3 5.603-9e-3 11.206-3e-3 16.808 0.015 2.059 4e-3 4.119 3e-3 6.178-4e-3 2.805-8e-3 5.611 2e-3 8.416 0.017 0.786 1e-3 0.786 1e-3 4.763 3e-3 3.829 0.378 3.829 0.378 7.829 3.378 0.172 3.492 0.172 3.492-0.25 7.875-0.447 5.325-0.801 10.501-0.656 15.844 0.012 0.471 0.012 0.471 0.071 2.856 0.056 1.84 0.13 3.68 0.225 5.518 0.063 2.555 0.063 2.555-0.39 6.907-2.576 2.703-4.245 3.873-7.947 4.497-1.096-2e-3 -2.192-3e-3 -3.322-5e-3 -1.263 8e-3 -2.526 0.016-3.828 0.025-1.378-0.012-2.757-0.023-4.177-0.035-1.457 4e-3 -2.914 8e-3 -4.416 0.012-3.165 6e-3 -6.33 3e-3 -9.496-8e-3 -5.004-0.017-10.009-0.011-15.013 4e-3 -10.621 0.027-21.242 0.02-31.863 0.01-11.47-0.011-22.94-0.016-34.41 0.017-5.778 0.016-11.555 0-17.333-0.02-3.017 6e-3 -6.034 0.012-9.051 0.021-1.38-0.012-2.76-0.023-4.183-0.035-1.26 8e-3 -2.52 0.017-3.819 0.025-1.096-2e-3 -2.192-3e-3 -3.321-5e-3 -3.545 0.624-4.718 1.607-6.821 4.497-0.386 3.629-0.537 6.947-0.496 10.574-1e-3 0.519-1e-3 0.519-5e-3 3.147 2e-3 2.198 0.014 4.396 0.034 6.594 0.029 3.343 0.021 6.684 8e-3 10.027 6e-3 2.14 0.015 4.28 0.025 6.42-3e-3 0.991-5e-3 1.982-8e-3 3.003 0.084 6.334 0.962 11.376 3.442 17.235 3.386 2.257 4.491 2.243 8.452 2.22 1.133-1e-3 2.266-3e-3 3.433-4e-3 1.244-0.012 2.487-0.024 3.769-0.037 0.654-2e-3 0.654-2e-3 3.967-0.013 2.848-0.011 5.697-0.027 8.545-0.046 4.505-0.03 9.009-0.047 13.514-0.06 12.81-0.04 25.62-0.105 38.429-0.176 7.83-0.043 15.659-0.071 23.489-0.091 2.988-0.01 5.976-0.027 8.964-0.049 4.175-0.031 8.35-0.044 12.525-0.053 1.24-0.014 2.48-0.028 3.757-0.042 1.138 1e-3 2.277 2e-3 3.45 4e-3 0.987-6e-3 1.974-0.011 2.991-0.017 3.27 0.438 5.133 1.319 7.715 3.364 0.583 3.965 0.583 3.965 0.523 8.938-4e-3 0.876-9e-3 1.752-0.014 2.656-0.021 2.802-0.078 5.604-0.134 8.406-0.017 1.888-0.031 3.776-0.043 5.664-0.135 13.745-0.135 13.745-1.332 17.336-2.621 1.31-4.561 1.134-7.497 1.145-1.168 7e-3 -2.336 0.014-3.54 0.021-1.287 2e-3 -2.575 5e-3 -3.902 8e-3 -1.351 6e-3 -2.703 0.013-4.095 0.02-2.943 0.014-5.885 0.026-8.828 0.036-4.651 0.016-9.302 0.039-13.953 0.065-13.227 0.071-26.454 0.131-39.681 0.182-8.082 0.032-16.163 0.073-24.244 0.12-3.087 0.016-6.174 0.028-9.262 0.037-4.31 0.012-8.619 0.036-12.929 0.063-1.286 1e-3 -2.572 1e-3 -3.897 2e-3 -1.171 0.01-2.341 0.019-3.548 0.029-0.51 2e-3 -0.51 2e-3 -3.09 0.013-2.534 0.259-2.534 0.259-5.534 2.259-1.094 3.282-1.127 5.697-1.129 9.152-2e-3 0.634-2e-3 0.634-0.01 3.843 2e-3 1.372 4e-3 2.744 6e-3 4.157-1e-3 1.407-2e-3 2.814-3e-3 4.263 0 2.979 1e-3 5.957 6e-3 8.935 5e-3 4.565 0 9.13-7e-3 13.695 1e-3 2.89 2e-3 5.78 4e-3 8.67-2e-3 1.37-4e-3 2.74-6e-3 4.151 3e-3 1.271 6e-3 2.543 0.01 3.853 0 1.119 1e-3 2.238 2e-3 3.39 0.127 2.891 0.127 2.891 1.127 6.891 3.313 1.104 5.76 1.125 9.249 1.125 0.655 1e-3 0.655 1e-3 3.969 7e-3 1.44-2e-3 2.88-4e-3 4.364-6e-3 1.514 2e-3 3.027 4e-3 4.587 6e-3 3.296 4e-3 6.591 6e-3 9.886 6e-3 5.21 1e-3 10.421 0.014 15.631 0.03 0.879 2e-3 1.758 5e-3 2.664 7e-3 1.798 6e-3 3.595 0.011 5.393 0.016 12.131 0.035 24.263 0.062 36.394 0.059 8.182-1e-3 16.364 0.015 24.545 0.051 4.331 0.019 8.66 0.028 12.99 0.016 4.83-0.014 9.658 0.011 14.488 0.039 1.436-0.01 2.872-0.02 4.351-0.03 0.658 6e-3 0.658 6e-3 3.986 0.041 1.141 2e-3 2.283 3e-3 3.46 5e-3 4.024 0.83 5.527 2.442 8.043 5.628 0.599 3.809 0.599 3.809 0.559 8.223-7e-3 1.59-0.015 3.18-0.022 4.818-8e-3 0.412-8e-3 0.412-0.05 2.497-0.049 2.52-0.061 5.038-0.067 7.558-0.125 12.314-0.125 12.314-2.42 16.904-3.306 1.653-6.751 1.151-10.414 1.172-0.44 3e-3 -0.44 3e-3 -2.669 0.019-2.97 0.02-5.939 0.033-8.909 0.046-2.122 0.013-4.243 0.026-6.365 0.04-5.777 0.035-11.554 0.065-17.331 0.092-3.606 0.018-7.211 0.037-10.817 0.056-12.571 0.068-25.141 0.13-37.711 0.188-11.733 0.053-23.465 0.119-35.197 0.189-10.06 0.06-20.121 0.112-30.181 0.158-6.014 0.027-12.028 0.058-18.042 0.097-5.655 0.036-11.31 0.062-16.965 0.081-2.079 9e-3 -4.158 0.021-6.236 0.036-2.832 0.021-5.663 0.03-8.495 0.035-1.587 8e-3 -3.173 0.016-4.808 0.024-3.86-0.233-3.86-0.233-7.86-2.233-1.492-4.475-1.141-8.994-1.134-13.667-2e-3 -1.111-4e-3 -2.222-7e-3 -3.367-6e-3 -3.743-5e-3 -7.485-4e-3 -11.228-3e-3 -2.675-7e-3 -5.35-0.01-8.026-9e-3 -7.281-0.012-14.561-0.012-21.842-1e-3 -6.069-5e-3 -12.138-8e-3 -18.207-9e-3 -14.312-0.011-28.624-0.01-42.935 0-14.787-0.01-29.574-0.026-44.36-0.013-12.677-0.018-25.354-0.018-38.031 0-7.579-2e-3 -15.159-0.013-22.738-0.01-7.125-0.01-14.249-3e-3 -21.373 2e-3 -2.621-1e-3 -5.242-7e-3 -7.863-8e-3 -3.565-3e-3 -7.131 5e-3 -10.696-5e-3 -1.048-0.011-2.095-0.016-3.175 0.035-7.15 0.035-7.15 2.263-10.492z"/>
<path transform="translate(1357.9 97.926)" d="m0 0c1.254 0.128 2.509 0.255 3.801 0.387 10.487 0.851 20.926 0.716 31.442 0.561 1.345-0.011 2.691-0.022 4.077-0.034 0.606-8e-3 0.606-8e-3 3.671-0.051 3.122 0.211 3.122 0.211 7.122 2.211 1.859 3.718 1.167 8.271 1.179 12.375 7e-3 1.092 0.014 2.183 0.021 3.308 0.023 3.684 0.038 7.367 0.053 11.051 0.015 2.631 0.03 5.261 0.045 7.892 0.04 7.166 0.073 14.331 0.104 21.496 0.02 4.473 0.041 8.946 0.062 13.419 0.066 13.984 0.128 27.968 0.184 41.951 0.065 16.163 0.143 32.325 0.233 48.487 0.068 12.479 0.125 24.958 0.173 37.437 0.029 7.46 0.063 14.919 0.109 22.378 0.043 7.016 0.071 14.032 0.088 21.049 9e-3 2.577 0.023 5.155 0.043 7.732 0.026 3.515 0.033 7.028 0.036 10.543 0.012 1.024 0.024 2.048 0.036 3.103-0.018 5.335-0.339 9.298-3.366 13.779-3.581 2.092-6.885 2.28-10.98 2.379-1.157 0.034-2.313 0.068-3.504 0.103-1.222 0.026-2.444 0.053-3.703 0.081-2.524 0.067-5.047 0.136-7.571 0.207-1.232 0.034-2.465 0.068-3.735 0.104-6.101 0.22-12.179 0.714-18.261 1.236-3.246-0.11-3.246-0.11-6.246-3.11-1.477-5.174-1.116-10.525-1.082-15.861 4e-3 -1.095 7e-3 -2.19 0.01-3.318 7e-3 -2.374 0.016-4.749 0.028-7.124 0.017-3.757 0.027-7.514 0.036-11.271 0.024-10.682 0.06-21.363 0.104-32.044 0.027-6.535 0.044-13.07 0.055-19.606 6e-3 -2.491 0.016-4.982 0.03-7.473 0.019-3.48 0.026-6.961 0.03-10.441 9e-3 -1.031 0.018-2.062 0.027-3.124-6e-3 -4.723-0.146-8.482-2.238-12.738-3.735-1.867-8.322-1.166-12.445-1.177-0.543-3e-3 -0.543-3e-3 -3.291-0.02-3.606-0.019-7.212-0.031-10.818-0.041-1.229-4e-3 -2.458-8e-3 -3.724-0.012-6.502-0.021-13.003-0.036-19.504-0.045-6.728-0.011-13.456-0.045-20.184-0.085-5.162-0.026-10.325-0.035-15.488-0.038-2.48-5e-3 -4.961-0.017-7.442-0.035-3.467-0.025-6.933-0.024-10.4-0.017-1.03-0.013-2.06-0.025-3.121-0.039-3.749 0.028-6.839 0.133-10.222 1.844-2.243 4.394-1.894 8.961-1.843 13.78-4e-3 1.134-8e-3 2.268-0.012 3.436-6e-3 2.462-3e-3 4.925 8e-3 7.387 0.018 3.896 0.01 7.791-4e-3 11.687-0.03 9.676-0.016 19.352-5e-3 29.028 9e-3 8.175 1e-3 16.349-0.029 24.523-7e-3 3.841 0.01 7.681 0.027 11.522-5e-3 2.353-0.012 4.705-0.02 7.058 0.011 1.07 0.022 2.139 0.034 3.242-0.036 4.408-0.109 7.25-2.236 11.173-2.692 2.159-3.846 2.427-7.261 2.337-0.988-0.014-1.976-0.028-2.994-0.042-1.06-0.042-2.121-0.083-3.213-0.126-1.095-0.024-2.19-0.049-3.317-0.074-2.314-0.057-4.627-0.126-6.94-0.206-3.542-0.122-7.083-0.206-10.626-0.284-2.247-0.06-4.495-0.122-6.742-0.186-1.061-0.027-2.121-0.054-3.214-0.082-4.647-0.17-7.761-0.401-11.974-2.508-2.943-4.677-2.277-10.287-2.254-15.621-3e-3 -1.082-6e-3 -2.164-9e-3 -3.279-8e-3 -3.633-2e-3 -7.266 4e-3 -10.898-2e-3 -2.602-6e-3 -5.204-0.01-7.806-9e-3 -7.072-6e-3 -14.144 1e-3 -21.216 5e-3 -7.395 0-14.79-3e-3 -22.185-4e-3 -12.421 1e-3 -24.842 0.011-37.263 0.01-14.366 7e-3 -28.732-4e-3 -43.098-9e-3 -12.326-0.01-24.653-5e-3 -36.979 3e-3 -7.365 3e-3 -14.731-3e-3 -22.096-6e-3 -6.925-2e-3 -13.85 9e-3 -20.775 3e-3 -2.544 2e-3 -5.088-2e-3 -7.631-5e-3 -3.468 1e-3 -6.936 0.011-10.404-4e-3 -1.011-9e-3 -2.021-0.013-3.062 0.027-4.906 0.156-9.201 2.267-13.687 5.177-2.89 11.417-2.323 17.199-2.336 0.537-3e-3 0.537-3e-3 3.249-0.02 2.258-0.01 4.517-0.015 6.775-0.014 3.463-5e-3 6.926-0.041 10.389-0.079 2.196-6e-3 4.392-0.01 6.587-0.012 0.519-7e-3 0.519-7e-3 3.144-0.043 2.914 0.018 2.914 0.018 7.657 0.504 3.556 4.741 3.429 7.832 3.401 13.479 3e-3 0.48 3e-3 0.48 0.021 2.908 0.02 3.173 0.02 6.346 0.02 9.519 0.011 2.205 0.025 4.409 0.04 6.613 0.036 5.805 0.056 11.61 0.071 17.415 0.025 9.292 0.065 18.584 0.122 27.876 0.017 3.249 0.02 6.497 0.023 9.746 0.01 1.988 0.02 3.977 0.031 5.966-1e-3 0.452-1e-3 0.452-8e-3 2.742 0.036 4.349 0.296 6.769 2.279 10.736 3.692 1.846 8.189 1.147 12.262 1.145 1.066 4e-3 2.133 7e-3 3.232 0.011 3.541 9e-3 7.082 0.011 10.623 0.012 2.454 3e-3 4.908 7e-3 7.362 0.01 5.15 6e-3 10.3 8e-3 15.45 8e-3 6.606-1e-3 13.213 0.013 19.82 0.03 5.07 0.011 10.14 0.013 15.21 0.013 2.436 1e-3 4.872 6e-3 7.308 0.013 3.404 0.01 6.809 7e-3 10.213 1e-3 0.506 3e-3 0.506 3e-3 3.064 0.017 4.562-0.02 7.309-0.186 11.456-2.26 1.762-3.524 1.154-7.661 1.158-11.543 5e-3 -0.99 0.01-1.98 0.015-3.001 0.011-2.155 0.02-4.31 0.027-6.466 0.011-3.407 0.031-6.815 0.053-10.223 0.061-9.69 0.115-19.381 0.149-29.071 0.021-5.922 0.056-11.844 0.1-17.766 0.015-2.262 0.023-4.523 0.026-6.784 5e-3 -3.158 0.028-6.316 0.056-9.474-2e-3 -0.47-2e-3 -0.47-9e-3 -2.848 0.125-9.739 0.125-9.739 6.312-9.898z"/>
<path transform="translate(1444 98.866)" d="m0 0c0.423-1e-3 0.423-1e-3 2.566-7e-3 2.859-6e-3 5.719-5e-3 8.579-5e-3 2.041-3e-3 4.082-6e-3 6.124-0.01 5.562-9e-3 11.124-0.011 16.686-0.012 4.637 0 9.274-4e-3 13.911-8e-3 10.94-8e-3 21.879-0.01 32.819-0.01 11.295 1e-3 22.591-0.01 33.886-0.025 9.686-0.013 19.371-0.019 29.057-0.018 5.79 0 11.58-3e-3 17.37-0.013 5.447-0.01 10.893-0.01 16.34-3e-3 2.001 1e-3 4.002-1e-3 6.002-7e-3 2.729-8e-3 5.457-3e-3 8.186 4e-3 1.528 0 3.056-1e-3 4.63-1e-3 4.672 0.301 7.538 0.925 10.861 4.249 0.427 5.397 0.371 10.809 0.371 16.221 4e-3 2.702 0.04 5.403 0.078 8.105 6e-3 1.713 0.01 3.426 0.012 5.139 8e-3 1.563 0.016 3.127 0.025 4.738-0.161 1.253-0.321 2.506-0.486 3.797-4.273 3.205-5.038 3.376-10.073 3.385-1.245 0.01-2.49 0.019-3.773 0.029-1.363-4e-3 -2.726-9e-3 -4.131-0.014-1.437 7e-3 -2.875 0.014-4.356 0.021-4.764 0.021-9.528 0.02-14.292 0.02-3.303 0.012-6.606 0.025-9.909 0.04-9.596 0.041-19.193 0.06-28.789 0.076-13.044 0.024-26.087 0.064-39.13 0.118-4.877 0.016-9.754 0.02-14.632 0.023-2.979 9e-3 -5.959 0.02-8.939 0.03-1.363-2e-3 -2.726-5e-3 -4.131-7e-3 -1.245 7e-3 -2.49 0.013-3.772 0.02-0.542 1e-3 -0.542 1e-3 -3.281 5e-3 -2.792 0.254-2.792 0.254-6.792 2.254-1.272 2.544-1.148 4.363-1.177 7.212-0.013 1.088-0.026 2.176-0.039 3.297-7e-3 1.181-0.015 2.361-0.022 3.577-8e-3 1.208-0.017 2.417-0.025 3.662-0.014 2.56-0.024 5.121-0.032 7.681-0.017 3.923-0.061 7.844-0.105 11.766-0.011 2.484-0.019 4.969-0.026 7.453-0.017 1.176-0.035 2.352-0.053 3.564 3e-3 1.095 6e-3 2.189 9e-3 3.317-6e-3 0.962-0.012 1.924-0.018 2.915 0.646 3.383 1.823 4.414 4.488 6.556 2.657 0.499 2.657 0.499 5.744 0.499 1.173 9e-3 2.345 0.019 3.552 0.029 1.283-0.01 2.565-0.02 3.886-0.03 1.353 6e-3 2.706 0.011 4.1 0.017 2.941 9e-3 5.881 9e-3 8.822 1e-3 4.647-0.012 9.293-1e-3 13.94 0.016 9.021 0.03 18.042 0.032 27.064 0.031 12.268-2e-3 24.536 0.015 36.805 0.056 4.59 0.01 9.18 1e-3 13.77-9e-3 2.798 6e-3 5.596 0.013 8.394 0.021 0.643-4e-3 0.643-4e-3 3.897-0.024 1.167 7e-3 2.333 0.014 3.535 0.021 1.018-1e-3 2.036-1e-3 3.085-2e-3 0.794 0.123 1.588 0.247 2.406 0.374 2.737 4.106 2.259 7.015 2.266 11.937 1e-3 0.877 3e-3 1.753 5e-3 2.656 2e-3 1.853-2e-3 3.705-0.01 5.558-0.011 2.838 0 5.675 0.012 8.513-1e-3 1.799-4e-3 3.599-7e-3 5.398-3e-3 1.641-5e-3 3.282-7e-3 4.973-0.259 3.965-0.259 3.965-2.259 6.965-3.535 0.401-6.898 0.608-10.445 0.686-0.535 0.016-0.535 0.016-3.246 0.1-11.205 0.313-22.412 0.314-33.621 0.258-3.679-0.017-7.358-0.027-11.036-0.036-10.438-0.024-20.876-0.06-31.314-0.104-6.434-0.027-12.868-0.044-19.302-0.055-2.438-6e-3 -4.876-0.016-7.314-0.03-3.387-0.019-6.775-0.026-10.162-0.03-1.001-9e-3 -2.002-0.018-3.033-0.027-8.719 0.012-8.719 0.012-12.527 2.238-1.363 2.726-1.186 4.955-1.253 8.007-0.03 1.261-0.059 2.523-0.09 3.823-0.013 0.686-0.013 0.686-0.079 4.154-0.028 1.404-0.056 2.807-0.085 4.253-0.056 2.976-0.11 5.952-0.161 8.928-0.082 4.552-0.185 9.103-0.289 13.655-0.052 2.888-0.103 5.776-0.152 8.664-0.035 1.363-0.069 2.725-0.104 4.129-0.017 1.275-0.034 2.549-0.052 3.862-0.021 1.118-0.043 2.235-0.065 3.387 0.481 4.573 2.084 7.892 5.33 11.138 2.656 0.25 2.656 0.25 6.098 0.251 1.301 6e-3 2.602 0.011 3.943 0.017 1.436-5e-3 2.872-9e-3 4.351-0.013 1.506 4e-3 3.011 7e-3 4.563 0.011 3.28 7e-3 6.559 0.01 9.839 8e-3 5.185-3e-3 10.37 0.012 15.555 0.029 14.745 0.047 29.491 0.071 44.236 0.078 8.14 3e-3 16.28 0.021 24.42 0.055 5.155 0.02 10.311 0.022 15.466 0.011 3.959-3e-3 7.919 0.02 11.878 0.039 1.432-9e-3 2.864-0.017 4.339-0.025 1.307 0.011 2.614 0.022 3.96 0.033 1.137 1e-3 2.273 2e-3 3.445 3e-3 3.586 0.62 4.754 1.608 6.907 4.503 1.29 6.975 1.183 14.045 1.187 21.125 0.013 1.045 0.025 2.091 0.038 3.168 0.01 5.543-0.098 10.492-2.225 15.707-4.028 2.685-6.702 2.27-11.541 2.298-0.882 8e-3 -1.765 0.016-2.674 0.024-2.969 0.024-5.937 0.034-8.906 0.044-2.124 0.014-4.247 0.029-6.371 0.045-5.777 0.04-11.553 0.068-17.33 0.092-4.817 0.022-9.633 0.049-14.449 0.076-11.359 0.064-22.717 0.117-34.076 0.164-11.733 0.048-23.465 0.115-35.198 0.191-10.061 0.064-20.122 0.117-30.184 0.16-6.014 0.026-12.029 0.057-18.043 0.099-5.654 0.039-11.307 0.063-16.961 0.076-2.079 7e-3 -4.158 0.02-6.237 0.038-2.83 0.023-5.659 0.029-8.489 0.029-1.587 8e-3 -3.173 0.015-4.807 0.023-3.734-0.359-3.734-0.359-6.734-3.359-1.48-4.439-1.141-8.905-1.134-13.54-2e-3 -1.097-4e-3 -2.195-7e-3 -3.325-6e-3 -3.697-5e-3 -7.393-4e-3 -11.09-3e-3 -2.642-7e-3 -5.285-0.011-7.928-8e-3 -7.192-0.011-14.384-0.011-21.576-1e-3 -5.997-5e-3 -11.993-9e-3 -17.99-8e-3 -14.144-0.01-28.288-9e-3 -42.432 0-14.607-0.01-29.214-0.026-43.821-0.013-12.527-0.019-25.053-0.018-37.58 0-7.488-3e-3 -14.976-0.013-22.464-0.01-7.04-0.01-14.081-3e-3 -21.122 1e-3 -2.587-1e-3 -5.175-7e-3 -7.763-8e-3 -3.525-3e-3 -7.05 5e-3 -10.576-5e-3 -1.03-0.011-2.06-0.016-3.121 0.052-10.603 0.654-13.794 11.246-13.806z"/>
<path transform="translate(987.23 760.61)" d="m0 0c1.285-9e-3 2.57-0.019 3.894-0.029 1.391 6e-3 2.781 0.012 4.214 0.019 1.427-3e-3 2.853-6e-3 4.323-9e-3 3.021-2e-3 6.042 4e-3 9.064 0.016 4.626 0.016 9.252 0 13.879-0.019 2.932 2e-3 5.864 6e-3 8.796 0.012 0.694-3e-3 0.694-3e-3 4.202-0.019 0.646 5e-3 0.646 5e-3 3.913 0.029 1.135 2e-3 2.269 5e-3 3.438 7e-3 3.422 0.428 5.287 1.352 8.049 3.381 2.776 3.743 4.041 7.77 5.437 12.188 1.45 4.487 2.939 8.896 4.75 13.25 1.813 4.562 1.813 4.562 2.75 8.625 1.054 3.903 2.719 6.729 4.77 10.175 2.229 4.761 3.129 9.869 4.203 14.993 1.14 3.942 2.799 6.402 5.09 9.769 1.125 3.403 1.125 3.403 2 6.938 1.409 5.287 3.276 9.317 6 14.062 0.524 1.905 0.999 3.824 1.437 5.75 1.175 5.128 2.948 9.459 5.235 14.176 2.177 5.039 3.606 10.3 5.117 15.57 1.211 3.504 1.211 3.504 4.211 7.504 0.543 2.252 0.994 4.528 1.375 6.813 1.169 5.976 2.991 9.282 6.625 14.187 0.842 2.779 1.433 5.578 2.055 8.414 1.561 5.922 3.94 11.521 6.226 17.192 1.177 3.009 2.257 6.058 3.25 9.132 1.469 4.262 1.469 4.262 3.071 6.926 1.718 2.87 2.173 5.43 2.773 8.711 0.899 4.22 1.471 6.416 4.062 9.938 3.432 4.938 4.208 9.877 5.532 15.691 1.14 4.421 2.798 8.198 4.808 12.274 1.393 3.101 2.339 6.208 3.285 9.472 1.426 4.901 3.373 8.829 5.938 13.25 0.875 3.75 0.875 3.75 1 7-2 3-2 3-4.46 3.503-10.409 0.542-20.809 0.717-31.23 0.737-3.03 0.01-6.06 0.041-9.089 0.073-1.932 6e-3 -3.864 0.011-5.795 0.015-0.903 0.013-1.806 0.025-2.737 0.038-6.346-0.023-6.346-0.023-9.689-3.366-1.247-3.118-2.376-6.195-3.438-9.375-0.308-0.901-0.617-1.802-0.935-2.73-1.678-4.939-3.262-9.896-4.752-14.895-1.857-6.201-4.303-12.067-6.875-18-0.536-1.382-1.073-2.764-1.625-4.187-0.454-0.928-0.908-1.857-1.375-2.813-4.284-1.428-8.536-1.164-13.008-1.177-0.514-3e-3 -0.514-3e-3 -3.114-0.02-3.406-0.019-6.812-0.031-10.218-0.041-1.162-4e-3 -2.323-8e-3 -3.52-0.012-6.145-0.021-12.29-0.036-18.435-0.045-6.357-0.011-12.713-0.045-19.07-0.085-4.88-0.026-9.761-0.035-14.641-0.038-2.344-5e-3 -4.688-0.017-7.032-0.035-3.275-0.025-6.55-0.024-9.825-0.017-0.972-0.013-1.944-0.025-2.946-0.039-6.575 0.052-6.575 0.052-9.738 2.402-4.415 6.405-6.849 13.028-8.711 20.537-0.742 2.57-0.742 2.57-2.68 6.32-1.947 4.013-2.95 7.5-4 11.813-1.492 5.918-2.971 9.916-7.062 14.437-2.51 1.255-4.311 1.173-7.121 1.237-1.068 0.027-2.136 0.053-3.236 0.08-0.579 0.012-0.579 0.012-3.51 0.07-1.186 0.025-2.373 0.051-3.595 0.077-2.513 0.052-5.027 0.102-7.54 0.149-3.85 0.074-7.699 0.165-11.549 0.256-2.439 0.049-4.877 0.096-7.316 0.143-0.577 0.014-0.577 0.014-3.498 0.088-1.074 0.017-2.149 0.034-3.256 0.051-0.944 0.019-1.888 0.039-2.861 0.058-2.518-0.209-2.518-0.209-6.518-2.209-1-3-1-3 0.75-6.625 0.742-1.444 1.485-2.887 2.25-4.375 1.037-2.987 2.038-5.988 3-9 1.411-3.88 2.854-7.678 4.562-11.437 1.438-3.563 1.438-3.563 2.313-8.125 1.125-4.438 1.125-4.438 3.562-7.125 3.39-4.382 3.76-8.432 4.758-13.805 0.929-4.049 2.491-7.134 4.481-10.742 2.304-4.812 3.609-9.96 5.129-15.063 1.336-4.141 3.252-7.817 5.195-11.703 0.353-1.7 0.663-3.41 0.937-5.125 1.063-4.875 1.063-4.875 3.5-7.625 3.421-4.337 3.763-8.386 4.758-13.742 0.929-4.049 2.491-7.134 4.481-10.742 2.304-4.813 3.609-9.961 5.133-15.063 1.335-4.149 3.191-7.836 5.191-11.703 0.529-1.699 1.028-3.409 1.5-5.125 0.88-3.167 1.534-4.921 3.5-7.625 2.136-3.471 2.635-5.896 3.375-9.875 1.176-6.13 3.19-10.84 6.145-16.297 2.149-4.469 3.283-9.109 4.546-13.89 1.172-4.002 3.023-7.49 4.934-11.188 0.53-1.699 1.029-3.408 1.5-5.125 0.882-3.17 1.56-4.959 3.5-7.687 2.082-3.319 2.652-5.635 3.437-9.438 1.109-5.336 2.769-9.566 5.368-14.328 1.275-2.583 2.058-5.084 2.82-7.859 2.02-6.704 3.926-7.937 10.603-7.951zm21.772 68.388c-1.653 5.353-3.174 10.667-4.438 16.125-0.894 3.684-1.824 6.39-3.562 9.813-1.809 3.673-2.62 6.477-3.438 10.437-1.111 5.274-2.802 9.441-5.371 14.149-1.678 3.488-2.501 7.065-3.32 10.836-0.871 2.64-0.871 2.64-2.875 5.523-2.261 3.531-2.767 6.117-3.371 10.242-1.149 6.535-3.253 11.481-6.379 17.281-1.646 3.427-2.022 5.868-1.246 9.594 2.206 2.928 3.379 3.898 7.036 4.501 0.593 0 0.593 0 3.597 1e-3 0.674 5e-3 0.674 5e-3 4.085 0.028 1.454-0.011 2.909-0.022 4.407-0.034 1.494 2e-3 2.988 3e-3 4.528 5e-3 3.16-2e-3 6.321-0.014 9.482-0.034 4.846-0.029 9.691-0.021 14.537-8e-3 3.068-6e-3 6.135-0.014 9.203-0.025 1.454 3e-3 2.908 6e-3 4.407 9e-3 1.348-0.013 2.696-0.026 4.085-0.039 1.187-5e-3 2.374-0.011 3.597-0.016 3.036-0.388 3.036-0.388 7.036-3.388 0.988-9.834-1.547-20.288-6.813-28.562-2.118-4.349-2.548-9.143-3.375-13.875-0.74-3.246-1.549-5.293-3.312-8.063-2.443-3.848-3.169-7.327-3.938-11.812-1.105-6.342-3.074-11.05-6.16-16.649-1.574-3.412-2.202-6.529-2.84-10.226-1.233-6.498-3.245-11.622-8.562-15.813-3.938-0.562-3.938-0.562-7 0z"/>
<path transform="translate(1282.4 752.69)" d="m0 0c1.563-0.016 3.126-0.032 4.736-0.049 12.99-5e-3 25.504 1.109 37.459 6.463 2.686 1.019 5.215 1.428 8.055 1.836 5.209 0.824 8.098 2.844 12.312 6.062 1.689 0.734 3.4 1.42 5.126 2.063 3.955 1.487 6.632 3.194 9.874 5.937 0.661 0.331 0.661 0.331 4 2 13.365 7.252 23.31 20.183 31 33 0.681 0.887 1.362 1.774 2.063 2.688 2.436 4.164 3.595 8.371 4.922 12.992 0.921 3.011 2.013 5.812 3.265 8.696 1.656 4.374 2.394 7.031 1.75 11.624-3 4-3 4-5.339 4.464-0.919-0.018-1.839-0.035-2.787-0.054-1.045-0.01-2.089-0.021-3.166-0.032-1.128-0.033-2.256-0.066-3.418-0.1-1.161-0.021-2.321-0.042-3.516-0.063-2.457-0.049-4.913-0.107-7.369-0.175-3.757-0.101-7.514-0.166-11.272-0.225-2.385-0.052-4.771-0.106-7.156-0.162-1.124-0.019-2.248-0.038-3.406-0.058-1.051-0.032-2.102-0.065-3.185-0.099-0.922-0.023-1.843-0.046-2.792-0.07-3.127-0.513-5.052-1.554-7.594-3.426-0.933-2.671-0.933-2.671-1.437-5.75-1.244-5.867-3.315-8.916-7.563-13.25-0.329-0.515-0.329-0.515-2-3.124-3.647-5.244-8.737-8.404-14-11.876-0.689-0.622-1.379-1.245-2.089-1.886-12.319-8.945-30.157-11.428-44.911-9.114-12.683 2.665-24.928 5.588-35 14-0.845 0.454-1.691 0.908-2.562 1.376-9.323 6.215-18.266 19.053-21.438 29.624-2.722 7.602-2.722 7.602-4.488 10.141-10.339 19.557-5.91 53.938-3.262 74.985 0.11 0.873 0.219 1.747 0.331 2.648 0.803 5.357 2.374 10.021 4.474 14.968 1.14 2.722 1.985 5.492 2.821 8.321 1.861 5.701 4.509 10.185 8.124 14.937 0.681 0.908 1.362 1.816 2.063 2.75 3.638 4.225 7.549 7.825 11.937 11.25 0.846 0.826 1.692 1.65 2.563 2.5 4.074 2.964 7.921 4.141 12.73 5.508 2.707 0.992 2.707 0.992 5.707 3.992 7.815 2.093 15.379 2.367 23.438 2.376 1.15 0.024 2.301 0.048 3.486 0.074 7.845 0.026 13.904-1.341 21.076-4.45 1.14-0.42 2.28-0.84 3.454-1.273 6.174-2.432 10.736-5.014 15.546-9.727 0.887-0.866 1.774-1.732 2.688-2.624 1.511-1.552 3.012-3.114 4.5-4.688 1.812-1.688 1.812-1.688 3.812-1.688 0.269-0.701 0.537-1.402 0.813-2.124 1.187-2.876 1.187-2.876 3.563-5.376 3.235-4.313 4.284-8.402 5.632-13.574 0.992-2.926 0.992-2.926 3.992-5.926 5.52-2.555 11.262-2.432 17.235-2.589 0.537-0.016 0.537-0.016 3.256-0.095 2.262-0.061 4.525-0.117 6.787-0.168 3.475-0.085 6.948-0.207 10.422-0.329 2.199-0.055 4.398-0.108 6.597-0.158 0.522-0.021 0.522-0.021 3.16-0.126 2.914-0.042 2.914-0.042 7.543 0.465 1.705 2.315 1.705 2.315 2 5-0.574 3.305-0.574 3.305-1.687 6.876-0.383 1.238-0.766 2.477-1.16 3.753-1.212 3.544-2.67 6.934-4.153 10.371-0.288 1.506-0.577 3.012-0.874 4.563-1.241 4.894-2.932 6.636-6.126 10.437-0.698 1.835-1.34 3.692-1.937 5.563-1.692 5.063-3.644 7.307-8.063 10.437-0.371 0.465-0.371 0.465-2.25 2.813-0.577 0.722-1.154 1.444-1.75 2.187h-2c-0.66 1.32-1.319 2.64-2 4-1.288 1.378-2.628 2.707-4 4-0.721 0.764-1.443 1.527-2.187 2.313-6.083 5.813-12.659 11.189-20.625 14.063-4.188 1.624-4.188 1.624-7.875 4.062-4.41 2.908-9.101 4.185-14.164 5.57-3.149 0.992-3.149 0.992-6.004 2.535-11.895 5.512-29.153 3.657-41.957 3.707-1.452 0.01-2.903 0.019-4.399 0.029-14.488-0.042-28.81-0.924-42.226-6.779-3.945-1.66-7.844-2.621-12.012-3.558-3.009-1.111-4.31-2.687-6.551-4.942-2.656-1.089-2.656-1.089-5.5-1.937-4.716-1.589-6.557-3.004-9.5-7.063-1.213-0.576-2.426-1.152-3.675-1.746-11.002-5.734-19.609-17.015-26.325-27.254-0.636-0.938-1.273-1.876-1.929-2.843-3.479-5.254-5.949-10.197-8.071-16.157-0.645-0.89-1.291-1.781-1.957-2.699-2.429-3.926-3.157-7.277-4.043-11.801-1.41-6.86-3.074-13.509-5.167-20.191-7.559-30.057-4.549-68.473 4.992-97.601 0.978-3.085 1.765-6.121 2.488-9.27 2.203-8.368 6.562-17.312 12.687-23.438 0.599-1.443 1.197-2.887 1.813-4.374 1.904-4.492 4.222-6.712 8.187-9.626 2.688-2.556 5.098-5.119 7.438-8 2.628-3.076 5.422-5.46 8.562-8 0.64-0.701 1.279-1.402 1.938-2.124 2.718-2.472 5.69-3.456 9.062-4.876 0.764-0.639 1.527-1.278 2.313-1.937 3.184-2.444 6.329-3.603 10.09-4.937 2.597-1.126 2.597-1.126 5.351-3.122 4.024-2.483 7.614-3.174 12.246-4.066 8.423-1.635 8.423-1.635 11.85-3.429 10.766-5.156 24.941-3.845 36.588-3.821z"/>
<path transform="translate(701.16 760.75)" d="m0 0c0.842-3e-3 1.683-6e-3 2.55-9e-3 2.831-8e-3 5.661-2e-3 8.492 4e-3 2.025-3e-3 4.05-6e-3 6.075-0.01 5.508-0.01 11.017-6e-3 16.525 0 5.756 5e-3 11.512 1e-3 17.268-2e-3 9.668-4e-3 19.335 1e-3 29.003 0.01 11.188 0.011 22.375 8e-3 33.563-3e-3 9.594-9e-3 19.188-0.011 28.782-6e-3 5.735 4e-3 11.47 4e-3 17.205-3e-3 5.391-5e-3 10.782-1e-3 16.173 0.01 1.982 3e-3 3.964 2e-3 5.946-2e-3 2.699-6e-3 5.397 1e-3 8.096 0.011 1.512 1e-3 3.025 2e-3 4.583 2e-3 3.578 0.252 3.578 0.252 6.578 2.252 0.304 3.17 0.42 6.141 0.398 9.312 2e-3 0.463 2e-3 0.463 9e-3 2.802 2e-3 1.957-4e-3 3.914-0.016 5.871-0.016 3.003 0 6.004 0.019 9.007-2e-3 1.899-6e-3 3.797-0.012 5.695 6e-3 0.903 0.012 1.805 0.019 2.734-0.025 2.197-0.208 4.392-0.417 6.579-3.462 2.308-4.771 2.254-8.852 2.265-0.611 4e-3 -0.611 4e-3 -3.701 0.025-1.342-1e-3 -2.684-2e-3 -4.067-3e-3 -1.411 7e-3 -2.823 0.014-4.277 0.021-3.071 0.013-6.142 0.022-9.213 0.027-4.852 9e-3 -9.705 0.029-14.557 0.053-11.175 0.052-22.351 0.087-33.526 0.12-11.056 0.033-22.112 0.074-33.168 0.128-4.794 0.02-9.588 0.028-14.382 0.036-2.922 0.013-5.845 0.027-8.767 0.041-1.344-1e-3 -2.688-2e-3 -4.073-3e-3 -1.218 8e-3 -2.437 0.016-3.692 0.025-1.064 3e-3 -2.127 6e-3 -3.223 9e-3 -2.502 0.256-2.502 0.256-4.502 2.256-0.254 2.498-0.254 2.498-0.259 5.687-6e-3 1.192-0.013 2.383-0.019 3.611 4e-3 1.292 8e-3 2.585 0.012 3.917-2e-3 1.322-4e-3 2.643-6e-3 4.005-1e-3 2.8 3e-3 5.601 0.011 8.401 0.011 4.295 0 8.59-0.013 12.885 2e-3 2.715 4e-3 5.431 8e-3 8.146-4e-3 1.291-8e-3 2.582-0.012 3.911 6e-3 1.195 0.013 2.39 0.019 3.62 2e-3 1.054 3e-3 2.107 5e-3 3.192 0.254 2.625 0.254 2.625 2.254 5.625 3.865 0.289 7.571 0.385 11.439 0.353 0.596 1e-3 0.596 1e-3 3.612 7e-3 2.595 3e-3 5.191-1e-3 7.787-0.01 4.105-0.014 8.211-8e-3 12.316 4e-3 11.676 0.031 23.352 0.026 35.027 6e-3 7.135-0.011 14.269 3e-3 21.404 0.03 2.723 6e-3 5.446 2e-3 8.168-0.012 3.807-0.019 7.613-8e-3 11.42 0.01 0.564-7e-3 0.564-7e-3 3.421-0.04 7.61 0.08 7.61 0.08 11.608 2.952 2.499 3.753 2.398 6.438 2.356 10.923-7e-3 1.59-0.014 3.18-0.021 4.818-8e-3 0.412-8e-3 0.412-0.05 2.497-0.05 2.52-0.062 5.038-0.067 7.558-0.125 12.314-0.125 12.314-2.42 16.904-3.971 1.985-9.076 1.2-13.471 1.234-1.195 0.013-2.39 0.026-3.621 0.04-2.603 0.028-5.205 0.055-7.807 0.08-4.113 0.041-8.227 0.09-12.34 0.142-11.698 0.148-23.395 0.292-35.093 0.403-7.148 0.068-14.296 0.156-21.443 0.256-2.73 0.035-5.46 0.062-8.19 0.082-3.812 0.029-7.623 0.082-11.435 0.141-1.136 3e-3 -2.273 6e-3 -3.443 8e-3 -0.518 0.011-0.518 0.011-3.14 0.064-0.902 0.01-1.804 0.019-2.733 0.029-2.284 0.521-2.284 0.521-5.284 4.521-0.291 3.554-0.407 6.934-0.385 10.488-5e-3 1.067-0.011 2.134-0.016 3.234-0.01 2.317-0.013 4.633-0.01 6.95 5e-3 3.665-9e-3 7.329-0.028 10.993-0.037 7.778-0.051 15.557-0.061 23.335-0.012 9.012-0.034 18.024-0.08 27.036-0.014 3.614-0.01 7.228-5e-3 10.842-9e-3 2.211-0.019 4.423-0.03 6.634 6e-3 1.008 0.012 2.016 0.018 3.054-0.046 5.213-0.175 7.13-3.403 11.434-2.384 0.501-2.384 0.501-5.234 0.502-0.534 4e-3 -0.534 4e-3 -3.237 0.028-1.153-0.011-2.306-0.022-3.494-0.034-0.592 1e-3 -0.592 1e-3 -3.59 4e-3 -2.508-1e-3 -5.016-0.013-7.523-0.033-3.841-0.029-7.681-0.021-11.522-8e-3 -2.434-6e-3 -4.868-0.015-7.302-0.025-0.576 1e-3 -0.576 1e-3 -3.489 8e-3 -0.535-6e-3 -0.535-6e-3 -3.246-0.038-0.941-5e-3 -1.882-0.011-2.852-0.016-2.511-0.388-2.511-0.388-6.511-3.388-0.397-3.682-0.535-7.065-0.501-10.749-6e-3 -1.12-0.011-2.241-0.017-3.395-0.014-3.772 1e-3 -7.544 0.016-11.317-4e-3 -2.697-9e-3 -5.394-0.016-8.09-0.014-7.339-3e-3 -14.677 0.013-22.016 0.014-7.665 8e-3 -15.33 4e-3 -22.995-2e-3 -12.874 0.011-25.747 0.034-38.62 0.027-14.904 0.029-29.807 0.017-44.711-0.011-14.312-5e-3 -28.624 9e-3 -42.936 6e-3 -6.103 6e-3 -12.205 1e-3 -18.308-4e-3 -7.179 6e-3 -14.358 0.027-21.538 6e-3 -2.642 6e-3 -5.284 1e-3 -7.926-5e-3 -3.592 7e-3 -7.184 0.024-10.777-6e-3 -1.058-0.012-2.116-0.018-3.206 0.022-2.476 0.198-4.949 0.406-7.416 3.955-2.637 6.412-2.252 11.161-2.254z"/>
<path transform="translate(925.35 98.733)" d="m0 0c0.945-5e-3 1.891-9e-3 2.865-0.014 3.17-0.012 6.34-0.011 9.509-9e-3 2.272-6e-3 4.544-0.013 6.815-0.02 6.172-0.018 12.343-0.023 18.514-0.024 5.147-2e-3 10.294-9e-3 15.441-0.016 12.137-0.017 24.274-0.022 36.412-0.02 12.536 1e-3 25.072-0.02 37.608-0.052 10.753-0.026 21.506-0.037 32.26-0.035 6.427 0 12.854-6e-3 19.281-0.027 6.039-0.019 12.078-0.019 18.118-5e-3 2.221 3e-3 4.441-2e-3 6.662-0.014 3.023-0.016 6.045-7e-3 9.067 9e-3 0.444-5e-3 0.444-5e-3 2.687-0.031 2.447 0.028 2.447 0.028 6.41 0.525 3.603 4.804 3.386 6.696 3.399 12.598 1e-3 0.415 1e-3 0.415 8e-3 2.517 2e-3 1.753-3e-3 3.505-0.016 5.258-0.016 2.684 0 5.367 0.019 8.051-2e-3 1.704-5e-3 3.408-0.011 5.112-4e-3 1.55-7e-3 3.101-0.011 4.699-0.388 3.765-0.388 3.765-3.388 6.765-2.504 0.392-2.504 0.392-5.531 0.417-0.568 8e-3 -0.568 8e-3 -3.444 0.05-1.234 3e-3 -2.468 7e-3 -3.74 0.01-0.64 8e-3 -0.64 8e-3 -3.879 0.047-4.114 0.048-8.229 0.075-12.343 0.101-31.666 0.288-31.666 0.288-42.692 0.711-1.518 0.055-3.036 0.11-4.599 0.166-3.818 0.505-5.805 1.087-8.772 3.498-2.362 4.724-2.248 7.532-2.245 12.8-1e-3 0.449-1e-3 0.449-6e-3 2.722-6e-3 3.016 3e-3 6.032 0.012 9.048-1e-3 2.16-3e-3 4.32-6e-3 6.48-5e-3 4.655-4e-3 9.309 1e-3 13.964 8e-3 7.357-3e-3 14.714-0.017 22.071-0.038 20.921-0.056 41.842-0.044 62.764 6e-3 11.552-5e-3 23.104-0.037 34.656-0.018 7.317-0.015 14.633 5e-3 21.949 6e-3 4.549-7e-3 9.097-0.027 13.646-5e-3 2.112-2e-3 4.224 0.011 6.336 0.016 2.88 1e-3 5.758-0.021 8.638v4.887c-0.731 4.719-1.887 6.175-5.626 9.039-4.632 1.658-9.866 1.263-14.754 1.387-0.469 0.013-0.469 0.013-2.842 0.077-1.977 0.052-3.955 0.102-5.933 0.149-3.026 0.075-6.052 0.165-9.078 0.257-1.924 0.048-3.848 0.096-5.772 0.142-0.452 0.015-0.452 0.015-2.74 0.088-4.442 0.089-6.826-0.072-10.881-2.1-2.344-4.876-2.242-9.533-2.227-14.874 0-0.882 0-1.765-1e-3 -2.674 2e-3 -2.95 0.017-5.9 0.033-8.85 4e-3 -2.117 7e-3 -4.235 9e-3 -6.353 6e-3 -4.557 0.019-9.114 0.036-13.671 0.027-7.207 0.039-14.413 0.048-21.62 0.024-16.599 0.068-33.198 0.113-49.798 0.04-15.211 0.076-30.422 0.096-45.634 0.01-7.163 0.03-14.327 0.057-21.49 0.015-4.457 0.022-8.914 0.026-13.371 4e-3 -2.066 0.011-4.132 0.022-6.198 0.014-2.822 0.016-5.643 0.015-8.465 5e-3 -1.579 9e-3 -3.157 0.014-4.784-0.286-5.005-0.587-9.564-4.241-13.218-4.986-1.246-9.869-1.354-14.98-1.539-1.102-0.042-2.204-0.084-3.339-0.127-8.264-0.294-16.526-0.448-24.794-0.545-0.584-7e-3 -0.584-7e-3 -3.539-0.043-4.783-0.057-9.565-0.113-14.348-0.147-3.559-0.027-7.117-0.073-10.676-0.122-0.541-2e-3 -0.541-2e-3 -3.279-0.01-1-0.016-2-0.033-3.03-0.05-0.875-8e-3 -1.75-0.016-2.652-0.025-2.363-0.392-2.363-0.392-6.363-3.392-0.486-3.581-0.486-3.581-0.461-8.027 2e-3 -0.798 2e-3 -0.798 0.012-4.838 0.012-0.832 0.025-1.664 0.038-2.522 0.036-2.537 0.041-5.073 0.04-7.611 0.09-12.44 0.09-12.44 2.371-17.002 4.426-2.674 9.34-2.285 14.351-2.267z"/>
<path transform="translate(1152 429.38)" d="m0 0c1.711-0.025 3.423-0.022 5.134 2e-3 0.942-6e-3 1.885-0.013 2.856-0.019 3.171-0.016 6.342 5e-3 9.514 0.025 2.268-3e-3 4.536-9e-3 6.804-0.016 6.172-0.015 12.343 2e-3 18.514 0.026 6.451 0.02 12.901 0.014 19.352 0.012 10.836 0 21.672 0.02 32.509 0.052 12.535 0.037 25.069 0.045 37.604 0.038 12.046-6e-3 24.092 5e-3 36.139 0.024 5.131 8e-3 10.263 0.011 15.394 0.01 6.043-1e-3 12.085 0.013 18.128 0.039 2.22 7e-3 4.44 9e-3 6.66 6e-3 3.026-4e-3 6.052 0.011 9.078 0.03 0.883-5e-3 1.765-0.01 2.674-0.016 4.723 0.053 7.961 0.382 11.677 3.411 3.655 5.481 2.158 12.857 1.999 19.296-0.061 2.693-0.084 5.385-0.106 8.079-0.036 1.708-0.075 3.416-0.115 5.125-0.029 1.557-0.057 3.114-0.087 4.718-0.691 3.782-0.691 3.782-2.751 5.771-3.688 1.268-6.847 1.529-10.752 1.682-0.809 0.034-1.619 0.067-2.452 0.102-8.013 0.288-16.031 0.314-24.048 0.367-1.353 0.01-2.705 0.02-4.098 0.03-11.422 0.079-11.422 0.079-16.918 0.08-4.162 3e-3 -8.323 0.038-12.484 0.078-1.281-7e-3 -2.562-0.014-3.882-0.022-1.18 0.017-2.36 0.033-3.575 0.05-1.038 4e-3 -2.075 7e-3 -3.144 0.011-2.587 0.633-2.587 0.633-4.227 2.612-1.856 4.122-1.719 7.459-1.7 11.978-1e-3 0.903-1e-3 1.807-2e-3 2.737 2e-3 3.027 0.026 6.054 0.049 9.081 6e-3 2.17 0.01 4.34 0.014 6.51 9e-3 4.673 0.028 9.346 0.054 14.019 0.04 7.386 0.058 14.773 0.072 22.159 0.033 15.679 0.092 31.358 0.153 47.037 0.066 16.925 0.128 33.851 0.16 50.776 0.015 7.346 0.045 14.691 0.086 22.036 0.022 4.567 0.032 9.133 0.039 13.699 5e-3 2.12 0.016 4.24 0.032 6.36 0.022 2.89 0.025 5.78 0.024 8.671 3e-3 0.809 3e-3 0.809 0.02 4.905-0.358 4.027-0.669 6.057-3.361 9.053-3.827 0.545-7.218 0.769-11.054 0.777-1.094 0.02-2.188 0.04-3.315 0.06-2.315 0.037-4.63 0.063-6.945 0.077-3.541 0.023-7.079 0.083-10.619 0.15-2.249 0.032-4.498 0.061-6.746 0.088-1.059 0.016-2.117 0.033-3.208 0.05-0.991 4e-3 -1.982 8e-3 -3.003 0.012-0.868 7e-3 -1.736 0.014-2.631 0.022-3.944-0.376-6.675-1.432-9.479-4.236-0.185-2.953-0.242-5.81-0.213-8.763 0-0.459 0-0.459 3e-3 -2.783 6e-3 -3.096 0.026-6.192 0.047-9.288 7e-3 -2.212 0.013-4.424 0.018-6.637 0.013-4.772 0.032-9.545 0.056-14.318 0.036-7.541 0.056-15.082 0.072-22.624 0.048-21.447 0.12-42.894 0.209-64.341 0.049-11.837 0.084-23.675 0.103-35.513 0.013-7.503 0.045-15.005 0.089-22.507 0.023-4.661 0.03-9.322 0.032-13.983 4e-3 -2.168 0.016-4.336 0.034-6.503 0.024-2.951 0.024-5.9 0.018-8.851 0.013-0.866 0.026-1.731 0.039-2.623-0.02-2.389-0.02-2.389-0.507-6.266-4.715-3.537-6.47-3.4-12.246-3.477-0.821-0.015-0.821-0.015-4.978-0.094-1.738-0.019-3.476-0.037-5.213-0.054-3.374-0.049-6.748-0.106-10.121-0.164-1.629-0.028-3.258-0.055-4.936-0.083-3.755-0.107-7.45-0.327-11.189-0.664-9.084-0.795-18.207-0.402-27.313-0.162-1.375 0.018-2.751 0.035-4.168 0.053-0.621 0.014-0.621 0.014-3.764 0.083-0.507-0.072-0.507-0.072-3.072-0.438-3.556-4.742-3.446-6.701-3.617-12.528-0.025-0.826-0.05-1.652-0.076-2.503-0.049-1.743-0.09-3.488-0.125-5.232-0.057-2.663-0.145-5.323-0.236-7.985-0.044-1.698-0.086-3.395-0.125-5.092-0.039-1.541-0.077-3.081-0.117-4.668 0.44-5.926 1.028-8.635 7.259-9.616z"/>
</svg>
