<?xml version="1.0" encoding="UTF-8"?>
<svg version="1.1" viewBox="0 0 2744 1144" xmlns="http://www.w3.org/2000/svg">
<path transform="translate(1592.9 599.49)" d="m0 0c1.189-6e-3 2.379-0.012 3.604-0.019 1.348-0.016 2.696-0.031 4.086-0.048 0.729 3e-3 0.729 3e-3 4.422 0.015 1.496-6e-3 2.991-0.012 4.532-0.019 3.167-7e-3 6.333-3e-3 9.5 9e-3 4.855 0.014 9.709-0.02 14.564-0.058 3.072-1e-3 6.144 1e-3 9.216 6e-3 0.729-7e-3 0.729-7e-3 4.417-0.04 1.351 0.012 2.703 0.025 4.095 0.038 0.595 0 0.595 0 3.606 2e-3 3.043 0.629 3.043 0.629 5.417 2.896 2.345 3.942 2.369 7.821 2.532 12.291 0.051 0.94 0.103 1.879 0.156 2.847 0.163 3.01 0.303 6.021 0.438 9.032 0.677 14.682 2.205 28.717 5.04 43.141 2.066 10.893 2.8 21.804 3.335 32.859 0.823 15.049 2.462 29.913 6.125 44.563 0.242 3.059 0.444 6.108 0.613 9.172 0.112 1.87 0.225 3.74 0.338 5.611 0.059 0.976 0.117 1.952 0.178 2.957 1.114 18.298 2.409 36.411 6.871 54.26 0.217 2.733 0.391 5.469 0.543 8.207 0.101 1.7 0.203 3.4 0.307 5.1 0.054 0.897 0.109 1.794 0.165 2.718 1.084 17.516 3 34.701 5.915 52.005 1.513 8.996 2.63 17.854 3.07 26.97h8c0.035-0.622 0.035-0.622 0.212-3.766 2.376-41.567 2.376-41.567 5.372-56.15 2.068-10.479 2.391-21.108 2.986-31.752 0.344-6.148 0.798-12.27 1.43-18.395 0.144-1.414 0.288-2.828 0.437-4.285 0.563-3.652 0.563-3.652 1.531-6.395 1.586-5.008 1.982-10.108 2.532-15.32 0.129-1.177 0.257-2.354 0.39-3.567 0.935-8.862 1.563-17.727 2.11-26.62 0.531-8.585 1.258-16.854 3.236-25.25 2.664-12.207 3.314-24.756 4.201-37.188 1.047-14.117 2.417-28.032 5.064-41.95 1.743-9.6 2.178-19.199 2.622-28.933 0.071-1.286 0.143-2.573 0.216-3.898 0.056-1.16 0.111-2.319 0.168-3.514 0.493-3.017 0.493-3.017 3.493-7.017 2.953-0.508 2.953-0.508 6.611-0.518 0.684-6e-3 0.684-6e-3 4.146-0.038 0.741 4e-3 0.741 4e-3 4.489 0.024 1.517-3e-3 3.035-7e-3 4.599-0.011 3.214-3e-3 6.428 4e-3 9.641 0.021 4.928 0.022 9.854 0 14.781-0.025 3.118 2e-3 6.236 8e-3 9.354 0.015 1.479-8e-3 2.958-0.016 4.482-0.024 1.372 0.012 2.743 0.025 4.156 0.038 1.208 3e-3 2.416 6e-3 3.66 0.01 3.806 0.627 4.752 1.474 7.081 4.508 0.501 3.103 0.501 3.103 0.503 6.84 0.01 1.424 0.021 2.847 0.032 4.314-9e-3 1.57-0.018 3.14-0.027 4.758 4e-3 1.68 0.011 3.36 0.018 5.04 0.017 4.626 9e-3 9.251-3e-3 13.877-0.01 4.985 4e-3 9.97 0.015 14.955 0.018 9.769 0.014 19.538 3e-3 29.307-9e-3 7.936-0.01 15.873-6e-3 23.809 0 1.129 1e-3 2.257 2e-3 3.419 1e-3 2.292 2e-3 4.583 4e-3 6.875 0.011 21.504-2e-3 43.007-0.024 64.511-0.017 18.466-0.014 36.933 4e-3 55.399 0.021 21.427 0.03 42.853 0.018 64.28-2e-3 2.283-3e-3 4.566-4e-3 6.849 0 0.561 0 0.561-2e-3 3.404-3e-3 7.931 2e-3 15.862 0.012 23.793 0.011 9.659 8e-3 19.319-0.013 28.978-0.011 4.932-0.015 9.864-2e-3 14.796 0.012 4.51 6e-3 9.019-0.016 13.529-6e-3 2.415 7e-3 4.83 0.021 7.246-6e-3 0.71-6e-3 0.71-0.032 4.306-1e-3 1.233-1e-3 2.467-2e-3 3.737-0.501 2.978-0.501 2.978-4.501 5.978-3.895 0.388-3.895 0.388-8.598 0.398-0.831 3e-3 -1.661 6e-3 -2.517 9e-3 -1.753 2e-3 -3.505-4e-3 -5.258-0.016-2.684-0.016-5.367 0-8.051 0.019-1.704-2e-3 -3.408-6e-3 -5.112-0.012-1.55-3e-3 -3.101-7e-3 -4.699-0.01-3.765-0.388-3.765-0.388-6.765-3.388-0.388-3.547-0.388-3.547-0.406-8.089-7e-3 -0.834-0.015-1.669-0.022-2.529-0.021-2.809-0.021-5.617-0.021-8.426-0.01-2.011-0.022-4.022-0.035-6.033-0.032-5.484-0.046-10.967-0.055-16.451-0.014-5.774-0.043-11.548-0.07-17.322-0.043-9.74-0.075-19.479-0.1-29.218-0.028-11.15-0.07-22.299-0.121-33.448-0.055-11.963-0.1-23.927-0.142-35.89-0.013-3.39-0.026-6.779-0.041-10.169-0.096-23.814-0.037-47.604 0.651-71.409 0.439-15.341 0.469-30.67 0.362-46.016l-7 1c-0.483 3.124-0.961 6.249-1.438 9.375-0.067 0.435-0.067 0.435-0.408 2.636-0.679 4.472-1.261 8.92-1.662 13.426-0.492 4.563-0.492 4.563-1.93 8.188-3.017 8.449-3.419 17.468-3.918 26.375-0.878 15.274-2.862 30.04-5.535 45.106-1.707 9.828-2.679 19.288-2.906 29.245-0.388 8.866-1.409 18.306-4.239 26.731-3.398 10.277-3.173 22.288-3.964 33.043-1.729 23.349-1.729 23.349-3.683 30.303-2.591 9.275-3.196 18.488-3.817 28.072-1.803 27.803-1.803 27.803-7.5 33.5-4.051 1.35-7.968 1.142-12.192 1.132-0.901 1e-3 -1.802 2e-3 -2.73 3e-3 -1.904 1e-3 -3.808-1e-3 -5.712-5e-3 -2.921-5e-3 -5.842 0-8.763 6e-3 -1.848 0-3.696-2e-3 -5.545-4e-3 -0.438 1e-3 -0.438 1e-3 -2.658 7e-3 -6.17-0.024-6.17-0.024-8.4-1.139-1.165-3.494-1.307-6.817-1.545-10.473-0.652-9.819-1.849-19.277-3.893-28.902-2.467-11.745-3.587-23.44-4.537-35.394-1.959-24.496-1.959-24.496-5.025-35.975-0.979-4.164-1.445-8.053-1.746-12.315-0.058-0.761-0.058-0.761-0.35-4.611-0.225-3.143-0.449-6.287-0.672-9.43-0.883-11.611-2.001-23.298-5.293-34.512-0.892-3.217-1.298-6.058-1.502-9.381-0.073-1.108-0.147-2.217-0.222-3.359-0.071-1.163-0.142-2.326-0.215-3.523-1.105-16.246-3.046-32.106-6-48.125-0.817-4.434-1.242-8.777-1.5-13.278-0.083-1.402-0.165-2.803-0.25-4.248-0.083-1.456-0.165-2.912-0.25-4.412-0.167-2.863-0.333-5.726-0.5-8.59-0.082-1.398-0.163-2.797-0.246-4.237-0.385-6.414-0.815-12.825-1.254-19.235h-7c-0.733 7.525-1.265 15.019-1.56 22.574-0.021 0.54-0.021 0.54-0.128 3.275-0.43 11.99-0.415 23.97-0.362 35.966 6e-3 2.47 0.013 4.94 0.019 7.411 0.013 5.259 0.029 10.519 0.047 15.779 0.028 8.316 0.045 16.632 0.06 24.948l0.015 8.577c3e-3 1.43 5e-3 2.86 8e-3 4.333 0.036 19.323 0.082 38.646 0.147 57.969 0.045 13.094 0.075 26.187 0.089 39.281 8e-3 6.915 0.024 13.829 0.057 20.744 0.031 6.48 0.043 12.96 0.042 19.441 2e-3 2.38 0.012 4.76 0.029 7.14 0.022 3.24 0.02 6.48 0.011 9.72 0.012 0.948 0.025 1.896 0.037 2.872-0.032 3.831-0.088 6.368-2.328 9.553-3.222 2.09-5.804 1.918-9.617 1.913-1.453 0-2.907 1e-3 -4.404 2e-3 -1.518-0.02-3.036-0.04-4.6-0.061-1.514 7e-3 -3.028 0.014-4.588 0.022-12.546-0.073-12.546-0.073-16.974-3.459-1.439-2.877-1.129-5.343-1.132-8.56-4e-3 -1.413-8e-3 -2.825-0.011-4.28 0-1.567 1e-3 -3.135 2e-3 -4.749-2e-3 -1.67-5e-3 -3.339-9e-3 -5.009-8e-3 -4.605-0.01-9.21-0.01-13.816-2e-3 -4.96-0.01-9.919-0.017-14.879-0.013-10.853-0.019-21.707-0.024-32.56-2e-3 -6.771-7e-3 -13.543-0.011-20.315-0.012-18.735-0.023-37.47-0.026-56.206 0-1.199 0-2.399-1e-3 -3.635v-3.645c-1e-3 -2.437-1e-3 -4.875-2e-3 -7.312v-3.664c-4e-3 -19.6-0.022-39.201-0.045-58.801-0.024-20.105-0.036-40.211-0.037-60.316-1e-3 -11.296-7e-3 -22.591-0.025-33.887-0.016-9.617-0.021-19.233-0.012-28.85 4e-3 -4.91 3e-3 -9.82-0.011-14.729-0.013-4.491-0.012-8.981 0-13.472 3e-3 -2.403-9e-3 -4.805-0.021-7.208 6e-3 -1.418 0.013-2.835 0.02-4.296-1e-3 -0.614-1e-3 -0.614-2e-3 -3.72 0.527-4.359 1.796-6.813 6.289-7.606z"/>
<path transform="translate(725.12 58.624)" d="m0 0c0.903-4e-3 1.805-8e-3 2.735-0.013 3.035-0.01 6.069 1e-3 9.104 0.012 2.203-4e-3 4.405-8e-3 6.608-0.014 6.084-0.011 12.168-4e-3 18.252 6e-3 6.608 7e-3 13.215-3e-3 19.822-0.01 11.591-0.011 23.181-0.011 34.771-3e-3 17.235 0.011 34.47 6e-3 51.704-4e-3 28.991-0.014 57.981-0.015 86.972-7e-3 0.441 0 0.441 0 2.676 1e-3 0.443 0 0.443 0 2.681 1e-3 26.931 7e-3 53.863 9e-3 80.795 6e-3 1.802-1e-3 3.604-1e-3 5.407-1e-3 7.242-1e-3 14.484-2e-3 21.727-3e-3 20.246-3e-3 40.492-4e-3 60.738-5e-3h2.794c29.387-2e-3 58.773 2e-3 88.16 8e-3 0.477 0 0.477 0 2.889 1e-3 15.483 3e-3 30.965 7e-3 46.448 0.011 61.412 0.014 122.82 0.014 184.24-1e-3 15.476-4e-3 30.952-7e-3 46.428-0.011h2.887c29.357-7e-3 58.713-0.01 88.069-8e-3h2.792c20.223 1e-3 40.446 3e-3 60.669 5e-3 7.236 1e-3 14.471 2e-3 21.707 3e-3 1.8 0 3.6 1e-3 5.4 1e-3 26.927 4e-3 53.853 0 80.779-7e-3 0.442 0 0.442 0 2.677-1e-3 0.882 0 1.763 0 2.672-1e-3 29.708-8e-3 59.415-5e-3 89.123 0.011 17.14 9e-3 34.28 9e-3 51.42-2e-3 11.432-7e-3 22.864-3e-3 34.297 0.011 6.524 7e-3 13.049 9e-3 19.573-2e-3 5.928-9e-3 11.855-5e-3 17.782 0.01 2.139 3e-3 4.278 1e-3 6.417-7e-3 2.891-9e-3 5.782 0 8.673 0.013 1.605 0 3.209 0 4.863 1e-3 4.181 0.379 6.618 1.133 10.133 3.375 4.058 5.356 3.515 11.629 3.5 18.063 0.028 1.075 0.057 2.151 0.086 3.259 2e-3 1.04 5e-3 2.08 8e-3 3.151 7e-3 0.941 0.014 1.882 0.021 2.852-0.893 3.883-2.495 5.223-5.615 7.675-4.031 0.627-4.031 0.627-8.925 0.631-0.906 7e-3 -1.812 0.015-2.745 0.023-3.058 0.019-6.114 2e-3 -9.172-0.015-2.214 7e-3 -4.429 0.015-6.643 0.026-6.126 0.022-12.251 0.013-18.377 0-6.649-9e-3 -13.298 0.01-19.946 0.026-11.667 0.024-23.333 0.03-34.999 0.023-17.348-0.01-34.696 8e-3 -52.044 0.033-29.18 0.04-58.359 0.056-87.539 0.059-28.906 2e-3 -57.812 0.013-86.718 0.037-1.814 2e-3 -3.627 3e-3 -5.441 5e-3 -7.288 6e-3 -14.577 0.012-21.865 0.018-20.376 0.017-40.751 0.033-61.126 0.047-0.928 1e-3 -1.856 1e-3 -2.812 2e-3 -29.578 0.021-59.155 0.034-88.732 0.042-0.96 1e-3 -1.919 1e-3 -2.908 1e-3 -15.584 4e-3 -31.169 8e-3 -46.753 0.012-61.814 0.015-123.63 0.05-185.44 0.104-1.953 1e-3 -3.907 3e-3 -5.861 5e-3 -2.928 2e-3 -5.856 5e-3 -8.783 8e-3l-32.085 0.027c-0.959 1e-3 -1.918 2e-3 -2.907 3e-3 -51.747 0.044-103.5 0.075-155.24 0.1-1.824 1e-3 -3.648 1e-3 -5.472 2e-3 -0.901 1e-3 -1.803 1e-3 -2.732 2e-3 -1.819 0-3.638 1e-3 -5.457 2e-3 -4.531 2e-3 -9.063 5e-3 -13.594 7e-3 -19.879 9e-3 -39.758 0.021-59.637 0.037-0.896 1e-3 -1.793 1e-3 -2.717 2e-3 -4.514 4e-3 -9.028 8e-3 -13.542 0.011-32.597 0.027-65.193 0.045-97.789 0.044-17.254 0-34.507 9e-3 -51.76 0.029-11.507 0.013-23.014 0.014-34.521 7e-3 -6.568-4e-3 -13.136-3e-3 -19.704 0.011-5.965 0.013-11.931 0.012-17.896 0-2.154-2e-3 -4.308 1e-3 -6.462 9e-3 -2.909 0.011-5.817 4e-3 -8.726-8e-3 -0.808 0-0.808 0-4.895 2e-3 -3.992-0.37-5.933-0.899-9.03-3.374-2.157-4.314-1.23-10.074-1.25-14.812-0.021-1.19-0.041-2.379-0.063-3.604-2e-3 -0.574-2e-3 -0.574-0.015-3.478-0.01-1.051-0.019-2.101-0.029-3.183 0.428-3.504 1.096-5.203 3.357-7.923 5.506-2.926 9.93-3.375 16.121-3.376z"/>
<path transform="translate(717.67 1069.9)" d="m0 0c0.451-0 0.451-0 2.733-3e-3 3.057-1e-3 6.114 5e-3 9.17 0.01h6.629c6.12 0 12.241 6e-3 18.361 0.013 6.64 7e-3 13.28 8e-3 19.92 0.01 11.654 4e-3 23.308 0.011 34.962 0.021 17.329 0.015 34.658 0.025 51.987 0.033 32.744 0.015 65.488 0.038 98.232 0.063 3.614 2e-3 7.228 5e-3 10.841 8e-3 0.897 0 1.794 1e-3 2.718 2e-3 19.853 0.015 39.706 0.028 59.56 0.041 8.17 5e-3 16.34 0.01 24.51 0.016 0.902 0 1.805 1e-3 2.735 1e-3 51.739 0.034 103.48 0.07 155.22 0.11 1.937 2e-3 3.874 4e-3 5.811 5e-3 8.746 7e-3 17.491 0.014 26.237 0.021 3.9 3e-3 7.801 6e-3 11.701 9e-3 1.952 1e-3 3.904 3e-3 5.856 4e-3 61.745 0.049 123.49 0.089 185.24 0.123 15.559 9e-3 31.118 0.017 46.677 0.026 0.958 0 1.916 1e-3 2.903 1e-3 29.51 0.017 59.019 0.036 88.529 0.058 0.463 0 0.463 0 2.807 2e-3 20.326 0.015 40.651 0.03 60.977 0.046 7.273 6e-3 14.545 0.011 21.818 0.017 1.809 2e-3 3.618 3e-3 5.428 4e-3 28.865 0.023 57.731 0.039 86.597 0.053 29.868 0.014 59.736 0.036 89.603 0.066 17.236 0.017 34.472 0.028 51.708 0.032 11.493 3e-3 22.986 0.013 34.479 0.029 6.561 9e-3 13.123 0.015 19.685 0.012 5.957-3e-3 11.914 3e-3 17.872 0.017 2.153 4e-3 4.306 4e-3 6.459 0 2.903-4e-3 5.806 3e-3 8.709 0.014 1.614 1e-3 3.228 2e-3 4.89 4e-3 3.777 0.252 3.777 0.252 6.777 2.252 1.66 4.982 1.184 10.159 1.187 15.375 0.012 1.137 0.025 2.274 0.037 3.445 1e-3 0.55 1e-3 0.55 6e-3 3.329 4e-3 1.002 8e-3 2.004 0.013 3.036-0.355 4.114-1.313 6.885-4.243 9.815-2.847 0.194-5.702 0.248-8.555 0.247-0.902 2e-3 -1.805 4e-3 -2.734 7e-3 -3.063 5e-3 -6.126-4e-3 -9.189-0.012-2.212 1e-3 -4.423 3e-3 -6.635 5e-3 -6.132 5e-3 -12.263-3e-3 -18.394-0.013-6.651-8e-3 -13.301-5e-3 -19.951-3e-3 -11.673 1e-3 -23.346-5e-3 -35.019-0.016-17.358-0.016-34.715-0.022-52.073-0.024-32.798-6e-3 -65.596-0.026-98.395-0.05-3.619-3e-3 -7.239-6e-3 -10.859-8e-3 -0.899-1e-3 -1.797-2e-3 -2.722-2e-3 -19.886-0.015-39.773-0.026-59.659-0.036-8.183-4e-3 -16.365-9e-3 -24.548-0.013-0.904-1e-3 -1.808-1e-3 -2.74-2e-3 -51.823-0.027-103.65-0.059-155.47-0.1-1.941-1e-3 -3.881-3e-3 -5.821-4e-3 -8.761-7e-3 -17.522-0.014-26.282-0.021l-11.721-9e-3c-1.955-2e-3 -3.91-3e-3 -5.866-5e-3 -61.847-0.049-123.7-0.082-185.54-0.102-15.584-5e-3 -31.168-0.01-46.752-0.016-0.96 0-1.919 0-2.908-1e-3 -29.557-0.01-59.115-0.025-88.672-0.046-0.464 0-0.464 0-2.811-2e-3 -20.359-0.014-40.718-0.029-61.077-0.045-7.284-6e-3 -14.568-0.012-21.853-0.017-1.812-2e-3 -3.624-3e-3 -5.436-4e-3 -28.913-0.023-57.827-0.034-86.74-0.039-29.918-5e-3 -59.835-0.025-89.753-0.062-17.265-0.021-34.53-0.03-51.794-0.024-11.513 3e-3 -23.025-8e-3 -34.537-0.032-6.572-0.013-13.145-0.019-19.718-8e-3 -5.967 0.01-11.934 2e-3 -17.902-0.022-2.157-5e-3 -4.313-3e-3 -6.47 6e-3 -2.908 0.011-5.816-2e-3 -8.724-0.021-1.616-1e-3 -3.233-3e-3 -4.898-4e-3 -0.624-0.083-0.624-0.083-3.782-0.502-4.074-5.432-3.664-9.697-3.875-16.312-0.06-1.116-0.119-2.232-0.18-3.381-0.232-6.112-0.245-10.916 3.055-16.307 3.984-1.328 7.456-1.122 11.666-1.12z"/>
<path transform="translate(1292.6 599.58)" d="m0 0c0.528 2e-3 0.528 2e-3 3.197 0.014 0.557-4e-3 0.557-4e-3 3.371-0.021 3.689-0.019 7.377-0.015 11.066-9e-3 2.559-4e-3 5.119-0.01 7.679-0.016 5.371-9e-3 10.741-6e-3 16.112 4e-3 6.884 0.011 13.767-9e-3 20.651-0.038 5.288-0.019 10.577-0.018 15.866-0.013 2.538 1e-3 5.075-6e-3 7.613-0.018 3.55-0.015 7.1-4e-3 10.65 0.013 0.525-5e-3 0.525-5e-3 3.179-0.029 5.851 0.059 9.419 0.521 14.011 4.531 1.379 1.629 2.713 3.297 4 5 0.392 0.381 0.392 0.381 2.375 2.312 2.638 2.701 4.792 5.591 7.012 8.637 1.642 2.087 3.393 3.894 5.301 5.738 9.261 9.261 7.464 21.282 7.473 33.657 5e-3 1.512 0.01 3.024 0.016 4.581 0.012 4.12 0.019 8.239 0.024 12.359 2e-3 2.577 7e-3 5.155 0.011 7.732 0.014 8.076 0.023 16.152 0.027 24.228 5e-3 9.303 0.022 18.605 0.051 27.908 0.022 7.209 0.032 14.418 0.033 21.627 1e-3 4.298 7e-3 8.597 0.025 12.896 0.02 4.789 0.015 9.579 9e-3 14.368 9e-3 1.418 0.018 2.836 0.028 4.297-0.037 8.73-0.491 14.482-6.572 21.16-3.835 3.614-7.831 7.049-11.813 10.5l-3 3h-2c-0.495 1.278-0.99 2.557-1.5 3.875-0.278 0.719-0.557 1.438-0.843 2.179-1.87 8.391-0.392 17.492 0.531 25.946 0.131 1.2 0.262 2.399 0.397 3.636 0.958 8.072 2.73 15.461 5.158 23.223 2.292 8.343 2.87 17.129 3.738 25.712 0.764 7.089 1.952 13.11 4.607 19.714 1.717 5.11 1.922 10.432 2.35 15.777 0.745 7.919 1.681 15.311 4.062 22.938 2.743 8.805 3.668 17.554 4.512 26.701 0.437 4.668 0.871 8.898 2.195 13.412 0.262 0.953 0.524 1.905 0.793 2.887-2 3-2 3-5 4-5.535 0.278-11.073 0.313-16.614 0.35-1.837 0.016-3.674 0.044-5.511 0.082-2.654 0.055-5.306 0.076-7.961 0.091-1.588 0.02-3.177 0.04-4.814 0.06-4.1-0.583-4.1-0.583-7.08-2.665-2.443-3.53-2.852-5.871-3.242-10.133-0.147-1.41-0.293-2.819-0.444-4.272-0.131-1.469-0.261-2.937-0.396-4.451-0.897-9.547-2.156-18.318-4.99-27.482-2.15-8.123-2.564-16.606-3.37-24.947-0.709-6.763-1.567-13.115-3.578-19.622-2.887-9.354-3.5-18.935-4.422-28.642-0.776-7.452-1.866-13.87-4.69-20.806-1.557-4.498-1.704-9.091-1.95-13.813-0.671-12.094-0.671-12.094-3.938-17.75-5.713-2.644-10.739-3.616-17-3-3.312 1.349-5.479 2.479-8 5-0.247 2.877-0.247 2.877-0.244 6.636-2e-3 0.71-2e-3 0.71-0.012 4.304 5e-3 1.569 0.011 3.137 0.017 4.753-3e-3 2.523-6e-3 5.046-0.01 7.57-2e-3 2.718 1e-3 5.436 6e-3 8.155 7e-3 5.659-4e-3 11.318-0.018 16.977-0.037 16.095-0.056 32.189-0.044 48.284 6e-3 8.884-5e-3 17.769-0.037 26.653-0.018 5.629-0.015 11.258 5e-3 16.887 8e-3 4.32-0.016 8.639-0.035 12.958 6e-3 0.783 6e-3 0.783 0.036 4.747-0.013 1.423-0.025 2.846-0.038 4.312v3.761c-0.626 3.003-0.626 3.003-2.904 4.9-3.98 1.612-7.537 1.511-11.819 1.536-0.872 6e-3 -1.743 0.011-2.641 0.016-1.836 7e-3 -3.673 5e-3 -5.509-3e-3 -2.81-9e-3 -5.617 0.02-8.426 0.052-1.788 1e-3 -3.575 1e-3 -5.362-2e-3 -1.623 2e-3 -3.246 3e-3 -4.918 5e-3 -4.047-0.501-4.047-0.501-6.268-2.105-2.388-3.217-2.279-5.247-2.279-9.236-0.01-1.424-0.02-2.848-0.03-4.315 0.01-1.57 0.019-3.14 0.029-4.757-4e-3 -1.681-9e-3 -3.361-0.017-5.041-0.014-4.625-4e-3 -9.251 0.01-13.877 0.011-4.985-1e-3 -9.97-0.01-14.955-0.014-9.769-6e-3 -19.537 9e-3 -29.306 0.017-11.368 0.014-22.736 0.01-34.104-6e-3 -20.277 8e-3 -40.554 0.033-60.831 0.024-19.693 0.031-39.386 0.02-59.079-0.011-21.426-0.013-42.853 1e-3 -64.279 2e-3 -2.283 3e-3 -4.566 5e-3 -6.849 1e-3 -1.124 1e-3 -2.247 2e-3 -3.405 5e-3 -7.931 3e-3 -15.862-1e-3 -23.793-5e-3 -9.659 1e-3 -19.319 0.021-28.978 0.01-4.932 0.015-9.864 7e-3 -14.796-7e-3 -4.509 0-9.019 0.017-13.528 6e-3 -2.416-2e-3 -4.831-0.012-7.246 9e-3 -1.422 0.017-2.843 0.026-4.307 1e-3 -1.233 2e-3 -2.466 3e-3 -3.737 0.847-6.689 5.272-6.336 10.982-6.395zm40.395 41.418c-2.013 4.026-2.255 5.604-2.274 9.952-0.01 1.218-0.02 2.436-0.03 3.692-1e-3 1.333-1e-3 2.667-2e-3 4.041-8e-3 1.407-0.017 2.814-0.025 4.263-0.024 4.662-0.033 9.323-0.04 13.985-9e-3 3.234-0.018 6.467-0.027 9.7-0.017 6.782-0.024 13.563-0.027 20.344-4e-3 7.838-0.034 15.676-0.076 23.514-0.038 7.541-0.05 15.082-0.051 22.624-4e-3 3.208-0.017 6.417-0.037 9.625-0.027 4.482-0.023 8.963-0.01 13.445-0.015 1.332-0.03 2.663-0.045 4.035 0.072 8.953 0.072 8.953 2.932 13.081 5.678 3.556 11.871 2.917 18.337 2.949 0.522 0.01 0.522 0.01 3.16 0.062 7 0.035 12.658-0.796 19.215-3.312 3.375-3.5 3.375-3.5 6-7l4-3c0.431-3.803 0.605-7.323 0.61-11.133 8e-3 -0.576 8e-3 -0.576 0.05-3.491 0.05-3.834 0.071-7.667 0.09-11.501 0.026-2.67 0.053-5.34 0.081-8.009 0.069-7.133 0.109-14.265 0.144-21.398 0.026-4.516 0.063-9.032 0.103-13.547 0.067-7.453 0.116-14.905 0.15-22.358 0.015-2.867 0.034-5.733 0.057-8.599 0.03-4.025 0.039-8.049 0.043-12.074 0.013-1.19 0.025-2.38 0.038-3.606-0.024-8.795-1.35-15.539-7.366-22.284-0.701-0.908-1.402-1.815-2.125-2.75-1.875-2.25-1.875-2.25-3.875-3.25-5.787-0.249-11.582-0.186-17.375-0.188-1.626-0.012-3.253-0.024-4.929-0.037-1.558-2e-3 -3.115-4e-3 -4.719-6e-3 -1.433-4e-3 -2.865-8e-3 -4.341-0.012-3.636 0.243-3.636 0.243-7.636 2.243z"/>
<path transform="translate(723,600)" d="m0 0c3.657-0.417 7.016-0.577 10.678-0.565 0.55-6e-3 0.55-6e-3 3.332-0.036 3.647-0.033 7.293-0.036 10.939-0.036 2.533-0.01 5.065-0.021 7.598-0.033 5.315-0.019 10.63-0.023 15.946-0.016 6.805 6e-3 13.609-0.038 20.414-0.096 5.234-0.037 10.468-0.042 15.702-0.038 2.508-3e-3 5.016-0.017 7.525-0.042 3.514-0.032 7.026-0.02 10.541 4e-3 0.516-0.01 0.516-0.01 3.128-0.057 6.532 0.104 9.919 1.466 14.595 6.066 2.418 2.791 4.467 5.838 6.602 8.849 1.114 0.949 2.227 1.898 3.375 2.875 4.231 3.648 7.357 7.626 10.625 12.125 0.849 0.889 1.698 1.777 2.572 2.693 3.631 6.441 3.109 12.388 3.043 19.662 6e-3 1.549 0.011 3.098 0.017 4.693 0.01 4.236-3e-3 8.471-0.026 12.707-0.02 4.44-0.014 8.881-0.012 13.322 0 7.457-0.02 14.914-0.052 22.371-0.037 8.61-0.046 17.219-0.039 25.829 7e-3 8.296-4e-3 16.592-0.024 24.887-8e-3 3.525-0.011 7.049-9e-3 10.573 1e-3 4.926-0.023 9.852-0.05 14.778 3e-3 1.457 6e-3 2.913 9e-3 4.414-0.094 11.093-1.545 18.019-9.429 26.071h-2l-2 4c-3.996 6.338-8.634 11.783-14 17-1.713 1.713-1.208 3.882-1.242 6.223 0.06 7.011 1.478 13.426 3.117 20.215 1.969 8.57 3.578 16.911 4.187 25.687 0.45 6.339 1.414 12.102 3.313 18.187 3.013 9.834 4.054 19.784 5.105 29.994 0.698 6.423 1.606 12.422 3.516 18.604 2.874 9.386 3.502 18.987 4.426 28.721 0.78 7.491 1.782 14.192 4.688 21.169 1.24 3.065 1.756 5.906 1.89 9.2l-2 4c-3.206 0.411-6.067 0.56-9.277 0.531-0.923 4e-3 -1.845 8e-3 -2.795 0.012-1.953 3e-3 -3.906-5e-3 -5.858-0.022-2.993-0.021-5.982 0-8.974 0.026-1.895-3e-3 -3.791-8e-3 -5.686-0.016-0.897 8e-3 -1.794 0.016-2.718 0.025-2.528-0.038-2.528-0.038-6.692-0.556-3.251-4.335-3.642-6.377-4.438-11.625-0.995-6.175-2.182-12.227-3.624-18.313-1.735-7.587-2.68-15.074-3.446-22.812-0.839-7.244-2.523-14.27-4.246-21.348-1.803-7.767-2.816-15.487-3.684-23.402-0.875-7.942-2.132-15.212-4.601-22.832-1.255-4.791-1.777-9.567-2.336-14.48-1.027-8.728-2.524-17.249-4.5-25.813-0.233-1.061-0.465-2.121-0.705-3.214-2.395-9.953-2.395-9.953-7.42-13.161-3.848-0.41-3.848-0.41-8.062-0.062-1.394 0.091-2.787 0.183-4.223 0.277-4.149 0.877-5.205 1.464-7.715 4.785-0.499 3.123-0.499 3.123-0.499 6.877-9e-3 1.423-0.019 2.846-0.029 4.312 0.01 1.561 0.02 3.123 0.03 4.731-6e-3 1.644-0.011 3.288-0.017 4.982-0.012 3.576-0.011 7.152-1e-3 10.727 0.015 5.651 1e-3 11.302-0.016 16.953-0.031 10.973-0.033 21.946-0.031 32.919 2e-3 13.971-9e-3 27.942-0.048 41.913-0.015 5.621-0.015 11.241-3e-3 16.862 4e-3 2.652 1e-3 5.304-6e-3 7.956-7e-3 3.238-4e-3 6.476 0.012 9.714-6e-3 1.421-0.013 2.841-0.02 4.304 0 0.619 0 0.619 2e-3 3.753-0.374 2.997-0.374 2.997-3.374 5.997-3.119 0.323-6.034 0.468-9.156 0.469-0.45 4e-3 -0.45 4e-3 -2.724 0.023-1.899 0.011-3.799 0.013-5.699 9e-3 -2.911-1e-3 -5.819 0.041-8.73 0.085-1.845 5e-3 -3.69 8e-3 -5.535 8e-3 -0.872 0.016-1.744 0.033-2.642 0.049-2.457-0.028-2.457-0.028-6.514-0.643-3.162-3.848-3.376-7.053-3.378-11.929-7e-3 -1.418-0.015-2.837-0.023-4.298 6e-3 -1.558 0.013-3.117 0.02-4.723-3e-3 -1.672-8e-3 -3.344-0.014-5.016-0.013-4.598-6e-3 -9.197 3e-3 -13.796 7e-3 -4.957-4e-3 -9.915-0.012-14.873-0.013-9.714-0.011-19.427-2e-3 -29.141 7e-3 -7.892 8e-3 -15.784 5e-3 -23.676-1e-3 -1.123-1e-3 -2.245-2e-3 -3.401-1e-3 -2.279-2e-3 -4.559-3e-3 -6.838-8e-3 -21.387 2e-3 -42.773 0.018-64.16 0.013-18.362 0.011-36.725-3e-3 -55.087-0.016-21.31-0.022-42.62-0.013-63.931 1e-3 -2.271 2e-3 -4.542 3e-3 -6.812 0-1.118 0-2.235 1e-3 -3.387 3e-3 -7.886-2e-3 -15.772-9e-3 -23.658-8e-3 -9.605-6e-3 -19.211 0.01-28.816 8e-3 -4.904 0.011-9.808 1e-3 -14.711-9e-3 -4.485-4e-3 -8.97 0.012-13.455 5e-3 -2.4-5e-3 -4.799-0.015-7.199 8e-3 -1.416 0.015-2.831 0.023-4.29 1e-3 -1.226 1e-3 -2.452 2e-3 -3.715 0.376-3.088 0.376-3.088 3.376-7.088zm45 41c-1.07 3.21-1.136 5.532-1.154 8.908-9e-3 1.234-0.017 2.467-0.026 3.739-4e-3 1.355-8e-3 2.711-0.013 4.108-8e-3 1.427-0.016 2.853-0.025 4.322-0.025 4.732-0.041 9.464-0.055 14.196-6e-3 1.613-0.011 3.226-0.017 4.888-0.021 6.775-0.04 13.55-0.051 20.326-0.016 9.711-0.05 19.421-0.107 29.132-0.043 7.651-0.059 15.302-0.065 22.953-7e-3 3.256-0.022 6.511-0.046 9.767-0.032 4.549-0.032 9.098-0.024 13.647-0.017 1.352-0.033 2.704-0.05 4.096 0.061 9.097 0.061 9.097 2.958 13.254 3.477 2.163 5.797 2.295 9.882 2.293 1.392 2e-3 2.783 4e-3 4.217 6e-3 1.448-0.024 2.896-0.048 4.388-0.073 1.437 0.011 2.874 0.022 4.354 0.034 7.672-0.053 13.413-0.223 19.834-4.596 5.7-6.064 6.134-9.509 6.062-17.598-8e-3 -2.005-0.017-4.01-0.025-6.015-6e-3 -1.052-0.012-2.105-0.019-3.19-0.03-5.444-0.041-10.889-0.049-16.334-4e-3 -0.998-8e-3 -1.997-0.013-3.026-0.014-8.058 0.292-16.085 0.688-24.132 0.51-10.511 0.504-21.037 0.533-31.558 7e-3 -2.194 0.017-4.389 0.031-6.583 0.196-33.56 0.196-33.56-6.208-41.564-4.847-3.06-8.681-3.375-14.355-3.363-1.592 0-3.183 1e-3 -4.823 2e-3 -0.822 8e-3 -1.644 0.016-2.491 0.025-2.521 0.024-5.042 0.02-7.563 0.014-12.367 0.055-12.367 0.055-15.768 2.322z"/>
<path transform="translate(1094,600)" d="m0 0c3.579-0.401 6.852-0.546 10.435-0.518 1.073-7e-3 2.147-0.014 3.253-0.021 3.558-0.017 7.116-6e-3 10.675 8e-3 2.47-3e-3 4.94-7e-3 7.41-0.012 5.183-6e-3 10.365 3e-3 15.548 0.022 6.642 0.022 13.282 9e-3 19.924-0.015 5.103-0.014 10.207-0.01 15.31 1e-3 2.449 2e-3 4.897-1e-3 7.346-0.01 3.425-0.01 6.85 5e-3 10.276 0.027 1.012-8e-3 2.023-0.016 3.066-0.024 7.417 0.089 10.995 1.881 16.214 6.909 0.777 0.828 1.555 1.655 2.355 2.508 3.143 3.241 6.054 5.832 9.938 8.125 5.199 3.211 7.471 7.706 10.25 13l2 3c1.103 4.022 1.131 7.898 1.14 12.053 6e-3 1.437 0.012 2.874 0.018 4.354 0 0.786 0 0.786 3e-3 4.763 5e-3 1.675 0.01 3.351 0.015 5.027 0.013 4.547 0.02 9.095 0.024 13.642 3e-3 2.842 7e-3 5.683 0.012 8.525 0.013 8.892 0.023 17.784 0.027 26.676 4e-3 10.263 0.022 20.525 0.051 30.787 0.022 7.936 0.032 15.872 0.033 23.807 1e-3 4.739 7e-3 9.477 0.025 14.216 0.016 4.456 0.018 8.912 0.01 13.368-2e-3 2.413 0.012 4.826 0.026 7.239-2e-3 0.72-2e-3 0.72-0.017 4.363 2e-3 1.249 3e-3 2.498 5e-3 3.785-0.414 3.78-1.335 6.196-3.372 9.395-0.99 0.33-1.98 0.66-3 1l-2 4-5 5c-0.99 1.32-1.98 2.64-3 4-2.519 3.359-5.012 6.085-8 9-1.837 2.093-3.649 4.204-5.449 6.328-2.049 2.209-3.062 2.643-6.08 2.823-0.534 7e-3 -0.534 7e-3 -3.234 0.038-1.208 0.017-2.417 0.034-3.661 0.051-1.312 0.014-2.623 0.027-3.974 0.041-1.342 0.019-2.684 0.037-4.066 0.056-4.304 0.059-8.607 0.112-12.911 0.163-5.654 0.068-11.307 0.141-16.961 0.219-1.307 0.013-2.615 0.027-3.962 0.041-0.607 8e-3 -0.607 8e-3 -3.68 0.051-1.069 0.012-2.138 0.025-3.239 0.038-2.783 0.151-2.783 0.151-6.783 1.151-0.939 3.758-1.125 6.614-1.125 10.459-2e-3 1.331-5e-3 2.661-7e-3 4.032 2e-3 1.459 4e-3 2.917 6e-3 4.419-2e-3 1.537-4e-3 3.074-6e-3 4.657-4e-3 3.342-6e-3 6.684-6e-3 10.025-1e-3 5.282-0.014 10.563-0.03 15.844-2e-3 0.891-5e-3 1.783-7e-3 2.701-6e-3 1.822-0.011 3.644-0.016 5.466-0.035 12.295-0.062 24.59-0.059 36.886 1e-3 8.295-0.015 16.589-0.051 24.884-0.019 4.391-0.028 8.781-0.016 13.171 0.014 4.892-0.011 9.783-0.039 14.675 0.01 1.46 0.02 2.921 0.03 4.425-0.013 1.328-0.027 2.656-0.041 4.024-2e-3 1.157-3e-3 2.314-5e-3 3.506-0.628 2.826-0.628 2.826-2.925 4.697-3.78 1.578-7.021 1.518-11.109 1.527-1.631 4e-3 -3.262 8e-3 -4.942 0.012-0.845-6e-3 -1.691-0.012-2.563-0.019-2.581-0.016-5.16 0-7.741 0.019-1.631-4e-3 -3.262-8e-3 -4.942-0.012-1.492-3e-3 -2.984-6e-3 -4.521-0.01-3.906-0.39-5.831-0.989-8.885-3.388-1.439-2.877-1.128-5.343-1.131-8.56-4e-3 -1.412-8e-3 -2.825-0.012-4.28 1e-3 -1.567 2e-3 -3.134 3e-3 -4.749-3e-3 -1.669-6e-3 -3.339-9e-3 -5.008-9e-3 -4.606-0.01-9.211-0.011-13.816-2e-3 -4.96-9e-3 -9.92-0.016-14.88-0.014-10.853-0.02-21.706-0.024-32.559-3e-3 -6.772-7e-3 -13.544-0.012-20.316-0.012-18.735-0.022-37.47-0.026-56.205v-3.636c0-1.203-1e-3 -2.406-1e-3 -3.645 0-2.437-1e-3 -4.874-1e-3 -7.312 0-1.209-1e-3 -2.418-1e-3 -3.664-4e-3 -19.6-0.021-39.2-0.045-58.801-0.023-20.105-0.036-40.21-0.037-60.316-1e-3 -11.295-7e-3 -22.591-0.025-33.887-0.015-9.617-0.02-19.233-0.012-28.85 4e-3 -4.91 3e-3 -9.819-0.011-14.729-0.013-4.491-0.012-8.981 1e-3 -13.472 2e-3 -2.402-0.01-4.805-0.022-7.208 7e-3 -1.417 0.013-2.835 0.02-4.295 0-0.614 0-0.614-2e-3 -3.721 0.374-3.091 0.374-3.091 3.374-7.091zm47 41c-2.048 4.096-2.256 5.788-2.274 10.236-0.01 1.281-0.02 2.562-0.03 3.882-1e-3 1.404-2e-3 2.808-2e-3 4.254-9e-3 1.48-0.017 2.96-0.026 4.485-0.02 4.06-0.03 8.12-0.035 12.18-4e-3 2.538-0.01 5.077-0.017 7.615-0.025 8.86-0.038 17.719-0.042 26.579-3e-3 8.25-0.033 16.5-0.075 24.75-0.035 7.089-0.05 14.178-0.051 21.267-1e-3 4.231-9e-3 8.462-0.038 12.693-0.027 4.724-0.022 9.446-9e-3 14.169-0.015 1.396-0.03 2.792-0.045 4.229 0.059 7.807 0.594 12.574 5.644 18.661 5.021 3.347 10.854 2.327 16.75 2.312 1.263 0.017 2.527 0.033 3.828 0.049 11.979 7e-3 11.979 7e-3 17.422-3.361 3.138-4.184 4.907-8.224 7-13 0.525-0.718 1.05-1.436 1.591-2.176 2.039-4.087 1.909-8.1 1.956-12.574 0.01-0.478 0.01-0.478 0.063-2.899 0.062-3.117 0.102-6.234 0.14-9.351 0.035-2.17 0.071-4.341 0.107-6.511 0.176-11.943 0.181-23.853-0.382-35.786-0.389-8.334-0.577-16.659-0.698-25-0.018-1.191-0.036-2.382-0.055-3.609-0.073-4.859-0.145-9.718-0.2-14.577-0.04-3.42-0.091-6.839-0.143-10.259-8e-3 -1.031-0.017-2.062-0.025-3.125-0.141-8.174-0.95-14.273-6.729-20.445-0.771-0.842-1.542-1.684-2.336-2.551-4.286-4.001-7.686-4.392-13.32-4.403-1.368-2e-3 -2.736-5e-3 -4.145-7e-3 -1.427 7e-3 -2.854 0.015-4.324 0.023-1.427-8e-3 -2.854-0.015-4.324-0.023-0.684 1e-3 -0.684 1e-3 -4.145 7e-3 -0.626 2e-3 -0.626 2e-3 -3.795 7e-3 -3.236 0.259-3.236 0.259-7.236 2.259z"/>
<path transform="translate(936.91 598.84)" d="m0 0c0.562-2e-3 0.562-2e-3 3.406-0.015 3.725-0.015 7.451-0.021 11.177-0.027 2.584-6e-3 5.168-0.012 7.753-0.017 5.422-0.011 10.844-0.017 16.267-0.02 6.953-6e-3 13.906-0.03 20.859-0.058 5.339-0.019 10.678-0.024 16.018-0.025 2.563-3e-3 5.127-0.012 7.691-0.025 3.584-0.017 7.167-0.015 10.751-8e-3 1.062-0.01 2.124-0.019 3.218-0.028 9.339 0.053 9.339 0.053 12.95 3.384 0.6 3.506 0.6 3.506 0.559 7.844-7e-3 1.556-0.014 3.112-0.022 4.715-0.016 0.815-0.016 0.815-0.099 4.941-3e-3 0.815-3e-3 0.815-0.018 4.942-0.125 12.116-0.125 12.116-2.42 15.558-2.781 0.379-2.781 0.379-6.374 0.385-1.342 0.01-2.683 0.02-4.066 0.031-1.458-3e-3 -2.917-7e-3 -4.419-0.01-0.746 6e-3 -0.746 6e-3 -4.522 0.033-4.79 0.035-9.579 0.05-14.369 0.061-6.286 0.015-12.573 0.048-18.859 0.094-1.45-3e-3 -2.9-6e-3 -4.395-9e-3 -1.354 0.01-2.709 0.02-4.104 0.03-1.189 2e-3 -2.377 4e-3 -3.602 7e-3 -3.775 0.434-6.124 1.277-9.29 3.378-1.783 3.526-2.252 6.421-2.26 10.344-4e-3 0.53-4e-3 0.53-0.022 3.208 3e-3 1.15 5e-3 2.301 8e-3 3.487-5e-3 1.22-0.011 2.44-0.016 3.697-0.014 4.035-0.013 8.069-0.01 12.104-4e-3 2.803-9e-3 5.607-0.013 8.41-8e-3 5.877-8e-3 11.754-2e-3 17.631 5e-3 7.533-0.011 15.067-0.035 22.6-0.014 5.79-0.015 11.58-0.012 17.37-1e-3 2.777-6e-3 5.555-0.016 8.333-0.012 3.883-6e-3 7.765 6e-3 11.648-8e-3 1.149-0.015 2.297-0.023 3.481 0.068 10.29 0.068 10.29 3.395 14.687 3.517 2.047 6.627 2.25 10.645 2.256 1.108 6e-3 2.216 0.013 3.357 0.021 1.187-1e-3 2.373-2e-3 3.596-3e-3 2.518 0.02 5.035 0.041 7.553 0.062 3.965 0.023 7.931 0.039 11.896 0.045 3.83 9e-3 7.659 0.043 11.488 0.08 1.189-5e-3 2.378-0.01 3.602-0.015 1.105 0.013 2.21 0.026 3.348 0.04 0.971 3e-3 1.942 6e-3 2.942 9e-3 3.327 0.653 4.518 1.854 6.573 4.505 0.502 3.328 0.502 3.328 0.496 7.25 1e-3 1.413 2e-3 2.826 2e-3 4.281-0.02 1.475-0.04 2.95-0.06 4.469 7e-3 1.475 0.014 2.95 0.021 4.469-0.065 11.006-0.065 11.006-3.459 15.531-2.484 0.499-2.484 0.499-5.477 0.498-1.122 0.01-2.244 0.02-3.399 0.031-0.606-4e-3 -0.606-4e-3 -3.674-0.025-1.247 9e-3 -2.494 0.019-3.778 0.029-3.995 0.028-7.989 0.031-11.984 0.03-3.984 3e-3 -7.968 0.013-11.952 0.04-2.481 0.017-4.962 0.02-7.442 7e-3 -10.993 0.067-10.993 0.067-15.294 3.39-1.8 3.614-2.254 6.567-2.274 10.579-0.01 1.11-0.02 2.221-0.03 3.365 0 0.604 0 0.604-2e-3 3.662-8e-3 1.28-0.017 2.56-0.025 3.879-0.024 4.234-0.033 8.468-0.04 12.703-9e-3 2.94-0.018 5.88-0.027 8.821-0.017 6.163-0.024 12.327-0.027 18.49-6e-3 7.906-0.043 15.812-0.089 23.718-0.03 6.072-0.037 12.143-0.038 18.215-4e-3 2.916-0.017 5.831-0.037 8.746-0.027 4.073-0.023 8.144-0.01 12.217-0.015 1.208-0.03 2.417-0.045 3.662 0.072 8.151 0.072 8.151 2.932 12.106 4.614 3.125 7.585 4.079 13.07 3.985 1.288-0.016 2.576-0.033 3.903-0.05 0.694-0.013 0.694-0.013 4.208-0.078 2.931-0.03 5.862-0.06 8.793-0.088 4.629-0.056 9.257-0.12 13.885-0.199 4.462-0.073 8.923-0.114 13.385-0.151 1.388-0.032 2.777-0.064 4.207-0.097 1.289-7e-3 2.577-0.014 3.904-0.021 1.134-0.017 2.267-0.034 3.436-0.052 2.921 0.588 2.921 0.588 5.287 2.894 2.206 3.637 2.136 6.278 2.13 10.514 1e-3 1.505 2e-3 3.009 2e-3 4.559-0.02 1.566-0.04 3.132-0.06 4.746 7e-3 1.574 0.014 3.148 0.021 4.77-0.065 11.711-0.065 11.711-3.459 15.105-3.829 0.287-7.494 0.388-11.324 0.357-1.168 2e-3 -2.335 4e-3 -3.538 6e-3 -3.871 3e-3 -7.74-0.016-11.61-0.035-2.682-3e-3 -5.363-5e-3 -8.044-5e-3 -5.624-5e-3 -11.247-0.019-16.87-0.042-7.222-0.028-14.444-0.039-21.667-0.043-5.537-4e-3 -11.074-0.014-16.612-0.026-2.664-6e-3 -5.328-0.011-7.991-0.014-3.717-7e-3 -7.433-0.021-11.149-0.037-1.11-1e-3 -2.22-2e-3 -3.364-3e-3 -7.601-0.043-7.601-0.043-9.831-1.158-1.145-3.436-1.126-6.072-1.128-9.698-4e-3 -1.418-7e-3 -2.836-0.01-4.297 1e-3 -1.568 3e-3 -3.136 5e-3 -4.752-2e-3 -1.674-5e-3 -3.349-7e-3 -5.023-6e-3 -4.615-6e-3 -9.229-5e-3 -13.844 0-4.971-5e-3 -9.943-0.01-14.914-8e-3 -9.745-0.011-19.489-0.012-29.234 0-7.918-2e-3 -15.835-5e-3 -23.753-9e-3 -22.429-0.014-44.858-0.013-67.287v-3.666-3.671c1e-3 -19.643-9e-3 -39.285-0.023-58.928-0.014-20.15-0.021-40.301-0.021-60.451 1e-3 -11.32-2e-3 -22.641-0.013-33.961-9e-3 -9.637-0.011-19.274-4e-3 -28.91 3e-3 -4.92 3e-3 -9.84-6e-3 -14.76-7e-3 -4.5-6e-3 -8.999 3e-3 -13.499 2e-3 -2.408-6e-3 -4.816-0.013-7.223 4e-3 -1.421 9e-3 -2.841 0.013-4.304v-3.728c0.249-3.097 0.249-3.097 2.249-7.097 4.544-1.514 9.164-1.156 13.91-1.161z"/>
<path transform="translate(1880.8 598.91)" d="m0 0c0.558 2e-3 0.558 2e-3 3.381 0.01 3.698 0.012 7.396 0.033 11.094 0.056 1.261 7e-3 2.522 0.014 3.821 0.021 6.67 0.037 13.34 0.081 20.01 0.13 6.902 0.05 13.803 0.076 20.705 0.097 5.297 0.02 10.594 0.058 15.892 0.101 2.545 0.017 5.09 0.028 7.635 0.032 3.555 7e-3 7.11 0.038 10.665 0.076 1.056-3e-3 2.113-6e-3 3.201-0.01 7.094 0.112 7.094 0.112 10.416 2.399 1.969 3.179 1.848 5.706 1.842 9.423 1e-3 1.413 2e-3 2.826 2e-3 4.281-0.02 1.475-0.04 2.95-0.06 4.469 7e-3 1.475 0.014 2.95 0.021 4.469-0.065 11.006-0.065 11.006-3.459 15.531-2.788 0.499-2.788 0.499-6.212 0.498-0.641 6e-3 -0.641 6e-3 -3.884 0.031-0.694-4e-3 -0.694-4e-3 -4.205-0.025-1.424 0.01-2.848 0.019-4.315 0.029-4.566 0.028-9.131 0.031-13.696 0.03-4.555 3e-3 -9.109 0.013-13.664 0.04-2.837 0.017-5.674 0.02-8.511 7e-3 -1.291 7e-3 -2.582 0.014-3.912 0.021-1.133-1e-3 -2.265-2e-3 -3.432-3e-3 -3.713 0.436-6.048 1.313-9.169 3.372-1.785 3.526-2.252 6.422-2.26 10.345-4e-3 0.529-4e-3 0.529-0.022 3.207 3e-3 1.151 5e-3 2.301 8e-3 3.487-6e-3 1.22-0.011 2.44-0.016 3.697-0.014 4.035-0.013 8.069-0.011 12.104-3e-3 2.803-8e-3 5.607-0.013 8.41-7e-3 5.877-7e-3 11.754-1e-3 17.631 5e-3 7.533-0.012 15.067-0.035 22.6-0.014 5.79-0.015 11.58-0.012 17.37-1e-3 2.777-6e-3 5.555-0.016 8.333-0.012 3.883-6e-3 7.765 6e-3 11.648-8e-3 1.149-0.015 2.298-0.023 3.481 0.068 10.29 0.068 10.29 3.395 14.687 3.517 2.047 6.627 2.25 10.645 2.256 1.108 7e-3 2.216 0.013 3.357 0.021 1.187-1e-3 2.373-2e-3 3.596-3e-3 2.517 0.02 5.035 0.041 7.553 0.062 3.965 0.023 7.931 0.039 11.896 0.045 3.83 0.01 7.659 0.043 11.488 0.08 1.189-5e-3 2.378-0.01 3.602-0.015 1.105 0.013 2.21 0.026 3.348 0.04 0.971 3e-3 1.942 6e-3 2.942 9e-3 3.327 0.653 4.516 1.855 6.573 4.505 0.849 5.293 0.603 10.647 0.563 16 0.012 0.738 0.012 0.738 0.072 4.469-2e-3 1.413-4e-3 2.826-6e-3 4.281 1e-3 1.294 2e-3 2.589 2e-3 3.922-0.631 3.328-0.631 3.328-2.401 5.75-5.062 2.474-9.978 2.121-15.538 2.082-0.6 5e-3 -0.6 5e-3 -3.635 0.029-3.832 0.028-7.663 0.031-11.494 0.03-3.828 3e-3 -7.656 0.013-11.484 0.04-2.38 0.017-4.761 0.02-7.142 7e-3 -10.578 0.068-10.578 0.068-14.937 3.39-1.814 3.628-2.252 6.588-2.26 10.617-4e-3 0.559-4e-3 0.559-0.022 3.39 3e-3 1.218 5e-3 2.436 8e-3 3.69-6e-3 1.29-0.011 2.58-0.016 3.909-0.014 4.267-0.013 8.534-0.011 12.8-3e-3 2.963-8e-3 5.926-0.013 8.889-7e-3 6.21-7e-3 12.421-1e-3 18.631 5e-3 7.967-0.012 15.933-0.035 23.899-0.014 6.119-0.015 12.237-0.012 18.355-1e-3 2.938-6e-3 5.876-0.016 8.813-0.012 4.104-6e-3 8.207 6e-3 12.31-8e-3 1.218-0.015 2.436-0.023 3.69 3e-3 0.56 3e-3 0.56 0.021 3.39v2.939c0.449 3.216 1.429 5.093 3.374 7.678 3.408 1.136 5.927 1.087 9.52 1.034 1.348-0.016 2.696-0.032 4.085-0.049 0.73-0.01 0.73-0.01 4.423-0.063 3.071-0.027 6.142-0.053 9.212-0.078 4.857-0.043 9.714-0.094 14.571-0.166 4.676-0.066 9.352-0.101 14.029-0.131 0.729-0.014 0.729-0.014 4.416-0.088 1.352-3e-3 2.703-7e-3 4.096-0.011 1.19-0.014 2.38-0.028 3.606-0.042 3.042 0.594 3.042 0.594 5.426 2.901 2.182 3.637 2.118 6.289 2.112 10.514 1e-3 1.504 2e-3 3.008 2e-3 4.558-0.02 1.566-0.04 3.133-0.06 4.746 7e-3 1.574 0.014 3.148 0.021 4.77-0.065 11.712-0.065 11.712-3.459 15.105-3.829 0.287-7.494 0.388-11.324 0.357-1.168 2e-3 -2.336 4e-3 -3.539 6e-3 -3.87 3e-3 -7.739-0.016-11.609-0.035-2.682-3e-3 -5.363-5e-3 -8.044-5e-3 -5.624-5e-3 -11.247-0.019-16.87-0.042-7.222-0.028-14.444-0.039-21.667-0.043-5.537-4e-3 -11.075-0.014-16.612-0.026-2.664-6e-3 -5.328-0.011-7.991-0.014-3.717-7e-3 -7.433-0.021-11.149-0.037-1.11-1e-3 -2.22-2e-3 -3.364-3e-3 -7.601-0.043-7.601-0.043-9.831-1.158-1.145-3.436-1.126-6.072-1.128-9.698-4e-3 -1.418-7e-3 -2.836-0.01-4.297 1e-3 -1.568 3e-3 -3.136 5e-3 -4.752-2e-3 -1.674-5e-3 -3.349-7e-3 -5.023-6e-3 -4.615-6e-3 -9.229-5e-3 -13.844 0-4.971-5e-3 -9.943-0.01-14.914-8e-3 -9.745-0.011-19.489-0.012-29.234 0-7.918-2e-3 -15.835-5e-3 -23.753-9e-3 -22.429-0.014-44.858-0.013-67.287v-3.666-3.671c0-19.643-9e-3 -39.285-0.023-58.928-0.015-20.15-0.021-40.301-0.021-60.451 1e-3 -11.32-2e-3 -22.641-0.013-33.961-9e-3 -9.637-0.011-19.274-4e-3 -28.91 3e-3 -4.92 3e-3 -9.84-6e-3 -14.76-7e-3 -4.5-6e-3 -8.999 3e-3 -13.499 2e-3 -2.408-6e-3 -4.815-0.014-7.223 5e-3 -1.421 0.01-2.841 0.014-4.304v-3.728c0.249-3.097 0.249-3.097 2.249-7.097 4.526-1.508 9.109-1.115 13.834-1.085z"/>
<path transform="translate(1535,602)" d="m0 0c0.101 2.165 0.129 4.334 0.131 6.502 4e-3 1.425 8e-3 2.85 0.012 4.318-1e-3 1.586-2e-3 3.173-3e-3 4.807l9e-3 5.058c9e-3 4.655 0.01 9.31 0.011 13.965 2e-3 5.012 9e-3 10.024 0.016 15.035 0.014 10.969 0.02 21.938 0.024 32.907 3e-3 6.843 7e-3 13.686 0.012 20.529 0.012 18.929 0.022 37.858 0.026 56.787v3.674c0 0.607 0 0.607 1e-3 3.683 0 2.463 1e-3 4.926 1e-3 7.389 0 1.222 1e-3 2.444 1e-3 3.703 4e-3 19.808 0.021 39.616 0.045 59.424 0.023 20.314 0.036 40.629 0.037 60.943 1e-3 11.415 7e-3 22.829 0.025 34.244 0.015 9.718 0.02 19.436 0.012 29.154-4e-3 4.963-3e-3 9.925 0.011 14.887 0.013 4.538 0.012 9.075-1e-3 13.612-2e-3 2.431 0.01 4.861 0.022 7.292-3e-3 0.715-3e-3 0.715-0.02 4.333 1e-3 1.241 1e-3 2.482 2e-3 3.76-0.374 2.994-0.374 2.994-3.374 5.994-3.168 0.299-6.136 0.42-9.305 0.398-0.458 2e-3 -0.458 2e-3 -2.776 9e-3 -1.938 2e-3 -3.877-3e-3 -5.815-0.016-2.961-0.016-5.92 0-8.881 0.019-1.884-2e-3 -3.769-6e-3 -5.653-0.012-0.883 7e-3 -1.767 0.013-2.677 0.019-4.846-0.055-8.129-0.273-11.893-3.417-0.63-2.965-0.63-2.965-0.636-6.683-0.015-1.414-0.03-2.829-0.045-4.286 9e-3 -1.564 0.019-3.128 0.028-4.74-7e-3 -1.671-0.017-3.341-0.029-5.011-0.027-4.603-0.022-9.206-0.012-13.809 5e-3 -4.96-0.019-9.919-0.039-14.878-0.034-9.721-0.042-19.441-0.042-29.162 0-11.311-0.026-22.623-0.054-33.935-0.049-20.179-0.074-40.358-0.085-60.537-0.011-19.596-0.039-39.192-0.084-58.787-3e-3 -1.207-6e-3 -2.414-9e-3 -3.657-3e-3 -1.205-5e-3 -2.409-8e-3 -3.65-6e-3 -2.425-0.012-4.85-0.017-7.276-3e-3 -1.195-6e-3 -2.391-9e-3 -3.624-0.042-18.652-0.07-37.304-0.096-55.957-0.01-6.768-0.022-13.536-0.035-20.304-0.022-10.736-0.037-21.472-0.039-32.207-1e-3 -4.908-5e-3 -9.816-0.017-14.724-0.012-4.488-0.014-8.977-9e-3 -13.465 1e-3 -2.402-9e-3 -4.804-0.018-7.206 3e-3 -1.416 7e-3 -2.833 0.011-4.293-2e-3 -1.227-3e-3 -2.454-4e-3 -3.719 0.248-3.09 0.248-3.09 2.248-7.09 4.006-2.671 6.808-2.35 11.613-2.484 0.424-0.012 0.424-0.012 2.567-0.073 1.793-0.049 3.586-0.092 5.379-0.131 2.733-0.062 5.465-0.145 8.197-0.23 1.744-0.044 3.488-0.087 5.232-0.129 1.584-0.04 3.167-0.079 4.798-0.12 8.379 0.332 8.379 0.332 11.214 3.167z"/>
<path transform="translate(1904.4 160.6)" d="m0 0c1.06-4e-3 2.119-8e-3 3.211-0.012 0.553 6e-3 0.553 6e-3 3.351 0.035 0.554-5e-3 0.554-5e-3 3.352-0.035 1.06 4e-3 2.119 8e-3 3.211 0.012 0.485 2e-3 0.485 2e-3 2.941 0.01 2.496 0.388 2.496 0.388 5.496 3.388 1.638 3.276 1.532 6.816 1.876 10.438 0.764 7.159 1.954 13.718 4.124 20.562 1.833 5.998 3.159 11.761 3.876 18 0.801 6.684 2.402 12.913 4.237 19.38 1.742 6.415 2.649 12.771 3.387 19.37 0.896 7.986 2.525 14.902 5.36 22.457 2.224 7.396 2.587 15.117 3.14 22.793 3.438-0.25 3.438-0.25 7-1 0.86-3.439 1.118-5.839 1.101-9.32-3e-3 -1.078-6e-3 -2.156-9e-3 -3.267-9e-3 -1.178-0.017-2.356-0.026-3.569-4e-3 -1.244-9e-3 -2.489-0.014-3.77-0.01-2.704-0.023-5.407-0.037-8.11-0.022-4.273-0.037-8.546-0.048-12.819-0.034-12.15-0.076-24.3-0.138-36.45-0.037-7.429-0.061-14.858-0.074-22.286-8e-3 -2.836-0.022-5.673-0.041-8.509-0.026-3.957-0.034-7.915-0.038-11.872-0.013-1.18-0.025-2.36-0.038-3.576 2e-3 -0.537 2e-3 -0.537 8e-3 -3.258-4e-3 -0.936-8e-3 -1.872-0.012-2.837 0.366-2.357 0.366-2.357 3.366-5.357 4.161-0.398 4.161-0.398 9.063-0.375 0.81-3e-3 0.81-3e-3 4.91-0.023 1.329 0.131 2.658 0.263 4.027 0.398 2.694 4.04 2.252 6.713 2.254 11.566 4e-3 0.885 7e-3 1.77 0.01 2.682 8e-3 2.978 2e-3 5.956-5e-3 8.934 3e-3 2.13 7e-3 4.26 0.011 6.39 9e-3 5.796 5e-3 11.591-1e-3 17.387-5e-3 6.058 0 12.116 3e-3 18.174 4e-3 10.177-1e-3 20.354-0.011 30.531-0.011 11.772-7e-3 23.543 4e-3 35.315 9e-3 10.097 0.01 20.195 5e-3 30.293-3e-3 6.035-4e-3 12.069 3e-3 18.104 6e-3 5.675 2e-3 11.35-0.01 17.025-2e-3 2.084-2e-3 4.169 3e-3 6.253 5e-3 2.843-2e-3 5.685-0.012 8.527 0 1.592-1e-3 3.184-2e-3 4.824-0.235 3.733-0.488 7.232-3.252 9.995-2.334-0.325-4.667-0.661-7-1-3.564-0.196-7.128-0.375-10.695-0.523-3.525-0.508-5.479-1.341-8.305-3.477-1.933-4.171-2.522-8.629-3.371-13.128-0.693-3.166-1.615-6.211-2.566-9.309-1.628-5.523-2.633-10.925-3.437-16.625-1.176-8.08-3.143-15.631-5.5-23.438-1.794-6.041-2.906-11.907-3.633-18.175-0.553-3.736-1.477-7.251-2.493-10.887-3.436-12.405-4.415-24.602-5-37.438-1.154 0.165-1.154 0.165-7 1-2.005 13.063-2.245 25.833-2.15 39.017 0.026 3.606 0.039 7.213 0.048 10.82 0.023 7.638 0.062 15.276 0.102 22.913 0.048 8.9 0.088 17.799 0.112 26.698 0.013 3.55 0.038 7.1 0.064 10.651 7e-3 2.168 0.014 4.337 0.02 6.506 0.01 0.984 0.02 1.968 0.031 2.981 1e-3 8.46 1e-3 8.46-2.227 12.414-2 2-2 2-4.898 2.266-1.147-5e-3 -2.294-0.01-3.476-0.016-0.572 3e-3 -0.572 3e-3 -3.461 0.016-3.165-0.266-3.165-0.266-7.165-2.266-2.342-4.877-2.253-9.558-2.26-14.901-4e-3 -0.885-8e-3 -1.77-0.012-2.682-0.01-2.96-6e-3 -5.919-2e-3 -8.878-5e-3 -2.124-0.01-4.248-0.016-6.372-0.013-5.765-0.014-11.529-0.011-17.293 1e-3 -4.809-4e-3 -9.618-9e-3 -14.427-0.011-11.34-0.011-22.68-5e-3 -34.02 6e-3 -11.71-6e-3 -23.421-0.028-35.132-0.017-10.048-0.023-20.097-0.02-30.145 2e-3 -6.005-1e-3 -12.009-0.015-18.013-0.012-5.642-0.011-11.283 3e-3 -16.924 2e-3 -2.074-1e-3 -4.149-9e-3 -6.223-0.01-2.823-2e-3 -5.646 0.01-8.469v-4.795c0.611-6.072 3.238-7.105 8.812-7.124z"/>
<path transform="translate(1344.2 159.91)" d="m0 0c4.292-0.077 8.583-0.125 12.875-0.163 1.361-0.022 2.721-0.043 4.122-0.065 8.663-0.029 15.447-8e-3 21.933 6.389 0.455 0.596 0.455 0.596 2.758 3.613 0.926 1.18 1.851 2.359 2.805 3.575 3.929 6.33 4.573 12.494 4.55 19.839-1e-3 1.532-2e-3 3.063-3e-3 4.64-0.013 1.612-0.026 3.223-0.04 4.884-6e-3 1.68-0.013 3.36-0.019 5.04-0.05 9.546-0.254 19.068-0.816 28.597-0.271 4.813-0.366 9.588-0.313 14.41 0.012 1.136 0.025 2.272 0.037 3.442 0.032 2.198 0.077 4.395 0.137 6.592 0.143 9.609-3.201 14.87-9.213 22.294-0.949 0.949-1.898 1.897-2.875 2.875-2.971 4.369-2.903 8.077-2.125 13.125 0.563 1.908 1.171 3.804 1.812 5.687 2.009 5.991 2.86 11.757 3.563 18 1 8.755 2.611 17.188 4.687 25.75 5.986 24.813 5.986 24.813 3.938 35.563-2.145 2.145-7.046 1.271-9.813 1.312-0.807 0.019-0.807 0.019-4.894 0.114-4.293-0.426-4.293-0.426-6.805-2.258-3.595-5.238-3.155-11.827-3.695-17.969-0.496-4.094-1.532-7.841-2.742-11.781-2.338-7.857-3.233-15.657-4.051-23.793-1.131-11.187-2.988-21.784-6-32.625-0.351-1.287-0.701-2.574-1.063-3.9-0.937-3.1-0.937-3.1-1.937-4.1-7.309-0.469-7.309-0.469-10 0-4.468 5.957-4.125 11.028-4.158 18.329-5e-3 0.813-0.01 1.627-0.015 2.465-0.011 1.758-0.019 3.516-0.026 5.274-0.012 2.783-0.032 5.565-0.053 8.348-0.062 7.907-0.116 15.815-0.149 23.723-0.021 4.844-0.057 9.688-0.101 14.532-0.014 1.844-0.023 3.689-0.026 5.533-5e-3 2.576-0.028 5.151-0.056 7.726-8e-3 1.465-0.016 2.931-0.024 4.44-0.392 3.63-0.392 3.63-3.392 7.63-3.652 0.785-3.652 0.785-7.938 1.062-1.411 0.115-2.823 0.23-4.277 0.348-3.785-0.41-3.785-0.41-5.991-2.377-2.45-4.143-2.292-7.169-2.288-11.973-5e-3 -0.901-0.01-1.802-0.015-2.731-0.011-3.02 6e-3 -6.04 0.023-9.06-2e-3 -2.165-6e-3 -4.33-0.011-6.495-0.01-5.88 5e-3 -11.76 0.026-17.64 0.017-6.146 0.014-12.292 0.013-18.439 2e-3 -10.319 0.019-20.638 0.046-30.957 0.032-11.944 0.042-23.888 0.041-35.832-1e-3 -11.477 9e-3 -22.954 0.025-34.431 8e-3 -4.891 0.011-9.782 0.012-14.673 2e-3 -5.753 0.014-11.506 0.035-17.259 5e-3 -2.116 8e-3 -4.233 7e-3 -6.349-1e-3 -2.879 0.01-5.757 0.025-8.635 3e-3 -1.614 6e-3 -3.228 0.01-4.891 0.257-3.668 0.257-3.668 2.257-5.668 3.565-0.325 7.052-0.521 10.625-0.625 1.089-0.036 2.177-0.072 3.299-0.108 5.087-0.15 10.175-0.248 15.263-0.354zm-7.187 25.087c-1.481 2.963-1.144 5.634-1.161 8.941-0.01 1.465-0.019 2.93-0.029 4.44-5e-3 1.592-9e-3 3.185-0.013 4.826-6e-3 1.628-0.012 3.256-0.017 4.933-0.011 3.451-0.017 6.901-0.02 10.352-6e-3 4.419-0.03 8.837-0.058 13.256-0.023 4.215-0.025 8.431-0.03 12.646-0.012 1.587-0.025 3.174-0.038 4.808 3e-3 1.475 6e-3 2.95 0.01 4.469-4e-3 1.298-8e-3 2.595-0.012 3.932 0.394 3.634 1.164 5.513 3.368 8.397 5.423 2.822 12 3.8 18 3 4.953-3.143 7.691-6.64 10-12 2.297-10.532 2.117-20.914 1.687-31.625-0.057-1.579-0.114-3.158-0.172-4.785-0.115-3.118-0.234-6.235-0.359-9.353-0.134-3.629-0.222-7.254-0.277-10.886-0.043-1.783-0.086-3.567-0.129-5.351-0.026-1.485-0.052-2.97-0.078-4.5-0.672-3.5-0.672-3.5-3.031-5.938-4.723-2.794-8.589-2.756-14.016-2.812-1.493-0.026-2.985-0.052-4.523-0.078-4.068 0.325-5.951 0.822-9.102 3.328z"/>
<path transform="translate(866.12 160.62)" d="m0 0c1.591 0.013 3.181 0.026 4.82 0.039 4.055 0.336 4.055 0.336 7.055 2.336 0.305 2.998 0.417 5.792 0.401 8.792 7e-3 0.911 0.014 1.822 0.021 2.76 0.02 3.022 0.019 6.043 0.019 9.065 0.012 2.095 0.026 4.19 0.04 6.285 0.037 5.526 0.057 11.051 0.072 16.577 0.025 8.838 0.064 17.676 0.122 26.514 0.016 3.091 0.02 6.182 0.023 9.273 0.01 1.894 0.02 3.789 0.031 5.683-2e-3 0.43-2e-3 0.43-8e-3 2.61 0.037 4.262 0.331 6.544 2.279 10.441 3.591 1.796 7.797 1.228 11.75 1.25 0.895 0.021 1.789 0.041 2.711 0.063 5.254 0.03 9.219-0.188 13.539-3.313 2.462-4.454 2.223-8.669 2.179-13.674-2e-3 -0.431-2e-3 -0.431-0.013-2.613-0.011-1.868-0.027-3.735-0.046-5.602-0.03-2.954-0.047-5.909-0.06-8.863-0.04-8.399-0.105-16.798-0.176-25.196-0.043-5.141-0.071-10.282-0.091-15.423-0.01-1.959-0.027-3.918-0.049-5.876-0.031-2.737-0.044-5.472-0.053-8.208-0.013-1.557-0.025-3.115-0.038-4.719 0.347-3.826 0.347-3.826 3.347-7.826 3.317-0.349 6.258-0.468 9.563-0.375 0.437 1e-3 0.437 1e-3 2.654 4e-3 6.502 0.09 6.502 0.09 8.783 2.371 0.2 2.847 0.261 5.705 0.267 8.559 5e-3 0.896 9e-3 1.793 0.014 2.717 0.013 3.022 0.011 6.045 0.01 9.067 6e-3 2.16 0.012 4.319 0.02 6.479 0.018 5.88 0.022 11.76 0.024 17.641 1e-3 4.903 9e-3 9.806 0.016 14.709 0.016 11.566 0.021 23.132 0.02 34.698-2e-3 11.943 0.02 23.885 0.051 35.827 0.026 10.243 0.037 20.485 0.036 30.727-1e-3 6.122 5e-3 12.243 0.026 18.365 0.019 5.758 0.02 11.516 5e-3 17.274-2e-3 2.115 3e-3 4.23 0.015 6.345 0.015 2.885 6e-3 5.768-0.01 8.652 2e-3 1.615 3e-3 3.23 4e-3 4.895-0.54 4.386-1.223 6.124-4.498 9.045-3.785 0.41-3.785 0.41-8.063 0.063-0.707-0.046-0.707-0.046-4.285-0.278-3.652-0.785-3.652-0.785-6.652-4.785-0.385-3.947-0.385-3.947-0.401-8.836-3e-3 -0.446-3e-3 -0.446-0.021-2.701-0.02-2.946-0.019-5.892-0.019-8.838-0.012-2.047-0.026-4.095-0.04-6.142-0.037-5.391-0.057-10.781-0.072-16.172-0.025-8.629-0.064-17.258-0.122-25.887-0.016-3.015-0.02-6.031-0.023-9.047-0.01-1.847-0.02-3.694-0.031-5.541-2e-3 -0.807-2e-3 -0.807-0.013-4.889-0.258-3.947-0.258-3.947-2.258-7.947-3.985-1.993-8.984-1.444-13.375-1.625-0.527-0.026-0.527-0.026-3.195-0.156-1.016-0.044-2.032-0.088-3.078-0.133-0.93-0.041-1.86-0.082-2.818-0.124-2.534 0.038-2.534 0.038-6.534 1.038-1.338 4.013-1.141 7.561-1.158 11.798-5e-3 0.9-0.01 1.799-0.015 2.726-0.011 1.955-0.019 3.909-0.026 5.864-0.012 3.093-0.031 6.186-0.053 9.279-0.062 8.796-0.116 17.591-0.149 26.387-0.021 5.378-0.057 10.757-0.101 16.136-0.014 2.05-0.023 4.1-0.026 6.15-5e-3 2.868-0.028 5.735-0.055 8.603-9e-3 1.632-0.017 3.264-0.025 4.945-0.384 4.03-0.756 6.073-3.392 9.112-3.836 0.664-3.836 0.664-8.375 0.625-1.493 0.013-2.985 0.026-4.523 0.039-4.941-0.8-6.108-1.722-9.102-5.664-0.645-3.993-0.645-3.993-0.673-8.813-6e-3 -0.443-6e-3 -0.443-0.036-2.689-0.034-2.974-0.032-5.948-0.03-8.922-0.016-2.132-0.035-4.264-0.056-6.397-0.049-5.791-0.067-11.582-0.079-17.373-0.015-6.056-0.055-12.112-0.091-18.168-0.056-10.169-0.091-20.338-0.114-30.508-0.027-11.765-0.091-23.529-0.173-35.294-0.069-10.094-0.119-20.188-0.153-30.283-0.02-6.032-0.047-12.064-0.091-18.095-0.041-5.67-0.057-11.339-0.055-17.008-3e-3 -2.083-0.014-4.167-0.035-6.25-0.027-2.839-0.023-5.676-0.011-8.514-5e-3 -1.591-0.011-3.181-0.017-4.819 0.614-3.867 0.614-3.867 2.881-6.381 3.998-2.174 7.345-1.942 11.858-1.861z"/>
<path transform="translate(1795.8 159.69)" d="m0 0c1.503 0.04 3.006 0.08 4.555 0.121 1.549 0.063 3.099 0.126 4.695 0.191 0.754 0.017 0.754 0.017 4.57 0.098 8.225 0.291 8.225 0.291 11.43 0.902 3.466 4.621 3.323 5.955 3.375 11.563 0.356 9.532 1.958 18.611 3.81 27.957 1.686 8.519 2.826 16.817 3.055 25.518 0.53 18.855 3.305 37.572 6.448 56.15 1.276 7.775 1.699 15.423 2.007 23.289 0.697 14.644 2.334 29.433 5.676 43.711 1.867 8.351 1.744 16.857 1.817 25.375 0.013 0.989 0.026 1.979 0.039 2.998 3e-3 2.481-0.103 4.962-0.227 7.439-2.98 2.981-5.735 2.605-9.875 2.938-1.421 0.133-2.841 0.266-4.305 0.402-3.82-0.34-3.82-0.34-5.991-2.486-2.016-3.146-2.51-5.153-2.919-8.842-0.142-1.17-0.283-2.341-0.43-3.547-0.137-1.247-0.275-2.493-0.418-3.777-1.231-9.857-2.614-19.632-4.562-29.375-0.189-1.014-0.379-2.029-0.574-3.073-0.582-2.814-0.582-2.814-1.926-7.24-4.461-2.23-6.999-2.298-11.938-2.312-0.695-8e-3 -0.695-8e-3 -4.214-0.051-4.08 0.385-5.67 0.866-8.848 3.363-5.004 11.231-5.205 24.564-6.209 36.639-0.207 2.437-0.436 4.872-0.666 7.307-0.121 1.428-0.242 2.857-0.367 4.328-0.824 4.052-1.752 5.92-4.758 8.726-3.785 0.411-3.785 0.411-8.062 0.063-0.708-0.046-0.708-0.046-4.286-0.277-3.652-0.786-3.652-0.786-6.652-4.786-0.18-3.748-0.187-7.267 0-11 0.05-0.992 0.1-1.984 0.151-3.007 0.187-3.147 0.415-6.287 0.661-9.43 0.088-1.129 0.176-2.257 0.266-3.42 0.91-11.038 2.38-21.955 4.43-32.842 1.487-8.174 1.974-16.261 2.367-24.551 0.705-12.965 2.292-25.479 4.674-38.23 0.855-4.776 1.45-9.586 2.056-14.398 0.272-2.15 0.582-4.295 0.922-6.434 0.452-3.524 0.647-7.001 0.764-10.55 0.56-17.082 2.698-33.957 6.096-50.704 0.58-3.251 0.864-6.39 1.051-9.684 0.562-4.75 0.562-4.75 2.113-7.027 3.48-2.448 5.977-2.149 10.199-2.035zm4.25 54.312c-2.116 11.381-2.941 22.76-3.768 34.295-0.698 9.078-1.889 17.88-3.561 26.828-0.898 5.189-1.33 10.309-1.546 15.565-0.059 0.922-0.119 1.845-0.18 2.795-0.245 5.324 0.038 9.049 3.055 13.517 4.757 2.379 9.918 1.023 14.812-0.312 4.188-1.688 4.188-1.688 7.188-4.688 0.461-8.106-0.413-15.963-1.438-24-0.134-1.117-0.269-2.235-0.408-3.386-1.012-8.188-1.012-8.188-2.154-11.614-1.113-9.166-1.283-18.423-1.518-27.644-0.239-7.259-1.119-14.223-2.482-21.356h-8z"/>
<path transform="translate(1206.3 160.4)" d="m0 0c1.348 0.013 2.695 0.027 4.084 0.041 1.466 7e-3 2.931 0.014 4.441 0.021 0.768 0.017 0.768 0.017 4.653 0.1 0.767 3e-3 0.767 3e-3 4.652 0.017 11.406 0.126 11.406 0.126 14.848 2.42 1.027 4.19 1.173 8.39 1.375 12.688 0.674 10.791 2.623 21.369 4.418 32.019 1.725 10.748 2.716 21.406 3.437 32.266 0.804 11.575 2.166 23.065 4.774 34.387 1.823 8.977 2.013 18.267 2.598 27.395 0.711 10.955 1.955 21.529 4.398 32.245 1.79 7.944 2.591 15.749 3.125 23.875 0.086 1.19 0.172 2.38 0.261 3.606 0.395 5.733 0.709 11.469 0.856 17.215 0.027 0.951 0.054 1.903 0.081 2.883-0.323 2.421-0.323 2.421-3.323 5.421-3.434 0.582-3.434 0.582-7.438 0.813-1.318 0.089-2.637 0.178-3.996 0.269-3.566-0.082-3.566-0.082-7.566-2.082-2.312-3.467-2.422-5.36-2.782-9.476-0.118-1.304-0.237-2.607-0.359-3.95-0.059-0.693-0.059-0.693-0.359-4.199-0.258-2.823-0.517-5.646-0.778-8.468-0.123-1.363-0.247-2.725-0.374-4.129-0.428-4.64-0.897-9.271-1.411-13.903-0.067-0.62-0.067-0.62-0.41-3.757-0.518-3.063-0.985-5.418-2.527-8.118-4.092-2.489-8.307-2.299-13-2.312-1.382-0.017-2.764-0.034-4.188-0.051-4.049 0.386-5.666 0.867-8.812 3.363-1.103 2.917-1.103 2.917-1.766 6.477-0.25 1.303-0.499 2.607-0.756 3.95-0.241 1.385-0.481 2.771-0.728 4.198-0.259 1.403-0.518 2.805-0.785 4.25-1.548 8.704-2.637 17.158-2.664 26.008-0.343 3.555-1.038 5.364-3.301 8.117-6.34 1.8-12.393 2.61-19 2-3.308-4.409-3.33-4.832-2.746-9.945 0.118-1.154 0.237-2.308 0.36-3.497 0.127-1.174 0.254-2.348 0.386-3.558 0.164-2.142 0.319-4.285 0.465-6.429 2.256-31.044 2.256-31.044 4.531-37.317 1.376-4.46 1.695-8.938 2.066-13.566 0.084-0.973 0.168-1.947 0.254-2.95 0.494-5.887 0.874-11.774 1.184-17.675 1.034-18.936 1.034-18.936 3.468-25.789 1.495-4.744 2.003-9.533 2.594-14.461 0.132-1.069 0.265-2.139 0.401-3.241 0.752-6.34 1.242-12.625 1.474-19.009 0.523-12.715 2.884-25.181 5.122-37.688 1.247-7.131 1.78-14.069 1.999-21.308 0.636-5.135 1.325-8.185 6.764-9.166zm9.678 50.599c-4.173 23.464-4.173 23.464-4.723 35.418-0.427 5.517-1.495 10.892-2.559 16.317-1.551 9.205-1.922 18.381-1.968 27.703-0.021 1.061-0.042 2.123-0.063 3.217-5e-3 1.02-0.01 2.04-0.015 3.091-0.01 0.915-0.019 1.829-0.029 2.772 0.357 2.482 0.357 2.482 3.357 6.482 3.291 1.097 5.911 1.238 9.375 1.313 1.121 0.037 2.243 0.075 3.398 0.113 3.971-0.524 5.564-1.447 8.227-4.426 0.523-2.91 0.523-2.91 0.375-6.062-0.017-0.522-0.017-0.522-0.102-3.16-0.273-2.778-0.273-2.778-1.273-5.778-0.311-3.873-0.51-7.748-0.719-11.629-0.281-3.371-0.281-3.371-1.281-5.371-0.819-6.877-1.233-13.727-1.5-20.644-0.084-1.996-0.167-3.991-0.25-5.986-0.126-3.106-0.251-6.211-0.375-9.316-0.122-3.024-0.248-6.049-0.375-9.073-0.018-0.464-0.018-0.464-0.108-2.81-0.175-4.142-0.385-8.138-1.392-12.171h-8z"/>
<path transform="translate(1664.7 160.73)" d="m0 0c0.939-2e-3 1.879-4e-3 2.846-6e-3 1.984-1e-3 3.968 3e-3 5.951 0.011 3.036 0.011 6.07 0 9.105-0.013 1.929 2e-3 3.857 4e-3 5.786 8e-3 0.907-4e-3 1.814-8e-3 2.749-0.012 4.398 0.032 6.901 0.275 10.907 2.278 1.705 1.967 3.369 3.971 5 6 0.423 0.391 0.423 0.391 2.562 2.375 7.415 7.985 7.093 16.511 7.014 26.817-0.014 2.566 0.021 5.128 0.059 7.694-2e-3 1.621-4e-3 3.241-6e-3 4.91 0 1.479 1e-3 2.957 2e-3 4.48-0.631 3.724-0.631 3.724-2.871 6.208-4.178 2.294-8.314 2.016-12.948 1.891-0.914-2e-3 -1.829-3e-3 -2.771-4e-3 -6.76-0.09-6.76-0.09-9.041-2.371-1.11-3.926-1.09-7.668-1.028-11.727 7e-3 -0.639 7e-3 -0.639 0.038-3.875 0.035-2.69 0.074-5.38 0.117-8.07 5e-3 -0.638 5e-3 -0.638 0.033-3.867 0.017-1.168 0.034-2.335 0.051-3.538-0.211-2.923-0.211-2.923-2.211-5.923-5.659-1.887-11.686-1.203-17.563-0.688-2.437 1.688-2.437 1.688-3.571 6.485-1.032 6.387-1.172 12.674-1.167 19.132-4e-3 1.194-9e-3 2.387-0.013 3.617-6e-3 2.502-6e-3 5.005-2e-3 7.507 3e-3 3.832-0.02 7.662-0.046 11.493-2e-3 2.441-3e-3 4.881-2e-3 7.321-9e-3 1.143-0.018 2.285-0.027 3.463 3e-3 0.532 3e-3 0.532 0.018 3.228 0 0.933-1e-3 1.865-1e-3 2.826 0.709 4.956 3.246 7.494 6.803 10.889 5.254 3.755 10.439 3.474 16.696 3.352 9.88-0.121 14.11 0.929 21.562 7.75 5.489 6.006 6.688 10.159 6.717 18.273 7e-3 0.848 0.014 1.696 0.021 2.569 0.018 2.791 0.014 5.582 8e-3 8.372 5e-3 1.948 0.01 3.896 0.016 5.843 9e-3 4.078 7e-3 8.156-3e-3 12.233-0.012 5.217 9e-3 10.433 0.038 15.649 0.018 4.021 0.018 8.042 0.012 12.063 0 1.923 6e-3 3.846 0.018 5.769 0.015 2.692 5e-3 5.384-0.013 8.076v4.635c-0.998 8.247-6.238 14.07-12.501 19.143-13.985 8.111-34.293 5.761-49.418 2.011-3.769-1.476-5.431-3.65-7.582-7.011-0.537-0.444-0.537-0.444-3.25-2.688-2.75-2.312-2.75-2.312-3.75-5.312-0.34-5.069-0.468-10.145-0.613-15.223-0.074-2.504-0.165-5.008-0.256-7.512-0.047-1.588-0.094-3.176-0.143-4.812-0.046-1.453-0.092-2.905-0.139-4.402 0.151-4.07 0.695-7.253 2.151-11.051 3.681-2.455 6.047-2.459 10.437-2.75 1.319-0.098 2.638-0.196 3.996-0.297 3.567 0.047 3.567 0.047 7.567 2.047 3.343 6.342 2.058 14.199 1.834 21.146-0.109 6.009 0.08 10.492 3.166 15.854 3.224 2.857 5.233 3.89 9.5 4.5 5.054-0.722 8.022-2.706 11.25-6.625 3.319-7.634 3.558-15.74 3.551-23.93 2e-3 -0.511 2e-3 -0.511 0.013-3.099 5e-3 -2.15 6e-3 -4.3 1e-3 -6.449-3e-3 -3.257 0.021-6.512 0.046-9.768 0.073-22.707 0.073-22.707-3.361-29.629-3.955-3.775-8.702-6.006-14.188-5.993-1.258 0.039-2.516 0.078-3.812 0.118-7.989 0.038-15.463-0.281-21.875-5.438-0.351-0.443-0.351-0.443-2.125-2.687-0.908-0.97-1.815-1.939-2.75-2.938-3.852-5.242-3.378-10.803-3.396-17.144-6e-3 -1.615-0.012-3.231-0.019-4.895-1e-3 -1.755-2e-3 -3.51-3e-3 -5.266-3e-3 -1.81-7e-3 -3.621-0.01-5.432-6e-3 -3.791-8e-3 -7.582-8e-3 -11.373 1e-3 -4.844-0.013-9.688-0.03-14.532-0.011-3.739-0.013-7.477-0.013-11.216-1e-3 -1.785-6e-3 -3.571-0.013-5.356-0.01-2.503-6e-3 -5.005-1e-3 -7.508-2e-3 -1.421-3e-3 -2.842-4e-3 -4.306 0.356-5.82 0.964-10.495 4.747-15.034 2.5-2 2.5-2 4.5-2l2-4c4.716-2.359 8.521-2.289 13.656-2.266z"/>
<path transform="translate(997.17 160.58)" d="m0 0c1.248-0.016 2.496-0.032 3.782-0.048 0.673 0 0.673 0 4.075-1e-3 1.384-7e-3 2.767-0.015 4.192-0.023 2.925-0.011 5.85-0.014 8.776-9e-3 4.484 1e-3 8.966-0.041 13.45-0.085 2.84-5e-3 5.68-8e-3 8.52-8e-3 0.672-8e-3 0.672-8e-3 4.075-0.05 1.248 0.01 2.496 0.019 3.782 0.029 1.099-2e-3 2.197-4e-3 3.328-7e-3 2.846 0.622 2.846 0.622 5.213 2.99 1.924 3.1 2.036 4.545 1.633 8.132-0.082 0.918-0.165 1.836-0.25 2.781-0.969 3.513-2.119 5.178-4.75 7.719-3.635 0.612-3.635 0.612-7.976 0.601-1.558 0.016-3.115 0.031-4.719 0.047-1.627-7e-3 -3.254-0.015-4.93-0.023-3.221 0-6.443 0.012-9.664 0.039-0.715-3e-3 -0.715-3e-3 -4.334-0.017-1.115 0.116-2.229 0.233-3.377 0.353-2.424 3.636-2.258 5.356-2.274 9.687-0.01 1.385-0.02 2.77-0.029 4.197 1e-3 1.5 1e-3 3 2e-3 4.546-4e-3 1.537-8e-3 3.075-0.013 4.659-7e-3 4.092-4e-3 8.183 2e-3 12.275 0 2.505-0.01 5.011-0.024 7.516-0.024 4.809-0.029 9.616-0.027 14.425-9e-3 1.496-0.019 2.992-0.028 4.533 3e-3 0.695 3e-3 0.695 0.019 4.216-1e-3 1.224-1e-3 2.447-2e-3 3.707 0.408 3.532 1.251 5.417 3.374 8.239 2.667 1.333 4.759 1.144 7.742 1.176 1.149 0.024 2.297 0.047 3.481 0.072 2.427 0.043 4.854 0.074 7.281 0.094 1.151 0.027 2.302 0.055 3.488 0.084 0.528 7e-3 0.528 7e-3 3.199 0.044 3.491 0.659 4.66 1.747 6.809 4.53 1.082 3.966 1.442 6.053-0.312 9.812-1.688 2.188-1.688 2.188-3.688 4.188-2.55 0.271-2.55 0.271-5.742 0.309-1.149 0.025-2.297 0.05-3.48 0.076-2.428 0.035-4.855 0.066-7.282 0.093-0.575 0.014-0.575 0.014-3.488 0.081-0.528 6e-3 -0.528 6e-3 -3.199 0.04-2.809 0.401-2.809 0.401-6.809 3.401-1.177 3.533-1.134 6.34-1.145 10.07-6e-3 1.468-0.013 2.937-0.019 4.45-2e-3 1.59-3e-3 3.181-4e-3 4.82-3e-3 1.629-6e-3 3.257-0.01 4.935-6e-3 3.45-8e-3 6.899-7e-3 10.348 0 4.419-0.014 8.839-0.031 13.259-0.014 4.215-0.013 8.43-0.014 12.645-7e-3 1.589-0.015 3.177-0.022 4.814 3e-3 1.472 6e-3 2.943 9e-3 4.459-1e-3 1.297-3e-3 2.594-4e-3 3.93 0.247 3.27 0.247 3.27 2.247 7.27 3.086 1.543 6.059 1.148 9.492 1.176 1.51 0.024 3.019 0.047 4.575 0.072 3.197 0.043 6.395 0.074 9.593 0.094 0.756 0.014 0.756 0.014 4.582 0.084 1.391 0.014 2.782 0.029 4.215 0.044 3.543 0.53 3.543 0.53 6.001 2.359 2.275 3.202 1.999 5.317 1.542 9.171-2.372 6.686-2.372 6.686-5 8-1.847 0.111-3.698 0.159-5.548 0.177-0.581 6e-3 -0.581 6e-3 -3.52 0.039-1.261 7e-3 -2.523 0.015-3.822 0.022-0.647 4e-3 -0.647 4e-3 -3.917 0.025-2.741 0.014-5.481 0.024-8.222 0.032-4.19 0.017-8.379 0.061-12.568 0.105-2.661 0.01-5.321 0.019-7.981 0.026-0.627 8e-3 -0.627 8e-3 -3.798 0.053-11.043-0.028-11.043-0.028-15.624-4.479-1.315-3.945-1.136-7.373-1.147-11.541-4e-3 -0.882-7e-3 -1.765-0.011-2.674-0.011-2.969-0.015-5.937-0.019-8.906-6e-3 -2.124-0.013-4.247-0.02-6.371-0.017-5.777-0.028-11.553-0.036-17.33-5e-3 -3.606-0.011-7.212-0.017-10.817-0.02-11.272-0.034-22.544-0.042-33.816-0.01-13.03-0.036-26.06-0.077-39.09-0.03-10.061-0.045-20.122-0.048-30.184-2e-3 -6.014-0.011-12.029-0.036-18.043-0.023-5.654-0.028-11.307-0.018-16.961 1e-3 -2.079-5e-3 -4.158-0.019-6.237-0.018-2.83-0.011-5.659 2e-3 -8.489-2e-3 -1.587-4e-3 -3.173-7e-3 -4.807 0.164-1.232 0.327-2.464 0.495-3.734 4.282-3.212 5.113-3.381 10.174-3.42z"/>
<path transform="translate(738.1 160.61)" d="m0 0c1.475-9e-3 2.95-0.019 4.469-0.029 1.597 6e-3 3.194 0.012 4.839 0.019 0.817-2e-3 0.817-2e-3 4.95-9e-3 3.458-4e-3 6.915 2e-3 10.373 0.016 4.438 0.017 8.875 7e-3 13.313-0.011 4.226-0.013 8.451-4e-3 12.677 4e-3 1.599-6e-3 3.198-0.012 4.845-0.019 1.472 0.01 2.943 0.019 4.46 0.029 1.301 2e-3 2.602 5e-3 3.943 7e-3 0.999 0.126 1.999 0.252 3.029 0.381 2.461 3.691 2.238 5.611 2.188 10-7e-3 1.238-0.013 2.475-0.02 3.75-0.168 3.25-0.168 3.25-1.168 6.25-4.335 2.168-10.441 1.384-15.281 1.518-4.573 0.169-7.572 0.409-11.719 2.482-1.543 3.087-1.115 6.008-1.107 9.445 2e-3 1.599 3e-3 3.199 5e-3 4.847 7e-3 1.786 0.014 3.572 0.02 5.357 4e-3 1.871 7e-3 3.742 0.01 5.612 6e-3 4.037 0.016 8.073 0.028 12.109 0.018 6.383 0.027 12.766 0.036 19.149 0.024 18.153 0.06 36.306 0.104 54.459 0.025 10.02 0.042 20.04 0.052 30.06 6e-3 6.343 0.022 12.687 0.044 19.031 0.012 3.951 0.015 7.902 0.016 11.853 2e-3 1.831 8e-3 3.661 0.017 5.492 0.012 2.502 0.011 5.004 9e-3 7.507 3e-3 1.399 6e-3 2.799 9e-3 4.241-0.249 3.932-0.857 7.151-2.243 10.838-3.802 2.535-6.459 2.504-11 2.813-1.423 0.109-2.846 0.219-4.312 0.332-3.688-0.145-3.688-0.145-6.688-3.145-1.05-4.2-1.139-7.671-1.158-11.998-2e-3 -0.406-2e-3 -0.406-0.015-2.46-0.015-2.724-0.024-5.448-0.032-8.172-0.01-1.951-0.02-3.902-0.03-5.854-0.027-5.301-0.048-10.602-0.068-15.903-0.022-5.539-0.049-11.078-0.076-16.616-0.05-10.49-0.095-20.981-0.138-31.471-0.05-11.941-0.104-23.883-0.16-35.825-0.114-24.567-0.221-49.134-0.323-73.701-0.746-0.024-0.746-0.024-4.523-0.148-1.951-0.075-3.901-0.151-5.852-0.227-0.985-0.031-1.969-0.062-2.984-0.094-7.414-0.304-7.414-0.304-9.641-2.531-0.893-3.574-1.195-6.41-1.25-10.062-0.026-1.043-0.051-2.086-0.078-3.16 0.755-6.393 5.091-6.156 10.43-6.166z"/>
<path transform="translate(1448.8 160.61)" d="m0 0c0.693-5e-3 0.693-5e-3 4.197-0.029 0.747 3e-3 0.747 3e-3 4.53 0.019 1.536-3e-3 3.072-6e-3 4.655-9e-3 4.083-3e-3 8.167 0.01 12.25 0.026 4.147 0.01 8.294-0.013 12.441-0.029 3.155 2e-3 6.311 6e-3 9.466 0.012 1.493-6e-3 2.986-0.012 4.524-0.019 1.388 0.01 2.776 0.019 4.207 0.029 1.22 2e-3 2.44 5e-3 3.698 7e-3 3.547 0.418 5.455 1.15 8.231 3.381 0.629 3.469 0.629 3.469 0.563 7.5 1e-3 1.33 3e-3 2.661 4e-3 4.031-0.567 3.469-0.567 3.469-4.567 6.469-4.187 0.442-4.187 0.442-9 0.563-8.584 0.23-8.584 0.23-13 2.437-1.543 3.087-1.115 6.008-1.106 9.445 1e-3 1.599 3e-3 3.199 4e-3 4.847 7e-3 1.786 0.014 3.572 0.021 5.357 3e-3 1.871 6e-3 3.742 9e-3 5.612 7e-3 4.037 0.016 8.073 0.028 12.109 0.018 6.383 0.028 12.766 0.036 19.149 0.024 18.153 0.06 36.306 0.104 54.459 0.025 10.02 0.042 20.04 0.052 30.06 7e-3 6.343 0.022 12.687 0.044 19.031 0.012 3.951 0.015 7.902 0.016 11.853 3e-3 1.831 8e-3 3.661 0.017 5.492 0.013 2.502 0.011 5.004 9e-3 7.507 3e-3 1.399 7e-3 2.799 0.01 4.241-0.249 3.932-0.858 7.151-2.244 10.838-3.802 2.535-6.459 2.504-11 2.813-1.423 0.109-2.846 0.219-4.312 0.332-3.688-0.145-3.688-0.145-6.688-3.145-1.049-4.2-1.139-7.671-1.158-11.998-2e-3 -0.406-2e-3 -0.406-0.015-2.46-0.015-2.724-0.023-5.448-0.032-8.172-9e-3 -1.951-0.019-3.902-0.03-5.854-0.027-5.301-0.048-10.602-0.068-15.903-0.022-5.539-0.049-11.078-0.076-16.616-0.05-10.49-0.095-20.981-0.138-31.471-0.049-11.941-0.104-23.883-0.16-35.825-0.113-24.567-0.22-49.134-0.323-73.701-1.469-0.037-2.939-0.075-4.453-0.113-1.932-0.066-3.864-0.132-5.797-0.199-0.484-0.012-0.484-0.012-2.933-0.069-0.935-0.035-1.869-0.071-2.832-0.107-0.859-0.026-1.718-0.052-2.603-0.079-2.382-0.433-2.382-0.433-6.382-3.433-0.75-3.469-0.75-3.469-1-7.5-0.103-1.33-0.206-2.66-0.312-4.031 0.103-1.145 0.206-2.289 0.312-3.469 4.435-3.326 5.487-3.378 10.801-3.388z"/>
<path transform="translate(1570 160.73)" d="m0 0c0.485-1e-3 0.485-1e-3 2.938-8e-3 1.01 8e-3 2.021 0.016 3.062 0.024 1.011-8e-3 2.021-0.016 3.062-0.024 0.97 3e-3 1.939 5e-3 2.938 8e-3 0.887 2e-3 1.774 5e-3 2.688 7e-3 2.312 0.259 2.312 0.259 5.312 2.259 0.38 3.636 0.38 3.636 0.388 8.483 5e-3 0.888 0.01 1.776 0.016 2.692 0.014 2.995 7e-3 5.989 0 8.984 6e-3 2.14 0.013 4.28 0.021 6.42 0.018 5.826 0.017 11.653 0.011 17.479-3e-3 4.859 3e-3 9.717 9e-3 14.576 0.014 11.46 0.012 22.921 1e-3 34.381-0.011 11.834 3e-3 23.667 0.029 35.5 0.023 10.149 0.029 20.298 0.023 30.446-3e-3 6.066-1e-3 12.132 0.017 18.198 0.015 5.706 0.011 11.411-8e-3 17.116-3e-3 2.096 0 4.192 0.01 6.288 0.013 2.858 2e-3 5.715-0.016 8.573v4.849c-0.545 4.37-1.312 6.044-4.501 9.015-4.046 1.348-7.738 1.286-12 1.375-1.609 0.049-3.217 0.098-4.875 0.148-4.125-0.523-4.125-0.523-5.859-2.5-1.716-4.098-1.644-7.481-1.647-11.925-5e-3 -0.897-9e-3 -1.795-0.014-2.719-0.012-3.006-3e-3 -6.012 7e-3 -9.019-4e-3 -2.155-0.01-4.31-0.016-6.465-0.014-5.853-8e-3 -11.706 1e-3 -17.559 8e-3 -6.118 1e-3 -12.237-4e-3 -18.355-6e-3 -10.272 2e-3 -20.544 0.016-30.816 0.016-11.889 0.011-23.779-6e-3 -35.669-0.013-10.197-0.015-20.395-7e-3 -30.593 4e-3 -6.096 5e-3 -12.191-5e-3 -18.287-9e-3 -5.727-3e-3 -11.453 0.015-17.18 4e-3 -2.106 3e-3 -4.213-4e-3 -6.32-8e-3 -2.865 2e-3 -5.73 0.017-8.595 1e-3 -1.607 2e-3 -3.214 3e-3 -4.869 0.125-1.205 0.25-2.411 0.378-3.652 3.259-2.173 4.226-2.256 8-2.266z"/>
<path transform="translate(1540.1 450.8)" d="m0 0c6.003 3.786 10.44 7.671 14.879 13.203 0.727 0.639 1.454 1.279 2.203 1.938 5.374 6.168 5.321 18.238 5.086 26.14-0.705 7.127-1.736 14.907-7.289 19.922h-2l-2 4c-5.246 6.095-12.778 9.26-20.59 10.629-10.953 0.549-22.701-2.745-31.137-9.961-7.595-8.914-11.859-17.901-11.273-29.668 0.031-0.963 0.062-1.926 0.094-2.918 0.912-9.386 5.158-17.716 10.906-25.082 11.638-9.166 26.76-14.465 41.121-8.203zm-36.059 14.891c-6.118 9.827-8.28 17.596-7.062 29.312 1.125 3.875 1.125 3.875 3 7 0.39 0.726 0.781 1.452 1.183 2.199 4.172 7.149 9.997 11.195 17.817 13.801 10.938 1.588 19.047-1.767 28-8 7.019-7.538 7.514-16.582 7.285-26.437-0.602-7.516-2.737-13.246-8.285-18.563-14.12-9.999-28.319-11.772-41.938 0.688z"/>
<path transform="translate(963.96 450.63)" d="m0 0c8.631 5.224 17.021 12.234 20.254 22.059 0.905 4.965 1.116 9.649 1.098 14.683 0.016 0.882 0.032 1.764 0.048 2.672 6e-3 7.932-0.982 16.366-6.736 22.328-0.282 0.303-0.282 0.303-1.711 1.836-7.442 6.957-15.607 12.059-25.976 12.664-6.519-0.283-12.061-1.979-18.063-4.375-0.403-0.157-0.403-0.157-2.442-0.95-6-2.639-8.386-5.872-11.433-11.55-0.443-0.577-0.443-0.577-2.687-3.5-4.775-7.227-4.981-15.087-4.313-23.5 1.912-9.322 6.072-19.769 13.43-26.086 2.465-1.513 4.933-2.731 7.57-3.914 1.32-0.784 2.64-1.567 4-2.375 8.405-3.466 18.626-3.428 26.961 8e-3zm-36.398 17.367c-6.163 9.62-8.551 16.552-7.563 28 1.688 4.375 1.688 4.375 4 8 0.309 0.578 0.309 0.578 1.875 3.5 5.517 6.179 13.74 11.81 22.25 12.375 10.371-1.861 18.778-7.126 25.625-15.062 5.083-8.613 5.389-18.857 3.188-28.438-3.95-8.918-10.862-15.623-19.938-19.375-12.231-2.274-21.764 1.226-29.437 11z"/>
<path transform="translate(1667,451)" d="m0 0c3 1 3 1 4 3 0.102 2.016 0.138 4.036 0.145 6.054 7e-3 1.272 0.013 2.543 0.02 3.853 1e-3 1.381 2e-3 2.761 3e-3 4.183 2e-3 0.705 2e-3 0.705 0.01 4.274 5e-3 2.989 7e-3 5.977 7e-3 8.966 2e-3 4.585 0.021 9.169 0.04 13.754 3e-3 2.898 5e-3 5.796 5e-3 8.693 8e-3 1.379 0.015 2.757 0.022 4.177-3e-3 1.274-6e-3 2.549-9e-3 3.862 1e-3 1.124 3e-3 2.249 4e-3 3.407-0.247 2.777-0.247 2.777-2.247 5.777-2.25 0.188-2.25 0.188-5-1-1.455-1.922-2.906-3.847-4.325-5.796-2.649-3.486-5.662-6.575-8.726-9.696-0.658-0.672-1.316-1.344-1.994-2.037-1.383-1.406-2.769-2.809-4.158-4.209-2.11-2.137-4.194-4.297-6.279-6.457-1.355-1.372-2.711-2.741-4.069-4.11-0.613-0.642-1.225-1.285-1.857-1.947-4.706-4.66-8.241-5.833-14.592-6.748-0.015 1.251-0.029 2.503-0.044 3.792-0.058 4.644-0.135 9.288-0.218 13.933-0.034 2.009-0.062 4.019-0.084 6.029-0.034 2.89-0.086 5.779-0.142 8.668-3e-3 0.449-3e-3 0.449-0.02 2.721-0.118 5.015-0.374 6.699-3.492 10.857l-4-1c-1.398-2.797-1.135-5.109-1.145-8.238-7e-3 -1.312-0.013-2.623-0.02-3.974-1e-3 -1.424-2e-3 -2.848-3e-3 -4.315-3e-3 -1.455-7e-3 -2.91-0.01-4.409-5e-3 -3.083-7e-3 -6.166-7e-3 -9.248-2e-3 -4.73-0.021-9.459-0.04-14.189-3e-3 -2.989-5e-3 -5.978-5e-3 -8.967-8e-3 -1.422-0.015-2.844-0.022-4.309 3e-3 -1.314 6e-3 -2.629 9e-3 -3.984-1e-3 -1.159-3e-3 -2.319-4e-3 -3.514 0.247-2.853 0.247-2.853 2.247-5.853 4.358 1.357 6.205 3.093 8.875 6.75 2.439 3.198 4.766 6.007 7.875 8.562 3.25 2.688 3.25 2.688 5.188 5.126 1.866 2.319 3.679 4.021 5.937 5.937 3.792 3.236 6.93 6.791 10.125 10.625 1.648 1.685 3.309 3.358 5 5l1 1c2.662 0.369 5.329 0.703 8 1-5e-3 -0.983-0.01-1.966-0.016-2.978-0.021-4.487-0.034-8.973-0.046-13.46-9e-3 -1.546-0.017-3.092-0.026-4.685-0.034-15.984-0.034-15.984 1.088-21.877l3-3z"/>
<path transform="translate(1786.2 450.69)" d="m0 0c5.31 0.088 9.128 0.636 13.812 3.312 1.073 0.599 2.145 1.197 3.25 1.813 4.151 3.302 5.362 6.543 6.563 11.625 0.21 3.992-0.676 6.751-1.813 10.562-0.437 4.126-0.437 4.126 0 8 2.25 2.5 2.25 2.5 5 5 4.008 6.391 4.65 10.665 4 18-1.6 5.222-3.318 8.151-8 11-6.566 2.815-12.554 3.454-19.667 3.79-3.333 0.21-3.333 0.21-6.571 0.921-0.911 0.096-1.823 0.191-2.762 0.289-5.88-5.88-4.159-17.113-4.167-25.105-2e-3 -0.562-2e-3 -0.562-0.011-3.404-5e-3 -2.359-7e-3 -4.718-7e-3 -7.077-2e-3 -3.601-0.02-7.201-0.039-10.802-3e-3 -2.302-5e-3 -4.603-6e-3 -6.904-7e-3 -1.07-0.014-2.14-0.022-3.243 0.054-17.741 0.054-17.741 10.44-17.777zm-1.188 8.312c-1.208 7.518-1.904 14.251 0.5 21.563 2.5 3.437 2.5 3.437 6.376 4.375 4.124-0.938 4.124-0.938 7.624-3.938 2.893-4.628 3.337-6.647 2.5-12-1.984-4.252-4.099-8.291-8-11-7.444-0.555-7.444-0.555-9 1zm1.563 32.75c-3.366 7.002-3.403 13.987-1.5 21.376 1.937 2.874 1.937 2.874 4.937 3.5 12.981-2.029 12.981-2.029 17.688-5.75 1.909-4.182 1.817-7.338 1.312-11.876-2.698-4.947-7.066-7.46-12-10-6.996-1.131-6.996-1.131-10.437 2.75z"/>
<path transform="translate(1187 450.9)" d="m0 0c1.392 3e-3 2.784 6e-3 4.219 0.01 0.731 4e-3 0.731 4e-3 4.429 0.025 1.47 5e-3 2.94 9e-3 4.454 0.014 3.64 0.012 7.281 0.028 10.921 0.049 0.625 2.375 0.625 2.375 1 5-2.69 2.69-4.913 2.803-8.625 3.562-1.256 0.262-2.513 0.524-3.808 0.793-3.567 0.645-3.567 0.645-8.254 1.02-3.313 0.625-3.313 0.625-5.313 2.687-1.312 3.856-1.385 6.89-1 10.938 3 4 3 4 5.313 4.59 0.443 0.022 0.443 0.022 2.687 0.132 0.97 0.064 1.939 0.128 2.938 0.194 1.011 0.048 2.021 0.096 3.062 0.146 2.001 0.104 4.001 0.219 6 0.348 0.887 0.042 1.774 0.085 2.688 0.129 2.312 0.461 2.312 0.461 5.312 3.461-1 3-1 3-3 4-4.456 0.234-8.908 0.395-13.369 0.517-7.31 0.269-7.31 0.269-10.631 2.483-0.969 3.877-1.166 7.021-1.187 11-7e-3 0.608-7e-3 0.608-0.043 3.687 0.23 3.313 0.23 3.313 2.23 7.313 2.653 1.011 2.653 1.011 5.938 1.687 1.16 0.24 2.32 0.48 3.516 0.727 3.252 0.537 6.448 0.896 9.734 1.148 4.812 0.438 4.812 0.438 6.812 2.438-0.375 2.625-0.375 2.625-1 5h-5l-2-2c-3.519-0.047-3.519-0.047-7.812 0.25-1.409 0.087-2.818 0.175-4.27 0.265-3.428 0.424-5.796 1.13-8.918 2.485-3.187-0.063-3.187-0.063-6-1-1.978-3.718-2.252-6.907-2.258-11.072-7e-3 -1.202-0.013-2.403-0.019-3.641 4e-3 -1.29 8e-3 -2.58 0.012-3.908-2e-3 -1.333-4e-3 -2.666-6e-3 -4.039-1e-3 -2.817 2e-3 -5.633 0.011-8.45 0.01-4.308 0-8.616-0.013-12.924 1e-3 -2.737 4e-3 -5.475 8e-3 -8.212-4e-3 -1.288-8e-3 -2.576-0.012-3.902 6e-3 -1.205 0.012-2.41 0.019-3.651 1e-3 -1.055 3e-3 -2.11 4e-3 -3.198 0.279-3.293 0.99-5.954 2.254-9.003 2.974-1.487 5.663-1.111 8.977-1.098z"/>
<path transform="translate(861,449)" d="m0 0c3.893 1.946 5.927 3.927 9 7v5l-1 1c-3.833-0.307-6.72-0.863-10.188-2.562-5.327-2.009-10.184-2.264-15.812-1.438-3.25 2.062-3.25 2.062-6 5-2.017 1.629-4.043 3.247-6.07 4.863-6.591 7.298-6.694 15.22-6.379 24.543 0.736 7.528 2.973 12.062 8.199 17.406 1.072 0.722 2.145 1.444 3.25 2.188 1.361 0.928 2.722 1.856 4.125 2.812 5.472 2.921 10.807 3.144 16.875 2.188 3.938-2 3.938-2 7-4h5l2 2c-0.039 2.914-0.039 2.914-1 6-5.412 4.399-12.731 7.209-19.738 6.77-9.611-2.268-20.869-6.623-26.7-14.958-0.886-1.586-1.745-3.189-2.562-4.812-0.763-1.052-1.526-2.104-2.312-3.188-4.993-8.321-4.99-19.72-2.813-29.031 3.128-7.733 8.171-15.518 15.496-19.711 3.379-1.258 3.379-1.258 6.707-2.218 2.922-0.852 2.922-0.852 6.422-3.164 5.389-2.599 10.626-2.452 16.5-1.688z"/>
<path transform="translate(1309,453)" d="m0 0c2 3 2 3 1.875 5.625-0.289 0.784-0.578 1.567-0.875 2.375l-4 1c-0.75-0.625-1.5-1.25-2.273-1.895-4.531-3.498-9.088-2.823-14.625-2.691-7.286 1.041-12.492 4.579-17.262 10.074-6.35 8.669-7.384 16.16-6.5 26.582 1.086 6.467 3.114 11.161 7.66 15.93 6.259 4.254 13.354 8.295 21.062 8.812 4.652-0.959 7.176-2.991 10.938-5.812 2.875-0.125 2.875-0.125 5 1 1 2.375 1 2.375 1 5-5.185 5.185-12.386 5.746-19.5 6.438-9.881-0.961-19.106-4.151-25.594-11.958-6.236-8.258-9.431-14.838-9.344-25.355-0.019-0.847-0.039-1.694-0.06-2.566 5e-3 -6.482 1.548-10.792 4.498-16.559 0.495-1.014 0.99-2.029 1.5-3.074 4.402-7.67 9.323-10.811 17.5-13.926 1.134-0.454 2.269-0.908 3.438-1.375 8.933-1.567 17.231-1.312 25.562 2.375z"/>
<path transform="translate(1861,452)" d="m0 0c3.729 3.853 5.89 8.411 8.25 13.188 0.706 1.416 1.413 2.833 2.141 4.292 1.609 3.52 1.609 3.52 1.609 5.52 4.722-0.16 7.229-0.281 10.75-3.562 2.25-3.438 2.25-3.438 4.188-7.5 2.214-4.229 4.127-6.288 8.062-8.938 2.812-0.875 2.812-0.875 5-1 1 1 1 1 1.449 3.496-0.669 5.216-3.55 8.418-6.637 12.566-9.472 13.465-12.389 23.402-12.45 39.915-8e-3 1.09-0.017 2.181-0.026 3.304 6e-3 0.981 0.011 1.961 0.017 2.971-0.424 3.297-1.306 5.138-3.353 7.748l-4 1c-3.326-4.435-3.35-5.352-3.223-10.637 0.019-1.3 0.038-2.6 0.057-3.939 0.034-1.357 0.068-2.714 0.104-4.112 0.385-17.012 0.385-17.012-1.938-24.312-1.948-1.727-3.956-3.388-6-5-4.865-6.771-11.289-16.408-10-25 2-1 2-1 6 0z"/>
<path transform="translate(1371.9 450.81)" d="m0 0c0.748-6e-3 0.748-6e-3 4.535-0.037 1.43-2e-3 2.859-4e-3 4.332-6e-3 1.319-4e-3 2.637-8e-3 3.996-0.012 3.262 0.243 3.262 0.243 6.262 2.243-0.432 4.432-0.432 4.432-2 6-0.722 0.02-0.722 0.02-4.375 0.124-0.763 0.145-0.763 0.145-4.625 0.876-3.792 6.014-3.441 12.304-3.441 19.171-0.014 1.16-0.027 2.319-0.04 3.514-0.041 3.688-0.063 7.376-0.082 11.065-0.023 3.702-0.051 7.405-0.091 11.107-0.025 2.301-0.04 4.601-0.044 6.901-0.01 1.039-0.02 2.077-0.031 3.147-4e-3 0.914-8e-3 1.827-0.013 2.769-0.258 2.326-0.258 2.326-2.258 5.326-1.32-0.331-2.64-0.66-4-1-1.916-3.458-2.25-6.464-2.255-10.37-7e-3 -1.048-0.014-2.096-0.021-3.175 1e-3 -1.121 2e-3 -2.242 3e-3 -3.397-0.021-2.381-0.042-4.762-0.063-7.142-0.023-3.749-0.039-7.497-0.045-11.245-9e-3 -3.622-0.043-7.242-0.08-10.863 5e-3 -1.123 0.01-2.246 0.015-3.403-0.013-1.045-0.026-2.089-0.04-3.166-3e-3 -0.917-6e-3 -1.835-8e-3 -2.78-0.669-3.25-1.917-4.44-4.506-6.459-2.323-0.401-4.657-0.74-7-1-0.66-0.661-1.32-1.32-2-2 1.145-9.391 10.085-6.185 17.875-6.188z"/>
<path transform="translate(1034,452)" d="m0 0c4.556 0.556 4.556 0.556 6 2 0.107 1.692 0.146 3.388 0.158 5.083 0.01 1.085 0.02 2.17 0.031 3.288 7e-3 1.182 0.014 2.364 0.022 3.582 0.028 2.481 0.057 4.961 0.086 7.442 0.041 3.928 0.078 7.856 0.104 11.784 0.028 3.779 0.074 7.558 0.122 11.337 4e-3 1.174 7e-3 2.348 0.01 3.558 0.017 1.097 0.033 2.195 0.05 3.325 5e-3 0.482 5e-3 0.482 0.025 2.918 0.468 3.205 1.457 5.101 3.392 7.683 2.848 0.855 2.848 0.855 6.062 1.188 5.761 0.635 5.761 0.635 7.938 2.812v4c-2.872 1.436-5.553 1.311-8.75 1.5-3.608 0.215-6.983 0.441-10.516 1.219-0.902 0.093-1.804 0.185-2.734 0.281-4.124-4.124-4.127-6.666-4.145-12.276-7e-3 -1.294-0.013-2.589-0.02-3.923-1e-3 -1.4-2e-3 -2.8-3e-3 -4.242-3e-3 -1.434-7e-3 -2.868-0.01-4.345-5e-3 -3.034-7e-3 -6.068-7e-3 -9.101-2e-3 -4.66-0.021-9.319-0.04-13.978-3e-3 -2.942-5e-3 -5.884-5e-3 -8.826-4e-3 -0.701-4e-3 -0.701-0.022-4.249 3e-3 -1.292 6e-3 -2.583 9e-3 -3.914-1e-3 -1.141-3e-3 -2.282-4e-3 -3.458 0.247-2.688 0.247-2.688 2.247-4.688z"/>
<path transform="translate(1108,451)" d="m0 0c2.501 2.103 3.866 3.302 4.492 6.567-3e-3 0.967-6e-3 1.935-0.01 2.933 7e-3 1.101 0.014 2.202 0.021 3.337-0.011 1.186-0.023 2.371-0.034 3.593 7e-3 1.223 0.014 2.446 0.021 3.706 0.03 5.235 0.013 10.47 1e-3 15.705-3e-3 3.822 0.018 7.642 0.04 11.464-0.011 1.181-0.022 2.363-0.034 3.58 0.065 10.563 0.065 10.563 4.503 15.115 3.949 0.585 6.487 0.178 10.25-1.125 0.908-0.289 1.815-0.577 2.75-0.875l3 2c-0.432 4.432-0.432 4.432-2 6-3.693 0.074-7.377-4e-3 -11.07-0.062-3.93 0.062-3.93 0.062-7.774 0.695-1.041 0.121-2.083 0.242-3.156 0.367-3.395-3.037-4.332-5.608-5-10-0.093-1.905-0.138-3.813-0.145-5.721-7e-3 -1.124-0.013-2.249-0.02-3.408-1e-3 -1.205-2e-3 -2.41-3e-3 -3.652-3e-3 -1.246-7e-3 -2.493-0.01-3.777-5e-3 -2.632-7e-3 -5.265-7e-3 -7.898-2e-3 -4.029-0.021-8.058-0.04-12.087-3e-3 -2.559-5e-3 -5.117-5e-3 -7.676-8e-3 -1.205-0.015-2.41-0.022-3.652 3e-3 -1.125 6e-3 -2.25 9e-3 -3.408-1e-3 -0.987-3e-3 -1.973-4e-3 -2.989 0.267-2.948 0.919-5.093 2.247-7.732l2-1z"/>
<path transform="translate(1437,454)" d="m0 0 4 2c0.508 2.581 0.508 2.581 0.518 5.887 0.012 1.234 0.025 2.469 0.038 3.741-8e-3 1.34-0.016 2.679-0.025 4.06 4e-3 1.368 8e-3 2.737 0.012 4.147 3e-3 2.898-5e-3 5.797-0.022 8.695-0.021 4.452 0 8.901 0.026 13.353-3e-3 2.81-8e-3 5.62-0.016 8.429 8e-3 1.34 0.016 2.68 0.025 4.06-0.013 1.235-0.025 2.469-0.038 3.741-4e-3 1.091-7e-3 2.182-0.01 3.306-0.168 0.852-0.335 1.704-0.508 2.581l-4 2c-2.299-3.448-2.253-4.74-2.259-8.801-6e-3 -1.191-0.012-2.382-0.019-3.61 4e-3 -1.287 8e-3 -2.575 0.012-3.901-2e-3 -1.321-3e-3 -2.641-5e-3 -4.002-2e-3 -2.794 2e-3 -5.588 0.01-8.382 0.011-4.287 0-8.572-0.012-12.859 1e-3 -2.711 3e-3 -5.422 7e-3 -8.133-2e-3 -0.643-2e-3 -0.643-0.012-3.901 6e-3 -1.191 0.013-2.383 0.019-3.61 2e-3 -1.05 3e-3 -2.101 5e-3 -3.183 0.254-2.618 0.254-2.618 2.254-5.618z"/>
</svg>
