<?xml version="1.0" encoding="UTF-8"?>
<svg version="1.1" viewBox="0 0 2904 1352" xmlns="http://www.w3.org/2000/svg">
<path transform="translate(203,508)" d="m0 0c4.966 1.241 7.213 3.618 11 7l4 3c5.318 13.191 5.774 27.451 6.28 41.487 0.299 7.455 0.889 13.594 3.72 20.513 0.339 0.919 0.678 1.838 1.027 2.785 1.564 3.913 3.181 7.607 5.161 11.34 3.864 8.261 3.844 18.891 2.812 27.875-2.341 3.82-3.254 4.794-7.625 6-1.114 0.33-2.227 0.66-3.375 1-1.312 2.5-1.312 2.5-2 5l-2 2c-3 0-3 0-6-1-0.134-0.485-0.134-0.485-0.812-2.938-0.392-1.01-0.784-2.021-1.188-3.062-2.996-0.685-5.996-1.351-9-2-5.038-5.783-5.494-12.654-6.777-19.98-1.223-4.02-1.223-4.02-3.664-5.883-0.845-0.375-1.689-0.751-2.559-1.137-2.952-2.952-3.549-3.941-4.625-7.75-0.126-0.442-0.126-0.442-0.766-2.68-0.609-2.57-0.609-2.57-0.984-6.445-0.814-4.072-2.254-4.826-5.625-7.125-3.655-3.06-4.868-4.377-5.875-9.125-0.186-0.639-0.186-0.639-1.125-3.875-3.312-1.812-3.312-1.812-7-3-2.756-1.566-5.362-3.241-8-5-4.562-0.438-4.562-0.438-9 0-1.438 1.938-1.438 1.938-2 5-0.337 1.305-0.673 2.609-1.02 3.953-1.249 5.628-1.255 11.11-1.227 16.854-1e-3 0.581-1e-3 0.581-8e-3 3.521-5e-3 3.88 3e-3 7.76 0.012 11.639-1e-3 2.789-3e-3 5.577-6e-3 8.366-5e-3 7.571 3e-3 15.143 0.013 22.714 9e-3 7.951 7e-3 15.901 7e-3 23.852 1e-3 13.375 9e-3 26.749 0.023 40.124 0.014 13.695 0.021 27.391 0.021 41.086v2.546c0 0.42 0 0.42-1e-3 2.543 0 16.452 7e-3 32.904 0.016 49.355 2e-3 4.703 3e-3 9.405 3e-3 14.108 1e-3 7.451 7e-3 14.902 0.017 22.354 3e-3 2.709 4e-3 5.418 4e-3 8.127-2e-3 14.347 0.127 28.69 0.468 43.034 0.021 1.338 0.043 2.677 0.066 4.056 0.017 0.617 0.017 0.617 0.105 3.742 0.013 0.547 0.013 0.547 0.077 3.313 0.43 2.713 0.43 2.713 3.43 5.713 0.402 0.113 0.402 0.113 2.438 0.688 3.905 2 4.695 5.458 6.562 9.312 5.729 2.864 9.412 2.322 15.625 1.062 5.698-2.686 6.87-5.559 9.375-11.062 0.509-0.724 1.018-1.448 1.543-2.194 1.844-3.552 1.834-6.06 1.838-10.055 4e-3 -0.741 4e-3 -0.741 0.026-4.487-6e-3 -1.62-0.013-3.24-0.019-4.909 4e-3 -1.726 0.01-3.453 0.016-5.179 0.014-4.686 8e-3 -9.372-1e-3 -14.058-8e-3 -4.904-1e-3 -9.807 4e-3 -14.711 6e-3 -8.235-2e-3 -16.47-0.016-24.705-0.016-9.521-0.011-19.042 6e-3 -28.562 0.013-8.175 0.015-16.349 7e-3 -24.523-4e-3 -4.882-5e-3 -9.764 5e-3 -14.647 9e-3 -4.59 3e-3 -9.179-0.015-13.769-6e-3 -2.489 3e-3 -4.977 0.013-7.465-9e-3 -1.481-0.017-2.961-0.026-4.487-1e-3 -1.287-2e-3 -2.573-3e-3 -3.899-0.408-3.62-1.164-5.485-3.378-8.35-0.99-0.557-1.98-1.114-3-1.688-3.827-2.949-4.287-5.337-5.395-9.91-0.605-2.402-0.605-2.402-2.043-5.277-0.185-0.701-0.371-1.403-0.562-2.125 1.344-2.043 1.344-2.043 4-4 4.232-0.803 8.365-1.291 12.646-1.689 5.857-0.683 8.666-1.699 12.354-6.311 3.258-3.779 5.601-4.692 10.5-5.625 4.021-0.784 6.789-1.52 10.5-3.375 0.619-0.99 1.238-1.98 1.875-3 3.161-4.463 6.321-4.666 11.5-5.625 8.371-0.866 15.048-0.189 22.625 3.625 5.815 8.723 3.122 25.092 3.062 35.34-6e-3 2.432-0.013 4.865-0.018 7.298-8e-3 2.616-0.017 5.232-0.026 7.847-0.033 9.573-0.039 19.146-0.041 28.718-1e-3 1.03-1e-3 2.061-1e-3 3.122-4e-3 26.894 0.146 53.787 0.341 80.681 0.04 5.444 0.074 10.889 0.105 16.333 0.036 6.478 0.083 12.956 0.136 19.433 0.018 2.4 0.034 4.8 0.045 7.2 0.017 3.313 0.046 6.626 0.078 9.939 2e-3 0.952 4e-3 1.903 7e-3 2.884 0.222 18.115 0.222 18.115 5.312 23.205 4.182 1.046 7.758 1.203 12.062 1.25 1.415 0.026 2.829 0.052 4.286 0.078 3.652-0.328 3.652-0.328 6.652-3.328 0.309-1.464 0.619-2.929 0.938-4.438 1.044-4.484 1.468-5.92 5.062-8.562l4-2c0.501-2.813 0.501-2.813 0.501-6.482 0.01-1.386 0.02-2.773 0.03-4.201-0.01-1.531-0.019-3.062-0.029-4.64 5e-3 -1.604 0.011-3.209 0.016-4.863 0.014-4.414 3e-3 -8.827-0.014-13.241-0.013-4.619-7e-3 -9.237-3e-3 -13.856 2e-3 -7.766-0.011-15.531-0.034-23.296-0.027-8.966-0.029-17.932-0.017-26.898 0.011-8.628 5e-3 -17.256-0.01-25.885-5e-3 -3.668-5e-3 -7.337-1e-3 -11.005 6e-3 -5.135-0.013-10.27-0.035-15.405 5e-3 -1.516 9e-3 -3.033 0.014-4.596-0.118-16.683-0.118-16.683-5.504-23.128-0.755-0.641-1.511-1.281-2.289-1.942-4.113-3.798-6.422-7.387-8.652-12.496-0.973-2.066-0.973-2.066-2.973-4.066v-5c5.242-3.291 11.079-3.702 17.109-4.375 2.891-0.625 2.891-0.625 5.891-3.625 0.278-0.504 0.278-0.504 1.688-3.055 3.09-3.936 5.46-4.151 10.312-5.07 8.53-1.647 8.53-1.647 12-5.875 4.699-5.257 9.153-5.447 16-6 3.709-0.18 7.412-0.268 11.125-0.312 0.469-9e-3 0.469-9e-3 2.84-0.054 2.348 2e-3 4.695 0.171 7.035 0.366 3.61 5.415 3 11.68 3 18 0.285 1.676 0.6 3.348 1 5 9.847 0.441 9.847 0.441 14-3 1.344-1.658 2.676-3.326 4-5 2.333-2 4.667-4 7-6 0.557-0.866 1.114-1.732 1.688-2.625 5.829-5.987 14.866-6.641 22.824-6.871 3.058-1e-3 6.117 0.019 9.176 0.058 1.539-7e-3 3.079-0.014 4.666-0.021 14.902 0.083 14.902 0.083 21.646 3.459 1.875 2.488 1.875 2.488 3 5.312 2.92 6.185 6.091 8.348 12 11.688l3 2c7.907 0.668 7.907 0.668 11.25-1.375 1.635-2.452 2.854-4.847 4.125-7.5 2.245-4.627 4.513-7.9 8.625-11.125 12.807-4.289 32.048-4.776 44.375 0.938 5.632 3.492 8.548 7.24 11.625 13.062 1.722 3.1 2.752 4.807 5.562 7 2.852 2.339 3.512 3.451 4.438 7 0.137 1.687 0.261 3.374 0.375 5.062 0.625 4.938 0.625 4.938 2.375 7.376 2.25 1.562 2.25 1.562 4.875 2.812 3.623 2.67 3.638 5.392 4.375 9.75 0.837 7.473 1.313 14.928 1.684 22.438 0.124 2.382 0.248 4.765 0.373 7.148 0.191 3.712 0.381 7.425 0.565 11.138 0.181 3.613 0.371 7.226 0.562 10.838 0.026 0.55 0.026 0.55 0.158 3.328 0.447 8.272 1.596 16.138 4.096 24.071 5.106 17.342 5.824 34.47 6.466 52.454 0.277 7.44 0.627 14.877 0.971 22.314 0.122 2.703 0.232 5.407 0.341 8.11 0.377 8.868 1.074 17.442 2.784 26.161 1.588-0.082 3.176-0.165 4.812-0.25 0.894-0.046 1.787-0.093 2.708-0.141 2.48-0.609 2.48-0.609 5.48-4.609 0.493-2.826 0.493-2.826 0.655-6.135 0.064-1.253 0.128-2.505 0.195-3.795 0.024-0.671 0.024-0.671 0.15-4.07 0.051-1.343 0.103-2.686 0.155-4.07 0.152-4.587 0.267-9.174 0.372-13.762 0.011-0.433 0.011-0.433 0.062-2.624 0.6-25.74 0.776-51.486 0.973-77.232 0.021-2.636 0.042-5.272 0.063-7.909 0.275-35.406 0.497-70.812 0.551-106.22 7e-3 -4.262 0.017-8.523 0.032-12.785 0.065-19.891-0.016-39.757-0.97-59.629-0.03-0.73-0.03-0.73-0.184-4.419-0.453-8.001-1.645-14.095-5.054-21.351-0.474-1.423-0.949-2.846-1.438-4.312-1.562-3.688-1.562-3.688-4.25-6.313-2.312-2.375-2.312-2.375-2.75-5.125 1.527-11.339 1.527-11.339 5.438-15.25 4.038-1.3 8.11-2.358 12.215-3.426 3.785-1.574 3.785-1.574 5.68-4.621 2.105-2.953 2.105-2.953 6.589-4.168 1.753-0.258 3.509-0.498 5.266-0.723 8.244-1.323 12.507-2.994 18.25-9.062 6.664-3.592 11.864-4.634 19.375-4.5 0.888-0.015 1.776-0.031 2.691-0.047 2.582 0.016 2.582 0.016 6.934 0.547 3.129 4.172 3.376 4.797 3.385 9.655 0.01 1.153 0.02 2.305 0.03 3.492-5e-3 1.261-0.01 2.521-0.014 3.82 7e-3 1.33 0.014 2.661 0.021 4.031 0.02 4.407 0.019 8.814 0.019 13.221 0.012 3.056 0.026 6.112 0.04 9.169 0.037 8.054 0.057 16.107 0.072 24.161 0.025 12.893 0.064 25.786 0.122 38.678 0.016 4.512 0.02 9.023 0.023 13.535 0.01 2.757 0.02 5.514 0.031 8.271-3e-3 1.261-5e-3 2.521-8e-3 3.82 7e-3 1.152 0.014 2.304 0.021 3.492 1e-3 1.001 3e-3 2.003 5e-3 3.034 0.253 2.621 0.253 2.621 2.253 6.621 6.517 0.691 11.003-0.62 17-3 9.294-1.649 18.35-1.072 27.688-0.188 1.591 0.151 3.183 0.302 4.824 0.458 5.434 0.884 10.011 1.776 13.426 6.292 1.062 2.438 1.062 2.438 1.062 4.438 0.887 0.227 1.774 0.454 2.688 0.688 4.903 1.942 7.513 4.609 9.75 9.374 1.923 3.616 4.086 4.867 7.562 6.938 2.534 2.534 2.247 3.554 2.375 7.062 0.453 5.849 1.678 9.84 4.625 14.938 0.99 0.445 1.98 0.889 3 1.348 3 1.652 3 1.652 4.426 4.523 2.249 9.048 3.07 17.798 3.359 27.074 0.253 7.404 1.236 14.716 2.215 22.055h8c0.159-0.851 0.317-1.702 0.48-2.578 1.478-7.675 3.104-15.314 4.895-22.922 0.185-0.836 0.369-1.671 0.559-2.532 0.998-4.127 2.093-7.005 4.609-10.452 2.986-4.272 3.65-8.233 4.395-13.266 1.96-11.2 5.626-18.985 13.488-27.273 1.735-2.179 2.478-4.107 3.386-6.727 2.339-4.544 2.558-4.809 7-6.375 0.878-0.28 1.756-0.559 2.661-0.848 2.801-1.138 4.226-2.393 6.277-4.589 6.135-6.489 12.774-7.185 21.262-8.254 5.949-0.823 10.839-1.834 14.988-6.372 2-1.812 2-1.812 5-2.374 3 0.562 3 0.562 4.812 2.874 4.106 5.045 10.554 5.625 16.688 6.563 5.69 0.942 9.603 3.112 14.5 6.125l4 2c2.07 4.14 3.753 7.715 4.625 12.25 2.009 4.018 5.138 4.941 9.16 6.672 2.215 1.078 2.215 1.078 3.215 3.078 0.021 0.701 0.021 0.701 0.125 4.25 1.097 5.956 3.197 7.139 7.875 10.75 6.484 11.781 4.226 31.587 4.312 44.5 9e-3 0.718 9e-3 0.718 0.054 4.353-1e-3 1.358-2e-3 2.716-3e-3 4.116 2e-3 0.605 2e-3 0.605 9e-3 3.67-0.417 3.765-1.383 6.152-3.372 9.361-4.315 2.877-8.667 2.844-13.75 3.438-3.25 0.562-3.25 0.562-6.25 2.562-0.217 0.66-0.217 0.66-1.312 4-1.688 4-1.688 4-4.282 5.16-3.848 0.949-7.681 1.644-11.594 2.278-18.789 3.277-18.789 3.277-22.25 7.624-0.515 0.97-1.031 1.939-1.562 2.938-3.59 1.795-5.534 2.323-9.375 2.812-5.146 0.886-8.029 2.233-11.625 6.188-4.031 6.861-4.155 13.231-3 21 1.744 4.567 3.772 8.804 6.055 13.125 1.945 3.875 1.945 3.875 2.929 7.801 0.336 1.014 0.671 2.029 1.016 3.074 4.375 1.188 4.375 1.188 9 2 3.484 2.384 4.057 4.152 5.562 8.188 0.475 1.258 0.949 2.516 1.438 3.812 4.302 1.434 8.574 1.184 13.062 1.188 0.905 0.012 1.809 0.024 2.741 0.037 6.326 0.013 12.083-0.53 18.197-2.225 1.666-3.331 2.34-5.442 3-9 0.488-2.107 0.988-4.211 1.5-6.312 0.108-0.494 0.108-0.494 0.656-2.989 0.844-2.699 0.844-2.699 3.844-6.699 2.375-0.539 2.375-0.539 5-0.625 3.711-0.144 4.79-0.235 8-2.375 2.477 2.259 4.639 4.272 6.141 7.301 1.412 2.801 2.525 4.574 4.859 6.699 3.635 0.634 3.635 0.634 7.727 0.766 1.359 0.054 2.719 0.109 4.119 0.165 1.041 0.023 2.082 0.045 3.154 0.069 0.023-14.154 0.041-28.308 0.052-42.462 5e-3 -6.575 0.012-13.15 0.023-19.725 0.011-6.367 0.017-12.735 0.02-19.102 2e-3 -2.407 5e-3 -4.813 0.011-7.22 0.027-12.545-0.065-25.079-0.46-37.618-0.013-0.531-0.013-0.531-0.081-3.214-0.313-8.543-1.224-19.318-7.565-25.659-2.993-0.697-5.993-1.365-9-2-1-1-1-1-1.25-4.375 0.25-3.625 0.25-3.625 3.25-6.625 0.722-0.124 0.722-0.124 4.375-0.75 5.678-1.534 6.533-3.439 9.625-8.25 3.811-2.009 7.438-2.35 11.688-2.75 5.995-0.791 9.735-2.34 14.703-5.66 11.023-6.716 24.846-9.079 37.609-8.59 3.539 1.651 4.811 2.716 7 6 0.229 3.184 0.368 6.313 0.438 9.5 0.639 18.577 0.639 18.577 4.562 22.5 2.662 0.369 5.329 0.703 8 1 0.247-1.567 0.495-3.135 0.75-4.75 0.641-3.11 1.133-5.07 2.875-7.75 2.375-1.5 2.375-1.5 6.313-2.125 4.062-1.375 4.062-1.375 5.374-3.402 0.771-1.737 1.53-3.48 2.278-5.227 3.241-6.311 8.642-11.532 15.41-13.746 9.824-2.39 23.245-4.252 33-1 1.997 0.144 3.998 0.221 6 0.25 1.052 0.026 2.104 0.052 3.188 0.078 2.812-0.328 2.812-0.328 5.812-3.328 1.571-7.511 1.152-15.358 1.125-23-2e-3 -0.721-2e-3 -0.721-0.015-4.371-0.024-4.543-0.064-9.086-0.11-13.629-0.013-1.461-0.025-2.922-0.038-4.427-0.047-4.233-0.124-8.465-0.212-12.698-7e-3 -0.636-7e-3 -0.636-0.042-3.852-0.236-8.91-1.292-17.717-4.708-26.023-2.515-2.312-4.915-3.432-8-5-2.219-5.178-0.482-11.697 1-17 3.049-3.049 6.988-3.479 11.062-4.5 0.411-0.106 0.411-0.106 2.491-0.645 4.107-1.053 8.21-2.015 12.365-2.859 4.082-0.996 4.082-0.996 7.332-3.434 5.237-3.578 10.599-4.372 16.75-5.562l4-1c0.674-1.664 1.34-3.331 2-5 4.174-3.948 7.785-5.802 13.5-6.312 3.78 0.337 5.557 0.957 8.5 3.312 1.849 3.699 2.888 7.039 4 11 0.173 0.387 0.173 0.387 1.048 2.346 1.097 3.059 1.195 5.437 1.186 8.684 0 0.605 0 0.605 4e-3 3.669-5e-3 0.66-5e-3 0.66-0.027 4.001-1e-3 1.398-2e-3 2.795-4e-3 4.235-6e-3 4.631-0.027 9.262-0.047 13.893-6e-3 3.226-0.011 6.451-0.016 9.677-0.012 7.64-0.032 15.28-0.057 22.92-0.046 14.446-0.079 28.892-0.104 43.338-0.01 4.727-0.027 9.453-0.045 14.179-0.072 25.957-0.072 25.957 0.831 37.895 0.367 5.033 0.377 10.057 0.356 15.101 2e-3 0.468 2e-3 0.468 0.012 2.837-6e-3 4.228-0.144 8.283-0.633 12.492-0.786 7.603-0.687 15.23-0.707 22.866-2e-3 0.411-2e-3 0.411-9e-3 2.492-0.015 4.375-0.024 8.749-0.028 13.124-5e-3 3.545-0.018 7.089-0.041 10.634-0.122 19.114 0.053 38.038 2.254 57.061 1.536 13.467 0.82 26.843-0.179 40.333-0.922 12.832 0.98 20.244 9.206 30.223 0.919 1.058 1.838 2.117 2.785 3.207 2.215 2.793 2.215 2.793 2.465 5.668-2.141 5.352-6.225 9.1-10.25 13.125-6.295 2.406-12.505 2.389-19.152 2.477-1.173 0.016-2.346 0.032-3.555 0.048-2.48 0.028-4.96 0.05-7.441 0.065-2.51 0.023-5.021 0.064-7.531 0.123-25.212 0.595-25.212 0.595-37.191-6.814-3.179-1.929-5.838-2.819-9.442-3.649-4.688-1.25-4.688-1.25-7.688-5.25 0.188-3.348 0.188-3.348 1-7.062 0.247-1.229 0.495-2.457 0.75-3.723 1.477-3.799 2.629-4.532 6.25-6.215 2.75-1.875 2.75-1.875 5-5 1.416-8.726 1.149-17.799 1.145-26.618 4e-3 -1.293 7e-3 -2.586 0.01-3.918 0.01-4.231 0.012-8.463 0.013-12.694 3e-3 -2.962 7e-3 -5.924 0.01-8.886 6e-3 -6.189 8e-3 -12.378 7e-3 -18.566 0-7.919 0.014-15.837 0.031-23.756 0.011-6.109 0.013-12.218 0.013-18.327 1e-3 -2.92 5e-3 -5.839 0.013-8.759 0.01-4.082 7e-3 -8.164 1e-3 -12.246 3e-3 -0.599 3e-3 -0.599 0.017-3.626-0.031-8.286-1.249-15.561-3.26-23.604-8.038 0.217-10.346 1.089-16 7-4.735 0.095-6.109-1.081-10-4-1.155-0.062-2.31-0.124-3.5-0.188-3.5-0.812-3.5-0.812-5.75-4.124-2.26-5.349-3.506-11.032-4.75-16.688-8.345-0.491-8.345-0.491-11.25 1.688-0.578 0.763-1.155 1.526-1.75 2.312-5.297 5.751-11.455 9.691-18.375 13.25-4.889 3.709-5.362 6.963-6.625 12.75-2.419 7.677-5.174 14.817-9.188 21.812-7.155 12.584-3.975 33.791-3.98 48.02-3e-3 2.253-7e-3 4.506-0.01 6.759-6e-3 4.684-8e-3 9.367-7e-3 14.051 0 6.004-0.014 12.008-0.031 18.013-0.011 4.635-0.013 9.27-0.013 13.905-1e-3 2.215-5e-3 4.431-0.013 6.647-0.01 3.082-7e-3 6.163-1e-3 9.245-3e-3 0.457-3e-3 0.457-0.017 2.766 0.022 4.368 0.268 6.798 2.26 10.782 0.928 0.495 1.856 0.99 2.812 1.5 4.846 3.8 6.515 8.671 8.188 14.5 0.125 4 0.125 4-1 7-2.242 2.185-4.216 3.608-7 5-0.99-0.082-1.98-0.165-3-0.25-0.99 0.082-1.98 0.165-3 0.25-1.25 2.438-1.25 2.438-2 5-2.73 1.365-4.967 1.186-8.023 1.253-1.265 0.03-2.53 0.059-3.833 0.09-0.687 0.013-0.687 0.013-4.164 0.079-0.702 0.014-0.702 0.014-4.26 0.084-2.98 0.057-5.96 0.11-8.94 0.161-4.563 0.082-9.125 0.186-13.688 0.29-2.891 0.052-5.783 0.103-8.674 0.152-0.684 0.017-0.684 0.017-4.145 0.104-1.275 0.017-2.549 0.034-3.862 0.052-1.12 0.021-2.24 0.042-3.393 0.065-3.447-0.377-5.284-1.223-8.018-3.33-0.392-1.011-0.784-2.021-1.188-3.062-1.812-2.938-1.812-2.938-4.113-3.524-0.891-0.116-1.781-0.232-2.699-0.352-2.68-0.382-2.68-0.382-5-1.062-2.802-4.368-3-6.772-3-12-8.236 0.369-8.236 0.369-11.875 3.375-0.701 0.866-1.403 1.733-2.125 2.625-3.272 3.272-5.368 4.073-9.688 5.562-1.249 0.436-2.498 0.872-3.785 1.321-3.527 1.117-3.527 1.117-8.152 2.055-4.342 1.367-4.965 3.33-7.375 7.062-11.194 4.242-26.921 3.556-38-1-3-3.062-3-3.062-5-6-3.7-1.873-7.221-2.395-11.312-2.875-5.586-0.827-9.904-1.964-14.688-5.125-1.701-2.308-3.37-4.641-5-7-3.125-1.75-3.125-1.75-6-3-3.369-3.369-4.365-5.955-6.062-10.375-0.507-1.307-1.014-2.614-1.536-3.961-0.827-2.163-1.635-4.333-2.398-6.519-1.004-2.145-1.004-2.145-4.004-4.083-3.671-2.523-3.904-3.825-5-8.062-0.267-2.329-0.494-4.663-0.688-7-1.016-8.102-3.494-15.343-8.312-22-1.966-1.066-3.963-2.079-6-3-0.309-0.887-0.619-1.774-0.938-2.688-0.35-0.763-0.701-1.526-1.062-2.312-3.566-0.145-3.566-0.145-7 0-0.274 2.771-0.543 5.541-0.812 8.312-0.089 0.899-0.177 1.797-0.268 2.723-0.612 6.344-1.136 12.691-1.615 19.047-0.123 1.573-0.246 3.146-0.372 4.766-0.246 3.168-0.48 6.336-0.704 9.505-0.115 1.464-0.231 2.928-0.35 4.436-0.097 1.317-0.195 2.634-0.295 3.991-0.584 3.22-0.584 3.22-3.584 6.22-1.299 0.186-2.599 0.371-3.938 0.562-1.34 0.475-2.681 0.949-4.062 1.438-2 4.562-2 4.562-2.871 7.258-2.453 5.959-7.643 10.256-12.129 14.742-1.987 0.422-3.99 0.769-6 1.062-3.242 0.715-3.242 0.715-6 1.938-1.947 3.35-2.302 6.113-3 10-10.452 5.226-30.147 3.24-41 0-3.293-2.47-4.114-4.228-6-8-2.61-0.468-5.222-0.928-7.844-1.328-6.196-1.319-12.613-3.841-16.918-8.633-1.939-3.04-3.278-6.151-4.488-9.539-0.289-0.413-0.289-0.413-1.75-2.5-6.696-0.913-11.88 0.497-18 3-3.606 3.606-4.358 6.632-5.84 11.406-1.16 2.594-1.16 2.594-5.16 5.594-1.155 0.082-2.31 0.165-3.5 0.25-3.5 0.75-3.5 0.75-5.938 4.312-0.515 1.135-1.031 2.269-1.562 3.438-2.375-0.125-2.375-0.125-5-1-1.187-3-1.187-3-2-6-2.632-1.316-4.621-1.133-7.562-1.125-0.496-1e-3 -0.496-1e-3 -3.004-8e-3 -3.434 0.133-3.434 0.133-7.063 0.631-7.547 0.853-15.15 0.665-22.734 0.67-1.682 3e-3 -3.363 7e-3 -5.045 0.01-3.507 6e-3 -7.015 8e-3 -10.522 7e-3 -4.493 0-8.987 0.014-13.48 0.031-3.465 0.011-6.93 0.013-10.395 0.013-2.462 1e-3 -4.924 0.012-7.385 0.023-1.492-3e-3 -2.985-6e-3 -4.522-9e-3 -1.314 1e-3 -2.628 3e-3 -3.982 4e-3 -3.306-0.247-3.306-0.247-7.306-2.247-2-3-2-3-2.062-5.75 1.261-3.858 3.382-5.568 6.288-8.297 5.989-6.593 6.352-15.188 6.235-23.652v-3.338c-7e-3 -3.551-0.045-7.1-0.086-10.651-0.016-2.446-0.031-4.893-0.046-7.34-0.104-12.981-0.342-25.95-1.141-38.91-0.07-1.142-0.14-2.284-0.212-3.461-0.764-10.115-2.463-20.157-5.593-29.82-1.586-5.484-2.134-10.608-2.508-16.281-0.04-0.537-0.04-0.537-0.242-3.254-0.561-7.932-0.837-15.861-1.071-23.808-0.677-22.668-0.677-22.668-4.562-30.438-2.991-1.026-5.992-2.024-9-3l-3-2c-7.063-0.673-14.96 5e-3 -21 4-1.641 5.234-2.252 9.997-2.261 15.462-7e-3 1.453-0.014 2.905-0.021 4.401 1e-3 0.787 1e-3 0.787 7e-3 4.767-4e-3 1.69-9e-3 3.379-0.015 5.068-0.013 4.573-0.014 9.145-0.012 13.718 1e-3 3.824-3e-3 7.648-8e-3 11.473-0.011 9.026-0.012 18.052-6e-3 27.079 6e-3 9.295-6e-3 18.59-0.027 27.886-0.018 7.996-0.024 15.992-0.021 23.988 2e-3 4.769 0 9.537-0.014 14.306-0.013 4.487-0.011 8.973 2e-3 13.46 4e-3 2.419-8e-3 4.839-0.019 7.258 0.089 18.619 0.089 18.619 5.622 24.501 0.791 0.498 1.583 0.995 2.398 1.508 4.283 2.759 4.283 2.759 5.375 7.125-2.59 3.318-4.647 4.858-8.562 6.438-3.438 1.562-3.438 1.562-5.063 4.624-2.375 2.938-2.375 2.938-6.746 3.629-1.689-0.012-3.379-0.056-5.067-0.129-0.846-1e-3 -1.692-3e-3 -2.564-5e-3 -4.828-0.102-8.14-0.601-11.998-3.557-7.602-5.43-17.428-5.315-26.438-5.562-5.858-0.185-11.708-0.398-17.554-0.836-0.437-0.033-0.437-0.033-2.648-0.197-3.428-0.588-5.73-2.201-8.36-4.405 2-4 2-4 5-6 1.882-0.441 3.781-0.811 5.688-1.125 0.993-0.168 1.987-0.335 3.011-0.508 0.759-0.121 1.519-0.242 2.301-0.367 0.133-0.88 0.266-1.761 0.402-2.668 0.177-1.161 0.354-2.323 0.536-3.52 0.087-0.574 0.087-0.574 0.527-3.48 0.303-1.886 0.635-3.769 1.06-5.63 0.551-3.133 0.602-6.079 0.604-9.261 3e-3 -1.331 7e-3 -2.662 0.01-4.033-2e-3 -1.457-4e-3 -2.914-6e-3 -4.416 1e-3 -1.545 3e-3 -3.09 4e-3 -4.682 2e-3 -4.255-1e-3 -8.51-8e-3 -12.765-4e-3 -2.669-7e-3 -5.339-0.01-8.008-0.015-13.513-0.061-27.025-0.119-40.537-4e-3 -1.029-9e-3 -2.059-0.013-3.119-0.057-13.604-0.138-27.207-0.251-40.811-0.034-4.038-0.061-8.077-0.082-12.115-0.026-4.781-0.066-9.561-0.117-14.342-0.017-1.758-0.028-3.516-0.035-5.275-0.067-16.901-0.067-16.901-3.502-24.338-3.837-2.688-8.355-2.364-12.938-2.438-1.37-0.039-2.74-0.079-4.152-0.121-4.727 0.676-6.468 2.359-9.91 5.559-1.217 0.33-2.434 0.66-3.688 1-3.312 2-3.312 2-4.276 4.461-2.067 9.058-2.48 17.716-2.472 26.987-0.01 1.593-0.02 3.187-0.03 4.829-0.027 4.332-0.034 8.665-0.036 12.997-2e-3 2.714-8e-3 5.427-0.016 8.141-0.028 9.486-0.04 18.971-0.038 28.457 2e-3 8.815-0.03 17.629-0.077 26.443-0.039 7.596-0.055 15.192-0.054 22.788 1e-3 4.525-7e-3 9.049-0.039 13.574-0.035 5.045-0.021 10.089-3e-3 15.134-0.017 1.483-0.033 2.966-0.051 4.494 0.096 10.553 2.336 17.722 9.405 25.633 1.573 1.366 3.156 2.72 4.75 4.062 1.625 2 1.625 2 1.75 4.562-1.651 3.578-3.466 4.026-7.125 5.438-1.706 0.486-3.415 0.965-5.125 1.438-4.632 1.303-4.632 1.303-6.813 3.624-5.975 5.613-18.682 4.272-26.437 4.25-1.129 0.017-2.258 0.033-3.422 0.049-9.418 6e-3 -18.62-0.996-27.078-5.361-5.166-2.505-10.206-3.377-15.832-4.387-3.293-0.613-3.293-0.613-6.293-1.613-2.398 0.063-4.795 0.197-7.188 0.375-1.272 0.09-2.544 0.18-3.855 0.273-2.559 0.228-5.114 0.513-7.658 0.866-4.387 0.496-8.624 0.613-13.038 0.615-0.417 1e-3 -0.417 1e-3 -2.526 6e-3 -2.73 4e-3 -5.459 1e-3 -8.188-2e-3 -1.907 0-3.814 1e-3 -5.721 3e-3 -3.985 1e-3 -7.969-1e-3 -11.953-6e-3 -5.107-5e-3 -10.213-2e-3 -15.32 4e-3 -3.932 4e-3 -7.865 2e-3 -11.797 0-1.884-1e-3 -3.767 0-5.651 2e-3 -2.628 3e-3 -5.255-1e-3 -7.883-7e-3 -1.495 0-2.99-1e-3 -4.53-2e-3 -3.692-0.127-3.692-0.127-7.692-1.127-6.392-0.383-11.987-0.353-18 2-1.727 0.306-3.456 0.596-5.188 0.875-4.812 1.125-4.812 1.125-7.812 5.125-2.437 0-2.437 0-5-1-0.55-0.672-1.101-1.343-1.668-2.035-3.36-2.832-5.876-2.463-10.207-2.403-0.69 1e-3 -0.69 1e-3 -4.18 4e-3 -5.397 0.594-8.863 2.803-13.502 5.506-4.99 2.165-9.186 2.524-14.525 2.494-0.936 7e-3 -1.872 0.013-2.836 0.019-1.964 7e-3 -3.928 4e-3 -5.892-9e-3 -3.012-0.014-6.02 0.021-9.032 0.059-1.913 1e-3 -3.827-1e-3 -5.74-6e-3 -0.9 0.013-1.8 0.026-2.727 0.04-2.53-0.038-2.53-0.038-6.691-0.669-1.964-2.352-1.964-2.352-3-5-2-3-2-3-6.5-4.438-4.5-1.562-4.5-1.562-6.5-5.562l1-3c1.604-0.658 3.234-1.254 4.875-1.812 3.431-1.644 4.849-2.489 6.268-6.081 1.579-8.342 2.286-16.304 2.238-24.789 5e-3 -1.303 9e-3 -2.606 0.014-3.948 0.012-4.325 3e-3 -8.651-7e-3 -12.976 4e-3 -3.117 0.01-6.235 0.016-9.352 0.012-7.563 0.011-15.126 2e-3 -22.689-7e-3 -6.149-8e-3 -12.298-5e-3 -18.447 1e-3 -0.877 1e-3 -1.755 2e-3 -2.659l3e-3 -5.349c8e-3 -16.688-1e-3 -33.375-0.018-50.063-0.013-14.304-0.011-28.607 3e-3 -42.91 0.016-16.636 0.022-33.271 0.013-49.907-1e-3 -1.775-2e-3 -3.55-3e-3 -5.326 0-0.873 0-1.746-1e-3 -2.646-3e-3 -6.14 2e-3 -12.279 9e-3 -18.419 9e-3 -8.268 3e-3 -16.535-0.015-24.803-4e-3 -3.032-3e-3 -6.064 4e-3 -9.096 8e-3 -4.142-2e-3 -8.284-0.017-12.427 7e-3 -1.196 0.013-2.391 0.02-3.623-0.058-8.317-0.682-16.6-5.401-23.678-5.792-0.78-8.406 0.625-13 4-1.403 0.66-2.805 1.32-4.25 2-3.75 2-3.75 2-5.75 6-0.083 0.65-0.083 0.65-0.5 3.938-0.248 0.67-0.248 0.67-1.5 4.062-2.246 0.926-2.246 0.926-4.938 1.75-2.722 1.141-2.722 1.141-5.062 3.25-1.594 5.788-2.116 11.564-2.708 17.524-0.886 7.515-2.289 13.677-7.98 18.788-3.312 1.688-3.312 1.688-4.312 1.688v-106c2.97 0.33 5.94 0.66 9 1 1.906 0.096 3.813 0.163 5.721 0.189 1.03 0.017 2.059 0.034 3.12 0.051 0.544 7e-3 0.544 7e-3 3.296 0.041 0.578 9e-3 0.578 9e-3 3.502 0.056 3.683 0.058 7.366 0.111 11.049 0.163 28.766 0.412 28.766 0.412 42.997 1.159 12.389 0.643 24.729 0.551 37.112-0.136 14.909-0.804 29.84-0.877 44.767-1.075 3.825-0.052 7.65-0.109 11.475-0.167 1.154-0.013 2.309-0.027 3.498-0.041 18.343-0.28 18.343-0.28 24.463-4.24zm646 175c-5.701 17.102-3.181 39-2.75 56.938 0.019 0.885 0.038 1.771 0.057 2.684 0.058 2.552 0.13 5.104 0.209 7.655 0.044 1.467 0.088 2.934 0.133 4.445 0.451 5.499 0.964 11.047 3.917 15.798 6.054 3.682 14.639 2.286 21.434 1.48 8.97-3.136 14.738-7.476 19-16 0.287-1.661 0.536-3.328 0.75-5 0.477-2.684 0.477-2.684 1.25-5 1.031-0.681 2.062-1.361 3.125-2.062 0.949-0.64 1.898-1.279 2.875-1.938 0.703-5.977-0.015-11.329-2-17-2.562-2.875-2.562-2.875-5-5-1.468-2.937-1.466-5.867-1.812-9.125-1.29-9.886-4.7-15.421-11.188-22.875l-3-6c-7.128-5.346-19.967-4.274-27 1zm-152.69 7.84c-3.245 4.435-5.29 9.183-7.437 14.222-0.852 1.973-1.709 3.943-2.57 5.911-0.372 0.869-0.743 1.737-1.126 2.633-1.179 2.394-1.179 2.394-4.179 6.394-3.567 10.701-2.18 23.289-2.203 34.457-3e-3 0.919-6e-3 1.838-9e-3 2.785-0.015 4.861-0.024 9.722-0.028 14.582-6e-3 4.976-0.03 9.951-0.058 14.927-0.019 3.868-0.024 7.737-0.026 11.605-3e-3 1.833-0.01 3.666-0.024 5.498-0.103 15.304 0.137 28.605 9.485 41.216 2.528 3.976 3.383 7.835 4.195 12.434 0.668 2.496 0.668 2.496 3.668 5.496 4.332 0.492 8.65 0.204 13 0 1.361-0.062 2.722-0.124 4.125-0.188 2.875-0.812 2.875-0.812 4.475-2.974 1.519-3.079 2.131-5.673 2.681-9.057 0.203-1.179 0.405-2.359 0.614-3.574 0.199-1.223 0.399-2.447 0.605-3.707 0.397-2.429 0.803-4.856 1.219-7.281 0.087-0.537 0.087-0.537 0.529-3.252 1.313-5.179 3.98-8.321 7.752-11.967 9.1-18.2 6.034-60.944 0.875-80.125-1.025-2.951-2.265-5.735-3.559-8.582-4.263-9.6-6.233-17.588-6.832-27.953-0.698-6.253-1.997-10.853-6.484-15.34-3.617-0.469-3.617-0.469-7.875-0.5-1.4-0.031-2.8-0.062-4.242-0.094-3.883 0.594-3.883 0.594-6.571 2.434zm260.69 192.16c-4.187 5.617-4.419 10.297-4 17 1.609 0.041 3.217 0.082 4.875 0.125 0.905 0.023 1.81 0.046 2.742 0.07 2.383-0.195 2.383-0.195 4.383-2.195 1.215-4.98 1.077-9.899 1-15-4.25-0.5-4.25-0.5-9 0z"/>
<path transform="translate(1911.4 502.9)" d="m0 0c1.261 0.013 2.521 0.026 3.82 0.04 1.454-7e-3 2.907-0.014 4.405-0.021 1.585 0.038 3.17 0.077 4.803 0.117 1.694 9e-3 3.388 0.014 5.082 0.016 4.597 0.015 9.191 0.087 13.787 0.169 4.819 0.077 9.639 0.104 14.459 0.137 8.102 0.063 16.203 0.159 24.304 0.278 11.39 0.167 22.78 0.272 34.17 0.365 7.92 0.067 15.84 0.15 23.759 0.235 1.912 0.021 3.824 0.041 5.735 0.06 5.461 0.057 10.922 0.123 16.382 0.204 2.427 0.034 4.854 0.06 7.282 0.085 10.445 0.171 20.84 0.36 30.593 4.412 1.889 0.327 3.792 0.582 5.699 0.782 0.557 0.059 0.557 0.059 3.378 0.359 1.192 0.119 2.383 0.237 3.61 0.359 1.229 0.129 2.459 0.257 3.725 0.389 9.76 0.993 19.531 1.774 29.323 2.377 0.507 0.034 0.507 0.034 3.073 0.207 0.885 0.054 1.77 0.108 2.682 0.164 4.545 0.658 6.916 1.597 9.756 5.266 3.429 3.857 7.047 5.101 11.816 6.66 5.763 1.902 9.216 3.525 12.938 8.437 3.164 1.477 3.164 1.477 6.625 2.625 6.168 2.066 6.168 2.066 8.375 5.375 0.185 1.135 0.371 2.269 0.562 3.438 1.438 3.562 1.438 3.562 5.688 5.5 0.798 0.295 1.595 0.59 2.418 0.894 4.122 2.065 5.912 5.321 8.332 9.168v2l4 2c0.914 2.426 0.914 2.426 1.625 5.313 0.972 3.062 0.972 3.062 2.375 5.687 2.371 1.063 2.371 1.063 5.062 1.813 2.66 1.051 2.66 1.051 4.938 3.187 1.686 6.403 2.278 12.761 2.785 19.35 0.718 8.866 2.451 17.222 5.215 25.65 0.711 2.312 1.419 4.625 2.125 6.938 0.932 3.031 1.872 6.054 2.875 9.062 1.568 18.474 1.039 33.595-6 51-2.938 8.226-3.891 16.752-4.911 25.386-0.537 4.378-1.098 7.632-3.089 11.614-0.557 0.279-0.557 0.279-3.375 1.688-4.756 3.033-5.574 6.149-7.625 11.312-1.281 1.708-2.618 3.374-4 5-0.967 1.495-1.925 2.995-2.875 4.5-4.928 7.442-12.097 11.934-19.942 15.938-5.748 2.939-8.722 4.999-12.183 10.562-5.496 2.925-10.964 3.733-17.063 4.438-10.464 1.356-20.3 3.473-30 7.75-9.689 4.031-21.391 2.979-31.719 3.016-0.628 2e-3 -0.628 2e-3 -3.809 0.017-2.632 9e-3 -5.264 0.016-7.896 0.02-4.031 9e-3 -8.061 0.041-12.092 0.072-2.567 6e-3 -5.135 0.012-7.703 0.016-1.202 0.012-2.404 0.024-3.642 0.037-1.119-3e-3 -2.238-6e-3 -3.391-9e-3 -0.98 3e-3 -1.96 7e-3 -2.97 0.011-3.506-0.475-6.198-1.85-8.715-4.368-0.152-2.732-0.231-5.468-0.285-8.204-0.018-0.86-0.036-1.72-0.054-2.606-0.058-2.86-0.107-5.72-0.154-8.58-0.016-0.975-0.032-1.95-0.049-2.954-0.085-5.16-0.163-10.321-0.236-15.481-0.061-4.276-0.138-8.552-0.227-12.827-0.108-5.156-0.191-10.312-0.257-15.468-0.028-1.966-0.066-3.933-0.112-5.899-0.063-2.753-0.095-5.505-0.118-8.259-0.026-1.567-0.052-3.134-0.078-4.748 0.57-3.974 0.57-3.974 2.837-6.965 3.827-2.813 6.969-2.866 11.67-3.196 10.454-0.788 10.454-0.788 15.063-2.813 1.187-2.437 1.187-2.437 2-5 3.018-3.018 5.603-4.173 9.453-5.859 12.416-5.561 12.416-5.561 15.172-11.578 1.718-5.92 1.748-11.941 1.812-18.063 5e-3 -0.48 5e-3 -0.48 0.032-2.911-0.083-6.661-0.692-13.451-3.469-19.589-3.25-1.187-3.25-1.187-7-2-2.679-2.397-4.968-5.034-7-8v-2c-10.711-2.959-21.199-3.329-32.25-3.375-0.681-6e-3 -0.681-6e-3 -4.125-0.041-7.909 0.035-16.299 0.075-23.625 3.416-2.571 5.143-2.258 9.668-2.214 15.283 1e-3 1.165 2e-3 2.331 3e-3 3.532 6e-3 3.921 0.027 7.842 0.047 11.763 7e-3 2.805 0.013 5.611 0.019 8.416 0.013 6.051 0.032 12.102 0.055 18.153 0.037 9.573 0.056 19.146 0.072 28.719 0.024 13.429 0.052 26.858 0.086 40.287 3e-3 0.852 5e-3 1.704 7e-3 2.583 0.031 12.078 0.068 24.156 0.108 36.235 3e-3 0.849 6e-3 1.698 8e-3 2.573 2e-3 0.424 2e-3 0.424 9e-3 2.571 0.046 14.173 0.076 28.346 0.095 42.518 0.013 9.51 0.044 19.02 0.088 28.53 0.024 5.93 0.03 11.86 0.032 17.79 5e-3 2.742 0.016 5.484 0.035 8.226 0.204 31.248 0.204 31.248-4.45 37.821-3.332 0.825-3.332 0.825-7 1-0.432 0.022-0.432 0.022-2.618 0.129-0.823 2e-3 -1.646 3e-3 -2.494 5e-3 -0.956 4e-3 -1.912 9e-3 -2.897 0.013-1.027 0-2.054-1e-3 -3.112-1e-3 -1.098 3e-3 -2.196 6e-3 -3.328 0.01-3.616 9e-3 -7.232 0.011-10.848 0.012-2.517 4e-3 -5.033 7e-3 -7.549 0.01-5.266 6e-3 -10.531 8e-3 -15.796 8e-3 -6.759 0-13.517 0.013-20.275 0.03-5.191 0.012-10.383 0.014-15.575 0.013-2.493 1e-3 -4.985 6e-3 -7.478 0.013-3.476 0.01-6.952 7e-3 -10.428 1e-3 -1.035 6e-3 -2.07 0.012-3.136 0.017-7.124-0.031-7.124-0.031-10.466-2.26-1.061-2.979-2.064-5.979-3-9l-1-1c-0.104-2.102-0.135-4.208-0.14-6.313-6e-3 -1.383-0.012-2.766-0.017-4.191-2e-3 -1.539-3e-3 -3.079-4e-3 -4.665-5e-3 -1.62-0.01-3.239-0.015-4.908-0.014-4.518-0.022-9.037-0.028-13.555-7e-3 -3.87-0.017-7.74-0.027-11.61-0.033-12.755-0.055-25.511-0.073-38.266-5e-3 -3.321-0.01-6.641-0.015-9.962-0.031-20.608-0.058-41.216-0.074-61.824l-0.012-14.331c-1e-3 -1.187-2e-3 -2.374-3e-3 -3.598-0.017-19.231-0.059-38.463-0.109-57.695-0.052-19.733-0.081-39.467-0.089-59.2-4e-3 -11.085-0.019-22.169-0.059-33.253-0.035-9.441-0.049-18.881-0.036-28.322 6e-3 -4.818 2e-3 -9.634-0.028-14.452-0.032-5.223-0.018-10.446 0-15.669-0.016-1.522-0.033-3.044-0.051-4.612 0.08-8.843 0.331-18.504 10.199-21.671z" fill="#FA6400"/>
<path transform="translate(2193,504)" d="m0 0c13.614 0.038 27.227 0.098 40.84 0.184 6.322 0.039 12.644 0.072 18.967 0.087 6.108 0.015 12.215 0.05 18.323 0.097 2.324 0.015 4.647 0.023 6.97 0.024 11.738 8e-3 21.913 0.062 32.9 4.608 13.086 2.6 26.663 2.619 39.955 3.123 26.181 1.175 26.181 1.175 31.012 5.732 1.385 2.021 2.711 4.082 4.033 6.145 4.276 2.103 7.993 2.999 12.688 3.812 4.312 1.188 4.312 1.188 6.624 4 3.482 4.129 7.057 5.265 12.043 7.11 2.645 1.078 2.645 1.078 4.645 3.078 0.412 1.279 0.825 2.558 1.25 3.875 1.999 4.713 3.506 5.527 7.75 8.125 4 5.263 4 5.263 4 8 1.093 0.247 2.186 0.495 3.312 0.75 3.688 1.25 3.688 1.25 6.688 5.25 1.432 3.986 2.699 7.983 3.902 12.043 0.321 1.038 0.642 2.075 0.973 3.145 0.286 0.962 0.572 1.925 0.867 2.917 1.258 2.895 1.258 2.895 3.754 5.493 3.612 4.908 3.942 9.7 4.692 15.652 0.16 1.151 0.321 2.301 0.487 3.487 1.135 8.264 2.107 16.548 2.93 24.849 0.395 3.414 0.395 3.414 1.395 7.414 0.905 15-1.153 30.121-4.355 44.746-0.566 2.854-0.855 5.544-1.02 8.442-0.625 3.812-0.625 3.812-2.937 6.124-0.887 0.557-1.774 1.114-2.688 1.688-3.635 3.04-4.615 5.32-5.5 9.938-1.873 8.103-1.873 8.103-5.5 11.062-1.464 0.474-2.929 0.949-4.438 1.438-6.258 2.143-8.177 5.443-11.687 10.812-2.207 3.237-3.746 4.533-7.617 5.277-2.083 0.273-4.167 0.544-6.25 0.813-3.198 0.702-5.271 1.91-8.008 3.66h-2c-0.267 0.745-0.534 1.49-0.809 2.258-1.485 3.419-3.215 4.51-6.253 6.617-4.799 3.645-4.799 3.645-6.063 8 0.041 1.031 0.082 2.063 0.125 3.125v2c2.123 1.061 4.255 2.109 6.438 3.043 5.904 2.637 8.976 4.727 11.562 10.957v2c1.588 0.413 3.176 0.825 4.812 1.25 4.62 1.2 5.094 1.625 8.188 5.75 0.196 0.485 0.196 0.485 1.188 2.938 2.449 4.138 5.749 5.586 9.812 8.062 3 4.031 3 4.031 3 7 1.444 0.289 2.887 0.577 4.375 0.875 4.625 1.125 4.625 1.125 6.625 3.125 0.392 1.464 0.784 2.929 1.188 4.438 1.812 4.562 1.812 4.562 5.187 6.437 1.196 0.371 2.392 0.743 3.625 1.125 3.694 1.718 4.831 2.701 6.875 6.312 2.125 3.688 2.125 3.688 5.75 6.75 3.375 2.938 3.375 2.938 4.063 6.126 0.433 0.928 0.866 1.856 1.312 2.812 2.672 0.727 2.672 0.727 5.938 1.312 3.273 0.645 3.273 0.645 6.062 1.688 2.062 4.5 2.062 4.5 3 9 3 3 3 3 6.562 4.938 3.438 2.062 3.438 2.062 5.438 6.062 1.664 0.674 3.331 1.34 5 2 3.765 3.03 5.002 5.007 6.688 9.625 2.312 4.375 2.312 4.375 4.644 5.48 1.768 0.469 3.544 0.904 5.328 1.305 3.16 0.797 4.489 1.925 6.34 4.59 0.412 1.093 0.825 2.186 1.25 3.312 2.029 4.276 4.351 6.073 7.965 8.985 2.358 2.249 2.793 4.655 3.785 7.703 3 1.188 3 1.188 6 2l2 3-1 4c-18.967-0.014-37.934-0.056-56.901-0.132-8.806-0.035-17.613-0.06-26.419-0.064-8.494-3e-3 -16.988-0.032-25.482-0.077-3.245-0.013-6.491-0.018-9.736-0.013-4.536 5e-3 -9.07-0.021-13.606-0.055-1.35 9e-3 -2.701 0.018-4.093 0.027-1.234-0.016-2.468-0.031-3.739-0.047-1.073-3e-3 -2.146-5e-3 -3.252-8e-3 -3.703-0.843-4.629-2.599-6.772-5.631-2.586-1.047-2.586-1.047-5.375-1.75-5.593-1.815-7.347-4.082-10.164-9.09-1.461-2.16-1.461-2.16-5.523-4.66-4.45-2.825-5.365-4.804-7.586-9.352-2.315-3.678-5.587-5.083-9.352-7.148-3-3-3-3-3.312-5.562-0.227-0.805-0.454-1.609-0.688-2.438-1.995-0.68-3.996-1.345-6-2-2.844-2.911-4.735-5.369-6.312-9.125-1.688-2.875-1.688-2.875-5.563-4.687-4.827-2.56-5.522-4.326-7.777-9.028-1.348-2.16-1.348-2.16-5.41-4.66-3.938-2.5-3.938-2.5-5.876-7.062-2.682-5.771-5.355-6.015-11.062-8.438-1.735-2.623-3.4-5.293-5-8-2.008-1.57-2.008-1.57-4.188-3-3.812-3-3.812-3-4.75-7.188-0.35-1.258-0.701-2.516-1.062-3.812-4.438-1.812-4.438-1.812-9-3-3-3-3-3-4.812-6.938-2.375-4.409-4.065-5.453-8.188-8.062-0.763-1.134-1.526-2.269-2.312-3.438-2.644-3.504-3.554-4.162-7.313-5.874-4.119-2.019-4.119-2.019-5.305-5.114-0.188-0.891-0.376-1.781-0.57-2.699-0.559-2.633-0.559-2.633-1.5-4.875-4.562-2-4.562-2-9-3-3.629-3.629-3.188-8.141-3.25-13-0.026-1.217-0.052-2.434-0.078-3.688 0.328-3.312 0.328-3.312 3.328-7.312 0.668-0.11 0.668-0.11 4.047-0.664 1.304-0.441 2.609-0.882 3.953-1.336 1.218-3.384 1.826-5.883 2.25-9.375 1.26-8.983 1.26-8.983 3.734-12.227 2.016-1.398 2.016-1.398 4.016-1.398 0.254-1.241 0.508-2.483 0.77-3.762 0.347-1.642 0.694-3.284 1.042-4.926 0.337-1.612 0.673-3.225 1.02-4.886 1.076-4.079 2.149-7.407 5.168-10.426 2.29-0.135 4.582-0.232 6.875-0.312 8.714-0.546 15.909-1.77 22.5-7.75 4.463-3.617 8.161-4.247 13.734-5.2 2.891-0.738 2.891-0.738 5.891-3.738 4.471-18.969 2.66-34.358-2-53-1.031-0.289-2.062-0.577-3.125-0.875-4.769-1.385-7.227-3.821-10.875-7.125-4.142-2.071-6.069-2.271-10.594-2.344-0.638-0.015-0.638-0.015-3.871-0.09-0.666-0.011-0.666-0.011-4.035-0.066-2.636-0.043-5.271-0.095-7.906-0.156-1.169-0.019-2.337-0.038-3.541-0.057-3.053-0.287-3.053-0.287-7.053-2.287-0.731-2.425-1.45-4.853-2.086-7.305-0.95-2.801-2.117-4.554-3.914-6.883-3.626-5.013-4.341-10.233-5.262-16.261-0.76-3.655-1.797-6.369-3.738-9.551-0.969-0.433-1.939-0.866-2.938-1.312-5.136-2.831-6.268-8.226-7.984-13.547-2.034-6.169-3.686-9.209-9.078-13.141-0.598-1.011-1.196-2.021-1.812-3.062-3.107-4.172-6.385-5.017-11.188-6.938-2-2-2-2-3-5.875-2-4.125-2-4.125-4.242-5.187-0.869-0.269-1.738-0.537-2.633-0.813-3.305-1.058-4.744-1.548-6.68-4.48-0.785-1.779-1.548-3.568-2.285-5.368-1.638-3.215-3.867-4.052-7.16-5.277v-2z" fill="#FA6400"/>
<path transform="translate(1544,648)" d="m0 0c4 2 4 2 6.25 3.5 5.262 2.87 10.604 3.522 16.5 3.812 4.914 0.394 4.914 0.394 7.75 2.876 1.026 1.923 1.982 3.886 2.875 5.874 1.625 2.938 1.625 2.938 4.5 4.688 6.884 4.956 9.444 14.585 10.937 22.625 1.188 4.625 1.188 4.625 3.688 8.437 5.245 8.786 4.922 19.782 5.803 29.802 0.91 10.316 0.91 10.316 1.697 13.386 2.938 1.125 2.938 1.125 6 2 12.901 25.802 6.249 71.217 6.552 99.113 0.052 4.667 0.109 9.334 0.167 14 7e-3 0.702 7e-3 0.702 0.041 4.256 0.048 3.878 0.138 7.754 0.24 11.631 0.01 1.256 0.019 2.512 0.03 3.806 0.037 1.175 0.074 2.351 0.113 3.562 0.02 1.04 0.041 2.08 0.062 3.151 0.131 0.41 0.131 0.41 0.795 2.481 2.866 1.165 2.866 1.165 6 2 3 3 3 3 3.75 7.438 1.25 4.562 1.25 4.562 4.812 6.874 1.135 0.557 2.269 1.114 3.438 1.688l1 4c-3.701 3.701-6.043 3.893-11.125 4.938-9.465 2.083-9.465 2.083-13.625 4.124-7.289 3.323-13.452 5.913-21.465 3.856-4.802-1.799-9.446-3.843-14.103-5.984-3.117-1.085-5.826-1.318-9.12-1.496-1.224-0.075-2.449-0.15-3.71-0.227-1.271-0.07-2.542-0.139-3.852-0.211-2.521-0.138-5.042-0.284-7.562-0.438-1.116-0.06-2.231-0.121-3.379-0.183-3.272-0.405-6.642-0.962-9.059-3.379 0-5 0-5 2-7 1.485-0.082 2.97-0.165 4.5-0.25 1.485-0.577 2.97-1.155 4.5-1.75 1.638-4.563 1.753-9.187 2-14 0.106-0.958 0.211-1.916 0.32-2.902 2.277-21.278 0.545-43.222-0.492-64.524-0.204-4.229-0.396-8.458-0.586-12.687-1.848-39.849-1.848-39.849-8.837-46.272-2.942-3.199-3.294-5.186-3.882-9.455-0.196-1.31-0.391-2.621-0.593-3.971-0.183-1.361-0.366-2.723-0.555-4.127-0.379-2.697-0.767-5.394-1.164-8.089-0.162-1.194-0.324-2.388-0.491-3.617-0.976-4.547-2.42-8.117-5.81-11.348-2.462-2.588-2.793-4.657-3.472-8.133-0.629-3.195-0.629-3.195-1.438-5.875-4.54-3.027-8.688-2.906-14-2-4.029 1.879-7.629 4.095-11 7-1.169 3.506-1.127 6.255-1.129 9.957-4e-3 1.461-7e-3 2.922-0.01 4.427 2e-3 1.604 4e-3 3.207 6e-3 4.858-1e-3 1.692-2e-3 3.384-4e-3 5.076-3e-3 4.57 2e-3 9.139 8e-3 13.709 4e-3 2.841 6e-3 5.683 8e-3 8.524 0.018 26.548 0.184 53.091 0.559 79.637 0.019 1.463 0.039 2.926 0.059 4.434 0.057 4.119 0.12 8.239 0.187 12.358 8e-3 0.599 8e-3 0.599 0.05 3.626 0.087 4.857 0.232 9.643 0.805 14.469 0.461 3.925 0.461 3.925 0.149 7.737 0.103 1.052 0.206 2.104 0.312 3.188 2.875 2.188 2.875 2.188 6 4 2.136 4.272 2.729 7.779 3.438 12.441 0.562 2.559 0.562 2.559 2.562 5.559 0 5 0 5-1.75 7.125-3.246 1.873-5.683 2.519-9.312 3.313-5.632 1.249-5.632 1.249-8.5 4.187-0.238 0.392-0.238 0.392-1.438 2.375-4.595 1.532-9.29 1.163-14.09 1.168-1.096 3e-3 -2.192 7e-3 -3.321 0.01-2.319 5e-3 -4.639 7e-3 -6.958 7e-3 -3.551 2e-3 -7.102 0.021-10.652 0.04-2.252 3e-3 -4.504 5e-3 -6.756 5e-3 -1.064 8e-3 -2.128 0.015-3.223 0.022-0.992-3e-3 -1.983-6e-3 -3.004-9e-3 -0.435 1e-3 -0.435 1e-3 -2.637 4e-3 -2.359-0.247-2.359-0.247-6.359-2.247-0.557-0.804-1.114-1.609-1.688-2.438-4.893-5.422-13.172-6.309-20.187-6.874-4.759 0.36-7.059 1.916-11.125 4.312-1.382 0.144-2.764 0.289-4.188 0.438-4.687 0.691-5.044 1.964-7.812 5.562-3.25 0.312-3.25 0.312-6 0-0.119-0.946-0.237-1.892-0.359-2.867-0.271-0.517-0.271-0.517-1.641-3.133-3.546-1.023-6.627-1.662-10.25-2.125-7.933-1.096-13.599-2.111-19-8.563-0.577-0.763-1.155-1.526-1.75-2.312-3.077-1.539-6.022-1.132-9.438-1.125-1.339-3e-3 -2.678-5e-3 -4.058-8e-3 -3.504 0.133-3.504 0.133-6.504 1.133-0.34 0.619-0.34 0.619-2.062 3.75-3.379 4.862-7.399 5.431-13 6.75-8.38 1.984-8.38 1.984-11.153 4.547-1.285 2.203-1.285 2.203-2.785 5.953-8.175 4.087-24.219 1.247-32.82-0.66-2.18-1.34-2.18-1.34-3.364-4.762-1.816-3.578-1.816-3.578-6.343-5.433-1.796-0.473-3.601-0.916-5.411-1.333-11.273-2.748-11.273-2.748-14.062-6.812-1.203-2.91-1.203-2.91-2.25-6.062-2.203-5.672-2.203-5.672-7-8-1.237-0.31-2.475-0.619-3.75-0.938-7.286-21.859-7.806-64.795 2-86 4.125-2.375 4.125-2.375 8-4 1-2 1-2 1.375-6.375 0.625-4.625 0.625-4.625 3.625-8.625 0.794-0.206 0.794-0.206 4.812-1.25 6.118-1.607 7.71-4.612 11.188-9.75 1.969-1.378 3.967-2.718 6-4 0.554-0.797 1.109-1.593 1.68-2.414 6.472-7.213 19.784-9.07 29.097-10.262 2.223-0.324 2.223-0.324 4.223-1.324 0.433-1.423 0.866-2.846 1.312-4.312 1.447-3.525 2.232-4.484 5.77-6.067 2.323-0.653 4.664-1.245 7.02-1.769 2.898-0.852 2.898-0.852 4.898-3.852 1.83-11.163 1.183-22.415 0.125-33.625-0.078-0.865-0.157-1.731-0.238-2.622-0.426-4.157-0.995-6.968-2.887-10.753-1.299-0.598-2.599-1.196-3.938-1.812-4.801-2.586-5.228-4.237-7.062-9.188-8.316-4.158-20.836-2.938-29.688-0.5-1.423 0.495-2.846 0.99-4.312 1.5-0.312 3.25-0.312 3.25 0 7 0.763 0.576 1.526 1.152 2.312 1.746 3.532 2.962 4.438 5.758 6 10.066 0.512 1.368 1.024 2.736 1.551 4.145 2.27 8.072 0.799 13.756-2.863 21.043-2.533 3.618-3.717 3.936-8.125 4.938-1.279 0.35-2.557 0.701-3.875 1.062-1.25 2.5-1.25 2.5-2 5-4.45 2.225-5.37 2.192-10 1-3-1.305-3-1.305-6-2.875-0.99-0.513-1.98-1.026-3-1.555-0.495-0.259-0.495-0.259-3-1.57-3.091-1.588-5.945-2.982-9.25-4.062-2.75-0.938-2.75-0.938-4.75-2.938-2.351-9.789-2.13-19.824-1.812-29.812 0.015-0.576 0.015-0.576 0.091-3.489 0.046-1.083 0.092-2.165 0.139-3.281 0.039-0.972 0.078-1.943 0.118-2.945 0.464-2.473 0.464-2.473 3.464-5.473 1.279-0.351 2.557-0.701 3.875-1.062 5.122-2.406 5.881-4.552 7.824-9.661 1.688-2.955 3.08-3.36 6.301-4.277 1.258-0.247 2.516-0.495 3.812-0.75 4.194-1.252 6.618-2.876 9.84-5.812 7.088-4.34 16.046-3.719 24.055-3.668 0.601 0 0.601 0 3.642 1e-3 2.532 3e-3 5.064 0.011 7.597 0.023 3.844 0.018 7.688 0.021 11.533 0.02 2.472 5e-3 4.944 0.011 7.416 0.018 0.567 1e-3 0.567 1e-3 3.438 3e-3 22.328 0.131 22.328 0.131 29.855 7.227 3.589 2.473 7.055 3.15 11.289 4.032 2.523 0.906 2.523 0.906 5.523 4.906 0.206 0.722 0.206 0.722 1.25 4.375 2.027 5.356 4.475 6.972 8.75 10.625 1.312 4.188 1.312 4.188 2 8l2 3c0.398 2.745 0.69 5.506 0.93 8.27 0.155 1.701 0.31 3.402 0.465 5.103 0.039 0.445 0.039 0.445 0.237 2.695 3.007 33.944 3.007 33.944 7.36 49.469 1.211 5.362 1.689 10.585 2.07 16.061 0.042 0.579 0.042 0.579 0.252 3.511 1.167 17.603 1.379 35.253 1.738 52.887 0.118 5.792 0.25 11.583 0.386 17.375 0.027 1.513 0.054 3.027 0.082 4.586 0.033 1.394 0.067 2.788 0.101 4.224 0.025 1.225 0.05 2.449 0.076 3.71 0.303 3.109 0.303 3.109 2.303 7.109 2.137 0.984 2.137 0.984 4.688 1.75 5.059 1.83 7.506 4.247 10.781 8.426 1.875 2.233 4.019 3.388 6.531 4.824 2 4 2 4 2.438 7.562 0.562 3.438 0.562 3.438 3.562 6.438 3.562 0.312 3.562 0.312 7 0 6.394-6.394 5.355-20.207 5.395-28.621-7e-3 -1.553-0.015-3.106-0.023-4.706 3e-3 -1.692 6e-3 -3.384 0.011-5.076 0.01-4.551 0-9.103-0.013-13.654-0.011-4.783-7e-3 -9.566-5e-3 -14.349 1e-3 -8.023-0.01-16.046-0.029-24.069-0.021-9.259-0.024-18.519-0.018-27.778 5e-3 -8.937 0-17.874-0.011-26.811-5e-3 -3.791-6e-3 -7.582-4e-3 -11.373 2e-3 -4.465-6e-3 -8.929-0.022-13.394-6e-3 -2.408-3e-3 -4.817 1e-3 -7.226-0.091-18.688-0.091-18.688-5.032-25.568-0.522-0.741-1.044-1.482-1.582-2.246-1.608-2.052-3.319-3.921-5.106-5.817-2.562-3.312-2.562-3.312-3-6.374 1.903-3.888 4.414-5.238 8.114-7.348 2.324-1.59 2.324-1.59 4.215-4.149 2.674-3.095 4.599-3.509 8.547-4.441 9.135-2.369 17.72-5.157 25.75-10.188 7.194-4.085 15.623-5.137 23.812-4.812 3.61 1.917 5.689 3.63 8.312 6.75 3.834 3.209 6.851 2.611 11.688 2.25l1-3c2.993-1.135 5.937-2.084 9-3 13.95-4.389 13.95-4.389 19.188-7.438 0.928-0.515 1.856-1.031 2.812-1.562zm-244 136c-2.652 1.038-5.317 2.045-8 3-2.487 2.487-2.499 3.837-3.035 7.277-0.17 1.072-0.339 2.144-0.514 3.248-0.169 1.126-0.339 2.252-0.513 3.413-0.174 1.091-0.347 2.182-0.526 3.306-2.82 18.166-3.719 36.079-0.6 54.256 0.166 0.973 0.331 1.946 0.501 2.948 1.688 9.015 1.688 9.015 4.687 12.552 2.375 1.258 2.375 1.258 5 2.125 3.792 1.275 5.043 1.918 8 4.875 7.927 1.101 12.09-0.659 18.652-5.078 3.603-2.949 5.221-5.413 6.348-9.922 0.109-3.6 0.164-7.181 0.168-10.781 4e-3 -1.074 9e-3 -2.148 0.013-3.255 0.01-3.488 0.01-6.976 7e-3 -10.464-1e-3 -0.589-1e-3 -0.589-3e-3 -3.57-0.048-27.3-0.048-27.3-0.873-40.805-0.053-1.082-0.106-2.164-0.161-3.279-0.463-6.095-1.466-9.785-6.151-13.846-2.477-0.852-2.477-0.852-5-1-0.874-0.09-1.748-0.18-2.648-0.273-6.854-0.256-9.897 0.848-15.352 5.273z"/>
<path transform="translate(2688,508)" d="m0 0c8.616 4.308 13.172 11.413 17 20 0.558 1.78 1.082 3.572 1.562 5.375 1.527 4.911 2.737 6.268 6.438 9.625 3.362 4.394 6.072 8.915 8.25 14 1.75 4 1.75 4 3.75 5 2.938 0.25 2.938 0.25 6 0 4.347-4.347 4.158-7.301 4.188-13.25 0.014-1.284 0.028-2.568 0.042-3.891-0.236-3.957-0.786-7.166-2.23-10.859-2.31-0.743-4.646-1.411-7-2-1.375-2.312-1.375-2.312-2-5-0.177-0.75-0.353-1.5-0.535-2.273-0.522-3.063-0.562-5.935-0.527-9.039 9e-3 -1.069 0.018-2.138 0.027-3.239 6e-3 -0.404 6e-3 -0.404 0.035-2.449 2.336-0.613 2.336-0.613 5-1 3.94 2.72 5.24 5.328 6.375 9.812 1.285 4.942 3.419 7.729 6.922 11.372 1.703 1.816 1.703 1.816 3.891 5.128 1.812 2.688 1.812 2.688 5.812 5.688 3.63 0.473 5.538 0.236 8.812-1.438 3.188-1.562 3.188-1.562 7.438-1.874 7.543-1.092 12.75-5.188 18.75-9.688 4.625-0.812 4.625-0.812 9-1l2 2c-0.556 4.556-0.556 4.556-2 6-1.849 0.234-3.705 0.413-5.562 0.562-0.506 0.042-0.506 0.042-3.067 0.254-0.782 0.061-1.565 0.122-2.371 0.184-0.113 0.784-0.113 0.784-0.688 4.75-0.723 3.611-1.036 4.959-3.624 7.688-1.694 0.984-3.401 1.946-5.126 2.874-3.556 2.343-5.856 5.418-8.562 8.688l-5 5c-1.812 3.625-1.123 7.264 0 11 1.819 2.77 3.826 5.203 6.004 7.699 1.996 2.301 1.996 2.301 4.246 5.801 1.75 2.5 1.75 2.5 5.75 4.5 3.562-0.062 3.562-0.062 7-1 2.817-3.098 2.998-4.845 3.062-9.062 0.31-1.3 0.619-2.599 0.938-3.938 2.472-1.313 4.965-2.092 7.621-2.965 2.379-1.035 2.379-1.035 4.317-4.16 0.587-2.141 1.161-4.286 1.679-6.445 1.828-7.045 1.828-7.045 5.445-9.555 2.938-0.875 2.938-0.875 4.938-0.875l2-4c1.667-3.333 3.333-6.667 5-10l2 1c1.359 5.3 1.348 10.575 1 16-2.52 3.877-5.632 4.809-10 6-0.489 7.336-0.489 7.336 1.75 10.375 5.206 3.76 9.067 3.908 15.355 4.004 0.44 8e-3 0.44 8e-3 2.667 0.051 2.805 0.053 5.61 0.094 8.416 0.132 2.816 0.044 5.632 0.091 8.448 0.143 2.547 0.047 5.095 0.084 7.642 0.121 3.722 0.174 3.722 0.174 4.722 1.174 0.701 3.331 1.367 6.657 2 10 0.332 1.667 0.664 3.334 1 5-3.974 1.987-5.944 2.326-10.27 2.562-0.609 0.038-0.609 0.038-3.693 0.227-0.635 0.035-0.635 0.035-3.849 0.211-16.988 0.939-16.988 0.939-21.188 3-1.023 2.73-1.023 2.73-1.375 6.188-1.227 7.742-4.438 12.95-8.859 19.339-2.104 4.137-2.167 6.08-0.766 10.473 6.713 3.356 14.042 1.244 21-1 1.033-0.803 2.065-1.606 3.129-2.434 4.434-2.939 8.54-3.965 13.683-4.878 0.858-0.169 1.716-0.337 2.6-0.51 6.11-1.178 6.11-1.178 8.588-1.178 0.144-0.557 0.144-0.557 0.875-3.375 1.125-3.625 1.125-3.625 3.125-5.625 3.011-0.33 6.036-0.542 9.062-0.688 1.641-0.086 3.282-0.172 4.973-0.261 1.309-0.017 2.617-0.034 3.965-0.051 1 1 1 1 1.375 4-0.475 5.069-2.12 9.054-5.375 13-8.407 4.334-19.222 5.125-28.477 6.57-2.194 0.374-4.363 0.89-6.523 1.43-0.697 1.654-1.361 3.323-2 5-4.089 3.067-5.192 3.436-10.016 3.879-1.169 0.117-2.338 0.233-3.543 0.353-1.218 0.109-2.436 0.218-3.691 0.33-19.526 1.832-19.526 1.832-24 5.063-2.392 3.246-4.02 6.741-5.75 10.375l-2 3c-0.438 3-0.438 3 0 6 3.991 3.216 7.292 3.379 12.312 3.312 1.255-3e-3 2.509-7e-3 3.801-0.011 7.442-0.576 13.006-2.755 19.512-6.301 7.852-3.813 14.469-4.852 23.114-5.348 11.592-0.713 22.549-3.048 32.261-9.652 3.75-0.375 3.75-0.375 7 0 2.771 2.771 2.247 5.089 2.271 8.846-2e-3 0.482-2e-3 0.482-0.012 2.925 2e-3 0.507 2e-3 0.507 0.01 3.075 9e-3 3.369 3e-3 6.738-3e-3 10.107 1e-3 2.337 3e-3 4.674 5e-3 7.011 3e-3 4.906-1e-3 9.812-0.01 14.718-0.012 6.286-5e-3 12.572 7e-3 18.858 7e-3 4.83 5e-3 9.66 0 14.49-2e-3 2.317 0 4.634 5e-3 6.951 5e-3 3.244-3e-3 6.487-0.014 9.731 4e-3 0.957 8e-3 1.914 0.012 2.9-0.031 4.886-0.522 8.833-2.271 13.388-0.124 1.402-0.247 2.805-0.375 4.25-0.606 4.608-1.758 7.807-3.594 11.996-1.182 3.159-1.779 6.255-2.406 9.566-1.197 5.636-2.705 7.943-7.625 11.188-2 4-2 4-3 7.688-0.33 1.093-0.66 2.186-1 3.312-3.622 1.811-8.041 1.539-12 1l-3-3c0.562-2.125 0.562-2.125 2-5l4-9c0.351-0.949 0.701-1.898 1.062-2.875 1.73-3.921 4.192-5.252 7.938-7.125 3.626-6.883 5.464-14.53 7.188-22.07 0.83-2.994 1.979-5.566 3.312-8.368 9.061-21.243 8.002-50.581 2.5-72.562-0.313-1.812-0.626-3.625-0.938-5.438-0.35-1.175-0.701-2.351-1.062-3.562-4.421-1.105-8.197-1.097-12.75-1.062-0.771 4e-3 -0.771 4e-3 -4.672 0.027-1.181 0.011-2.361 0.023-3.578 0.035-1.334 8.746-1.153 17.388 1 26 0.99 0.309 1.98 0.619 3 0.938 0.99 0.35 1.98 0.701 3 1.062 0.938 2.562 0.938 2.562 1 5-1.933 1.933-5.375 1.174-7.938 1.188-1.267 0.014-2.534 0.028-3.839 0.042-3.223-0.23-3.223-0.23-5.223-2.23-0.268-1.072-0.536-2.145-0.812-3.25-2.438-7.699-8.325-12.008-15.188-15.75-7.93-3.185-17.309-3.547-25.25-0.188-3.75 2.188-3.75 2.188-5.75 5.188 0.105 3.584 0.517 7.089 0.906 10.652 0.094 3.348 0.094 3.348-1.906 7.348-3 0.438-3 0.438-6 0-2-3-2-3-3-7.625-0.33-1.444-0.66-2.888-1-4.375-13.433-6.716-38.794-1.209-52 3-3 3-3 3-6 7-5.223 1.985-10.469 2.439-16 3l-4 1c-0.889 3.555-1.132 6.181-1.145 9.8-7e-3 1.169-0.013 2.338-0.02 3.543-1e-3 1.264-2e-3 2.527-3e-3 3.829-3e-3 1.31-7e-3 2.621-0.01 3.971-5e-3 2.78-7e-3 5.561-7e-3 8.342-2e-3 4.207-0.021 8.414-0.04 12.62-0.081 36.845-0.081 36.845 5.225 43.895 11.249 5.625 23.666 5.774 36 6.5 20.678 1.217 20.678 1.217 29.62 3.823 2.38 0.677 2.38 0.677 7.068 1.427 5.477 1.588 9.601 3.856 13.312 8.25 0.75 4.312 0.75 4.312 0 8-4.786 3.191-9.606 3.125-15.239 3.098-1.216-4e-3 -2.432-7e-3 -3.686-0.01-0.653-5e-3 -0.653-5e-3 -3.958-0.026-1.364-3e-3 -2.729-7e-3 -4.135-0.011-5.82-0.016-11.639-0.044-17.459-0.072-40.738-0.175-40.738-0.175-57.523 2.021l-1 1v5c1.936 1.936 5.352 1.675 7.938 2 1.267 0.165 2.534 0.33 3.839 0.5 14.828 1.559 29.732 1.713 44.625 1.74 3.198 0.01 6.396 0.041 9.594 0.072 10.722 0.058 21.306-0.304 31.965-1.515 0.963-0.1 1.926-0.2 2.918-0.303 5.966-0.767 10.601-2.397 15.852-5.341 7.247-3.681 16.232-3.469 24.207-3.965 0.462-0.033 0.462-0.033 2.802-0.199 5.258-0.264 6.898-0.261 11.26 3.011v5c-2 2-2 2-6.875 3.062-2.73 0.766-2.73 0.766-5.125 1.938-2.188 4.312-2.188 4.312-3.016 6.727-1.636 3.778-4.812 5.769-7.984 8.273-0.371 0.526-0.371 0.526-2.25 3.188-3.085 3.155-4.253 3.308-8.438 4.124-2.91 0.637-2.91 0.637-5.312 1.688-1.625 4.625-1.625 4.625-2 9-1 1-1 1-3.438 1.25-7.177-0.504-13.184-2.361-18.562-7.25-4.935-1.645-10.081-1.644-15.25-2-1.261-0.088-2.522-0.175-3.822-0.265-12.64-0.817-25.285-1.142-37.947-1.393-35.96-0.731-35.96-0.731-44.543-6.904-10.06-6.606-26.208-4.76-37.75-4.688-1.524 5e-3 -3.048 9e-3 -4.617 0.014-30.077 0.242-30.077 0.242-33.071 3.236v5c0.639 0.227 0.639 0.227 3.875 1.375 0.719 0.255 1.439 0.51 2.18 0.773 10.927 3.16 21.654 3.22 32.945 3.352 22.52 0.264 22.52 0.264 30 2.5 1.688 2.938 1.688 2.938 3 6 16.814 8.889 41.904 5.202 60.25 5.062 4.42-0.027 8.839-0.052 13.259-0.071 2.729-0.012 5.458-0.029 8.187-0.053 6.198-0.033 12.164 0.077 18.304 1.062l1 5c-0.454 0.103-0.454 0.103-2.75 0.625-6.997 2.264-14.01 5.135-19.25 10.375-11.546 5.566-23.768 5.984-36.306 6.807-8.919 0.639-15.78 1.912-23.694 6.193-6.239 2.472-11.321 3.698-18 2-0.791-0.646-1.583-1.292-2.398-1.957-10.585-8.312-31.067-6.514-44.016-7.316-13.699-0.851-13.699-0.851-20.133-5.032-4.707-2.985-9.67-4.996-14.828-7.07-6.77-2.798-12.925-5.598-18.687-10.215-3.378-2.458-6.437-3.35-10.563-3.848-3.375-0.562-3.375-0.562-6.375-3.562-0.433-1.134-0.866-2.269-1.312-3.438-1.961-4.137-3.782-5.318-7.688-7.562l-2-2c0.33-3.297 0.623-4.623 3-7 2.519-0.379 2.519-0.379 5.672-0.562 1.139-0.075 2.279-0.15 3.453-0.227 1.196-0.07 2.392-0.139 3.625-0.211 2.349-0.139 4.698-0.284 7.047-0.438 1.045-0.06 2.09-0.121 3.167-0.183 3.219-0.402 5.999-1.257 9.036-2.379v-5c-4.234-2.8-9.63-2.519-14.562-2.875-30.817-2.675-30.817-2.675-39.438-12.125-3.872-2.621-7.513-4.792-11.812-6.625-3.188-1.375-3.188-1.375-6.188-4.375-1.168-3.504-1.168-3.504-2.188-7.562-0.172-0.671-0.172-0.671-1.042-4.067-0.77-3.371-0.77-3.371-0.77-5.371-0.722-0.227-0.722-0.227-4.375-1.375-4.625-1.625-4.625-1.625-6.625-3.625-0.676-3.904-1.208-7.796-1.68-11.729-0.775-5.64-2.346-9.464-5.32-14.271-5.456-13.307-6.526-27.56-8.105-41.719-0.473-4.161-1.016-8.203-1.989-12.277-2.364-10.447-0.948-20.664 1.239-31 1.53-8.09 2.007-16.367 2.677-24.563 2.006-23.107 2.006-23.107 6.68-28.129 2.417-1.958 4.859-3.671 7.498-5.312l1-1c2.202-0.351 4.413-0.656 6.625-0.938 4.971-0.673 9.562-1.646 14.375-3.062 0.763-0.072 0.763-0.072 4.625-0.438 4.104-0.527 6.167-1.056 9.375-3.562 1.512-3.024 1.173-5.662 1-9-2-4-2-4-5.375-5.688-4.741-3.024-5.459-6.212-7.625-11.312-1.985-1.685-3.981-3.357-6-5l1-4c4.565-1.522 8.168-2 13-2 2 2 2 2 3.062 6.375 0.754 2.461 0.754 2.461 1.938 4.625 1.485 0.66 2.97 1.32 4.5 2 1.485 0.66 2.97 1.32 4.5 2 1.013 2.996 2.012 5.996 3 9 2.21 1.629 4.437 2.72 6.918 3.887 2.793 1.493 3.716 3.309 5.082 6.113 1.688 2.312 1.688 2.312 4 4 4.062 0.438 4.062 0.438 8 0 3-3 3-3 3.375-6.812-0.383-4.28-1.291-6.5-3.375-10.188-0.134-0.526-0.134-0.526-0.812-3.188-1.188-2.812-1.188-2.812-4.008-4.152-3.64-1.9-4.984-3.649-7.242-7.035-2.142-3.119-4.006-5.69-6.75-8.313-2.188-2.312-2.188-2.312-3.376-6.374-2.041-4.436-2.62-4.698-6.937-6.376-1.624-0.524-3.248-1.046-4.875-1.562-1-1-1-1-1.25-4 0.31-4.964 1.069-8.506 3.25-13 4.562-2 4.562-2 9-3l2-1c2.427-0.05 4.855-0.036 7.281 8e-3 0.741 8e-3 0.741 8e-3 4.492 0.051 3.12 0.043 6.24 0.095 9.36 0.156 15.606 0.148 15.606 0.148 22.867-3.215 2.389-4.106 2.272-8.372 2.438-13.062 1.017-18.393 1.017-18.393 5.562-22.938 3.59-0.301 3.59-0.301 7.938-0.312 0.716-9e-3 0.716-9e-3 4.339-0.051 3.723 0.363 3.723 0.363 6.723 3.363 0.625 2.961 0.625 2.961 1 6.375 0.509 4.61 1.108 7.916 4 11.625 1.32 0.413 2.64 0.825 4 1.25 4 1.75 4 1.75 5.938 6.188 0.35 1.505 0.701 3.011 1.062 4.562l1 4c8.17 0.481 8.17 0.481 11.375-1.375 2.009-3.245 2.735-6.446 3.715-10.113 1.4-3.864 4.226-6.444 6.91-9.512 2.398-4.779 3.958-9.85 5.562-14.938 1.438-4.062 1.438-4.062 4.438-7.062zm-4.688 40.812c-4.166 5.743-6.026 12.256-7.25 19.188-1.062 4-1.062 4-3.562 5.812-0.825 0.392-1.65 0.784-2.5 1.188-3.223 6.446-2.508 12.045-0.75 18.812 1.75 4.188 1.75 4.188 3.75 6.563 2.116 2.778 2.579 4.464 3.375 7.813 1.492 5.912 3.581 11.165 7.625 15.812 3.562 1.438 3.562 1.438 7 1 2.688-2.25 2.688-2.25 5-5 4-3 4-3 8.125-4.438 3.875-1.562 3.875-1.562 5.875-5.562 0.411-2.514 0.411-2.514 0.633-5.324 0.084-1.03 0.167-2.059 0.254-3.119 0.078-1.071 0.157-2.141 0.238-3.245 0.086-1.051 0.173-2.102 0.262-3.185 2.427-30.951 2.427-30.951-5.387-41.127-6.581-4.6-15.003-10.37-22.688-5.188zm-49.312 3.188-2 2v5l2 2h5l2-2v-5l-2-2h-5zm-55.562 12.625c-1.852 3.058-1.879 4.851-1.438 8.375l2 4c1.134 0.371 2.269 0.743 3.438 1.125 3.562 1.875 3.562 1.875 4.546 4.039 0.475 1.746 0.922 3.499 1.344 5.258 0.949 3.64 2.55 6.492 4.672 9.578 4.196 2.098 6.93 2.504 11.562 2.875 0.661 0.061 0.661 0.061 4.004 0.367 1.133-0.08 2.267-0.16 3.434-0.242 3.498-4.664 3.406-6.372 3.375-12.062 8e-3 -1.415 0.015-2.829 0.023-4.286-0.398-3.652-0.398-3.652-3.398-6.652-4.621-2.24-8.995-4.018-13.938-5.375-4.062-1.625-4.062-1.625-5.5-4.75-0.185-0.949-0.371-1.898-0.562-2.875-4.316-2.158-9.539-1.926-13.562 0.625zm159.56 11.375c-3 3-3 3-3.375 6 0.375 3 0.375 3 3.375 6 3.062 0.312 3.062 0.312 6 0 2-2 2-2 2.312-5.438-0.312-3.562-0.312-3.562-3.312-6.562h-5zm-107.31 11.875c-3.699 4.658-2.984 9.386-2.688 15.125 0.678 5.542 1.568 9.424 5 14 2.938 0.5 2.938 0.5 6 0 6.192-4.973 6.646-12.901 7.5-20.375-0.629-4.557-2.247-6.45-5.5-9.625-3.822-1.911-6.993-1.816-10.312 0.875zm158.31 17.125c-3.768 5.525-6.06 11.645-8.527 17.828-1.473 3.172-1.473 3.172-4.098 5.172-2.375 2-2.375 2-3.375 5.562v3.438c3.576 3.576 5.034 3.832 10 4 3-1.312 3-1.312 6-3 1.196-0.247 2.392-0.495 3.625-0.75 3.375-1.25 3.375-1.25 5.625-4.062 1.573-3.765 2.354-6.962 3.125-10.938 1.232-5.967 1.232-5.967 4.75-8.5 0.949-0.247 1.898-0.495 2.875-0.75 1-1 1-1 1.25-3.875-0.25-3.125-0.25-3.125-3.25-6.125-5.41-2.705-13.065-1.139-18 2zm-39.688 2.188c-2.672 3.249-3.798 3.424-7.75 4.5-7.651 2.321-14.028 6.547-19.562 12.312-3.111 6.188-3.463 11.672-3.375 18.438-0.012 0.89-0.023 1.78-0.035 2.697 0.027 6.201 1.003 11.131 3.41 16.865 3 2 3 2 6.438 1.938 4.352-1.146 4.869-2.453 7.562-5.938 1.464-0.722 2.929-1.444 4.438-2.188 4.954-2.533 6.141-5.549 8.246-10.527 2.08-3.611 5.657-4.514 9.316-6.285 4.444-8.888 5.32-18.429 2.438-27.938-1.098-2.808-1.098-2.808-2.438-5.062-3.959-1.697-5.898-2.429-8.688 1.188zm-92.687 24.624c-2.917 3.928-2.818 6.612-2.875 11.5-0.026 1.317-0.052 2.633-0.078 3.989 0.34 3.836 0.997 5.683 3.328 8.699 2.799 1.399 4.905 1.253 8 1 3.908-3.908 5.298-6.831 5.375-12.25-0.124-5.438-1.128-9.254-4.375-13.75-4.094-1.462-5.856-1.873-9.375 0.812zm-130.5 8.25c-2.125 2.938-2.125 2.938-2.687 6.438 0.655 4.078 1.579 5.678 4.562 8.5 5.741 3.117 13.511 4.772 20 4 3.605-3.605 4.709-6.004 5.438-11-0.438-3-0.438-3-2.126-5.75-6.217-4.223-18.777-6.786-25.187-2.188zm49.875 0.938c-1.46 2.839-2.113 5.502-2.812 8.625-1.395 3.962-2.517 4.586-6.188 6.375-1.444 2.889-1.377 4.796-1 8 1.62 1.712 3.296 3.372 5 5 0.896 1.539 1.748 3.104 2.562 4.688 2.438 4.312 2.438 4.312 6.438 6.312 10.804 2.5 19.956 3.174 30-2 2.188-1.75 2.188-1.75 4-4 1.184-1.357 2.372-2.711 3.562-4.062 0.579-0.672 1.158-1.344 1.754-2.036 1.498-1.692 3.086-3.304 4.684-4.902 0.658-4.932-0.758-7.688-3-12-0.165-0.691-0.165-0.691-1-4.188-1-3.812-1-3.812-4-6.812-5.138-2.343-10.207-2.271-15.75-2.188-0.445 4e-3 -0.445 4e-3 -2.695 0.024-15.635 0.204-15.635 0.204-21.555 3.164zm117.56 1.5c-2.562 2.5-2.562 2.5-3.187 5.875 0.737 4.276 1.668 6.441 4.625 9.625 3.562 1.062 3.562 1.062 7 1 3.449-3.449 4.884-5.677 5.312-10.562-0.312-3.438-0.312-3.438-3.312-6.438-4.288-1.214-6.322-1.296-10.438 0.5zm63.438 23.5c-0.784 1.279-1.568 2.558-2.375 3.875-2.611 4.102-4.525 5.702-8.625 8.125-1.818 3.637-1.317 7.033-1 11 2.573 3.742 4.176 4.783 8.562 5.938 3.438 0.062 3.438 0.062 7.438-1.938 0.392-1.464 0.784-2.929 1.188-4.438 0.299-0.752 0.299-0.752 1.812-4.562 4.562-1.875 4.562-1.875 9-3 2.639-3.958 2.427-6.308 2-11-1.794-2.81-3.019-4.509-6-6-4.928-0.238-7.525-0.237-12 2zm-139 16c-2.207 4.02-2.207 4.02-4 8-2.438 2.137-2.438 2.137-5 3.688-3.046 1.94-4.839 3.084-6.938 6.062-4.051 4.42-10.51 4.902-16.238 5.684-0.932-0.143-1.864-0.287-2.824-0.434-1.582-2.484-1.582-2.484-2.812-5.75-2.68-5.974-2.68-5.974-7.563-8.625-1.526-0.536-3.052-1.072-4.625-1.625-1.452-1.036-2.87-2.12-4.25-3.25-3.75-2.75-3.75-2.75-8.75-2.75-1.424 1.689-2.84 3.385-4.191 5.133-2.134 2.202-4.146 3.177-6.934 4.429-4.6 2.081-6.148 4.165-8.875 8.438-3.438 1.956-6.848 3.581-10.566 4.934-5.313 2.161-8.07 4.181-10.559 9.441-4.296 12.506-2.488 28.082 1.125 40.625 1.987 2.345 3.986 4.678 6 7 1.137 4.008 1.137 4.008 1.688 8.125 1.267 9.122 1.267 9.122 4.312 12.875 4.235 2.197 8.16 2.368 12.883 2.574 0.812 0.037 1.624 0.074 2.461 0.111 7.796 0.33 15.598 0.511 23.398 0.71 1.307 0.034 2.613 0.068 3.959 0.103 0.663 0.018 0.663 0.018 4.018 0.106 1.34 0.035 2.681 0.07 4.062 0.106 2.74 0.069 5.48 0.131 8.22 0.189 4.019 0.086 8.036 0.195 12.054 0.308 0.603 0.01 0.603 0.01 3.659 0.061 11.309 0.356 21.173 3.209 31.067 8.681 6.993 3.312 15.658 2.731 23.219 3.051 0.961 0.041 1.922 0.082 2.913 0.124 3.091 0.115 6.181 0.188 9.275 0.251 0.991 0.038 1.983 0.076 3.005 0.115 4.3 0.05 7.197-0.098 10.858-2.451 4.984-7.771 4.256-17.269 4.25-26.172 2e-3 -0.675 2e-3 -0.675 0.013-4.091 5e-3 -2.849 6e-3 -5.698 2e-3 -8.547-3e-3 -4.319 0.02-8.637 0.045-12.956 3e-3 -2.781 3e-3 -5.562 2e-3 -8.343 5e-3 -0.637 5e-3 -0.637 0.028-3.856-0.051-10.215-0.764-20.821-5.391-30.074-4.679-2.34-7.668-2.332-12.875-2.375-0.782-0.014-0.782-0.014-4.742-0.086-4.755 0.5-6.781 1.397-10.383 4.461-3 4-3 4-3 6-0.722-0.01-0.722-0.01-4.375-0.062-4.625 0.062-4.625 0.062-6.625 1.062-3.039 0.233-6.081 0.412-9.125 0.562-0.849 0.044-1.699 0.087-2.574 0.131-2.1 0.107-4.201 0.207-6.301 0.307v-3c1.423-0.103 2.846-0.206 4.312-0.312 4.688-0.688 4.688-0.688 7.688-3.688 0.124-0.732 0.124-0.732 0.75-4.438 0.707-2.406 0.707-2.406 2.25-4.562 3.778-1.569 7.427-2.435 11.434-3.246 3.566-0.754 3.566-0.754 7.566-2.754 1.776-3.551 1.207-7.117 1-11-2.081-4.541-2.081-4.541-5-6-11.73-1.418-22.89 0.849-33 7zm-102-3c-3 4-3 4-2.875 7.625 0.875 3.375 0.875 3.375 3.875 5.375 3 0.312 3 0.312 6 0 3-3 3-3 3.375-6.5-0.375-3.5-0.375-3.5-3.375-6.5-3.5-0.438-3.5-0.438-7 0zm56 148c-0.25 3-0.25 3 0 6 5.491 5.491 20.349 3.121 27.77 3.139 0.701-1e-3 0.701-1e-3 4.25-6e-3 0.748 0 0.748 0 4.535 3e-3 3.154 0 6.308-1e-3 9.462-6e-3 4.744-5e-3 9.487 0 14.231 7e-3 13.8 4e-3 27.595-0.048 41.389-0.52 1.036-0.03 2.073-0.061 3.141-0.092 6.982-0.285 6.982-0.285 9.222-2.525v-5c-3.237-3.237-7.621-2.721-12-3.062-0.889-0.078-1.779-0.156-2.695-0.237-3.1-0.261-6.201-0.485-9.305-0.701-0.626-0.045-0.626-0.045-3.792-0.274-12.746-0.822-25.472-0.912-38.24-0.911-3.66-3e-3 -7.319-0.021-10.978-0.04-32.685-0.08-32.685-0.08-36.99 4.225z" fill="#FA6400"/>
<path transform="translate(1807,513)" d="m0 0c3.375 3.375 2.3 8.246 2.303 12.794 8e-3 1.143 0.017 2.286 0.026 3.463 0.026 3.881 0.038 7.761 0.05 11.641 0.016 2.803 0.033 5.606 0.05 8.409 0.037 6.115 0.067 12.23 0.092 18.345 0.037 8.959 0.085 17.917 0.137 26.876 0.12 21.104 0.218 42.209 0.314 63.313 0.044 9.66 0.089 19.321 0.133 28.981 0.016 3.361 0.031 6.722 0.047 10.083 0.052 11.294 0.104 22.588 0.158 33.881 3e-3 0.556 3e-3 0.556 0.017 3.368 0.021 4.476 0.042 8.951 0.064 13.426 0.064 13.303 0.124 26.605 0.177 39.907 0.034 8.428 0.071 16.856 0.11 25.284 0.023 4.909 0.045 9.818 0.061 14.728 0.016 4.525 0.036 9.051 0.06 13.576 0.011 2.424 0.018 4.848 0.024 7.272 9e-3 1.443 0.017 2.886 0.026 4.373 5e-3 1.245 0.01 2.491 0.015 3.774 0.139 3.595 0.388 6.984 1.136 10.506 0.887 0.289 1.774 0.577 2.688 0.875 5.104 1.734 6.91 5.475 9.312 10.125 1.531 4.056 1.375 6.059-0.223 10.066-4.139 8.615-4.139 8.615-6.777 9.934-1.279 0.082-2.557 0.165-3.875 0.25-8.831 0.907-16.9 5.495-24.676 9.539-7.556 3.736-13.917 4.863-22.293 5.586-4.156 0.625-4.156 0.625-7.875 2.25-3.281 1.375-3.281 1.375-6.011 1.316-2.83-1.173-3.819-2.522-5.582-5.003-2.819-3.44-3.22-3.868-7.876-4.563-3.812 0.625-3.812 0.625-7.812 2.625-0.743 0.144-0.743 0.144-4.5 0.875-5.943 1.486-5.943 1.486-8.5 5.125-0.33 1.196-0.66 2.392-1 3.625-2 3.375-2 3.375-4.645 4.27-9.707 1.663-15.917 1.546-24.355-3.895-1.299-1.011-2.599-2.021-3.938-3.062-5.71-3.97-12.441-4.763-19.148-5.981-3.914-0.957-3.914-0.957-6.914-3.957-1.492-3.808-2.803-7.656-4.109-11.531-2.356-4.323-4.343-4.891-8.891-6.469-2.794-3.758-3.275-7.471-3.938-12-0.992-6.677-3.304-10.242-8.062-15-10.551-27.419-3.726-63.853-2.535-92.648 0.038-0.968 0.077-1.936 0.117-2.933 0.861-20.082 0.861-20.082 3.356-26.607 1.282-3.534 2.262-6.737 3.062-10.437 0.789-3.452 1.664-6.062 3.062-9.25 1.56-3.687 2.238-6.818 2.5-10.813 0.312-4.687 0.934-8.221 3.438-12.312 1.134-0.495 2.269-0.99 3.438-1.5 5.153-3.617 5.307-7.767 6.679-13.723 1.969-8.425 4.473-12.926 11.883-17.777 0.431-0.793 0.861-1.586 1.305-2.402 2.232-3.42 4.646-4.558 8.257-6.41 1.157-0.605 2.313-1.21 3.504-1.833 2.934-1.355 2.934-1.355 4.934-1.355l2-4c5.553-4.213 9.066-5.724 16-5 0.463 0.024 0.463 0.024 2.809 0.148 3.007 0.296 5.409 0.66 8.191 1.852 2.114 2.924 2.868 5.507 4 9 3.719 1.859 7.959 1.452 12 1 6.5-3 6.5-3 8-6 0.158-2.712 0.251-5.428 0.316-8.145 0.021-0.829 0.043-1.658 0.064-2.512 0.067-2.718 0.126-5.437 0.182-8.155 0.01-0.463 0.01-0.463 0.06-2.801 0.097-4.698 0.188-9.395 0.274-14.092 0.087-4.636 0.212-9.27 0.342-13.904 0.282-12.824 0.462-24.56-5.238-36.391-2-2-2-2-6.5-3.438-4.5-1.562-4.5-1.562-6.5-4.562-1.487-4.907-1.26-9.931-1-15 4.041-4.041 6.183-3.299 11.812-3.312 9.936-0.245 18.86-2.384 26.77-8.774 2.43-1.923 4.312-2.769 7.23-3.726 5.529-2.066 8.858-5.225 13.188-9.188 4.305-2.217 8.729-2.666 13.5-3.25 1.475-0.191 2.949-0.382 4.469-0.578 3.832-0.164 5.737-0.015 9.031 1.828zm-100.56 175.76c-1.134 1.623-2.24 3.266-3.32 4.926-0.284 0.408-0.284 0.408-1.719 2.474-6.496 9.505-7.97 18.548-8.801 29.947-0.906 12.281-2.997 23.071-6.605 34.891-3.519 13.328-1.864 24.352 1.984 37.316 2.438 8.54 3.894 16.937 4.889 25.744 0.915 7.695 1.839 15.366 7.127 21.315 3.551 4.291 4.183 7.557 5.066 12.953 0.934 2.672 0.934 2.672 3.313 4.508 4.757 2.113 8.431 1.595 13.246-0.148 7.041-3.521 9.524-5.731 12.387-13.141 1.398-5.018 1.513-9.849 1.683-15.035 0.359-5.315 1.228-10.413 2.243-15.637 0.17-0.889 0.34-1.777 0.515-2.693 0.697-3.493 1.444-6.882 2.606-10.252 6.048-18.824 5.059-45.575-1.004-64.024-2.325-7.277-3.293-14.525-4.18-22.094-0.307-2.577-0.622-5.154-0.945-7.73-0.132-1.122-0.264-2.243-0.399-3.399-0.531-2.683-0.531-2.683-2.531-4.683-1.127-0.217-2.253-0.433-3.414-0.656-3.586-1.344-3.586-1.344-5.547-4.75-0.467-1.351-0.933-2.702-1.414-4.094-0.241-0.675-0.241-0.675-1.461-4.094-0.384-1.124-0.768-2.248-1.164-3.406l-1-2c-5.493-1.01-8.13-0.533-11.555 3.762z"/>
</svg>
