<?xml version="1.0" encoding="UTF-8"?>
<svg version="1.1" viewBox="0 0 2904 1312" xmlns="http://www.w3.org/2000/svg">
<path transform="translate(1141.4 385.5)" d="m0 0c0.951-1e-3 1.901-1e-3 2.881-2e-3 1.097-0.01 2.195-0.021 3.325-0.032 0.606 5e-3 0.606 5e-3 3.669 0.027 0.641-3e-3 0.641-3e-3 3.886-0.018 4.323-0.016 8.645-4e-3 12.968 9e-3 3.089-6e-3 6.179-0.013 9.268-0.021 7.538-0.017 15.077-0.014 22.615-3e-3 6.132 9e-3 12.264 0.01 18.397 6e-3 0.872 0 1.744-1e-3 2.643-2e-3 1.772-1e-3 3.544-2e-3 5.316-4e-3 16.636-0.011 33.273 2e-3 49.909 0.024 14.255 0.017 28.51 0.014 42.765-4e-3 16.558-0.022 33.115-0.03 49.673-0.018 1.769 2e-3 3.538 3e-3 5.308 4e-3 0.87 1e-3 1.741 1e-3 2.637 2e-3 6.114 3e-3 12.228-2e-3 18.342-0.012 8.251-0.012 16.501-3e-3 24.752 0.02 3.022 5e-3 6.044 4e-3 9.066-5e-3 28.778-0.077 28.778-0.077 41.198 4.53 4.81 1.312 9.441 2.187 14.375 2.813 5.351 0.778 9.143 2.277 13.817 4.894 4.795 2.208 9.928 3.117 15.074 4.204 3.91 1.141 6.386 2.827 9.734 5.089 3.149 0.871 3.149 0.871 6.375 1.438 5.794 1.201 9.655 3.303 14.625 6.562 1.652 0.53 3.321 1.007 5 1.438 3.677 0.984 6.15 2.188 9.125 4.562 3.949 3.058 7.231 4.286 11.875 6 5.357 3.074 9.694 6.575 14 11 1.664 1.005 3.331 2.004 5 3 6.778 4.966 12.859 10.657 18.813 16.563 0.311 0.306 0.311 0.306 1.884 1.856 4.226 4.254 7.789 8.722 11.303 13.581 0.581 0.778 1.161 1.555 1.758 2.356 0.226 0.302 0.226 0.302 1.367 1.832 1.644 2.18 3.315 4.34 5.063 6.437 2.03 2.661 3.34 5.371 4.812 8.375 0.403 0.619 0.403 0.619 2.438 3.75 2.347 3.893 3.96 7.505 5.473 11.758 1.089 2.492 1.089 2.492 3.027 5.348 6.506 9.919 9.03 22.311 11.898 33.703 1.239 4.726 2.712 9.305 4.368 13.898 2.088 6.664 2.112 13.493 2.359 20.418 0.021 0.573 0.021 0.573 0.126 3.471 1.582 46.965 1.582 46.965-4.689 68.654-0.544 1.958-1.086 3.916-1.625 5.875-0.121 0.433-0.121 0.433-0.738 2.621-0.629 2.474-1.046 4.923-1.449 7.442-0.979 5.224-3.261 9.497-5.738 14.164-1.302 2.604-2.239 5.056-3.075 7.836-1.356 4.008-2.777 5.835-5.375 9.062-0.918 2.395-1.835 4.789-2.742 7.188-2.395 5.356-5.912 10.016-9.258 14.812-1.003 1.54-2.003 3.082-3 4.625-3.362 5.039-7.131 9.719-11 14.375-0.612 0.738-1.224 1.475-1.855 2.235-3.438 4.037-7.068 7.398-11.145 10.765-0.763 0.949-1.526 1.898-2.312 2.875-3.46 4.024-7.448 6.967-11.688 10.125-2.466 1.919-4.716 3.688-6.812 6-3.029 2.77-6.517 4.193-10.188 6l-2.5 2c-2.5 2-2.5 2-6.437 3.938-4.038 2.05-7.014 3.709-10.063 7.062-0.812 3.813-0.812 3.813 0 8 1.565 2.26 3.284 4.16 5.196 6.133 3.342 3.458 5.634 7.587 8.117 11.68 2.005 3.124 4.009 5.927 6.312 8.812 2.637 3.315 4.547 6.544 6.375 10.375 1.323 1.676 2.658 3.341 4 5 1.667 2.667 3.334 5.334 5 8 0.702 0.867 1.403 1.733 2.125 2.625 1.875 2.375 1.875 2.375 3.313 5.313 1.783 3.495 4.043 6.054 6.562 9.062 1.59 2.168 3.153 4.356 4.688 6.563 0.767 1.094 1.534 2.189 2.324 3.316 1.988 3.121 1.988 3.121 3.133 6.024 0.282 0.692 0.565 1.384 0.855 2.097h2c1.332 1.977 1.332 1.977 2.813 4.625 1.8 3.118 3.485 5.73 5.812 8.5 2.794 3.382 4.443 6.949 6.375 10.875 1.294 1.698 2.626 3.368 4 5 1.334 2 2.667 4 4 6 0.66 0.784 1.32 1.568 2 2.375 2 2.625 2 2.625 3.688 6.25 2.549 4.823 5.637 8.557 9.141 12.707 2.737 3.363 4.925 6.965 7.171 10.668 1.027 1.407 2.069 2.803 3.125 4.188 2.875 3.812 2.875 3.812 4.5 6.562 1.375 2.25 1.375 2.25 3.5 4.313 1.875 1.937 1.875 1.937 2.875 5.937-3 3-3 3-5.848 3.375h-3.539c-1.341 7e-3 -2.681 0.014-4.062 0.021-1.474-8e-3 -2.949-0.015-4.468-0.023-0.774 2e-3 -0.774 2e-3 -4.696 0.011-4.256 7e-3 -8.512 0-12.769-0.014-4.454-0.011-8.909-7e-3 -13.363-5e-3 -7.485 1e-3 -14.97-0.01-22.456-0.028-8.647-0.022-17.294-0.025-25.941-0.019-8.32 6e-3 -16.641 0-24.961-0.011-3.539-5e-3 -7.078-6e-3 -10.617-3e-3 -4.948 2e-3 -9.897-0.013-14.845-0.029-1.466 3e-3 -2.932 5e-3 -4.443 8e-3 -0.676-4e-3 -0.676-4e-3 -4.096-0.022-1.169-2e-3 -2.339-4e-3 -3.544-6e-3 -4.756-0.361-8.953-0.978-12.539-4.251-0.598-0.805-1.196-1.611-1.813-2.441-0.666-0.891-1.332-1.782-2.019-2.699-2.58-3.73-5.005-7.54-7.387-11.399-1.594-2.465-1.594-2.465-4.281-5.652-2.313-2.813-2.313-2.813-4.063-6.5-2.468-4.731-5.44-8.369-8.867-12.43-3.061-3.704-5.86-7.566-8.656-11.472-1.546-2.159-3.134-4.287-4.727-6.411-0.474-0.969-0.948-1.938-1.437-2.937-1.571-3.079-3.369-5.404-5.563-8.063-0.639-0.969-1.278-1.938-1.937-2.937-2.063-3.063-2.063-3.063-4.625-6.125-5.438-6.553-5.438-6.553-5.438-9.938h-2c-1.332-1.976-1.332-1.976-2.812-4.625-1.8-3.117-3.485-5.729-5.813-8.5-2.375-2.875-2.375-2.875-4.125-6.562-2.468-4.731-5.44-8.369-8.867-12.43-3.061-3.704-5.86-7.566-8.656-11.472-1.546-2.159-3.134-4.287-4.727-6.411-0.391-0.928-0.783-1.856-1.187-2.812-2.613-4.595-5.123-7.758-9.813-10.188-6.382-1.031-12.721-0.913-19.164-0.824-1.88 3e-3 -3.759 3e-3 -5.639 1e-3 -3.929 4e-3 -7.857 0.031-11.786 0.076-5.029 0.056-10.056 0.064-15.084 0.056-3.878-3e-3 -7.756 0.015-11.633 0.039-1.854 0.011-3.708 0.016-5.562 0.016-2.592 3e-3 -5.183 0.034-7.775 0.071-1.472 0.012-2.945 0.025-4.462 0.037-4.364 0.592-6.555 1.699-9.895 4.528-1.069 3.21-1.115 5.473-1.1 8.846 3e-3 1.22 6e-3 2.439 9e-3 3.696 9e-3 1.341 0.017 2.681 0.026 4.062 4e-3 1.41 9e-3 2.82 0.014 4.272 0.01 3.068 0.023 6.136 0.037 9.203 0.022 4.849 0.037 9.697 0.048 14.546 0.034 13.788 0.075 27.576 0.138 41.363 0.038 8.426 0.06 16.852 0.074 25.278 8e-3 3.219 0.022 6.437 0.041 9.655 0.026 4.492 0.034 8.984 0.038 13.476 0.013 1.34 0.025 2.681 0.038 4.062-3e-3 1.219-6e-3 2.439-9e-3 3.696 5e-3 1.063 9e-3 2.125 0.013 3.22-0.367 2.625-0.367 2.625-3.367 5.625-3.266 1.089-5.665 1.134-9.104 1.148-1.277 7e-3 -2.554 0.014-3.87 0.021-0.703 2e-3 -0.703 2e-3 -4.256 8e-3 -0.738 4e-3 -0.738 4e-3 -4.474 0.02-4.054 0.017-8.108 0.028-12.161 0.037-2.532 5e-3 -5.063 0.011-7.595 0.017-7.918 0.019-15.837 0.033-23.755 0.042-9.146 9e-3 -18.291 0.036-27.437 0.076-7.067 0.03-14.133 0.045-21.2 0.048-4.222 3e-3 -8.444 0.012-12.667 0.037-4.707 0.024-9.414 0.023-14.121 0.016-1.402 0.013-2.804 0.026-4.249 0.039-0.64-3e-3 -0.64-3e-3 -3.879-0.021-1.114 3e-3 -2.227 5e-3 -3.374 7e-3 -3.731-0.646-4.638-1.42-6.858-4.495-0.391-3.301-0.535-6.268-0.5-9.57-6e-3 -0.986-0.011-1.972-0.017-2.988-0.013-3.33 2e-3 -6.66 0.016-9.991-4e-3 -2.401-9e-3 -4.802-0.017-7.203-0.014-6.619-4e-3 -13.238 0.01-19.857 0.011-7.131-1e-3 -14.261-0.01-21.391-0.014-13.976-6e-3 -27.953 9e-3 -41.929 0.017-16.262 0.014-32.524 0.01-48.786-6e-3 -29.885 0.01-59.77 0.035-89.655 0.023-27.297 0.029-54.594 0.018-81.89-2e-3 -6.99-5e-3 -13.979-7e-3 -20.968 0-0.861-1e-3 -1.721-1e-3 -2.607-8e-3 -22.792-1e-3 -45.583 0.01-68.374 1e-3 -3.265 3e-3 -6.531 4e-3 -9.797 1e-3 -1.607 2e-3 -3.214 2e-3 -4.87 5e-3 -11.346 3e-3 -22.692-1e-3 -34.039-5e-3 -13.82 1e-3 -27.64 0.021-41.459 0.01-7.057 0.015-14.114 7e-3 -21.17-7e-3 -6.452 0-12.904 0.018-19.356 4e-3 -2.341 3e-3 -4.683-4e-3 -7.025-8e-3 -3.168 2e-3 -6.336 0.017-9.504-7e-3 -0.922-0.013-1.844-0.02-2.794 0.093-10.08 0.093-10.08 5.782-11.278zm157.46 134.66c-2.247 3.469-2.339 5.446-2.34 9.557-0.01 1.363-0.019 2.726-0.03 4.13 0.01 1.489 0.02 2.978 0.03 4.512-6e-3 1.573-0.011 3.145-0.017 4.766-0.014 4.31-2e-3 8.619 0.014 12.929 0.014 4.512 7e-3 9.023 4e-3 13.534-3e-3 7.576 0.011 15.152 0.034 22.728 0.027 8.757 0.028 17.515 0.017 26.272-0.011 8.426-5e-3 16.852 9e-3 25.278 6e-3 3.585 6e-3 7.171 1e-3 10.756-6e-3 5.006 0.014 10.012 0.035 15.018-4e-3 1.489-9e-3 2.978-0.013 4.512 0.01 1.363 0.02 2.726 0.03 4.13 2e-3 1.183 5e-3 2.367 7e-3 3.586 0.534 4.393 2.116 7.023 5.418 9.918 4.384 1.796 8.691 1.647 13.355 1.633 1.046 9e-3 2.092 0.017 3.171 0.026 3.466 0.023 6.931 0.024 10.397 0.023 2.427 7e-3 4.853 0.015 7.28 0.023 5.099 0.014 10.198 0.015 15.298 9e-3 6.471-5e-3 12.942 0.025 19.414 0.065 5.022 0.027 10.045 0.029 15.068 0.026 2.381 1e-3 4.762 0.011 7.144 0.029 12.087 0.081 23.684-0.353 35.545-2.845 0.937-0.194 1.874-0.388 2.839-0.588 5.799-1.365 9.71-3.439 14.451-7.188 2.555-0.933 2.555-0.933 4.875-1.437 4.662-1.24 8.049-3.224 11.922-6.063 2.203-1.5 2.203-1.5 5.129-2.906 12.331-6.393 19.496-17.947 24.074-30.594 0.662-0.77 1.324-1.54 2.005-2.334 6.247-8.347 4.301-23.229 4.245-33.166 8e-3 -1.393 0.016-2.787 0.024-4.222-0.022-11.793-0.228-23.505-5.649-34.215-0.292-0.592-0.292-0.592-1.773-3.59-4.921-9.229-10.084-18.335-17.852-25.473-0.618-0.68-1.237-1.361-1.875-2.062-2.769-2.525-5.863-4.106-9.125-5.938-0.721-0.66-1.443-1.32-2.187-2-3.704-2.633-7.543-3.685-11.875-4.972-2.938-1.028-2.938-1.028-5.079-2.457-14.096-7.745-33.532-6.132-49.066-6.032-2.465 3e-3 -4.931 4e-3 -7.397 3e-3 -5.124 3e-3 -10.247 0.02-15.371 0.047-6.559 0.034-13.118 0.041-19.677 0.04-5.073 0-10.145 0.011-15.218 0.026-2.419 6e-3 -4.839 0.01-7.259 0.012-3.371 4e-3 -6.741 0.022-10.112 0.043-0.991-1e-3 -1.981-2e-3 -3.002-3e-3 -12.58 0.116-12.58 0.116-16.918 4.454z" fill="#191919"/>
<path transform="translate(525.4 385.5)" d="m0 0c0.958 0 1.917 1e-3 2.904 1e-3 1.106-9e-3 2.213-0.018 3.353-0.028 0.61 6e-3 0.61 6e-3 3.698 0.032 1.292-5e-3 2.585-0.01 3.917-0.015 4.357-0.011 8.714 6e-3 13.072 0.023 3.114-2e-3 6.228-6e-3 9.342-0.011 7.597-9e-3 15.195 1e-3 22.792 0.019 8.851 0.021 17.702 0.021 26.553 0.02 15.801-1e-3 31.602 0.017 47.403 0.046 15.321 0.029 30.642 0.043 45.963 0.041h2.856 2.85c17.447-1e-3 34.893 0.01 52.339 0.028 6.164 6e-3 12.327 8e-3 18.491 9e-3 8.31 2e-3 16.621 0.015 24.931 0.035 3.048 6e-3 6.095 8e-3 9.143 7e-3 4.166-1e-3 8.333 0.01 12.5 0.025 1.2-3e-3 2.4-7e-3 3.637-0.01 9.682 0.056 19.03 1.076 28.233 4.215 4.582 1.492 9.079 2.597 13.813 3.5 5.39 1.085 9.575 2.784 14.359 5.429 3.592 1.659 7.205 2.165 11.106 2.676 2.347 0.457 2.347 0.457 5.347 2.457v2c1.062 0.231 2.125 0.462 3.219 0.699 7.936 1.832 13.959 3.753 20.781 8.301 2.046 0.736 4.111 1.421 6.188 2.063 4.473 1.396 7.255 2.848 10.812 5.937 1.526 0.802 3.07 1.569 4.625 2.313 7.709 3.733 14.719 8.314 21.375 13.687 0.571 0.398 0.571 0.398 3.457 2.414 5.982 4.472 11.147 9.855 16.408 15.135 1.82 1.824 3.654 3.634 5.489 5.443 1.166 1.166 2.332 2.331 3.533 3.532 1.054 1.051 2.108 2.102 3.194 3.185 3.19 3.596 5.453 7.174 7.919 11.291 0.681 0.825 1.361 1.65 2.063 2.5 2.521 3.253 4.099 6.824 5.937 10.5 0.619 0.774 1.238 1.547 1.875 2.344 6.414 8.017 10.706 17.006 13.238 26.914 0.887 2.742 0.887 2.742 3.887 6.742 0.737 2.853 1.371 5.733 1.938 8.625 1.44 6.895 3.274 12.933 6.062 19.375 5.719 23.767 3.831 51.305 2.188 75.5-0.035 0.54-0.035 0.54-0.212 3.27-0.803 10.266-3.279 19.642-6.941 29.234-1.223 3.54-2.124 7.114-3.035 10.746-1.378 5.344-3.033 9.561-6 14.25-0.237 0.65-0.237 0.65-1.437 3.938-1.706 4.434-4.049 8.04-6.563 12.062-0.237 0.65-0.237 0.65-1.437 3.938-2.85 7.408-7.747 13.455-12.657 19.629-1.5 1.916-2.925 3.891-4.32 5.886-4.849 6.477-10.745 12.034-16.461 17.735-1.146 1.162-2.292 2.324-3.472 3.521-5.58 5.583-10.738 10.467-17.653 14.291-0.701 0.701-1.402 1.403-2.125 2.125-2.345 2.346-4.92 3.398-7.875 4.875-0.577 0.639-1.155 1.279-1.75 1.938-2.956 2.709-6.08 3.672-9.805 5.062-2.445 1-2.445 1-5.445 3-3.41 2.274-6.816 3.552-10.633 4.996-2.367 1.004-2.367 1.004-5.242 3.067-3.807 2.36-7.323 3.048-11.664 4.023-3.88 1.025-7.484 2.428-11.211 3.914-6.67 2.584-13.074 4.118-20.14 5.164-3.364 0.684-5.945 1.547-9.098 2.785-9.906 3.406-20.58 3.494-30.949 4.239-3.221 0.244-6.441 0.493-9.662 0.744-1.991 0.154-3.984 0.303-5.976 0.448-6.901 0.513-6.901 0.513-9.911 1.129-5.186 1.014-10.579 0.901-15.854 1.097-7.171 0.295-7.171 0.295-10.161 0.904-4.384 0.86-8.858 0.632-13.311 0.623-1.047 1e-3 -2.093 2e-3 -3.171 3e-3 -2.209 0-4.418-1e-3 -6.627-6e-3 -3.377-5e-3 -6.755 0-10.132 7e-3 -2.148-1e-3 -4.297-2e-3 -6.445-4e-3 -1.009 2e-3 -2.017 4e-3 -3.056 6e-3 -4.406-0.015-8.454-0.269-12.757-1.139-3.453-0.13-6.886-0.212-10.34-0.238-0.999-8e-3 -1.999-0.016-3.029-0.025-2.111-0.013-4.221-0.024-6.332-0.032-2.156-0.012-4.312-0.032-6.468-0.062-3.119-0.042-6.238-0.058-9.358-0.069-0.96-0.017-1.919-0.035-2.908-0.053-5.704 0.019-9.266 0.621-13.565 4.479-1.07 3.209-1.115 5.472-1.1 8.845 3e-3 1.22 6e-3 2.44 9e-3 3.697 8e-3 1.34 0.017 2.681 0.025 4.062 5e-3 1.409 0.01 2.819 0.014 4.272 0.011 3.068 0.024 6.135 0.038 9.203 0.022 4.849 0.036 9.697 0.048 14.546 0.034 13.788 0.075 27.575 0.138 41.363 0.038 8.426 0.06 16.852 0.074 25.278 8e-3 3.218 0.022 6.437 0.041 9.655 0.026 4.492 0.034 8.984 0.038 13.476 0.012 1.34 0.025 2.68 0.037 4.061-2e-3 1.22-5e-3 2.44-8e-3 3.697 4e-3 1.062 8e-3 2.125 0.013 3.22-0.367 2.625-0.367 2.625-3.367 5.625-3.266 1.089-5.666 1.134-9.104 1.147-1.277 7e-3 -2.555 0.015-3.871 0.022-0.702 1e-3 -0.702 1e-3 -4.255 8e-3 -0.738 3e-3 -0.738 3e-3 -4.474 0.02-4.054 0.016-8.108 0.028-12.161 0.036-2.532 5e-3 -5.064 0.011-7.595 0.018-7.919 0.019-15.837 0.033-23.755 0.041-9.146 0.01-18.292 0.036-27.437 0.077-7.067 0.03-14.134 0.045-21.2 0.048-4.223 2e-3 -8.445 0.011-12.667 0.037-4.707 0.024-9.414 0.023-14.121 0.016-1.402 0.013-2.805 0.026-4.249 0.039-0.64-4e-3 -0.64-4e-3 -3.879-0.021-1.114 2e-3 -2.227 5e-3 -3.374 7e-3 -3.732-0.646-4.639-1.42-6.858-4.495-0.391-3.302-0.535-6.268-0.5-9.57-6e-3 -0.986-0.011-1.972-0.017-2.988-0.014-3.331 1e-3 -6.661 0.016-9.991-4e-3 -2.401-0.01-4.802-0.017-7.204-0.015-6.619-4e-3 -13.238 0.01-19.857 0.011-7.13-1e-3 -14.26-0.01-21.39-0.014-13.977-6e-3 -27.953 9e-3 -41.929 0.017-16.262 0.013-32.525 0.01-48.787-6e-3 -29.885 9e-3 -59.77 0.035-89.655 0.023-27.296 0.028-54.593 0.018-81.89-2e-3 -6.989-5e-3 -13.978-7e-3 -20.967-1e-3 -0.861-1e-3 -1.721-1e-3 -2.608-8e-3 -22.791-2e-3 -45.582 9e-3 -68.373 2e-3 -3.266 3e-3 -6.531 5e-3 -9.797 1e-3 -1.607 1e-3 -3.214 2e-3 -4.87 5e-3 -11.346 3e-3 -22.693-1e-3 -34.039-5e-3 -13.82 1e-3 -27.64 0.021-41.46 0.01-7.056 0.015-14.113 7e-3 -21.169-7e-3 -6.452-1e-3 -12.904 0.017-19.356 4e-3 -2.342 3e-3 -4.684-3e-3 -7.025-8e-3 -3.169 2e-3 -6.336 0.017-9.505-7e-3 -0.922-0.014-1.844-0.021-2.794 0.093-10.087 0.093-10.087 5.799-11.275zm157.44 134.66c-2.247 3.469-2.339 5.446-2.34 9.557-0.01 1.363-0.02 2.725-0.03 4.129 0.01 1.489 0.02 2.978 0.029 4.512-5e-3 1.573-0.01 3.146-0.016 4.766-0.014 4.31-3e-3 8.62 0.014 12.93 0.014 4.511 7e-3 9.023 4e-3 13.534-3e-3 7.576 0.01 15.152 0.034 22.728 0.026 8.757 0.028 17.514 0.016 26.272-0.011 8.426-4e-3 16.852 0.01 25.278 6e-3 3.585 5e-3 7.17 1e-3 10.756-6e-3 5.006 0.013 10.012 0.035 15.018-4e-3 1.489-9e-3 2.978-0.014 4.512 0.01 1.363 0.02 2.725 0.031 4.129 2e-3 1.184 4e-3 2.367 7e-3 3.587 0.534 4.394 2.116 7.024 5.42 9.917 4.374 1.794 8.668 1.648 13.321 1.634 1.043 8e-3 2.086 0.017 3.161 0.026 3.456 0.023 6.912 0.024 10.369 0.023 2.421 7e-3 4.843 0.015 7.265 0.023 5.091 0.013 10.181 0.015 15.272 9e-3 6.454-6e-3 12.907 0.025 19.36 0.065 5.014 0.026 10.028 0.029 15.043 0.025 2.374 2e-3 4.748 0.011 7.122 0.029 12.467 0.085 24.44-0.477 36.706-2.845 1.023-0.193 2.047-0.387 3.101-0.587 6.388-1.369 10.868-3.482 16.24-7.188 2.653-0.933 2.653-0.933 4.938-1.437 13.624-3.705 25.348-16.211 33.062-27.563 1.437-3.04 2.665-6.073 3.797-9.238 1.203-2.762 1.203-2.762 3.238-5.168 9.078-11.983 6.916-37.089 5.144-51.243-1.23-8.729-3.273-16.424-7.179-24.351-0.415-0.987-0.83-1.975-1.258-2.992-2.258-5.355-4.301-9.122-8.742-13.008-1.666-2-3.333-4-5-6-3.749-4.177-7.984-7.209-12.597-10.351-2.175-1.493-4.293-3.067-6.403-4.649-2.06-0.717-4.147-1.357-6.25-1.937-3.866-1.121-6.954-2.175-10.5-4.125-14.51-6.615-31.581-5.366-47.164-5.301-2.47 0-4.94 0-7.41-2e-3 -5.142 0-10.283 0.011-15.425 0.029-6.583 0.023-13.165 0.023-19.748 0.016-5.085-3e-3 -10.171 4e-3 -15.256 0.014-2.428 3e-3 -4.856 5e-3 -7.284 3e-3 -3.386 0-6.771 0.012-10.157 0.028-0.995-2e-3 -1.99-5e-3 -3.016-7e-3 -12.604 0.096-12.604 0.096-16.951 4.443z" fill="#191919"/>
<path transform="translate(2315,489)" d="m0 0c2.5 2.188 2.5 2.188 5 5 0.99 0.722 1.98 1.444 3 2.188 3.394 3.181 4.873 6.106 6.727 10.312 1.273 2.5 1.273 2.5 3.136 4.812 2.672 3.361 4.628 6.93 6.699 10.688 2.42 4.374 4.838 8.73 7.438 13 2.154 3.683 4.177 7.358 6.062 11.188 1.938 3.812 1.938 3.812 4.938 7.812 0.818 2.892 1.382 5.786 1.961 8.734 1.039 3.266 1.039 3.266 3.473 6.989 2.976 4.96 4.101 9.359 5.254 14.965 2.245 10.414 2.245 10.414 4.312 15.312 0 7.057-4.898 12.682-9.438 17.688-1.962 1.771-3.971 3.491-6 5.187-3.582 3.142-6.509 6.475-9.562 10.125-2.384 2.501-4.7 4.769-7.438 6.875-3.278 2.719-5.822 5.871-8.562 9.125-2.384 2.501-4.7 4.769-7.438 6.875-3.278 2.719-5.822 5.871-8.562 9.125-2.384 2.501-4.7 4.769-7.438 6.875-3.278 2.719-5.822 5.871-8.562 9.125-2.384 2.501-4.7 4.769-7.438 6.875-3.278 2.719-5.822 5.871-8.562 9.125-2.384 2.501-4.7 4.769-7.438 6.875-3.278 2.719-5.822 5.871-8.562 9.125-2.384 2.501-4.7 4.769-7.438 6.875-3.278 2.719-5.822 5.871-8.562 9.125-2.384 2.501-4.7 4.769-7.438 6.875-3.278 2.719-5.822 5.871-8.562 9.125-2.384 2.501-4.7 4.769-7.438 6.875-3.278 2.719-5.822 5.871-8.562 9.125-2.364 2.479-4.652 4.735-7.375 6.812-2.886 2.405-5.227 5.116-7.66 7.969-2.845 3.213-5.916 6.182-8.973 9.192-1.992 2.027-1.992 2.027-4.054 4.652-2.388 2.926-5.121 5.229-7.985 7.68-2.44 2.118-4.699 4.38-6.953 6.695-13 13-13 13-15.34 15.297-2.547 2.588-4.91 5.271-7.285 8.015-3.301 3.661-6.492 6.666-10.563 9.438-7.861 5.394-14.203 12.435-20.812 19.25-1.663 1.67-3.329 3.338-5 5l-3.5 3.5c-2.052 2.052-4.111 4.097-6.188 6.125-2.312 2.375-2.312 2.375-4.187 4.813-2.719 3.278-5.871 5.822-9.125 8.562-2.501 2.384-4.769 4.7-6.875 7.438-2.719 3.278-5.871 5.822-9.125 8.562-2.501 2.384-4.769 4.7-6.875 7.438-2.719 3.278-5.871 5.822-9.125 8.562-2.501 2.384-4.769 4.7-6.875 7.438-2.719 3.278-5.871 5.822-9.125 8.562-2.501 2.384-4.769 4.7-6.875 7.438-2.719 3.278-5.871 5.822-9.125 8.562-2.501 2.384-4.769 4.7-6.875 7.438-2.719 3.278-5.871 5.822-9.125 8.562-2.564 2.445-4.853 4.807-7 7.625-2.14 2.542-4.174 3.679-7 5.375-0.598 0.887-1.196 1.774-1.812 2.688-2.188 2.312-2.188 2.312-5.688 2.812-6.599-0.733-12.812-2.455-19.188-4.262-5.309-1.493-10.571-2.681-16-3.676-5.753-1.109-10.08-2.906-15.312-5.562-2.636-0.687-5.283-1.328-7.938-1.938-4.695-1.103-8.785-2.152-12.937-4.624-3.958-2.339-7.22-3.436-11.586-4.626-3.58-1.145-6.766-2.871-10.082-4.621-2.417-1.172-4.762-1.984-7.332-2.753-4.125-1.438-4.125-1.438-6.063-3.438-2.365-2.294-3.791-2.61-6.937-3.438-4.729-1.279-7.575-3.096-11.125-6.562-0.804-0.66-1.609-1.32-2.438-2-1.562-2-1.562-2-1.394-4.36 0.993-3.151 2.25-4.554 4.583-6.879 0.403-0.407 0.403-0.407 2.443-2.464 0.446-0.439 0.446-0.439 2.7-2.661 0.934-0.936 1.867-1.871 2.828-2.835 3.093-3.094 6.199-6.174 9.305-9.254 2.147-2.142 4.293-4.285 6.439-6.429 4.499-4.491 9.004-8.976 13.515-13.456 5.794-5.754 11.577-11.519 17.356-17.288 5.497-5.488 11-10.97 16.503-16.452 1.056-1.053 2.112-2.106 3.2-3.19 2.976-2.965 5.956-5.926 8.936-8.885 0.889-0.887 1.778-1.773 2.694-2.686 0.809-0.802 1.618-1.604 2.452-2.43 0.352-0.35 0.352-0.35 2.135-2.123 2.391-2.206 3.451-2.584 6.743-2.858 6.142 0.384 11.854 1.82 17 5.25v2c4.073 1.267 8.042 2.179 12.25 2.812 3.999 0.68 7.05 1.73 10.625 3.626 8.418 4.071 17.942 4.54 27.125 5.562 0.891 0.104 1.782 0.209 2.7 0.316 15.603 1.819 29.875 2.021 45.413-0.535 4.169-0.666 8.319-1.18 12.512-1.656 5.319-0.739 9.223-2.276 13.871-4.902 2.866-1.4 5.578-2.048 8.692-2.723 5.278-1.197 8.505-3.15 12.812-6.5 1.692-0.886 3.402-1.739 5.125-2.562 3.724-1.795 6.69-3.784 9.875-6.438 0.99-0.474 1.98-0.949 3-1.438 3.384-1.762 5.411-3.774 8-6.562 2.561-2.627 5.082-5.066 7.938-7.375 3.425-2.936 6.171-6.168 9.062-9.625 2.092-2.155 4.23-4.213 6.438-6.25 3.079-3.305 5.214-6.897 7.562-10.75 0.639-0.763 1.279-1.526 1.938-2.312 2.659-3.466 4.576-7.202 6.597-11.067 1.465-2.621 1.465-2.621 4.465-6.621 0.237-0.732 0.237-0.732 1.438-4.438 1.562-4.562 1.562-4.562 3.57-6.941 2.356-3.099 2.795-5.302 3.43-9.121 1.18-6.212 3.027-11.743 5.476-17.562 4.982-13.477 3.186-30.36 3.211-44.5 2e-3 -0.728 2e-3 -0.728 0.014-4.409-0.04-28.714-0.04-28.714-3.951-40.591-0.549-1.774-1.094-3.549-1.637-5.325-0.266-0.857-0.532-1.715-0.806-2.599-1.47-4.962-2.565-10.02-3.69-15.069-1.185-3.869-3.004-6.97-5.055-10.445-0.562-3.125-0.562-3.125 0-6 2.25-2.562 2.25-2.562 5-5 0.639-0.825 1.279-1.65 1.938-2.5 2.411-2.923 5.129-5.106 8.062-7.5 2.687-2.556 5.097-5.12 7.438-8 2.63-3.079 5.425-5.451 8.562-8 2.687-2.556 5.097-5.12 7.438-8 2.63-3.079 5.425-5.451 8.562-8 2.687-2.556 5.097-5.12 7.438-8 2.63-3.079 5.425-5.451 8.562-8 2.687-2.556 5.097-5.12 7.438-8 2.63-3.079 5.425-5.451 8.562-8 2.687-2.556 5.097-5.12 7.438-8 2.63-3.079 5.425-5.451 8.562-8 2.771-2.636 5.248-5.3 7.688-8.25 3.286-3.908 5.261-4.344 10.312-3.75z" fill="#191919"/>
<path transform="translate(1928,572)" d="m0 0c-0.411 5.241-1.24 8.24-5 12h-2c-0.186 0.65-0.186 0.65-1.125 3.938-1.487 4.504-3.67 7.944-6.391 11.796-2.329 3.556-3.818 7.36-5.484 11.266-0.492 0.735-0.985 1.47-1.492 2.227-2.01 3.695-2.628 7.277-3.446 11.398-1.306 6.226-2.786 12.047-5.23 17.918-7.772 22.953-7.227 68.718 2.945 90.516 1.468 3.53 2.074 6.927 2.723 10.691 0.818 4.576 1.702 8.151 4.125 12.125 2.674 4.643 3.375 7.79 3.375 13.125-1.7 4.249-4.419 6.271-8 9-2.875 2.728-5.444 5.527-8 8.562-2.552 2.925-4.949 5.091-8 7.438-2.875 2.728-5.444 5.527-8 8.562-2.552 2.925-4.949 5.091-8 7.438-2.875 2.728-5.444 5.527-8 8.562-2.552 2.925-4.949 5.091-8 7.438-2.875 2.728-5.444 5.527-8 8.562-2.552 2.925-4.949 5.091-8 7.438-2.875 2.728-5.444 5.527-8 8.562-2.552 2.925-4.949 5.091-8 7.438-2.857 2.71-5.435 5.507-8 8.5-3.995 4.66-7.574 8.554-13 11.5-5.367-4.209-8.438-8.095-12-14-0.846-0.825-1.691-1.65-2.562-2.5-3.069-3.148-4.529-6.559-6.438-10.5-1.294-1.698-2.625-3.367-4-5-1.333-2-2.667-4-4-6-0.32-0.371-0.32-0.371-1.938-2.25-2.461-3.282-4.127-6.719-5.906-10.406-1.156-2.344-1.156-2.344-2.718-4.844-1.857-3.228-3.086-6.61-4.376-10.098-1.062-2.402-1.062-2.402-4.062-6.402-0.818-2.892-1.382-5.786-1.961-8.734-1.039-3.266-1.039-3.266-3.461-6.899-3.35-5.119-4.316-10.552-5.453-16.492-0.224-1.058-0.449-2.117-0.68-3.207-1.896-9.445-1.896-9.445-0.445-14.668 1.993-2.457 3.928-4.573 6.179-6.766 0.652-0.656 1.305-1.311 1.977-1.987 2.192-2.195 4.401-4.372 6.61-6.549 1.574-1.57 3.148-3.14 4.72-4.712 3.39-3.385 6.788-6.761 10.192-10.131 5.387-5.334 10.757-10.686 16.124-16.04 8.499-8.472 17.009-16.933 25.524-25.388 15.23-15.124 30.443-30.266 45.648-45.416 5.333-5.313 10.673-10.62 16.017-15.923 3.334-3.309 6.663-6.622 9.992-9.936 1.538-1.53 3.078-3.057 4.619-4.583 14.108-13.965 14.108-13.965 19.949-21.675 1.94-2.535 4.136-4.699 6.449-6.894 1.23-1.249 2.459-2.499 3.688-3.75 4.331-4.25 4.331-4.25 8.312-4.25z" fill="#191919"/>
<path transform="translate(2144 382.7)" d="m0 0c3.682 1.19 7.289 2.075 11.074 2.859 3.668 0.798 6.023 1.487 9.313 3.375 4.835 2.751 9.796 3.722 15.199 4.938 3.655 1.2 4.845 2.4 7.426 5.125 2.593 1.055 2.593 1.055 5.5 1.875 6.565 2.031 12.431 4.937 18.5 8.125 1.048 0.515 2.096 1.031 3.176 1.562 2.824 1.438 2.824 1.438 5.636 3.375 2.644 1.711 5.001 2.907 7.875 4.125 4.313 1.938 4.313 1.938 7.313 4.938 2.664 1.133 2.664 1.133 5.625 2.125 5.291 1.792 5.291 1.792 6.375 2.875 0.375 2.75 0.375 2.75 0 6-2.125 2.437-2.125 2.437-5 5-0.99 1.175-1.98 2.351-3 3.562-2.553 2.925-4.949 5.091-8 7.438-2.812 2.668-5.329 5.394-7.813 8.375-4.565 5.192-9.545 9.419-15.114 13.508-6.031 4.682-11.259 10.143-16.583 15.598-1.882 1.927-3.772 3.845-5.665 5.761-5.375 5.442-10.741 10.892-16.087 16.362-3.285 3.36-6.584 6.706-9.893 10.042-1.254 1.27-2.502 2.545-3.745 3.826-1.732 1.785-3.484 3.551-5.238 5.315-0.99 1.009-1.98 2.018-2.999 3.058-2.863 2.155-2.863 2.155-6.094 2.554-3.114-0.449-4.498-1.228-6.957-3.149-4.218-3.025-8.308-4.686-13.211-6.32-2.601-0.93-2.601-0.93-6.289-2.93-5.336-2.475-10.686-3.682-16.41-4.973-3.902-1.027-3.902-1.027-7.398-2.586-7.482-3.078-15.669-2.613-23.641-2.644-0.578-3e-3 -0.578-3e-3 -3.504-0.018-2.44-9e-3 -4.88-0.015-7.32-0.019-3.698-0.01-7.395-0.041-11.092-0.073-2.382-6e-3 -4.764-0.011-7.147-0.015-1.088-0.013-2.177-0.025-3.299-0.038-10.645 0.031-20.361 2.219-30.126 6.413-2.375 0.953-2.375 0.953-7.063 2.203-9.121 2.633-17.635 7.775-25.375 13.187-3.619 2.356-5.69 3.345-9.937 3.563 1.343-6.117 4.456-8.944 9-13h2l2-4c1.998-1.986 4.061-3.906 6.154-5.792 11.119-10.177 21.711-20.889 32.377-31.536 1.103-1.1 2.206-2.2 3.342-3.334 5.225-5.212 10.449-10.426 15.67-15.643 5.984-5.979 11.975-11.952 17.971-17.919 5.234-5.21 10.46-10.429 15.683-15.65 2.208-2.205 4.418-4.407 6.631-6.607 3.091-3.074 6.173-6.157 9.252-9.243 0.905-0.896 1.81-1.791 2.742-2.714 4.832-4.864 8.979-9.77 12.739-15.51 1.804-2.573 3.887-4.239 6.439-6.052 0.783-0.804 1.567-1.609 2.375-2.438 11.512-11.238 22.406-9.662 36.613-4.859z" fill="#191919"/>
<path transform="translate(1998,378)" d="m0 0c-0.45 4.667-2.018 6.352-5.562 9.312-3.469 2.966-6.766 5.968-9.938 9.25-3.5 3.438-3.5 3.438-5.5 3.438l-2 4c-1.645 1.688-3.313 3.354-5 5-0.309 0.402-0.309 0.402-1.875 2.438-2.719 3.278-5.871 5.822-9.125 8.562-2.501 2.384-4.769 4.7-6.875 7.438-2.719 3.278-5.871 5.822-9.125 8.562-2.501 2.384-4.769 4.7-6.875 7.438-2.719 3.278-5.871 5.822-9.125 8.562-3.071 2.846-5.476 5.634-8 9-3.149 4.199-6.281 7.678-10.438 10.875-3.278 2.719-5.822 5.871-8.562 9.125-2.384 2.501-4.7 4.769-7.438 6.875-3.278 2.719-5.822 5.871-8.562 9.125-2.384 2.501-4.7 4.769-7.438 6.875-3.278 2.719-5.822 5.871-8.562 9.125-2.384 2.501-4.7 4.769-7.438 6.875-3.278 2.719-5.822 5.871-8.562 9.125-2.364 2.479-4.618 4.718-7.375 6.75-2.355 2.019-3.856 3.796-5.682 6.266-4.158 5.406-8.835 10.171-13.654 14.986-0.949 0.956-1.898 1.911-2.876 2.896-3.114 3.133-6.236 6.258-9.358 9.383-2.176 2.182-4.351 4.364-6.526 6.546-4.547 4.559-9.099 9.114-13.653 13.667-5.842 5.842-11.67 11.698-17.495 17.557-4.482 4.504-8.972 8.999-13.465 13.491-2.154 2.156-4.305 4.315-6.452 6.478-2.994 3.014-6.001 6.015-9.011 9.013-0.888 0.899-1.775 1.797-2.689 2.723-0.411 0.407-0.411 0.407-2.489 2.464-0.709 0.71-1.418 1.42-2.149 2.152-2.416 1.85-4.113 2.364-7.126 2.628l-1-1c0.342-4.532 1.175-8.761 2.375-13.125 1.292-4.891 2.014-9.698 2.602-14.709 1.15-9.779 3.045-18.238 6.609-27.455 1.238-3.249 2.199-6.405 3.039-9.773 0.857-3.358 1.771-5.717 3.375-8.876 1.745-3.543 2.559-6.2 3.375-10 1.193-5.211 3.088-8.717 6.227-12.996 1.398-2.066 1.398-2.066 2.773-5.878 2.328-6 5.969-10.923 9.625-16.188 1.087-1.622 2.171-3.247 3.25-4.875 0.908-1.361 1.815-2.722 2.75-4.125 0.639-0.99 1.279-1.98 1.938-3 1.707-2.484 3.485-4.782 5.374-7.125 2.81-3.542 5.056-7.174 7.25-11.125 2.618-4.62 5.073-7.619 9.438-10.75 4.207-3.98 8-8.324 11.859-12.637 2.302-2.541 4.683-4.973 7.141-7.363 0.382-0.392 0.382-0.392 2.312-2.375 2.815-2.749 5.738-5.319 8.723-7.879 1.342-1.192 2.643-2.431 3.906-3.707 5.396-5.344 11.208-9.769 18.059-13.039 2.021-1.642 4.02-3.309 6-5 3.228-2.246 6.521-4.32 9.875-6.375 2.896-1.843 5.414-3.623 8.063-5.75 4.3-3.044 8.095-4.219 13.062-5.875l4-3c4.275-3.206 7.94-4.41 13-6 0.949-0.639 1.898-1.279 2.875-1.938 3.589-2.368 7.088-3.6 11.137-4.992 3.04-1.089 5.968-2.338 8.926-3.632 4.982-2.123 9.872-3.494 15.175-4.567 2.887-0.871 2.887-0.871 6.016-2.84 5.083-2.667 9.856-3.219 15.496-3.969 8.103-1.186 15.334-2.646 22.789-6.207 3.204-1.059 5.343-0.63 8.586 0.145z" fill="#191919"/>
<path transform="translate(2379,720)" d="m0 0c0.138 3.943 0.211 7.313-0.953 11.105-1.313 4.886-1.586 9.613-1.922 14.645-0.631 8.06-1.85 14.815-5.125 22.25-1.796 5.215-3.078 10.292-3.875 15.75-0.637 3.845-0.961 5.057-3.563 8.125-2.791 3.405-3.17 5.139-4 9.375-1.131 5.686-2.989 9.673-6.156 14.484-1.406 2.266-1.406 2.266-2.906 6.328-1.84 4.832-4.566 8.73-7.5 12.938-1.671 2.497-3.337 4.997-5 7.5-0.859 1.286-1.717 2.573-2.602 3.898-1.416 2.127-2.829 4.257-4.234 6.391-5.29 8.029-5.29 8.029-8.164 11.211h-2c-0.254 0.899-0.508 1.798-0.77 2.724-1.264 3.366-2.476 5.099-4.914 7.698-0.805 0.86-1.611 1.721-2.441 2.607-5.27 5.446-10.573 10.855-15.932 16.213-2.011 2.013-4.013 4.034-6.015 6.055-1.3 1.302-2.6 2.605-3.901 3.906-0.578 0.581-0.578 0.581-3.508 3.521-3.687 3.433-7.442 6.322-11.519 9.276-1.279 0.949-2.557 1.898-3.875 2.875-3.125 2.125-3.125 2.125-5.125 2.125l-2 4c-2.214 1.27-4.434 2.533-6.699 3.711-2.301 1.289-2.301 1.289-5.363 3.851-3.415 2.834-6.953 4.508-10.938 6.438l-3 2c-3 2-3 2-7.188 4.062-3.812 1.938-3.812 1.938-6.812 4.938-2.566 0.992-2.566 0.992-5.562 1.875-5.018 1.582-9.54 3.528-14.192 5.969-1.951 1.004-3.97 1.874-5.996 2.718-3.25 1.438-3.25 1.438-6.004 3.438-4.535 2.794-8.899 3.204-14.101 3.996-3.562 0.863-6.14 1.885-9.391 3.473-5.795 2.743-11.311 3.753-17.629 4.593-7.814 1.155-15.115 2.623-22.609 5.188-3.227 0.962-6.175 1.061-9.516 0.75 0-4 0-4 1.574-5.965 0.698-0.651 1.395-1.302 2.114-1.973 0.736-0.698 1.472-1.397 2.23-2.117 0.687-0.642 1.374-1.284 2.082-1.945 0.825-0.846 1.65-1.691 2.5-2.562 2.115-2.063 4.27-4.004 6.5-5.938 4.343-3.774 8.287-7.653 12-12.062 2.552-2.925 4.949-5.091 8-7.438 2.875-2.728 5.444-5.527 8-8.562 2.552-2.925 4.949-5.091 8-7.438 2.875-2.728 5.444-5.527 8-8.562 2.552-2.925 4.949-5.091 8-7.438 2.875-2.728 5.444-5.527 8-8.562 2.552-2.925 4.949-5.091 8-7.438 2.875-2.728 5.444-5.527 8-8.562 2.552-2.925 4.949-5.091 8-7.438 2.875-2.728 5.444-5.527 8-8.562 2.552-2.925 4.949-5.091 8-7.438 2.875-2.728 5.444-5.527 8-8.562 2.552-2.925 4.949-5.091 8-7.438 2.875-2.728 5.444-5.527 8-8.562 2.552-2.925 4.949-5.091 8-7.438 2.875-2.728 5.444-5.527 8-8.562 2.552-2.925 4.949-5.091 8-7.438 2.875-2.728 5.444-5.527 8-8.562 2.552-2.925 4.949-5.091 8-7.438 2.875-2.728 5.444-5.527 8-8.562 2.552-2.925 4.949-5.091 8-7.438 2.875-2.728 5.444-5.527 8-8.562 2.552-2.925 4.949-5.091 8-7.438 2.875-2.728 5.444-5.527 8-8.562 2.552-2.925 4.949-5.091 8-7.438 2.875-2.728 5.444-5.527 8-8.562 2.552-2.925 4.99-5.045 8-7.438 1.687-1.983 3.354-3.983 5-6 7.442-8 7.442-8 13-8z" fill="#191919"/>
<path transform="translate(829.39 40.499)" d="m0 0c1.416-0 2.832-0 4.292-1e-3 1.607-9e-3 3.214-0.018 4.87-0.028 1.768 0.011 3.535 0.022 5.302 0.034 1.824 0 3.648-2e-3 5.472-4e-3 3.84-2e-3 7.68 0.011 11.521 0.034 4.853 0.028 9.706 0.025 14.56 0.013 24.805-0.05 48.594 0.369 72.588 7.453 1.526 0.31 3.053 0.619 4.625 0.938 4.037 1.271 5.518 2.991 8.375 6.062 0.65 0.392 0.65 0.392 3.938 2.375 4.435 2.866 6.895 5.402 10.062 9.625 0.639 0.778 1.279 1.555 1.938 2.356 5.547 7.616 7.669 15.646 9.687 24.707 0.272 1.183 0.544 2.366 0.824 3.584 1.632 8.018 1.417 14.421-0.449 22.353-0.335 1.656-0.668 3.312-1 4.969-0.33 1.495-0.66 2.991-1 4.531-0.33 1.516-0.66 3.032-1 4.594-1.085 4.238-2.152 7.082-5.312 10.156-2.688 2.75-2.688 2.75-5.188 6.813-3.574 5.629-8.037 8.295-13.5 11.937-0.728 0.667-1.457 1.333-2.207 2.02-3.467 2.458-6.307 2.961-10.48 3.668-7.196 1.254-7.196 1.254-9.313 2.312-0.591 3.705-0.521 7.29 0 11 2.188 2.875 2.188 2.875 5 5 3.885 3.681 7.072 7.633 10.313 11.871 2.048 2.584 4.328 4.829 6.687 7.129 10 10.822 10 10.822 10 15 0.99 0.33 1.98 0.66 3 1 1.677 1.844 3.345 3.697 4.957 5.598 2.241 2.634 4.54 5.208 6.856 7.777 0.748 0.833 1.497 1.666 2.269 2.524 1.275 1.396 2.581 2.764 3.918 4.101-1 4-1 4-2 5-4.221 0.311-8.456 0.279-12.687 0.313-1.186 0.029-2.371 0.058-3.592 0.088-10.857 0.079-10.857 0.079-15.721-4.401-1.051-0.963-2.101-1.926-3.184-2.918-5.371-5.397-10.61-10.712-15.144-16.84-1.977-2.651-4.067-5.191-6.172-7.742-4.788-5.83-9.424-11.76-13.98-17.773-0.873-1.147-1.746-2.295-2.645-3.477-0.807-1.067-1.614-2.134-2.445-3.234-3.472-4.309-7.382-8.072-11.492-11.766-0.651-0.593-1.302-1.186-1.973-1.797-5.532-4.091-14.055-2.637-20.59-2.64-1.329-0.013-2.658-0.025-4.027-0.037-7.379-0.011-14.228 0.183-21.348 2.224-1.103 3.309-1.094 5.685-1.05 9.168 0.013 1.272 0.026 2.543 0.039 3.853 0.018 1.375 0.036 2.75 0.054 4.167 0.022 2.893 0.044 5.786 0.064 8.679 0.038 4.576 0.081 9.152 0.14 13.728 0.054 4.406 0.083 8.811 0.109 13.218 0.023 1.375 0.047 2.75 0.072 4.166 3e-3 1.272 7e-3 2.543 0.01 3.853 0.012 1.121 0.024 2.243 0.036 3.398-0.474 2.77-0.474 2.77-4.474 5.77-3.832 0.615-7.686 0.464-11.562 0.438-1.054 0.02-2.108 0.04-3.194 0.06-1.01 0-2.02-1e-3 -3.06-2e-3 -0.923 2e-3 -1.845 4e-3 -2.796 6e-3 -2.388-0.502-2.388-0.502-5.388-4.502-0.377-3.573-0.377-3.573-0.381-7.971-2e-3 -0.404-2e-3 -0.404-0.014-2.452-0.012-2.714-3e-3 -5.429 7e-3 -8.143-4e-3 -1.945-0.01-3.89-0.016-5.835-0.014-5.285-8e-3 -10.57 1e-3 -15.855 8e-3 -5.526 1e-3 -11.052-4e-3 -16.578-6e-3 -9.281 2e-3 -18.562 0.016-27.843 0.016-10.736 0.011-21.471-6e-3 -32.207-0.013-9.211-0.015-18.422-7e-3 -27.634 4e-3 -5.504 5e-3 -11.008-5e-3 -16.512-8e-3 -5.175-3e-3 -10.349 0.015-15.523 4e-3 -1.901 3e-3 -3.802-4e-3 -5.703-8e-3 -2.592 2e-3 -5.182 0.017-7.773 1e-3 -1.451 2e-3 -2.902 4e-3 -4.398 0.52-4.928 1.684-7.323 6.772-8.074zm24.144 32.639c-1.807 3.36-2.035 5.438-2.025 9.241-6e-3 1.268-0.012 2.536-0.018 3.843 0.014 1.361 0.028 2.723 0.043 4.126 1e-3 1.404 2e-3 2.808 3e-3 4.254 6e-3 2.967 0.022 5.933 0.046 8.899 0.037 4.548 0.041 9.094 0.041 13.642 0.01 2.881 0.021 5.762 0.035 8.642 2e-3 1.364 5e-3 2.728 7e-3 4.132 0.013 1.265 0.025 2.53 0.039 3.833 7e-3 1.113 0.015 2.226 0.023 3.373 0.267 2.877 0.267 2.877 2.267 6.877 3.803 2.535 5.927 2.265 10.481 2.291 1.559 0.012 3.118 0.025 4.724 0.038 1.708 3e-3 3.416 6e-3 5.123 7e-3 1.75 7e-3 3.5 0.013 5.251 0.02 3.672 0.012 7.343 0.016 11.015 0.015 4.696 0 9.39 0.027 14.086 0.061 3.617 0.023 7.233 0.027 10.85 0.026 1.731 2e-3 3.461 0.011 5.191 0.026 2.427 0.02 4.853 0.012 7.28 2e-3 1.379 3e-3 2.758 6e-3 4.178 9e-3 5.193-0.672 9.071-2.641 12.677-6.46 0.439-0.651 0.879-1.302 1.332-1.972 2.812-4.063 2.812-4.063 4.937-6.5 2.618-3.579 4.126-7.5 5.875-11.563 0.578-0.825 1.155-1.65 1.75-2.5 2.392-4.784 1.583-9.835 0.563-14.937-1.743-4.731-3.963-9.109-6.313-13.563-0.557-1.155-1.114-2.31-1.687-3.5-3.507-5.307-8.521-11.604-14.313-14.5-2.531-0.118-5.065-0.17-7.599-0.193-0.804-8e-3 -0.804-8e-3 -4.875-0.048-1.766-0.012-3.533-0.022-5.299-0.032-0.887-6e-3 -1.774-0.011-2.688-0.016-4.692-0.027-9.385-0.046-14.077-0.061-4.852-0.017-9.702-0.061-14.554-0.112-3.726-0.034-7.453-0.045-11.18-0.051-1.788-7e-3 -3.577-0.022-5.365-0.046-2.502-0.032-5.003-0.029-7.505-0.024-1.424-8e-3 -2.848-0.016-4.315-0.025-3.543 0.608-3.543 0.608-6.004 2.746z" fill="#191919"/>
<path transform="translate(739.84 1103.8)" d="m0 0c0.71-2e-3 0.71-2e-3 4.301-9e-3 1.541 7e-3 3.081 0.014 4.668 0.021 1.585 1e-3 3.171 1e-3 4.804 2e-3 3.364 3e-3 6.728 0.01 10.093 0.023 4.277 0.017 8.555 0.021 12.832 0.02 4.111 1e-3 8.223 9e-3 12.334 0.018 1.52 1e-3 3.04 2e-3 4.607 3e-3 24.082 0.106 24.082 0.106 28.428 3.294 0.346 0.474 0.346 0.474 2.098 2.871 1.053 1.102 2.106 2.204 3.191 3.34 1.112 1.187 2.225 2.374 3.371 3.597 1.115 1.185 2.23 2.37 3.379 3.59 2.688 3.053 4.815 6.097 7.059 9.473 1.922 2.158 3.883 4.281 5.875 6.375 4.405 4.709 8.373 9.39 12.125 14.625 3.831 5.275 7.88 9.951 12.562 14.5 3.962 3.881 7.205 7.646 10.082 12.379 1.448 2.266 3.11 4.203 4.856 6.246 2.5 3.875 2.5 3.875 2.187 7.562-1.849 3.629-3.747 5.5-6.687 8.313-1.232 1.671-2.437 3.361-3.625 5.062-4.613 6.471-9.946 12.152-15.375 17.938-3.45 3.734-6.612 7.334-9.188 11.75-3.086 5.241-7.597 9.16-11.973 13.32-2.741 2.828-4.726 5.62-6.839 8.93-1.452 1.896-2.932 3.772-4.438 5.625-0.741 0.92-1.482 1.841-2.246 2.789-5.105 5.699-10.464 9.231-18.233 9.947-1.424-7e-3 -2.847-0.014-4.314-0.021h-4.912c-1.753-0.016-3.507-0.031-5.26-0.047-1.806-6e-3 -3.612-0.01-5.418-0.013-4.736-0.011-9.472-0.041-14.209-0.074-4.839-0.031-9.679-0.044-14.519-0.06-9.484-0.032-18.968-0.083-28.451-0.146-1-4-1-4 0.195-6.777 4.769-7.81 10.176-13.994 16.851-20.25 2.823-2.842 4.817-5.603 6.954-8.973 4.106-5.357 8.345-10.481 13.25-15.125 3.387-3.267 5.352-6.56 7.48-10.723 1.703-2.887 4.015-5.048 6.422-7.355 4.986-4.849 9.221-9.085 9.785-16.297-0.45-6.731-4.34-9.984-8.937-14.5-1.173-1.437-2.32-2.895-3.438-4.375-5.179-6.76-10.537-13.378-16.187-19.75-2.369-2.672-4.586-5.41-6.75-8.25-2.587-3.378-5.317-6.548-8.188-9.688-3.77-4.126-7.083-8.464-10.437-12.937-2.351-2.599-4.731-5.164-7.145-7.703-1.855-2.297-1.855-2.297-2.855-6.297 3.675-2.45 5.452-2.248 9.835-2.243z" fill="#E1C84B"/>
<path transform="translate(910.86 1103.8)" d="m0 0c0.406-2e-3 0.406-2e-3 2.459-0.015 2.692-0.015 5.385-0.021 8.077-0.027 1.868-6e-3 3.737-0.012 5.605-0.017 3.922-0.011 7.844-0.017 11.765-0.02 5.024-6e-3 10.048-0.03 15.072-0.058 3.861-0.019 7.722-0.024 11.584-0.025 1.852-3e-3 3.703-0.011 5.555-0.025 2.593-0.017 5.185-0.015 7.778-8e-3 1.475-4e-3 2.95-8e-3 4.47-0.011 5.471 0.532 7.781 2.188 11.276 6.328 0.825 1.127 1.65 2.253 2.5 3.414 3.104 4.219 6.237 7.984 10 11.625 3.663 3.969 7.099 8.083 10.375 12.375 2.587 3.378 5.317 6.548 8.188 9.688 3.782 4.147 7.141 8.395 10.437 12.937 4.392 6.046 9.077 11.18 14.5 16.313 6.592 6.811 6.592 6.811 8.5 11.687-2.007 9.382-9.519 16.171-15.945 22.809-3.41 3.562-6.199 7.179-9.055 11.191-4.951 6.749-10.462 12.823-16.23 18.887-2.592 2.913-4.615 5.875-6.77 9.113-1.878 2.139-3.797 4.241-5.75 6.313-4.278 4.571-8.499 9.176-12.629 13.882-2.93 3.263-4.255 4.714-8.621 5.805-2.618 0.094-5.238 0.128-7.858 0.13-1.614 3e-3 -3.229 6e-3 -4.893 9e-3 -1.763-2e-3 -3.525-4e-3 -5.288-6e-3 -1.805 1e-3 -3.611 2e-3 -5.416 3e-3 -3.781 1e-3 -7.562-1e-3 -11.343-5e-3 -4.854-6e-3 -9.708-3e-3 -14.561 3e-3 -3.727 4e-3 -7.453 3e-3 -11.18 0-1.79-1e-3 -3.58 0-5.371 2e-3 -2.497 3e-3 -4.994-2e-3 -7.491-6e-3 -1.422-1e-3 -2.844-2e-3 -4.31-3e-3 -3.289-0.127-3.289-0.127-5.289-1.127 0.449-7.176 6.75-12.759 11.258-17.91 2.223-2.666 4.282-5.44 6.367-8.215 3.666-4.82 7.531-9.285 11.688-13.687 4.241-4.5 7.431-8.927 10.687-14.188 1.805-2.025 3.642-4.023 5.5-6 3.084-3.281 5.958-6.368 8.25-10.25 1.892-3.153 3.545-5.167 6.063-7.75 2.461-2.804 3.211-4.086 4.25-7.812-1.422-5.606-4.445-8.449-8.485-12.477-2.598-2.732-4.537-5.55-6.578-8.711-1.644-1.689-3.313-3.353-5-5-3.647-3.887-6.957-7.804-9.812-12.312-3.098-4.827-6.876-8.865-10.82-13.012-2.368-2.676-2.368-2.676-4.235-5.535-2.672-3.935-5.851-7.281-9.133-10.703-9.109-9.558-9.109-9.558-11-12.438l1-4c3.178-1.589 6.328-1.145 9.859-1.161z" fill="#E1C84B"/>
<path transform="translate(537.92 1103.6)" d="m0 0c1.605-9e-3 3.21-0.019 4.864-0.029 1.748 6e-3 3.496 0.012 5.243 0.019 1.797-2e-3 3.594-5e-3 5.391-9e-3 3.763-4e-3 7.525 2e-3 11.288 0.016 4.818 0.017 9.637 7e-3 14.455-0.011 3.71-0.01 7.419-7e-3 11.129 1e-3 1.776 2e-3 3.553-1e-3 5.329-8e-3 2.485-7e-3 4.969 6e-3 7.453 0.021 0.707 1e-3 0.707 1e-3 4.281 7e-3 5.371 0.562 7.708 2.273 11.143 6.342 0.825 1.127 1.65 2.253 2.5 3.414 3.102 4.216 6.213 8.011 10 11.625 5.533 5.325 10.288 10.942 15 17 11.124 14.23 11.124 14.23 17 21 1.398 1.728 2.794 3.457 4.188 5.188 4.298 5.301 8.902 10.258 13.625 15.183 2.187 2.629 2.187 2.629 3.187 6.629-3.778 7.737-9.545 13.718-15.711 19.586-2.192 2.313-3.553 4.366-5.039 7.164-3.082 5.609-7.521 9.729-12.067 14.134-4.551 4.424-8.508 8.956-12.183 14.116-3.929 5.466-8.005 10.077-12.832 14.766-2.005 2.066-3.681 4.147-5.355 6.484-3.722 4.963-6.73 8.23-12.813 9.75-2.598 0.061-5.199 0.059-7.798 0.022-1.601-0.02-3.202-0.04-4.852-0.061-1.747-0.027-3.494-0.054-5.24-0.082-1.788-0.024-3.576-0.048-5.364-0.071-4.702-0.063-9.404-0.132-14.105-0.203-4.8-0.07-9.599-0.135-14.399-0.201-9.414-0.128-18.828-0.264-28.242-0.404-1.081-4-1.126-4.744 0.813-8.687 2.358-3.515 5.143-6.32 8.187-9.25 3.2-3.082 5.662-5.794 7.688-9.75 2.106-3.928 4.213-6.424 7.433-9.45 2.868-2.843 5.282-6.011 7.774-9.183 4.686-5.965 9.442-11.877 14.543-17.492 12.548-14.383 12.548-14.383 14.812-22.875-1.931-6.663-6.398-10.525-11.25-15.313-1.203-1.319-2.393-2.651-3.562-4-0.277-0.318-0.277-0.318-1.676-1.93-6.608-7.765-12.914-15.769-19.184-23.808-2.476-3.133-5.012-6.202-7.578-9.262-1.523-1.852-3.044-3.706-4.562-5.562-0.744-0.909-1.488-1.818-2.254-2.754-1.448-1.779-2.882-3.57-4.301-5.371-1.883-2.313-1.883-2.313-4.445-4.75-2.556-2.687-3.947-5.189-5.438-8.563 4.333-3.189 7.609-3.379 12.924-3.388z" fill="#E1C84B"/>
<path transform="translate(1370.1 40.815)" d="m0 0c3.731-2e-3 7.462-0.021 11.193-0.039 2.412-3e-3 4.823-5e-3 7.235-6e-3 0.548-4e-3 0.548-4e-3 3.321-0.022 9.17 0.027 17.974 0.863 26.382 4.752 3.401 1.513 6.21 2.586 9.875 3.375 7.85 2.243 14.444 7.162 19.937 13.125 0.97 0.681 1.939 1.362 2.938 2.063 4.454 4.272 6.512 9.387 9.062 14.937 0.508 0.908 1.016 1.815 1.539 2.75 8.946 19.9 6.026 42.223-0.539 62.25-4.494 10.207-10.37 17.063-19 24-0.567 0.495-0.567 0.495-3.437 3-4.854 3.666-10.398 5.124-16.172 6.825-3.391 1.175-3.391 1.175-7.391 4.175-4.174 1.245-8.347 1.144-12.68 1.174-1.551 0.013-3.103 0.027-4.702 0.041-0.825 5e-3 -1.65 0.01-2.5 0.015-2.589 0.017-5.177 0.04-7.766 0.065-7.358 0.071-14.717 0.131-22.075 0.182-4.505 0.032-9.011 0.073-13.517 0.12-1.716 0.016-3.433 0.029-5.15 0.037-2.396 0.012-4.792 0.038-7.188 0.063-1.364 0.011-2.728 0.021-4.133 0.032-3.289 0.271-3.289 0.271-6.289 2.271-1.027 3.083-1.103 5.117-1.066 8.342 0.01 1.091 0.02 2.183 0.03 3.307 0.015 1.178 0.029 2.356 0.044 3.57 0.018 2.483 0.035 4.966 0.051 7.449 0.031 3.924 0.067 7.848 0.113 11.772 0.042 3.781 0.065 7.561 0.086 11.342 0.019 1.178 0.037 2.356 0.057 3.57 3e-3 1.091 7e-3 2.182 0.01 3.307 0.01 0.961 0.019 1.922 0.029 2.913-0.354 2.428-0.354 2.428-3.354 5.428-2.496 0.373-2.496 0.373-5.437 0.364-0.53-1e-3 -0.53-1e-3 -3.211-2e-3 -1.106-0.016-2.212-0.033-3.352-0.049-1.106 3e-3 -2.212 6e-3 -3.351 0.01-8.248-0.056-8.248-0.056-11.649-2.323-0.377-3.293-0.377-3.293-0.381-7.647-8e-3 -1.645-0.017-3.29-0.025-4.984 6e-3 -1.836 0.012-3.673 0.018-5.509-4e-3 -1.923-9e-3 -3.846-0.016-5.769-0.013-5.236-8e-3 -10.471 1e-3 -15.707 8e-3 -5.472 1e-3 -10.945-4e-3 -16.417-5e-3 -9.194 2e-3 -18.389 0.016-27.583 0.017-10.634 0.011-21.267-5e-3 -31.901-0.014-9.121-0.016-18.242-8e-3 -27.363 5e-3 -5.451 5e-3 -10.903-5e-3 -16.354-8e-3 -5.127-2e-3 -10.255 0.015-15.382 4e-3 -1.883 3e-3 -3.766-4e-3 -5.649-8e-3 -2.569 2e-3 -5.137 0.017-7.706 2e-3 -1.438 3e-3 -2.876 4e-3 -4.358 0.39-3.795 0.976-5.734 3.377-8.671 4.971-1.267 9.896-1 15-1 0.864-0.153 1.727-0.307 2.617-0.465 4.474-0.707 8.942-0.9 13.461-1.085 0.999-0.042 1.998-0.084 3.027-0.127 11.649-0.446 23.297-0.509 34.952-0.508zm-42.057 33.185c-1.436 2.874-1.135 5.347-1.145 8.558-6e-3 1.382-0.013 2.764-0.019 4.188-1e-3 1.502-2e-3 3.004-4e-3 4.551-3e-3 1.537-6e-3 3.074-0.01 4.657-5e-3 3.258-7e-3 6.516-7e-3 9.775 0 3.34-7e-3 6.681-0.02 10.021-0.019 4.808-0.024 9.615-0.025 14.422-7e-3 1.494-0.014 2.988-0.022 4.527 3e-3 1.395 6e-3 2.789 9e-3 4.226-1e-3 1.224-2e-3 2.448-4e-3 3.71 0.258 3.506 0.821 6.154 2.247 9.365 7.635 5.884 14.879 5.761 24.262 5.735 0.732 4e-3 0.732 4e-3 4.435 0.029 3.088 0.012 6.177 0.011 9.266-2e-3 4.693-0.012 9.382 0.041 14.074 0.098 3.013 4e-3 6.025 4e-3 9.038 0 1.387 0.02 2.773 0.041 4.202 0.062 11.187-0.132 20.388-3.081 28.783-10.698 4.775-4.954 8.218-9.872 10.94-16.224 0.443-0.768 0.885-1.536 1.34-2.328 4.588-8.083 4.857-14.021 2.551-22.984-4.001-12.905-9.303-23.977-19.891-32.688-4.525-2.263-7.003-2.258-12.025-2.274-0.806-5e-3 -1.611-0.011-2.441-0.016-2.658-0.014-5.316-0.013-7.975-0.01-1.848-4e-3 -3.696-9e-3 -5.544-0.013-3.871-8e-3 -7.742-8e-3 -11.613-2e-3 -4.966 5e-3 -9.931-0.012-14.897-0.035-3.815-0.014-7.63-0.015-11.445-0.012-1.831-1e-3 -3.662-6e-3 -5.493-0.016-2.557-0.012-5.114-4e-3 -7.67 6e-3 -0.728 0-0.728 0-4.412-2e-3 -3.485 0.374-3.485 0.374-6.485 3.374z" fill="#191919"/>
<path transform="translate(2216.8 36.5)" d="m0 0c0.612-3e-3 0.612-3e-3 3.707-0.019 7.198 0.1 13.728 1 20.688 2.85 2.763 0.648 5.276 0.864 8.105 0.981 5.182 0.751 7.394 2.118 11.473 5.157 2.37 1.594 4.516 2.434 7.215 3.343 6.224 2.308 10.409 6.585 15.062 11.188 0.505 0.464 0.505 0.464 3.062 2.812 1.938 2.188 1.938 2.188 2.938 6.188-4.777 6.009-11.659 10.332-19.25 11.5-4.547-0.606-5.82-2.353-8.785-5.688-2.881-2.657-6.051-3.679-9.731-4.89-2.234-0.922-2.234-0.922-5.234-3.922-8.935-2.664-18.164-2.304-27.405-2.261-2.721 0.011-5.441 0-8.161-0.012-1.752 1e-3 -3.503 3e-3 -5.254 7e-3 -1.571 3e-3 -3.141 5e-3 -4.759 7e-3 -10.635 0.623-19.143 4.617-26.359 12.447-0.68 0.928-1.361 1.856-2.062 2.812-0.692 0.516-1.384 1.031-2.098 1.562-2.928 3.752-2.481 7.695-2.402 12.25-0.015 0.878-0.031 1.755-0.047 2.659 0.043 7.194 1.856 11.624 6.703 16.857 6.394 5.243 11.805 7.16 19.844 8.672 2.961 0.676 5.919 1.364 8.875 2.062 1.4 0.321 2.8 0.642 4.242 0.973 3.883 0.965 3.883 0.965 6.676 2.008 3.835 1.144 7.534 1.5 11.507 1.895 9.924 0.987 18.418 2.539 27.571 6.722 2.939 1.259 5.421 1.88 8.567 2.34 5.726 1.255 8.021 3.338 12.562 7 1.238 0.516 2.475 1.031 3.75 1.562 11.05 6.338 17.643 15.938 21.242 27.997 3.636 16.021 1.52 28.637-4.992 43.441-2.098 2.855-2.098 2.855-4 5-0.371 0.66-0.371 0.66-2.25 4-3.099 4.507-6.033 6.337-10.75 9l-3 3c-2.27 1.027-2.27 1.027-4.812 1.938-3.028 1.084-5.173 2.05-7.719 4.054-5.119 2.963-10.352 3.41-16.157 4.196-2.254 0.324-4.508 0.651-6.761 0.98-0.994 0.137-1.987 0.274-3.011 0.415-2.54 0.417-2.54 0.417-5.54 1.417-22.595 1.329-46.969 0.162-67-11-1.714-0.588-3.442-1.137-5.188-1.625-4.243-1.53-5.272-2.783-7.812-6.375-1.979-1.364-3.982-2.694-6-4-4.609-3.656-7.899-7.017-11-12l-3-3c-1-3.375-1-3.375-1-7 3.36-4.661 7.833-6.695 13-9 0.464-0.268 0.464-0.268 2.812-1.625 5.66-0.666 9.724 2.371 14.188 5.625 3.123 2.994 6.099 6.101 9.09 9.227 3.951 3.765 7.932 5.701 12.91 7.773 1.776 0.907 3.547 1.824 5.312 2.75 8.547 4.464 17.765 3.47 27.188 3.5 0.793 0.01 0.793 0.01 4.805 0.062 15.264 0.051 30.063-1.726 41.925-12.3 5.072-5.569 10.358-13.027 11.145-20.637-0.464-5.415-2.14-9.477-4.375-14.375-0.557-1.423-1.114-2.846-1.688-4.312-3.037-4.844-6.297-6.286-11.312-8.688-1.082-0.675-2.163-1.351-3.277-2.047-4.1-2.151-7.403-2.812-11.973-3.453-4.953-0.7-9.326-1.656-13.953-3.504-7.399-2.813-14.936-3.117-22.77-3.685-6.988-0.625-12.33-2.017-18.602-5.163-3.141-1.487-6.188-2.068-9.613-2.586-6.521-1.254-9.843-3.214-14.812-7.562-1.052-0.681-2.104-1.361-3.188-2.062-7.538-5.193-11.881-11.814-15.812-19.938l-2-3c-3.718-12.813-1.741-29.19 4.312-40.812 6.435-10.706 14.733-20.022 26.688-24.188 1.012-0.633 2.024-1.266 3.066-1.918 13.207-6.99 30.055-7.542 44.684-7.582z" fill="#191919"/>
<path transform="translate(538.17 42.86)" d="m0 0c1.343-6e-3 2.687-0.011 4.071-0.017 1.487-1e-3 2.975-3e-3 4.508-4e-3 1.556-5e-3 3.112-0.01 4.715-0.015 4.281-0.012 8.562-0.019 12.843-0.024 2.672-3e-3 5.344-7e-3 8.016-0.011 8.352-0.014 16.705-0.024 25.057-0.027 9.656-5e-3 19.311-0.022 28.967-0.051 7.454-0.022 14.908-0.032 22.362-0.033 4.456-2e-3 8.912-7e-3 13.369-0.025 4.968-0.02 9.937-0.016 14.906-9e-3 0.741-5e-3 0.741-5e-3 4.496-0.028 1.349 6e-3 2.698 0.011 4.087 0.017 1.176-2e-3 2.352-3e-3 3.564-4e-3 2.865 0.371 2.865 0.371 5.865 3.371 1.867 7.3 1.896 14.417-2 21-3.5 1.061-6.842 1.106-10.477 1.05-1.071-0.012-2.142-0.025-3.246-0.039-1.146-0.018-2.292-0.035-3.473-0.054-2.431-0.022-4.862-0.043-7.293-0.064-3.829-0.037-7.659-0.08-11.488-0.139-3.698-0.055-7.395-0.084-11.094-0.109-1.15-0.024-2.3-0.048-3.484-0.072-1.065-4e-3 -2.13-7e-3 -3.227-0.011-0.938-0.012-1.875-0.024-2.841-0.036-2.377 0.474-2.377 0.474-5.377 4.474-0.377 3.189-0.377 3.189-0.379 7.036-8e-3 1.458-0.016 2.916-0.025 4.419 6e-3 1.6 0.013 3.2 0.019 4.849-4e-3 1.701-0.01 3.403-0.016 5.105-0.012 3.664-0.015 7.328-0.01 10.992 7e-3 5.79-9e-3 11.579-0.028 17.368-0.041 13.332-0.053 26.663-0.064 39.995-0.01 12.223-0.027 24.445-0.068 36.668-0.018 5.76-0.022 11.52-0.015 17.28 1e-3 3.576-9e-3 7.152-0.023 10.728-6e-3 2.459 3e-3 4.918 0.012 7.377-8e-3 1.453-0.016 2.905-0.025 4.402 0 1.269-1e-3 2.538-2e-3 3.845-0.124 0.969-0.248 1.938-0.376 2.936-4.673 3.115-9.506 2.329-15 2.313-0.553 8e-3 -0.553 8e-3 -3.352 0.049-1.059 0-2.119 1e-3 -3.211 2e-3 -0.97 3e-3 -1.941 6e-3 -2.941 9e-3 -2.496-0.373-2.496-0.373-5.496-3.373-0.371-3.012-0.371-3.012-0.365-6.787-6e-3 -1.429-0.011-2.858-0.016-4.33 9e-3 -1.572 0.018-3.145 0.028-4.765-1e-3 -1.669-3e-3 -3.338-7e-3 -5.007-5e-3 -3.596-1e-3 -7.192 0.01-10.789 0.016-5.685 8e-3 -11.369-5e-3 -17.054-0.03-15.145-0.028-30.289-9e-3 -45.434 0.012-9.948 0.01-19.896-0.019-29.844-0.015-5.653-8e-3 -11.306 0.017-16.959 0.01-3.515-1e-3 -7.03-0.017-10.545-5e-3 -2.411 0.014-4.822 0.035-7.233-0.011-1.431-0.022-2.863-0.033-4.338 1e-3 -1.246 2e-3 -2.492 3e-3 -3.776-0.622-3.139-0.622-3.139-2.911-5.446-4.366-2.726-7.254-3.941-12.35-3.872-0.566 5e-3 -0.566 5e-3 -3.428 0.03-0.608 0.01-0.608 0.01-3.687 0.06l-7.713 0.06c-4.058 0.044-8.116 0.092-12.174 0.146-3.913 0.048-7.825 0.078-11.738 0.106-1.219 0.022-2.438 0.044-3.693 0.066-1.128 7e-3 -2.257 0.013-3.419 0.02-0.994 0.013-1.988 0.026-3.011 0.039-2.498-0.348-2.498-0.348-5.498-3.348-1.74-6.96-1.978-14.343 1-21 1.827-1.827 4.721-1.134 7.174-1.14z" fill="#191919"/>
<path transform="translate(1609.4 42.75)" d="m0 0c0.484-0.01 0.484-0.01 2.932-0.062 2.545-0.015 5.091 0.139 7.63 0.312 3.528 3.527 3.438 4.415 3.683 9.221 0.032 0.629 0.032 0.629 0.195 3.815 0.2 6.478 0.236 12.946 0.204 19.427-3e-3 1.477-6e-3 2.953-9e-3 4.475-7e-3 3.179-0.016 6.359-0.028 9.539-0.017 5.031-0.028 10.061-0.036 15.092-0.024 14.294-0.06 28.588-0.104 42.881-0.025 7.919-0.042 15.837-0.052 23.756-5e-3 4.181-0.016 8.362-0.033 12.543-0.02 4.651-0.026 9.302-0.031 13.952-8e-3 1.382-0.017 2.763-0.026 4.186 0 0.633 0 0.633 4e-3 3.835-2e-3 0.549-2e-3 0.549-0.01 3.328 0.341 4.129 1.134 6.964 4.262 9.744 4.21 1.703 8.216 1.575 12.681 1.499 0.971-4e-3 1.943-9e-3 2.943-0.013 2.105-0.012 4.21-0.03 6.314-0.055 3.328-0.038 6.656-0.057 9.984-0.072 7.062-0.034 14.123-0.092 21.185-0.153 8.188-0.071 16.377-0.132 24.566-0.168 3.284-0.019 6.567-0.057 9.85-0.095 2.006-0.011 4.012-0.021 6.018-0.03 0.916-0.015 1.832-0.031 2.777-0.047 2.224 0 4.447 0.157 6.663 0.34 4.715 4.714 4.161 9.17 4.188 15.562 0.014 1.507 0.028 3.014 0.043 4.567-0.231 3.871-0.231 3.871-2.231 6.871-2.361 0.375-2.361 0.375-5.383 0.374-0.571 4e-3 -0.571 4e-3 -3.463 0.021-0.63-3e-3 -0.63-3e-3 -3.817-0.023-0.661 2e-3 -0.661 2e-3 -4.006 0.011-4.39 9e-3 -8.78-5e-3 -13.17-0.02-3.039 0-6.079 0-9.118 2e-3 -6.378 0-12.756-0.011-19.134-0.029-8.19-0.022-16.379-0.023-24.569-0.016-6.279 3e-3 -12.557-4e-3 -18.836-0.013-3.02-4e-3 -6.041-5e-3 -9.061-4e-3 -4.216 1e-3 -8.433-0.012-12.649-0.028-1.258 2e-3 -2.516 5e-3 -3.812 7e-3 -1.145-7e-3 -2.291-0.014-3.471-0.021-0.998-2e-3 -1.995-4e-3 -3.023-7e-3 -2.488-0.254-2.488-0.254-5.488-2.254-0.377-3.293-0.377-3.293-0.38-7.648-9e-3 -1.644-0.017-3.289-0.026-4.984l0.018-5.508c-4e-3 -1.923-9e-3 -3.846-0.016-5.769-0.013-5.236-8e-3 -10.472 2e-3 -15.707 7e-3 -5.473 0-10.945-5e-3 -16.417-5e-3 -9.195 2e-3 -18.389 0.016-27.583 0.017-10.634 0.011-21.268-5e-3 -31.901-0.014-9.121-0.016-18.242-8e-3 -27.363 5e-3 -5.452 6e-3 -10.903-4e-3 -16.354-9e-3 -5.128-3e-3 -10.255 0.014-15.382 4e-3 -1.883 3e-3 -3.766-3e-3 -5.649-9e-3 -2.569 2e-3 -5.137 0.017-7.706 1e-3 -1.438 2e-3 -2.877 3e-3 -4.358 0.389-3.785 1.063-5.693 3.377-8.671 3.756-1.878 8.297-1.228 12.438-1.25z" fill="#191919"/>
<path transform="translate(1867.1 160.9)" d="m0 0c1.212 3e-3 2.423 6e-3 3.672 0.01 1.271 8e-3 2.542 0.017 3.851 0.025 1.279 5e-3 2.558 9e-3 3.875 0.014 3.167 0.012 6.334 0.028 9.5 0.049-0.01 0.762-0.01 0.762-0.063 4.618-0.072 5.65-0.118 11.301-0.156 16.951-0.02 2.447-0.048 4.893-0.082 7.339-0.049 3.515-0.072 7.03-0.089 10.545-0.021 1.095-0.041 2.19-0.063 3.318 0 0.51 0 0.51-1e-3 3.093-9e-3 0.897-0.017 1.794-0.027 2.718 0.481 2.418 0.481 2.418 1.835 4.707 4.191 2.709 8.61 2.263 13.442 2.225 1.099 7e-3 2.199 0.014 3.332 0.021 3.637 0.02 7.274 0.011 10.912 4e-3 2.522 0.01 5.045 0.022 7.568 0.035 6.645 0.033 13.289 0.043 19.933 0.047 10.643 9e-3 21.286 0.044 31.929 0.092 3.726 0.013 7.452 0.012 11.178 0.01 2.272 7e-3 4.544 0.014 6.816 0.021 0.521-2e-3 0.521-2e-3 3.161-0.012 7.148 0.04 7.148 0.04 9.375 2.268 0.259 2.582 0.259 2.582 0.266 5.812 3e-3 1.158 5e-3 2.315 8e-3 3.508-8e-3 1.214-0.016 2.429-0.024 3.68 8e-3 1.214 0.016 2.428 0.024 3.679-3e-3 1.158-5e-3 2.316-8e-3 3.508-2e-3 1.066-4e-3 2.132-7e-3 3.231-0.259 2.582-0.259 2.582-2.259 4.582-2.52 0.254-2.52 0.254-5.769 0.26-0.615 4e-3 -0.615 4e-3 -3.723 0.022-0.677-1e-3 -0.677-1e-3 -4.105-8e-3 -1.421 5e-3 -2.842 0.011-4.307 0.016-4.719 0.014-9.439 0.013-14.158 0.01-3.266 4e-3 -6.531 9e-3 -9.797 0.013-6.853 9e-3 -13.706 8e-3 -20.56 2e-3 -7.931-6e-3 -15.861 7e-3 -23.792 0.028-7.62 0.02-15.239 0.023-22.858 0.019-3.247 1e-3 -6.494 6e-3 -9.742 0.016-4.53 0.012-9.06 6e-3 -13.591-6e-3 -0.677 4e-3 -0.677 4e-3 -4.106 0.023-1.228-7e-3 -2.456-0.014-3.722-0.021h-3.249c-0.832-0.123-1.664-0.247-2.521-0.374-2.532-3.8-2.253-5.889-2.258-10.438-7e-3 -1.548-0.013-3.097-0.019-4.692 3e-3 -1.695 7e-3 -3.39 0.012-5.085-2e-3 -1.735-3e-3 -3.47-6e-3 -5.205-3e-3 -3.637 1e-3 -7.275 0.011-10.912 0.011-4.662 5e-3 -9.324-7e-3 -13.985-8e-3 -3.584-5e-3 -7.167 0-10.75 1e-3 -1.719 0-3.438-5e-3 -5.157-5e-3 -2.403 4e-3 -4.806 0.014-7.21 0-0.684 0-0.684 4e-3 -4.144 0.254-3.422 0.254-3.422 2.254-7.422 2.767-1.383 5.011-1.112 8.102-1.098z" fill="#191919"/>
<path transform="translate(1865.6 42.853)" d="m0 0c1.209-7e-3 2.417-0.014 3.663-0.022 1.338-2e-3 2.676-5e-3 4.055-8e-3 0.7-3e-3 0.7-3e-3 4.242-0.02 4.655-0.02 9.31-0.031 13.965-0.041 0.792-2e-3 0.792-2e-3 4.8-0.012 7.516-0.019 15.031-0.034 22.546-0.042 8.687-0.01 17.373-0.036 26.06-0.077 7.514-0.033 15.028-0.045 22.542-0.049 3.202-5e-3 6.404-0.017 9.605-0.035 4.471-0.025 8.941-0.024 13.412-0.017 1.334-0.013 2.668-0.025 4.043-0.039 1.214 7e-3 2.428 0.014 3.679 0.021 1.058-2e-3 2.116-4e-3 3.206-7e-3 2.615 0.495 2.615 0.495 5.615 4.495 0.426 3.228 0.693 6.263 0.813 9.5 0.051 0.855 0.101 1.709 0.154 2.59 0.206 4.481 0.078 6.82-1.967 10.91-3.784 1.892-8.481 1.163-12.66 1.174-0.555 3e-3 -0.555 3e-3 -3.361 0.02-2.414 0.014-4.828 0.026-7.242 0.036-3.814 0.016-7.629 0.04-11.444 0.065-10.849 0.071-21.697 0.131-32.546 0.182-6.629 0.032-13.257 0.073-19.886 0.12-2.533 0.016-5.066 0.029-7.598 0.037-3.534 0.012-7.069 0.036-10.603 0.063-0.528 0-0.528 0-3.199 2e-3 -7.233 0.073-7.233 0.073-9.461 2.301-0.278 2.253-0.278 2.253-0.319 5.092-0.02 1.061-0.039 2.122-0.06 3.215-6e-3 0.575-6e-3 0.575-0.035 3.482-0.019 1.174-0.039 2.347-0.059 3.556-0.06 3.76-0.106 7.52-0.152 11.28-0.038 2.544-0.077 5.089-0.117 7.633-0.096 6.247-0.18 12.495-0.258 18.742-4.625 0.087-9.249 0.14-13.875 0.188-0.659 0.012-0.659 0.012-3.996 0.076-1.257 0.01-2.514 0.019-3.809 0.029-1.162 0.016-2.325 0.032-3.523 0.048-0.923-0.113-1.846-0.225-2.797-0.341-2.492-3.737-2.253-5.679-2.259-10.146-6e-3 -1.485-0.012-2.97-0.019-4.5 4e-3 -1.61 8e-3 -3.219 0.013-4.877-2e-3 -1.649-4e-3 -3.297-6e-3 -4.996-3e-3 -3.492 1e-3 -6.984 0.01-10.476 0.012-4.471 5e-3 -8.942-7e-3 -13.413-7e-3 -3.44-5e-3 -6.88 1e-3 -10.321 1e-3 -2.449-5e-3 -4.897-0.011-7.346 7e-3 -1.492 0.013-2.983 0.019-4.52 2e-3 -1.312 4e-3 -2.624 5e-3 -3.976 0.537-7.245 1.738-9.547 8.821-9.576z" fill="#191919"/>
<path transform="translate(1140.4 40.562)" d="m0 0c0.471-0.01 0.471-0.01 2.854-0.061 3.924 3e-3 7.005 0.109 10.478 2.031 3.147 3.482 2.859 5.785 2.865 10.438 8e-3 0.81 0.016 1.619 0.024 2.452 0.02 2.715 4e-3 5.429-0.012 8.144 7e-3 1.945 0.016 3.89 0.027 5.834 0.023 5.285 0.014 10.57-2e-3 15.855-0.013 5.526-1e-3 11.053 7e-3 16.579 9e-3 9.281-3e-3 18.561-0.027 27.842-0.027 10.736-0.018 21.472 9e-3 32.208 0.023 9.211 0.026 18.422 0.013 27.633-8e-3 5.505-9e-3 11.009 8e-3 16.513 0.014 5.175 4e-3 10.348-0.024 15.523-7e-3 1.901-5e-3 3.802 6e-3 5.703 0.013 2.592-4e-3 5.181-0.029 7.773-1e-3 1.451-3e-3 2.902-5e-3 4.397-0.63 3.574-0.63 3.574-2.86 6.041-4.276 2.366-8.58 2.071-13.332 1.97-0.946 7e-3 -1.891 0.014-2.865 0.021-5.23-0.048-7.275-0.235-11.573-3.458-0.503-3.485-0.503-3.485-0.507-7.934-7e-3 -0.817-0.013-1.634-0.019-2.476-0.016-2.748-4e-3 -5.495 9e-3 -8.243-5e-3 -1.966-0.013-3.932-0.021-5.898-0.019-5.347-0.011-10.694 1e-3 -16.041 0.01-5.588 1e-3 -11.176-5e-3 -16.764-8e-3 -9.385 2e-3 -18.77 0.021-28.155 0.022-10.861 0.015-21.721-7e-3 -32.581-0.018-9.314-0.021-18.628-0.011-27.942 7e-3 -5.567 8e-3 -11.134-6e-3 -16.702-0.011-5.233-3e-3 -10.466 0.02-15.7 5e-3 -1.924 4e-3 -3.848-5e-3 -5.772-0.011-2.62 3e-3 -5.239 0.023-7.859 1e-3 -1.468 3e-3 -2.937 4e-3 -4.449 1.164-8.055 8.458-6.971 14.941-6.922z" fill="#191919"/>
<path transform="translate(1903.9 129.84)" d="m0 0c1.017-5e-3 2.033-0.01 3.08-0.015 3.369-0.015 6.737-0.021 10.106-0.027 2.338-6e-3 4.676-0.012 7.014-0.017 4.904-0.011 9.808-0.017 14.713-0.02 6.287-6e-3 12.574-0.03 18.861-0.058 4.83-0.019 9.66-0.024 14.489-0.025 2.318-3e-3 4.637-0.012 6.955-0.025 3.241-0.017 6.482-0.015 9.723-8e-3 0.48-5e-3 0.48-5e-3 2.907-0.028 4.852 0.03 8.501 0.101 12.252 3.384 1.255 4.995 1.192 10.113 1.25 15.25 0.026 1.387 0.052 2.774 0.078 4.203-0.328 3.547-0.328 3.547-3.328 6.547-11.557 1.659-23.391 1.127-35.047 1.098-2.225-2e-3 -4.45-4e-3 -6.674-4e-3 -5.82-4e-3 -11.64-0.014-17.459-0.025-5.953-0.01-11.906-0.015-17.859-0.02-11.654-0.011-23.307-0.028-34.961-0.049-0.029-4.271-0.047-8.541-0.062-12.812-9e-3 -1.215-0.017-2.43-0.026-3.682-3e-3 -1.163-6e-3 -2.327-0.01-3.525-5e-3 -1.074-0.01-2.147-0.015-3.254 0.113-2.727 0.113-2.727 1.113-5.727 4.254-1.418 8.461-1.156 12.9-1.161z" fill="#191919"/>
<path transform="translate(1959,539)" d="m0 0 2 1-3 3-2-1 3-3z" fill="#191919"/>
</svg>
