<?xml version="1.0" encoding="UTF-8"?>
<svg version="1.1" viewBox="0 0 2448 1112" xmlns="http://www.w3.org/2000/svg">
<path transform="translate(2110.9 416.87)" d="m0 0c0.729-2e-3 0.729-2e-3 4.418-0.013 1.605 1e-3 3.21 1e-3 4.864 1e-3 1.703-3e-3 3.407-6e-3 5.11-0.01 4.635-9e-3 9.27-0.011 13.905-0.012 2.899 0 5.797-2e-3 8.696-5e-3 10.124-9e-3 20.247-0.013 30.37-0.013 9.418 1e-3 18.835-0.01 28.252-0.025 8.096-0.013 16.191-0.019 24.286-0.018 4.83 0 9.66-3e-3 14.49-0.013 4.552-0.01 9.104-0.01 13.656-3e-3 2.449 2e-3 4.898-7e-3 7.346-0.015 11.899 0.033 22.806 0.219 33.354 6.107 2.336 1.153 2.336 1.153 6.961 2.09 5.503 1.337 7.978 3.531 12.375 7.063 1.073 0.515 2.145 1.031 3.25 1.562 3.204 1.675 4.555 3.606 6.75 6.438 0.402 0.237 0.402 0.237 2.438 1.437 3.289 2.006 5.173 4.561 7.562 7.563 0.681 0.639 1.361 1.278 2.063 1.937 2.562 2.728 4.129 5.796 5.937 9.063 0.99 1.32 1.98 2.64 3 4 1.067 2.685 1.946 5.401 2.84 8.148 1.16 2.852 1.16 2.852 3.211 5.625 2.542 4.208 2.78 7.592 3.199 12.477 0.075 0.877 0.15 1.753 0.228 2.657 1.545 19.638 2.65 39.685-7.478 57.093-0.454 1.32-0.907 2.64-1.375 4-1.857 4.572-4.324 7.361-7.625 11-0.598 0.928-1.196 1.856-1.812 2.812-5.313 7.741-11.08 13.515-19.188 18.188-0.66 0.701-1.32 1.402-2 2.125-2 1.875-2 1.875-6.25 3.062-1.237 0.598-2.475 1.196-3.75 1.813-0.856 4.925-0.622 7.802 1.688 12.25 2.319 2.758 4.704 5.263 7.312 7.75 4.268 4.118 7.877 7.962 11 13 3.659 5.713 7.543 10.865 12 16 0.681 1.031 1.361 2.062 2.063 3.125 2.057 3.053 4.275 5.336 6.937 7.875 6.351 6.12 11.416 12.713 16.438 19.937 2.369 3.391 4.765 6.755 7.25 10.063 0.54 0.722 1.08 1.443 1.636 2.187 1.676 1.813 1.676 1.813 5.676 3.813 0.875 2.5 0.875 2.5 1 5-2 2-2 2-4.992 2.222-1.283-0.013-2.566-0.026-3.889-0.039-1.451-0.011-2.903-0.021-4.399-0.032-1.577-0.023-3.154-0.046-4.779-0.069-1.61-0.018-3.22-0.036-4.879-0.055-3.413-0.039-6.825-0.086-10.237-0.139-4.376-0.066-8.752-0.11-13.128-0.147-4.169-0.039-8.337-0.101-12.506-0.159-1.575-0.013-3.15-0.026-4.772-0.039-1.455-0.026-2.91-0.052-4.409-0.079-1.284-0.017-2.568-0.034-3.891-0.052-4.18-0.553-5.462-2.58-7.994-5.787-2.125-2.625-2.125-2.625-4.5-5-6.845-6.846-13.078-14.525-18.187-22.75-3.087-4.908-6.656-9.093-10.75-13.188-5.802-5.802-11.314-11.721-15.688-18.687l-2-2.5c-2-2.5-2-2.5-3.687-5.125-6.472-9.445-14.22-18.282-22.313-26.375-4.314-5.147-8.276-10.414-12-16-1.972-2.358-3.973-4.69-6-7-2.908-3.315-5.666-6.485-8.062-10.188-2.044-2.966-4.08-4.652-6.938-6.812-3.225-3-5.006-5.012-7-9 3-3 3-3 6.134-3.3 0.646 0.016 0.646 0.016 3.917 0.102 1.466 0.029 2.931 0.059 4.442 0.089 1.59 0.043 3.181 0.087 4.82 0.132 2.497 0.039 4.995 0.078 7.493 0.114 6.162 0.092 12.324 0.211 18.486 0.377 3.452 0.091 6.904 0.158 10.357 0.199 3.25 0.039 6.499 0.114 9.747 0.229 9.27 0.065 14.529-1.023 21.32-7.512 0.754-0.802 1.508-1.604 2.284-2.43 0.891-0.861 1.781-1.721 2.699-2.608 2.612-2.716 3.71-5.075 5.051-8.58 0.407-1.045 0.815-2.091 1.234-3.168 0.336-0.872 0.671-1.745 1.016-2.644l1-2c0.891-10.247-2.263-19.471-8-28-1.655-1.019-3.323-2.018-5-3-0.577-0.846-1.155-1.692-1.75-2.563-4.006-4.34-9.852-4.35-15.532-4.705-1.478-7e-3 -2.956-0.015-4.479-0.023-0.412-3e-3 -0.412-3e-3 -2.497-0.02-2.691-0.019-5.382-0.023-8.074-0.025-1.883-7e-3 -3.767-0.013-5.65-0.02-3.931-0.012-7.862-0.016-11.793-0.015-5.039 0-10.077-0.027-15.115-0.061-3.882-0.023-7.763-0.027-11.645-0.026-1.859-2e-3 -3.717-0.011-5.575-0.026-2.593-0.02-5.184-0.014-7.776-2e-3 -0.737-2e-3 -0.737-2e-3 -4.467-9e-3 -3.647 0.495-3.647 0.495-5.845 2.012-2.607 3.592-2.291 6.288-2.276 10.699-3e-3 0.836-6e-3 1.671-8e-3 2.532-5e-3 2.805 0.02 5.609 0.044 8.413 3e-3 2.009 4e-3 4.018 3e-3 6.027 3e-3 5.461 0.031 10.921 0.062 16.382 0.029 5.713 0.034 11.426 0.042 17.139 0.018 10.829 0.055 21.658 0.1 32.486 0.065 15.885 0.105 31.77 0.14 47.656 2e-3 1.165 5e-3 2.33 7e-3 3.53 5e-3 2.324 0.01 4.647 0.015 6.971 0.016 6.804 0.038 13.608 0.067 20.411 0.017 4.236 0.03 8.471 0.042 12.706 7e-3 1.963 0.015 3.925 0.025 5.888 0.014 2.682 0.022 5.364 0.028 8.045 6e-3 1.5 0.013 3 0.019 4.546-0.282 10.222-0.282 10.222-2.112 12.052-2.064 0.115-4.133 0.159-6.2 0.177-1.329 0.013-2.657 0.025-4.026 0.039-1.448 7e-3 -2.896 0.014-4.387 0.022-1.476 8e-3 -2.953 0.016-4.474 0.024-3.131 0.014-6.263 0.025-9.394 0.033-4.8 0.017-9.6 0.061-14.4 0.105-3.036 0.01-6.071 0.019-9.107 0.025-1.442 0.018-2.884 0.036-4.369 0.054-1.338-3e-3 -2.676-6e-3 -4.054-9e-3 -0.59 3e-3 -0.59 3e-3 -3.571 0.017-3.018-0.487-3.018-0.487-5.175-1.851-2.879-4.118-2.389-8.457-2.344-13.303-6e-3 -1.099-0.011-2.198-0.017-3.33-0.014-3.696 1e-3 -7.391 0.016-11.087-3e-3 -2.645-9e-3 -5.289-0.016-7.933-0.014-7.192-3e-3 -14.384 0.014-21.576 0.013-7.516 7e-3 -15.032 4e-3 -22.548-3e-3 -12.624 0.01-25.247 0.033-37.871 0.027-14.607 0.029-29.215 0.017-43.822-0.011-14.036-5e-3 -28.071 0.01-42.106 5e-3 -5.98 5e-3 -11.961 1e-3 -17.942-5e-3 -7.039 5e-3 -14.078 0.027-21.117 5e-3 -2.588 6e-3 -5.176 1e-3 -7.764-6e-3 -3.524 6e-3 -7.047 0.023-10.571-6e-3 -1.032-0.012-2.064-0.018-3.128 0.047-5.243 0.161-7.212 3.406-11.538 3.495-1.165 6.227-1.129 9.917-1.134z" fill="#E16432"/>
<path transform="translate(950.68 416.87)" d="m0 0c1.455-4e-3 2.91-9e-3 4.409-0.013 0.806 0 0.806 0 4.886 1e-3 1.703-3e-3 3.407-6e-3 5.11-0.01 4.643-9e-3 9.286-0.011 13.929-0.012 3.879 0 7.757-4e-3 11.636-8e-3 9.161-8e-3 18.322-0.01 27.483-0.01 9.432 1e-3 18.864-0.01 28.296-0.025 8.104-0.013 16.208-0.019 24.311-0.018 4.837 0 9.674-3e-3 14.51-0.013 4.561-0.01 9.121-0.01 13.681-3e-3 2.454 2e-3 4.907-7e-3 7.36-0.015 13.045 0.037 23.411 0.612 34.713 7.26 2.997 0.679 5.997 1.347 9 2 3.085 1.795 5.486 3.486 8 6 1.113 0.433 2.227 0.866 3.375 1.312 3.883 1.808 5.11 3.335 7.625 6.688 0.402 0.237 0.402 0.237 2.437 1.437 3.285 2.003 5.187 4.561 7.563 7.563l3 3c4.13 6.248 7.587 12.646 10.5 19.562 1.5 3.438 1.5 3.438 3.515 6.528 2.349 4.628 2.88 8.819 3.235 13.91 0.075 0.927 0.15 1.854 0.227 2.809 0.586 7.74 0.795 15.431 0.523 23.191-0.042 1.287-0.083 2.575-0.125 3.902-0.868 18.09-0.868 18.09-6.875 24.098-0.413 1.526-0.825 3.052-1.25 4.625-1.397 5.07-3.713 8.368-7.067 12.363-1.683 2.012-1.683 2.012-3.558 4.949-5.325 7.674-11.058 13.414-19.125 18.063-0.66 0.701-1.32 1.402-2 2.125-2 1.875-2 1.875-6.25 3.062-1.238 0.598-2.475 1.196-3.75 1.813-0.857 4.925-0.622 7.802 1.687 12.25 2.314 2.752 4.741 5.238 7.313 7.75 6.381 6.983 11.974 14.419 17.187 22.312 2.707 4.014 5.734 7.609 9.156 11.031 2.642 2.642 5.193 5.342 7.719 8.094 0.837 0.906 1.673 1.813 2.535 2.746 2.399 2.812 4.397 5.716 6.403 8.817l2 2.5c2 2.5 2 2.5 3.75 5.187 1.998 2.942 4.068 5.755 6.25 8.563 0.66 0.85 1.32 1.701 2 2.578 2 2.172 2 2.172 6 4.172 0.875 2.5 0.875 2.5 1 5-2 2-2 2-4.992 2.222-1.283-0.013-2.567-0.026-3.889-0.039-1.452-0.011-2.903-0.021-4.399-0.032-1.577-0.023-3.154-0.046-4.779-0.069-1.61-0.018-3.221-0.036-4.88-0.055-3.412-0.039-6.824-0.086-10.237-0.139-4.375-0.066-8.751-0.11-13.128-0.147-4.168-0.039-8.337-0.101-12.505-0.159-1.575-0.013-3.15-0.026-4.773-0.039-1.455-0.026-2.91-0.052-4.408-0.079-1.285-0.017-2.569-0.034-3.892-0.052-3.118-0.412-3.118-0.412-6.118-3.412-0.702-0.681-1.403-1.362-2.125-2.063-8.918-9.111-16.531-18.522-23.165-29.422-1.698-2.498-3.55-4.417-5.71-6.515-0.64-0.97-1.279-1.939-1.938-2.938-2.11-3.133-4.332-5.459-7.062-8.062-7.606-7.324-13.416-15.035-19-24-1.632-2.029-3.295-4.033-5-6-0.702-0.887-1.403-1.774-2.125-2.688-1.875-2.312-1.875-2.312-4.875-5.312-0.805-0.97-1.609-1.939-2.438-2.938-2.562-3.062-2.562-3.062-4.519-4.996-1.951-1.972-3.616-3.985-5.293-6.191-2.583-3.37-5.207-6.698-7.875-10-3.106-3.863-5.995-7.842-8.875-11.875l-3-3c-0.619-0.97-1.238-1.939-1.875-2.938-2.141-3.084-4.191-4.772-7.125-7.062-5-5.223-5-5.223-5-11 2.955-1.478 5.518-1.031 8.813-0.939 1.44 0.035 2.879 0.071 4.362 0.108 1.568 0.039 3.135 0.079 4.75 0.12 4.17 0.071 8.34 0.136 12.51 0.199 4.361 0.068 8.719 0.156 13.077 0.287 3.398 0.101 6.794 0.172 10.194 0.209 3.197 0.036 6.394 0.112 9.59 0.236 10.421 0.029 15.657-2.319 23.178-9.558 0.833-0.878 1.667-1.757 2.526-2.662l3-3c4.858-9.388 6.894-18.734 4.195-29.086-2.442-7.062-4.65-12.083-11.195-15.914-0.578-0.846-1.155-1.692-1.75-2.563-4.008-4.341-9.851-4.352-15.533-4.698-1.478-5e-3 -2.956-9e-3 -4.478-0.014-0.824-5e-3 -1.648-0.01-2.497-0.015-2.692-0.014-5.383-0.013-8.074-0.011-1.884-4e-3 -3.767-8e-3 -5.65-0.013-3.931-7e-3 -7.862-7e-3 -11.794-2e-3 -5.038 6e-3 -10.076-0.011-15.114-0.034-3.882-0.015-7.764-0.016-11.646-0.013-1.858 0-3.717-6e-3 -5.575-0.016-2.592-0.012-5.183-5e-3 -7.775 6e-3 -1.474 0-2.948-1e-3 -4.467-2e-3 -3.647 0.375-3.647 0.375-7.647 3.375-0.495 3.535-0.495 3.535-0.488 8.058-4e-3 0.831-8e-3 1.661-0.013 2.517-9e-3 2.794 0.011 5.587 0.031 8.381-1e-3 1.999-3e-3 3.998-7e-3 5.997-5e-3 5.438 0.014 10.876 0.038 16.314 0.021 5.687 0.021 11.375 0.023 17.063 6e-3 9.556 0.027 19.113 0.059 28.67 0.04 12.262 0.058 24.523 0.067 36.785 8e-3 10.541 0.026 21.082 0.045 31.624 4e-3 2.262 8e-3 4.524 0.011 6.786 0.01 6.454 0.025 12.908 0.047 19.362 6e-3 1.955 0.011 3.909 0.014 5.864 4e-3 2.671 0.014 5.342 0.025 8.012 5e-3 1.495 9e-3 2.989 0.013 4.528 0.135 4.039 0.135 4.039 0.894 7.887 0.079 1.04 0.159 2.08 0.241 3.152-4.342 3.256-5.184 3.371-10.33 3.34h-3.881c-0.69-8e-3 -0.69-8e-3 -4.18-0.047-1.415-5e-3 -2.83-9e-3 -4.288-0.013-4.524-0.017-9.047-0.055-13.571-0.093-3.066-0.015-6.131-0.029-9.196-0.041-7.518-0.033-15.036-0.083-22.554-0.146-0.454-1.423-0.908-2.847-1.375-4.313-1.625-4.687-1.625-4.687-3.625-7.687-0.196-3.368-0.27-6.653-0.254-10.022-2e-3 -0.521-2e-3 -0.521-0.01-3.156-8e-3 -3.508-2e-3 -7.016 5e-3 -10.523-3e-3 -2.508-7e-3 -5.016-0.011-7.524-9e-3 -6.824-5e-3 -13.648 1e-3 -20.473 5e-3 -7.129 0-14.259-3e-3 -21.388-4e-3 -11.975 1e-3 -23.949 0.011-35.924 0.011-13.859 7e-3 -27.719-4e-3 -41.578-9e-3 -11.883-0.01-23.766-5e-3 -35.649 3e-3 -7.104 4e-3 -14.208-3e-3 -21.313-6e-3 -6.678-2e-3 -13.356 0.01-20.033 2e-3 -2.457 2e-3 -4.913-3e-3 -7.369-5e-3 -3.343 2e-3 -6.685 0.012-10.027-5e-3 -0.981-9e-3 -1.963-0.014-2.974 0.039-6.705 0.039-6.705 2.268-10.047 0.682-2.329 1.35-4.662 2-7 1.887-1.888 5.169-1.131 7.676-1.134z" fill="#E16432"/>
<path transform="translate(1841.7 416.87)" d="m0 0c0.897-2e-3 1.795-5e-3 2.719-7e-3 3.02-6e-3 6.039-5e-3 9.058-5e-3 2.16-3e-3 4.32-6e-3 6.48-0.01 5.876-9e-3 11.752-0.011 17.628-0.012 4.901 0 9.801-4e-3 14.702-8e-3 11.56-8e-3 23.12-0.01 34.68-0.01 11.935 1e-3 23.87-0.01 35.805-0.025 10.237-0.013 20.475-0.019 30.713-0.018 6.119 0 12.237-3e-3 18.356-0.013 5.753-0.01 11.507-0.01 17.261-3e-3 2.113 1e-3 4.227-1e-3 6.341-7e-3 2.881-8e-3 5.763-3e-3 8.645 4e-3 0.807 0 0.807 0 4.89-1e-3 3.587 0.221 5.96 0.44 9.043 2.249 1.575 5.723 1.107 11.917 1.019 17.824-7e-3 0.512-7e-3 0.512-0.042 3.102-0.033 2.155-0.07 4.309-0.109 6.463-0.056 3.298-0.084 6.595-0.112 9.894-0.036 2.097-0.073 4.194-0.112 6.291-4e-3 0.985-8e-3 1.971-0.013 2.986-0.096 3.853-0.18 6.738-2.296 10.029-4.431 2.677-9.434 2.534-14.497 2.504-1.214-4e-3 -2.428-9e-3 -3.679-0.013-1.318-0.01-2.637-0.02-3.996-0.03-1.399-7e-3 -2.798-0.013-4.239-0.019-3.035-0.014-6.07-0.03-9.105-0.048-4.798-0.026-9.597-0.044-14.396-0.059-13.642-0.043-27.285-0.091-40.928-0.171-8.345-0.049-16.69-0.078-25.035-0.094-3.184-0.01-6.368-0.027-9.552-0.052-4.444-0.033-8.887-0.042-13.331-0.046-1.322-0.015-2.645-0.031-4.008-0.048-1.208 4e-3 -2.417 8e-3 -3.662 0.012-1.05-5e-3 -2.101-0.01-3.183-0.015-3.473 0.624-4.649 1.67-6.724 4.49-0.304 3.436-0.375 6.523-0.242 9.945 0.023 0.966 0.046 1.932 0.07 2.928 0.053 2.039 0.115 4.079 0.187 6.117 0.11 3.13 0.186 6.258 0.258 9.389 0.056 1.98 0.113 3.961 0.172 5.941 0.012 0.47 0.012 0.47 0.073 2.847 0.249 6.6 0.249 6.6 2.482 8.833 3.664 0.203 7.254 0.28 10.92 0.271 0.568 3e-3 0.568 3e-3 3.444 0.016 2.474 0.01 4.949 0.016 7.424 0.018 3.911 3e-3 7.823 0.02 11.735 0.04 11.124 0.056 22.248 0.087 33.373 0.111 6.797 0.016 13.594 0.046 20.392 0.085 2.596 0.011 5.192 0.017 7.788 0.017 3.625 1e-3 7.25 0.019 10.875 0.041 1.08-4e-3 2.16-9e-3 3.273-0.014 7.434 0.073 7.434 0.073 10.776 3.415 0.287 3.681 0.396 7.19 0.363 10.871 0 0.537 0 0.537 2e-3 3.254-3e-3 2.272-0.012 4.544-0.029 6.816-0.024 3.479-0.021 6.957-0.014 10.436-5e-3 2.206-0.013 4.412-0.021 6.619 1e-3 1.042 1e-3 2.083 2e-3 3.157-0.045 4.661-0.188 7.617-2.303 11.847-4.946 1.236-9.617 1.045-14.672 0.942-1.087-0.018-2.173-0.035-3.293-0.053-2.359-0.039-4.718-0.079-7.078-0.122-5.01-0.087-10.02-0.155-15.03-0.225-9.332-0.13-18.663-0.267-27.994-0.437-6.488-0.118-12.976-0.211-19.465-0.289-2.475-0.034-4.951-0.077-7.426-0.129-3.457-0.072-6.913-0.113-10.37-0.147-1.027-0.029-2.054-0.058-3.111-0.088-6.895-0.022-6.895-0.022-10.195 2.799-2.023 4.069-1.957 8.021-1.933 12.467-6e-3 0.936-0.012 1.871-0.018 2.835-7e-3 1.974-4e-3 3.947 8e-3 5.921 0.014 3.016-0.02 6.029-0.058 9.045-1e-3 1.921 1e-3 3.841 6e-3 5.762-0.013 0.899-0.027 1.798-0.04 2.724 0.056 3.776 0.364 6.493 2.34 9.745 5.386 3.64 10.877 2.83 17.219 2.678 0.709-7e-3 0.709-7e-3 4.294-0.042 4.689-0.051 9.377-0.137 14.066-0.222 3.254-0.04 6.508-0.076 9.763-0.11 8.573-0.094 17.146-0.218 25.719-0.349 13.723-0.21 27.446-0.388 41.17-0.543 4.8-0.06 9.6-0.14 14.4-0.221 2.935-0.038 5.871-0.075 8.807-0.111 1.34-0.028 2.679-0.056 4.059-0.085 1.228-0.011 2.456-0.023 3.721-0.034 0.533-9e-3 0.533-9e-3 3.229-0.051 3.387 0.399 5.191 1.262 7.882 3.34 2.497 4.994 2.324 9.331 2.336 14.785 3e-3 0.526 3e-3 0.526 0.02 3.19 0.01 2.223 0.015 4.446 0.014 6.669 5e-3 3.409 0.041 6.816 0.079 10.225 6e-3 2.159 0.01 4.319 0.012 6.478 7e-3 0.511 7e-3 0.511 0.043 3.097-0.018 2.872-0.018 2.872-0.504 7.556-4.646 3.484-7.483 3.424-13.003 3.381-0.92 4e-3 -1.84 9e-3 -2.788 0.014-3.09 0.012-6.18 2e-3 -9.27-7e-3 -2.212 4e-3 -4.425 9e-3 -6.637 0.016-6.015 0.014-12.029 8e-3 -18.043-1e-3 -6.286-8e-3 -12.572-1e-3 -18.858 4e-3 -10.556 5e-3 -21.112-2e-3 -31.669-0.016-12.216-0.017-24.432-0.011-36.648 5e-3 -10.478 0.014-20.955 0.016-31.432 8e-3 -6.263-5e-3 -12.525-5e-3 -18.788 5e-3 -5.886 8e-3 -11.772 2e-3 -17.658-0.015-2.164-4e-3 -4.329-3e-3 -6.493 4e-3 -2.946 8e-3 -5.891-2e-3 -8.837-0.017-0.864 6e-3 -1.728 0.013-2.619 0.02-5.915-0.059-5.915-0.059-9.257-3.401-0.296-3.6-0.404-7.027-0.381-10.629-5e-3 -1.107-9e-3 -2.214-0.014-3.355-0.012-3.729-3e-3 -7.457 7e-3 -11.186-4e-3 -2.666-0.01-5.331-0.016-7.997-0.014-7.254-9e-3 -14.507 1e-3 -21.761 7e-3 -7.578 0-15.156-4e-3 -22.734-6e-3 -12.728 1e-3 -25.456 0.016-38.184 0.016-14.732 0.011-29.464-6e-3 -44.196-0.013-12.63-0.015-25.26-7e-3 -37.89 4e-3 -7.552 5e-3 -15.103-5e-3 -22.655-9e-3 -7.098-3e-3 -14.196 0.015-21.294 4e-3 -2.611 2e-3 -5.222-4e-3 -7.833-8e-3 -3.553 2e-3 -7.105 0.017-10.658-7e-3 -1.043-0.014-2.087-0.02-3.162 0.058-7.124 0.058-7.124 3.401-10.466 3.985-1.329 7.469-1.13 11.679-1.134z" fill="#E16432"/>
<path transform="translate(1543.1 416.63)" d="m0 0c1.287 0 2.574 0 3.9 1e-3 0.738-4e-3 0.738-4e-3 4.473-0.022 0.812 4e-3 0.812 4e-3 4.925 0.023 1.725-2e-3 3.45-6e-3 5.175-0.011 4.692-9e-3 9.385 0 14.078 0.014 4.915 0.011 9.83 7e-3 14.745 5e-3 8.265-1e-3 16.529 0.01 24.794 0.029 9.534 0.021 19.068 0.024 28.603 0.018 9.183-6e-3 18.366 0 27.549 0.011 3.901 5e-3 7.801 6e-3 11.701 4e-3 4.607-2e-3 9.215 6e-3 13.822 0.022 2.481 6e-3 4.962 2e-3 7.443-1e-3 21.836 0.103 21.836 0.103 31.466 6.125 2.518 1.308 4.679 1.728 7.476 2.157 5.337 1.123 6.165 2.152 9.75 6 1.706 0.959 3.439 1.871 5.188 2.75 8.176 4.287 15.178 10.183 19.812 18.25 2.579 4.207 5.169 8.287 8.188 12.187 3.572 4.843 4.611 7.706 5.687 13.625 0.91 4.887 2.778 8.796 5.125 13.188 1.534 6.136 1.267 12.259 1.313 18.562 0.029 1.321 0.058 2.642 0.087 4.002 0.054 8.344-0.994 14.825-4.4 22.436-0.967 2.787-1.881 5.556-2.644 8.406-1.425 5.18-2.843 8.461-6.356 12.594-0.84 1.653-1.65 3.321-2.437 5-2.004 4.135-4.07 6.943-7.563 10-2.502 2.44-4.828 4.773-6.937 7.562-2.399 2.834-4.942 4.44-8.063 6.438-0.949 0.866-1.897 1.732-2.875 2.625-3.654 2.777-6.709 3.271-11.125 4.375-0.874 0.809-1.748 1.619-2.648 2.453-4.165 3.164-7.926 3.722-12.977 4.297-0.413 0.056-0.413 0.056-2.504 0.34-2.62 0.343-5.243 0.628-7.871 0.91-0.785 0.091-1.571 0.183-2.38 0.278-9.433 0.957-18.863 0.776-28.329 0.675-4.2-0.043-8.4-0.066-12.6-0.09-7.795-0.046-15.59-0.1-23.385-0.186-5.447-0.059-10.894-0.094-16.341-0.113-2.07-0.011-4.14-0.032-6.209-0.062-2.887-0.041-5.771-0.051-8.658-0.054-1.64-0.014-3.281-0.028-4.971-0.043-4.127 0.595-4.127 0.595-7.162 2.622-2.591 3.921-2.556 6.41-2.501 11.096 7e-3 1.648 0.014 3.297 0.021 4.995 0.032 1.795 0.065 3.591 0.097 5.386 0.015 1.844 0.026 3.688 0.036 5.532 0.03 4.85 0.089 9.7 0.155 14.55 0.103 7.765 0.166 15.532 0.222 23.298 0.024 2.712 0.063 5.424 0.103 8.136 0.017 1.645 0.033 3.291 0.05 4.986 0.019 1.45 0.039 2.901 0.059 4.395-0.207 3.599-0.207 3.599-2.207 7.599-2.751 1.375-4.976 1.142-8.054 1.161-0.636 5e-3 -0.636 5e-3 -3.853 0.029-1.381 4e-3 -2.761 8e-3 -4.183 0.013-0.705 3e-3 -0.705 3e-3 -4.274 0.017-2.989 0.01-5.977 0.016-8.966 0.02-4.585 0.01-9.169 0.041-13.754 0.072-2.898 7e-3 -5.795 0.012-8.693 0.016-0.689 6e-3 -0.689 6e-3 -4.176 0.037-1.275-3e-3 -2.55-6e-3 -3.863-9e-3 -1.124 4e-3 -2.249 7e-3 -3.407 0.011-2.777-0.367-2.777-0.367-5.777-3.367-0.296-3.613-0.404-7.053-0.381-10.667-5e-3 -1.111-9e-3 -2.222-0.014-3.367-0.012-3.743-2e-3 -7.485 7e-3 -11.228-4e-3 -2.675-9e-3 -5.351-0.016-8.026-0.014-7.281-8e-3 -14.562 1e-3 -21.842 8e-3 -7.606 1e-3 -15.212-4e-3 -22.818-5e-3 -12.775 2e-3 -25.55 0.016-38.325 0.016-14.786 0.011-29.573-5e-3 -44.359-0.014-12.677-0.016-25.354-8e-3 -38.031 5e-3 -7.58 5e-3 -15.159-5e-3 -22.738-8e-3 -7.125-2e-3 -14.249 0.015-21.374 4e-3 -2.62 3e-3 -5.241-4e-3 -7.862-8e-3 -3.566 2e-3 -7.131 0.017-10.697-7e-3 -1.047-0.013-2.095-0.02-3.174 0.083-10.091 0.083-10.091 6.501-10.867zm65.419 62.031c-1.93 2.979-2.02 4.81-2.021 8.35-9e-3 1.211-0.018 2.422-0.028 3.67 0.011 1.305 0.022 2.609 0.034 3.953-1e-3 1.341-3e-3 2.682-4e-3 4.064 1e-3 2.835 0.013 5.67 0.034 8.506 0.029 4.35 0.02 8.699 7e-3 13.049 6e-3 2.752 0.015 5.504 0.026 8.256-3e-3 1.306-6e-3 2.612-9e-3 3.958 0.012 1.208 0.025 2.416 0.038 3.661 5e-3 1.065 0.011 2.13 0.016 3.227 0.388 2.65 0.388 2.65 3.388 5.65 3.768 0.401 3.768 0.401 8.583 0.436 0.438 5e-3 0.438 5e-3 2.657 0.03 2.905 0.029 5.809 0.034 8.713 0.038 2.019 9e-3 4.039 0.019 6.058 0.03 4.237 0.018 8.473 0.023 12.71 0.022 5.422-1e-3 10.843 0.04 16.265 0.092 4.173 0.033 8.345 0.039 12.518 0.038 1.998 3e-3 3.997 0.017 5.995 0.04 2.801 0.029 5.599 0.021 8.401 2e-3 0.796 3e-3 0.796 3e-3 4.824 0.013 5.325-0.923 7.49-2.979 11.276-6.741 1.093-0.867 2.186-1.733 3.313-2.625 2.687-2.375 2.687-2.375 4.687-6.375 0.423-0.31 0.423-0.31 2.563-1.875 3.154-2.751 3.009-3.998 3.437-8.125 0.117-3.165 0.175-6.333 0.188-9.5 0.014-1.64 0.028-3.28 0.043-4.969-0.418-8.214-3.257-12.308-8.793-18.219-0.584-0.663-1.167-1.326-1.768-2.01-0.594-0.64-1.187-1.28-1.799-1.939-0.526-0.575-1.053-1.149-1.596-1.741-6.045-4.31-12.905-5-20.128-5.026-0.833-7e-3 -1.667-0.014-2.526-0.021-2.724-0.018-5.448-0.015-8.172-9e-3 -1.905-4e-3 -3.811-0.01-5.717-0.016-3.978-9e-3 -7.956-6e-3 -11.934 4e-3 -5.099 0.011-10.198-9e-3 -15.297-0.038-3.928-0.019-7.856-0.018-11.784-0.013-1.881 1e-3 -3.762-5e-3 -5.642-0.018-2.624-0.015-5.246-4e-3 -7.869 0.013-0.746 0-0.746 0-4.521 1e-3 -3.685 0.501-3.685 0.501-6.166 2.157z" fill="#E16432"/>
<path transform="translate(1248.4 416.85)" d="m0 0c1.122-6e-3 2.243-0.013 3.399-0.019 1.218-1e-3 2.435-3e-3 3.69-4e-3 1.248-3e-3 2.496-6e-3 3.782-0.01 2.646-5e-3 5.293-7e-3 7.939-7e-3 4.045-2e-3 8.09-0.02 12.134-0.039 2.569-3e-3 5.138-5e-3 7.707-6e-3 1.21-7e-3 2.419-0.015 3.666-0.022 1.134 3e-3 2.268 6e-3 3.437 9e-3 0.993-1e-3 1.986-3e-3 3.01-4e-3 3.354 0.289 5.852 0.724 8.872 2.247 1.143 4.499 1.105 8.912 1.062 13.533-0.012 1.518-0.023 3.036-0.035 4.6-0.017 1.674-0.035 3.347-0.053 5.021-0.015 1.769-0.03 3.539-0.044 5.308-0.031 3.806-0.065 7.612-0.101 11.418-0.057 6.022-0.104 12.045-0.149 18.067-0.129 17.124-0.266 34.248-0.424 51.372-0.088 9.461-0.164 18.922-0.229 28.384-0.041 5.982-0.096 11.964-0.16 17.945-0.037 3.729-0.061 7.457-0.082 11.185-0.012 1.724-0.029 3.447-0.052 5.17-0.112 8.616-0.208 16.034 3.267 23.997 0.618 1.423 1.237 2.847 1.875 4.313 2.104 3.651 3.809 5.222 7.125 7.687 0.433 0.805 0.866 1.609 1.312 2.438 2.467 3.745 5.859 5.324 9.688 7.562l4 3c2.579 0.777 5.188 1.455 7.812 2.063 7.976 1.872 7.976 1.872 11.723 3.035 9.94 2.589 19.816 1.314 29.351-2.094 3.245-1.046 6.298-1.521 9.676-1.941 5.151-0.768 5.151-0.768 7.688-3.375 0.577-0.887 1.155-1.774 1.75-2.688 2.655-1.685 5.322-3.352 8-5 4.375-3.764 7.073-8.047 10-13 0.701-1.075 1.401-2.15 2.123-3.258 2.149-4.285 2.364-6.969 2.338-11.739 0-0.797 0-0.797 3e-3 -4.835-0.019-1.755-0.038-3.509-0.058-5.264-6e-3 -1.859-0.01-3.717-0.013-5.575-9e-3 -3.993-0.031-7.986-0.062-11.979-0.049-6.311-0.069-12.621-0.085-18.932-0.034-12.25-0.098-24.5-0.165-36.75-0.085-15.608-0.158-31.215-0.201-46.823-0.018-6.277-0.052-12.554-0.098-18.832-0.025-3.897-0.038-7.794-0.048-11.692-8e-3 -1.811-0.02-3.622-0.038-5.433-0.024-2.466-0.028-4.933-0.03-7.399-4e-3 -0.691-4e-3 -0.691-0.024-4.187 0.358-3.302 0.358-3.302 3.358-6.302 2.606-1.303 4.537-1.141 7.456-1.161 1.141-9e-3 2.283-0.019 3.459-0.029 1.24-4e-3 2.48-8e-3 3.757-0.013 1.27-6e-3 2.54-0.011 3.849-0.017 2.693-0.01 5.387-0.016 8.08-0.02 4.118-0.01 8.235-0.041 12.352-0.072 2.614-7e-3 5.229-0.012 7.844-0.016 1.231-0.012 2.462-0.025 3.731-0.037 11.156 0.029 11.156 0.029 15.472 3.365 1 4 1 4 0 6-0.091 2.489-0.113 4.979-0.107 7.469 1e-3 1.606 3e-3 3.211 5e-3 4.865 6e-3 1.792 0.013 3.584 0.02 5.375 4e-3 1.878 7e-3 3.755 9e-3 5.632 7e-3 4.051 0.016 8.102 0.028 12.153 0.018 6.409 0.028 12.817 0.036 19.226 0.024 18.227 0.06 36.453 0.105 54.68 0.024 10.06 0.042 20.12 0.051 30.18 7e-3 6.367 0.022 12.734 0.045 19.101 0.011 3.969 0.015 7.939 0.016 11.909 2e-3 1.836 7e-3 3.672 0.017 5.508 0.012 2.515 0.011 5.03 9e-3 7.544 3e-3 1.405 6e-3 2.81 9e-3 4.258-0.734 12.373-3.828 28.47-13.243 37.1l-5 5c-0.702 0.908-1.403 1.815-2.125 2.75-5.919 6.691-12.488 12.063-20.875 15.25-0.763 0.66-1.527 1.32-2.313 2-3.27 2.434-6.271 3.108-10.168 4.153-2.519 0.847-2.519 0.847-6.144 3.347-4.942 3.354-10.474 3.743-16.266 4.68-4.965 0.991-9.335 2.685-13.949 4.734-7.612 2.616-15.958 2.257-23.922 2.289-1.108 6e-3 -2.216 0.012-3.358 0.018-2.336 9e-3 -4.671 0.016-7.007 0.019-3.533 0.01-7.065 0.041-10.598 0.073-14.788 0.069-27.62-0.964-41.49-6.418-3.146-1.01-6.131-1.394-9.41-1.77-5.561-0.729-8.772-2.316-13.184-5.679-2.454-1.619-4.603-2.281-7.441-3.008-4.985-1.509-6.29-2.796-9.75-6.438-1.279-0.474-2.558-0.948-3.875-1.437-10.969-4.155-21.101-16.591-27.125-26.563-0.681-1.113-1.362-2.227-2.063-3.375-5.881-12.27-5.358-26.81-5.262-40.079 3e-3 -1.895 4e-3 -3.791 4e-3 -5.687 3e-3 -5.096 0.025-10.192 0.049-15.289 0.023-5.35 0.028-10.701 0.034-16.052 0.014-10.115 0.043-20.231 0.078-30.346 0.062-18.143 0.1-36.286 0.132-54.429 0.012-6.362 0.03-12.725 0.053-19.088 0.014-3.949 0.024-7.898 0.033-11.846 5e-3 -1.832 0.012-3.663 0.021-5.495 0.011-2.497 0.016-4.995 0.021-7.493 5e-3 -1.398 9e-3 -2.796 0.014-4.236-0.114-3.585-0.114-3.585-0.734-6.433-0.125-0.71-0.251-1.42-0.38-2.152 3.505-4.351 5.939-5.124 11.364-5.145z" fill="#E16432"/>
<path transform="translate(662.79 416.49)" d="m0 0c1.005-6e-3 2.01-0.012 3.046-0.019 3.378-0.016 6.755-3e-3 10.133 9e-3 2.418-5e-3 4.836-0.012 7.254-0.021 6.574-0.018 13.148-0.011 19.722 2e-3 6.872 0.01 13.743 0 20.615-6e-3 11.54-7e-3 23.081 2e-3 34.621 0.021 13.354 0.022 26.707 0.015 40.061-7e-3 11.453-0.018 22.906-0.021 34.359-0.01 6.846 6e-3 13.691 7e-3 20.537-6e-3 6.435-0.012 12.87-4e-3 19.305 0.019 2.365 6e-3 4.731 4e-3 7.096-5e-3 3.222-0.011 6.443 3e-3 9.665 0.023 0.942-9e-3 1.885-0.018 2.857-0.027 3.86 0.047 6.344 0.104 9.517 2.418 1.736 2.591 1.915 4.067 1.905 7.173 3e-3 0.503 3e-3 0.503 0.018 3.045-7e-3 0.539-7e-3 0.539-0.043 3.27-1e-3 1.115-2e-3 2.229-3e-3 3.377-6e-3 2.356-0.022 4.713-0.047 7.069-0.036 3.603-0.041 7.206-0.04 10.81-0.01 2.29-0.022 4.579-0.035 6.869-3e-3 1.077-5e-3 2.154-7e-3 3.264-0.013 1.008-0.026 2.016-0.039 3.054-7e-3 0.883-0.015 1.766-0.023 2.675-0.319 2.997-0.64 4.945-2.267 7.511-4.909 1.267-9.858 1.108-14.907 1.066-1.552-0.01-3.103-0.02-4.702-0.03-0.82-7e-3 -1.64-0.014-2.485-0.022-2.58-0.022-5.161-0.036-7.742-0.048-7.332-0.033-14.665-0.075-21.997-0.137-4.495-0.038-8.99-0.061-13.485-0.075-1.711-8e-3 -3.423-0.021-5.134-0.041-2.386-0.026-4.772-0.032-7.159-0.038-1.357-9e-3 -2.715-0.019-4.114-0.029-3.275 0.354-3.275 0.354-6.275 3.354-0.361 3.564-0.361 3.564-0.341 8.127 0 0.839-1e-3 1.677-1e-3 2.54 2e-3 2.819 0.026 5.638 0.049 8.457 6e-3 2.017 0.01 4.034 0.013 6.051 0.01 4.349 0.028 8.699 0.054 13.048 0.041 6.879 0.059 13.758 0.073 20.637 0.036 15.85 0.102 31.701 0.168 47.552 0.061 14.512 0.115 29.024 0.145 43.536 0.015 6.837 0.045 13.673 0.085 20.509 0.023 4.258 0.033 8.516 0.039 12.774 6e-3 1.972 0.017 3.944 0.033 5.916 0.022 2.697 0.025 5.394 0.023 8.091 4e-3 0.753 4e-3 0.753 0.021 4.569-0.394 4.573-1.404 8.048-3.361 12.193-2.891 0.975-2.891 0.975-6.459 0.94-1.335 6e-3 -2.67 0.012-4.045 0.018-0.722-0.018-0.722-0.018-4.375-0.107-1.478-6e-3 -2.956-0.013-4.479-0.019-3.128-0.021-6.257-0.061-9.384-0.119-4.805-0.088-9.607-0.123-14.413-0.147-3.033-0.027-6.066-0.056-9.099-0.09-1.446-0.014-2.892-0.029-4.381-0.044-1.332-0.026-2.663-0.052-4.035-0.078-0.589-0.01-0.589-0.01-3.566-0.06-2.764-0.294-2.764-0.294-4.764-2.294-0.965-5.582-1.117-11.032-1.094-16.687 2e-3 -0.837 4e-3 -1.675 6e-3 -2.538 8e-3 -2.788 0.023-5.575 0.038-8.362 7e-3 -2.006 0.013-4.013 0.019-6.019 0.013-4.309 0.029-8.619 0.047-12.928 0.028-6.811 0.045-13.621 0.06-20.432 5e-3 -2.333 0.01-4.666 0.015-7 3e-3 -1.168 5e-3 -2.336 8e-3 -3.539 0.036-15.85 0.082-31.7 0.148-47.55 0.044-10.702 0.074-21.404 0.088-32.105 9e-3 -5.663 0.024-11.325 0.057-16.987 0.031-5.318 0.044-10.636 0.042-15.954 3e-3 -1.955 0.012-3.91 0.029-5.865 0.022-2.661 0.02-5.321 0.011-7.983 5e-3 -1.491 0.01-2.982 0.015-4.518-0.161-1.166-0.323-2.332-0.489-3.533-4.698-3.524-6.188-3.356-11.918-3.293-1.629 0.01-3.257 0.02-4.935 0.03-0.869 0.012-1.738 0.025-2.634 0.037-2.723 0.039-5.446 0.058-8.17 0.073-5.781 0.034-11.562 0.092-17.343 0.153-6.699 0.071-13.398 0.132-20.098 0.168-2.683 0.019-5.366 0.057-8.049 0.095-1.629 0.01-3.257 0.02-4.935 0.03-1.436 0.016-2.872 0.031-4.351 0.048-3.567-0.341-3.567-0.341-7.567-3.341-0.546-2.384-0.546-2.384-0.61-5.234-0.032-1.068-0.065-2.136-0.098-3.237-0.014-1.153-0.028-2.306-0.042-3.494-0.026-1.185-0.052-2.37-0.079-3.59-0.05-2.508-0.089-5.015-0.12-7.523-0.051-3.842-0.145-7.681-0.243-11.522-0.043-2.434-0.083-4.868-0.121-7.302-0.03-1.152-0.06-2.303-0.091-3.489-7e-3 -1.071-0.014-2.142-0.022-3.246-0.015-0.941-0.029-1.882-0.044-2.852 1.421-7.594 7.851-7.08 14.263-7.019z" fill="#E16432"/>
<path transform="translate(279.19 579.26)" d="m0 0c0.631 2e-3 0.631 2e-3 3.822 0.013 1.431-9e-3 2.863-0.019 4.338-0.028 0.772 0.011 0.772 0.011 4.681 0.065 1.585 2e-3 3.171 3e-3 4.804 4e-3 3.354 0.01 6.706 0.03 10.059 0.07 4.3 0.051 8.599 0.063 12.9 0.06 4.1 1e-3 8.2 0.028 12.299 0.054 0.774 1e-3 0.774 1e-3 4.688 0.01 1.428 0.019 2.857 0.038 4.328 0.058 0.63 6e-3 0.63 6e-3 3.82 0.035 3.067 0.401 3.067 0.401 6.067 3.401 4.528 6.669 7.437 12.906 9.261 20.73 1.056 3.245 2.944 4.43 5.739 6.27 1.333 2 2.666 4 4 6 1.629 1.378 3.297 2.712 5 4 0.804 0.825 1.609 1.65 2.437 2.5 2.666 2.601 5.45 4.47 8.563 6.5l3 3c2.334 0.694 4.672 1.386 7.039 1.961 2.961 1.039 2.961 1.039 6.851 3.523 6.341 3.605 13.082 3.841 20.235 4.391 1.42 0.119 2.841 0.239 4.304 0.362 10.999 0.837 21.741 0.886 32.728-9e-3 3.101-0.249 6.203-0.449 9.308-0.646 2.157-0.15 4.315-0.303 6.472-0.457 0.495-0.033 0.495-0.033 2.998-0.2 7.072-0.572 12.849-2.349 19.252-5.488 3.569-1.345 6.37-1.81 10.125-2.25 5.823-0.779 9.461-2.558 14.278-5.808 2.619-1.499 4.691-1.986 7.66-2.442 5.25-1.036 6.782-2.549 10.75-5.937 2.375-0.817 2.375-0.817 5-1.5 4.72-1.24 7.3-3.283 11-6.5 1.279-0.454 2.557-0.908 3.875-1.375 4.398-1.733 6.827-3.746 10.238-6.903 2.465-2.25 4.972-4.096 7.887-5.722 0.99 0.33 1.98 0.66 3 1-0.504 4.573-2.228 6.914-5.188 10.375-0.407 0.479-0.407 0.479-2.468 2.902-0.774 0.899-1.547 1.797-2.344 2.723-0.567 0.702-1.135 1.405-1.719 2.129-3.07 3.78-6.243 6.209-10.281 8.871l-2 4c-2.63 1.724-5.3 3.388-8 5-0.866 0.701-1.733 1.402-2.625 2.125-2.375 1.875-2.375 1.875-5.313 3.312-3.062 1.563-3.062 1.563-6.062 4.063-2.912 2.426-5.617 3.844-9 5.5-0.371 0.33-0.371 0.33-2.25 2-2.738 1.991-4.472 2.586-7.688 3.437-3.551 0.957-4.985 1.494-7.812 4-4.311 3.399-8.621 4.227-13.91 5.473-3.555 1.16-5.534 2.672-8.34 5.09-3.174 1.142-6.244 1.886-9.578 2.386-4.896 0.746-8.071 1.396-12.36 4.051-5.366 3.311-11.322 3.635-17.443 4.398-5.059 0.668-9.335 1.631-14.057 3.665-8.141 3.218-16.533 3.577-25.174 4.331-9.391 0.856-18.463 2.35-27.653 4.456-14.503 3.223-29.359 2.864-44.141 2.846-1.939 0-3.877 1e-3 -5.815 2e-3 -4.037 2e-3 -8.074 0-12.112-5e-3 -5.133-6e-3 -10.267-2e-3 -15.4 4e-3 -3.995 3e-3 -7.989 2e-3 -11.984 0-1.891-1e-3 -3.782 0-5.673 2e-3 -28.228 0.027-28.228 0.027-40.485-2.511-1.336-0.265-2.671-0.529-4.047-0.801-1.346-0.272-2.692-0.544-4.078-0.824-9.424-1.861-18.681-3.179-28.25-3.875-7.484-0.566-13.46-1.795-20.352-4.907-4.387-1.573-8.798-2.095-13.398-2.656-7.441-0.925-13.405-2.742-20.051-6.222-3.125-1.42-5.742-1.923-9.137-2.34-5.417-0.689-8.742-2.555-13.234-5.555-2.926-1.64-5.555-2.306-8.828-3.008-5.21-1.125-7.71-2.913-11.75-6.437-2.773-1.116-5.555-2.041-8.414-2.91-2.936-1.237-4.386-2.827-6.586-5.09-1.32-0.475-2.64-0.949-4-1.438-4-1.562-4-1.562-5.875-3.937-2.279-2.815-3.703-3.522-6.938-5-4.219-1.981-7.092-4.205-10.277-7.676-2.312-2.359-4.82-4.339-7.41-6.387-8.266-6.685-17.857-15.989-20.5-26.562l2-1c2.644 1.476 2.644 1.476 5.812 3.625 1.038 0.693 2.076 1.387 3.145 2.101 3.043 2.274 3.043 2.274 5.644 4.949 3.332 3.229 7.031 3.91 11.399 5.325 0.639 0.66 1.279 1.32 1.937 2 2.366 2.293 3.792 2.61 6.938 3.437 3.628 0.965 5.082 1.526 8 4.063 3.916 3.132 7.358 3.721 12.222 4.629 2.903 0.871 2.903 0.871 5.188 2.836 3.719 2.787 7.611 3.286 12.09 4.035 6.31 1.065 11.058 2.81 16.625 6 3.777 0.758 3.777 0.758 7.937 1.125 1.581 0.143 3.161 0.286 4.789 0.433 0.85 0.07 1.7 0.139 2.576 0.211 2.828 0.242 5.648 0.532 8.471 0.828 13.227 1.331 25.985 1.505 39.227 0.403 0.457-0.037 0.457-0.037 2.771-0.221 19.184-1.565 19.184-1.565 24.979-5.779 3.25-2 3.25-2 7.687-2.875 5.357-1.321 7.624-3.335 11.563-7.125 0.515-0.423 0.515-0.423 3.125-2.563 3.623-3.072 6.905-6.225 9.875-9.937 2-2.5 2-2.5 4.562-4.75 2.612-2.947 3.465-5.479 4.563-9.215 1.66-4.811 4.273-9.178 6.875-13.535 0.274-0.515 0.274-0.515 1.661-3.122 2.339-2.878 2.339-2.878 5.533-3.62z" fill="#E16432"/>
<path transform="translate(282.94 417.85)" d="m0 0c1.415-6e-3 2.831-0.013 4.289-0.019 1.529-1e-3 3.058-3e-3 4.634-4e-3 1.573-3e-3 3.147-6e-3 4.768-0.01 3.332-5e-3 6.664-8e-3 9.997-7e-3 4.254 0 8.508-0.014 12.763-0.031 4.074-0.014 8.148-0.013 12.222-0.014 1.521-7e-3 3.042-0.015 4.609-0.022 6.93 0.015 13.111 0.15 19.781 2.252 3.44 0.535 6.859 1.017 10.313 1.438 1.008 0.126 2.016 0.252 3.055 0.383 11.143 1.338 22.331 2.203 33.524 3.001 8.738 0.676 16.515 1.665 24.577 5.288 3.317 1.167 6.653 1.453 10.133 1.828 9.042 0.974 16.347 2.398 24.457 6.722 3.26 1.485 6.017 1.938 9.566 2.34 5.856 0.677 9.741 2.599 14.743 5.617 2.714 1.426 4.933 2.014 7.945 2.508 4.679 0.874 6.993 1.992 10.687 4.875 3 2 3 2 7.813 3.313 4.756 1.354 7.413 3.475 11.187 6.687 1.527 0.495 3.053 0.99 4.625 1.5 4.7 1.612 5.578 2.642 8.375 6.5 1.992 1.018 3.993 2.016 6 3 2.334 2 4.667 4 7 6 0.526 0.258 0.526 0.258 3.188 1.563 3.263 1.667 4.59 3.569 6.812 6.437 0.825 0.475 1.65 0.949 2.5 1.438 3.229 2.018 4.446 4.36 6.5 7.562 1.735 2.077 3.527 4.092 5.329 6.11 1.974 2.232 3.81 4.564 5.671 6.89l3 3-1 4c-2.312-0.187-2.312-0.187-5-1-0.433-0.763-0.866-1.526-1.312-2.312-2.407-3.834-5.661-4.768-9.688-6.688-0.63-0.658-1.26-1.317-1.91-1.996-2.441-2.34-4.377-3.015-7.59-4.004-3.222-0.991-5.119-1.614-7.503-4.031-2.426-2.392-4.132-2.773-7.434-3.469-3.385-0.715-5.279-1.269-7.988-3.472-3.061-2.411-5.553-3.056-9.325-3.965-4.349-1.142-7.964-2.261-11.75-4.688-4.751-2.909-9.467-3.169-14.925-3.777-4.669-0.781-8.597-2.461-12.856-4.477-17.43-7.187-54.668-5.949-72.406-0.746-2.083 1.022-4.149 2.08-6.188 3.188-2.899 1.333-4.954 1.781-8.062 2.25-5.376 0.956-8.054 3.476-12.063 7.187-2.666 1.334-5.333 2.667-8 4-2.687 2.438-2.687 2.438-5 5-0.804 0.743-1.608 1.485-2.437 2.25-2.839 3.047-4.999 6.258-7.23 9.762-1.333 1.988-1.333 1.988-3.333 3.988-0.657 1.815-1.253 3.653-1.812 5.5-1.847 5.699-3.777 11.524-7.188 16.5-4.207 2.104-6.105 2.257-10.708 2.275-1.365 9e-3 -2.73 0.019-4.137 0.029-0.736-1e-3 -0.736-1e-3 -4.463-3e-3 -1.514 4e-3 -3.028 9e-3 -4.588 0.013-3.204 6e-3 -6.407 6e-3 -9.611 2e-3 -4.907-3e-3 -9.814 0.02-14.721 0.046-3.11 2e-3 -6.22 3e-3 -9.33 2e-3 -1.471 9e-3 -2.942 0.018-4.457 0.027-1.369-6e-3 -2.737-0.012-4.146-0.018-1.203 0-2.406 1e-3 -3.645 1e-3 -3.509-0.411-5.386-1.265-8.194-3.374-1.222-2.199-1.222-2.199-2.062-4.687-1.669-4.631-3.705-8.919-5.938-13.313-0.195-0.546-0.195-0.546-1.187-3.312-3.708-7.543-9.303-13.482-15.813-18.688-0.99-1.32-1.98-2.64-3-4-2.339-1.125-2.339-1.125-4.937-2-3.037-1.026-4.775-1.701-7.016-4.031-2.553-2.456-4.41-2.796-7.859-3.469-5.024-1.114-8.795-2.755-13.188-5.5-22.302-5.575-58.081-4.925-79.05 3.996-4.94 1.682-10.065 2.337-15.215 3.098-4.041 0.981-6.325 2.589-9.735 4.906-3.786 1.154-7.581 2.005-11.441 2.875-3.724 1.178-5.592 2.664-8.559 5.125-2.902 1.09-2.902 1.09-5.937 1.938-5.064 1.57-8.073 3.526-12.063 7.062-1.299 0.475-2.598 0.949-3.937 1.438-4.633 1.782-7.373 4.291-11.063 7.562-1.661 0.68-3.327 1.35-5 2-0.99 1.32-1.98 2.64-3 4l-4-2c1.143-3.427 2.474-4.474 5-7 0.64-0.969 1.279-1.938 1.938-2.937 2.097-3.114 4.381-5.447 7.062-8.063 0.764-0.948 1.527-1.897 2.313-2.875 5.122-5.955 10.962-10.519 17.609-14.668 2.078-1.457 2.078-1.457 4.032-3.441 2.199-2.166 4.371-3.549 7.046-5.078 3.215-1.848 6.01-3.695 9-5.938 0.784-0.288 1.568-0.577 2.375-0.875 2.625-1.125 2.625-1.125 5.25-3.562 3.914-2.971 7.121-3.693 11.825-4.813 3.184-0.936 5.117-2.531 7.55-4.75 3.133-1.566 5.833-2.157 9.313-2.812 4.337-1.099 6.6-2.493 10.203-4.965 4.543-2.236 9.595-2.609 14.555-3.41 3.53-0.73 5.977-1.627 9.117-3.313 5.893-2.986 12.095-3.61 18.587-4.248 5.44-0.603 10.142-1.863 15.292-3.744 8.489-2.951 16.695-3.605 25.621-4.133 3.175-0.224 6.349-0.453 9.523-0.687 1.512-0.111 3.024-0.222 4.581-0.336 8.146-0.681 16.156-1.975 24.208-3.352 0.621-0.086 0.621-0.086 3.762-0.523 10.954-1.612 10.954-1.612 14.175-1.622z" fill="#E16432"/>
<path transform="translate(2399,425)" d="m0 0 1 2c-3 3-3 3-7.375 5.25-6.152 3.356-8.742 7.65-11.437 14.062-2.364 9.328-1.64 16.266 2.812 24.688 4.505 6.632 11.136 11.235 19 13 8.24 0.969 12.481-1.505 19-6 0.857-0.549 1.714-1.098 2.598-1.664 6.242-4.017 6.242-4.017 7.402-6.336 0.457-3.353 0.764-6.628 1-10 0.063-0.632 0.063-0.632 0.379-3.832 0.444-7.402 0.31-12.408-4.317-18.418-4.274-4.525-8.295-6.587-14.062-8.75l-1-3c2-2 2-2 6.125-2.062 7.889 1.719 11.846 6.304 16.313 12.812 3.863 6.407 3.806 11.096 3.874 18.375 0.015 0.504 0.015 0.504 0.088 3.055 0.084 9.89-2.798 16.914-9.63 24.164-6.397 5.987-15.438 6.689-23.86 6.625-17.671-0.916-17.671-0.916-23.16-6.907-0.645-0.689-1.289-1.379-1.953-2.089-0.593-0.651-1.186-1.302-1.797-1.973l-3-3c-1.355-2.929-2.584-5.811-3.75-8.812-0.329-0.795-0.657-1.59-0.996-2.409-3.243-8.272-1.483-12.837 1.871-20.779 2.863-6.42 5.106-10.081 10.875-14 0.722-0.763 1.444-1.526 2.188-2.312 3.623-3.374 7.34-2.781 11.812-1.688z" fill="#E16432"/>
<path transform="translate(2397,441)" d="m0 0c1.938 1.312 1.938 1.312 4 4 0.664 3.693 0.821 7.237 1 11l12-1c-0.041-1.238-0.082-2.475-0.125-3.75 0.125-4.25 0.125-4.25 2.125-8.25l4-1c0.99 1.32 1.98 2.64 3 4-0.906 4.934-1.844 5.883-6 9h-2c0.155 0.794 0.155 0.794 0.938 4.812 0.174 0.894 0.348 1.787 0.527 2.708 0.535 2.48 0.535 2.48 1.535 5.48l-3 2c-4.465-3.3-6.729-5.533-8-11h-6l-1 5c-1.98-0.33-3.96-0.66-6-1-0.081-3.292-0.14-6.582-0.188-9.875-0.025-0.937-0.05-1.874-0.076-2.84-0.026-2.43 0.109-4.86 0.264-7.285l3-2z" fill="#E16432"/>
</svg>
