<?xml version="1.0" encoding="UTF-8"?>
<svg version="1.1" viewBox="0 0 2744 1144" xmlns="http://www.w3.org/2000/svg">
<path transform="translate(1045,3)" d="m0 0c4.625-0.188 4.625-0.188 9 0 0.833 3.331 1.127 5.644 1.133 9.003 2e-3 0.507 2e-3 0.507 0.013 3.074 0 1.112-1e-3 2.225-1e-3 3.371 3e-3 1.183 7e-3 2.366 0.01 3.585 0.011 3.981 0.015 7.962 0.019 11.944 6e-3 2.848 0.013 5.696 0.02 8.544 0.015 6.142 0.026 12.285 0.036 18.427 0.015 9.716 0.039 19.431 0.065 29.146 0.035 13.626 0.068 27.252 0.098 40.877 2e-3 0.865 4e-3 1.73 6e-3 2.621 0.026 12.26 0.05 24.52 0.073 36.78 2e-3 0.863 3e-3 1.725 5e-3 2.614 1e-3 0.431 1e-3 0.431 5e-3 2.61 0.026 14.383 0.061 28.766 0.101 43.149 0.027 9.654 0.045 19.308 0.056 28.962 0.01 6.016 0.027 12.031 0.047 18.046 7e-3 2.785 0.011 5.569 0.012 8.354 1e-3 3.81 0.014 7.62 0.03 11.429-2e-3 1.095-5e-3 2.19-8e-3 3.317 0.065 9.776 0.891 18.757 5.28 27.6 1.302 3.316 1.828 6.603 2.438 10.109 1.135 6.194 2.939 10.225 6.562 15.438 0.728 1.692 1.414 3.402 2.062 5.125 1.537 4.054 3.492 7.283 5.938 10.875 0.639 1.485 1.279 2.97 1.938 4.5 1.959 4.276 4.046 6.957 7.062 10.5 0.639 1.32 1.279 2.64 1.938 4 2.259 4.381 4.122 7.026 8.062 10 11.676 1.695 24.223-2.726 35.375-5.938 9.334-2.68 18.64-4.349 28.267-5.593 5.56-0.749 10.752-1.814 16.12-3.461 7.77-2.321 15.501-3.196 23.55-4.008 8.3-0.844 16.276-1.81 24.34-3.988 12.951-3.208 26.325-3.437 39.598-4.2 4.043-0.244 8.086-0.492 12.128-0.744 2.499-0.154 4.997-0.303 7.496-0.447 1.126-0.068 2.252-0.135 3.412-0.204 0.986-0.057 1.972-0.113 2.987-0.172 2.64-0.237 5.136-0.697 7.727-1.245 22.875-2.643 45.805-3.289 68.812-3.25 0.582 0 0.582 0 3.528 3e-3 12.572 0.024 25.094 0.245 37.643 1.037 2.754 0.144 5.513 0.201 8.27 0.184 3.725 0.026 7 0.697 10.627 1.483 7.257 1.264 14.654 1.577 21.995 2.105 1.767 0.133 3.535 0.266 5.302 0.399 8.666 0.644 17.326 1.199 26.011 1.539 11.61 0.51 23.189 1.942 34.414 5.016 8.647 2.221 17.498 2.55 26.378 3.125 8.222 0.646 15.012 2.217 22.684 5.209 5.223 1.801 10.42 2.212 15.898 2.65 8.023 0.791 14.723 1.943 22.114 5.301 5.326 1.921 10.836 2.516 16.437 3.211 4.272 0.538 7.955 1.232 11.887 2.988 3.938 0.688 3.938 0.688 8 0 2.519-2.709 4.19-5.792 6-9 0.681-0.846 1.361-1.691 2.062-2.562 2.623-3.3 4.746-6.842 6.938-10.438 0.258-0.402 0.258-0.402 1.562-2.438 1.702-3.033 3.029-6.194 4.403-9.386 1.035-2.176 1.035-2.176 3.035-4.926 2.555-4.152 3.656-8.365 4.996-13.031 1.004-3.219 1.004-3.219 3.066-7.531 2.533-5.333 3.221-11.03 4.129-16.821 0.824-3.94 2.207-7.188 3.809-10.867 1.34-5.745 1.147-11.54 1.145-17.405 3e-3 -1.154 7e-3 -2.309 0.01-3.498 0.011-3.871 0.015-7.743 0.019-11.614 6e-3 -2.774 0.013-5.549 0.02-8.323 0.015-5.977 0.026-11.953 0.036-17.93 0.015-9.45 0.039-18.9 0.065-28.35 0.035-13.25 0.068-26.499 0.098-39.749 2e-3 -0.84 4e-3 -1.681 6e-3 -2.547 0.026-11.927 0.05-23.853 0.073-35.78 2e-3 -0.839 3e-3 -1.679 5e-3 -2.544 1e-3 -0.839 3e-3 -1.677 5e-3 -2.541 0.026-13.994 0.061-27.987 0.101-41.98 0.027-9.394 0.045-18.788 0.056-28.182 0.01-5.846 0.027-11.691 0.047-17.537 7e-3 -2.71 0.011-5.42 0.012-8.131 1e-3 -3.701 0.014-7.402 0.03-11.103-2e-3 -1.071-5e-3 -2.142-8e-3 -3.245 0.042-6.15 0.725-11.586 2.28-17.541 4.188-0.25 4.188-0.25 9 0 0.67 0.636 1.341 1.271 2.031 1.926 4.673 3.265 9.703 3.068 15.281 3.512 9.13 0.875 17.292 2.31 25.977 5.378 4.041 1.289 7.959 1.977 12.149 2.622 7.576 1.215 14.372 3.46 21.542 6.148 4.699 1.653 9.389 2.684 14.254 3.703 2.766 0.711 2.766 0.711 6.578 2.711 4.2 2.006 7.498 2.683 12.063 3.438 5.904 1.002 10.381 2.378 15.559 5.304 3.172 1.555 6.343 2.41 9.754 3.32 3.867 1.034 6.775 1.916 10.25 3.938 3.68 2.066 6.792 2.923 10.874 3.938 5.606 1.402 10.357 3.15 15.415 5.906 2.309 1.174 4.548 1.962 7.023 2.718 4.25 1.438 4.25 1.438 7.039 3.403 4.635 2.938 9.444 3.724 14.75 4.91 3.691 1.2 4.855 2.385 7.461 5.125 2.734 1.09 2.734 1.09 5.75 1.938 5.377 1.658 9.488 4.039 14.25 7.062 2.774 1.101 5.575 2.067 8.398 3.031 3.434 1.279 6.445 3.122 9.602 4.969 0.691 0.248 0.691 0.248 4.188 1.5 3.812 1.5 3.812 1.5 5.718 3.453 2.381 2.328 4.298 3.145 7.406 4.297 18.126 7.187 18.126 7.187 24.688 13.75 2.27 0.773 2.27 0.773 4.812 1.375 4.775 1.327 7.499 3.257 11.188 6.625 6.189 4.028 12.479 7.778 19.125 11 3.875 2 3.875 2 6.437 4.062 2.928 2.328 6.008 3.487 9.438 4.938 4.763 9.526 0.138 26.925-2 37-0.501 1.488-1.003 2.975-1.52 4.508-1.488 4.516-2.222 8.724-2.855 13.43-0.987 6.328-2.257 11.143-5.441 16.652-1.421 2.893-1.991 5.627-2.622 8.785-1.21 5.873-3.326 10.631-6.148 15.898-1.414 2.727-1.414 2.727-3.039 7.165-1.375 3.562-1.375 3.562-3.313 5.874-2.119 2.763-2.948 4.916-4.062 8.188-1.461 4.259-2.979 7.113-6 10.5-1.693 2.654-3.356 5.316-5 8-5.514 8.983-11.547 17.466-18.156 25.68-1.844 2.32-1.844 2.32-3.656 5.07-4.447 6.607-8.88 12.313-15.188 17.25-2.687 2.556-5.097 5.12-7.438 8-2.63 3.079-5.425 5.451-8.562 8-2.687 2.556-5.097 5.12-7.438 8-2.63 3.079-5.425 5.451-8.562 8-0.887 0.908-1.774 1.815-2.688 2.75-2.312 2.25-2.312 2.25-5.312 3.25l-2 4c-2.215 1.57-2.215 1.57-4.938 3.125-5.481 3.326-9.903 7.262-14.554 11.648-2.933 2.604-6.066 4.368-9.508 6.227-0.804 0.825-1.609 1.65-2.438 2.5-2.562 2.5-2.562 2.5-6.187 4.25-4.888 2.514-8.683 5.591-12.859 9.129-3.113 2.624-5.92 4.876-9.704 6.433-6.136 2.717-11.289 6.303-16.25 10.813-3.714 2.998-6.867 4.339-11.289 5.945-2.273 0.93-2.273 0.93-4.773 2.93-3.131 2.505-6.349 3.591-10.078 4.992-2.422 1.008-2.422 1.008-5.61 3.133-3.182 2.122-6.112 2.987-9.812 3.875-0.062 3.687-0.062 3.687 1 8 3.038 2.042 5.72 3.47 9 5 2.096 1.166 4.179 2.354 6.25 3.562 0.975 0.559 1.949 1.117 2.953 1.692 2.797 1.746 2.797 1.746 5.422 3.875 2.375 1.871 2.375 1.871 6.125 3.246 4.995 1.91 8.906 4.561 13.25 7.625 0.969 0.639 1.939 1.279 2.938 1.938 2.635 1.774 5.223 3.597 7.812 5.437 3.384 2.383 6.805 4.595 10.375 6.687 4.538 2.675 8.705 5.728 12.875 8.938 1.869 1.404 3.744 2.799 5.625 4.188 0.879 0.653 1.758 1.307 2.664 1.98 2.711 1.832 2.711 1.832 5.922 3.418 3.267 1.656 4.555 3.551 6.789 6.414 1.985 1.356 3.989 2.684 6 4 7.328 5.641 14.096 11.823 20.848 18.133 3.567 3.245 7.279 6.232 11.078 9.199 2.549 2.05 4.793 4.326 7.074 6.668 1.134 0.928 2.269 1.856 3.438 2.812 3.132 2.804 5.466 5.581 7.902 8.985 3.254 4.318 7.013 8.217 10.66 12.203 4.559 4.983 8.572 10.08 12.324 15.703 1.716 2.352 3.598 4.264 5.676 6.297 3.265 4.098 6.131 8.082 8.625 12.688 2.375 4.312 2.375 4.312 4.375 6.75 2.485 3.184 4.032 6.591 5.781 10.218 1.219 2.344 1.219 2.344 3.219 4.844 2.509 3.136 4.101 6.477 5.836 10.086 0.894 1.854 1.858 3.674 2.852 5.476 1.312 2.938 1.312 2.938 2.187 7.313 1.043 4.289 2.385 6.566 4.832 10.125 2.357 4.557 3.155 9.606 4.203 14.598 1.09 3.902 1.09 3.902 3.086 7.152 2.726 5.101 3.253 10.002 4.004 15.688 1.05 7.3 2.2 14.382 4.188 21.5 2.2 8.3 3.525 16.97 2.812 25.562-4.37 5.709-11.586 8.944-17.691 12.555-2.309 1.445-2.309 1.445-4.809 3.57-3.163 2.372-6.468 3.485-10.148 4.875-2.894 1.23-4.955 2.982-7.352 5-2.667 1.333-5.333 2.667-8 4-0.784 0.66-1.568 1.32-2.375 2-3.207 2.443-6.464 3.586-10.215 5-2.41 1-2.41 1-5.41 3-3.408 2.272-6.815 3.548-10.625 5-2.375 1-2.375 1-5.375 3-3.408 2.272-6.815 3.548-10.625 5-2.375 1-2.375 1-5.375 3-3.408 2.272-6.815 3.548-10.625 5-2.375 1-2.375 1-5.375 3-3.41 2.273-6.816 3.552-10.633 4.996-2.367 1.004-2.367 1.004-5.242 3.066-3.144 1.95-5.303 2.536-8.875 3.313-5.354 1.207-9.128 3.186-13.695 6.148-3.651 2.11-7.458 3.24-11.473 4.477-4.197 1.362-8.198 3.103-12.25 4.84-2.588 1.06-5.165 1.951-7.832 2.785-4 1.375-4 1.375-8 4.375-2.377 0.548-4.778 0.997-7.188 1.375-4.612 0.84-8.35 1.595-12.312 4.125-3.891 2.476-7.465 3.208-12 4-5.438 0.952-9.159 2.246-13.859 5.242-5.085 2.422-10.734 3.139-16.239 4.168-4.402 1.09-4.402 1.09-8.343 3.086-4.567 2.255-8.962 3.182-13.934 4.004-5.263 0.879-10.068 1.87-14.98 4-5.722 2.417-11.456 3.195-17.583 4-7.427 0.98-14.136 2.294-21.109 5.098-4.49 1.651-8.814 2.101-13.578 2.214-1.034 0.038-2.068 0.075-3.133 0.114-2.742-0.426-2.742-0.426-5.742-4.426-0.281-3.562-0.383-6.946-0.347-10.507-1e-3 -1.083-3e-3 -2.165-4e-3 -3.28 0-3.64 0.021-7.28 0.042-10.92 4e-3 -2.605 7e-3 -5.21 9e-3 -7.815 6e-3 -5.621 0.021-11.241 0.044-16.861 0.036-8.903 0.05-17.806 0.061-26.71 0.024-17.32 0.07-34.639 0.119-51.959 0.061-21.98 0.111-43.96 0.142-65.94 0.013-8.832 0.037-17.663 0.07-26.495 0.018-5.528 0.028-11.055 0.035-16.582 6e-3 -2.542 0.014-5.084 0.027-7.626 0.058-11.87-0.035-23.656-1.084-35.487-0.078-0.878-0.156-1.755-0.236-2.659-0.655-6.516-2.078-12.624-3.96-18.882-0.84-2.997-1.269-5.755-1.606-8.839-0.938-6.295-3.296-11.954-5.687-17.813-0.194-0.476-0.194-0.476-1.175-2.885-2.086-4.965-4.367-9.3-7.45-13.74-1.055-2.422-1.055-2.422-1.875-4.75-3.334-8.674-8.507-15.922-14.125-23.25-0.579-1.054-1.158-2.109-1.754-3.195-2.246-2.805-2.246-2.805-5.391-3.532-10.304 0.286-19.39 2.281-29.161 5.483-6.873 2.183-13.601 3.178-20.751 3.973-4.695 0.59-8.781 1.492-13.185 3.248-6.668 2.57-13.377 3.208-20.446 3.961-9.603 1.113-18.961 2.487-28.374 4.687-10.062 2.301-19.924 3.048-30.217 3.565-10.903 0.605-21.536 2.147-32.285 4.046-17.512 3.015-35.275 2.996-52.998 3.326-1.087 0.021-2.174 0.042-3.294 0.064-21.383 0.404-42.757 0.592-64.144 0.374-0.436-4e-3 -0.436-4e-3 -2.642-0.026-54.544-0.571-54.544-0.571-79.124-5.482-10.26-1.998-20.574-2.597-30.988-3.308-10.583-0.788-20.704-2.191-30.875-5.289-5.034-1.336-10.135-1.691-15.309-2.207-8.737-0.946-16.459-2.557-24.765-5.5-5.64-1.559-11.236-2.105-17.047-2.688-7.982-0.804-14.75-1.867-22.039-5.426-3.097-1.504-5.783-1.89-9.211-2.074-0.481-0.037-0.481-0.037-2.914-0.223-8.18-0.388-8.18-0.388-11.961 2.161-2.281 3.287-4.553 6.573-6.715 9.941-1.41 2.121-1.41 2.121-3.535 4.559-2.319 3.169-3.435 6.435-4.813 10.093-1.062 2.469-1.062 2.469-3.5 5.844-2.863 4.051-4.55 8.061-6.351 12.66-1.211 2.965-1.211 2.965-2.734 5.875-1.647 3.445-2.56 6.761-3.477 10.465-1.371 5.369-3.054 10.436-5 15.625-0.91 5.095-1.133 10.014-1.151 15.184-9e-3 1.641-0.017 3.282-0.026 4.973l-0.012 5.427c-8e-3 1.917-0.017 3.834-0.026 5.752-0.018 4.14-0.033 8.28-0.045 12.42-0.021 6.649-0.048 13.299-0.077 19.948-0.055 13.048-0.103 26.097-0.15 39.145-0.038 10.489-0.078 20.977-0.118 31.465-5e-3 1.144-9e-3 2.287-0.014 3.464-0.075 19.408-0.17 38.815-0.278 58.223-0.067 12.213-0.119 24.426-0.151 36.639-0.023 8.395-0.064 16.791-0.119 25.187-0.032 4.87-0.055 9.741-0.057 14.611-2e-3 5.291-0.042 10.58-0.087 15.871 3e-3 0.78 3e-3 0.78 0.017 4.731-0.018 1.412-0.036 2.825-0.055 4.28-5e-3 1.226-0.01 2.452-0.015 3.716-0.636 2.964-0.636 2.964-2.883 4.895-4.339 1.685-8.413 0.75-12.878 7e-3 -0.946-0.146-1.893-0.292-2.868-0.442-5.778-0.948-10.975-2.343-16.386-4.605-3.157-1.073-6.116-1.372-9.433-1.703-7.777-0.865-14.743-3.165-22.114-5.656-6.401-2.121-12.48-3.291-19.195-4.012-3.733-0.674-6.193-2.279-9.348-4.297-4.576-2.211-9.634-2.597-14.613-3.411-4.484-0.929-8.011-2.565-12.063-4.624-3.495-1.454-6.877-2.045-10.605-2.688-6.088-1.077-9.244-2.859-14.25-6.5-3.509-0.889-7.032-1.529-10.59-2.191-3.896-0.924-6.576-2.448-9.926-4.551-4.38-2.218-9.166-3.094-13.933-4.168-3.787-1.163-6.307-2.855-9.551-5.09-2.859-1.09-2.859-1.09-5.75-1.938-4.939-1.552-9.36-3.498-13.934-5.906-2.316-1.156-2.316-1.156-6.628-2.718-3.688-1.438-3.688-1.438-5.926-3.372-3.413-2.553-6.541-3.42-10.637-4.566-5.599-1.572-10.133-3.524-15.125-6.5-0.681-0.247-0.681-0.247-4.125-1.5-3.875-1.5-3.875-1.5-6.187-3.438-2.74-2.102-4.819-2.905-8.063-4-4.896-1.667-8.471-3.947-12.625-7.062-2.331-1.005-4.664-2.005-7-3-0.763-0.639-1.526-1.279-2.312-1.938-2.624-2.013-4.681-2.918-7.75-4.062-4.708-1.763-4.708-1.763-6.938-4.062-2.321-2.249-3.784-2.559-6.875-3.376-4.766-1.289-7.447-3.204-11.125-6.562-2.648-1.696-5.315-3.364-8-5-0.969-0.681-1.939-1.361-2.938-2.062-3.062-1.938-3.062-1.938-7.437-3.688-5.33-2.406-9.956-4.842-12.625-10.25-0.099-4.32 0.477-8.225 1.219-12.48 0.747-4.326 1.05-8.451 1.219-12.832 0.465-8.266 1.987-15.749 5.062-23.438 1.447-4.099 2.163-7.846 2.875-12.125 1.043-5.908 2.461-10.523 5.383-15.727 1.36-2.627 2.197-5.193 3.054-8.023 2.519-7.889 6.356-15.056 10.188-22.375 0.781-1.507 1.563-3.013 2.344-4.52 8.449-16.178 18.46-30.983 29.461-45.527 2.004-2.696 3.923-5.43 5.82-8.203 4.753-6.839 9.875-12.522 16.375-17.75 2.687-2.556 5.097-5.12 7.438-8 2.63-3.079 5.425-5.451 8.562-8 2.687-2.556 5.097-5.12 7.438-8 2.627-3.076 5.421-5.461 8.562-8 0.625-0.632 1.25-1.263 1.895-1.914 2.14-2.121 4.364-3.971 6.73-5.836 0.877-0.694 1.753-1.387 2.656-2.102 0.449-0.354 0.449-0.354 2.719-2.148 1.709-1.374 3.417-2.749 5.125-4.125 17.357-13.875 17.357-13.875 20.875-13.875l2-4c1.883-1.527 1.883-1.527 4.125-2.938 0.403-0.257 0.403-0.257 2.445-1.562 2.139-1.32 4.284-2.63 6.43-3.938 3.055-1.956 5.755-3.921 8.562-6.187 3.629-2.891 7.122-4.632 11.438-6.375 1.671-1.328 3.337-2.662 5-4 2.667-1.333 5.333-2.667 8-4 0.784-0.639 1.567-1.279 2.375-1.938 3.206-2.518 6.613-4.074 10.273-5.839 2.754-1.432 4.952-3.265 7.352-5.223 2.658-1.351 5.325-2.683 8-4 4.438-2.25 4.438-2.25 8-5 1-4.312 1-4.312 1-8-1.526-0.392-3.053-0.784-4.625-1.188-4.801-1.422-7.585-3.517-11.375-6.812-2.658-1.022-5.325-2.023-8-3-0.784-0.639-1.567-1.279-2.375-1.938-2.575-2.023-4.524-2.876-7.563-4-4.479-1.682-7.433-3.917-11.062-7.062-1.196-0.495-2.393-0.99-3.625-1.5-3.375-1.5-3.375-1.5-5.25-3.938-3.043-3.669-6.784-4.718-11.125-6.562-1.693-1.299-3.364-2.629-5-4-0.505-0.237-0.505-0.237-3.062-1.438-2.938-1.562-2.938-1.562-4.813-4-2.847-3.433-6.135-4.628-10.125-6.562-2.041-1.616-4.041-3.286-6-5-3.648-2.847-7.341-5.581-11.25-8.062-2.885-2.033-4.568-4.192-6.75-6.938-1.655-1.019-3.323-2.018-5-3-1.668-1.665-3.335-3.332-5-5-1.656-1.366-3.33-2.711-5.02-4.035-6.647-5.386-12.645-11.336-18.668-17.403-1.075-1.067-2.151-2.135-3.259-3.236-5.471-5.484-10.647-11.015-15.37-17.159-1.736-2.235-3.559-4.359-5.433-6.479-1.857-2.108-3.689-4.24-5.438-6.438-1.812-2.25-1.812-2.25-3.812-4.062-2.201-2.407-3.29-4.903-4.664-7.833-2.26-3.984-5.262-7.354-8.215-10.839-3.021-3.583-5.494-7.047-7.496-11.266-2.945-6.013-6.497-11.543-10.187-17.125-2.303-3.896-3.886-7.616-5.469-11.828-0.969-2.297-0.969-2.297-3.031-5.172-2.36-3.806-3.047-7.322-4.028-11.66-1.021-3.889-2.389-7.531-3.848-11.277-2.933-7.627-5.086-15.269-7.062-23.188-0.351-1.24-0.701-2.48-1.062-3.758-3.03-11.025-4.184-21.876-4.938-33.242-0.048-0.632-0.048-0.632-0.293-3.828-0.331-7.256-0.331-7.256 2.293-11.11 6.298-4.329 12.696-8.034 19.484-11.535 2.516-1.527 2.516-1.527 4.536-3.586 2.228-2.184 3.987-2.93 6.918-3.941 3.02-1.126 5.024-1.97 7.562-4 2.52-2.016 4.504-2.872 7.5-4 4.002-1.509 6.685-3.28 10-6 2.216-0.995 4.433-1.988 6.672-2.93 2.328-1.07 2.328-1.07 6.39-3.632 3.938-2.438 3.938-2.438 8.126-4 3.812-1.438 3.812-1.438 6.148-3.372 2.952-2.289 5.584-3.34 9.102-4.566 4.704-1.721 8.421-3.676 12.562-6.5 3-1 6-2 9-3 0.485-0.33 0.485-0.33 2.938-2 2.877-1.879 4.801-2.577 8.062-3.438 3.576-0.969 4.957-1.524 7.812-4.062 3.428-2.688 5.244-3.11 9.438-3.938 5.624-1.119 9.396-2.94 14.133-6.078 4.017-2.278 8.289-3.354 12.734-4.527 2.883-0.957 2.883-0.957 6.883-3.957 2.953-0.773 2.953-0.773 6.25-1.375 4.317-0.913 6.786-1.648 10.562-4.063 5.221-3.194 10.23-4.171 16.157-5.527 4.642-1.192 8.794-2.936 13.16-4.879 3.94-1.587 7.956-2.467 12.09-3.41 3.248-0.871 6.094-2.324 9.113-3.781 3.624-1.311 7.239-1.808 11.043-2.403 5.053-0.804 9.289-1.603 13.813-4 6.188-3.175 12.771-4.015 19.582-5.042 4.768-0.751 9.024-1.737 13.511-3.536 6.6-2.535 13.217-3.073 20.219-3.672 2.49-0.23 4.979-0.463 7.469-0.699 1.087-0.095 2.174-0.19 3.295-0.288 2.736-0.325 2.736-0.325 5.736-1.325l2-3zm249.4 384.99c-5.927 1.357-11.888 2.156-17.922 2.881-7.615 0.967-14.536 3.103-21.792 5.627-3.818 1.222-7.465 2.117-11.376 2.938-3.753 0.825-6.053 1.386-9.25 3.562-3.448 2.252-5.97 2.688-10 3.438-5.938 1.135-9.189 2.952-14.062 6.562-1.92 0.546-3.861 1.019-5.812 1.438-5.361 1.177-9.286 3.099-13.864 6.078-2.324 1.484-2.324 1.484-6.762 3.672-3.562 1.812-3.562 1.812-6.562 4.812-2.667 1.333-5.333 2.667-8 4-0.423 0.34-0.423 0.34-2.562 2.062-2.438 1.938-2.438 1.938-6.25 3.188-1.052 0.577-2.104 1.155-3.188 1.75-1 3.688-1 3.688 0 8 4.459 5.641 10.34 9.038 16.836 11.895 2.164 1.105 2.164 1.105 5.164 4.105 2.995 1.108 6.021 1.961 9.09 2.84 3.183 1.269 4.52 2.77 6.91 5.16 2.875 1.125 2.875 1.125 6 2 5.571 1.56 5.571 1.56 7.949 4 2.736 2.668 5.174 3.105 8.863 4 4.009 0.979 7.08 1.936 10.653 4.035 3.879 2.156 6.912 2.776 11.285 3.403 4.936 0.822 8.978 1.678 13.375 4.062 6.146 3.124 12.6 3.624 19.381 4.248 5.471 0.574 10.073 1.755 15.205 3.768 7.691 2.891 14.943 3.431 23.101 3.734 2.674 0.129 5.347 0.259 8.02 0.391 1.163 0.046 2.325 0.093 3.523 0.141 2.617 0.157 5.229 0.412 7.831 0.73 5.689 0.577 11.288 0.65 17.002 0.656 1.164 4e-3 2.328 8e-3 3.527 0.013 3.762 9e-3 7.523 9e-3 11.285 7e-3h3.877c19.776-0.014 39.414-0.437 59.123-2.188 0.925-0.075 1.85-0.15 2.804-0.227 7.921-0.651 14.75-1.739 22.083-4.777 4.175-1.336 8.406-1.821 12.738-2.371 8.31-1.081 15.682-3.215 23.539-6.215 3.403-1.251 6.68-2.178 10.211-2.972 4.959-1.149 9.243-2.966 13.816-5.176 3.955-1.777 8.033-3.022 12.18-4.27 2.629-0.992 2.629-0.992 6.629-3.992 2.449-0.686 4.898-1.371 7.348-2.055 3.597-1.282 6.399-3.254 9.488-5.465 3.199-2.188 6.701-3.749 10.164-5.48 1.678-1.319 3.346-2.651 5-4 0.928-0.433 1.856-0.866 2.812-1.312 4.352-2.304 8.054-4.852 11.188-8.688 1.062-4.125 1.062-4.125 0-8-2.148-1.683-4.249-2.784-6.738-3.895-2.262-1.105-2.262-1.105-5.262-4.105-2.472-1.085-4.979-1.952-7.527-2.84-2.473-1.16-2.473-1.16-4.414-3.164-2.547-2.469-4.664-3.045-8.059-3.996-4.583-1.283-6.702-2.642-10-6-2.367-0.871-2.367-0.871-4.875-1.438-3.62-0.958-4.993-1.44-7.813-4.062-4.573-3.452-9.066-3.733-14.64-4.688-3.318-0.734-5.403-1.524-8.234-3.312-4.571-2.847-9.06-3.632-14.313-4.617-3.982-0.852-7.797-1.943-11.688-3.128-9.118-2.774-17.718-4.441-27.253-5.263-4.034-0.474-7.61-1.336-11.496-2.492-19.812-5.597-41.209-4.316-61.589-4.261-4.246 0.012-8.491 5e-3 -12.737-7e-3 -43.138-0.099-43.138-0.099-63.96 5.26z"/>
<path transform="translate(1629.4 1006.4)" d="m0 0c1.406 0.024 2.811 0.049 4.26 0.074 10.112 0.49 10.112 0.49 13.537 3.543 1.529 2.285 2.673 4.491 3.765 7.008 0.702 1.114 1.403 2.227 2.126 3.375 2.014 3.894 3.435 7.801 4.874 11.934 1 2.691 1 2.691 3 6.691 1.614 3.227 2.83 6.233 4 9.625 1.511 4.302 3.43 7.599 6 11.375 1.064 2.521 2.028 5.072 3 7.629 1 2.371 1 2.371 3 5.308 2.391 3.661 3.572 7.323 4.876 11.477 1.294 2.977 2.574 4.585 5.124 6.586 4.25 0.25 4.25 0.25 8 0 0.231-0.822 0.462-1.645 0.7-2.492 1.85-6.334 3.918-12.138 7.008-17.965 1.959-3.854 3.535-7.855 5.168-11.856 1.242-2.968 2.686-5.809 4.124-8.687 0.454-1.279 0.908-2.557 1.376-3.875 1.749-4.44 4.099-8.085 6.624-12.125 0.516-1.382 1.032-2.764 1.563-4.187 1.437-3.813 1.437-3.813 3.5-6.25 2.691-3.56 3.012-7.245 3.937-11.563 7.07-7.07 20.699-5.248 30.188-5.375 1.111-0.026 2.223-0.052 3.368-0.079 0.524-1e-3 0.524-1e-3 3.175-7e-3 0.471-4e-3 0.471-4e-3 2.856-0.025 2.413 0.486 2.413 0.486 5.413 4.486 0.378 2.374 0.378 2.374 0.381 5.054 9e-3 1.02 0.017 2.039 0.026 3.089-3e-3 0.556-3e-3 0.556-0.018 3.371 2e-3 0.588 2e-3 0.588 0.016 3.563 0.013 3.893 4e-3 7.785-6e-3 11.677 2e-3 2.7 5e-3 5.4 9e-3 8.1 4e-3 5.66-2e-3 11.32-0.016 16.98-0.017 7.266-8e-3 14.531 0.01 21.798 0.011 5.575 8e-3 11.15 0 16.725-2e-3 2.68 0 5.36 7e-3 8.039 8e-3 3.74-4e-3 7.48-0.02 11.219 6e-3 1.115 0.012 2.229 0.018 3.377-0.064 7.665-0.064 7.665-3.407 11.008-2.511 0.388-2.511 0.388-5.472 0.398-1.064 4e-3 -2.128 8e-3 -3.225 0.012-0.555-6e-3 -0.555-6e-3 -3.365-0.035-0.557 6e-3 -0.557 6e-3 -3.377 0.035-1.063-4e-3 -2.126-8e-3 -3.221-0.012-0.976-3e-3 -1.951-6e-3 -2.957-0.01-0.786-0.128-1.572-0.256-2.383-0.388-2.402-3.604-2.271-5.294-2.318-9.583-0.01-0.68-0.01-0.68-0.061-4.125-5e-3 -0.736-5e-3 -0.736-0.035-4.46-9e-3 -0.753-9e-3 -0.753-0.058-4.561-0.06-4.819-0.106-9.639-0.152-14.458-0.039-3.263-0.078-6.525-0.118-9.788-0.096-8.008-0.181-16.016-0.258-24.025-2.639-0.33-5.279-0.66-8-1-0.206 1.279-0.412 2.557-0.624 3.875-1.071 4.905-3.246 8.52-5.93 12.715-1.975 3.293-3.113 6.817-4.446 10.41-0.412 0.639-0.412 0.639-2.5 3.875-2.04 3.366-3.014 5.463-4 9.125-1.34 4.962-3.69 8.683-6.5 13-0.66 1.485-1.319 2.97-2 4.5-4.947 11.132-4.947 11.132-10 14.5-3.985 0.439-7.992 0.324-12 0.313-0.553 8e-3 -0.553 8e-3 -3.351 0.048-1.06 1e-3 -2.119 2e-3 -3.211 2e-3 -0.971 3e-3 -1.941 6e-3 -2.941 9e-3 -2.497-0.372-2.497-0.372-5.497-3.372-1.027-2.27-1.027-2.27-1.937-4.813-1.165-3.068-2.228-5.435-4.063-8.187-2.27-3.405-3.546-6.809-4.996-10.617-1.292-3.068-3.147-5.628-5.004-8.383-1-2.667-2-5.333-3-8-0.639-0.928-1.278-1.856-1.937-2.813-1.918-2.964-2.89-5.37-4-8.687-1.612-4.715-3.702-7.776-7.063-11.5-0.164-0.66-0.164-0.66-1-4h-8c0.012 0.416 0.012 0.416 0.072 2.523 0.241 8.646 0.446 17.291 0.63 25.938 0.074 3.229 0.157 6.458 0.248 9.687 0.131 4.634 0.229 9.268 0.32 13.903 0.048 1.45 0.095 2.9 0.145 4.394 0.02 1.341 0.04 2.682 0.061 4.064 0.029 1.184 0.058 2.367 0.088 3.587-0.564 2.904-0.564 2.904-2.857 4.787-3.655 1.508-6.701 1.478-10.644 1.43-0.685-2e-3 -0.685-2e-3 -4.152-0.012-4.74-0.365-8.483-0.874-11.911-4.301-0.18-3.752-0.233-7.428-0.198-11.179 3e-3 -1.164 6e-3 -2.329 9e-3 -3.528 0.013-3.866 0.042-7.732 0.072-11.598 0.016-2.678 0.032-5.356 0.047-8.034 0.035-5.62 0.079-11.241 0.127-16.862 0.061-7.212 0.094-14.424 0.12-21.636 0.024-5.533 0.067-11.066 0.114-16.6 0.02-2.659 0.033-5.318 0.04-7.978 0.012-3.716 0.049-7.431 0.092-11.147-2e-3 -1.105-4e-3 -2.209-6e-3 -3.347 0.017-1.012 0.034-2.025 0.051-3.068 6e-3 -0.878 0.013-1.757 0.019-2.662 0.683-3.139 2.065-4.351 4.513-6.361 6.422-2.09 13.8-0.922 20.438-0.625z"/>
<path transform="translate(1927.8 1016.8)" d="m0 0c5.674 6.239 7.622 11.944 7.654 20.351 6e-3 0.804 6e-3 0.804 0.038 4.875-2e-3 1.744-5e-3 3.487-8e-3 5.231 4e-3 1.805 9e-3 3.609 0.015 5.414 9e-3 3.776 7e-3 7.553-3e-3 11.329-0.011 4.819 9e-3 9.636 0.038 14.454 0.018 3.726 0.018 7.452 0.012 11.178 0 1.776 6e-3 3.551 0.019 5.326 0.083 13.803-1.324 23.397-10.515 34.03-7.291 6.23-13.733 6.12-23.037 6.161-0.877 5e-3 -1.755 0.01-2.659 0.015-2.882 0.014-5.765 0.021-8.648 0.027-2.013 5e-3 -4.027 0.011-6.04 0.017-4.213 0.01-8.426 0.016-12.639 0.02-5.39 5e-3 -10.78 0.029-16.17 0.058-4.156 0.018-8.311 0.024-12.467 0.025-1.987 3e-3 -3.974 0.011-5.961 0.024-2.781 0.017-5.561 0.015-8.342 9e-3 -0.79 2e-3 -0.79 2e-3 -4.788 0.011-9.286-0.803-14.427-5.567-20.249-12.367-3.575-5.922-4.129-11.096-4.161-17.931-0.01-1.632-0.019-3.265-0.029-4.946-5e-3 -1.785-9e-3 -3.569-0.013-5.354-6e-3 -1.834-0.012-3.667-0.017-5.501-0.011-3.846-0.017-7.691-0.02-11.537-6e-3 -4.912-0.03-9.823-0.058-14.734-0.019-3.789-0.024-7.579-0.026-11.368-3e-3 -1.81-0.011-3.619-0.024-5.429-0.079-11.78 0.014-21.141 6.91-31.076 0.6-0.904 1.199-1.809 1.817-2.742 8.193-7.448 21.008-5.892 31.332-5.965 1.818-0.022 3.636-0.044 5.453-0.068 3.798-0.047 7.595-0.084 11.393-0.113 4.837-0.038 9.673-0.098 14.51-0.165 3.751-0.05 7.502-0.09 11.253-0.126 1.782-0.018 3.564-0.039 5.346-0.063 29.393-0.378 29.393-0.378 40.084 10.93zm-75.75 19.188c-4.067-9e-3 -8.123-0.129-12.188-0.258-3.979 0.269-5.757 0.753-8.812 3.258-2.483 4.966-2.389 9.328-2.484 14.757-0.024 1.059-0.049 2.117-0.073 3.207-0.049 2.241-0.092 4.482-0.131 6.723-0.061 3.404-0.145 6.807-0.23 10.211-0.044 2.182-0.087 4.364-0.129 6.547-0.026 1.007-0.052 2.015-0.078 3.053-0.092 6.465 0.463 12.236 2.125 18.502 3 3 3 3 6.005 3.374 0.615-1e-3 0.615-1e-3 3.73-2e-3 0.697 3e-3 0.697 3e-3 4.226 0.019 1.51-0.01 3.019-0.019 4.574-0.028 1.545 0 3.09 1e-3 4.681 1e-3 4.108-3e-3 8.215-0.02 12.323-0.042 2.522-0.01 5.045-0.01 7.568-7e-3 4.83 7e-3 9.66-1e-3 14.491-0.015 0.755 1e-3 0.755 1e-3 4.58 3e-3 1.391-9e-3 2.783-0.019 4.217-0.029 1.23-4e-3 2.46-9e-3 3.727-0.014 2.878-0.26 2.878-0.26 4.878-2.26 0.254-2.568 0.254-2.568 0.259-5.855 3e-3 -0.615 3e-3 -0.615 0.019-3.722-4e-3 -1.334-8e-3 -2.667-0.012-4.041 2e-3 -1.364 3e-3 -2.727 5e-3 -4.133 2e-3 -2.89-2e-3 -5.78-0.01-8.67-0.011-4.429 0-8.858 0.012-13.287-1e-3 -2.803-3e-3 -5.606-7e-3 -8.41 4e-3 -1.329 8e-3 -2.658 0.012-4.028-6e-3 -1.234-0.013-2.469-0.019-3.741-2e-3 -1.086-3e-3 -2.173-5e-3 -3.292-0.254-2.821-0.254-2.821-2.254-6.821-4.083-2.722-7.783-2.268-12.523-2.231-0.47 0-0.47 0-2.844 1e-3 -1.985 3e-3 -3.971 0.011-5.956 0.024-3.033 0.018-6.066 0.02-9.099 0.02-1.93 5e-3 -3.859 0.011-5.789 0.018-0.905 1e-3 -1.811 2e-3 -2.743 3e-3 -4.148 0.031-8.004 0.235-12.046 1.165z"/>
<path transform="translate(661,1008)" d="m0 0c2.555 2.482 4.07 4.941 6 8 1.317 1.349 2.651 2.682 4 4 5.548 6.507 10.61 13.423 15.699 20.29 2.983 4.012 6.074 7.892 9.301 11.71 1.481 1.811 2.96 3.623 4.438 5.438 2.537 3.113 5.097 6.17 7.75 9.187 2.766 3.32 5.106 6.717 7.417 10.359 1.395 2.016 1.395 2.016 4.395 5.016 3.688 0.188 3.688 0.188 7 0 1.531-4.593 1.1-9.275 1.062-14.07-3e-3 -1.11-7e-3 -2.22-0.011-3.363-0.016-4.744-0.044-9.488-0.072-14.233-0.119-22.582-0.119-22.582 0.271-33.264 0.046-1.289 0.093-2.577 0.141-3.905 0.707-3.674 1.64-4.948 4.609-7.165 2.41-0.207 2.41-0.207 5.062 0.188 0.481 0.065 0.481 0.065 2.911 0.394 0.499 0.069 0.499 0.069 3.027 0.418 2.895 0.189 5.791 0.363 8.688 0.523 2.312 0.477 2.312 0.477 5.312 3.477 0.308 3.853 0.43 7.545 0.42 11.4 8e-3 1.176 0.017 2.352 0.026 3.563 0.023 3.898 0.024 7.795 0.023 11.693 7e-3 2.702 0.015 5.403 0.023 8.104 0.013 5.666 0.015 11.332 9e-3 16.998-6e-3 7.274 0.025 14.548 0.065 21.822 0.026 5.579 0.029 11.159 0.025 16.738 2e-3 2.683 0.012 5.365 0.029 8.048 0.022 3.745 0.013 7.489-5e-3 11.234 0.013 1.116 0.027 2.231 0.04 3.381-0.034 3.085-0.034 3.085-0.655 8.019-3.439 3.192-6.404 3.377-11 3.363-1.134 0-2.269-1e-3 -3.438-2e-3 -1.175-0.016-2.351-0.032-3.562-0.049-1.176 4e-3 -2.351 7e-3 -3.562 0.01-9.92-0.062-9.92-0.062-14.438-2.322-2-2.312-2-2.312-4-5-0.784-0.743-1.567-1.485-2.375-2.25-2.192-2.296-3.691-4.291-5.375-6.938-2.326-3.618-4.887-6.721-7.812-9.874-2.758-2.975-5.16-5.836-7.25-9.313-1.892-3.134-3.555-5.162-6.188-7.625-0.667-0.833-0.667-0.833-4-5-0.309-0.289-0.309-0.289-1.875-1.75-2.496-2.642-4.37-5.568-6.344-8.609-2.746-4.072-5.745-7.946-8.73-11.844-2.051-2.797-2.051-2.797-3.59-5.606-1.461-2.191-1.461-2.191-5.149-3.003-0.546-0.031-0.546-0.031-3.312-0.188-1.162 5.184-1.062 10.214-1 15.5 0.047 12.119-0.022 24.236-0.208 36.354-0.028 2.056-0.049 4.112-0.063 6.168-0.021 2.919-0.067 5.837-0.12 8.755 0 0.444 0 0.444-3e-3 2.686-0.06 2.478-0.06 2.478-0.606 6.537-5.337 4.003-9.09 3.516-15.562 3.5-1.054 0.028-2.108 0.057-3.194 0.086-1.01 3e-3 -2.02 5e-3 -3.06 8e-3 -0.462 3e-3 -0.462 3e-3 -2.796 0.021-2.388-0.615-2.388-0.615-4.019-2.432-2.088-4.854-1.739-9.491-1.665-14.719 4e-3 -1.166 9e-3 -2.332 0.013-3.534 0.019-3.855 0.061-7.708 0.103-11.563 0.021-2.676 0.04-5.352 0.059-8.028 0.042-5.607 0.096-11.214 0.157-16.821 0.078-7.197 0.128-14.395 0.171-21.592 0.036-5.525 0.085-11.05 0.139-16.574 0.025-2.655 0.045-5.309 0.06-7.964 0.024-3.704 0.066-7.407 0.114-11.111 3e-3 -1.104 7e-3 -2.207 0.01-3.344 0.127-7.59 0.127-7.59 3.47-10.933 10.694-2.541 22.771-3.746 33 1z"/>
<path transform="translate(798.83 1005.6)" d="m0 0c0.499 2e-3 0.499 2e-3 3.022 0.013 3.302 0.02 6.604 0.069 9.905 0.12 2.3 0.022 4.6 0.043 6.899 0.062 4.827 0.046 9.653 0.106 14.479 0.176 6.164 0.088 12.328 0.146 18.493 0.194 4.753 0.04 9.507 0.094 14.261 0.152 2.271 0.027 4.542 0.05 6.813 0.068 3.19 0.029 6.38 0.077 9.569 0.129 0.927 5e-3 1.854 0.01 2.808 0.015 7.044 0.146 15.428 0.588 21.046 5.236 6.983 7.464 11.993 15.963 12.024 26.22 6e-3 1.449 0.013 2.898 0.019 4.391 1e-3 0.786 1e-3 0.786 4e-3 4.763 3e-3 1.614 6e-3 3.229 0.01 4.892 6e-3 3.424 7e-3 6.848 7e-3 10.272 0 4.365 0.013 8.731 0.031 13.096 0.014 4.184 0.013 8.368 0.014 12.552 7e-3 1.558 0.014 3.116 0.022 4.72-0.034 16.188-2.717 26.769-13.834 38.745-6.827 4.5-15.852 3.901-23.715 3.895-1.152 4e-3 -2.304 8e-3 -3.491 0.013-2.42 5e-3 -4.84 6e-3 -7.261 2e-3 -3.704-4e-3 -7.407 0.02-11.112 0.045-2.358 3e-3 -4.716 3e-3 -7.074 2e-3 -1.105 9e-3 -2.21 0.019-3.349 0.028-1.032-6e-3 -2.063-0.012-3.126-0.019-0.904 1e-3 -1.807 1e-3 -2.738 2e-3 -3.131-0.459-5.005-1.521-7.552-3.374-1.442-2.672-1.442-2.672-2.563-5.75-1.405-3.701-2.729-6.725-4.812-10.125-1.895-3.644-1.823-5.255-0.625-9.125 2.011-2.012 6.187-1.228 8.812-1.281 1.635-0.038 3.269-0.075 4.953-0.114 1.745-0.035 3.49-0.07 5.235-0.105 9.835-0.203 19.671-0.426 29.5-0.844 1.351-0.053 2.701-0.107 4.093-0.162 3.407-0.494 3.407-0.494 7.407-3.494 0.602-3.282 0.602-3.282 0.738-7.391 0.055-1.527 0.11-3.054 0.166-4.627 0.016-0.822 0.016-0.822 0.096-4.982 0.016-0.831 0.033-1.662 0.051-2.518 0.098-5.194 0.134-10.385 0.134-15.58 2e-3 -2.691 0.02-5.382 0.039-8.074 3e-3 -1.729 5e-3 -3.458 6e-3 -5.187 4e-3 -1.542 8e-3 -3.083 0.013-4.671-0.218-3.561-0.541-5.869-2.243-8.97-3.381-1.69-7.032-1.212-10.77-1.281-0.873-0.019-1.746-0.037-2.646-0.056-2.799-0.059-5.598-0.112-8.397-0.163-3.673-0.068-7.346-0.142-11.019-0.219-0.819-0.015-0.819-0.015-4.961-0.092-3.266-0.147-6.044-0.505-9.207-1.189-1.766-0.078-3.534-0.108-5.301-0.098-0.977 3e-3 -1.953 7e-3 -2.959 0.01-0.504 4e-3 -0.504 4e-3 -3.053 0.025-1.027 5e-3 -2.053 9e-3 -3.111 0.014-2.526 0.012-5.051 0.03-7.576 0.049-1.156 4.624-1.342 9.084-1.528 13.82-0.02 0.502-0.02 0.502-0.125 3.042-0.527 13.666-0.705 27.339-0.91 41.013-0.043 2.71-0.087 5.419-0.131 8.129-0.041 2.6-0.082 5.2-0.123 7.801-0.019 1.193-0.037 2.387-0.057 3.617-8e-3 0.563-8e-3 0.563-0.05 3.413-0.019 1.057-0.037 2.113-0.056 3.201-0.013 1.892 8e-3 3.785 0.074 5.676 0.07 2.095 1e-3 4.194-0.094 6.288-3.98 3.98-6.238 3.442-11.649 3.508-1.106-3e-3 -2.212-5e-3 -3.351-8e-3 -1.106 0.028-2.212 0.057-3.352 0.086-1.06 2e-3 -2.119 5e-3 -3.211 8e-3 -0.485 3e-3 -0.485 3e-3 -2.941 0.021-2.496-0.615-2.496-0.615-4.133-2.434-2.078-4.848-1.742-9.481-1.676-14.701 3e-3 -1.165 6e-3 -2.329 9e-3 -3.529 0.014-3.85 0.051-7.699 0.089-11.549 0.018-2.673 0.035-5.347 0.051-8.021 0.038-5.603 0.088-11.205 0.145-16.808 0.072-7.189 0.112-14.377 0.143-21.565 0.029-5.521 0.075-11.041 0.127-16.561 0.022-2.651 0.039-5.302 0.049-7.953 0.016-3.702 0.058-7.402 0.106-11.104 0-1.1-1e-3 -2.199-1e-3 -3.333 0.018-1.008 0.037-2.016 0.055-3.054 8e-3 -0.875 0.016-1.75 0.023-2.651 1.637-7.457 8.031-6.89 14.343-6.762z"/>
<path transform="translate(1461.6 1005.5)" d="m0 0c0.494 1e-3 0.494 1e-3 2.992 8e-3 3.276 0.015 6.549 0.067 9.824 0.121 2.279 0.022 4.558 0.042 6.836 0.06 4.786 0.044 9.57 0.106 14.355 0.181 6.112 0.094 12.223 0.149 18.335 0.191 4.712 0.036 9.424 0.091 14.135 0.152 2.252 0.027 4.504 0.049 6.755 0.065 3.164 0.027 6.327 0.078 9.491 0.136 0.919 3e-3 1.837 6e-3 2.784 9e-3 8.036 0.193 16.046 1.731 21.809 7.616 0.681 0.99 1.362 1.98 2.063 3 0.659 0.596 1.317 1.191 1.996 1.805 7.724 8.462 8.57 25.564 8.465 36.539-1.006 10.163-3.443 26.292-11.336 33.156-1.031 0.825-2.063 1.65-3.125 2.5l-2.25 2.25c-1.75 1.75-1.75 1.75-3.75 2.75-0.83 8.894-0.83 8.894 2.25 13 0.907 0.99 1.815 1.98 2.75 3 0.724 1.643 1.387 3.313 2 5 1.638 4.454 3.849 7.424 7 11l1 4c-3 3-3 3-7.203 3.328-1.683-0.01-3.365-0.037-5.047-0.078-0.417-2e-3 -0.417-2e-3 -2.527-0.015-12.952-0.163-12.952-0.163-16.516-3.168-3.856-5.097-6.586-9.73-8.715-15.75-1.593-3.719-4.273-6.371-6.992-9.317-0.619-1.052-1.238-2.103-1.875-3.187-2.858-3.783-5.653-5.514-10.125-6.813-4.421-0.613-8.82-1.063-13.27-1.41-3.73-0.59-3.73-0.59-6.73-3.59-0.474-1.299-0.949-2.598-1.438-3.937-1.562-4.063-1.562-4.063-3.812-6.125-0.289-0.32-0.289-0.32-1.75-1.938 0.253-2.343 0.582-4.68 1-7 1.488-0.034 2.977-0.068 4.51-0.104 5.527-0.134 11.052-0.3 16.578-0.476 2.39-0.071 4.781-0.134 7.172-0.188 3.439-0.079 6.876-0.19 10.314-0.306 0.534-9e-3 0.534-9e-3 3.236-0.054 7.46-0.296 7.46-0.296 11.263-3.297 0.636-0.849 1.272-1.699 1.927-2.575 0.742-0.701 1.485-1.402 2.25-2.125 3.681-3.944 3.027-8.835 2.953-13.925-0.261-3.79-0.813-5.962-3.203-8.95-6.853-4.389-12.44-4.468-20.438-4.187-7.323 0.179-14.271 0.056-21.562-0.813-3.792-0.184-7.579-0.229-11.375-0.25-0.984-0.02-1.967-0.041-2.981-0.062-2.55-0.014-5.1 0.138-7.644 0.312-6.015 6.015-4.375 13.838-4.563 21.938-0.022 0.861-0.044 1.722-0.067 2.609-0.292 11.453-0.394 22.895-0.327 34.352 6e-3 1.158 0.011 2.317 0.017 3.511 0.03 5.739 0.078 11.478 0.153 17.217 0.015 2.11 0.03 4.22 0.045 6.33 0.018 0.974 0.037 1.947 0.056 2.95 9e-3 2.366-0.139 4.733-0.314 7.093-3.415 3.415-3.876 3.383-8.438 3.399-0.529 2e-3 -0.529 2e-3 -3.211 0.011-1.106-0.011-2.212-0.023-3.351-0.035-1.106 0.012-2.212 0.024-3.352 0.035-1.059-3e-3 -2.119-7e-3 -3.211-0.011-0.97-4e-3 -1.941-7e-3 -2.941-0.011-2.496-0.388-2.496-0.388-5.496-3.388-0.298-3.843-0.409-7.524-0.388-11.368-6e-3 -1.173-0.011-2.346-0.016-3.554-0.013-3.888-5e-3 -7.775 5e-3 -11.664-2e-3 -2.696-4e-3 -5.393-8e-3 -8.089-5e-3 -5.658 2e-3 -11.316 0.016-16.973 0.017-7.256 7e-3 -14.511-0.011-21.767-0.011-5.571-7e-3 -11.142 0-16.713 2e-3 -2.675 0-5.351-7e-3 -8.026-8e-3 -3.74 4e-3 -7.479 0.021-11.218-6e-3 -1.109-0.012-2.218-0.019-3.36 0.034-4.047 0.203-7.564 1.33-11.461 3.436-2.989 7.372-2.443 11.698-2.346z"/>
<path transform="translate(2129.1 1005.9)" d="m0 0c0.927 5e-3 1.855 0.01 2.81 0.015 3.075 0.017 6.15 0.043 9.225 0.07 2.142 0.017 4.284 0.033 6.426 0.05 4.498 0.036 8.996 0.078 13.495 0.121 5.739 0.055 11.478 0.092 17.218 0.124 4.429 0.028 8.859 0.069 13.288 0.114 2.114 0.019 4.228 0.033 6.342 0.042 29.34 0.143 29.34 0.143 38.942 9.529 7.667 10.472 9.378 23.713 9.45 36.317 0.01 0.449 0.01 0.449 0.062 2.724 0.036 6.22-1.066 11.089-3.312 16.963-0.183 0.562-0.183 0.562-1.106 3.407-2.604 7.445-5.731 13.493-11.894 18.593-2.75 1.239-2.75 1.239-5 2 0.372 6.242 0.99 9.304 5 14 0.667 1.566 1.288 3.152 1.875 4.75 1.408 3.791 3.087 6.836 5.437 10.125 0.887 1.362 1.774 2.723 2.688 4.125-1 4-1 4-4 6-3.662 0.25-7.214 0.371-10.875 0.375-0.994 0.025-1.988 0.049-3.012 0.075-4.413 0.017-7.305 3e-3 -11.207-2.18-2.8-3.333-3.597-7.163-4.906-11.27l-3-1c-1.187-2.067-2.363-4.141-3.481-6.246-1.725-3.126-3.583-6.128-5.519-9.129-0.64-0.997-1.279-1.995-1.938-3.023-3.338-4.21-6.784-5.936-12.062-6.602-3.867-0.222-7.732-0.379-11.602-0.523-3.398-0.477-3.398-0.477-6.398-3.477l-3-9c-0.743-1.113-1.485-2.227-2.25-3.375-0.578-0.866-1.155-1.732-1.75-2.625l1-3c3.584-1.792 7.836-1.308 11.793-1.429 2.012-0.074 4.024-0.148 6.037-0.223 3.175-0.113 6.35-0.222 9.525-0.322 3.063-0.098 6.125-0.213 9.188-0.33 0.941-0.025 1.883-0.051 2.854-0.076 7.028-0.288 12.129-1.468 17.478-6.12 4.332-5.097 3.437-11.139 3.125-17.5-1.055-6.233-1.055-6.233-4.313-8.875-5.016-2.1-9.592-2.236-15-2.187-1.405 8e-3 -2.81 0.015-4.258 0.023-1.462 0.013-2.923 0.026-4.429 0.039-2.896 0.026-5.792 0.047-8.688 0.063-1.283 0.011-2.565 0.023-3.887 0.035-2.98-0.085-5.53-0.462-8.425-1.098-3.222-0.169-6.403-0.276-9.625-0.312-0.859-0.029-1.717-0.058-2.602-0.088-2.5-0.025-2.5-0.025-6.773 0.4-4.216 5.621-4.114 9.547-4.05 16.377 6e-3 0.843 0.012 1.686 0.019 2.554 0.013 1.827 0.029 3.655 0.047 5.482 0.027 2.891 0.045 5.783 0.06 8.674 0.042 8.221 0.09 16.441 0.17 24.661 0.049 5.03 0.078 10.059 0.094 15.089 0.01 1.917 0.027 3.834 0.052 5.751 0.034 2.678 0.043 5.356 0.046 8.035 0.012 1.525 0.024 3.05 0.036 4.62-0.474 3.757-0.474 3.757-2.344 6.25-2.66 1.882-4.206 2.01-7.447 2.003-1.011 1e-3 -2.022 2e-3 -3.064 2e-3 -1.05-0.02-2.1-0.04-3.182-0.06-1.054 7e-3 -2.108 0.014-3.193 0.021-7.851-0.065-7.851-0.065-11.244-3.459-0.298-3.848-0.41-7.534-0.389-11.384-5e-3 -1.174-0.01-2.349-0.016-3.558-0.013-3.893-4e-3 -7.786 6e-3 -11.679-2e-3 -2.699-5e-3 -5.398-9e-3 -8.097-4e-3 -5.662 2e-3 -11.323 0.016-16.985 0.018-7.265 8e-3 -14.529-0.01-21.794-0.011-5.576-8e-3 -11.151 0-16.726 2e-3 -2.679 0-5.358-7e-3 -8.037-8e-3 -3.742 4e-3 -7.484 0.02-11.226-6e-3 -1.112-0.012-2.224-0.018-3.37 8e-3 -1.02 0.017-2.039 0.026-3.089 0-0.443 0-0.443 3e-3 -2.681 0.378-2.374 0.378-2.374 3.378-6.374 4.018-1.339 7.867-1.108 12.054-1.069z"/>
<path transform="translate(1104.4 1006.8)" d="m0 0c0.49-2e-3 0.49-2e-3 2.967-0.015 3.253-0.015 6.505-0.021 9.758-0.027 2.26-6e-3 4.52-0.012 6.78-0.017 4.748-0.011 9.496-0.017 14.244-0.02 6.068-6e-3 12.136-0.03 18.204-0.058 4.674-0.019 9.348-0.024 14.022-0.025 2.236-3e-3 4.471-0.011 6.707-0.025 3.14-0.017 6.28-0.015 9.42-8e-3 0.914-0.01 1.829-0.019 2.771-0.028 7.361 0.047 14.67 0.95 20.57 5.697 4.238 5.359 6.809 10.243 9.125 16.687 0.268 0.505 0.268 0.505 1.625 3.063 5.529 11.811 2.407 28.622-0.625 40.937-3.316 9.117-7.891 18.011-16.937 22.438-0.681 0.185-1.361 0.371-2.063 0.562 0.371 6.205 0.94 9.36 5 14 0.963 2.214 1.924 4.429 2.856 6.656 1.211 2.481 2.634 4.484 4.332 6.657 2.812 3.687 2.812 3.687 3.812 7.687l-2 3c-8.806 1.538-19.682 2.585-28-1-1.584-2.14-2.707-4.292-3.851-6.695-1.581-3.173-3.863-5.61-6.149-8.305-0.598-1.052-1.196-2.104-1.812-3.187-1.911-3.33-3.919-6.427-6.125-9.563-0.649-0.923-1.297-1.846-1.965-2.797-3.295-3.853-6.209-5.231-11.098-6.453-4.115-0.191-8.229-0.317-12.347-0.426-3.653-0.574-3.653-0.574-6.653-4.574-0.309-1.464-0.618-2.929-0.937-4.437-1.063-4.563-1.063-4.563-3.313-7.375-0.577-0.722-1.155-1.444-1.75-2.188l2-4c3.645-0.466 7.012-0.674 10.668-0.723 1.069-0.031 2.137-0.063 3.237-0.095 3.428-0.1 6.855-0.175 10.283-0.244 3.41-0.076 6.819-0.157 10.229-0.255 2.123-0.061 4.247-0.108 6.371-0.141 5.705-0.157 10.114-0.686 15.212-3.542 3.256-4.555 3.38-8.563 3.313-14.062-4e-3 -1.373-8e-3 -2.746-0.012-4.161-0.275-3.454-0.685-5.742-2.301-8.777-5.4-4.087-10.729-4.122-17.312-4.062-1.405 7e-3 -2.81 0.015-4.258 0.023-1.462 0.013-2.924 0.026-4.43 0.039-2.895 0.026-5.791 0.047-8.687 0.063-1.283 0.011-2.565 0.023-3.887 0.035-2.977-0.085-5.534-0.453-8.426-1.098-2.664-0.142-5.332-0.22-8-0.25-0.691-0.013-0.691-0.013-4.187-0.078-3.96 0.341-5.8 0.781-8.813 3.328-2.417 4.468-2.217 8.593-2.163 13.598 3e-3 0.427 3e-3 0.427 0.018 2.589 0.015 1.849 0.033 3.698 0.056 5.547 0.035 2.925 0.056 5.85 0.072 8.775 0.049 8.314 0.12 16.628 0.209 24.942 0.054 5.089 0.088 10.178 0.11 15.267 0.012 1.94 0.032 3.881 0.06 5.821 0.038 2.707 0.052 5.414 0.061 8.122 7e-3 0.771 7e-3 0.771 0.045 4.671-0.154 1.211-0.309 2.421-0.468 3.668-4.944 3.708-8.594 3.447-14.5 3.375-0.95 0.012-1.9 0.023-2.879 0.035-5.257-0.022-7.298-0.168-11.621-3.41-0.39-3.859-0.525-7.432-0.485-11.293-4e-3 -1.164-8e-3 -2.328-0.012-3.528-7e-3 -3.861 0.014-7.721 0.036-11.581 3e-3 -2.677 4e-3 -5.353 3e-3 -8.03 3e-3 -5.615 0.02-11.229 0.047-16.844 0.034-7.204 0.041-14.408 0.04-21.613 0-5.529 0.011-11.057 0.026-16.586 6e-3 -2.657 0.01-5.314 0.012-7.97 4e-3 -3.711 0.021-7.422 0.043-11.133-1e-3 -1.103-2e-3 -2.206-3e-3 -3.342 9e-3 -1.011 0.017-2.022 0.026-3.063 3e-3 -0.878 7e-3 -1.755 0.01-2.659 0.257-2.358 0.257-2.358 2.257-6.358 3.498-1.749 7.58-1.156 11.432-1.161z"/>
<path transform="translate(1377.1 1011.1)" d="m0 0c3.466 3.416 4.829 6.446 6.621 10.953 1.839 4.571 3.34 7.974 6.313 11.938 0.773 2.332 0.773 2.332 1.375 4.812 1.008 3.646 1.804 5.43 4.125 8.563 2.439 3.537 3.105 5.529 4 9.625 1.181 5.38 3.147 8.584 6.5 13 1.111 2.526 2.071 5.086 3.035 7.671 0.965 2.329 0.965 2.329 2.965 5.141 2.61 4.161 3.643 8.452 5 13.149 1.15 3.497 2.904 6.027 5 9.039 0.615 1.676 1.194 3.365 1.75 5.062 2.023 5.98 5.214 10.883 8.738 16.09 1.512 2.848 1.512 2.848 0.512 6.848-3.746 3.746-16.481 2.185-21.438 2.312-1.319 0.038-2.637 0.075-3.996 0.113-4.203-0.501-5.658-1.4-8.566-4.425-1.739-2.657-1.739-2.657-3.313-5.5-3.145-5.169-5.942-7.298-11.687-9.5l-3-2c-5.006-0.198-9.793-0.119-14.778 0.371-7.742 0.75-12.741 1.203-19.222-3.371-1.903-2.855-2.656-4.87-3.563-8.125-1.335-4.773-1.335-4.773-2.437-5.875-0.041-2-0.043-4.001 0-6 7.422-1.687 14.464-2.364 22.062-2.563 10.814-0.314 10.814-0.314 11.938-1.437 0.465-7.073 0.549-9.518-4-15-1.088-2.346-2.107-4.724-3.063-7.125-1.688-4.237-2.683-6.621-5.937-9.875-0.95-3.356-0.95-3.356-1.688-7.188-0.251-1.272-0.503-2.544-0.762-3.855-0.181-0.976-0.363-1.952-0.55-2.957-7.124-0.604-7.124-0.604-10.813 1.937-2.166 3.032-3.206 5.714-4.242 9.27-1.674 4.944-4.072 9.571-6.317 14.277-1.628 3.516-1.628 3.516-3.191 7.828-1.252 3.212-2.61 5.672-4.437 8.563-2.593 4.163-4.036 8.031-5.289 12.75-1.103 3.684-2.952 6.965-4.711 10.375-0.475 1.32-0.949 2.64-1.438 4-1.562 4-1.562 4-4.125 7.937-2.437 4.063-2.437 4.063-3.5 8.875-0.937 4.188-0.937 4.188-4.937 7.188-5.875 1.679-12.132 1.184-18.188 1.187-1.201 0.012-2.401 0.025-3.639 0.037-1.144 2e-3 -2.288 4e-3 -3.466 6e-3 -1.047 4e-3 -2.094 8e-3 -3.173 0.013-2.534-0.243-2.534-0.243-4.534-2.243 0.078-4.173 0.269-6.289 3.312-9.25 3.328-3.405 4.181-6.529 5.652-10.985 1.036-2.765 1.036-2.765 3.598-6.828 2.454-3.963 3.503-7.269 4.692-11.707 0.746-2.23 0.746-2.23 2.746-4.605 2.229-2.926 2.612-4.812 3.375-8.375 1.183-5.304 3.027-8.822 6.214-13.168 2.106-3.109 3.128-6.569 4.411-10.082 0.804-1.259 1.608-2.517 2.437-3.813 2.538-4.147 4.069-7.985 5.57-12.574 0.993-2.613 0.993-2.613 2.524-5.145 1.466-2.464 2.155-4.513 2.844-7.281 1.412-5.001 3.735-8.853 6.625-13.187 0.556-1.114 1.113-2.228 1.687-3.375 1.313-2.625 1.313-2.625 3.313-4.625 13.637-3.587 32.943-5.231 45.066 3.109z"/>
<path transform="translate(1065,1010)" d="m0 0c1.717 7.442 1.026 15.477 0 23-2 3-2 3-5 4-2.523 0.08-5.049 0.097-7.573 0.082-1.579-7e-3 -3.158-0.013-4.785-0.02-0.845-6e-3 -1.69-0.011-2.561-0.017-2.648-0.018-5.297-0.028-7.946-0.036-7.53-0.025-15.061-0.06-22.592-0.105-4.607-0.027-9.214-0.044-13.821-0.055-1.753-6e-3 -3.505-0.016-5.258-0.03-2.458-0.019-4.915-0.025-7.373-0.03-0.698-4e-3 -0.698-4e-3 -4.232-0.023-3.972 0.241-7.15 0.792-10.859 2.234-3.135 4.18-3.378 4.851-3.404 9.731-0.013 1.151-0.025 2.302-0.038 3.488 2e-3 1.239 5e-3 2.477 8e-3 3.754-2e-3 0.637-2e-3 0.637-0.015 3.862-7e-3 2.694-6e-3 5.388 3e-3 8.082 8e-3 4.133-0.02 8.265-0.052 12.397-2e-3 2.616-1e-3 5.231 2e-3 7.846-0.011 1.241-0.023 2.481-0.034 3.76 9e-3 1.148 0.019 2.296 0.028 3.479 0 1.011 1e-3 2.023 1e-3 3.065 0.501 2.536 0.501 2.536 4.501 5.536 3.547 0.385 3.547 0.385 7.87 0.401 0.81 6e-3 0.81 6e-3 4.906 0.04h5.306c1.816 0.012 3.632 0.026 5.448 0.04 4.783 0.037 9.566 0.057 14.349 0.072 7.645 0.025 15.289 0.065 22.934 0.122 2.665 0.016 5.329 0.02 7.994 0.023 0.814 5e-3 0.814 5e-3 4.934 0.031 0.715 2e-3 0.715 2e-3 4.331 0.013 4.832 0.317 9.378 0.641 12.838 4.25 1.576 4.349 1.564 8.569 1.528 13.133 0.019 0.906 0.039 1.812 0.06 2.746-2e-3 2.637-2e-3 2.637-0.498 7.129-4.95 3.712-8.54 3.424-14.457 3.388-1.063 5e-3 -2.127 0.011-3.223 0.016-3.521 0.013-7.041 5e-3 -10.562-6e-3 -2.446 2e-3 -4.892 5e-3 -7.339 9e-3 -5.129 5e-3 -10.259-2e-3 -15.388-0.016-6.573-0.017-13.146-7e-3 -19.719 0.011-5.053 0.011-10.106 7e-3 -15.158-1e-3 -2.424-2e-3 -4.847 1e-3 -7.27 8e-3 -3.39 8e-3 -6.779-4e-3 -10.169-0.021-1 6e-3 -2.001 0.012-3.032 0.019-5.275-0.048-9.361-0.231-13.683-3.407-6.564-10.359-5.718-23.252-5.629-35.035-1e-3 -2.012-3e-3 -4.023-7e-3 -6.035-3e-3 -4.193 0.011-8.386 0.039-12.579 0.034-5.341 0.028-10.681 9e-3 -16.023-0.01-4.146-1e-3 -8.293 0.014-12.439 5e-3 -1.968 5e-3 -3.936-2e-3 -5.904-0.05-25.174-0.05-25.174 6.339-33.2 5.381-4.294 11.377-4.092 17.987-4.12 0.965-0.011 1.93-0.023 2.924-0.035 3.18-0.036 6.36-0.058 9.541-0.079 2.217-0.021 4.433-0.043 6.65-0.066 4.642-0.045 9.285-0.084 13.928-0.118 5.943-0.044 11.885-0.1 17.828-0.162 4.577-0.046 9.153-0.087 13.73-0.126 2.191-0.019 4.382-0.039 6.573-0.061 3.065-0.029 6.131-0.051 9.197-0.071 0.45-5e-3 0.45-5e-3 2.729-0.03 13.003-0.064 13.003-0.064 17.15 4.083z"/>
<path transform="translate(494,1007)" d="m0 0c2.806 5.18 3.38 9.403 3.401 15.243 0.013 1.625 0.026 3.25 0.04 4.924v5.278c0.012 1.817 0.026 3.633 0.04 5.45 0.037 4.769 0.057 9.537 0.072 14.306 0.025 7.64 0.065 15.279 0.122 22.918 0.016 2.664 0.02 5.328 0.023 7.992 0.01 1.619 0.02 3.237 0.031 4.905 4e-3 1.425 8e-3 2.849 0.013 4.317 0.241 3.419 0.656 5.664 2.258 8.667 5.532 4.287 12.468 3.45 19.133 3.434 1.269 5e-3 2.539 0.01 3.846 0.015 2.678 7e-3 5.356 6e-3 8.034-3e-3 4.104-8e-3 8.207 0.02 12.311 0.052 2.603 2e-3 5.206 1e-3 7.809-2e-3 0.614 6e-3 0.614 6e-3 3.725 0.034 1.141-9e-3 2.283-0.019 3.459-0.028 1.003 0 2.007-1e-3 3.04-1e-3 2.643-0.501 2.643-0.501 4.967-1.998 2.472-3.691 2.175-6.632 2.174-11.048 6e-3 -0.86 0.011-1.721 0.017-2.608 9e-3 -1.866 9e-3 -3.733 1e-3 -5.6-0.012-2.955-1e-3 -5.909 0.016-8.864 0.027-5.208 0.033-10.415 0.031-15.623-2e-3 -8.333 0.012-16.665 0.056-24.997 0.01-2.91 1e-3 -5.82-9e-3 -8.73 6e-3 -1.786 0.013-3.573 0.021-5.359-1e-3 -1.558-2e-3 -3.116-3e-3 -4.721 0.371-3.944 0.892-5.907 3.372-8.953 2.388-0.631 2.388-0.631 5.184-0.629 1.01-2e-3 2.02-4e-3 3.06-6e-3 0.527 0.012 0.527 0.012 3.194 0.073 1.049-0.011 2.099-0.022 3.181-0.034 7.608 0.073 7.608 0.073 10.507 2.034 2.778 3.798 2.424 7.558 2.376 12.085 2e-3 0.482 2e-3 0.482 0.016 2.923 0.013 3.192-4e-3 6.382-0.022 9.574 0 2.219 2e-3 4.439 5e-3 6.658 1e-3 4.655-0.012 9.309-0.034 13.964-0.029 5.958-0.026 11.917-0.013 17.875 7e-3 4.586-1e-3 9.171-0.014 13.756-4e-3 2.197-4e-3 4.393-1e-3 6.59 3e-3 3.075-0.013 6.15-0.035 9.226 2e-3 0.452 2e-3 0.452 0.014 2.738-0.123 10.433-5.173 18.524-12.043 26.048-6.825 6.107-11.679 6.247-20.564 6.27-1.639 7e-3 -3.278 0.013-4.966 0.02-1.78 1e-3 -3.561 2e-3 -5.341 3e-3 -1.836 3e-3 -3.671 7e-3 -5.507 0.01-3.842 6e-3 -7.684 8e-3 -11.527 7e-3 -4.913 0-9.827 0.014-14.74 0.031-3.79 0.011-7.579 0.013-11.368 0.013-1.812 1e-3 -3.623 5e-3 -5.434 0.013-2.536 0.01-5.073 6e-3 -7.609 1e-3 -0.721 1e-3 -0.721 1e-3 -4.367 4e-3 -8.202-0.513-12.852-3.087-18.714-8.61-3.509-4.134-4.896-8.458-6.238-13.637-0.339-1.017-0.678-2.035-1.027-3.083-1.119-4.506-1.268-8.759-1.264-13.369-3e-3 -0.46-3e-3 -0.46-0.02-2.791-0.019-3.027-0.023-6.054-0.025-9.081-6e-3 -2.111-0.013-4.221-0.02-6.331-0.012-4.414-0.016-8.828-0.015-13.242 1e-3 -5.659-0.027-11.318-0.061-16.978-0.022-4.353-0.026-8.707-0.025-13.061-3e-3 -2.087-0.012-4.174-0.027-6.261-0.02-2.914-0.014-5.826-2e-3 -8.739-0.011-0.863-0.022-1.726-0.034-2.615 0.039-3.676 0.161-5.954 2.35-8.975 5.461-3.709 17.115-3.627 23.17-1.474z"/>
<path transform="translate(1974.9 1006.2)" d="m0 0c0.92 0.027 1.839 0.054 2.787 0.082 6.92 0.313 6.92 0.313 10.275 3.668 1.656 3.311 1.194 6.788 1.25 10.457 0.015 0.875 0.03 1.75 0.045 2.651 0.032 1.903 0.062 3.807 0.09 5.71 0.045 3.008 0.098 6.017 0.154 9.025 0.157 8.554 0.307 17.109 0.436 25.664 0.079 5.228 0.173 10.457 0.275 15.685 0.037 1.996 0.068 3.993 0.093 5.99 0.037 2.787 0.091 5.574 0.149 8.361 0.013 0.794 0.013 0.794 0.079 4.813 0.141 1.203 0.283 2.405 0.429 3.644 3.457 2.304 4.8 2.261 8.877 2.291 1.208 0.012 2.416 0.025 3.661 0.038 1.306 2e-3 2.613 5e-3 3.959 7e-3 1.34 7e-3 2.68 0.013 4.061 0.02 2.837 0.01 5.674 0.015 8.511 0.015 4.348 4e-3 8.695 0.04 13.043 0.078 2.753 6e-3 5.506 0.01 8.26 0.012 1.304 0.014 2.608 0.029 3.952 0.043 1.211-6e-3 2.422-0.012 3.67-0.018 0.533 1e-3 0.533 1e-3 3.23 8e-3 3.537-0.629 4.701-1.584 6.776-4.494 0.475-2.584 0.475-2.584 0.439-5.544-4e-3 -1.112-7e-3 -2.223-0.011-3.369-0.012-0.599-0.012-0.599-0.072-3.63-8e-3 -1.238-0.016-2.476-0.024-3.752-0.029-3.965-0.086-7.928-0.144-11.893-0.043-3.946-0.08-7.892-0.111-11.838-0.022-2.456-0.051-4.911-0.087-7.366-0.073-6.302 0.213-12.343 1.01-18.608 0.089-1.922 0.152-3.846 0.176-5.77 0.024-0.99 0.048-1.981 0.073-3.001 0.043-2.047 0.074-4.094 0.093-6.141 0.205-7.278 0.205-7.278 2.139-10.733 3.807-2.048 7.227-2.056 11.519-2.23 0.795-0.04 0.795-0.04 4.813-0.242 4.187 0.117 4.187 0.117 8.187 2.117 1.927 6.251 2.274 12.18 2.183 18.707-4e-3 0.925-9e-3 1.85-0.014 2.803-0.018 3.029-0.051 6.058-0.086 9.088-0.019 2.12-0.037 4.24-0.055 6.361-0.039 4.432-0.086 8.864-0.139 13.296-0.066 5.668-0.11 11.336-0.147 17.004-0.032 4.374-0.078 8.749-0.127 13.123-0.021 2.089-0.039 4.179-0.051 6.268-0.019 2.925-0.057 5.848-0.099 8.772-2e-3 0.855-4e-3 1.71-6e-3 2.59-0.164 8.578-2.545 14.652-8.396 20.863-0.855 0.926-1.709 1.851-2.59 2.805-6.043 5.67-12.799 5.444-20.662 5.465-1.638 7e-3 -3.277 0.013-4.965 0.02-1.781 1e-3 -3.561 2e-3 -5.342 3e-3 -1.835 3e-3 -3.671 7e-3 -5.506 0.01-3.842 6e-3 -7.685 8e-3 -11.527 7e-3 -4.914 0-9.827 0.014-14.741 0.031-3.789 0.011-7.579 0.013-11.368 0.013-1.811 1e-3 -3.622 5e-3 -5.434 0.013-2.536 0.01-5.072 6e-3 -7.609 1e-3 -0.72 1e-3 -0.72 1e-3 -4.366 4e-3 -7.165-0.448-11.299-1.902-16.245-7.239-11.512-13.54-9.878-28.087-9.911-45.031-2e-3 -0.999-5e-3 -1.998-8e-3 -3.027-0.015-5.27-0.024-10.541-0.029-15.812-5e-3 -5.437-0.029-10.874-0.058-16.311-0.018-4.194-0.024-8.387-0.025-12.58-3e-3 -2.006-0.011-4.011-0.024-6.017-0.017-2.797-0.015-5.594-9e-3 -8.392-2e-3 -0.795-2e-3 -0.795-0.011-4.818 0.365-3.991 0.897-5.922 3.367-9.02 3.638-1.819 7.951-0.934 11.938-0.75z"/>
<path transform="translate(994.1 1058.6)" d="m0 0c1.259-0.032 2.517-0.064 3.814-0.097 5.755-0.089 11.511-0.171 17.267-0.217 3.036-0.034 6.072-0.088 9.107-0.165 4.378-0.109 8.751-0.153 13.129-0.182 1.355-0.045 2.709-0.091 4.105-0.138 9.227 0.042 9.227 0.042 12.826 3.341 1.789 2.542 3.224 5.085 4.648 7.844 0.99 1.32 1.98 2.64 3 4 0.312 3.125 0.312 3.125 0 6-2 2-2 2-4.789 2.229-1.188-0.01-2.377-0.02-3.601-0.031-1.346-7e-3 -2.691-0.014-4.077-0.022-1.461-0.019-2.922-0.039-4.428-0.059-0.747-8e-3 -0.747-8e-3 -4.529-0.047-3.169-0.037-6.337-0.079-9.505-0.127-4.853-0.068-9.705-0.104-14.558-0.139-3.073-0.039-6.147-0.081-9.221-0.125-1.455-7e-3 -2.91-0.015-4.41-0.022-1.354-0.026-2.709-0.053-4.104-0.08-1.191-0.015-2.382-0.029-3.609-0.045-3.788-0.636-5.455-1.863-8.169-4.532-1.18-2.403-1.18-2.403-1.875-4.938-0.123-0.417-0.123-0.417-0.743-2.527-0.432-2.866-0.286-4.783 0.618-7.535 3.483-2.322 4.98-2.29 9.104-2.386z"/>
</svg>
