<?xml version="1.0" encoding="UTF-8"?>
<svg version="1.1" viewBox="0 0 2744 1144" xmlns="http://www.w3.org/2000/svg">
<path transform="translate(821.28 322.73)" d="m0 0c0.927-5e-3 1.855-0.01 2.81-0.015 3.061-0.014 6.122-0.013 9.182-0.011 2.131-4e-3 4.262-8e-3 6.393-0.013 4.464-8e-3 8.929-7e-3 13.393-2e-3 5.718 6e-3 11.435-0.011 17.153-0.034 4.4-0.015 8.8-0.016 13.2-0.013 2.108 0 4.216-6e-3 6.324-0.016 2.949-0.012 5.897-5e-3 8.846 6e-3 0.868-7e-3 1.736-0.015 2.631-0.023 5.02 0.044 8.574 0.599 12.783 3.396 4.296 5.728 5.027 10.48 5.375 17.5 0.498 8.472 2.208 17.061 5.672 24.855 1.392 3.863 1.753 7.842 2.266 11.895 1.1 8.028 2.978 15.443 5.429 23.179 1.756 6.38 2.786 12.835 3.738 19.379 0.878 5.677 2.354 10.472 4.608 15.747 1.481 3.971 1.864 8.001 2.35 12.195 0.78 6.076 1.787 11.518 4.062 17.25 2.515 6.369 3.462 12.673 4.338 19.413 0.947 6.936 2.789 13.34 4.904 20.016 1.756 6.38 2.786 12.835 3.738 19.379 0.721 4.661 1.638 8.768 3.516 13.106 2.436 5.698 3.201 11.411 4.004 17.523 0.826 6.257 1.681 12.108 4 18.004 2.839 7.286 3.485 14.816 4.422 22.531 0.717 5.434 1.549 10.359 3.578 15.465 3.013 7.66 3.511 15.702 4.422 23.824 0.836 6.841 2.144 12.715 4.682 19.112 1.521 4.458 1.788 8.951 2.084 13.627 0.069 0.907 0.138 1.815 0.209 2.75 0.138 1.818 0.271 3.637 0.398 5.457 0.338 4.603 0.776 9.197 1.205 13.793 2.31 0.33 4.62 0.66 7 1 4.47-12.74 7.316-25.244 8.924-38.631 0.997-8.186 2.214-16.313 5.076-24.084 1.328-4.364 1.861-8.776 2.438-13.285 1.273-9.393 2.798-18.671 5.347-27.817 1.738-6.279 2.565-12.386 3.09-18.871 0.665-8.028 2.419-15.086 4.902-22.773 1.431-5.313 2.111-10.52 2.723-15.977 0.794-7.065 1.909-13.609 4-20.437 2.185-7.217 3.23-14.159 4-21.625 0.941-9.115 2.631-17.258 5.305-26.032 1.584-5.923 2.38-11.844 3.172-17.914 1.079-8.251 2.573-16.352 4.808-24.371 1.75-6.321 2.566-12.467 3.09-18.996 0.503-6.112 1.374-11.613 3.563-17.375 2.469-6.62 3.303-12.897 4-19.875 3.417-33.792 3.417-33.792 11.562-41.937 3.264-0.21 6.444-0.294 9.711-0.291 1.008-7e-3 2.016-0.013 3.055-0.02 3.346-0.019 6.692-0.023 10.039-0.025 2.319-7e-3 4.638-0.013 6.958-0.02 4.867-0.012 9.734-0.016 14.602-0.015 6.244 0 12.487-0.027 18.73-0.061 4.792-0.023 9.584-0.027 14.377-0.026 2.302-2e-3 4.604-0.011 6.906-0.026 3.218-0.02 6.435-0.014 9.653-2e-3 0.955-0.011 1.91-0.023 2.894-0.034 3.792 0.036 6.426 0.072 9.601 2.261 2.446 3.748 3.331 7.985 4.474 12.259 0.496 1.518 0.993 3.037 1.504 4.601 1.71 5.664 2.296 11.279 2.871 17.149 0.891 8.114 2.349 15.017 5.441 22.605 1.792 5.517 2.285 11.168 2.948 16.903 0.999 8.101 2.937 15.763 5.113 23.617 1.765 6.464 2.847 12.746 3.568 19.414 0.779 5.207 2.247 10.179 3.669 15.243 1.617 5.956 2.616 11.848 3.386 17.968 0.861 6.837 2.126 13.282 4 19.937 1.945 6.923 3.156 13.615 4 20.75 0.948 7.983 2.704 15.091 5.316 22.719 1.601 5.534 2.249 11.108 2.945 16.807 0.906 6.942 2.494 13.545 4.364 20.287 1.958 7.066 3.341 13.577 3.606 20.937 0.602 6.849 2.52 14.059 5.276 20.367 1.133 3.075 1.54 5.887 1.923 9.141 0.156 1.243 0.312 2.485 0.472 3.766 0.313 2.585 0.62 5.171 0.922 7.757 0.88 6.936 2.208 12.963 4.784 19.454 1.476 4.265 1.779 8.536 2.08 13.015 0.073 0.906 0.146 1.812 0.222 2.745 0.143 1.788 0.281 3.577 0.411 5.366 0.238 3.257 0.522 6.51 0.804 9.764 0.124 1.547 0.248 3.094 0.375 4.688h8c0.124-0.382 0.124-0.382 0.75-2.313 0.666-1.964 1.352-3.925 2.168-5.832 2.844-6.918 3.898-13.818 4.867-21.183 0.754-5.401 1.92-10.31 3.715-15.485 2.239-6.584 3.235-12.878 4-19.75 0.897-8.04 2.471-15.029 5.313-22.64 1.415-4.528 2.08-9.048 2.687-13.735 0.798-6.142 1.917-11.877 3.938-17.75 2.709-7.965 3.938-15.957 5.042-24.27 0.865-6.156 2.33-11.485 4.577-17.271 1.643-4.828 2.206-9.796 2.881-14.834 1.339-9.183 3.249-17.769 5.906-26.664 1.617-5.978 2.479-12.017 3.414-18.133 0.642-3.583 1.496-6.773 2.68-10.203 2.485-7.399 3.45-15.032 4.492-22.742 0.895-6.246 2.377-11.704 4.66-17.578 1.401-4.03 1.849-8.081 2.348-12.305 0.821-6.331 1.974-12.123 4.062-18.187 2.497-7.342 3.444-14.464 4.334-22.122 0.828-6.641 2.521-12.332 5.037-18.55 1.788-5.469 2.141-11.024 2.574-16.738 0.559-3.741 1.274-5.741 3.555-8.715 4.075-2.717 7.755-2.28 12.489-2.259 0.972-4e-3 1.945-7e-3 2.947-0.011 3.221-9e-3 6.441-3e-3 9.662 4e-3 2.233-1e-3 4.466-3e-3 6.699-6e-3 4.681-3e-3 9.363 2e-3 14.044 0.011 6.012 0.011 12.023 5e-3 18.035-7e-3 4.611-7e-3 9.222-5e-3 13.833 0 2.217 1e-3 4.434 0 6.652-5e-3 3.093-5e-3 6.186 3e-3 9.28 0.014 0.923-4e-3 1.846-8e-3 2.797-0.012 6.334 0.042 6.334 0.042 8.562 2.271 0.506 4.3 0.331 6.453-1.934 10.195-2.332 4.294-2.894 7.661-3.503 12.492-0.996 6.716-2.524 12.078-5.375 18.188-1.468 3.861-2.056 7.608-2.688 11.687-0.783 5.014-1.584 9.189-3.937 13.688-3.103 6.038-4.006 12.405-5.043 19.051-0.731 4.438-1.643 8.292-3.555 12.378-1.868 4.108-2.697 7.388-3.34 11.821-1.268 7.472-3.563 14.16-6.211 21.242-1.823 5.489-2.765 10.956-3.578 16.672-0.836 3.586-0.836 3.586-2.832 7.004-2.339 4.18-2.844 7.532-3.441 12.269-0.996 6.716-2.524 12.078-5.375 18.188-1.468 3.861-2.056 7.608-2.688 11.687-0.783 5.014-1.584 9.189-3.937 13.688-3.103 6.038-4.006 12.405-5.043 19.051-0.731 4.438-1.643 8.292-3.555 12.378-1.868 4.108-2.697 7.388-3.34 11.821-1.268 7.472-3.563 14.16-6.211 21.242-1.823 5.489-2.765 10.956-3.578 16.672-0.836 3.586-0.836 3.586-2.832 7.004-2.339 4.18-2.844 7.532-3.441 12.269-0.996 6.716-2.524 12.078-5.375 18.188-1.468 3.861-2.056 7.608-2.688 11.687-0.783 5.014-1.584 9.189-3.937 13.688-3.103 6.038-4.006 12.405-5.043 19.051-0.731 4.438-1.643 8.292-3.555 12.378-1.868 4.108-2.697 7.388-3.34 11.821-1.268 7.472-3.563 14.16-6.211 21.242-1.823 5.489-2.765 10.956-3.578 16.672-0.836 3.586-0.836 3.586-2.832 7.004-2.339 4.18-2.844 7.532-3.441 12.269-0.996 6.716-2.524 12.078-5.375 18.188-1.468 3.861-2.056 7.608-2.688 11.687-0.983 6.301-2.485 11.29-5.375 16.942-1.193 2.646-1.717 5.013-2.187 7.871-0.964 4.753-1.404 6.442-4.938 9.625-3.94 0.59-3.94 0.59-8.82 0.539-0.445-1e-3 -0.445-1e-3 -2.697-8e-3 -2.941-0.015-5.881-0.067-8.823-0.121-2.045-0.022-4.09-0.042-6.135-0.06-4.286-0.044-8.572-0.106-12.859-0.181-5.492-0.094-10.984-0.149-16.477-0.191-4.223-0.036-8.446-0.091-12.67-0.152-2.024-0.027-4.049-0.049-6.074-0.065-2.833-0.026-5.664-0.078-8.495-0.136-1.612-0.024-3.223-0.048-4.883-0.073-4.385-0.596-6.113-1.31-9.067-4.552-0.969-3.766-0.969-3.766-1.5-8.25-0.839-5.985-1.902-11.377-3.937-17.063-2.991-8.883-4.002-17.944-5.043-27.222-0.797-6.691-2.092-12.384-4.572-18.636-2.205-6.582-2.575-13.669-3.37-20.534-0.821-6.49-2.035-11.923-4.668-17.902-1.594-4.193-1.902-8.519-2.347-12.956-0.983-8.404-2.793-16.029-5.375-24.105-1.341-4.892-2.058-9.684-2.688-14.707-0.854-6.813-2.073-13.244-3.937-19.875-2.393-8.518-3.856-17.009-5.043-25.773-0.743-5.19-1.754-9.938-3.516-14.884-2.659-7.546-3.461-15.207-4.426-23.115-0.864-6.525-2.26-12.136-4.664-18.252-1.919-5.726-2.145-11.784-2.691-17.765-0.65-6.21-1.994-11.402-4.269-17.205-1.634-4.721-2.175-9.571-2.829-14.506-1.385-9.548-3.407-18.694-5.979-27.985-2.072-7.609-3.313-15.128-4.431-22.937-1.381-8.362-4.02-16.314-6.715-24.328-3.437 0.25-3.437 0.25-7 1-0.807 3.229-1.186 5.801-1.359 9.078-0.678 10.928-1.789 20.51-5.489 30.89-1.35 4.726-1.761 9.342-2.089 14.219-0.511 7.395-1.76 13.999-4 21.063-2.799 8.849-4.022 17.438-4.949 26.656-0.836 7.844-2.618 15.022-4.926 22.574-1.357 5.161-2.061 10.23-2.688 15.52-1.005 8.453-2.859 16.249-5.305 24.422-1.562 5.982-2.374 11.958-3.169 18.08-1.03 7.87-2.276 15.741-5.026 23.216-1.335 4.382-1.86 8.816-2.437 13.344-2.499 18.503-2.499 18.503-5.575 26.602-1.392 4.698-1.739 9.41-2.238 14.273-1.057 9.435-2.96 18.268-5.553 27.388-2.212 8.045-3.339 16.04-4.084 24.345-0.485 4.927-1.291 9.147-3.109 13.767-2.3 5.889-2.899 11.55-3.441 17.813-0.873 8.599-2.337 16.132-5.438 24.246-1.689 5.26-2.073 10.552-2.473 16.043-0.774 4.11-1.59 5.621-4.652 8.461-3.857 0.583-3.857 0.583-8.621 0.523-0.868-4e-3 -1.737-8e-3 -2.632-0.013-2.872-0.02-5.742-0.077-8.614-0.135-1.998-0.025-3.996-0.047-5.993-0.067-4.189-0.049-8.376-0.115-12.564-0.194-5.362-0.1-10.724-0.165-16.087-0.218-4.126-0.043-8.253-0.102-12.379-0.165-1.977-0.029-3.953-0.055-5.93-0.076-2.767-0.033-5.534-0.086-8.301-0.144-1.573-0.026-3.146-0.052-4.768-0.079-4.128-0.434-6.63-1.218-10.111-3.432-2.24-3.845-2.614-8.147-3.312-12.5-1.164-6.511-2.967-12.187-5.497-18.274-1.692-4.583-2.516-9.253-3.445-14.039-0.807-3.449-2.214-6.363-3.781-9.527-1.363-3.757-1.819-7.523-2.402-11.473-1-6.663-2.545-11.998-5.375-18.062-1.468-3.862-2.056-7.608-2.688-11.688-0.972-6.232-2.473-11.001-5.312-16.578-1.977-4.759-2.538-9.77-3.379-14.832-0.766-3.814-1.843-7.157-3.246-10.777-2.176-5.683-3.473-11.343-4.563-17.313-1.278-6.981-3.086-13.309-5.844-19.851-1.696-4.527-2.491-9.164-3.41-13.899-0.807-3.449-2.214-6.363-3.781-9.527-1.363-3.757-1.819-7.523-2.402-11.473-1-6.663-2.545-11.998-5.375-18.062-1.468-3.862-2.056-7.608-2.688-11.688-0.972-6.232-2.473-11.001-5.312-16.578-1.977-4.759-2.538-9.77-3.379-14.832-0.766-3.814-1.843-7.157-3.246-10.777-2.176-5.683-3.473-11.343-4.563-17.313-1.278-6.981-3.086-13.309-5.844-19.851-1.696-4.527-2.491-9.164-3.41-13.899-0.807-3.449-2.214-6.363-3.781-9.527-1.363-3.757-1.819-7.523-2.402-11.473-1-6.663-2.545-11.998-5.375-18.062-1.468-3.862-2.056-7.608-2.688-11.688-0.972-6.232-2.473-11.001-5.312-16.578-1.977-4.759-2.538-9.77-3.379-14.832-0.766-3.814-1.843-7.157-3.246-10.777-2.176-5.683-3.473-11.343-4.563-17.313-1.278-6.981-3.086-13.309-5.844-19.851-1.661-4.433-2.477-8.947-3.285-13.602-0.896-3.583-2.339-6.667-3.884-10.008-1.774-4.451-2.503-9.082-3.299-13.789-0.182-0.975-0.363-1.95-0.549-2.955-0.764-4.329-1.217-7.421-0.139-11.732 4.357-2.71 9.32-2.289 14.285-2.275z"/>
<path transform="translate(480.16 321.87)" d="m0 0c0.6-2e-3 0.6-2e-3 3.635-0.01 0.644 1e-3 0.644 1e-3 3.901 7e-3 0.673-1e-3 0.673-1e-3 4.076-3e-3 2.85-1e-3 5.7 1e-3 8.551 5e-3 4.301 5e-3 8.602 0 12.903-6e-3 13.015-3e-3 25.98 0.058 38.97 0.922 2.672 0.151 5.35 0.206 8.026 0.19 3.749 0.024 7.067 0.664 10.717 1.458 3.777 0.7 7.55 1.101 11.371 1.504 6.951 0.744 13.885 1.56 20.812 2.5 0.864 0.11 1.728 0.22 2.619 0.334 6.509 0.905 12.222 2.678 18.069 5.666 2.837 1.391 5.588 2.452 8.562 3.5 4.748 1.69 9.156 3.718 13.625 6.062 1.465 0.681 2.929 1.362 4.438 2.063 3.562 1.937 3.562 1.937 4.562 4.937 1.991 0.695 3.993 1.356 6 2 2.049 1.258 4.042 2.607 6 4 0.754 0.519 1.508 1.037 2.285 1.571 15.834 10.914 15.834 10.914 21.715 18.429 2.536 2.667 4.983 4.988 7.938 7.188 3.392 3.115 5.182 6.166 7.429 10.137 1.69 2.769 3.565 5.179 5.633 7.675 3.359 4.071 6.073 8.26 8.695 12.832 1.305 2.168 1.305 2.168 3.43 4.668 2.364 3.153 3.496 6.426 4.871 10.098 1.004 2.402 1.004 2.402 3.067 5.277 2.378 3.836 3.084 7.431 3.933 11.832 1.004 3.293 1.004 3.293 3.438 7.317 3.406 5.906 4.179 12.124 5.191 18.789 1.262 7.899 2.609 15.652 4.705 23.378 1.362 5.709 1.805 11.315 1.891 17.172 0.023 1.452 0.047 2.903 0.07 4.399 0.02 1.572 0.04 3.145 0.061 4.766 0.023 1.677 0.047 3.355 0.072 5.032 0.075 5.459 0.139 10.919 0.201 16.378 0.011 0.929 0.022 1.858 0.033 2.815 0.325 27.794 0.41 55.578 0.092 83.372-0.013 1.497-0.025 2.994-0.039 4.537-0.185 20.009-1.679 38.168-6.812 57.581-0.854 3.572-1.388 7.053-1.836 10.695-0.703 5.091-2.13 8.567-4.844 12.891-1.319 2.349-1.977 4.506-2.656 7.109-1.302 4.799-3.5 8.517-6.157 12.691-1.406 2.371-1.406 2.371-2.906 6.434-1.844 4.84-4.55 8.73-7.5 12.937-0.912 1.363-1.825 2.725-2.765 4.129l-2.985 4.434c-0.484 0.728-0.968 1.455-1.467 2.205-1.21 1.78-2.49 3.511-3.783 5.232h-2c-0.683 1.66-1.346 3.329-2 5-2.536 4.286-5.049 7.013-9 10-2.851 2.705-5.346 5.432-7.812 8.5-2.818 3.094-5.316 5.032-8.907 7.118-5.582 3.383-10.864 7.394-15.902 11.539-2.379 1.843-2.379 1.843-5.754 3.281-3.625 1.562-3.625 1.562-7 4.062-4.076 2.812-7.933 3.981-12.625 5.5-0.928 0.637-1.856 1.274-2.812 1.93-3.481 2.261-6.669 3.406-10.625 4.633-7.137 2.232-7.137 2.232-10.557 3.879-26.299 10.23-60.047 5.994-87.693 5.775-10.254-0.077-20.508-0.114-30.762-0.156-3.559-0.017-7.119-0.043-10.678-0.071-2.166-0.014-4.333-0.027-6.5-0.04-0.491-5e-3 -0.491-5e-3 -2.976-0.03-4.295-0.02-8.206 0.215-12.397 1.08-2.8 0.137-5.603 0.225-8.406 0.282-1.631 0.037-3.261 0.074-4.941 0.113-2.581 0.054-5.162 0.106-7.742 0.158-2.502 0.052-5.003 0.109-7.505 0.166-0.746 0.015-0.746 0.015-4.521 0.092-3.885 0.189-3.885 0.189-6.346 0.703-3.859 0.739-7.642 0.577-11.566 0.549-0.867-4e-3 -1.733-8e-3 -2.626-0.012-3.693-0.016-7.386-0.044-11.079-0.071-2.703-0.018-5.405-0.03-8.108-0.042-0.806-6e-3 -0.806-6e-3 -4.886-0.035-3.579 0.082-6.771 0.445-10.274 1.097-3.197 0.095-6.366 0.142-9.562 0.125-0.898-2e-3 -1.796-3e-3 -2.721-5e-3 -4.641-0.031-9.218-0.174-13.842-0.62-5.348-0.508-10.613-0.489-15.977-0.417-10.108 0.126-19.8-0.146-29.776-1.814-5.003-0.835-9.96-1.467-15.016-1.89-12.756-1.081-23.707-2.601-35.446-7.812-3.218-1.378-5.913-2.164-9.347-2.692-4.943-1.002-7.314-2.875-11.313-5.875-1.689-0.732-3.4-1.418-5.125-2.062-3.964-1.488-6.597-3.234-9.875-5.938-1.652-0.861-3.321-1.692-5-2.5-3.769-1.817-6.777-3.814-10-6.5-1.052-0.495-2.104-0.99-3.187-1.5-2.813-1.5-2.813-1.5-4.813-5.5l-4-2c-1.689-1.644-3.353-3.313-5-5-0.99-0.804-1.98-1.608-3-2.437-3.079-2.63-5.451-5.425-8-8.563-0.392-0.391-0.392-0.391-2.375-2.375-6.049-6.049-11.018-12.428-15.625-19.625-5.504-8.413-5.504-8.413-8.062-11.437-10.32-13.648-17.16-33.771-20.254-50.375-0.868-4.047-2.253-7.765-3.817-11.59-9.652-28.913-3.021-70.433-2.997-100.61 6e-3 -7.255 2e-3 -14.51-4e-3 -21.765-3e-3 -5.678-2e-3 -11.355 0-17.032 1e-3 -2.674 0-5.347-2e-3 -8.021-9e-3 -12.815 0.059-25.615 0.559-38.422 0.035-0.956 0.071-1.913 0.107-2.898 0.396-8.911 0.855-18.776 4.99-26.802 1.746-3.598 2.224-6.786 2.793-10.738 1.121-6.455 2.841-11.19 6.222-16.754 1.472-2.571 2.412-5.001 3.34-7.809 3.67-10.614 9.397-20.218 16.184-29.117 2.028-2.75 3.794-5.587 5.566-8.508 2.649-4.247 5.353-7.085 9.375-10.125 0.743-0.928 1.485-1.856 2.25-2.812 0.578-0.722 1.155-1.444 1.75-2.188h2l2-4c1.288-1.377 2.628-2.706 4-4 0.805-0.825 1.609-1.65 2.438-2.5 6.662-6.5 6.662-6.5 9.562-6.5l2-4c2.391-1.781 2.391-1.781 5.25-3.5 0.99-0.604 1.98-1.209 3-1.832 0.908-0.55 1.815-1.1 2.75-1.668 1.073-0.721 2.145-1.443 3.25-2.187 5.997-3.952 12.196-6.9 18.75-9.813 3.171-1.743 6.268-3.523 9.301-5.496 2.996-1.669 5.839-2.571 9.137-3.504 3.279-0.929 6.158-1.769 9.123-3.462 4.471-1.999 8.906-2.607 13.722-3.195 1.009-0.127 2.017-0.253 3.057-0.383 11.701-1.35 23.372-1.42 35.137-1.436 2.354-0.015 4.708-0.03 7.062-0.047 6.117-0.042 12.233-0.067 18.35-0.088 9.85-0.036 19.699-0.097 29.549-0.158 3.424-0.019 6.848-0.031 10.272-0.042 2.088-0.01 4.177-0.02 6.265-0.031 0.947-1e-3 1.893-2e-3 2.868-3e-3 4.183-0.026 8.084-0.188 12.157-1.155 2.8-0.136 5.603-0.224 8.406-0.281 0.816-0.019 0.816-0.019 4.942-0.113 2.58-0.054 5.161-0.106 7.742-0.158 2.501-0.052 5.002-0.109 7.504-0.166 1.492-0.031 2.984-0.061 4.521-0.092 3.139-0.153 5.83-0.578 8.885-1.19 2.425-0.069 4.852-0.084 7.278-0.062 0.7 4e-3 0.7 4e-3 4.244 0.023l8.82 0.078c1.402 8e-3 2.804 0.016 4.248 0.024 1.277 0.011 2.555 0.023 3.871 0.035 3.539-0.098 3.539-0.098 6.375-0.596 3.169-0.502 6.121-0.629 9.327-0.631zm-69.018 60.703c-20.191 0.27-40.377 0.468-60.571 0.422-0.453 0-0.453 0-2.745-5e-3 -7.851-0.015-15.702-0.033-23.552-0.084-4.679-0.03-9.359-0.049-14.039-0.067-1.359-0.013-2.718-0.027-4.119-0.041-12.087-0.031-22.081 1.142-33.119 6.201-2.2 0.517-4.409 0.994-6.625 1.438-5.551 1.184-8.853 3.065-13.375 6.562-1.689 0.734-3.399 1.419-5.125 2.063-3.941 1.48-6.67 3.166-9.875 5.937-1.155 0.64-2.31 1.279-3.5 1.938-3.487 2.055-5.689 4.183-8.5 7.062-1.279 0.887-2.557 1.774-3.875 2.688-4.052 2.966-6.406 6.36-9.133 10.531-2.32 3.24-4.933 6.021-7.679 8.906-4.117 4.393-6.902 8.311-9.313 13.875-0.845 1.3-1.691 2.599-2.562 3.938-2.568 4.279-3.924 8.322-5.438 13.062-0.635 1.143-1.271 2.285-1.926 3.461-2.644 5.786-3.632 11.424-4.699 17.664-0.405 2.295-0.814 4.59-1.226 6.883-0.174 1.007-0.347 2.014-0.526 3.051-0.623 2.941-0.623 2.941-1.623 5.727-1.774 5.703-1.775 11.603-2.113 17.539-0.084 1.446-0.169 2.893-0.256 4.384-0.923 17.486-0.894 34.97-0.826 52.474 0.01 3.516 0.01 7.031 0.01 10.547 2e-3 68.417 2e-3 68.417 6.252 89.868 0.851 3.103 1.408 6.098 1.871 9.277 0.765 4.626 2.409 7.909 4.843 11.879 1.301 2.398 1.974 4.611 2.657 7.246 1.267 4.663 3.356 8.065 6.152 11.973 1.41 2.027 1.41 2.027 2.973 5.215 1.73 3.386 3.941 5.951 6.437 8.812 0.66 0.846 1.32 1.692 2 2.563 3.035 3.698 6.326 6.876 10 9.937 3 2.5 3 2.5 5.625 5.188 2.375 2.312 2.375 2.312 6.375 4.312l2 4c4 3 4 3 7.5 5s3.5 2 7.5 5c2.36 0.95 2.36 0.95 4.75 1.688 1.403 0.433 2.805 0.866 4.25 1.312v2c4.052 2.161 7.886 3.224 12.375 3.938 4.512 0.729 8.092 2.163 12.24 4.118 10.97 4.343 23.785 3.239 35.377 3.21 1.919 1e-3 3.837 3e-3 5.756 6e-3 4.002 3e-3 8.004-1e-3 12.007-0.011 5.088-0.011 10.177-5e-3 15.265 7e-3 3.957 8e-3 7.914 5e-3 11.871 0 1.875-1e-3 3.749 0 5.623 5e-3 28.58 0.056 28.58 0.056 38.846-5.273 3.818-1.446 7.667-1.859 11.703-2.437 6.936-1.041 11.105-2.609 16.937-6.563 2.171-0.567 4.362-1.061 6.563-1.5 5.611-1.141 8.873-2.969 13.437-6.5 2.521-1.11 5.077-2.068 7.656-3.035 3.07-1.263 5.605-3.1 8.344-4.965 1.485-0.639 2.97-1.278 4.5-1.937 4.26-1.952 6.996-4.025 10.5-7.063 1.991-1.017 3.992-2.015 6-3 6.134-3.828 11.876-7.875 17-13 0.784-0.453 1.568-0.907 2.375-1.375 2.625-1.625 2.625-1.625 4.938-3.937 2.687-2.688 2.687-2.688 6.14-5.16 5.842-4.338 10.858-9.51 15.985-14.653 0.985-0.969 1.971-1.938 2.986-2.937 6.551-6.547 12.198-13.406 17.576-20.938 0.495-0.66 0.495-0.66 3-4v-2h5c0.68 8.842-2.485 16.096-5.625 24.188-1.375 3.812-1.375 3.812-2.187 8.187-1.242 4.836-3.076 7.932-5.739 12.071-1.482 2.613-2.297 4.974-3.074 7.867-1.334 4.548-2.412 6.202-5.375 9.687-0.824 1.546-1.612 3.111-2.375 4.688-5.512 11.308-12.283 22.635-21.687 31.125-2.938 3.187-2.938 3.187-3.563 7 0.206 1.052 0.413 2.104 0.625 3.187 4.274 2.85 8.442 2.286 13.414 2.266 1.043 2e-3 2.086 4e-3 3.161 6e-3 2.218 1e-3 4.435-3e-3 6.653-0.011 3.336-0.01 6.671 0 10.007 0.013 31.6 0.022 31.6 0.022 40.39-4.211 4.164-1.963 7.318-2.68 11.813-3.438 6.055-1.103 10.35-2.802 15.433-6.218 2.129-1.407 2.129-1.407 5.692-2.907 10.437-4.554 20.437-12.576 27.437-21.5 2.316-2.02 4.649-4.02 7-6 4.25-3.731 6.797-7.802 9.59-12.652 1.41-2.348 1.41-2.348 3.535-4.91 1.804-2.345 2.787-4.358 3.938-7.063 1.937-4.375 1.937-4.375 4.937-7.375 1.028-3.257 1.028-3.257 1.938-7.125 1.028-4.353 2.138-8.033 4.086-12.078 2.589-5.623 3.08-11.312 3.664-17.422 0.121-1.145 0.242-2.291 0.366-3.471 0.757-7.338 1.372-14.679 1.735-22.048 0.211-2.856 0.211-2.856 0.714-4.996 0.669-3.846 0.646-7.569 0.665-11.473 4e-3 -0.838 8e-3 -1.675 0.013-2.539 9e-3 -2.72 9e-3 -5.44 7e-3 -8.16 0-0.93 0-1.86 1e-3 -2.818-6e-3 -11.484-0.273-22.856-1.402-34.291-1.686-17.242-1.832-34.579-1.775-51.891 1e-3 -0.539 1e-3 -0.539 9e-3 -3.269 0.018-5.388 0.05-10.775 0.104-16.163 0.227-30.317 0.227-30.317-7.125-41.256-0.546-2.129-1.02-4.278-1.437-6.437-1.292-6.339-3.658-10.492-7.563-15.563-0.619-0.948-1.237-1.897-1.875-2.875-5.388-7.923-10.56-15.434-18.062-21.5-3.063-2.625-3.063-2.625-5.875-6-5.237-5.955-11.543-10.343-18.188-14.625-0.907-0.66-1.815-1.32-2.75-2-3.507-2.158-6.986-3.544-10.824-5-2.426-1-2.426-1-5.676-3-4.64-2.474-9.305-3.689-14.367-5.054-3.89-1.087-7.611-2.506-11.383-3.946-3.943-0.968-7.731-1.19-11.784-1.312-0.682-0.02-0.682-0.02-4.13-0.125-1.478-0.039-2.957-0.077-4.48-0.117-1.555-0.042-3.109-0.084-4.711-0.128-16.988-0.423-33.974-0.473-50.967-0.446-2.675 3e-3 -5.351 5e-3 -8.026 6e-3 -29.922 0.015-59.838 0.294-89.757 0.696z"/>
<path transform="translate(2093 323.74)" d="m0 0c0.823-4e-3 1.646-7e-3 2.494-0.011 2.729-8e-3 5.459-3e-3 8.188 4e-3 1.893-1e-3 3.787-3e-3 5.68-6e-3 3.973-3e-3 7.946 2e-3 11.919 0.011 5.093 0.011 10.186 5e-3 15.28-7e-3 3.912-7e-3 7.824-5e-3 11.736 0 1.877 1e-3 3.755 0 5.633-5e-3 2.626-5e-3 5.252 3e-3 7.879 0.014 0.747 1e-3 0.747 1e-3 4.53 5e-3 3.695 0.254 3.695 0.254 7.695 2.254 2.681 5.31 2.273 11.048 2.24 16.858 2e-3 1.095 4e-3 2.191 5e-3 3.319 4e-3 3.671-7e-3 7.342-0.018 11.014-1e-3 2.631-1e-3 5.262 1e-3 7.894 0 7.146-0.012 14.292-0.026 21.438-0.012 7.467-0.013 14.935-0.016 22.402-6e-3 14.141-0.022 28.283-0.042 42.424-0.023 16.099-0.034 32.198-0.044 48.297-0.021 33.118-0.056 66.236-0.1 99.354 6.315-0.598 8.879-1.071 13-6 0.454-0.479 0.454-0.479 2.754-2.903 0.926-1.001 1.853-2.003 2.808-3.035 0.465-0.499 0.465-0.499 2.817-3.027 2.621-3.035 2.621-3.035 4.601-6.023 2.303-3.435 4.921-6.266 7.77-9.262 5.946-6.36 11.633-12.788 16.437-20.063 1.998-2.962 4.227-5.228 6.813-7.687 2.669-2.602 5.14-5.173 7.5-8.063 2.5-2.937 2.5-2.937 5.062-4.937 2.899-2.379 4.377-4.852 6.438-8 4.397-5.745 9.016-11.126 14.187-16.188 4.785-4.688 8.676-9.472 12.297-15.133 3.064-4.785 5.947-8.18 10.516-11.679 2.354-2.234 4.578-4.494 6.656-6.988 0.588-0.706 1.176-1.411 1.781-2.137 0.535-0.663 1.07-1.325 1.621-2.008 5.461-5.252 11.316-5.287 18.537-5.208 1.054 0 2.108-1e-3 3.195-1e-3 3.473 2e-3 6.947 0.025 10.421 0.049 2.412 5e-3 4.825 0.01 7.238 0.013 6.343 0.011 12.685 0.041 19.027 0.074 6.476 0.031 12.951 0.044 19.426 0.059 12.699 0.032 25.399 0.084 38.098 0.147 1 4 1 4-0.078 6.851-2.212 3.624-4.742 6.453-7.672 9.524-6.792 7.191-6.792 7.191-9.875 10.812-2.631 3.053-5.433 5.869-8.313 8.688-5.732 5.671-10.805 11.706-15.25 18.437-1.997 2.962-4.227 5.228-6.812 7.688-2.648 2.582-5.104 5.127-7.438 8-2.562 3-2.562 3-5.375 5.25-3.587 3.095-6.276 6.473-9.179 10.199-2.339 2.971-4.799 5.807-7.309 8.633-1.114 1.257-2.216 2.525-3.305 3.805-3.419 4.004-7.009 7.738-10.769 11.425-5.31 5.252-9.974 10.856-14.625 16.688-1.097 1.298-2.201 2.59-3.313 3.875-1.64 1.907-3.252 3.839-4.812 5.812-1.875 2.313-1.875 2.313-4.125 3.938-2.969 4.028-2.322 8.558-1.75 13.375 1.125 3.062 1.125 3.062 3 6 0.437 0.759 0.874 1.518 1.324 2.301 2.383 4.121 4.852 8.022 7.801 11.761 2.521 3.453 4.182 6.638 5.808 10.571 1.958 4.346 4.556 8.324 7.067 12.367 0.515 0.866 1.031 1.732 1.562 2.625 1.059 1.75 2.197 3.453 3.375 5.125 2.063 3.25 2.063 3.25 4.063 7.812 1.74 3.862 3.366 6.228 6 9.438 1.35 2.658 2.683 5.325 4 8l2 3c2 3 2 3 4 7.062 2 3.938 2 3.938 3.937 6.313 1.867 2.376 3.014 4.422 4.313 7.125 1.963 4.065 4.16 7.865 6.562 11.687 3.729 5.955 7.034 12.071 10.305 18.285 6.024 11.287 6.024 11.287 10.008 16.09 2.679 3.483 4.095 7.433 5.875 11.438 1.328 1.671 2.661 3.337 4 5 1.32 2.498 2.546 5.033 3.773 7.578 1.227 2.422 1.227 2.422 3.352 5.609 1.875 2.813 1.875 2.813 3.312 6.313 1.563 3.5 1.563 3.5 3.938 6.312 2.732 3.318 4.39 6.48 6.238 10.328 1.582 3.263 3.25 6.469 4.949 9.672 0.558 1.059 1.117 2.117 1.692 3.207 1.746 2.981 1.746 2.981 3.906 5.571 2.751 3.603 2.709 6.977 2.84 11.41-3.553 1.776-7.746 1.219-11.663 1.269-0.502 8e-3 -0.502 8e-3 -3.041 0.049-3.332 0.052-6.664 0.096-9.996 0.139-1.136 0.015-2.273 0.03-3.444 0.046-6.019 0.079-12.038 0.151-18.056 0.219-6.217 0.072-12.433 0.167-18.649 0.267-4.779 0.073-9.559 0.127-14.338 0.177-2.291 0.027-4.583 0.061-6.874 0.102-3.21 0.056-6.419 0.086-9.629 0.11-0.473 0.011-0.473 0.011-2.862 0.067-7.421 0.012-11.872-1.929-17.136-7.07-2.403-3.508-3.746-6.776-5.222-10.731-2.554-6.197-6.433-11.705-10.215-17.207-1.977-2.917-3.556-5.759-4.938-9-1.937-4.437-1.937-4.437-4.5-8.375-2.051-3.418-3.046-5.753-4.062-9.5-0.454-1.505-0.908-3.011-1.375-4.562-0.99-0.33-1.98-0.66-3-1-1.465-2.512-1.465-2.512-2.938-5.688-2.091-4.373-4.352-8.291-7.062-12.312-2.563-4.771-4.857-9.627-6.938-14.625-1.833-3.889-3.892-6.915-6.551-10.27-2.205-3.072-3.738-6.394-5.359-9.801-1.152-2.304-1.152-2.304-3.215-5.304-1.719-2.661-2.759-4.939-3.875-7.875-1.48-3.849-3.204-7.198-5.519-10.633-1.313-2.12-2.482-4.327-3.618-6.547-0.189-0.364-0.189-0.364-1.145-2.208-1.118-2.165-2.211-4.341-3.304-6.518-2.476-3.219-2.476-3.219-5.976-3.918-3.876 0.774-5.34 1.647-8.125 4.386-0.761 0.735-1.521 1.47-2.305 2.227-0.683 0.688-1.366 1.377-2.07 2.086-0.908 0.845-1.815 1.691-2.75 2.562-2.25 2.438-2.25 2.438-4.688 5.938-2.574 3.515-5.162 5.808-8.562 8.5-3.086 2.854-5.649 5.808-8.125 9.187-2.875 3.813-2.875 3.813-5.875 5.813-1.216 4.862-1.107 9.468-1.066 14.44 4e-3 1.063 9e-3 2.125 0.014 3.219 0.01 2.307 0.023 4.614 0.038 6.921 0.022 3.653 0.036 7.305 0.047 10.958 0.034 10.386 0.076 20.771 0.138 31.156 0.038 6.353 0.061 12.705 0.074 19.057 8e-3 2.42 0.022 4.84 0.041 7.259 0.027 3.387 0.035 6.774 0.038 10.161 0.013 0.997 0.025 1.994 0.038 3.022-0.016 5.543-0.35 9.957-3.362 14.807-2.179 0.927-2.179 0.927-5 1-1.232 0.046-2.463 0.092-3.732 0.14-1.455 7e-3 -2.909 0.014-4.407 0.021-0.806 5e-3 -1.611 0.01-2.441 0.015-2.653 0.015-5.306 0.021-7.959 0.027-1.847 6e-3 -3.693 0.011-5.54 0.017-3.865 0.011-7.73 0.017-11.595 0.02-4.958 6e-3 -9.916 0.03-14.873 0.058-3.811 0.019-7.622 0.024-11.432 0.025-1.829 3e-3 -3.657 0.011-5.486 0.025-2.551 0.017-5.103 0.013-7.655 8e-3 -1.453 4e-3 -2.905 8e-3 -4.402 0.011-3.478-0.367-3.478-0.367-6.478-3.367-1.081-4.322-1.127-7.925-1.129-12.381-1e-3 -0.429-1e-3 -0.429-5e-3 -2.598-5e-3 -2.893-2e-3 -5.786 0-8.678-2e-3 -2.087-4e-3 -4.174-7e-3 -6.261-6e-3 -5.751-6e-3 -11.501-5e-3 -17.252 1e-3 -6.196-5e-3 -12.391-0.01-18.587-8e-3 -12.144-0.011-24.288-0.011-36.432-1e-3 -9.866-3e-3 -19.733-6e-3 -29.6-9e-3 -27.952-0.013-55.904-0.013-83.856v-4.569c0-1.51 0-3.019 1e-3 -4.575 0-24.478-0.01-48.957-0.024-73.436-0.014-25.112-0.021-50.224-0.02-75.337 0-14.107-3e-3 -28.215-0.013-42.323-9e-3 -12.009-0.012-24.018-5e-3 -36.028 3e-3 -6.131 3e-3 -12.262-5e-3 -18.393-8e-3 -5.608-7e-3 -11.215 2e-3 -16.823 2e-3 -2.033 0-4.067-6e-3 -6.1-7e-3 -2.755-2e-3 -5.51 7e-3 -8.265 0-1.533-1e-3 -3.066-1e-3 -4.645 0.593-9.17 3.296-11.11 12.216-11.12z"/>
<path transform="translate(1923 453.51)" d="m0 0c3.79 1.41 7.36 2.297 11.324 3.055 6.356 1.216 6.356 1.216 9.688 3.437v2c0.689 0.147 1.379 0.294 2.09 0.446 6.08 1.451 10.589 3.328 15.632 7.003 3.246 2.21 6.734 3.77 10.309 5.375 1.969 1.176 1.969 1.176 2.969 4.176l4 2c1.688 1.644 3.353 3.314 5 5 0.484 0.382 0.484 0.382 2.937 2.313 3.713 3.258 6.19 6.666 9.063 10.687 0.99 1.32 1.98 2.64 3 4 0.474 0.97 0.948 1.939 1.437 2.938 1.563 3.062 1.563 3.062 3.535 5.297 2.43 3.314 3.114 6.084 4.028 10.078 1.426 5.789 3.195 10.464 6 15.687 0.918 3.626 1.179 7.123 1.31 10.854 0.042 1.148 0.083 2.297 0.125 3.48 0.039 1.234 0.077 2.468 0.117 3.739 0.042 1.292 0.084 2.585 0.128 3.916 0.404 13.281 0.475 26.555 0.481 39.842 4e-3 2.638 0.01 5.276 0.015 7.914 0.013 7.06 0.019 14.121 0.024 21.181 3e-3 4.418 7e-3 8.836 0.011 13.255 0.014 13.849 0.024 27.698 0.028 41.547 4e-3 15.95 0.022 31.9 0.051 47.849 0.021 12.375 0.031 24.75 0.033 37.125 1e-3 7.377 7e-3 14.753 0.024 22.129 0.017 6.911 0.019 13.821 0.01 20.732 0 2.538 4e-3 5.076 0.014 7.614 0.012 3.455 7e-3 6.909-4e-3 10.363 4e-3 0.506 4e-3 0.506 0.025 3.065-0.038 5.205-0.167 7.095-3.392 11.395-3.782 0.515-3.782 0.515-8.615 0.534-0.88 8e-3 -1.76 0.017-2.667 0.026-2.914 0.022-5.827 0.016-8.742 7e-3 -2.024 5e-3 -4.048 0.011-6.072 0.018-4.245 0.011-8.49 6e-3 -12.735-8e-3 -5.44-0.018-10.879 6e-3 -16.319 0.041-4.182 0.022-8.363 0.021-12.544 0.012-2.006 0-4.011 6e-3 -6.016 0.021-2.807 0.018-5.611 3e-3 -8.417-0.02-1.596-1e-3 -3.193-2e-3 -4.837-3e-3 -4.945-0.769-6.089-1.629-9.036-5.628-0.482-3.577-0.658-6.669-0.606-10.243-5e-3 -1.042-0.01-2.084-0.015-3.157-0.01-3.497 0.016-6.993 0.041-10.489-1e-3 -2.506-3e-3 -5.011-8e-3 -7.516-5e-3 -5.4 5e-3 -10.799 0.027-16.199 0.034-8.549 0.029-17.098 0.02-25.648-0.017-19.707 0.015-39.414 0.049-59.121 0.029-18.03 0.049-36.059 0.028-54.089-9e-3 -8.486 7e-3 -16.972 0.042-25.459 0.016-5.301 0.012-10.601 2e-3 -15.902 0-2.444 8e-3 -4.888 0.026-7.332 0.114-16.642 0.212-33.769-11.606-46.845-0.681-0.887-1.362-1.774-2.063-2.687-10.851-12.952-23.685-19.26-40.437-21.063-1.832-0.108-3.666-0.19-5.5-0.25-0.575-0.026-0.575-0.026-3.485-0.156-7.996-0.199-15.281 0.612-23.078 2.383-2.923 0.657-5.787 1.107-8.75 1.523-13.667 3.645-28.533 18.525-35.687 30.25-1.356 2.957-2.575 5.931-3.727 8.973-1.273 3.027-1.273 3.027-3.32 6.398-2.137 3.971-2.88 7.188-3.578 11.629-0.219 1.341-0.439 2.681-0.664 4.063-0.235 1.629-0.47 3.258-0.711 4.937-0.083 0.494-0.083 0.494-0.499 2.993-1.743 11.316-1.774 22.506-1.741 33.918-1e-3 2.171-3e-3 4.343-6e-3 6.514-5e-3 4.646-4e-3 9.291 2e-3 13.937 8e-3 7.345-3e-3 14.69-0.017 22.035-0.038 20.876-0.056 41.752-0.045 62.629 7e-3 11.552-5e-3 23.105-0.036 34.658-0.019 7.303-0.015 14.607 4e-3 21.91 7e-3 4.534-7e-3 9.067-0.027 13.6-5e-3 2.104-1e-3 4.208 0.011 6.312 0.016 2.869 2e-3 5.735-0.021 8.604v4.865c-0.735 4.733-1.803 6.223-5.625 9.025-3.96 0.66-3.96 0.66-8.69 0.707-0.864 0.016-1.728 0.031-2.618 0.047-2.848 0.044-5.695 0.052-8.544 0.059-1.981 0.02-3.962 0.043-5.943 0.067-4.148 0.045-8.295 0.074-12.443 0.089-5.321 0.021-10.641 0.078-15.962 0.145-4.089 0.05-8.177 0.084-12.266 0.113-1.963 0.016-3.925 0.035-5.887 0.058-2.739 0.029-5.477 0.039-8.216 0.043-0.78 5e-3 -0.78 5e-3 -4.725 0.029-3.706-0.357-3.706-0.357-6.706-3.357-0.926-3.702-1.127-6.488-1.129-10.272-3e-3 -1.297-6e-3 -2.595-0.01-3.931 2e-3 -1.429 3e-3 -2.857 5e-3 -4.329-2e-3 -1.515-5e-3 -3.03-7e-3 -4.59-5e-3 -4.212-6e-3 -8.423-5e-3 -12.634 1e-3 -4.539-5e-3 -9.079-0.01-13.618-8e-3 -8.895-0.011-17.791-0.011-26.686-1e-3 -7.228-3e-3 -14.456-6e-3 -21.684-9e-3 -20.481-0.013-40.963-0.013-61.444v-3.347c0-1.106 0-2.212 1e-3 -3.352 0-17.931-0.01-35.862-0.024-53.793-0.014-18.401-0.021-36.801-0.02-55.201 0-10.335-3e-3 -20.67-0.013-31.005-9e-3 -8.798-0.012-17.595-5e-3 -26.393 3e-3 -4.491 3e-3 -8.982-5e-3 -13.472-9e-3 -4.864-3e-3 -9.727 4e-3 -14.59-5e-3 -1.426-0.01-2.852-0.015-4.322 4e-3 -1.3 9e-3 -2.599 0.014-3.939 0-1.123-1e-3 -2.246-1e-3 -3.403 0.351-4.209 1.251-6.996 4.25-9.995 2.716-0.201 5.442-0.266 8.165-0.274 0.845-6e-3 1.689-0.011 2.558-0.016 2.799-0.014 5.598-0.013 8.398-0.011 1.94-3e-3 3.881-8e-3 5.821-0.013 4.072-7e-3 8.143-7e-3 12.214-1e-3 5.224 5e-3 10.447-0.012 15.671-0.035 4.009-0.015 8.017-0.015 12.026-0.012 1.926-1e-3 3.852-6e-3 5.779-0.016 2.691-0.012 5.381-6e-3 8.073 6e-3 1.532-1e-3 3.065-1e-3 4.645-2e-3 3.65 0.374 3.65 0.374 6.65 3.374 1.845 10.006 1.123 20.738 1.062 30.875-4e-3 1.463-9e-3 2.926-0.013 4.434-0.012 3.564-0.028 7.127-0.049 10.691 7.29-0.405 7.29-0.405 10.398-3.012 0.326-0.441 0.326-0.441 1.977-2.675 0.744-0.984 1.487-1.967 2.254-2.981 6.999-9.836 6.999-9.836 10.109-14.363 2.262-2.969 2.262-2.969 6.262-5.969h2l2-4c2.236-1.296 4.478-2.585 6.773-3.773 2.227-1.227 2.227-1.227 4.664-3.352 3.173-2.321 6.162-3.009 9.965-3.871 2.598-1.004 2.598-1.004 5.379-3.473 3.918-3.081 6.904-3.682 11.781-4.593 6.662-1.331 13.017-2.919 19.446-5.106 18.259-5.077 44.254-4.026 61.98 2.676z"/>
<path transform="translate(1508.4 458.84)" d="m0 0c0.852-5e-3 1.705-0.01 2.583-0.015 2.821-0.015 5.643-0.021 8.464-0.027 1.959-6e-3 3.918-0.012 5.877-0.017 4.109-0.011 8.217-0.017 12.325-0.02 5.267-6e-3 10.534-0.03 15.801-0.058 4.047-0.019 8.093-0.024 12.14-0.025 1.942-3e-3 3.884-0.012 5.826-0.025 2.715-0.017 5.429-0.015 8.144-8e-3 0.773-2e-3 0.773-2e-3 4.683-0.011 3.802 0.367 3.802 0.367 7.802 3.367 0.501 2.798 0.501 2.798 0.503 6.277 0.011 1.324 0.021 2.648 0.032 4.011-5e-3 0.732-5e-3 0.732-0.027 4.434 6e-3 1.548 0.012 3.095 0.019 4.689 0.013 4.307 8e-3 8.614-4e-3 12.92-9e-3 4.641 5e-3 9.281 0.016 13.921 0.017 9.095 0.014 18.19 2e-3 27.285-9e-3 7.389-0.01 14.779-6e-3 22.169 1e-3 1.05 1e-3 2.101 2e-3 3.183 1e-3 2.133 2e-3 4.267 4e-3 6.4 0.011 20.023-2e-3 40.047-0.023 60.07-0.018 17.193-0.015 34.385 3e-3 51.578 0.022 19.948 0.03 39.897 0.018 59.845-1e-3 2.126-3e-3 4.252-4e-3 6.378-1e-3 1.047-1e-3 2.093-2e-3 3.171-3e-3 7.383 3e-3 14.766 0.012 22.149 0.011 8.994 8e-3 17.989-0.013 26.983-0.011 4.592-0.015 9.184-2e-3 13.775 0.014 4.971-2e-3 9.942-0.022 14.913 9e-3 1.461 0.018 2.922 0.027 4.427-5e-3 0.663-5e-3 0.663-0.032 4.019-1e-3 1.149-1e-3 2.297-2e-3 3.48-0.616 3.592-1.596 4.776-4.501 6.923-3.795 0.495-3.795 0.495-8.469 0.486-0.852 4e-3 -1.705 8e-3 -2.583 0.011-2.817 8e-3 -5.632-0.013-8.448-0.036-1.958-2e-3 -3.916-3e-3 -5.873-3e-3 -4.103-3e-3 -8.205-0.019-12.307-0.046-5.259-0.034-10.518-0.042-15.778-0.04-4.042-1e-3 -8.084-0.012-12.126-0.026-1.94-7e-3 -3.879-0.011-5.818-0.012-2.71-4e-3 -5.42-0.022-8.129-0.043-1.543-8e-3 -3.085-0.016-4.674-0.023-3.795-0.268-3.795-0.268-7.795-2.268-1.389-2.778-1.127-5.031-1.129-8.141-3e-3 -1.319-6e-3 -2.638-0.01-3.996 2e-3 -1.463 3e-3 -2.926 5e-3 -4.434-2e-3 -1.543-4e-3 -3.086-7e-3 -4.676-5e-3 -4.299-6e-3 -8.599-5e-3 -12.898 1e-3 -4.631-5e-3 -9.261-0.01-13.892-8e-3 -9.078-0.011-18.156-0.011-27.234-1e-3 -7.376-3e-3 -14.751-6e-3 -22.127-9e-3 -20.89-0.013-41.781-0.013-62.671v-3.416c1e-3 -1.129 1e-3 -2.257 1e-3 -3.42 0-18.298-0.01-36.596-0.024-54.894-0.014-18.769-0.021-37.537-0.02-56.305 0-10.546-3e-3 -21.091-0.013-31.636-9e-3 -8.977-0.012-17.954-5e-3 -26.931 4e-3 -4.583 4e-3 -9.167-5e-3 -13.75-9e-3 -4.961-3e-3 -9.921 5e-3 -14.881-6e-3 -1.461-0.011-2.922-0.016-4.427 5e-3 -1.321 9e-3 -2.642 0.014-4.004 0-1.146-1e-3 -2.292-1e-3 -3.473 0.25-2.794 0.25-2.794 2.25-5.794 3.889-1.296 7.247-1.143 11.355-1.161z"/>
<path transform="translate(535.38 496.75)" d="m0 0c1.219-0.021 2.439-0.041 3.695-0.062 1.181-6e-3 2.362-0.011 3.578-0.016 1.075-9e-3 2.149-0.019 3.256-0.028 5.999 0.69 10.933 4.406 16.096 7.356 0.516 0.237 0.516 0.237 3.125 1.438 8.773 4.768 14.632 15.374 17.875 24.562 1.329 5.866 1.184 11.768 1.187 17.75 0.013 1.034 0.025 2.068 0.038 3.133 0.024 13.106-2.605 21.078-11.225 31.117-0.74 0.865-1.48 1.73-2.242 2.621-5.059 5.482-9.734 8.084-16.758 10.379-1.258 0.557-2.516 1.114-3.813 1.688-9.784 4.028-22.219 3.527-32.187 0.312-1.707-1.281-3.374-2.618-5-4-1.423-0.536-2.846-1.072-4.313-1.625-6.001-2.542-9.03-7.17-12.687-12.375-0.581-0.748-1.163-1.495-1.762-2.266-9.523-12.821-7.344-33.347-5.801-48.484 1.979-9.584 9.902-17.612 17.563-23.25 1.975-1.048 3.975-2.052 6-3 1.031-0.701 2.063-1.402 3.125-2.125 6.132-3.999 13.192-3.095 20.25-3.125z"/>
<path transform="translate(1572.8 333.06)" d="m0 0c0.743 0.639 1.485 1.279 2.25 1.938 0.588 0.371 0.588 0.371 3.562 2.25 4.032 3.224 5.352 6.074 7.438 10.75 1.325 2.005 2.656 4.007 4 6 3.852 11.556 3.24 28.688-1 40-2.824 5.526-6.51 9.74-11 14-0.691 0.948-1.382 1.897-2.094 2.874-3.493 3.756-7.195 5.514-11.844 7.438-0.785 0.346-1.571 0.692-2.38 1.049-12.068 5.18-24.298 4.59-36.682 0.639-3.983-1.969-7.47-4.313-11-7-0.718-0.525-1.436-1.05-2.176-1.59-8.58-6.815-14.087-15.611-15.824-26.41-0.287-4.338-0.325-8.654-0.312-13-0.017-1.125-0.033-2.249-0.049-3.407-7e-3 -12.269 3.62-21.097 11.736-30.281 19.371-17.065 43.84-21.401 65.375-5.25z"/>
<path transform="translate(392.27 529.77)" d="m0 0c3.997 3.266 6.31 6.734 8.734 11.234 0.484 0.702 0.967 1.403 1.465 2.125 5.09 8.122 4.693 17.651 3.535 26.875-1.558 3.824-3.232 5.807-6 9-0.33 0.619-0.33 0.619-2 3.75-5.056 8.217-14.194 12.135-23 15.25-10.89 1.759-22.334-0.947-32-6-1.464-0.288-2.928-0.577-4.437-0.875-4.976-1.226-7.501-3.078-11.563-6.125-2.219-0.983-4.439-1.965-6.675-2.91-7.025-3.293-13.184-8.411-19.325-13.09-1.32-0.969-2.64-1.938-4-2.937-6.104-4.581-11.608-9.671-17-15.063-0.804-0.598-1.608-1.196-2.437-1.812-2.852-2.435-4.894-5.189-7.067-8.231-1.496-1.957-1.496-1.957-4.433-4.707-0.681-0.742-1.361-1.485-2.063-2.25l1-4c4.47-0.687 6.669 0.25 10.188 2.813 4.181 3.005 7.929 4.299 12.941 5.351 2.871 0.836 2.871 0.836 6.606 2.782 4.581 2.206 8.994 3.375 13.953 4.304 0.873 0.167 1.745 0.333 2.644 0.504 14.893 2.681 14.893 2.681 20.668 1.246 2.79-2.863 4.165-5.352 5.875-9 3.36-6.324 7.829-8.982 14.125-12 1.011-0.701 2.022-1.402 3.063-2.125 11.926-7.612 26.806-1.34 37.203 5.891z"/>
<path transform="translate(2592.6 325.94)" d="m0 0c2.438 1.062 2.438 1.062 3.573 3.415 1.197 5.05 1.15 9.893 1.13 15.065 2e-3 1.095 4e-3 2.189 6e-3 3.316 1e-3 2.306-2e-3 4.611-0.011 6.917-0.01 3.535 0 7.07 0.013 10.605-1e-3 2.242-4e-3 4.483-8e-3 6.725 4e-3 1.059 8e-3 2.119 0.012 3.21-0.048 7.465-0.048 7.465-2.277 10.809h-3c-3.566-10.487-1.398-21.451 1-32-3.813 0.25-3.813 0.25-8 1-0.99 1.32-1.981 2.64-3 4h-5c-0.414-6.723 0.238-10.411 4-16 2.151-3.27 3.266-5.823 4.5-9.624 2.511-7.327 2.511-7.327 7.062-7.438z"/>
<path transform="translate(2533,327)" d="m0 0c2.75-0.312 2.75-0.312 6 0 4.145 3.779 5.817 8.93 8 14 0.577 0.804 1.155 1.609 1.75 2.438 2.008 4.117 1.431 8.026 1.25 12.562l-4 1c-0.99-1.32-1.98-2.64-3-4-3.688-0.75-3.688-0.75-7-1 0.156 1.305 0.312 2.609 0.473 3.953 2.693 23.714 2.693 23.714-0.473 30.047l-4-1c-1.924-3.847-1.164-8.67-1.168-12.922-2e-3 -0.546-2e-3 -0.546-0.01-3.311-5e-3 -2.317-7e-3 -4.634-7e-3 -6.951-2e-3 -3.537-0.021-7.075-0.04-10.613-3e-3 -2.25-5e-3 -4.5-5e-3 -6.75-8e-3 -1.056-0.015-2.113-0.022-3.201 0.016-5.148 0.175-9.44 2.252-14.252z"/>
<path transform="translate(2511,324)" d="m0 0 4 1v3l-10-1c-1.538 7.535-2.302 14.607-2.344 22.285-0.014 1.023-0.029 2.046-0.044 3.1-0.062 4.329-0.102 8.658-0.144 12.988-0.033 3.179-0.078 6.358-0.124 9.537-6e-3 0.983-0.011 1.967-0.016 2.98-0.102 6.884-0.102 6.884-2.328 9.11l-4-1c-1.447-4.342-1.177-8.689-1.211-13.223-0.028-2.086-0.057-4.173-0.086-6.259-0.041-3.283-0.078-6.565-0.104-9.848-0.028-3.173-0.074-6.345-0.122-9.518-4e-3 -0.967-7e-3 -1.934-0.01-2.93-0.117-6.578-1.338-11.992-3.467-18.222 6.37-0.641 12.591-1 19-1l1-1z"/>
<path transform="translate(2553,363)" d="m0 0 4 1c0.934 2.319 1.867 4.639 2.785 6.965 1.215 2.035 1.215 2.035 4.965 3.097 1.073-0.02 2.145-0.041 3.25-0.062 0.124-0.557 0.124-0.557 0.75-3.375 1.25-3.625 1.25-3.625 5.25-5.625 1.625 4.874 0.148 7.481-2 12-1.029 2.615-2.034 5.238-3.035 7.863-0.965 2.137-0.965 2.137-2.965 4.137-2.426-0.012-2.426-0.012-5-1-1.73-2.582-1.73-2.582-3.188-5.812-0.488-1.059-0.977-2.117-1.48-3.208-0.44-0.983-0.879-1.967-1.332-2.98l-2-4c-0.079-2.999-0.088-6.001 0-9z"/>
</svg>
