<?xml version="1.0" encoding="UTF-8"?>
<svg version="1.1" viewBox="0 0 2904 1352" xmlns="http://www.w3.org/2000/svg">
<path transform="translate(1739.5 553.7)" d="m0 0c0.949-4e-3 1.898-9e-3 2.876-0.013 1.985-6e-3 3.97-6e-3 5.955-2e-3 3.034 3e-3 6.068-0.02 9.103-0.046 1.938-2e-3 3.877-3e-3 5.816-1e-3 0.451-5e-3 0.451-5e-3 2.734-0.028 4.763 0.035 8.348 0.129 11.993 3.391 0.812 4.187 0.812 4.187 1 8 1.423 0.268 2.846 0.536 4.312 0.812 4.688 1.188 4.688 1.188 7.688 4.188 0.668 2.558 0.668 2.558 1.187 5.437 0.742 2.985 0.742 2.985 1.813 5.563 3.812 2.187 3.812 2.187 8 4 2.261 2.508 4.05 5.227 6 8 0.866 0.598 1.732 1.196 2.625 1.812 3.274 3.017 4.031 6.325 5.285 10.532 1.245 3.034 2.571 4.577 5.09 6.656 0.587 0.206 0.587 0.206 3.562 1.25 3.438 1.75 3.438 1.75 5.188 5.375 0.864 3.027 1.673 6.07 2.437 9.125 1.813 4.25 1.813 4.25 5.75 6.187 4.492 2.281 4.606 2.56 6.063 7 0.145 0.445 0.145 0.445 0.878 2.696 1.122 2.367 1.122 2.367 5.059 4.679 5.878 3.889 7.186 9.076 9.063 15.688v2c1.031-0.165 2.062-0.33 3.125-0.5 3.875 0.5 3.875 0.5 7.125 3.875 2.157 3.185 3.233 6.024 4.125 9.75 1.24 4.815 3.349 6.645 7.574 9.386 3.512 2.549 5.552 5.958 8.051 9.489 1.051 1.196 2.103 2.392 3.187 3.625 2.553 3.063 4.08 5.826 5.813 9.375 3.687 2.458 5.643 2.311 10 2l3-2c0.509-2.974 0.509-2.974 0.683-6.731 0.064-1.359 0.128-2.717 0.195-4.117 0.18-6.156 0.229-12.301 0.187-18.46-4e-3 -1.341-9e-3 -2.683-0.014-4.066-0.01-2.882-0.023-5.764-0.037-8.647-0.023-4.56-0.037-9.12-0.048-13.68-0.034-12.954-0.076-25.908-0.138-38.861-0.037-7.948-0.06-15.895-0.074-23.842-8e-3 -3.025-0.022-6.05-0.041-9.075-0.026-4.212-0.034-8.425-0.038-12.637-0.013-1.253-0.025-2.505-0.038-3.796 3e-3 -1.144 6e-3 -2.289 9e-3 -3.469-5e-3 -0.995-9e-3 -1.989-0.013-3.014 0.367-2.605 0.367-2.605 3.367-6.605 2.535-0.508 2.535-0.508 5.601-0.518 1.148-0.012 2.296-0.025 3.479-0.038 1.241 8e-3 2.481 0.016 3.759 0.025 0.637-2e-3 0.637-2e-3 3.86-0.012 2.696-3e-3 5.392 5e-3 8.087 0.021 4.131 0.022 8.26 1e-3 12.391-0.025 2.617 3e-3 5.233 8e-3 7.85 0.016 1.239-9e-3 2.477-0.017 3.753-0.025 1.152 0.013 2.303 0.025 3.489 0.038 1.012 3e-3 2.025 7e-3 3.068 0.01 3.639 0.694 4.516 1.451 6.663 4.508 0.391 3.765 0.535 7.235 0.501 11.001 5e-3 1.135 0.011 2.27 0.017 3.44 0.013 3.818-2e-3 7.635-0.017 11.453 4e-3 2.731 0.01 5.463 0.017 8.194 0.014 7.43 2e-3 14.859-0.014 22.289-0.014 7.765-7e-3 15.53-4e-3 23.296 3e-3 13.042-0.011 26.085-0.034 39.128-0.024 13.423-0.031 26.845-0.02 40.267 0.012 16.169 0.01 32.338-6e-3 48.507-6e-3 6.178-6e-3 12.356-1e-3 18.534 5e-3 7.273-5e-3 14.546-0.027 21.819-6e-3 2.673-6e-3 5.346-1e-3 8.019 6e-3 3.642-7e-3 7.283-0.024 10.924 3e-3 0.533 3e-3 0.533 0.018 3.226-0.08 9.262-0.08 9.262-3.405 12.903-6.233 1.432-12.763 1.161-19.141 1.168-1.045 3e-3 -2.089 6e-3 -3.166 0.01-2.195 5e-3 -4.39 7e-3 -6.585 7e-3 -3.362 2e-3 -6.723 0.021-10.085 0.039-2.138 3e-3 -4.276 5e-3 -6.414 6e-3 -0.502 4e-3 -0.502 4e-3 -3.043 0.022-4.594-0.015-7.392-0.165-11.566-2.252-0.557-1.258-1.114-2.516-1.688-3.813-2.38-4.31-2.75-4.7-6.875-6.562-4.176-2-4.176-2-5.406-4.942-0.398-1.758-0.786-3.518-1.164-5.281-1.263-3.499-3.905-4.704-6.938-6.637-3.249-2.973-3.957-6.799-5.043-10.961-0.886-2.804-0.886-2.804-3.886-6.804l-3.5-1c-3.5-1-3.5-1-6.5-5-0.437-2.009-0.808-4.032-1.125-6.063-0.727-3.226-0.727-3.226-1.875-5.937-4.5-1.938-4.5-1.938-9-3-1.504-2.133-1.504-2.133-3-5-1.472-2.317-2.952-4.63-4.438-6.938-0.762-1.184-1.524-2.369-2.309-3.59-0.743-1.146-1.487-2.292-2.253-3.472-0.61-1.053-1.22-2.107-1.848-3.192-2.152-2.808-2.152-2.808-5.621-4.597-4.683-2.933-6.051-6.647-8.031-11.586-2.825-6.98-5.421-10.847-11.5-15.625-0.64-1.196-1.279-2.393-1.938-3.625-2.645-4.329-5.544-5.262-10.062-7.375-2-4-2-4-2.313-7.438-0.687-3.562-0.687-3.562-2.562-6.5-4.534-2.992-8.827-2.685-14.125-2.062-1.745 1.745-1.133 4.156-1.138 6.529-6e-3 1.2-0.011 2.4-0.017 3.637-1e-3 1.329-2e-3 2.658-3e-3 4.027-5e-3 1.39-0.01 2.78-0.016 4.212-0.01 3.031-0.019 6.061-0.026 9.092-0.011 4.789-0.031 9.579-0.053 14.369-0.062 13.622-0.116 27.244-0.149 40.866-0.02 8.32-0.056 16.64-0.101 24.96-0.014 3.179-0.022 6.359-0.026 9.538-4e-3 4.44-0.028 8.879-0.055 13.318 2e-3 0.663 2e-3 0.663 9e-3 4.015-5e-3 0.603-5e-3 0.603-0.033 3.654-4e-3 1.05-7e-3 2.101-0.01 3.183-0.382 2.6-0.382 2.6-3.382 5.6-7.031 1.059-14.025 1.16-21.125 1.168-1.028 3e-3 -2.056 6e-3 -3.114 0.01-2.158 5e-3 -4.316 7e-3 -6.474 7e-3 -3.278 2e-3 -6.556 0.02-9.834 0.039-2.11 3e-3 -4.219 5e-3 -6.328 6e-3 -0.967 7e-3 -1.934 0.015-2.931 0.022-15.995-0.053-15.995-0.053-20.194-4.252-0.199-3.631-0.269-7.187-0.254-10.819-4e-3 -1.14-7e-3 -2.279-0.01-3.454-8e-3 -3.844-1e-3 -7.689 5e-3 -11.534-3e-3 -2.746-6e-3 -5.491-0.011-8.237-9e-3 -7.477-5e-3 -14.954 1e-3 -22.431 5e-3 -7.808 0-15.616-3e-3 -23.424-4e-3 -13.956 2e-3 -27.912 0.013-41.867 9e-3 -12.664 7e-3 -25.328-2e-3 -37.992-0.011-14.691-0.015-29.383-9e-3 -44.075 3e-3 -7.783 4e-3 -15.565-3e-3 -23.347-6e-3 -7.315-2e-3 -14.63 0.01-21.945 2e-3 -2.692 2e-3 -5.384-3e-3 -8.076-5e-3 -3.66 2e-3 -7.32 0.012-10.98-5e-3 -1.079-9e-3 -2.157-0.014-3.268 0.039-7.323 0.039-7.323 2.268-9.551 7.048-1.966 14.249-2.308 21.523-2.301z" fill="#323219"/>
<path transform="translate(2606,412)" d="m0 0c1.875 2.438 1.875 2.438 3 5 2.654 3.98 4.531 3.874 9.125 4.938 8.732 2.197 15.081 5.117 21.875 11.062 1.392 1.006 2.788 2.006 4.188 3 3.812 3 3.812 3 5.187 5.688 2.313 3.292 5.175 3.466 8.918 4.453 4.495 1.426 8.297 3.589 11.707 6.859 0.247 0.67 0.247 0.67 1.5 4.062 1.797 4.716 3.721 5.466 8.148 7.586 4.04 2.322 6.445 5.748 9.352 9.352 3 3 3 3 5.938 3.688 3.062 1.312 3.062 1.312 4.874 5.062 2.201 4.275 2.813 4.931 6.688 7.188 3.712 2.193 5.081 3.678 6.5 7.75 2 4.312 2 4.312 6.5 6.062 1.485 0.413 2.97 0.825 4.5 1.25 2.312 2.438 2.312 2.438 4 5 2.686 3.357 3.613 3.94 8 4.625 0.66 0.227 0.66 0.227 4 1.375 1.055 2.168 1.055 2.168 1.875 4.812 1.544 4.798 1.544 4.798 4.34 6.676 1.744 0.764 3.497 1.508 5.258 2.235 3.558 1.798 5.494 4.354 7.941 7.433 1.586 1.844 1.586 1.844 4.711 3.906 2.875 1.938 2.875 1.938 4.813 5.376 4.168 4.848 8.522 5.72 14.566 7.421 3.496 1.141 3.496 1.141 7.496 4.141 0.227 1.155 0.454 2.31 0.688 3.5 0.433 1.155 0.866 2.31 1.312 3.5 4.25 1.75 4.25 1.75 9 3 4.591 1.677 5.722 2.492 8.125 6.875 2.81 5.022 6.847 6.074 12.063 7.973 3.454 1.415 5.423 3.316 7.812 6.152 4.538 3.403 7.884 4.04 13.32 5.156 2.68 0.844 2.68 0.844 4.68 3.844 0.268 1.176 0.536 2.351 0.812 3.562 1.188 3.438 1.188 3.438 3.313 4.75 2.237 0.536 4.491 1.001 6.75 1.438 7.865 2.383 11.505 7.655 15.66 14.289 2.011 2.692 4.467 3.524 7.465 4.961 4.423 4.944 6.678 8.941 8.066 15.41 0.934 2.59 0.934 2.59 3.452 5.592 3.066 4.939 3.188 8.916 3.129 14.548 9e-3 1.038 0.017 2.077 0.027 3.147 0.021 3.42 7e-3 6.839-0.01 10.26 3e-3 2.387 8e-3 4.775 0.015 7.162 7e-3 5.001-4e-3 10.002-0.027 15.002-0.029 6.393-0.012 12.784 0.018 19.176 0.018 4.93 0.012 9.861-1e-3 14.791-3e-3 2.356 1e-3 4.712 0.012 7.067 0.013 3.303-6e-3 6.604-0.034 9.907 0.01 0.963 0.02 1.926 0.031 2.918-0.11 7.095-2.192 11.918-5.678 18.02-2.274 4.56-3.969 8.848-5 13.875-1 4.125-1 4.125-5 7.125-1.196 0.103-2.392 0.206-3.625 0.312-1.114 0.227-2.227 0.454-3.375 0.688-0.735 1.976-1.391 3.982-2 6-1.093 0.928-2.186 1.856-3.312 2.812-3.376 2.918-4.298 4.075-6.063 7.876-2.091 4.162-2.508 4.264-7.25 6.187-1.444 0.371-2.887 0.743-4.375 1.125-3.166 3.166-3.481 4.001-4.188 8.188-0.268 1.588-0.536 3.176-0.812 4.812-6.625 1.25-6.625 1.25-10-1-1.148-10.82 1.554-22.403 7.188-31.688 3.556-5.993 3.78-11.451 3.812-18.312 0.013-0.532 0.013-0.532 0.078-3.223 0.367-25.152 0.367-25.152-4.078-34.777-0.811-0.771-1.622-1.542-2.457-2.336-5.043-5.283-5.698-12.625-6.543-19.664 0.171-4.086 0.549-8.072 1.073-12.126 2.042-15.864 4.636-39.695-5.511-52.999-0.621-0.749-1.242-1.498-1.882-2.27-2.171-3.366-2.7-6.505-3.492-10.417-1.53-6.709-1.53-6.709-4.547-8.907-1.78-0.72-3.573-1.407-5.379-2.058-2.262-1.223-2.262-1.223-3.367-3.477-0.428-1.739-0.826-3.485-1.192-5.238-1.451-5.176-5.361-8.614-9.703-11.508v-2c-4-2-4-2-6.875-3.062-3.839-2.38-5.34-5.004-7.535-8.879-2.683-3.474-6.075-3.935-10.215-4.934-3.375-1.125-3.375-1.125-6.375-5.125-0.227-0.825-0.454-1.65-0.688-2.5-1.668-3.177-3.7-3.908-6.898-5.332-2.823-1.366-5.356-3.009-7.976-4.73-5.637-3.629-10.534-6.087-17.188-7.313-4.25-1.125-4.25-1.125-6.25-3.5-1-2.625-1-2.625-2-6.625-6.029-2.544-11.483-3.319-18-4-4-2-4-2-5.562-6.312-1.255-3.118-1.988-4.414-4.891-6.18-1.923-0.804-3.859-1.578-5.805-2.324-3.866-1.669-6.58-4.44-9.742-7.184-4.394-1.984-7.949-2.994-12.75-3.562-1.403-0.475-2.805-0.949-4.25-1.438-1-2.242-1-2.242-1.75-4.938-0.855-2.742-0.855-2.742-2.25-5.062-3.173-1.168-6.223-1.587-9.562-2.094-4.045-1.066-5.94-2.657-9-5.468-3.725-3.346-5.939-4.918-10.938-5.376-8.058-0.743-14.532-4.984-21.473-8.847-11.596-6.378-27.423-4.337-40.339-4.403-0.679-6e-3 -0.679-6e-3 -4.115-0.039-10.365-9e-3 -20.364 0.492-30.011 4.602-8.526 3.449-16.823 6.389-26 7.375-3.019 0.434-3.019 0.434-5.562 1.25-1.352 1.964-2.698 3.937-3.906 5.992-3.175 3.045-7.047 3.529-11.219 4.446-8.352 1.976-8.352 1.976-10.867 4.796-1.008 2.454-1.008 2.454-2.008 6.766-2 2-2 2-6.625 2.562-5.798 1.018-7.971 3.847-11.496 8.34-1.879 2.098-1.879 2.098-5.629 3.598-3.25 1.5-3.25 1.5-5.125 5.812-0.294 0.801-0.588 1.602-0.891 2.426-1.535 2.813-3.095 3.691-5.859 5.262-4.174 2.428-4.283 2.684-5.75 7.75-0.206 1.403-0.412 2.805-0.625 4.25-3 2-3 2-6 2.688-3 1.312-3 1.312-4.562 4.312-0.475 1.32-0.949 2.64-1.438 4-2.352 5.337-4.871 10.018-8.625 14.5-3.19 3.889-4.313 7.208-5.496 12.035-1.29 3.619-3.608 6.043-6.258 8.774-5.093 8.456-3.842 20.058-3.711 29.55 0.021 3.086 0.041 6.172 0.061 9.258 0.043 4.816 0.091 9.632 0.145 14.448 0.049 4.682 0.079 9.363 0.107 14.044 0.021 1.42 0.043 2.839 0.066 4.301 0.045 9.319-0.886 18.063-3.289 27.09-1 1-1 1-5.875 1.75-4.854 0.953-4.854 0.953-7.063 3.375-0.826 2.237-1.609 4.491-2.374 6.75-1.884 4.604-4.408 7.426-7.688 11.125-1.76 3.637-2.376 7.009-2.875 11-0.74 4.747-1.523 7.616-5.125 11-6.306 6.306-5.095 17.448-5.134 25.983 0.015 4.777 0.067 9.553 0.134 14.329 0.053 3.872 0.093 7.742 0.125 11.614 0.017 0.883 0.033 1.766 0.05 2.676 0.018 2.133-0.069 4.267-0.175 6.398-2 2-2 2-4.875 2.25-3.125-0.25-3.125-0.25-7.125-2.25-1.077-2.973-2.073-5.977-3-9-1.566-3.06-3.206-5.232-5.5-7.812-3.921-4.999-5.322-9.8-6.125-16.063-0.454-1.361-0.907-2.723-1.375-4.125-4.5-1.312-4.5-1.312-9-2-2.041-4.083-2.412-6.465-2.781-10.949-0.119-1.393-0.238-2.787-0.361-4.222-0.118-1.491-0.236-2.981-0.358-4.517-0.126-1.529-0.252-3.059-0.382-4.635-0.255-3.104-0.507-6.208-0.757-9.313-0.316-3.815-0.663-7.624-1.033-11.434-1.734-18.322-0.759-35.832 1.207-54.086 0.449-4.682 0.704-9.334 0.903-14.032 1.167-23.417 1.167-23.417 5.562-27.812 1.155-0.186 2.31-0.371 3.5-0.562 1.155-0.475 2.31-0.949 3.5-1.438 1.107-3.216 1.624-5.671 2-9 0.939-8.111 1.66-13.515 7-20 0.619-1.258 1.238-2.516 1.875-3.812 3.026-5.964 6.393-12.201 11.875-16.188 3.113-2.767 3.554-5.678 4.477-9.66 0.773-2.34 0.773-2.34 3.773-5.34 2.41-0.414 2.41-0.414 5.062-0.625 2.708-0.453 2.708-0.453 4.938-1.375 1.25-4.375 1.25-4.375 2-9 2.75-2.375 2.75-2.375 6-4 0.887-0.454 1.774-0.908 2.688-1.375 1.96-0.962 3.922-1.918 5.89-2.863 4.67-2.367 8.473-4.419 11.734-8.574 5.474-6.929 13.895-11.292 21.688-15.188 0.227-0.722 0.227-0.722 1.375-4.375 1.819-5.177 2.892-6.164 7.625-8.625 0.846-0.371 1.691-0.743 2.562-1.125 4.522-3.478 6.481-9.244 8.395-14.508 1.043-2.367 1.043-2.367 4.043-5.367 1.011-0.309 2.021-0.619 3.062-0.938 2.938-1.062 2.938-1.062 4.938-5.062 0.598-1.299 1.196-2.599 1.812-3.938 2.085-3.87 4.043-6.074 7.188-9.062 0.557-0.99 1.114-1.98 1.688-3 2.495-3.237 3.775-3.784 7.437-5.312 2.672-1.2 2.672-1.2 4.875-2.688 1.375-4.625 1.375-4.625 2-9 4-3 4-3 8.375-4.188 4.852-1.901 6.162-3.443 8.965-7.683 4.422-5.671 11.315-9.03 17.66-12.129 0.682-0.655 1.364-1.31 2.066-1.984 3.956-2.718 7.904-3.053 12.559-3.578 8.983-1.046 8.983-1.046 12.375-4.438 0.33-0.846 0.66-1.691 1-2.562 1-2.438 1-2.438 4-4.438 16.288-3.886 42.336-5.143 58 1z" fill="#323219"/>
<path transform="translate(608,558)" d="m0 0c2.562 3.062 2.562 3.062 4 6 5.276 2.931 11.707 3.038 17.607 3.768 7.883 1.068 12.674 3.238 18.455 8.607 0.86 0.794 1.72 1.588 2.606 2.406 2.486 2.366 4.906 4.793 7.332 7.219 3.09 2.317 5.52 3.831 8.938 5.438 6.952 3.46 9.996 5.853 13.042 13.257 2.249 5.083 5.13 8.649 9.582 11.93 4.201 4.124 4.983 7.411 6.485 12.98 2.303 8.203 4.934 14.29 11.953 19.395 1.323 3.968 1.285 7.857 1.438 12 0.283 6.799 0.8 13.49 1.624 20.25 1.849 17.039 1.129 33.825-0.374 50.875-0.118 1.382-0.236 2.764-0.357 4.188-0.126 1.302-0.252 2.604-0.382 3.945-0.055 0.578-0.055 0.578-0.333 3.504-0.677 3.556-1.745 6.145-3.616 9.238-0.999 0.608-1.998 1.217-3.027 1.844-4.149 3.009-4.4 5.727-5.535 10.656-4.951 19.735-4.951 19.735-11.313 24.25-1.361 0.743-2.722 1.485-4.125 2.25-1.684 1.785-1.684 1.785-3.312 3.812-3.479 4.216-7.458 7.139-11.934 10.239-2.526 1.787-4.837 3.695-7.192 5.699-3.504 2.82-6.61 3.998-10.937 5.188-3.098 0.898-3.098 0.898-5.625 2.062-1.812 4.062-1.812 4.062-3 8-6.436 3.965-14.028 3.939-21.375 4.562-20.949 1.852-20.949 1.852-27 5.438-10.043 5.541-24.282 5.544-35.266 3.234-3.359-1.234-3.359-1.234-6.351-3.257-9.243-6.074-23.466-5.517-34.317-6.352-5.063-0.675-8.993-1.641-13.691-3.625-0.196-0.639-0.196-0.639-1.188-3.875-1.812-4.125-1.812-4.125-4.742-5.687-5.532-1.999-10.79-3.466-16.632-4.126-4.438-1.312-4.438-1.312-5.95-3.546-0.823-1.797-1.61-3.61-2.359-5.438-1.625-3.35-3.752-3.938-7.129-5.328-2.038-1.686-3.958-3.46-5.875-5.281-2.125-1.719-2.125-1.719-5.242-2.969-2.883-1.75-2.883-1.75-4.203-5.219-0.266-1.33-0.531-2.66-0.805-4.031-1.463-7.191-1.463-7.191-5.875-10.5-0.423-0.186-0.423-0.186-2.562-1.125-4.869-3.745-5.54-10.827-6.352-16.645-0.246-2.013-0.483-4.027-0.711-6.042-0.24-2.028-0.482-4.055-0.727-6.083-0.05-0.442-0.05-0.442-0.307-2.682-0.341-2.423-0.341-2.423-1.341-6.423-2.848-21.059-4.405-44.102 1.246-64.77 0.871-3.733 1.324-7.421 1.754-11.23 1.901-15.736 1.901-15.736 4-20 2.639-1.072 5.307-2.074 8-3 1.322-3.448 2.204-6.443 3-10 2.361-8.375 5.871-12.156 13-17 2-2 2-2 2.625-4.188 1.788-3.657 4.318-5.486 7.434-8.039 1.941-1.773 1.941-1.773 3.879-5.085 2.062-2.688 2.062-2.688 6.062-3.25 5.319-0.785 7.165-3.733 10.438-7.813 7.069-8.168 14.16-9.326 24.562-10.625 1.373-0.206 2.746-0.413 4.16-0.625 2.369-0.353 4.741-0.683 7.117-0.98 2.723-0.395 2.723-0.395 5.723-1.395 0.144-0.969 0.289-1.939 0.438-2.938 0.092-0.505 0.092-0.505 0.562-3.062 17.97-8.985 55.887-6.619 74 0zm-61 58c-2.828 0.441-2.828 0.441-5.25 0.562-4.75 0.438-4.75 0.438-8.75 2.438-0.32 0.65-0.32 0.65-1.938 3.938-2.163 4.261-2.786 5.296-7.062 7.062-2.589 0.765-5.175 1.497-7.793 2.156-2.207 0.844-2.207 0.844-4.207 3.844-0.554 1.944-1.048 3.905-1.5 5.875-1.808 7.841-1.808 7.841-3.5 11.125-2.322 0.705-4.656 1.372-7 2-5.536 11.073-4.285 24.912-4.206 37.031 0.018 2.898 0.021 5.796 0.02 8.694 0.059 31.79 0.059 31.79 4.186 38.275 0.785 0.392 1.57 0.784 2.379 1.188 3.705 2.561 4.602 5.435 6.309 9.562 0.581 1.377 1.162 2.753 1.761 4.172 1.551 4.078 1.551 4.078 2.492 7.957 1.059 3.121 1.059 3.121 5.309 5.309 0.807 0.304 1.614 0.608 2.445 0.921 4.329 1.673 7.772 4.426 11.243 7.453 5.075 3.046 9.738 3.759 15.539 4.665 3.523 0.773 3.523 0.773 5.968 2.335 9.781 5.504 27.201 1.014 37.555-1.562 9.757-2.946 18.035-6.631 26-13 0.99-0.681 1.98-1.361 3-2.062 2-1.938 2-1.938 2.938-4.938 1.412-3.988 3.522-4.833 7.062-7 3.122-4.163 3.497-5.845 4.25-10.812 1.146-5.95 2.463-8.097 7.098-12.094 8.299-10.517 4.995-32.487 4.652-45.094-0.015-0.723-0.015-0.723-0.094-4.379-0.273-6.012-0.603-9.116-4.906-13.621h-2c-0.186-0.639-0.186-0.639-1.125-3.875-0.621-2.043-1.247-4.084-1.875-6.125-0.449-1.484-0.897-2.967-1.359-4.496-0.504-1.606-1.01-3.211-1.516-4.816-0.236-0.762-0.236-0.762-1.43-4.614-3.669-8.819-10.936-11.519-19.078-15.695-3.897-2.563-4.837-4.192-6.617-8.379-3.062-1.688-3.062-1.688-7-3-0.768-0.267-1.537-0.534-2.328-0.809-9.736-3.199-19.63-3.39-29.797-3.441-1.033-0.021-2.065-0.041-3.129-0.062-6.295-0.033-10.871 0.823-16.746 3.312z" fill="#323219"/>
<path transform="translate(1385.1 553.63)" d="m0 0c1.023-4e-3 2.046-7e-3 3.101-0.011 3.386-8e-3 6.771 5e-3 10.158 0.02 2.354 1e-3 4.708 0 7.062-1e-3 4.937 0 9.874 0.01 14.811 0.028 6.322 0.023 12.643 0.023 18.965 0.017 4.863-4e-3 9.726 3e-3 14.59 0.013 2.33 4e-3 4.661 5e-3 6.991 3e-3 3.262 0 6.524 0.012 9.787 0.029 0.96-3e-3 1.919-5e-3 2.908-8e-3 12.369 0.098 12.369 0.098 16.554 4.282 0.4 2.323 0.739 4.658 1 7 3.624 0.651 7.249 1.296 10.875 1.938 1.013 0.182 2.026 0.365 3.07 0.553 4.891 0.862 9.666 1.579 14.625 1.888 1.462 0.205 2.923 0.41 4.43 0.621 3 4 3 4 3.562 8.063 0.474 1.299 0.949 2.599 1.438 3.937 2.493 1.099 4.92 1.635 7.578 2.223 2.422 0.777 2.422 0.777 5.047 3.84 1.375 2.937 1.375 2.937 1.375 4.937l4 2c9.997 9.998 8.183 34.593 8.25 48.188-0.168 33.825-0.168 33.825-11.25 45.812-0.599 1.238-1.197 2.475-1.813 3.75-2.187 3.25-2.187 3.25-6.75 4.563-4.437 1.687-4.437 1.687-5.547 3.91-0.47 1.774-0.894 3.56-1.273 5.355-0.617 2.422-0.617 2.422-2.805 5.047-2.689 3.524-2.271 6.05-1.812 10.375 1.312 3.438 1.312 3.438 3 7 0.195 0.763 0.195 0.763 1.187 4.625 2.277 5.496 4.852 6.294 9.813 9.375 1.545 2.396 2.683 4.781 3.796 7.403 1.204 2.597 1.204 2.597 3.09 5.367 3.394 5.188 5.683 10.88 8.211 16.527 1.903 3.703 1.903 3.703 4.903 5.703 0.996 0.213 1.992 0.426 3.019 0.645 2.981 1.355 2.981 1.355 4.555 4.805 0.367 1.398 0.734 2.797 1.113 4.238 3.86 14.259 3.86 14.259 8.75 19.312 3.147 3.412 5.297 6.939 7.563 11 0.701 0.66 1.402 1.32 2.125 2 2.538 2.708 2.924 5.453 3.875 9 0.99 1.32 1.98 2.64 3 4 0.437 3.063 0.437 3.063 0 6-4.39 3.292-5.3 3.37-10.526 3.328-1.325-4e-3 -2.65-8e-3 -4.015-0.012-1.429-0.022-2.858-0.043-4.331-0.066-1.469-0.014-2.939-0.029-4.453-0.044-3.109-0.036-6.219-0.08-9.328-0.132-4.763-0.073-9.524-0.104-14.287-0.132-3.019-0.041-6.038-0.084-9.057-0.129-0.713-3e-3 -0.713-3e-3 -4.324-0.017-1.328-0.029-2.657-0.058-4.025-0.089-1.167-0.015-2.334-0.031-3.537-0.047-4.031-0.853-5.473-2.576-8.117-5.66-0.413-0.412-0.413-0.412-2.5-2.5-0.413-0.412-0.413-0.412-2.5-2.5-0.444-0.361-0.444-0.361-2.688-2.187-2.672-3.25-3.132-5.949-3.801-10.043-0.889-4.813-2.217-9.433-4.511-13.77-3.063-1.937-3.063-1.937-6-3-2.823-3.763-3.796-5.972-5.063-10.375-0.644-2.209-1.29-4.417-1.937-6.625-0.311-1.077-0.622-2.155-0.942-3.265-1.058-2.735-1.058-2.735-3.933-5.11-3.125-2.625-3.125-2.625-5.063-6.625-2.062-4-2.062-4-5.375-6.062-6.452-5.14-9.285-13.652-11.816-21.387-0.618-0.842-1.235-1.683-1.871-2.551-4.231-0.586-4.231-0.586-9.188-0.375-0.822 0.027-0.822 0.027-4.98 0.164-0.633 0.035-0.633 0.035-3.832 0.211-1.137 4.548-1.514 8.664-0.499 13.28 0.607 3.314 0.61 6.433 0.596 9.802-3e-3 1.422-6e-3 2.844-0.01 4.308-8e-3 1.531-0.016 3.061-0.025 4.638-2e-3 0.788-2e-3 0.788-0.011 4.778-0.015 5.899-0.038 11.798-0.062 17.697-0.023 5.779-0.038 11.558-0.052 17.337-8e-3 1.528-0.017 3.057-0.025 4.631-3e-3 1.425-7e-3 2.85-0.01 4.318-3e-3 0.625-3e-3 0.625-0.016 3.79 0.114 3.421 0.114 3.421 0.752 6.7 0.12 0.898 0.239 1.796 0.362 2.721-2.888 3.737-5.567 5.549-10 7-2.708 0.254-2.708 0.254-5.661 0.259-1.111 6e-3 -2.222 0.013-3.367 0.019-1.19-4e-3 -2.38-8e-3 -3.605-0.012-1.229 2e-3 -2.458 4e-3 -3.724 6e-3 -2.594 1e-3 -5.188-3e-3 -7.782-0.011-3.979-0.011-7.957 0-11.936 0.013-2.519-2e-3 -5.039-4e-3 -7.558-8e-3 -1.194 4e-3 -2.388 8e-3 -3.618 0.012-1.105-6e-3 -2.209-0.012-3.348-0.019-0.486-1e-3 -0.486-1e-3 -2.948-5e-3 -2.453-0.254-2.453-0.254-5.453-2.254-1.517-4.55-1.148-9.179-1.148-13.932-3e-3 -1.14-7e-3 -2.28-0.011-3.454-0.011-3.839-0.015-7.679-0.018-11.518-7e-3 -2.744-0.013-5.489-0.02-8.233-0.018-7.469-0.028-14.937-0.037-22.406-5e-3 -4.661-0.011-9.322-0.017-13.983-0.018-13.733-0.032-27.465-0.04-41.198-2e-3 -2.513-3e-3 -5.026-5e-3 -7.539 0-0.416 0-0.416-1e-3 -2.521-8e-3 -13.49-0.034-26.98-0.066-40.47-0.033-13.842-0.051-27.684-0.055-41.525-2e-3 -7.775-0.011-15.55-0.036-23.326-0.023-7.308-0.028-14.616-0.017-21.924 0-2.689-6e-3 -5.377-0.02-8.066-0.017-3.657-0.01-7.314 3e-3 -10.972-0.011-1.075-0.022-2.15-0.033-3.257 0.026-2.958 0.026-2.958 0.521-7.676 4.871-3.654 8.258-3.418 14.073-3.372zm57.052 68.435c-4.701 6.498-3.503 14.396-3.585 22.166-0.027 1.92-0.068 3.841-0.123 5.761-0.517 18.023-0.517 18.023 3.961 23.065 1.195 0.972 2.39 1.944 3.622 2.945 0.804 1.32 1.608 2.64 2.437 4 2.563 3 2.563 3 6.688 3.813 0.639-0.134 0.639-0.134 3.875-0.813 1.687-2.875 1.687-2.875 3-6 5.05-2.651 10.844-3.1 16.406-4.023 3.919-1.065 5.841-2.004 8.594-4.977 3.65-9.806 4.117-21.676 3-32-1.751-3.763-3.269-5.23-6.5-8-3.5-3-3.5-3-5-5.687-2.218-3.419-4.691-3.959-8.5-5.313-4.375-0.617-4.375-0.617-9-0.875-0.764-0.05-0.764-0.05-4.625-0.304-6.253 0.256-9.968 1.68-14.25 6.242z" fill="#323219"/>
<path transform="translate(2028.2 553.85)" d="m0 0c1.481-7e-3 2.961-0.014 4.486-0.022 0.81-1e-3 0.81-1e-3 4.909-8e-3 1.727-6e-3 3.453-0.013 5.18-0.02 5.663-0.021 11.325-0.031 16.988-0.041 1.951-4e-3 3.901-8e-3 5.851-0.012 9.159-0.019 18.318-0.034 27.476-0.042 10.574-0.01 21.148-0.036 31.721-0.077 8.174-0.03 16.349-0.045 24.523-0.048 4.882-2e-3 9.764-0.011 14.646-0.036 4.59-0.024 9.18-0.028 13.77-0.018 2.488 1e-3 4.977-0.018 7.465-0.038 0.74 4e-3 0.74 4e-3 4.486 0.021 1.287-2e-3 2.574-4e-3 3.9-7e-3 3.929 0.581 5.592 1.684 8.35 4.495 0.628 2.504 0.628 2.504 0.631 5.348 0.012 1.068 0.025 2.136 0.038 3.236-0.013 1.148-0.027 2.296-0.04 3.479 2e-3 1.183 4e-3 2.367 7e-3 3.586-1e-3 2.501-0.014 5.003-0.039 7.504-0.035 3.833-0.021 7.663-2e-3 11.496-6e-3 2.429-0.016 4.859-0.029 7.289 5e-3 1.148 0.01 2.296 0.015 3.478-0.016 1.068-0.032 2.136-0.048 3.237-3e-3 0.469-3e-3 0.469-0.019 2.843-0.514 2.504-0.514 2.504-1.901 4.807-4.067 2.641-8.269 2.241-12.962 2.195-0.526 3e-3 -0.526 3e-3 -3.189 0.017-2.286 0.01-4.572 0.01-6.858 2e-3 -3.619-0.013-7.237-2e-3 -10.857 0.016-6.38 0.026-12.761 0.032-19.142 0.031-10.203-3e-3 -20.406 0.011-30.609 0.055-3.562 0.01-7.125 1e-3 -10.687-9e-3 -2.191 7e-3 -4.381 0.013-6.572 0.021-0.988-7e-3 -1.976-0.015-2.993-0.023-5.591 0.041-9.829 0.664-14.744 3.392-3.464 5.57-2.369 12.985-2.375 19.313-0.013 0.646-0.013 0.646-0.074 3.92-0.023 7.378 0.247 12.597 4.449 18.767 4.688 3.516 6.198 3.365 11.918 3.337 1.628 1e-3 3.257 1e-3 4.935 2e-3 0.869-7e-3 1.738-0.013 2.633-0.02 2.724-0.018 5.447-0.016 8.171-7e-3 7.742 0.022 15.484 0.011 23.227-0.027 4.738-0.022 9.475-0.015 14.213 0.011 1.805 3e-3 3.611-5e-3 5.416-0.024 2.523-0.026 5.046-0.012 7.569 3e-3 0.718-2e-3 0.718-2e-3 4.351-0.014 3.567 0.739 3.567 0.739 5.999 3.597 2.651 5.313 2.744 9.836 2.771 15.666 6e-3 0.938 0.011 1.876 0.017 2.843 0.01 1.985 0.016 3.971 0.02 5.956 0.01 3.034 0.041 6.066 0.072 9.099 7e-3 1.93 0.012 3.859 0.016 5.789 0.012 0.905 0.025 1.811 0.037 2.744-0.017 4.845-0.218 8.245-3.365 12.045-3.846 2.564-5.984 2.224-10.589 2.18-1.582-0.01-3.165-0.02-4.795-0.03-0.846-0.01-1.693-0.02-2.566-0.03-2.652-0.03-5.305-0.047-7.957-0.06-7.542-0.04-15.084-0.105-22.626-0.176-4.613-0.043-9.227-0.071-13.84-0.091-1.757-0.01-3.513-0.027-5.269-0.049-2.46-0.031-4.921-0.042-7.381-0.053-1.399-0.012-2.798-0.025-4.239-0.038-4.011 0.372-6.385 1.138-9.738 3.347-4.422 8.844-3.183 19.639-3.188 29.313-0.012 1.452-0.024 2.904-0.037 4.4-2e-3 1.39-4e-3 2.781-6e-3 4.213-4e-3 1.262-8e-3 2.525-0.012 3.825 0.243 3.249 0.243 3.249 2.243 7.249 4.415 1.472 8.855 1.162 13.466 1.174 1.077 6e-3 2.154 0.013 3.263 0.02 2.341 0.014 4.682 0.026 7.022 0.036 3.703 0.016 7.405 0.04 11.107 0.065 10.527 0.071 21.053 0.131 31.58 0.182 6.436 0.032 12.871 0.073 19.307 0.12 2.455 0.016 4.911 0.029 7.367 0.037 3.431 0.012 6.861 0.036 10.292 0.063 1.019 1e-3 2.037 1e-3 3.087 2e-3 4.567 0.047 7.36 0.227 11.509 2.301 1.892 3.785 2.256 5.056 2.29 9.057 0.013 1.004 0.026 2.009 0.039 3.044 2e-3 1.079 4e-3 2.158 7e-3 3.27 3e-3 0.558 3e-3 0.558 0.02 3.377 0.01 2.357 0.015 4.713 0.014 7.069 5e-3 3.604 0.041 7.206 0.079 10.81 6e-3 2.29 0.01 4.58 0.012 6.869 0.014 1.077 0.028 2.155 0.043 3.265-0.027 4.388-0.101 7.439-2.096 11.396-4.716 3.61-11.05 2.966-16.784 2.952-1.458-1e-3 -2.916-2e-3 -4.418-3e-3 -1.585-7e-3 -3.17-0.014-4.802-0.021-1.698-3e-3 -3.395-6e-3 -5.092-9e-3 -4.597-0.01-9.194-0.026-13.791-0.045-2.873-0.011-5.745-0.022-8.618-0.032-8.991-0.034-17.982-0.072-26.973-0.116-10.375-0.051-20.75-0.085-31.125-0.105-8.026-0.017-16.051-0.048-24.077-0.092-4.791-0.025-9.583-0.044-14.375-0.047-4.503-3e-3 -9.005-0.025-13.508-0.062-2.441-0.015-4.882-0.01-7.322-5e-3 -1.453-0.015-2.905-0.03-4.401-0.046-1.262-5e-3 -2.524-0.01-3.825-0.015-3.879-0.601-5.532-1.779-8.297-4.511-1.895-3.79-1.148-8.506-1.147-12.691-4e-3 -1.126-8e-3 -2.252-0.012-3.412-0.011-3.799-0.014-7.598-0.018-11.396-7e-3 -2.713-0.013-5.426-0.02-8.139-0.018-7.389-0.028-14.777-0.036-22.165l-0.018-13.833c-0.019-14.412-0.033-28.824-0.042-43.236-9e-3 -16.664-0.036-33.327-0.076-49.991-0.03-12.863-0.045-25.726-0.048-38.589-3e-3 -7.691-0.012-15.381-0.037-23.072-0.023-7.231-0.027-14.462-0.017-21.693 1e-3 -2.659-6e-3 -5.318-0.02-7.977-0.017-3.621-0.01-7.24 3e-3 -10.86-5e-3 -0.531-5e-3 -0.531-0.033-3.215 0.062-7.031 0.062-7.031 2.239-10.352 4.621-2.792 9.239-2.508 14.531-2.526z" fill="#323219"/>
<path transform="translate(1194.4 553.87)" d="m0 0c1.29-4e-3 2.58-9e-3 3.909-0.013 0.704 0 0.704 0 4.266 1e-3 0.744-1e-3 0.744-1e-3 4.51-0.01 4.076-8e-3 8.153-0.011 12.229-0.012 3.402 0 6.805-4e-3 10.207-8e-3 8.023-8e-3 16.047-0.01 24.07-0.01 8.283 1e-3 16.566-0.01 24.848-0.025 7.11-0.013 14.22-0.019 21.33-0.018 4.248 0 8.495-3e-3 12.742-0.013 4.731-0.01 9.462-7e-3 14.193-1e-3 1.412-6e-3 2.824-0.011 4.279-0.017 0.642 2e-3 0.642 2e-3 3.892 0.012 1.119 0 2.238-1e-3 3.391-1e-3 2.744 0.249 2.744 0.249 5.744 2.249 1.381 5.974 1.178 12.157 1.204 18.261 5e-3 1.069 0.011 2.137 0.017 3.237 9e-3 2.249 0.016 4.497 0.02 6.745 9e-3 3.443 0.041 6.886 0.072 10.329 6e-3 2.188 0.012 4.376 0.016 6.564 0.012 1.03 0.024 2.059 0.037 3.119-0.017 5.31-0.084 7.37-3.366 11.745-3.679 0.393-7.06 0.532-10.742 0.498-1.105 6e-3 -2.211 0.011-3.351 0.017-2.404 9e-3 -4.809 9e-3 -7.214 1e-3 -3.803-0.012-7.605-1e-3 -11.409 0.016-6.701 0.027-13.401 0.032-20.102 0.031-10.724-2e-3 -21.447 0.012-32.17 0.056-3.752 0.01-7.503 1e-3 -11.254-9e-3 -2.296 6e-3 -4.591 0.013-6.886 0.021-0.524-4e-3 -0.524-4e-3 -3.173-0.024-5.291 0.038-7.337 0.121-11.699 3.393-1.543 6.174-1.267 12.346-1.312 18.687-0.029 1.338-0.058 2.675-0.088 4.053-0.05 7.85 0.468 13.408 4.4 20.26 2.951 2.95 5.258 2.251 9.384 2.255 1.562 7e-3 3.124 0.014 4.734 0.021 0.838-1e-3 1.677-1e-3 2.541-2e-3 2.623-1e-3 5.246 0.012 7.869 0.029 7.459 0.046 14.918 0.071 22.377 0.078 4.561 5e-3 9.121 0.029 13.682 0.065 1.736 0.01 3.473 0.012 5.21 7e-3 2.434-7e-3 4.868 0.012 7.302 0.033 1.384 2e-3 2.768 5e-3 4.194 8e-3 4.267 0.582 6.4 1.796 9.707 4.506 4.871 7.305 3.184 18.045 3.188 26.5 0.012 1.483 0.024 2.967 0.037 4.496 2e-3 1.435 4e-3 2.869 6e-3 4.347 4e-3 1.302 8e-3 2.603 0.012 3.944-0.331 5.065-0.717 9.123-4.327 12.886-3.817 2.392-6.365 2.326-10.855 2.325-0.804 5e-3 -0.804 5e-3 -4.874 0.03-0.428-2e-3 -0.428-2e-3 -2.594-0.012-2.686-0.013-5.371-1e-3 -8.057 0.016-4.731 0.027-9.463 0.032-14.194 0.031-7.577-2e-3 -15.153 0.012-22.73 0.056-2.646 9e-3 -5.291 1e-3 -7.937-9e-3 -1.605 7e-3 -3.21 0.014-4.864 0.021-0.708-1e-3 -0.708-1e-3 -4.288-3e-3 -3.523 0.372-3.523 0.372-7.523 3.372-2.499 9.346-2.333 18.751-2.312 28.375-0.016 1.53-0.032 3.06-0.049 4.636 0 0.735 0 0.735-2e-3 4.45-3e-3 1.328-6e-3 2.656-9e-3 4.025 0.392 3.697 1.129 5.586 3.372 8.514 3.733 1.866 8.328 1.089 12.445 1.05 1.087-7e-3 2.173-0.013 3.292-0.019 2.365-0.014 4.73-0.03 7.095-0.048 3.739-0.026 7.479-0.044 11.219-0.059 10.635-0.043 21.271-0.091 31.906-0.171 6.499-0.049 12.998-0.078 19.497-0.094 2.481-0.01 4.962-0.027 7.443-0.052 3.467-0.033 6.933-0.042 10.4-0.046 1.03-0.015 2.059-0.031 3.12-0.048 6.899 0.03 6.899 0.03 10.207 2.238 4.961 8.103 2.597 22.367 2.617 31.748 9e-3 2.89 0.041 5.779 0.072 8.669 6e-3 1.847 0.012 3.695 0.016 5.543 6e-3 0.429 6e-3 0.429 0.037 2.601-0.031 8.349-0.031 8.349-3.366 11.688-5.18 0.873-10.237 1.124-15.482 1.122-1.457 2e-3 -2.913 4e-3 -4.414 5e-3 -0.789-1e-3 -0.789-1e-3 -4.782-0.01-1.694-1e-3 -3.388-1e-3 -5.082 0-5.54-1e-3 -11.079-0.013-16.618-0.027-0.945-3e-3 -1.889-5e-3 -2.861-7e-3 -8.908-0.021-17.816-0.046-26.724-0.081-11.376-0.045-22.751-0.07-34.127-0.067-8.011 1e-3 -16.022-0.022-24.034-0.061-4.78-0.023-9.56-0.036-14.341-0.024-4.494 0.01-8.988-8e-3 -13.482-0.047-2.43-0.014-4.861 1e-3 -7.292 0.018-11.916-0.149-11.916-0.149-16.251-3.26-3.182-4.516-3.415-7.995-3.212-13.323 8e-3 -0.975 0.017-1.95 0.026-2.955 0.037-3.253 0.125-6.503 0.212-9.756 0.035-2.317 0.067-4.634 0.096-6.952 0.087-6.249 0.215-12.496 0.351-18.745 0.134-6.499 0.231-12.999 0.329-19.499 0.02-1.301 0.039-2.601 0.059-3.942 0.04-2.64 0.08-5.281 0.119-7.921 0.062-3.998 0.128-7.996 0.194-11.994 0.277-17.022 0.351-34.033 0.234-51.056-0.012-2.149-0.025-4.298-0.037-6.446-0.049-8.067-0.1-16.134-0.203-24.2-0.241-19.231-0.342-37.199 5.322-55.772 0.571-3.472 1.005-6.907 1.348-10.407 1.095-4.351 3.751-6.89 7.215-9.593 3.256-4.008 3.761-7.827 4.664-12.844 0.796-3.247 1.984-5.361 3.773-8.156 0.248-0.691 0.248-0.691 1.5-4.188 1.5-3.812 1.5-3.812 4.5-5.812 3.818-1.029 7.449-1.128 11.39-1.134z" fill="#323219"/>
<path transform="translate(177.85 553.84)" d="m0 0c1.128-0.01 2.256-0.019 3.418-0.029 1.203-4e-3 2.406-9e-3 3.646-0.013 0.624-3e-3 0.624-3e-3 3.779-0.017 2.631-0.01 5.262-0.016 7.893-0.02 4.031-0.01 8.062-0.041 12.094-0.072 2.557-7e-3 5.114-0.012 7.671-0.016 0.604-6e-3 0.604-6e-3 3.659-0.037 1.122 3e-3 2.243 6e-3 3.399 9e-3 0.492-2e-3 0.492-2e-3 2.986-0.011 2.605 0.367 2.605 0.367 6.605 3.367 0.547 2.559 0.547 2.559 0.75 5.438 0.426 2.988 0.426 2.988 1.25 5.562 2.624 1.416 5.293 2.751 8 4 3.439 8.027 4.235 16.506 5.285 25.113 0.88 6.252 1.502 9.838 6.715 13.887 3.26 4.347 3.605 6.427 4.375 11.688 1.361 7.863 3.65 12.7 7.953 19.371 4.29 7.456 5.038 15.321 6.094 23.722 0.578 4.219 0.578 4.219 1.578 6.219 1.464 0.206 2.929 0.413 4.437 0.625 1.506 0.454 3.012 0.908 4.563 1.375 2.759 7.617 3.017 16.133 3.855 24.152 0.12 1.079 0.24 2.158 0.364 3.27 0.102 0.976 0.205 1.951 0.31 2.956 0.471 2.622 0.471 2.622 2.471 6.622 2.277 1.09 2.277 1.09 4.937 1.938 4.522 1.628 5.691 2.883 8.063 7.062 3.687 0.813 3.687 0.813 7 1 1.828-5.745 3.207-11.237 4.187-17.187 1.459-7.237 4.055-9.426 9.813-13.813 1.704-4.014 2.381-7.943 2.937-12.25 1.505-10.216 3.642-17.329 11.063-24.75 1.917-4.37 3.127-8.502 3.875-13.187 1.203-5.145 2.229-6.487 6.125-9.813 2.834-3.935 3.582-7.368 4.312-12.125 1.619-8.685 4.666-15.372 10.438-22.062 3.49-4.362 4.025-8.79 4.633-14.262 0.142-1.234 0.283-2.467 0.429-3.738 0.11-1.17 0.22-2.339 0.332-3.543 1.064-4.066 2.599-5.669 5.856-8.27l4-1c-0.083-0.907-0.165-1.815-0.25-2.75 0.25-3.25 0.25-3.25 2.062-5.562 3.392-2.616 6.134-2.818 10.283-2.849 1.038-0.01 2.076-0.019 3.146-0.029 0.561-2e-3 0.561-2e-3 3.4-0.013 1.155-6e-3 2.311-0.011 3.501-0.017 2.448-0.01 4.896-0.016 7.344-0.02 3.735-0.01 7.47-0.041 11.205-0.072 2.379-7e-3 4.758-0.012 7.137-0.016 0.557-6e-3 0.557-6e-3 3.375-0.037 12.467 0.035 12.467 0.035 16.797 4.365-0.697 9.584-2.041 16.514-9.289 23.043-4.744 5.426-5.707 13.421-6.711 20.332-0.716 4.757-1.652 7.99-5 11.625-0.843 0.241-1.686 0.482-2.555 0.731-0.403 0.209-0.403 0.209-2.445 1.269-0.863 2.949-0.863 2.949-1.313 6.688-1.476 8.858-5.175 15.638-9.687 23.312-3.704 6.335-4.682 11.61-5.313 18.828-0.793 3.663-1.746 4.915-4.687 7.172-1.031 0.31-2.063 0.619-3.125 0.938-2.875 2.062-2.875 2.062-3.633 4.824-0.499 3.408-0.886 6.813-1.242 10.238-1.295 7.372-3.134 17.172-9.516 21.84-3.382 2.941-3.813 5.607-4.922 9.91-1.638 5.761-3.165 9.318-7.148 13.863-2.86 4.828-3.442 10.593-4.457 16.047-0.926 4.199-1.848 7.594-3.957 11.34-1.997 1.006-3.997 2.006-6 3-1.391 2.934-1.391 2.934-2.25 6.438-0.313 1.242-0.627 2.485-0.949 3.765-0.936 4.437-1.669 8.869-2.211 13.371-0.941 3.87-3.378 5.296-6.653 7.301-3.283 2.375-3.753 3.364-4.937 7.125-0.264 1.933-0.492 3.871-0.688 5.813-0.86 5.726-2.688 8.197-6.703 12.195-2.388 2.956-2.695 5.833-3.218 9.523-0.733 4.629-2.05 9.128-5.391 12.469-3.243 0.237-6.398 0.353-9.645 0.371-0.962 9e-3 -1.924 0.018-2.915 0.028-2.038 0.014-4.077 0.023-6.115 0.027-3.115 0.012-6.228 0.061-9.343 0.111-1.979 0.01-3.959 0.017-5.939 0.022-0.465 9e-3 -0.465 9e-3 -2.819 0.059-4.301-0.03-6.74-0.252-10.215-2.883-3.648-4.966-5.614-10.054-7.009-15.985-1-3.75-1-3.75-2.984-5.848-3.262-4.695-3.088-10.287-3.442-15.861-0.277-2.646-0.277-2.646-1.574-7.041-3.922-1.301-3.922-1.301-8-2-3.902-4.078-3.874-9.743-4.5-15.125-2.695-20.395-2.695-20.395-7.625-24.437-0.949-0.475-1.898-0.949-2.875-1.438-1.337-2.674-1.405-5.154-1.75-8.125-1.189-8.093-4.377-12.377-9.25-18.875-1.098-3.25-1.098-3.25-2.063-7-0.348-1.326-0.696-2.653-1.054-4.019-0.796-3.587-1.22-7.019-1.571-10.668-0.418-2.926-0.418-2.926-1.312-5.313-2.856-1.975-5.694-2.806-9-4-1.95-4.228-2.393-8.465-2.875-13.062-2.372-18.643-2.372-18.643-7.66-23.051-0.814-0.623-1.627-1.245-2.465-1.887-1.638-4.032-2.757-7.825-3.637-12.078-0.223-1.047-0.446-2.093-0.676-3.172-0.181-0.974-0.363-1.949-0.55-2.953-1.137-2.797-1.137-2.797-4.071-4.922-4.507-4.226-4.815-8.688-5.816-14.625-0.39-2.099-0.781-4.198-1.172-6.297-0.524-2.891-1.048-5.782-1.559-8.676-0.41-2.113-0.952-4.2-1.519-6.277-2.938-1.375-2.938-1.375-6-2-5.1-5.1-4.552-10.998-5.207-17.922-1.159-5.957-3.531-9.816-7.793-14.078 0.062-2.562 0.062-2.562 1-5 5.321-2.66 9.963-3.12 15.85-3.161z" fill="#323219"/>
<path transform="translate(880.15 553.87)" d="m0 0c1.052-3e-3 2.104-6e-3 3.187-0.01 1.138 2e-3 2.275 4e-3 3.447 7e-3 1.173-1e-3 2.346-2e-3 3.555-3e-3 2.486-1e-3 4.973 1e-3 7.459 5e-3 3.786 5e-3 7.572 0 11.357-6e-3 2.418 0 4.836 2e-3 7.254 4e-3 0.563-1e-3 0.563-1e-3 3.41-7e-3 16.723 0.05 16.723 0.05 22.176 4.139 1.414 3.661 1.414 3.661 2.625 8.063 0.215 0.762 0.215 0.762 1.301 4.621 0.834 3.349 1.439 6.532 1.887 9.941 1.391 5.125 3.079 6.653 7.312 9.61 4.241 3.993 4.246 9.947 4.813 15.453 0.904 7.791 2.581 14.87 5.062 22.312l4 2c3.646 3.646 3.566 5.295 4.25 10.313 1.232 7.276 3.555 12.73 7.039 19.176 3.709 7.612 5.339 15.933 6.586 24.261 1.125 4.25 1.125 4.25 4.063 6.125 0.505 0.186 0.505 0.186 3.062 1.125 2.835 3.78 3.427 4.853 4.098 9.211 0.162 0.998 0.323 1.996 0.49 3.024 0.157 1.036 0.313 2.073 0.475 3.14 1.946 12.474 1.946 12.474 3.937 17.625 3.75 0.625 3.75 0.625 8 0 1.383-2.411 2.103-4.816 2.938-7.464 1.613-3.851 4.648-5.301 8.062-7.536 2.564-4.369 4.034-8.917 5.5-13.75 0.433-1.402 0.866-2.805 1.313-4.25 0.702-2.364 1.379-4.737 2-7.125 1.395-5.328 2.673-7.749 7.187-10.875 3.065-5.704 2.754-12.43 3.242-18.75 0.796-4.462 1.515-6.176 4.758-9.25 0.864-0.487 1.728-0.974 2.617-1.476 3.073-1.965 3.479-3.441 4.508-6.899 0.326-1.067 0.652-2.134 0.988-3.234 0.87-3.323 1.541-6.645 2.2-10.016 0.997-4.663 2.314-7.626 5.25-11.375 3.791-4.854 4.324-9.053 4.996-15.074 0.581-3.854 1.805-6.07 4.441-8.926 0.506-0.257 0.506-0.257 3.063-1.562 6.851-5.686 6.409-18.168 7.312-26.539 0.625-2.899 0.625-2.899 3.625-5.899 2.527-0.367 2.527-0.367 5.582-0.356 1.146-3e-3 2.291-6e-3 3.471-9e-3 1.241 0.012 2.482 0.025 3.76 0.037 0.639 1e-3 0.639 1e-3 3.876 6e-3 2.714 7e-3 5.427 0.021 8.141 0.041 4.126 0.031 8.251 0.041 12.377 0.047 2.64 9e-3 5.279 0.02 7.918 0.031 1.225 5e-3 2.449 9e-3 3.71 0.013 20.14 0.165 20.14 0.165 23.165 3.19 0.49 5.293 0.308 6.59-3 11-1.175 0.062-2.351 0.124-3.562 0.188-1.135 0.268-2.269 0.536-3.438 0.812-1.45 4.144-1.891 7.856-2.304 12.207-0.807 7.072-1.901 10.943-6.961 15.993-6.373 6.616-9.138 18.085-11.571 26.793-1.164 3.007-1.164 3.007-3.687 6.308-2.944 4.398-3.452 7.665-4.102 12.887-1.069 8.404-1.069 8.404-4.375 12.812-1.007 0.271-2.013 0.542-3.051 0.821-2.949 1.179-2.949 1.179-4.304 4.234-0.138 0.63-0.138 0.63-0.832 3.82-0.158 0.675-0.158 0.675-0.957 4.09-0.524 2.47-1.043 4.942-1.555 7.414-1.549 7.013-3.676 11.111-8.301 16.621-1.885 3.771-2.348 5.921-2.812 10-0.874 5.67-0.874 5.67-3.563 8.5-0.433 0.248-0.433 0.248-2.625 1.5-3.84 3.133-4.649 5.526-5.379 10.375-0.199 1.233-0.398 2.465-0.603 3.735-0.192 1.284-0.383 2.568-0.58 3.89-0.387 2.544-0.784 5.085-1.192 7.625-0.168 1.127-0.336 2.254-0.51 3.414-0.736 2.961-0.736 2.961-3.736 6.961-1.175 0.124-2.351 0.248-3.562 0.375-1.135 0.207-2.269 0.413-3.438 0.625-2.484 5.504-2.674 11.402-3.242 17.344-0.846 4.081-2.134 6.442-4.758 9.656-0.99 0.33-1.98 0.66-3 1-0.808 2.153-0.808 2.153-1.437 4.938-1.723 6.873-3.406 13.528-8.063 19-6.063 7.427-7.066 16.487-8.008 25.777-0.492 3.285-0.492 3.285-2.492 7.285-3.295 2.197-6.213 2.918-10 4l-3 2c-5.361 0.457-10.746 0.324-16.125 0.313-0.742 8e-3 -0.742 8e-3 -4.5 0.049-14.667 6e-3 -14.667 6e-3 -21.375-3.362-3.816-4.174-4.562-7.77-5.062-13.312-0.693-6.013-1.332-11.197-3.938-16.688-3-1.125-3-1.125-6-2-3.278-6.074-3.972-12.417-4.816-19.148-0.821-5.926-2.103-9.641-6.184-13.977-3.673-5.28-4.584-11.763-5.812-18-1.262-4.116-2.971-6.939-5.457-10.406-0.571-0.815-1.142-1.629-1.731-2.469-0.856-1.198-1.712-2.397-2.594-3.632-2.781-5.049-3.5-9.095-4.093-14.743-1.082-9.394-1.082-9.394-3.313-11.625-1.155-0.453-2.31-0.907-3.5-1.375-3.5-1.625-3.5-1.625-5.5-5.625-0.568-3.233-1.066-6.436-1.5-9.687-2.509-18.404-2.509-18.404-6.5-22.063-0.99-0.742-1.98-1.485-3-2.25-1.918-3.769-2.368-7.325-2.812-11.5-0.61-4.26-0.886-6.11-3.563-9.562-0.433-0.32-0.433-0.32-2.625-1.938-3.96-3.247-4.748-5.88-5.625-10.875-0.242-1.325-0.484-2.65-0.734-4.015-0.781-5.012-1.361-10.035-1.82-15.086-1.321-4.869-4.842-7.171-8.543-10.395-2.824-3.259-3.14-5.449-3.715-9.691-1.291-7.525-3.848-13.326-7.563-19.938-3.55-6.804-6-12.247-6-20 3.809-3.808 6-4.125 11.155-4.129z" fill="#323219"/>
<path transform="translate(745.38 553.84)" d="m0 0c1.125-0.01 2.25-0.019 3.409-0.029 0.61-2e-3 0.61-2e-3 3.699-0.013 0.625-3e-3 0.625-3e-3 3.79-0.017 2.65-0.01 5.301-0.016 7.951-0.02 4.056-0.01 8.112-0.041 12.167-0.072 2.573-7e-3 5.145-0.012 7.717-0.016 1.215-0.012 2.43-0.025 3.681-0.037 1.134 3e-3 2.269 6e-3 3.438 9e-3 0.995-4e-3 1.99-8e-3 3.016-0.011 3.528 0.471 6.219 1.834 8.752 4.367 0.071 2.736 0.068 5.474 0.039 8.211-7e-3 0.871-0.015 1.742-0.023 2.64-0.017 1.92-0.037 3.84-0.058 5.759-0.036 3.124-0.065 6.247-0.093 9.37-0.03 3.362-0.061 6.724-0.093 10.087-0.079 8.34-0.139 16.68-0.187 25.021-7e-3 1.208-0.014 2.416-0.021 3.661-0.028 4.986-0.056 9.972-0.083 14.959-0.078 14.18-0.175 28.36-0.331 42.539-0.125 11.25-0.207 22.5-0.239 33.75-0.018 5.959-0.058 11.915-0.149 17.873-0.086 5.605-0.115 11.207-0.101 16.813-5e-3 2.059-0.031 4.118-0.078 6.176-0.129 5.865-0.18 11.445 1.417 17.141 3.703 3.262 7.232 4.1 12 5 0.859 0.354 1.718 0.707 2.603 1.071 4.048 1.569 8.316 1.17 12.6 1.124 1.025-2e-3 2.05-5e-3 3.106-8e-3 2.222-8e-3 4.445-0.02 6.667-0.037 3.518-0.025 7.036-0.038 10.554-0.048 8.737-0.027 17.474-0.075 26.212-0.123 7.384-0.039 14.768-0.07 22.152-0.091 3.464-0.013 6.929-0.038 10.393-0.063 2.127-7e-3 4.254-0.014 6.381-0.02 0.961-0.011 1.923-0.021 2.914-0.031 4.822-1e-3 9.033 0.096 13.418 2.226 1.687 3.313 1.687 3.313 3 7 1.588 2.961 3.133 5.143 5.441 7.606 3.014 3.999 3.934 7.295 5.121 12.144 4.649 17.771 4.649 17.771 9.688 21.938 2.75 2.312 2.75 2.312 3.312 5.937-0.562 3.375-0.562 3.375-3.562 6.375-3.703 0.375-3.703 0.375-8.465 0.374-0.874 4e-3 -1.749 8e-3 -2.649 0.012-2.942 0.01-5.882-2e-3 -8.824-0.014-2.104 3e-3 -4.207 7e-3 -6.311 0.012-5.723 9e-3 -11.446-1e-3 -17.169-0.014-5.981-0.011-11.961-7e-3 -17.942-5e-3 -10.044 1e-3 -20.088-0.01-30.132-0.029-11.624-0.021-23.248-0.024-34.872-0.018-11.167 6e-3 -22.334 0-33.501-0.011-4.759-5e-3 -9.519-6e-3 -14.278-4e-3 -5.601 2e-3 -11.202-6e-3 -16.803-0.022-2.059-4e-3 -4.119-5e-3 -6.179-2e-3 -2.803 3e-3 -5.607-6e-3 -8.41-0.018-1.572-2e-3 -3.143-4e-3 -4.762-6e-3 -3.703-0.255-3.703-0.255-6.703-2.255-1.517-4.551-1.137-9.179-1.127-13.932-2e-3 -1.14-3e-3 -2.28-5e-3 -3.454-4e-3 -3.84-1e-3 -7.679 2e-3 -11.518-1e-3 -2.744-3e-3 -5.489-5e-3 -8.233-4e-3 -7.469-3e-3 -14.938 1e-3 -22.406 2e-3 -7.803 0-15.605-2e-3 -23.407-2e-3 -13.945 1e-3 -27.889 6e-3 -41.834 5e-3 -12.651 4e-3 -25.302 0-37.953-6e-3 -14.681-8e-3 -29.362-5e-3 -44.042 2e-3 -7.776 2e-3 -15.551-1e-3 -23.326-3e-3 -7.308-1e-3 -14.616 4e-3 -21.924 2e-3 -2.689 1e-3 -5.377-1e-3 -8.066-3e-3 -3.657 1e-3 -7.315 6e-3 -10.972-2e-3 -1.075-5e-3 -2.15-7e-3 -3.257 0.02-7.333 0.02-7.333 1.134-10.676 2.588-1.294 4.482-1.141 7.38-1.161z" fill="#323219"/>
<path transform="translate(39.484 553.7)" d="m0 0c0.646-2e-3 0.646-2e-3 3.917-0.013 2.723-6e-3 5.446-6e-3 8.169-2e-3 4.179 3e-3 8.357-0.02 12.535-0.046 2.647-2e-3 5.294-3e-3 7.941-1e-3 0.627-5e-3 0.627-5e-3 3.798-0.028 0.579 3e-3 0.579 3e-3 3.51 0.018 1.02 0 2.041-1e-3 3.092-1e-3 2.554 0.374 2.554 0.374 5.554 3.374 0.809 3.6 1.332 7.197 1.863 10.847 0.375 1.041 0.75 2.081 1.137 3.153 2.918 1.121 2.918 1.121 6 2 2.611 3.53 3.554 6.708 4.281 11 0.202 1.134 0.405 2.269 0.613 3.437 0.404 2.375 0.807 4.75 1.211 7.125 0.202 1.135 0.405 2.269 0.613 3.438 0.175 1.031 0.35 2.062 0.53 3.125 1.089 4.163 2.98 7.022 5.845 10.191 2.48 3.491 2.805 6.402 3.407 10.621 0.827 5.786 1.946 9.402 5.5 14.063 6.911 9.215 8.662 17.61 9.543 29.058 0.457 3.942 0.457 3.942 2.457 7.942 0.99 0.598 1.98 1.196 3 1.812 3.853 2.81 3.887 4.614 5 9.188 0.33 1.276 0.66 2.552 1 3.867 0.165 0.661 0.165 0.661 1 4.008 0.358 1.398 0.716 2.797 1.086 4.238 0.711 3.025 1.169 5.879 1.539 8.949 1.802 5.163 4.436 6.395 8.98 9.164 2.395 1.774 2.395 1.774 4.582 6.211 0.598 1.176 1.196 2.352 1.813 3.563 3.613 0.222 3.613 0.222 7 0 3.972-15.544 3.972-15.544 5.062-21.813 0.938-4.187 0.938-4.187 3.938-7.187 0.845-0.124 1.691-0.248 2.562-0.375 0.804-0.206 1.609-0.413 2.438-0.625 1-2.125 1-2.125 2-5 2.5-3.813 2.5-3.813 5-7h2c3.716 7.432 4.714 14.312 5.41 22.558 0.59 3.442 0.59 3.442 3.59 6.442 1.01 0.33 2.021 0.66 3.062 1 2.938 1 2.938 1 4.938 4 0.364 2.741 0.643 5.494 0.875 8.25 2.296 22.03 2.296 22.03 8.375 27.875 0.453 0.309 0.453 0.309 2.75 1.875v5c-2.384 1.819-3.959 3-7 3-4.13 16.558-4.13 16.558-4.563 22.812-0.437 4.188-0.437 4.188-3.437 8.188-1.176 0.309-2.352 0.619-3.563 0.937-3.437 1.063-3.437 1.063-4.605 3.235-0.904 3.071-1.262 5.957-1.582 9.14-0.761 5.37-2.016 8.184-5.668 12.317-2.949 4.42-3.955 9.672-5.309 14.761-1.376 3.9-1.946 5.233-5.273 7.61-3.458 0.47-6.593 0.703-10.059 0.742-0.981 0.018-1.963 0.036-2.974 0.055-2.073 0.029-4.147 0.046-6.221 0.054-3.172 0.024-6.336 0.122-9.506 0.223-2.016 0.019-4.033 0.033-6.049 0.043-0.946 0.039-1.892 0.078-2.867 0.118-2.689-0.036-2.689-0.036-7.324-1.235-4.642-5.903-5.892-13.078-7.129-20.313-0.288-0.887-0.575-1.773-0.871-2.687l-4-2c-2.46-4.919-2.703-9.265-3.243-14.688-1.152-5.039-3.737-6.614-7.902-9.465-3.79-3.78-4.062-7.309-4.543-12.41-0.224-1.794-0.452-3.589-0.683-5.383-0.053-0.433-0.053-0.433-0.32-2.626-1.664-13.071-1.664-13.071-6.872-17.366-1.134-0.68-2.269-1.361-3.437-2.062-1.821-3.555-2.406-7.005-2.938-10.938-0.989-6.228-2.848-10.314-6.453-15.504-3.72-5.941-5.114-12.605-6.838-19.334-1.755-6.316-3.29-9.278-8.771-13.224-2.037-5.309-3.087-10.336-3.938-15.938-1.535-9.684-3.449-15.745-11.062-22.062-1.821-4.019-2.723-8.246-3.411-12.59-0.132-0.837-0.265-1.673-0.402-2.535-0.044-0.373-0.044-0.373-0.269-2.258-0.918-2.617-0.918-2.617-3.782-6.055-4.294-5.491-5.204-11.723-6.511-18.437-0.259-1.235-0.519-2.47-0.786-3.742-1.839-8.878-1.839-8.878-1.839-11.383-0.454-0.114-0.454-0.114-2.75-0.688-3.767-1.521-5.075-2.929-7.25-6.312-0.896-3.584-1.193-6.585-1.375-10.25-0.401-5.399-1.098-9.876-3.625-14.75-2.625-1.75-2.625-1.75-5-3l-1-4c7.656-5.743 15.271-5.308 24.484-5.301z" fill="#323219"/>
<path transform="translate(1633.1 553.85)" d="m0 0c1.045-6e-3 2.089-0.013 3.166-0.019 0.564-1e-3 0.564-1e-3 3.418-4e-3 1.161-3e-3 2.321-6e-3 3.516-0.01 2.457-5e-3 4.913-7e-3 7.369-7e-3 3.758-2e-3 7.514-0.02 11.272-0.039 2.385-3e-3 4.771-5e-3 7.156-6e-3 1.124-7e-3 2.248-0.015 3.406-0.022 0.526 2e-3 0.526 2e-3 3.185 9e-3 0.922-1e-3 1.843-3e-3 2.792-4e-3 2.879 0.274 5.01 0.959 7.594 2.247 1.908 3.817 1.143 8.591 1.14 12.806 3e-3 1.138 6e-3 2.276 9e-3 3.449 9e-3 3.84 0.01 7.68 0.012 11.52 4e-3 2.743 9e-3 5.485 0.015 8.228 0.013 7.469 0.019 14.938 0.024 22.407 3e-3 4.661 7e-3 9.322 0.011 13.983 0.014 14.569 0.024 29.138 0.027 43.707 1e-3 1.678 1e-3 3.355 2e-3 5.033v2.522c4e-3 13.49 0.022 26.979 0.045 40.469 0.024 13.84 0.036 27.681 0.037 41.521 2e-3 7.775 7e-3 15.549 0.025 23.324 0.017 7.31 0.019 14.619 0.01 21.929-1e-3 2.688 4e-3 5.377 0.014 8.065 0.012 3.659 7e-3 7.318-4e-3 10.978 4e-3 0.536 4e-3 0.536 0.024 3.25-0.035 5.324-0.102 7.423-3.391 11.809-5.452 1.613-11.48 1.18-17.129 1.203-0.534 3e-3 -0.534 3e-3 -3.234 0.018-2.25 9e-3 -4.5 0.016-6.751 0.019-3.441 0.01-6.881 0.041-10.322 0.073-2.189 6e-3 -4.379 0.012-6.568 0.015-0.514 7e-3 -0.514 7e-3 -3.113 0.038-9.004-0.028-9.004-0.028-12.883-3.366-2.922-4.383-2.256-8.792-2.216-13.894 0-1.136 1e-3 -2.272 2e-3 -3.442 6e-3 -3.825 0.026-7.651 0.047-11.476 7e-3 -2.735 0.013-5.469 0.018-8.204 0.018-7.442 0.049-14.883 0.082-22.325 0.033-7.775 0.056-15.549 0.081-23.323 0.046-13.894 0.103-27.789 0.163-41.684 0.054-12.605 0.098-25.21 0.135-37.816 0.042-14.628 0.09-29.256 0.149-43.884 0.031-7.747 0.059-15.495 0.081-23.242 0.02-7.282 0.051-14.564 0.088-21.846 0.013-2.678 0.022-5.357 0.027-8.036 8e-3 -3.645 0.027-7.289 0.051-10.933-1e-3 -1.071-2e-3 -2.142-2e-3 -3.245 0.065-7.307 0.065-7.307 2.294-10.65 2.995-0.998 4.997-1.132 8.126-1.145z" fill="#323219"/>
<path transform="translate(2622,686)" d="m0 0c2.809 2.336 2.809 2.336 5.438 5.375 0.941 1.08 1.882 2.16 2.851 3.273 3.16 3.907 6.049 7.958 8.926 12.075 2.207 2.815 4.73 4.458 7.785 6.277 2.368 4.735 3.043 8.805 4 14 1.093 0.103 2.186 0.206 3.312 0.312 3.688 0.688 3.688 0.688 6.688 3.688 1.645 4.712 2.394 9.302 2.938 14.25 3.197 26.694 3.197 26.694 6.187 32.75 2.397 5.113 2.71 9.412 2.875 15 0.02 0.55 0.02 0.55 0.121 3.332 0.137 7.443-0.239 14.819-0.871 22.23-0.062 0.845-0.123 1.69-0.187 2.561-0.52 5.411-1.907 8.527-5.063 12.877-0.758 2.586-0.758 2.586-1.125 5.375-0.147 1.115-0.294 2.23-0.445 3.379-0.663 6.546-1.191 13.104-1.645 19.667-1.102 14.896-1.102 14.896-5.785 19.579-3.688 0.188-3.688 0.188-7 0-0.11 0.692-0.219 1.384-0.332 2.098-0.339 2.09-0.69 4.178-1.051 6.265-0.423 2.492-0.812 4.99-1.172 7.492-1.399 8.613-3.093 13.133-9.445 19.145-2.868 3.824-3.334 4.69-3.875 9.062-0.833 4.693-0.833 4.693-3.437 6.876-0.887 0.35-1.774 0.701-2.688 1.062-2.562 1.062-2.562 1.062-5 3-0.657 1.646-1.256 3.317-1.812 5-0.958 2.711-0.958 2.711-2.188 5-2.639 1.072-5.307 2.074-8 3-0.32 0.65-0.32 0.65-1.938 3.938-2.822 5.559-5.276 6.078-11.062 8.062h-2c0.062 1.423 0.124 2.846 0.188 4.312-0.188 4.688-0.188 4.688-3.188 7.688-3.562 0.312-3.562 0.312-7 0-2-2-2-2-2.082-5.52 0.089-1.416 0.178-2.833 0.27-4.292 0.038-0.705 0.038-0.705 0.23-4.27 0.569-3.832 1.133-5.948 3.582-8.918 2.322-0.407 4.657-0.744 7-1 6.766-10.15 4.662-29.852 5.303-41.686 0.038-0.694 0.038-0.694 0.232-4.205 0.066-1.248 0.132-2.496 0.2-3.782 0.228-2.869 0.686-5.516 1.265-8.327 0.121-3.219 0.185-6.407 0.188-9.625 6e-3 -0.42 6e-3 -0.42 0.037-2.543 0.012-5.471-0.632-10.51-1.697-15.868-1.215-6.821-1.671-13.773-2.296-20.669-0.702-7.116-1.715-13.58-4.232-20.295-2.938-1.625-2.938-1.625-6-3-4.11-6.106-5.029-12.509-6.191-19.707-0.809-3.293-0.809-3.293-3.809-6.293-0.846-0.474-1.691-0.949-2.562-1.438-2.438-1.562-2.438-1.562-4.438-5.562-0.247-1.464-0.495-2.929-0.75-4.438-1.438-5.247-3.004-6.4-7.25-9.562-1.069-4.275-0.774-6.214 0.188-10.438 0.241-1.112 0.482-2.224 0.73-3.371 1.082-3.191 1.082-3.191 3.07-5.601 2.631-3.386 3.139-6.412 4.012-10.59 1.39-6.653 3.046-10.404 8.156-14.895 2.463-2.812 2.731-5.128 3.344-8.793 2.536-13.348 2.536-13.348 6.5-17.312 2.666-0.041 5.334-0.042 8 0 0.159-0.748 0.317-1.495 0.48-2.266 1.89-7.974 1.89-7.974 4.645-11.296 6.211-3.106 12.138-4.106 18.875-2.438z" fill="#323219"/>
<path transform="translate(2499 673.62)" d="m0 0c3 0.375 3 0.375 6 3.375 0.194 2.522 0.387 5.044 0.566 7.566 0.652 3.66 2.618 5.142 5.434 7.434 4.154 4.217 4.851 7.898 5.688 13.687 0.115 0.755 0.115 0.755 0.699 4.575 1.71 14.269 1.816 28.698 1.863 43.051 0.021 1.641 0.041 3.283 0.062 4.974 3e-3 0.786 3e-3 0.786 0.016 4.764 9e-3 1.409 0.019 2.818 0.028 4.271-0.373 3.852-0.961 5.68-3.356 8.678-1.279 0.804-2.557 1.609-3.875 2.437-5.95 4.218-7.102 10.875-9.125 17.563-1.811 5.462-3.349 9.561-7.562 13.563-4.703 4.912-4.906 10.888-5.829 17.394-0.691 4.586-2.107 8.662-3.609 13.043-0.851 3.871-1.613 7.751-2.352 11.645-0.476 2.467-1.039 4.917-1.648 7.355-1.873 39.269-1.873 39.269 5.043 54.629 2.457 6.087 3.809 12.973 1.957 19.371-1 1-1 1-3.938 1.313-1.01-0.104-2.021-0.207-3.062-0.313-2-4-2-4-2.375-8.063-0.625-3.937-0.625-3.937-4.625-6.937-0.505-0.206-0.505-0.206-3.062-1.25-3.986-2.374-4.544-4.359-5.938-8.75-0.302-1.748-0.594-3.498-0.875-5.25-1.125-4.75-1.125-4.75-3.437-6.563-0.887-0.391-1.774-0.783-2.688-1.187-2.992-2.227-4.785-3.768-5.441-7.523-0.102-0.941-0.204-1.882-0.309-2.852-0.473-3.522-0.765-5.137-3.297-7.684-2.453-1.754-2.453-1.754-4.859-3.211-4.041-3.339-4.399-8.856-5.129-13.828-0.17-1.131-0.339-2.262-0.514-3.427-0.169-1.168-0.339-2.335-0.513-3.538-0.345-2.324-0.69-4.648-1.036-6.972-0.149-1.025-0.299-2.05-0.453-3.106-0.148-0.943-0.296-1.887-0.449-2.859-0.101-0.907-0.202-1.814-0.306-2.748-0.115-0.371-0.115-0.371-0.694-2.252l-4-2c-6.363-6.363-5.111-16.16-5.139-24.714 2e-3 -1.021 4e-3 -2.043 6e-3 -3.095-1e-3 -1.088-2e-3 -2.176-3e-3 -3.296 0-2.285 1e-3 -4.57 6e-3 -6.855 5e-3 -3.465 0-6.929-7e-3 -10.394 1e-3 -2.235 2e-3 -4.47 4e-3 -6.705-2e-3 -1.019-4e-3 -2.038-6e-3 -3.088 0.016-5.12 0.132-10.236 0.397-15.349 0.023-0.48 0.023-0.48 0.137-2.908 0.762-3.272 1.99-4.54 4.605-6.596 0.864-0.044 1.727-0.088 2.617-0.133 0.787-0.286 1.573-0.572 2.383-0.867 0.989-3.386 1.623-6.412 2.125-9.875 0.331-1.927 0.665-3.854 1-5.781 0.493-2.978 0.971-5.956 1.437-8.938 1.121-5.541 2.741-8.043 7.313-11.093 0.447-0.271 0.447-0.271 2.711-1.637 2.414-1.676 2.414-1.676 4.914-5.676 3.298-5.277 7.342-7.688 12.5-11 1.776-1.243 3.547-2.493 5.312-3.75 4.319-3.055 8.369-5.781 13.376-7.563 3.312-1.687 3.312-1.687 4.562-4.687 0.124-0.495 0.124-0.495 0.75-3 3-3 3-3 6-3.375z" fill="#323219"/>
<path transform="translate(2741,674)" d="m0 0c2 2 2 2 3.125 6.812 1.274 4.57 1.708 5.07 5.875 8 1.32 0.722 2.64 1.444 4 2.188 0.5 0.833 0.5 0.833 3 5 1.299 0.701 2.599 1.403 3.938 2.125 4.86 3.439 5.551 5.772 6.98 11.352 1.404 3.274 2.927 3.98 6.082 5.523 4 2 4 2 5.055 5.098 0.27 1.308 0.541 2.616 0.82 3.964 4.952 21.707 4.952 21.707 11.125 29.938 2.567 8.832 2.335 18.263 2.312 27.375 0.017 1.307 0.033 2.614 0.049 3.961 0.011 21.495 0.011 21.495-5.356 28.13-2.452 3.099-3.008 5.556-3.821 9.409-0.29 1.315-0.579 2.63-0.877 3.984-0.287 1.367-0.574 2.733-0.869 4.141-0.577 2.71-1.161 5.418-1.754 8.125-0.126 0.599-0.126 0.599-0.764 3.633-1.671 5.889-3.766 8.203-8.92 11.242-2.286 4.573-3.064 8.819-4.023 13.809-2.148 7.018-6.95 9.497-12.977 13.191-2 3-2 3-2.375 6.25-2.273 5.244-5.744 6.774-10.582 9.562-3.303 1.289-4.751 1.417-8.043 0.188-1.755-3.51-1.156-7.158-1-11 2-4 2-4 4.938-5.562 5.081-4.045 5.589-9.559 6.35-15.799 0.873-8.865 0.898-17.745 0.897-26.645 2e-3 -2.593 0.021-5.186 0.04-7.779 0.109-30.276 0.109-30.276-4.138-35.624-2.087-1.591-2.087-1.591-4.712-3.029-2.983-1.962-3.392-3.159-4.375-6.562-0.227-1.258-0.454-2.516-0.688-3.812-1.436-4.584-3.137-6.68-6.359-10.098-2.09-2.237-3.997-4.56-5.891-6.965-0.586-0.74-1.173-1.48-1.777-2.242-1.285-1.883-1.285-1.883-1.285-3.883l-4-2c-4.674-4.348-4.674-4.348-6-7-0.1-3.467-0.142-6.908-0.125-10.375 5e-3 -0.998 0.01-1.995 0.015-3.023 0.17-20.957 0.17-20.957 5.11-26.602 0.321-0.261 0.321-0.261 1.945-1.582 2.926-3.443 3.892-7.343 5.117-11.606l1.473-4.917c0.24-0.807 0.481-1.613 0.728-2.443 3.337-11.106 3.337-11.106 6.049-13.452 5.503-2.048 9.926-2.219 15.688-1z" fill="#323219"/>
</svg>
