<?xml version="1.0" encoding="UTF-8"?>
<svg version="1.1" viewBox="0 0 2904 1312" xmlns="http://www.w3.org/2000/svg">
<path transform="translate(1464.5 720.81)" d="m0 0c1.182-0.016 2.364-0.032 3.581-0.049 5.425-0.044 10.849-0.085 16.273-0.108 2.863-0.017 5.725-0.044 8.587-0.082 4.12-0.055 8.238-0.077 12.357-0.092 1.278-0.022 2.557-0.045 3.874-0.068 8.893 0.021 8.893 0.021 13.547 2.943 2.355 2.766 3.889 5.278 5.38 8.586 1.552 3.319 3.012 6.266 5.062 9.313 2.24 3.398 3.387 6.946 4.813 10.75 0.639 0.949 1.279 1.897 1.937 2.875 1.819 2.756 2.9 5.069 4.063 8.125 1.146 3.009 2.198 5.297 4 8 2.272 3.408 3.548 6.814 5 10.625 1 2.375 1 2.375 3 5.375 2.272 3.408 3.548 6.814 5 10.625 1 2.375 1 2.375 3 5.375 2.272 3.408 3.548 6.814 5 10.625 1 2.375 1 2.375 3 5.375 2.272 3.408 3.548 6.814 5 10.625 1 2.375 1 2.375 3 5.375 2.272 3.408 3.548 6.814 5 10.625 1 2.375 1 2.375 3 5.375 1.783 2.675 2.811 4.898 3.937 7.875 1.817 4.776 4.34 8.797 7.063 13.125 1.009 2.663 2.009 5.33 3 8 0.66 0.969 1.32 1.939 2 2.937 2 3.063 2 3.063 3.375 7.438 1.852 5.271 4.179 8.28 7.625 12.625l1 3c4.062 0.687 4.062 0.687 8 1-7e-3 -0.929-0.014-1.858-0.021-2.816-0.17-22.591-0.328-45.183-0.474-67.775-0.071-10.926-0.145-21.851-0.229-32.776-0.072-9.52-0.138-19.041-0.195-28.562-0.031-5.043-0.065-10.085-0.107-15.128-0.04-4.744-0.071-9.488-0.094-14.232-0.01-1.743-0.024-3.486-0.041-5.229-0.023-2.377-0.033-4.753-0.042-7.13-4e-3 -0.665-4e-3 -0.665-0.028-4.033 0.231-3.319 0.231-3.319 2.231-7.319 2.855-1.427 5.276-1.129 8.468-1.134 1.384-4e-3 2.768-8e-3 4.193-0.013 1.528 1e-3 3.056 1e-3 4.63 2e-3 1.601-4e-3 3.203-7e-3 4.853-0.011 4.406-8e-3 8.811-0.011 13.217-0.011 2.754-1e-3 5.508-3e-3 8.263-6e-3 9.615-9e-3 19.23-0.013 28.845-0.012 8.95 0 17.9-0.01 26.85-0.026 7.689-0.013 15.378-0.019 23.068-0.018 4.589 0 9.179-3e-3 13.768-0.013 5.13-0.012 10.26-7e-3 15.39-1e-3 1.509-6e-3 3.019-0.011 4.574-0.017 10.549 0.031 19.758 0.552 29.385 5.272 3.049 1.207 6.015 1.685 9.246 2.238 11.535 2.304 20.647 8.964 28.25 17.75 0.536 0.588 0.536 0.588 3.25 3.562 4.141 5.665 5.278 12.699 6.75 19.438 0.096 0.404 0.096 0.404 0.582 2.449 2.39 14.585 0.026 30.335-6.582 43.551-0.468 5.803 0.363 8.928 3 14 0.595 2.468 1.051 4.934 1.473 7.437 0.527 2.563 0.527 2.563 1.545 5.091 1.285 4.543 1.249 8.906 1.212 13.585 0 0.969-1e-3 1.938-1e-3 2.936-3e-3 2.045-0.011 4.09-0.023 6.135-0.019 3.107-0.021 6.214-0.021 9.322-4e-3 1.994-0.01 3.988-0.017 5.982-1e-3 0.919-2e-3 1.838-4e-3 2.785-0.04 5.642-0.516 11.115-1.164 16.727-0.042 2.08-0.044 4.162 8e-3 6.242 0.016 1.085 0.033 2.171 0.05 3.289 0.045 2.253 0.097 4.506 0.157 6.758 0.014 1.078 0.028 2.155 0.043 3.266 0.022 0.974 0.044 1.948 0.067 2.952-0.325 2.493-0.325 2.493-3.325 5.493-12.458 1.803-24.364-1.285-36.336-4.351-2.536-0.618-5.069-1.14-7.633-1.626-12.354-2.449-12.354-2.449-16.031-6.586-2.455-4.219-3.127-6.975-3.19-11.763-0.016-1.088-0.033-2.176-0.05-3.297-7e-3 -0.588-7e-3 -0.588-0.041-3.561-0.019-1.207-0.037-2.414-0.056-3.657-0.059-3.866-0.112-7.731-0.163-11.597-0.068-5.082-0.141-10.164-0.219-15.246-7e-3 -0.586-7e-3 -0.586-0.041-3.554-0.017-1.091-0.033-2.183-0.051-3.307-6e-3 -0.479-6e-3 -0.479-0.038-2.906-0.151-2.549-0.151-2.549-1.151-6.549-4.756-2.32-9.368-2.264-14.588-2.291-0.842-6e-3 -1.683-0.013-2.55-0.02-2.768-0.019-5.536-0.023-8.304-0.025-1.93-6e-3 -3.86-0.013-5.79-0.02-4.039-0.012-8.077-0.016-12.117-0.015-5.174 0-10.347-0.027-15.521-0.061-3.983-0.023-7.966-0.027-11.95-0.026-1.907-2e-3 -3.815-0.011-5.723-0.026-2.666-0.02-5.332-0.014-7.998-2e-3 -1.517-3e-3 -3.033-6e-3 -4.595-9e-3 -4.284 0.549-5.918 1.401-8.864 4.495-2.717 6.233-2.313 12.925-2.344 19.609-7e-3 0.602-7e-3 0.602-0.044 3.648-0.062 5.134-0.102 10.268-0.144 15.403-0.034 3.754-0.079 7.508-0.124 11.262-6e-3 1.165-0.011 2.331-0.016 3.532-0.014 1.078-0.027 2.157-0.041 3.268-7e-3 0.949-0.015 1.898-0.022 2.876-0.265 2.402-0.265 2.402-2.265 5.402-12.996 4.332-29.581 2.2-43.164 2.238-1.24 4e-3 -2.48 8e-3 -3.757 0.013-6.541 0.02-13.081 0.035-19.622 0.044-6.754 0.011-13.508 0.046-20.263 0.085-5.203 0.026-10.407 0.035-15.611 0.038-2.492 5e-3 -4.984 0.017-7.476 0.035-3.47 0.025-6.94 0.024-10.41 0.017-0.515 6e-3 -0.515 6e-3 -3.12 0.039-6.951-0.051-6.951-0.051-10.132-2.377-0.477-0.704-0.954-1.407-1.445-2.132-0.6-0.853-1.199-1.707-1.817-2.586-0.576-0.92-1.152-1.841-1.746-2.789-0.604-0.964-1.209-1.929-1.832-2.922-1.605-2.703-1.605-2.703-3.355-6.328-1.25-2.375-1.25-2.375-4.25-3.375-3.287-0.108-6.553-0.157-9.84-0.161-1.01-5e-3 -2.02-0.01-3.061-0.015-3.345-0.015-6.691-0.022-10.037-0.027-2.32-6e-3 -4.64-0.012-6.96-0.018-4.866-0.01-9.732-0.016-14.597-0.019-6.245-6e-3 -12.49-0.03-18.734-0.058-4.792-0.019-9.584-0.024-14.376-0.026-2.303-3e-3 -4.606-0.011-6.909-0.024-3.216-0.017-6.431-0.015-9.646-9e-3 -0.479-4e-3 -0.479-4e-3 -2.9-0.027-6.598 0.042-6.598 0.042-9.94 3.384-0.578 1.196-1.155 2.392-1.75 3.625-2.7 5.25-6.051 10.176-10.25 14.375-1.733 0.104-3.47 0.138-5.207 0.145-0.555 3e-3 -0.555 3e-3 -3.368 0.019-1.21 2e-3 -2.42 3e-3 -3.667 4e-3 -0.618 2e-3 -0.618 2e-3 -3.741 0.01-2.618 5e-3 -5.236 7e-3 -7.854 7e-3 -4.014 2e-3 -8.028 0.021-12.042 0.039-2.538 3e-3 -5.076 5e-3 -7.613 6e-3 -1.207 8e-3 -2.413 0.015-3.656 0.022-1.118-3e-3 -2.235-6e-3 -3.387-9e-3 -0.985 1e-3 -1.97 3e-3 -2.985 4e-3 -2.48-0.247-2.48-0.247-5.48-2.247-0.921-5.527 1.326-9.263 4-14 0.495-0.66 0.495-0.66 3-4 0.997-2.252 1.993-4.505 2.961-6.77 1.039-2.23 1.039-2.23 3.101-5.293 1.938-2.937 1.938-2.937 3.375-6.812 1.695-4.474 4.032-8.076 6.563-12.125l1.5-4c1.661-4.43 3.997-7.996 6.5-12l1.5-4c1.661-4.43 3.997-7.996 6.5-12l1.5-4c1.661-4.43 3.997-7.996 6.5-12l1.5-4c1.661-4.43 3.997-7.996 6.5-12l1.5-4c1.661-4.43 3.997-7.996 6.5-12l1.5-4c1.661-4.43 3.997-7.996 6.5-12 0.516-1.382 1.031-2.764 1.562-4.188 1.438-3.812 1.438-3.812 3.375-6.125 2.116-2.756 2.908-4.857 4-8.125 1.63-4.786 3.73-7.729 7.063-11.562 0.986-2.195 1.97-4.391 2.891-6.613 5.802-12.484 5.802-12.484 13.635-12.58zm270.28 53.251c-5.26 0.052-10.519 0.123-15.779 0.207-2.05 0.032-4.101 0.058-6.152 0.08-2.886 0.034-5.77 0.086-8.655 0.143-0.86 7e-3 -1.72 0.013-2.606 0.02-5.167 0.127-8.873 0.756-12.609 4.492-0.401 4.164-0.442 6.322 1.875 9.875 3.382 3.382 5.609 3.246 10.317 3.272 0.868-1e-3 1.737-1e-3 2.632-2e-3 0.914 3e-3 1.828 7e-3 2.77 0.01 3.031 0.01 6.062 0.012 9.093 0.013 2.1 3e-3 4.2 6e-3 6.3 0.01 4.405 6e-3 8.81 8e-3 13.215 7e-3 5.656 0 11.313 0.014 16.969 0.031 4.337 0.011 8.675 0.013 13.012 0.013 2.086 1e-3 4.172 5e-3 6.258 0.013 2.912 0.01 5.823 7e-3 8.735 1e-3 0.868 5e-3 1.737 0.011 2.632 0.017 5.964-0.032 5.964-0.032 8.192-2.26 0.396-4.551 0.603-7.82-1.5-11.938-5.082-4.192-11.613-4.313-17.977-4.293-0.727 1e-3 -0.727 1e-3 -4.406 4e-3 -1.565 0.013-3.13 0.026-4.742 0.039-0.817 5e-3 -0.817 5e-3 -4.951 0.026-4.5 0.029-8.999 0.076-13.499 0.129-3.041 0.034-6.083 0.063-9.124 0.091zm-253.8 22.942c-1.406 2.883-1.406 2.883-2.5 6.125-1.495 4.202-3.056 8.173-5.125 12.125-1.662 3.183-2.939 6.256-4 9.687-1.375 4.063-1.375 4.063-4.375 7.063-0.313 4.062-0.313 4.062 0 8 5.418 5.418 19.322 3.122 26.812 3.187 0.871 0.013 1.741 0.026 2.638 0.04 5.862 8e-3 10.939-0.661 16.55-2.227 2-2 2-2 2.5-5.625-0.542-4.739-1.911-6.591-4.918-10.176-2.336-3.248-3.335-6.764-4.582-10.535-1.458-3.883-3.797-7.162-6-10.664-0.607-1.609-1.171-3.235-1.688-4.875-1.312-4.125-1.312-4.125-3.312-6.125-5.578-0.632-8.006 0.115-12 4z"/>
<path transform="translate(1884.6 720.47)" d="m0 0c1.035-0.012 2.07-0.024 3.137-0.037 1.175-0.022 2.35-0.045 3.561-0.068 1.272-1e-3 2.544-2e-3 3.854-4e-3 1.309-0.011 2.617-0.021 3.965-0.033 2.773-0.016 5.547-0.021 8.32-0.016 4.232-1e-3 8.461-0.061 12.693-0.124 2.695-9e-3 5.39-0.013 8.084-0.014 1.262-0.024 2.524-0.047 3.824-0.072 6.008 0.063 10.018 0.256 14.672 4.284 1.091 1.192 2.181 2.384 3.305 3.612 0.887 0.866 1.774 1.733 2.688 2.625 1.541 1.583 3.083 3.167 4.625 4.75 2.067 2.02 4.221 3.952 6.407 5.842 3.995 3.484 7.745 7.15 11.456 10.932 1.336 1.349 2.673 2.698 4.01 4.046 2.062 2.087 4.122 4.175 6.179 6.266 7.151 7.26 14.219 14.377 22.292 20.631 2.632 2.143 4.958 4.496 7.343 6.908 1.176 0.99 2.351 1.98 3.563 3 3.437 3 3.437 3 5.312 5.875 2.125 2.125 2.125 2.125 6.625 2.5 4.5-0.375 4.5-0.375 8.5-1.375l2-4c1.645-1.688 3.314-3.353 5-5 0.619-0.804 1.238-1.609 1.875-2.437 2.719-3.279 5.871-5.822 9.125-8.563 2.48-2.364 4.735-4.652 6.813-7.375 3.036-3.643 6.572-6.571 10.187-9.625 5.196-4.403 10.135-8.705 14.438-14 2.63-3.079 5.425-5.451 8.562-8 2.687-2.556 5.098-5.12 7.438-8 2.628-3.076 5.422-5.461 8.562-8 0.591-0.699 1.182-1.398 1.791-2.118 2.94-2.505 4.662-2.377 8.491-2.368 1.271-6e-3 2.542-0.012 3.852-0.018 1.37 0.014 2.74 0.028 4.151 0.043 0.704 1e-3 0.704 1e-3 4.266 3e-3 2.977 6e-3 5.953 0.022 8.93 0.047 4.567 0.036 9.134 0.041 13.701 0.04 2.889 0.01 5.777 0.022 8.666 0.035 1.372 2e-3 2.744 5e-3 4.157 7e-3 1.268 0.013 2.537 0.025 3.843 0.039 0.559 3e-3 0.559 3e-3 3.389 0.023 2.763 0.267 2.763 0.267 5.763 2.267 1.033 4.806 1.127 9.529 1.134 14.432 4e-3 1.47 8e-3 2.941 0.013 4.456-1e-3 1.599-1e-3 3.197-1e-3 4.844 2e-3 1.712 6e-3 3.425 0.01 5.137 8e-3 4.638 0.011 9.277 0.011 13.915 1e-3 2.9 3e-3 5.8 6e-3 8.701 9e-3 10.124 0.013 20.248 0.013 30.372-1e-3 9.428 9e-3 18.855 0.025 28.283 0.013 8.104 0.019 16.208 0.018 24.311 0 4.836 3e-3 9.672 0.013 14.508 0.01 4.548 0.01 9.096 3e-3 13.644-2e-3 2.458 7e-3 4.916 0.015 7.374-2e-3 0.736-2e-3 0.736-0.013 4.465 1e-3 1.274 2e-3 2.548 2e-3 3.86-0.347 5.161-0.951 9.979-4.114 14.169-4.974 2.426-9.836 2.059-15.295 1.99-1.182-1e-3 -2.364-2e-3 -3.582-3e-3 -2.495-6e-3 -4.991-0.021-7.487-0.046-3.823-0.037-7.645-0.041-11.468-0.041-2.425-0.01-4.85-0.021-7.275-0.035-0.573-1e-3 -0.573-1e-3 -3.47-7e-3 -1.064-0.012-2.129-0.025-3.226-0.038-0.935-8e-3 -1.871-0.016-2.834-0.023-2.498-0.268-2.498-0.268-6.498-2.268-1.618-3.236-1.168-6.53-1.205-10.121-0.01-0.84-0.02-1.679-0.03-2.543-0.032-2.781-0.056-5.562-0.081-8.344-0.021-1.925-0.042-3.85-0.063-5.776-0.055-5.073-0.105-10.146-0.153-15.22-0.05-5.174-0.106-10.349-0.161-15.523-0.108-10.158-0.209-20.315-0.307-30.473-8.444-0.179-12.548 2.795-18.625 8.438-0.784 0.845-1.567 1.691-2.375 2.562-4.102 4.18-8.256 8.096-12.699 11.918-3.955 3.579-7.647 7.422-11.398 11.211-3.504 3.466-7.166 6.659-10.903 9.871-0.887 0.887-1.774 1.774-2.687 2.688-2.313 2.313-4.761 4.271-7.313 6.312-0.804 0.825-1.609 1.65-2.437 2.5-2.563 2.5-2.563 2.5-5.563 4.438-3 2.062-3 2.062-5.562 5.187-2.492 2.94-3.725 4.04-7.438 4.875-4.66-0.361-6.511-2.126-9.625-5.5-5.11-5.331-10.613-9.898-16.375-14.5-3.298-2.733-6.505-5.493-9.5-8.562-2.5-2.438-2.5-2.438-6-4.875-3.515-2.574-5.808-5.163-8.5-8.563-2.556-2.687-5.12-5.097-8-7.437-3.079-2.63-5.451-5.425-8-8.563-2.791-2.938-5.657-5.558-8.75-8.187-3.25-2.813-3.25-2.813-4.25-4.813-2.665-0.082-5.334-0.084-8 0-3e-3 1.121-7e-3 2.242-0.011 3.397-0.038 10.55-0.094 21.101-0.173 31.651-0.039 5.425-0.071 10.849-0.087 16.274-0.015 5.232-0.049 10.465-0.097 15.697-0.015 1.999-0.023 3.998-0.024 5.996-2e-3 2.795-0.029 5.588-0.062 8.383-4e-3 0.796-4e-3 0.796-0.027 4.825-0.171 1.246-0.342 2.493-0.519 3.777-4.605 3.454-6.555 3.47-12.187 3.875-7.995 0.756-15.058 2.538-22.692 4.949-6.284 1.793-12.614 2.67-19.121 3.176-1.235 0.097-2.47 0.193-3.742 0.293-1.075-0.097-2.15-0.193-3.258-0.293-3.526-4.701-3.376-6.263-3.381-12.009-4e-3 -0.813-9e-3 -1.626-0.014-2.464-0.012-2.729-2e-3 -5.457 7e-3 -8.185-4e-3 -1.955-9e-3 -3.909-0.016-5.864-0.014-5.312-8e-3 -10.624 1e-3 -15.936 8e-3 -5.554 1e-3 -11.108-4e-3 -16.662-5e-3 -9.328 2e-3 -18.656 0.016-27.984 0.016-10.79 0.011-21.581-5e-3 -32.371-0.014-9.258-0.016-18.516-8e-3 -27.774 5e-3 -5.532 5e-3 -11.064-5e-3 -16.596-8e-3 -5.201-2e-3 -10.401 0.015-15.602 4e-3 -1.911 3e-3 -3.821-4e-3 -5.732-8e-3 -2.604 2e-3 -5.208 0.017-7.812 1e-3 -1.459 3e-3 -2.917 4e-3 -4.42 0.452-4.303 1.381-7.181 5.962-8.117z"/>
<path transform="translate(184.5 720.73)" d="m0 0c1.151-0.01 2.303-0.019 3.489-0.029 1.249 1e-3 2.498 2e-3 3.785 3e-3 1.277-4e-3 2.555-9e-3 3.871-0.013 2.706-6e-3 5.412-6e-3 8.118-2e-3 4.15 3e-3 8.3-0.02 12.45-0.046 2.624-2e-3 5.249-3e-3 7.873-2e-3 1.247-9e-3 2.494-0.018 3.779-0.028 1.154 7e-3 2.309 0.013 3.498 0.019 0.509 0 0.509 0 3.084-2e-3 2.549 0.375 2.549 0.375 5.549 3.375 1.013 2.995 2.013 5.996 3 9 0.99 1.32 1.98 2.64 3 4 0.704 1.77 1.347 3.564 1.938 5.375 1.141 3.309 2.07 5.636 4.125 8.5 2.05 3.307 2.564 5.65 3.312 9.437 1.135 5.487 2.832 8.871 6.145 13.305 2.385 3.838 3.337 8.047 4.547 12.371 1.144 3.69 2.932 6.719 4.933 10.012 0.454 1.32 0.908 2.64 1.375 4 1.899 4.674 3.917 7.577 7.625 11 3.875 0.437 3.875 0.437 7 0 0.243-0.869 0.485-1.738 0.735-2.633 1.804-6.203 3.623-11.018 7.265-16.367 1.065-2.945 1.991-5.92 2.93-8.907 1.314-3.797 3.052-7.238 4.918-10.789 1.152-2.304 1.152-2.304 2.652-6.429 1.5-3.875 1.5-3.875 3.938-7.563 2.933-4.443 4.142-9.183 5.594-14.265 1.173-3.693 2.961-6.745 4.968-10.047 0.248-0.691 0.248-0.691 1.5-4.188 1.445-3.671 2.397-5.461 5.5-7.812 5.02-1.255 9.865-1.182 15.004-1.203 1.075-6e-3 2.15-0.012 3.257-0.018 2.271-9e-3 4.541-0.016 6.811-0.02 3.481-9e-3 6.961-0.04 10.442-0.072 2.205-6e-3 4.41-0.012 6.615-0.015 1.044-0.013 2.088-0.025 3.163-0.038 7.366 0.023 7.366 0.023 10.708 3.366 0.774 2.347 0.774 2.347 1.375 5.062 1.467 5.805 3.808 10.684 6.625 15.938 7.477 14.645 7.477 14.645 8.875 20.937 1.125 4.063 1.125 4.063 3.563 7.938 2.486 4.001 3.552 7.159 4.75 11.625 0.836 2.572 1.924 4.623 3.312 6.937 2.532 4.258 3.722 8.468 4.825 13.278 0.675 2.285 0.675 2.285 2.675 4.285 6.519 0.742 6.519 0.742 10 0 1.938-2.938 1.938-2.938 3-7 2.681-8.627 2.681-8.627 4.977-11.317 2.468-3.273 3.077-6.007 3.961-9.996 1.092-4.437 2.034-8.215 4.625-12 2.51-3.798 3.461-6.855 4.625-11.18 1.097-3.385 2.813-6.228 4.621-9.277 1.226-2.295 2.001-4.493 2.754-6.98 1.437-4.25 1.437-4.25 3.5-6.75 2.723-3.515 3.016-7.201 3.937-11.5 3.532-3.532 4.187-3.381 8.969-3.404 1.228-0.013 2.456-0.026 3.722-0.039 0.664 2e-3 0.664 2e-3 4.024 9e-3 0.681-3e-3 0.681-3e-3 4.129-0.016 2.884-6e-3 5.768-5e-3 8.652 4e-3 4.421 8e-3 8.84-0.021 13.26-0.052 2.799-2e-3 5.598-1e-3 8.397 2e-3 1.326-0.012 2.652-0.023 4.018-0.034 1.232 9e-3 2.463 0.018 3.731 0.028h3.284c3.483 0.621 4.691 1.72 6.814 4.502 0 3.255-0.704 4.653-2.812 7.125-2.683 3.526-3.769 7.017-5.184 11.183-1.004 2.692-1.004 2.692-3.066 6.129-2.252 4.14-3.068 7.992-3.934 12.598-1.004 2.965-1.004 2.965-3.441 5.84-2.968 3.619-3.896 6.568-5.125 11.062-1.543 5.59-3.462 10.088-6.438 15.063l-1.5 4c-1.5 4-1.5 4-3.5 7.25-2.255 4.229-3.116 8.102-3.996 12.785-1.004 2.965-1.004 2.965-3.441 5.84-2.968 3.619-3.896 6.568-5.125 11.062-1.543 5.589-3.459 10.09-6.438 15.063-1.004 2.665-2.004 5.331-3 8-0.795 1.612-1.609 3.216-2.437 4.812-2.285 4.446-3.958 8.957-5.598 13.672-0.965 2.516-0.965 2.516-2.965 5.953-2.297 4.093-3.577 8.172-4.996 12.629-1.316 3.847-3.089 7.352-5.004 10.934-0.453 1.093-0.907 2.186-1.375 3.312-2.149 3.555-3.741 4.198-7.625 5.688-3.469 0.285-6.752 0.421-10.218 0.398-0.488 2e-3 -0.488 2e-3 -2.958 9e-3 -2.058 2e-3 -4.115-4e-3 -6.173-0.016-3.14-0.016-6.28 0-9.42 0.019-2.004-2e-3 -4.008-6e-3 -6.012-0.012-0.934 6e-3 -1.869 0.012-2.832 0.018-5.213-0.055-9.027-0.466-13.387-3.416-2.688-3.584-3.679-5.556-4.937-9.688-1.189-3.749-2.444-7.32-4.125-10.875-1.522-3.485-2.529-6.478-3.438-10.125-0.854-3.368-1.489-5.296-3.5-8.187-2.647-4.137-3.235-8.208-4.093-13.004-0.907-3.121-0.907-3.121-2.883-5.59-2.478-3.1-3.034-5.611-3.899-9.469-1.323-5.391-2.954-10.258-5.25-15.312-2.678-5.939-4.004-11.304-4.875-17.75l-8-1c-0.227 0.804-0.453 1.608-0.687 2.437-1.341 3.639-3.156 6.781-5.086 10.133-1.647 3.261-2.528 6.591-3.481 10.105-0.746 2.325-0.746 2.325-2.746 5.637-1.914 3.529-2.633 6.113-3.437 10-0.881 4.197-1.876 7.68-3.938 11.438-3.145 5.752-4.644 11.888-6.316 18.199-1.323 4.095-3.149 7.347-5.309 11.051-0.8 2.703-0.8 2.703-1.312 5.25-1.8 7.19-5.413 14.566-11.688 18.75-2.837 0.375-5.689 0.641-8.543 0.851-0.842 0.064-1.684 0.128-2.552 0.193-1.785 0.134-3.569 0.263-5.354 0.388-2.711 0.191-5.421 0.394-8.131 0.599-16.671 1.231-16.671 1.231-22.42 0.969-2.456-2.71-3.18-5.495-4.437-8.938-1.563-4.062-1.563-4.062-3.5-6.75-2.07-3.325-2.982-6.069-4.063-9.812-1.411-4.886-3.09-8.317-6-12.5-1.08-2.756-2.035-5.541-2.996-8.34-1.004-2.66-1.004-2.66-3.066-6.16-1.745-3.153-2.533-5.489-3.375-8.938-0.959-3.84-1.834-5.994-4-9.437-2.875-4.628-4.113-8.957-5.598-14.157-1.128-3.471-2.887-5.982-4.965-8.968-1.08-2.756-2.035-5.541-2.996-8.34-1.004-2.66-1.004-2.66-3.066-6.16-1.745-3.153-2.533-5.489-3.375-8.938-0.959-3.84-1.834-5.994-4-9.437-2.875-4.628-4.113-8.957-5.598-14.157-1.128-3.471-2.887-5.982-4.965-8.968-1.08-2.757-2.036-5.543-2.996-8.344-1.004-2.656-1.004-2.656-3.066-6.094-1.827-3.359-2.524-5.808-3.313-9.5-0.952-4.263-2.041-7.056-4.812-10.437-2.813-3.625-2.813-3.625-3.313-7 0.961-5.043 3.443-4.879 8.004-4.9z"/>
<path transform="translate(878.71 719.99)" d="m0 0c12.431-0.06 24.862-0.097 37.293-0.112 1.506-3e-3 3.012-5e-3 4.564-8e-3 45.82-0.062 45.82-0.062 64.701 7.168 2.824 0.997 5.637 1.706 8.547 2.403 4.804 1.265 7.555 3.091 11.188 6.562 1.279 0.887 2.557 1.774 3.875 2.688 10.682 8.047 15.874 19.156 18.437 32.062 0.272 2.078 0.498 4.163 0.688 6.25 0.118 1.24 0.237 2.48 0.359 3.758 0.497 10.074-1.49 18.296-4.869 27.667-3.079 8.592-3.022 13.827 0.385 22.45 7.363 20.69 5.006 42.683 3.396 64.166-0.476 6.94-0.709 13.888-0.929 20.84-0.24 6.812-0.24 6.812-1.342 10.119-12.132 6.066-33.54-1.658-45.684-5.109-2.807-0.754-5.513-1.263-8.379-1.703-5.092-1.536-6.924-3.894-9.937-8.188-1.049-3.146-1.113-5.316-1.094-8.617 1e-3 -0.576 1e-3 -0.576 8e-3 -3.489 5e-3 -1.244 0.01-2.487 0.015-3.769-8e-3 -2.62-0.019-5.239-0.031-7.859-0.017-4.142-0.023-8.282 2e-3 -12.424 0.021-3.99-2e-3 -7.977-0.033-11.967 9e-3 -0.622 9e-3 -0.622 0.053-3.769-0.017-1.151-0.033-2.302-0.05-3.489 1e-3 -1.014 2e-3 -2.029 3e-3 -3.074-0.873-2.543-0.873-2.543-3.871-4.371-4.493-1.316-8.222-1.546-12.903-1.544-0.863-4e-3 -1.726-7e-3 -2.614-0.011-2.833-8e-3 -5.665 5e-3 -8.497 0.02-1.976 0-3.952 0-5.927-2e-3 -4.132 0-8.263 0.011-12.394 0.029-5.297 0.023-10.593 0.023-15.889 0.016-4.076-3e-3 -8.151 4e-3 -12.227 0.014-1.953 3e-3 -3.907 5e-3 -5.86 3e-3 -2.726 0-5.452 0.012-8.178 0.028-0.776 3e-3 -0.776 3e-3 -4.701 0.014-3.812 0.261-3.812 0.261-7.812 2.261-1.352 2.705-1.147 4.843-1.174 7.871-0.013 1.231-0.027 2.463-0.041 3.732-0.01 1.336-0.021 2.673-0.031 4.049-0.033 2.806-0.066 5.611-0.1 8.417-0.047 4.441-0.092 8.883-0.131 13.325-0.04 4.274-0.091 8.547-0.144 12.821-9e-3 1.334-0.017 2.669-0.026 4.044-0.016 1.234-0.033 2.469-0.05 3.741-0.011 1.089-0.021 2.177-0.031 3.299-0.272 2.701-0.272 2.701-2.272 5.701-3.069 1.023-5.218 1.145-8.434 1.177-1.111 0.013-2.222 0.026-3.367 0.039-0.6 4e-3 -0.6 4e-3 -3.637 0.022-1.231 8e-3 -2.463 0.017-3.732 0.025-2.606 0.014-5.212 0.024-7.818 0.032-3.996 0.018-7.992 0.061-11.989 0.106-2.528 0.01-5.057 0.018-7.586 0.025-1.2 0.017-2.4 0.035-3.636 0.053-1.111-3e-3 -2.223-6e-3 -3.368-9e-3 -0.489 3e-3 -0.489 3e-3 -2.967 0.018-2.466-0.488-2.466-0.488-5.466-4.488-1.236-4.145-1.131-8.264-1.141-12.566-3e-3 -0.776-3e-3 -0.776-0.017-4.7-1e-3 -1.715-2e-3 -3.43-3e-3 -5.144-5e-3 -1.809-0.01-3.618-0.015-5.426-0.014-4.909-0.02-9.818-0.024-14.727-3e-3 -3.065-7e-3 -6.131-0.012-9.196-0.014-9.587-0.023-19.174-0.027-28.76-5e-3 -11.076-0.022-22.151-0.051-33.226-0.022-8.558-0.032-17.116-0.033-25.674-1e-3 -5.113-7e-3 -10.227-0.025-15.34-0.016-4.805-0.019-9.61-0.01-14.415 1e-3 -1.766-3e-3 -3.532-0.013-5.298-0.013-2.405-5e-3 -4.81 3e-3 -7.215-1e-3 -1.348-3e-3 -2.696-4e-3 -4.084 0.372-3.229 0.372-3.229 3.372-6.229 2.951-0.399 2.951-0.399 6.633-0.432 0.696-0.01 0.696-0.01 4.217-0.06 1.528-7e-3 3.056-0.013 4.63-0.02 1.6-0.018 3.2-0.036 4.848-0.054 4.375-0.049 8.75-0.078 13.126-0.104 3.645-0.023 7.29-0.057 10.934-0.091 13.106-0.121 26.213-0.188 39.319-0.252zm-16.707 58.013c-1.384 4.15-1.302 7.653-1 12 4.216 3.162 4.885 3.377 9.812 3.25 0.997-0.015 1.993-0.031 3.02-0.047 3.168-0.203 3.168-0.203 6.41-0.723 3.773-0.482 7.246-0.503 11.043-0.359 1.404 0.049 2.808 0.098 4.255 0.148 1.492 0.055 2.985 0.111 4.522 0.169 11.874 0.38 23.745 0.718 35.625 0.812 1.227 0.021 2.454 0.043 3.717 0.064 6.477 0.026 11.708-0.27 17.596-3.314 3.471-4.629 3.625-6.371 3-12-4.5-3.375-4.5-3.375-9.078-3.432-1.013-0.02-2.026-0.04-3.07-0.06-1.095-7e-3 -2.189-0.013-3.317-0.02-1.143-0.018-2.286-0.035-3.464-0.054-3.67-0.054-7.339-0.088-11.009-0.121-2.405-0.034-4.811-0.068-7.217-0.104-56.264-0.79-56.264-0.79-60.845 3.791z"/>
<path transform="translate(2460.9 720.5)" d="m0 0c1.209-0 2.419-0 3.664-1e-3 0.694-5e-3 0.694-5e-3 4.205-0.029 1.528 9e-3 3.055 0.019 4.628 0.029 1.605-6e-3 3.211-0.011 4.864-0.017 4.412-0.014 8.824-2e-3 13.236 0.014 4.625 0.014 9.251 8e-3 13.876 4e-3 7.782-3e-3 15.563 0.011 23.344 0.034 8.965 0.027 17.93 0.028 26.895 0.017 8.644-0.011 17.288-5e-3 25.932 9e-3 3.666 6e-3 7.332 6e-3 10.999 1e-3 5.145-6e-3 10.291 0.014 15.436 0.036 1.503-5e-3 3.006-9e-3 4.555-0.014 17.637 0.123 39.893 3.134 53.431 15.418 0.658 0.545 1.317 1.09 1.996 1.652 4.851 4.044 8.996 8.478 13.004 13.348 0.453 0.505 0.453 0.505 2.75 3.062 3.428 5.999 4.253 12.158 5.25 18.938 0.19 1.081 0.381 2.163 0.578 3.277 1.578 12.055-1.128 26.821-6.578 37.723-0.556 6.858 0.236 11.335 2.984 17.586 5.946 14.133 5.318 31.002 5.221 46.069-0.018 2.999-0.02 5.998-0.02 8.997-5e-3 1.92-0.011 3.841-0.017 5.762-1e-3 0.889-3e-3 1.779-4e-3 2.695-0.031 4.097-0.252 7.898-1.164 11.891 8e-3 4.067 0.129 8.122 0.257 12.187-0.271 4.015-0.511 5.878-3.257 8.813-5.953 1.765-11.903 0.622-17.938-0.25-0.951-0.123-1.901-0.245-2.881-0.372-6.683-0.93-12.509-2.72-18.681-5.507-4.709-1.641-9.749-1.737-14.688-2.211-3.78-0.655-5.936-1.138-8.812-3.66-0.886-3.913-1.114-7.635-1.066-11.635 9e-3 -1.082 0.019-2.163 0.029-3.277 0.015-1.153 0.029-2.306 0.044-3.495 0.018-2.459 0.035-4.919 0.051-7.379 0.031-3.864 0.067-7.728 0.113-11.593 0.042-3.738 0.066-7.477 0.086-11.215 0.019-1.153 0.038-2.307 0.057-3.495 0.034-10.533 0.034-10.533-3.314-14.911-4.526-2.495-8.9-2.254-13.982-2.259-0.894-4e-3 -1.789-7e-3 -2.711-0.011-2.95-9e-3 -5.9-3e-3 -8.85 4e-3 -2.051-1e-3 -4.102-3e-3 -6.152-6e-3 -4.293-3e-3 -8.586 1e-3 -12.879 0.011-5.512 0.011-11.024 5e-3 -16.535-7e-3 -4.232-8e-3 -8.464-5e-3 -12.696 0-2.033 1e-3 -4.066 0-6.099-5e-3 -2.834-5e-3 -5.669 3e-3 -8.503 0.014-0.808 1e-3 -0.808 1e-3 -4.894 5e-3 -3.699 0.254-3.699 0.254-5.699 2.254-0.119 2.58-0.122 5.167-0.063 7.75 0.163 7.66 0.163 7.66-0.429 11.146-0.833 5.082-0.693 10.152-0.696 15.291-0.012 1.073-0.024 2.146-0.037 3.252-0.011 6.29 0.497 12.034 1.965 18.159 0.454 4.194-1.515 7.002-3.74 10.402-2.601 2.6-3.684 2.257-7.305 2.274-1.108 0.01-2.216 0.019-3.357 0.029-1.202-1e-3 -2.405-2e-3 -3.643-3e-3 -1.231 5e-3 -2.461 9e-3 -3.729 0.013-2.608 6e-3 -5.216 7e-3 -7.823 2e-3 -3.995-3e-3 -7.989 0.021-11.983 0.046-2.53 2e-3 -5.06 3e-3 -7.59 2e-3 -1.198 9e-3 -2.396 0.018-3.63 0.028-0.558-3e-3 -0.558-3e-3 -3.377-0.019-0.98 1e-3 -1.96 1e-3 -2.97 2e-3 -2.593-0.374-2.593-0.374-6.593-3.374-0.519-3.827-0.519-3.827-0.546-8.754-0.011-0.903-0.021-1.806-0.032-2.735-0.029-3.025-0.03-6.049-0.032-9.074-0.015-2.148-0.032-4.295-0.05-6.443-0.045-5.795-0.065-11.591-0.079-17.386-0.019-6.005-0.057-12.01-0.092-18.015-0.062-10.988-0.101-21.975-0.133-32.962-0.027-8.954-0.076-17.907-0.135-26.861-0.057-8.745-0.098-17.49-0.129-26.235-0.014-3.602-0.033-7.204-0.057-10.806-0.032-4.97-0.039-9.939-0.043-14.909-0.013-1.459-0.025-2.917-0.038-4.42 3e-3 -1.323 6e-3 -2.646 9e-3 -4.009-3e-3 -1.146-7e-3 -2.292-0.011-3.473 0.543-4.308 1.896-6.667 6.303-7.419zm59.065 56.501c-0.713 9.14-0.713 9.14 1.745 12.107 5.064 2.945 10.083 2.609 15.848 2.721 0.628 0.019 0.628 0.019 3.806 0.117 4.033 0.119 8.067 0.212 12.101 0.305 2.622 0.076 5.244 0.154 7.867 0.234 7.877 0.228 15.754 0.384 23.633 0.516 1.363 0.025 2.727 0.051 4.132 0.078 4.008 0.07 8.016 0.117 12.024 0.156 1.219 0.022 2.439 0.045 3.695 0.068 1.13 5e-3 2.26 0.011 3.424 0.017 0.988 0.011 1.977 0.022 2.995 0.033 3.29-0.425 5.075-1.381 7.73-3.352 3.308-4.412 3.578-5.697 3-11-3.769-3.77-5.039-4.122-10.167-4.206-0.543-0.01-0.543-0.01-3.289-0.06-1.185-0.017-2.37-0.034-3.591-0.051-1.227-0.021-2.454-0.042-3.719-0.063-3.994-0.067-7.989-0.125-11.984-0.183-2.717-0.041-5.435-0.083-8.152-0.124-7.699-0.115-15.399-0.216-23.098-0.313-0.489-7e-3 -0.489-7e-3 -2.96-0.04-5.097-0.068-10.193-0.118-15.29-0.148-1.142-0.013-2.284-0.026-3.46-0.039-13.048-0.016-13.048-0.016-16.29 3.227z"/>
<path transform="translate(2368,725)" d="m0 0c1.841 0.408 3.683 0.807 5.527 1.199 1.887 0.412 3.774 0.825 5.661 1.239 0.862 0.18 1.724 0.361 2.612 0.547 6.056 1.393 10.121 3.613 15.2 7.015 1.543 0.712 3.102 1.39 4.688 2 4.207 1.952 6.299 3.568 9.312 7 0.392 0.382 0.392 0.382 2.375 2.312 6.333 6.484 10.839 12.415 14.625 20.688 0.51 0.91 1.021 1.82 1.547 2.758 1.786 3.986 2.334 7.672 2.953 11.992 1.031 6.69 2.449 12.818 4.5 19.25 1.463 6.917 1.155 13.965 1 21-8e-3 0.541-8e-3 0.541-0.051 3.281-0.419 10.066-2.838 19.555-5.348 29.264-0.575 2.347-1.038 4.72-1.496 7.092-3.61 14.251-13.873 29.295-26.105 37.363l-3 3c-2.27 1.027-2.27 1.027-4.812 1.938-3.079 1.102-5.33 2.165-7.997 4.101-3.879 2.384-6.936 2.813-11.441 3.399-7.936 1.164-15.322 3.034-22.98 5.476-26.176 5.96-59.168 3.983-84.715-3.762-3.521-1-6.81-1.633-10.43-2.09-5.576-0.803-9.934-2.948-14.859-5.617-2.766-1.445-2.766-1.445-7.266-3.007-3.915-1.609-5.014-3.123-7.5-6.438-0.454-0.196-0.454-0.196-2.75-1.188-5.063-2.823-7.893-7.169-11.25-11.812-0.318-0.425-0.318-0.425-1.926-2.574-4.417-6.328-6.47-12.428-8.234-19.914-0.689-2.882-1.502-5.552-2.528-8.324-5.661-18.063-6.527-51 2.204-68.168 2.157-4.39 2.716-8.891 3.543-13.68 1.033-3.668 2.457-5.502 4.941-8.34l2-4c5.676-10.603 15.374-19.769 26-25l4-3c2.423-0.752 2.423-0.752 5.105-1.281 0.493-0.101 0.493-0.101 2.983-0.614 1.023-0.199 2.046-0.399 3.1-0.605 5.606-1.116 11.013-2.224 16.425-4.094 4.818-1.544 9.373-2.112 14.387-2.406 0.951-0.06 1.903-0.119 2.883-0.181 25.706-1.436 52.065-2.419 77.117 4.181zm-96 63c-2.85 9.357-3.489 18.654-3.375 28.375 0.011 1.265 0.022 2.53 0.033 3.833 0.425 25.015 0.425 25.015 8.112 34.733 13.667 12.615 35.519 10.321 52.761 10.004 7.689-0.322 14.411-0.808 21.469-3.945 0.753-0.33 0.753-0.33 4.562-2 5.781-3.458 9.574-7.915 12.438-14 3.752-16.143 5.735-40.537-2.812-55.5-4.346-6.503-9.609-11.974-17.188-14.5-57.501-5.499-57.501-5.499-76 13z"/>
<path transform="translate(655.71 719.91)" d="m0 0c15.92-0.151 31.83-0.014 47.293 4.086 1.583 0.409 3.166 0.817 4.797 1.238 3.257 0.846 6.508 1.707 9.758 2.578 2.902 0.773 5.818 1.499 8.746 2.172 3.269 0.894 5.302 1.693 8.011 3.637 0.744 0.53 1.488 1.06 2.254 1.605 0.803 0.584 1.607 1.168 2.434 1.77 0.937 0.635 1.874 1.271 2.84 1.926 5.564 3.846 9.487 7.287 13.16 13.074 0.681 0.598 1.361 1.196 2.062 1.812 2.555 2.885 3.546 5.946 4.813 9.555 1.125 2.633 1.125 2.633 3.055 5.352 2.578 4.085 3.875 8.304 5.195 12.906 0.251 0.826 0.503 1.653 0.762 2.504 3.142 10.676 4.464 21.068 4.363 32.183-8e-3 1.093-0.015 2.187-0.023 3.313-0.172 12.992-1.938 24.415-6.071 36.766-0.941 2.938-1.628 5.706-2.156 8.734-1.163 4.507-2.955 6.405-6 9.875-0.83 1.584-1.619 3.191-2.375 4.812-3.328 6.95-7.45 12.557-13.625 17.188h-2l-2 4c-2.179 1.263-4.363 2.525-6.613 3.656-2.387 1.344-2.387 1.344-4.477 3.371-4.386 2.973-8.982 3.302-14.16 4.035-10.794 1.595-10.794 1.595-15.922 3.434-12.34 4.378-26.531 3.864-39.453 3.816-0.783-2e-3 -0.783-2e-3 -4.745-0.012-16.576-0.161-32.317-1.682-48.267-6.402-3.44-0.919-6.768-1.408-10.301-1.836-5.724-0.782-9.24-2.821-14.062-6.062-1.732-0.598-3.484-1.139-5.25-1.625-4.75-1.375-4.75-1.375-8.75-4.375v-2c-0.723-0.281-1.446-0.562-2.191-0.852-9.734-3.98-14.819-14.049-18.809-23.148-0.265-0.505-0.265-0.505-1.605-3.063-1.642-3.456-2.134-6.824-2.727-10.582-0.803-4.032-2.02-7.864-3.231-11.793-5.015-17.85-6.104-42.491 1.508-59.882 1.343-3.412 2.028-6.848 2.805-10.43 4.09-16.773 13.767-30.79 28.25-40.25 2.308-1.056 4.64-2.065 7-3 0.846-0.636 1.691-1.271 2.562-1.926 4.38-2.642 8.802-3.571 13.75-4.574 1.992-0.421 3.983-0.842 5.973-1.266 0.977-0.205 1.955-0.411 2.962-0.623 3.704-0.822 7.343-1.86 11.003-2.861 12.913-3.067 26.262-2.595 39.457-2.836zm-35.707 59.086c-4.115 4.361-7.123 8.759-10 14l-2 2c-1.976 8.423-2.276 16.438-2.188 25.062 1e-3 1.202 2e-3 2.405 2e-3 3.643 0.099 20.137 0.099 20.137 5.186 26.295 0.474 0.67 0.474 0.67 2.875 4.062 6.521 7.385 17.849 9.504 27.322 10.159 45.558 1.735 45.558 1.735 60.178-11.346 8.688-15.372 7.285-39.014 3.926-55.809-2.307-7.209-6.051-13.608-11.301-19.066-5.785-2.89-10.96-3.458-17.375-3.688-0.893-0.032-1.785-0.065-2.705-0.099-47.109-1.525-47.109-1.525-53.92 4.787z"/>
<path transform="translate(1055.6 720.85)" d="m0 0c1.175-6e-3 2.349-0.013 3.559-0.019 1.274-1e-3 2.548-3e-3 3.861-4e-3 1.302-3e-3 2.604-6e-3 3.945-0.01 2.758-5e-3 5.515-7e-3 8.272-7e-3 4.234-2e-3 8.467-0.02 12.701-0.039 2.673-3e-3 5.346-5e-3 8.019-6e-3 1.274-7e-3 2.548-0.015 3.861-0.022 0.587 2e-3 0.587 2e-3 3.559 9e-3 0.519 0 0.519 0 3.145-4e-3 2.467 0.247 2.467 0.247 4.467 2.247 0.265 2.688 0.265 2.688 0.287 6.147 0.013 1.291 0.027 2.583 0.04 3.913 3e-3 0.701 3e-3 0.701 0.016 4.249 0.015 1.433 0.03 2.865 0.045 4.342 0.046 4.595 0.081 9.191 0.112 13.787 0.041 6.04 0.094 12.081 0.156 18.121 3e-3 0.7 3e-3 0.7 0.016 4.242 0.013 1.295 0.027 2.59 0.041 3.924 3e-3 0.571 3e-3 0.571 0.022 3.46 0.265 2.815 0.265 2.815 2.265 5.815 5.696 1.899 11.979 1.185 17.937 1.188 0.692 6e-3 0.692 6e-3 4.194 0.037 1.327 2e-3 2.654 4e-3 4.021 6e-3 1.217 4e-3 2.434 8e-3 3.687 0.012 3.161-0.243 3.161-0.243 7.161-2.243 1.233-1.945 2.461-3.895 3.634-5.878 2.155-3.348 4.897-5.968 7.733-8.747 0.598-0.591 1.195-1.182 1.811-1.791 1.892-1.869 3.794-3.727 5.697-5.584 14.547-14.275 14.547-14.275 21.125-22 1.439-1.456 2.894-2.897 4.375-4.312 6.149-6.065 11.449-12.787 16.625-19.688 3.498-1.166 6.241-1.127 9.934-1.129 1.438-3e-3 2.876-6e-3 4.357-0.01 1.557 2e-3 3.113 4e-3 4.716 6e-3 1.592-1e-3 3.183-1e-3 4.823-2e-3 3.368-1e-3 6.735 0 10.103 5e-3 4.326 6e-3 8.651 2e-3 12.977-4e-3 4.116-4e-3 8.232-1e-3 12.347 1e-3 0.781-1e-3 0.781-1e-3 4.729-6e-3 0.716 2e-3 0.716 2e-3 4.338 0.01 0.634 0 0.634 0 3.842 2e-3 2.834 0.127 2.834 0.127 3.834 1.127 0 5 0 5-2.422 7.657-1.098 0.938-2.197 1.876-3.328 2.843-9.863 8.748-18.558 18.103-26.215 28.844-2.148 2.804-4.512 5.191-7.035 7.656-0.64 0.825-1.279 1.65-1.938 2.5-2.405 2.916-5.162 5.084-8.062 7.5-1.363 1.643-2.699 3.309-4 5-0.618 0.61-1.235 1.22-1.871 1.848-2.208 2.231-4.119 4.567-6.067 7.027-4.87 6.025-10.116 11.631-15.437 17.254-3.149 3.444-3.531 4.051-4.063 8.684 0.438 4.187 0.438 4.187 3 6.562 1.135 0.867 2.269 1.733 3.438 2.625 1.171 1.571 2.293 3.179 3.375 4.813 2.863 4.257 5.975 7.729 9.668 11.273 2.477 2.423 4.71 5.012 6.964 7.641 3.388 3.866 6.926 7.594 10.442 11.344 2.476 2.844 4.486 5.78 6.551 8.929 0.887 0.887 1.773 1.774 2.687 2.688 2.313 2.312 2.313 2.312 3.313 5.312l4 2c2.039 2.3 4.036 4.636 6 7 0.783 0.784 1.567 1.568 2.375 2.375 3.009 3.009 5.821 6.152 8.621 9.356 1.256 1.423 2.537 2.825 3.851 4.195 2.648 2.823 4.078 4.567 4.653 8.449-0.165 0.867-0.33 1.733-0.5 2.625-2.835 1.418-5.265 1.175-8.434 1.225-1.356 0.022-2.711 0.045-4.108 0.068-6.216 0.071-12.433 0.129-18.65 0.167-3.278 0.027-6.557 0.068-9.835 0.123-4.723 0.079-9.445 0.113-14.169 0.136-1.461 0.033-2.923 0.066-4.429 0.1-11.365-0.022-11.365-0.022-16.126-4.119-1.072-1.221-2.145-2.442-3.249-3.7-0.356-0.352-0.356-0.352-2.155-2.133-0.539-0.586-1.079-1.173-1.634-1.777-0.625-0.673-1.25-1.346-1.894-2.04-0.641-0.697-1.282-1.394-1.942-2.112-6.356-6.85-12.88-13.475-19.582-19.985-2.438-2.578-4.059-4.896-5.793-7.953-0.403-0.319-0.403-0.319-2.438-1.937-2.946-2.371-4.502-4.908-6.562-8.063-1.621-1.711-3.295-3.372-5-5-1.378-1.372-2.753-2.747-4.125-4.125-0.663-0.662-1.325-1.325-2.008-2.008-1.623-1.622-3.245-3.244-4.867-4.867-5.459-1.364-10.707-1.224-16.313-1.25-1.116-0.02-2.231-0.041-3.381-0.062-6.069-0.029-10.952 0.08-16.306 3.312-1.058 3.173-1.137 5.452-1.158 8.785-5e-3 0.594-5e-3 0.594-0.031 3.601-7e-3 1.284-0.015 2.568-0.022 3.892-0.028 2.706-0.057 5.412-0.086 8.119-0.042 4.277-0.078 8.554-0.105 12.832-0.027 4.12-0.073 8.241-0.122 12.361-3e-3 1.282-6e-3 2.565-0.01 3.886-8e-3 0.596-8e-3 0.596-0.05 3.61-8e-3 1.048-0.016 2.096-0.024 3.176-0.392 2.738-0.392 2.738-3.392 6.738-2.529 0.495-2.529 0.495-5.586 0.486-1.145 6e-3 -2.289 0.012-3.469 0.019-1.237-0.015-2.475-0.029-3.75-0.044-1.271-1e-3 -2.543-2e-3 -3.852-3e-3 -2.692-6e-3 -5.384-0.021-8.075-0.046-4.12-0.037-8.238-0.041-12.358-0.041-2.613-9e-3 -5.227-0.021-7.84-0.035-0.617-1e-3 -0.617-1e-3 -3.738-7e-3 -1.151-0.012-2.302-0.025-3.488-0.038-1.01-8e-3 -2.021-0.015-3.061-0.023-3.202-0.308-6.431-0.915-8.783-3.268-1.318-9.923-1.149-19.998-1.146-29.986-3e-3 -1.667-6e-3 -3.334-0.01-5.001-9e-3 -4.487-0.011-8.974-0.012-13.461 0-2.808-2e-3 -5.615-5e-3 -8.422-9e-3 -9.805-0.013-19.609-0.013-29.413 1e-3 -9.127-0.01-18.253-0.025-27.38-0.013-7.855-0.019-15.71-0.018-23.565 0-4.684-3e-3 -9.368-0.013-14.051-0.012-5.214-7e-3 -10.427-1e-3 -15.64-6e-3 -1.548-0.011-3.096-0.017-4.69 4e-3 -1.42 8e-3 -2.84 0.012-4.303 0-1.231-1e-3 -2.462-1e-3 -3.731 0.403-5.444 1.363-8.471 5.249-12.357 2.646-1.323 4.647-1.134 7.611-1.145z"/>
<path transform="translate(1445.2 453.69)" d="m0 0c0.776 0.249 0.776 0.249 4.703 1.512 4.126 1.836 5.622 3.101 8.047 6.8 0.763 0.764 1.526 1.527 2.312 2.313 2.131 2.13 4.057 4.27 6 6.563 3.011 3.488 6.265 6.428 9.774 9.402 2.942 2.647 5.384 5.687 7.914 8.722 2.384 2.501 4.7 4.769 7.438 6.876 3.278 2.718 5.822 5.87 8.562 9.124 2.384 2.501 4.7 4.769 7.438 6.876 3.278 2.718 5.822 5.87 8.562 9.124 2.384 2.501 4.7 4.769 7.438 6.876 2.562 2.124 2.562 2.124 5.312 5.5 4.991 5.567 9.766 9.89 17.5 10.374 5.853-0.304 10.492-2.62 15.609-5.339 3.449-1.549 6.381-2.124 10.141-2.411 0.66 0.331 1.32 0.66 2 1-0.15 4.011-1.163 5.173-3.984 8.157-1.245 1.126-2.501 2.24-3.766 3.343-10.627 9.503-10.627 9.503-14.688 14.5-2.63 3.08-5.425 5.451-8.562 8-2.689 2.558-5.123 5.148-7.5 8-2.377 2.853-4.86 5.39-7.5 8-1.21 1.209-2.42 2.419-3.629 3.629-3.79 3.791-7.581 7.581-11.371 11.371-0.766 0.819-1.531 1.638-2.32 2.481-0.555 0.501-1.109 1.003-1.68 1.519-4.833-0.522-7.261-4.409-10.176-7.917-2.651-3.026-5.769-5.472-8.824-8.083-0.908-1.093-1.815-2.186-2.75-3.312-3.543-4.02-7.364-7.175-11.566-10.477-3.936-3.242-7.29-6.739-10.559-10.648-3.142-3.582-6.475-6.509-10.125-9.563-1.681-1.652-3.345-3.321-5-5-2.061-2.084-4.124-4.168-6.188-6.25-1.045-1.057-2.09-2.114-3.167-3.203-3.291-3.168-3.88-3.471-8.457-3.921-5.179 0.463-5.76 1.629-9.188 5.374-0.974 0.986-1.949 1.971-2.953 2.987-1.09 1.105-2.18 2.21-3.303 3.348-6.151 6.233-12.315 12.454-18.486 18.667-3.728 3.754-7.451 7.512-11.164 11.281-3.599 3.654-7.211 7.296-10.832 10.93-1.375 1.385-2.747 2.774-4.113 4.167-1.91 1.946-3.835 3.876-5.764 5.803-1.091 1.102-2.182 2.204-3.305 3.339-3.262 2.625-4.917 3.52-9.08 3.478-2.999-2.215-5.387-4.371-8-7-0.977-0.953-1.955-1.907-2.961-2.89-3.391-3.326-6.749-6.683-10.101-10.047-1.146-1.141-2.291-2.283-3.471-3.459-6.5-6.508-12.921-12.983-18.529-20.291-2.372-2.831-5.08-4.979-7.938-7.313-1.667-1.666-3.333-3.333-5-5-0.418-0.353-0.418-0.353-2.535-2.14-0.917-0.779-1.833-1.557-2.777-2.36-0.884-0.732-1.767-1.464-2.676-2.218-2.012-2.282-2.012-2.282-2.012-7.282 3.635-0.893 6.474-0.994 10.168-0.441 0.976 0.139 1.953 0.277 2.959 0.42 1.01 0.151 2.02 0.303 3.061 0.459 3.932 0.586 7.863 1.104 11.812 1.562 0.863 0.137 1.726 0.274 2.616 0.415 3.576 0.352 6.465 0.224 9.465-1.86 7.585-7.115 14.897-14.491 22.19-21.903 4.013-4.075 8.043-8.134 12.069-12.196 5.097-5.145 10.189-10.295 15.266-15.459 4.129-4.199 8.272-8.383 12.425-12.558 1.572-1.585 3.138-3.175 4.698-4.771 2.184-2.233 4.386-4.446 6.593-6.655 0.316-0.327 0.316-0.327 1.912-1.982 11.176-11.052 27.486-13.166 42.016-8.343z"/>
<path transform="translate(1141.5 381.89)" d="m0 0c0.78 4e-3 0.78 4e-3 4.73 0.024 0.429 2e-3 0.429 2e-3 2.601 0.01 2.856 0.012 5.711 0.033 8.566 0.056 0.487 3e-3 0.487 3e-3 2.95 0.021 5.155 0.037 10.31 0.081 15.465 0.13 5.325 0.05 10.65 0.076 15.976 0.097 4.093 0.02 8.186 0.058 12.279 0.101 1.963 0.017 3.925 0.028 5.888 0.032 2.751 7e-3 5.501 0.039 8.251 0.076 1.565 0.012 3.13 0.024 4.742 0.036 8.445 1.085 13.523 7.654 19.296 13.422 0.906 0.898 1.812 1.796 2.746 2.722 2.988 2.963 5.967 5.934 8.946 8.906l6.222 6.195c4.342 4.325 8.68 8.655 13.015 12.987 5.561 5.556 11.139 11.096 16.72 16.632 4.287 4.256 8.562 8.525 12.834 12.796 2.052 2.048 4.108 4.091 6.169 6.131 2.875 2.848 5.734 5.712 8.59 8.58 0.857 0.842 1.713 1.684 2.596 2.551 0.775 0.785 1.55 1.57 2.349 2.379 0.677 0.675 1.354 1.35 2.052 2.046 1.991 2.784 2.423 4.771 2.558 8.179-5.06 7.97-12.949 12.499-22 15-3.857-0.654-7.251-1.733-10.925-3.043-4.045-1.259-8.064-1.716-12.262-2.269-6.618-0.946-12.147-2.406-18.078-5.5-3.372-1.464-6.618-2.049-10.235-2.688-5.855-1.044-10.633-2.658-15.933-5.312-2.624-1.214-5.147-1.963-7.942-2.688-4.827-1.565-6.478-2.654-9.625-6.5-4.049-4.841-8.158-8.95-13-13-2.5-2.384-4.769-4.699-6.875-7.437-2.718-3.279-5.87-5.822-9.125-8.563-2.543-2.424-4.838-4.793-7-7.562-2-2.438-2-2.438-4.5-4.375-2.884-2.38-4.461-4.942-6.5-8.063-2.507-2.706-5.068-5.055-7.937-7.375-3.427-2.937-6.164-6.171-9.063-9.625-0.948-0.928-1.897-1.856-2.875-2.812-2.125-2.188-2.125-2.188-2.125-4.188l-4-2c-1.794-1.359-3.542-2.782-5.25-4.25-0.892-0.747-1.784-1.495-2.703-2.265-2.047-2.485-2.047-2.485-2.406-5.719 0.528-4.067 0.577-3.741 4.818-3.875z"/>
<path transform="translate(1721.3 381.87)" d="m0 0c2.684 0.129 2.684 0.129 5.684 2.129 0.125 2.25 0.125 2.25-1 5-2.258 2.084-4.6 4.08-7 6-2.688 2.56-5.095 5.117-7.437 8-2.63 3.079-5.425 5.451-8.563 8-2.687 2.556-5.097 5.12-7.437 8-2.63 3.079-5.425 5.451-8.563 8-2.687 2.556-5.097 5.12-7.437 8-2.63 3.079-5.425 5.451-8.563 8-2.687 2.556-5.097 5.12-7.437 8-2.63 3.079-5.425 5.451-8.563 8-2.687 2.556-5.097 5.12-7.437 8-2.628 3.076-5.422 5.461-8.563 8-0.558 0.666-1.116 1.333-1.691 2.019-3.176 2.725-6.116 3.168-10.184 4.043-7.542 1.643-7.542 1.643-11.156 3.473-3.537 1.745-6.7 2.248-10.594 2.84-5.135 0.888-9.583 1.94-14.312 4.125-6.181 2.828-12.385 3.769-19.082 4.726-4.008 0.779-7.265 2.123-10.981 3.774-8.257 0.159-16.206-5.063-22.187-10.438-2.813-3.562-2.813-3.562-3.5-7.187 1.71-8.396 10.29-13.603 16.845-18.5 5.29-4.104 9.936-8.735 14.627-13.5 0.451-0.453 0.451-0.453 2.729-2.745 2.855-2.872 5.702-5.751 8.549-8.63 2.851-2.879 5.703-5.756 8.559-8.631 1.769-1.781 3.536-3.565 5.299-5.352 4.281-4.315 8.634-8.446 13.244-12.406 2.855-2.507 5.501-5.203 8.163-7.912 1.13-1.141 2.259-2.283 3.422-3.459 1.761-1.787 3.522-3.575 5.279-5.365 1.721-1.751 3.447-3.495 5.174-5.239 1.018-1.034 2.035-2.068 3.083-3.134 4.756-4.385 8.252-4.762 14.509-4.821 0.801-0.01 0.801-0.01 4.854-0.06 1.75-0.012 3.5-0.024 5.25-0.035 1.796-0.019 3.592-0.039 5.387-0.059 4.729-0.051 9.458-0.091 14.188-0.128 4.8-0.04 9.601-0.091 14.401-0.141 30.521-0.312 30.521-0.312 32.441-0.387z"/>
</svg>
